<?xml version="1.0" encoding="UTF-8" standalone="no"?>
<!DOCTYPE svg PUBLIC "-//W3C//DTD SVG 1.1//EN" "http://www.w3.org/Graphics/SVG/1.1/DTD/svg11.dtd">
<svg width="100%" height="100%" viewBox="0 0 800 800" version="1.1" xmlns="http://www.w3.org/2000/svg" xmlns:xlink="http://www.w3.org/1999/xlink" xml:space="preserve" xmlns:serif="http://www.serif.com/" style="fill-rule:evenodd;clip-rule:evenodd;stroke-linecap:round;stroke-linejoin:round;stroke-miterlimit:1.5;">
    <g id="Dfinity-stone" serif:id="Dfinity stone">
        <path d="M400,117.517L629.266,249.774L629.266,514.685L400.192,646.941L400.192,647.052L400.096,646.997L400,647.052L400,646.941L170.925,514.685L170.925,249.774L400,117.517Z" style="fill:none;"/>
        <clipPath id="_clip1">
            <path d="M400,117.517L629.266,249.774L629.266,514.685L400.192,646.941L400.192,647.052L400.096,646.997L400,647.052L400,646.941L170.925,514.685L170.925,249.774L400,117.517Z"/>
        </clipPath>
        <g clip-path="url(#_clip1)">
            <g transform="matrix(-1,0,0,-1,799.152,763.752)">
                <g id="v4" transform="matrix(-1.01186,0.584199,-0.508663,-0.88103,986.311,466.481)">
                    <path d="M228.211,250.022L284.589,361.8L172.811,361.8L228.211,250.022Z" style="fill:rgb(146,51,181);"/>
                    <clipPath id="_clip2">
                        <path d="M228.211,250.022L284.589,361.8L172.811,361.8L228.211,250.022Z"/>
                    </clipPath>
                    <g clip-path="url(#_clip2)">
                        <g transform="matrix(0.741208,0.491485,-0.427937,0.851276,265.937,-161.075)">
                            <path d="M218.102,408.238L225.603,482.497L179.57,441.101L168.853,513.924L164.513,377.014L218.102,408.238Z" style="fill:rgb(228,122,255);"/>
                        </g>
                    </g>
                    <path d="M228.211,250.022L284.589,361.8L172.811,361.8L228.211,250.022Z" style="fill:none;stroke:black;stroke-width:2.5px;"/>
                </g>
                <g id="v3" transform="matrix(-1.02655,0.592679,-0.51179,-0.886447,761.717,468.055)">
                    <path d="M228.211,250.022L284.589,361.8L172.811,361.8L228.211,250.022Z" style="fill:rgb(146,51,181);"/>
                    <clipPath id="_clip3">
                        <path d="M228.211,250.022L284.589,361.8L172.811,361.8L228.211,250.022Z"/>
                    </clipPath>
                    <g clip-path="url(#_clip3)">
                        <g transform="matrix(0.730602,0.488481,-0.421813,0.846074,97.3788,-268.468)">
                            <path d="M396.93,430.287L455.446,480.916L449.818,420.131L513.364,446.094L397.552,377.332L396.93,430.287Z" style="fill:rgb(228,122,255);"/>
                        </g>
                    </g>
                    <path d="M228.211,250.022L284.589,361.8L172.811,361.8L228.211,250.022Z" style="fill:none;stroke:black;stroke-width:2.5px;"/>
                </g>
                <g id="v2" transform="matrix(1.01186,-0.584199,0.508663,0.88103,41.1377,293.499)">
                    <path d="M228.211,250.022L284.589,361.8L172.811,361.8L228.211,250.022Z" style="fill:rgb(146,51,181);"/>
                    <clipPath id="_clip4">
                        <path d="M228.211,250.022L284.589,361.8L172.811,361.8L228.211,250.022Z"/>
                    </clipPath>
                    <g clip-path="url(#_clip4)">
                        <g transform="matrix(-0.741208,-0.491485,0.427937,-0.851276,360.608,772.868)">
                            <path d="M331.392,289.947L398.841,317.34L336.714,336.924L396.528,382.142L272.898,316.823L331.392,289.947Z" style="fill:rgb(228,122,255);"/>
                        </g>
                    </g>
                    <path d="M228.211,250.022L284.589,361.8L172.811,361.8L228.211,250.022Z" style="fill:none;stroke:black;stroke-width:2.5px;"/>
                </g>
                <g id="v1" transform="matrix(1.03172,-0.595664,0.508663,0.88103,37.1617,430.222)">
                    <path d="M228.211,250.022L284.589,361.8L172.811,361.8L228.211,250.022Z" style="fill:rgb(146,51,181);"/>
                    <clipPath id="_clip5">
                        <path d="M228.211,250.022L284.589,361.8L172.811,361.8L228.211,250.022Z"/>
                    </clipPath>
                    <g clip-path="url(#_clip5)">
                        <g transform="matrix(-0.726942,-0.491485,0.4197,-0.851276,413.94,658.434)">
                            <path d="M400.463,165.978L342.406,214.886L350.206,156.4L281.98,180.374L408.01,106.594L400.463,165.978Z" style="fill:rgb(228,122,255);"/>
                        </g>
                    </g>
                    <path d="M228.211,250.022L284.589,361.8L172.811,361.8L228.211,250.022Z" style="fill:none;stroke:black;stroke-width:2.5px;"/>
                </g>
                <g id="p5" transform="matrix(-1.01928,0.588484,-0.51338,-0.889201,760.986,601.112)">
                    <path d="M228.211,250.022L284.589,361.8L172.811,361.8L228.211,250.022Z" style="fill:rgb(254,56,143);"/>
                    <clipPath id="_clip6">
                        <path d="M228.211,250.022L284.589,361.8L172.811,361.8L228.211,250.022Z"/>
                    </clipPath>
                    <g clip-path="url(#_clip6)">
                        <g transform="matrix(0.73581,0.486969,-0.42482,0.843454,41.0101,-155.766)">
                            <path d="M400.403,294.854L456.043,349.122L441.166,283.236L513.532,316.005L401.314,250.084L400.403,294.854Z" style="fill:rgb(255,181,196);"/>
                        </g>
                    </g>
                    <path d="M228.211,250.022L284.589,361.8L172.811,361.8L228.211,250.022Z" style="fill:none;stroke:black;stroke-width:2.5px;"/>
                </g>
                <g id="P4" transform="matrix(-1.03246,0.596091,-0.51623,-0.894137,650.767,667.597)">
                    <path d="M228.211,250.022L284.589,361.8L172.811,361.8L228.211,250.022Z" style="fill:rgb(254,56,143);"/>
                    <clipPath id="_clip7">
                        <path d="M228.211,250.022L284.589,361.8L172.811,361.8L228.211,250.022Z"/>
                    </clipPath>
                    <g clip-path="url(#_clip7)">
                        <g transform="matrix(0.72642,0.48428,-0.419399,0.838798,-67.4628,-152.515)">
                            <path d="M513.237,272.341L570.292,212.881L552.971,285.124L627.632,251.791L511.843,319.2L513.237,272.341Z" style="fill:rgb(255,181,196);"/>
                        </g>
                    </g>
                    <path d="M228.211,250.022L284.589,361.8L172.811,361.8L228.211,250.022Z" style="fill:none;stroke:black;stroke-width:2.5px;"/>
                </g>
                <g id="p3" transform="matrix(1.03564,-0.59793,0.508663,0.88103,-192.917,166.733)">
                    <path d="M228.211,250.022L284.589,361.8L172.811,361.8L228.211,250.022Z" style="fill:rgb(254,56,143);"/>
                    <clipPath id="_clip8">
                        <path d="M228.211,250.022L284.589,361.8L172.811,361.8L228.211,250.022Z"/>
                    </clipPath>
                    <g clip-path="url(#_clip8)">
                        <g transform="matrix(-0.724186,-0.491485,0.418109,-0.851276,468.824,995.815)">
                            <path d="M599.806,398.77L570.623,480.107L623.111,428.374L629.925,512.451L632.672,378.555L599.806,398.77Z" style="fill:rgb(255,181,196);"/>
                        </g>
                    </g>
                    <path d="M228.211,250.022L284.589,361.8L172.811,361.8L228.211,250.022Z" style="fill:none;stroke:black;stroke-width:2.5px;"/>
                </g>
                <g id="p2" transform="matrix(1.01186,-0.584199,0.508663,0.88103,155.041,95.9621)">
                    <path d="M228.211,250.022L284.589,361.8L172.811,361.8L228.211,250.022Z" style="fill:rgb(254,56,143);"/>
                    <clipPath id="_clip9">
                        <path d="M228.211,250.022L284.589,361.8L172.811,361.8L228.211,250.022Z"/>
                    </clipPath>
                    <g clip-path="url(#_clip9)">
                        <g transform="matrix(-0.741208,-0.491485,0.427937,-0.851276,191.648,885.045)">
                            <path d="M287.173,488.742L230.027,546.446L245.448,480.155L171.867,513.696L286.11,448.014L287.173,488.742Z" style="fill:rgb(255,181,196);"/>
                        </g>
                    </g>
                    <path d="M228.211,250.022L284.589,361.8L172.811,361.8L228.211,250.022Z" style="fill:none;stroke:black;stroke-width:2.5px;"/>
                </g>
                <g id="p1" transform="matrix(1.01186,-0.584199,0.508663,0.88103,156.058,227.15)">
                    <path d="M228.211,250.022L284.589,361.8L172.811,361.8L228.211,250.022Z" style="fill:rgb(254,56,143);"/>
                    <clipPath id="_clip10">
                        <path d="M228.211,250.022L284.589,361.8L172.811,361.8L228.211,250.022Z"/>
                    </clipPath>
                    <g clip-path="url(#_clip10)">
                        <g transform="matrix(-0.741208,-0.491485,0.427937,-0.851276,247.035,772.868)">
                            <path d="M285.854,362.276L228.597,416.004L246.623,348.648L171.321,382.564L287.25,311.784L285.854,362.276Z" style="fill:rgb(255,181,196);"/>
                        </g>
                    </g>
                    <path d="M228.211,250.022L284.589,361.8L172.811,361.8L228.211,250.022Z" style="fill:none;stroke:black;stroke-width:2.5px;"/>
                </g>
                <g id="o5" transform="matrix(-1.04413,0.60283,-0.514451,-0.891056,994.782,597.616)">
                    <path d="M228.211,250.022L284.589,361.8L172.811,361.8L228.211,250.022Z" style="fill:rgb(241,90,37);"/>
                    <clipPath id="_clip11">
                        <path d="M228.211,250.022L284.589,361.8L172.811,361.8L228.211,250.022Z"/>
                    </clipPath>
                    <g clip-path="url(#_clip11)">
                        <g transform="matrix(0.718299,0.485955,-0.41471,0.841698,209.42,-44.7696)">
                            <path d="M215.564,274.894L230.119,349.063L180.742,305.15L171.131,383.394L160.614,237.537L215.564,274.894Z" style="fill:rgb(254,191,137);"/>
                        </g>
                    </g>
                    <path d="M228.211,250.022L284.589,361.8L172.811,361.8L228.211,250.022Z" style="fill:none;stroke:black;stroke-width:2.5px;"/>
                </g>
                <g id="o4" transform="matrix(-1.03816,0.599382,-0.515548,-0.892956,766.126,732.041)">
                    <path d="M228.7,250.022L284.589,361.8L172.811,361.8L228.7,250.022Z" style="fill:rgb(241,90,37);"/>
                    <clipPath id="_clip12">
                        <path d="M228.7,250.022L284.589,361.8L172.811,361.8L228.7,250.022Z"/>
                    </clipPath>
                    <g clip-path="url(#_clip12)">
                        <g transform="matrix(0.722432,0.484921,-0.417096,0.839907,-10.6328,-42.6495)">
                            <path d="M441.257,228.872L456.857,150.735L406.259,192.2L400.497,115.781L395.535,254.898L441.257,228.872Z" style="fill:rgb(254,191,137);"/>
                        </g>
                    </g>
                    <path d="M228.7,250.022L284.589,361.8L172.811,361.8L228.7,250.022Z" style="fill:none;stroke:black;stroke-width:2.5px;"/>
                </g>
                <g id="o3" transform="matrix(-1.01186,0.584199,-0.508794,-0.881257,871.438,401.606)">
                    <path d="M228.211,250.022L284.589,361.8L172.811,361.8L228.211,250.022Z" style="fill:rgb(241,90,37);"/>
                    <clipPath id="_clip13">
                        <path d="M228.211,250.022L284.589,361.8L172.811,361.8L228.211,250.022Z"/>
                    </clipPath>
                    <g clip-path="url(#_clip13)">
                        <g transform="matrix(0.741208,0.491358,-0.427937,0.851057,208.555,-272.689)">
                            <path d="M285.908,526.727L339.544,479.262L330.97,543.993L397.905,514.381L300.645,590.962L274.686,592.449L285.908,526.727Z" style="fill:rgb(254,191,137);"/>
                        </g>
                    </g>
                    <path d="M228.211,250.022L284.589,361.8L172.811,361.8L228.211,250.022Z" style="fill:none;stroke:black;stroke-width:2.5px;"/>
                </g>
                <g id="o2" transform="matrix(-1.01902,0.588332,-0.51179,-0.886447,645.415,535.202)">
                    <path d="M228.211,250.022L284.589,361.8L172.811,361.8L228.211,250.022Z" style="fill:rgb(241,90,37);"/>
                    <clipPath id="_clip14">
                        <path d="M228.211,250.022L284.589,361.8L172.811,361.8L228.211,250.022Z"/>
                    </clipPath>
                    <g clip-path="url(#_clip14)">
                        <g transform="matrix(0.736001,0.488481,-0.42493,0.846074,-16.0324,-268.468)">
                            <path d="M589.868,359.329L514.561,379.687L580.821,400.425L516.712,446.732L638.715,381.242L589.868,359.329Z" style="fill:rgb(254,191,137);"/>
                        </g>
                    </g>
                    <path d="M228.211,250.022L284.589,361.8L172.811,361.8L228.211,250.022Z" style="fill:none;stroke:black;stroke-width:2.5px;"/>
                </g>
                <g id="o1" transform="matrix(-1.03336,0.596613,-0.50951,-0.882498,762.07,332.154)">
                    <path d="M228.211,250.022L284.589,361.8L172.811,361.8L228.211,250.022Z" style="fill:rgb(241,90,37);"/>
                    <clipPath id="_clip15">
                        <path d="M228.211,250.022L284.589,361.8L172.811,361.8L228.211,250.022Z"/>
                    </clipPath>
                    <g clip-path="url(#_clip15)">
                        <g transform="matrix(0.725785,0.490667,-0.419032,0.849861,153.939,-384.994)">
                            <path d="M395.962,560.65L459.964,612.581L444.83,546.059L513.058,580.767L397.912,513.709L395.962,560.65Z" style="fill:rgb(254,191,137);"/>
                        </g>
                    </g>
                    <path d="M228.211,250.022L284.589,361.8L172.811,361.8L228.211,250.022Z" style="fill:none;stroke:black;stroke-width:2.5px;"/>
                </g>
                <g id="y5" transform="matrix(1.03816,-0.599382,0.508663,0.88103,-79.2877,100.531)">
                    <path d="M228.211,250.022L284.589,361.8L172.811,361.8L228.211,250.022Z" style="fill:rgb(255,204,79);"/>
                    <clipPath id="_clip16">
                        <path d="M228.211,250.022L284.589,361.8L172.811,361.8L228.211,250.022Z"/>
                    </clipPath>
                    <g clip-path="url(#_clip16)">
                        <g transform="matrix(-0.722432,-0.491485,0.417096,-0.851276,357.986,996.324)">
                            <path d="M468.075,475.876L456.582,547.241L505.7,505.45L515.946,585.21L516.377,447.146L468.075,475.876Z" style="fill:rgb(253,245,222);"/>
                        </g>
                    </g>
                    <path d="M228.211,250.022L284.589,361.8L172.811,361.8L228.211,250.022Z" style="fill:none;stroke:black;stroke-width:2.5px;"/>
                </g>
                <g id="y4" transform="matrix(1.03312,-0.596475,0.508663,0.88103,36.583,33.6333)">
                    <path d="M228.211,250.022L284.589,361.8L172.811,361.8L228.211,250.022Z" style="fill:rgb(255,204,79);"/>
                    <clipPath id="_clip17">
                        <path d="M228.211,250.022L284.589,361.8L172.811,361.8L228.211,250.022Z"/>
                    </clipPath>
                    <g clip-path="url(#_clip17)">
                        <g transform="matrix(-0.725953,-0.491485,0.419129,-0.851276,247.575,996.324)">
                            <path d="M400.675,589.867L342.529,546.442L351.086,607.209L283.784,579.944L404.052,659.039L400.675,589.867Z" style="fill:rgb(253,245,222);"/>
                        </g>
                    </g>
                    <path d="M228.211,250.022L284.589,361.8L172.811,361.8L228.211,250.022Z" style="fill:none;stroke:black;stroke-width:2.5px;"/>
                </g>
                <g id="y3" transform="matrix(1.01186,-0.584199,0.508663,0.88103,-188.007,295.087)">
                    <path d="M228.211,250.022L284.589,361.8L172.811,361.8L228.211,250.022Z" style="fill:rgb(255,204,79);"/>
                    <clipPath id="_clip18">
                        <path d="M228.211,250.022L284.589,361.8L172.811,361.8L228.211,250.022Z"/>
                    </clipPath>
                    <g clip-path="url(#_clip18)">
                        <g transform="matrix(-0.741208,-0.491485,0.427937,-0.851276,531.131,884.137)">
                            <path d="M579.266,279.166L572.711,348.754L623.101,312.598L629.285,384.042L635.376,240.392L579.266,279.166Z" style="fill:rgb(253,245,222);"/>
                        </g>
                    </g>
                    <path d="M228.211,250.022L284.589,361.8L172.811,361.8L228.211,250.022Z" style="fill:none;stroke:black;stroke-width:2.5px;"/>
                </g>
                <g id="y2" transform="matrix(1.01186,-0.584199,0.508663,0.88103,41.1377,162.193)">
                    <path d="M228.211,250.022L284.589,361.8L172.811,361.8L228.211,250.022Z" style="fill:rgb(255,204,79);"/>
                    <clipPath id="_clip19">
                        <path d="M228.211,250.022L284.589,361.8L172.811,361.8L228.211,250.022Z"/>
                    </clipPath>
                    <g clip-path="url(#_clip19)">
                        <g transform="matrix(-0.741208,-0.491485,0.427937,-0.851276,304.417,884.646)">
                            <path d="M353.214,488.15L343.449,415.018L391.566,454.169L400.096,385.871L404.839,527.307L353.214,488.15Z" style="fill:rgb(253,245,222);"/>
                        </g>
                    </g>
                    <path d="M228.211,250.022L284.589,361.8L172.811,361.8L228.211,250.022Z" style="fill:none;stroke:black;stroke-width:2.5px;"/>
                </g>
                <g id="y1" transform="matrix(1.01186,-0.584199,0.508663,0.88103,156.218,360.886)">
                    <path d="M228.211,250.022L284.589,361.8L172.811,361.8L228.211,250.022Z" style="fill:rgb(255,204,79);"/>
                    <clipPath id="_clip20">
                        <path d="M228.211,250.022L284.589,361.8L172.811,361.8L228.211,250.022Z"/>
                    </clipPath>
                    <g clip-path="url(#_clip20)">
                        <g transform="matrix(-0.741208,-0.491485,0.427937,-0.851276,304.147,658.942)">
                            <path d="M237.065,289.562L228.623,216.651L279.758,256.918L284.805,185.054L292.021,331.639L237.065,289.562Z" style="fill:rgb(253,245,222);"/>
                        </g>
                    </g>
                    <path d="M228.211,250.022L284.589,361.8L172.811,361.8L228.211,250.022Z" style="fill:none;stroke:black;stroke-width:2.5px;"/>
                </g>
                <g id="b5" transform="matrix(-1.04983,0.606118,-0.519021,-0.89897,883.836,666.086)">
                    <path d="M228.211,250.022L284.589,361.8L172.811,361.8L228.211,250.022Z" style="fill:rgb(41,170,225);"/>
                    <clipPath id="_clip21">
                        <path d="M228.211,250.022L284.589,361.8L172.811,361.8L228.211,250.022Z"/>
                    </clipPath>
                    <g clip-path="url(#_clip21)">
                        <g transform="matrix(0.714404,0.481676,-0.412461,0.834288,100.781,-40.6915)">
                            <path d="M368.728,230.287L284.969,244.28L358.789,266.912L283.434,315.793L404.429,251.938L368.728,230.287Z" style="fill:rgb(163,227,254);"/>
                        </g>
                    </g>
                    <path d="M228.211,250.022L284.589,361.8L172.811,361.8L228.211,250.022Z" style="fill:none;stroke:black;stroke-width:2.5px;"/>
                </g>
                <g id="b4" transform="matrix(-1.01571,0.586422,-0.511683,-0.886262,874.276,534.286)">
                    <path d="M228.211,250.022L284.589,361.8L172.811,361.8L228.211,250.022Z" style="fill:rgb(41,170,225);"/>
                    <clipPath id="_clip22">
                        <path d="M228.211,250.022L284.589,361.8L172.811,361.8L228.211,250.022Z"/>
                    </clipPath>
                    <g clip-path="url(#_clip22)">
                        <g transform="matrix(0.738398,0.488583,-0.426314,0.846251,153.296,-157.482)">
                            <path d="M286.085,405.61L345.759,350.239L321.748,420.991L411.92,373.031L283.057,458.791L286.085,405.61Z" style="fill:rgb(163,227,254);"/>
                        </g>
                    </g>
                    <path d="M228.211,250.022L284.589,361.8L172.811,361.8L228.211,250.022Z" style="fill:none;stroke:black;stroke-width:2.5px;"/>
                </g>
                <g id="b3" transform="matrix(-1.03845,0.599547,-0.508663,-0.88103,648.204,397.15)">
                    <path d="M228.211,250.022L284.589,361.8L172.811,361.8L228.211,250.022Z" style="fill:rgb(41,170,225);"/>
                    <clipPath id="_clip23">
                        <path d="M228.211,250.022L284.589,361.8L172.811,361.8L228.211,250.022Z"/>
                    </clipPath>
                    <g clip-path="url(#_clip23)">
                        <g transform="matrix(0.722233,0.491485,-0.416982,0.851276,43.8464,-386.269)">
                            <path d="M514.308,541.094L570.39,481.24L549.38,551.67L627.408,515.982L518.03,589.036L512.813,581.851L514.308,541.094Z" style="fill:rgb(163,227,254);"/>
                        </g>
                    </g>
                    <path d="M228.211,250.022L284.589,361.8L172.811,361.8L228.211,250.022Z" style="fill:none;stroke:black;stroke-width:2.5px;"/>
                </g>
                <g id="b2" transform="matrix(1.01186,-0.584199,0.508663,0.88103,-73.7826,228.542)">
                    <path d="M228.211,250.022L284.589,361.8L172.811,361.8L228.211,250.022Z" style="fill:rgb(41,170,225);"/>
                    <clipPath id="_clip24">
                        <path d="M228.211,250.022L284.589,361.8L172.811,361.8L228.211,250.022Z"/>
                    </clipPath>
                    <g clip-path="url(#_clip24)">
                        <g transform="matrix(-0.741208,-0.491485,0.427937,-0.851276,417.99,884.646)">
                            <path d="M474.905,339.143L452.452,411.731L509.667,365.146L513.52,448.272L520.896,343.9L516.678,312.193L474.905,339.143Z" style="fill:rgb(163,227,254);"/>
                        </g>
                    </g>
                    <path d="M228.211,250.022L284.589,361.8L172.811,361.8L228.211,250.022Z" style="fill:none;stroke:black;stroke-width:2.5px;"/>
                </g>
                <g id="b1" transform="matrix(1.01186,-0.584199,0.508663,0.88103,-73.0864,360.044)">
                    <path d="M228.211,250.022L284.589,361.8L172.811,361.8L228.211,250.022Z" style="fill:rgb(41,170,225);"/>
                    <clipPath id="_clip25">
                        <path d="M228.211,250.022L284.589,361.8L172.811,361.8L228.211,250.022Z"/>
                    </clipPath>
                    <g clip-path="url(#_clip25)">
                        <g transform="matrix(-0.741208,-0.491485,0.427937,-0.851276,473.749,772.359)">
                            <path d="M481.634,200.913L457.192,282.361L508.365,234.106L512.353,319.62L519.612,175.734L481.634,200.913Z" style="fill:rgb(163,227,254);"/>
                        </g>
                    </g>
                    <path d="M228.211,250.022L284.589,361.8L172.811,361.8L228.211,250.022Z" style="fill:none;stroke:black;stroke-width:2.5px;"/>
                </g>
            </g>
        </g>
        <path d="M400,117.517L629.266,249.774L629.266,514.685L400.192,646.941L400.192,647.052L400.096,646.997L400,647.052L400,646.941L170.925,514.685L170.925,249.774L400,117.517Z" style="fill:none;stroke:black;stroke-width:2.5px;"/>
    </g>
</svg>
