<svg width="100%" height="100%" viewBox="0 0 800 800" version="1.1"
    xmlns="http://www.w3.org/2000/svg"
    xmlns:xlink="http://www.w3.org/1999/xlink" xml:space="preserve"
    xmlns:serif="http://www.serif.com/" style="fill-rule:evenodd;clip-rule:evenodd;stroke-linecap:round;stroke-linejoin:round;stroke-miterlimit:1.5;">
    <g id="glass" transform="matrix(0.808346,0,0,0.808346,76.7833,26.8926)">
        <path d="M170.925,514.397L400.441,382.285L629.516,514.541L400.096,647.107L170.925,514.397Z" style="fill:rgb(179,203,209);fill-opacity:0.85;stroke:black;stroke-opacity:0.85;stroke-width:2.5px;"/>
        <path d="M400.192,117.628L399.875,382.213L629.266,514.796L629.266,250.172L400.192,117.628Z" style="fill:rgb(179,203,209);fill-opacity:0.85;stroke:black;stroke-opacity:0.85;stroke-width:2.5px;"/>
        <clipPath id="_clip6">
            <path d="M170.925,249.973L170.925,514.796L399.923,382.185L400,117.517L170.925,249.973Z"/>
        </clipPath>
        <g clip-path="url(#_clip6)">
            <g opacity="0.85">
                <path d="M170.925,249.973L170.925,514.796L399.923,382.185L400,117.517L170.925,249.973Z" style="fill:rgb(179,203,209);"/>
                <clipPath id="_clip7">
                    <path d="M170.925,249.973L170.925,514.796L399.923,382.185L400,117.517L170.925,249.973Z"/>
                </clipPath>
                <g clip-path="url(#_clip7)">
                    <path d="M394.926,117.184L397.067,381.132L399.981,387.931L400.266,109.274L394.926,117.184Z" style="fill:white;"/>
                </g>
            </g>
        </g>
        <path d="M170.925,249.973L170.925,514.796L399.923,382.185L400,117.517L170.925,249.973Z" style="fill:none;stroke:black;stroke-opacity:0.85;stroke-width:2.5px;"/>
        <g id="essence" transform="matrix(1.23709,0,0,1.23709,-94.9881,-33.2687)">
            <path d="M215.201,390.98L215.414,283.682C215.414,283.682 243.34,271.701 249.59,267.634C265.477,257.294 280.706,245.722 295.945,234.327C314.363,220.554 335.284,215.373 356.016,209.234C378.817,202.482 398.9,192.342 398.9,192.342C398.9,192.342 454.947,225.694 467.414,229.624C506.589,241.971 528.745,253.971 562.819,274.902C569.487,278.997 585.421,282.669 585.421,282.669C585.421,282.669 585.507,363.366 585.394,384.559C585.285,404.88 585.318,442.935 585.318,442.935C585.318,442.935 564.347,454.346 557.456,458.64C537.466,471.094 517.322,482.065 497.09,494.124C472.214,508.951 452.996,519.547 427.793,533.814C416.834,540.018 400.29,550.156 400.29,550.156C400.29,550.156 373.654,535.127 361.491,527.227C331.069,507.465 307.508,498.276 280.82,480.733C262.868,468.933 215.439,444.053 215.439,444.053L215.201,390.98Z" style="fill:rgb(210,0,0);"/>
            <clipPath id="_clip8">
                <path d="M215.201,390.98L215.414,283.682C215.414,283.682 243.34,271.701 249.59,267.634C265.477,257.294 280.706,245.722 295.945,234.327C314.363,220.554 335.284,215.373 356.016,209.234C378.817,202.482 398.9,192.342 398.9,192.342C398.9,192.342 454.947,225.694 467.414,229.624C506.589,241.971 528.745,253.971 562.819,274.902C569.487,278.997 585.421,282.669 585.421,282.669C585.421,282.669 585.507,363.366 585.394,384.559C585.285,404.88 585.318,442.935 585.318,442.935C585.318,442.935 564.347,454.346 557.456,458.64C537.466,471.094 517.322,482.065 497.09,494.124C472.214,508.951 452.996,519.547 427.793,533.814C416.834,540.018 400.29,550.156 400.29,550.156C400.29,550.156 373.654,535.127 361.491,527.227C331.069,507.465 307.508,498.276 280.82,480.733C262.868,468.933 215.439,444.053 215.439,444.053L215.201,390.98Z"/>
            </clipPath>
            <g clip-path="url(#_clip8)">
                <path d="M214.682,282.778C214.484,285.232 219.619,289.509 221.257,290.635C230.862,297.239 236.394,302.921 250.726,307.531C274.064,315.037 299.264,319.226 322.31,326.997C334.523,331.115 345.088,338.313 356.381,344.417C366.362,349.811 374.85,355.278 385.387,359.497C388.217,360.63 395.912,363.627 399.193,362.721C420.487,356.839 440.512,348.206 459.644,337.645C487.059,322.513 513.29,304.936 544.297,298.669C556.01,296.302 568.528,292.007 579.119,286.233C580.585,285.433 583.288,282.97 583.349,284.599C583.503,288.735 583.643,298.518 582.843,300.585C581.46,304.162 582.789,301.547 582.466,304.233C582.167,306.716 581.118,308.091 580.644,309.894C579.948,312.54 581.173,317.874 580.043,319.643C577.535,323.572 571.577,322.003 564.896,325.583C561.523,327.391 559.933,332.648 554.27,333.623C554.241,333.628 553.307,331.166 553.075,328.495C552.09,317.175 556.155,312.248 556.155,312.248C556.155,312.248 551.207,311.366 546.425,314.1C540.654,317.401 538.71,320.268 532.878,326.167C530.593,328.477 525.916,330.214 523.302,334.849C520.868,339.164 523.023,343.467 519.43,347.982C511.724,357.663 497.149,364.657 486.896,371.103C480.983,374.821 465.413,379.727 465.413,379.727C465.413,379.727 479.553,373.154 483.692,370.776C490.998,366.578 499.818,358.97 503.245,350.668C505.495,345.216 502.605,342.315 506.083,337.103C507.987,334.25 518.833,323.916 518.833,323.916C518.833,323.916 511.776,328.797 510.791,329.275C500.801,334.13 491.365,338.506 484.043,347.078C479.413,352.499 474.546,360.764 467.166,362.623C461.002,364.176 453.265,360.733 447.625,363.658C440.023,367.601 435.659,376.065 427.461,379.566C419.454,382.985 410.957,380.265 402.995,382.688C399.346,383.798 401.856,388.243 397.787,388.527C392.155,388.919 383.801,384.136 380.164,380.495C379.385,379.715 374.628,374.355 373.18,375.167C368.929,377.549 369.142,384.918 369.423,388.795C369.475,389.508 370.943,397.9 370.118,397.323C352.169,384.789 354.852,376.001 346.336,366.922C340.481,360.68 329.826,358.16 322.868,353.429C316.417,349.042 318.441,342.968 311.28,339.739C299.143,334.266 294.841,329.812 287.161,328.383C274.727,326.069 268.211,330.288 251.162,330.799C246.077,330.951 228.992,326.598 228.992,326.598C228.992,326.598 236.698,331.495 238.585,332.294C246.328,335.571 244.603,336.792 252.775,338.511C253.808,338.728 269.294,339.996 269.294,339.996C269.294,339.996 258.792,343.569 254.23,344.58C249.006,345.736 238.435,351.986 234.417,351.697C230.486,351.414 227.688,347.469 220.636,345.379C213.592,343.291 205.834,339.7 203.699,335.524C196.953,322.331 200.377,295.081 208.928,283.109" style="fill:rgb(4,244,46);"/>
                <path d="M214.201,363.869C213.387,363.962 215.572,364.775 216.304,365.144C217.815,365.906 219.284,366.735 220.836,367.415C225.522,369.467 230.791,370.691 235.914,370.196C249.855,368.848 260.283,356.233 274.546,357.18C284.117,357.816 293.056,362.019 302.597,363.039C306.091,363.412 312.273,362.452 315.106,365C317.612,367.254 318.762,371.99 320.222,374.945C323.275,381.124 326.815,386.317 332.854,389.911C349.513,399.824 372.344,400.217 376.685,423.032C377.338,426.464 377.429,430.012 377,433.477C376.817,434.961 373.158,448.015 371.55,447.97C371.109,447.957 369.757,440.844 369.525,440.19C367.983,435.862 364.433,432.301 360.626,429.844C353.166,425.03 346.094,431.048 339.267,427.288C325.638,419.782 316.912,404.898 304.837,395.42C297.853,389.938 274.835,380.861 273.592,397.266C273.325,400.797 279.332,400.461 281.711,400.869C290.189,402.324 298.329,404.447 305.002,410.176C311.197,415.495 315.059,422.828 321.453,427.984C328.037,433.294 336.348,435.69 342.885,440.98C347.168,444.445 349.134,449.855 353.366,453.375C361.836,460.419 375.007,462.937 385.593,464.231C393.529,465.201 406.226,467.132 413.732,462.984C423.25,457.724 416.29,444.569 417.861,436.323C419.043,430.119 424.279,425.953 427.907,421.155C434.753,412.101 435.048,404.363 447.144,399.987C451.156,398.536 455.329,397.418 459.479,396.439C464.114,395.346 468.812,394.199 473.517,393.445C474.311,393.318 477.241,392.529 477.945,393.167C478.222,393.418 471.839,400.546 471.374,401.114C464.808,409.132 455.889,429.416 474.24,428.549C484.347,428.072 501.135,422.726 508.569,415.645C512.611,411.795 514.539,406.088 518.783,402.121C523.238,397.957 530.8,395.406 534.191,390.316C536.284,387.175 532.711,383.802 534.747,380.596C538.662,374.435 547.706,372.132 550.018,364.767C550.987,361.681 549.473,360.144 546.47,359.613C545.41,359.426 544.326,359.306 543.248,359.336C543.043,359.341 541.749,359.339 541.766,359.322C543.952,357.175 547.806,355.74 550.488,354.366C552.649,353.259 554.914,352.056 557.236,351.321C559.611,350.568 570.89,350.521 570.544,355.217C570.38,357.449 566.766,357.941 566.853,361.113C566.949,364.599 569.171,367.948 571.093,370.723C573.04,373.535 574.894,376.798 578.491,377.522C580.334,377.893 584.764,376.523 586.119,377.662C589.569,380.563 587.742,392.391 587.429,396.214C586.221,410.943 570.626,409.508 559.654,414.615C553.274,417.585 555.184,425.318 549.39,428.078C543.175,431.039 535.5,432.043 528.887,433.818C516.52,437.138 503.879,440.87 492.165,446.08C484.245,449.603 476.513,453.626 470.266,459.737C463.513,466.345 458.905,474.641 450.965,480.05C448.375,481.814 437.614,488.56 434.548,484.959C432.694,482.782 434.594,477.707 435.337,475.427C438.34,466.218 445.113,459.528 449.008,450.839C449.85,448.96 453.937,446.158 451.948,444.12C451.369,443.527 449.49,445.411 446.078,448.508C441.309,452.839 439.432,458.618 434.314,462.58C418.372,474.923 397.161,477.167 395.269,500.846C395.113,502.792 395.065,504.746 395.325,506.685C397.066,519.665 413.526,512.695 421.67,512.006C422.9,511.902 431.407,510.848 432.207,512.243C432.266,512.346 422.971,515.93 422.365,516.159C422.111,516.256 421.856,516.352 421.601,516.448C419.148,517.372 416.724,518.351 414.304,519.358C410.269,521.037 406.268,523.532 401.943,524.399C390.684,526.657 384.939,513.275 377.814,507.222C371.113,501.529 365.191,494.547 358.037,489.438C352.181,485.256 345.168,482.94 339.38,478.627C331.648,472.863 326.508,465.893 317.176,462.169C304.998,457.31 294.265,461.81 282.293,464.471C268.678,467.498 256.467,468.265 244.149,461.456C240.677,459.537 229.643,454.56 228.639,449.915C228.308,448.383 231.852,448.601 232.558,448.584C237.207,448.473 241.852,448.806 246.502,448.752C258.496,448.615 271.198,447.116 281.947,441.405C284.418,440.093 291.086,435.969 289.878,432.233C289.36,430.631 285.611,431.125 284.421,431.158C279.77,431.286 274.892,431.492 271.205,428.196C267.171,424.59 264.897,419.534 260.196,416.602C255.473,413.657 248.73,413.103 244.828,409.053C242.586,406.726 241.374,403.887 241.014,400.696C240.9,399.693 241.489,396.609 240.388,396.052C235.677,393.672 223.668,399.809 219.46,401.776C218.307,402.315 213.869,405.682 212.576,404.866C210.603,403.622 211.267,398.412 211.309,396.602C211.36,394.407 211.396,392.212 211.47,390.017C211.588,386.528 211.903,383.058 212.216,379.583C212.674,374.479 213.21,369.302 213.947,364.23" style="fill:rgb(254,205,26);"/>
                <path d="M368.985,344.712C369.503,344.333 372.586,344.867 373.262,344.846C377.074,344.726 381.226,345.208 384.807,343.632C386.955,342.687 388.258,341.147 389.097,338.974C389.248,338.584 389.794,335.694 390.137,335.558C390.575,335.386 392.852,337.066 394.181,336.648C399.728,334.905 404.712,331.418 410.299,329.584C419.952,326.414 430.101,324.882 439.613,321.281C450.107,317.307 460.057,310.572 469.38,304.436C473.978,301.41 478.346,297.974 483.407,295.727C493.097,291.427 503.879,290.169 513.693,286.195C516.962,284.871 522.374,282.616 524.583,279.621C525.365,278.559 523.705,276.161 523.159,275.319C520.44,271.126 515.664,269.763 511.117,268.514C509.343,268.027 507.512,267.507 505.82,266.775C505.708,266.727 504.274,266.107 504.402,265.991C504.812,265.62 506.659,266.089 507.134,266.138C510.028,266.441 512.999,266.898 515.767,267.822C520.691,269.468 525.398,272.251 530.11,274.439C531.239,274.963 534.454,275.737 534.99,277.022C535.577,278.43 534.136,283.012 533.692,284.477C533.064,286.549 530.304,287.208 528.496,287.787C523.652,289.339 518.712,290.578 513.898,292.225C508.331,294.13 502.627,295.648 497.212,297.966C491.217,300.532 485.612,303.854 479.768,306.725C472.933,310.083 466.677,312.488 460.626,317.221C457.297,319.826 453.737,322.173 450.524,324.919C450.055,325.32 447.594,326.889 447.578,327.552C447.578,327.581 448.457,327.071 448.512,327.034C449.156,326.605 449.781,326.151 450.415,325.708C452.266,324.413 454.111,323.107 456.001,321.868C461.453,318.296 467.625,316.268 473.736,314.134C481.362,311.471 488.974,308.684 496.789,306.617C503.904,304.735 511.191,303.533 518.237,301.396C527.189,298.681 535.594,294.462 544.589,291.873C549.978,290.322 555.311,288.592 560.693,287.024C561.134,286.895 565.432,285.289 565.705,285.709C565.791,285.842 562.115,287.3 561.905,287.384C559.442,288.366 556.987,289.371 554.551,290.418C549.291,292.679 544.369,295.646 539.097,297.862C532.24,300.744 525.003,302.886 517.995,305.377C508.497,308.753 498.433,309.793 488.87,312.935C476.987,316.838 465.73,322.919 454.654,328.656C445.606,333.341 437.022,339.049 428.283,344.282C424.582,346.499 420.389,350.079 416.084,350.948C411.335,351.906 406.35,350.781 401.543,351.142C397.184,351.469 391.915,353.203 387.594,352.093C382.724,350.842 379.51,346.545 374.236,346.067L368.985,344.712ZM395.426,233.652C393.58,233.353 391.608,233.781 389.679,233.338C386.558,232.62 384.222,230.782 380.873,231.509C377.415,232.259 374.195,235.123 371.035,236.637C363.321,240.333 353.633,244.811 345.064,243.325C336.378,241.818 336.302,243.714 331.182,244.528C323.234,245.792 320.059,246.066 311.24,253.716C309.243,255.449 306.227,256.236 304.369,258.15C301.777,260.818 300.003,264.038 297.973,267.125C292.087,276.073 279.444,279.502 270.585,284.758C267.928,286.334 263.068,288.377 261.32,291.132C260.798,291.956 262.042,293.276 262.487,293.86C264.24,296.16 267.076,298.385 268.856,300.656C269.011,300.854 270.44,302.939 270.44,302.939C270.44,302.939 264.692,302.524 263.724,302.892C262.774,303.253 263.384,305.462 262.981,306.182C262.685,306.711 261.377,306.692 261.531,307.278C261.757,308.141 264.192,309.139 264.862,309.565C268.294,311.749 271.704,313.728 275.832,314.206C282.855,315.019 289.773,313.693 296.809,314.353C302.28,314.865 306.907,317.315 312.13,318.66C315.107,319.427 318.249,319.19 321.234,319.932C323.727,320.552 325.504,322.521 327.956,323.231C334.443,325.112 338.807,323.757 346.39,328.878C350.808,331.862 355.296,336.499 360.225,338.367C363.627,339.656 367.66,339.156 371.232,339.191C372.058,339.199 375.362,339.876 374.987,339.007C374.068,336.872 374.354,333.733 374.326,332.9C374.2,329.273 375.962,326.848 377.117,323.484C378.134,320.52 379.453,317.576 381.554,315.215C382.289,314.388 385.383,311.947 385.352,311.904C385.233,311.737 380.976,314.492 380.67,314.711C376.092,317.982 373.978,324.184 368.289,325.868C363.714,327.222 359.329,324.372 355.589,322.105C350.894,319.259 346.346,316.956 340.946,315.757C337.244,314.935 333.538,314.423 329.74,314.407C327.511,314.398 324.755,314.609 323.625,312.251C319.828,304.326 329.481,296.887 334.65,292.79C338.723,289.563 341.524,286.337 346.867,285.921C351.574,285.554 360.313,288.519 363.302,284.306C365.36,281.405 367.591,276.201 369.617,272.621C368.924,272.402 370.473,271.445 370.917,270.869C371.771,269.76 372.65,268.691 373.6,267.661C377.132,263.83 381.194,260.825 385.342,257.714C386.705,256.691 388.08,255.681 389.432,254.643C389.57,254.536 391.492,253.027 391.354,252.938C391.02,252.724 389.552,253.608 389.283,253.74C387.284,254.717 385.343,255.802 383.402,256.889C375.507,261.311 368.236,266.776 360.664,271.713C357.323,273.891 352.935,277.181 348.682,276.162C347.101,275.784 345.619,274.902 344.313,273.953C343.898,273.652 343.067,272.652 342.487,272.748C340.612,273.061 338.509,274.848 336.941,275.801C332.738,278.353 328.632,281.008 324.672,283.927C319.621,287.65 314.954,291.879 310.508,296.299C309.561,297.239 307.123,300.585 305.473,299.977C303.53,299.26 302.42,295.59 301.542,293.928C300.336,291.643 298.482,289.263 297.827,286.753C296.702,282.449 298.826,277.1 300.934,273.387C303.422,269.007 309.599,268.548 313.765,266.561C318.77,264.173 322.265,259.872 326.922,256.986C329.518,255.378 332.562,254.607 335.522,253.988C342.792,252.468 350.181,252.122 357.53,251.205C360.968,250.776 365.41,250.633 368.564,249.047C371.906,247.367 372.948,242.584 376.222,240.707C380.699,238.141 395.426,233.652 395.426,233.652ZM470.474,239.886C469.429,239.578 465.896,241.394 464.833,241.698C462.853,242.262 460.417,242.355 458.546,243.221C454.318,245.178 450.37,248.885 446.387,251.361C442.198,253.966 437.717,256.017 433.483,258.533C427.102,262.325 420.408,266.79 413.333,269.262C408.438,270.972 402.865,267.997 398.247,270.575C393.102,273.446 389.628,279.374 385.304,283.338C379.611,288.559 373.682,293.486 368.085,298.819C366.778,300.064 365.472,301.307 364.17,302.556C363.989,302.729 362.898,303.519 363.122,303.88C363.315,304.191 364.416,303.906 364.683,303.869C366.049,303.681 368.073,304.018 369.32,303.403C371.727,302.214 373.726,299.576 375.867,297.958C379.088,295.525 382.62,294.233 386.558,293.504C390.596,292.757 395.121,293.4 398.925,291.634C402.068,290.175 403.197,286.771 405.798,284.666C410.636,280.751 416.499,277.755 421.881,274.676C426.317,272.139 430.864,269.624 435.529,267.53C438.465,266.213 442.19,265.335 444.709,263.248C446.889,261.441 446,258.676 447.748,256.851C449.669,254.846 452.277,253.426 454.465,251.738C458.736,248.443 463.173,244.548 468.093,242.232L470.474,239.886ZM236.07,300.817C235.671,301.383 234.905,300.067 234.308,299.714C233.182,299.048 232.026,298.436 230.905,297.759C227.178,295.509 219.348,289.987 222.596,284.574C224.673,281.111 229.202,279.782 232.629,278.168C239.354,275 245.776,271.252 252.49,268.05C260.319,264.315 266.396,258.409 274.106,254.39C283.732,249.374 294.582,242.059 304.796,236.352C311.114,232.822 317.403,229.266 323.562,225.465C325.193,224.459 326.799,223.417 328.408,222.378C328.672,222.208 329.614,221.373 329.968,221.455C330.56,221.592 329.11,222.317 328.64,222.701C327.749,223.431 326.846,224.147 325.943,224.861C323.173,227.051 320.37,229.204 317.537,231.312C308.973,237.68 299.944,244.155 290.865,249.756C279.758,256.608 270.073,262.167 258.881,268.877C252.727,272.566 230.638,284.487 230.638,284.487C230.638,284.487 234.207,288.05 235.985,291.219C237.551,294.009 242.401,295.344 239.53,298.135L236.07,300.817ZM429.241,298.137C429.919,298.182 431.415,296.818 431.932,296.487C434.581,294.79 437.152,292.974 439.696,291.124C443.174,288.595 446.527,285.431 450.399,283.509C455.378,281.038 461.19,279.975 466.336,277.776C468.681,276.774 470.952,275.621 473.068,274.191C473.78,273.71 474.479,273.213 475.161,272.691C475.511,272.422 476.049,271.48 476.215,271.889C476.335,272.182 474.138,274.075 473.925,274.288C471.53,276.675 469.135,279.05 466.487,281.16C460.692,285.775 454.057,289.008 447.608,292.568C444.22,294.438 440.435,298.43 436.626,299.318C435.57,299.565 435.218,298.885 434.284,298.764C433.104,298.61 431.888,298.967 430.689,298.886L429.241,298.137ZM489.706,241.488C489.587,241.263 489.86,241.973 489.92,242.22C490.035,242.688 490.137,243.161 490.272,243.624C490.72,245.163 491.243,246.648 492.791,247.341C498.078,249.711 502.329,252.478 507.065,255.852C511.871,259.276 518.272,259.851 523.624,262.132C528.112,264.044 531.935,267.056 536.234,269.308C539.62,271.083 543.316,272.091 546.918,273.322C549.921,274.349 552.885,275.519 555.657,277.076C555.98,277.257 558.046,278.802 558.358,278.657C558.653,278.519 557.839,278.264 557.568,278.083C557.072,277.751 556.567,277.432 556.066,277.108C554.554,276.13 553.051,275.142 551.554,274.142C547.116,271.175 542.881,267.992 538.599,264.811C535.843,262.763 533.014,260.84 529.809,259.561C526.305,258.163 522.551,257.559 519.065,256.09C514.132,254.011 509.538,251.109 504.779,248.67C500.569,246.512 496.039,244.797 491.994,242.333L489.706,241.488Z" style="fill:rgb(26,194,254);"/>
            </g>
            <path d="M214.985,282.979C214.887,282.817 219.609,280.95 219.889,280.844C223.239,279.572 226.596,278.326 229.922,276.99C239.648,273.083 248.863,267.966 257.666,262.303C279.318,248.373 304.757,222.323 332.91,215.175C387.176,201.395 398.917,192.411 398.917,192.411C398.917,192.411 409.275,199.307 413.519,201.596C426.838,208.778 440.499,217.263 454.352,223.403C465.579,228.378 477.852,233.088 489.481,236.874C500.608,240.496 511.265,245.126 521.27,251.157C534.588,259.186 547.328,266.761 560.571,274.907C567.012,278.87 585.333,282.755 585.333,282.755C585.333,282.755 578.608,285.958 576.298,287.096C570.689,289.861 565.066,292.648 559.139,294.676C544.604,299.65 529.281,301.673 514.979,307.441C494.568,315.674 477.314,328.058 458.091,338.593C444.016,346.306 429.88,352.699 414.816,358.196C410.115,359.912 398.801,364.009 398.801,364.009C398.801,364.009 381.567,358.769 371.425,353.384C348.94,341.447 331.454,328.346 306.498,321.665C291.314,317.601 264.805,314.194 246.56,306.063C233.272,300.141 220.107,291.424 214.985,282.979Z" style="fill:none;stroke:black;stroke-width:2.1px;"/>
        </g>
        <g>
            <clipPath id="_clip9">
                <path d="M400,647.052L400,382.318L629.266,249.774L629.266,514.685L400,647.052Z"/>
            </clipPath>
            <g clip-path="url(#_clip9)">
                <g opacity="0.7">
                    <path d="M400,647.052L400,382.318L629.266,249.774L629.266,514.685L400,647.052Z" style="fill:rgb(223,237,240);"/>
                    <clipPath id="_clip10">
                        <path d="M400,647.052L400,382.318L629.266,249.774L629.266,514.685L400,647.052Z"/>
                    </clipPath>
                    <g clip-path="url(#_clip10)">
                        <path d="M620.324,519.665L478.931,591.28L635.226,239.765L629.324,223.711L376.886,374.152L392.772,672.408L620.324,519.665Z" style="fill:url(#_Linear11);"/>
                    </g>
                </g>
            </g>
            <path d="M400,647.052L400,382.318L629.266,249.774L629.266,514.685L400,647.052Z" style="fill:none;stroke:black;stroke-opacity:0.7;stroke-width:2.5px;"/>
            <path d="M400,647.052L400,382.318L629.266,249.774L629.266,514.685L400,647.052Z" style="fill:none;"/>
            <clipPath id="_clip12">
                <path d="M400,647.052L400,382.318L629.266,249.774L629.266,514.685L400,647.052Z"/>
            </clipPath>
            <g clip-path="url(#_clip12)">
                <path d="M620.324,519.665L478.931,591.28L635.226,239.765L629.324,223.711L376.886,374.152L392.772,672.408L620.324,519.665Z" style="fill:url(#_Linear13);"/>
            </g>
            <path d="M400,647.052L400,382.318L629.266,249.774L629.266,514.685L400,647.052Z" style="fill:none;stroke:black;stroke-width:2.5px;"/>
        </g>
        <g>
            <g transform="matrix(-1,0,0,1,800.192,0)">
                <clipPath id="_clip14">
                    <path d="M400,647.052L400,382.318L629.266,249.774L629.266,514.685L400,647.052Z"/>
                </clipPath>
                <g clip-path="url(#_clip14)">
                    <g opacity="0.7">
                        <path d="M400,647.052L400,382.318L629.266,249.774L629.266,514.685L400,647.052Z" style="fill:rgb(223,237,240);"/>
                        <clipPath id="_clip15">
                            <path d="M400,647.052L400,382.318L629.266,249.774L629.266,514.685L400,647.052Z"/>
                        </clipPath>
                        <g clip-path="url(#_clip15)">
                            <g transform="matrix(-1,0,0,1,800.192,0)">
                                <path d="M293.331,317.448L169.796,516.324L162.221,250.459L163.76,231.242L293.331,317.448Z" style="fill:url(#_Linear16);"/>
                            </g>
                        </g>
                    </g>
                </g>
                <path d="M400,647.052L400,382.318L629.266,249.774L629.266,514.685L400,647.052Z" style="fill:none;stroke:black;stroke-opacity:0.7;stroke-width:2.5px;"/>
            </g>
            <g transform="matrix(-1,0,0,1,800.192,0)">
                <path d="M400,647.052L400,382.318L629.266,249.774L629.266,514.685L400,647.052Z" style="fill:none;"/>
                <clipPath id="_clip17">
                    <path d="M400,647.052L400,382.318L629.266,249.774L629.266,514.685L400,647.052Z"/>
                </clipPath>
                <g clip-path="url(#_clip17)">
                    <g transform="matrix(-1,0,0,1,800.192,0)">
                        <path d="M293.331,317.448L169.796,516.324L162.221,250.459L163.76,231.242L293.331,317.448Z" style="fill:url(#_Linear18);"/>
                    </g>
                </g>
                <path d="M400,647.052L400,382.318L629.266,249.774L629.266,514.685L400,647.052Z" style="fill:none;stroke:black;stroke-width:2.5px;"/>
            </g>
        </g>
        <g>
            <path d="M170.925,249.774L400,117.517L629.266,249.774L400,382.03L170.925,249.774Z" style="fill:rgb(223,237,240);fill-opacity:0.7;stroke:black;stroke-opacity:0.7;stroke-width:2.5px;"/>
            <path d="M170.925,249.774L400.261,382.254L400.261,117.517L170.925,249.774Z" style="fill:url(#_Linear19);"/>
            <clipPath id="_clip20">
                <path d="M170.925,249.774L400,117.517L629.266,249.774L400,382.03L170.925,249.774Z"/>
            </clipPath>
            <g clip-path="url(#_clip20)">
                <g opacity="0.9">
                    <path d="M170.925,249.774L400,117.517L629.266,249.774L400,382.03L170.925,249.774Z" style="fill:none;"/>
                    <clipPath id="_clip21">
                        <path d="M170.925,249.774L400,117.517L629.266,249.774L400,382.03L170.925,249.774Z"/>
                    </clipPath>
                    <g clip-path="url(#_clip21)">
                        <path d="M141.367,255.064L344.405,371.683L400.731,391.853L400.014,100.221L141.367,255.064Z" style="fill:url(#_Linear22);"/>
                    </g>
                </g>
            </g>
            <path d="M170.925,249.774L400,117.517L629.266,249.774L400,382.03L170.925,249.774Z" style="fill:none;stroke:black;stroke-opacity:0.9;stroke-width:2.5px;"/>
        </g>
        <g id="Edge-highlight" serif:id="Edge highlight">
            <path d="M395.04,381.044L396.687,643.811L398.576,645.532L398.546,382.668L395.04,381.044ZM401.801,638.569L625.154,513.7L628.533,513.412L401.415,644.661L401.801,638.569ZM172.086,514.001L172.215,510.656L374.626,628.443L388.587,638.633L172.086,514.001ZM172.44,252.216L172.442,252.176L174.279,253.238L178.212,255.426L178.21,255.512L384.87,375.035L178.099,260.225L172.479,498.409L171.988,251.964L172.44,252.216ZM402.535,120.618C402.166,120.989 179.148,250.284 177.113,251.61L173.599,249.676L400.04,118.976C400.04,118.976 402.216,119.941 402.53,120.435L627.191,249.788L625.614,250.574L399.082,123.912L395.852,124.536L402.535,120.618ZM397.979,123.295L397.78,123.412L398.324,123.488L397.979,123.295Z" style="fill:white;fill-opacity:0.85;"/>
        </g>
    </g>
    <g id="punk-face" serif:id="punk face">
        <g id="eye-L" serif:id="eye L">
            <path d="M528.206,351.222C528.379,351.402 528.106,350.731 528.074,350.483C528.011,350.005 527.973,349.525 527.934,349.045C527.818,347.583 527.78,346.129 527.847,344.664C528.046,340.323 529.208,335.829 531.274,332.002C535.677,323.848 541.163,318.002 550.051,315.055C554.128,313.702 559.255,313.747 562.759,316.786C567.642,321.021 566.228,327.491 563.505,332.423C559.209,340.203 551.474,344.812 543.237,347.341C539.372,348.527 536.091,348.694 531.855,349.732L528.206,351.222Z" style="fill:white;"/>
            <clipPath id="_clip23">
                <path d="M528.206,351.222C528.379,351.402 528.106,350.731 528.074,350.483C528.011,350.005 527.973,349.525 527.934,349.045C527.818,347.583 527.78,346.129 527.847,344.664C528.046,340.323 529.208,335.829 531.274,332.002C535.677,323.848 541.163,318.002 550.051,315.055C554.128,313.702 559.255,313.747 562.759,316.786C567.642,321.021 566.228,327.491 563.505,332.423C559.209,340.203 551.474,344.812 543.237,347.341C539.372,348.527 536.091,348.694 531.855,349.732L528.206,351.222Z"/>
            </clipPath>
            <g clip-path="url(#_clip23)">
                <g id="pupil-L" serif:id="pupil L" transform="matrix(1.04757,0,0,1.04757,58.8583,-56.9004)">
                    <circle cx="463.323" cy="373.024" r="12.17"/>
                    <clipPath id="_clip24">
                        <circle cx="463.323" cy="373.024" r="12.17"/>
                    </clipPath>
                    <g clip-path="url(#_clip24)">
                        <g transform="matrix(0.868443,0,0,0.809898,60.934,69.3073)">
                            <circle cx="465.028" cy="366.281" r="4.532" style="fill:white;"/>
                        </g>
                    </g>
                </g>
                <g transform="matrix(-0.988362,0.152123,0.152123,0.988362,944.065,-97.9718)">
                    <path d="M473.232,379.723C481.984,383.006 482.649,376.089 482.369,374.001C481.852,370.149 480.052,368.119 479.722,369.142C479.214,370.719 478.69,372.293 478.57,372.798C477.651,376.66 475.622,377.578 473.232,379.723Z" style="fill:rgb(223,99,88);stroke:black;stroke-width:0.9px;"/>
                </g>
            </g>
            <path d="M528.206,351.222C528.379,351.402 528.106,350.731 528.074,350.483C528.011,350.005 527.973,349.525 527.934,349.045C527.818,347.583 527.78,346.129 527.847,344.664C528.046,340.323 529.208,335.829 531.274,332.002C535.677,323.848 541.163,318.002 550.051,315.055C554.128,313.702 559.255,313.747 562.759,316.786C567.642,321.021 566.228,327.491 563.505,332.423C559.209,340.203 551.474,344.812 543.237,347.341C539.372,348.527 536.091,348.694 531.855,349.732L528.206,351.222Z" style="fill:none;stroke:black;stroke-width:2.1px;"/>
            <path d="M529.465,326.637C528.536,327.931 527.968,329.723 527.331,331.171C524.586,337.414 523.664,343.548 524.959,350.26" style="fill:none;stroke:black;stroke-width:2.1px;"/>
            <path d="M539.102,311.058C539.035,310.898 539.841,310.369 539.931,310.303C540.984,309.518 542.14,308.866 543.31,308.273C547.854,305.97 553.286,305.058 558.354,304.933" style="fill:none;stroke:black;stroke-width:2.1px;"/>
            <path d="M534.933,354.911C534.734,354.961 535.339,354.974 535.544,354.989C535.939,355.018 536.337,355.03 536.733,355.033C537.962,355.043 539.2,354.988 540.423,354.879C544.15,354.549 547.841,353.778 551.387,352.591" style="fill:none;stroke:black;stroke-width:2.1px;"/>
            <path d="M571.325,324.402C571.528,324.309 571.344,324.848 571.334,325.071C571.316,325.516 571.277,325.961 571.237,326.405C571.116,327.723 570.842,329.034 570.515,330.315C569.533,334.161 567.601,337.631 565.406,340.908" style="fill:none;stroke:black;stroke-width:2.1px;"/>
        </g>
        <path id="eyebrow-L" serif:id="eyebrow L" d="M507.959,312.019C508.873,311.812 510.101,309.938 510.666,309.313C513.173,306.541 515.323,303.409 517.327,300.262C520.682,294.993 523.339,289.063 527.35,284.245C533.694,276.625 544.638,271.296 554.522,274.696C556.989,275.545 563.589,279.825 563.589,279.825C563.589,279.825 556.563,281.962 553.584,283.852C547.726,287.567 543.316,292.988 537.653,296.928C536.625,297.643 531.712,300.728 531.712,300.728L541.867,297.234C541.867,297.234 539.071,300 538.769,300.274C535.402,303.322 532.011,306.344 528.206,308.845C527.755,309.142 524.601,311.065 524.601,311.065C524.601,311.065 529.646,310.721 529.432,311.128C528.743,312.444 526.262,313.665 525.122,314.544C520.985,317.737 515.406,321.875 509.877,319.606C509.172,319.317 507.161,317.849 506.82,317.533C504.408,315.299 507.645,316.566 509.779,316.147C512.426,315.629 514.013,313.962 511.263,313.524L507.959,312.019Z" style="fill:rgb(36,145,254);"/>
        <clipPath id="_clip25">
            <path id="eyebrow-L1" serif:id="eyebrow L" d="M507.959,312.019C508.873,311.812 510.101,309.938 510.666,309.313C513.173,306.541 515.323,303.409 517.327,300.262C520.682,294.993 523.339,289.063 527.35,284.245C533.694,276.625 544.638,271.296 554.522,274.696C556.989,275.545 563.589,279.825 563.589,279.825C563.589,279.825 556.563,281.962 553.584,283.852C547.726,287.567 543.316,292.988 537.653,296.928C536.625,297.643 531.712,300.728 531.712,300.728L541.867,297.234C541.867,297.234 539.071,300 538.769,300.274C535.402,303.322 532.011,306.344 528.206,308.845C527.755,309.142 524.601,311.065 524.601,311.065C524.601,311.065 529.646,310.721 529.432,311.128C528.743,312.444 526.262,313.665 525.122,314.544C520.985,317.737 515.406,321.875 509.877,319.606C509.172,319.317 507.161,317.849 506.82,317.533C504.408,315.299 507.645,316.566 509.779,316.147C512.426,315.629 514.013,313.962 511.263,313.524L507.959,312.019Z"/>
        </clipPath>
        <g clip-path="url(#_clip25)">
            <path d="M538.557,289.846C539.724,289.362 541.691,288.388 542.839,287.861C547.345,285.792 553.117,282.919 559.159,281.44" style="fill:none;stroke:black;stroke-width:2.1px;"/>
            <path d="M512.653,307.139C512.236,307.1 513.225,306.524 513.546,306.256C514.16,305.742 514.801,305.263 515.45,304.794C517.412,303.372 519.433,302.073 521.46,300.749" style="fill:none;stroke:black;stroke-width:2.1px;"/>
            <path d="M520.45,295.166C520.72,295.45 521.021,294.627 521.321,294.376C521.912,293.882 522.514,293.405 523.115,292.927C524.876,291.526 526.711,290.229 528.492,288.856" style="fill:none;stroke:black;stroke-width:2.1px;"/>
        </g>
        <path id="eyebrow-L2" serif:id="eyebrow L" d="M507.959,312.019C508.873,311.812 510.101,309.938 510.666,309.313C513.173,306.541 515.323,303.409 517.327,300.262C520.682,294.993 523.339,289.063 527.35,284.245C533.694,276.625 544.638,271.296 554.522,274.696C556.989,275.545 563.589,279.825 563.589,279.825C563.589,279.825 556.563,281.962 553.584,283.852C547.726,287.567 543.316,292.988 537.653,296.928C536.625,297.643 531.712,300.728 531.712,300.728L541.867,297.234C541.867,297.234 539.071,300 538.769,300.274C535.402,303.322 532.011,306.344 528.206,308.845C527.755,309.142 524.601,311.065 524.601,311.065C524.601,311.065 529.646,310.721 529.432,311.128C528.743,312.444 526.262,313.665 525.122,314.544C520.985,317.737 515.406,321.875 509.877,319.606C509.172,319.317 507.161,317.849 506.82,317.533C504.408,315.299 507.645,316.566 509.779,316.147C512.426,315.629 514.013,313.962 511.263,313.524L507.959,312.019Z" style="fill:none;stroke:black;stroke-width:2.1px;stroke-linecap:butt;"/>
        <g id="eye-R" serif:id="eye R">
            <path id="curve" d="M480.539,377.182C480.405,377.427 480.531,376.62 480.47,376.348C480.345,375.794 479.604,371.447 478.732,369.96C476.065,365.413 471.895,361.589 467.023,359.669C458.321,356.241 446.691,358.392 439.027,363.141C435.792,365.146 431.331,368.685 430.875,372.757C430.225,378.571 438.464,382.703 443.074,384.041C451.25,386.415 460.172,384.803 468.06,382.1C471.577,380.895 474.24,378.852 478.522,377.776L480.539,377.182Z" style="fill:white;"/>
            <clipPath id="_clip26">
                <path id="curve1" serif:id="curve" d="M480.539,377.182C480.405,377.427 480.531,376.62 480.47,376.348C480.345,375.794 479.604,371.447 478.732,369.96C476.065,365.413 471.895,361.589 467.023,359.669C458.321,356.241 446.691,358.392 439.027,363.141C435.792,365.146 431.331,368.685 430.875,372.757C430.225,378.571 438.464,382.703 443.074,384.041C451.25,386.415 460.172,384.803 468.06,382.1C471.577,380.895 474.24,378.852 478.522,377.776L480.539,377.182Z"/>
            </clipPath>
            <g clip-path="url(#_clip26)">
                <g id="pupil-R" serif:id="pupil R" transform="matrix(1.04757,0,0,1.04757,-26.4934,-19.3367)">
                    <circle cx="463.323" cy="373.024" r="12.17"/>
                    <clipPath id="_clip27">
                        <circle cx="463.323" cy="373.024" r="12.17"/>
                    </clipPath>
                    <g clip-path="url(#_clip27)">
                        <g transform="matrix(0.954592,0,0,0.954592,23.5309,18.2307)">
                            <circle cx="465.028" cy="366.281" r="4.532" style="fill:white;"/>
                        </g>
                    </g>
                </g>
                <path d="M473.232,379.723C481.984,383.006 482.649,376.089 482.369,374.001C481.852,370.149 480.052,368.119 479.722,369.142C479.214,370.719 478.69,372.293 478.57,372.798C477.651,376.66 475.622,377.578 473.232,379.723Z" style="fill:rgb(223,99,88);stroke:black;stroke-width:0.9px;"/>
            </g>
            <path id="curve2" serif:id="curve" d="M480.539,377.182C480.405,377.427 480.531,376.62 480.47,376.348C480.345,375.794 479.604,371.447 478.732,369.96C476.065,365.413 471.895,361.589 467.023,359.669C458.321,356.241 446.691,358.392 439.027,363.141C435.792,365.146 431.331,368.685 430.875,372.757C430.225,378.571 438.464,382.703 443.074,384.041C451.25,386.415 460.172,384.803 468.06,382.1C471.577,380.895 474.24,378.852 478.522,377.776L480.539,377.182Z" style="fill:none;stroke:black;stroke-width:2.1px;"/>
            <path d="M435.325,353.252C435.316,353.233 436.313,352.815 436.367,352.793C437.564,352.31 438.787,351.904 440.022,351.53C445.137,349.979 450.243,349.42 455.564,349.71" style="fill:none;stroke:black;stroke-width:2.1px;"/>
            <path d="M470.749,356.414C470.694,356.166 471.174,356.693 471.389,356.829C471.832,357.109 472.271,357.395 472.71,357.681C474.012,358.533 475.305,359.424 476.505,360.416C480.385,363.624 481.443,367.933 483.165,372.428" style="fill:none;stroke:black;stroke-width:2.1px;"/>
            <path d="M457.212,394.064C457.328,393.87 458.386,393.719 458.596,393.649C459.951,393.196 461.29,392.687 462.591,392.092C467.177,389.997 471.257,386.979 475.905,384.976" style="fill:none;stroke:black;stroke-width:2.1px;"/>
            <path d="M428.635,379.673C428.724,379.68 429.386,380.68 429.476,380.784C430.404,381.858 431.418,382.88 432.517,383.778C435.593,386.293 439.378,388.317 443.239,389.296" style="fill:none;stroke:black;stroke-width:2.1px;"/>
        </g>
        <path id="eyebrow-R" serif:id="eyebrow R" d="M421.316,343.964C421.316,343.964 422.51,341.543 422.891,341.013C424.023,339.445 425.17,337.89 426.401,336.397C430.996,330.827 437.009,326.952 444.118,325.48C455.131,323.199 463.902,327.781 474.354,330.173C476.775,330.727 479.208,331.164 481.692,331.29C482.005,331.306 484.242,331.351 484.242,331.351C484.242,331.351 480.949,336.16 479.61,337.654C479.516,337.758 478.105,339.22 478.16,339.281C478.385,339.528 479.892,338.951 480.147,338.882C482.185,338.325 484.194,337.612 486.069,336.631C486.656,336.324 488.566,335.143 488.566,335.143C488.566,335.143 485.625,338.815 484.628,340.028C480.045,345.604 475.782,347.616 468.564,346.555C467.57,346.409 465.613,346.639 464.73,346.175C464.59,346.102 468.932,342.975 468.932,342.975C468.932,342.975 465.197,343.238 464.475,343.242C460.176,343.261 455.901,342.926 451.607,343.26C450.28,343.363 448.961,343.508 447.645,343.704C447.427,343.737 446.563,343.991 446.384,343.805C446.268,343.684 447.161,343.217 447.226,343.182C448.242,342.64 449.311,342.165 450.373,341.72C452.164,340.97 457.633,339.109 457.633,339.109C457.633,339.109 454.763,339.691 453.919,339.828C451.492,340.223 449.011,340.388 446.554,340.347C442.873,340.285 439.172,339.618 435.491,339.889C431.704,340.168 428.22,340.729 424.806,342.33L421.316,343.964Z" style="fill:rgb(36,145,254);"/>
        <clipPath id="_clip28">
            <path id="eyebrow-R1" serif:id="eyebrow R" d="M421.316,343.964C421.316,343.964 422.51,341.543 422.891,341.013C424.023,339.445 425.17,337.89 426.401,336.397C430.996,330.827 437.009,326.952 444.118,325.48C455.131,323.199 463.902,327.781 474.354,330.173C476.775,330.727 479.208,331.164 481.692,331.29C482.005,331.306 484.242,331.351 484.242,331.351C484.242,331.351 480.949,336.16 479.61,337.654C479.516,337.758 478.105,339.22 478.16,339.281C478.385,339.528 479.892,338.951 480.147,338.882C482.185,338.325 484.194,337.612 486.069,336.631C486.656,336.324 488.566,335.143 488.566,335.143C488.566,335.143 485.625,338.815 484.628,340.028C480.045,345.604 475.782,347.616 468.564,346.555C467.57,346.409 465.613,346.639 464.73,346.175C464.59,346.102 468.932,342.975 468.932,342.975C468.932,342.975 465.197,343.238 464.475,343.242C460.176,343.261 455.901,342.926 451.607,343.26C450.28,343.363 448.961,343.508 447.645,343.704C447.427,343.737 446.563,343.991 446.384,343.805C446.268,343.684 447.161,343.217 447.226,343.182C448.242,342.64 449.311,342.165 450.373,341.72C452.164,340.97 457.633,339.109 457.633,339.109C457.633,339.109 454.763,339.691 453.919,339.828C451.492,340.223 449.011,340.388 446.554,340.347C442.873,340.285 439.172,339.618 435.491,339.889C431.704,340.168 428.22,340.729 424.806,342.33L421.316,343.964Z"/>
        </clipPath>
        <g clip-path="url(#_clip28)">
            <path d="M450.271,335.53C450.426,335.506 449.977,335.635 449.829,335.684C449.527,335.785 449.222,335.876 448.919,335.971C448.007,336.258 447.097,336.55 446.188,336.847C443.476,337.73 440.795,338.749 438.041,339.5" style="fill:none;stroke:black;stroke-width:2.1px;"/>
            <path d="M446.961,329.678C446.802,329.959 446.381,329.39 446.076,329.283C445.46,329.066 444.833,328.875 444.203,328.703C442.178,328.15 440.052,327.567 437.933,327.76" style="fill:none;stroke:black;stroke-width:2.1px;"/>
            <path d="M466.927,331.672C466.751,331.968 466.435,331.187 466.168,330.968C465.654,330.545 465.131,330.132 464.598,329.732C463,328.533 461.327,327.416 459.539,326.516" style="fill:none;stroke:black;stroke-width:2.1px;"/>
        </g>
        <path id="eyebrow-R2" serif:id="eyebrow R" d="M421.316,343.964C421.316,343.964 422.51,341.543 422.891,341.013C424.023,339.445 425.17,337.89 426.401,336.397C430.996,330.827 437.009,326.952 444.118,325.48C455.131,323.199 463.902,327.781 474.354,330.173C476.775,330.727 479.208,331.164 481.692,331.29C482.005,331.306 484.242,331.351 484.242,331.351C484.242,331.351 480.949,336.16 479.61,337.654C479.516,337.758 478.105,339.22 478.16,339.281C478.385,339.528 479.892,338.951 480.147,338.882C482.185,338.325 484.194,337.612 486.069,336.631C486.656,336.324 488.566,335.143 488.566,335.143C488.566,335.143 485.625,338.815 484.628,340.028C480.045,345.604 475.782,347.616 468.564,346.555C467.57,346.409 465.613,346.639 464.73,346.175C464.59,346.102 468.932,342.975 468.932,342.975C468.932,342.975 465.197,343.238 464.475,343.242C460.176,343.261 455.901,342.926 451.607,343.26C450.28,343.363 448.961,343.508 447.645,343.704C447.427,343.737 446.563,343.991 446.384,343.805C446.268,343.684 447.161,343.217 447.226,343.182C448.242,342.64 449.311,342.165 450.373,341.72C452.164,340.97 457.633,339.109 457.633,339.109C457.633,339.109 454.763,339.691 453.919,339.828C451.492,340.223 449.011,340.388 446.554,340.347C442.873,340.285 439.172,339.618 435.491,339.889C431.704,340.168 428.22,340.729 424.806,342.33L421.316,343.964Z" style="fill:none;stroke:black;stroke-width:2.1px;"/>
        <g id="mouth">
            <path d="M542.764,403.977C542.764,403.977 546.118,405.574 546.54,406.163C547.909,408.069 549.255,409.576 550.009,413.075C550.795,416.719 550.262,422.178 550.262,422.178C550.262,422.178 552.357,425.28 552.986,428.235C553.991,432.968 554.569,436.498 550.701,439.7C545.787,443.768 539.907,446.825 534.282,449.765C529.952,452.028 525.531,454.1 521,455.929C517.567,457.316 514.085,458.575 510.567,459.728C503.355,462.092 495.938,464.304 488.301,464.558C476.945,464.936 463.038,459.713 457.325,449.327C456.901,448.555 455.806,446.892 456.077,445.934C456.258,445.295 457.425,445.059 457.944,444.877C459.769,444.237 461.585,443.579 463.37,442.832C467.897,440.938 472.274,438.706 476.597,436.389C498.338,424.737 518.456,409.955 542.764,403.977Z" style="fill:rgb(234,136,160);"/>
            <clipPath id="_clip29">
                <path d="M542.764,403.977C542.764,403.977 546.118,405.574 546.54,406.163C547.909,408.069 549.255,409.576 550.009,413.075C550.795,416.719 550.262,422.178 550.262,422.178C550.262,422.178 552.357,425.28 552.986,428.235C553.991,432.968 554.569,436.498 550.701,439.7C545.787,443.768 539.907,446.825 534.282,449.765C529.952,452.028 525.531,454.1 521,455.929C517.567,457.316 514.085,458.575 510.567,459.728C503.355,462.092 495.938,464.304 488.301,464.558C476.945,464.936 463.038,459.713 457.325,449.327C456.901,448.555 455.806,446.892 456.077,445.934C456.258,445.295 457.425,445.059 457.944,444.877C459.769,444.237 461.585,443.579 463.37,442.832C467.897,440.938 472.274,438.706 476.597,436.389C498.338,424.737 518.456,409.955 542.764,403.977Z"/>
            </clipPath>
            <g clip-path="url(#_clip29)">
                <path d="M461.047,448.896C461.042,448.896 461.642,448.033 461.759,447.951C462.401,447.503 463.232,447.118 464.031,447.182C465.139,447.271 466.193,447.95 466.951,448.727C467.108,448.888 467.896,450.328 467.896,450.328C467.896,450.328 469.085,447.81 469.285,447.524C470.438,445.878 473.468,444.745 475.262,446.076C476.004,446.627 476.796,450.024 476.796,450.024C476.796,450.024 477.298,447.539 477.359,447.361C477.872,445.873 478.939,444.176 480.733,444.261C482.26,444.333 483.38,445.792 484.216,446.914C484.306,447.035 485.419,448.628 485.419,448.628C485.419,448.628 485.355,445.84 485.369,445.309C485.44,442.535 486.39,439.258 489.282,438.265C491.931,437.355 494.189,438.854 495.671,440.992C496.169,441.711 496.563,442.495 496.944,443.281C497.075,443.55 497.515,444.476 497.515,444.476C497.515,444.476 497.126,441.774 497.071,441.281C496.75,438.382 496.333,433.699 499.722,432.369C503.64,430.832 505.014,433.552 506.103,436.805C506.361,437.576 507.264,440.315 507.264,440.315C507.264,440.315 506.514,437.272 506.372,436.178C505.987,433.219 505.291,427.049 508.785,425.505C512.679,423.785 514.808,426.74 516.289,429.904C516.751,430.89 517.203,431.883 517.572,432.908C517.696,433.251 518.021,434.443 518.021,434.443C518.021,434.443 517.755,432.406 517.715,431.63C517.549,428.436 517.194,422.692 520.478,420.76C523.751,418.835 526.739,420.671 527.952,423.852C528.416,425.07 528.779,426.318 529.064,427.588C529.158,428.004 529.514,429.495 529.514,429.495C529.514,429.495 529.134,426.296 529.088,425.61C528.823,421.682 529.429,416.164 534.259,415.536C538.448,414.991 539.723,417.423 540.751,420.987C541.033,421.961 541.522,425.469 541.522,425.469C541.522,425.469 540.316,416.133 541.817,414.023C544.26,410.591 548.8,412.056 550.127,415.463C551.762,419.661 553.172,424.252 553.186,428.783C553.195,431.569 551.732,434.476 548.87,435.316C546.012,436.154 543.343,433.906 541.884,431.668C541.358,430.861 539.89,427.388 539.922,427.381C539.989,427.364 541.054,431.537 541.152,432.664C541.47,436.363 540.101,440.472 535.772,440.529C533.079,440.564 531.177,438.682 530.035,436.422C529.662,435.683 528.078,431.91 528.078,431.91C528.078,431.91 528.613,435.812 528.597,436.194C528.483,438.802 528.236,444.165 525.141,445.241C522.149,446.28 519.915,443.002 518.833,440.729C518.461,439.948 517.312,436.995 517.312,436.995C517.312,436.995 517.366,440.549 517.366,440.865C517.365,443.253 517.658,447.241 514.841,448.273C512.406,449.164 510.079,447.85 508.547,445.981C508.018,445.336 506.24,442.001 506.24,442.001C506.24,442.001 506.764,445.669 506.785,446.064C506.932,448.793 506.661,452.586 503.702,453.804C501.225,454.823 499.321,452.89 498.117,450.942C497.626,450.148 496.068,446.984 496.068,446.984C496.068,446.984 496.297,450.032 496.296,450.336C496.295,452.332 496.501,455.801 494.118,456.624C491.683,457.465 489.807,454.552 488.943,452.751C488.859,452.577 487.871,449.878 487.789,449.898C487.523,449.962 487.514,451.845 487.462,452.061C487.137,453.382 486.75,455.603 485.161,455.988C483.709,456.339 482.157,455.338 481.41,454.144C481.312,453.988 480.436,451.329 480.337,451.337C480.152,451.35 480.013,453.72 479.957,453.888C479.538,455.153 478.844,456.999 477.294,457.175C475.658,457.361 474.578,455.522 474.098,454.21C474.026,454.013 473.751,452.019 473.565,451.997C473.275,451.964 472.592,453.529 472.419,453.709C471.607,454.549 470.692,455.399 469.477,455.515C467.845,455.672 466.949,454.273 466.496,452.912C466.462,452.81 466.134,451.219 466.086,451.208C465.682,451.115 465.822,452.561 465.632,452.929C465.213,453.742 464.514,454.786 463.626,455.184C461.875,455.969 460.148,452.545 458.922,451.619" style="fill:rgb(255,246,181);stroke:black;stroke-width:2.1px;"/>
                <path d="M455.043,448.003C456.462,448.854 458.665,449.231 460.24,449.672C466.989,451.567 474.499,451.315 481.368,450.341C492.368,448.78 501.479,443.43 511.352,438.728C523.994,432.708 536.99,426.995 550.446,423.034" style="fill:none;stroke:black;stroke-width:2.1px;"/>
            </g>
            <path d="M542.764,403.977C542.764,403.977 546.118,405.574 546.54,406.163C547.909,408.069 549.255,409.576 550.009,413.075C550.795,416.719 550.262,422.178 550.262,422.178C550.262,422.178 552.357,425.28 552.986,428.235C553.991,432.968 554.569,436.498 550.701,439.7C545.787,443.768 539.907,446.825 534.282,449.765C529.952,452.028 525.531,454.1 521,455.929C517.567,457.316 514.085,458.575 510.567,459.728C503.355,462.092 495.938,464.304 488.301,464.558C476.945,464.936 463.038,459.713 457.325,449.327C456.901,448.555 455.806,446.892 456.077,445.934C456.258,445.295 457.425,445.059 457.944,444.877C459.769,444.237 461.585,443.579 463.37,442.832C467.897,440.938 472.274,438.706 476.597,436.389C498.338,424.737 518.456,409.955 542.764,403.977Z" style="fill:none;stroke:black;stroke-width:2.1px;"/>
            <path d="M451.73,443.923C452.031,443.534 452.794,443.646 453.202,443.608C454.041,443.532 454.876,443.422 455.707,443.284C458.244,442.864 460.667,442.121 463.057,441.183C470.197,438.38 476.563,433.831 482.729,429.35C498.912,417.589 512.646,405.063 532.502,399.964C538.474,398.43 549.848,395.252 552.895,403.202C554.719,407.963 549.907,408.625 546.317,409.497C538.903,411.299 531.427,412.856 524.233,415.455C507.818,421.385 494.665,433.745 478.744,440.838C473.304,443.261 468.192,444.521 462.3,445.154C461.51,445.239 457.255,445.233 457.055,446.4C456.82,447.766 459.08,449.62 459.883,450.398C463.429,453.835 467.638,456.459 472.254,458.2C491.892,465.602 510.631,455.734 527.804,447.019C534.081,443.834 540.915,441.798 547.117,438.537C549.928,437.059 552.748,433.655 555.816,432.889C557.26,432.528 557.611,434.398 557.699,435.447C558.851,449.169 544.005,451.841 534.775,456.406C513.959,466.701 491.481,474.907 469.007,464.268C462.08,460.989 452.575,454.294 451.397,445.94C451.397,445.94 451.429,444.312 451.73,443.923Z" style="fill:rgb(217,66,62);stroke:black;stroke-width:2.1px;"/>
            <path d="M456.204,437.71C456.07,437.58 455.265,438.377 455.189,438.448C454.219,439.352 453.332,440.392 452.665,441.54C450.462,445.335 450.55,450.417 451.966,454.485" style="fill:none;stroke:black;stroke-width:2.1px;"/>
        </g>
        <g id="nose" transform="matrix(1,0,0,1,-2.89574,-4.31589)">
            <circle cx="530.419" cy="387.418" r="21.788" style="fill:rgb(4,244,46);"/>
            <clipPath id="_clip30">
                <circle cx="530.419" cy="387.418" r="21.788"/>
            </clipPath>
            <g clip-path="url(#_clip30)">
                <g transform="matrix(1,0,0,1,2.89574,4.31589)">
                    <path d="M541.253,369.591C541.242,369.598 542.174,371.833 542.438,372.442C543.211,374.23 543.751,376.291 543.884,378.238C544.018,380.199 543.742,381.583 542.808,383.344C542.194,384.5 541.154,385.493 540.649,386.717C540.078,388.1 540.019,390.828 539.588,392.231C538.562,395.573 536.863,397.474 534.867,399.623C533.671,400.911 531.119,402.187 531.145,402.196C531.583,402.352 533.358,401.781 533.713,401.596C535.873,400.472 537.989,399.109 539.824,397.505C547.105,391.142 549.109,377.912 542.306,370.461L541.253,369.591Z"/>
                </g>
            </g>
            <circle cx="530.419" cy="387.418" r="21.788" style="fill:none;stroke:black;stroke-width:2.1px;"/>
        </g>
    </g>
    <g id="metal-cap" serif:id="metal cap">
        <path d="M399.648,138.162L352.001,165.546L352.4,182.89L364.08,190.625L339.652,204.115L339.499,224.961L399.577,259.412L459.796,226.158L459.913,205.233L434.356,190.678L444.546,184.011L444.478,164.175L399.648,138.162Z" style="fill:rgb(205,205,205);"/>
        <clipPath id="_clip31">
            <path d="M399.648,138.162L352.001,165.546L352.4,182.89L364.08,190.625L339.652,204.115L339.499,224.961L399.577,259.412L459.796,226.158L459.913,205.233L434.356,190.678L444.546,184.011L444.478,164.175L399.648,138.162Z"/>
        </clipPath>
        <g clip-path="url(#_clip31)">
            <path d="M399.341,221.759C399.252,219.404 399.332,217.012 399.367,214.656C399.385,213.455 399.242,211.993 399.734,210.864C400.567,208.954 402.752,207.941 404.467,206.976C407.982,204.997 411.528,203.081 415.111,201.226C417.654,199.909 420.19,198.574 422.77,197.33C423.034,197.202 424.791,196.089 425.089,196.403C425.373,196.704 425.074,197.863 425.043,198.221C424.85,200.44 424.857,200.608 422.885,201.655C422.484,201.868 422.085,202.081 421.686,202.297C415.772,205.494 409.907,208.928 404.355,212.723C402.472,214.01 403.02,216.505 402.847,218.602C402.826,218.851 402.466,220.73 402.715,220.92C402.937,221.09 403.777,220.607 403.963,220.524C405.232,219.955 406.435,219.223 407.634,218.523C412.602,215.62 417.484,212.55 422.632,209.967C424.134,209.213 425.674,208.534 427.348,208.281C427.644,208.237 428.708,207.967 428.935,208.3C429.075,208.506 428.326,208.825 428.228,208.879C427.356,209.358 426.461,209.793 425.596,210.285C423.413,211.526 421.294,212.891 419.174,214.237C415.246,216.731 411.27,219.18 407.64,222.103C406.224,223.244 404.323,224.576 403.362,226.168C402.523,227.556 402.298,229.367 401.983,230.926C401.669,232.478 401.433,234.036 401.3,235.615C401.282,235.834 401.061,236.934 401.257,237.117C401.399,237.249 402.385,236.546 402.495,236.48C403.833,235.684 405.121,234.81 406.446,233.994C412.352,230.356 418.618,227.324 424.689,223.973C426.339,223.062 427.986,222.142 429.683,221.321C429.784,221.272 431.154,220.565 431.237,220.748C431.35,220.997 429.441,222.242 429.261,222.375C427.021,224.032 424.795,225.692 422.621,227.435C418.502,230.738 414.138,233.598 409.954,236.821C407.941,238.371 404.708,240.198 403.458,242.525C402.66,244.011 403.177,246.881 402.982,248.515C402.79,250.125 402.243,254.673 402.468,255.007C402.566,255.152 406.027,253.504 407.023,253.063C410.773,251.403 415.735,249.032 419.608,247.7C420.606,247.356 420.419,248.021 421.443,247.759C421.639,247.709 422.268,247.471 422.459,247.637C422.601,247.759 422.01,248.122 421.954,248.16C421.159,248.689 420.308,249.139 419.471,249.598C417.519,250.669 415.579,251.761 413.641,252.858C410.138,254.841 406.536,256.675 403.092,258.758C402.297,259.238 400.141,260.724 400.015,260.586C399.635,260.169 399.875,258.639 399.869,258.148C399.84,255.758 399.886,253.368 399.886,250.978C399.884,241.555 400.389,232.126 400.02,222.709L399.341,221.759ZM349.76,212.17C351.609,212.78 353.36,214.309 355.093,215.205C360.871,218.19 366.355,221.657 372.115,224.683C378.266,227.915 384.275,231.102 390.176,234.776C391.556,235.635 392.961,236.481 394.395,237.247C394.925,237.53 396.006,237.936 396.319,238.504C396.861,239.489 396.458,241.661 396.546,242.753C396.867,246.763 397.111,250.85 397.63,254.839C397.747,255.746 397.903,256.648 398.037,257.553C398.066,257.748 398.258,258.349 397.973,258.451C397.625,258.575 397.106,258.118 396.846,257.949C395.857,257.31 394.915,256.591 393.947,255.921C389.79,253.042 385.592,250.195 381.521,247.198C375.02,242.412 368.487,237.678 361.762,233.205C358.645,231.132 355.39,229.306 352.116,227.497C351.312,227.052 348.831,226.147 348.373,225.247C348.013,224.538 348.425,222.74 348.461,221.99C348.595,219.257 348.586,216.391 349.094,213.694L349.76,212.17ZM351.215,209.966C351.096,209.798 351.627,209.947 351.833,209.943C352.234,209.935 352.636,209.939 353.038,209.946C354.262,209.968 355.489,210.015 356.712,210.074C360.433,210.256 364.163,210.701 367.853,211.198C370.567,211.563 372.507,212.481 375.1,213.522C378.402,214.848 381.689,216.209 384.862,217.826C386.277,218.547 387.687,219.284 389.12,219.971C390.089,220.436 391.073,220.871 392.048,221.322C393.232,221.87 395.141,222.321 396.129,223.218C396.439,223.5 396.544,224.629 396.66,225.014C397.213,226.844 397.594,228.654 397.918,230.541C398.206,232.223 398.586,233.886 398.937,235.555C399.039,236.042 399.458,237.016 399.185,237.512C398.993,237.861 396.748,236.459 396.671,236.415C393.871,234.826 391.115,233.16 388.322,231.56C382.317,228.118 376.044,225.16 370.005,221.777C363.809,218.306 357.831,214.415 351.563,211.076L351.215,209.966ZM371.412,204.476C371.309,204.567 373.826,202.175 374.493,202.148C376.917,202.051 380.147,203.467 382.389,204.219C386.106,205.465 389.717,207.023 393.365,208.453C394.081,208.734 396.787,209.327 397.192,210.105C397.342,210.394 397.168,211.225 397.178,211.544C397.225,213.118 397.02,214.681 396.95,216.251C396.91,217.154 397.534,219.879 397.026,220.643C396.795,220.992 395.66,220.434 395.405,220.332C393.807,219.69 393.303,218.543 391.821,217.671C389.106,216.076 385.925,213.967 383.333,212.177C379.715,209.678 376.048,207.634 372.453,205.106L371.412,204.476ZM363.205,183.743C363.205,183.743 363.049,181.417 363.015,180.809C362.914,178.971 362.822,177.133 362.724,175.295C362.664,174.174 362.817,172.485 361.982,171.596C361.777,171.378 359.833,170.052 359.89,169.973C360.204,169.542 361.399,169.355 361.868,169.194C363.628,168.593 365.358,167.923 367.134,167.368C374.086,165.197 381.147,163.432 388.07,161.149C390.212,160.443 392.374,159.787 394.554,159.208C395.018,159.085 396.331,158.486 396.843,158.681C397.133,158.792 397.03,159.773 397.037,159.992C397.084,161.387 397.102,162.766 397.205,164.161C397.534,168.651 397.782,173.144 398.174,177.629C398.256,178.564 398.169,181.703 398.944,182.372C399.126,182.529 399.35,181.44 399.364,181.368C399.598,180.178 399.672,178.954 399.774,177.747C400.097,173.907 400.111,170.069 400.764,166.262C400.803,166.029 401.222,162.833 401.631,162.876C401.755,162.89 401.609,164.06 401.6,164.159C401.475,165.473 401.373,166.787 401.448,168.108C401.7,172.525 401.791,176.924 401.861,181.35C401.876,182.261 401.488,185.382 402.283,186.086C402.538,186.312 403.12,185.816 403.306,185.684C404.303,184.982 405.294,184.275 406.31,183.602C410.569,180.78 415.255,178.535 419.759,176.139C421.014,175.472 422.304,174.677 423.65,174.209C423.937,174.109 424.835,173.821 424.926,174.337C425.036,174.962 424.145,175.706 423.776,176.081C422.405,177.478 420.923,178.772 419.271,179.826C415.031,182.531 410.5,184.759 406.302,187.535C404.303,188.856 402.232,190.771 402.232,190.771C402.232,190.771 402.106,194.156 402.088,195.023C402.019,198.298 402.181,201.575 402.104,204.85C402.067,206.393 402.26,208.17 400.698,209.016C399.173,209.843 397.313,209.176 395.893,208.482C394.835,207.964 389.582,202.634 388.677,201.736C387.376,200.444 377.954,193.895 377.954,193.895C377.954,193.895 378.17,188.878 378.054,187.688C377.942,186.536 377.144,186.767 377.144,186.767C377.144,186.767 376.391,191.286 376.342,191.892C376.334,191.99 376.19,193.22 376.19,193.22C376.19,193.22 373.811,191.261 373.828,190.365C373.864,188.407 374.078,186.442 374.204,184.487C374.281,183.295 374.27,181.966 372.98,181.361C372.517,181.144 372.555,183.14 372.527,183.338C372.285,185.071 371.526,189.854 371.526,189.854L363.205,183.743ZM389.666,144.392C389.746,144.339 389.826,144.286 389.906,144.233C389.972,144.19 390.632,143.81 390.613,143.867L389.666,144.392C389.317,144.626 388.973,144.867 388.639,145.122C387.391,146.078 386.297,147.181 385.163,148.264C382.587,150.727 379.512,152.638 376.876,155.057C376.77,155.154 374.399,157.154 374.434,157.213C374.495,157.315 375.471,157.1 375.57,157.085C376.771,156.902 377.973,156.73 379.172,156.544C383.059,155.942 386.895,155.055 390.789,154.468C392.241,154.25 393.685,153.973 395.143,153.8C395.278,153.784 396.91,153.592 396.421,154.043C394.693,155.641 391.307,156.388 389.15,157.147C382.065,159.642 374.721,160.534 367.385,161.962C364.962,162.433 362.542,162.965 360.104,163.354C360.087,163.357 359.905,163.378 359.656,163.411C358.933,163.689 358.038,163.984 358.038,163.765C358.038,163.639 359.048,163.49 359.656,163.411C360.116,163.233 360.507,163.062 360.551,163.034C363.048,161.486 365.191,159.233 367.52,157.45C373.404,152.943 380.069,148.956 386.852,145.951L389.666,144.392Z" style="fill:rgb(56,25,57);fill-opacity:0.4;"/>
            <path d="M406.014,250.968C405.958,251.086 406.15,250.524 406.185,250.448C406.368,250.051 406.553,249.656 406.739,249.261C407.296,248.077 407.895,246.909 408.498,245.748C409.442,243.933 410.261,241.781 411.57,240.188C412.66,238.864 414.167,237.849 415.501,236.793C426.212,228.311 437.538,220.957 449.081,213.676C451.808,211.957 454.433,210.083 457.165,208.371C457.471,208.18 459.439,206.74 459.795,207.155C460.133,207.55 459.746,208.961 459.699,209.416C459.492,211.417 459.336,213.434 459.44,215.447C459.585,218.253 460.591,222.886 459.203,225.494C457.99,227.774 453.251,229.734 451.18,230.774C450.275,231.229 449.365,231.674 448.449,232.106C439.429,236.357 430.083,239.857 421.06,244.124C416.242,246.403 411.335,248.551 406.627,251.055L406.014,250.968ZM402.006,236.543C403.386,233.371 404.604,229.611 406.762,226.873C408.299,224.924 410.679,223.537 412.69,222.146C416.212,219.711 419.765,217.303 423.462,215.14C426.401,213.421 429.447,210.895 432.595,209.616C434.41,208.879 436.651,208.804 438.566,208.586C442.659,208.12 446.722,207.507 450.803,206.945C452.352,206.731 453.904,206.541 455.459,206.381C455.555,206.371 456.859,206.186 456.859,206.322C456.859,206.751 454.039,207.636 453.706,207.776C450.159,209.272 446.654,210.876 443.279,212.732C437.122,216.118 431.358,220.188 425.271,223.7C417.665,228.09 409.727,231.906 402.455,236.855L402.006,236.543ZM360.109,192.727C360.357,192.524 360.535,192.388 360.552,192.4L360.109,192.727C359.49,193.233 358.432,194.155 358.332,194.234C355.985,196.093 353.781,198.107 351.493,200.034C351.297,200.199 349.205,201.764 349.205,201.764L354.936,202.73C354.936,202.73 361.53,203.77 365.375,204.346C366.54,204.521 367.045,204.661 368.199,204.897C368.274,204.913 369.267,205.101 369.161,205.281C368.985,205.578 367.865,205.446 367.606,205.442C365.984,205.42 364.362,205.375 362.741,205.309C357.336,205.089 351.942,204.637 346.539,204.368C345.283,204.306 343.614,204.249 342.392,204.464C342.165,204.504 342.352,207.907 342.358,208.224C342.428,212.131 342.32,216.04 342.408,219.947C342.444,221.524 342.616,223.097 342.641,224.672C342.646,224.989 342.768,226.433 342.2,226.46C340.498,226.54 340.318,222.188 340.212,221.081C339.816,216.962 339.573,212.717 340.075,208.599C340.281,206.91 340.564,204.6 342.068,203.529C343.099,202.795 344.314,202.343 345.435,201.759C348.369,200.23 351.3,198.683 354.197,197.085L360.109,192.727ZM404.737,219.484C404.846,219.576 404.753,219.199 404.755,219.056C404.758,218.745 404.761,218.435 404.764,218.124C404.775,216.999 404.342,215.865 405.409,215.349C410.583,212.848 415.602,209.981 420.711,207.347C421.985,206.691 423.254,206.028 424.533,205.384C424.676,205.311 425.59,204.736 425.745,204.955C426.905,206.592 423.565,208.476 422.766,208.948C422.397,209.165 422.027,209.379 421.659,209.597C417.498,212.064 413.336,214.535 409.24,217.108C408.042,217.861 405.583,220.184 404.046,220.184L404.737,219.484ZM391.034,137.706C391.025,137.7 391.132,138.162 391.156,138.225C391.277,138.546 391.407,138.863 391.528,139.184C391.884,140.133 392.255,141.077 392.65,142.01C393.671,144.427 394.636,146.933 394.941,149.558C395.066,150.636 395.25,151.924 394.365,152.734C392.704,154.253 390.069,154.816 388.023,155.599C386.704,156.103 385.367,156.562 384.053,157.079C382.693,157.613 381.332,158.153 380.004,158.763C379.839,158.839 378.847,159.196 378.942,159.492C379.092,159.957 382.211,159.401 382.545,159.356C386.513,158.82 390.364,157.665 394.274,156.838C395.465,156.587 396.662,156.37 397.865,156.185C398.018,156.162 398.705,155.847 398.81,155.969C399.743,157.058 399.288,159.862 399.319,161.045C399.434,165.464 399.39,169.877 399.347,174.297C399.332,175.79 399.341,177.283 399.362,178.777C399.365,178.979 399.242,180.096 399.425,180.224C399.459,180.248 399.587,179.673 399.592,179.646C399.675,179.216 399.745,178.783 399.81,178.35C399.989,177.143 400.153,175.933 400.33,174.725C400.863,171.1 401.45,167.475 401.905,163.838C401.995,163.116 402.742,160.337 402.742,160.337C402.742,160.337 406.175,162.257 407.051,162.646C412.172,164.923 416.027,167.172 421.201,171.098C422.631,172.183 422.702,174.121 422.17,175.878C421.984,176.49 421.728,177.087 421.435,177.656C421.396,177.731 420.903,178.543 421.041,178.552C422.047,178.619 423.956,176.592 424.701,176.04C427.695,173.82 431.34,172.578 434.611,170.831C435.649,170.277 436.671,169.687 437.732,169.177C437.785,169.151 438.748,168.677 438.78,168.812C438.851,169.113 437.246,169.995 437.066,170.111C435.147,171.346 433.193,172.529 431.244,173.715C423.201,178.606 417.45,182.308 410.285,187.361C408.156,188.862 405.79,190.023 405.334,191.344C404.834,192.794 405.19,206.804 405.19,206.804C405.19,206.804 408.122,205.261 409.377,204.309C412.583,201.878 416.782,199.805 420.337,197.921C427.106,194.333 434.06,190.45 440.526,186.3C442.685,184.914 445.174,183.228 446.475,180.889C451.136,172.505 447.821,162.582 442.435,155.532C435.005,145.809 423.889,140.34 412.331,137.108C407.632,135.794 402.693,134.476 397.776,134.534L391.034,137.706ZM371.745,194.934C371.773,194.813 371.742,195.18 371.735,195.303C371.72,195.548 371.711,195.793 371.702,196.039C371.675,196.792 371.659,197.545 371.659,198.299C371.659,200.442 371.784,202.6 371.572,204.736C371.523,205.229 371.547,206.6 370.753,206.582C370.045,206.566 370.031,204.519 370.003,204.11C369.84,201.759 369.807,199.374 369.862,197.019C369.873,196.54 369.666,194.764 370.602,194.945L371.745,194.934ZM425.31,199.384C426.325,200.228 427.736,200.812 428.832,201.582C429.764,202.237 430.856,203.421 431.955,203.793C433.332,204.259 435.549,203.857 436.997,203.909C440.978,204.055 444.958,204.22 448.941,204.289C451.262,204.329 453.584,204.353 455.905,204.403C456.079,204.407 457.963,204.544 457.946,204.322C457.903,203.765 456.404,203.112 456.027,202.888C453.855,201.596 451.679,200.316 449.477,199.076C445.895,197.059 442.289,195.087 438.68,193.118C437.359,192.397 435.542,190.928 433.94,191.018C432.249,191.113 430.46,192.445 429.085,193.317C427.781,194.145 426.414,195.157 425.818,196.635L425.31,199.384ZM354.332,167.398C354.294,167.419 354.366,167.824 354.371,167.981C354.383,168.339 354.409,168.697 354.428,169.055C354.486,170.109 354.56,171.163 354.634,172.217C354.887,175.81 355.059,179.41 355.469,182.989C355.519,183.425 356.213,186.255 355.385,186.266C354.362,186.279 353.323,183.734 353.028,183.014C351.462,179.194 351.564,174.27 351.56,170.213C351.559,169.275 351.391,164.917 353.357,166.539L354.332,167.398ZM354.332,167.398L354.364,167.426C354.349,167.402 354.339,167.394 354.332,167.398ZM406.684,157.481C406.701,157.706 408.471,158.152 408.661,158.216C410.862,158.948 413.102,159.558 415.322,160.226C420.901,161.904 426.491,163.436 432.127,164.918C434.936,165.657 437.959,166.782 440.858,167.04C441.992,167.141 445.471,165.605 443.243,164.606C440.037,163.167 436.07,162.843 432.653,162.167C429.465,161.537 426.255,161.003 423.057,160.427C418.082,159.532 413.17,158.15 408.156,157.493L406.684,157.481Z" style="fill:white;fill-opacity:0.9;"/>
            <g id="lines">
                <path d="M349.07,164.46L398.91,191.648L447.479,163.028" style="fill:none;stroke:black;stroke-width:2.1px;"/>
                <path d="M362.211,190.087L399.069,209.982L437.391,188.814" style="fill:none;stroke:black;stroke-width:2.1px;"/>
                <path d="M339.891,204.281L399.999,237.875L458.924,205.116" style="fill:none;stroke:black;stroke-width:2.1px;"/>
                <path d="M399.559,138.867L399.494,258.747" style="fill:none;stroke:black;stroke-width:2.1px;"/>
                <path d="M352.276,165.502L399.55,155.577L444.164,164.634" style="fill:none;stroke:black;stroke-width:2.1px;"/>
                <path d="M339.97,204.044L369.584,205.854L369.678,193.885" style="fill:none;stroke:black;stroke-width:2.1px;"/>
                <path d="M458.405,204.719L425.619,207.761L425.382,195.239" style="fill:none;stroke:black;stroke-width:2.1px;"/>
                <path d="M369.158,205.617L399.494,222.801L426.327,207.479" style="fill:none;stroke:black;stroke-width:2.1px;"/>
            </g>
        </g>
        <path d="M399.648,138.162L352.001,165.546L352.4,182.89L364.08,190.625L339.652,204.115L339.499,224.961L399.577,259.412L459.796,226.158L459.913,205.233L434.356,190.678L444.546,184.011L444.478,164.175L399.648,138.162Z" style="fill:none;stroke:black;stroke-width:2.1px;"/>
    </g>
</svg>