<svg width="100%" height="100%" viewBox="0 0 800 800" version="1.1" xmlns="http://www.w3.org/2000/svg" style="fill-rule:evenodd;clip-rule:evenodd;stroke-linecap:round;stroke-linejoin:round;stroke-miterlimit:1.5;">
    <g id="hairstyles-front">
        <g id="curly-hair-hat">
            <path id="cast-Shadow" d="M237.177,338.014C244.962,338.512 253.055,338.255 261.549,334.447C262.719,333.923 269.978,328.605 271.184,329.208C271.695,329.464 270.598,332.628 270.516,332.923C269.402,336.969 268.597,340.837 268.64,345.064C268.645,345.61 269.496,352.118 270.919,351.6C271.097,351.535 271.136,351.158 271.171,351.008C272.248,346.429 272.902,341.989 275.063,337.722C276.932,334.029 280.633,332.14 282.556,328.679C283.837,326.373 283.12,323.174 285.251,321.438C289.575,317.914 305.712,316.118 310.867,318.982C321.735,325.02 312.397,332.091 306.106,337.167C304.02,338.851 291.892,352.406 297.223,349.011C305.828,343.529 316.37,338.316 322.05,333.364C323.658,331.963 326.09,329.214 327.068,327.259C329.249,322.896 328.627,319.492 332.73,315.531C335.815,312.552 347.023,316.994 350.95,316.433C353.316,316.095 376.387,320.099 379.443,320.195C383.866,320.334 390.598,321.36 392.172,321.722C393.802,322.097 390.464,323.578 390.019,324.914C387.609,332.144 381.809,337.594 377.262,343.678C375.26,346.357 371.731,349.982 372.791,353.691C374.899,361.067 387.567,359.534 392.771,358.553C394.897,358.152 398.214,356.405 400.271,355.731C401.26,355.407 403.559,353.748 403.23,354.736C399.315,366.482 400.763,374.244 393.054,385.931C390.693,389.511 387.917,392.852 384.402,395.351C383.799,395.78 378.609,398.235 378.609,398.726C378.609,399.176 381.857,399.448 382.199,399.494C390.728,400.643 406.726,385.65 409.207,378.076C411.102,372.292 411.429,368.128 414.494,362.555C417.217,357.604 423.831,352.726 421.63,346.323C420.5,343.037 410.698,337.302 410.862,336.613C412.377,330.25 427.663,321.879 432.069,316.538C439.864,307.091 452.034,304.472 454.8,303.823C461.799,302.182 460.123,311.565 470.308,319.079C474.329,322.046 481.865,322.385 486.753,323.213C487.452,323.332 491.999,323.047 492.206,324.221C492.696,326.996 476.933,336.312 474.806,338.967C472.365,342.014 467.848,347.934 469.193,346.943C472.596,344.434 478.348,341.743 479.982,340.911C486.452,337.615 499.674,333.197 502.89,326.055C504.224,323.095 503.957,320.149 503.766,315.974C503.504,310.224 519.607,313.822 524.354,315.14C531.813,317.212 524.972,326.587 524.144,329.939C523.459,332.71 523.778,335.64 524.673,338.326C525.013,339.347 526.048,342.907 527.255,343.288C527.85,343.476 528.415,339.454 528.501,339.069C529.084,336.48 530.068,333.931 531.637,331.777C535.012,327.145 540.885,324.541 544.128,320.3C544.813,319.404 540.674,316.657 540.302,315.418C539.279,312.009 546.211,303.811 549.395,305.168C561.59,310.369 547.556,316.849 549.732,321.638C550.203,322.673 544.573,337.029 545.485,338.441C551.443,347.658 554.919,352.704 553.851,356.452C552.48,361.264 574.319,315.56 575.804,310.594C576.994,306.615 574.707,301.346 573.6,297.585C571.253,289.614 568.702,281.711 566.787,273.619C563.709,260.614 564.454,255.077 555.562,244.373C544.355,230.883 366.12,207.175 303.059,234.389C285.166,242.111 267.351,250.117 249.724,258.431C243.509,261.361 232.792,265.019 229.863,272.019C225.64,282.114 230.344,299.129 232.294,309.322" style="fill:rgb(56,25,57);fill-opacity:0.5;"/>
            <path d="M172.727,274.78C173.43,271.182 171.773,266.732 171.842,263.749C171.962,258.525 177.586,248.473 177.403,249.717C176.321,257.042 176.224,262.995 178.105,265.993C182.232,272.572 185.433,270.256 191.311,264.827C192.583,263.652 198.609,263.707 199.029,260.203C200.216,250.275 203.187,246.553 203.334,247.793C203.544,249.557 205.653,252.96 211.442,254.391C213.467,254.891 213.072,254.422 215.222,253.794L225.361,244.163C282.085,206.347 355.014,205.529 421.081,210.403C459.197,213.215 497.685,218.683 534.236,230.185C545.873,233.847 557.491,238.027 568.425,243.476C572.294,245.404 582.82,253.88 587.164,254.363C591.835,254.882 593.044,253.288 595.968,250.676C598.159,248.719 600.366,244.697 603.366,239.498C603.752,238.829 604.021,246.348 599.56,253.419C598.604,254.933 610.334,256.219 612.26,257.211C616.261,259.27 614.644,267.261 623.272,268.27C630.961,269.168 639.969,267.016 642.632,274.063C643.16,275.46 639.003,287.335 639.003,287.335C639.003,287.335 639.313,278.928 632.224,278.122C626.799,277.506 628.026,279.313 627.244,279.526C626.681,279.68 626.106,284.151 625.419,284.976C623.077,287.79 619.173,288.748 617.096,291.808C614.213,296.055 618.704,299.166 622.805,298.586C625.058,298.268 627.564,297.61 629.625,296.637C629.841,296.535 633.298,294.715 633.278,295.32C633.106,300.362 624.346,304.952 620.258,305.615C619.528,305.734 611.592,305.901 611.601,305.963C612.244,310.581 617.365,313.804 620.375,316.742C625.242,321.491 629.05,329.28 627.328,336.264C626.93,337.879 623.207,333.156 622.539,332.649C618.976,329.946 615.16,328.927 610.857,328.114C610.403,328.028 608.204,327.026 607.869,327.157C607.778,327.192 608.312,329.477 608.338,329.64C608.518,330.78 609.596,338.12 608.22,338.655C607.743,338.84 606.482,336.709 606.257,336.414C604.393,333.971 602.713,331.407 601.511,328.572C601.428,328.377 600.241,325.182 600.22,325.19C599.824,325.344 599.72,330.006 599.609,330.536C598.609,335.349 595.569,339.515 592.242,343.015C591.733,343.55 589.478,346.383 588.58,346.101C588.139,345.963 589.19,343.73 589.275,343.49C590.218,340.838 591.069,338.221 591.618,335.454C592.446,331.28 593.176,326.677 592.49,322.433C592.137,320.252 591.033,315.968 591.033,315.968C591.033,315.968 591.323,318.562 590.986,319.792C590.205,322.643 588.944,325.735 585.965,326.848C581.874,328.379 577.213,326.142 572.9,326.786C572.013,326.918 569.523,329.422 569.587,330.203C569.756,332.261 569.486,334.375 569.124,336.397C567.773,343.956 565.117,351.146 564.103,358.737C563.612,362.412 562.697,365.985 561.798,369.577C561.709,369.933 561.132,373.079 560.578,372.952C558.675,372.516 557.412,363.065 557.138,361.362C557.095,361.095 556.891,357.974 556.53,357.94C553.408,357.65 546.382,365.413 542.822,362.799C542.251,362.38 544.07,362.13 544.678,361.768C545.819,361.088 546.941,360.373 548.064,359.664C551.416,357.549 554.97,353.796 555.359,349.618C555.625,346.761 552.644,344.423 550.912,342.546C546.436,337.695 542.277,333.285 545.531,326.37C547.813,321.521 551.787,318.375 556.361,315.83C558.247,314.781 562.988,313.209 563.566,310.737C565.009,304.568 555.582,296.506 553.355,291.385C551.731,287.648 552.1,283.186 550.042,279.652C549.201,278.21 545.197,272.827 543.288,272.921C542.804,272.945 542.482,275.022 542.373,275.347C541.477,278.025 540.128,280.461 538.532,282.781C536.834,285.249 534.821,287.415 532.717,289.537C532.365,289.891 530.467,291.262 530.658,291.867C530.94,292.761 536.119,292.95 536.932,293.12C541.314,294.032 546.983,296.111 548.854,300.61C551.935,308.019 540.051,306.015 539.305,310.209C538.871,312.653 545.086,314.37 543.83,317.546C542.993,319.664 538.261,320.928 536.54,322.23C532.57,325.235 529.856,329.655 528.114,334.26C527.14,336.836 526.54,339.755 526.893,342.514C526.935,342.838 528.084,346.413 528.051,346.44C527.862,346.597 524.767,343.993 524.528,343.817C521.233,341.389 516.68,338.19 516.729,333.613C516.776,329.258 521.493,326.162 524.104,323.266C525.507,321.71 529.288,315.391 526.871,313.324C525.736,312.353 522.086,312.841 520.573,312.429C516.825,311.409 513.251,309.417 510.301,306.904C508.488,305.36 506.662,303.593 505.635,301.406C505.365,300.831 504.79,297.311 504.013,297.385C502.687,297.512 500.793,299.472 499.766,300.222C498.496,301.149 494.724,302.703 494.127,304.195C493.565,305.598 496.593,309.086 497.222,310.195C499.544,314.288 502.351,319.65 500.894,324.493C498.111,333.746 484.742,334.284 477.692,338.472C474.132,340.588 471.658,343.712 469.598,347.26C469.343,347.701 468.054,351.439 467.49,351.449C466.911,351.459 466.763,348.095 466.741,347.777C466.447,343.608 467.424,340.126 469.792,336.657C472.519,332.663 477.195,329.267 481.436,326.995C483.759,325.75 487.697,324.968 488.705,322.206C489.255,320.7 489.798,316.097 488.16,315.013C486.88,314.166 483.593,315.73 482.046,315.566C476.462,314.973 467.968,311.519 465.509,306.144C462.719,300.047 463.797,291.758 465.563,285.534C466.157,283.438 466.997,281.39 468.06,279.488C468.563,278.588 470.652,277.1 469.655,276.837C468.712,276.588 463.937,280.666 462.823,281.131C458.377,282.99 453.377,282.409 449.332,285.311C446.134,287.606 445.874,292.005 442.098,294.045C437.11,296.739 437.007,292.481 433.677,291.409C431.678,290.765 425.627,296.663 424.685,298.343C424.623,298.454 428.546,300.418 428.864,300.666C432.182,303.26 433.734,306.208 430.697,309.729C424.189,317.275 415.598,323.212 408.182,329.814C405.865,331.878 400.746,335.675 400.509,339.166C400.382,341.041 405.188,339.666 406.004,339.513C409.564,338.845 420.206,336.238 422.544,340.722C423.831,343.19 420.996,347.109 419.694,349.01C418.304,351.039 416.775,353.027 415.245,355.03C415.635,354.549 414.781,356.184 414.462,356.714C413.804,357.81 413.106,358.892 412.358,359.929C410.202,362.915 407.615,365.729 406.899,369.445C404.289,382.979 401.607,387.542 388.895,395.535C385.062,397.945 378.425,401.371 374.541,397.073C373.889,396.352 371.577,390.251 373.548,389.881C375.318,389.549 375.806,392.922 377.481,393.584C382.049,395.39 385.693,390.865 388.381,387.899C391.876,384.042 398.094,378.228 397.434,372.442C397.118,369.675 392.783,365.895 393.593,363.311C394.82,359.4 402.61,353.171 402.271,349.521C402.18,348.532 395.046,351.136 394.475,351.334C390.608,352.675 368.035,362.581 368.998,352.223C370.105,340.331 383.398,327.627 390.53,318.821C391.874,317.161 402.337,306.868 401.448,306.437C401.448,306.437 387.66,305.507 374.057,301.221C369.729,299.857 368.018,295.371 368.018,295.371C368.017,295.37 362.279,300.003 361.673,300.387C357.051,303.318 351.735,305.374 346.323,306.197C333.773,308.107 332.045,303.507 322.767,312.495C322.174,313.069 316.697,317.972 317.114,318.807C318.199,320.976 330.571,320.178 330.571,325.091C330.571,325.438 326.104,327.177 325.808,327.343C320.836,330.14 315.831,332.88 311.147,336.152C306.47,339.418 302.18,343.487 298.35,347.7C297.871,348.227 295.175,352.305 294.505,352.305C294.394,352.305 294.398,352.038 294.39,351.975C293.896,347.773 294.94,342.767 297.174,339.193C303.532,329.019 310.677,331.629 314.934,327.372C315.002,327.304 311.763,325.218 311.577,325.062C309.742,323.533 303.335,318.932 304.433,316.096C306.394,311.029 309.93,305.673 313.944,301.994C315.489,300.577 320.815,298.424 321.504,296.585C321.663,296.163 318.804,292.739 318.506,292.124C317.85,290.77 318.748,287.791 317.244,287.791C311.862,287.791 305.713,299.978 301.162,302.396C295.635,305.331 289.962,298.204 289.125,298.623C287.031,299.67 285.311,304.364 284.047,306.197C282.067,309.069 279.623,311.508 277.003,313.801C275.725,314.919 271.713,315.641 272.915,316.842C274.768,318.695 286.746,318.67 285.711,323.498C284.931,327.138 272.405,335.572 269.472,340.412C265.036,347.732 281.753,359.142 267.162,363.351C261.535,364.975 269.879,359.702 267.004,354.615C263.649,348.679 252.912,353.647 255.47,345.032C257.118,339.479 259.388,333.855 262.93,329.222C263.362,328.657 267.31,324.86 267.09,324.201C266.595,322.716 264.215,325.445 262.743,325.98C259.889,327.018 256.841,327.391 253.834,327.774C246.352,328.725 240.655,326.227 240.655,326.227C240.655,326.227 241.094,330.878 241.418,333.85C242.206,341.08 241.934,348.141 242.362,355.416C242.394,355.961 242.046,369.12 241.998,369.099C236.562,366.752 234.279,354.849 233.408,351.518C231.779,345.288 229.61,326.944 226.018,322.394C224.366,320.301 220.829,320.61 218.888,318.736C218.111,317.985 215.737,313.111 215.553,313.088C214.683,312.979 212.191,316.654 211.686,317.301C207.289,322.938 200.223,333.604 206.207,338.69C222.432,352.482 218.572,354.285 218.572,354.285C218.572,354.285 213.181,349.989 211.026,348.963C206.397,346.758 200.593,347.945 196.207,345.218C194.142,343.935 193.608,339.507 192.29,338.849C191.568,338.487 189.811,344.651 188.862,346.337C180.521,361.158 170.443,352.672 170.443,352.672C170.443,352.672 182.714,352.454 181.875,339.853C181.456,333.552 176.126,330.091 175.42,324.173C174.778,318.801 181.936,313.189 181.936,313.189C181.936,313.189 178.65,308.704 177.901,306.054C176.845,302.316 177.534,299.002 179.164,295.538C179.913,293.946 181.818,290.976 181.818,290.976C181.818,290.976 177.467,293.266 175.133,293.114C170.758,292.828 168.055,290.068 164.947,287.361C163.813,286.373 158.089,284.526 158.879,284.477C170.799,283.752 172.489,276.876 172.727,274.78Z" style="fill: rgb(var(--color_hairs_r, 239), var(--color_hairs_g, 28), var(--color_hairs_b, 121))"/>
            <clipPath id="_clip1_hair_3_hat">
                <path d="M172.727,274.78C173.43,271.182 171.773,266.732 171.842,263.749C171.962,258.525 177.586,248.473 177.403,249.717C176.321,257.042 176.224,262.995 178.105,265.993C182.232,272.572 185.433,270.256 191.311,264.827C192.583,263.652 198.609,263.707 199.029,260.203C200.216,250.275 203.187,246.553 203.334,247.793C203.544,249.557 205.653,252.96 211.442,254.391C213.467,254.891 213.072,254.422 215.222,253.794L225.361,244.163C282.085,206.347 355.014,205.529 421.081,210.403C459.197,213.215 497.685,218.683 534.236,230.185C545.873,233.847 557.491,238.027 568.425,243.476C572.294,245.404 582.82,253.88 587.164,254.363C591.835,254.882 593.044,253.288 595.968,250.676C598.159,248.719 600.366,244.697 603.366,239.498C603.752,238.829 604.021,246.348 599.56,253.419C598.604,254.933 610.334,256.219 612.26,257.211C616.261,259.27 614.644,267.261 623.272,268.27C630.961,269.168 639.969,267.016 642.632,274.063C643.16,275.46 639.003,287.335 639.003,287.335C639.003,287.335 639.313,278.928 632.224,278.122C626.799,277.506 628.026,279.313 627.244,279.526C626.681,279.68 626.106,284.151 625.419,284.976C623.077,287.79 619.173,288.748 617.096,291.808C614.213,296.055 618.704,299.166 622.805,298.586C625.058,298.268 627.564,297.61 629.625,296.637C629.841,296.535 633.298,294.715 633.278,295.32C633.106,300.362 624.346,304.952 620.258,305.615C619.528,305.734 611.592,305.901 611.601,305.963C612.244,310.581 617.365,313.804 620.375,316.742C625.242,321.491 629.05,329.28 627.328,336.264C626.93,337.879 623.207,333.156 622.539,332.649C618.976,329.946 615.16,328.927 610.857,328.114C610.403,328.028 608.204,327.026 607.869,327.157C607.778,327.192 608.312,329.477 608.338,329.64C608.518,330.78 609.596,338.12 608.22,338.655C607.743,338.84 606.482,336.709 606.257,336.414C604.393,333.971 602.713,331.407 601.511,328.572C601.428,328.377 600.241,325.182 600.22,325.19C599.824,325.344 599.72,330.006 599.609,330.536C598.609,335.349 595.569,339.515 592.242,343.015C591.733,343.55 589.478,346.383 588.58,346.101C588.139,345.963 589.19,343.73 589.275,343.49C590.218,340.838 591.069,338.221 591.618,335.454C592.446,331.28 593.176,326.677 592.49,322.433C592.137,320.252 591.033,315.968 591.033,315.968C591.033,315.968 591.323,318.562 590.986,319.792C590.205,322.643 588.944,325.735 585.965,326.848C581.874,328.379 577.213,326.142 572.9,326.786C572.013,326.918 569.523,329.422 569.587,330.203C569.756,332.261 569.486,334.375 569.124,336.397C567.773,343.956 565.117,351.146 564.103,358.737C563.612,362.412 562.697,365.985 561.798,369.577C561.709,369.933 561.132,373.079 560.578,372.952C558.675,372.516 557.412,363.065 557.138,361.362C557.095,361.095 556.891,357.974 556.53,357.94C553.408,357.65 546.382,365.413 542.822,362.799C542.251,362.38 544.07,362.13 544.678,361.768C545.819,361.088 546.941,360.373 548.064,359.664C551.416,357.549 554.97,353.796 555.359,349.618C555.625,346.761 552.644,344.423 550.912,342.546C546.436,337.695 542.277,333.285 545.531,326.37C547.813,321.521 551.787,318.375 556.361,315.83C558.247,314.781 562.988,313.209 563.566,310.737C565.009,304.568 555.582,296.506 553.355,291.385C551.731,287.648 552.1,283.186 550.042,279.652C549.201,278.21 545.197,272.827 543.288,272.921C542.804,272.945 542.482,275.022 542.373,275.347C541.477,278.025 540.128,280.461 538.532,282.781C536.834,285.249 534.821,287.415 532.717,289.537C532.365,289.891 530.467,291.262 530.658,291.867C530.94,292.761 536.119,292.95 536.932,293.12C541.314,294.032 546.983,296.111 548.854,300.61C551.935,308.019 540.051,306.015 539.305,310.209C538.871,312.653 545.086,314.37 543.83,317.546C542.993,319.664 538.261,320.928 536.54,322.23C532.57,325.235 529.856,329.655 528.114,334.26C527.14,336.836 526.54,339.755 526.893,342.514C526.935,342.838 528.084,346.413 528.051,346.44C527.862,346.597 524.767,343.993 524.528,343.817C521.233,341.389 516.68,338.19 516.729,333.613C516.776,329.258 521.493,326.162 524.104,323.266C525.507,321.71 529.288,315.391 526.871,313.324C525.736,312.353 522.086,312.841 520.573,312.429C516.825,311.409 513.251,309.417 510.301,306.904C508.488,305.36 506.662,303.593 505.635,301.406C505.365,300.831 504.79,297.311 504.013,297.385C502.687,297.512 500.793,299.472 499.766,300.222C498.496,301.149 494.724,302.703 494.127,304.195C493.565,305.598 496.593,309.086 497.222,310.195C499.544,314.288 502.351,319.65 500.894,324.493C498.111,333.746 484.742,334.284 477.692,338.472C474.132,340.588 471.658,343.712 469.598,347.26C469.343,347.701 468.054,351.439 467.49,351.449C466.911,351.459 466.763,348.095 466.741,347.777C466.447,343.608 467.424,340.126 469.792,336.657C472.519,332.663 477.195,329.267 481.436,326.995C483.759,325.75 487.697,324.968 488.705,322.206C489.255,320.7 489.798,316.097 488.16,315.013C486.88,314.166 483.593,315.73 482.046,315.566C476.462,314.973 467.968,311.519 465.509,306.144C462.719,300.047 463.797,291.758 465.563,285.534C466.157,283.438 466.997,281.39 468.06,279.488C468.563,278.588 470.652,277.1 469.655,276.837C468.712,276.588 463.937,280.666 462.823,281.131C458.377,282.99 453.377,282.409 449.332,285.311C446.134,287.606 445.874,292.005 442.098,294.045C437.11,296.739 437.007,292.481 433.677,291.409C431.678,290.765 425.627,296.663 424.685,298.343C424.623,298.454 428.546,300.418 428.864,300.666C432.182,303.26 433.734,306.208 430.697,309.729C424.189,317.275 415.598,323.212 408.182,329.814C405.865,331.878 400.746,335.675 400.509,339.166C400.382,341.041 405.188,339.666 406.004,339.513C409.564,338.845 420.206,336.238 422.544,340.722C423.831,343.19 420.996,347.109 419.694,349.01C418.304,351.039 416.775,353.027 415.245,355.03C415.635,354.549 414.781,356.184 414.462,356.714C413.804,357.81 413.106,358.892 412.358,359.929C410.202,362.915 407.615,365.729 406.899,369.445C404.289,382.979 401.607,387.542 388.895,395.535C385.062,397.945 378.425,401.371 374.541,397.073C373.889,396.352 371.577,390.251 373.548,389.881C375.318,389.549 375.806,392.922 377.481,393.584C382.049,395.39 385.693,390.865 388.381,387.899C391.876,384.042 398.094,378.228 397.434,372.442C397.118,369.675 392.783,365.895 393.593,363.311C394.82,359.4 402.61,353.171 402.271,349.521C402.18,348.532 395.046,351.136 394.475,351.334C390.608,352.675 368.035,362.581 368.998,352.223C370.105,340.331 383.398,327.627 390.53,318.821C391.874,317.161 402.337,306.868 401.448,306.437C401.448,306.437 387.66,305.507 374.057,301.221C369.729,299.857 368.018,295.371 368.018,295.371C368.017,295.37 362.279,300.003 361.673,300.387C357.051,303.318 351.735,305.374 346.323,306.197C333.773,308.107 332.045,303.507 322.767,312.495C322.174,313.069 316.697,317.972 317.114,318.807C318.199,320.976 330.571,320.178 330.571,325.091C330.571,325.438 326.104,327.177 325.808,327.343C320.836,330.14 315.831,332.88 311.147,336.152C306.47,339.418 302.18,343.487 298.35,347.7C297.871,348.227 295.175,352.305 294.505,352.305C294.394,352.305 294.398,352.038 294.39,351.975C293.896,347.773 294.94,342.767 297.174,339.193C303.532,329.019 310.677,331.629 314.934,327.372C315.002,327.304 311.763,325.218 311.577,325.062C309.742,323.533 303.335,318.932 304.433,316.096C306.394,311.029 309.93,305.673 313.944,301.994C315.489,300.577 320.815,298.424 321.504,296.585C321.663,296.163 318.804,292.739 318.506,292.124C317.85,290.77 318.748,287.791 317.244,287.791C311.862,287.791 305.713,299.978 301.162,302.396C295.635,305.331 289.962,298.204 289.125,298.623C287.031,299.67 285.311,304.364 284.047,306.197C282.067,309.069 279.623,311.508 277.003,313.801C275.725,314.919 271.713,315.641 272.915,316.842C274.768,318.695 286.746,318.67 285.711,323.498C284.931,327.138 272.405,335.572 269.472,340.412C265.036,347.732 281.753,359.142 267.162,363.351C261.535,364.975 269.879,359.702 267.004,354.615C263.649,348.679 252.912,353.647 255.47,345.032C257.118,339.479 259.388,333.855 262.93,329.222C263.362,328.657 267.31,324.86 267.09,324.201C266.595,322.716 264.215,325.445 262.743,325.98C259.889,327.018 256.841,327.391 253.834,327.774C246.352,328.725 240.655,326.227 240.655,326.227C240.655,326.227 241.094,330.878 241.418,333.85C242.206,341.08 241.934,348.141 242.362,355.416C242.394,355.961 242.046,369.12 241.998,369.099C236.562,366.752 234.279,354.849 233.408,351.518C231.779,345.288 229.61,326.944 226.018,322.394C224.366,320.301 220.829,320.61 218.888,318.736C218.111,317.985 215.737,313.111 215.553,313.088C214.683,312.979 212.191,316.654 211.686,317.301C207.289,322.938 200.223,333.604 206.207,338.69C222.432,352.482 218.572,354.285 218.572,354.285C218.572,354.285 213.181,349.989 211.026,348.963C206.397,346.758 200.593,347.945 196.207,345.218C194.142,343.935 193.608,339.507 192.29,338.849C191.568,338.487 189.811,344.651 188.862,346.337C180.521,361.158 170.443,352.672 170.443,352.672C170.443,352.672 182.714,352.454 181.875,339.853C181.456,333.552 176.126,330.091 175.42,324.173C174.778,318.801 181.936,313.189 181.936,313.189C181.936,313.189 178.65,308.704 177.901,306.054C176.845,302.316 177.534,299.002 179.164,295.538C179.913,293.946 181.818,290.976 181.818,290.976C181.818,290.976 177.467,293.266 175.133,293.114C170.758,292.828 168.055,290.068 164.947,287.361C163.813,286.373 158.089,284.526 158.879,284.477C170.799,283.752 172.489,276.876 172.727,274.78Z"/>
            </clipPath>
            <g clip-path="url(#_clip1_hair_3_hat)">
                <path d="M391.655,359.616L391.685,359.093C391.667,359.283 391.657,359.457 391.655,359.616L391.187,367.779C391.089,370.404 390.66,372.97 389.947,375.497C389.848,375.849 388.238,379.234 388.464,379.431C388.902,379.815 391.79,378.344 392.24,378.163C394.871,377.102 401.7,374.753 401.571,370.997C401.466,367.951 398.079,364.899 395.759,363.365C395.026,362.88 392.757,361.855 392.468,361.059C391.967,361.085 391.638,360.708 391.655,359.616ZM561.714,352.276C561.719,352.267 561.723,352.263 561.726,352.264L561.714,352.276C561.573,352.533 560.635,357.009 560.592,357.231C559.721,361.639 559.264,366.063 559.169,370.556C559.155,371.246 559.556,374.891 558.989,375.363C558.915,375.425 558.278,373.343 558.244,373.212C557.846,371.72 557.447,370.219 557.138,368.705C556.178,363.994 554.985,358.964 558.706,355.243L561.714,352.276ZM262.976,255.288C258.562,257.771 252.086,260.735 248.833,265.522C244.7,271.605 244.651,279.794 241.875,286.49C239.567,292.055 234.911,296.275 232.96,302.047C231.768,305.578 232.957,308.592 232.552,312.037C232.017,316.583 228.372,320.665 229.435,325.624C229.609,326.436 232.099,327.352 232.724,327.723C234.837,328.979 236.164,330.588 236.823,332.948C239.134,341.219 239.765,349.896 241.051,358.351C241.362,360.399 241.647,362.456 242.061,364.486C242.102,364.682 242.317,366.288 242.735,366.198C243.346,366.067 243.519,363.814 243.581,363.396C244.035,360.336 244.292,357.246 244.648,354.173C245.402,347.678 246.79,340.317 244.863,333.893C242.849,327.177 237.157,324.145 239.41,316.2C240.519,312.289 244.858,309.46 248.389,307.83C250.207,306.991 254.088,304.934 254.416,302.642C254.524,301.883 252.759,300.778 252.302,300.335C250.879,298.955 249.41,297.675 247.579,296.866C246.504,296.391 244.323,295.978 243.588,294.974C242.899,294.035 243.805,292.354 244.14,291.449C245.304,288.294 246.704,285.134 248.382,282.219C251.56,276.695 255.945,271.725 260.192,267.012C263.443,263.405 267.004,261.283 264.412,256.471L262.976,255.288ZM396.045,350.784C396.029,350.714 402.314,348.227 402.716,348.047C403.089,347.88 408.908,344.806 409.16,345.16C409.455,345.573 406.679,348.361 406.426,348.648C404.072,351.314 401.471,353.772 398.839,356.159C398.418,356.541 396.771,358.453 396.082,358.246C395.583,358.096 395.791,356.312 395.777,355.93L396.045,350.784ZM192.415,318.56L191.512,318.479C191.446,319.049 191.402,319.625 191.377,320.207C190.462,322.166 189.395,325.205 189.29,325.574C187.596,331.504 188.968,337.418 188.172,343.424C187.851,345.852 187.279,348.232 186.632,350.59C186.583,350.766 185.92,352.613 186.151,352.69C186.5,352.806 187.289,351.427 187.42,351.228C188.602,349.437 189.612,347.526 190.587,345.617C194.426,338.101 191.013,328.567 191.377,320.207C191.787,319.328 192.167,318.666 192.415,318.56ZM584.284,289.12C587.127,289.552 590.263,296.875 591.287,298.977C596.99,310.689 597.836,322.397 595.04,335.088C594.157,339.096 592.733,342.968 590.25,346.279C589.842,346.823 588.237,349.323 587.328,349.107C586.721,348.962 587.97,344.897 588.065,344.497C589.301,339.262 590.61,334.102 591.098,328.729C592.291,315.611 588.263,304.449 585.28,292.019L584.284,289.12ZM560.082,313.884C560.666,313.678 558.991,314.497 558.543,314.924C557.648,315.779 556.821,316.744 556.058,317.718C553.76,320.653 551.978,324.002 550.917,327.581C549.564,332.142 549.124,336.817 549.914,341.523C550.173,343.061 550.512,344.591 550.968,346.082C551.018,346.243 551.833,348.503 551.662,348.541C550.966,348.696 548.962,346.4 548.552,346.005C545.684,343.246 542.902,340.03 542.176,335.996C540.381,326.014 548.866,318.682 555.878,313.228L560.082,313.884ZM201.068,296.168C201.161,296.45 201.263,298.379 201.273,298.541C201.427,301.078 201.223,303.713 200.82,306.218C200.168,310.279 201.973,313.364 201.738,317.182C201.337,323.681 196.715,329.149 200.648,335.678C202.898,339.41 206.313,341.36 209.936,343.553C211.121,344.271 212.281,345.028 213.426,345.811C213.555,345.899 215.095,346.86 215.095,346.8C215.095,345.477 212.65,342.635 212.078,341.389C210.403,337.737 209.418,334.09 209.706,330.045C210.288,321.91 216.448,316.192 214.544,308.052C213.957,305.546 209.026,306.709 207.069,305.938C204.772,305.034 203.252,301.048 202.648,298.873L201.068,296.168C201.062,296.148 201.055,296.136 201.049,296.134L201.068,296.168ZM570.415,331.564C567.748,333.518 565.02,335.423 563.702,338.687C563.234,339.846 563.044,341.047 562.88,342.277C562.858,342.438 562.67,344.105 562.52,343.983C558.403,340.615 561.16,331.776 564.996,329.509C566.561,328.584 570.705,327.161 571.98,329.286L570.415,331.564ZM607.977,325.566C607.56,326 607.387,324.516 607.117,323.978C606.587,322.925 606.101,321.852 605.597,320.786C604.615,318.705 603.605,316.615 602.769,314.47C602.689,314.263 601.633,311.351 601.784,311.351C603.253,311.351 606.776,315.415 607.928,316.27C614.622,321.234 621.033,323.926 625.135,331.609C625.603,332.485 629.017,339.269 628.092,340.195C627.486,340.801 626.911,338.952 626.275,338.378C624.977,337.208 623.633,336.031 622.153,335.096C618.096,332.534 613.323,331.76 609.762,328.387L607.977,325.566ZM265.748,324.994C265.062,325.127 267.02,324.402 267.69,324.201C268.156,324.061 274.081,323.076 274.003,323.929C273.911,324.942 270.568,327.407 269.847,328.128C266.175,331.799 262.475,334.917 257.75,337.157C257.341,337.352 253.565,339.531 253.236,339.078C252.883,338.593 255.914,335.352 256.217,334.979C256.987,334.03 257.766,333.089 258.546,332.148L265.748,324.994ZM494.152,306.446C493.463,305.797 492.802,304.001 492.304,303.154C485.58,291.706 500.209,282.511 507.138,276.245C509.576,274.04 511.913,271.691 514.49,269.645C514.713,269.469 516.525,267.796 516.984,268.255C517.076,268.347 515.766,270.537 515.701,270.67C514.412,273.313 513.355,276.011 512.541,278.84C510.386,286.328 510.308,293.96 512.778,301.37C514.464,306.428 518.456,310.068 523.756,310.836C525.834,311.137 527.998,310.918 530.055,310.557C530.264,310.52 531.815,310.051 531.932,310.335C534.993,317.681 525.924,324.941 521.8,329.11C521.219,329.696 517.808,334.538 517.041,334.355C516.632,334.258 516.847,332.141 516.841,331.862C516.771,329.001 516.27,325.977 515.185,323.32C514.868,322.541 514.465,321.795 513.974,321.112C511.232,317.304 509.084,319.982 505.941,317.723L494.152,306.446ZM401.831,221.909C400.288,226.479 396.667,230.545 394.882,235.097C393.794,237.871 394.36,242.087 392.462,244.407C389.577,247.933 384.492,249.859 380.743,252.269C374.603,256.216 369.095,260.939 364.543,266.651C358.335,274.442 358.946,286.264 351.43,292.414C348.078,295.156 343.991,299.228 339.552,300.043C337.599,300.402 331.293,298.671 330.242,299.272C330.002,299.409 331.611,302.131 331.532,302.632C331.35,303.785 328.676,304.819 327.833,305.295C323.632,307.67 313.5,313.086 314.127,319.36C314.436,322.447 323.384,322.856 323.934,325.88C324.207,327.382 318.088,333.825 318.629,334.186C319.79,334.96 324.385,332.134 325.424,331.671C327.045,330.947 332.608,329.551 333.17,327.56C333.519,326.321 331.326,324.151 330.876,323.058C329.312,319.252 332.55,316.345 335.515,314.52C343.964,309.321 354.95,308.597 362.493,301.924C371.502,293.955 372.632,279.494 378.122,269.081C382.194,261.36 387.754,255.221 394.216,249.405C396.521,247.331 402.819,243.993 403.748,240.835C404.149,239.47 402.268,236.968 401.761,235.784C400.554,232.968 400.075,229.834 400.208,226.781L401.831,221.909C401.845,221.868 401.859,221.827 401.873,221.785L401.831,221.909ZM276.66,313.483C273.601,316.187 268.371,315.776 264.78,317.422C264.334,317.626 261.158,318.874 261.319,319.572C261.447,320.125 266.247,319.935 266.715,319.951C270.585,320.091 274.221,320.96 278.009,321.643C279.226,321.862 281.501,321.784 282.387,322.861C283.225,323.878 279.715,329.113 279.249,329.998C279.164,330.159 278.076,332.069 278.281,332.163C278.567,332.292 279.684,331.064 279.843,330.916C281.614,329.258 283.309,327.516 284.938,325.72C286.149,324.386 287.883,322.868 288.464,321.105C289.951,316.595 281.25,315.733 278.425,315.544L276.66,313.483ZM487.528,314.889C487.419,314.759 490.711,315.08 491.229,315.415C493.237,316.715 493.658,319.249 492.483,321.263C490.759,324.218 487.184,324.997 484.063,325.584C483.749,325.643 481.092,326.326 480.91,325.992C480.825,325.837 484.03,321.63 484.278,321.134L487.528,314.889ZM192.415,318.56C192.469,318.538 192.517,318.541 192.557,318.573L192.415,318.56ZM374.816,301.312C374.714,301.052 376.164,301.421 376.292,301.441C377.359,301.612 378.432,301.756 379.502,301.907C382.783,302.372 386.057,302.474 389.363,302.258C395.509,301.858 401.712,300.864 407.851,300.245C409.993,300.029 413.906,299.055 415.985,300.094C416.731,300.467 413.755,302.398 413.513,302.567C410.383,304.744 407.054,306.707 403.76,308.622C400.745,310.374 397.626,311.966 394.437,313.373C393.581,313.751 391.756,314.832 390.825,314.082C389.871,313.315 390.019,311.281 389.37,310.234C388.285,308.484 386.219,307.493 384.397,306.701L374.816,301.312ZM540.221,241.36C539.47,244.532 542.571,249.301 543.53,252.155C549.464,269.797 567.238,278.186 567.87,287.899C567.941,288.99 556.681,279.919 559.452,287.477C560.652,290.75 563.949,298.256 567.327,299.894C570.095,301.236 572.245,294.867 572.88,293.201C572.949,293.021 573.757,290.577 573.968,290.648C574.427,290.801 574.037,296.367 574.02,296.972C573.831,303.486 569.199,311.16 562.562,313.056C560.876,313.538 560.485,310.688 560.077,309.594C558.43,305.169 555.937,301.337 553.376,297.4C545.858,285.841 544.05,272.119 540.145,259.216C537.966,252.016 533.497,248.646 538.594,241.426L540.221,241.36ZM447.08,289.757C447.621,289.423 447.891,283.192 447.996,282.329C448.844,275.394 451.211,271.102 456.237,266.077C456.93,265.384 459.669,262.005 460.881,262.207C461.282,262.274 459.38,266.662 459.254,266.98C458.087,269.914 457.227,272.963 456.194,275.944C456.053,276.351 454.822,280.363 455.191,280.215C457.113,279.446 458.906,277.423 460.658,276.303C466.358,272.661 474.663,268.433 477.477,261.748C479.074,257.955 478.365,253 479.548,248.978C479.624,248.721 480.663,244.805 481.103,244.994C481.339,245.095 481.347,246.819 481.383,247.044C481.713,249.126 482.177,251.207 482.823,253.214C483.618,255.681 486.842,260.151 486.557,262.795C486.306,265.11 482.993,267.833 481.698,269.602C478.097,274.521 474.722,279.678 471.974,285.124C469.111,290.796 467.044,296.983 465.954,303.24C465.845,303.867 465.482,309.059 464.765,309.152C463.63,309.3 462.087,303.732 461.87,303.039C460.372,298.265 458.713,284.929 451.4,287.976L447.08,289.757ZM333.576,246.133C333.433,246.604 329.343,247.601 328.874,247.803C325.31,249.342 321.972,251.659 319.708,254.855C316.974,258.715 318.678,262.761 317.057,266.543C316.965,266.757 314.157,267.607 313.847,267.789C311.349,269.253 308.908,271.11 307.196,273.472C303.231,278.945 304.013,285.11 301.442,290.922C300.116,293.92 297.286,296.573 294.964,298.797C294.587,299.158 290.952,302.089 291.338,302.373C296.937,306.499 302.592,302.978 306.623,298.46C308.356,296.518 310.022,294.522 312.034,292.856C313.22,291.874 315.094,291.011 315.774,289.546C316.8,287.336 316.222,284.033 316.519,281.656C317.075,277.211 318.59,272.939 321.199,269.287C324.069,265.27 327.671,261.774 331.525,258.703C332.655,257.803 336.27,256.013 336.649,254.496C337.127,252.583 335.3,249.95 334.449,248.355L333.576,246.133ZM424.353,298.317C421.867,298.317 419.904,293.627 418.271,292.211C416.984,291.096 415.419,290.52 413.756,290.262C413.549,290.23 411.279,290.162 411.241,290.011C411.221,289.932 417.542,288.385 417.913,288.292C424.133,286.725 428.278,285.711 432.761,290.642C433.085,290.998 435.804,293.398 435.62,293.767C435.118,294.77 431.495,295.897 430.489,296.518L424.353,298.317ZM172.098,292.394C172.403,292.339 173.047,292.173 173.327,292.096C174.311,291.825 175.277,291.475 176.191,291.019C178.84,289.694 180.664,287.227 182.289,284.834C184.185,282.043 186.171,279.919 189.168,278.327C190.767,277.479 194.328,276.522 195.209,274.759C197.021,271.135 197.674,267.839 200.684,264.676C200.835,264.518 205.858,259.936 206.143,260.164C206.387,260.36 203.987,264.911 203.971,265.174C203.852,267.128 203.071,268.351 203.257,270.301C203.438,272.206 204.528,275.138 203.658,276.973C202.273,279.898 197.514,281.297 194.887,282.692C188.258,286.211 182.476,292.586 174.829,293.606L172.098,292.394ZM172.098,292.394L172.012,292.355C171.87,292.421 171.935,292.423 172.098,292.394Z" style="fill: rgb(calc(var(--color_hairs_b, 239) - 100), calc(var(--color_hairs_g, 28), - 7), calc(var(--color_hairs_r, 121) - 22))"/>
                <path d="M372.893,393.817C372.087,394.156 374.137,395.061 374.863,395.548C376.23,396.466 377.984,397.293 379.668,396.947C383.395,396.182 386.156,390.916 387.971,387.987C388.336,387.397 390.041,385.233 389.806,384.456C389.785,384.386 388.527,385.358 388.446,385.418C387.628,386.019 386.79,386.607 385.878,387.058C383.337,388.316 380.434,388.143 377.795,387.299L372.893,393.817ZM401.278,353.401C401.359,353.504 400.516,354.863 400.454,354.979C399.522,356.723 398.618,358.484 397.853,360.31C396.966,362.428 396.414,364.63 396.008,366.886C395.89,367.541 395.932,369.299 395.365,369.763C394.75,370.264 393.514,368.213 393.323,367.883C392.09,365.754 392.204,363.473 393.161,361.259C393.839,359.693 394.768,358.247 395.81,356.9L401.278,353.401ZM559.581,336.292C559.551,336.679 559.483,337.263 559.492,337.547C559.524,338.509 559.548,339.473 559.626,340.432C559.897,343.752 560.549,346.705 558.885,349.801C556.953,353.396 553.915,355.769 550.559,357.973C550.243,358.18 545.419,361.608 545.844,361.812C547.644,362.672 552.527,359.219 553.886,358.368C557.256,356.256 563.633,351.5 563.415,346.789C563.311,344.52 561.803,342.452 560.607,340.623L559.581,336.292C559.605,335.977 559.603,335.791 559.513,336.004L559.581,336.292ZM229.808,325.259C230.912,325.759 232.15,331.505 232.456,332.549C234.472,339.42 235.136,346.379 235.78,353.489C235.866,354.439 237.096,359.685 236.204,360.363C235.921,360.578 235.036,358.563 234.976,358.425C233.889,355.956 233.083,353.33 232.226,350.775C231.365,348.204 230.534,345.622 229.766,343.02C228.504,338.739 227.522,334.359 226.842,329.947L229.808,325.259ZM414.06,338C414.222,338.076 415.574,339.301 416.004,339.734C417.479,341.215 418.299,342.98 418.279,345.093C418.229,350.516 414.449,355.781 411.877,360.281C411.738,360.523 412.19,359.819 412.344,359.586C412.709,359.036 413.078,358.49 413.454,357.948C414.505,356.433 415.536,354.904 416.555,353.367C419.318,349.199 427.402,338.285 418.097,336.236L414.06,338ZM567.894,332.238C567.843,332.167 567.025,334.919 566.964,335.198C566.5,337.348 566.217,339.531 565.927,341.71C565.356,346.013 564.717,350.311 564.205,354.621C564.086,355.626 563.252,358.684 563.81,359.614C564.024,359.97 564.099,358.836 564.205,358.436C564.38,357.778 564.548,357.119 564.718,356.461C565.238,354.442 565.723,352.412 566.193,350.381C567.583,344.37 569.206,338.564 569.637,332.396L567.894,332.238ZM391.016,319.18C391.147,318.999 391.207,318.934 391.113,319.118L391.016,319.18C390.78,319.51 390.31,320.224 390.105,320.537C389.449,321.537 388.784,322.532 388.135,323.537C386.1,326.689 384.138,329.876 382.31,333.153C379.118,338.878 376.279,345.197 374.713,351.584C374.279,353.355 374.119,355.264 374.869,356.976C375.104,357.514 376.438,358.619 376.457,359.097C376.459,359.142 375.402,359.03 375.339,359.022C369.078,358.299 367.491,353.229 368.963,347.636C371.232,339.01 377.022,331.124 382.816,324.508L391.016,319.18ZM261.842,331.216C261.909,330.921 261.949,330.822 261.935,331.12L261.842,331.216C261.71,331.797 261.471,333.138 261.332,333.709C260.879,335.571 260.493,337.45 260.096,339.324C259.338,342.909 258.925,346.457 259.475,350.107C259.536,350.514 260.777,355.776 260.602,355.787C259.647,355.848 257.488,353.162 256.9,352.544C252.055,347.458 254.495,340.543 257.919,335.258L261.842,331.216ZM308.03,330.859C308.204,330.984 305.465,333.49 305.295,333.667C303.567,335.468 301.928,337.358 300.489,339.402C298.409,342.355 296.627,345.514 295.466,348.943C295.256,349.562 294.753,352.561 294.077,352.818C293.796,352.924 293.863,350.045 293.873,349.888C294.078,346.712 294.638,343.404 295.984,340.501C297.271,337.723 299.217,335.306 301.512,333.296L308.03,330.859ZM612.14,309.022C612.29,309.336 612.342,309.917 612.513,310.21C613.481,311.875 614.284,313.624 615.148,315.343C618.446,321.902 622.105,328.375 624.641,335.285C625.321,337.14 625.945,339.016 626.517,340.907C626.564,341.063 627.301,343.737 627.48,343.648C627.866,343.455 627.864,341.98 627.906,341.642C628.174,339.447 628.36,337.21 628.442,335.001C628.843,324.266 625.129,317.24 616.451,311.332L612.14,309.022C612.061,308.855 611.954,308.764 611.787,308.833L612.14,309.022ZM539.499,311.796C539.988,312.41 540.32,315.071 540.209,315.448C539.698,317.195 537.37,317.984 535.982,318.863C530.395,322.404 526.297,327.348 525.857,334.153C525.782,335.312 525.318,339.29 526.462,340.169C526.606,340.281 527.111,339.001 527.155,338.909C527.515,338.17 527.919,337.448 528.349,336.747C529.821,334.341 531.509,332.031 533.397,329.936C537.362,325.539 549.634,321.013 543.554,313.561L539.499,311.796C539.416,311.691 539.328,311.646 539.237,311.682L539.499,311.796ZM414.051,337.997C414.054,337.997 414.057,337.998 414.06,338L414.046,338.006C414.043,337.999 414.044,337.996 414.048,337.996L414.051,337.997ZM181.342,293.061C177.779,296.13 179.27,303.833 181.59,307.074C182.332,308.112 184.835,309.708 185.021,310.99C185.181,312.092 183.542,314.118 183.055,314.99C181.505,317.766 179.913,320.589 179.431,323.781C178.982,326.759 179.546,329.881 180.187,332.788C180.395,333.73 181.454,336.037 181.128,336.982C180.974,337.429 178.252,334.55 178.119,334.392C175.786,331.63 173.684,328.6 173.441,324.885C173.186,320.981 175.403,317.856 175.741,314.105C176.018,311.022 174.216,308.161 173.952,305.136C173.668,301.886 175.281,298.507 176.931,295.799L181.342,293.061ZM497.764,309.231C497.362,308.862 498.043,310.285 498.17,310.815C498.428,311.894 498.696,312.969 498.93,314.053C499.745,317.834 500.123,320.724 498.017,324.08C495.561,327.995 492.257,330.947 488.329,333.358C487.05,334.143 485.738,334.861 484.382,335.503C484.27,335.557 482.442,336.35 482.482,336.421C482.597,336.623 484.779,335.786 484.956,335.729C487.433,334.94 489.826,333.947 492.17,332.826C500.206,328.983 504.219,323.348 500.443,314.672L497.764,309.231ZM244.462,309.771C244.486,309.75 244.501,309.746 244.501,309.764L244.462,309.771C244.317,309.896 243.823,310.619 243.781,310.695C243.358,311.458 243.036,312.293 242.726,313.106C241.839,315.434 241.136,318.115 241.72,320.611C242.37,323.387 244.214,325.69 246.296,327.552C246.993,328.176 247.71,328.782 248.468,329.332C248.517,329.368 249.601,330.15 249.331,330.221C247.888,330.601 245.451,329.431 244.156,328.937C235.264,325.549 237.175,315.65 242.921,310.023L244.462,309.771ZM587.448,299.643C586.719,300.346 587.138,305.18 587.048,306.203C586.638,310.85 586.421,318.072 582.974,321.744C580.177,324.724 573.117,323.974 569.415,325.502C568.871,325.727 565.347,327.257 565.471,328.082C565.522,328.424 566.924,328.194 567.106,328.175C569.18,327.962 571.248,327.662 573.334,327.595C576.986,327.477 583.029,329.574 586.332,327.582C588.39,326.341 589.318,323.649 589.918,321.472C591.649,315.191 590.352,308.97 588.72,302.852L587.448,299.643ZM317.29,300.612C317.557,300.371 317.804,300.209 317.875,300.349L317.29,300.612C316.941,300.925 316.556,301.372 316.485,301.447C315.193,302.812 314.073,304.337 312.923,305.82C310.383,309.094 308.086,312.623 307.095,316.691C306.76,318.066 306.562,319.437 306.517,320.851C306.511,321.04 306.579,323.078 306.264,323.025C304.991,322.81 304.24,318.615 304.158,317.734C303.605,311.819 308.426,306.648 312.361,302.821L317.29,300.612ZM539.859,292.197C539.709,292.233 542.002,294.981 542.133,295.136C543.848,297.165 545.832,299.102 546.707,301.681C547.443,303.849 546.402,305.607 545.062,307.261C544.65,307.77 544.223,308.269 543.789,308.76C543.744,308.812 543.122,309.532 543.242,309.559C543.986,309.724 545.591,308.43 546.144,308.067C548.671,306.405 551.788,303.992 551.7,300.643C551.599,296.848 547.979,294.685 544.826,293.477L539.859,292.197ZM201.477,295.749C201.473,295.754 201.48,294.477 201.643,294.527C202.137,294.679 202.805,296.093 203.065,296.476C204.983,299.308 206.914,302.256 210.081,303.791C210.677,304.08 215.058,305.301 214.563,306.168C213.477,308.067 210.544,307.643 208.94,306.897C205.352,305.228 201.577,301.052 200.83,297.059L201.477,295.749ZM382.863,262.122C382.935,262.021 382.989,261.963 383.009,261.977L382.863,262.122C382.598,262.49 382.082,263.426 382.04,263.496C381.017,265.228 380.039,266.981 379.141,268.782C375.651,275.781 373.456,283.284 373.486,291.166C373.495,293.637 373.685,296.128 374.348,298.517C374.445,298.868 375.754,302.264 375.418,302.278C371.289,302.446 368.466,295.91 368.428,292.775C368.316,283.702 373.543,273.918 378.41,266.547L382.863,262.122ZM598.46,276.522C598.158,276.786 598.827,279.043 598.891,279.35C599.506,282.279 600.068,285.222 601.027,288.064C604.795,299.229 617.202,304.252 628.115,299.667C630.053,298.853 635.405,296.96 636.287,294.754C636.305,294.709 634.325,295.396 634.158,295.47C632.752,296.089 631.341,296.67 629.868,297.112C625.521,298.416 621.544,298.714 617.197,296.883C615.523,296.178 616.641,291.445 617.105,290.446C617.453,289.697 619.082,288.57 618.308,288.28C617.966,288.151 616.826,289.183 616.586,289.366C615.308,290.342 614.192,291.618 613.445,293.044C613.26,293.397 612.877,295.103 612.538,295.254C611.935,295.522 609.28,293.247 608.865,292.878C605.211,289.62 603.17,285.217 601.558,280.682L598.46,276.522ZM172.233,292.66C172.13,292.571 171.805,292.245 171.676,292.11C171.348,291.766 171.033,291.411 170.744,291.033C169.988,290.044 167.99,287.856 168.642,286.481C169.125,285.461 170.741,284.689 171.65,284.132C173.497,282.999 176.006,281.535 177.261,279.706C178.643,277.691 176.38,275.101 177.378,273.204C178.258,271.531 183.227,272.968 184.811,272.805C189.15,272.356 191.302,268.911 193.837,265.824C194.389,265.153 196.13,263.881 196.222,262.977C196.269,262.506 195.405,261.82 195.153,261.495C194.163,260.218 193.397,258.74 192.567,257.358C188.975,251.376 184.194,241.694 176.103,241.58C170.737,241.505 165.839,245.379 162.216,248.925C153.586,257.37 147.173,269.721 148.87,282.07C150.403,293.229 160.467,301.306 171.737,298.384L172.233,292.66ZM247.474,298.754C247.516,298.782 247.559,298.791 247.603,298.773L247.474,298.754C247.137,298.529 246.836,297.029 246.802,296.864C246.341,294.645 246.342,292.304 246.898,290.102C248.071,285.457 250.396,281.096 252.655,276.906C252.848,276.548 255.091,273.182 254.798,272.822C254.665,272.659 253.371,274.164 253.305,274.239C251.877,275.879 250.587,277.645 249.346,279.429C246.541,283.464 243.874,288.033 242.591,292.819C242.137,294.513 241.711,296.98 243.383,298.145L247.474,298.754ZM325.715,264.241C325.802,264.302 323.717,268.312 323.568,268.639C322.222,271.59 320.963,274.504 320.072,277.625C318.801,282.076 318.824,286.721 319.847,291.2C320.011,291.918 322.051,296.288 321.766,296.738C321.74,296.779 320.012,294.802 319.929,294.691C318.254,292.431 317.012,289.842 316.471,287.076C315.007,279.59 316.853,272.456 321.891,266.751L325.715,264.241ZM172.233,292.66L172.235,292.639C172.279,292.693 172.271,292.693 172.233,292.66ZM599.257,254.808C598.801,254.583 600.047,255.454 600.484,255.713C601.379,256.244 602.306,256.739 603.235,257.209C605.917,258.562 609.062,259.926 610.947,262.368C612.846,264.829 613.454,268.231 616.334,269.86C621.914,273.015 629.125,270.453 634.72,274.089C638.422,276.493 639.151,281.085 639.497,285.162C639.553,285.831 639.53,291.826 640.551,290.845C643.292,288.211 644.475,283.218 645.361,279.708C646.333,275.86 646.934,271.825 646.362,267.863C645.432,261.424 640.609,256.853 634.967,254.129C626.018,249.807 615.581,249.228 605.855,250.423L599.257,254.808ZM536.219,286.337C535.427,287.545 534.753,288.774 534.332,290.045C534.181,290.501 534.837,289.226 535.055,288.798C535.468,287.99 535.858,287.17 536.219,286.337C538.061,283.532 540.541,280.845 541.961,278.038C546.153,269.749 543.898,260.546 538.948,253.261L535.141,249.807C534.913,249.628 535.45,250.301 535.559,250.57C535.79,251.14 535.987,251.723 536.185,252.305C536.833,254.212 537.42,256.126 537.807,258.106C539.012,264.274 539.818,270.686 538.897,276.952C538.446,280.018 537.608,283.019 536.415,285.877C536.351,286.031 536.286,286.184 536.219,286.337ZM203.184,269.434C202.551,260.847 217.708,252.058 216.153,253.603C211.538,258.19 206.513,264.817 206.157,269.398C206.106,270.046 206.227,277.13 205.732,277.08C203.742,276.878 203.275,270.656 203.184,269.434ZM264.934,259.432C265.39,259.86 264.919,258.181 264.923,257.556C264.93,256.387 264.952,255.209 265.035,254.042C265.293,250.418 266.032,246.992 267.995,243.894C271.336,238.622 276.003,234.195 280.501,229.932C281.021,229.439 285.257,226.199 285.065,225.343C285.028,225.178 282.802,226.409 282.682,226.476C279.905,228.024 277.225,229.825 274.648,231.682C268.642,236.011 257.95,245.462 262.872,254.268L264.934,259.432ZM345.501,219.581C345.999,219.533 345.032,220.466 344.84,220.927C344.389,222.008 343.897,223.069 343.423,224.139C342,227.348 340.286,230.406 338.856,233.609C336.851,238.099 336.121,242.731 336.138,247.64C336.141,248.633 337.138,253.475 336.512,254.155C336.426,254.248 335.296,251.615 335.226,251.433C334.171,248.722 333.403,245.938 333.392,243.013C333.36,234.753 335.938,227.508 342.283,222.032L345.501,219.581ZM539.867,221.246L539.729,221.127L536.216,218.422C536.979,219.091 537.893,221.362 538.33,222.117C541.851,228.193 541.614,234.631 539.731,241.304C539.233,243.07 537.581,245.359 537.404,247.102C537.364,247.5 537.803,246.408 537.992,246.056C538.308,245.469 538.625,244.883 538.936,244.293C539.831,242.592 540.692,240.871 541.497,239.126C544.492,232.634 545.629,226.279 539.867,221.246ZM406.918,215.423C406.978,215.243 407.028,215.145 407.05,215.287L406.918,215.423C406.84,215.657 406.744,216.03 406.666,216.199C406.35,216.889 406.042,217.582 405.749,218.282C404.936,220.224 404.149,222.192 403.717,224.259C402.97,227.837 402.952,231.338 403.963,234.862C404.102,235.344 405.814,240.171 405.455,240.24C403.268,240.661 401.184,236.543 400.782,235.04C399.291,229.476 401.118,223.049 404.134,218.287L406.918,215.423Z" style="fill:rgb(254,182,199);"/>
                <path d="M272.975,2.046C272.895,1.98 272.792,1.944 272.693,1.915" style="fill:none;"/>
                <g>
                    <path d="M416.175,206.248C408.963,210.929 400.905,219.18 400.334,228.319C400.169,230.961 400.013,234.195 401.015,236.7C401.561,238.063 404.337,239.1 403.523,240.322C402.876,241.292 400.601,242.288 399.673,243.066C396.391,245.817 393.187,248.718 390.266,251.851C379.379,263.527 369.783,279.433 368.303,295.707" style="fill:none;stroke:black;stroke-width:2.1px;"/>
                    <path d="M453.795,283.495C454.251,284.465 454.491,281.465 454.762,280.427C455.314,278.312 455.849,276.197 456.47,274.1C458.319,267.85 460.534,261.136 464.011,255.573" style="fill:none;stroke:black;stroke-width:2.1px;"/>
                    <path d="M485.428,229.591C485.268,228.878 484.917,230.958 484.671,231.646C484.14,233.125 483.616,234.61 483.17,236.117C481.891,240.443 481.02,245.041 481.226,249.571C481.375,252.859 481.733,256.237 482.983,259.314C483.472,260.517 485.656,261.439 485.075,262.601C484.161,264.429 480.68,266.275 479.123,267.546C475.481,270.519 472.021,273.723 469.4,277.654" style="fill:none;stroke:black;stroke-width:2.1px;"/>
                    <path d="M531.566,214.499C531.4,213.788 532.735,215.376 533.334,215.793C534.586,216.666 535.708,217.752 536.769,218.843C540.09,222.257 543.41,226.38 543.066,231.419C542.784,235.566 540.525,239.618 538.467,243.125C537.78,244.295 535.483,246.628 535.574,248.09C535.717,250.375 539.367,253.315 540.243,255.602C542.573,261.685 543.155,267.658 543.155,274.09" style="fill:none;stroke:black;stroke-width:2.1px;"/>
                    <path d="M347.221,217.083C347.211,217.78 343.086,221.196 342.531,221.854C339.031,226.001 335.928,230.272 334.654,235.624C333.674,239.739 333.303,244.257 334.338,248.396C334.474,248.941 337.106,254.315 336.815,254.605C335.162,256.259 332.389,257.401 330.547,258.988C322.282,266.109 312.803,277.108 317.518,288.897" style="fill:none;stroke:black;stroke-width:2.1px;"/>
                    <path d="M562.355,312.806C562.452,313.039 564.201,311.829 564.447,311.678C566.686,310.304 568.643,308.655 570.261,306.575" style="fill:none;stroke:black;stroke-width:2.1px;"/>
                    <path d="M553.858,358.783C553.798,358.727 555.087,357.983 555.159,357.938C556.026,357.403 556.878,356.83 557.675,356.196C559.952,354.384 562.447,351.505 563.292,348.664C564.395,344.952 560.807,340.856 560.34,337.244C559.445,330.303 567.513,327.672 572.906,326.82" style="fill:none;stroke:black;stroke-width:2.1px;"/>
                    <path d="M584.247,288.345C584.356,288.254 585.433,291.098 585.511,291.315C586.294,293.487 586.948,295.697 587.574,297.918C589.392,304.373 590.96,310.878 591.355,317.581" style="fill:none;stroke:black;stroke-width:2.1px;"/>
                    <path d="M608.596,327.937C608.042,328.395 608.129,326.575 607.849,325.912C607.305,324.623 606.759,323.332 606.24,322.033" style="fill:none;stroke:black;stroke-width:2.1px;"/>
                    <path d="M241.829,327.574C242.107,326.24 239.494,325.981 238.838,324.787C237.596,322.53 237.797,319.715 238.561,317.334C239.655,313.924 241.995,311.417 244.612,309.072C245.262,308.491 247.973,306.888 248.106,305.953C248.226,305.116 245.289,302.517 244.8,301.837C242.574,298.746 241.977,296.133 243.26,292.47C246.175,284.139 251.606,276.073 256.941,269.115C259.138,266.249 264.029,262.411 265.301,259.018C265.6,258.22 262.522,253.56 262.192,252.493C261.181,249.226 262.742,246.036 264.393,243.283C268.424,236.566 274.94,231.469 281.302,227.095C283.246,225.759 288.417,224.004 289.712,222.061C290.764,220.483 289.116,215.752 290.235,213.424C293.298,207.054 302.933,200.871 308.792,197.453" style="fill:none;stroke:black;stroke-width:2.1px;"/>
                    <path d="M226.408,322.238C227.293,325.54 237.658,326.425 240.417,326.731" style="fill:none;stroke:black;stroke-width:2.1px;"/>
                    <path d="M215.946,314.703C215.741,313.5 214.952,307.05 214.19,306.615C213.121,306.004 210.438,306.546 209.097,306.131C204.561,304.729 201.951,300.13 201.19,295.717" style="fill:none;stroke:black;stroke-width:2.1px;"/>
                    <path d="M192.451,340.314C193.267,340.314 192.225,338.697 192.135,337.885C191.964,336.337 191.848,334.782 191.764,333.226C191.499,328.337 191.211,323.083 192.622,318.321" style="fill:none;stroke:black;stroke-width:2.1px;"/>
                    <path d="M181.096,292.041C181.614,290.711 184.681,289.184 185.755,288.403C189.861,285.417 193.618,282.145 198.083,279.686C199.498,278.906 203.159,277.75 204.003,276.274C204.484,275.431 203.26,272.419 203.132,271.529C202.66,268.259 205.56,262.51 207.374,259.735C211.535,253.371 217.512,255.928 221.421,249.458" style="fill:none;stroke:black;stroke-width:2.1px;"/>
                    <path d="M605.201,271.09C606.769,271.823 610.479,273.625 612.126,274.143C616.455,275.505 625.994,275.344 628.175,280.432" style="fill:none;stroke:black;stroke-width:2.1px;"/>
                    <path d="M214.754,306.273C214.951,306.631 214.791,305.45 214.895,305.055C215.128,304.176 215.495,303.329 215.915,302.524C217.123,300.21 218.875,298.13 220.668,296.25C222.8,294.015 225.538,292.624 228.422,291.614C228.951,291.429 232.021,290.99 232.29,290.453C232.549,289.935 231.818,288.272 231.722,287.725C231.297,285.3 230.878,282.882 230.954,280.411C231.119,274.996 234.563,271.09 238.077,267.26" style="fill:none;stroke:black;stroke-width:2.1px;"/>
                    <path d="M547.731,274.023C547.017,274.531 554.177,278.634 554.598,278.83C560.272,281.474 565.345,282.363 568.06,288.569" style="fill:none;stroke:black;stroke-width:2.1px;"/>
                    <path d="M204.688,276.947C204.286,277.259 205.553,276.4 206.028,276.219C207.087,275.814 208.163,275.455 209.209,275.016C212.233,273.747 215.034,272.055 217.613,270.032" style="fill:none;stroke:black;stroke-width:2.1px;"/>
                </g>
            </g>
            <path d="M172.727,274.78C173.43,271.182 171.773,266.732 171.842,263.749C171.962,258.525 177.586,248.473 177.403,249.717C176.321,257.042 176.224,262.995 178.105,265.993C182.232,272.572 185.433,270.256 191.311,264.827C192.583,263.652 198.609,263.707 199.029,260.203C200.216,250.275 203.187,246.553 203.334,247.793C203.544,249.557 205.653,252.96 211.442,254.391C213.467,254.891 213.072,254.422 215.222,253.794L225.361,244.163C282.085,206.347 355.014,205.529 421.081,210.403C459.197,213.215 497.685,218.683 534.236,230.185C545.873,233.847 557.491,238.027 568.425,243.476C572.294,245.404 582.82,253.88 587.164,254.363C591.835,254.882 593.044,253.288 595.968,250.676C598.159,248.719 600.366,244.697 603.366,239.498C603.752,238.829 604.021,246.348 599.56,253.419C598.604,254.933 610.334,256.219 612.26,257.211C616.261,259.27 614.644,267.261 623.272,268.27C630.961,269.168 639.969,267.016 642.632,274.063C643.16,275.46 639.003,287.335 639.003,287.335C639.003,287.335 639.313,278.928 632.224,278.122C626.799,277.506 628.026,279.313 627.244,279.526C626.681,279.68 626.106,284.151 625.419,284.976C623.077,287.79 619.173,288.748 617.096,291.808C614.213,296.055 618.704,299.166 622.805,298.586C625.058,298.268 627.564,297.61 629.625,296.637C629.841,296.535 633.298,294.715 633.278,295.32C633.106,300.362 624.346,304.952 620.258,305.615C619.528,305.734 611.592,305.901 611.601,305.963C612.244,310.581 617.365,313.804 620.375,316.742C625.242,321.491 629.05,329.28 627.328,336.264C626.93,337.879 623.207,333.156 622.539,332.649C618.976,329.946 615.16,328.927 610.857,328.114C610.403,328.028 608.204,327.026 607.869,327.157C607.778,327.192 608.312,329.477 608.338,329.64C608.518,330.78 609.596,338.12 608.22,338.655C607.743,338.84 606.482,336.709 606.257,336.414C604.393,333.971 602.713,331.407 601.511,328.572C601.428,328.377 600.241,325.182 600.22,325.19C599.824,325.344 599.72,330.006 599.609,330.536C598.609,335.349 595.569,339.515 592.242,343.015C591.733,343.55 589.478,346.383 588.58,346.101C588.139,345.963 589.19,343.73 589.275,343.49C590.218,340.838 591.069,338.221 591.618,335.454C592.446,331.28 593.176,326.677 592.49,322.433C592.137,320.252 591.033,315.968 591.033,315.968C591.033,315.968 591.323,318.562 590.986,319.792C590.205,322.643 588.944,325.735 585.965,326.848C581.874,328.379 577.213,326.142 572.9,326.786C572.013,326.918 569.523,329.422 569.587,330.203C569.756,332.261 569.486,334.375 569.124,336.397C567.773,343.956 565.117,351.146 564.103,358.737C563.612,362.412 562.697,365.985 561.798,369.577C561.709,369.933 561.132,373.079 560.578,372.952C558.675,372.516 557.412,363.065 557.138,361.362C557.095,361.095 556.891,357.974 556.53,357.94C553.408,357.65 546.382,365.413 542.822,362.799C542.251,362.38 544.07,362.13 544.678,361.768C545.819,361.088 546.941,360.373 548.064,359.664C551.416,357.549 554.97,353.796 555.359,349.618C555.625,346.761 552.644,344.423 550.912,342.546C546.436,337.695 542.277,333.285 545.531,326.37C547.813,321.521 551.787,318.375 556.361,315.83C558.247,314.781 562.988,313.209 563.566,310.737C565.009,304.568 555.582,296.506 553.355,291.385C551.731,287.648 552.1,283.186 550.042,279.652C549.201,278.21 545.197,272.827 543.288,272.921C542.804,272.945 542.482,275.022 542.373,275.347C541.477,278.025 540.128,280.461 538.532,282.781C536.834,285.249 534.821,287.415 532.717,289.537C532.365,289.891 530.467,291.262 530.658,291.867C530.94,292.761 536.119,292.95 536.932,293.12C541.314,294.032 546.983,296.111 548.854,300.61C551.935,308.019 540.051,306.015 539.305,310.209C538.871,312.653 545.086,314.37 543.83,317.546C542.993,319.664 538.261,320.928 536.54,322.23C532.57,325.235 529.856,329.655 528.114,334.26C527.14,336.836 526.54,339.755 526.893,342.514C526.935,342.838 528.084,346.413 528.051,346.44C527.862,346.597 524.767,343.993 524.528,343.817C521.233,341.389 516.68,338.19 516.729,333.613C516.776,329.258 521.493,326.162 524.104,323.266C525.507,321.71 529.288,315.391 526.871,313.324C525.736,312.353 522.086,312.841 520.573,312.429C516.825,311.409 513.251,309.417 510.301,306.904C508.488,305.36 506.662,303.593 505.635,301.406C505.365,300.831 504.79,297.311 504.013,297.385C502.687,297.512 500.793,299.472 499.766,300.222C498.496,301.149 494.724,302.703 494.127,304.195C493.565,305.598 496.593,309.086 497.222,310.195C499.544,314.288 502.351,319.65 500.894,324.493C498.111,333.746 484.742,334.284 477.692,338.472C474.132,340.588 471.658,343.712 469.598,347.26C469.343,347.701 468.054,351.439 467.49,351.449C466.911,351.459 466.763,348.095 466.741,347.777C466.447,343.608 467.424,340.126 469.792,336.657C472.519,332.663 477.195,329.267 481.436,326.995C483.759,325.75 487.697,324.968 488.705,322.206C489.255,320.7 489.798,316.097 488.16,315.013C486.88,314.166 483.593,315.73 482.046,315.566C476.462,314.973 467.968,311.519 465.509,306.144C462.719,300.047 463.797,291.758 465.563,285.534C466.157,283.438 466.997,281.39 468.06,279.488C468.563,278.588 470.652,277.1 469.655,276.837C468.712,276.588 463.937,280.666 462.823,281.131C458.377,282.99 453.377,282.409 449.332,285.311C446.134,287.606 445.874,292.005 442.098,294.045C437.11,296.739 437.007,292.481 433.677,291.409C431.678,290.765 425.627,296.663 424.685,298.343C424.623,298.454 428.546,300.418 428.864,300.666C432.182,303.26 433.734,306.208 430.697,309.729C424.189,317.275 415.598,323.212 408.182,329.814C405.865,331.878 400.746,335.675 400.509,339.166C400.382,341.041 405.188,339.666 406.004,339.513C409.564,338.845 420.206,336.238 422.544,340.722C423.831,343.19 420.996,347.109 419.694,349.01C418.304,351.039 416.775,353.027 415.245,355.03C415.635,354.549 414.781,356.184 414.462,356.714C413.804,357.81 413.106,358.892 412.358,359.929C410.202,362.915 407.615,365.729 406.899,369.445C404.289,382.979 401.607,387.542 388.895,395.535C385.062,397.945 378.425,401.371 374.541,397.073C373.889,396.352 371.577,390.251 373.548,389.881C375.318,389.549 375.806,392.922 377.481,393.584C382.049,395.39 385.693,390.865 388.381,387.899C391.876,384.042 398.094,378.228 397.434,372.442C397.118,369.675 392.783,365.895 393.593,363.311C394.82,359.4 402.61,353.171 402.271,349.521C402.18,348.532 395.046,351.136 394.475,351.334C390.608,352.675 368.035,362.581 368.998,352.223C370.105,340.331 383.398,327.627 390.53,318.821C391.874,317.161 402.337,306.868 401.448,306.437C401.448,306.437 387.66,305.507 374.057,301.221C369.729,299.857 368.018,295.371 368.018,295.371C368.017,295.37 362.279,300.003 361.673,300.387C357.051,303.318 351.735,305.374 346.323,306.197C333.773,308.107 332.045,303.507 322.767,312.495C322.174,313.069 316.697,317.972 317.114,318.807C318.199,320.976 330.571,320.178 330.571,325.091C330.571,325.438 326.104,327.177 325.808,327.343C320.836,330.14 315.831,332.88 311.147,336.152C306.47,339.418 302.18,343.487 298.35,347.7C297.871,348.227 295.175,352.305 294.505,352.305C294.394,352.305 294.398,352.038 294.39,351.975C293.896,347.773 294.94,342.767 297.174,339.193C303.532,329.019 310.677,331.629 314.934,327.372C315.002,327.304 311.763,325.218 311.577,325.062C309.742,323.533 303.335,318.932 304.433,316.096C306.394,311.029 309.93,305.673 313.944,301.994C315.489,300.577 320.815,298.424 321.504,296.585C321.663,296.163 318.804,292.739 318.506,292.124C317.85,290.77 318.748,287.791 317.244,287.791C311.862,287.791 305.713,299.978 301.162,302.396C295.635,305.331 289.962,298.204 289.125,298.623C287.031,299.67 285.311,304.364 284.047,306.197C282.067,309.069 279.623,311.508 277.003,313.801C275.725,314.919 271.713,315.641 272.915,316.842C274.768,318.695 286.746,318.67 285.711,323.498C284.931,327.138 272.405,335.572 269.472,340.412C265.036,347.732 281.753,359.142 267.162,363.351C261.535,364.975 269.879,359.702 267.004,354.615C263.649,348.679 252.912,353.647 255.47,345.032C257.118,339.479 259.388,333.855 262.93,329.222C263.362,328.657 267.31,324.86 267.09,324.201C266.595,322.716 264.215,325.445 262.743,325.98C259.889,327.018 256.841,327.391 253.834,327.774C246.352,328.725 240.655,326.227 240.655,326.227C240.655,326.227 241.094,330.878 241.418,333.85C242.206,341.08 241.934,348.141 242.362,355.416C242.394,355.961 242.046,369.12 241.998,369.099C236.562,366.752 234.279,354.849 233.408,351.518C231.779,345.288 229.61,326.944 226.018,322.394C224.366,320.301 220.829,320.61 218.888,318.736C218.111,317.985 215.737,313.111 215.553,313.088C214.683,312.979 212.191,316.654 211.686,317.301C207.289,322.938 200.223,333.604 206.207,338.69C222.432,352.482 218.572,354.285 218.572,354.285C218.572,354.285 213.181,349.989 211.026,348.963C206.397,346.758 200.593,347.945 196.207,345.218C194.142,343.935 193.608,339.507 192.29,338.849C191.568,338.487 189.811,344.651 188.862,346.337C180.521,361.158 170.443,352.672 170.443,352.672C170.443,352.672 182.714,352.454 181.875,339.853C181.456,333.552 176.126,330.091 175.42,324.173C174.778,318.801 181.936,313.189 181.936,313.189C181.936,313.189 178.65,308.704 177.901,306.054C176.845,302.316 177.534,299.002 179.164,295.538C179.913,293.946 181.818,290.976 181.818,290.976C181.818,290.976 177.467,293.266 175.133,293.114C170.758,292.828 168.055,290.068 164.947,287.361C163.813,286.373 158.089,284.526 158.879,284.477C170.799,283.752 172.489,276.876 172.727,274.78Z" style="fill:none;stroke:black;stroke-width:2.1px;stroke-linecap:butt;"/>
        </g>
    </g>
</svg>
