<?xml version="1.0" encoding="UTF-8" standalone="no"?>
<!DOCTYPE svg PUBLIC "-//W3C//DTD SVG 1.1//EN" "http://www.w3.org/Graphics/SVG/1.1/DTD/svg11.dtd">
<svg width="100%" height="100%" viewBox="0 0 800 800" version="1.1" xmlns="http://www.w3.org/2000/svg" xmlns:xlink="http://www.w3.org/1999/xlink" xml:space="preserve" xmlns:serif="http://www.serif.com/" style="fill-rule:evenodd;clip-rule:evenodd;stroke-linecap:round;stroke-linejoin:round;stroke-miterlimit:1.5;">
    <g id="accessories-front" serif:id="accessories front">
        <g id="Kitsune-mask-V2" serif:id="Kitsune mask V2">
            <g id="main-face" serif:id="main face">
                <path d="M586.191,194.935C590.05,272.749 563.178,396.848 559.095,427.144C555.012,457.44 550.449,475.961 545.159,489.935C539.869,503.91 511.165,542.938 479.641,573.308C450.63,601.258 417.401,619.455 401.864,622.236C401.664,622.484 401.459,622.609 401.248,622.608C400.776,622.605 400.275,622.579 399.745,622.53C399.215,622.579 398.715,622.605 398.243,622.608C398.031,622.609 397.826,622.484 397.627,622.236C382.09,619.455 348.861,601.258 319.849,573.308C288.325,542.938 259.622,503.91 254.332,489.935C249.042,475.961 244.478,457.44 240.395,427.144C236.312,396.848 209.44,272.749 213.3,194.935C251.571,168.107 291.424,156.278 329.476,137.257C375.486,114.258 420.547,109.555 470.094,137.207C504.717,156.529 546.895,169.225 586.191,194.935Z" style="fill:rgb(240,244,245);"/>
                <clipPath id="_clip1">
                    <path d="M586.191,194.935C590.05,272.749 563.178,396.848 559.095,427.144C555.012,457.44 550.449,475.961 545.159,489.935C539.869,503.91 511.165,542.938 479.641,573.308C450.63,601.258 417.401,619.455 401.864,622.236C401.664,622.484 401.459,622.609 401.248,622.608C400.776,622.605 400.275,622.579 399.745,622.53C399.215,622.579 398.715,622.605 398.243,622.608C398.031,622.609 397.826,622.484 397.627,622.236C382.09,619.455 348.861,601.258 319.849,573.308C288.325,542.938 259.622,503.91 254.332,489.935C249.042,475.961 244.478,457.44 240.395,427.144C236.312,396.848 209.44,272.749 213.3,194.935C251.571,168.107 291.424,156.278 329.476,137.257C375.486,114.258 420.547,109.555 470.094,137.207C504.717,156.529 546.895,169.225 586.191,194.935Z"/>
                </clipPath>
                <g clip-path="url(#_clip1)">
                    <g id="mask-pattern" serif:id="mask pattern">
                        <path d="M421.77,174.29C421.145,174.554 420.289,174.372 420.188,173.34C420.126,172.717 421.027,166.831 421.549,165.027C423.127,159.575 425.4,156.999 429.037,152.789C429.693,152.029 434.757,147.729 434.757,147.729C434.757,147.729 434.732,155.752 434.395,157.765C433.03,165.912 429.721,170.943 421.77,174.29Z" style="fill:rgb(252,175,61);stroke:black;stroke-width:2.1px;"/>
                        <path d="M432.704,196.405C431.991,195.863 432.82,193.237 433.037,192.618C434.281,189.065 437.409,186.87 440.179,184.534C440.842,183.974 444.317,181.584 444.317,181.584C444.317,181.584 444.587,186.502 444.244,188.964C443.807,192.104 443.079,194.88 439.849,196.327C438.611,196.881 437.837,197.15 436.513,197.287C436.513,197.287 433.967,197.365 432.704,196.405Z" style="fill:rgb(247,88,40);stroke:black;stroke-width:2.1px;"/>
                        <path d="M442.611,243.186C442.343,243.217 443.084,240.312 443.336,239.424C444.435,235.56 445.405,231.627 446.927,227.901C448.242,224.685 449.908,221.489 452.27,218.909C456.932,213.819 463.773,210.575 469.495,206.832C471.703,205.387 478.207,201.498 478.207,201.498C478.207,201.498 475.992,206.224 475.425,207.223C473.097,211.326 472.013,213.953 469.846,218.139C467.528,222.615 464.978,226.487 461.059,229.741C455.909,234.017 449.637,238.797 445.221,241.788C445.221,241.788 443.052,243.136 442.611,243.186Z" style="fill:rgb(255,58,145);stroke:black;stroke-width:2.1px;"/>
                        <path d="M413.792,311.8C413.761,311.774 416.336,307.246 417.042,305.601C419.882,298.984 422.492,292.007 425.914,285.501C429.736,278.231 433.247,272.263 441.551,266.492C450.973,259.945 462.807,256.356 472.881,250.996C477.286,248.652 490.014,241.794 490.014,241.794C490.014,241.794 486.314,246.498 485.116,248.162C479.864,255.458 474.861,262.82 470.408,270.642C465.574,279.134 459.698,284.915 451.679,290.46C441.099,297.775 429.881,303.297 418.634,309.405L413.792,311.8Z" style="fill:rgb(152,62,185);stroke:black;stroke-width:2.1px;"/>
                        <path d="M587.841,234.808C588.089,234.937 581.372,242.298 581.089,242.62C575.495,248.977 567.074,252.878 559.63,256.532C532.434,269.878 501.62,276.846 476.447,294.129C470.767,298.028 465.277,302.175 460.394,307.058C459.827,307.625 455.873,311.009 456.171,311.902C456.27,312.2 460.581,309.325 460.827,309.163C463.682,307.29 466.595,305.502 469.562,303.81C478.521,298.698 488.113,294.735 498.043,291.963C528.689,283.407 562.337,281.27 586.211,257.396L587.841,234.808Z" style="fill:rgb(152,62,184);stroke:black;stroke-width:2.1px;"/>
                        <path d="M496.414,392.747C496.479,392.194 499.466,391.445 500.789,391.121C504.114,390.305 506.283,389.787 509.564,388.816C523.394,384.726 532.277,381.852 543.426,371.676C553.276,362.686 560.155,349.759 560.155,349.759C560.155,349.759 556.77,363.785 554.664,368.03C551.199,375.017 546.831,381.564 540.502,386.286C529.949,394.161 516.249,395.311 502.368,394.514C502.368,394.514 496.241,394.216 496.414,392.747Z" style="fill:rgb(255,58,145);stroke:black;stroke-width:2.1px;"/>
                        <path d="M562.739,423.344C563.149,423.305 555.044,429.026 552.757,429.92C545.911,432.597 538.967,435.365 531.653,435.79C520.592,436.433 511.593,436.597 499.149,431.247C495.036,429.479 482.781,423.178 482.781,423.178C482.781,423.178 488.673,435.136 497.691,441.279C511.983,451.016 522.289,455.49 544.01,454.152C548.291,453.888 554.743,453.168 558.565,450.928L562.739,423.344Z" style="fill:rgb(255,58,145);stroke:black;stroke-width:2.1px;"/>
                        <g transform="matrix(-1,0,0,1,800.026,0)">
                            <path d="M421.77,174.29C421.145,174.554 420.289,174.372 420.188,173.34C420.126,172.717 421.027,166.831 421.549,165.027C423.127,159.575 425.4,156.999 429.037,152.789C429.693,152.029 434.757,147.729 434.757,147.729C434.757,147.729 434.732,155.752 434.395,157.765C433.03,165.912 429.721,170.943 421.77,174.29Z" style="fill:rgb(252,175,61);stroke:black;stroke-width:2.1px;"/>
                        </g>
                        <g transform="matrix(-1,0,0,1,800.026,0)">
                            <path d="M432.704,196.405C431.991,195.863 432.82,193.237 433.037,192.618C434.281,189.065 437.409,186.87 440.179,184.534C440.842,183.974 444.317,181.584 444.317,181.584C444.317,181.584 444.587,186.502 444.244,188.964C443.807,192.104 443.079,194.88 439.849,196.327C438.611,196.881 437.837,197.15 436.513,197.287C436.513,197.287 433.967,197.365 432.704,196.405Z" style="fill:rgb(247,88,40);stroke:black;stroke-width:2.1px;"/>
                        </g>
                        <g transform="matrix(-1,0,0,1,800.026,0)">
                            <path d="M442.611,243.186C442.343,243.217 443.084,240.312 443.336,239.424C444.435,235.56 445.405,231.627 446.927,227.901C448.242,224.685 449.908,221.489 452.27,218.909C456.932,213.819 463.773,210.575 469.495,206.832C471.703,205.387 478.207,201.498 478.207,201.498C478.207,201.498 475.992,206.224 475.425,207.223C473.097,211.326 472.013,213.953 469.846,218.139C467.528,222.615 464.978,226.487 461.059,229.741C455.909,234.017 449.637,238.797 445.221,241.788C445.221,241.788 443.052,243.136 442.611,243.186Z" style="fill:rgb(255,58,145);stroke:black;stroke-width:2.1px;"/>
                        </g>
                        <g transform="matrix(-1,0,0,1,800.026,0)">
                            <path d="M413.792,311.8C413.761,311.774 416.336,307.246 417.042,305.601C419.882,298.984 422.492,292.007 425.914,285.501C429.736,278.231 433.247,272.263 441.551,266.492C450.973,259.945 462.807,256.356 472.881,250.996C477.286,248.652 490.014,241.794 490.014,241.794C490.014,241.794 486.314,246.498 485.116,248.162C479.864,255.458 474.861,262.82 470.408,270.642C465.574,279.134 459.698,284.915 451.679,290.46C441.099,297.775 429.881,303.297 418.634,309.405L413.792,311.8Z" style="fill:rgb(152,62,185);stroke:black;stroke-width:2.1px;"/>
                        </g>
                        <g transform="matrix(-1,0,0,1,800.026,0)">
                            <path d="M587.841,234.808C588.089,234.937 581.372,242.298 581.089,242.62C575.495,248.977 567.074,252.878 559.63,256.532C532.434,269.878 501.62,276.846 476.447,294.129C470.767,298.028 465.277,302.175 460.394,307.058C459.827,307.625 455.873,311.009 456.171,311.902C456.27,312.2 460.581,309.325 460.827,309.163C463.682,307.29 466.595,305.502 469.562,303.81C478.521,298.698 488.113,294.735 498.043,291.963C528.689,283.407 562.337,281.27 586.211,257.396L587.841,234.808Z" style="fill:rgb(152,62,184);stroke:black;stroke-width:2.1px;"/>
                        </g>
                        <g transform="matrix(-1,0,0,1,800.026,0)">
                            <path d="M496.414,392.747C496.479,392.194 499.466,391.445 500.789,391.121C504.114,390.305 506.283,389.787 509.564,388.816C523.394,384.726 532.277,381.852 543.426,371.676C553.276,362.686 560.155,349.759 560.155,349.759C560.155,349.759 556.77,363.785 554.664,368.03C551.199,375.017 546.831,381.564 540.502,386.286C529.949,394.161 516.249,395.311 502.368,394.514C502.368,394.514 496.241,394.216 496.414,392.747Z" style="fill:rgb(255,58,145);stroke:black;stroke-width:2.1px;"/>
                        </g>
                        <g transform="matrix(-1,0,0,1,800.026,0)">
                            <path d="M562.739,423.344C563.149,423.305 555.044,429.026 552.757,429.92C545.911,432.597 538.967,435.365 531.653,435.79C520.592,436.433 511.593,436.597 499.149,431.247C495.036,429.479 482.781,423.178 482.781,423.178C482.781,423.178 488.673,435.136 497.691,441.279C511.983,451.016 522.289,455.49 544.01,454.152C548.291,453.888 554.743,453.168 558.565,450.928L562.739,423.344Z" style="fill:rgb(255,58,145);stroke:black;stroke-width:2.1px;"/>
                        </g>
                        <path d="M400.034,128.625C400.112,128.452 402.353,134.282 403.313,136.594C405.233,141.218 407.645,145.984 406.36,151.165C405.419,154.965 400.138,161.238 400.034,161.107C399.93,161.238 394.649,154.965 393.707,151.165C392.423,145.984 394.834,141.218 396.754,136.594C397.714,134.282 399.955,128.452 400.034,128.625Z" style="fill:rgb(42,170,225);stroke:black;stroke-width:2.1px;"/>
                        <g transform="matrix(2.17354e-17,0.310124,-0.310124,2.17354e-17,427.447,171.11)">
                            <g id="logo">
                                <g id="Layer-1" serif:id="Layer 1">
                                    <g transform="matrix(123.281,124.296,124.296,-123.281,231.127,7.89108)">
                                        <path d="M0.131,0.196C0.05,0.115 -0.036,-0.002 -0.043,-0.205C-0.046,-0.29 -0.043,-0.396 -0.036,-0.459C-0.036,-0.459 0.064,-0.476 0.17,-0.482C0.162,-0.421 0.14,-0.318 0.157,-0.219C0.183,-0.07 0.26,0.007 0.291,0.038C0.407,0.155 0.594,0.179 0.715,0.058C0.835,-0.061 0.821,-0.26 0.663,-0.382C0.658,-0.388 0.618,-0.421 0.521,-0.476C0.571,-0.458 0.789,-0.358 0.824,-0.323C1.036,-0.109 0.93,0.08 0.922,0.093C0.901,0.126 0.876,0.158 0.847,0.187C0.645,0.386 0.324,0.391 0.131,0.196Z" style="fill:url(#_Linear2);fill-rule:nonzero;stroke:black;stroke-width:0.04px;stroke-linecap:butt;stroke-miterlimit:2;"/>
                                    </g>
                                    <g transform="matrix(-123.281,-124.295,-124.295,123.281,127.542,171.94)">
                                        <path d="M0.816,-0.063C0.79,-0.007 0.751,0.041 0.722,0.07C0.503,0.284 0.264,0.146 0.179,0.069C0.094,-0.008 0.059,-0.153 0.056,-0.247C0.053,-0.332 0.05,-0.37 0.042,-0.426C0.042,-0.426 0.12,-0.432 0.226,-0.438C0.202,-0.258 0.233,-0.148 0.284,-0.096C0.348,-0.03 0.465,0.026 0.587,-0.085C0.7,-0.189 0.618,-0.331 0.584,-0.365C0.527,-0.424 0.509,-0.433 0.406,-0.458C0.532,-0.451 0.601,-0.4 0.601,-0.4C0.601,-0.4 0.687,-0.34 0.725,-0.303C0.8,-0.23 0.837,-0.11 0.816,-0.063Z" style="fill:url(#_Linear3);fill-rule:nonzero;stroke:black;stroke-width:0.04px;stroke-linecap:butt;stroke-miterlimit:2;"/>
                                    </g>
                                    <g transform="matrix(1,0,0,1,2.7,110.5)">
                                        <path d="M132.41,-44.183L124.6,-50.8C118.8,-56.4 104.754,-64.829 77.754,-65.629C29.554,-66.829 28.401,-30.157 27.101,-25.657C28.969,-61.407 53.457,-90.131 94.257,-90.331C127.557,-90.331 146.48,-75.725 171.38,-46.225C171.38,-46.225 182.702,-29.719 195.002,-15.819C195.002,-15.819 216.113,8.201 226.368,14.896C241.869,25.016 262.7,37.6 289.7,38.4C339.2,39.8 352.9,2.8 353.6,-0C344.5,39.5 313.426,68.625 272.426,68.825C243.465,68.966 210.112,55.878 188.547,30.098C180.345,20.294 163.399,-3.113 152.031,-19.943C152.131,-19.943 147.31,-29.683 132.41,-44.183Z" style="fill:rgb(41,171,226);stroke:black;stroke-width:6.45px;stroke-linecap:butt;stroke-miterlimit:2;"/>
                                    </g>
                                </g>
                            </g>
                        </g>
                    </g>
                    <path d="M399.913,102.796L415.21,58.646L540.087,2.485L622.227,50.093C622.227,50.093 597.791,372.39 598.999,377.791C600.207,383.193 597.984,449.099 597.984,449.099L559.346,547.872C559.346,547.872 349.763,675.8 435.769,605.97C521.774,536.14 537.398,490.954 543.885,468.136C550.372,445.317 566.793,347.417 572.252,308.904C577.71,270.391 578.051,237.028 578.887,214.043C575.971,120.697 553.659,67.535 541.656,51.743C529.652,35.951 513.944,60.343 499.04,82.038C484.136,103.732 478.294,130.079 470.752,144.571C437.814,127.348 410.401,124.881 399.913,124.631C389.424,124.881 362.011,127.348 329.073,144.571C321.531,130.079 315.689,103.732 300.785,82.038C285.881,60.343 270.173,35.951 258.169,51.743C246.166,67.535 223.854,120.697 220.938,214.043C221.774,237.028 222.115,270.391 227.573,308.904C233.032,347.417 249.453,445.317 255.94,468.136C262.427,490.954 278.051,536.14 364.056,605.97C450.062,675.8 240.479,547.872 240.479,547.872L201.841,449.099C201.841,449.099 199.618,383.193 200.826,377.791C202.034,372.39 177.598,50.093 177.598,50.093L259.738,2.485L384.615,58.646L399.913,102.796Z" style="fill:rgb(252,255,216);fill-opacity:0.6;"/>
                    <path id="chin" d="M368.133,588.997C368.133,588.997 387.545,602.843 399.675,602.234C411.805,601.625 423.782,595.167 432.152,588.845" style="fill:none;stroke:black;stroke-width:2.1px;"/>
                    <g id="mouth">
                        <path d="M345.283,528.801C345.283,528.801 355.202,531.336 364.229,525.767C373.256,520.197 382.708,512.284 389.15,509.227C395.592,506.17 404.88,505.165 414.915,511.205C424.951,517.244 435.741,530.221 450.155,529.152C442.459,525.573 432.543,517.209 423.414,511.701C414.284,506.192 406.121,502.026 401.505,502.138C396.889,502.25 387.725,503.833 380.871,508.551C374.017,513.269 363.12,523.713 357.043,525.939C350.965,528.165 345.283,528.801 345.283,528.801Z" style="fill:rgb(56,25,57);fill-opacity:0.5;"/>
                        <path d="M323.748,508.413C323.748,508.413 331.367,531.723 348.868,528.446C366.369,525.17 371.092,513.88 380.511,508.333C389.931,502.786 400.401,501.743 400.401,501.743C400.401,501.743 413.119,502.65 426.507,514.101C439.895,525.551 450.71,531.882 458.228,528.442C465.746,525.002 472.28,521.119 476.311,508.219" style="fill:none;stroke:black;stroke-width:2.1px;"/>
                        <path d="M400.135,479.683L400.032,501.675" style="fill:none;stroke:black;stroke-width:2.1px;"/>
                    </g>
                    <g id="nose">
                        <path d="M374.259,461.408C374.259,461.408 400.903,450.405 426.042,462.111C419.334,470.559 408.33,480.759 399.701,480.588C386.462,480.326 374.067,461.292 374.259,461.408Z"/>
                        <path d="M405.281,475.916C405.501,475.792 405.756,475.272 405.927,475.077C406.501,474.416 407.102,473.763 407.761,473.186C409.693,471.494 411.91,470.131 414.214,469.009C415.021,468.617 415.832,468.247 416.692,467.987C416.903,467.923 417.333,467.72 417.555,467.845C417.789,467.977 417.361,468.528 417.278,468.642C416.751,469.365 416.071,469.966 415.359,470.5C412.498,472.646 409.306,474.751 405.88,475.848" style="fill:rgb(255,24,116);"/>
                        <g transform="matrix(-1,0,0,1,799.873,0)">
                            <path d="M405.281,475.916C405.501,475.792 405.756,475.272 405.927,475.077C406.501,474.416 407.102,473.763 407.761,473.186C409.693,471.494 411.91,470.131 414.214,469.009C415.021,468.617 415.832,468.247 416.692,467.987C416.903,467.923 417.333,467.72 417.555,467.845C417.789,467.977 417.361,468.528 417.278,468.642C416.751,469.365 416.071,469.966 415.359,470.5C412.498,472.646 409.306,474.751 405.88,475.848" style="fill:rgb(255,24,116);"/>
                        </g>
                        <path d="M424.058,392.717C424.058,392.717 422.319,404.452 422.081,407.841C421.352,418.182 422.629,428.697 425.017,438.781" style="fill:none;stroke:black;stroke-width:2.1px;"/>
                        <g transform="matrix(-1,0,0,1,800.026,0)">
                            <path d="M424.058,392.717C424.058,392.717 422.319,404.452 422.081,407.841C421.352,418.182 422.629,428.697 425.017,438.781" style="fill:none;stroke:black;stroke-width:2.1px;"/>
                        </g>
                    </g>
                    <g id="eyes">
                        <g>
                            <path d="M425.192,375.908C425.192,375.908 429.227,351.597 443.413,336.977C457.6,322.358 473.715,315.877 488.009,311.977C502.303,308.078 527.907,303.964 535.749,301.054C543.591,298.144 554.262,294.108 556.377,293.642C558.491,293.177 556.586,302.548 551.485,317.575C546.384,332.602 529.382,363.801 509.633,369.156C489.885,374.511 465.769,371.911 457.959,371.504C450.149,371.096 440.267,369.059 436.826,370.388C433.386,371.717 425.192,375.908 425.192,375.908Z" style="fill:rgb(254,25,116);stroke:black;stroke-width:2.1px;"/>
                            <path d="M434.177,362.868C434.177,362.868 450.456,343.382 457.868,338.096C457.868,338.096 471.464,329.163 499.224,321.718C526.984,314.272 538.698,310.44 541.591,308.921C544.484,307.402 542.488,310.772 540.18,315.439C537.873,320.105 528.374,339.785 523.272,346.214C518.169,352.643 506.134,365.322 481.623,363.779C457.113,362.236 448.491,362.382 445.077,362.884C441.978,363.339 440.101,363.709 438.362,364.072C436.683,364.422 433.407,364.836 434.177,362.868Z"/>
                            <g transform="matrix(1,0,0,1,-2.22603,0.366711)">
                                <circle cx="482.427" cy="343.753" r="8.456" style="fill:rgb(240,244,245);"/>
                            </g>
                            <g transform="matrix(1,0,0,1,-2.22603,0.366711)">
                                <circle cx="482.427" cy="343.753" r="8.456" style="fill:rgb(240,244,245);"/>
                            </g>
                        </g>
                        <g transform="matrix(-1,0,0,1,799.407,0)">
                            <g>
                                <path d="M425.192,375.908C425.192,375.908 429.227,351.597 443.413,336.977C457.6,322.358 473.715,315.877 488.009,311.977C502.303,308.078 527.907,303.964 535.749,301.054C543.591,298.144 554.262,294.108 556.377,293.642C558.491,293.177 556.586,302.548 551.485,317.575C546.384,332.602 529.382,363.801 509.633,369.156C489.885,374.511 465.769,371.911 457.959,371.504C450.149,371.096 440.267,369.059 436.826,370.388C433.386,371.717 425.192,375.908 425.192,375.908Z" style="fill:rgb(254,25,116);stroke:black;stroke-width:2.1px;"/>
                                <path d="M434.177,362.868C434.177,362.868 450.456,343.382 457.868,338.096C457.868,338.096 471.464,329.163 499.224,321.718C526.984,314.272 538.698,310.44 541.591,308.921C544.484,307.402 542.488,310.772 540.18,315.439C537.873,320.105 528.374,339.785 523.272,346.214C518.169,352.643 506.134,365.322 481.623,363.779C457.113,362.236 448.491,362.382 445.077,362.884C441.978,363.339 440.101,363.709 438.362,364.072C436.683,364.422 433.407,364.836 434.177,362.868Z"/>
                                <g transform="matrix(1,0,0,1,-2.22603,0.366711)">
                                    <circle cx="482.427" cy="343.753" r="8.456" style="fill:rgb(240,244,245);"/>
                                </g>
                            </g>
                            <g transform="matrix(1,0,0,1,-2.22603,0.366711)">
                                <circle cx="482.427" cy="343.753" r="8.456" style="fill:rgb(240,244,245);"/>
                            </g>
                        </g>
                    </g>
                </g>
                <path d="M586.191,194.935C590.05,272.749 563.178,396.848 559.095,427.144C555.012,457.44 550.449,475.961 545.159,489.935C539.869,503.91 511.165,542.938 479.641,573.308C450.63,601.258 417.401,619.455 401.864,622.236C401.664,622.484 401.459,622.609 401.248,622.608C400.776,622.605 400.275,622.579 399.745,622.53C399.215,622.579 398.715,622.605 398.243,622.608C398.031,622.609 397.826,622.484 397.627,622.236C382.09,619.455 348.861,601.258 319.849,573.308C288.325,542.938 259.622,503.91 254.332,489.935C249.042,475.961 244.478,457.44 240.395,427.144C236.312,396.848 209.44,272.749 213.3,194.935C254.113,164.308 298.494,152.671 335.832,135.037C382.643,112.928 419.962,113.179 466.738,135.568C503.969,153.387 545.667,170.97 586.191,194.935Z" style="fill:none;stroke:black;stroke-width:2.1px;"/>
            </g>
            <g id="ears">
                <path d="M213.3,194.935C217.159,117.12 245.666,51.239 254.667,44.178C263.669,37.116 270.014,37.283 286.714,56.667C303.415,76.051 321.383,116.267 329.11,138.036C358.703,118.14 389.985,117.159 399.745,117.399C409.505,117.159 440.787,118.14 470.381,138.036C478.107,116.267 496.076,76.051 512.776,56.667C529.476,37.283 535.822,37.116 544.823,44.178C553.825,51.239 582.332,117.12 586.191,194.935" style="fill:rgb(240,244,245);"/>
                <clipPath id="_clip4">
                    <path d="M213.3,194.935C217.159,117.12 245.666,51.239 254.667,44.178C263.669,37.116 270.014,37.283 286.714,56.667C303.415,76.051 321.383,116.267 329.11,138.036C358.703,118.14 389.985,117.159 399.745,117.399C409.505,117.159 440.787,118.14 470.381,138.036C478.107,116.267 496.076,76.051 512.776,56.667C529.476,37.283 535.822,37.116 544.823,44.178C553.825,51.239 582.332,117.12 586.191,194.935"/>
                </clipPath>
                <g clip-path="url(#_clip4)">
                    <path d="M399.913,102.796L415.21,58.646L540.087,2.485L622.227,50.093C622.227,50.093 597.791,372.39 598.999,377.791C600.207,383.193 597.984,449.099 597.984,449.099L559.346,547.872C559.346,547.872 349.763,675.8 435.769,605.97C521.774,536.14 537.398,490.954 543.885,468.136C550.372,445.317 566.793,347.417 572.252,308.904C577.71,270.391 578.051,237.028 578.887,214.043C575.971,120.697 553.659,67.535 541.656,51.743C529.652,35.951 513.944,60.343 499.04,82.038C484.136,103.732 478.294,130.079 470.752,144.571C437.814,127.348 410.401,124.881 399.913,124.631C389.424,124.881 362.011,127.348 329.073,144.571C321.531,130.079 315.689,103.732 300.785,82.038C285.881,60.343 270.173,35.951 258.169,51.743C246.166,67.535 223.854,120.697 220.938,214.043C221.774,237.028 222.115,270.391 227.573,308.904C233.032,347.417 249.453,445.317 255.94,468.136C262.427,490.954 278.051,536.14 364.056,605.97C450.062,675.8 240.479,547.872 240.479,547.872L201.841,449.099C201.841,449.099 199.618,383.193 200.826,377.791C202.034,372.39 177.598,50.093 177.598,50.093L259.738,2.485L384.615,58.646L399.913,102.796Z" style="fill:rgb(252,255,216);fill-opacity:0.6;"/>
                    <g id="mask-pattern1" serif:id="mask pattern">
                        <path d="M421.77,174.29C421.145,174.554 420.289,174.372 420.188,173.34C420.126,172.717 421.027,166.831 421.549,165.027C423.127,159.575 425.4,156.999 429.037,152.789C429.693,152.029 434.757,147.729 434.757,147.729C434.757,147.729 434.732,155.752 434.395,157.765C433.03,165.912 429.721,170.943 421.77,174.29Z" style="fill:rgb(252,175,61);stroke:black;stroke-width:2.1px;"/>
                        <path d="M432.704,196.405C431.991,195.863 432.82,193.237 433.037,192.618C434.281,189.065 437.409,186.87 440.179,184.534C440.842,183.974 444.317,181.584 444.317,181.584C444.317,181.584 444.587,186.502 444.244,188.964C443.807,192.104 443.079,194.88 439.849,196.327C438.611,196.881 437.837,197.15 436.513,197.287C436.513,197.287 433.967,197.365 432.704,196.405Z" style="fill:rgb(247,88,40);stroke:black;stroke-width:2.1px;"/>
                        <path d="M442.611,243.186C442.343,243.217 443.084,240.312 443.336,239.424C444.435,235.56 445.405,231.627 446.927,227.901C448.242,224.685 449.908,221.489 452.27,218.909C456.932,213.819 463.773,210.575 469.495,206.832C471.703,205.387 478.207,201.498 478.207,201.498C478.207,201.498 475.992,206.224 475.425,207.223C473.097,211.326 472.013,213.953 469.846,218.139C467.528,222.615 464.978,226.487 461.059,229.741C455.909,234.017 449.637,238.797 445.221,241.788C445.221,241.788 443.052,243.136 442.611,243.186Z" style="fill:rgb(255,58,145);stroke:black;stroke-width:2.1px;"/>
                        <path d="M413.792,311.8C413.761,311.774 416.336,307.246 417.042,305.601C419.882,298.984 422.492,292.007 425.914,285.501C429.736,278.231 433.247,272.263 441.551,266.492C450.973,259.945 462.807,256.356 472.881,250.996C477.286,248.652 490.014,241.794 490.014,241.794C490.014,241.794 486.314,246.498 485.116,248.162C479.864,255.458 474.861,262.82 470.408,270.642C465.574,279.134 459.698,284.915 451.679,290.46C441.099,297.775 429.881,303.297 418.634,309.405L413.792,311.8Z" style="fill:rgb(152,62,185);stroke:black;stroke-width:2.1px;"/>
                        <path d="M587.841,234.808C588.089,234.937 581.372,242.298 581.089,242.62C575.495,248.977 567.074,252.878 559.63,256.532C532.434,269.878 501.62,276.846 476.447,294.129C470.767,298.028 465.277,302.175 460.394,307.058C459.827,307.625 455.873,311.009 456.171,311.902C456.27,312.2 460.581,309.325 460.827,309.163C463.682,307.29 466.595,305.502 469.562,303.81C478.521,298.698 488.113,294.735 498.043,291.963C528.689,283.407 562.337,281.27 586.211,257.396L587.841,234.808Z" style="fill:rgb(152,62,184);stroke:black;stroke-width:2.1px;"/>
                        <path d="M496.414,392.747C496.479,392.194 499.466,391.445 500.789,391.121C504.114,390.305 506.283,389.787 509.564,388.816C523.394,384.726 532.277,381.852 543.426,371.676C553.276,362.686 560.155,349.759 560.155,349.759C560.155,349.759 556.77,363.785 554.664,368.03C551.199,375.017 546.831,381.564 540.502,386.286C529.949,394.161 516.249,395.311 502.368,394.514C502.368,394.514 496.241,394.216 496.414,392.747Z" style="fill:rgb(255,58,145);stroke:black;stroke-width:2.1px;"/>
                        <path d="M562.739,423.344C563.149,423.305 555.044,429.026 552.757,429.92C545.911,432.597 538.967,435.365 531.653,435.79C520.592,436.433 511.593,436.597 499.149,431.247C495.036,429.479 482.781,423.178 482.781,423.178C482.781,423.178 488.673,435.136 497.691,441.279C511.983,451.016 522.289,455.49 544.01,454.152C548.291,453.888 554.743,453.168 558.565,450.928L562.739,423.344Z" style="fill:rgb(255,58,145);stroke:black;stroke-width:2.1px;"/>
                        <g transform="matrix(-1,0,0,1,800.026,0)">
                            <path d="M421.77,174.29C421.145,174.554 420.289,174.372 420.188,173.34C420.126,172.717 421.027,166.831 421.549,165.027C423.127,159.575 425.4,156.999 429.037,152.789C429.693,152.029 434.757,147.729 434.757,147.729C434.757,147.729 434.732,155.752 434.395,157.765C433.03,165.912 429.721,170.943 421.77,174.29Z" style="fill:rgb(252,175,61);stroke:black;stroke-width:2.1px;"/>
                        </g>
                        <g transform="matrix(-1,0,0,1,800.026,0)">
                            <path d="M432.704,196.405C431.991,195.863 432.82,193.237 433.037,192.618C434.281,189.065 437.409,186.87 440.179,184.534C440.842,183.974 444.317,181.584 444.317,181.584C444.317,181.584 444.587,186.502 444.244,188.964C443.807,192.104 443.079,194.88 439.849,196.327C438.611,196.881 437.837,197.15 436.513,197.287C436.513,197.287 433.967,197.365 432.704,196.405Z" style="fill:rgb(247,88,40);stroke:black;stroke-width:2.1px;"/>
                        </g>
                        <g transform="matrix(-1,0,0,1,800.026,0)">
                            <path d="M442.611,243.186C442.343,243.217 443.084,240.312 443.336,239.424C444.435,235.56 445.405,231.627 446.927,227.901C448.242,224.685 449.908,221.489 452.27,218.909C456.932,213.819 463.773,210.575 469.495,206.832C471.703,205.387 478.207,201.498 478.207,201.498C478.207,201.498 475.992,206.224 475.425,207.223C473.097,211.326 472.013,213.953 469.846,218.139C467.528,222.615 464.978,226.487 461.059,229.741C455.909,234.017 449.637,238.797 445.221,241.788C445.221,241.788 443.052,243.136 442.611,243.186Z" style="fill:rgb(255,58,145);stroke:black;stroke-width:2.1px;"/>
                        </g>
                        <g transform="matrix(-1,0,0,1,800.026,0)">
                            <path d="M413.792,311.8C413.761,311.774 416.336,307.246 417.042,305.601C419.882,298.984 422.492,292.007 425.914,285.501C429.736,278.231 433.247,272.263 441.551,266.492C450.973,259.945 462.807,256.356 472.881,250.996C477.286,248.652 490.014,241.794 490.014,241.794C490.014,241.794 486.314,246.498 485.116,248.162C479.864,255.458 474.861,262.82 470.408,270.642C465.574,279.134 459.698,284.915 451.679,290.46C441.099,297.775 429.881,303.297 418.634,309.405L413.792,311.8Z" style="fill:rgb(152,62,185);stroke:black;stroke-width:2.1px;"/>
                        </g>
                        <g transform="matrix(-1,0,0,1,800.026,0)">
                            <path d="M587.841,234.808C588.089,234.937 581.372,242.298 581.089,242.62C575.495,248.977 567.074,252.878 559.63,256.532C532.434,269.878 501.62,276.846 476.447,294.129C470.767,298.028 465.277,302.175 460.394,307.058C459.827,307.625 455.873,311.009 456.171,311.902C456.27,312.2 460.581,309.325 460.827,309.163C463.682,307.29 466.595,305.502 469.562,303.81C478.521,298.698 488.113,294.735 498.043,291.963C528.689,283.407 562.337,281.27 586.211,257.396L587.841,234.808Z" style="fill:rgb(152,62,184);stroke:black;stroke-width:2.1px;"/>
                        </g>
                        <g transform="matrix(-1,0,0,1,800.026,0)">
                            <path d="M496.414,392.747C496.479,392.194 499.466,391.445 500.789,391.121C504.114,390.305 506.283,389.787 509.564,388.816C523.394,384.726 532.277,381.852 543.426,371.676C553.276,362.686 560.155,349.759 560.155,349.759C560.155,349.759 556.77,363.785 554.664,368.03C551.199,375.017 546.831,381.564 540.502,386.286C529.949,394.161 516.249,395.311 502.368,394.514C502.368,394.514 496.241,394.216 496.414,392.747Z" style="fill:rgb(255,58,145);stroke:black;stroke-width:2.1px;"/>
                        </g>
                        <g transform="matrix(-1,0,0,1,800.026,0)">
                            <path d="M562.739,423.344C563.149,423.305 555.044,429.026 552.757,429.92C545.911,432.597 538.967,435.365 531.653,435.79C520.592,436.433 511.593,436.597 499.149,431.247C495.036,429.479 482.781,423.178 482.781,423.178C482.781,423.178 488.673,435.136 497.691,441.279C511.983,451.016 522.289,455.49 544.01,454.152C548.291,453.888 554.743,453.168 558.565,450.928L562.739,423.344Z" style="fill:rgb(255,58,145);stroke:black;stroke-width:2.1px;"/>
                        </g>
                        <path d="M400.034,128.625C400.112,128.452 402.353,134.282 403.313,136.594C405.233,141.218 407.645,145.984 406.36,151.165C405.419,154.965 400.138,161.238 400.034,161.107C399.93,161.238 394.649,154.965 393.707,151.165C392.423,145.984 394.834,141.218 396.754,136.594C397.714,134.282 399.955,128.452 400.034,128.625Z" style="fill:rgb(42,170,225);stroke:black;stroke-width:2.1px;"/>
                        <g transform="matrix(2.17354e-17,0.310124,-0.310124,2.17354e-17,427.447,171.11)">
                            <g id="logo1" serif:id="logo">
                                <g id="Layer-11" serif:id="Layer 1">
                                    <g transform="matrix(123.281,124.296,124.296,-123.281,231.127,7.89108)">
                                        <path d="M0.131,0.196C0.05,0.115 -0.036,-0.002 -0.043,-0.205C-0.046,-0.29 -0.043,-0.396 -0.036,-0.459C-0.036,-0.459 0.064,-0.476 0.17,-0.482C0.162,-0.421 0.14,-0.318 0.157,-0.219C0.183,-0.07 0.26,0.007 0.291,0.038C0.407,0.155 0.594,0.179 0.715,0.058C0.835,-0.061 0.821,-0.26 0.663,-0.382C0.658,-0.388 0.618,-0.421 0.521,-0.476C0.571,-0.458 0.789,-0.358 0.824,-0.323C1.036,-0.109 0.93,0.08 0.922,0.093C0.901,0.126 0.876,0.158 0.847,0.187C0.645,0.386 0.324,0.391 0.131,0.196Z" style="fill:url(#_Linear5);fill-rule:nonzero;stroke:black;stroke-width:0.04px;stroke-linecap:butt;stroke-miterlimit:2;"/>
                                    </g>
                                    <g transform="matrix(-123.281,-124.295,-124.295,123.281,127.542,171.94)">
                                        <path d="M0.816,-0.063C0.79,-0.007 0.751,0.041 0.722,0.07C0.503,0.284 0.264,0.146 0.179,0.069C0.094,-0.008 0.059,-0.153 0.056,-0.247C0.053,-0.332 0.05,-0.37 0.042,-0.426C0.042,-0.426 0.12,-0.432 0.226,-0.438C0.202,-0.258 0.233,-0.148 0.284,-0.096C0.348,-0.03 0.465,0.026 0.587,-0.085C0.7,-0.189 0.618,-0.331 0.584,-0.365C0.527,-0.424 0.509,-0.433 0.406,-0.458C0.532,-0.451 0.601,-0.4 0.601,-0.4C0.601,-0.4 0.687,-0.34 0.725,-0.303C0.8,-0.23 0.837,-0.11 0.816,-0.063Z" style="fill:url(#_Linear6);fill-rule:nonzero;stroke:black;stroke-width:0.04px;stroke-linecap:butt;stroke-miterlimit:2;"/>
                                    </g>
                                    <g transform="matrix(1,0,0,1,2.7,110.5)">
                                        <path d="M132.41,-44.183L124.6,-50.8C118.8,-56.4 104.754,-64.829 77.754,-65.629C29.554,-66.829 28.401,-30.157 27.101,-25.657C28.969,-61.407 53.457,-90.131 94.257,-90.331C127.557,-90.331 146.48,-75.725 171.38,-46.225C171.38,-46.225 182.702,-29.719 195.002,-15.819C195.002,-15.819 216.113,8.201 226.368,14.896C241.869,25.016 262.7,37.6 289.7,38.4C339.2,39.8 352.9,2.8 353.6,-0C344.5,39.5 313.426,68.625 272.426,68.825C243.465,68.966 210.112,55.878 188.547,30.098C180.345,20.294 163.399,-3.113 152.031,-19.943C152.131,-19.943 147.31,-29.683 132.41,-44.183Z" style="fill:rgb(41,171,226);stroke:black;stroke-width:6.45px;stroke-linecap:butt;stroke-miterlimit:2;"/>
                                    </g>
                                </g>
                            </g>
                        </g>
                    </g>
                </g>
                <g id="inner-ears" serif:id="inner ears">
                    <path d="M483.879,148.026C483.879,148.026 500.839,105.768 511.844,91.688C522.849,77.608 529.886,67.906 535.294,68.521C540.702,69.136 551.67,83.414 558.895,132.405C566.119,181.396 567.69,227.087 567.51,227.692C567.33,228.297 536.291,177.292 483.879,148.026Z" style="fill:rgb(234,153,185);"/>
                    <clipPath id="_clip7">
                        <path d="M483.879,148.026C483.879,148.026 500.839,105.768 511.844,91.688C522.849,77.608 529.886,67.906 535.294,68.521C540.702,69.136 551.67,83.414 558.895,132.405C566.119,181.396 567.69,227.087 567.51,227.692C567.33,228.297 536.291,177.292 483.879,148.026Z"/>
                    </clipPath>
                    <g clip-path="url(#_clip7)">
                        <path d="M475.811,151.333C475.317,150.997 477.471,146.111 477.632,145.698C480.125,139.318 482.821,132.996 485.648,126.758C494.012,108.303 504.936,90.673 518.762,75.803C523.484,70.724 530.465,62.684 537.766,61.416C542.447,60.603 544.885,65.696 546.555,69.177C551.338,79.15 555.292,89.458 558.408,100.07C568.325,133.842 568.099,170.264 569.103,205.209C569.345,213.649 569.417,222.067 569.208,230.508C569.153,232.7 569.957,237.704 568.558,239.568C567.313,241.229 563.569,236.816 562.937,236.145C558.081,230.987 553.845,225.246 549.391,219.747C541.187,209.621 532.179,198.989 526.664,187.049C525.509,184.551 520.151,176.79 520.608,173.865C520.752,172.943 529.819,180.018 532.141,181.716C539.794,187.312 546.218,192.117 552.817,197.819C555.385,200.037 561.18,205.01 561.18,205.01C561.18,205.01 560.855,201.165 560.356,197.621C559.188,189.34 556.269,179.366 554.583,173.992C549.134,156.623 546.114,149.061 537.487,132.998C534.747,127.897 531.408,121.996 525.941,119.154C513.253,112.555 499.684,126.582 494.639,135.722C493.581,137.637 488.39,146.26 488.39,146.26C488.39,146.26 498.728,154.413 500.709,156.129C507.643,162.132 510.243,164.489 514.954,170.959C516.314,172.827 521.371,181.839 514.549,179.035C513.904,178.77 513.271,178.473 512.651,178.152C511.669,177.645 510.709,177.092 509.76,176.526C508.177,175.581 506.632,174.576 505.088,173.57C502.229,171.706 499.373,169.837 496.533,167.944C492.066,164.966 487.779,161.814 483.462,158.631" style="fill:rgb(56,25,57);fill-opacity:0.5;"/>
                    </g>
                    <path d="M483.879,148.026C483.879,148.026 500.839,105.768 511.844,91.688C522.849,77.608 529.886,67.906 535.294,68.521C540.702,69.136 551.67,83.414 558.895,132.405C566.119,181.396 567.69,227.087 567.51,227.692C567.33,228.297 536.291,177.292 483.879,148.026Z" style="fill:none;stroke:black;stroke-width:2.1px;"/>
                    <g transform="matrix(-1,0,0,1,800.536,0)">
                        <path d="M483.879,148.026C483.879,148.026 500.839,105.768 511.844,91.688C522.849,77.608 529.886,67.906 535.294,68.521C540.702,69.136 551.67,83.414 558.895,132.405C566.119,181.396 567.69,227.087 567.51,227.692C567.33,228.297 536.291,177.292 483.879,148.026Z" style="fill:rgb(234,153,185);"/>
                        <clipPath id="_clip8">
                            <path d="M483.879,148.026C483.879,148.026 500.839,105.768 511.844,91.688C522.849,77.608 529.886,67.906 535.294,68.521C540.702,69.136 551.67,83.414 558.895,132.405C566.119,181.396 567.69,227.087 567.51,227.692C567.33,228.297 536.291,177.292 483.879,148.026Z"/>
                        </clipPath>
                        <g clip-path="url(#_clip8)">
                            <path d="M475.811,151.333C475.317,150.997 477.471,146.111 477.632,145.698C480.125,139.318 482.821,132.996 485.648,126.758C494.012,108.303 504.936,90.673 518.762,75.803C523.484,70.724 530.465,62.684 537.766,61.416C542.447,60.603 544.885,65.696 546.555,69.177C551.338,79.15 555.292,89.458 558.408,100.07C568.325,133.842 568.099,170.264 569.103,205.209C569.345,213.649 569.417,222.067 569.208,230.508C569.153,232.7 569.957,237.704 568.558,239.568C567.313,241.229 563.569,236.816 562.937,236.145C558.081,230.987 553.845,225.246 549.391,219.747C541.187,209.621 532.179,198.989 526.664,187.049C525.509,184.551 520.151,176.79 520.608,173.865C520.752,172.943 529.819,180.018 532.141,181.716C539.794,187.312 546.218,192.117 552.817,197.819C555.385,200.037 561.18,205.01 561.18,205.01C561.18,205.01 560.855,201.165 560.356,197.621C559.188,189.34 556.269,179.366 554.583,173.992C549.134,156.623 546.114,149.061 537.487,132.998C534.747,127.897 531.408,121.996 525.941,119.154C513.253,112.555 499.684,126.582 494.639,135.722C493.581,137.637 488.39,146.26 488.39,146.26C488.39,146.26 498.728,154.413 500.709,156.129C507.643,162.132 510.243,164.489 514.954,170.959C516.314,172.827 521.371,181.839 514.549,179.035C513.904,178.77 513.271,178.473 512.651,178.152C511.669,177.645 510.709,177.092 509.76,176.526C508.177,175.581 506.632,174.576 505.088,173.57C502.229,171.706 499.373,169.837 496.533,167.944C492.066,164.966 487.779,161.814 483.462,158.631" style="fill:rgb(56,25,57);fill-opacity:0.5;"/>
                        </g>
                        <path d="M483.879,148.026C483.879,148.026 500.839,105.768 511.844,91.688C522.849,77.608 529.886,67.906 535.294,68.521C540.702,69.136 551.67,83.414 558.895,132.405C566.119,181.396 567.69,227.087 567.51,227.692C567.33,228.297 536.291,177.292 483.879,148.026Z" style="fill:none;stroke:black;stroke-width:2.1px;"/>
                    </g>
                </g>
                <path d="M213.3,194.935C217.159,117.12 245.666,51.239 254.667,44.178C263.669,37.116 270.014,37.283 286.714,56.667C303.415,76.051 321.383,116.267 329.11,138.036C358.703,118.14 389.985,117.159 399.745,117.399C409.505,117.159 440.787,118.14 470.381,138.036C478.107,116.267 496.076,76.051 512.776,56.667C529.476,37.283 535.822,37.116 544.823,44.178C553.825,51.239 582.332,117.12 586.191,194.935" style="fill:none;stroke:black;stroke-width:2.1px;"/>
            </g>
        </g>
    </g>
    <defs>
        <linearGradient id="_Linear2" x1="0" y1="0" x2="1" y2="0" gradientUnits="userSpaceOnUse" gradientTransform="matrix(1,0,0,-1,0,-0.0513998)"><stop offset="0" style="stop-color:rgb(241,90,36);stop-opacity:1"/><stop offset="0.21" style="stop-color:rgb(241,90,36);stop-opacity:1"/><stop offset="0.68" style="stop-color:rgb(251,176,59);stop-opacity:1"/><stop offset="1" style="stop-color:rgb(251,176,59);stop-opacity:1"/></linearGradient>
        <linearGradient id="_Linear3" x1="0" y1="0" x2="1" y2="0" gradientUnits="userSpaceOnUse" gradientTransform="matrix(1,5.55112e-17,5.55112e-17,-1,0,-0.0515017)"><stop offset="0" style="stop-color:rgb(237,30,121);stop-opacity:1"/><stop offset="0.21" style="stop-color:rgb(237,30,121);stop-opacity:1"/><stop offset="0.89" style="stop-color:rgb(82,39,133);stop-opacity:1"/><stop offset="1" style="stop-color:rgb(82,39,133);stop-opacity:1"/></linearGradient>
        <linearGradient id="_Linear5" x1="0" y1="0" x2="1" y2="0" gradientUnits="userSpaceOnUse" gradientTransform="matrix(1,0,0,-1,0,-0.0513998)"><stop offset="0" style="stop-color:rgb(241,90,36);stop-opacity:1"/><stop offset="0.21" style="stop-color:rgb(241,90,36);stop-opacity:1"/><stop offset="0.68" style="stop-color:rgb(251,176,59);stop-opacity:1"/><stop offset="1" style="stop-color:rgb(251,176,59);stop-opacity:1"/></linearGradient>
        <linearGradient id="_Linear6" x1="0" y1="0" x2="1" y2="0" gradientUnits="userSpaceOnUse" gradientTransform="matrix(1,5.55112e-17,5.55112e-17,-1,0,-0.0515017)"><stop offset="0" style="stop-color:rgb(237,30,121);stop-opacity:1"/><stop offset="0.21" style="stop-color:rgb(237,30,121);stop-opacity:1"/><stop offset="0.89" style="stop-color:rgb(82,39,133);stop-opacity:1"/><stop offset="1" style="stop-color:rgb(82,39,133);stop-opacity:1"/></linearGradient>
    </defs>
</svg>
