<svg viewBox="0 0 800 800" xmlns="http://www.w3.org/2000/svg">
  <g id="default-tshirt-2">
    <path
      d="M403.181,747.678C426.179,714.664 516.531,676.793 542.962,642.936C558.167,623.459 564.495,595.023 557.723,571.014C554.963,561.229 549.232,552.627 543.127,544.614C542.744,544.111 536.977,537.291 537.225,537.114C540.71,534.625 622.739,571.028 631.304,574.898C686.837,599.991 793.781,665.686 794.346,666.123C807.287,676.112 814.387,681.667 814.387,681.667C831.965,713.539 858.164,795.498 835.811,829.811C812.937,864.923 -15.529,871.85 -35.205,823.694C-50.694,785.785 -40.228,718.495 -14.351,686.88C-14.351,686.88 -0.925,676.112 12.016,666.123C12.582,665.686 119.525,599.991 175.058,574.898C183.624,571.028 265.652,534.625 269.137,537.114C269.385,537.291 263.618,544.111 263.235,544.614C257.13,552.627 251.399,561.229 248.639,571.014C241.867,595.023 248.195,623.459 263.4,642.936C289.831,676.793 380.183,714.664 403.181,747.678Z"
      style="fill: var(--color_clothes, rgb(141, 110, 159))"
    />
    <clipPath id="_clip1_clothes_2">
      <path
        d="M403.181,747.678C426.179,714.664 516.531,676.793 542.962,642.936C558.167,623.459 564.495,595.023 557.723,571.014C554.963,561.229 549.232,552.627 543.127,544.614C542.744,544.111 536.977,537.291 537.225,537.114C540.71,534.625 622.739,571.028 631.304,574.898C686.837,599.991 793.781,665.686 794.346,666.123C807.287,676.112 814.387,681.667 814.387,681.667C831.965,713.539 858.164,795.498 835.811,829.811C812.937,864.923 -15.529,871.85 -35.205,823.694C-50.694,785.785 -40.228,718.495 -14.351,686.88C-14.351,686.88 -0.925,676.112 12.016,666.123C12.582,665.686 119.525,599.991 175.058,574.898C183.624,571.028 265.652,534.625 269.137,537.114C269.385,537.291 263.618,544.111 263.235,544.614C257.13,552.627 251.399,561.229 248.639,571.014C241.867,595.023 248.195,623.459 263.4,642.936C289.831,676.793 380.183,714.664 403.181,747.678Z"
      />
    </clipPath>
    <g clip-path="url(#_clip1_clothes_2)">
      <path
        d="M254.037,536.273C254.172,536.187 254.259,536.147 254.275,536.171L254.037,536.273C253.306,536.737 251.158,538.537 250.988,538.678C244.336,544.183 238.428,550.64 231.431,555.72C215.782,567.081 196.994,574.862 179.865,583.628C141.284,603.371 104.111,624.445 67.168,647.088C48.116,658.764 29.889,669.692 11.572,682.62C10.917,683.083 17.135,699.297 17.715,704.226C17.794,704.9 22.93,718.616 22.101,718.892C21.675,719.034 10.074,688.347 5.735,689.445C0.924,690.662 -47.659,756.443 -56.34,805.561C-57.318,811.095 -64.099,763.364 -64.225,758.125C-64.905,729.817 -2.065,671.918 19.795,657.891C83.72,616.87 149.892,578.236 220.799,550.477L254.037,536.273ZM544.039,531.135C544.77,531.6 546.919,533.4 547.089,533.541C553.74,539.045 559.649,545.502 566.646,550.582C582.295,561.944 601.083,569.724 618.211,578.49C656.792,598.233 693.965,619.307 730.909,641.95C749.96,653.626 768.188,664.554 786.504,677.482C787.16,677.945 780.942,694.159 780.362,699.088C780.282,699.762 775.147,713.478 775.976,713.754C776.402,713.896 788.003,683.209 792.341,684.307C797.152,685.524 845.735,751.305 854.417,800.423C855.395,805.957 862.175,758.226 862.301,752.988C862.982,724.679 800.141,666.78 778.282,652.753C714.356,611.732 648.185,573.099 577.278,545.339L544.039,531.135C543.905,531.05 543.818,531.009 543.801,531.034L544.039,531.135Z"
        style="fill: rgb(252, 255, 216); fill-opacity: 0.6"
      />
      <g>
        <path d="M376.752,745.474C375.839,746.386 379.964,766.734 380.094,768.753C381.565,791.56 378.258,814.74 377.133,837.51" style="fill: none; stroke: black; stroke-width: 2.1px" />
        <path
          d="M787.176,665.59C787.176,665.59 782.776,687.434 781.82,691.636C779.232,703.006 776.06,714.22 773.067,725.488C763.687,760.802 753.344,795.888 744.68,831.389"
          style="fill: none; stroke: black; stroke-width: 2.1px"
        />
        <path d="M8.39,672.272C9.171,675.533 25.864,728.51 29.424,737.769C42.971,773.011 54.099,805.44 65.917,841.3" style="fill: none; stroke: black; stroke-width: 2.1px" />
        <path
          d="M14.718,682.279C15.036,679.318 25.509,673.398 27.571,671.858C41.237,661.651 55.677,652.607 70.395,644.002C120.072,614.957 189.355,575.274 243.566,554.945"
          style="fill: none; stroke: black; stroke-width: 2.1px"
        />
        <path d="M556.527,553.97C556.23,553.019 617.004,577.321 634.004,585.815C684.542,611.065 734.423,642.013 781.703,672.991" style="fill: none; stroke: black; stroke-width: 2.1px" />
      </g>
    </g>
    <path
      d="M403.181,747.678C426.179,714.664 516.531,676.793 542.962,642.936C558.167,623.459 564.495,595.023 557.723,571.014C554.963,561.229 549.232,552.627 543.127,544.614C542.744,544.111 536.977,537.291 537.225,537.114C540.71,534.625 622.739,571.028 631.304,574.898C686.837,599.991 793.781,665.686 794.346,666.123C807.287,676.112 814.387,681.667 814.387,681.667C831.965,713.539 858.164,795.498 835.811,829.811C812.937,864.923 -15.529,871.85 -35.205,823.694C-50.694,785.785 -40.228,718.495 -14.351,686.88C-14.351,686.88 -0.925,676.112 12.016,666.123C12.582,665.686 119.525,599.991 175.058,574.898C183.624,571.028 265.652,534.625 269.137,537.114C269.385,537.291 263.618,544.111 263.235,544.614C257.13,552.627 251.399,561.229 248.639,571.014C241.867,595.023 248.195,623.459 263.4,642.936C289.831,676.793 380.183,714.664 403.181,747.678Z"
      style="fill: none; stroke: black; stroke-width: 2.1px"
    />
    <path
      d="M757.167,808.775C759.901,807.46 763.853,793.529 765.241,790.728C772.158,776.765 779.297,762.908 786.323,749C788.635,744.421 791.473,735.237 796.113,732.436C798.266,731.136 796.394,739.651 796.253,740.247C794.095,749.365 791.22,758.325 788.381,767.249C780.858,790.901 772.723,813.981 760.624,835.707L757.167,808.775ZM54.42,809.357C46.009,789.851 31.924,771.708 20.578,753.826C19.503,752.131 11.489,737.032 9.25,737.987C8.571,738.277 9.028,739.928 9.114,740.376C10.522,747.734 13.884,755.005 16.876,761.823C24.255,778.633 32.827,795.026 41.521,811.187C44.808,817.299 60.866,842.22 58.782,830.445L54.42,809.357ZM740.756,808.351C745.938,799.878 743.621,768.159 743.58,757.039C743.574,755.582 744.16,740.762 741.944,740.691C739.956,740.628 738.311,757.803 738.105,759.379C735.44,779.758 732.867,800.695 733.307,821.286L740.756,808.351ZM71.187,812.476C72.592,812.178 69.586,810.081 68.945,808.796C67.519,805.931 66.25,802.986 65.026,800.03C60.186,788.332 55.801,776.405 51.611,764.459C51.321,763.63 47.404,753.61 48.685,753.06C50.572,752.25 57.316,767.462 57.882,768.624C65.965,785.228 73.901,802.547 79.672,820.107L71.187,812.476ZM169.505,719.099C166.524,721.841 175.084,724.679 175.881,724.926C184.842,727.707 195.267,727.034 204.572,727.686C244.642,730.493 278.392,722.403 316.721,722.19C340.568,722.058 342.547,734.438 359.116,744.92C378.266,757.036 393.705,759.467 412.84,776.476C420.466,783.254 426.909,791.217 432.344,799.823C432.9,800.703 436.551,808.464 437.447,808.464C439.43,808.464 435.843,804.838 435.008,803.041C433.268,799.295 431.512,795.569 429.512,791.953C423.772,781.573 416.404,772.067 408.483,763.269C383.63,735.665 356.476,710.676 319.65,700.937C280.023,690.457 235.077,693.194 195.514,702.926L169.505,719.099ZM618.326,696.487C618.323,696.414 618.377,696.401 618.512,696.476L618.326,696.487C618.335,696.774 619.21,697.989 619.495,698.52C620.394,700.199 621.281,701.884 622.202,703.552C623.342,705.613 636.042,724.528 631.916,725.245C601.502,730.535 569.796,730.807 539.37,725.719C516.116,721.83 491.68,712.674 467.848,715.429C451.586,717.308 437.038,727.251 423.976,736.49C418.264,740.531 412.829,745.06 406.996,748.916C406.618,749.166 404.807,750.653 404.526,749.732C403.619,746.766 408.482,741.316 409.991,739.34C417.831,729.074 427.899,720.955 439.062,714.518C482.782,689.305 535.308,700.35 583.009,698.689L618.326,696.487Z"
      style="fill: rgb(56, 25, 57); fill-opacity: 0.5"
    />
    <g transform="matrix(1,0,0,1,-1.98608,-2.20104)">
      <circle cx="401.012" cy="782.819" r="9.746" style="fill: rgb(101, 101, 117)" />
      <clipPath id="_clip2_clothes_2">
        <circle cx="401.012" cy="782.819" r="9.746" />
      </clipPath>
      <g clip-path="url(#_clip2_clothes_2)">
        <g transform="matrix(1,0,0,1,1.98608,2.20104)">
          <path
            d="M391.697,774.444C391.519,774.399 391.186,775.62 391.158,775.722C390.774,777.153 390.53,778.718 390.754,780.194C391.351,784.131 394.833,786.967 398.858,786.487C403.359,785.951 405.837,781.724 405.59,777.456C405.496,775.822 405.037,774.201 404.092,772.851C403.779,772.405 403.436,771.978 403.062,771.581C403.027,771.544 402.44,770.95 402.516,770.912C403.03,770.655 405.364,773.233 405.655,773.53C408.534,776.462 410.402,780.591 408.759,784.633C406.564,790.036 399.426,793.344 394.186,790.178C389.986,787.639 388.366,781.984 389.672,777.413"
            style="fill: rgb(56, 25, 57); fill-opacity: 0.59"
          />
        </g>
        <g transform="matrix(1,0,0,1,1.98608,2.20104)">
          <path
            d="M397.332,773.52C395.009,773.776 394.429,775.623 394.278,775.847C393.592,776.862 392.265,780.778 394.558,781.137C395.299,781.254 395.858,779.916 396.131,779.424C396.775,778.263 400.478,774.071 397.332,773.52Z"
            style="fill: rgb(252, 255, 216); fill-opacity: 0.6"
          />
        </g>
      </g>
      <circle cx="401.012" cy="782.819" r="9.746" style="fill: none; stroke: black; stroke-width: 2.1px" />
    </g>
    <g transform="matrix(-1,0,0,1,800.188,0)">
      <path
        d="M276.681,531.037C277.021,530.37 275.183,531.005 274.434,531.029C267.581,531.245 262.214,533.881 257.268,538.764C247.406,548.499 239.294,561.327 232.226,573.166C212.975,605.41 193.373,640.431 180.742,675.76C178.359,682.427 164.301,718.105 164.301,718.105C164.301,718.105 192.991,719.397 198.253,720.334C236.351,727.118 250.671,718.899 285.674,712.51C327.933,704.796 336.163,705.463 353.025,714.159C388.999,732.712 396.539,750.826 396.539,750.826L400.317,746.829C400.317,746.829 379.376,709.71 356.149,692.669C319.529,665.804 253.788,664.877 252.503,585.288C252.144,563.098 276.681,531.037 276.681,531.037Z"
        style="fill: rgb(231, 204, 247)"
      />
      <clipPath id="_clip3_clothes_2">
        <path
          d="M276.681,531.037C277.021,530.37 275.183,531.005 274.434,531.029C267.581,531.245 262.214,533.881 257.268,538.764C247.406,548.499 239.294,561.327 232.226,573.166C212.975,605.41 193.373,640.431 180.742,675.76C178.359,682.427 164.301,718.105 164.301,718.105C164.301,718.105 192.991,719.397 198.253,720.334C236.351,727.118 250.671,718.899 285.674,712.51C327.933,704.796 336.163,705.463 353.025,714.159C388.999,732.712 396.539,750.826 396.539,750.826L400.317,746.829C400.317,746.829 379.376,709.71 356.149,692.669C319.529,665.804 253.788,664.877 252.503,585.288C252.144,563.098 276.681,531.037 276.681,531.037Z"
        />
      </clipPath>
      <g clip-path="url(#_clip3_clothes_2)">
        <g transform="matrix(-1,0,0,1,800.188,0)">
          <path
            d="M520.514,528.352C519.86,528.208 521.799,528.734 522.43,528.96C523.47,529.334 524.502,529.733 525.54,530.113C528.822,531.315 532.203,533.269 534.968,535.389C542.756,541.361 547.889,551.735 552.547,560.15C568.779,589.474 585.67,618.083 601.214,647.849C605.353,655.775 609.41,663.744 613.276,671.807C615.951,677.387 618.415,683.117 620.397,688.983C622.675,695.725 624.213,702.649 626.975,709.232C627.291,709.983 630.144,714.641 629.481,715.343C628.594,716.282 624.377,715.634 623.244,715.666C617.846,715.82 612.492,716.976 607.181,717.85C602.005,718.701 596.807,719.408 591.632,720.271C589.635,720.603 573.553,722.825 573.015,723.884C572.742,724.421 577.843,725.088 578.15,725.131C584.581,726.036 591.06,726.526 597.539,726.941C611.485,727.836 633.076,732.404 645.837,725.004C652.519,721.128 651.108,713.103 648.975,706.899C644.226,693.08 636.155,680.192 629.346,667.33C611.009,632.686 591.787,598.798 570.254,566.024C559.621,549.841 547.951,529.136 530.169,519.638"
            style="fill: rgb(252, 255, 216); fill-opacity: 0.6"
          />
        </g>
        <g>
          <g transform="matrix(-1,0,0,1,800.188,0)">
            <path
              d="M524.321,522.741C523.778,522.185 525.678,523.506 526.298,523.972C527.55,524.913 528.721,525.957 529.883,527.005C533.519,530.285 536.641,533.807 539.481,537.789C547.808,549.466 557.083,563.659 564.935,575.651C573.847,589.262 580.918,603.382 588.551,617.729C599.9,639.062 608.866,659.134 617.856,681.609C621.3,690.22 630.606,713.615 630.231,714.24C630.135,714.4 618.088,715.272 613.683,715.483C594.032,716.422 580.545,720.202 560.885,717.44C529.052,712.967 498.327,700.597 469.122,703.222C454.833,704.506 441.234,710.656 429.733,719.449C420.918,726.188 408.26,738.379 401.159,746.859"
              style="fill: none; stroke: black; stroke-width: 1.15px"
            />
          </g>
          <g transform="matrix(-1,0,0,1,800.188,0)">
            <path
              d="M450.757,688.113C450.966,687.72 450.19,688.801 449.913,689.15C449.35,689.859 448.791,690.574 448.255,691.304C446.6,693.558 445.084,695.936 443.735,698.386C439.789,705.556 437.516,713.517 436.362,721.591"
              style="fill: none; stroke: black; stroke-width: 1.15px"
            />
          </g>
          <g transform="matrix(-1,0,0,1,800.188,0)">
            <path
              d="M444.836,692.104C444.837,692.107 443.681,693.635 443.618,693.73C442.393,695.582 441.297,697.57 440.342,699.573C436.823,706.955 433.901,715.382 432.906,723.54"
              style="fill: none; stroke: black; stroke-width: 1.15px"
            />
          </g>
        </g>
      </g>
      <path
        d="M276.681,531.037C277.021,530.37 275.183,531.005 274.434,531.029C267.581,531.245 262.214,533.881 257.268,538.764C247.406,548.499 239.294,561.327 232.226,573.166C212.975,605.41 193.373,640.431 180.742,675.76C178.359,682.427 164.301,718.105 164.301,718.105C164.301,718.105 192.991,719.397 198.253,720.334C236.351,727.118 250.671,718.899 285.674,712.51C327.933,704.796 336.163,705.463 353.025,714.159C388.999,732.712 396.539,750.826 396.539,750.826L400.317,746.829C400.317,746.829 379.376,709.71 356.149,692.669C319.529,665.804 253.788,664.877 252.503,585.288C252.144,563.098 276.681,531.037 276.681,531.037Z"
        style="fill: none; stroke: black; stroke-width: 2.1px"
      />
    </g>
    <path
      d="M276.681,531.037C277.021,530.37 275.183,531.005 274.434,531.029C267.581,531.245 262.214,533.881 257.268,538.764C247.406,548.499 239.294,561.327 232.226,573.166C212.975,605.41 193.373,640.431 180.742,675.76C178.359,682.427 164.301,718.105 164.301,718.105C164.301,718.105 192.991,719.397 198.253,720.334C236.351,727.118 250.671,718.899 285.674,712.51C327.933,704.796 349.677,713.696 349.677,713.696L357.575,738.627C357.575,738.627 386.248,742.518 410.759,765.868C415.799,770.669 426.868,791.616 427.665,794.384C430.722,804.996 440.052,837.417 441.932,834.463C445.356,829.082 441.485,818.338 440.084,812.93C434.944,793.093 426.542,774.291 415.008,757.352C398.871,733.655 379.376,709.71 356.149,692.669C319.529,665.804 253.788,664.877 252.503,585.288C252.144,563.098 276.681,531.037 276.681,531.037Z"
      style="fill: rgb(231, 204, 247)"
    />
    <clipPath id="_clip4_clothes_2">
      <path
        d="M276.681,531.037C277.021,530.37 275.183,531.005 274.434,531.029C267.581,531.245 262.214,533.881 257.268,538.764C247.406,548.499 239.294,561.327 232.226,573.166C212.975,605.41 193.373,640.431 180.742,675.76C178.359,682.427 164.301,718.105 164.301,718.105C164.301,718.105 192.991,719.397 198.253,720.334C236.351,727.118 250.671,718.899 285.674,712.51C327.933,704.796 349.677,713.696 349.677,713.696L357.575,738.627C357.575,738.627 386.248,742.518 410.759,765.868C415.799,770.669 426.868,791.616 427.665,794.384C430.722,804.996 440.052,837.417 441.932,834.463C445.356,829.082 441.485,818.338 440.084,812.93C434.944,793.093 426.542,774.291 415.008,757.352C398.871,733.655 379.376,709.71 356.149,692.669C319.529,665.804 253.788,664.877 252.503,585.288C252.144,563.098 276.681,531.037 276.681,531.037Z"
      />
    </clipPath>
    <g clip-path="url(#_clip4_clothes_2)">
      <path
        d="M291.554,521.32C291.561,521.21 272.909,530.107 269.32,533.933C258.848,545.098 248.876,558.905 241.108,572.036C219.361,608.799 197.946,646.731 181.674,686.327C177.864,695.598 175.791,700.404 174.906,710.416C174.545,714.496 246.75,725.284 217.134,725.406C215.305,725.413 164.591,723.161 163.219,722.543C158.111,720.242 158.557,712.134 159.013,707.622C160.512,692.762 168.343,678.924 174.378,665.54C195.264,619.217 214.527,555.75 261.645,528.731"
        style="fill: rgb(252, 255, 216); fill-opacity: 0.6"
      />
      <g>
        <path
          d="M284.112,515.541C281.541,515.541 276.666,520.941 274.895,522.472C266.009,530.153 260.123,538.626 253.975,548.417C243.222,565.543 230.979,581.555 220.793,599.108C208.539,620.227 199.056,643.097 189.492,665.524C184.171,678.001 179.591,690.761 174.317,703.252C173.579,705 170.867,713.887 170.867,713.887C170.867,713.887 193.709,715.358 204.148,716.674C239.791,721.167 258.548,712.191 290.078,708.053C306.427,705.908 322.64,705.088 339.054,706.772C342.626,707.138 351.774,710.162 351.774,710.162L360.902,735.315C360.902,735.315 381.505,741.213 390.143,746.396C413.759,760.565 421.34,760.814 440.8,815.288"
          style="fill: none; stroke: black; stroke-width: 1.15px"
        />
        <path
          d="M338.782,682.293C338.967,681.911 339.308,682.962 339.531,683.323C339.983,684.052 340.385,684.809 340.765,685.578C341.897,687.867 342.938,690.191 343.809,692.593C346.412,699.778 348.299,707.016 350.107,714.424"
          style="fill: none; stroke: black; stroke-width: 1.15px"
        />
        <path d="M343.102,684.132C346.888,692.663 349.563,701.468 352.14,710.411" style="fill: none; stroke: black; stroke-width: 1.15px" />
        <path d="M348.197,713.168C352.81,713.864 357.309,715.51 361.76,716.874C374.214,720.688 386.323,726.165 397.374,733.075" style="fill: none; stroke: black; stroke-width: 1.15px" />
        <path
          d="M351.594,710.232C351.972,710.009 353.67,710.718 354.044,710.814C356.543,711.452 359.046,712.07 361.535,712.748C372.649,715.775 382.76,721.337 392.516,727.351"
          style="fill: none; stroke: black; stroke-width: 1.15px"
        />
      </g>
    </g>
    <path
      d="M276.681,531.037C277.021,530.37 275.183,531.005 274.434,531.029C267.581,531.245 262.214,533.881 257.268,538.764C247.406,548.499 239.294,561.327 232.226,573.166C212.975,605.41 193.373,640.431 180.742,675.76C178.359,682.427 164.301,718.105 164.301,718.105C164.301,718.105 192.991,719.397 198.253,720.334C236.351,727.118 250.671,718.899 285.674,712.51C327.933,704.796 349.677,713.696 349.677,713.696L357.575,738.627C357.575,738.627 386.248,742.518 410.759,765.868C415.799,770.669 426.868,791.616 427.665,794.384C430.722,804.996 440.052,837.417 441.932,834.463C445.356,829.082 441.485,818.338 440.084,812.93C434.944,793.093 426.542,774.291 415.008,757.352C398.871,733.655 379.376,709.71 356.149,692.669C319.529,665.804 253.788,664.877 252.503,585.288C252.144,563.098 276.681,531.037 276.681,531.037Z"
      style="fill: none; stroke: black; stroke-width: 2.1px"
    />
  </g>
</svg>