<svg viewBox="0 0 800 800" xmlns="http://www.w3.org/2000/svg">
  <g id="hairstyles-back">
    <g id="hairstyle-2-back">
      <path
        d="M455.368,102.944C432.926,94.774 416.06,95.314 398.925,94.782C385.563,94.367 356.131,101.058 343.374,105.249C317.002,113.911 290.579,127.707 271.552,147.503C216.175,205.118 219.543,280.695 208.097,356.158C205.018,376.454 197.841,396.239 195.801,416.646C192.892,445.731 199.061,474.465 200.596,503.414C201.6,522.348 198.85,541.452 201.56,560.286C207.478,601.415 226.614,640.289 230.358,681.932C233.373,715.481 230.326,728.515 247.502,759.565C250.497,764.978 253.09,770.659 255.351,776.415C255.493,776.776 257.509,782.214 257.977,782.014C258.613,781.741 257.537,744.746 260.495,743.76C261.007,743.589 262.159,746.295 262.37,746.627C270.791,759.82 288.944,764.984 299.767,776.121C301.905,778.321 306.435,786.661 309.678,787.05C313.445,787.502 312.332,757.907 316.67,758.681C319.83,759.246 381.978,804.827 385.409,809.017C390.998,815.841 395.638,823.211 399.634,831.064C400.134,832.047 404.614,843.361 405.956,842.824C407.925,842.036 413.997,817.702 419.404,811.267C434.84,792.898 461.874,791.433 479.25,775.317C485.253,769.749 493.234,749.787 496.796,748.475C498.499,747.847 500.823,757.719 501.029,758.628C502.752,766.25 503.745,774.353 503.386,782.175C503.353,782.886 501.941,791.337 502.314,791.524C502.447,791.59 504.621,786.917 504.725,786.702C506.631,782.775 508.678,778.903 510.726,775.049C513.649,769.55 537.007,724.239 539.711,722.437C541.336,721.353 542.17,725.31 542.417,726.133C544.354,732.592 546.17,739.132 547.855,745.662C548.09,746.575 550.07,754.627 550.319,754.288C559.123,742.34 561.371,717.617 565.589,703.47C574.061,675.053 590.349,617.718 591.333,590.45C592.044,570.745 586.385,551.622 586.216,531.97C585.939,499.675 596.858,468.643 597.842,436.416C598.956,399.932 591.785,362.969 585.868,327.092C573.067,249.486 576.93,188.128 519.627,139.736C497.26,120.848 474.464,109.896 455.368,102.944Z"
        style="fill: rgb(var(--color_hairs_r, 110), var(--color_eyebrows_g, 69), var(--color_eyebrows_b, 45))"
      />
      <clipPath id="_clip1_hair2_base">
        <path
          d="M455.368,102.944C432.926,94.774 416.06,95.314 398.925,94.782C385.563,94.367 356.131,101.058 343.374,105.249C317.002,113.911 290.579,127.707 271.552,147.503C216.175,205.118 219.543,280.695 208.097,356.158C205.018,376.454 197.841,396.239 195.801,416.646C192.892,445.731 199.061,474.465 200.596,503.414C201.6,522.348 198.85,541.452 201.56,560.286C207.478,601.415 226.614,640.289 230.358,681.932C233.373,715.481 230.326,728.515 247.502,759.565C250.497,764.978 253.09,770.659 255.351,776.415C255.493,776.776 257.509,782.214 257.977,782.014C258.613,781.741 257.537,744.746 260.495,743.76C261.007,743.589 262.159,746.295 262.37,746.627C270.791,759.82 288.944,764.984 299.767,776.121C301.905,778.321 306.435,786.661 309.678,787.05C313.445,787.502 312.332,757.907 316.67,758.681C319.83,759.246 381.978,804.827 385.409,809.017C390.998,815.841 395.638,823.211 399.634,831.064C400.134,832.047 404.614,843.361 405.956,842.824C407.925,842.036 413.997,817.702 419.404,811.267C434.84,792.898 461.874,791.433 479.25,775.317C485.253,769.749 493.234,749.787 496.796,748.475C498.499,747.847 500.823,757.719 501.029,758.628C502.752,766.25 503.745,774.353 503.386,782.175C503.353,782.886 501.941,791.337 502.314,791.524C502.447,791.59 504.621,786.917 504.725,786.702C506.631,782.775 508.678,778.903 510.726,775.049C513.649,769.55 537.007,724.239 539.711,722.437C541.336,721.353 542.17,725.31 542.417,726.133C544.354,732.592 546.17,739.132 547.855,745.662C548.09,746.575 550.07,754.627 550.319,754.288C559.123,742.34 561.371,717.617 565.589,703.47C574.061,675.053 590.349,617.718 591.333,590.45C592.044,570.745 586.385,551.622 586.216,531.97C585.939,499.675 596.858,468.643 597.842,436.416C598.956,399.932 591.785,362.969 585.868,327.092C573.067,249.486 576.93,188.128 519.627,139.736C497.26,120.848 474.464,109.896 455.368,102.944Z"
        />
      </clipPath>
      <g clip-path="url(#_clip1_hair2_base)">
        <path
          d="M140.683,290.554C126.786,260.151 170.065,195.207 186.16,173.794C257.234,79.235 368.505,-5.956 493.179,7.608C607.351,20.03 681.472,117.738 729.532,213.076C839.488,431.197 840.649,719.128 681.745,913.985C647.657,955.784 607.488,993.124 562.294,1022.67C526.659,1045.97 487.599,1064.68 446.432,1075.82C384.269,1092.64 319.111,1089.81 259.509,1065.16C34.666,972.168 -6.697,639.647 19.434,429.509"
          style="fill: rgb(43, 19, 44)"
        />
      </g>
      <path
        d="M455.368,102.944C432.926,94.774 416.06,95.314 398.925,94.782C385.563,94.367 356.131,101.058 343.374,105.249C317.002,113.911 290.579,127.707 271.552,147.503C216.175,205.118 219.543,280.695 208.097,356.158C205.018,376.454 197.841,396.239 195.801,416.646C192.892,445.731 199.061,474.465 200.596,503.414C201.6,522.348 198.85,541.452 201.56,560.286C207.478,601.415 226.614,640.289 230.358,681.932C233.373,715.481 230.326,728.515 247.502,759.565C250.497,764.978 253.09,770.659 255.351,776.415C255.493,776.776 257.509,782.214 257.977,782.014C258.613,781.741 257.537,744.746 260.495,743.76C261.007,743.589 262.159,746.295 262.37,746.627C270.791,759.82 288.944,764.984 299.767,776.121C301.905,778.321 306.435,786.661 309.678,787.05C313.445,787.502 312.332,757.907 316.67,758.681C319.83,759.246 381.978,804.827 385.409,809.017C390.998,815.841 395.638,823.211 399.634,831.064C400.134,832.047 404.614,843.361 405.956,842.824C407.925,842.036 413.997,817.702 419.404,811.267C434.84,792.898 461.874,791.433 479.25,775.317C485.253,769.749 493.234,749.787 496.796,748.475C498.499,747.847 500.823,757.719 501.029,758.628C502.752,766.25 503.745,774.353 503.386,782.175C503.353,782.886 501.941,791.337 502.314,791.524C502.447,791.59 504.621,786.917 504.725,786.702C506.631,782.775 508.678,778.903 510.726,775.049C513.649,769.55 537.007,724.239 539.711,722.437C541.336,721.353 542.17,725.31 542.417,726.133C544.354,732.592 546.17,739.132 547.855,745.662C548.09,746.575 550.07,754.627 550.319,754.288C559.123,742.34 561.371,717.617 565.589,703.47C574.061,675.053 590.349,617.718 591.333,590.45C592.044,570.745 586.385,551.622 586.216,531.97C585.939,499.675 596.858,468.643 597.842,436.416C598.956,399.932 591.785,362.969 585.868,327.092C573.067,249.486 576.93,188.128 519.627,139.736C497.26,120.848 474.464,109.896 455.368,102.944Z"
        style="fill: none; stroke: black; stroke-width: 2.1px"
      />
    </g>
  </g>
  <g id="hairstyles-front">
    <g id="hairstyle-2-front">
      <path
        id="shadow"
        d="M233.212,392.322C232.53,392.322 234.198,390.423 234.635,389.739C236.128,387.401 237.667,385.098 239.198,382.785C243.371,376.483 247.42,370.079 250.937,363.38C260.898,344.407 264.147,324.331 269.417,303.837C273.504,287.943 274.316,270.162 278.488,254.254C290.279,209.296 314.119,183.118 354.583,172.696C364.402,170.167 372.87,168.574 383.05,169.036C387.747,169.25 396.185,170.606 400.607,170.053C416.961,168.009 446.8,171.523 454.529,176.026C460.576,179.549 466.063,194.465 469.88,202.98C481.736,229.428 487.383,258.549 494.885,286.308C502.368,313.996 506.201,339.774 514.275,367.395C517.133,377.172 520.259,388.45 524.682,397.697C529.332,407.422 537.498,419.275 548.905,418.978C553.299,418.864 554.641,417.713 554.441,415.705C554.272,414.019 550.228,410.098 548.468,408.88C537.504,401.289 528.882,395.942 522.893,379.4C516.988,363.092 518.088,353.02 512.659,336.514C505.047,313.376 498.925,289.568 493.736,265.6C489.35,245.342 483.632,225.29 478.261,205.288C476.252,197.804 471.524,188.449 468.674,181.263C468.477,180.765 476.166,183.286 477.898,184.766C487.278,192.783 499.498,203.541 505.796,214.088C527.479,250.394 527.474,301.286 539.92,341.112C543.324,352.007 547.045,364.587 552.934,374.46C558.468,383.738 563.223,383.221 565.334,372.47C565.911,369.536 566.302,366.567 566.626,363.596C567.187,358.446 567.431,353.259 567.553,348.082C569.68,257.689 525.793,175.537 452.847,123.505C436.602,111.918 402.789,84.181 381.454,88.339C354.118,93.666 329.625,124.605 311.883,143.738C285.142,172.575 254.236,203.922 236.831,239.734C223.445,267.275 217.423,297.913 212.045,327.85"
        style="fill: rgb(56, 25, 57); fill-opacity: 0.5"
      />
      <path
        d="M460.848,165.778C450.671,162.994 439.889,161.911 429.887,161.494C422.874,161.202 404.253,163.011 404.001,162.759C403.204,161.962 400.407,107.808 400.37,107.817L399.707,99.94L399.186,107.887C399.148,107.879 397.01,162.291 396.213,163.088C395.961,163.34 377.552,161.202 370.539,161.494C350.344,162.336 326.973,165.892 311.835,180.679C264.857,226.564 267.541,302.881 247.536,361.21C246.482,364.282 251.184,370.731 253.127,383.231C255.263,396.971 255.351,406.186 255.134,420.121C254.492,461.256 255.749,488.327 273.741,521.858C276.767,527.497 280.286,532.86 284.596,537.608C287.462,540.766 290.507,543.649 293.991,546.115C296.821,548.117 306.801,554.168 306.801,554.168C306.801,554.168 290.422,550.877 278.557,538.931C275.569,535.922 273.402,532.2 271.195,528.588C271.166,528.542 270.673,527.748 270.622,527.799C270.369,528.052 271.688,531.094 271.787,531.391C275.059,541.208 277.705,550.606 275.715,560.958C271.787,581.382 262.045,599.724 261.148,620.94C260.213,643.076 268.875,664.019 266.438,686.765C265.152,698.771 263.246,710.488 260.082,722.155C259.669,723.678 256.253,733.287 256.253,733.287C256.253,733.287 257.975,718.232 258.089,713.806C258.419,700.927 257.439,688.211 255.918,675.436C255.436,671.385 254.698,667.383 253.944,663.376C253.53,661.175 253.295,654.744 252.464,656.823C251.049,660.359 255.166,686.425 253.687,695.213C249.935,717.504 236.569,736.634 235.139,759.516C234.464,770.325 235.78,780.326 240.93,790.002C242.659,793.252 243.479,796.504 245.812,799.348C246.89,800.662 250.883,803.69 249.306,803.059C240.713,799.622 233.488,793.675 225.719,788.947C223.755,787.751 220.848,788.557 218.633,787.585C207.239,782.582 195.671,775.465 190.942,763.268C187.722,754.965 188.059,743.435 190.843,735.083C192.137,731.201 197.001,723.003 197.001,723.003C197.001,723.003 182.881,736.551 173.356,739.05C171,739.668 165.546,739.947 161.198,740.095C159.225,740.524 157.18,740.632 155.079,740.313C154.671,740.251 157.543,740.22 161.198,740.095C167.324,738.764 172.756,734.339 177.046,729.971C180.678,726.273 183.922,722.36 186.659,717.95C205.974,686.832 176.928,690.934 164.967,662.626C161.471,654.352 160.187,645.076 159.342,636.198C159.063,633.274 161.386,621.866 161.386,621.866C161.386,621.866 156.29,634.703 155.947,636.395C152.899,651.429 155.219,667.682 162.756,681.081C165.328,685.653 181.09,698.925 181.09,698.925C181.09,698.925 163.934,687.204 161.138,683.489C145.866,663.193 145.885,634.509 155.039,611.624C157.322,605.917 159.991,600.409 163.487,595.341C163.871,594.783 169.546,588.235 169.546,588.235C169.546,588.235 153.009,589.307 146.472,586.31C138.012,582.433 129.756,574.024 127.014,564.976C125.514,560.028 128.203,551.198 128.203,551.198C128.203,551.198 128.811,560.501 131.788,565.655C138.36,577.032 160.067,579.183 165.658,564.175C179.555,526.872 150.482,486.639 152.844,446.476C153.773,430.679 163.339,401.655 171.323,376.801C172.486,373.177 175.007,363.524 176.28,357.858C177.377,352.974 176.078,351.199 177.092,347.464C178.586,341.966 179.833,340.409 180.507,338.198C183.002,330.015 183.311,322.248 183.672,319.767C187.385,294.215 191.165,269.737 197.682,244.782C210.762,194.695 237.727,124.64 285.613,99.04C303.872,89.279 321.699,77.471 341.631,72.408C360.641,67.578 378.334,65.754 397.625,65.489L397.622,65.454C398.488,65.454 399.351,65.456 400.213,65.463C401.075,65.456 401.937,65.454 402.804,65.454L402.801,65.489C422.091,65.754 439.784,67.578 458.795,72.408C478.726,77.471 496.554,89.279 514.813,99.04C562.698,124.64 589.664,194.695 602.744,244.782C609.261,269.737 613.04,294.215 616.754,319.767C617.115,322.248 617.424,330.015 619.919,338.198C620.593,340.409 621.84,341.966 623.333,347.464C624.348,351.199 623.048,352.974 624.146,357.858C625.419,363.524 627.939,373.177 629.103,376.801C637.087,401.655 646.652,430.679 647.582,446.476C649.944,486.639 620.87,526.872 634.768,564.175C640.359,579.183 662.066,577.032 668.637,565.655C671.615,560.501 672.223,551.198 672.223,551.198C672.223,551.198 674.912,560.028 673.412,564.976C670.669,574.024 662.414,582.433 653.953,586.31C647.416,589.307 630.879,588.235 630.879,588.235C630.879,588.235 636.554,594.783 636.939,595.341C640.434,600.409 643.104,605.917 645.387,611.624C654.541,634.509 654.56,663.193 639.288,683.489C636.492,687.204 619.336,698.925 619.336,698.925C619.336,698.925 635.097,685.653 637.669,681.081C645.206,667.682 647.526,651.429 644.479,636.395C644.136,634.703 639.04,621.866 639.04,621.866C639.04,621.866 641.362,633.274 641.084,636.198C640.238,645.076 638.955,654.352 635.459,662.626C623.497,690.934 594.452,686.832 613.767,717.95C616.504,722.36 619.748,726.273 623.379,729.971C627.669,734.339 633.101,738.764 639.228,740.095C642.882,740.22 645.755,740.251 645.347,740.313C643.245,740.632 641.2,740.524 639.228,740.095C634.88,739.947 629.426,739.668 627.07,739.05C617.545,736.551 603.425,723.003 603.425,723.003C603.425,723.003 608.289,731.201 609.583,735.083C612.367,743.435 612.704,754.965 609.484,763.268C604.755,775.465 593.187,782.582 581.792,787.585C579.578,788.557 576.67,787.751 574.706,788.947C566.938,793.675 559.713,799.622 551.12,803.059C549.543,803.69 553.536,800.662 554.614,799.348C556.947,796.504 557.766,793.252 559.496,790.002C564.646,780.326 565.962,770.325 565.286,759.516C563.856,736.634 550.49,717.504 546.738,695.213C545.259,686.425 549.376,660.359 547.962,656.823C547.13,654.744 546.896,661.175 546.482,663.376C545.728,667.383 544.99,671.385 544.508,675.436C542.987,688.211 542.007,700.927 542.337,713.806C542.45,718.232 544.172,733.287 544.172,733.287C544.172,733.287 540.756,723.678 540.343,722.155C537.18,710.488 535.274,698.771 533.988,686.765C531.551,664.019 540.213,643.076 539.277,620.94C538.381,599.724 528.639,581.382 524.711,560.958C522.72,550.606 525.367,541.208 528.639,531.391C528.738,531.094 530.057,528.052 529.803,527.799C529.752,527.748 529.259,528.542 529.231,528.588C527.024,532.2 524.857,535.922 521.869,538.931C510.004,550.877 493.624,554.168 493.624,554.168C493.624,554.168 503.605,548.117 506.434,546.115C509.919,543.649 512.963,540.766 515.829,537.608C520.139,532.86 523.659,527.497 526.685,521.858C544.677,488.327 545.933,461.256 545.292,420.121C545.179,412.893 545.149,406.935 545.444,400.956C536.379,395.776 528.881,388.363 524.177,378.93C513.619,357.759 510.142,333.778 506.205,310.755C500.864,279.529 494.321,242.311 484.596,212.134C479.047,194.919 474.181,179.478 461.3,166.243L460.848,165.778ZM476.148,171.708C500.739,216.502 502.158,278.914 518.217,326.127C525.172,346.573 532.03,368.907 547.043,384.922C547.124,384.367 547.21,383.803 547.298,383.231C549.241,370.731 553.943,364.282 552.89,361.21C532.884,302.881 535.569,226.564 488.591,180.679C484.882,177.056 480.679,174.108 476.148,171.708Z"
        style="fill: rgb(var(--color_hairs_r, 110), var(--color_hairs_g, 69), var(--color_hairs_b, 45))"
      />
      <clipPath id="_clip2_hair2_base">
        <path
          d="M460.848,165.778C450.671,162.994 439.889,161.911 429.887,161.494C422.874,161.202 404.253,163.011 404.001,162.759C403.204,161.962 400.407,107.808 400.37,107.817L399.707,99.94L399.186,107.887C399.148,107.879 397.01,162.291 396.213,163.088C395.961,163.34 377.552,161.202 370.539,161.494C350.344,162.336 326.973,165.892 311.835,180.679C264.857,226.564 267.541,302.881 247.536,361.21C246.482,364.282 251.184,370.731 253.127,383.231C255.263,396.971 255.351,406.186 255.134,420.121C254.492,461.256 255.749,488.327 273.741,521.858C276.767,527.497 280.286,532.86 284.596,537.608C287.462,540.766 290.507,543.649 293.991,546.115C296.821,548.117 306.801,554.168 306.801,554.168C306.801,554.168 290.422,550.877 278.557,538.931C275.569,535.922 273.402,532.2 271.195,528.588C271.166,528.542 270.673,527.748 270.622,527.799C270.369,528.052 271.688,531.094 271.787,531.391C275.059,541.208 277.705,550.606 275.715,560.958C271.787,581.382 262.045,599.724 261.148,620.94C260.213,643.076 268.875,664.019 266.438,686.765C265.152,698.771 263.246,710.488 260.082,722.155C259.669,723.678 256.253,733.287 256.253,733.287C256.253,733.287 257.975,718.232 258.089,713.806C258.419,700.927 257.439,688.211 255.918,675.436C255.436,671.385 254.698,667.383 253.944,663.376C253.53,661.175 253.295,654.744 252.464,656.823C251.049,660.359 255.166,686.425 253.687,695.213C249.935,717.504 236.569,736.634 235.139,759.516C234.464,770.325 235.78,780.326 240.93,790.002C242.659,793.252 243.479,796.504 245.812,799.348C246.89,800.662 250.883,803.69 249.306,803.059C240.713,799.622 233.488,793.675 225.719,788.947C223.755,787.751 220.848,788.557 218.633,787.585C207.239,782.582 195.671,775.465 190.942,763.268C187.722,754.965 188.059,743.435 190.843,735.083C192.137,731.201 197.001,723.003 197.001,723.003C197.001,723.003 182.881,736.551 173.356,739.05C171,739.668 165.546,739.947 161.198,740.095C159.225,740.524 157.18,740.632 155.079,740.313C154.671,740.251 157.543,740.22 161.198,740.095C167.324,738.764 172.756,734.339 177.046,729.971C180.678,726.273 183.922,722.36 186.659,717.95C205.974,686.832 176.928,690.934 164.967,662.626C161.471,654.352 160.187,645.076 159.342,636.198C159.063,633.274 161.386,621.866 161.386,621.866C161.386,621.866 156.29,634.703 155.947,636.395C152.899,651.429 155.219,667.682 162.756,681.081C165.328,685.653 181.09,698.925 181.09,698.925C181.09,698.925 163.934,687.204 161.138,683.489C145.866,663.193 145.885,634.509 155.039,611.624C157.322,605.917 159.991,600.409 163.487,595.341C163.871,594.783 169.546,588.235 169.546,588.235C169.546,588.235 153.009,589.307 146.472,586.31C138.012,582.433 129.756,574.024 127.014,564.976C125.514,560.028 128.203,551.198 128.203,551.198C128.203,551.198 128.811,560.501 131.788,565.655C138.36,577.032 160.067,579.183 165.658,564.175C179.555,526.872 150.482,486.639 152.844,446.476C153.773,430.679 163.339,401.655 171.323,376.801C172.486,373.177 175.007,363.524 176.28,357.858C177.377,352.974 176.078,351.199 177.092,347.464C178.586,341.966 179.833,340.409 180.507,338.198C183.002,330.015 183.311,322.248 183.672,319.767C187.385,294.215 191.165,269.737 197.682,244.782C210.762,194.695 237.727,124.64 285.613,99.04C303.872,89.279 321.699,77.471 341.631,72.408C360.641,67.578 378.334,65.754 397.625,65.489L397.622,65.454C398.488,65.454 399.351,65.456 400.213,65.463C401.075,65.456 401.937,65.454 402.804,65.454L402.801,65.489C422.091,65.754 439.784,67.578 458.795,72.408C478.726,77.471 496.554,89.279 514.813,99.04C562.698,124.64 589.664,194.695 602.744,244.782C609.261,269.737 613.04,294.215 616.754,319.767C617.115,322.248 617.424,330.015 619.919,338.198C620.593,340.409 621.84,341.966 623.333,347.464C624.348,351.199 623.048,352.974 624.146,357.858C625.419,363.524 627.939,373.177 629.103,376.801C637.087,401.655 646.652,430.679 647.582,446.476C649.944,486.639 620.87,526.872 634.768,564.175C640.359,579.183 662.066,577.032 668.637,565.655C671.615,560.501 672.223,551.198 672.223,551.198C672.223,551.198 674.912,560.028 673.412,564.976C670.669,574.024 662.414,582.433 653.953,586.31C647.416,589.307 630.879,588.235 630.879,588.235C630.879,588.235 636.554,594.783 636.939,595.341C640.434,600.409 643.104,605.917 645.387,611.624C654.541,634.509 654.56,663.193 639.288,683.489C636.492,687.204 619.336,698.925 619.336,698.925C619.336,698.925 635.097,685.653 637.669,681.081C645.206,667.682 647.526,651.429 644.479,636.395C644.136,634.703 639.04,621.866 639.04,621.866C639.04,621.866 641.362,633.274 641.084,636.198C640.238,645.076 638.955,654.352 635.459,662.626C623.497,690.934 594.452,686.832 613.767,717.95C616.504,722.36 619.748,726.273 623.379,729.971C627.669,734.339 633.101,738.764 639.228,740.095C642.882,740.22 645.755,740.251 645.347,740.313C643.245,740.632 641.2,740.524 639.228,740.095C634.88,739.947 629.426,739.668 627.07,739.05C617.545,736.551 603.425,723.003 603.425,723.003C603.425,723.003 608.289,731.201 609.583,735.083C612.367,743.435 612.704,754.965 609.484,763.268C604.755,775.465 593.187,782.582 581.792,787.585C579.578,788.557 576.67,787.751 574.706,788.947C566.938,793.675 559.713,799.622 551.12,803.059C549.543,803.69 553.536,800.662 554.614,799.348C556.947,796.504 557.766,793.252 559.496,790.002C564.646,780.326 565.962,770.325 565.286,759.516C563.856,736.634 550.49,717.504 546.738,695.213C545.259,686.425 549.376,660.359 547.962,656.823C547.13,654.744 546.896,661.175 546.482,663.376C545.728,667.383 544.99,671.385 544.508,675.436C542.987,688.211 542.007,700.927 542.337,713.806C542.45,718.232 544.172,733.287 544.172,733.287C544.172,733.287 540.756,723.678 540.343,722.155C537.18,710.488 535.274,698.771 533.988,686.765C531.551,664.019 540.213,643.076 539.277,620.94C538.381,599.724 528.639,581.382 524.711,560.958C522.72,550.606 525.367,541.208 528.639,531.391C528.738,531.094 530.057,528.052 529.803,527.799C529.752,527.748 529.259,528.542 529.231,528.588C527.024,532.2 524.857,535.922 521.869,538.931C510.004,550.877 493.624,554.168 493.624,554.168C493.624,554.168 503.605,548.117 506.434,546.115C509.919,543.649 512.963,540.766 515.829,537.608C520.139,532.86 523.659,527.497 526.685,521.858C544.677,488.327 545.933,461.256 545.292,420.121C545.179,412.893 545.149,406.935 545.444,400.956C536.379,395.776 528.881,388.363 524.177,378.93C513.619,357.759 510.142,333.778 506.205,310.755C500.864,279.529 494.321,242.311 484.596,212.134C479.047,194.919 474.181,179.478 461.3,166.243L460.848,165.778ZM476.148,171.708C500.739,216.502 502.158,278.914 518.217,326.127C525.172,346.573 532.03,368.907 547.043,384.922C547.124,384.367 547.21,383.803 547.298,383.231C549.241,370.731 553.943,364.282 552.89,361.21C532.884,302.881 535.569,226.564 488.591,180.679C484.882,177.056 480.679,174.108 476.148,171.708Z"
        />
      </clipPath>
      <g clip-path="url(#_clip2_hair2_base)">
        <path
          id="Shadow"
          d="M594.053,713.035C602.031,735.518 613.755,763.526 613.755,763.526C620.172,735.784 603.714,726.946 596.826,717.762L594.053,713.035ZM206.169,712.686C206.205,712.606 206.233,712.566 206.251,712.578L206.169,712.686C205.924,713.228 205.319,715.601 205.167,716.102C204.448,718.478 204.316,722.382 203.34,724.661C199.75,733.036 195.465,744.179 190.491,751.807C190.106,752.397 185.069,754.476 184.186,754.182C183.948,754.102 184.324,752.134 184.344,752.003C184.742,749.43 185.283,746.85 186.015,744.352C188.955,734.329 194.421,726.732 201.292,719.138L206.169,712.686ZM569.233,626.425C568.991,626.627 568.501,627.169 568.323,627.43C567.69,628.365 567.127,629.363 566.616,630.369C565.143,633.269 563.816,636.247 562.467,639.206C558.311,648.327 554.09,657.387 552.256,667.309C549.397,682.782 551.313,697.418 553.81,712.817C554.625,717.837 555.436,722.857 556.212,727.883C556.282,728.332 557.37,735.845 557.24,735.834C556.099,735.739 554.411,730.411 554.067,729.617C550.94,722.395 548.224,715.039 546.836,707.268C542.152,681.036 544.676,643.326 568.196,626.22L569.233,626.425ZM229.321,625.183C229.112,625.154 231.519,629.232 231.892,629.784C233.913,632.768 235.977,635.74 237.781,638.862C242.872,647.674 246.966,658.55 248.944,668.571C250.998,678.98 250.212,690.015 250.212,700.552C250.212,703.884 250.147,707.216 250.099,710.547C250.081,711.799 250.064,713.05 250.036,714.302C250.026,714.783 249.758,716.086 250.099,715.746C251.9,713.944 253.351,696.036 253.766,692.918C257.151,667.47 251.812,641.295 229.808,625.577L229.321,625.183ZM184.507,679.565L184.692,679.736L184.843,679.876L184.998,680.037L185.191,680.239L185.405,680.486L185.572,680.68L185.792,680.959L185.954,681.166L186.201,681.505L186.339,681.694L186.734,682.273C188.401,684.794 189.925,688.009 191.021,689.691C196.148,697.56 201.793,705.022 211.036,708.036C216.143,709.701 221.39,710.254 226.669,710.974C228.503,711.224 230.341,711.427 232.194,711.489C233.093,711.519 235.178,712.293 234.893,711.439C233.912,708.495 223.531,706.703 221.006,706.002C210.946,703.207 200.845,697.724 193.708,689.992L186.734,682.274L186.347,681.705L186.339,681.694L186.333,681.686L186.201,681.505L185.964,681.178L185.954,681.166L185.946,681.155L185.792,680.959L185.582,680.692L185.572,680.68L185.562,680.669L185.405,680.486L185.202,680.251L185.191,680.239L185.181,680.228L184.998,680.037L184.851,679.883L184.843,679.876L184.839,679.872L184.692,679.736L184.512,679.569L184.507,679.565L184.498,679.557L184.161,679.289C184.057,679.211 183.951,679.141 183.846,679.078L184.161,679.289L184.507,679.565ZM566.528,709.324L566.547,709.306L566.527,709.325L566.515,709.34L566.514,709.342L566.513,709.343L566.506,709.357L566.502,709.368L566.502,709.372L566.501,709.375L566.501,709.377L566.5,709.381L566.501,709.395L566.504,709.412L566.501,709.394L566.501,709.377L566.502,709.372L566.506,709.356L566.514,709.342L566.528,709.324ZM593.584,626.617C592.989,625.856 591.447,630.241 591.2,630.857C589.229,635.785 587.173,640.681 585.677,645.782C582.33,657.194 581.258,669.26 580.231,681.066C580.143,682.078 578.867,692.305 579.653,692.6C579.953,692.712 581.088,687.746 581.169,687.449C582.07,684.135 584.363,680.526 585.421,677.26C590.956,660.173 592.77,646.105 593.885,628.263L593.584,626.617ZM205.87,625.85C207.281,624.814 207.213,629.082 207.846,630.713C209.131,634.024 210.44,637.339 211.563,640.708C215.507,652.539 217.208,665.74 218.532,678.101C218.636,679.071 220.597,688.972 219.637,689.452C218.321,690.11 213.395,680.012 213.032,679.231C211.897,676.79 210.968,674.251 210.157,671.685C208.5,666.445 207.41,661.063 206.716,655.613C205.697,647.606 205.637,639.598 205.637,631.542L205.87,625.85ZM623.024,668.058L623.054,667.952L623.031,668.034L622.965,668.275L622.795,668.864L623.024,668.058ZM244.69,596.282L244.583,596.128C244.336,595.769 244.092,595.406 243.853,595.041C243.588,594.638 243.328,594.231 243.073,593.822C243.027,593.749 242.982,593.676 242.937,593.603L242.513,592.913L241.987,592.033L241.987,592.032L241.985,592.029L238.296,585.359C238.56,585.853 238.826,586.348 239.092,586.843L239.159,586.968L239.333,587.291L239.361,587.342C239.922,588.381 240.49,589.42 241.075,590.451L241.106,590.507L241.365,590.96L241.988,592.034L241.533,591.254L241.365,590.96L241.293,590.836L241.106,590.507L241.075,590.451C240.49,589.42 239.922,588.381 239.361,587.342L239.333,587.291L239.159,586.968L239.092,586.843C238.826,586.348 238.56,585.853 238.296,585.359L238.149,585.082C237.419,583.697 236.76,582.276 236.1,580.857C235.892,580.411 235.616,579.284 235.501,578.826L235.505,578.842L241.987,592.032L241.987,592.033L246.294,598.468C246.076,598.188 245.861,597.905 245.649,597.62C245.861,597.905 246.076,598.188 246.294,598.468C249.718,602.857 253.395,606.927 257.562,610.572L257.558,610.61L258.73,611.571C259.122,611.899 259.518,612.223 259.918,612.544L258.73,611.571L258.018,610.967L257.562,610.572C260.242,587.874 270.962,564.33 266.51,541.386C263.454,525.632 253.818,511.875 249.911,496.246C248.601,491.008 247.63,485.696 247.512,480.286C247.499,479.645 247.902,471.883 248.112,472.052L250.024,476.582C253.224,489.384 255.475,502.836 260.96,514.942C265.646,525.282 274.034,533.375 276.505,544.789C280.134,561.549 276.098,578.658 271.294,594.701C269.193,601.72 266.844,608.658 264.545,615.614C265.97,616.625 267.217,617.731 267.578,618.86C268.708,622.391 267.17,628.005 266.837,631.617C266.609,634.091 266.783,639.03 265.079,641.16C264.97,641.296 264.77,641.083 264.702,641.009C262.165,638.277 260.837,633.37 259.491,629.985L260.311,632.181L260.239,632.466L260.173,632.612L260.11,632.703L260.05,632.762L259.987,632.804L259.921,632.832L259.84,632.849L259.778,632.852L259.659,632.838L259.544,632.806L259.48,632.775L259.394,632.711L259.23,632.521L258.964,632.054L258.686,631.385L258.45,630.688L258.207,629.852L257.944,628.805L257.742,627.811L257.698,627.519C257.663,627.279 257.629,627.039 257.597,626.799C257.557,626.503 257.52,626.207 257.485,625.911C257.45,625.61 257.417,625.31 257.386,625.009L257.346,624.595C255.05,618.876 252.681,613.267 249.722,607.772L241.988,592.034L242.513,592.913L242.937,593.603C242.982,593.676 243.027,593.749 243.073,593.822C243.328,594.231 243.588,594.638 243.853,595.041C244.092,595.406 244.336,595.769 244.583,596.128L244.69,596.282L245.033,596.771L245.064,596.815L245.147,596.932L245.559,597.497L245.064,596.815L244.69,596.282ZM552.308,471.001C552.384,470.769 552.337,473.144 552.362,473.692C552.452,475.72 552.597,477.743 552.685,479.77C552.95,485.855 551.407,491.87 549.759,497.681C544.679,515.595 534.784,530.296 533.608,549.357C532.65,564.873 535.263,578.844 538.405,593.858C538.62,594.886 541.105,606.681 542.26,606.366C548.115,604.769 554.785,593.046 558.004,588.54C558.462,587.898 561.618,581.927 562.365,581.927C562.379,581.927 562.216,582.348 562.21,582.363C561.303,584.681 560.267,586.961 559.242,589.229C557.018,594.148 554.544,598.942 551.954,603.678C547.29,612.207 543.003,620.934 538.307,629.453C537.319,631.244 536.351,633.04 535.437,634.87C535.331,635.08 533.992,637.899 533.861,637.824C533.123,637.403 533.21,630.307 533.115,629.481C532.212,621.655 530.887,613.862 528.388,606.366C524.406,594.421 519.344,583.003 519.13,570.208C518.698,544.251 528.609,534.531 538.307,513.114C543.674,501.262 547.223,487.62 550.195,474.987L552.308,471.001ZM257.346,624.595L257.353,624.614C258.068,626.394 258.775,628.184 259.491,629.985L257.346,624.595ZM569.361,626.345L569.356,626.345L569.362,626.345L569.364,626.346L569.366,626.347L569.367,626.348L569.367,626.348L569.368,626.349L569.369,626.351L569.37,626.351L569.37,626.351L569.37,626.351L569.37,626.352C569.371,626.353 569.371,626.354 569.371,626.355L569.371,626.356L569.372,626.36L569.372,626.361L569.372,626.363L569.371,626.365L569.371,626.37L569.37,626.374C569.368,626.384 569.364,626.397 569.357,626.414L569.356,626.415L569.342,626.446L569.233,626.424L569.315,626.363L569.331,626.354L569.335,626.352L569.339,626.35L569.35,626.346L569.356,626.345L569.35,626.346L569.335,626.352L569.313,626.364C569.313,626.364 569.233,626.425 569.233,626.425L569.342,626.446L569.357,626.414L569.37,626.374L569.371,626.365L569.372,626.361L569.371,626.356L569.37,626.351L569.369,626.351L569.367,626.348L569.364,626.346L569.361,626.345ZM264.545,615.614C264.08,617.021 263.617,618.429 263.158,619.839L259.918,612.544C260.936,613.358 262.865,614.421 264.545,615.614ZM571.688,409.754C561.747,409.14 551.63,404.694 546.692,400.743L541.824,397.676C539.425,397.676 543.819,406.034 544.975,407.032C549.401,410.854 560.584,416.793 560.635,416.993C562.385,423.997 558.268,436.808 557.174,443.795C556.727,446.646 556.226,449.487 555.767,452.335C555.529,453.811 553.936,457.81 554.993,456.753C557.765,453.981 561.036,435.062 563.012,434.073C563.058,434.051 563.892,437.487 563.941,437.675C564.545,439.992 565.218,442.29 565.854,444.597C569.086,456.311 570.64,468.176 572.354,480.178C576.252,507.46 572.418,534.404 582.78,560.655C587.207,571.872 591.413,582.48 602.772,588.16C610.258,591.903 619.764,593.322 628.139,593.112C629.629,593.075 635.447,592.425 635.933,590.481C635.965,590.353 632.134,588.536 632.443,588.529C632.753,588.523 633.062,588.514 633.372,588.504L634.569,588.455C634.569,588.455 632.474,587.222 630.882,586.303C625.737,583.331 621.393,580.331 618.15,575.216C609.278,561.226 604.393,541.525 600.662,525.51C593.876,496.39 588.483,467.424 583.694,437.957C582.869,432.878 579.567,417.323 579.567,417.323C579.567,417.323 600.007,409.319 607.738,400.546C609.252,398.829 613.915,394.859 613.915,392.26C613.915,391.281 612.562,393.674 611.861,394.356C610.332,395.843 608.733,397.257 607.035,398.549C601.886,402.465 596.256,405.239 590.377,407.862C584.28,410.582 577.938,410.14 571.688,409.754ZM177.92,491.876C177.789,490.837 177.544,489.375 177.521,488.641C177.434,485.811 177.61,482.998 177.961,480.19C179.027,471.661 181.208,462.948 183.749,454.751C192.333,427.061 212.724,402.617 231.464,380.994C235.093,376.806 239.062,372.913 242.325,368.425C242.63,368.006 246.834,361.161 247.323,361.406C249.328,362.408 244.33,371.962 243.82,373.121C240.868,379.829 240.559,385.894 240.379,393.186C240.079,405.352 240.944,417.294 242.69,429.336C243.292,433.494 246.631,441.997 245.289,446.024C244.861,447.308 244.034,443.623 243.493,442.382C242.177,439.361 240.853,436.354 239.601,433.304C238.998,431.837 238.597,427.615 237.717,428.934C236.446,430.842 236.437,435.172 235.846,437.398C233.791,445.134 231.582,452.905 230.234,460.803C228.664,469.994 227.201,479.113 226.366,488.402C224.564,508.452 226.976,531.471 221.381,550.921C214.788,573.839 191.494,594.115 167.087,591.064C166.694,591.015 161.804,590.123 161.939,589.582C162.037,589.19 166.092,587.896 166.56,587.636C170.503,585.445 174.054,582.146 177.195,578.947C185.485,570.503 190.907,558.784 194.849,547.769C205.591,517.756 208.555,484.345 213.358,452.968C214.71,444.131 216.137,435.31 217.489,426.473C217.931,423.579 219.971,418.607 219.397,415.738C219.127,414.386 218.355,418.289 217.84,419.567C217.77,419.743 217.698,419.919 217.627,420.095C216.442,423.006 215.216,425.899 213.998,428.796C211.132,435.618 208.11,442.364 205.196,449.163C204.554,450.662 203.235,455.451 201.781,456.421C200.945,456.978 202.142,454.442 202.396,453.47C202.971,451.268 203.555,449.068 204.129,446.865L177.921,491.874L177.922,491.894C177.967,492.241 177.998,492.54 178.003,492.746L178.004,492.754L177.997,492.945L177.987,492.996L177.983,493.009L177.978,493.021L177.974,493.028L177.973,493.029L177.971,493.032L177.967,493.038L177.964,493.04L177.96,493.043L177.957,493.045L177.952,493.047L177.949,493.048L177.947,493.049L177.946,493.049L177.944,493.049L177.947,493.049L177.953,493.047L177.959,493.044L177.965,493.04L177.973,493.029L177.98,493.016L177.988,492.992L177.997,492.942L178.003,492.746L177.92,491.876L177.762,492.816C177.648,493.232 177.535,493.649 177.421,494.065L177.585,493.335L177.92,491.876ZM235.448,578.633L235.448,578.633L235.471,578.773L235.448,578.633L235.45,578.633L235.449,578.631C235.448,578.629 235.448,578.628 235.447,578.63L235.448,578.633ZM177.846,492.96L177.9,493.025L177.904,493.029L177.922,493.043L177.925,493.044L177.938,493.048L177.944,493.049L177.943,493.049L177.939,493.048L177.938,493.048L177.938,493.048L177.93,493.046L177.921,493.042L177.906,493.031L177.904,493.029L177.902,493.028L177.9,493.025L177.887,493.013L177.847,492.962L177.846,492.96ZM553.1,365.372C552.51,364.436 553.49,367.55 553.698,368.637C554.157,371.029 554.707,373.406 555.345,375.756C557.509,383.739 557.827,392.977 566.924,394.342C567.782,394.471 570.415,395.244 571.215,394.764C571.523,394.579 570.48,393.249 570.385,393.104C567.91,389.326 565.889,385.151 563.842,381.131C561.234,376.007 558.585,370.881 555.851,365.823C555.51,365.193 553.92,361.378 553.023,361.378L553.1,365.372ZM288.657,112.895C282.363,116.211 276.106,119.508 270.379,124.155C252.882,138.35 239.871,161.538 231.833,182.281C227.235,194.145 222.68,205.754 219.079,217.974C217.881,222.04 216.629,226.089 215.435,230.157C215.025,231.553 214.646,232.954 214.316,234.371C214.292,234.471 213.801,236.466 213.712,236.413C213.303,236.167 213.834,233.032 213.866,232.648C214.2,228.555 214.788,224.494 215.523,220.454C218.59,203.588 224.012,187.244 229.045,170.889C230.646,165.683 232.076,160.43 234.137,155.38C234.809,153.734 235.498,152.092 236.212,150.463C236.592,149.596 238.023,147.192 237.353,147.862C231.653,153.562 230.234,162.558 226.663,169.699C209.771,203.485 206.925,244.046 204.833,281.423C204.147,293.683 203.135,305.668 201.244,317.807C200.17,324.697 197.917,332.974 192.757,338.133C192.276,338.615 196.887,336.157 197.854,335.353C200.842,332.872 202.881,331.387 205.479,328.481C212.835,320.252 217.095,308.107 221.658,297.025C232.179,271.475 241.529,241.955 251.567,217.996C256.2,206.936 258.298,195.085 262.948,184.004C268.058,171.827 273.707,161.013 282.144,150.792C284.987,147.349 288.043,144.092 291.199,140.936C292.218,139.918 293.233,138.894 294.261,137.885C294.753,137.403 296.42,136.436 295.732,136.436C294.412,136.436 291.111,140.273 290.124,141.101C284.213,146.058 278.434,151.136 273.199,156.818C250.016,181.98 240.387,216.438 227.859,247.388C223.78,257.468 219.926,267.531 216.335,277.791C215.129,281.238 213.967,284.698 212.746,288.141C212.358,289.234 211.982,290.337 211.638,291.444C211.453,292.036 211.461,293.639 211.023,293.2C209.641,291.819 211.448,282.216 211.55,280.436C212.318,267.036 214.338,254.439 217.817,241.472C230.207,195.289 249.889,143.316 288.657,112.895C291.879,111.197 295.112,109.494 298.287,107.603L292.077,110.304C290.92,111.149 289.779,112.014 288.657,112.895ZM494.02,131.27C502.051,134.009 509.688,143.17 515.944,148.676C543.143,172.616 556.369,203.361 568.278,237.01C573.399,251.48 578.114,265.988 584.207,280.101C584.565,280.931 589.056,292.555 589.465,292.478C589.934,292.39 589.024,284.104 588.997,283.497C588.567,273.561 587.9,264.291 585.387,254.629C575.693,217.354 563.559,176.472 541.236,144.479C534.558,134.909 526.103,126.749 517.041,119.475C514.008,117.041 510.96,114.612 507.855,112.27C506.288,111.089 501.465,109.425 503.248,108.605C504.592,107.988 510.16,111.439 511.37,112.023C520.353,116.357 527.012,122.412 533.867,129.55C552.38,148.829 565.262,170.374 574.355,195.524C577.622,204.564 579.75,213.815 582.153,223.098C582.88,225.911 583.232,231.834 585.067,234.123C585.605,234.794 585.007,232.402 584.958,231.543C584.864,229.926 584.707,228.31 584.56,226.697C584.133,221.99 583.615,217.281 582.885,212.611C581.014,200.657 577.854,188.599 573.933,177.141C572.19,172.046 570.223,167.032 568.417,161.96C568.152,161.216 566.866,160.074 567.583,159.744C568.039,159.534 571.867,167.863 572.091,168.314C576.868,177.94 581.549,187.272 584.45,197.682C594.408,233.413 593.847,270.512 597.501,307.264C598.234,314.628 599.23,322.466 602.332,329.214C603.322,331.369 606.168,336.981 606.168,336.981C606.168,336.981 600.382,333.894 599.034,332.687C588.921,323.64 582.785,308.761 578.102,296.404C561.139,251.651 551.409,203.653 524.916,162.976C518.94,153.802 510.495,146.477 503.053,138.53L494.02,131.27ZM340.935,169.753L340.962,169.755L340.956,169.755L340.943,169.754L340.935,169.753ZM341.143,169.722L341.712,169.491C343.107,168.836 345.836,167.16 346.718,166.697C351.579,164.142 356.62,162.237 361.992,161.069C368.173,159.725 374.473,158.328 380.82,158.206C383.122,158.162 388.338,159.539 390.445,158.368C391.675,157.685 391.619,150.117 391.73,148.852C392.597,139.033 393.566,127.937 390.402,118.444C389.39,115.408 387.006,112.757 384.147,111.358C383.823,111.199 379.427,109.881 379.427,109.846C379.427,109.707 384.484,110.302 384.839,110.364C389.307,111.148 392.368,113.283 393.826,107.847C395.32,102.278 395.089,97.675 392.411,92.551C391.934,91.64 387.463,87.347 387.507,86.956C387.63,85.842 394.69,81.777 396.721,79.481C397.654,78.427 399.207,74.133 400.199,73.637C400.341,73.566 401.59,75.742 401.701,75.895C402.809,77.429 404.089,78.838 405.233,80.345C406.059,81.434 412.213,86.178 412.017,87.55C411.831,88.846 409.201,90.789 408.549,92.13C406.311,96.73 405.354,102.297 406.367,107.361C406.945,110.25 409.297,111.789 412.071,112.33C413.265,112.563 415.722,112.276 415.722,112.276C415.722,112.276 413.423,114.511 412.513,115.819C410.736,118.374 409.451,121.478 409.035,124.569C407.729,134.274 407.814,148.248 411.26,157.439C411.683,158.567 413.226,159.442 414.112,160.151C419.862,164.75 420.145,160.464 427.312,158.152C434.169,155.94 441.85,155.157 448.668,157.861C453.027,159.589 457.298,162.602 460.615,165.919C460.847,166.151 463.571,169.12 463.11,169.581C462.785,169.906 457.014,167.805 456.575,167.701C449.702,166.078 442.511,165.551 435.479,165.206C417.184,164.307 398.833,165.67 380.529,165.67C372.582,165.67 361.155,163.091 353.416,165.67L341.715,169.49L341.712,169.491C341.481,169.599 341.287,169.68 341.143,169.722L341.008,169.752L341.008,169.752L341.007,169.752L340.973,169.755L340.962,169.755L341.008,169.752L341.143,169.722ZM566.594,709.277L566.701,709.235C568.243,708.763 578.16,709.683 579.448,709.683C586.66,709.683 594.813,705.181 600.487,701.077C608.259,695.455 614.056,687.394 618.494,678.934C620.196,675.689 621.746,672.38 622.794,668.866C622.976,668.595 623.168,668.313 623.345,668.039C623.345,668.039 623.749,667.363 623.749,667.363L623.749,667.363L623.75,667.361L623.751,667.359C623.837,667.198 623.906,667.047 623.953,666.912L623.954,666.91L624.007,666.703L624.016,666.594L624.011,666.528L623.996,666.469L623.976,666.425L623.964,666.405L623.948,666.384L623.945,666.381L623.942,666.377L623.919,666.355L623.872,666.323L623.866,666.321C623.849,666.311 623.83,666.303 623.81,666.297L623.718,666.276L623.71,666.275L623.707,666.275L623.606,666.269L623.71,666.275L623.81,666.297L623.876,666.326L623.917,666.354L623.945,666.381L623.978,666.429L623.996,666.469L624.011,666.533L624.015,666.598L624.006,666.706L623.953,666.912L623.749,667.363L623.345,668.039C623.345,668.039 622.795,668.864 622.795,668.864L623.606,666.269L623.601,666.27C623.599,666.27 623.598,666.271 623.596,666.271L623.59,666.275L623.58,666.282L623.559,666.307L623.376,666.762L623.031,668.032L623.024,668.058L622.794,668.866C622.536,669.249 622.299,669.609 622.155,669.891C620.916,672.326 619.542,674.7 618.019,676.968C612.218,685.609 604.079,692.737 594.964,697.725C586.767,702.21 577.785,703.81 569.146,707.05L566.703,709.235L566.701,709.235C566.659,709.248 566.624,709.262 566.595,709.277L566.594,709.277Z"
          style="fill: rgb(56, 25, 57); fill-opacity: 0.6"
        />
        <path
          id="highlight"
          d="M191.168,696.077C191.577,695.702 192.87,699.168 192.946,699.41C194.006,702.818 193.857,706.173 193.271,709.651C191.624,719.427 186.392,727.603 177.92,732.859C170.417,737.513 161.701,738.727 153.017,738.092C150.169,737.883 147.297,737.511 144.525,736.807C143.521,736.552 142.51,736.296 141.514,736.009C141.059,735.879 139.701,735.537 140.175,735.537C144.594,735.537 149.936,732.769 153.822,730.993C166.142,725.365 175.207,718.315 183.068,707.282L191.168,696.077ZM608.085,696.077C607.676,695.702 606.382,699.168 606.307,699.41C605.247,702.818 605.396,706.173 605.982,709.651C607.628,719.427 612.86,727.603 621.332,732.859C628.835,737.513 637.551,738.727 646.235,738.092C649.083,737.883 651.955,737.511 654.727,736.807C655.732,736.552 656.743,736.296 657.738,736.009C658.193,735.879 659.551,735.537 659.078,735.537C654.659,735.537 649.316,732.769 645.43,730.993C633.111,725.365 624.045,718.315 616.184,707.282L608.085,696.077ZM159.325,597.548C161.524,595.421 164.758,593.699 167.611,592.69C167.808,592.62 170.225,591.692 170.329,591.847C170.389,591.938 169.313,592.89 169.235,592.975C168.602,593.664 168.103,594.471 167.583,595.245C165.88,597.78 164.33,600.524 163.064,603.304C159.14,611.92 155.714,621.15 153.055,630.247C151.036,637.155 149.645,644.178 148.896,651.34C148.765,652.6 149.056,658.365 147.938,659.154C147.787,659.261 147.439,656.625 147.428,656.504C147.279,654.84 147.195,653.172 147.13,651.503C146.938,646.622 146.859,641.733 147.082,636.852C147.737,622.493 150.233,607.124 159.178,595.414L159.325,597.548ZM639.927,597.548C637.729,595.421 634.495,593.699 631.642,592.69C631.444,592.62 629.027,591.692 628.924,591.847C628.863,591.938 629.939,592.89 630.018,592.975C630.651,593.664 631.149,594.471 631.669,595.245C633.372,597.78 634.922,600.524 636.188,603.304C640.112,611.92 643.538,621.15 646.197,630.247C648.217,637.155 649.607,644.178 650.356,651.34C650.488,652.6 650.197,658.365 651.314,659.154C651.465,659.261 651.813,656.625 651.824,656.504C651.974,654.84 652.057,653.172 652.123,651.503C652.314,646.622 652.393,641.733 652.171,636.852C651.515,622.493 649.02,607.124 640.075,595.414L639.927,597.548ZM160.487,502.334C161.397,503.258 161.69,506.101 162.038,507.255C163.298,511.44 164.667,515.607 166.065,519.748C168.003,525.488 170.722,531.165 172.1,537.063C174.657,548.01 173.214,559.413 166.925,568.846C164.647,572.263 161.458,575.896 157.665,577.657C151.192,580.662 144.537,577.862 139.717,573.186C138.311,571.822 137.032,570.332 135.853,568.768C135.765,568.651 134.857,567.584 134.967,567.419C135.314,566.897 135.916,568.24 136.426,568.605C137.385,569.289 138.43,569.845 139.528,570.267C143.268,571.701 147.505,572.252 151.135,570.214C156.036,567.464 158.369,562.142 159.652,556.907C161.927,547.628 161.753,538.103 161.001,528.65L160.487,502.334ZM638.766,502.334C637.856,503.258 637.563,506.101 637.215,507.255C635.954,511.44 634.586,515.607 633.187,519.748C631.249,525.488 628.531,531.165 627.153,537.063C624.595,548.01 626.039,559.413 632.327,568.846C634.605,572.263 637.795,575.896 641.588,577.657C648.061,580.662 654.716,577.862 659.535,573.186C660.941,571.822 662.221,570.332 663.4,568.768C663.487,568.651 664.396,567.584 664.286,567.419C663.938,566.897 663.336,568.24 662.826,568.605C661.868,569.289 660.823,569.845 659.724,570.267C655.984,571.701 651.748,572.252 648.118,570.214C643.216,567.464 640.883,562.142 639.6,556.907C637.325,547.628 637.499,538.103 638.251,528.65L638.766,502.334ZM623.615,369.878C622.786,367.425 621.756,364.518 620.422,361.316C618.213,356.014 606.816,358.279 601.748,356.16C587.745,350.304 578.861,339.308 571.423,326.361C569.773,323.489 564.759,316.544 565.253,313.083C565.263,313.016 566.474,314.583 566.583,314.748C567.414,316.003 568.227,317.27 569.041,318.536C571.307,322.06 573.576,325.616 576.006,329.03C582.835,338.624 592.608,347.86 603.977,351.75C606.777,352.708 612.365,355.158 615.141,353.405C622.034,349.051 615.939,339.384 614.366,334.272C608.829,316.278 609.145,298.8 607.89,280.29C607.528,274.954 606.75,269.645 606.139,264.334C606.088,263.889 606.021,261.233 605.736,259.889L605.415,259.128C605.545,259.2 605.65,259.485 605.736,259.889L611.783,274.216C615.345,283.55 617.028,292.855 618.47,302.723C619.544,310.069 620.563,317.417 621.761,324.744C623.527,335.543 625.347,346.294 626.372,357.193C626.942,363.26 630.359,370.176 628.21,376.058C627.186,378.861 626.518,378.206 625.443,375.28C624.261,377.742 622.678,380.097 621.159,382.171C618.948,385.188 616.461,387.999 613.897,390.719C609.85,395.011 605.896,398.918 601.095,402.365L596.227,404.576C596.11,404.326 598.327,402.731 598.505,402.595C601.031,400.662 603.381,398.661 605.721,396.505C611.691,391.007 616.279,384.421 620.343,377.42C621.266,375.832 622.32,372.309 623.615,369.878ZM564.186,393.152C564.998,393.341 565.669,393.414 565.85,393.202C566.134,392.868 564.974,393.145 564.536,393.148C564.419,393.149 564.302,393.15 564.186,393.152ZM564.186,393.152C562.744,392.817 560.858,392.117 560.484,391.998C554.591,390.128 549.994,386.324 545.743,381.92C536.399,372.24 530.865,360.859 525.664,348.602C521.47,338.716 517.6,328.875 514.921,318.458L512.907,307.645C512.902,307.644 513.14,309.468 513.169,309.675C513.382,311.197 513.612,312.716 513.811,314.24C514.369,318.516 514.887,322.752 515.709,326.988C519.363,345.841 523.983,364.469 536.059,379.846C540.534,385.544 546.141,391.434 553.59,392.763C556.307,393.248 559.025,393.322 561.777,393.231C562.579,393.205 563.383,393.166 564.186,393.152ZM255.921,279.816C255.765,280.021 255.506,280.298 255.418,280.472C255.123,281.059 254.842,281.652 254.593,282.26C253.831,284.122 253.211,286.046 252.735,288C251.237,294.154 249.777,300.334 248.446,306.525C244.392,325.384 238.736,344.285 230.279,361.669C227.812,366.74 224.597,371.356 221.897,376.291C221.017,377.899 220.149,379.519 219.24,381.11C218.921,381.668 218.597,382.225 218.284,382.787C218.136,383.052 217.598,383.72 217.877,383.6C219.359,382.965 221.021,379.349 221.901,378.076C225.452,372.943 228.972,367.701 232,362.242C242.118,343.999 246.658,324.345 250.858,304.143C252.19,297.738 254.709,291.612 255.343,285.059L255.921,279.816C256.049,279.649 256.108,279.53 255.951,279.552L255.921,279.816ZM543.331,279.816C543.487,280.021 543.747,280.298 543.835,280.472C544.129,281.059 544.41,281.652 544.659,282.26C545.422,284.122 546.041,286.046 546.517,288C548.015,294.154 549.475,300.334 550.806,306.525C554.86,325.384 560.517,344.285 568.973,361.669C571.441,366.74 574.655,371.356 577.356,376.291C578.236,377.899 579.104,379.519 580.013,381.11C580.332,381.668 580.656,382.225 580.969,382.787C581.116,383.052 581.654,383.72 581.376,383.6C579.893,382.965 578.232,379.349 577.351,378.076C573.801,372.943 570.28,367.701 567.253,362.242C557.135,343.999 552.595,324.345 548.395,304.143C547.063,297.738 544.543,291.612 543.909,285.059L543.331,279.816C543.203,279.649 543.144,279.53 543.302,279.552L543.331,279.816ZM193.516,259.889C193.232,261.233 193.164,263.889 193.113,264.334C192.503,269.645 191.724,274.954 191.363,280.29C190.108,298.8 190.423,316.278 184.886,334.272C183.313,339.384 177.218,349.051 184.111,353.405C186.887,355.158 192.476,352.708 195.275,351.75C206.645,347.86 216.417,338.624 223.247,329.03C225.677,325.616 227.946,322.06 230.211,318.536C231.025,317.27 231.839,316.003 232.67,314.748C232.778,314.583 233.99,313.016 233.999,313.083C234.494,316.544 229.479,323.489 227.829,326.361C220.392,339.308 211.507,350.304 197.504,356.16C192.437,358.279 181.04,356.014 178.831,361.316C173.7,373.629 173.066,381.598 171.042,376.058C168.893,370.176 172.31,363.26 172.881,357.193C173.905,346.294 175.726,335.543 177.491,324.744C178.689,317.417 179.709,310.069 180.782,302.723C182.224,292.855 183.907,283.55 187.469,274.216L193.516,259.889C193.602,259.485 193.707,259.2 193.837,259.128L193.516,259.889ZM453.228,149.495C453.213,150.204 454.706,151.419 455.452,152.047C457.919,154.127 460.534,155.963 462.923,158.15C465.162,160.2 466.818,162.746 468.662,165.133C472.797,170.488 476.668,176.263 479.267,182.538C481.439,187.782 483.543,193.082 485.95,198.224C486.757,199.946 487.574,201.664 488.36,203.395C488.617,203.961 488.881,204.524 489.134,205.091C489.277,205.412 489.626,206.398 489.57,206.051C488.743,200.889 485.708,195.693 483.891,190.813C478.426,176.132 471.834,157.152 456.283,150.434L453.228,149.495ZM469.184,157.295C468.699,157.079 469.959,158.023 470.331,158.402C471.152,159.24 472.009,160.051 472.875,160.841C475.468,163.205 478.668,164.878 481.593,166.784C489.095,171.672 496.523,176.703 503.617,182.177C505.946,183.974 508.163,185.915 510.38,187.848C511.144,188.514 511.906,189.183 512.68,189.837C513.089,190.183 513.678,191.37 513.901,190.883C514.029,190.604 512.015,188.746 511.835,188.553C509.605,186.163 507.389,183.76 505.154,181.375C495.457,171.033 484.333,162.819 470.972,157.701L469.184,157.295ZM300.862,180.952C300.668,180.771 302.08,179.656 302.189,179.562C303.762,178.205 305.365,176.883 306.91,175.494C312.572,170.409 319.291,166.019 326.235,162.913C327.895,162.17 329.543,161.364 331.28,160.818C331.394,160.782 332.694,160.31 332.766,160.455C332.829,160.581 331.331,161.662 331.23,161.745C329.569,163.101 327.892,164.437 326.168,165.712C319.011,171.006 311.001,175.076 303.603,180.009L300.862,180.952ZM516.295,174.597C510.876,169.784 506.087,164.414 500.136,160.181C496.17,157.36 492.162,154.545 487.973,152.063C483.405,149.356 478.869,146.676 473.85,144.884C473.558,144.78 469.647,143.3 469.62,143.381C469.558,143.569 470.657,144.224 470.766,144.303C472,145.198 473.247,146.075 474.487,146.962C479.629,150.646 484.637,154.729 489.197,159.114C494.003,163.735 498.748,168.422 503.248,173.343C504.294,174.488 505.266,175.696 506.304,176.846C506.373,176.923 507.16,177.916 507.265,177.863C507.309,177.841 506.117,176.046 506.047,175.941C505.189,174.663 504.347,173.378 503.46,172.12C501.025,168.663 498.473,165.28 495.706,162.08C494.74,160.964 493.768,159.854 492.795,158.745C492.326,158.21 490.709,157.114 491.42,157.114C491.964,157.114 493.254,158.463 493.678,158.778C495.726,160.308 497.723,161.904 499.784,163.416C501.794,164.889 503.859,166.272 505.829,167.801C508.599,169.951 511.447,172.063 514.366,174.008L516.295,174.597ZM282.957,174.597C288.376,169.784 293.166,164.414 299.116,160.181C303.082,157.36 307.09,154.545 311.279,152.063C315.847,149.356 320.384,146.676 325.403,144.884C325.695,144.78 329.605,143.3 329.632,143.381C329.695,143.569 328.595,144.224 328.487,144.303C327.253,145.198 326.005,146.075 324.766,146.962C319.623,150.646 314.615,154.729 310.056,159.114C305.25,163.735 300.505,168.422 296.005,173.343C294.958,174.488 293.987,175.696 292.948,176.846C292.88,176.923 292.092,177.916 291.988,177.863C291.943,177.841 293.135,176.046 293.205,175.941C294.063,174.663 294.906,173.378 295.792,172.12C298.228,168.663 300.78,165.28 303.547,162.08C304.512,160.964 305.484,159.854 306.458,158.745C306.927,158.21 308.543,157.114 307.832,157.114C307.288,157.114 305.998,158.463 305.575,158.778C303.527,160.308 301.529,161.904 299.468,163.416C297.459,164.889 295.393,166.272 293.423,167.801C290.654,169.951 287.805,172.063 284.887,174.008L282.957,174.597ZM522.711,168.517C522.873,168.299 521.383,166.153 521.215,165.885C519.435,163.051 517.469,160.308 515.388,157.689C508.578,149.117 500.756,142.109 491.057,137.029C488.82,135.857 486.512,134.787 484.146,133.9C483.919,133.815 482.239,133.019 482.007,133.252C481.789,133.469 484.567,136.176 484.761,136.375C488.117,139.824 491.831,142.573 495.89,145.146C499.852,147.658 503.324,150.599 506.896,153.622C512.029,157.965 516.478,163.154 521.227,167.902L522.711,168.517ZM276.541,168.517C276.379,168.299 277.869,166.153 278.037,165.885C279.817,163.051 281.783,160.308 283.864,157.689C290.674,149.117 298.497,142.109 308.195,137.029C310.432,135.857 312.741,134.787 315.106,133.9C315.334,133.815 317.013,133.019 317.246,133.252C317.463,133.469 314.686,136.176 314.492,136.375C311.135,139.824 307.422,142.573 303.362,145.146C299.4,147.658 295.928,150.599 292.356,153.622C287.224,157.965 282.774,163.154 278.026,167.902L276.541,168.517ZM279.324,131.884C278.878,132.294 278.419,132.691 277.959,133.084C275.775,134.952 273.329,136.468 271.07,138.235C268.672,140.112 266.138,141.85 263.818,143.822L262.13,144.943C262.099,144.485 263.143,143.472 263.399,143.141C264.778,141.36 266.249,139.659 267.785,138.012C274.402,130.917 281.988,125.4 290.244,120.363C292.684,118.875 295.16,117.459 297.764,116.279C297.951,116.194 300.016,115.129 300.144,115.257C300.163,115.275 298.068,116.697 297.966,116.765C296.39,117.81 294.876,118.941 293.384,120.1C288.259,124.081 284.334,129.174 280.456,134.313C279.574,135.483 278.699,136.658 277.78,137.8C277.706,137.891 276.891,138.76 276.942,138.861C277.074,139.125 277.4,138.489 277.629,138.302C278.107,137.915 278.592,137.536 279.076,137.157C280.58,135.979 282.178,134.946 283.764,133.883C288.564,130.668 293.533,127.804 298.731,125.274C300.59,124.369 302.507,123.591 304.43,122.832C305.124,122.558 305.821,122.29 306.519,122.028C306.836,121.909 307.708,121.425 307.469,121.665C306.603,122.53 304.752,123.059 303.692,123.648C301.295,124.98 298.963,126.429 296.697,127.972C289.671,132.759 282.958,138.188 276.495,143.705C273.013,146.677 269.847,149.935 266.813,153.359C265.823,154.477 264.819,155.581 263.818,156.689C263.701,156.819 262.22,158.465 262.176,158.41C262.03,158.227 263.167,156.683 263.265,156.527C264.428,154.678 265.619,152.847 266.847,151.041C270.435,145.761 273.847,140.385 277.367,135.062C277.619,134.68 278.478,133.131 279.324,131.884C279.563,131.664 279.797,131.441 280.026,131.213C280.346,130.893 281.383,130.201 280.931,130.201C280.57,130.201 279.951,130.96 279.324,131.884ZM519.928,131.884C520.374,132.294 520.834,132.691 521.294,133.084C523.477,134.952 525.924,136.468 528.182,138.235C530.581,140.112 533.114,141.85 535.434,143.822L537.122,144.943C537.153,144.485 536.109,143.472 535.853,143.141C534.474,141.36 533.003,139.659 531.467,138.012C524.85,130.917 517.265,125.4 509.008,120.363C506.569,118.875 504.092,117.459 501.488,116.279C501.301,116.194 499.236,115.129 499.108,115.257C499.09,115.275 501.184,116.697 501.287,116.765C502.862,117.81 504.376,118.941 505.868,120.1C510.993,124.081 514.919,129.174 518.796,134.313C519.679,135.483 520.553,136.658 521.472,137.8C521.546,137.891 522.361,138.76 522.31,138.861C522.178,139.125 521.852,138.489 521.623,138.302C521.146,137.915 520.661,137.536 520.176,137.157C518.672,135.979 517.075,134.946 515.489,133.883C510.688,130.668 505.719,127.804 500.522,125.274C498.662,124.369 496.745,123.591 494.823,122.832C494.129,122.558 493.432,122.29 492.733,122.028C492.416,121.909 491.544,121.425 491.784,121.665C492.649,122.53 494.501,123.059 495.56,123.648C497.957,124.98 500.289,126.429 502.555,127.972C509.582,132.759 516.294,138.188 522.757,143.705C526.239,146.677 529.406,149.935 532.439,153.359C533.43,154.477 534.433,155.581 535.434,156.689C535.552,156.819 537.033,158.465 537.077,158.41C537.222,158.227 536.086,156.683 535.987,156.527C534.824,154.678 533.634,152.847 532.406,151.041C528.818,145.761 525.406,140.385 521.886,135.062C521.633,134.68 520.774,133.131 519.928,131.884C519.69,131.664 519.455,131.441 519.226,131.213C518.907,130.893 517.869,130.201 518.321,130.201C518.683,130.201 519.302,130.96 519.928,131.884ZM401.517,60.664C404.908,60.556 408.301,60.495 411.693,60.448C426.576,60.239 441.594,61.444 456.097,64.88C500.237,75.338 546.721,101.264 566.612,143.809L546.574,126.369C546.637,127.374 550.093,130.338 550.738,131.137C553.974,135.15 556.897,139.416 559.382,143.934C559.851,144.786 562.347,148.457 561.915,149.537C561.914,149.54 560.984,148.517 560.921,148.44C560.345,147.739 559.749,147.055 559.146,146.378C557.308,144.313 555.399,142.336 553.418,140.407C547.218,134.368 541.627,127.743 535.402,121.728C517.458,104.393 495.936,94.186 472.951,85.113C456.881,78.769 440.584,73.879 423.304,72.471C416.586,71.924 409.768,71.391 403.017,71.441C402.703,71.775 396.549,71.775 396.235,71.441C389.484,71.391 382.667,71.924 375.949,72.471C358.669,73.879 342.372,78.769 326.302,85.113C303.316,94.186 281.794,104.393 263.851,121.728C257.625,127.743 252.034,134.368 245.834,140.407C243.854,142.336 241.945,144.313 240.106,146.378C239.503,147.055 238.907,147.739 238.332,148.44C238.269,148.517 237.339,149.54 237.338,149.537C236.905,148.457 239.401,144.786 239.87,143.934C242.355,139.416 245.279,135.15 248.514,131.137C249.159,130.338 252.615,127.374 252.678,126.369L232.64,143.809C252.531,101.264 299.015,75.338 343.155,64.88C357.658,61.444 372.677,60.239 387.56,60.448C390.951,60.495 394.344,60.556 397.735,60.664C398.401,60.648 399.097,60.696 399.626,60.711C400.156,60.696 400.851,60.648 401.517,60.664Z"
          style="fill: rgb(252, 255, 216); fill-opacity: 0.7"
        />
        <g id="lines">
          <g>
            <path
              d="M177.784,505.592C178.439,501.363 177.127,494.572 177.518,489.703C178.49,477.629 181.098,464.565 185.408,453.238C193.542,431.857 206.347,412.247 220.382,394.313C229.673,382.442 240.433,371.624 248.213,358.657"
              style="fill: none; stroke: black; stroke-width: 2.1px"
            />
            <path
              d="M199.517,470.127C199.569,470.135 200.253,465.889 200.312,465.586C200.914,462.537 201.681,459.518 202.522,456.527C205.024,447.632 207.783,438.783 210.553,429.968C218.096,405.968 233.531,387.717 243.523,365.235"
              style="fill: none; stroke: black; stroke-width: 2.1px"
            />
            <path d="M172.588,467.356C174.25,465.076 174.07,458.513 174.666,455.795C176.444,447.676 179,439.498 183.146,432.243" style="fill: none; stroke: black; stroke-width: 2.1px" />
            <path d="M176.164,367.305C176.814,368.349 185.187,368.057 186.834,367.985C199.168,367.449 211.365,357.633 217.543,347.337" style="fill: none; stroke: black; stroke-width: 2.1px" />
            <path
              d="M177.904,353.202C176.554,353.464 180.61,353.722 181.977,353.877C184.843,354.201 187.414,354.032 190.264,353.633C198.668,352.456 205.822,348.786 211.902,342.827C229.3,325.777 241.146,299.775 249.357,277.194"
              style="fill: none; stroke: black; stroke-width: 2.1px"
            />
            <path
              d="M181.908,339.861C182.134,339.431 182.341,340.749 182.684,341.092C183.753,342.162 185.181,342.893 186.603,343.366C190.233,344.577 194.474,343.588 197.653,341.632C209.366,334.424 216.262,319.331 221.719,307.402C237.43,273.057 244.783,234.922 258.081,199.587C268.937,170.742 282.256,144.874 309.618,128.648C321.603,121.54 335.176,117.452 348.679,114.373C361.587,111.429 376.356,109.628 389.629,110.955"
              style="fill: none; stroke: black; stroke-width: 2.1px"
            />
            <path
              d="M207.431,397.832C206.341,398.395 208.784,395.776 209.576,394.839C211.186,392.937 212.797,391.033 214.382,389.109C219.083,383.4 223.176,377.719 227.115,371.441C238.568,353.189 245.166,332.004 249.742,311.051C261.533,257.064 265.868,191.478 321.08,163.494C328.261,159.854 335.609,156.182 343.424,154.089C356.484,150.59 368.988,149.566 382.42,149.566"
              style="fill: none; stroke: black; stroke-width: 2.1px"
            />
            <path
              d="M231.843,388.877C231.743,388.877 231.907,389.221 231.923,389.276C232.484,391.184 232.891,393.071 233.167,395.045C233.777,399.402 233.739,403.864 233.964,408.254C234.563,419.939 230.675,432.779 227.077,443.717C223.219,455.444 217.767,466.767 216.361,479.167C212.425,513.871 224.38,568.665 184.508,585.453C179.62,587.512 173.949,588.816 168.678,589.475"
              style="fill: none; stroke: black; stroke-width: 2.1px"
            />
            <path d="M159.657,627.317C159.671,620.232 166.802,610.992 170.626,605.403" style="fill: none; stroke: black; stroke-width: 2.1px" />
            <path d="M228.728,624.707C241.529,632.365 250.195,648.103 254.084,662.334" style="fill: none; stroke: black; stroke-width: 2.1px" />
            <path
              d="M234.834,575.595C234.141,574.914 235.531,577.41 235.907,578.307C236.646,580.067 237.364,581.835 238.127,583.585C240.383,588.762 242.769,593.857 245.192,598.956C252.769,614.906 260.79,628.8 264.488,646.323"
              style="fill: none; stroke: black; stroke-width: 2.1px"
            />
            <path
              d="M219.411,465.875C219.744,464.73 219.501,468.258 219.58,469.448C219.739,471.863 220.087,474.272 220.547,476.648C221.881,483.548 224.433,490.202 227.399,496.549C236.537,516.099 247.091,536.963 251.58,558.231"
              style="fill: none; stroke: black; stroke-width: 2.1px"
            />
            <path
              d="M247.762,470.944C247.603,470.19 248.08,472.45 248.239,473.204C248.577,474.802 248.91,476.399 249.296,477.986C250.494,482.909 251.729,487.812 253.139,492.679C257.213,506.745 263.716,520.95 272.873,532.47"
              style="fill: none; stroke: black; stroke-width: 2.1px"
            />
            <path
              d="M205.928,625.436C205.019,625.112 206.013,627.363 206.045,628.328C206.12,630.553 206.134,632.775 206.143,635.001C206.169,641.56 206.493,647.957 207.592,654.432C210.071,669.048 215.449,681.651 222.705,694.471C224.864,698.285 227.527,702.079 230.554,705.256C232.045,706.821 236.537,707.8 235.357,709.611C235.221,709.821 234.153,709.447 233.989,709.41C226.535,707.754 219.729,705.818 212.799,702.593C189.805,691.895 175.942,670.882 167.384,647.429"
              style="fill: none; stroke: black; stroke-width: 2.1px"
            />
            <path d="M195.16,726.449C195.089,726.317 196.812,724.792 196.932,724.667C200.768,720.676 203.767,715.857 206.776,711.238" style="fill: none; stroke: black; stroke-width: 2.1px" />
            <path d="M206.66,735.641C205.267,736.68 206.188,747.011 206.176,748.642C206.066,763.528 208.937,777.819 219.108,789.047" style="fill: none; stroke: black; stroke-width: 2.1px" />
            <path d="M219.166,755.526C217.793,756.178 218.813,764.015 218.901,765.171C219.628,774.791 222.459,785.067 228.179,792.974" style="fill: none; stroke: black; stroke-width: 2.1px" />
            <path d="M371.032,86.27C372.718,84.984 390.733,87.669 393.657,88.319" style="fill: none; stroke: black; stroke-width: 2.1px" />
          </g>
          <g transform="matrix(-1,0,0,1,799.575,0)">
            <path
              d="M177.784,505.592C178.439,501.363 177.127,494.572 177.518,489.703C178.49,477.629 181.098,464.565 185.408,453.238C191.303,437.741 200.216,422.541 210.02,408.52"
              style="fill: none; stroke: black; stroke-width: 2.1px"
            />
            <path d="M221.456,393.107C230.746,381.236 240.433,371.624 248.213,358.657" style="fill: none; stroke: black; stroke-width: 2.1px" />
            <g transform="matrix(-1,0,0,1,799.575,0)">
              <path
                d="M547.183,383.802C546.849,384.832 550.963,387.22 551.903,387.884C557.445,391.796 565.288,393.481 571.921,394.046C592.707,395.818 610.66,385.107 622.884,369.024"
                style="fill: none; stroke: black; stroke-width: 2.1px"
              />
            </g>
            <g transform="matrix(-1,0,0,1,799.575,0)">
              <path d="M545.154,400.289C552.532,405.203 561.065,408.813 569.955,409.755C594.341,412.341 616.363,395.26 626.054,373.739" style="fill: none; stroke: black; stroke-width: 2.1px" />
            </g>
            <g transform="matrix(-1,0,0,1,799.575,0)">
              <path
                d="M408.112,158.269C409.18,158.134 411.569,155.666 412.547,155.062C416.231,152.788 420.207,150.768 424.432,149.73C429.574,148.468 435.017,147.557 440.316,147.455C457.911,147.117 469.878,157.291 477.104,172.714"
                style="fill: none; stroke: black; stroke-width: 2.1px"
              />
            </g>
            <g transform="matrix(-1,0,0,1,799.575,0)">
              <path
                d="M413.663,162.211C413.092,162.566 414.919,161.729 415.551,161.5C416.759,161.062 417.947,160.567 419.151,160.117C422.887,158.719 426.586,157.44 430.518,156.707C442.9,154.398 453.024,157.807 461.705,166.472"
                style="fill: none; stroke: black; stroke-width: 2.1px"
              />
            </g>
            <path
              d="M199.517,470.127C199.569,470.135 200.253,465.889 200.312,465.586C200.914,462.537 201.681,459.518 202.522,456.527C205.024,447.632 207.783,438.783 210.553,429.968C212.742,423.004 216.051,416.098 219.676,409.454"
              style="fill: none; stroke: black; stroke-width: 2.1px"
            />
            <path d="M229.657,392.273C235.122,382.997 239.045,375.313 243.523,365.235" style="fill: none; stroke: black; stroke-width: 2.1px" />
            <path d="M172.588,467.356C174.25,465.076 174.07,458.513 174.666,455.795C176.444,447.676 179,439.498 183.146,432.243" style="fill: none; stroke: black; stroke-width: 2.1px" />
            <path d="M176.164,367.305C176.814,368.349 185.187,368.057 186.834,367.985C199.168,367.449 211.365,357.633 217.543,347.337" style="fill: none; stroke: black; stroke-width: 2.1px" />
            <path
              d="M177.904,353.202C176.554,353.464 180.61,353.722 181.977,353.877C184.843,354.201 187.414,354.032 190.264,353.633C198.668,352.456 205.822,348.786 211.902,342.827C229.3,325.777 241.146,299.775 249.357,277.194"
              style="fill: none; stroke: black; stroke-width: 2.1px"
            />
            <path
              d="M181.908,339.861C182.134,339.431 182.341,340.749 182.684,341.092C183.753,342.162 185.181,342.893 186.603,343.366C190.233,344.577 194.474,343.588 197.653,341.632C209.366,334.424 216.262,319.331 221.719,307.402C237.43,273.057 244.783,234.922 258.081,199.587C268.937,170.742 282.256,144.874 309.618,128.648C321.603,121.54 335.176,117.452 348.679,114.373C361.587,111.429 376.356,109.628 389.629,110.955"
              style="fill: none; stroke: black; stroke-width: 2.1px"
            />
            <path
              d="M212.898,391.148C217.6,385.44 223.176,377.719 227.115,371.441C238.568,353.189 245.166,332.004 249.742,311.051C261.533,257.064 261.394,181.896 334.919,154.942"
              style="fill: none; stroke: black; stroke-width: 2.1px"
            />
            <path
              d="M233.977,409.697C234.576,421.382 230.675,432.779 227.077,443.717C223.219,455.444 217.767,466.767 216.361,479.167C212.425,513.871 224.38,568.665 184.508,585.453C179.62,587.512 173.949,588.816 168.678,589.475"
              style="fill: none; stroke: black; stroke-width: 2.1px"
            />
            <path d="M159.657,627.317C159.671,620.232 166.802,610.992 170.626,605.403" style="fill: none; stroke: black; stroke-width: 2.1px" />
            <path d="M228.728,624.707C241.529,632.365 250.195,648.103 254.084,662.334" style="fill: none; stroke: black; stroke-width: 2.1px" />
            <path
              d="M234.834,575.595C234.141,574.914 235.531,577.41 235.907,578.307C236.646,580.067 237.364,581.835 238.127,583.585C240.383,588.762 242.769,593.857 245.192,598.956C252.769,614.906 260.79,628.8 264.488,646.323"
              style="fill: none; stroke: black; stroke-width: 2.1px"
            />
            <path
              d="M219.411,465.875C219.744,464.73 219.501,468.258 219.58,469.448C219.739,471.863 220.087,474.272 220.547,476.648C221.881,483.548 224.433,490.202 227.399,496.549C236.537,516.099 247.091,536.963 251.58,558.231"
              style="fill: none; stroke: black; stroke-width: 2.1px"
            />
            <path
              d="M247.762,470.944C247.603,470.19 248.08,472.45 248.239,473.204C248.577,474.802 248.91,476.399 249.296,477.986C250.494,482.909 251.729,487.812 253.139,492.679C257.213,506.745 263.716,520.95 272.873,532.47"
              style="fill: none; stroke: black; stroke-width: 2.1px"
            />
            <path
              d="M205.928,625.436C205.019,625.112 206.013,627.363 206.045,628.328C206.12,630.553 206.134,632.775 206.143,635.001C206.169,641.56 206.493,647.957 207.592,654.432C210.071,669.048 215.449,681.651 222.705,694.471C224.864,698.285 227.527,702.079 230.554,705.256C232.045,706.821 236.537,707.8 235.357,709.611C235.221,709.821 234.153,709.447 233.989,709.41C226.535,707.754 219.729,705.818 212.799,702.593C189.805,691.895 175.942,670.882 167.384,647.429"
              style="fill: none; stroke: black; stroke-width: 2.1px"
            />
            <path d="M195.16,726.449C195.089,726.317 196.812,724.792 196.932,724.667C200.768,720.676 203.767,715.857 206.776,711.238" style="fill: none; stroke: black; stroke-width: 2.1px" />
            <path d="M206.66,735.641C205.267,736.68 206.188,747.011 206.176,748.642C206.066,763.528 208.937,777.819 219.108,789.047" style="fill: none; stroke: black; stroke-width: 2.1px" />
            <path d="M219.166,755.526C217.793,756.178 218.813,764.015 218.901,765.171C219.628,774.791 222.459,785.067 228.179,792.974" style="fill: none; stroke: black; stroke-width: 2.1px" />
            <path d="M371.032,86.27C372.718,84.984 390.733,87.669 393.657,88.319" style="fill: none; stroke: black; stroke-width: 2.1px" />
          </g>
        </g>
      </g>
      <path
        d="M460.848,165.778C450.671,162.994 439.889,161.911 429.887,161.494C422.874,161.202 404.253,163.011 404.001,162.759C403.204,161.962 400.407,107.808 400.37,107.817L399.707,99.94L399.186,107.887C399.148,107.879 397.01,162.291 396.213,163.088C395.961,163.34 377.552,161.202 370.539,161.494C350.344,162.336 326.973,165.892 311.835,180.679C264.857,226.564 267.541,302.881 247.536,361.21C246.482,364.282 251.184,370.731 253.127,383.231C255.263,396.971 255.351,406.186 255.134,420.121C254.492,461.256 255.749,488.327 273.741,521.858C276.767,527.497 280.286,532.86 284.596,537.608C287.462,540.766 290.507,543.649 293.991,546.115C296.821,548.117 306.801,554.168 306.801,554.168C306.801,554.168 290.422,550.877 278.557,538.931C275.569,535.922 273.402,532.2 271.195,528.588C271.166,528.542 270.673,527.748 270.622,527.799C270.369,528.052 271.688,531.094 271.787,531.391C275.059,541.208 277.705,550.606 275.715,560.958C271.787,581.382 262.045,599.724 261.148,620.94C260.213,643.076 268.875,664.019 266.438,686.765C265.152,698.771 263.246,710.488 260.082,722.155C259.669,723.678 256.253,733.287 256.253,733.287C256.253,733.287 257.975,718.232 258.089,713.806C258.419,700.927 257.439,688.211 255.918,675.436C255.436,671.385 254.698,667.383 253.944,663.376C253.53,661.175 253.295,654.744 252.464,656.823C251.049,660.359 255.166,686.425 253.687,695.213C249.935,717.504 236.569,736.634 235.139,759.516C234.464,770.325 235.78,780.326 240.93,790.002C242.659,793.252 243.479,796.504 245.812,799.348C246.89,800.662 250.883,803.69 249.306,803.059C240.713,799.622 233.488,793.675 225.719,788.947C223.755,787.751 220.848,788.557 218.633,787.585C207.239,782.582 195.671,775.465 190.942,763.268C187.722,754.965 188.059,743.435 190.843,735.083C192.137,731.201 197.001,723.003 197.001,723.003C197.001,723.003 182.881,736.551 173.356,739.05C171,739.668 165.546,739.947 161.198,740.095C159.225,740.524 157.18,740.632 155.079,740.313C154.671,740.251 157.543,740.22 161.198,740.095C167.324,738.764 172.756,734.339 177.046,729.971C180.678,726.273 183.922,722.36 186.659,717.95C205.974,686.832 176.928,690.934 164.967,662.626C161.471,654.352 160.187,645.076 159.342,636.198C159.063,633.274 161.386,621.866 161.386,621.866C161.386,621.866 156.29,634.703 155.947,636.395C152.899,651.429 155.219,667.682 162.756,681.081C165.328,685.653 181.09,698.925 181.09,698.925C181.09,698.925 163.934,687.204 161.138,683.489C145.866,663.193 145.885,634.509 155.039,611.624C157.322,605.917 159.991,600.409 163.487,595.341C163.871,594.783 169.546,588.235 169.546,588.235C169.546,588.235 153.009,589.307 146.472,586.31C138.012,582.433 129.756,574.024 127.014,564.976C125.514,560.028 128.203,551.198 128.203,551.198C128.203,551.198 128.811,560.501 131.788,565.655C138.36,577.032 160.067,579.183 165.658,564.175C179.555,526.872 150.482,486.639 152.844,446.476C153.773,430.679 163.339,401.655 171.323,376.801C172.486,373.177 175.007,363.524 176.28,357.858C177.377,352.974 176.078,351.199 177.092,347.464C178.586,341.966 179.833,340.409 180.507,338.198C183.002,330.015 183.311,322.248 183.672,319.767C187.385,294.215 191.165,269.737 197.682,244.782C210.762,194.695 237.727,124.64 285.613,99.04C303.872,89.279 321.699,77.471 341.631,72.408C360.641,67.578 378.334,65.754 397.625,65.489L397.622,65.454C398.488,65.454 399.351,65.456 400.213,65.463C401.075,65.456 401.937,65.454 402.804,65.454L402.801,65.489C422.091,65.754 439.784,67.578 458.795,72.408C478.726,77.471 496.554,89.279 514.813,99.04C562.698,124.64 589.664,194.695 602.744,244.782C609.261,269.737 613.04,294.215 616.754,319.767C617.115,322.248 617.424,330.015 619.919,338.198C620.593,340.409 621.84,341.966 623.333,347.464C624.348,351.199 623.048,352.974 624.146,357.858C625.419,363.524 627.939,373.177 629.103,376.801C637.087,401.655 646.652,430.679 647.582,446.476C649.944,486.639 620.87,526.872 634.768,564.175C640.359,579.183 662.066,577.032 668.637,565.655C671.615,560.501 672.223,551.198 672.223,551.198C672.223,551.198 674.912,560.028 673.412,564.976C670.669,574.024 662.414,582.433 653.953,586.31C647.416,589.307 630.879,588.235 630.879,588.235C630.879,588.235 636.554,594.783 636.939,595.341C640.434,600.409 643.104,605.917 645.387,611.624C654.541,634.509 654.56,663.193 639.288,683.489C636.492,687.204 619.336,698.925 619.336,698.925C619.336,698.925 635.097,685.653 637.669,681.081C645.206,667.682 647.526,651.429 644.479,636.395C644.136,634.703 639.04,621.866 639.04,621.866C639.04,621.866 641.362,633.274 641.084,636.198C640.238,645.076 638.955,654.352 635.459,662.626C623.497,690.934 594.452,686.832 613.767,717.95C616.504,722.36 619.748,726.273 623.379,729.971C627.669,734.339 633.101,738.764 639.228,740.095C642.882,740.22 645.755,740.251 645.347,740.313C643.245,740.632 641.2,740.524 639.228,740.095C634.88,739.947 629.426,739.668 627.07,739.05C617.545,736.551 603.425,723.003 603.425,723.003C603.425,723.003 608.289,731.201 609.583,735.083C612.367,743.435 612.704,754.965 609.484,763.268C604.755,775.465 593.187,782.582 581.792,787.585C579.578,788.557 576.67,787.751 574.706,788.947C566.938,793.675 559.713,799.622 551.12,803.059C549.543,803.69 553.536,800.662 554.614,799.348C556.947,796.504 557.766,793.252 559.496,790.002C564.646,780.326 565.962,770.325 565.286,759.516C563.856,736.634 550.49,717.504 546.738,695.213C545.259,686.425 549.376,660.359 547.962,656.823C547.13,654.744 546.896,661.175 546.482,663.376C545.728,667.383 544.99,671.385 544.508,675.436C542.987,688.211 542.007,700.927 542.337,713.806C542.45,718.232 544.172,733.287 544.172,733.287C544.172,733.287 540.756,723.678 540.343,722.155C537.18,710.488 535.274,698.771 533.988,686.765C531.551,664.019 540.213,643.076 539.277,620.94C538.381,599.724 528.639,581.382 524.711,560.958C522.72,550.606 525.367,541.208 528.639,531.391C528.738,531.094 530.057,528.052 529.803,527.799C529.752,527.748 529.259,528.542 529.231,528.588C527.024,532.2 524.857,535.922 521.869,538.931C510.004,550.877 493.624,554.168 493.624,554.168C493.624,554.168 503.605,548.117 506.434,546.115C509.919,543.649 512.963,540.766 515.829,537.608C520.139,532.86 523.659,527.497 526.685,521.858C544.677,488.327 545.933,461.256 545.292,420.121C545.179,412.893 545.149,406.935 545.444,400.956C536.379,395.776 528.881,388.363 524.177,378.93C513.619,357.759 510.142,333.778 506.205,310.755C500.864,279.529 494.321,242.311 484.596,212.134C479.047,194.919 474.181,179.478 461.3,166.243L460.848,165.778ZM476.148,171.708C500.739,216.502 502.158,278.914 518.217,326.127C525.172,346.573 532.03,368.907 547.043,384.922C547.124,384.367 547.21,383.803 547.298,383.231C549.241,370.731 553.943,364.282 552.89,361.21C532.884,302.881 535.569,226.564 488.591,180.679C484.882,177.056 480.679,174.108 476.148,171.708Z"
        style="fill: none; stroke: black; stroke-width: 2.1px"
      />
    </g>
  </g>
</svg>