<svg
  width="100%"
  height="100%"
  viewBox="0 0 800 800"
  xmlns="http://www.w3.org/2000/svg"
>
  <g id="hairstyles-back">
    <g id="hairstyle-8-back">
      <path
        d="M398.906,24.368C412.976,22.794 428.158,29.884 439.968,30.534C455.928,31.413 467.861,29.361 477.869,31.447C495.521,35.125 527.808,52.24 527.808,52.24C550.537,57.784 546.402,65.113 560.087,76.485C571.518,85.985 586.149,91.424 597.418,101.083C603.001,105.869 614.519,117.25 619.096,122.844C621.543,125.835 622.039,130.102 625.307,132.409C633.354,138.09 644.349,139.267 651.354,146.654C665.108,161.158 667.772,180.224 680.362,195.228C696.939,214.984 722.926,226.718 736.907,248.833C741.527,256.141 741.33,265.123 743.926,273.162C746.03,279.677 751.079,287.04 750.883,294.115C750.556,305.901 733.741,305.633 734.774,328.03C734.923,331.242 731.457,335.274 734.074,336.836C739.915,340.325 744.768,343.648 742.2,350.962C741.712,352.353 745.169,354.227 745.417,355.63C746.066,359.311 746.49,360.184 746.455,363.615C746.432,365.845 737.952,367.783 737.439,368.88C734.884,374.342 736.792,378.154 735.278,380.823C734.492,382.209 737.62,384.758 736.994,386.397C736.193,388.494 731.971,392.567 730.308,394.339C727.965,396.835 724.494,397.704 721.413,398.089C719.61,398.314 717.725,399.545 716.431,398.67C714.786,397.557 713.812,393.697 713.994,391.744C714.115,390.444 710.648,392.555 710.321,391.638C709.613,389.646 710.463,387.464 707.833,387.973C705.245,388.473 699.656,391.185 699.414,396.481C699.266,399.711 695.771,397.209 696.556,400.817C696.85,402.168 701.304,405.089 701.1,406.413C700.773,408.536 696.905,411.089 695.91,411.852C694.174,413.181 697.271,415.085 696.101,416.429C694.524,418.24 691.977,419.456 691.537,421.136C690.955,423.359 694.876,423.712 693.843,425.455C692.272,428.108 689.329,427.825 688.176,429.275C686.214,431.743 684.209,429.372 683.541,430.684C682.489,432.75 683.107,437.502 683.231,438.727C683.507,441.455 680.636,444.707 678.65,446.176C677.095,447.326 673.906,445.27 666.535,447.831C664.231,448.632 663.673,451.078 662.802,450.654C660.84,449.699 660.745,446.463 660.528,441.975C660.467,440.723 656.719,442.579 656.072,441.733C654.102,439.16 654.853,438.26 654.201,437.249C653.326,435.894 649.532,438.395 648.286,437.539C646.732,436.471 646.187,435.167 644.192,435.036C641.542,434.862 636.096,438.149 632.512,440.355C627.236,443.604 635.14,449.123 631.655,450.108C625.506,451.846 626.508,456.613 625.387,458.748C624.859,459.754 629.079,462.575 629.093,463.543C629.136,466.414 629.203,467.278 628.922,468.446C628.58,469.87 631.352,471.839 631.65,473.152C632.546,477.101 632.182,481.18 631.854,483.051C631.34,485.989 635.335,483.104 635.462,485.052C635.622,487.5 631.915,492.294 631.086,494.485C629.873,497.69 629.014,499.814 627.191,501.63C625.075,503.737 619.286,505.203 616.423,507.137C612.969,509.471 614.517,512.428 606.269,511.054C604.088,510.691 600.818,509.475 598.927,510.304C597.204,511.059 598.754,513.622 597.118,514.287C595.542,514.928 595.073,513.484 593.608,514.097C591.687,514.9 591.66,518.178 589.958,518.789C588.422,519.341 587.484,515.988 586.199,516.468C581.719,518.143 584.365,519.763 582.78,520.183C578.882,521.218 579.676,518.894 578.79,519.291C575.621,520.708 576.781,523.012 576.025,523.538C573.002,525.638 572.027,522.583 570.104,527.147C568.588,530.746 568.609,535.425 566.855,537.355C565.002,539.394 557.54,539.165 557.449,541.481C552.244,544.114 546.78,546.14 542.792,546.27C539.012,546.394 535.845,543.621 532.004,544.697C527.948,545.833 524.29,549.705 519.975,549.832C512.624,550.048 512.043,528.982 496.764,532.709C485.197,535.53 472.642,579.521 463.582,586.315C460.599,588.553 449.31,592.36 444.808,594.655C437.048,598.612 429.045,602.575 422.093,607.789C418.289,610.642 412.385,612.056 408.187,614.071C407.565,614.369 393.307,616.124 392.788,616.028C392.788,616.028 375.608,609.903 371.805,607.051C364.853,601.837 356.261,598.956 348.501,595C343.999,592.704 334.839,588.553 331.856,586.315C322.796,579.521 315.277,535.53 303.71,532.709C288.432,528.982 287.851,550.048 280.5,549.832C276.185,549.705 272.526,545.833 268.47,544.697C264.629,543.621 261.462,546.394 257.683,546.27C253.694,546.14 248.23,544.114 243.025,541.481C242.934,539.165 235.472,539.394 233.619,537.355C231.865,535.425 231.886,530.746 230.37,527.147C228.447,522.583 227.472,525.638 224.449,523.538C223.693,523.012 224.854,520.708 221.684,519.291C220.798,518.894 221.593,521.218 217.694,520.183C216.109,519.763 218.755,518.143 214.275,516.468C212.99,515.988 212.052,519.341 210.517,518.789C208.815,518.178 208.787,514.9 206.866,514.097C205.401,513.484 204.933,514.928 203.356,514.287C201.72,513.622 203.27,511.059 201.548,510.304C199.656,509.475 196.386,510.691 194.205,511.054C185.957,512.428 187.506,509.471 184.051,507.137C181.188,505.203 175.399,503.737 173.283,501.63C171.46,499.814 170.601,497.69 169.388,494.485C168.559,492.294 164.852,487.5 165.012,485.052C165.139,483.104 169.134,485.989 168.62,483.051C168.292,481.18 167.928,477.101 168.825,473.152C169.123,471.839 171.895,469.87 171.552,468.446C171.271,467.278 171.338,466.414 171.381,463.543C171.395,462.575 175.615,459.754 175.087,458.748C173.966,456.613 174.968,451.846 168.819,450.108C165.334,449.123 173.238,443.604 167.962,440.355C164.379,438.149 158.933,434.862 156.282,435.036C154.287,435.167 153.742,436.471 152.188,437.539C150.942,438.395 147.148,435.894 146.273,437.249C145.621,438.26 146.372,439.16 144.402,441.733C143.755,442.579 140.007,440.723 139.946,441.975C139.729,446.463 139.634,449.699 137.672,450.654C136.802,451.078 136.243,448.632 133.939,447.831C126.568,445.27 123.379,447.326 121.825,446.176C119.839,444.707 116.967,441.455 117.243,438.727C117.367,437.502 117.986,432.75 116.933,430.684C116.265,429.372 114.26,431.743 112.298,429.275C111.145,427.825 108.202,428.108 106.631,425.455C105.599,423.712 109.519,423.359 108.937,421.136C108.497,419.456 105.95,418.24 104.373,416.429C103.204,415.085 106.3,413.181 104.564,411.852C103.569,411.089 99.701,408.536 99.374,406.413C99.17,405.089 103.624,402.168 103.918,400.817C104.704,397.209 101.208,399.711 101.06,396.481C100.818,391.185 95.229,388.473 92.641,387.973C90.011,387.464 90.861,389.646 90.153,391.638C89.827,392.555 86.359,390.444 86.48,391.744C86.663,393.697 85.688,397.557 84.044,398.67C82.75,399.545 80.865,398.314 79.062,398.089C75.981,397.704 72.509,396.835 70.166,394.339C68.503,392.567 64.281,388.494 63.48,386.397C62.855,384.758 65.982,382.209 65.196,380.823C63.682,378.154 65.59,374.342 63.036,368.88C62.522,367.783 54.042,365.845 54.019,363.615C53.985,360.184 54.408,359.311 55.057,355.63C55.305,354.227 58.762,352.353 58.274,350.962C55.706,343.648 60.559,340.325 66.4,336.836C69.017,335.274 65.552,331.242 65.7,328.03C66.733,305.633 49.919,305.901 49.591,294.115C49.395,287.04 54.444,279.677 56.548,273.162C59.144,265.123 58.947,256.141 63.567,248.833C77.548,226.718 103.536,214.984 120.112,195.228C132.702,180.224 135.367,161.158 149.12,146.654C156.125,139.267 167.12,138.09 175.167,132.409C178.435,130.102 178.931,125.835 181.378,122.844C185.955,117.25 197.473,105.869 203.057,101.083C214.326,91.424 228.956,85.985 240.388,76.485C254.072,65.113 249.937,57.784 272.667,52.24C272.667,52.24 304.953,35.125 322.606,31.447C332.613,29.361 344.546,31.413 360.506,30.534C372.316,29.884 381.932,26.266 398.906,24.368Z"
        style="
          fill: rgb(
            var(--color_hairs_r, 183),
            var(--color_hairs_g, 55),
            var(--color_hairs_b, 88)
          );
        "
      />
      <clipPath id="_clip1_hair8">
        <path
          d="M398.906,24.368C412.976,22.794 428.158,29.884 439.968,30.534C455.928,31.413 467.861,29.361 477.869,31.447C495.521,35.125 527.808,52.24 527.808,52.24C550.537,57.784 546.402,65.113 560.087,76.485C571.518,85.985 586.149,91.424 597.418,101.083C603.001,105.869 614.519,117.25 619.096,122.844C621.543,125.835 622.039,130.102 625.307,132.409C633.354,138.09 644.349,139.267 651.354,146.654C665.108,161.158 667.772,180.224 680.362,195.228C696.939,214.984 722.926,226.718 736.907,248.833C741.527,256.141 741.33,265.123 743.926,273.162C746.03,279.677 751.079,287.04 750.883,294.115C750.556,305.901 733.741,305.633 734.774,328.03C734.923,331.242 731.457,335.274 734.074,336.836C739.915,340.325 744.768,343.648 742.2,350.962C741.712,352.353 745.169,354.227 745.417,355.63C746.066,359.311 746.49,360.184 746.455,363.615C746.432,365.845 737.952,367.783 737.439,368.88C734.884,374.342 736.792,378.154 735.278,380.823C734.492,382.209 737.62,384.758 736.994,386.397C736.193,388.494 731.971,392.567 730.308,394.339C727.965,396.835 724.494,397.704 721.413,398.089C719.61,398.314 717.725,399.545 716.431,398.67C714.786,397.557 713.812,393.697 713.994,391.744C714.115,390.444 710.648,392.555 710.321,391.638C709.613,389.646 710.463,387.464 707.833,387.973C705.245,388.473 699.656,391.185 699.414,396.481C699.266,399.711 695.771,397.209 696.556,400.817C696.85,402.168 701.304,405.089 701.1,406.413C700.773,408.536 696.905,411.089 695.91,411.852C694.174,413.181 697.271,415.085 696.101,416.429C694.524,418.24 691.977,419.456 691.537,421.136C690.955,423.359 694.876,423.712 693.843,425.455C692.272,428.108 689.329,427.825 688.176,429.275C686.214,431.743 684.209,429.372 683.541,430.684C682.489,432.75 683.107,437.502 683.231,438.727C683.507,441.455 680.636,444.707 678.65,446.176C677.095,447.326 673.906,445.27 666.535,447.831C664.231,448.632 663.673,451.078 662.802,450.654C660.84,449.699 660.745,446.463 660.528,441.975C660.467,440.723 656.719,442.579 656.072,441.733C654.102,439.16 654.853,438.26 654.201,437.249C653.326,435.894 649.532,438.395 648.286,437.539C646.732,436.471 646.187,435.167 644.192,435.036C641.542,434.862 636.096,438.149 632.512,440.355C627.236,443.604 635.14,449.123 631.655,450.108C625.506,451.846 626.508,456.613 625.387,458.748C624.859,459.754 629.079,462.575 629.093,463.543C629.136,466.414 629.203,467.278 628.922,468.446C628.58,469.87 631.352,471.839 631.65,473.152C632.546,477.101 632.182,481.18 631.854,483.051C631.34,485.989 635.335,483.104 635.462,485.052C635.622,487.5 631.915,492.294 631.086,494.485C629.873,497.69 629.014,499.814 627.191,501.63C625.075,503.737 619.286,505.203 616.423,507.137C612.969,509.471 614.517,512.428 606.269,511.054C604.088,510.691 600.818,509.475 598.927,510.304C597.204,511.059 598.754,513.622 597.118,514.287C595.542,514.928 595.073,513.484 593.608,514.097C591.687,514.9 591.66,518.178 589.958,518.789C588.422,519.341 587.484,515.988 586.199,516.468C581.719,518.143 584.365,519.763 582.78,520.183C578.882,521.218 579.676,518.894 578.79,519.291C575.621,520.708 576.781,523.012 576.025,523.538C573.002,525.638 572.027,522.583 570.104,527.147C568.588,530.746 568.609,535.425 566.855,537.355C565.002,539.394 557.54,539.165 557.449,541.481C552.244,544.114 546.78,546.14 542.792,546.27C539.012,546.394 535.845,543.621 532.004,544.697C527.948,545.833 524.29,549.705 519.975,549.832C512.624,550.048 512.043,528.982 496.764,532.709C485.197,535.53 472.642,579.521 463.582,586.315C460.599,588.553 449.31,592.36 444.808,594.655C437.048,598.612 429.045,602.575 422.093,607.789C418.289,610.642 412.385,612.056 408.187,614.071C407.565,614.369 393.307,616.124 392.788,616.028C392.788,616.028 375.608,609.903 371.805,607.051C364.853,601.837 356.261,598.956 348.501,595C343.999,592.704 334.839,588.553 331.856,586.315C322.796,579.521 315.277,535.53 303.71,532.709C288.432,528.982 287.851,550.048 280.5,549.832C276.185,549.705 272.526,545.833 268.47,544.697C264.629,543.621 261.462,546.394 257.683,546.27C253.694,546.14 248.23,544.114 243.025,541.481C242.934,539.165 235.472,539.394 233.619,537.355C231.865,535.425 231.886,530.746 230.37,527.147C228.447,522.583 227.472,525.638 224.449,523.538C223.693,523.012 224.854,520.708 221.684,519.291C220.798,518.894 221.593,521.218 217.694,520.183C216.109,519.763 218.755,518.143 214.275,516.468C212.99,515.988 212.052,519.341 210.517,518.789C208.815,518.178 208.787,514.9 206.866,514.097C205.401,513.484 204.933,514.928 203.356,514.287C201.72,513.622 203.27,511.059 201.548,510.304C199.656,509.475 196.386,510.691 194.205,511.054C185.957,512.428 187.506,509.471 184.051,507.137C181.188,505.203 175.399,503.737 173.283,501.63C171.46,499.814 170.601,497.69 169.388,494.485C168.559,492.294 164.852,487.5 165.012,485.052C165.139,483.104 169.134,485.989 168.62,483.051C168.292,481.18 167.928,477.101 168.825,473.152C169.123,471.839 171.895,469.87 171.552,468.446C171.271,467.278 171.338,466.414 171.381,463.543C171.395,462.575 175.615,459.754 175.087,458.748C173.966,456.613 174.968,451.846 168.819,450.108C165.334,449.123 173.238,443.604 167.962,440.355C164.379,438.149 158.933,434.862 156.282,435.036C154.287,435.167 153.742,436.471 152.188,437.539C150.942,438.395 147.148,435.894 146.273,437.249C145.621,438.26 146.372,439.16 144.402,441.733C143.755,442.579 140.007,440.723 139.946,441.975C139.729,446.463 139.634,449.699 137.672,450.654C136.802,451.078 136.243,448.632 133.939,447.831C126.568,445.27 123.379,447.326 121.825,446.176C119.839,444.707 116.967,441.455 117.243,438.727C117.367,437.502 117.986,432.75 116.933,430.684C116.265,429.372 114.26,431.743 112.298,429.275C111.145,427.825 108.202,428.108 106.631,425.455C105.599,423.712 109.519,423.359 108.937,421.136C108.497,419.456 105.95,418.24 104.373,416.429C103.204,415.085 106.3,413.181 104.564,411.852C103.569,411.089 99.701,408.536 99.374,406.413C99.17,405.089 103.624,402.168 103.918,400.817C104.704,397.209 101.208,399.711 101.06,396.481C100.818,391.185 95.229,388.473 92.641,387.973C90.011,387.464 90.861,389.646 90.153,391.638C89.827,392.555 86.359,390.444 86.48,391.744C86.663,393.697 85.688,397.557 84.044,398.67C82.75,399.545 80.865,398.314 79.062,398.089C75.981,397.704 72.509,396.835 70.166,394.339C68.503,392.567 64.281,388.494 63.48,386.397C62.855,384.758 65.982,382.209 65.196,380.823C63.682,378.154 65.59,374.342 63.036,368.88C62.522,367.783 54.042,365.845 54.019,363.615C53.985,360.184 54.408,359.311 55.057,355.63C55.305,354.227 58.762,352.353 58.274,350.962C55.706,343.648 60.559,340.325 66.4,336.836C69.017,335.274 65.552,331.242 65.7,328.03C66.733,305.633 49.919,305.901 49.591,294.115C49.395,287.04 54.444,279.677 56.548,273.162C59.144,265.123 58.947,256.141 63.567,248.833C77.548,226.718 103.536,214.984 120.112,195.228C132.702,180.224 135.367,161.158 149.12,146.654C156.125,139.267 167.12,138.09 175.167,132.409C178.435,130.102 178.931,125.835 181.378,122.844C185.955,117.25 197.473,105.869 203.057,101.083C214.326,91.424 228.956,85.985 240.388,76.485C254.072,65.113 249.937,57.784 272.667,52.24C272.667,52.24 304.953,35.125 322.606,31.447C332.613,29.361 344.546,31.413 360.506,30.534C372.316,29.884 381.932,26.266 398.906,24.368Z"
        />
      </clipPath>
      <g clip-path="url(#_clip1_hair8)">
        <path
          d="M399.806,28.222C402.944,28.026 412.43,29.115 413.412,30.15C416.333,30.75 419.264,31.443 422.219,32.173C461.888,41.975 457.258,29.239 482.26,37.724C501.706,44.323 521.004,55.21 531.381,60.666C545.645,68.164 548.567,82.704 569.791,92.282C600.435,106.112 603.608,117.572 622.928,138.326C631.823,147.882 649.106,151.881 653.668,163.422C659.794,178.921 667.521,195.474 679.787,206.605C697.117,222.329 736.962,241.394 737.606,267.365C737.763,273.697 739.959,275.314 745.19,286.173C748.062,292.135 745.577,296.863 739.571,303.292C733.033,310.292 724.201,313.725 721.429,323.889C719,332.796 720.665,337.62 724.556,340.56C729.152,344.032 736.324,345.162 735.882,351.414C735.032,363.432 727.171,377.762 722.196,388.504C721.414,390.191 718.025,399.468 715.402,399.377C707.869,399.115 710.42,380.748 698.282,389.52C680.138,402.631 691.732,414.817 682.753,426.63C677.229,433.897 665.341,450.312 656.362,453.005C650.895,454.645 646.113,444.821 641.329,443.081C629.049,438.617 617.297,456.587 617.13,466.907C617.074,470.428 618.585,473.324 621.183,475.626C621.711,476.094 625.743,478.286 625.045,479.031C620.967,483.381 615.589,486.6 611.437,490.987C609.468,493.067 608.611,496.65 606.369,498.354C604.426,499.831 601.522,499.47 599.481,501.011C595.366,504.118 592.985,508.923 588.016,511.159C586.153,511.997 583.948,509.776 581.776,510.734C581.108,511.029 577.727,514.929 577.456,514.82C575.157,513.901 572.71,507.996 568.525,511.817C566.443,513.718 569.729,518.461 567.956,521.351C564.034,527.742 556.129,530.902 552.07,537.515C546.997,545.784 550.455,553.771 541.119,560.11C532.475,565.979 519.994,561.951 510.364,567.199C502.671,571.391 496.755,578.154 489.02,582.303C480.54,586.85 471.085,588.626 463.233,594.493C450.64,603.901 440.709,616.439 425.992,622.859C423.108,624.117 420.158,625.117 417.16,625.921L417.221,629.91C413.175,628.764 407.931,629.46 403.752,629.143C402.436,629.043 401.12,628.934 399.806,628.811C398.492,628.934 397.177,629.043 395.861,629.143C391.681,629.46 386.438,628.764 382.391,629.91L382.453,625.921C379.455,625.117 376.504,624.117 373.621,622.859C358.904,616.439 348.973,603.901 336.38,594.493C328.528,588.626 319.073,586.85 310.593,582.303C302.858,578.154 296.942,571.391 289.249,567.199C279.619,561.951 267.137,565.979 258.494,560.11C249.158,553.771 252.616,545.784 247.542,537.515C243.484,530.902 235.579,527.742 231.657,521.351C229.884,518.461 233.17,513.718 231.088,511.817C226.903,507.996 224.455,513.901 222.157,514.82C221.886,514.929 218.505,511.029 217.837,510.734C215.664,509.776 213.459,511.997 211.596,511.159C206.628,508.923 204.247,504.118 200.132,501.011C198.091,499.47 195.187,499.831 193.244,498.354C191.001,496.65 190.145,493.067 188.176,490.987C184.024,486.6 178.646,483.381 174.568,479.031C173.87,478.286 177.902,476.094 178.43,475.626C181.028,473.324 182.539,470.428 182.482,466.907C182.316,456.587 170.564,438.617 158.283,443.081C153.5,444.821 148.718,454.645 143.251,453.005C134.271,450.312 122.383,433.897 116.86,426.63C107.881,414.817 119.474,402.631 101.33,389.52C89.192,380.748 91.743,399.115 84.211,399.377C81.587,399.468 78.198,390.191 77.417,388.504C72.442,377.762 64.581,363.432 63.731,351.414C63.272,344.921 71.275,344.239 75.938,340.494C79.566,337.58 80.502,332.39 78.184,323.889C75.411,313.725 66.58,310.292 60.041,303.292C54.036,296.863 51.551,292.135 54.423,286.173C59.654,275.314 61.849,273.697 62.006,267.365C62.65,241.394 102.496,222.329 119.826,206.605C132.092,195.474 139.819,178.921 145.945,163.422C150.507,151.881 167.79,147.882 176.685,138.326C196.004,117.572 199.178,106.112 229.822,92.282C251.045,82.704 253.968,68.164 268.231,60.666C278.609,55.21 297.907,44.323 317.353,37.724C342.355,29.239 337.725,41.975 377.394,32.173C380.349,31.443 383.28,30.75 386.201,30.15C387.183,29.115 396.669,28.026 399.806,28.222Z"
          style="
            fill: rgb(
              calc(var(--color_hairs_r, 183) - 93),
              calc(var(--color_hairs_g, 55) - 14),
              calc(var(--color_hairs_b, 88) - 15)
            );
          "
        />
        <path
          d="M629.698,460.502C629.77,459.395 628.442,462.353 628.031,463.385C627.231,465.397 626.335,467.592 626.407,469.793C626.577,474.976 630.354,483.594 628.069,488.045C624.45,495.092 621.712,501.965 614.065,505.657C610.556,507.351 607.186,508.541 604.143,511.116C603.748,511.45 601.186,513.427 602.268,514.118C606.247,516.66 617.964,512.335 621.696,510.985C640.747,504.094 655.614,480.673 636.981,464.429L629.698,460.502ZM170.361,456.756C170.359,456.426 171.904,459.102 172.031,459.618C172.62,462.015 172.877,464.424 172.764,466.888C172.596,470.556 173.221,474.351 172.839,477.984C172.453,481.651 170.922,485.224 172.379,488.887C173.102,490.705 174.71,491.482 175.762,493.014C180.856,500.436 185.514,504.641 193.661,508.321C195.044,508.945 197.226,511.555 195.099,512.697C190.685,515.067 182.442,511.918 178.151,510.694C171.651,508.84 164.72,506.372 159.896,501.42C150.17,491.436 150.56,473.061 160.405,463.213L170.361,456.756ZM96.635,394.32C96.635,394.306 99.94,396.168 100.35,396.418C102.252,397.575 107.382,400.163 107.174,402.884C107.046,404.561 105.026,406.017 105.649,407.759C106.243,409.421 108.466,409.655 109.118,411.139C109.803,412.698 108.648,414.575 109.439,416.281C110.151,417.816 111.846,418.352 112.581,419.807C113.484,421.596 112.464,423.537 112.926,425.424C114.221,430.706 116.94,430.663 114.289,436.547C113.756,437.73 113.075,439.053 111.95,439.783C108.096,442.283 103.732,436.376 101.807,433.867C95.705,425.913 91.656,415.434 93.485,405.352L96.635,394.32ZM698.96,399.671C698.609,399.359 697.867,400.099 697.528,400.328C693.625,402.973 695.163,405.502 694.432,409.339C694.387,409.576 694.317,409.823 694.183,410.027C693.416,411.196 691.549,411.019 690.896,412.045C689.13,414.82 688.518,422.82 688.285,426.369C688.16,428.278 686.234,430.729 687.525,432.505C689.995,435.9 698.658,430.264 700.592,428.683C707.459,423.069 711.135,411.952 706.407,403.868L698.96,399.671ZM737.46,372.465C736.924,371.143 741.249,366.207 741.749,365.013C742.935,362.179 742.115,355.606 741.832,352.398C741.369,347.154 735.454,342.7 736.832,336.875L740.799,337.029C750.407,336.719 754.206,348.226 756.536,355.614C757.65,359.146 758.873,363.77 755.966,366.805C754.012,368.846 751.233,369.842 748.62,370.733C747.977,370.953 745.927,371.705 743.749,372.305C748.136,375.716 746.078,388.528 744.205,391.917L737.351,398.141C737.989,397.377 734.075,391.363 733.691,390.612C730.993,385.336 730.852,375.788 737.46,372.465ZM63.75,333.791C63.747,333.649 63.762,333.61 63.805,333.745L63.75,333.791C63.759,334.24 63.937,335.717 63.931,335.99C63.895,337.629 63.952,339.379 63.407,340.948C61.656,345.991 60.043,350.034 58.986,355.344C57.328,363.669 64.368,369.097 66.98,376.322C67.864,378.77 67.374,381.338 67.182,383.861C66.939,387.048 68.52,393.301 63.71,394C57.638,394.883 53.42,384.546 51.144,380.537C48.495,375.869 44.892,370.923 43.929,365.535C42.196,355.841 48.013,343.785 57.044,339.444L63.75,333.791Z"
          style="fill: rgb(235, 214, 197)"
        />
      </g>
      <path
        d="M398.906,24.368C412.976,22.794 428.158,29.884 439.968,30.534C455.928,31.413 467.861,29.361 477.869,31.447C495.521,35.125 527.808,52.24 527.808,52.24C550.537,57.784 546.402,65.113 560.087,76.485C571.518,85.985 586.149,91.424 597.418,101.083C603.001,105.869 614.519,117.25 619.096,122.844C621.543,125.835 622.039,130.102 625.307,132.409C633.354,138.09 644.349,139.267 651.354,146.654C665.108,161.158 667.772,180.224 680.362,195.228C696.939,214.984 722.926,226.718 736.907,248.833C741.527,256.141 741.33,265.123 743.926,273.162C746.03,279.677 751.079,287.04 750.883,294.115C750.556,305.901 733.741,305.633 734.774,328.03C734.923,331.242 731.457,335.274 734.074,336.836C739.915,340.325 744.768,343.648 742.2,350.962C741.712,352.353 745.169,354.227 745.417,355.63C746.066,359.311 746.49,360.184 746.455,363.615C746.432,365.845 737.952,367.783 737.439,368.88C734.884,374.342 736.792,378.154 735.278,380.823C734.492,382.209 737.62,384.758 736.994,386.397C736.193,388.494 731.971,392.567 730.308,394.339C727.965,396.835 724.494,397.704 721.413,398.089C719.61,398.314 717.725,399.545 716.431,398.67C714.786,397.557 713.812,393.697 713.994,391.744C714.115,390.444 710.648,392.555 710.321,391.638C709.613,389.646 710.463,387.464 707.833,387.973C705.245,388.473 699.656,391.185 699.414,396.481C699.266,399.711 695.771,397.209 696.556,400.817C696.85,402.168 701.304,405.089 701.1,406.413C700.773,408.536 696.905,411.089 695.91,411.852C694.174,413.181 697.271,415.085 696.101,416.429C694.524,418.24 691.977,419.456 691.537,421.136C690.955,423.359 694.876,423.712 693.843,425.455C692.272,428.108 689.329,427.825 688.176,429.275C686.214,431.743 684.209,429.372 683.541,430.684C682.489,432.75 683.107,437.502 683.231,438.727C683.507,441.455 680.636,444.707 678.65,446.176C677.095,447.326 673.906,445.27 666.535,447.831C664.231,448.632 663.673,451.078 662.802,450.654C660.84,449.699 660.745,446.463 660.528,441.975C660.467,440.723 656.719,442.579 656.072,441.733C654.102,439.16 654.853,438.26 654.201,437.249C653.326,435.894 649.532,438.395 648.286,437.539C646.732,436.471 646.187,435.167 644.192,435.036C641.542,434.862 636.096,438.149 632.512,440.355C627.236,443.604 635.14,449.123 631.655,450.108C625.506,451.846 626.508,456.613 625.387,458.748C624.859,459.754 629.079,462.575 629.093,463.543C629.136,466.414 629.203,467.278 628.922,468.446C628.58,469.87 631.352,471.839 631.65,473.152C632.546,477.101 632.182,481.18 631.854,483.051C631.34,485.989 635.335,483.104 635.462,485.052C635.622,487.5 631.915,492.294 631.086,494.485C629.873,497.69 629.014,499.814 627.191,501.63C625.075,503.737 619.286,505.203 616.423,507.137C612.969,509.471 614.517,512.428 606.269,511.054C604.088,510.691 600.818,509.475 598.927,510.304C597.204,511.059 598.754,513.622 597.118,514.287C595.542,514.928 595.073,513.484 593.608,514.097C591.687,514.9 591.66,518.178 589.958,518.789C588.422,519.341 587.484,515.988 586.199,516.468C581.719,518.143 584.365,519.763 582.78,520.183C578.882,521.218 579.676,518.894 578.79,519.291C575.621,520.708 576.781,523.012 576.025,523.538C573.002,525.638 572.027,522.583 570.104,527.147C568.588,530.746 568.609,535.425 566.855,537.355C565.002,539.394 557.54,539.165 557.449,541.481C552.244,544.114 546.78,546.14 542.792,546.27C539.012,546.394 535.845,543.621 532.004,544.697C527.948,545.833 524.29,549.705 519.975,549.832C512.624,550.048 512.043,528.982 496.764,532.709C485.197,535.53 472.642,579.521 463.582,586.315C460.599,588.553 449.31,592.36 444.808,594.655C437.048,598.612 429.045,602.575 422.093,607.789C418.289,610.642 412.385,612.056 408.187,614.071C407.565,614.369 393.307,616.124 392.788,616.028C392.788,616.028 375.608,609.903 371.805,607.051C364.853,601.837 356.261,598.956 348.501,595C343.999,592.704 334.839,588.553 331.856,586.315C322.796,579.521 315.277,535.53 303.71,532.709C288.432,528.982 287.851,550.048 280.5,549.832C276.185,549.705 272.526,545.833 268.47,544.697C264.629,543.621 261.462,546.394 257.683,546.27C253.694,546.14 248.23,544.114 243.025,541.481C242.934,539.165 235.472,539.394 233.619,537.355C231.865,535.425 231.886,530.746 230.37,527.147C228.447,522.583 227.472,525.638 224.449,523.538C223.693,523.012 224.854,520.708 221.684,519.291C220.798,518.894 221.593,521.218 217.694,520.183C216.109,519.763 218.755,518.143 214.275,516.468C212.99,515.988 212.052,519.341 210.517,518.789C208.815,518.178 208.787,514.9 206.866,514.097C205.401,513.484 204.933,514.928 203.356,514.287C201.72,513.622 203.27,511.059 201.548,510.304C199.656,509.475 196.386,510.691 194.205,511.054C185.957,512.428 187.506,509.471 184.051,507.137C181.188,505.203 175.399,503.737 173.283,501.63C171.46,499.814 170.601,497.69 169.388,494.485C168.559,492.294 164.852,487.5 165.012,485.052C165.139,483.104 169.134,485.989 168.62,483.051C168.292,481.18 167.928,477.101 168.825,473.152C169.123,471.839 171.895,469.87 171.552,468.446C171.271,467.278 171.338,466.414 171.381,463.543C171.395,462.575 175.615,459.754 175.087,458.748C173.966,456.613 174.968,451.846 168.819,450.108C165.334,449.123 173.238,443.604 167.962,440.355C164.379,438.149 158.933,434.862 156.282,435.036C154.287,435.167 153.742,436.471 152.188,437.539C150.942,438.395 147.148,435.894 146.273,437.249C145.621,438.26 146.372,439.16 144.402,441.733C143.755,442.579 140.007,440.723 139.946,441.975C139.729,446.463 139.634,449.699 137.672,450.654C136.802,451.078 136.243,448.632 133.939,447.831C126.568,445.27 123.379,447.326 121.825,446.176C119.839,444.707 116.967,441.455 117.243,438.727C117.367,437.502 117.986,432.75 116.933,430.684C116.265,429.372 114.26,431.743 112.298,429.275C111.145,427.825 108.202,428.108 106.631,425.455C105.599,423.712 109.519,423.359 108.937,421.136C108.497,419.456 105.95,418.24 104.373,416.429C103.204,415.085 106.3,413.181 104.564,411.852C103.569,411.089 99.701,408.536 99.374,406.413C99.17,405.089 103.624,402.168 103.918,400.817C104.704,397.209 101.208,399.711 101.06,396.481C100.818,391.185 95.229,388.473 92.641,387.973C90.011,387.464 90.861,389.646 90.153,391.638C89.827,392.555 86.359,390.444 86.48,391.744C86.663,393.697 85.688,397.557 84.044,398.67C82.75,399.545 80.865,398.314 79.062,398.089C75.981,397.704 72.509,396.835 70.166,394.339C68.503,392.567 64.281,388.494 63.48,386.397C62.855,384.758 65.982,382.209 65.196,380.823C63.682,378.154 65.59,374.342 63.036,368.88C62.522,367.783 54.042,365.845 54.019,363.615C53.985,360.184 54.408,359.311 55.057,355.63C55.305,354.227 58.762,352.353 58.274,350.962C55.706,343.648 60.559,340.325 66.4,336.836C69.017,335.274 65.552,331.242 65.7,328.03C66.733,305.633 49.919,305.901 49.591,294.115C49.395,287.04 54.444,279.677 56.548,273.162C59.144,265.123 58.947,256.141 63.567,248.833C77.548,226.718 103.536,214.984 120.112,195.228C132.702,180.224 135.367,161.158 149.12,146.654C156.125,139.267 167.12,138.09 175.167,132.409C178.435,130.102 178.931,125.835 181.378,122.844C185.955,117.25 197.473,105.869 203.057,101.083C214.326,91.424 228.956,85.985 240.388,76.485C254.072,65.113 249.937,57.784 272.667,52.24C272.667,52.24 304.953,35.125 322.606,31.447C332.613,29.361 344.546,31.413 360.506,30.534C372.316,29.884 381.932,26.266 398.906,24.368Z"
        style="fill: none; stroke: black; stroke-width: 2.1px"
      />
    </g>
  </g>
</svg>
