<svg width="100%" height="100%" viewBox="0 0 800 800" version="1.1"
    xmlns="http://www.w3.org/2000/svg" style="fill-rule:evenodd;clip-rule:evenodd;stroke-linecap:round;stroke-linejoin:round;stroke-miterlimit:1.5;">
    <g id="accessories-back" transform="translate(0,40)">
        <g id="astro-helmet-back" transform="matrix(0.953267,0,0,0.953267,18.5643,7.9299)">
            <path d="M159.048,533.673C139.148,473.972 122.816,406.741 120.745,344.195C113.971,139.636 232.338,-15.74 450.189,13.967C485.299,18.755 521.946,25.555 553.654,42.094C586.872,59.42 609.505,90.929 627.922,122.567C691.154,231.188 682.496,306.971 665.128,423.584C659.994,458.053 654.758,508.451 634.041,534.706C616.351,557.126 539.498,574.396 514.64,584.507C464.271,604.997 386.008,614.607 316.302,591.93C234.206,565.222 160.109,536.857 159.048,533.673Z" style="fill:rgb(41,38,57);"/>
            <clipPath id="_clip1_astro_helmet">
                <path d="M159.048,533.673C139.148,473.972 122.816,406.741 120.745,344.195C113.971,139.636 232.338,-15.74 450.189,13.967C485.299,18.755 521.946,25.555 553.654,42.094C586.872,59.42 609.505,90.929 627.922,122.567C691.154,231.188 682.496,306.971 665.128,423.584C659.994,458.053 654.758,508.451 634.041,534.706C616.351,557.126 539.498,574.396 514.64,584.507C464.271,604.997 386.008,614.607 316.302,591.93C234.206,565.222 160.109,536.857 159.048,533.673Z"/>
            </clipPath>
            <g clip-path="url(#_clip1_astro_helmet)">
                <path d="M158.622,597.591C150.081,589.997 143.436,576.512 138.697,566.311C134.503,557.283 131.151,547.773 129.408,537.948C119.268,480.774 187.097,471.526 226.436,469.366C302.406,465.195 385.443,463.602 461.427,465.242C509.226,466.274 558.577,465.312 605.412,476.837C626.057,481.917 653.193,485.417 667.629,502.303C702.777,543.416 630.336,605.512 601.093,624.118C591.554,630.188 581.646,635.69 571.439,640.554C530.382,660.119 484.895,668.737 439.896,672.822" style="fill:rgb(26,25,33);"/>
            </g>
        </g>
    </g>
    <g id="accessories-front" transform="translate(0,40)">"
        <g id="astro-helmet-mask" transform="matrix(0.953267,0,0,0.953267,18.5643,7.9299)">
            <path d="M159.048,533.673C139.148,473.972 122.816,406.741 120.745,344.195C113.971,139.636 232.338,-15.74 450.189,13.967C485.299,18.755 521.946,25.555 553.654,42.094C586.872,59.42 609.505,90.929 627.922,122.567C691.154,231.188 682.496,306.971 665.128,423.584C659.994,458.053 654.758,508.451 634.041,534.706C616.351,557.126 539.498,574.396 514.64,584.507C464.271,604.997 386.008,614.607 316.302,591.93C234.206,565.222 160.109,536.857 159.048,533.673Z" style="fill:none;"/>
        </g>
        <g id="astro-suit-front" transform="matrix(0.991551,0,0,0.991551,3.35998,-13.645)">
            <g id="helmet-front" transform="matrix(1.07393,0,0,1.07393,-29.5839,-14.2023)">
                <g id="Curves" transform="matrix(0.910347,0,0,0.910347,35.8819,15.4275)">
                    <g id="cushion">
                        <path d="M116.784,278.44C116.784,278.44 146.954,265.669 164.681,264.653C182.408,263.636 194.395,264.398 202.639,277.941C210.882,291.484 218.569,333.89 221.228,349.926C223.888,365.962 227.65,412.604 228.272,437C228.894,461.397 227.15,479.477 227.15,479.477L145.104,475.663C145.104,475.663 127.734,390.818 124.965,362.589C122.195,334.359 116.784,278.44 116.784,278.44Z" style="fill:rgb(73,69,92);"/>
                        <clipPath id="_clip3_astro_helmet">
                            <path d="M116.784,278.44C116.784,278.44 146.954,265.669 164.681,264.653C182.408,263.636 194.395,264.398 202.639,277.941C210.882,291.484 218.569,333.89 221.228,349.926C223.888,365.962 227.65,412.604 228.272,437C228.894,461.397 227.15,479.477 227.15,479.477L145.104,475.663C145.104,475.663 127.734,390.818 124.965,362.589C122.195,334.359 116.784,278.44 116.784,278.44Z"/>
                        </clipPath>
                        <g clip-path="url(#_clip3_astro_helmet)">
                            <path d="M217.205,483.857C210.772,482.313 170.738,484.3 163.084,485.275C153.051,486.555 140.898,475.204 131.295,470.74C122.437,466.622 118.631,456.981 116.227,448.131C111.247,429.796 108.742,410.528 106.741,391.675C105.798,382.793 105.12,373.882 104.705,364.96C102.961,327.471 101.33,272.963 139.272,251.515C146.931,247.185 155.386,244.521 163.988,242.82C174.257,240.789 184.63,240.348 195.058,241.119L213.77,263.684C214.192,264.102 212.582,263.619 211.988,263.641C210.691,263.689 209.396,263.842 208.106,263.974C204.247,264.37 200.404,264.878 196.586,265.562C184.73,267.687 172.752,271.536 162.987,278.776C161.705,279.726 154.581,284.021 154.833,286.163C154.93,286.993 157.823,287.859 158.421,288.185C161.452,289.835 163.988,292.097 166.135,294.792C172.01,302.169 175.843,312.978 178.774,321.772C189.168,352.953 195.622,384.05 198.93,416.432C200.051,427.399 200.152,438.829 199.317,449.808C199.159,451.873 198.984,453.936 198.786,455.997C205.044,456.285 212.473,457.356 217.918,460.188C224.204,463.458 225.127,464.068 228.848,467.004C229.09,467.194 232.341,469.636 232.019,469.913C231.511,470.35 220.882,484.739 217.205,483.857Z" style="fill:rgb(48,44,61);"/>
                            <path d="M180.486,283.677C184.003,281.366 188.147,279.344 191.792,277.241C192.726,276.702 194.17,275.576 195.802,275.02C197.968,274.281 190.025,266.969 191.864,265.038C193.205,263.629 200.299,269.751 200.998,270.532C204.972,274.97 207.755,280.66 210.165,286.052C220.704,309.628 225.753,335.673 230.052,360.986C233.695,382.438 237.38,404.164 238.103,425.948C238.476,437.17 238.4,449.084 236.385,460.185C235.981,462.408 234.69,469.278 231.799,470.182C229.808,470.804 227.093,468.562 225.563,467.581C223.709,466.391 220.16,466.114 219.159,464.025C218.298,462.229 219.621,457.871 219.854,456.028C220.389,451.798 220.59,447.542 220.558,443.28C220.399,422.468 217.702,401.834 215.558,381.17C214.22,368.275 213.836,355.312 212.485,342.421C211.027,328.517 209.069,314.462 205.929,300.827C204.614,295.115 203.192,287.55 198.677,283.247C193.275,278.1 182.414,286.307 177.523,288.827C176.581,289.312 171.629,292.557 170.703,291.864C169.886,291.253 175.908,286.523 176.37,286.147" style="fill:rgb(148,125,155);"/>
                            <path d="M120.582,291.59C120.897,290.956 131.901,294.815 132.623,295.076C147.096,300.314 153.713,310.156 159.049,324.216C175.738,368.189 171.61,418.669 175.564,464.805" style="fill:none;stroke:black;stroke-width:2.1px;"/>
                            <path d="M154.222,305.377C153.8,304.931 162.384,297.949 162.872,297.556C163.144,297.337 163.418,297.12 163.691,296.902C173.408,289.169 185.114,278.785 197.138,274.777" style="fill:none;stroke:black;stroke-width:2.1px;"/>
                        </g>
                        <path d="M116.784,278.44C116.784,278.44 146.954,265.669 164.681,264.653C182.408,263.636 194.395,264.398 202.639,277.941C210.882,291.484 218.569,333.89 221.228,349.926C223.888,365.962 227.65,412.604 228.272,437C228.894,461.397 227.15,479.477 227.15,479.477L145.104,475.663C145.104,475.663 127.734,390.818 124.965,362.589C122.195,334.359 116.784,278.44 116.784,278.44Z" style="fill:none;stroke:black;stroke-width:2.1px;"/>
                        <g transform="matrix(-1,0,0,1,799.574,0)">
                            <path d="M116.784,278.44C116.784,278.44 146.954,265.669 164.681,264.653C182.408,263.636 194.395,264.398 202.639,277.941C210.882,291.484 218.569,333.89 221.228,349.926C223.888,365.962 227.65,412.604 228.272,437C228.894,461.397 227.15,479.477 227.15,479.477L145.104,475.663C145.104,475.663 127.734,390.818 124.965,362.589C122.195,334.359 116.784,278.44 116.784,278.44Z" style="fill:rgb(73,69,92);"/>
                            <clipPath id="_clip4_astro_helmet">
                                <path d="M116.784,278.44C116.784,278.44 146.954,265.669 164.681,264.653C182.408,263.636 194.395,264.398 202.639,277.941C210.882,291.484 218.569,333.89 221.228,349.926C223.888,365.962 227.65,412.604 228.272,437C228.894,461.397 227.15,479.477 227.15,479.477L145.104,475.663C145.104,475.663 127.734,390.818 124.965,362.589C122.195,334.359 116.784,278.44 116.784,278.44Z"/>
                            </clipPath>
                            <g clip-path="url(#_clip4_astro_helmet)">
                                <path d="M217.205,483.857C210.772,482.313 170.738,484.3 163.084,485.275C153.051,486.555 140.898,475.204 131.295,470.74C122.437,466.622 118.631,456.981 116.227,448.131C111.247,429.796 108.742,410.528 106.741,391.675C105.798,382.793 105.12,373.882 104.705,364.96C102.961,327.471 101.33,272.963 139.272,251.515C146.931,247.185 155.386,244.521 163.988,242.82C174.257,240.789 184.63,240.348 195.058,241.119L213.77,263.684C214.192,264.102 212.582,263.619 211.988,263.641C210.691,263.689 209.396,263.842 208.106,263.974C204.247,264.37 200.404,264.878 196.586,265.562C184.73,267.687 172.752,271.536 162.987,278.776C161.705,279.726 154.581,284.021 154.833,286.163C154.93,286.993 157.823,287.859 158.421,288.185C161.452,289.835 163.988,292.097 166.135,294.792C172.01,302.169 175.843,312.978 178.774,321.772C189.168,352.953 195.622,384.05 198.93,416.432C200.051,427.399 200.152,438.829 199.317,449.808C199.159,451.873 198.984,453.936 198.786,455.997C205.044,456.285 212.473,457.356 217.918,460.188C224.204,463.458 225.127,464.068 228.848,467.004C229.09,467.194 232.341,469.636 232.019,469.913C231.511,470.35 220.882,484.739 217.205,483.857Z" style="fill:rgb(48,44,61);"/>
                                <path d="M180.486,283.677C184.003,281.366 188.147,279.344 191.792,277.241C192.726,276.702 194.17,275.576 195.802,275.02C197.968,274.281 190.025,266.969 191.864,265.038C193.205,263.629 200.299,269.751 200.998,270.532C204.972,274.97 207.755,280.66 210.165,286.052C220.704,309.628 225.753,335.673 230.052,360.986C233.695,382.438 237.38,404.164 238.103,425.948C238.476,437.17 238.4,449.084 236.385,460.185C235.981,462.408 234.69,469.278 231.799,470.182C229.808,470.804 227.093,468.562 225.563,467.581C223.709,466.391 220.16,466.114 219.159,464.025C218.298,462.229 219.621,457.871 219.854,456.028C220.389,451.798 220.59,447.542 220.558,443.28C220.399,422.468 217.702,401.834 215.558,381.17C214.22,368.275 213.836,355.312 212.485,342.421C211.027,328.517 209.069,314.462 205.929,300.827C204.614,295.115 203.192,287.55 198.677,283.247C193.275,278.1 182.414,286.307 177.523,288.827C176.581,289.312 171.629,292.557 170.703,291.864C169.886,291.253 175.908,286.523 176.37,286.147" style="fill:rgb(148,125,155);"/>
                                <path d="M120.582,291.59C120.897,290.956 131.901,294.815 132.623,295.076C147.096,300.314 153.713,310.156 159.049,324.216C175.738,368.189 171.61,418.669 175.564,464.805" style="fill:none;stroke:black;stroke-width:2.1px;"/>
                                <path d="M154.222,305.377C153.8,304.931 162.384,297.949 162.872,297.556C163.144,297.337 163.418,297.12 163.691,296.902C173.408,289.169 185.114,278.785 197.138,274.777" style="fill:none;stroke:black;stroke-width:2.1px;"/>
                            </g>
                            <path d="M116.784,278.44C116.784,278.44 146.954,265.669 164.681,264.653C182.408,263.636 194.395,264.398 202.639,277.941C210.882,291.484 218.569,333.89 221.228,349.926C223.888,365.962 227.65,412.604 228.272,437C228.894,461.397 227.15,479.477 227.15,479.477L145.104,475.663C145.104,475.663 127.734,390.818 124.965,362.589C122.195,334.359 116.784,278.44 116.784,278.44Z" style="fill:none;stroke:black;stroke-width:2.1px;"/>
                        </g>
                        <path d="M142.504,463.622C142.504,463.622 194.643,454.998 214.447,461.398C234.252,467.799 250.994,480.539 264.038,506.534C277.083,532.528 286.471,589.73 286.471,589.73C286.471,589.73 204.517,564.953 185.571,553.41C166.624,541.867 155.164,527.687 155.164,527.687L142.504,463.622Z" style="fill:rgb(73,69,92);"/>
                        <clipPath id="_clip5_astro_helmet">
                            <path d="M142.504,463.622C142.504,463.622 194.643,454.998 214.447,461.398C234.252,467.799 250.994,480.539 264.038,506.534C277.083,532.528 286.471,589.73 286.471,589.73C286.471,589.73 204.517,564.953 185.571,553.41C166.624,541.867 155.164,527.687 155.164,527.687L142.504,463.622Z"/>
                        </clipPath>
                        <g clip-path="url(#_clip5_astro_helmet)">
                            <path d="M264.386,490.978C264.175,490.037 261.599,488.725 260.927,488.252C257.175,485.615 253.281,483.166 249.355,480.797C233.072,470.97 213.811,463.808 194.534,465.831C187.994,466.518 181.363,468.065 175.588,471.328C175.037,471.64 170.687,473.68 170.734,474.685C170.78,475.649 176.905,479.329 177.653,479.961C184.496,485.752 191.156,491.799 197.212,498.416C211.854,514.416 223.75,532.081 231.958,552.176C234.449,558.272 238.701,565.924 239.163,572.595C239.419,576.296 231.299,573.116 229.864,572.642C219.191,569.116 208.814,564.559 198.441,560.253C172.121,549.329 141.568,537.781 128.813,510.052C125.428,502.692 123.887,494.699 122.965,486.697C122.099,479.172 119.039,459.065 123.997,452.499C127.942,447.276 146.823,446.55 152.635,446.086C181.957,443.747 211.803,448.211 237.807,462.404" style="fill:rgb(48,44,61);"/>
                            <path d="M205.469,449.449C204.93,450.054 206.983,450.032 207.708,450.394C209.203,451.14 210.642,452.002 212.051,452.899C216.134,455.5 219.818,458.747 223.506,461.878C234.751,471.428 246.512,483.786 252.486,497.444C257.685,509.329 260.78,521.933 265.594,533.945C268.752,541.827 273.308,548.889 276.718,556.6C279.639,563.208 280.826,570.538 282.666,577.476C282.823,578.066 284.252,584.635 284.971,584.465C285.482,584.345 285.248,581.038 285.244,580.675C285.2,575.917 284.619,571.177 283.981,566.468C281.278,546.53 277.543,526.382 270.085,507.617C261.246,485.378 245.014,469.053 224.72,457.202" style="fill:rgb(148,125,155);"/>
                            <path d="M142.812,484.26C142.797,484.28 144.128,484.778 144.201,484.806C145.101,485.15 145.993,485.504 146.875,485.895C149.608,487.105 152.299,488.44 154.985,489.753C162.693,493.523 170.115,498.278 176.965,503.43C197.18,518.633 208.903,539.805 218.669,562.675" style="fill:none;stroke:black;stroke-width:2.1px;"/>
                        </g>
                        <path d="M142.504,463.622C142.504,463.622 194.643,454.998 214.447,461.398C234.252,467.799 250.994,480.539 264.038,506.534C277.083,532.528 286.471,589.73 286.471,589.73C286.471,589.73 204.517,564.953 185.571,553.41C166.624,541.867 155.164,527.687 155.164,527.687L142.504,463.622Z" style="fill:none;stroke:black;stroke-width:2.1px;"/>
                        <g transform="matrix(-1,0,0,1,799.574,0)">
                            <path d="M142.504,463.622C142.504,463.622 194.643,454.998 214.447,461.398C234.252,467.799 250.994,480.539 264.038,506.534C277.083,532.528 286.471,589.73 286.471,589.73C286.471,589.73 204.517,564.953 185.571,553.41C166.624,541.867 155.164,527.687 155.164,527.687L142.504,463.622Z" style="fill:rgb(73,69,92);"/>
                            <clipPath id="_clip6_astro_helmet">
                                <path d="M142.504,463.622C142.504,463.622 194.643,454.998 214.447,461.398C234.252,467.799 250.994,480.539 264.038,506.534C277.083,532.528 286.471,589.73 286.471,589.73C286.471,589.73 204.517,564.953 185.571,553.41C166.624,541.867 155.164,527.687 155.164,527.687L142.504,463.622Z"/>
                            </clipPath>
                            <g clip-path="url(#_clip6_astro_helmet)">
                                <path d="M264.386,490.978C264.175,490.037 261.599,488.725 260.927,488.252C257.175,485.615 253.281,483.166 249.355,480.797C233.072,470.97 213.811,463.808 194.534,465.831C187.994,466.518 181.363,468.065 175.588,471.328C175.037,471.64 170.687,473.68 170.734,474.685C170.78,475.649 176.905,479.329 177.653,479.961C184.496,485.752 191.156,491.799 197.212,498.416C211.854,514.416 223.75,532.081 231.958,552.176C234.449,558.272 238.701,565.924 239.163,572.595C239.419,576.296 231.299,573.116 229.864,572.642C219.191,569.116 208.814,564.559 198.441,560.253C172.121,549.329 141.568,537.781 128.813,510.052C125.428,502.692 123.887,494.699 122.965,486.697C122.099,479.172 119.039,459.065 123.997,452.499C127.942,447.276 146.823,446.55 152.635,446.086C181.957,443.747 211.803,448.211 237.807,462.404" style="fill:rgb(48,44,61);"/>
                                <path d="M205.469,449.449C204.93,450.054 206.983,450.032 207.708,450.394C209.203,451.14 210.642,452.002 212.051,452.899C216.134,455.5 219.818,458.747 223.506,461.878C234.751,471.428 246.512,483.786 252.486,497.444C257.685,509.329 260.78,521.933 265.594,533.945C268.752,541.827 273.308,548.889 276.718,556.6C279.639,563.208 280.826,570.538 282.666,577.476C282.823,578.066 284.252,584.635 284.971,584.465C285.482,584.345 285.248,581.038 285.244,580.675C285.2,575.917 284.619,571.177 283.981,566.468C281.278,546.53 277.543,526.382 270.085,507.617C261.246,485.378 245.014,469.053 224.72,457.202" style="fill:rgb(148,125,155);"/>
                                <path d="M142.812,484.26C142.797,484.28 144.128,484.778 144.201,484.806C145.101,485.15 145.993,485.504 146.875,485.895C149.608,487.105 152.299,488.44 154.985,489.753C162.693,493.523 170.115,498.278 176.965,503.43C197.18,518.633 208.903,539.805 218.669,562.675" style="fill:none;stroke:black;stroke-width:2.1px;"/>
                            </g>
                            <path d="M142.504,463.622C142.504,463.622 194.643,454.998 214.447,461.398C234.252,467.799 250.994,480.539 264.038,506.534C277.083,532.528 286.471,589.73 286.471,589.73C286.471,589.73 204.517,564.953 185.571,553.41C166.624,541.867 155.164,527.687 155.164,527.687L142.504,463.622Z" style="fill:none;stroke:black;stroke-width:2.1px;"/>
                        </g>
                    </g>
                    <path id="shadow" d="M125.253,345.229C138.225,307.599 182.534,284.414 216.187,270.465C319.31,227.724 446.903,227.368 551.448,260.204C594.526,273.734 637.684,291.693 671.995,329.977C682.051,341.197 686.381,308.055 678.124,282.516C646.438,184.507 601.181,61.784 500.085,20.774C312.636,-55.267 120.845,110.44 108.319,309.818" style="fill:rgb(56,25,57);fill-opacity:0.5;"/>
                    <path d="M400.174,16.652C408.351,16.426 419.578,16.82 434.175,18.796C469.907,23.633 556.254,42.823 591.924,91.047C627.595,139.271 652.508,187.053 664.702,231.131C676.895,275.209 675.93,333.741 675.93,333.741L673.482,349.329C673.482,349.329 664.379,340.776 663.206,337.536C662.033,334.296 657.935,268.344 653.277,246.764C648.62,225.184 630.805,162.992 589.325,114.338C547.845,65.683 505.39,43.853 447.491,35.184C436.941,33.604 419.153,31.924 417.01,31.64C410.414,31.134 404.836,30.909 400.174,30.858C395.513,30.909 389.934,31.133 383.337,31.64C381.194,31.924 363.406,33.604 352.856,35.184C294.957,43.853 252.502,65.683 211.022,114.338C169.542,162.992 151.727,225.184 147.07,246.764C142.413,268.344 138.314,334.296 137.142,337.536C135.969,340.776 126.866,349.329 126.866,349.329L124.418,333.741C124.418,333.741 123.452,275.209 135.646,231.131C147.839,187.053 172.752,139.271 208.423,91.047C244.094,42.823 330.44,23.633 366.173,18.796C380.77,16.82 391.997,16.426 400.174,16.652Z" style="fill:url(#_Linear7_astro_helmet);"/>
                    <clipPath id="_clip8_astro_helmet">
                        <path d="M400.174,16.652C408.351,16.426 419.578,16.82 434.175,18.796C469.907,23.633 556.254,42.823 591.924,91.047C627.595,139.271 652.508,187.053 664.702,231.131C676.895,275.209 675.93,333.741 675.93,333.741L673.482,349.329C673.482,349.329 664.379,340.776 663.206,337.536C662.033,334.296 657.935,268.344 653.277,246.764C648.62,225.184 630.805,162.992 589.325,114.338C547.845,65.683 505.39,43.853 447.491,35.184C436.941,33.604 419.153,31.924 417.01,31.64C410.414,31.134 404.836,30.909 400.174,30.858C395.513,30.909 389.934,31.133 383.337,31.64C381.194,31.924 363.406,33.604 352.856,35.184C294.957,43.853 252.502,65.683 211.022,114.338C169.542,162.992 151.727,225.184 147.07,246.764C142.413,268.344 138.314,334.296 137.142,337.536C135.969,340.776 126.866,349.329 126.866,349.329L124.418,333.741C124.418,333.741 123.452,275.209 135.646,231.131C147.839,187.053 172.752,139.271 208.423,91.047C244.094,42.823 330.44,23.633 366.173,18.796C380.77,16.82 391.997,16.426 400.174,16.652Z"/>
                    </clipPath>
                    <g clip-path="url(#_clip8_astro_helmet)">
                        <path d="M123.334,364.392C123.582,364.193 123.505,361.718 123.534,361.374C123.798,358.235 124.337,355.114 124.827,352.004C126.368,342.233 129.381,332.787 131.264,323.101C131.733,320.692 132.021,318.21 132.243,315.766C132.287,315.279 132.09,313.564 132.441,313.162C132.553,313.034 135.135,316.547 135.288,316.768C137.663,320.213 139.831,323.73 142.007,327.303C142.631,328.327 144.342,330.022 145.268,328.216C147.239,324.373 143.929,319.145 141.974,316.062C137.346,308.763 134.311,300.16 131.706,291.974C131.051,289.917 130.47,287.838 129.829,285.777C129.721,285.428 129.365,283.852 128.762,283.974C127.967,284.136 127.667,286.593 127.552,287.165C126.82,290.802 126.433,294.528 125.998,298.21C125.504,302.396 125.033,306.589 124.617,310.784C123.957,317.435 123.766,324.087 123.354,330.751L123.334,364.392ZM641.912,176.291C641.785,175.479 642.118,177.924 642.161,178.745C642.248,180.385 642.322,182.032 642.341,183.674C642.399,188.618 642.469,193.528 642.179,198.469C641.822,204.533 640.976,210.735 641.654,216.796C642.626,225.492 645.985,233.957 648.615,242.251C648.729,242.608 650.604,248.796 650.734,248.748C651.214,248.57 650.779,244.612 650.762,244.184C650.567,239.197 650.422,234.242 650.545,229.252C650.608,226.685 649.398,216.643 649.632,216.948C652.992,221.327 655.656,233.081 655.656,233.081C659.737,245.624 663.192,260.546 666.007,277.904L668.452,298.327L671.446,305.591L672.143,299.41L671.122,277.27C671.122,277.27 664.505,215.744 650.965,188.976L641.912,176.291ZM131.763,265.429C132.862,259.589 135.085,253.677 136.764,247.959C139.586,238.345 142.243,228.992 146.759,220.019C148.243,217.07 149.639,214.068 151.028,211.073C151.379,210.316 151.961,208.006 152.732,207.549C152.946,207.422 153.802,210.078 153.864,210.264C154.691,212.727 155.481,215.203 156.301,217.669C156.481,218.212 156.899,220.57 157.717,219.451C162.223,213.285 156.709,205.69 154.585,199.824C153.787,197.62 152.996,195.397 152.356,193.141C152.14,192.376 151.928,191.611 151.732,190.841C151.716,190.778 151.478,189.695 151.376,189.754C149.695,190.718 148.528,197.808 147.985,199.484C145.064,208.516 141.636,217.352 138.59,226.338L131.763,265.429ZM154.13,183.432C153.784,183.476 154.386,184.08 154.508,184.406C154.767,185.098 155.019,185.791 155.261,186.489C155.947,188.476 156.614,190.471 157.252,192.473C158.306,195.781 159.279,199.113 160.312,202.427C160.452,202.877 161.027,205.541 161.892,205.166C163.295,204.557 163.825,200.524 164.218,199.245C166.623,191.423 165.435,187.607 163.123,179.854C162.834,178.884 161.651,172.241 160.411,172.078C159.04,171.899 157.403,176.278 157.006,177.131L154.13,183.432ZM539.183,54.897C538.734,54.627 539.55,61.326 539.698,62.202C540.473,66.793 540.744,72.826 543.959,76.455C544.597,77.174 546.796,79.662 548.006,79.115C548.929,78.698 544.725,73.781 544.522,73.169C542.303,66.496 541.198,57.792 539.429,51.341L539.183,54.897ZM452.063,23.696C467.697,32.223 489.805,34.568 504.402,44.666C508.661,47.612 506.767,54.373 510.957,57.745C515.204,61.164 520.795,62.83 525.627,65.248C526.898,65.884 529.793,68.109 531.409,67.771C532.587,67.525 531.392,63.259 531.266,62.657C530.126,57.198 529.723,51.326 525.948,46.929C515.465,34.72 495.176,29.283 480.243,25.597L452.063,23.696ZM282.353,43.993C281.848,43.71 282.439,45.148 282.527,45.721C282.695,46.824 282.959,47.91 283.217,48.996C283.698,51.024 284.76,61.107 289.042,58.751C294.359,55.827 289.828,47.982 290.42,42.909C290.635,41.075 292.31,36.871 291.303,35.163C290.57,33.92 287.822,34.918 286.816,35.19L282.353,43.993Z" style="fill:white;"/>
                    </g>
                    <path d="M400.174,16.652C408.351,16.426 419.578,16.82 434.175,18.796C469.907,23.633 556.254,42.823 591.924,91.047C627.595,139.271 652.508,187.053 664.702,231.131C676.895,275.209 675.93,333.741 675.93,333.741L673.482,349.329C673.482,349.329 664.379,340.776 663.206,337.536C662.033,334.296 657.935,268.344 653.277,246.764C648.62,225.184 630.805,162.992 589.325,114.338C547.845,65.683 505.39,43.853 447.491,35.184C436.941,33.604 419.153,31.924 417.01,31.64C410.414,31.134 404.836,30.909 400.174,30.858C395.513,30.909 389.934,31.133 383.337,31.64C381.194,31.924 363.406,33.604 352.856,35.184C294.957,43.853 252.502,65.683 211.022,114.338C169.542,162.992 151.727,225.184 147.07,246.764C142.413,268.344 138.314,334.296 137.142,337.536C135.969,340.776 126.866,349.329 126.866,349.329L124.418,333.741C124.418,333.741 123.452,275.209 135.646,231.131C147.839,187.053 172.752,139.271 208.423,91.047C244.094,42.823 330.44,23.633 366.173,18.796C380.77,16.82 391.997,16.426 400.174,16.652Z" style="fill:none;stroke:black;stroke-width:2.1px;"/>
                    <g id="side-lights">
                        <path d="M668.678,147.311C668.678,147.311 705.052,155.787 709.495,158.331C713.938,160.874 727.519,181.254 730.14,185.435C732.761,189.616 742.363,213.334 737.18,276.128C733.778,307.381 730.273,316.474 727.956,319.94C725.639,323.405 701.914,324.041 686.688,319.399C671.462,314.757 681.492,223.604 675.841,195.927C670.19,168.25 668.678,147.311 668.678,147.311Z" style="fill:rgb(41,170,225);"/>
                        <clipPath id="_clip9_astro_helmet">
                            <path d="M668.678,147.311C668.678,147.311 705.052,155.787 709.495,158.331C713.938,160.874 727.519,181.254 730.14,185.435C732.761,189.616 742.363,213.334 737.18,276.128C733.778,307.381 730.273,316.474 727.956,319.94C725.639,323.405 701.914,324.041 686.688,319.399C671.462,314.757 681.492,223.604 675.841,195.927C670.19,168.25 668.678,147.311 668.678,147.311Z"/>
                        </clipPath>
                        <g clip-path="url(#_clip9_astro_helmet)">
                            <path d="M638.864,143.384C638.377,143.431 639.801,143.67 640.275,143.792C641.319,144.062 642.357,144.358 643.391,144.66C646.353,145.528 649.322,146.381 652.278,147.267C661.047,149.897 669.589,153.086 678.242,156.047C689.169,159.788 699.497,164.1 708.54,171.472C713.295,175.348 716.734,181.87 721.966,184.92C725.532,186.999 730.274,187.918 734.193,189.135C735.154,189.434 737.643,190.534 738.354,189.26C739.538,187.136 737.056,183.13 736.098,181.403C732.163,174.312 726.724,168.052 720.76,162.604C702.332,145.773 680.488,140.357 656.277,138.088C649.961,137.496 640.494,134.422 634.436,137.263" style="fill:rgb(141,241,254);"/>
                            <path d="M652.927,173.71C653.748,175.011 660.621,175.105 662.009,175.295C671.288,176.565 678.011,177.281 687.349,177.968C701.112,178.979 716.165,179.669 729.043,184.723C741.4,189.573 749.63,200.97 755.23,216.881C763.808,241.253 762.12,270.676 756.57,295.465C753.896,307.409 750.021,319.569 741.522,328.723C730.707,340.371 715.45,342.181 700.342,341.242C671.38,339.44 644.361,329.243 630.255,302.27C619.72,282.125 617.548,258.188 617.567,235.82" style="fill:rgb(251,176,59);"/>
                            <clipPath id="_clip10_astro_helmet">
                                <path d="M652.927,173.71C653.748,175.011 660.621,175.105 662.009,175.295C671.288,176.565 678.011,177.281 687.349,177.968C701.112,178.979 716.165,179.669 729.043,184.723C741.4,189.573 749.63,200.97 755.23,216.881C763.808,241.253 762.12,270.676 756.57,295.465C753.896,307.409 750.021,319.569 741.522,328.723C730.707,340.371 715.45,342.181 700.342,341.242C671.38,339.44 644.361,329.243 630.255,302.27C619.72,282.125 617.548,258.188 617.567,235.82"/>
                            </clipPath>
                            <g clip-path="url(#_clip10_astro_helmet)">
                                <path d="M657.317,177.056C666.952,179.192 676.998,180.157 686.741,181.931C693.21,183.109 699.638,184.907 705.967,186.673C710.017,187.804 714.075,188.961 717.976,190.543C719.916,191.329 722.191,192.182 723.578,193.832C725.803,196.477 726.25,200.66 726.814,203.924C728.056,211.104 728.851,218.372 729.285,225.645C730.465,245.438 729.466,265.165 727.529,284.874C726.85,291.784 726.118,298.864 724.202,305.56C723.24,308.921 721.653,312.164 719.023,314.598C716.856,316.602 702.653,320.698 695.347,323.029C692.392,323.972 719.649,343.773 740.881,340.609C749.53,339.32 752.265,223.973 741.36,172.695C739.32,163.102 652.797,175.817 649.751,171.875" style="fill:rgb(250,233,171);"/>
                            </g>
                            <path d="M652.927,173.71C653.748,175.011 660.621,175.105 662.009,175.295C671.288,176.565 678.011,177.281 687.349,177.968C701.112,178.979 716.165,179.669 729.043,184.723C741.4,189.573 749.63,200.97 755.23,216.881C763.808,241.253 762.12,270.676 756.57,295.465C753.896,307.409 750.021,319.569 741.522,328.723C730.707,340.371 715.45,342.181 700.342,341.242C671.38,339.44 644.361,329.243 630.255,302.27C619.72,282.125 617.548,258.188 617.567,235.82" style="fill:none;stroke:black;stroke-width:2.1px;"/>
                            <g transform="matrix(0.993845,0,0,0.946315,15.1025,12.0637)">
                                <ellipse cx="700.174" cy="208.763" rx="11.084" ry="15.982" style="fill:white;stroke:black;stroke-width:2.05px;"/>
                            </g>
                            <g transform="matrix(1.01306,0.0160516,-0.0159021,1.00363,5.38965,52.3803)">
                                <ellipse cx="700.174" cy="208.763" rx="11.084" ry="15.982" style="fill:white;stroke:black;stroke-width:2.05px;"/>
                            </g>
                        </g>
                        <path d="M668.678,147.311C668.678,147.311 705.052,155.787 709.495,158.331C713.938,160.874 727.519,181.254 730.14,185.435C732.761,189.616 742.363,213.334 737.18,276.128C733.778,307.381 730.273,316.474 727.956,319.94C725.639,323.405 701.914,324.041 686.688,319.399C671.462,314.757 681.492,223.604 675.841,195.927C670.19,168.25 668.678,147.311 668.678,147.311Z" style="fill:none;stroke:black;stroke-width:2.1px;"/>
                        <g transform="matrix(-1,0,0,1,800.223,0)">
                            <path d="M668.678,147.311C668.678,147.311 705.052,155.787 709.495,158.331C713.938,160.874 727.519,181.254 730.14,185.435C732.761,189.616 742.363,213.334 737.18,276.128C733.778,307.381 730.273,316.474 727.956,319.94C725.639,323.405 701.914,324.041 686.688,319.399C671.462,314.757 681.492,223.604 675.841,195.927C670.19,168.25 668.678,147.311 668.678,147.311Z" style="fill:rgb(41,170,225);"/>
                            <clipPath id="_clip11_astro_helmet">
                                <path d="M668.678,147.311C668.678,147.311 705.052,155.787 709.495,158.331C713.938,160.874 727.519,181.254 730.14,185.435C732.761,189.616 742.363,213.334 737.18,276.128C733.778,307.381 730.273,316.474 727.956,319.94C725.639,323.405 701.914,324.041 686.688,319.399C671.462,314.757 681.492,223.604 675.841,195.927C670.19,168.25 668.678,147.311 668.678,147.311Z"/>
                            </clipPath>
                            <g clip-path="url(#_clip11_astro_helmet)">
                                <path d="M638.864,143.384C638.377,143.431 639.801,143.67 640.275,143.792C641.319,144.062 642.357,144.358 643.391,144.66C646.353,145.528 649.322,146.381 652.278,147.267C661.047,149.897 669.589,153.086 678.242,156.047C689.169,159.788 699.497,164.1 708.54,171.472C713.295,175.348 716.734,181.87 721.966,184.92C725.532,186.999 730.274,187.918 734.193,189.135C735.154,189.434 737.643,190.534 738.354,189.26C739.538,187.136 737.056,183.13 736.098,181.403C732.163,174.312 726.724,168.052 720.76,162.604C702.332,145.773 680.488,140.357 656.277,138.088C649.961,137.496 640.494,134.422 634.436,137.263" style="fill:rgb(141,241,254);"/>
                                <path d="M652.927,173.71C653.748,175.011 660.621,175.105 662.009,175.295C671.288,176.565 678.011,177.281 687.349,177.968C701.112,178.979 716.165,179.669 729.043,184.723C741.4,189.573 749.63,200.97 755.23,216.881C763.808,241.253 762.12,270.676 756.57,295.465C753.896,307.409 750.021,319.569 741.522,328.723C730.707,340.371 715.45,342.181 700.342,341.242C671.38,339.44 644.361,329.243 630.255,302.27C619.72,282.125 617.548,258.188 617.567,235.82" style="fill:rgb(251,176,59);"/>
                                <clipPath id="_clip12_astro_helmet">
                                    <path d="M652.927,173.71C653.748,175.011 660.621,175.105 662.009,175.295C671.288,176.565 678.011,177.281 687.349,177.968C701.112,178.979 716.165,179.669 729.043,184.723C741.4,189.573 749.63,200.97 755.23,216.881C763.808,241.253 762.12,270.676 756.57,295.465C753.896,307.409 750.021,319.569 741.522,328.723C730.707,340.371 715.45,342.181 700.342,341.242C671.38,339.44 644.361,329.243 630.255,302.27C619.72,282.125 617.548,258.188 617.567,235.82"/>
                                </clipPath>
                                <g clip-path="url(#_clip12_astro_helmet)">
                                    <path d="M657.317,177.056C666.952,179.192 676.998,180.157 686.741,181.931C693.21,183.109 699.638,184.907 705.967,186.673C710.017,187.804 714.075,188.961 717.976,190.543C719.916,191.329 722.191,192.182 723.578,193.832C725.803,196.477 726.25,200.66 726.814,203.924C728.056,211.104 728.851,218.372 729.285,225.645C730.465,245.438 729.466,265.165 727.529,284.874C726.85,291.784 726.118,298.864 724.202,305.56C723.24,308.921 721.653,312.164 719.023,314.598C716.856,316.602 702.653,320.698 695.347,323.029C692.392,323.972 719.649,343.773 740.881,340.609C749.53,339.32 752.265,223.973 741.36,172.695C739.32,163.102 652.797,175.817 649.751,171.875" style="fill:rgb(250,233,171);"/>
                                </g>
                                <path d="M652.927,173.71C653.748,175.011 660.621,175.105 662.009,175.295C671.288,176.565 678.011,177.281 687.349,177.968C701.112,178.979 716.165,179.669 729.043,184.723C741.4,189.573 749.63,200.97 755.23,216.881C763.808,241.253 762.12,270.676 756.57,295.465C753.896,307.409 750.021,319.569 741.522,328.723C730.707,340.371 715.45,342.181 700.342,341.242C671.38,339.44 644.361,329.243 630.255,302.27C619.72,282.125 617.548,258.188 617.567,235.82" style="fill:none;stroke:black;stroke-width:2.1px;"/>
                                <g transform="matrix(0.993845,0,0,0.946315,15.1025,12.0637)">
                                    <ellipse cx="700.174" cy="208.763" rx="11.084" ry="15.982" style="fill:white;stroke:black;stroke-width:2.05px;"/>
                                </g>
                                <g transform="matrix(1.01306,0.0160516,-0.0159021,1.00363,5.38965,52.3803)">
                                    <ellipse cx="700.174" cy="208.763" rx="11.084" ry="15.982" style="fill:white;stroke:black;stroke-width:2.05px;"/>
                                </g>
                            </g>
                            <path d="M668.678,147.311C668.678,147.311 705.052,155.787 709.495,158.331C713.938,160.874 727.519,181.254 730.14,185.435C732.761,189.616 742.363,213.334 737.18,276.128C733.778,307.381 730.273,316.474 727.956,319.94C725.639,323.405 701.914,324.041 686.688,319.399C671.462,314.757 681.492,223.604 675.841,195.927C670.19,168.25 668.678,147.311 668.678,147.311Z" style="fill:none;stroke:black;stroke-width:2.1px;"/>
                        </g>
                    </g>
                    <path d="M400.157,-21.314C404.712,-21.406 407.346,-21.372 407.346,-21.372L407.347,-21.102C416.718,-20.741 429.837,-19.917 444.16,-18.057C466.194,-15.196 524.413,-7.518 579.868,35.514C635.323,78.546 675.923,134.217 686.985,216.31C698.048,298.404 684.476,398.749 674.837,436.741C665.198,474.733 642.799,533.553 642.799,533.553L636.465,545.839L624.818,549.37C638.474,519.392 651.659,482.83 664.039,405.838C683.886,282.407 656.53,195.626 610.811,128.803C565.288,62.265 510.307,41.801 470.943,31.648C446.477,25.337 418.127,23.561 400.157,23.428C382.188,23.561 353.835,25.328 329.371,31.648C290.046,41.806 235.865,62.827 189.503,128.803C142.829,195.224 115.765,282.257 136.276,405.838C149.043,482.766 157.78,515.587 171.436,545.565L159.789,542.034L157.516,533.553C157.516,533.553 135.116,474.733 125.478,436.741C115.839,398.749 102.267,298.404 113.329,216.31C124.392,134.217 164.992,78.546 220.447,35.514C275.902,-7.518 334.121,-15.196 356.155,-18.057C370.478,-19.917 383.597,-20.741 392.968,-21.102L392.969,-21.372C392.969,-21.372 395.602,-21.406 400.157,-21.314Z" style="fill:rgb(207,225,237);"/>
                    <clipPath id="_clip13_astro_helmet">
                        <path d="M400.157,-21.314C404.712,-21.406 407.346,-21.372 407.346,-21.372L407.347,-21.102C416.718,-20.741 429.837,-19.917 444.16,-18.057C466.194,-15.196 524.413,-7.518 579.868,35.514C635.323,78.546 675.923,134.217 686.985,216.31C698.048,298.404 684.476,398.749 674.837,436.741C665.198,474.733 642.799,533.553 642.799,533.553L636.465,545.839L624.818,549.37C638.474,519.392 651.659,482.83 664.039,405.838C683.886,282.407 656.53,195.626 610.811,128.803C565.288,62.265 510.307,41.801 470.943,31.648C446.477,25.337 418.127,23.561 400.157,23.428C382.188,23.561 353.835,25.328 329.371,31.648C290.046,41.806 235.865,62.827 189.503,128.803C142.829,195.224 115.765,282.257 136.276,405.838C149.043,482.766 157.78,515.587 171.436,545.565L159.789,542.034L157.516,533.553C157.516,533.553 135.116,474.733 125.478,436.741C115.839,398.749 102.267,298.404 113.329,216.31C124.392,134.217 164.992,78.546 220.447,35.514C275.902,-7.518 334.121,-15.196 356.155,-18.057C370.478,-19.917 383.597,-20.741 392.968,-21.102L392.969,-21.372C392.969,-21.372 395.602,-21.406 400.157,-21.314Z"/>
                    </clipPath>
                    <g clip-path="url(#_clip13_astro_helmet)">
                        <path d="M343.461,6.686C357.717,2.332 406.644,2.183 407.549,2.153C430.038,1.397 449.119,5.535 471.102,10.396C476.184,11.52 490.408,16.706 490.408,16.706C490.408,16.706 491.842,25.351 498.728,27.645C507.986,30.729 510.411,24.69 512.717,25.93C563.542,53.288 599.064,85.493 624.637,127.327C678.982,216.229 685.471,337.604 664.976,435.133C658.644,465.264 648.033,500.986 638.82,530.303C637.658,534.002 611.259,614.134 608.243,593.437C606.993,584.86 616.427,528.917 614.811,521.585C609.701,498.408 605.337,475.073 600.179,451.904C582.29,371.541 559.505,291.185 522.513,217.343C503.336,179.064 480.31,143.073 453.646,109.602C438.561,90.666 420.757,71.727 405.922,51.363C402.883,67.975 397.884,83.114 389.855,102.161C386.225,110.773 382.469,119.329 378.625,127.847C373.269,139.712 367.788,151.52 362.25,163.302C322.277,248.337 281.752,333.192 246.355,420.271C234.5,449.435 206.519,508.797 204.804,541.152C203.501,565.743 214.926,590.79 219.53,614.633L196.428,600.573C190.983,595.854 187.88,585.464 184.661,579.191C175.174,560.703 166.263,541.394 159.909,521.588C135.137,444.372 120.692,358.327 120.328,277.228C120.198,248.178 122.045,217.802 129.353,189.569C131.835,179.979 134.063,170.125 137.696,160.889C139.217,157.022 144.622,147.79 144.622,147.79C144.622,147.79 140.374,168.009 146.816,166.68C158.864,164.195 169.936,144.923 167.627,133.287C167.182,131.041 165.78,128.363 163.568,127.445C163.043,127.227 159.574,127.272 159.713,126.814C163.462,114.408 189.579,89.907 199.325,81.688C241.523,46.095 290.905,22.738 343.461,6.686Z" style="fill:rgb(111,125,160);"/>
                        <path d="M151.989,523.792C152.03,523.747 152.021,523.704 152.007,523.642C149.956,514.328 145.854,505.211 142.913,496.16C134.112,469.08 129.085,441.362 124.948,413.244C111.675,323.035 99.4,222.697 144.623,138.862C183.061,67.606 267.582,10.31 347.875,-3.291C370.591,-7.139 387.795,-10.248 410.703,-9.258C427.161,-8.547 449.526,-5.992 465.701,-2.151C529.406,12.979 602.009,64.814 641.77,115.928C693.951,183.009 692.379,303.687 679.337,383.837C674.747,412.046 671.587,440.56 664.265,468.226C661.738,477.772 658.851,487.219 656.318,496.762C656.022,497.878 652.372,512.319 653.6,512.149C656.069,511.808 665.971,487.565 667.023,484.966C679.711,453.612 689.191,420.954 698.201,388.391C729.947,273.662 760.314,123.798 671.742,25.522C607.781,-45.446 503.961,-72.662 412.119,-76.789C371.696,-78.606 331.033,-77.791 292.421,-64.352C233.181,-43.732 175.415,2.632 139.38,53.541C45.543,186.109 51.708,366.391 133.161,502.863" style="fill:white;"/>
                    </g>
                    <path d="M400.157,-21.314C404.712,-21.406 407.346,-21.372 407.346,-21.372L407.347,-21.102C416.718,-20.741 429.837,-19.917 444.16,-18.057C466.194,-15.196 524.413,-7.518 579.868,35.514C635.323,78.546 675.923,134.217 686.985,216.31C698.048,298.404 684.476,398.749 674.837,436.741C665.198,474.733 642.799,533.553 642.799,533.553L636.465,545.839L624.818,549.37C638.474,519.392 651.659,482.83 664.039,405.838C683.886,282.407 656.53,195.626 610.811,128.803C565.288,62.265 510.307,41.801 470.943,31.648C446.477,25.337 418.127,23.561 400.157,23.428C382.188,23.561 353.835,25.328 329.371,31.648C290.046,41.806 235.865,62.827 189.503,128.803C142.829,195.224 115.765,282.257 136.276,405.838C149.043,482.766 157.78,515.587 171.436,545.565L159.789,542.034L157.516,533.553C157.516,533.553 135.116,474.733 125.478,436.741C115.839,398.749 102.267,298.404 113.329,216.31C124.392,134.217 164.992,78.546 220.447,35.514C275.902,-7.518 334.121,-15.196 356.155,-18.057C370.478,-19.917 383.597,-20.741 392.968,-21.102L392.969,-21.372C392.969,-21.372 395.602,-21.406 400.157,-21.314Z" style="fill:none;stroke:black;stroke-width:2.1px;"/>
                </g>
                <g id="blue-strips">
                    <g transform="matrix(0.880625,0,0,0.880625,47.7836,51.9086)">
                        <path d="M384.336,602.617C387.286,602.999 394.925,604.143 400.242,604.143C405.56,604.143 413.289,602.999 416.24,602.617C424.006,601.612 431.749,600.445 439.451,599.029C471.173,593.197 504.03,583.248 534.159,571.967C567.713,559.404 599.25,550.664 631.246,533.507C637.288,530.267 639.161,528.406 645.515,522.508C647.985,520.216 649.643,516.343 652.486,506.916C653.343,504.074 659.849,520.289 657.407,523.657C653.712,528.753 652.171,532.582 647.889,537.13C640.481,544.997 634.358,552.609 625.194,558.448C594.465,578.025 553.446,589.613 516.938,601.509C495.134,608.614 476.709,614.394 450.679,619.956C439.41,622.364 412.125,625.19 400.229,624.96C388.332,625.19 361.048,622.364 349.779,619.956C323.749,614.394 305.324,608.614 283.52,601.509C247.012,589.613 205.993,578.025 175.264,558.448C166.1,552.609 157.978,545.132 151.437,536.529C147.18,530.929 145.38,527.748 143.374,524.222C141.317,520.606 147.011,505.232 147.539,506.878C152.706,523.008 155.41,522.697 164.322,529.09C193.669,550.144 232.174,558.843 265.728,571.406C295.858,582.687 329.403,593.197 361.124,599.029C368.826,600.445 376.57,601.612 384.336,602.617Z" style="fill:rgb(41,158,208);"/>
                        <clipPath id="_clip14_astro_helmet">
                            <path d="M384.336,602.617C387.286,602.999 394.925,604.143 400.242,604.143C405.56,604.143 413.289,602.999 416.24,602.617C424.006,601.612 431.749,600.445 439.451,599.029C471.173,593.197 504.03,583.248 534.159,571.967C567.713,559.404 599.25,550.664 631.246,533.507C637.288,530.267 639.161,528.406 645.515,522.508C647.985,520.216 649.643,516.343 652.486,506.916C653.343,504.074 659.849,520.289 657.407,523.657C653.712,528.753 652.171,532.582 647.889,537.13C640.481,544.997 634.358,552.609 625.194,558.448C594.465,578.025 553.446,589.613 516.938,601.509C495.134,608.614 476.709,614.394 450.679,619.956C439.41,622.364 412.125,625.19 400.229,624.96C388.332,625.19 361.048,622.364 349.779,619.956C323.749,614.394 305.324,608.614 283.52,601.509C247.012,589.613 205.993,578.025 175.264,558.448C166.1,552.609 157.978,545.132 151.437,536.529C147.18,530.929 145.38,527.748 143.374,524.222C141.317,520.606 147.011,505.232 147.539,506.878C152.706,523.008 155.41,522.697 164.322,529.09C193.669,550.144 232.174,558.843 265.728,571.406C295.858,582.687 329.403,593.197 361.124,599.029C368.826,600.445 376.57,601.612 384.336,602.617Z"/>
                        </clipPath>
                        <g clip-path="url(#_clip14_astro_helmet)">
                            <path d="M203.501,580.182C203.673,580.301 203.802,580.367 203.804,580.294L203.501,580.182C203.213,579.984 202.806,579.637 202.675,579.541C201.856,578.943 201.044,578.338 200.23,577.733C197.88,575.986 195.577,574.182 193.308,572.33C185.103,565.63 178.289,557.604 172.125,549.018C169.755,545.716 167.664,542.234 165.831,538.608C165.762,538.471 164.062,535.085 164.564,535.086C166.562,535.088 169.497,537.451 171.246,538.311C176.161,540.73 180.984,542.986 186.274,544.49C197.128,547.578 208.491,549.716 218.935,554.014C227.058,557.356 235.211,563.133 242.417,568.132C246.256,570.794 253.003,573.469 255.859,577.284C258.969,581.439 257.673,589.555 259.716,594.396C261.082,597.632 264.778,599.632 267.781,601.052C274.824,604.384 282.496,606.403 289.921,608.691C294.448,610.086 299.024,611.582 303.706,612.376C304.567,612.522 305.436,612.522 306.295,612.646C306.393,612.66 307.612,612.859 307.61,612.818C307.566,612.012 303.249,609.991 302.636,609.614C297.56,606.496 293.043,602.618 287.915,599.568C284.755,597.689 281.065,596.234 278.295,593.777C272.836,588.936 269.561,581.769 265.718,575.685C263.94,572.87 263.928,568.94 261.688,566.523C256.619,561.054 246.852,558.537 240.327,555.503C231.591,551.44 222.822,547.455 214.187,543.177C197.282,534.801 180.972,524.834 166.92,512.167C161.596,507.368 156.87,501.976 151.639,497.091C149.042,494.667 146.003,491.634 142.307,491.115C138.049,490.517 134.681,494.266 132.931,497.702C128.902,505.614 129.126,515.29 131.405,523.672C137.603,546.466 161.099,560.775 180.297,571.654L203.501,580.182ZM596.721,580.182C597.008,579.984 597.416,579.637 597.547,579.541C598.365,578.943 599.178,578.338 599.991,577.733C602.341,575.986 604.645,574.182 606.913,572.33C615.119,565.63 621.933,557.604 628.096,549.018C630.466,545.716 632.558,542.234 634.39,538.608C634.459,538.471 636.16,535.085 635.657,535.086C633.659,535.088 630.724,537.451 628.975,538.311C624.06,540.73 619.238,542.986 613.948,544.49C603.093,547.578 591.73,549.716 581.286,554.014C573.163,557.356 565.01,563.133 557.805,568.132C553.966,570.794 547.218,573.469 544.363,577.284C541.253,581.439 542.549,589.555 540.505,594.396C539.139,597.632 535.443,599.632 532.44,601.052C525.398,604.384 517.726,606.403 510.301,608.691C505.773,610.086 501.198,611.582 496.515,612.376C495.654,612.522 494.786,612.522 493.926,612.646C493.828,612.66 492.609,612.859 492.611,612.818C492.656,612.012 496.972,609.991 497.586,609.614C502.662,606.496 507.178,602.618 512.307,599.568C515.467,597.689 519.157,596.234 521.927,593.777C527.386,588.936 530.66,581.769 534.503,575.685C536.282,572.87 536.293,568.94 538.533,566.523C543.603,561.054 553.369,558.537 559.894,555.503C568.63,551.44 577.4,547.455 586.034,543.177C602.939,534.801 619.25,524.834 633.302,512.167C638.625,507.368 643.351,501.976 648.583,497.091C651.179,494.667 654.218,491.634 657.915,491.115C662.172,490.517 665.541,494.266 667.291,497.702C671.32,505.614 671.095,515.29 668.816,523.672C662.618,546.466 639.122,560.775 619.925,571.654L596.721,580.182C596.549,580.301 596.419,580.367 596.418,580.294L596.721,580.182Z" style="fill:rgb(141,241,255);"/>
                        </g>
                        <path d="M384.336,602.617C387.286,602.999 394.925,604.143 400.242,604.143C405.56,604.143 413.289,602.999 416.24,602.617C424.006,601.612 431.749,600.445 439.451,599.029C471.173,593.197 504.03,583.248 534.159,571.967C567.713,559.404 599.25,550.664 631.246,533.507C637.288,530.267 639.161,528.406 645.515,522.508C647.985,520.216 649.643,516.343 652.486,506.916C653.343,504.074 659.849,520.289 657.407,523.657C653.712,528.753 652.171,532.582 647.889,537.13C640.481,544.997 634.358,552.609 625.194,558.448C594.465,578.025 553.446,589.613 516.938,601.509C495.134,608.614 476.709,614.394 450.679,619.956C439.41,622.364 412.125,625.19 400.229,624.96C388.332,625.19 361.048,622.364 349.779,619.956C323.749,614.394 305.324,608.614 283.52,601.509C247.012,589.613 205.993,578.025 175.264,558.448C166.1,552.609 157.978,545.132 151.437,536.529C147.18,530.929 145.38,527.748 143.374,524.222C141.317,520.606 147.011,505.232 147.539,506.878C152.706,523.008 155.41,522.697 164.322,529.09C193.669,550.144 232.174,558.843 265.728,571.406C295.858,582.687 329.403,593.197 361.124,599.029C368.826,600.445 376.57,601.612 384.336,602.617Z" style="fill:none;stroke:black;stroke-width:2.1px;"/>
                    </g>
                    <g transform="matrix(0.910347,0,0,0.910347,35.8819,15.4275)">
                        <path d="M384.336,602.617C387.286,602.999 394.925,604.143 400.242,604.143C405.56,604.143 413.289,602.999 416.24,602.617C424.006,601.612 431.749,600.445 439.451,599.029C471.173,593.197 504.03,583.248 534.159,571.967C567.713,559.404 599.25,550.664 631.246,533.507C637.288,530.267 639.161,528.406 645.515,522.508C647.985,520.216 649.643,516.343 652.486,506.916C653.343,504.074 659.849,520.289 657.407,523.657C653.712,528.753 652.171,532.582 647.889,537.13C640.481,544.997 634.358,552.609 625.194,558.448C594.465,578.025 553.446,589.613 516.938,601.509C495.134,608.614 476.709,614.394 450.679,619.956C439.41,622.364 412.125,625.19 400.229,624.96C388.332,625.19 361.048,622.364 349.779,619.956C323.749,614.394 305.324,608.614 283.52,601.509C247.012,589.613 205.993,578.025 175.264,558.448C166.1,552.609 157.978,545.132 151.437,536.529C147.18,530.929 145.38,527.748 143.374,524.222C141.317,520.606 147.011,505.232 147.539,506.878C152.706,523.008 155.41,522.697 164.322,529.09C193.669,550.144 232.174,558.843 265.728,571.406C295.858,582.687 329.403,593.197 361.124,599.029C368.826,600.445 376.57,601.612 384.336,602.617Z" style="fill:rgb(41,158,208);"/>
                        <clipPath id="_clip15_astro_helmet">
                            <path d="M384.336,602.617C387.286,602.999 394.925,604.143 400.242,604.143C405.56,604.143 413.289,602.999 416.24,602.617C424.006,601.612 431.749,600.445 439.451,599.029C471.173,593.197 504.03,583.248 534.159,571.967C567.713,559.404 599.25,550.664 631.246,533.507C637.288,530.267 639.161,528.406 645.515,522.508C647.985,520.216 649.643,516.343 652.486,506.916C653.343,504.074 659.849,520.289 657.407,523.657C653.712,528.753 652.171,532.582 647.889,537.13C640.481,544.997 634.358,552.609 625.194,558.448C594.465,578.025 553.446,589.613 516.938,601.509C495.134,608.614 476.709,614.394 450.679,619.956C439.41,622.364 412.125,625.19 400.229,624.96C388.332,625.19 361.048,622.364 349.779,619.956C323.749,614.394 305.324,608.614 283.52,601.509C247.012,589.613 205.993,578.025 175.264,558.448C166.1,552.609 157.978,545.132 151.437,536.529C147.18,530.929 145.38,527.748 143.374,524.222C141.317,520.606 147.011,505.232 147.539,506.878C152.706,523.008 155.41,522.697 164.322,529.09C193.669,550.144 232.174,558.843 265.728,571.406C295.858,582.687 329.403,593.197 361.124,599.029C368.826,600.445 376.57,601.612 384.336,602.617Z"/>
                        </clipPath>
                        <g clip-path="url(#_clip15_astro_helmet)">
                            <path d="M203.501,580.182C203.673,580.301 203.802,580.367 203.804,580.294L203.501,580.182C203.213,579.984 202.806,579.637 202.675,579.541C201.856,578.943 201.044,578.338 200.23,577.733C197.88,575.986 195.577,574.182 193.308,572.33C185.103,565.63 178.289,557.604 172.125,549.018C169.755,545.716 167.664,542.234 165.831,538.608C165.762,538.471 164.062,535.085 164.564,535.086C166.562,535.088 169.497,537.451 171.246,538.311C176.161,540.73 180.984,542.986 186.274,544.49C197.128,547.578 208.491,549.716 218.935,554.014C227.058,557.356 235.211,563.133 242.417,568.132C246.256,570.794 253.003,573.469 255.859,577.284C258.969,581.439 257.673,589.555 259.716,594.396C261.082,597.632 264.778,599.632 267.781,601.052C274.824,604.384 282.496,606.403 289.921,608.691C294.448,610.086 299.024,611.582 303.706,612.376C304.567,612.522 305.436,612.522 306.295,612.646C306.393,612.66 307.612,612.859 307.61,612.818C307.566,612.012 303.249,609.991 302.636,609.614C297.56,606.496 293.043,602.618 287.915,599.568C284.755,597.689 281.065,596.234 278.295,593.777C272.836,588.936 269.561,581.769 265.718,575.685C263.94,572.87 263.928,568.94 261.688,566.523C256.619,561.054 246.852,558.537 240.327,555.503C231.591,551.44 222.822,547.455 214.187,543.177C197.282,534.801 180.972,524.834 166.92,512.167C161.596,507.368 156.87,501.976 151.639,497.091C149.042,494.667 146.003,491.634 142.307,491.115C138.049,490.517 134.681,494.266 132.931,497.702C128.902,505.614 129.126,515.29 131.405,523.672C137.603,546.466 161.099,560.775 180.297,571.654L203.501,580.182ZM596.721,580.182C597.008,579.984 597.416,579.637 597.547,579.541C598.365,578.943 599.178,578.338 599.991,577.733C602.341,575.986 604.645,574.182 606.913,572.33C615.119,565.63 621.933,557.604 628.096,549.018C630.466,545.716 632.558,542.234 634.39,538.608C634.459,538.471 636.16,535.085 635.657,535.086C633.659,535.088 630.724,537.451 628.975,538.311C624.06,540.73 619.238,542.986 613.948,544.49C603.093,547.578 591.73,549.716 581.286,554.014C573.163,557.356 565.01,563.133 557.805,568.132C553.966,570.794 547.218,573.469 544.363,577.284C541.253,581.439 542.549,589.555 540.505,594.396C539.139,597.632 535.443,599.632 532.44,601.052C525.398,604.384 517.726,606.403 510.301,608.691C505.773,610.086 501.198,611.582 496.515,612.376C495.654,612.522 494.786,612.522 493.926,612.646C493.828,612.66 492.609,612.859 492.611,612.818C492.656,612.012 496.972,609.991 497.586,609.614C502.662,606.496 507.178,602.618 512.307,599.568C515.467,597.689 519.157,596.234 521.927,593.777C527.386,588.936 530.66,581.769 534.503,575.685C536.282,572.87 536.293,568.94 538.533,566.523C543.603,561.054 553.369,558.537 559.894,555.503C568.63,551.44 577.4,547.455 586.034,543.177C602.939,534.801 619.25,524.834 633.302,512.167C638.625,507.368 643.351,501.976 648.583,497.091C651.179,494.667 654.218,491.634 657.915,491.115C662.172,490.517 665.541,494.266 667.291,497.702C671.32,505.614 671.095,515.29 668.816,523.672C662.618,546.466 639.122,560.775 619.925,571.654L596.721,580.182C596.549,580.301 596.419,580.367 596.418,580.294L596.721,580.182Z" style="fill:rgb(141,241,255);"/>
                        </g>
                        <path d="M384.336,602.617C387.286,602.999 394.925,604.143 400.242,604.143C405.56,604.143 413.289,602.999 416.24,602.617C424.006,601.612 431.749,600.445 439.451,599.029C471.173,593.197 504.03,583.248 534.159,571.967C567.713,559.404 599.25,550.664 631.246,533.507C637.288,530.267 639.161,528.406 645.515,522.508C647.985,520.216 649.643,516.343 652.486,506.916C653.343,504.074 659.849,520.289 657.407,523.657C653.712,528.753 652.171,532.582 647.889,537.13C640.481,544.997 634.358,552.609 625.194,558.448C594.465,578.025 553.446,589.613 516.938,601.509C495.134,608.614 476.709,614.394 450.679,619.956C439.41,622.364 412.125,625.19 400.229,624.96C388.332,625.19 361.048,622.364 349.779,619.956C323.749,614.394 305.324,608.614 283.52,601.509C247.012,589.613 205.993,578.025 175.264,558.448C166.1,552.609 157.978,545.132 151.437,536.529C147.18,530.929 145.38,527.748 143.374,524.222C141.317,520.606 147.011,505.232 147.539,506.878C152.706,523.008 155.41,522.697 164.322,529.09C193.669,550.144 232.174,558.843 265.728,571.406C295.858,582.687 329.403,593.197 361.124,599.029C368.826,600.445 376.57,601.612 384.336,602.617Z" style="fill:none;stroke:black;stroke-width:2.1px;"/>
                    </g>
                </g>
            </g>
        </g>
    </g>
    <defs>
        <linearGradient id="_Linear7_astro_helmet" x1="0" y1="0" x2="1" y2="0" gradientUnits="userSpaceOnUse" gradientTransform="matrix(-538.2,58.6485,-58.6485,-538.2,669.329,279.52)">
            <stop offset="0" style="stop-color:rgb(237,30,121);stop-opacity:1"/>
            <stop offset="0.16" style="stop-color:rgb(11,183,255);stop-opacity:1"/>
            <stop offset="0.44" style="stop-color:rgb(251,176,59);stop-opacity:1"/>
            <stop offset="0.67" style="stop-color:rgb(241,90,36);stop-opacity:1"/>
            <stop offset="0.87" style="stop-color:rgb(145,58,231);stop-opacity:1"/>
            <stop offset="1" style="stop-color:rgb(251,176,59);stop-opacity:1"/>
        </linearGradient>
    </defs>
</svg>
