<?xml version="1.0" encoding="UTF-8" standalone="no"?>
<!DOCTYPE svg PUBLIC "-//W3C//DTD SVG 1.1//EN" "http://www.w3.org/Graphics/SVG/1.1/DTD/svg11.dtd">
<svg
  width="100%"
  height="100%"
  viewBox="0 0 800 800"
  version="1.1"
  xmlns="http://www.w3.org/2000/svg"
  xmlns:xlink="http://www.w3.org/1999/xlink"
  xml:space="preserve"
  xmlns:serif="http://www.serif.com/"
  style="fill-rule: evenodd; clip-rule: evenodd; stroke-linecap: round; stroke-linejoin: round; stroke-miterlimit: 1.5"
>
  <g id="legendary-card" serif:id="legendary card">
    <rect id="bg" x="-48.418" y="-9.957" width="931.967" height="871.066" style="fill: url(#_Linear1)" />
    <g id="rarity-bars" serif:id="rarity bars" transform="matrix(0.86723,0,0,0.86723,10.4494,88.5493)">
      <g id="rarity-bars-fill" serif:id="rarity bars fill">
        <g transform="matrix(0.114833,0,0,0.114833,59.0756,653.445)">
          <path
            d="M400,117.517L629.266,249.774L629.266,514.685L400.192,646.941L400.192,647.052L400.096,646.997L400,647.052L400,646.941L170.925,514.685L170.925,249.774L400,117.517Z"
            style="fill: rgb(139, 57, 219)"
          />
        </g>
        <g transform="matrix(0.114833,0,0,0.114833,126.648,653.445)">
          <path
            d="M400,117.517L629.266,249.774L629.266,514.685L400.192,646.941L400.192,647.052L400.096,646.997L400,647.052L400,646.941L170.925,514.685L170.925,249.774L400,117.517Z"
            style="fill: rgb(237, 30, 121)"
          />
        </g>
        <g transform="matrix(0.114833,0,0,0.114833,194.22,653.445)">
          <path
            d="M400,117.517L629.266,249.774L629.266,514.685L400.192,646.941L400.192,647.052L400.096,646.997L400,647.052L400,646.941L170.925,514.685L170.925,249.774L400,117.517Z"
            style="fill: rgb(241, 90, 36)"
          />
        </g>
        <g transform="matrix(0.114833,0,0,0.114833,261.792,653.445)">
          <path
            d="M400,117.517L629.266,249.774L629.266,514.685L400.192,646.941L400.192,647.052L400.096,646.997L400,647.052L400,646.941L170.925,514.685L170.925,249.774L400,117.517Z"
            style="fill: rgb(251, 176, 59)"
          />
        </g>
        <g transform="matrix(0.114833,0,0,0.114833,329.364,653.445)">
          <path
            d="M400,117.517L629.266,249.774L629.266,514.685L400.192,646.941L400.192,647.052L400.096,646.997L400,647.052L400,646.941L170.925,514.685L170.925,249.774L400,117.517Z"
            style="fill: rgb(41, 171, 226)"
          />
        </g>
      </g>
      <g id="rarity-bars-stroke" serif:id="rarity bars stroke">
        <g transform="matrix(0.114833,0,0,0.114833,59.0756,653.445)">
          <path
            d="M400,117.517L629.266,249.774L629.266,514.685L400.192,646.941L400.192,647.052L400.096,646.997L400,647.052L400,646.941L170.925,514.685L170.925,249.774L400,117.517Z"
            style="fill: none; stroke: white; stroke-width: 34.83px"
          />
        </g>
        <g transform="matrix(0.114833,0,0,0.114833,126.648,653.445)">
          <path
            d="M400,117.517L629.266,249.774L629.266,514.685L400.192,646.941L400.192,647.052L400.096,646.997L400,647.052L400,646.941L170.925,514.685L170.925,249.774L400,117.517Z"
            style="fill: none; stroke: white; stroke-width: 34.83px"
          />
        </g>
        <g transform="matrix(0.114833,0,0,0.114833,194.22,653.445)">
          <path
            d="M400,117.517L629.266,249.774L629.266,514.685L400.192,646.941L400.192,647.052L400.096,646.997L400,647.052L400,646.941L170.925,514.685L170.925,249.774L400,117.517Z"
            style="fill: none; stroke: white; stroke-width: 34.83px"
          />
        </g>
        <g transform="matrix(0.114833,0,0,0.114833,261.792,653.445)">
          <path
            d="M400,117.517L629.266,249.774L629.266,514.685L400.192,646.941L400.192,647.052L400.096,646.997L400,647.052L400,646.941L170.925,514.685L170.925,249.774L400,117.517Z"
            style="fill: none; stroke: white; stroke-width: 34.83px"
          />
        </g>
        <g transform="matrix(0.114833,0,0,0.114833,329.364,653.445)">
          <path
            d="M400,117.517L629.266,249.774L629.266,514.685L400.192,646.941L400.192,647.052L400.096,646.997L400,647.052L400,646.941L170.925,514.685L170.925,249.774L400,117.517Z"
            style="fill: none; stroke: white; stroke-width: 34.83px"
          />
        </g>
      </g>
    </g>
    <g transform="matrix(0.720342,0,0,0.720342,23.1337,330.63)">
      <text x="77.471px" y="439.84px" style="font-family: 'Futura-Medium', 'Futura', sans-serif; font-weight: 500; font-size: 50px; fill: white">
        RARIT
        <tspan x="216.021px " y="439.84px ">Y</tspan>
      </text>
    </g>
    <g id="eye" transform="matrix(1,0,0,1,-155.551,0)">
      <g transform="matrix(0.88044,0,0,0.88044,68.5829,70.2432)">
        <path
          d="M634.355,700.111C653.954,688.642 678.218,688.642 697.818,700.111C704.234,703.866 709.059,706.69 709.059,706.69C709.059,706.69 704.234,709.513 697.818,713.268C678.218,724.738 653.954,724.738 634.355,713.268C627.938,709.513 623.113,706.69 623.113,706.69C623.113,706.69 627.938,703.866 634.355,700.111Z"
          style="fill: white"
        />
      </g>
      <circle cx="655.032" cy="692.441" r="13.365" style="fill: rgb(6, 46, 66)" />
    </g>
    <g transform="matrix(0.720342,0,0,0.720342,366.834,330.63)">
      <text x="124.102px" y="439.84px" style="font-family: 'Futura-Medium', 'Futura', sans-serif; font-weight: 500; font-size: 50px; fill: white">
        SL
        <tspan x="173.882px 217.217px " y="439.84px 439.84px ">OT</tspan>
      </text>
    </g>
    <g transform="matrix(1,0,0,1,-7.69409,0)">
      <path
        d="M82.194,602.738L733.196,602.258C733.979,602.258 734.615,601.621 734.614,600.838C734.614,600.055 733.977,599.42 733.194,599.42L82.192,599.9C81.409,599.901 80.773,600.537 80.774,601.321C80.775,602.104 81.411,602.739 82.194,602.738Z"
        style="fill: white"
      />
      <clipPath id="_clip2">
        <path
          d="M82.194,602.738L733.196,602.258C733.979,602.258 734.615,601.621 734.614,600.838C734.614,600.055 733.977,599.42 733.194,599.42L82.192,599.9C81.409,599.901 80.773,600.537 80.774,601.321C80.775,602.104 81.411,602.739 82.194,602.738Z"
        />
      </clipPath>
      <g clip-path="url(#_clip2)">
        <g transform="matrix(1.00436,0,0,2.42829,-1.77732,-904.509)">
          <rect x="82.193" y="587.181" width="651.002" height="46.101" style="fill: url(#_Linear3)" />
        </g>
      </g>
    </g>
    <g transform="matrix(1,0,0,1,120.441,145.046)">
      <clipPath id="_clip4">
        <path
          d="M89.874,420.137L79.498,402.144L85.967,402.144L93.169,414.913L100.738,402.144L107.256,402.144L96.392,420.137L107.793,439.84L101.421,439.84L93.072,425.411L84.478,439.84L78.033,439.84L89.874,420.137ZM118.56,424.532L118.56,439.84L112.872,439.84L112.872,402.144L119.317,402.144C122.474,402.144 124.859,402.364 126.47,402.803C128.098,403.243 129.53,404.073 130.767,405.294C132.932,407.409 134.014,410.079 134.014,413.301C134.014,416.752 132.859,419.486 130.547,421.505C128.236,423.523 125.119,424.532 121.197,424.532L118.56,424.532ZM118.56,419.258L120.684,419.258C125.909,419.258 128.521,417.248 128.521,413.228C128.521,409.338 125.827,407.393 120.44,407.393L118.56,407.393L118.56,419.258ZM145.562,402.144L145.562,434.493L156.646,434.493L156.646,439.84L139.874,439.84L139.874,402.144L145.562,402.144ZM158.624,420.821C158.624,415.515 160.569,410.958 164.459,407.149C168.332,403.34 172.987,401.436 178.423,401.436C183.794,401.436 188.401,403.357 192.242,407.198C196.099,411.039 198.028,415.653 198.028,421.041C198.028,426.461 196.091,431.059 192.217,434.835C188.327,438.627 183.632,440.523 178.13,440.523C173.264,440.523 168.894,438.839 165.02,435.469C160.756,431.742 158.624,426.859 158.624,420.821ZM164.361,420.894C164.361,425.061 165.761,428.487 168.56,431.173C171.343,433.858 174.558,435.201 178.204,435.201C182.159,435.201 185.495,433.834 188.213,431.099C190.932,428.332 192.291,424.963 192.291,420.992C192.291,416.972 190.948,413.603 188.262,410.884C185.593,408.15 182.289,406.783 178.35,406.783C174.428,406.783 171.115,408.15 168.414,410.884C165.712,413.586 164.361,416.923 164.361,420.894ZM217.95,423.775L229.62,439.84L222.662,439.84L211.895,424.41L210.87,424.41L210.87,439.84L205.181,439.84L205.181,402.144L211.846,402.144C216.827,402.144 220.424,403.08 222.637,404.952C225.079,407.035 226.299,409.786 226.299,413.204C226.299,415.873 225.534,418.168 224.004,420.089C222.474,422.009 220.456,423.238 217.95,423.775ZM210.87,419.454L212.676,419.454C218.064,419.454 220.757,417.395 220.757,413.277C220.757,409.42 218.137,407.491 212.896,407.491L210.87,407.491L210.87,419.454ZM256.085,407.491L240.972,407.491L240.972,416.548L255.645,416.548L255.645,421.895L240.972,421.895L240.972,434.493L256.085,434.493L256.085,439.84L235.284,439.84L235.284,402.144L256.085,402.144L256.085,407.491ZM276.324,423.775L287.994,439.84L281.036,439.84L270.269,424.41L269.244,424.41L269.244,439.84L263.555,439.84L263.555,402.144L270.22,402.144C275.201,402.144 278.798,403.08 281.011,404.952C283.453,407.035 284.673,409.786 284.673,413.204C284.673,415.873 283.908,418.168 282.378,420.089C280.849,422.009 278.83,423.238 276.324,423.775ZM269.244,419.454L271.05,419.454C276.438,419.454 279.131,417.395 279.131,413.277C279.131,409.42 276.511,407.491 271.27,407.491L269.244,407.491L269.244,419.454ZM314.776,416.89L331.036,416.89L331.036,402.144L336.724,402.144L336.724,439.84L331.036,439.84L331.036,422.237L314.776,422.237L314.776,439.84L309.087,439.84L309.087,402.144L314.776,402.144L314.776,416.89ZM366.558,407.491L351.446,407.491L351.446,416.548L366.119,416.548L366.119,421.895L351.446,421.895L351.446,434.493L366.558,434.493L366.558,439.84L345.757,439.84L345.757,402.144L366.558,402.144L366.558,407.491ZM379.717,402.144L379.717,434.493L390.801,434.493L390.801,439.84L374.029,439.84L374.029,402.144L379.717,402.144ZM394.878,439.84L402.813,399.312L415.752,428.609L429.156,399.312L436.285,439.84L430.45,439.84L426.812,417.086L415.655,441.573L404.815,417.061L400.762,439.84L394.878,439.84ZM465.069,407.491L449.957,407.491L449.957,416.548L464.629,416.548L464.629,421.895L449.957,421.895L449.957,434.493L465.069,434.493L465.069,439.84L444.268,439.84L444.268,402.144L465.069,402.144L465.069,407.491ZM482.94,407.491L482.94,439.84L477.252,439.84L477.252,407.491L468.585,407.491L468.585,402.144L491.583,402.144L491.583,407.491L482.94,407.491Z"
          clip-rule="nonzero"
        />
      </clipPath>
      <g>
        <text x="77.471px" y="439.84px" style="font-family: 'Futura-Medium', 'Futura', sans-serif; font-weight: 500; font-size: 50px; fill: white">
          <tspan x="60.457px 95.461px " y="439.84px 439.84px ">CRONIC EYEPATCH</tspan>
        </text>
      </g>
    </g>
    <g id="rectangles" transform="matrix(1,0,0,1,0.177165,15.0591)">
      <g opacity="0.51">
        <g transform="matrix(0.660629,0,0,1.04551,351.522,-34.4635)">
          <rect x="462.47" y="633.282" width="419.335" height="322.449" style="fill: none" />
          <clipPath id="_clip6">
            <rect x="462.47" y="633.282" width="419.335" height="322.449" />
          </clipPath>
          <g clip-path="url(#_clip6)">
            <g transform="matrix(1.51371,0,0,0.956468,-452.99,37.369)">
              <path d="M604.78,633.282L877.032,634.306" style="fill: none; stroke: rgb(166, 240, 98); stroke-width: 4px; stroke-dasharray: 4.25, 7.5, 0, 0" />
            </g>
            <g transform="matrix(1.51371,0,0,0.956468,-452.99,58.0423)">
              <path d="M604.78,633.282L877.032,634.306" style="fill: none; stroke: rgb(166, 240, 98); stroke-width: 4px; stroke-dasharray: 4.25, 7.5, 0, 0" />
            </g>
            <g transform="matrix(1.51371,0,0,0.956468,-452.99,68.3789)">
              <path d="M604.78,633.282L877.032,634.306" style="fill: none; stroke: rgb(166, 240, 98); stroke-width: 4px; stroke-dasharray: 4.25, 7.5, 0, 0" />
            </g>
            <g transform="matrix(1.51371,0,0,0.956468,-452.99,89.0522)">
              <path d="M604.78,633.282L877.032,634.306" style="fill: none; stroke: rgb(166, 240, 98); stroke-width: 4px; stroke-dasharray: 4.25, 7.5, 0, 0" />
            </g>
            <g transform="matrix(1.51371,0,0,0.956468,-452.99,99.3888)">
              <path d="M604.78,633.282L877.032,634.306" style="fill: none; stroke: rgb(166, 240, 98); stroke-width: 4px; stroke-dasharray: 4.25, 7.5, 0, 0" />
            </g>
            <g transform="matrix(1.51371,0,0,0.956468,-452.99,130.399)">
              <path d="M604.78,633.282L877.032,634.306" style="fill: none; stroke: rgb(166, 240, 98); stroke-width: 4px; stroke-dasharray: 4.25, 7.5, 0, 0" />
            </g>
            <g transform="matrix(1.51371,0,0,0.956468,-452.99,151.072)">
              <path d="M604.78,633.282L877.032,634.306" style="fill: none; stroke: rgb(166, 240, 98); stroke-width: 4px; stroke-dasharray: 4.25, 7.5, 0, 0" />
            </g>
            <g transform="matrix(1.51371,0,0,0.956468,-452.99,171.745)">
              <path d="M604.78,633.282L877.032,634.306" style="fill: none; stroke: rgb(166, 240, 98); stroke-width: 4px; stroke-dasharray: 4.25, 7.5, 0, 0" />
            </g>
          </g>
          <rect x="462.47" y="633.282" width="419.335" height="322.449" style="fill: none; stroke: rgb(166, 240, 98); stroke-width: 4.57px; stroke-dasharray: 4.86, 8.58, 0, 0" />
        </g>
        <g transform="matrix(0.192707,0,0,1.04551,466.744,2.40586)">
          <rect x="462.47" y="633.282" width="419.335" height="322.449" style="fill: none" />
          <clipPath id="_clip7">
            <rect x="462.47" y="633.282" width="419.335" height="322.449" />
          </clipPath>
          <g clip-path="url(#_clip7)">
            <g transform="matrix(1.51371,0,0,0.956468,-452.99,37.369)">
              <path d="M604.78,633.282L877.032,634.306" style="fill: none; stroke: rgb(237, 30, 121); stroke-width: 5.43px; stroke-dasharray: 5.77, 10.18, 0, 0" />
            </g>
            <g transform="matrix(1.51371,0,0,0.956468,-452.99,58.0423)">
              <path d="M604.78,633.282L877.032,634.306" style="fill: none; stroke: rgb(237, 30, 121); stroke-width: 5.43px; stroke-dasharray: 5.77, 10.18, 0, 0" />
            </g>
            <g transform="matrix(1.51371,0,0,0.956468,-452.99,68.3789)">
              <path d="M604.78,633.282L877.032,634.306" style="fill: none; stroke: rgb(237, 30, 121); stroke-width: 5.43px; stroke-dasharray: 5.77, 10.18, 0, 0" />
            </g>
            <g transform="matrix(1.51371,0,0,0.956468,-452.99,89.0522)">
              <path d="M604.78,633.282L877.032,634.306" style="fill: none; stroke: rgb(237, 30, 121); stroke-width: 5.43px; stroke-dasharray: 5.77, 10.18, 0, 0" />
            </g>
            <g transform="matrix(1.51371,0,0,0.956468,-452.99,99.3888)">
              <path d="M604.78,633.282L877.032,634.306" style="fill: none; stroke: rgb(237, 30, 121); stroke-width: 5.43px; stroke-dasharray: 5.77, 10.18, 0, 0" />
            </g>
            <g transform="matrix(1.51371,0,0,0.956468,-452.99,130.399)">
              <path d="M604.78,633.282L877.032,634.306" style="fill: none; stroke: rgb(237, 30, 121); stroke-width: 5.43px; stroke-dasharray: 5.77, 10.18, 0, 0" />
            </g>
          </g>
          <rect x="462.47" y="633.282" width="419.335" height="322.449" style="fill: none; stroke: rgb(237, 30, 121); stroke-width: 5.32px; stroke-dasharray: 5.65, 9.98, 0, 0" />
        </g>
      </g>
    </g>
    <g id="circles" opacity="0.5">
      <g transform="matrix(1,0,0,1,-118.853,-94.5905)">
        <circle cx="155.124" cy="124.814" r="124.814" style="fill: none; stroke: rgb(255, 207, 0); stroke-width: 4px; stroke-dasharray: 4.25, 7.5, 0, 0" />
      </g>
      <g transform="matrix(0.928318,0,0,0.928318,-107.734,-85.6437)">
        <circle cx="155.124" cy="124.814" r="124.814" style="fill: none; stroke: rgb(255, 207, 0); stroke-width: 4.31px; stroke-dasharray: 4.58, 8.08, 0, 0" />
      </g>
      <g transform="matrix(0.691272,0,0,0.691272,-70.9623,-56.0571)">
        <circle cx="155.124" cy="124.814" r="124.814" style="fill: none; stroke: rgb(255, 108, 0); stroke-width: 5.79px; stroke-dasharray: 6.15, 10.85, 0, 0" />
      </g>
    </g>
    <g id="pipes">
      <g id="p3">
        <g transform="matrix(-1,0,0,-1.23406,809.786,653.865)">
          <path
            d="M739.743,143.584C742.2,143.904 763.807,143.335 766.285,143.374C774.101,143.496 781.589,141.726 788.792,138.73C809.321,130.19 826.172,112.989 841.732,97.688C893.829,46.459 943.376,-14.345 1023.83,-2.678C1039.04,-0.471 1077.35,3.66 1084.33,20.769C1093.6,43.478 1018.75,47.744 1004.3,57C986.6,68.337 927.803,111.666 914.354,121.391C871.096,152.672 839.941,199.123 786.168,200.915C778.512,201.17 740.594,200.706 740.594,200.706C740.594,200.706 739.274,153.317 739.743,143.584Z"
            style="fill: rgb(255, 184, 104); fill-opacity: 0.8; stroke: rgb(162, 85, 67); stroke-opacity: 0.8; stroke-width: 3.56px"
          />
        </g>
        <g transform="matrix(1,0,0,1,-666.673,275.846)">
          <path
            d="M754.975,116.711C754.975,113.161 752.092,110.278 748.542,110.278L717.18,110.278C713.629,110.278 710.747,113.161 710.747,116.711L710.747,215.627C710.747,219.178 713.629,222.06 717.18,222.06L748.542,222.06C752.092,222.06 754.975,219.178 754.975,215.627L754.975,116.711Z"
            style="fill: rgb(92, 231, 255); stroke: rgb(79, 173, 255); stroke-width: 4px"
          />
        </g>
      </g>
      <g id="p2">
        <g transform="matrix(1,0,0,1.23406,0,89.0184)">
          <path
            d="M739.743,143.584C742.2,143.904 763.807,143.335 766.285,143.374C774.101,143.496 781.589,141.726 788.792,138.73C809.321,130.19 826.172,112.989 841.732,97.688C893.829,46.459 943.376,-14.345 1023.83,-2.678C1039.04,-0.471 1077.35,3.66 1084.33,20.769C1093.6,43.478 1018.75,47.744 1004.3,57C986.6,68.337 927.803,111.666 914.354,121.391C871.096,152.672 839.941,199.123 786.168,200.915C778.512,201.17 740.594,200.706 740.594,200.706C740.594,200.706 739.274,153.317 739.743,143.584Z"
            style="fill: rgb(92, 231, 255); fill-opacity: 0.8; stroke: rgb(79, 173, 255); stroke-opacity: 0.8; stroke-width: 3.56px"
          />
        </g>
        <g transform="matrix(1,0,0,1,0,135.354)">
          <path
            d="M754.975,116.711C754.975,113.161 752.092,110.278 748.542,110.278L717.18,110.278C713.629,110.278 710.747,113.161 710.747,116.711L710.747,215.627C710.747,219.178 713.629,222.06 717.18,222.06L748.542,222.06C752.092,222.06 754.975,219.178 754.975,215.627L754.975,116.711Z"
            style="fill: rgb(255, 184, 104); stroke: rgb(203, 100, 74); stroke-width: 4px"
          />
        </g>
      </g>
      <g id="p1">
        <g transform="matrix(1,0,0,1.23406,0,-47.9304)">
          <path
            d="M739.743,143.584C742.2,143.904 763.807,143.335 766.285,143.374C774.101,143.496 781.589,141.726 788.792,138.73C809.321,130.19 826.172,112.989 841.732,97.688C893.829,46.459 943.376,-14.345 1023.83,-2.678C1039.04,-0.471 1077.35,3.66 1084.33,20.769C1093.6,43.478 1018.75,47.744 1004.3,57C986.6,68.337 927.803,111.666 914.354,121.391C871.096,152.672 839.941,199.123 786.168,200.915C778.512,201.17 740.594,200.706 740.594,200.706C740.594,200.706 739.274,153.317 739.743,143.584Z"
            style="fill: rgb(248, 126, 224); fill-opacity: 0.8; stroke: rgb(225, 82, 197); stroke-opacity: 0.8; stroke-width: 3.56px"
          />
        </g>
        <path
          d="M754.975,116.711C754.975,113.161 752.092,110.278 748.542,110.278L717.18,110.278C713.629,110.278 710.747,113.161 710.747,116.711L710.747,215.627C710.747,219.178 713.629,222.06 717.18,222.06L748.542,222.06C752.092,222.06 754.975,219.178 754.975,215.627L754.975,116.711Z"
          style="fill: rgb(166, 240, 98); stroke: rgb(83, 134, 75); stroke-width: 4px"
        />
      </g>
    </g>
    <path
      id="border"
      d="M800,801.235L800,-4.106L-0,-4.106L0,801.235L800,801.235ZM260.875,30.644L30.644,30.644C30.644,30.644 30.644,769.356 30.644,769.356C30.644,769.356 769.356,769.356 769.356,769.356L769.356,30.644L539.125,30.644L539.125,61.806L260.875,61.806L260.875,30.644Z"
      style="fill: url(#_Linear8)"
    />
    <g id="guide" transform="matrix(1,0,0,1.04284,1.75676,-22.4672)">
      <rect x="82.193" y="95.569" width="632.101" height="428.927" style="fill: url(#_Linear9); stroke: rgb(251, 219, 59); stroke-width: 4.8px" />
    </g>
    <g>
      <g id="accessories-front" serif:id="accessories front">
        <g id="cronic-eyepatch" serif:id="cronic eyepatch">
          <path
            id="shadow"
            d="M411.161,322.484C414.446,323.606 412.626,381.689 458.338,403.888C498.894,423.584 531.852,397.8 545.828,381.374C559.805,364.949 564.636,333.59 564.636,333.59C564.636,333.59 427.437,322.538 386.105,307.15C344.773,291.762 221.473,234.41 221.473,234.41L221.396,240.059C221.396,240.059 226.811,259.558 411.161,322.484Z"
            style="fill: rgb(56, 25, 57); fill-opacity: 0.5"
          />
          <path
            id="strap"
            d="M419.165,322.329C419.165,322.329 241.312,262.673 221.376,238.642C219.48,228.395 221.313,225.422 221.313,225.422C221.313,225.422 266.691,255.324 421.761,311.128C424.698,318.684 419.165,322.329 419.165,322.329Z"
            style="fill: rgb(53, 53, 53)"
          />
          <clipPath id="_clip1_eyepatch">
            <path
              id="strap1"
              serif:id="strap"
              d="M419.165,322.329C419.165,322.329 241.312,262.673 221.376,238.642C219.48,228.395 221.313,225.422 221.313,225.422C221.313,225.422 266.691,255.324 421.761,311.128C424.698,318.684 419.165,322.329 419.165,322.329Z"
            />
          </clipPath>
          <g clip-path="url(#_clip1_eyepatch)">
            <path
              d="M217.434,223.531C218.174,220.92 219.555,218.604 221.797,216.848C221.797,216.848 230.618,218.349 230.405,220.384C230.218,222.169 230.011,224.444 229.829,226.943L380.58,268.446L471.5,324.333C471.5,324.333 495.367,344.696 353.863,288.054C283.502,259.89 247.68,243.321 229.442,233.774C229.256,238.573 229.279,243.334 229.776,246.509C230.17,249.028 229.607,251.606 230.042,254.118C230.519,256.868 230.019,257.261 229.712,257.248C229.06,257.221 227.712,254.45 227.28,254.057C225.189,252.153 223.456,249.987 222.061,247.526C219.106,242.312 216.137,233.852 216.852,226.661C210.732,222.793 210.548,221.635 210.548,221.635L217.434,223.531Z"
              style="fill: rgb(252, 255, 216); fill-opacity: 0.6"
            />
          </g>
          <path
            id="strap2"
            serif:id="strap"
            d="M419.165,322.329C419.165,322.329 241.312,262.673 221.376,238.642C219.48,228.395 221.313,225.422 221.313,225.422C221.313,225.422 266.691,255.324 421.761,311.128C424.698,318.684 419.165,322.329 419.165,322.329Z"
            style="fill: none; stroke: black; stroke-width: 2.1px"
          />
          <g transform="matrix(0.123241,-0.877408,0.867414,0.121837,51.8059,719.095)">
            <path
              d="M520.792,346.6C462.848,346.6 415.804,385.487 415.804,433.386C415.804,481.285 462.848,520.173 520.792,520.173C520.937,491.316 521.055,462.362 521.055,433.386C521.055,404.41 520.937,375.456 520.792,346.6Z"
              style="fill: rgb(53, 53, 53)"
            />
            <clipPath id="_clip2_eyepatch">
              <path
                d="M520.792,346.6C462.848,346.6 415.804,385.487 415.804,433.386C415.804,481.285 462.848,520.173 520.792,520.173C520.937,491.316 521.055,462.362 521.055,433.386C521.055,404.41 520.937,375.456 520.792,346.6Z"
              />
            </clipPath>
            <g clip-path="url(#_clip2_eyepatch)">
              <g id="inner-design-4" serif:id="inner design 4" transform="matrix(-0.00225532,-0.255785,0.252872,-0.0022813,388.991,537.622)">
                <g transform="matrix(0.665952,-0.665952,0.665952,0.665952,-87.8597,380.8)">
                  <path d="M400,86.373L400,578.195" style="fill: none; stroke: rgb(179, 68, 67); stroke-width: 39.39px" />
                </g>
                <g transform="matrix(-0.68633,-0.68633,0.666738,-0.666738,452.985,831.977)">
                  <path d="M400,86.373L400,578.195" style="fill: none; stroke: rgb(179, 68, 67); stroke-width: 38.77px" />
                </g>
                <g transform="matrix(-0.970617,6.93889e-18,6.38378e-16,-0.942911,788.247,649.213)">
                  <path d="M400,86.373L400,578.195" style="fill: none; stroke: rgb(179, 68, 67); stroke-width: 38.77px" />
                </g>
                <g transform="matrix(-1.36002e-15,-0.970617,0.942911,-6.80012e-16,86.6856,724.145)">
                  <path d="M400,86.373L400,578.195" style="fill: none; stroke: rgb(179, 68, 67); stroke-width: 38.77px" />
                </g>
                <g transform="matrix(-1.2356,-1.51317e-16,1.87782e-16,-1.53336,784.53,1644.57)">
                  <path d="M311.366,643.402L343.454,680.713L311.366,718.023L279.277,680.713L311.366,643.402Z" style="fill: none; stroke: rgb(179, 68, 67); stroke-width: 26.64px" />
                </g>
                <g transform="matrix(-0.873702,0.873702,-1.08425,-1.08425,1597.22,989.229)">
                  <path d="M311.366,643.402L343.454,680.713L311.366,718.023L279.277,680.713L311.366,643.402Z" style="fill: none; stroke: rgb(179, 68, 67); stroke-width: 26.64px" />
                </g>
                <g transform="matrix(-3.33067e-16,1.2356,-1.53336,-7.77156e-16,1708.48,-48.8254)">
                  <path d="M311.366,643.402L343.454,680.713L311.366,718.023L279.277,680.713L311.366,643.402Z" style="fill: none; stroke: rgb(179, 68, 67); stroke-width: 26.64px" />
                </g>
                <g transform="matrix(0.873702,0.873702,-1.08425,1.08425,1053.14,-861.514)">
                  <path d="M311.366,643.402L343.454,680.713L311.366,718.023L279.277,680.713L311.366,643.402Z" style="fill: none; stroke: rgb(179, 68, 67); stroke-width: 26.64px" />
                </g>
                <g transform="matrix(1.2356,7.77156e-16,-8.88178e-16,1.53336,15.083,-972.775)">
                  <path d="M311.366,643.402L343.454,680.713L311.366,718.023L279.277,680.713L311.366,643.402Z" style="fill: none; stroke: rgb(179, 68, 67); stroke-width: 26.64px" />
                </g>
                <g transform="matrix(0.873702,-0.873702,1.08425,1.08425,-797.606,-317.433)">
                  <path d="M311.366,643.402L343.454,680.713L311.366,718.023L279.277,680.713L311.366,643.402Z" style="fill: none; stroke: rgb(179, 68, 67); stroke-width: 26.64px" />
                </g>
                <g transform="matrix(9.99201e-16,-1.2356,1.53336,1.55431e-15,-908.867,720.622)">
                  <path d="M311.366,643.402L343.454,680.713L311.366,718.023L279.277,680.713L311.366,643.402Z" style="fill: none; stroke: rgb(179, 68, 67); stroke-width: 26.64px" />
                </g>
                <g transform="matrix(-0.873702,-0.873702,1.08425,-1.08425,-253.525,1533.31)">
                  <path d="M311.366,643.402L343.454,680.713L311.366,718.023L279.277,680.713L311.366,643.402Z" style="fill: none; stroke: rgb(179, 68, 67); stroke-width: 26.64px" />
                </g>
              </g>
              <g transform="matrix(0.156988,1.13055,-1.11767,0.158797,795.579,-172.759)">
                <path
                  d="M390.626,302.858L563.121,328.975C563.121,328.975 561.795,337.532 559.774,343.635C548.395,378.008 518.32,401.02 518.32,401.02C518.32,401.02 574.452,368.545 585.311,350.028C596.17,331.51 588.663,320.088 588.663,320.088L547.141,298.27L408.457,282.125L390.626,302.858Z"
                  style="fill: rgb(252, 255, 216); fill-opacity: 0.6"
                />
              </g>
            </g>
            <path
              d="M520.792,346.6C462.848,346.6 415.804,385.487 415.804,433.386C415.804,481.285 462.848,520.173 520.792,520.173C520.937,491.316 521.055,462.362 521.055,433.386C521.055,404.41 520.937,375.456 520.792,346.6Z"
              style="fill: none; stroke: black; stroke-width: 2.44px"
            />
          </g>
        </g>
      </g>
    </g>
    <defs>
      <linearGradient id="_Linear1" x1="0" y1="0" x2="1" y2="0" gradientUnits="userSpaceOnUse" gradientTransform="matrix(6.69055e-14,-1092.65,1092.65,6.69055e-14,400,1092.65)">
        <stop offset="0" style="stop-color: rgb(7, 30, 41); stop-opacity: 1" />
        <stop offset="1" style="stop-color: rgb(99, 40, 118); stop-opacity: 1" />
      </linearGradient>
      <linearGradient id="_Linear3" x1="0" y1="0" x2="1" y2="0" gradientUnits="userSpaceOnUse" gradientTransform="matrix(401.647,4.68177e-14,-2.92239e-13,401.647,210.808,610.231)">
        <stop offset="0" style="stop-color: rgb(251, 219, 59); stop-opacity: 1" />
        <stop offset="0.31" style="stop-color: rgb(255, 53, 142); stop-opacity: 1" />
        <stop offset="0.5" style="stop-color: rgb(178, 101, 255); stop-opacity: 1" />
        <stop offset="0.83" style="stop-color: rgb(41, 171, 226); stop-opacity: 1" />
        <stop offset="1" style="stop-color: rgb(41, 171, 226); stop-opacity: 1" />
      </linearGradient>
      <linearGradient id="_Linear5" x1="0" y1="0" x2="1" y2="0" gradientUnits="userSpaceOnUse" gradientTransform="matrix(401.647,4.68177e-14,-2.92239e-13,401.647,210.808,610.231)">
        <stop offset="0" style="stop-color: rgb(251, 219, 59); stop-opacity: 1" />
        <stop offset="0.31" style="stop-color: rgb(255, 53, 142); stop-opacity: 1" />
        <stop offset="0.5" style="stop-color: rgb(178, 101, 255); stop-opacity: 1" />
        <stop offset="0.83" style="stop-color: rgb(41, 171, 226); stop-opacity: 1" />
        <stop offset="1" style="stop-color: rgb(41, 171, 226); stop-opacity: 1" />
      </linearGradient>
      <linearGradient id="_Linear8" x1="0" y1="0" x2="1" y2="0" gradientUnits="userSpaceOnUse" gradientTransform="matrix(763.783,-764.481,769.584,768.882,17.1548,782.607)">
        <stop offset="0" style="stop-color: rgb(87, 39, 133); stop-opacity: 1" />
        <stop offset="0.25" style="stop-color: rgb(237, 30, 121); stop-opacity: 1" />
        <stop offset="0.51" style="stop-color: rgb(41, 171, 226); stop-opacity: 1" />
        <stop offset="0.76" style="stop-color: rgb(241, 90, 36); stop-opacity: 1" />
        <stop offset="1" style="stop-color: rgb(251, 176, 59); stop-opacity: 1" />
      </linearGradient>
      <linearGradient id="_Linear9" x1="0" y1="0" x2="1" y2="0" gradientUnits="userSpaceOnUse" gradientTransform="matrix(3.89688e-14,-610.267,636.408,3.73681e-14,398.243,614.74)">
        <stop offset="0" style="stop-color: rgb(80, 225, 255); stop-opacity: 1" />
        <stop offset="0.44" style="stop-color: rgb(219, 249, 255); stop-opacity: 1" />
        <stop offset="1" style="stop-color: white; stop-opacity: 1" />
      </linearGradient>
    </defs>
  </g>
</svg>
