<svg viewBox="0 0 800 800" xmlns="http://www.w3.org/2000/svg">
  <g id="hairstyles-front">
    <g id="hairstyle-1">
      <path
        d="M406.869,-73.661C413.305,-59.495 437.349,-22.33 441.982,-10.078C443.832,-5.186 443.968,11.343 443.968,11.343C443.968,11.343 451.038,4.184 453.382,1.611C462.565,-8.473 474.219,-15.861 484.136,-25.173C485.624,-26.57 497.328,-37.608 497.328,-37.608C497.328,-37.608 497.972,-19.475 497.76,-17.388C496.031,-0.381 491.177,19.328 483.549,34.775C482.39,37.123 476.718,47.49 476.718,47.49C476.718,47.49 489.892,39.781 494.315,37.54C505.497,31.877 516.153,25.091 527.093,18.958C530.543,17.024 541.536,8.114 541.536,8.114C541.536,8.114 535.409,18.545 533.627,21.599C526.326,34.117 519.878,48.17 509.531,58.517C505.222,62.825 500.976,67.258 496.493,71.384C494.97,72.787 488.971,77.3 488.971,77.3C488.971,77.3 513.637,69.292 518.598,68.805C521.96,68.474 535.079,67.538 535.079,67.538C535.079,67.538 513.525,77.646 506.318,81.61C493.97,88.401 486.011,95.15 475.853,105.504C473.719,107.68 441.795,132.85 400.002,132.279C358.208,132.85 326.285,107.68 324.151,105.504C313.993,95.15 306.034,88.401 293.686,81.61C286.479,77.646 264.924,67.538 264.924,67.538C264.924,67.538 278.044,68.474 281.406,68.805C286.366,69.292 311.033,77.3 311.033,77.3C311.033,77.3 305.034,72.787 303.51,71.384C299.028,67.258 294.782,62.825 290.473,58.517C280.126,48.17 273.678,34.117 266.376,21.599C264.595,18.545 258.468,8.114 258.468,8.114C258.468,8.114 269.461,17.024 272.91,18.958C283.851,25.091 294.507,31.877 305.688,37.54C310.111,39.781 323.286,47.49 323.286,47.49C323.286,47.49 317.614,37.123 316.455,34.775C308.826,19.328 303.973,-0.381 302.244,-17.388C302.031,-19.475 302.676,-37.608 302.676,-37.608C302.676,-37.608 314.38,-26.57 315.868,-25.173C325.785,-15.861 337.439,-8.473 346.622,1.611C348.965,4.184 356.035,11.343 356.035,11.343C356.035,11.343 356.171,-5.186 358.021,-10.078C362.654,-22.33 384.548,-58.576 390.799,-72.826C394.304,-80.816 399.392,-91.828 400,-93.468C400,-93.468 401.872,-84.661 406.869,-73.661Z"
        style="fill: rgb(var(--color_hairs_r, 74), var(--color_hairs_g, 45), var(--color_hairs_b, 37))"
      />
      <clipPath id="_clip1_hair1">
        <path
          d="M406.869,-73.661C413.305,-59.495 437.349,-22.33 441.982,-10.078C443.832,-5.186 443.968,11.343 443.968,11.343C443.968,11.343 451.038,4.184 453.382,1.611C462.565,-8.473 474.219,-15.861 484.136,-25.173C485.624,-26.57 497.328,-37.608 497.328,-37.608C497.328,-37.608 497.972,-19.475 497.76,-17.388C496.031,-0.381 491.177,19.328 483.549,34.775C482.39,37.123 476.718,47.49 476.718,47.49C476.718,47.49 489.892,39.781 494.315,37.54C505.497,31.877 516.153,25.091 527.093,18.958C530.543,17.024 541.536,8.114 541.536,8.114C541.536,8.114 535.409,18.545 533.627,21.599C526.326,34.117 519.878,48.17 509.531,58.517C505.222,62.825 500.976,67.258 496.493,71.384C494.97,72.787 488.971,77.3 488.971,77.3C488.971,77.3 513.637,69.292 518.598,68.805C521.96,68.474 535.079,67.538 535.079,67.538C535.079,67.538 513.525,77.646 506.318,81.61C493.97,88.401 486.011,95.15 475.853,105.504C473.719,107.68 441.795,132.85 400.002,132.279C358.208,132.85 326.285,107.68 324.151,105.504C313.993,95.15 306.034,88.401 293.686,81.61C286.479,77.646 264.924,67.538 264.924,67.538C264.924,67.538 278.044,68.474 281.406,68.805C286.366,69.292 311.033,77.3 311.033,77.3C311.033,77.3 305.034,72.787 303.51,71.384C299.028,67.258 294.782,62.825 290.473,58.517C280.126,48.17 273.678,34.117 266.376,21.599C264.595,18.545 258.468,8.114 258.468,8.114C258.468,8.114 269.461,17.024 272.91,18.958C283.851,25.091 294.507,31.877 305.688,37.54C310.111,39.781 323.286,47.49 323.286,47.49C323.286,47.49 317.614,37.123 316.455,34.775C308.826,19.328 303.973,-0.381 302.244,-17.388C302.031,-19.475 302.676,-37.608 302.676,-37.608C302.676,-37.608 314.38,-26.57 315.868,-25.173C325.785,-15.861 337.439,-8.473 346.622,1.611C348.965,4.184 356.035,11.343 356.035,11.343C356.035,11.343 356.171,-5.186 358.021,-10.078C362.654,-22.33 384.548,-58.576 390.799,-72.826C394.304,-80.816 399.392,-91.828 400,-93.468C400,-93.468 401.872,-84.661 406.869,-73.661Z"
        />
      </clipPath>
      <g clip-path="url(#_clip1_hair1)">
        <path
          d="M263.435,0.852C263.222,0.729 263.825,1.894 263.878,1.989C264.323,2.801 264.811,3.588 265.313,4.366C266.84,6.732 268.517,9.003 270.059,11.359C274.671,18.404 279.005,25.523 283.741,32.5C295.521,49.855 306.494,67.545 318.828,84.55C321.794,88.639 324.562,92.856 327.472,96.983C328.229,98.057 329.35,100.925 330.996,100.194C332.47,99.54 339.501,95.393 340.158,93.831C340.632,92.704 336.679,88.542 336.12,87.749C331.91,81.78 328.087,75.516 324.066,69.419C316.749,58.323 311.1,46.252 303.95,35.043C301.362,30.984 298.584,25.048 294.694,22.018C290.212,18.526 282.693,18.174 277.531,15.848"
          style="fill: rgb(241, 90, 36)"
        />
        <path
          d="M466.103,93.021C466.253,93.59 467.324,91.577 467.934,90.993C469.346,89.638 470.755,88.283 472.179,86.941C476.312,83.048 480.121,78.884 484.037,74.778C498.147,59.985 513.678,46.463 528.594,32.506C532.298,29.04 535.964,25.514 539.897,22.304C540.216,22.043 543.2,19.275 543.615,19.76C544.181,20.42 541.81,24.358 541.497,24.958C538.578,30.558 533.77,34.501 529.038,38.537C512.85,52.344 496.931,66.511 481.984,81.669C478.629,85.071 475.232,88.418 471.966,91.908C470.252,93.741 469.092,95.882 466.435,95.312L466.103,93.021C466.095,92.992 466.09,92.956 466.088,92.913L466.103,93.021ZM447.781,87.327C448.328,85.952 451.071,84.093 452.107,82.982C455.924,78.893 460.083,75.16 463.651,70.837C476.014,55.859 484.832,40.134 500.983,28.788C506.449,24.948 512.038,21.29 517.457,17.383C517.735,17.182 522.306,13.77 522.47,14.016C522.773,14.47 520.192,17.923 519.936,18.52C517.393,24.455 514.37,29.49 510.455,34.661C499.256,49.453 487.112,64.138 474.39,77.636C468.604,83.775 464.75,91.029 455.779,90.132L447.781,87.327Z"
          style="fill: rgb(41, 171, 226)"
        />
        <path
          d="M427.178,80.447C426.847,80.38 432.341,69.24 432.831,68.317C439.593,55.572 448.694,43.93 457.715,32.732C476.565,9.331 497.957,-12.794 521.084,-31.92C527.275,-37.04 533.56,-42.053 540.06,-46.774C540.441,-47.051 545.49,-51.054 545.892,-50.652C546.244,-50.299 541.702,-45.815 541.434,-45.523C538.438,-42.241 535.787,-38.633 533.343,-34.928C529.754,-29.485 526.972,-22.571 522.504,-17.784C512.035,-6.567 496.946,0.131 486.125,11.252C470.265,27.552 458.701,47.943 448.479,68.104C444.565,75.822 442.727,88.123 432.831,88.377L427.178,80.447ZM321.751,-28.189C320.588,-29.665 325.09,-19.262 325.864,-17.083C328.65,-9.235 331.771,-1.541 334.664,6.259C342.154,26.448 347.98,47.327 356.872,66.962C358.977,71.61 360.709,76.372 362.602,81.103C362.908,81.871 363.674,85.093 364.515,85.454C364.721,85.542 369.626,84.009 370.223,83.796C371.067,83.494 366.774,75.235 366.418,74.261C364.094,67.901 362.25,61.424 360.521,54.88C355.703,36.64 350.158,18.536 344.422,0.563C342.343,-5.951 340.683,-16.62 335.577,-21.634C331.963,-25.182 326.397,-25.995 321.792,-27.53L321.751,-28.189Z"
          style="fill: rgb(251, 176, 59)"
        />
        <path
          d="M282.109,6.315C281.89,6.064 282.3,7.368 282.344,7.46C282.684,8.164 283.082,8.841 283.485,9.511C284.769,11.642 286.325,13.573 287.815,15.559C292.181,21.381 294.965,28.04 298.947,34.077C308.279,48.226 316.761,62.937 325.922,77.212C328.351,80.996 330.878,84.718 333.373,88.459C333.887,89.23 335.067,92.032 336.062,92.364C336.667,92.566 338.542,90.872 339.025,90.581C341.707,88.965 347.729,89.83 350.056,87.835C350.483,87.469 349.489,80.585 347.02,74.496C342.243,62.711 337.269,51.25 332.809,39.359C324.394,16.918 314.171,-5.259 305.175,-27.468C303.038,-32.744 300.916,-38.07 298.386,-43.174C298.05,-43.852 296.524,-47.921 295.445,-47.719C294.015,-47.451 292.581,-43.288 292.043,-42.232C289.025,-36.309 286.377,-30.255 283.795,-24.131"
          style="fill: rgb(92, 38, 132)"
        />
        <path
          d="M313.382,40.654C313.53,40.838 313.97,41.825 314.187,42.198C314.734,43.14 315.262,44.094 315.801,45.041C317.48,47.997 319.227,50.915 320.954,53.844C326.051,62.491 331.271,70.993 336.694,79.446C338.829,82.773 340.485,88.835 345.085,85.885C345.516,85.608 343.906,83.416 343.747,83.166C341.883,80.239 339.94,77.363 338.049,74.452C332.465,65.857 328.308,56.445 322.627,47.905C320.339,44.465 318.162,40.283 314.536,38.088L313.382,40.654ZM348.913,85.367C345.906,82.723 344.089,72.946 342.358,69.127C335.371,53.714 328.72,38.034 322.827,22.166C317.665,8.27 311.807,-5.424 307.311,-19.554C304.896,-27.142 302.643,-34.782 300.275,-42.385C298.895,-46.815 297.576,-51.264 296.271,-55.717C295.499,-58.353 294.764,-61 294.003,-63.639C293.516,-65.327 290.489,-71.876 291.285,-73.733C292.442,-76.431 300.394,-68.537 300.82,-68.043C306.778,-61.132 311.515,-52.377 315.487,-44.217C328.317,-17.864 340.869,16.937 350.802,44.804C353.902,53.5 356.97,62.206 360.313,70.813C361.039,72.683 364.343,78.106 363.94,80.118C363.747,81.087 361.957,80.387 361.053,80.785C359.083,81.654 357.255,82.651 355.4,83.733L348.913,85.367ZM392.861,-101.656C392.538,-105.873 391.614,-89.048 391.588,-87.235C391.423,-75.867 391.525,-64.485 391.175,-53.121C390.131,-19.165 391.103,14.419 394.766,48.2C395.613,56.008 396.582,63.832 397.811,71.59C398.021,72.917 398.043,78.882 400.056,78.941C401.366,78.98 405.654,79.211 406.546,78.141C407.433,77.077 405.124,70.894 404.908,69.515C403.618,61.29 403.148,52.898 402.64,44.597C400.306,6.481 401.386,-31.506 403.865,-69.584C404.428,-78.242 404.989,-86.896 405.284,-95.569C405.553,-103.467 407.078,-109.547 397.496,-109.217L392.861,-101.656ZM313.382,40.654L313.342,40.743C313.32,40.615 313.338,40.598 313.382,40.654Z"
          style="fill: rgb(239, 28, 121)"
        />
        <path
          d="M260.323,60.03C260.092,59.885 261.818,60.27 262.062,60.318C263.465,60.595 264.88,60.804 266.282,61.084C270.16,61.86 274.356,62.567 278.042,64.039C290.296,68.932 301.845,78.891 310.434,88.667C312.598,91.13 314.511,93.785 316.264,96.555C316.464,96.871 318.162,99.125 317.854,99.485C317.496,99.904 313.424,96.962 313.065,96.744C307.971,93.655 302.708,90.855 297.404,88.146C294.341,86.582 291.266,85.042 288.167,83.55C285.888,82.453 283.604,81.364 281.322,80.272C279.23,79.271 277.14,78.264 275.042,77.274C273.528,76.56 272.009,75.86 270.495,75.147C269.163,74.52 267.827,73.902 266.497,73.269C265.569,72.828 264.641,72.386 263.718,71.935C260.843,70.531 247.922,64.896 257.558,63.407C258.363,63.283 259.169,63.209 259.981,63.151C261.627,63.034 263.271,62.972 264.919,62.943L260.323,60.03ZM539.276,60.03C539.507,59.885 537.781,60.27 537.537,60.318C536.134,60.595 534.719,60.804 533.317,61.084C529.439,61.86 525.243,62.567 521.557,64.039C509.303,68.932 497.754,78.891 489.165,88.667C487.001,91.13 485.088,93.785 483.335,96.555C483.135,96.871 481.438,99.125 481.745,99.485C482.104,99.904 486.175,96.962 486.534,96.744C491.629,93.655 496.891,90.855 502.195,88.146C505.258,86.582 508.333,85.042 511.432,83.55C513.712,82.453 515.995,81.364 518.277,80.272C520.369,79.271 522.46,78.264 524.557,77.274C526.071,76.56 527.591,75.86 529.104,75.147C530.436,74.52 531.773,73.902 533.102,73.269C534.03,72.828 534.958,72.386 535.881,71.935C538.756,70.531 551.677,64.896 542.042,63.407C541.236,63.283 540.431,63.209 539.618,63.151C537.973,63.034 536.328,62.972 534.68,62.943L539.276,60.03ZM263.604,7.597C262.939,7.553 264.271,9.131 264.613,9.842C265.317,11.308 266.051,12.764 266.797,14.209C268.98,18.439 271.634,22.409 274.085,26.482C281.48,38.77 289.461,50.547 298.064,62.023C300.399,65.138 302.737,68.249 305.034,71.392C305.81,72.455 306.586,73.518 307.343,74.594C307.737,75.154 309.151,76.509 308.503,76.289C307.16,75.833 305.705,74.208 304.571,73.391C301.145,70.919 297.729,68.442 294.373,65.875C281.404,55.957 268.694,45.085 259.927,31.11C256.099,25.008 252.977,18.462 250.924,11.552C250.529,10.222 248.874,5.94 250.708,4.911C252.903,3.678 257.962,6.54 260.113,7.181L263.663,7.604L263.604,7.597ZM535.995,7.597C536.661,7.553 535.328,9.131 534.986,9.842C534.282,11.308 533.549,12.764 532.803,14.209C530.619,18.439 527.965,22.409 525.514,26.482C518.119,38.77 510.138,50.547 501.535,62.023C499.2,65.138 496.862,68.249 494.565,71.392C493.789,72.455 493.013,73.518 492.256,74.594C491.862,75.154 490.448,76.509 491.096,76.289C492.439,75.833 493.895,74.208 495.028,73.391C498.454,70.919 501.87,68.442 505.226,65.875C518.195,55.957 530.905,45.085 539.672,31.11C543.5,25.008 546.622,18.462 548.675,11.552C549.071,10.222 550.726,5.94 548.891,4.911C546.696,3.678 541.637,6.54 539.486,7.181L535.936,7.604L535.995,7.597ZM287.632,-69.979C287.609,-70.046 288.506,-67.234 288.77,-66.553C289.825,-63.834 290.877,-61.115 291.895,-58.382C294.76,-50.694 298.003,-43.123 300.465,-35.292C306.975,-14.584 311.688,7.055 317.288,28.054C318.611,33.015 319.847,37.994 321.275,42.927C321.42,43.43 322.914,47.196 322.558,47.575C322.446,47.694 320.534,44.649 320.439,44.496C318.973,42.146 317.468,39.818 315.947,37.503C311.686,31.017 307.236,24.657 303.306,17.959C292.428,-0.58 284.101,-20.495 277.867,-41.044C274.724,-51.404 271.455,-63.764 273.575,-74.681L287.632,-69.979ZM511.968,-69.979C511.99,-70.046 511.093,-67.234 510.829,-66.553C509.775,-63.834 508.722,-61.115 507.704,-58.382C504.839,-50.694 501.596,-43.123 499.134,-35.292C492.624,-14.584 487.911,7.055 482.311,28.054C480.988,33.015 479.752,37.994 478.324,42.927C478.179,43.43 476.685,47.196 477.041,47.575C477.153,47.694 479.065,44.649 479.161,44.496C480.627,42.146 482.131,39.818 483.652,37.503C487.914,31.017 492.363,24.657 496.294,17.959C507.172,-0.58 515.498,-20.495 521.733,-41.044C524.875,-51.404 528.144,-63.764 526.024,-74.681L511.968,-69.979Z"
          style="fill: rgb(252, 255, 216); fill-opacity: 0.6"
        />
      </g>
      <path
        d="M406.869,-73.661C413.305,-59.495 437.349,-22.33 441.982,-10.078C443.832,-5.186 443.968,11.343 443.968,11.343C443.968,11.343 451.038,4.184 453.382,1.611C462.565,-8.473 474.219,-15.861 484.136,-25.173C485.624,-26.57 497.328,-37.608 497.328,-37.608C497.328,-37.608 497.972,-19.475 497.76,-17.388C496.031,-0.381 491.177,19.328 483.549,34.775C482.39,37.123 476.718,47.49 476.718,47.49C476.718,47.49 489.892,39.781 494.315,37.54C505.497,31.877 516.153,25.091 527.093,18.958C530.543,17.024 541.536,8.114 541.536,8.114C541.536,8.114 535.409,18.545 533.627,21.599C526.326,34.117 519.878,48.17 509.531,58.517C505.222,62.825 500.976,67.258 496.493,71.384C494.97,72.787 488.971,77.3 488.971,77.3C488.971,77.3 513.637,69.292 518.598,68.805C521.96,68.474 535.079,67.538 535.079,67.538C535.079,67.538 513.525,77.646 506.318,81.61C493.97,88.401 486.011,95.15 475.853,105.504C473.719,107.68 441.795,132.85 400.002,132.279C358.208,132.85 326.285,107.68 324.151,105.504C313.993,95.15 306.034,88.401 293.686,81.61C286.479,77.646 264.924,67.538 264.924,67.538C264.924,67.538 278.044,68.474 281.406,68.805C286.366,69.292 311.033,77.3 311.033,77.3C311.033,77.3 305.034,72.787 303.51,71.384C299.028,67.258 294.782,62.825 290.473,58.517C280.126,48.17 273.678,34.117 266.376,21.599C264.595,18.545 258.468,8.114 258.468,8.114C258.468,8.114 269.461,17.024 272.91,18.958C283.851,25.091 294.507,31.877 305.688,37.54C310.111,39.781 323.286,47.49 323.286,47.49C323.286,47.49 317.614,37.123 316.455,34.775C308.826,19.328 303.973,-0.381 302.244,-17.388C302.031,-19.475 302.676,-37.608 302.676,-37.608C302.676,-37.608 314.38,-26.57 315.868,-25.173C325.785,-15.861 337.439,-8.473 346.622,1.611C348.965,4.184 356.035,11.343 356.035,11.343C356.035,11.343 356.171,-5.186 358.021,-10.078C362.654,-22.33 384.548,-58.576 390.799,-72.826C394.304,-80.816 399.392,-91.828 400,-93.468C400,-93.468 401.872,-84.661 406.869,-73.661Z"
        style="fill: none; stroke: black; stroke-width: 2.1px"
      />
      <path
        d="M322.037,99.345C321.487,99.579 322.72,98.363 323.065,97.874C323.784,96.856 324.556,95.853 325.374,94.912C327.696,92.237 330.26,89.382 333.156,87.314C341.761,81.167 352.981,78.23 363.11,75.698C393.201,68.175 425.129,70.626 454.435,80.395C464.218,83.656 469.528,88.595 476.205,96.086C477.124,97.117 481.604,100.779 481.604,102.222C481.604,103.239 479.597,101.886 478.588,101.761C476.48,101.501 474.379,101.209 472.268,100.978C465.771,100.268 459.255,99.724 452.743,99.183C433.084,97.549 413.379,96.589 393.652,97.283C377.279,97.859 360.951,99.744 344.771,102.268C338.47,103.251 332.184,104.262 325.915,105.434C324.947,105.614 320.377,107.068 321.045,104.731L322.037,99.345Z"
        style="fill: rgb(35, 223, 211)"
      />
      <clipPath id="_clip2_hair1">
        <path
          d="M322.037,99.345C321.487,99.579 322.72,98.363 323.065,97.874C323.784,96.856 324.556,95.853 325.374,94.912C327.696,92.237 330.26,89.382 333.156,87.314C341.761,81.167 352.981,78.23 363.11,75.698C393.201,68.175 425.129,70.626 454.435,80.395C464.218,83.656 469.528,88.595 476.205,96.086C477.124,97.117 481.604,100.779 481.604,102.222C481.604,103.239 479.597,101.886 478.588,101.761C476.48,101.501 474.379,101.209 472.268,100.978C465.771,100.268 459.255,99.724 452.743,99.183C433.084,97.549 413.379,96.589 393.652,97.283C377.279,97.859 360.951,99.744 344.771,102.268C338.47,103.251 332.184,104.262 325.915,105.434C324.947,105.614 320.377,107.068 321.045,104.731L322.037,99.345Z"
        />
      </clipPath>
      <g clip-path="url(#_clip2_hair1)">
        <path
          d="M322.225,100.308C321.022,99.147 327.114,91.191 327.234,91.126C329.092,90.112 333.81,86.845 335.782,86.074C344.223,82.772 353.499,80.474 362.331,78.482C385.656,73.22 408.551,72.812 431.984,77.111C439.956,78.573 449.06,81.342 456.771,83.879C464.494,86.42 472.332,91.578 478.579,96.853C479.671,97.775 484.262,99.301 484.129,100.98C484.046,102.018 478.686,100.472 478.259,100.374C471.092,98.723 463.902,97.16 456.68,95.768C438.558,92.274 420.173,90.041 401.697,90.102C381.074,90.17 360.084,92.505 339.928,96.943C335.643,97.886 331.435,99.111 327.181,100.171C325.916,100.487 323.379,101.419 322.225,100.308Z"
          style="fill: rgb(1, 86, 79)"
        />
      </g>
      <path
        d="M322.037,99.345C321.487,99.579 322.72,98.363 323.065,97.874C323.784,96.856 324.556,95.853 325.374,94.912C327.696,92.237 330.26,89.382 333.156,87.314C341.761,81.167 352.981,78.23 363.11,75.698C393.201,68.175 425.129,70.626 454.435,80.395C464.218,83.656 469.528,88.595 476.205,96.086C477.124,97.117 481.604,100.779 481.604,102.222C481.604,103.239 479.597,101.886 478.588,101.761C476.48,101.501 474.379,101.209 472.268,100.978C465.771,100.268 459.255,99.724 452.743,99.183C433.084,97.549 413.379,96.589 393.652,97.283C377.279,97.859 360.951,99.744 344.771,102.268C338.47,103.251 332.184,104.262 325.915,105.434C324.947,105.614 320.377,107.068 321.045,104.731L322.037,99.345Z"
        style="fill: none; stroke: black; stroke-width: 2.1px"
      />
      <path
        d="M399.935,78.687C418.335,78.687 439.207,83.797 455.135,88.451C510.188,104.538 559.807,141.267 577.071,198.582C585.157,225.429 581.465,254.228 576.348,281.207C572.202,303.069 565.926,324.502 562.63,346.536C561.806,352.043 558.033,368.296 557.963,368.196C556.103,365.539 553.607,335.769 554.949,324.266C555.373,320.635 555.635,317.017 555.928,313.376C556.028,312.143 556.711,307.926 556.711,307.926L548.107,314.686C548.107,314.686 551.572,294.185 554.243,285.127C555.418,281.144 557.869,275.867 557.68,275.615C557.507,275.384 554.819,277.348 554.612,277.486C551.791,279.367 543.863,284.917 543.863,284.917C543.863,284.917 548.8,268.719 551.424,263.702C551.644,263.282 553.946,257.687 553.946,257.687L539.098,266.455C539.098,266.455 546.344,246.42 548.879,239.54C549.039,239.106 551.903,232.686 551.903,232.686C551.903,232.686 547.299,233.507 546.54,233.72C541.088,235.243 535.569,236.717 530.199,238.507C529.793,238.642 523.737,240.726 523.737,240.726C523.737,240.726 527.014,234.852 527.545,234.003C531.764,227.251 535.565,220.201 539.849,213.506C540.264,212.857 544.917,207.308 544.712,206.794C544.566,206.429 540.387,207.64 540.067,207.719C534.848,209.001 518.896,212.995 518.896,212.995C518.896,212.995 527.867,197.1 531.363,192.042C532.296,190.693 536.262,186.203 536.215,186.156C536.096,186.037 532.266,187.832 531.994,187.93C528.15,189.314 524.267,190.676 520.55,192.379C520.133,192.57 517.466,194.337 517.068,194.098C516.848,193.966 519.008,191.224 519.179,191.019C521.326,188.443 527.736,181.099 527.577,180.782C527.439,180.505 522.089,182.502 521.67,182.664C516.958,184.492 502.588,191.313 502.588,191.313C502.588,191.313 509.896,183.309 512.14,181.065C512.343,180.863 515.438,177.966 515.425,177.954C515.101,177.629 509.168,180.456 508.604,180.641C500.894,183.174 493.012,185.391 485.584,188.702C485.013,188.957 477.751,192.858 477.751,192.858C477.751,192.858 487.594,182.297 491.078,178.813C491.939,177.952 495.798,175.298 495.212,175.005C493.839,174.319 487.377,177.721 486.096,178.226C476.451,182.025 466.723,185.644 457.201,189.747C453.9,191.169 442.412,196.513 442.412,196.513C442.412,196.513 458.983,181.042 458.289,180.695C456.871,179.986 425.36,195.403 415.599,202.867C411.944,205.662 408.156,207.963 404.144,210.199C403.231,210.708 399.516,213.362 399.655,213.239C399.655,213.239 396.638,210.708 395.726,210.199C391.713,207.963 387.925,205.662 384.27,202.867C374.51,195.403 342.998,179.986 341.58,180.695C340.886,181.042 357.457,196.513 357.457,196.513C357.457,196.513 345.969,191.169 342.668,189.747C333.147,185.644 323.418,182.025 313.774,178.226C312.492,177.721 306.03,174.319 304.657,175.005C304.071,175.298 307.93,177.952 308.791,178.813C312.275,182.297 322.118,192.858 322.118,192.858C322.118,192.858 314.856,188.957 314.285,188.702C306.857,185.391 298.975,183.174 291.265,180.641C290.701,180.456 284.768,177.629 284.444,177.954C284.432,177.966 287.527,180.863 287.729,181.065C289.973,183.309 297.281,191.313 297.281,191.313C297.281,191.313 282.911,184.492 278.199,182.664C277.78,182.502 272.43,180.505 272.292,180.782C272.133,181.099 278.544,188.443 280.69,191.019C280.861,191.224 283.021,193.966 282.801,194.098C282.403,194.337 279.736,192.57 279.32,192.379C275.602,190.676 271.719,189.314 267.875,187.93C267.603,187.832 263.773,186.037 263.654,186.156C263.607,186.203 267.573,190.693 268.506,192.042C272.002,197.1 280.973,212.995 280.973,212.995C280.973,212.995 265.022,209.001 259.803,207.719C259.482,207.64 255.303,206.429 255.157,206.794C254.952,207.308 259.605,212.857 260.02,213.506C264.305,220.201 268.105,227.251 272.324,234.003C272.856,234.852 276.132,240.726 276.132,240.726C276.132,240.726 270.076,238.642 269.67,238.507C264.301,236.717 258.781,235.243 253.33,233.72C252.57,233.507 247.966,232.686 247.966,232.686C247.966,232.686 250.831,239.106 250.991,239.54C253.525,246.42 260.771,266.455 260.771,266.455L245.923,257.687C245.923,257.687 248.225,263.282 248.445,263.702C251.069,268.719 256.006,284.917 256.006,284.917C256.006,284.917 248.078,279.367 245.257,277.486C245.05,277.348 242.363,275.384 242.189,275.615C242,275.867 244.452,281.144 245.626,285.127C248.297,294.185 251.762,314.686 251.762,314.686L243.158,307.926C243.158,307.926 243.841,312.143 243.941,313.376C244.235,317.017 244.496,320.635 244.92,324.266C246.262,335.769 245.495,346.721 243.375,358.089C242.792,361.216 241.742,368.654 241.623,368.595C241.099,368.332 238.063,352.043 237.239,346.536C233.943,324.502 227.667,303.069 223.521,281.207C218.404,254.228 214.712,225.429 222.798,198.582C240.062,141.267 289.682,104.538 344.734,88.451C360.662,83.797 381.534,78.687 399.935,78.687Z"
        style="fill: rgb(var(--color_hairs_r, 74), var(--color_hairs_g, 45), var(--color_hairs_b, 37))"
      />
      <clipPath id="_clip3_hair1">
        <path
          d="M399.935,78.687C418.335,78.687 439.207,83.797 455.135,88.451C510.188,104.538 559.807,141.267 577.071,198.582C585.157,225.429 581.465,254.228 576.348,281.207C572.202,303.069 565.926,324.502 562.63,346.536C561.806,352.043 558.033,368.296 557.963,368.196C556.103,365.539 553.607,335.769 554.949,324.266C555.373,320.635 555.635,317.017 555.928,313.376C556.028,312.143 556.711,307.926 556.711,307.926L548.107,314.686C548.107,314.686 551.572,294.185 554.243,285.127C555.418,281.144 557.869,275.867 557.68,275.615C557.507,275.384 554.819,277.348 554.612,277.486C551.791,279.367 543.863,284.917 543.863,284.917C543.863,284.917 548.8,268.719 551.424,263.702C551.644,263.282 553.946,257.687 553.946,257.687L539.098,266.455C539.098,266.455 546.344,246.42 548.879,239.54C549.039,239.106 551.903,232.686 551.903,232.686C551.903,232.686 547.299,233.507 546.54,233.72C541.088,235.243 535.569,236.717 530.199,238.507C529.793,238.642 523.737,240.726 523.737,240.726C523.737,240.726 527.014,234.852 527.545,234.003C531.764,227.251 535.565,220.201 539.849,213.506C540.264,212.857 544.917,207.308 544.712,206.794C544.566,206.429 540.387,207.64 540.067,207.719C534.848,209.001 518.896,212.995 518.896,212.995C518.896,212.995 527.867,197.1 531.363,192.042C532.296,190.693 536.262,186.203 536.215,186.156C536.096,186.037 532.266,187.832 531.994,187.93C528.15,189.314 524.267,190.676 520.55,192.379C520.133,192.57 517.466,194.337 517.068,194.098C516.848,193.966 519.008,191.224 519.179,191.019C521.326,188.443 527.736,181.099 527.577,180.782C527.439,180.505 522.089,182.502 521.67,182.664C516.958,184.492 502.588,191.313 502.588,191.313C502.588,191.313 509.896,183.309 512.14,181.065C512.343,180.863 515.438,177.966 515.425,177.954C515.101,177.629 509.168,180.456 508.604,180.641C500.894,183.174 493.012,185.391 485.584,188.702C485.013,188.957 477.751,192.858 477.751,192.858C477.751,192.858 487.594,182.297 491.078,178.813C491.939,177.952 495.798,175.298 495.212,175.005C493.839,174.319 487.377,177.721 486.096,178.226C476.451,182.025 466.723,185.644 457.201,189.747C453.9,191.169 442.412,196.513 442.412,196.513C442.412,196.513 458.983,181.042 458.289,180.695C456.871,179.986 425.36,195.403 415.599,202.867C411.944,205.662 408.156,207.963 404.144,210.199C403.231,210.708 399.516,213.362 399.655,213.239C399.655,213.239 396.638,210.708 395.726,210.199C391.713,207.963 387.925,205.662 384.27,202.867C374.51,195.403 342.998,179.986 341.58,180.695C340.886,181.042 357.457,196.513 357.457,196.513C357.457,196.513 345.969,191.169 342.668,189.747C333.147,185.644 323.418,182.025 313.774,178.226C312.492,177.721 306.03,174.319 304.657,175.005C304.071,175.298 307.93,177.952 308.791,178.813C312.275,182.297 322.118,192.858 322.118,192.858C322.118,192.858 314.856,188.957 314.285,188.702C306.857,185.391 298.975,183.174 291.265,180.641C290.701,180.456 284.768,177.629 284.444,177.954C284.432,177.966 287.527,180.863 287.729,181.065C289.973,183.309 297.281,191.313 297.281,191.313C297.281,191.313 282.911,184.492 278.199,182.664C277.78,182.502 272.43,180.505 272.292,180.782C272.133,181.099 278.544,188.443 280.69,191.019C280.861,191.224 283.021,193.966 282.801,194.098C282.403,194.337 279.736,192.57 279.32,192.379C275.602,190.676 271.719,189.314 267.875,187.93C267.603,187.832 263.773,186.037 263.654,186.156C263.607,186.203 267.573,190.693 268.506,192.042C272.002,197.1 280.973,212.995 280.973,212.995C280.973,212.995 265.022,209.001 259.803,207.719C259.482,207.64 255.303,206.429 255.157,206.794C254.952,207.308 259.605,212.857 260.02,213.506C264.305,220.201 268.105,227.251 272.324,234.003C272.856,234.852 276.132,240.726 276.132,240.726C276.132,240.726 270.076,238.642 269.67,238.507C264.301,236.717 258.781,235.243 253.33,233.72C252.57,233.507 247.966,232.686 247.966,232.686C247.966,232.686 250.831,239.106 250.991,239.54C253.525,246.42 260.771,266.455 260.771,266.455L245.923,257.687C245.923,257.687 248.225,263.282 248.445,263.702C251.069,268.719 256.006,284.917 256.006,284.917C256.006,284.917 248.078,279.367 245.257,277.486C245.05,277.348 242.363,275.384 242.189,275.615C242,275.867 244.452,281.144 245.626,285.127C248.297,294.185 251.762,314.686 251.762,314.686L243.158,307.926C243.158,307.926 243.841,312.143 243.941,313.376C244.235,317.017 244.496,320.635 244.92,324.266C246.262,335.769 245.495,346.721 243.375,358.089C242.792,361.216 241.742,368.654 241.623,368.595C241.099,368.332 238.063,352.043 237.239,346.536C233.943,324.502 227.667,303.069 223.521,281.207C218.404,254.228 214.712,225.429 222.798,198.582C240.062,141.267 289.682,104.538 344.734,88.451C360.662,83.797 381.534,78.687 399.935,78.687Z"
        />
      </clipPath>
      <g clip-path="url(#_clip3_hair1)">
        <path
          d="M534.753,268.364C532.533,269.046 541.129,263.242 542.307,262.422C548.101,258.389 553.359,253.722 558.145,248.536C565.786,240.259 572.938,231.131 578.283,221.194C580.407,217.246 582.325,213.195 584.244,209.144C584.55,208.498 585.761,204.844 587.033,206.065C592.498,211.313 587.935,219.183 584.604,223.902C575.06,237.423 563.431,251.286 550.418,261.539C546.308,264.777 542.103,267.891 537.729,270.765C536.778,271.39 533.921,273.571 532.872,271.997L534.753,268.364ZM522.401,198.481C522.12,198.583 523.987,197.13 524.296,196.897C525.726,195.817 527.088,194.667 528.479,193.539C532.689,190.126 536.928,186.644 540.343,182.407C546.599,174.646 551.206,165.438 554.938,156.239C555.737,154.27 557.09,146.182 559.47,145.572C561.971,144.93 565.724,149.863 567.093,151.37C569.981,154.551 573.339,158.658 573.786,163.129C574.188,167.148 571.745,170.903 570.509,174.61C565.977,188.205 557.079,199.927 546.386,209.284C542.693,212.515 538.803,215.574 534.638,218.173C528.512,221.996 521.594,225.063 514.373,225.959C512.084,226.243 508.123,226.658 506.378,224.657C504.955,223.024 506.393,220.292 507.087,218.684C509.412,213.295 512.769,208.292 515.965,203.393L522.401,198.481ZM499.355,194.16C498.497,194.238 506.064,188.539 507.401,187.601C513.407,183.384 519.797,179.377 525.005,174.168C533.899,165.274 540.456,154.844 545.038,143.12C546.351,139.761 547.675,132.046 552.173,136.694C555.236,139.859 548.555,148.232 546.99,151.242C538.79,167.012 527.516,179.49 512.781,189.542C508.614,192.384 504.262,195.042 499.58,196.955C498.779,197.283 495.256,199.168 495.095,197.234L499.355,194.16ZM468.196,190.574C467.777,189.986 470.824,188.161 471.251,187.845C474.822,185.207 478.814,183.167 482.557,180.792C492.101,174.735 502.232,168.221 509.341,159.283C515.998,150.915 520.256,141.668 520.09,130.849C520.009,125.594 519.037,120.406 518.893,115.15C518.868,114.241 518.188,110.922 518.846,110.154C519.229,109.707 522.866,111.33 523.274,111.467C528.023,113.068 533.486,115.522 537.218,118.927C545.451,126.44 541.34,133.266 538.693,141.818C532.059,163.252 515.391,177.126 495.967,187.136C489.178,190.634 482.194,193.792 474.83,195.874C473.731,196.185 468.333,198.275 467.486,196.723C466.586,195.073 470.574,191.05 471.448,189.948C472.627,188.464 473.857,187.005 475.132,185.602L468.196,190.574Z"
          style="fill: rgb(41, 171, 226)"
        />
        <path
          d="M352.838,82.858C352.922,82.72 352.702,82.87 352.671,82.893C351.085,84.053 349.812,86.011 348.738,87.611C346.249,91.319 344.221,95.403 342.663,99.584C338.132,111.747 337.169,126.503 339.837,139.175C343.891,158.433 359.289,173.941 370.978,188.937C373.294,191.909 384.076,202.507 376.288,204.432C359.105,208.68 343.745,196.13 332.738,184.569C322.383,173.691 311.539,160.865 307.714,145.988C304.727,134.373 311.402,104.96 320.383,96.198C324.491,92.191 331.025,90.342 336.26,88.403"
          style="fill: rgb(92, 38, 132)"
        />
        <path
          d="M324.937,95.858C324.91,95.841 323.011,98.622 322.933,98.737C320.848,101.795 318.828,105.09 317.45,108.535C312.862,120.005 307.277,136.134 313.795,147.82C321.896,162.346 330.808,174.461 343.425,185.373C347.699,189.069 351.894,192.815 356.322,196.331C357.062,196.919 363.652,201.395 361.9,202.044C352.781,205.422 342.821,197.091 335.384,193.105C315.709,182.56 298.418,163.428 300.469,139.501C301.187,131.124 304.655,123.54 308.177,116.028C311.585,108.757 315.069,97.175 323.346,94.526"
          style="fill: rgb(241, 90, 36)"
        />
        <path
          d="M542.951,285.493C542.26,286.068 543.928,284.083 544.127,283.915C545.393,282.841 546.629,281.733 547.905,280.67C551.606,277.585 555.02,274.169 558.318,270.659C565.344,263.183 572.121,255.68 577.806,247.105C579.968,243.844 581.752,240.34 583.743,236.973C583.935,236.648 585.408,233.676 585.952,234.008C592.963,238.292 585.765,246.271 582.635,250.553C572.789,264.018 560.359,276.034 547.02,286.038L542.951,285.493ZM530.651,220.647C534.023,219.604 537.812,215.731 540.492,213.512C549.226,206.285 557.028,197.781 563.55,188.49C566.561,184.2 569.001,179.613 571.631,175.091C571.903,174.624 573.71,170.71 574.409,171.348C576.35,173.121 579.143,175.761 579.677,178.43C580.466,182.377 577.787,186.333 575.633,189.34C570.49,196.518 564.986,203.12 558.901,209.533C556.621,211.935 554.199,214.19 551.726,216.391C548.757,219.033 545.68,221.57 542.608,224.091C537.05,228.653 531.042,232.452 524.631,235.706C524.27,235.889 518.702,238.613 518.658,238.455C518.429,237.629 520.361,235.435 520.76,234.828C523.221,231.09 525.827,227.452 528.366,223.767L530.651,220.647ZM367.306,80.524C367.154,82.293 363.735,85.411 362.814,87.045C360.487,91.177 358.946,95.822 357.937,100.443C356.656,106.305 355.425,112.694 355.821,118.718C356.829,134.041 366.083,148.119 373.743,160.872C380.141,171.523 387.059,181.921 393.707,192.424C395.915,195.914 398.133,199.395 400.099,203.03C400.776,204.284 401.456,205.53 402.06,206.822C402.351,207.445 402.898,208.706 402.898,208.706C402.898,208.706 400.84,206.832 399.924,205.788C398.11,203.724 396.549,201.489 394.894,199.299C389.913,192.705 385.022,186.158 379.536,179.975C361.585,159.743 340.493,130.373 350.14,101.954C352.772,94.202 355.443,82.954 364.276,80.598L367.306,80.524ZM444.619,190.039C445.503,190.095 447.792,188.087 448.587,187.627C452.663,185.269 456.516,182.446 460.346,179.711C476.661,168.057 493.691,147.798 498.206,127.803C499.498,122.081 499.336,116.135 499.336,110.301C499.336,108.49 498.283,104.592 499.062,102.903C499.279,102.433 501.087,103.286 501.358,103.371C503.357,103.996 506.585,104.096 508.195,105.559C509.507,106.752 508.773,111.005 508.641,112.626C508.039,119.996 506.718,126.732 503.632,133.502C494.774,152.94 480.514,167.962 464.908,182.222C459.549,187.119 453.79,191.469 447.262,194.708C445.404,195.63 437.067,200.235 440.397,195.298C440.774,194.739 441.167,194.193 441.577,193.657L444.619,190.039Z"
          style="fill: rgb(251, 176, 59)"
        />
        <path
          d="M261.886,261.044C261.922,260.789 259.08,259.559 258.843,259.431C255.636,257.701 252.429,255.961 249.332,254.038C241.564,249.213 234.618,242.636 230.098,234.631C226.204,227.736 224.095,220.015 223.086,212.196C222.752,209.601 222.579,206.993 222.323,204.389C222.243,203.574 222.169,202.759 222.107,201.942C222.1,201.845 221.979,200.562 221.879,200.637C220.863,201.408 220.29,204.277 219.963,205.406C218.539,210.324 217.96,215.017 219.011,220.072C222.406,236.388 233.024,250.787 246.903,259.717C251.303,262.548 255.481,265.732 259.94,268.469C263.518,270.666 265.762,269.747 264.255,265.93L261.886,261.044ZM264.931,219.382C252.437,211.682 240.315,203.232 236.223,188.257C234.787,182.998 234.58,177.381 235.075,171.975C235.155,171.092 235.767,163.568 235.384,163.848C231.488,166.708 231.115,174.286 231.166,178.58C231.327,192.134 238.828,207.573 249.492,215.962C254.155,219.631 259.57,222.6 265.067,224.803C266.764,225.484 272.002,227.848 270.711,223.994L264.931,219.382ZM401.64,206.955C404.805,199.329 405.356,193.161 404.651,185.001C403.678,173.743 398.515,162.697 395.089,152.244C390.641,138.673 390.668,125.961 392.514,111.904C393.675,103.057 395.649,95.388 399.592,87.405C400.886,84.786 401.891,79.901 404.526,78.381C405.98,77.542 410.79,77.686 412.47,77.992C412.538,78.004 411.427,79.104 411.321,79.21C410.46,80.071 409.629,80.936 408.872,81.892C406.768,84.549 405.146,87.645 403.684,90.69C398.996,100.457 396.262,111.35 397.065,122.203C398.561,142.396 412.296,159.543 413.215,179.77C413.645,189.227 409.002,200.55 403.596,209.398C404.199,210.155 404.785,211.019 404.792,211.769C404.801,212.907 403.401,214.251 402.713,215.008C401.804,216.009 400.587,216.973 399.176,217.011C398.594,217.026 398.016,216.956 397.446,216.819L394.582,219.075C394.569,218.462 395.598,217.329 396.349,216.473C393.759,215.471 391.362,213.282 389.413,211.715C382.666,206.292 376.74,200.086 370.57,194.047C359.189,182.907 347.237,171.853 340.241,157.228C332.322,140.673 332.078,118.979 339.293,102.243C341.323,97.534 344.145,90.981 348.283,87.732C351.274,85.383 355.161,85.142 358.592,83.931L359.025,84.99C359.859,85.276 357.977,86.415 357.57,87.197C356.7,88.87 355.818,90.537 354.928,92.2C352.365,96.984 351.069,101.89 349.603,107.075C345.757,120.68 350.246,135.238 356.852,147.228C367.545,166.633 382.573,181.862 395.632,199.491C397.534,202.059 399.648,204.459 401.64,206.955ZM271.759,192.464C270.146,191.663 268.682,189.695 267.386,188.49C258.348,180.081 256.273,168.62 255.134,156.841C254.745,152.817 254.538,148.777 254.79,144.738C254.816,144.325 255.481,138.708 255.178,138.685C254.212,138.61 251.15,143.189 250.642,143.831C246.089,149.579 243.182,156.059 242.332,163.348C240.048,182.932 245.666,201.72 263.008,212.968C268.386,216.456 281.001,221.134 286.802,216.053C288.618,214.463 287.334,211.669 286.447,209.962C283.907,205.068 280.433,200.573 276.956,196.311L271.759,192.464ZM338.124,91.935C338.354,91.346 337.254,92.863 336.925,93.402C336.25,94.51 335.556,95.607 334.9,96.727C332.87,100.191 331.251,103.864 329.89,107.637C325.821,118.918 323.505,132.206 326.773,143.983C330.344,156.849 340.029,169.301 349.151,178.817C352.275,182.076 355.671,185.136 358.95,188.238C360.045,189.273 361.126,190.325 362.208,191.374C362.723,191.874 364.393,192.822 363.685,192.939C361.927,193.23 357.978,190.543 356.494,189.795C347.756,185.387 343.213,179.008 337.535,171.377C326.411,156.428 317.832,140.287 321.281,121.213C322.213,116.059 324.378,110.874 326.512,106.118C329.831,98.725 333.019,92.792 339.986,88.609L338.124,91.935Z"
          style="fill: rgb(239, 28, 121)"
        />
        <path
          d="M399.967,72.554C405.928,70.686 416.562,73.22 420.799,73.957C446.858,78.489 471.985,89.534 496.961,97.859C541.286,112.634 585.735,145.938 594.594,194.862C599.371,221.242 593.788,250.351 586.387,275.705C582.761,288.124 578.302,300.343 573.918,312.511C572.614,316.131 571.351,324.156 568.516,326.99C567.508,327.998 568.46,324.138 568.516,322.714C568.638,319.643 568.741,316.572 568.877,313.501C569.292,304.091 570.304,294.745 571.142,285.368C573.767,256.013 577.885,230.043 570.152,200.954C556.565,149.841 492.037,110.571 443.5,97.964C431.611,94.876 419.536,92.654 407.333,91.386L407.334,91.39L407.325,91.385L392.61,91.385L392.601,91.39L392.602,91.386C380.399,92.654 368.323,94.876 356.435,97.964C307.898,110.571 243.37,149.841 229.783,200.954C222.05,230.043 226.167,256.013 228.793,285.368C229.631,294.745 230.643,304.091 231.058,313.501C231.194,316.572 231.297,319.643 231.418,322.714C231.475,324.138 232.426,327.998 231.418,326.99C228.584,324.156 227.321,316.131 226.017,312.511C221.632,300.343 217.173,288.124 213.548,275.705C206.147,250.351 200.564,221.242 205.341,194.862C214.2,145.938 258.649,112.634 302.974,97.859C327.95,89.534 353.077,78.489 379.136,73.957C383.373,73.22 394.007,70.686 399.967,72.554Z"
          style="fill: rgb(252, 255, 216); fill-opacity: 0.6"
        />
      </g>
      <path
        d="M399.935,78.687C418.335,78.687 439.207,83.797 455.135,88.451C510.188,104.538 559.807,141.267 577.071,198.582C585.157,225.429 581.465,254.228 576.348,281.207C572.202,303.069 565.926,324.502 562.63,346.536C561.806,352.043 558.033,368.296 557.963,368.196C556.103,365.539 553.607,335.769 554.949,324.266C555.373,320.635 555.635,317.017 555.928,313.376C556.028,312.143 556.711,307.926 556.711,307.926L548.107,314.686C548.107,314.686 551.572,294.185 554.243,285.127C555.418,281.144 557.869,275.867 557.68,275.615C557.507,275.384 554.819,277.348 554.612,277.486C551.791,279.367 543.863,284.917 543.863,284.917C543.863,284.917 548.8,268.719 551.424,263.702C551.644,263.282 553.946,257.687 553.946,257.687L539.098,266.455C539.098,266.455 546.344,246.42 548.879,239.54C549.039,239.106 551.903,232.686 551.903,232.686C551.903,232.686 547.299,233.507 546.54,233.72C541.088,235.243 535.569,236.717 530.199,238.507C529.793,238.642 523.737,240.726 523.737,240.726C523.737,240.726 527.014,234.852 527.545,234.003C531.764,227.251 535.565,220.201 539.849,213.506C540.264,212.857 544.917,207.308 544.712,206.794C544.566,206.429 540.387,207.64 540.067,207.719C534.848,209.001 518.896,212.995 518.896,212.995C518.896,212.995 527.867,197.1 531.363,192.042C532.296,190.693 536.262,186.203 536.215,186.156C536.096,186.037 532.266,187.832 531.994,187.93C528.15,189.314 524.267,190.676 520.55,192.379C520.133,192.57 517.466,194.337 517.068,194.098C516.848,193.966 519.008,191.224 519.179,191.019C521.326,188.443 527.736,181.099 527.577,180.782C527.439,180.505 522.089,182.502 521.67,182.664C516.958,184.492 502.588,191.313 502.588,191.313C502.588,191.313 509.896,183.309 512.14,181.065C512.343,180.863 515.438,177.966 515.425,177.954C515.101,177.629 509.168,180.456 508.604,180.641C500.894,183.174 493.012,185.391 485.584,188.702C485.013,188.957 477.751,192.858 477.751,192.858C477.751,192.858 487.594,182.297 491.078,178.813C491.939,177.952 495.798,175.298 495.212,175.005C493.839,174.319 487.377,177.721 486.096,178.226C476.451,182.025 466.723,185.644 457.201,189.747C453.9,191.169 442.412,196.513 442.412,196.513C442.412,196.513 458.983,181.042 458.289,180.695C456.871,179.986 425.36,195.403 415.599,202.867C411.944,205.662 408.156,207.963 404.144,210.199C403.231,210.708 399.516,213.362 399.655,213.239C399.655,213.239 396.638,210.708 395.726,210.199C391.713,207.963 387.925,205.662 384.27,202.867C374.51,195.403 342.998,179.986 341.58,180.695C340.886,181.042 357.457,196.513 357.457,196.513C357.457,196.513 345.969,191.169 342.668,189.747C333.147,185.644 323.418,182.025 313.774,178.226C312.492,177.721 306.03,174.319 304.657,175.005C304.071,175.298 307.93,177.952 308.791,178.813C312.275,182.297 322.118,192.858 322.118,192.858C322.118,192.858 314.856,188.957 314.285,188.702C306.857,185.391 298.975,183.174 291.265,180.641C290.701,180.456 284.768,177.629 284.444,177.954C284.432,177.966 287.527,180.863 287.729,181.065C289.973,183.309 297.281,191.313 297.281,191.313C297.281,191.313 282.911,184.492 278.199,182.664C277.78,182.502 272.43,180.505 272.292,180.782C272.133,181.099 278.544,188.443 280.69,191.019C280.861,191.224 283.021,193.966 282.801,194.098C282.403,194.337 279.736,192.57 279.32,192.379C275.602,190.676 271.719,189.314 267.875,187.93C267.603,187.832 263.773,186.037 263.654,186.156C263.607,186.203 267.573,190.693 268.506,192.042C272.002,197.1 280.973,212.995 280.973,212.995C280.973,212.995 265.022,209.001 259.803,207.719C259.482,207.64 255.303,206.429 255.157,206.794C254.952,207.308 259.605,212.857 260.02,213.506C264.305,220.201 268.105,227.251 272.324,234.003C272.856,234.852 276.132,240.726 276.132,240.726C276.132,240.726 270.076,238.642 269.67,238.507C264.301,236.717 258.781,235.243 253.33,233.72C252.57,233.507 247.966,232.686 247.966,232.686C247.966,232.686 250.831,239.106 250.991,239.54C253.525,246.42 260.771,266.455 260.771,266.455L245.923,257.687C245.923,257.687 248.225,263.282 248.445,263.702C251.069,268.719 256.006,284.917 256.006,284.917C256.006,284.917 248.078,279.367 245.257,277.486C245.05,277.348 242.363,275.384 242.189,275.615C242,275.867 244.452,281.144 245.626,285.127C248.297,294.185 251.762,314.686 251.762,314.686L243.158,307.926C243.158,307.926 243.841,312.143 243.941,313.376C244.235,317.017 244.496,320.635 244.92,324.266C246.262,335.769 245.495,346.721 243.375,358.089C242.792,361.216 241.742,368.654 241.623,368.595C241.099,368.332 238.063,352.043 237.239,346.536C233.943,324.502 227.667,303.069 223.521,281.207C218.404,254.228 214.712,225.429 222.798,198.582C240.062,141.267 289.682,104.538 344.734,88.451C360.662,83.797 381.534,78.687 399.935,78.687Z"
        style="fill: none; stroke: black; stroke-width: 2.1px"
      />
    </g>
  </g>
</svg>