<svg width="800px" height="800px" viewBox="0 0 800 800" version="2.0" xmlns="http://www.w3.org/2000/svg" style="fill-rule: evenodd; clip-rule: evenodd; stroke-linecap: round; stroke-linejoin: round; stroke-miterlimit: 1.5">
  <g id="normal-card">
    <rect id="bg" x="-48.418" y="-9.957" width="931.967" height="871.066" style="fill: rgb(6, 46, 66)" />
    <g id="rectangles" transform="matrix(1,0,0,1,49.4291,64.1339)">
      <g opacity="0.5">
        <g transform="matrix(0.660629,0,0,1.04551,351.522,-81.058)">
          <rect x="462.47" y="633.282" width="419.335" height="322.449" style="fill: none" />
          <clipPath id="_clip1_card_template">
            <rect x="462.47" y="633.282" width="419.335" height="322.449" />
          </clipPath>
          <g clip-path="url(#_clip1_card_template)">
            <g transform="matrix(1.51371,0,0,0.956468,-452.99,37.369)">
              <path d="M604.78,633.282L877.032,634.306" style="fill: none; stroke: rgb(166, 240, 98); stroke-width: 4px; stroke-dasharray: 4.25, 7.5, 0, 0" />
            </g>
            <g transform="matrix(1.51371,0,0,0.956468,-452.99,58.0423)">
              <path d="M604.78,633.282L877.032,634.306" style="fill: none; stroke: rgb(166, 240, 98); stroke-width: 4px; stroke-dasharray: 4.25, 7.5, 0, 0" />
            </g>
            <g transform="matrix(1.51371,0,0,0.956468,-452.99,68.3789)">
              <path d="M604.78,633.282L877.032,634.306" style="fill: none; stroke: rgb(166, 240, 98); stroke-width: 4px; stroke-dasharray: 4.25, 7.5, 0, 0" />
            </g>
            <g transform="matrix(1.51371,0,0,0.956468,-452.99,89.0522)">
              <path d="M604.78,633.282L877.032,634.306" style="fill: none; stroke: rgb(166, 240, 98); stroke-width: 4px; stroke-dasharray: 4.25, 7.5, 0, 0" />
            </g>
            <g transform="matrix(1.51371,0,0,0.956468,-452.99,99.3888)">
              <path d="M604.78,633.282L877.032,634.306" style="fill: none; stroke: rgb(166, 240, 98); stroke-width: 4px; stroke-dasharray: 4.25, 7.5, 0, 0" />
            </g>
            <g transform="matrix(1.51371,0,0,0.956468,-452.99,130.399)">
              <path d="M604.78,633.282L877.032,634.306" style="fill: none; stroke: rgb(166, 240, 98); stroke-width: 4px; stroke-dasharray: 4.25, 7.5, 0, 0" />
            </g>
            <g transform="matrix(1.51371,0,0,0.956468,-452.99,151.072)">
              <path d="M604.78,633.282L877.032,634.306" style="fill: none; stroke: rgb(166, 240, 98); stroke-width: 4px; stroke-dasharray: 4.25, 7.5, 0, 0" />
            </g>
            <g transform="matrix(1.51371,0,0,0.956468,-452.99,171.745)">
              <path d="M604.78,633.282L877.032,634.306" style="fill: none; stroke: rgb(166, 240, 98); stroke-width: 4px; stroke-dasharray: 4.25, 7.5, 0, 0" />
            </g>
          </g>
          <rect x="462.47" y="633.282" width="419.335" height="322.449" style="fill: none; stroke: rgb(166, 240, 98); stroke-width: 4.57px; stroke-dasharray: 4.86, 8.58, 0, 0" />
        </g>
        <g transform="matrix(0.192707,0,0,1.04551,466.744,2.40586)">
          <rect x="462.47" y="633.282" width="419.335" height="322.449" style="fill: none" />
          <clipPath id="_clip2_card_template">
            <rect x="462.47" y="633.282" width="419.335" height="322.449" />
          </clipPath>
          <g clip-path="url(#_clip2_card_template)">
            <g transform="matrix(1.51371,0,0,0.956468,-452.99,37.369)">
              <path d="M604.78,633.282L877.032,634.306" style="fill: none; stroke: rgb(237, 30, 121); stroke-width: 5.43px; stroke-dasharray: 5.77, 10.18, 0, 0" />
            </g>
            <g transform="matrix(1.51371,0,0,0.956468,-452.99,58.0423)">
              <path d="M604.78,633.282L877.032,634.306" style="fill: none; stroke: rgb(237, 30, 121); stroke-width: 5.43px; stroke-dasharray: 5.77, 10.18, 0, 0" />
            </g>
            <g transform="matrix(1.51371,0,0,0.956468,-452.99,68.3789)">
              <path d="M604.78,633.282L877.032,634.306" style="fill: none; stroke: rgb(237, 30, 121); stroke-width: 5.43px; stroke-dasharray: 5.77, 10.18, 0, 0" />
            </g>
            <g transform="matrix(1.51371,0,0,0.956468,-452.99,89.0522)">
              <path d="M604.78,633.282L877.032,634.306" style="fill: none; stroke: rgb(237, 30, 121); stroke-width: 5.43px; stroke-dasharray: 5.77, 10.18, 0, 0" />
            </g>
          </g>
          <rect x="462.47" y="633.282" width="419.335" height="322.449" style="fill: none; stroke: rgb(237, 30, 121); stroke-width: 5.32px; stroke-dasharray: 5.65, 9.98, 0, 0" />
        </g>
      </g>
    </g>
    <g id="circles" opacity="0.5">
      <g transform="matrix(1,0,0,1,-118.853,-94.5905)">
        <circle cx="155.124" cy="124.814" r="124.814" style="fill: none; stroke: rgb(255, 207, 0); stroke-width: 4px; stroke-dasharray: 4.25, 7.5, 0, 0" />
      </g>
      <g transform="matrix(0.928318,0,0,0.928318,-107.734,-85.6437)">
        <circle cx="155.124" cy="124.814" r="124.814" style="fill: none; stroke: rgb(255, 207, 0); stroke-width: 4.31px; stroke-dasharray: 4.58, 8.08, 0, 0" />
      </g>
      <g transform="matrix(0.691272,0,0,0.691272,-70.9623,-56.0571)">
        <circle cx="155.124" cy="124.814" r="124.814" style="fill: none; stroke: rgb(255, 108, 0); stroke-width: 5.79px; stroke-dasharray: 6.15, 10.85, 0, 0" />
      </g>
    </g>
    <g id="rarity-bars" transform="matrix(0.86723,0,0,0.86723,10.4494,88.5493)">
      <g id="rarity-bars-fill">
        <g transform="matrix(0.114833,0,0,0.114833,59.0756,653.445)">
          <path d="M400,117.517L629.266,249.774L629.266,514.685L400.192,646.941L400.192,647.052L400.096,646.997L400,647.052L400,646.941L170.925,514.685L170.925,249.774L400,117.517Z" style="fill: rgb(139, 57, 219)" />
        </g>
        <g transform="matrix(0.114833,0,0,0.114833,126.648,653.445)">
          <path d="M400,117.517L629.266,249.774L629.266,514.685L400.192,646.941L400.192,647.052L400.096,646.997L400,647.052L400,646.941L170.925,514.685L170.925,249.774L400,117.517Z" style="fill: rgb(237, 30, 121)" />
        </g>
        <g transform="matrix(0.114833,0,0,0.114833,194.22,653.445)">
          <path d="M400,117.517L629.266,249.774L629.266,514.685L400.192,646.941L400.192,647.052L400.096,646.997L400,647.052L400,646.941L170.925,514.685L170.925,249.774L400,117.517Z" style="fill: rgb(241, 90, 36)" />
        </g>
        <g transform="matrix(0.114833,0,0,0.114833,261.792,653.445)">
          <path d="M400,117.517L629.266,249.774L629.266,514.685L400.192,646.941L400.192,647.052L400.096,646.997L400,647.052L400,646.941L170.925,514.685L170.925,249.774L400,117.517Z" style="fill: rgb(251, 176, 59)" />
        </g>
        <g transform="matrix(0.114833,0,0,0.114833,329.364,653.445)">
          <path d="M400,117.517L629.266,249.774L629.266,514.685L400.192,646.941L400.192,647.052L400.096,646.997L400,647.052L400,646.941L170.925,514.685L170.925,249.774L400,117.517Z" style="fill: rgb(41, 171, 226)" />
        </g>
      </g>
      <g id="rarity-bars-stroke">
        <g transform="matrix(0.114833,0,0,0.114833,59.0756,653.445)">
          <path d="M400,117.517L629.266,249.774L629.266,514.685L400.192,646.941L400.192,647.052L400.096,646.997L400,647.052L400,646.941L170.925,514.685L170.925,249.774L400,117.517Z" style="fill: none; stroke: white; stroke-width: 34.83px" />
        </g>
        <g transform="matrix(0.114833,0,0,0.114833,126.648,653.445)">
          <path d="M400,117.517L629.266,249.774L629.266,514.685L400.192,646.941L400.192,647.052L400.096,646.997L400,647.052L400,646.941L170.925,514.685L170.925,249.774L400,117.517Z" style="fill: none; stroke: white; stroke-width: 34.83px" />
        </g>
        <g transform="matrix(0.114833,0,0,0.114833,194.22,653.445)">
          <path d="M400,117.517L629.266,249.774L629.266,514.685L400.192,646.941L400.192,647.052L400.096,646.997L400,647.052L400,646.941L170.925,514.685L170.925,249.774L400,117.517Z" style="fill: none; stroke: white; stroke-width: 34.83px" />
        </g>
        <g transform="matrix(0.114833,0,0,0.114833,261.792,653.445)">
          <path d="M400,117.517L629.266,249.774L629.266,514.685L400.192,646.941L400.192,647.052L400.096,646.997L400,647.052L400,646.941L170.925,514.685L170.925,249.774L400,117.517Z" style="fill: none; stroke: white; stroke-width: 34.83px" />
        </g>
        <g transform="matrix(0.114833,0,0,0.114833,329.364,653.445)">
          <path d="M400,117.517L629.266,249.774L629.266,514.685L400.192,646.941L400.192,647.052L400.096,646.997L400,647.052L400,646.941L170.925,514.685L170.925,249.774L400,117.517Z" style="fill: none; stroke: white; stroke-width: 34.83px" />
        </g>
      </g>
    </g>
    <g transform="matrix(0.911866,0,0,0.911866,252.534,309.097)">
      <text x="190.763px" y="439.84px" style="font-family: 'Futura-Medium', 'Futura', sans-serif; font-weight: 500; font-size: 50px; fill: white" id="wear_value"></text>
    </g>
    <g transform="matrix(0.720342,0,0,0.720342,340.614,330.63)">
      <text x="77.471px" y="439.84px" style="font-family: 'Futura-Medium', 'Futura', sans-serif; font-weight: 500; font-size: 50px; fill: white">WEAR</text>
    </g>
    <g id="eye" transform="matrix(1,0,0,1,-1.77165,0)">
      <g transform="matrix(0.88044,0,0,0.88044,68.5829,70.2432)">
        <path
          d="M634.355,700.111C653.954,688.642 678.218,688.642 697.818,700.111C704.234,703.866 709.059,706.69 709.059,706.69C709.059,706.69 704.234,709.513 697.818,713.268C678.218,724.738 653.954,724.738 634.355,713.268C627.938,709.513 623.113,706.69 623.113,706.69C623.113,706.69 627.938,703.866 634.355,700.111Z"
          style="fill: white"
        />
      </g>
      <circle cx="655.032" cy="692.441" r="13.365" style="fill: rgb(6, 46, 66)" />
    </g>
    <g transform="matrix(0.720342,0,0,0.720342,520.614,330.63)">
      <text x="124.102px" y="439.84px" style="font-family: 'Futura-Medium', 'Futura', sans-serif; font-weight: 500; font-size: 50px; fill: white">SLOT</text>
    </g>
    <g transform="matrix(1,0,0,1,-7.69409,0)">
      <path d="M82.194,602.738L733.196,602.258C733.979,602.258 734.615,601.621 734.614,600.838C734.614,600.055 733.977,599.42 733.194,599.42L82.192,599.9C81.409,599.901 80.773,600.537 80.774,601.321C80.775,602.104 81.411,602.739 82.194,602.738Z" style="fill: white" />
    </g>
    <g transform="matrix(1,0,0,1,120.441,145.046)">
      <text x="70.471px" y="439.84px" style="font-family: 'Futura-Medium', 'Futura', sans-serif; font-weight: 500; font-size: 50px; fill: white">DFINITY EYEMASK</text>
    </g>
    <path
      id="border"
      d="M800,801.235L800,-4.106L-0,-4.106L0,801.235L800,801.235ZM260.875,30.644L30.644,30.644C30.644,30.644 30.644,769.356 30.644,769.356C30.644,769.356 769.356,769.356 769.356,769.356L769.356,30.644L539.125,30.644L539.125,61.806L260.875,61.806L260.875,30.644Z"
      style="fill: rgb(0, 153, 197)"
    />
    <g id="guide" transform="matrix(1,0,0,1.04284,1.75676,-22.4672)">
      <rect x="82.193" y="95.569" width="632.101" height="428.927" style="fill: url(#_Linear3_card_template); stroke: rgb(0, 153, 197); stroke-width: 4.8px" />
    </g>
    <g transform="translate(10,-10)">
      <g id="Dfinity-eye-mask" style="fill-rule: evenodd; clip-rule: evenodd; stroke-linejoin: round; stroke-miterlimit: 2">
        <path
          id="Shadow"
          d="M400.082,363.93C402.668,363.708 407.321,369.085 408.489,370.226C418.188,379.704 428.382,388.452 439.755,395.884C467.792,414.209 502.13,418.843 532.849,404.419L548.687,399.536C548.727,399.551 547.676,400.711 547.609,400.781C546.775,401.657 545.892,402.48 545.047,403.346C542.486,405.968 539.739,408.408 537.123,410.975C525.881,422.005 512.68,431.541 496.671,433.648C465.982,437.687 443.424,418.675 421.005,400.695C415.299,396.119 409.643,391.533 404.21,386.632C403.239,385.756 401.501,384.586 400.082,383.332C398.663,384.586 396.925,385.756 395.954,386.632C390.522,391.533 384.865,396.119 379.159,400.695C356.74,418.675 334.183,437.687 303.494,433.648C287.485,431.541 274.284,422.005 263.042,410.975C260.425,408.408 257.678,405.968 255.117,403.346C254.272,402.48 253.39,401.657 252.555,400.781C252.489,400.711 251.437,399.551 251.477,399.536L267.315,404.419C298.034,418.843 332.372,414.209 360.41,395.884C371.782,388.452 381.976,379.704 391.676,370.226C392.843,369.085 397.497,363.708 400.082,363.93ZM264.887,330.053C264.85,330.046 267.346,325.436 267.52,325.163C270.451,320.555 273.683,316.06 277.997,312.647C286.5,305.919 294.01,303.24 304.503,301.048C309.891,299.922 319.415,300.242 323.432,302.184C337.912,309.182 352.787,322.302 363.613,334.229C366.606,337.527 371.163,343.056 370.545,346.409C370.153,348.538 368.253,351.733 366.936,353.309C362.494,358.63 358.066,363.958 353.642,369.295C352.984,370.088 347.42,375.772 347.939,376.662C348.193,377.097 356.005,371.843 358.583,369.898C367.884,362.88 380.488,353.577 381.596,341.006C382.891,326.309 368.398,313.953 358.116,305.79C328.697,282.436 282.905,279.225 260.792,314.214C249.231,332.508 248.126,364.082 263.888,380.647C267.804,384.763 272.653,387.955 277.786,390.348C296.5,399.075 328.717,402.743 343.06,383.928C343.323,383.583 343.82,378.234 343.522,378.397C340.211,380.203 336.834,381.902 333.368,383.39C322.692,387.976 313.091,390.067 301.793,387.499C278.005,382.093 258.721,358.023 263.197,332.661L264.887,330.053ZM534.343,330.053C534.38,330.046 531.883,325.436 531.71,325.163C528.779,320.555 525.547,316.06 521.233,312.647C512.73,305.919 505.22,303.24 494.727,301.048C489.339,299.922 479.815,300.242 475.797,302.184C461.317,309.182 446.442,322.302 435.617,334.229C432.624,337.527 428.067,343.056 428.684,346.409C429.076,348.538 430.977,351.733 432.293,353.309C436.736,358.63 441.164,363.958 445.588,369.295C446.246,370.088 451.809,375.772 451.29,376.662C451.036,377.097 443.225,371.843 440.647,369.898C431.345,362.88 418.741,353.577 417.634,341.006C416.339,326.309 430.831,313.953 441.114,305.79C470.533,282.436 516.325,279.225 538.438,314.214C549.999,332.508 551.104,364.082 535.342,380.647C531.425,384.763 526.576,387.955 521.444,390.348C502.73,399.075 470.513,402.743 456.17,383.928C455.907,383.583 455.409,378.234 455.707,378.397C459.018,380.203 462.396,381.902 465.862,383.39C476.538,387.976 486.139,390.067 497.437,387.499C521.225,382.093 540.509,358.023 536.033,332.661L534.343,330.053Z"
          style="fill: rgb(56, 25, 57); fill-opacity: 0.5"
        />
        <g transform="matrix(0.958543,7.30128e-33,-7.79135e-33,0.898252,227.683,263.942)">
          <g id="logo">
            <g id="Layer-1">
              <g transform="matrix(123.281,124.296,124.296,-123.281,231.127,7.89108)">
                <path
                  d="M0.131,0.196C0.05,0.115 0.006,-0.018 0.001,-0.198C-0.002,-0.283 0.004,-0.366 0.011,-0.429C0.011,-0.429 0.108,-0.436 0.214,-0.442C0.207,-0.381 0.199,-0.297 0.202,-0.21C0.207,-0.05 0.245,0.02 0.276,0.051C0.391,0.168 0.584,0.166 0.705,0.046C0.825,-0.074 0.829,-0.266 0.714,-0.384C0.709,-0.389 0.702,-0.395 0.692,-0.402C0.741,-0.383 0.789,-0.358 0.824,-0.323C1.036,-0.109 0.93,0.08 0.922,0.093C0.901,0.126 0.876,0.158 0.847,0.187C0.645,0.386 0.324,0.391 0.131,0.196Z"
                  style="fill: url(#_Linear1_dfinity_eyemask); fill-rule: nonzero; stroke: black; stroke-width: 0.01px"
                />
              </g>
              <g transform="matrix(-123.281,-124.295,-124.295,123.281,127.542,171.94)">
                <path
                  d="M0.922,0.093C0.901,0.126 0.876,0.157 0.847,0.186C0.645,0.386 0.324,0.391 0.131,0.196C0.05,0.115 0.006,-0.018 0.001,-0.198C-0.002,-0.283 0.004,-0.366 0.011,-0.43C0.011,-0.43 0.108,-0.436 0.214,-0.442C0.207,-0.381 0.199,-0.297 0.202,-0.21C0.207,-0.051 0.245,0.02 0.276,0.051C0.391,0.168 0.584,0.166 0.705,0.045C0.825,-0.074 0.829,-0.266 0.714,-0.384C0.709,-0.39 0.702,-0.395 0.692,-0.402C0.741,-0.384 0.789,-0.358 0.824,-0.323C0.824,-0.323 0.824,-0.323 0.824,-0.323C1.036,-0.109 0.93,0.079 0.922,0.093Z"
                  style="fill: url(#_Linear2_dfinity_eyemask); fill-rule: nonzero; stroke: black; stroke-width: 0.01px"
                />
              </g>
              <g transform="matrix(1,0,0,1,2.7,110.5)">
                <path
                  d="M0,-41.4C0,-41.5 0,-41.6 0.1,-41.7C0,-41.6 0,-41.5 0,-41.4M124.6,-50.8C118.8,-56.4 90.6,-79.3 63.6,-80.1C15.4,-81.3 1.3,-46.3 0,-41.8C9.3,-81 43.7,-110.3 84.5,-110.5C117.8,-110.5 151.5,-77.8 176.4,-48.3L176.5,-48.4C176.5,-48.4 187.7,-35.5 200,-21.6C200,-21.6 214,-5.1 228.8,9.4C234.6,15 262.7,37.6 289.7,38.4C339.2,39.8 352.9,2.8 353.6,-0C344.5,39.5 310,68.9 269,69.1C235.7,69.1 202,36.4 177,6.9C177,7 176.9,7 176.9,7.1C176.9,7.1 165.7,-5.8 153.4,-19.7C153.5,-19.7 139.5,-36.3 124.6,-50.8"
                  style="fill: rgb(41, 171, 226); stroke: black; stroke-width: 2.26px"
                />
              </g>
            </g>
          </g>
        </g>
      </g>
      <defs>
        <linearGradient id="_Linear1_dfinity_eyemask" x1="0" y1="0" x2="1" y2="0.0648367" gradientUnits="userSpaceOnUse" gradientTransform="matrix(1,0,0,-1,0,-0.0513998)">
          <stop offset="0" style="stop-color: rgb(241, 90, 36); stop-opacity: 1" />
          <stop offset="0.21" style="stop-color: rgb(241, 90, 36); stop-opacity: 1" />
          <stop offset="0.68" style="stop-color: rgb(251, 176, 59); stop-opacity: 1" />
          <stop offset="1" style="stop-color: rgb(251, 176, 59); stop-opacity: 1" />
        </linearGradient>
        <linearGradient id="_Linear2_dfinity_eyemask" x1="0" y1="0" x2="1" y2="0.0648368" gradientUnits="userSpaceOnUse" gradientTransform="matrix(1,5.55112e-17,5.55112e-17,-1,0,-0.0515017)">
          <stop offset="0" style="stop-color: rgb(237, 30, 121); stop-opacity: 1" />
          <stop offset="0.21" style="stop-color: rgb(237, 30, 121); stop-opacity: 1" />
          <stop offset="0.89" style="stop-color: rgb(82, 39, 133); stop-opacity: 1" />
          <stop offset="1" style="stop-color: rgb(82, 39, 133); stop-opacity: 1" />
        </linearGradient>
      </defs>
      <defs>
        <linearGradient id="_Linear5" x1="0" y1="0" x2="1" y2="0" gradientUnits="userSpaceOnUse" gradientTransform="matrix(0.676239,212.321,-212.321,0.676239,399.671,115.988)">
          <stop offset="0" style="stop-color: rgb(236, 65, 81); stop-opacity: 1" />
          <stop offset="0.5" style="stop-color: rgb(220, 55, 76); stop-opacity: 1" />
          <stop offset="1" style="stop-color: rgb(172, 27, 60); stop-opacity: 1" />
        </linearGradient>
        <linearGradient id="_Linear7" x1="0" y1="0" x2="1" y2="0" gradientUnits="userSpaceOnUse" gradientTransform="matrix(0.676239,174.104,-174.104,0.676239,399.671,95.0041)">
          <stop offset="0" style="stop-color: rgb(245, 249, 251); stop-opacity: 1" />
          <stop offset="0.59" style="stop-color: rgb(226, 236, 243); stop-opacity: 1" />
          <stop offset="0.81" style="stop-color: rgb(183, 208, 225); stop-opacity: 1" />
          <stop offset="1" style="stop-color: rgb(140, 180, 206); stop-opacity: 1" />
        </linearGradient>
        <linearGradient id="_Linear8" x1="0" y1="0" x2="1" y2="0" gradientUnits="userSpaceOnUse" gradientTransform="matrix(6.8912e-15,-112.542,112.542,6.8912e-15,399.671,269.108)">
          <stop offset="0" style="stop-color: rgb(236, 65, 81); stop-opacity: 1" />
          <stop offset="0.46" style="stop-color: rgb(227, 63, 84); stop-opacity: 1" />
          <stop offset="1" style="stop-color: rgb(203, 57, 90); stop-opacity: 1" />
        </linearGradient>
      </defs>
    </g>
    <g transform="matrix(1,0,0,1,7.6296,-2.65748)">
      <text x="263.72px" y="53.076px" style="font-family: 'Futura-Medium', 'Futura', sans-serif; font-weight: 500; font-size: 50px; fill: white">SEASON 0</text>
    </g>
  </g>
  <defs>
    <linearGradient id="_Linear3_card_template" x1="0" y1="0" x2="1" y2="0" gradientUnits="userSpaceOnUse" gradientTransform="matrix(3.89688e-14,-610.267,636.408,3.73681e-14,398.243,614.74)">
      <stop offset="0" style="stop-color: rgb(80, 225, 255); stop-opacity: 1" />
      <stop offset="0.44" style="stop-color: rgb(219, 249, 255); stop-opacity: 1" />
      <stop offset="1" style="stop-color: white; stop-opacity: 1" />
    </linearGradient>
  </defs>
</svg>