<svg width="800px" height="800px" viewBox="0 0 800 800" version="2.0" xmlns="http://www.w3.org/2000/svg" style="fill-rule: evenodd; clip-rule: evenodd; stroke-linecap: round; stroke-linejoin: round; stroke-miterlimit: 1.5">
  <g id="normal-card">
    <rect id="bg" x="-48.418" y="-9.957" width="931.967" height="871.066" style="fill: rgb(6, 46, 66)" />
    <g id="rectangles" transform="matrix(1,0,0,1,49.4291,64.1339)">
      <g opacity="0.5">
        <g transform="matrix(0.660629,0,0,1.04551,351.522,-81.058)">
          <rect x="462.47" y="633.282" width="419.335" height="322.449" style="fill: none" />
          <clipPath id="_clip1_card_template">
            <rect x="462.47" y="633.282" width="419.335" height="322.449" />
          </clipPath>
          <g clip-path="url(#_clip1_card_template)">
            <g transform="matrix(1.51371,0,0,0.956468,-452.99,37.369)">
              <path d="M604.78,633.282L877.032,634.306" style="fill: none; stroke: rgb(166, 240, 98); stroke-width: 4px; stroke-dasharray: 4.25, 7.5, 0, 0" />
            </g>
            <g transform="matrix(1.51371,0,0,0.956468,-452.99,58.0423)">
              <path d="M604.78,633.282L877.032,634.306" style="fill: none; stroke: rgb(166, 240, 98); stroke-width: 4px; stroke-dasharray: 4.25, 7.5, 0, 0" />
            </g>
            <g transform="matrix(1.51371,0,0,0.956468,-452.99,68.3789)">
              <path d="M604.78,633.282L877.032,634.306" style="fill: none; stroke: rgb(166, 240, 98); stroke-width: 4px; stroke-dasharray: 4.25, 7.5, 0, 0" />
            </g>
            <g transform="matrix(1.51371,0,0,0.956468,-452.99,89.0522)">
              <path d="M604.78,633.282L877.032,634.306" style="fill: none; stroke: rgb(166, 240, 98); stroke-width: 4px; stroke-dasharray: 4.25, 7.5, 0, 0" />
            </g>
            <g transform="matrix(1.51371,0,0,0.956468,-452.99,99.3888)">
              <path d="M604.78,633.282L877.032,634.306" style="fill: none; stroke: rgb(166, 240, 98); stroke-width: 4px; stroke-dasharray: 4.25, 7.5, 0, 0" />
            </g>
            <g transform="matrix(1.51371,0,0,0.956468,-452.99,130.399)">
              <path d="M604.78,633.282L877.032,634.306" style="fill: none; stroke: rgb(166, 240, 98); stroke-width: 4px; stroke-dasharray: 4.25, 7.5, 0, 0" />
            </g>
            <g transform="matrix(1.51371,0,0,0.956468,-452.99,151.072)">
              <path d="M604.78,633.282L877.032,634.306" style="fill: none; stroke: rgb(166, 240, 98); stroke-width: 4px; stroke-dasharray: 4.25, 7.5, 0, 0" />
            </g>
            <g transform="matrix(1.51371,0,0,0.956468,-452.99,171.745)">
              <path d="M604.78,633.282L877.032,634.306" style="fill: none; stroke: rgb(166, 240, 98); stroke-width: 4px; stroke-dasharray: 4.25, 7.5, 0, 0" />
            </g>
          </g>
          <rect x="462.47" y="633.282" width="419.335" height="322.449" style="fill: none; stroke: rgb(166, 240, 98); stroke-width: 4.57px; stroke-dasharray: 4.86, 8.58, 0, 0" />
        </g>
        <g transform="matrix(0.192707,0,0,1.04551,466.744,2.40586)">
          <rect x="462.47" y="633.282" width="419.335" height="322.449" style="fill: none" />
          <clipPath id="_clip2_card_template">
            <rect x="462.47" y="633.282" width="419.335" height="322.449" />
          </clipPath>
          <g clip-path="url(#_clip2_card_template)">
            <g transform="matrix(1.51371,0,0,0.956468,-452.99,37.369)">
              <path d="M604.78,633.282L877.032,634.306" style="fill: none; stroke: rgb(237, 30, 121); stroke-width: 5.43px; stroke-dasharray: 5.77, 10.18, 0, 0" />
            </g>
            <g transform="matrix(1.51371,0,0,0.956468,-452.99,58.0423)">
              <path d="M604.78,633.282L877.032,634.306" style="fill: none; stroke: rgb(237, 30, 121); stroke-width: 5.43px; stroke-dasharray: 5.77, 10.18, 0, 0" />
            </g>
            <g transform="matrix(1.51371,0,0,0.956468,-452.99,68.3789)">
              <path d="M604.78,633.282L877.032,634.306" style="fill: none; stroke: rgb(237, 30, 121); stroke-width: 5.43px; stroke-dasharray: 5.77, 10.18, 0, 0" />
            </g>
            <g transform="matrix(1.51371,0,0,0.956468,-452.99,89.0522)">
              <path d="M604.78,633.282L877.032,634.306" style="fill: none; stroke: rgb(237, 30, 121); stroke-width: 5.43px; stroke-dasharray: 5.77, 10.18, 0, 0" />
            </g>
          </g>
          <rect x="462.47" y="633.282" width="419.335" height="322.449" style="fill: none; stroke: rgb(237, 30, 121); stroke-width: 5.32px; stroke-dasharray: 5.65, 9.98, 0, 0" />
        </g>
      </g>
    </g>
    <g id="circles" opacity="0.5">
      <g transform="matrix(1,0,0,1,-118.853,-94.5905)">
        <circle cx="155.124" cy="124.814" r="124.814" style="fill: none; stroke: rgb(255, 207, 0); stroke-width: 4px; stroke-dasharray: 4.25, 7.5, 0, 0" />
      </g>
      <g transform="matrix(0.928318,0,0,0.928318,-107.734,-85.6437)">
        <circle cx="155.124" cy="124.814" r="124.814" style="fill: none; stroke: rgb(255, 207, 0); stroke-width: 4.31px; stroke-dasharray: 4.58, 8.08, 0, 0" />
      </g>
      <g transform="matrix(0.691272,0,0,0.691272,-70.9623,-56.0571)">
        <circle cx="155.124" cy="124.814" r="124.814" style="fill: none; stroke: rgb(255, 108, 0); stroke-width: 5.79px; stroke-dasharray: 6.15, 10.85, 0, 0" />
      </g>
    </g>
    <g id="rarity-bars" transform="matrix(0.86723,0,0,0.86723,10.4494,88.5493)">
      <g id="rarity-bars-fill">
        <g transform="matrix(0.114833,0,0,0.114833,59.0756,653.445)">
          <path d="M400,117.517L629.266,249.774L629.266,514.685L400.192,646.941L400.192,647.052L400.096,646.997L400,647.052L400,646.941L170.925,514.685L170.925,249.774L400,117.517Z" style="fill: rgb(139, 57, 219)" />
        </g>
        <g transform="matrix(0.114833,0,0,0.114833,126.648,653.445)">
          <path d="M400,117.517L629.266,249.774L629.266,514.685L400.192,646.941L400.192,647.052L400.096,646.997L400,647.052L400,646.941L170.925,514.685L170.925,249.774L400,117.517Z" style="fill: rgb(237, 30, 121)" />
        </g>
      </g>
      <g id="rarity-bars-stroke">
        <g transform="matrix(0.114833,0,0,0.114833,59.0756,653.445)">
          <path d="M400,117.517L629.266,249.774L629.266,514.685L400.192,646.941L400.192,647.052L400.096,646.997L400,647.052L400,646.941L170.925,514.685L170.925,249.774L400,117.517Z" style="fill: none; stroke: white; stroke-width: 34.83px" />
        </g>
        <g transform="matrix(0.114833,0,0,0.114833,126.648,653.445)">
          <path d="M400,117.517L629.266,249.774L629.266,514.685L400.192,646.941L400.192,647.052L400.096,646.997L400,647.052L400,646.941L170.925,514.685L170.925,249.774L400,117.517Z" style="fill: none; stroke: white; stroke-width: 34.83px" />
        </g>
        <g transform="matrix(0.114833,0,0,0.114833,194.22,653.445)">
          <path d="M400,117.517L629.266,249.774L629.266,514.685L400.192,646.941L400.192,647.052L400.096,646.997L400,647.052L400,646.941L170.925,514.685L170.925,249.774L400,117.517Z" style="fill: none; stroke: white; stroke-width: 34.83px" />
        </g>
        <g transform="matrix(0.114833,0,0,0.114833,261.792,653.445)">
          <path d="M400,117.517L629.266,249.774L629.266,514.685L400.192,646.941L400.192,647.052L400.096,646.997L400,647.052L400,646.941L170.925,514.685L170.925,249.774L400,117.517Z" style="fill: none; stroke: white; stroke-width: 34.83px" />
        </g>
        <g transform="matrix(0.114833,0,0,0.114833,329.364,653.445)">
          <path d="M400,117.517L629.266,249.774L629.266,514.685L400.192,646.941L400.192,647.052L400.096,646.997L400,647.052L400,646.941L170.925,514.685L170.925,249.774L400,117.517Z" style="fill: none; stroke: white; stroke-width: 34.83px" />
        </g>
      </g>
    </g>
    <g transform="matrix(0.720342,0,0,0.720342,23.1337,330.63)">
      <text x="77.471px" y="439.84px" style="font-family: 'Futura-Medium', 'Futura', sans-serif; font-weight: 500; font-size: 50px; fill: white">RARITY</text>
    </g>
    <g transform="matrix(0.911866,0,0,0.911866,252.534,309.097)">
      <text x="190.763px" y="439.84px" style="font-family: 'Futura-Medium', 'Futura', sans-serif; font-weight: 500; font-size: 50px; fill: white" id="wear_value"></text>
    </g>
    <g transform="matrix(0.720342,0,0,0.720342,340.614,330.63)">
      <text x="77.471px" y="439.84px" style="font-family: 'Futura-Medium', 'Futura', sans-serif; font-weight: 500; font-size: 50px; fill: white">WEAR</text>
    </g>
    <g id="hat" transform="matrix(1.10125,0,0,1.10125,158.833,-78.5692)">
      <g transform="matrix(1,0,0,1,-51.9094,-2.83465)">
        <path d="M474.461,710.793C485.268,715.724 523.434,714.96 530.456,710.765" style="fill: none; stroke: white; stroke-width: 3px; stroke-linecap: butt" />
      </g>
      <g transform="matrix(1,0,0,0.58812,-0.101996,292.708)">
        <rect x="433.636" y="663.946" width="33.608" height="46.716" style="fill: white" />
      </g>
    </g>

    <g transform="matrix(0.720342,0,0,0.720342,520.614,330.63)">
      <text x="124.102px" y="439.84px" style="font-family: 'Futura-Medium', 'Futura', sans-serif; font-weight: 500; font-size: 50px; fill: white">SLOT</text>
    </g>
    <g transform="matrix(1,0,0,1,-7.69409,0)">
      <path d="M82.194,602.738L733.196,602.258C733.979,602.258 734.615,601.621 734.614,600.838C734.614,600.055 733.977,599.42 733.194,599.42L82.192,599.9C81.409,599.901 80.773,600.537 80.774,601.321C80.775,602.104 81.411,602.739 82.194,602.738Z" style="fill: white" />
    </g>
    <g transform="matrix(1,0,0,1,120.441,145.046)">
      <text x="77.471px" y="439.84px" style="font-family: 'Futura-Medium', 'Futura', sans-serif; font-weight: 500; font-size: 50px; fill: white">ASSASSIN HOOD</text>
    </g>
    <path
      id="border"
      d="M800,801.235L800,-4.106L-0,-4.106L0,801.235L800,801.235ZM260.875,30.644L30.644,30.644C30.644,30.644 30.644,769.356 30.644,769.356C30.644,769.356 769.356,769.356 769.356,769.356L769.356,30.644L539.125,30.644L539.125,61.806L260.875,61.806L260.875,30.644Z"
      style="fill: rgb(0, 153, 197)"
    />
    <g id="guide" transform="matrix(1,0,0,1.04284,1.75676,-22.4672)">
      <rect x="82.193" y="95.569" width="632.101" height="428.927" style="fill: url(#_Linear3_card_template); stroke: rgb(0, 153, 197); stroke-width: 4.8px" />
      <rect x="82.193" y="95.569" width="632.101" height="428.927" style="fill: url(#assassin-hood)"/>
    </g>
    <pattern id="assassin-hood" viewBox="0,0,800,800" width="100%" height="100%">
      <g transform="matrix(1.00768,0,0,1.00768,-3.07374,-2.63658)">
        <g id="assassin-hoodie-back">
          <path
            d="M345.44,847.789C325.007,846.94 308.069,845.561 298.998,843.652C275.86,838.784 251.418,834.108 232.75,818.589L231.197,832.074C228.43,828.107 227.729,820.7 225.863,816.15C219.315,800.186 210.475,787.493 197.749,775.879C149.592,731.934 53.529,711.257 70.311,630.128C87.914,545.028 148.001,438.363 204.195,373.549C237.967,334.597 279.868,300.642 333.667,299.659C344.722,299.458 355.728,300.574 366.718,301.764C371.729,300.235 382.163,302.853 387.752,303.806C391.554,304.075 395.358,304.257 399.164,304.3C402.969,304.257 406.772,304.075 410.576,303.806C416.164,302.853 426.599,300.235 431.61,301.764C442.599,300.574 453.605,299.458 464.661,299.659C518.46,300.642 560.36,334.597 594.133,373.549C650.326,438.363 710.414,545.028 728.017,630.128C744.799,711.257 648.736,731.934 600.579,775.879C587.853,787.493 579.013,800.186 572.465,816.15C570.599,820.7 569.897,828.107 567.131,832.074L565.578,818.589C546.909,834.108 522.468,838.784 499.33,843.652C490,845.615 472.35,847.018 451.127,847.86C459.388,833.577 465.308,815.634 474.095,795.77C490.562,758.538 510.327,724.639 517.29,683.896C521.67,658.27 518.713,651.993 507.441,643.62C470.63,616.277 431.161,630.087 400.145,629.505C340.37,628.383 288.92,630.822 275.564,655.511C270.142,665.533 272.976,680.307 276.346,691.148C287.457,726.888 309.531,757.318 324.947,791.114C333.258,809.335 340.55,828.289 345.44,847.789Z"
            style="fill: rgb(76, 40, 76)"
          />
          <clipPath id="_clip9">
            <path
              d="M345.44,847.789C325.007,846.94 308.069,845.561 298.998,843.652C275.86,838.784 251.418,834.108 232.75,818.589L231.197,832.074C228.43,828.107 227.729,820.7 225.863,816.15C219.315,800.186 210.475,787.493 197.749,775.879C149.592,731.934 53.529,711.257 70.311,630.128C87.914,545.028 148.001,438.363 204.195,373.549C237.967,334.597 279.868,300.642 333.667,299.659C344.722,299.458 355.728,300.574 366.718,301.764C371.729,300.235 382.163,302.853 387.752,303.806C391.554,304.075 395.358,304.257 399.164,304.3C402.969,304.257 406.772,304.075 410.576,303.806C416.164,302.853 426.599,300.235 431.61,301.764C442.599,300.574 453.605,299.458 464.661,299.659C518.46,300.642 560.36,334.597 594.133,373.549C650.326,438.363 710.414,545.028 728.017,630.128C744.799,711.257 648.736,731.934 600.579,775.879C587.853,787.493 579.013,800.186 572.465,816.15C570.599,820.7 569.897,828.107 567.131,832.074L565.578,818.589C546.909,834.108 522.468,838.784 499.33,843.652C490,845.615 472.35,847.018 451.127,847.86C459.388,833.577 465.308,815.634 474.095,795.77C490.562,758.538 510.327,724.639 517.29,683.896C521.67,658.27 518.713,651.993 507.441,643.62C470.63,616.277 431.161,630.087 400.145,629.505C340.37,628.383 288.92,630.822 275.564,655.511C270.142,665.533 272.976,680.307 276.346,691.148C287.457,726.888 309.531,757.318 324.947,791.114C333.258,809.335 340.55,828.289 345.44,847.789Z"
            />
          </clipPath>
          <g clip-path="url(#_clip9)">
            <path
              d="M103.207,526.042C104.177,526.668 104.294,524.004 104.866,523.001C106.433,520.249 108.077,517.54 109.668,514.802C113.849,507.604 118.154,500.478 122.579,493.426C135.339,473.092 149.937,452.069 171.905,440.844C176.471,438.511 192.08,431.241 196.071,438.398C200.022,445.482 189.238,480.703 187.349,488.447C175.469,537.154 153.421,581.913 137.8,629.263C131.58,648.118 123.692,672.089 128.109,692.134C129.735,699.513 133.28,706.227 137.739,712.278C139.743,714.998 141.898,717.602 144.007,720.239C144.028,720.265 144.421,720.712 144.423,720.708C145.019,719.515 137.884,704.267 136.77,699.356C133.359,684.321 135.523,669.14 138.685,654.269C149.488,603.449 176.274,561.481 200.086,516.236C207.126,502.862 213.475,489.052 218.784,474.894C219.434,473.161 222.307,461.407 224.738,461.25C226.637,461.127 226.731,475.43 226.784,476.648C227.512,493.546 227.224,510.683 223.845,527.312C218.773,552.274 206.669,574.248 194.671,596.321C183.514,616.846 178.426,635.45 168.393,658.702C152.646,695.197 176.106,720.093 199.69,755.447C211.18,772.67 217.574,800.781 220.648,810.941C222.882,818.323 268.741,807.326 273.108,805.196C296.258,793.905 359.812,919.343 384.615,912.356C410.429,905.083 387.845,837.501 395.83,775.416C397.571,761.875 373.857,682.488 382.276,668.675C396.614,645.147 391.747,610.441 391.228,584.376C389.977,521.491 388.707,459.037 389.736,396.133C390.223,366.383 391.646,330.325 366.369,309.419C336.139,284.417 288.998,291.984 255.519,305.004C177.563,335.32 119.014,408.608 102.581,489.954L103.207,526.042ZM695.828,526.042C694.858,526.668 694.74,524.004 694.169,523.001C692.602,520.249 690.957,517.54 689.367,514.802C685.186,507.604 680.88,500.478 676.456,493.426C663.696,473.092 649.098,452.069 627.13,440.844C622.563,438.511 606.955,431.241 602.963,438.398C599.013,445.482 609.797,480.703 611.685,488.447C623.565,537.154 645.613,581.913 661.234,629.263C667.454,648.118 675.342,672.089 670.926,692.134C669.3,699.513 665.754,706.227 661.296,712.278C659.292,714.998 657.137,717.602 655.027,720.239C655.007,720.265 654.614,720.712 654.612,720.708C654.015,719.515 661.151,704.267 662.265,699.356C665.676,684.321 663.511,669.14 660.35,654.269C649.547,603.449 622.761,561.481 598.948,516.236C591.909,502.862 585.559,489.052 580.25,474.894C579.6,473.161 576.728,461.407 574.297,461.25C572.397,461.127 572.303,475.43 572.251,476.648C571.523,493.546 571.81,510.683 575.189,527.312C580.261,552.274 592.365,574.248 604.363,596.321C615.52,616.846 620.609,635.45 630.642,658.702C646.389,695.197 622.929,720.093 599.344,755.447C587.855,772.67 581.461,800.781 578.386,810.941C576.152,818.323 533.443,812.334 529.076,810.204C505.925,798.913 442.243,927.459 417.44,920.472C391.626,913.199 418.589,775.772 415.588,737.034C414.534,723.422 425.177,682.488 416.759,668.675C402.421,645.147 407.288,610.441 407.806,584.376C409.057,521.491 410.328,459.037 409.298,396.133C408.811,366.383 407.388,330.325 432.665,309.419C462.895,284.417 510.037,291.984 543.515,305.004C621.471,335.32 680.02,408.608 696.454,489.954L695.828,526.042Z"
              style="fill: rgb(55, 31, 55)"
            />
            <path
              d="M254.754,221.844C255.764,224.415 247.776,241.453 246.96,244.527C241.233,266.102 236.369,287.902 232.69,309.919C223.819,363.004 218.679,418.091 204.869,470.229C197.072,499.665 184.326,528.564 172.847,556.719C154.135,602.613 114.713,658.504 137.91,709.78"
              style="fill: none; stroke: black; stroke-width: 2.1px"
            />
            <g transform="matrix(-1,0,0,1,799.035,0)">
              <path
                d="M254.754,221.844C255.764,224.415 247.776,241.453 246.96,244.527C241.233,266.102 236.369,287.902 232.69,309.919C223.819,363.004 218.679,418.091 204.869,470.229C197.072,499.665 184.326,528.564 172.847,556.719C154.135,602.613 114.713,658.504 137.91,709.78"
                style="fill: none; stroke: black; stroke-width: 2.1px"
              />
            </g>
            <path d="M253.559,492.29C249.407,495.809 238.322,535.082 235.184,542.077C215.094,586.862 175.443,638.597 193.696,690.748" style="fill: none; stroke: black; stroke-width: 2.1px" />
            <g transform="matrix(-1,0,0,1,799.035,0)">
              <path d="M253.559,492.29C249.407,495.809 238.322,535.082 235.184,542.077C215.094,586.862 175.443,638.597 193.696,690.748" style="fill: none; stroke: black; stroke-width: 2.1px" />
            </g>
          </g>
        </g>
      </g>
      <g id="assassin-hood" transform="matrix(1.00768,0,0,1.00768,-3.07374,-0.851312)">
        <path
          id="shadow"
          d="M400.436,321.557C402.52,316.064 405.101,310.781 408.284,305.847C433.999,265.98 487.923,266.739 525.435,285.342C601.752,323.19 621.46,356.116 653.055,435.489L672.675,478.711C673.536,480.094 674.016,481.131 674.036,481.708L672.675,478.711C669.487,473.584 661.073,463.702 651.53,454.88C639.388,443.654 624,435.308 610.474,425.819C576.604,402.06 539.668,378.061 496.691,382.22C474.644,384.353 453.5,390.572 434.741,402.493C421.199,411.099 400.446,429.386 400.446,429.386L400.436,429.376L400.426,429.386C400.426,429.386 379.672,411.099 366.13,402.493C347.372,390.572 326.228,384.353 304.18,382.22C261.203,378.061 224.267,402.06 190.398,425.819C176.871,435.308 161.483,443.654 149.342,454.88C139.799,463.702 131.385,473.584 128.196,478.711L126.836,481.708C126.855,481.131 127.335,480.094 128.196,478.711L147.817,435.489C179.412,356.116 199.119,323.19 275.436,285.342C312.948,266.739 366.872,265.98 392.587,305.847C395.77,310.781 398.352,316.064 400.436,321.557Z"
          style="fill: rgb(56, 25, 57); fill-opacity: 0.5"
        />
        <g id="hood">
          <path
            d="M400.372,21.255C405.747,20.853 418.629,22.853 424.241,23.971C441.903,27.489 490.156,33.165 503.978,44.397C517.8,55.63 579.706,144.931 586.701,157.842C593.696,170.754 600.221,176.51 600.37,185.571C600.518,194.631 618.184,322.813 619.798,337.603C621.411,352.393 661.151,437.91 664.732,450.368C668.313,462.827 690.277,511.301 691.447,513.287C692.617,515.272 703.137,546.142 703.137,546.142C703.137,546.142 664.101,453.993 611.397,394.553C558.693,335.113 535.824,310.458 495.24,313.395C464.688,315.607 425.963,354.334 408.688,373.342L408.688,373.562L399.799,383.705L399.724,383.614L399.649,383.705L390.76,373.562L390.761,373.342C373.485,354.334 334.76,315.607 304.209,313.395C263.625,310.458 240.755,335.113 188.052,394.553C135.348,453.993 96.312,546.142 96.312,546.142C96.312,546.142 106.831,515.272 108.001,513.287C109.171,511.301 131.135,462.827 134.717,450.368C138.298,437.91 178.037,352.393 179.651,337.603C181.265,322.813 198.93,194.631 199.079,185.571C199.227,176.51 205.752,170.754 212.747,157.842C219.742,144.931 281.649,55.63 295.471,44.397C309.293,33.165 357.545,27.489 375.208,23.971C380.819,22.853 394.998,20.853 400.372,21.255Z"
            style="fill: rgb(231, 231, 231)"
          />
          <clipPath id="_clip11">
            <path
              d="M400.372,21.255C405.747,20.853 418.629,22.853 424.241,23.971C441.903,27.489 490.156,33.165 503.978,44.397C517.8,55.63 579.706,144.931 586.701,157.842C593.696,170.754 600.221,176.51 600.37,185.571C600.518,194.631 618.184,322.813 619.798,337.603C621.411,352.393 661.151,437.91 664.732,450.368C668.313,462.827 690.277,511.301 691.447,513.287C692.617,515.272 703.137,546.142 703.137,546.142C703.137,546.142 664.101,453.993 611.397,394.553C558.693,335.113 535.824,310.458 495.24,313.395C464.688,315.607 425.963,354.334 408.688,373.342L408.688,373.562L399.799,383.705L399.724,383.614L399.649,383.705L390.76,373.562L390.761,373.342C373.485,354.334 334.76,315.607 304.209,313.395C263.625,310.458 240.755,335.113 188.052,394.553C135.348,453.993 96.312,546.142 96.312,546.142C96.312,546.142 106.831,515.272 108.001,513.287C109.171,511.301 131.135,462.827 134.717,450.368C138.298,437.91 178.037,352.393 179.651,337.603C181.265,322.813 198.93,194.631 199.079,185.571C199.227,176.51 205.752,170.754 212.747,157.842C219.742,144.931 281.649,55.63 295.471,44.397C309.293,33.165 357.545,27.489 375.208,23.971C380.819,22.853 394.998,20.853 400.372,21.255Z"
            />
          </clipPath>
          <g clip-path="url(#_clip11)">
            <path
              d="M199.858,373.716C200.205,373.801 200.671,369.513 200.771,368.833C201.57,363.394 202.142,357.926 202.852,352.476C204.685,338.402 206.925,324.37 208.88,310.312C212.736,282.578 237.437,265.495 258.929,250.889C264.611,247.027 270.485,243.271 276.69,240.296C277.415,239.949 281.3,237.619 282.125,238.077C282.728,238.412 282.302,241.898 282.302,242.447C282.302,246.999 282.508,251.548 282.425,256.101C282.315,262.145 282.388,268.173 281.541,274.172C281.4,275.171 280.752,279.808 280.752,279.808C280.752,279.808 272.284,284.092 268.679,285.932C261.367,289.663 254.071,294.178 247.76,299.46C245.359,301.47 239.594,308.184 239.715,308.666C239.817,309.076 242.092,307.02 242.759,306.557C244.815,305.129 246.943,303.799 249.088,302.512C257.186,297.653 264.126,292.458 272.55,288.176C274.564,287.152 279.861,285.233 279.978,285.38C280.104,285.537 278.839,293.761 277.683,295.8C276.819,297.325 273.364,299.305 269.668,301.532C262.216,306.024 254.634,311.1 248.088,316.855C244.455,320.049 241.184,323.578 239.356,328.127C237.438,332.901 237.058,338.242 234.157,342.58C225.993,354.79 213.967,364.676 204.664,376.067L199.858,373.716ZM600.204,373.716C599.857,373.801 599.391,369.513 599.291,368.833C598.492,363.394 597.921,357.926 597.21,352.476C595.377,338.402 593.137,324.37 591.182,310.312C587.326,282.578 562.625,265.495 541.133,250.889C535.451,247.027 529.577,243.271 523.372,240.296C522.647,239.949 518.762,237.619 517.938,238.077C517.335,238.412 517.76,241.898 517.76,242.447C517.76,246.999 517.554,251.548 517.637,256.101C517.747,262.145 517.674,268.173 518.521,274.172C518.662,275.171 519.31,279.808 519.31,279.808C519.31,279.808 527.778,284.092 531.383,285.932C538.695,289.663 545.991,294.178 552.302,299.46C554.703,301.47 560.468,308.184 560.347,308.666C560.245,309.076 557.97,307.02 557.303,306.557C555.247,305.129 553.119,303.799 550.974,302.512C542.876,297.653 535.936,292.458 527.512,288.176C525.498,287.152 520.201,285.233 520.084,285.38C519.958,285.537 521.223,293.761 522.379,295.8C523.243,297.325 526.698,299.305 530.394,301.532C537.846,306.024 545.428,311.1 551.974,316.855C555.607,320.049 558.878,323.578 560.706,328.127C562.624,332.901 563.004,338.242 565.905,342.58C574.069,354.79 586.095,364.676 595.398,376.067L600.204,373.716ZM221.048,236.123C221.211,232.246 223.187,227.787 223.984,223.979C229.057,199.744 244.407,177.119 257.187,156.206C261.04,149.9 265.635,144.057 270.958,138.926C271.497,138.406 275.219,134.188 276.047,134.529C276.482,134.708 276.373,137.394 276.413,137.805C276.752,141.296 277.151,144.778 277.522,148.264C277.968,152.446 278.478,156.595 279.206,160.737C279.558,162.739 279.392,166.413 279.392,166.413C279.392,166.413 270.357,181.307 266.686,188.708C265.78,190.535 263.253,194.377 263.456,196.512C263.473,196.69 266.721,192.758 267.594,191.619C270.619,187.674 273.6,183.697 276.759,179.858C276.991,179.577 281.967,174.748 281.967,174.748C281.967,174.748 281.958,178.483 281.944,179.913C281.904,184.001 282.058,188.089 282.058,192.178C282.058,198.413 282.914,216.977 282.914,216.977C282.914,216.977 269.433,225.926 265.281,228.859C253.353,237.283 242.536,248.05 232.992,259.101C225.758,267.478 219.117,276.553 212.707,285.577C211.231,287.656 207.654,294.054 207.35,293.971C206.952,293.863 211.78,277.561 213.183,271.92C214.451,266.821 214.727,260.851 216.664,255.962C220.362,246.629 227.982,237.444 233.696,229.25C236.598,225.089 240.466,219.479 243.502,215.415C243.871,214.921 239.066,217.714 238.667,217.998C231.97,222.761 221.048,236.123 221.048,236.123ZM579.014,236.123C578.851,232.246 576.875,227.787 576.078,223.979C571.005,199.744 555.656,177.119 542.876,156.206C539.022,149.9 534.427,144.057 529.104,138.926C528.565,138.406 524.843,134.188 524.015,134.529C523.58,134.708 523.689,137.394 523.649,137.805C523.31,141.296 522.911,144.778 522.54,148.264C522.094,152.446 521.584,156.595 520.856,160.737C520.504,162.739 520.67,166.413 520.67,166.413C520.67,166.413 529.705,181.307 533.376,188.708C534.282,190.535 536.809,194.377 536.606,196.512C536.589,196.69 533.341,192.758 532.468,191.619C529.443,187.674 526.462,183.697 523.303,179.858C523.071,179.577 518.095,174.748 518.095,174.748C518.095,174.748 518.104,178.483 518.118,179.913C518.158,184.001 518.004,188.089 518.004,192.178C518.004,198.413 517.148,216.977 517.148,216.977C517.148,216.977 530.629,225.926 534.781,228.859C546.709,237.283 557.526,248.05 567.07,259.101C574.305,267.478 580.945,276.553 587.355,285.577C588.831,287.656 592.408,294.054 592.712,293.971C593.11,293.863 588.282,277.561 586.879,271.92C585.611,266.821 585.335,260.851 583.398,255.962C579.7,246.629 572.08,237.444 566.366,229.25C563.464,225.089 559.596,219.479 556.56,215.415C556.191,214.921 560.996,217.714 561.395,217.998C568.092,222.761 579.014,236.123 579.014,236.123ZM274.987,93.914C274.853,95.051 267.371,104.968 264.905,108.682C257.638,119.629 251.843,132.02 247.044,144.227C244.187,151.495 241.307,158.848 238.988,166.31C238.227,168.761 236.039,177.582 236.039,177.582C236.039,177.582 240.035,170.322 240.342,169.83C245.516,161.552 251.084,154.942 258.497,146.702C265.425,139.001 275.449,130.888 275.449,130.888C274.102,119.187 273.998,106.836 274.987,93.914ZM525.075,93.914C525.209,95.051 532.691,104.968 535.157,108.682C542.424,119.629 548.219,132.02 553.018,144.227C555.875,151.495 558.755,158.848 561.074,166.31C561.835,168.761 564.024,177.582 564.024,177.582C564.024,177.582 560.027,170.322 559.72,169.83C554.546,161.552 548.978,154.942 541.565,146.702C534.637,139.001 524.613,130.888 524.613,130.888C525.96,119.187 526.064,106.836 525.075,93.914Z"
              style="fill: rgb(173, 144, 174)"
            />
            <path
              d="M400.031,4.796C415.986,4.754 432.405,7.153 447.784,10.295C473.638,15.577 499.074,23.837 521.137,38.672C557.549,63.155 580.984,100.7 599.902,139.383C624.449,189.578 643.207,242.882 660.899,295.816C670.81,325.471 679.816,355.42 688.265,385.522C701.509,432.704 714.406,480.034 726.796,527.449C729.738,538.707 732.841,550.201 734.006,561.815C734.268,564.433 735.349,570.71 732.324,572.388C726.438,575.653 714.723,560.318 711.814,557.067C693.399,536.482 679.804,511.837 668.144,486.948C644.989,437.519 616.312,367.941 606.224,313.75C600.268,281.761 595.996,249.414 591.039,217.26C588.789,202.663 588.512,184.497 582.574,170.755C576.909,157.644 567.612,145.641 560.028,133.617C554.805,125.335 549.375,117.097 543.509,109.253C539.696,104.154 535.588,99.227 531.522,94.328C529.889,92.361 517.992,75.237 517.709,75.254C517.503,75.266 517.372,75.425 517.312,75.608C515.498,81.047 517.277,89.489 517.377,95.086C517.377,95.108 517.391,95.898 517.391,95.916C517.395,96.351 517.391,96.787 517.391,97.222L517.391,98.117C517.391,113.114 516.146,128.153 514.324,143.035C513.71,148.045 514.414,159.84 510.954,163.949C510.933,163.974 510.874,164.022 510.838,164.029C510.239,164.141 509.947,157.558 509.922,157.064C509.529,149.468 509.677,141.846 510.059,134.252C510.924,117.05 510.824,101.038 507.807,84.037C506.989,79.423 506.953,71.162 503.903,67.265C499.592,61.757 487.249,59.492 481.271,57.385C459.789,49.815 438.154,43.971 415.424,41.782C415.032,41.744 407.545,41.179 400.166,41.179C392.553,41.178 385.042,41.743 384.638,41.782C361.908,43.971 340.273,49.815 318.791,57.385C312.813,59.492 300.47,61.757 296.159,67.265C293.109,71.162 293.073,79.423 292.255,84.037C289.238,101.038 289.138,117.05 290.003,134.252C290.385,141.846 290.533,149.468 290.14,157.064C290.115,157.558 289.823,164.141 289.224,164.029C289.188,164.022 289.129,163.974 289.108,163.949C285.648,159.84 286.352,148.045 285.738,143.035C283.916,128.153 282.671,113.114 282.671,98.117L282.671,97.222C282.671,96.787 282.667,96.351 282.671,95.916C282.671,95.898 282.685,95.108 282.685,95.086C282.785,89.489 284.564,81.047 282.75,75.608C282.69,75.425 282.559,75.266 282.353,75.254C282.07,75.237 270.173,92.361 268.54,94.328C264.474,99.227 260.366,104.154 256.553,109.253C250.687,117.097 245.257,125.335 240.034,133.617C232.45,145.641 223.153,157.644 217.488,170.755C211.55,184.497 211.273,202.663 209.023,217.26C204.066,249.414 199.794,281.761 193.838,313.75C183.75,367.941 155.073,437.519 131.918,486.948C120.258,511.837 106.663,536.482 88.248,557.067C85.339,560.318 73.624,575.653 67.738,572.388C64.713,570.71 65.794,564.433 66.056,561.815C67.221,550.201 70.324,538.707 73.266,527.449C85.656,480.034 98.554,432.704 111.797,385.522C120.246,355.42 129.252,325.471 139.163,295.816C156.855,242.882 175.613,189.578 200.16,139.383C219.078,100.7 242.513,63.155 278.925,38.672C300.988,23.837 326.424,15.577 352.278,10.295C367.657,7.153 384.076,4.754 400.031,4.796Z"
              style="fill: white"
            />
            <g id="lines">
              <path d="M290.374,50.768C289.351,50.666 287.238,62.051 287.044,62.972C284.293,76.067 284.419,89.428 282.891,102.672" style="fill: none; stroke: black; stroke-width: 2.1px" />
              <g transform="matrix(-1,0,0,1,800.391,0)">
                <path d="M290.374,50.768C289.351,50.666 287.238,62.051 287.044,62.972C284.293,76.067 284.419,89.428 282.891,102.672" style="fill: none; stroke: black; stroke-width: 2.1px" />
              </g>
              <path d="M283.683,122.354C283.878,122.419 284.159,126.881 284.226,127.334C285.04,132.831 285.902,138.311 286.904,143.777C291.458,168.618 289.495,193.418 289.495,218.484" style="fill: none; stroke: black; stroke-width: 2.1px" />
              <g transform="matrix(-1,0,0,1,800.129,0)">
                <path d="M283.683,122.354C283.878,122.419 284.159,126.881 284.226,127.334C285.04,132.831 285.902,138.311 286.904,143.777C291.458,168.618 289.495,193.418 289.495,218.484" style="fill: none; stroke: black; stroke-width: 2.1px" />
              </g>
              <path
                d="M304.001,113.979C303.994,113.935 300.136,116.507 299.9,116.684C297.279,118.659 294.748,120.747 292.092,122.677C284.24,128.381 275.971,133.39 268.837,140.038C256.816,151.241 248.861,167.283 241.241,181.584C232.108,198.727 222.559,215.745 213.979,233.173"
                style="fill: none; stroke: black; stroke-width: 2.1px"
              />
              <g transform="matrix(-1,0,0,1,800.129,0)">
                <path
                  d="M304.001,113.979C303.994,113.935 300.136,116.507 299.9,116.684C297.279,118.659 294.748,120.747 292.092,122.677C284.24,128.381 275.971,133.39 268.837,140.038C256.816,151.241 248.861,167.283 241.241,181.584C232.108,198.727 222.559,215.745 213.979,233.173"
                  style="fill: none; stroke: black; stroke-width: 2.1px"
                />
              </g>
              <path d="M306.848,152.46C306.842,152.442 302.932,155.285 302.714,155.46C300.037,157.622 297.407,159.841 294.806,162.093C282.854,172.442 271.826,182.64 263.983,196.532" style="fill: none; stroke: black; stroke-width: 2.1px" />
              <g transform="matrix(-1,0,0,1,800.129,0)">
                <path d="M306.848,152.46C306.842,152.442 302.932,155.285 302.714,155.46C300.037,157.622 297.407,159.841 294.806,162.093C282.854,172.442 271.826,182.64 263.983,196.532" style="fill: none; stroke: black; stroke-width: 2.1px" />
              </g>
              <path d="M256.984,233.32C256.615,233.121 252.15,238.382 251.831,238.721C246.058,244.871 240.292,251.019 234.546,257.192C209.37,284.239 193.816,315.637 175.978,347.598" style="fill: none; stroke: black; stroke-width: 2.1px" />
              <g transform="matrix(-1,0,0,1,800.129,0)">
                <path d="M256.984,233.32C256.615,233.121 252.15,238.382 251.831,238.721C246.058,244.871 240.292,251.019 234.546,257.192C209.37,284.239 193.816,315.637 175.978,347.598" style="fill: none; stroke: black; stroke-width: 2.1px" />
              </g>
              <path d="M281.006,227.035C280.979,227 302.949,217.302 307.618,215.575C321.635,210.391 354.026,199.312 397.357,200.033C436.324,200.681 462.531,203.839 517.623,226.436" style="fill: none; stroke: black; stroke-width: 2.1px" />
            </g>
          </g>
          <path
            d="M400.372,21.255C405.747,20.853 418.629,22.853 424.241,23.971C441.903,27.489 490.156,33.165 503.978,44.397C517.8,55.63 579.706,144.931 586.701,157.842C593.696,170.754 600.221,176.51 600.37,185.571C600.518,194.631 618.184,322.813 619.798,337.603C621.411,352.393 661.151,437.91 664.732,450.368C668.313,462.827 690.277,511.301 691.447,513.287C692.617,515.272 703.137,546.142 703.137,546.142C703.137,546.142 664.101,453.993 611.397,394.553C558.693,335.113 535.824,310.458 495.24,313.395C464.688,315.607 425.963,354.334 408.688,373.342L408.688,373.562L399.799,383.705L399.724,383.614L399.649,383.705L390.76,373.562L390.761,373.342C373.485,354.334 334.76,315.607 304.209,313.395C263.625,310.458 240.755,335.113 188.052,394.553C135.348,453.993 96.312,546.142 96.312,546.142C96.312,546.142 106.831,515.272 108.001,513.287C109.171,511.301 131.135,462.827 134.717,450.368C138.298,437.91 178.037,352.393 179.651,337.603C181.265,322.813 198.93,194.631 199.079,185.571C199.227,176.51 205.752,170.754 212.747,157.842C219.742,144.931 281.649,55.63 295.471,44.397C309.293,33.165 357.545,27.489 375.208,23.971C380.819,22.853 394.998,20.853 400.372,21.255Z"
            style="fill: none; stroke: black; stroke-width: 2.1px"
          />
          <path
            d="M400.098,279.679L373.525,308.661L393.973,329.71L371.975,349.951L399.333,379.492L427.08,348.71L405.744,330.016L426.048,308.802L400.098,279.679ZM399.767,333.82L383.791,349.518L399.683,366.869L416.671,349.206L399.767,333.82ZM400.137,288.892L382.636,307.79L399.579,325.492L416.587,308.389L400.137,288.892Z"
            style="fill: rgb(236, 72, 102); stroke: black; stroke-width: 2.1px"
          />
          <path
            d="M399.787,376.652C403.857,371.906 428.286,343.956 440.636,334.298C454.151,323.729 474.66,307.747 502.775,308.583C530.89,309.418 561.352,331.006 585.682,357.323C610.013,383.641 656.5,449.105 673.425,478.602C690.351,508.099 712.963,564.272 718.172,578.701C723.381,593.13 738.167,629.586 733.576,656.655C728.985,683.725 711.519,703.586 696.588,718.36C681.657,733.134 619.884,766.16 616.964,767.98C614.045,769.8 588.055,790.012 585.964,804.177C556.164,838.039 572.638,798.215 572.638,798.215C572.638,798.215 583.324,776.598 632.021,748.109C681.904,718.926 693.312,718.308 710.535,688.017C727.757,657.727 735.419,633.803 706.461,567.275C677.504,500.747 664.914,478.172 629.548,422.218C594.181,366.263 547.314,334.647 532.7,326.907C518.085,319.167 490.258,311.485 456.432,335.674C425.522,357.778 403.186,386.202 399.679,390.928C399.679,390.928 374.637,357.778 343.727,335.674C309.901,311.485 282.074,319.167 267.459,326.907C252.844,334.647 205.978,366.263 170.611,422.218C135.244,478.172 122.655,500.747 93.697,567.275C64.74,633.803 72.402,657.727 89.624,688.017C106.847,718.308 118.236,715.231 166.725,746.674C208.71,773.9 218.364,789.6 218.364,789.6C218.364,789.6 258.181,846.926 217.5,813.402C207.976,786.69 186.114,769.8 183.195,767.98C180.275,766.16 118.502,733.134 103.571,718.36C88.639,703.586 71.173,683.725 66.583,656.655C61.992,629.586 76.778,593.13 81.987,578.701C87.196,564.272 109.808,508.099 126.733,478.602C143.659,449.105 190.146,383.641 214.476,357.323C238.807,331.006 269.269,309.418 297.384,308.583C325.499,307.747 346.007,323.729 359.523,334.298C371.873,343.956 395.718,371.906 399.787,376.652Z"
            style="fill: rgb(236, 72, 102); stroke: black; stroke-width: 2.1px"
          />
        </g>
      </g>
      <defs>
        <linearGradient id="_Linear5" x1="0" y1="0" x2="1" y2="0" gradientUnits="userSpaceOnUse" gradientTransform="matrix(0.676239,212.321,-212.321,0.676239,399.671,115.988)">
          <stop offset="0" style="stop-color: rgb(236, 65, 81); stop-opacity: 1" />
          <stop offset="0.5" style="stop-color: rgb(220, 55, 76); stop-opacity: 1" />
          <stop offset="1" style="stop-color: rgb(172, 27, 60); stop-opacity: 1" />
        </linearGradient>
        <linearGradient id="_Linear7" x1="0" y1="0" x2="1" y2="0" gradientUnits="userSpaceOnUse" gradientTransform="matrix(0.676239,174.104,-174.104,0.676239,399.671,95.0041)">
          <stop offset="0" style="stop-color: rgb(245, 249, 251); stop-opacity: 1" />
          <stop offset="0.59" style="stop-color: rgb(226, 236, 243); stop-opacity: 1" />
          <stop offset="0.81" style="stop-color: rgb(183, 208, 225); stop-opacity: 1" />
          <stop offset="1" style="stop-color: rgb(140, 180, 206); stop-opacity: 1" />
        </linearGradient>
        <linearGradient id="_Linear8" x1="0" y1="0" x2="1" y2="0" gradientUnits="userSpaceOnUse" gradientTransform="matrix(6.8912e-15,-112.542,112.542,6.8912e-15,399.671,269.108)">
          <stop offset="0" style="stop-color: rgb(236, 65, 81); stop-opacity: 1" />
          <stop offset="0.46" style="stop-color: rgb(227, 63, 84); stop-opacity: 1" />
          <stop offset="1" style="stop-color: rgb(203, 57, 90); stop-opacity: 1" />
        </linearGradient>
      </defs>
    </pattern>
    <g transform="matrix(1,0,0,1,7.6296,-2.65748)">
      <text x="263.72px" y="53.076px" style="font-family: 'Futura-Medium', 'Futura', sans-serif; font-weight: 500; font-size: 50px; fill: white">SEASON 0</text>
    </g>
  </g>
  <defs>
    <linearGradient id="_Linear3_card_template" x1="0" y1="0" x2="1" y2="0" gradientUnits="userSpaceOnUse" gradientTransform="matrix(3.89688e-14,-610.267,636.408,3.73681e-14,398.243,614.74)">
      <stop offset="0" style="stop-color: rgb(80, 225, 255); stop-opacity: 1" />
      <stop offset="0.44" style="stop-color: rgb(219, 249, 255); stop-opacity: 1" />
      <stop offset="1" style="stop-color: white; stop-opacity: 1" />
    </linearGradient>
    <g id="heli-cap">
      <path
        id="Shadow"
        d="M404.234,215.129C428.898,218.296 500.585,226.535 542.136,238.146C592.982,252.354 584.265,253.34 584.265,253.34L550.569,247.259L542.493,305.294C542.493,305.294 541.37,323.811 530.272,331.323C519.173,338.835 479.09,333.357 447.17,329.124C424.063,326.059 407.352,325.468 399.884,325.376C392.417,325.468 375.705,326.059 352.598,329.124C320.678,333.357 280.595,338.835 269.497,331.323C258.398,323.811 257.275,305.294 257.275,305.294L249.199,247.259L215.503,253.34C215.503,253.34 207.131,252.297 257.976,238.089C299.527,226.479 370.87,218.296 395.534,215.129L395.534,214.041C395.534,214.041 397.081,214.225 399.884,214.577C402.687,214.225 404.234,214.041 404.234,214.041L404.234,215.129Z"
        style="fill: rgb(56, 25, 57); fill-opacity: 0.5"
      />
      <g id="fan-bit">
        <path d="M395.662,27.087C395.662,27.087 305.36,21.898 297.195,21.931C289.03,21.964 217.675,23.635 219.953,27.087C222.232,30.54 246.78,39.059 264.821,40.14C282.862,41.221 395.662,31.814 395.662,31.814L395.662,27.087Z" style="fill: rgb(255, 223, 92)" />
        <clipPath id="_clip1_helicap">
          <path d="M395.662,27.087C395.662,27.087 305.36,21.898 297.195,21.931C289.03,21.964 217.675,23.635 219.953,27.087C222.232,30.54 246.78,39.059 264.821,40.14C282.862,41.221 395.662,31.814 395.662,31.814L395.662,27.087Z" />
        </clipPath>
        <g clip-path="url(#_clip1_helicap)">
          <path
            d="M225.045,30.993C224.466,30.556 226.493,31.072 227.216,31.134C228.615,31.253 230.015,31.49 231.402,31.711C235.56,32.373 239.679,33.266 243.832,33.951C256.481,36.039 268.516,36.65 281.321,35.92C311.507,34.198 341.744,31.992 371.953,30.788C378.744,30.517 385.563,29.762 392.361,29.793C393.154,29.796 398.369,29.49 398.481,30.879C398.643,32.871 390.787,34.056 389.713,34.297C379.34,36.621 368.638,37.688 358.071,38.674C335.223,40.808 312.31,42.38 289.381,43.297C269.861,44.077 249.889,44.568 231.024,38.676"
            style="fill: rgb(160, 127, 79)"
          />
          <path
            d="M221.982,34.549C221.357,34.464 223.132,34.023 223.728,33.816C224.969,33.385 226.236,33.022 227.503,32.675C231.207,31.658 234.941,30.706 238.7,29.914C250.216,27.49 261.202,27.44 272.971,27.087C304.553,26.141 336.842,27.518 368.406,28.034C376.092,28.159 383.776,28.339 391.464,28.358C393.343,28.363 395.23,28.409 397.107,28.295C397.365,28.279 398.648,28.328 398.721,27.932C398.808,27.454 397.199,26.951 396.934,26.847C394.602,25.938 392.138,25.344 389.71,24.758C378.824,22.128 367.743,20.21 356.698,18.389C320.376,12.401 283.559,9.397 247.002,15.239C236.346,16.943 224.953,18.817 215.008,23.192C211.62,24.682 204.696,29.027 210.51,32.198"
            style="fill: rgb(254, 239, 171)"
          />
        </g>
        <path d="M395.662,27.087C395.662,27.087 305.36,21.898 297.195,21.931C289.03,21.964 217.675,23.635 219.953,27.087C222.232,30.54 246.78,39.059 264.821,40.14C282.862,41.221 395.662,31.814 395.662,31.814L395.662,27.087Z" style="fill: none; stroke: black; stroke-width: 2.1px" />
        <g transform="matrix(-1,0,0,1,800.877,0)">
          <path d="M395.662,27.087C395.662,27.087 305.36,21.898 297.195,21.931C289.03,21.964 217.675,23.635 219.953,27.087C222.232,30.54 246.78,39.059 264.821,40.14C282.862,41.221 395.662,31.814 395.662,31.814L395.662,27.087Z" style="fill: rgb(255, 223, 92)" />
          <clipPath id="_clip2_helicap">
            <path d="M395.662,27.087C395.662,27.087 305.36,21.898 297.195,21.931C289.03,21.964 217.675,23.635 219.953,27.087C222.232,30.54 246.78,39.059 264.821,40.14C282.862,41.221 395.662,31.814 395.662,31.814L395.662,27.087Z" />
          </clipPath>
          <g clip-path="url(#_clip2_helicap)">
            <path
              d="M225.045,30.993C224.466,30.556 226.493,31.072 227.216,31.134C228.615,31.253 230.015,31.49 231.402,31.711C235.56,32.373 239.679,33.266 243.832,33.951C256.481,36.039 268.516,36.65 281.321,35.92C311.507,34.198 341.744,31.992 371.953,30.788C378.744,30.517 385.563,29.762 392.361,29.793C393.154,29.796 398.369,29.49 398.481,30.879C398.643,32.871 390.787,34.056 389.713,34.297C379.34,36.621 368.638,37.688 358.071,38.674C335.223,40.808 312.31,42.38 289.381,43.297C269.861,44.077 249.889,44.568 231.024,38.676"
              style="fill: rgb(160, 127, 79)"
            />
            <path
              d="M221.982,34.549C221.357,34.464 223.132,34.023 223.728,33.816C224.969,33.385 226.236,33.022 227.503,32.675C231.207,31.658 234.941,30.706 238.7,29.914C250.216,27.49 261.202,27.44 272.971,27.087C304.553,26.141 336.842,27.518 368.406,28.034C376.092,28.159 383.776,28.339 391.464,28.358C393.343,28.363 395.23,28.409 397.107,28.295C397.365,28.279 398.648,28.328 398.721,27.932C398.808,27.454 397.199,26.951 396.934,26.847C394.602,25.938 392.138,25.344 389.71,24.758C378.824,22.128 367.743,20.21 356.698,18.389C320.376,12.401 283.559,9.397 247.002,15.239C236.346,16.943 224.953,18.817 215.008,23.192C211.62,24.682 204.696,29.027 210.51,32.198"
              style="fill: rgb(254, 239, 171)"
            />
          </g>
          <path d="M395.662,27.087C395.662,27.087 305.36,21.898 297.195,21.931C289.03,21.964 217.675,23.635 219.953,27.087C222.232,30.54 246.78,39.059 264.821,40.14C282.862,41.221 395.662,31.814 395.662,31.814L395.662,27.087Z" style="fill: none; stroke: black; stroke-width: 2.1px" />
        </g>
        <path d="M395.662,36.495L395.751,21.86C395.751,21.86 396.109,18.084 399.915,17.68C399.926,17.679 399.937,17.679 399.948,17.68C399.959,17.679 399.971,17.679 399.982,17.68C403.788,18.084 404.145,21.86 404.145,21.86L404.234,36.495L395.662,36.495Z" style="fill: rgb(255, 223, 92)" />
        <clipPath id="_clip3_helicap">
          <path d="M395.662,36.495L395.751,21.86C395.751,21.86 396.109,18.084 399.915,17.68C399.926,17.679 399.937,17.679 399.948,17.68C399.959,17.679 399.971,17.679 399.982,17.68C403.788,18.084 404.145,21.86 404.145,21.86L404.234,36.495L395.662,36.495Z" />
        </clipPath>
        <g clip-path="url(#_clip3_helicap)">
          <path
            d="M396.408,29.617C396.622,29.65 396.458,29.188 396.499,28.976C396.586,28.528 396.7,28.084 396.829,27.647C397.214,26.343 397.757,24.643 399.011,23.909C400.932,22.783 402.315,25.251 402.895,26.692C403,26.952 403.771,29.292 403.827,29.257C404.439,28.867 404.137,25.96 404.128,25.393C404.091,23.044 404.028,20.205 402.607,18.211C400.488,15.235 397.048,17.454 396.012,20.143C395.592,21.235 395.43,22.372 395.383,23.535C395.31,25.354 395.397,27.164 395.535,28.977"
            style="fill: rgb(254, 239, 171)"
          />
          <path
            d="M397.685,37.145C397.749,37.229 397.921,36.235 397.982,35.601C398.159,33.772 398.137,29.726 398.588,28.438C398.797,27.841 399.356,26.99 400.104,27.024C400.945,27.062 401.459,28.117 401.604,28.989C401.909,30.833 402.046,33.45 402.211,35.31C402.242,35.657 402.318,36.883 402.038,37.169C401.738,37.475 401.072,37.264 400.699,37.246"
            style="fill: rgb(160, 127, 79)"
          />
        </g>
        <path
          d="M395.662,36.495L395.751,21.86C395.751,21.86 396.109,18.084 399.915,17.68C399.926,17.679 399.937,17.679 399.948,17.68C399.959,17.679 399.971,17.679 399.982,17.68C403.788,18.084 404.145,21.86 404.145,21.86L404.234,36.495L395.662,36.495Z"
          style="fill: none; stroke: black; stroke-width: 2.1px"
        />
      </g>
      <g id="Cap">
        <g transform="matrix(1,0,0,1.17244,0.492122,-13.9146)">
          <ellipse cx="399.645" cy="49.941" rx="13.8" ry="6.946" style="fill: rgb(235, 65, 81)" />
          <clipPath id="_clip4">
            <ellipse cx="399.645" cy="49.941" rx="13.8" ry="6.946" />
          </clipPath>
          <g clip-path="url(#_clip4)">
            <g transform="matrix(1,0,0,0.85292,-0.492122,11.868)">
              <path
                d="M401.096,36.072C401.204,36.209 400.782,36.223 400.629,36.306C400.317,36.474 400.014,36.659 399.719,36.855C398.851,37.433 397.984,38.08 397.247,38.82C396.394,39.676 395.756,40.729 395.141,41.761C394.702,42.5 394.314,43.34 393.452,43.653C391.461,44.376 388.942,43.894 386.882,43.762C386.382,43.73 384.99,43.751 384.867,43.052C384.762,42.453 385.534,41.728 385.889,41.348C387.186,39.958 388.811,38.787 390.491,37.908C392.195,37.015 394.026,36.518 395.915,36.2L401.096,36.072ZM400.846,37.102C400.704,37.107 401.084,37.26 401.196,37.348C401.422,37.524 401.643,37.71 401.856,37.901C402.508,38.488 403.129,39.093 403.652,39.801C404.274,40.64 404.859,41.926 405.729,42.523C406.892,43.323 409.006,43.103 410.336,43.246C410.947,43.312 412.812,43.875 413.279,43.263C413.926,42.417 412.056,40.88 411.571,40.433C409.234,38.282 406.484,36.91 403.337,36.446L400.846,37.102Z"
                style="fill: rgb(245, 180, 162)"
              />
            </g>
          </g>
          <ellipse cx="399.645" cy="49.941" rx="13.8" ry="6.946" style="fill: none; stroke: black; stroke-width: 1.93px" />
        </g>
        <path
          d="M397.676,42.89C398.239,42.681 401.591,42.681 402.153,42.89C501.816,49.249 562.727,112.371 575.583,128.609C598.099,165.571 588.808,253.34 588.808,253.34L550.413,240.154C501.393,225.168 450.081,213.936 399.915,213.936C349.748,213.936 298.436,225.168 249.416,240.154L211.021,253.34C211.021,253.34 201.73,165.571 224.246,128.609C237.102,112.371 298.013,49.249 397.676,42.89Z"
          style="fill: url(#_Linear5)"
        />
        <clipPath id="_clip6">
          <path
            d="M397.676,42.89C398.239,42.681 401.591,42.681 402.153,42.89C501.816,49.249 562.727,112.371 575.583,128.609C598.099,165.571 588.808,253.34 588.808,253.34L550.413,240.154C501.393,225.168 450.081,213.936 399.915,213.936C349.748,213.936 298.436,225.168 249.416,240.154L211.021,253.34C211.021,253.34 201.73,165.571 224.246,128.609C237.102,112.371 298.013,49.249 397.676,42.89Z"
          />
        </clipPath>
        <g clip-path="url(#_clip6)">
          <path
            d="M249.199,239.63C249.199,239.63 253.866,164.607 268.912,136.528C283.959,108.45 312.705,85.883 333.536,71.098C354.368,56.313 390.641,43.187 390.777,43.294C390.913,43.4 396.586,42.578 396.586,42.578C396.586,42.578 374.576,62.921 364.35,92.142C354.124,121.362 346.116,161.226 347.318,218.647C340.968,218.814 275.527,230.905 267.561,234.361C259.596,237.818 249.199,239.63 249.199,239.63ZM551.074,239.63C551.074,239.63 546.408,164.607 531.361,136.528C516.315,108.45 487.569,85.883 466.737,71.098C445.905,56.313 409.632,43.187 409.496,43.294C409.361,43.4 403.687,42.578 403.687,42.578C403.687,42.578 425.697,62.921 435.923,92.142C446.149,121.362 454.157,161.226 452.955,218.647C459.305,218.814 524.746,230.905 532.712,234.361C540.678,237.818 551.074,239.63 551.074,239.63Z"
            style="fill: url(#_Linear7)"
          />
          <path
            d="M386.51,40.023C386.149,40.084 385.678,40.219 385.621,40.231C382.237,40.915 378.883,41.767 375.538,42.617C363.669,45.633 355.109,49.217 343.932,54.254C303.045,72.682 247.542,103.044 231.39,146.585C222.965,169.296 223.688,209.652 225.073,237.051C225.43,244.108 227.418,247.931 226.532,254.956C225.78,260.918 213.933,261.098 210.297,258.578C204.079,254.269 201.397,245.103 200.242,238.083C197.333,220.407 199.714,201.275 201.542,183.602C203.778,161.983 208.463,138.497 220.356,119.889C230.231,104.439 245.732,92.839 260.744,82.753C294.17,60.297 333.806,42.68 374.377,39.606L386.51,40.023ZM413.666,40.023C414.027,40.084 414.499,40.219 414.555,40.231C417.94,40.915 421.293,41.767 424.639,42.617C436.507,45.633 445.067,49.217 456.244,54.254C497.131,72.682 552.634,103.044 568.786,146.585C577.211,169.296 576.488,209.652 575.104,237.051C574.747,244.108 572.758,247.931 573.644,254.956C574.396,260.918 586.243,261.098 589.88,258.578C596.098,254.269 598.779,245.103 599.934,238.083C602.844,220.407 600.463,201.275 598.635,183.602C596.398,161.983 591.713,138.497 579.82,119.889C569.946,104.439 554.444,92.839 539.432,82.753C506.007,60.297 466.371,42.68 425.8,39.606L413.666,40.023ZM386.51,40.023L386.927,40.038C386.903,39.978 386.727,39.987 386.51,40.023ZM413.666,40.023L413.25,40.038C413.273,39.978 413.45,39.987 413.666,40.023Z"
            style="fill: rgb(245, 180, 162)"
          />
          <path d="M249.586,240.272C249.586,240.272 250.164,154.307 278.814,120.051C307.465,85.795 350.156,54.702 391.1,43.408" style="fill: none; stroke: black; stroke-width: 2.1px" />
          <g transform="matrix(-1,0,0,1,799.538,0)">
            <path d="M249.586,240.272C249.586,240.272 250.164,154.307 278.814,120.051C307.465,85.795 350.442,54.751 391.387,43.457" style="fill: none; stroke: black; stroke-width: 2.1px" />
          </g>
          <path d="M347.158,217.127C347.158,217.127 347.667,120.455 367.04,84.844C386.412,49.233 394.933,43.753 394.933,43.753" style="fill: none; stroke: black; stroke-width: 2.1px" />
          <g transform="matrix(-1,0,0,1,799.538,0)">
            <path d="M347.158,217.127C347.158,217.127 347.667,120.455 367.04,84.844C386.412,49.233 394.933,43.753 394.933,43.753" style="fill: none; stroke: black; stroke-width: 2.1px" />
          </g>
        </g>
        <path
          d="M397.676,42.89C398.239,42.681 401.591,42.681 402.153,42.89C501.816,49.249 562.727,112.371 575.583,128.609C598.099,165.571 588.808,253.34 588.808,253.34L550.413,240.154C501.393,225.168 450.081,213.936 399.915,213.936C349.748,213.936 298.436,225.168 249.416,240.154L211.021,253.34C211.021,253.34 201.73,165.571 224.246,128.609C237.102,112.371 298.013,49.249 397.676,42.89Z"
          style="fill: none; stroke: black; stroke-width: 2.1px"
        />
        <path
          d="M400.347,214.257L401.046,214.208C401.046,214.208 449.984,210.469 544.124,238.299C546.339,238.954 551.328,240.087 551.328,240.087C551.328,240.087 551.171,297.659 547.632,301.641C544.093,305.623 528.746,308.238 501.077,299.129C475.591,290.739 428.873,277.289 406.043,275.531L406.052,275.716C406.052,275.716 403.087,275.432 400.347,275.357C397.607,275.432 394.642,275.716 394.642,275.716L394.651,275.531C371.821,277.289 325.102,290.739 299.616,299.129C271.947,308.238 256.601,305.623 253.062,301.641C249.522,297.659 249.366,240.087 249.366,240.087C249.366,240.087 254.355,238.954 256.57,238.299C350.709,210.469 399.648,214.208 399.648,214.208L400.347,214.257Z"
          style="fill: url(#_Linear8)"
        />
        <clipPath id="_clip9">
          <path
            d="M400.347,214.257L401.046,214.208C401.046,214.208 449.984,210.469 544.124,238.299C546.339,238.954 551.328,240.087 551.328,240.087C551.328,240.087 551.171,297.659 547.632,301.641C544.093,305.623 528.746,308.238 501.077,299.129C475.591,290.739 428.873,277.289 406.043,275.531L406.052,275.716C406.052,275.716 403.087,275.432 400.347,275.357C397.607,275.432 394.642,275.716 394.642,275.716L394.651,275.531C371.821,277.289 325.102,290.739 299.616,299.129C271.947,308.238 256.601,305.623 253.062,301.641C249.522,297.659 249.366,240.087 249.366,240.087C249.366,240.087 254.355,238.954 256.57,238.299C350.709,210.469 399.648,214.208 399.648,214.208L400.347,214.257Z"
          />
        </clipPath>
        <g clip-path="url(#_clip9)">
          <path
            d="M251.594,304.731C251.855,304.832 251.343,304.231 251.219,303.98C250.987,303.508 250.764,303.037 250.575,302.546C250.178,301.512 248.566,297.054 250.267,296.409C250.947,296.151 251.987,297.086 252.485,297.443C254.046,298.559 255.536,299.132 257.393,299.572C262.424,300.766 267.816,300.083 272.82,299.104C280.741,297.554 288.173,294.644 295.884,292.343C309.5,288.281 323.323,284.314 337.073,280.731C358.304,275.198 380.747,268.911 402.879,269.112C413.132,269.206 423.378,271.42 433.364,273.556C447.757,276.636 462.055,280.229 476.212,284.264C492.078,288.786 507.505,294.936 523.521,298.915C526.586,299.676 536.917,300.668 544.665,299.083C547.082,298.589 549.341,294.044 550.722,294.862C552.363,295.833 552.898,302.364 552.859,304.112C552.755,308.734 528.869,308.393 526.293,308.154C525.101,308.044 523.911,307.919 522.722,307.782C521.31,307.618 519.899,307.44 518.49,307.25C516.83,307.027 515.17,306.794 513.513,306.547C511.62,306.266 509.729,305.973 507.84,305.669C472.977,300.059 438.366,292.599 402.918,291.939C380.65,291.524 358.558,294.166 336.816,298.89C319.525,302.647 302.576,307.914 285.225,311.392C273.857,313.671 251.512,316.991 247.271,301.573"
            style="fill: rgb(136, 47, 70)"
          />
          <path
            d="M304.06,221.428C304.196,221.397 304.296,221.385 304.356,221.393L304.06,221.428C301.643,221.973 287.912,228.319 284.128,230.433C275.725,235.129 262.331,240.137 258.778,247.358C256.559,251.869 256.411,257.63 256.193,262.592C256.007,266.843 256.49,272.054 256.819,276.295C257.425,284.097 256.806,291.928 265.149,294.62C268.762,295.785 274.938,295.658 278.728,295.876C280.053,295.953 286.575,295.818 286.575,295.875C286.575,296.105 271.974,299.379 267.78,299.819C263.539,300.264 258.059,300.249 254.244,298C244.208,292.081 243.503,272.492 242.848,262.664C242.333,254.936 241.625,246.108 245.124,238.937C247.754,233.545 252.778,229.873 257.849,226.955L304.06,221.428ZM496.238,221.428C498.655,221.973 512.386,228.319 516.17,230.433C524.573,235.129 537.967,240.137 541.52,247.358C543.739,251.869 543.887,257.63 544.105,262.592C544.291,266.843 543.808,272.054 543.479,276.295C542.874,284.097 543.492,291.928 535.149,294.62C531.536,295.785 525.36,295.658 521.57,295.876C520.245,295.953 513.723,295.818 513.723,295.875C513.723,296.105 528.324,299.379 532.519,299.819C536.759,300.264 542.239,300.249 546.054,298C556.09,292.081 556.795,272.492 557.45,262.664C557.966,254.936 558.673,246.108 555.174,238.937C552.544,233.545 547.521,229.873 542.449,226.955L496.238,221.428C496.102,221.397 496.003,221.385 495.942,221.393L496.238,221.428Z"
            style="fill: rgb(245, 180, 162)"
          />
          <path d="M251.677,295.591C251.677,295.591 256.821,304.1 277.718,297.961C298.615,291.823 371.118,268.698 399.043,268.92C426.969,269.142 476.724,284.555 501.938,292.832C527.152,301.109 544.899,301.572 548.436,295.121" style="fill: none; stroke: black; stroke-width: 2.1px" />
        </g>
        <path
          d="M400.347,214.257L401.046,214.208C401.046,214.208 449.984,210.469 544.124,238.299C546.339,238.954 551.328,240.087 551.328,240.087C551.328,240.087 551.171,297.659 547.632,301.641C544.093,305.623 528.746,308.238 501.077,299.129C475.591,290.739 428.873,277.289 406.043,275.531L406.052,275.716C406.052,275.716 403.087,275.432 400.347,275.357C397.607,275.432 394.642,275.716 394.642,275.716L394.651,275.531C371.821,277.289 325.102,290.739 299.616,299.129C271.947,308.238 256.601,305.623 253.062,301.641C249.522,297.659 249.366,240.087 249.366,240.087C249.366,240.087 254.355,238.954 256.57,238.299C350.709,210.469 399.648,214.208 399.648,214.208L400.347,214.257Z"
          style="fill: none; stroke: black; stroke-width: 2.1px"
        />
      </g>
    </g>
    <linearGradient id="_Linear5" x1="0" y1="0" x2="1" y2="0" gradientUnits="userSpaceOnUse" gradientTransform="matrix(0.676239,212.321,-212.321,0.676239,399.671,115.988)">
      <stop offset="0" style="stop-color: rgb(236, 65, 81); stop-opacity: 1" />
      <stop offset="0.5" style="stop-color: rgb(220, 55, 76); stop-opacity: 1" />
      <stop offset="1" style="stop-color: rgb(172, 27, 60); stop-opacity: 1" />
    </linearGradient>
    <linearGradient id="_Linear7" x1="0" y1="0" x2="1" y2="0" gradientUnits="userSpaceOnUse" gradientTransform="matrix(0.676239,174.104,-174.104,0.676239,399.671,95.0041)">
      <stop offset="0" style="stop-color: rgb(245, 249, 251); stop-opacity: 1" />
      <stop offset="0.59" style="stop-color: rgb(226, 236, 243); stop-opacity: 1" />
      <stop offset="0.81" style="stop-color: rgb(183, 208, 225); stop-opacity: 1" />
      <stop offset="1" style="stop-color: rgb(140, 180, 206); stop-opacity: 1" />
    </linearGradient>
    <linearGradient id="_Linear8" x1="0" y1="0" x2="1" y2="0" gradientUnits="userSpaceOnUse" gradientTransform="matrix(6.8912e-15,-112.542,112.542,6.8912e-15,399.671,269.108)">
      <stop offset="0" style="stop-color: rgb(236, 65, 81); stop-opacity: 1" />
      <stop offset="0.46" style="stop-color: rgb(227, 63, 84); stop-opacity: 1" />
      <stop offset="1" style="stop-color: rgb(203, 57, 90); stop-opacity: 1" />
    </linearGradient>
  </defs>
</svg>