<svg
  width="100%"
  height="100%"
  viewBox="0 0 800 800"
  version="1.1"
  xmlns="http://www.w3.org/2000/svg"
  style="fill-rule: evenodd; clip-rule: evenodd; stroke-linecap: round; stroke-linejoin: round; stroke-miterlimit: 1.5"
>
  <g transform="matrix(0.999162,0,0,0.999162,0.335328,0.904153)">
    <g id="accessories-back">
      <g id="astro-suit-back">
        <path
          d="M180.259,584.2C176.57,582.294 160.99,539.498 159.048,533.673C139.148,473.972 122.816,406.741 120.745,344.195C113.971,139.636 232.338,-15.74 450.189,13.967C485.299,18.755 521.946,25.555 553.654,42.094C586.872,59.42 609.505,90.929 627.922,122.567C691.154,231.188 682.496,306.971 665.128,423.584C659.994,458.053 652.65,524.348 631.933,550.603C614.242,573.023 547.052,583.724 520.903,589.756C417.868,613.521 290.783,637.728 192.034,584.961"
          style="fill: rgb(41, 38, 57)"
        />
        <clipPath id="Astro-helmet_0">
          <path
            d="M180.259,584.2C176.57,582.294 160.99,539.498 159.048,533.673C139.148,473.972 122.816,406.741 120.745,344.195C113.971,139.636 232.338,-15.74 450.189,13.967C485.299,18.755 521.946,25.555 553.654,42.094C586.872,59.42 609.505,90.929 627.922,122.567C691.154,231.188 682.496,306.971 665.128,423.584C659.994,458.053 652.65,524.348 631.933,550.603C614.242,573.023 547.052,583.724 520.903,589.756C417.868,613.521 290.783,637.728 192.034,584.961"
          />
        </clipPath>
        <g clip-path="url(#Astro-helmet_0)">
          <path
            d="M158.622,597.591C150.081,589.997 143.436,576.512 138.697,566.311C134.503,557.283 131.151,547.773 129.408,537.948C119.268,480.774 187.097,471.526 226.436,469.366C302.406,465.195 385.443,463.602 461.427,465.242C509.226,466.274 558.577,465.312 605.412,476.837C626.057,481.917 653.193,485.417 667.629,502.303C702.777,543.416 630.336,605.512 601.093,624.118C591.554,630.188 581.646,635.69 571.439,640.554C530.382,660.119 484.895,668.737 439.896,672.822"
            style="fill: rgb(26, 25, 33)"
          />
        </g>
      </g>
    </g>
  </g>
</svg>
