<svg width="100%" height="100%" viewBox="0 0 800 800" version="1.1" xmlns="http://www.w3.org/2000/svg" >
    <g id="just-hood-back" transform="matrix(1.07065,0,0,1.07065,-28.2662,-45.2288)">
        <g transform="matrix(0.941187,0,0,0.941187,23.53,39.7816)">
            <path d="M499.33,843.652C490,845.615 308.069,845.561 298.998,843.652C275.86,838.784 251.418,834.108 232.75,818.589L231.197,832.074C228.43,828.107 227.729,820.7 225.863,816.15C219.315,800.186 210.475,787.493 197.749,775.879C149.592,731.934 53.529,711.257 70.311,630.128C87.914,545.028 148.001,438.363 204.195,373.549C237.967,334.597 279.868,300.642 333.667,299.659C344.722,299.458 355.728,300.574 366.718,301.764C371.729,300.235 382.163,302.853 387.752,303.806C391.554,304.075 395.358,304.257 399.164,304.3C402.969,304.257 406.772,304.075 410.576,303.806C416.164,302.853 426.599,300.235 431.61,301.764C442.599,300.574 453.605,299.458 464.661,299.659C518.46,300.642 560.36,334.597 594.133,373.549C650.326,438.363 710.414,545.028 728.017,630.128C744.799,711.257 648.736,731.934 600.579,775.879C587.853,787.493 579.013,800.186 572.465,816.15C570.599,820.7 569.897,828.107 567.131,832.074L565.578,818.589C546.909,834.108 522.468,838.784 499.33,843.652Z" style="fill:rgb(76,40,76);"/>
            <clipPath id="_clip1_assassin_hood">
                <path d="M499.33,843.652C490,845.615 308.069,845.561 298.998,843.652C275.86,838.784 251.418,834.108 232.75,818.589L231.197,832.074C228.43,828.107 227.729,820.7 225.863,816.15C219.315,800.186 210.475,787.493 197.749,775.879C149.592,731.934 53.529,711.257 70.311,630.128C87.914,545.028 148.001,438.363 204.195,373.549C237.967,334.597 279.868,300.642 333.667,299.659C344.722,299.458 355.728,300.574 366.718,301.764C371.729,300.235 382.163,302.853 387.752,303.806C391.554,304.075 395.358,304.257 399.164,304.3C402.969,304.257 406.772,304.075 410.576,303.806C416.164,302.853 426.599,300.235 431.61,301.764C442.599,300.574 453.605,299.458 464.661,299.659C518.46,300.642 560.36,334.597 594.133,373.549C650.326,438.363 710.414,545.028 728.017,630.128C744.799,711.257 648.736,731.934 600.579,775.879C587.853,787.493 579.013,800.186 572.465,816.15C570.599,820.7 569.897,828.107 567.131,832.074L565.578,818.589C546.909,834.108 522.468,838.784 499.33,843.652Z"/>
            </clipPath>
            <g clip-path="url(#_clip1_assassin_hood)">
                <g transform="matrix(0.992376,0,0,0.992376,3.05031,2.61647)">
                    <path d="M417.543,329.302C421.05,321.749 425.987,314.89 432.915,309.16C463.378,283.965 510.881,291.591 544.617,304.711C623.172,335.26 682.171,409.11 698.731,491.082L698.1,527.447C697.122,528.077 697.004,525.393 696.428,524.382C694.849,521.609 693.192,518.88 691.59,516.121C687.376,508.867 683.037,501.686 678.579,494.581C665.721,474.09 651.011,452.906 628.874,441.594C624.273,439.243 608.544,431.918 604.522,439.13C600.541,446.268 611.408,481.759 613.311,489.563C625.282,538.644 647.5,583.747 663.241,631.461C669.508,650.46 677.457,674.616 673.006,694.815C671.368,702.251 667.796,709.016 663.303,715.114C661.283,717.855 659.111,720.479 656.986,723.136C656.965,723.162 656.569,723.612 656.567,723.609C655.966,722.406 663.157,707.041 664.279,702.093C667.716,686.942 665.535,671.645 662.349,656.659C651.463,605.449 624.472,563.158 600.476,517.566C593.383,504.088 586.984,490.172 581.634,475.906C580.979,474.16 578.085,462.315 575.635,462.157C573.721,462.033 573.627,476.446 573.574,477.674C572.84,494.701 573.13,511.97 576.534,528.727C581.645,553.881 593.842,576.023 605.933,598.265C617.175,618.949 622.303,637.695 632.413,661.126C648.281,697.902 624.641,722.989 600.875,758.615C589.298,775.97 582.854,804.296 579.756,814.534C577.505,821.973 534.467,815.939 530.067,813.792C509.372,803.699 456.536,904.496 427.416,922.471C422.569,934.727 416.95,946.571 410.42,957.875L391.171,912.485C389.421,914.519 387.228,915.959 384.496,916.728C359.502,923.77 295.461,797.368 272.133,808.745C267.732,810.892 221.521,821.973 219.27,814.534C216.172,804.296 209.728,775.97 198.151,758.615C174.385,722.989 150.745,697.902 166.613,661.126C176.723,637.695 181.851,618.949 193.093,598.265C205.183,576.023 217.38,553.881 222.491,528.727C225.896,511.97 226.186,494.701 225.452,477.674C225.399,476.446 225.305,462.033 223.391,462.157C220.941,462.315 218.047,474.16 217.392,475.906C212.042,490.172 205.643,504.088 198.55,517.566C174.554,563.158 147.562,605.449 136.677,656.659C133.491,671.645 131.31,686.942 134.747,702.093C135.869,707.041 143.06,722.406 142.459,723.609C142.457,723.612 142.061,723.162 142.04,723.136C139.914,720.479 137.743,717.855 135.723,715.114C131.23,709.016 127.658,702.251 126.019,694.815C121.569,674.616 129.518,650.46 135.785,631.461C151.526,583.747 173.744,538.644 185.715,489.563C187.618,481.759 198.485,446.268 194.504,439.13C190.482,431.918 174.753,439.243 170.151,441.594C148.015,452.906 133.305,474.09 120.447,494.581C115.988,501.686 111.65,508.867 107.436,516.121C105.834,518.88 104.176,521.609 102.598,524.382C102.022,525.393 101.904,528.077 100.926,527.447L100.295,491.082C116.855,409.11 175.853,335.26 254.408,304.711C288.145,291.591 335.648,283.965 366.11,309.16C373.184,315.01 378.182,322.037 381.702,329.779C390.752,322.941 401.39,318.299 411.817,324.781C413.846,326.042 415.751,327.559 417.543,329.302Z" style="fill:rgb(55,31,55);"/>
                </g>
                <path d="M254.754,221.844C255.764,224.415 247.776,241.453 246.96,244.527C241.233,266.102 236.369,287.902 232.69,309.919C223.819,363.004 218.679,418.091 204.869,470.229C197.072,499.665 184.326,528.564 172.847,556.719C154.135,602.613 114.713,658.504 137.91,709.78" style="fill:none;stroke:black;stroke-width:2.1px;"/>
                <g transform="matrix(-1,0,0,1,799.035,0)">
                    <path d="M254.754,221.844C255.764,224.415 247.776,241.453 246.96,244.527C241.233,266.102 236.369,287.902 232.69,309.919C223.819,363.004 218.679,418.091 204.869,470.229C197.072,499.665 184.326,528.564 172.847,556.719C154.135,602.613 114.713,658.504 137.91,709.78" style="fill:none;stroke:black;stroke-width:2.1px;"/>
                </g>
                <path d="M253.559,492.29C249.407,495.809 238.322,535.082 235.184,542.077C215.094,586.862 175.443,638.597 193.696,690.748" style="fill:none;stroke:black;stroke-width:2.1px;"/>
                <g transform="matrix(-1,0,0,1,799.035,0)">
                    <path d="M253.559,492.29C249.407,495.809 238.322,535.082 235.184,542.077C215.094,586.862 175.443,638.597 193.696,690.748" style="fill:none;stroke:black;stroke-width:2.1px;"/>
                </g>
            </g>
        </g>
        <g id="hood" transform="matrix(0.941187,0,0,0.941187,23.53,41.4491)">
            <path id="main" d="M400.372,21.255C405.747,20.853 418.629,22.853 424.241,23.971C441.903,27.489 490.156,33.165 503.978,44.397C517.8,55.63 579.706,144.931 586.701,157.842C593.696,170.754 600.221,176.51 600.37,185.571C600.518,194.631 618.184,322.813 619.798,337.603C621.411,352.393 661.151,437.91 664.732,450.368C668.313,462.827 689.915,512.265 690.747,514.414C697.322,531.412 700.103,538.255 700.103,538.255C700.103,538.255 664.59,453.556 611.397,394.553C562.196,339.978 524.595,314.716 495.904,318.969C459.581,324.354 427.15,359.074 409.874,378.082L400.055,390.977L388.925,377.595C371.65,358.587 336.611,321.356 303.19,319.376C263.856,317.045 221.281,356.707 188.706,395.674C137.756,456.623 99.44,538.325 99.44,538.325C99.44,538.325 106.527,518.308 108.161,514.062C108.989,511.911 131.135,462.827 134.717,450.368C138.298,437.91 178.037,352.393 179.651,337.603C181.265,322.813 198.93,194.631 199.079,185.571C199.227,176.51 205.752,170.754 212.747,157.842C219.742,144.931 281.649,55.63 295.471,44.397C309.293,33.165 357.545,27.489 375.208,23.971C380.819,22.853 394.998,20.853 400.372,21.255Z" style="fill:rgb(231,231,231);"/>
            <clipPath id="_clip2_assassin_hood">
                <path id="main1" d="M400.372,21.255C405.747,20.853 418.629,22.853 424.241,23.971C441.903,27.489 490.156,33.165 503.978,44.397C517.8,55.63 579.706,144.931 586.701,157.842C593.696,170.754 600.221,176.51 600.37,185.571C600.518,194.631 618.184,322.813 619.798,337.603C621.411,352.393 661.151,437.91 664.732,450.368C668.313,462.827 689.915,512.265 690.747,514.414C697.322,531.412 700.103,538.255 700.103,538.255C700.103,538.255 664.59,453.556 611.397,394.553C562.196,339.978 524.595,314.716 495.904,318.969C459.581,324.354 427.15,359.074 409.874,378.082L400.055,390.977L388.925,377.595C371.65,358.587 336.611,321.356 303.19,319.376C263.856,317.045 221.281,356.707 188.706,395.674C137.756,456.623 99.44,538.325 99.44,538.325C99.44,538.325 106.527,518.308 108.161,514.062C108.989,511.911 131.135,462.827 134.717,450.368C138.298,437.91 178.037,352.393 179.651,337.603C181.265,322.813 198.93,194.631 199.079,185.571C199.227,176.51 205.752,170.754 212.747,157.842C219.742,144.931 281.649,55.63 295.471,44.397C309.293,33.165 357.545,27.489 375.208,23.971C380.819,22.853 394.998,20.853 400.372,21.255Z"/>
            </clipPath>
            <g clip-path="url(#_clip2_assassin_hood)">
                <path d="M400.031,4.796C415.986,4.754 432.405,7.153 447.784,10.295C473.638,15.577 499.074,23.837 521.137,38.672C557.549,63.155 580.984,100.7 599.902,139.383C624.449,189.578 643.207,242.882 660.899,295.816C670.81,325.471 679.816,355.42 688.265,385.522C701.509,432.704 714.406,480.034 726.796,527.449C729.738,538.707 732.841,550.201 734.006,561.815C734.268,564.433 735.349,570.71 732.324,572.388C726.438,575.653 714.723,560.318 711.814,557.067C693.399,536.482 679.804,511.837 668.144,486.948C644.989,437.519 616.312,367.941 606.224,313.75C600.268,281.761 595.996,249.414 591.039,217.26C588.789,202.663 588.512,184.497 582.574,170.755C576.909,157.644 567.612,145.641 560.028,133.617C554.805,125.335 549.375,117.097 543.509,109.253C539.696,104.154 535.588,99.227 531.522,94.328C529.889,92.361 517.992,75.237 517.709,75.254C517.503,75.266 517.372,75.425 517.312,75.608C515.498,81.047 517.277,89.489 517.377,95.086C517.377,95.108 517.391,95.898 517.391,95.916C517.395,96.351 517.391,96.787 517.391,97.222L517.391,98.117C517.391,113.114 516.146,128.153 514.324,143.035C513.71,148.045 514.414,159.84 510.954,163.949C510.933,163.974 510.874,164.022 510.838,164.029C510.239,164.141 509.947,157.558 509.922,157.064C509.529,149.468 509.677,141.846 510.059,134.252C510.924,117.05 510.824,101.038 507.807,84.037C506.989,79.423 506.953,71.162 503.903,67.265C499.592,61.757 487.249,59.492 481.271,57.385C459.789,49.815 438.154,43.971 415.424,41.782C415.032,41.744 407.545,41.179 400.166,41.179C392.553,41.178 385.042,41.743 384.638,41.782C361.908,43.971 340.273,49.815 318.791,57.385C312.813,59.492 300.47,61.757 296.159,67.265C293.109,71.162 293.073,79.423 292.255,84.037C289.238,101.038 289.138,117.05 290.003,134.252C290.385,141.846 290.533,149.468 290.14,157.064C290.115,157.558 289.823,164.141 289.224,164.029C289.188,164.022 289.129,163.974 289.108,163.949C285.648,159.84 286.352,148.045 285.738,143.035C283.916,128.153 282.671,113.114 282.671,98.117L282.671,97.222C282.671,96.787 282.667,96.351 282.671,95.916C282.671,95.898 282.685,95.108 282.685,95.086C282.785,89.489 284.564,81.047 282.75,75.608C282.69,75.425 282.559,75.266 282.353,75.254C282.07,75.237 270.173,92.361 268.54,94.328C264.474,99.227 260.366,104.154 256.553,109.253C250.687,117.097 245.257,125.335 240.034,133.617C232.45,145.641 223.153,157.644 217.488,170.755C211.55,184.497 211.273,202.663 209.023,217.26C204.066,249.414 199.794,281.761 193.838,313.75C183.75,367.941 155.073,437.519 131.918,486.948C120.258,511.837 106.663,536.482 88.248,557.067C85.339,560.318 73.624,575.653 67.738,572.388C64.713,570.71 65.794,564.433 66.056,561.815C67.221,550.201 70.324,538.707 73.266,527.449C85.656,480.034 98.554,432.704 111.797,385.522C120.246,355.42 129.252,325.471 139.163,295.816C156.855,242.882 175.613,189.578 200.16,139.383C219.078,100.7 242.513,63.155 278.925,38.672C300.988,23.837 326.424,15.577 352.278,10.295C367.657,7.153 384.076,4.754 400.031,4.796Z" style="fill:white;"/>
                <path d="M399.787,376.652C403.857,371.906 428.286,343.956 440.636,334.298C454.151,323.729 474.66,307.747 502.775,308.583C530.89,309.418 561.352,331.006 585.682,357.323C610.013,383.641 640.272,418.989 673.425,478.602C689.954,508.323 712.963,564.272 718.172,578.701C723.381,593.13 738.167,629.586 733.576,656.655C728.985,683.725 711.519,703.586 696.588,718.36C681.657,733.134 619.884,766.16 616.964,767.98C614.045,769.8 588.055,790.012 585.964,804.177C556.164,838.039 572.638,798.215 572.638,798.215C572.638,798.215 583.324,776.598 632.021,748.109C681.904,718.926 693.312,718.308 710.535,688.017C727.757,657.727 735.419,633.803 706.461,567.275C677.504,500.747 664.914,478.172 629.548,422.218C594.181,366.263 547.314,334.647 532.7,326.907C518.085,319.167 490.258,311.485 456.432,335.674C425.522,357.778 403.186,386.202 399.679,390.928C399.679,390.928 374.637,357.778 343.727,335.674C309.901,311.485 282.074,319.167 267.459,326.907C252.844,334.647 205.978,366.263 170.611,422.218C135.244,478.172 122.655,500.747 93.697,567.275C64.74,633.803 72.402,657.727 89.624,688.017C106.847,718.308 118.236,715.231 166.725,746.674C208.71,773.9 218.364,789.6 218.364,789.6C218.364,789.6 258.181,846.926 217.5,813.402C207.976,786.69 186.114,769.8 183.195,767.98C180.275,766.16 118.502,733.134 103.571,718.36C88.639,703.586 71.173,683.725 66.583,656.655C61.992,629.586 76.778,593.13 81.987,578.701C87.196,564.272 109.808,508.099 126.733,478.602C143.659,449.105 190.146,383.641 214.476,357.323C238.807,331.006 269.269,309.418 297.384,308.583C325.499,307.747 346.007,323.729 359.523,334.298C371.873,343.956 395.718,371.906 399.787,376.652Z" style="fill:rgb(236,72,102);stroke:black;stroke-width:2.1px;"/>
            </g>
            <path id="main2" d="M400.372,19.15C394.764,18.787 380.481,20.78 374.798,21.911C362.399,24.381 334.97,27.918 314.873,33.678C305.953,36.234 298.453,39.268 294.146,42.768C280.244,54.066 217.937,143.855 210.901,156.842C207.422,163.263 204.058,167.903 201.547,172.066C198.813,176.599 197.059,180.629 196.979,185.536C196.831,194.585 179.175,322.604 177.563,337.375C177.088,341.728 173.202,352.311 167.962,365.345C155.47,396.418 135.211,441.047 132.698,449.788C129.126,462.214 107.027,511.163 106.201,513.308C104.564,517.563 97.461,537.624 97.461,537.624C97.087,538.68 97.607,539.843 98.643,540.268C99.679,540.693 100.866,540.23 101.342,539.217C101.342,539.217 139.53,457.775 190.318,397.021C209.717,373.815 232.673,350.344 256.38,335.793C271.903,326.265 287.728,320.563 303.066,321.472C316.083,322.243 329.332,328.56 341.646,336.983C360.447,349.844 377.054,367.656 387.34,378.973C387.34,378.973 398.441,392.319 398.441,392.319C398.85,392.811 399.461,393.09 400.1,393.076C400.74,393.062 401.338,392.758 401.726,392.249L411.49,379.427C428.548,360.66 460.42,326.352 496.212,321.047C507.31,319.401 519.771,322.397 533.794,329.873C555.388,341.386 580.527,363.448 609.837,395.959C662.808,454.716 698.166,539.067 698.166,539.067C698.613,540.132 699.836,540.637 700.904,540.196C701.972,539.755 702.483,538.534 702.048,537.464C702.048,537.464 699.272,530.63 692.705,513.657C691.876,511.513 670.322,462.213 666.75,449.788C664.237,441.047 643.978,396.418 631.487,365.345C626.247,352.311 622.36,341.728 621.885,337.375C620.274,322.604 602.618,194.585 602.47,185.536C602.389,180.629 600.635,176.599 597.901,172.066C595.391,167.903 592.026,163.263 588.548,156.842C581.512,143.855 519.205,54.066 505.302,42.768C500.996,39.268 493.495,36.234 484.576,33.678C464.479,27.918 437.05,24.381 424.651,21.911C418.961,20.778 405.964,18.787 400.372,19.15ZM400.372,21.255C405.747,20.853 418.629,22.853 424.241,23.971C441.903,27.489 490.156,33.165 503.978,44.397C517.8,55.63 579.706,144.931 586.701,157.842C593.696,170.754 600.221,176.51 600.37,185.571C600.518,194.631 618.184,322.813 619.798,337.603C621.411,352.393 661.151,437.91 664.732,450.368C668.313,462.827 689.915,512.265 690.747,514.414C697.322,531.412 700.103,538.255 700.103,538.255C700.103,538.255 664.59,453.556 611.397,394.553C562.196,339.978 524.595,314.716 495.904,318.969C459.581,324.354 427.15,359.074 409.874,378.082L400.055,390.977L388.925,377.595C371.65,358.587 336.611,321.356 303.19,319.376C263.856,317.045 221.281,356.707 188.706,395.674C137.756,456.623 99.44,538.325 99.44,538.325C99.44,538.325 106.527,518.308 108.161,514.062C108.989,511.911 131.135,462.827 134.717,450.368C138.298,437.91 178.037,352.393 179.651,337.603C181.265,322.813 198.93,194.631 199.079,185.571C199.227,176.51 205.752,170.754 212.747,157.842C219.742,144.931 281.649,55.63 295.471,44.397C309.293,33.165 357.545,27.489 375.208,23.971C380.819,22.853 394.998,20.853 400.372,21.255Z"/>
        </g>
        <g transform="matrix(0.941187,0,0,0.941187,23.53,41.4491)">
            <path d="M399.787,376.652C403.857,371.906 428.286,343.956 440.636,334.298C454.151,323.729 474.66,307.747 502.775,308.583C530.89,309.418 561.352,331.006 585.682,357.323C596.871,369.426 613.671,388.65 629.327,409.913C649.603,437.45 664.283,462.67 673.425,478.602C690.351,508.099 712.963,564.272 718.172,578.701C723.381,593.13 738.167,629.586 733.576,656.655C728.985,683.725 711.519,703.586 696.588,718.36C681.657,733.134 619.884,766.16 616.964,767.98C614.045,769.8 588.055,790.012 585.964,804.177C556.164,838.039 572.638,798.215 572.638,798.215C572.638,798.215 583.324,776.598 632.021,748.109C681.904,718.926 693.312,718.308 710.535,688.017C727.757,657.727 735.419,633.803 706.461,567.275C677.504,500.747 664.914,478.172 629.548,422.218C594.181,366.263 547.314,334.647 532.7,326.907C518.085,319.167 490.258,311.485 456.432,335.674C425.522,357.778 403.186,386.202 399.679,390.928C399.679,390.928 374.637,357.778 343.727,335.674C309.901,311.485 282.074,319.167 267.459,326.907C252.844,334.647 205.978,366.263 170.611,422.218C135.244,478.172 122.655,500.747 93.697,567.275C64.74,633.803 72.402,657.727 89.624,688.017C106.847,718.308 118.236,715.231 166.725,746.674C208.71,773.9 218.364,789.6 218.364,789.6C218.364,789.6 258.181,846.926 217.5,813.402C207.976,786.69 186.114,769.8 183.195,767.98C180.275,766.16 118.502,733.134 103.571,718.36C88.639,703.586 71.173,683.725 66.583,656.655C61.992,629.586 76.778,593.13 81.987,578.701C87.196,564.272 109.808,508.099 126.733,478.602C143.659,449.105 190.146,383.641 214.476,357.323C238.807,331.006 269.269,309.418 297.384,308.583C325.499,307.747 346.007,323.729 359.523,334.298C371.873,343.956 395.718,371.906 399.787,376.652Z" style="fill:rgb(236,72,102);stroke:black;stroke-width:2.1px;"/>
        </g>
    </g>
    <g transform="matrix(1.00768,0,0,1.00768,-3.07374,-0.851312)"  style="fill-rule:evenodd;clip-rule:evenodd;stroke-linecap:round;stroke-linejoin:round;stroke-miterlimit:1.5;">
        <g id="accessories-front">
            <g id="just-hood-front">
                <path id="shadow" d="M400.436,321.557C402.52,316.064 405.101,310.781 408.284,305.847C433.999,265.98 487.923,266.739 525.435,285.342C601.752,323.19 628.375,406.381 614.848,396.892C580.979,373.133 539.668,378.061 496.691,382.22C474.644,384.353 453.5,390.572 434.741,402.493C421.199,411.099 400.446,429.386 400.446,429.386L400.436,429.376L400.426,429.386C400.426,429.386 379.672,411.099 366.13,402.493C347.372,390.572 326.228,384.353 304.18,382.22C261.203,378.061 211.708,381.187 177.839,404.946C164.312,414.435 199.119,323.19 275.436,285.342C312.948,266.739 366.872,265.98 392.587,305.847C395.77,310.781 398.352,316.064 400.436,321.557Z" style="fill:rgb(56,25,57);fill-opacity:0.5;"/>
                <g id="hood1">
                    <path id="main3" d="M400.372,21.255C405.747,20.853 418.629,22.853 424.241,23.971C441.903,27.489 490.156,33.165 503.978,44.397C517.8,55.63 579.706,144.931 586.701,157.842C593.696,170.754 600.221,176.51 600.37,185.571C600.518,194.631 618.184,322.813 619.798,337.603C621.411,352.393 626.73,409.948 611.397,394.553C559.543,342.491 524.595,314.716 495.904,318.969C459.581,324.354 427.15,359.074 409.874,378.082L400.055,390.977L388.925,377.595C371.65,358.587 336.611,321.356 303.19,319.376C263.856,317.045 222.679,357.92 188.706,395.674C166.272,420.606 170.739,399.12 172.138,385.929C173.506,373.038 178.037,352.393 179.651,337.603C181.265,322.813 198.93,194.631 199.079,185.571C199.227,176.51 205.752,170.754 212.747,157.842C219.742,144.931 281.649,55.63 295.471,44.397C309.293,33.165 357.545,27.489 375.208,23.971C380.819,22.853 394.998,20.853 400.372,21.255Z" style="fill:rgb(231,231,231);"/>
                    <clipPath id="_clip3_assassin_hood">
                        <path id="main4" d="M400.372,21.255C405.747,20.853 418.629,22.853 424.241,23.971C441.903,27.489 490.156,33.165 503.978,44.397C517.8,55.63 579.706,144.931 586.701,157.842C593.696,170.754 600.221,176.51 600.37,185.571C600.518,194.631 618.184,322.813 619.798,337.603C621.411,352.393 626.73,409.948 611.397,394.553C559.543,342.491 524.595,314.716 495.904,318.969C459.581,324.354 427.15,359.074 409.874,378.082L400.055,390.977L388.925,377.595C371.65,358.587 336.611,321.356 303.19,319.376C263.856,317.045 222.679,357.92 188.706,395.674C166.272,420.606 170.739,399.12 172.138,385.929C173.506,373.038 178.037,352.393 179.651,337.603C181.265,322.813 198.93,194.631 199.079,185.571C199.227,176.51 205.752,170.754 212.747,157.842C219.742,144.931 281.649,55.63 295.471,44.397C309.293,33.165 357.545,27.489 375.208,23.971C380.819,22.853 394.998,20.853 400.372,21.255Z"/>
                    </clipPath>
                    <g clip-path="url(#_clip3_assassin_hood)">
                        <path d="M199.858,373.716C200.205,373.801 200.671,369.513 200.771,368.833C201.57,363.394 202.142,357.926 202.852,352.476C204.685,338.402 206.925,324.37 208.88,310.312C212.736,282.578 237.437,265.495 258.929,250.889C264.611,247.027 270.485,243.271 276.69,240.296C277.415,239.949 281.3,237.619 282.125,238.077C282.728,238.412 282.302,241.898 282.302,242.447C282.302,246.999 282.508,251.548 282.425,256.101C282.315,262.145 282.388,268.173 281.541,274.172C281.4,275.171 280.752,279.808 280.752,279.808C280.752,279.808 272.284,284.092 268.679,285.932C261.367,289.663 254.071,294.178 247.76,299.46C245.359,301.47 239.594,308.184 239.715,308.666C239.817,309.076 242.092,307.02 242.759,306.557C244.815,305.129 246.943,303.799 249.088,302.512C257.186,297.653 264.126,292.458 272.55,288.176C274.564,287.152 279.861,285.233 279.978,285.38C280.104,285.537 278.839,293.761 277.683,295.8C276.819,297.325 273.364,299.305 269.668,301.532C262.216,306.024 254.634,311.1 248.088,316.855C244.455,320.049 241.184,323.578 239.356,328.127C237.438,332.901 237.058,338.242 234.157,342.58C225.993,354.79 213.967,364.676 204.664,376.067L199.858,373.716ZM600.204,373.716C599.857,373.801 599.391,369.513 599.291,368.833C598.492,363.394 597.921,357.926 597.21,352.476C595.377,338.402 593.137,324.37 591.182,310.312C587.326,282.578 562.625,265.495 541.133,250.889C535.451,247.027 529.577,243.271 523.372,240.296C522.647,239.949 518.762,237.619 517.938,238.077C517.335,238.412 517.76,241.898 517.76,242.447C517.76,246.999 517.554,251.548 517.637,256.101C517.747,262.145 517.674,268.173 518.521,274.172C518.662,275.171 519.31,279.808 519.31,279.808C519.31,279.808 527.778,284.092 531.383,285.932C538.695,289.663 545.991,294.178 552.302,299.46C554.703,301.47 560.468,308.184 560.347,308.666C560.245,309.076 557.97,307.02 557.303,306.557C555.247,305.129 553.119,303.799 550.974,302.512C542.876,297.653 535.936,292.458 527.512,288.176C525.498,287.152 520.201,285.233 520.084,285.38C519.958,285.537 521.223,293.761 522.379,295.8C523.243,297.325 526.698,299.305 530.394,301.532C537.846,306.024 545.428,311.1 551.974,316.855C555.607,320.049 558.878,323.578 560.706,328.127C562.624,332.901 563.004,338.242 565.905,342.58C574.069,354.79 586.095,364.676 595.398,376.067L600.204,373.716ZM221.048,236.123C221.211,232.246 223.187,227.787 223.984,223.979C229.057,199.744 244.407,177.119 257.187,156.206C261.04,149.9 265.635,144.057 270.958,138.926C271.497,138.406 275.219,134.188 276.047,134.529C276.482,134.708 276.373,137.394 276.413,137.805C276.752,141.296 277.151,144.778 277.522,148.264C277.968,152.446 278.478,156.595 279.206,160.737C279.558,162.739 279.392,166.413 279.392,166.413C279.392,166.413 270.357,181.307 266.686,188.708C265.78,190.535 263.253,194.377 263.456,196.512C263.473,196.69 266.721,192.758 267.594,191.619C270.619,187.674 273.6,183.697 276.759,179.858C276.991,179.577 281.967,174.748 281.967,174.748C281.967,174.748 281.958,178.483 281.944,179.913C281.904,184.001 282.058,188.089 282.058,192.178C282.058,198.413 282.914,216.977 282.914,216.977C282.914,216.977 269.433,225.926 265.281,228.859C253.353,237.283 242.536,248.05 232.992,259.101C225.758,267.478 219.117,276.553 212.707,285.577C211.231,287.656 207.654,294.054 207.35,293.971C206.952,293.863 211.78,277.561 213.183,271.92C214.451,266.821 214.727,260.851 216.664,255.962C220.362,246.629 227.982,237.444 233.696,229.25C236.598,225.089 240.466,219.479 243.502,215.415C243.871,214.921 239.066,217.714 238.667,217.998C231.97,222.761 221.048,236.123 221.048,236.123ZM579.014,236.123C578.851,232.246 576.875,227.787 576.078,223.979C571.005,199.744 555.656,177.119 542.876,156.206C539.022,149.9 534.427,144.057 529.104,138.926C528.565,138.406 524.843,134.188 524.015,134.529C523.58,134.708 523.689,137.394 523.649,137.805C523.31,141.296 522.911,144.778 522.54,148.264C522.094,152.446 521.584,156.595 520.856,160.737C520.504,162.739 520.67,166.413 520.67,166.413C520.67,166.413 529.705,181.307 533.376,188.708C534.282,190.535 536.809,194.377 536.606,196.512C536.589,196.69 533.341,192.758 532.468,191.619C529.443,187.674 526.462,183.697 523.303,179.858C523.071,179.577 518.095,174.748 518.095,174.748C518.095,174.748 518.104,178.483 518.118,179.913C518.158,184.001 518.004,188.089 518.004,192.178C518.004,198.413 517.148,216.977 517.148,216.977C517.148,216.977 530.629,225.926 534.781,228.859C546.709,237.283 557.526,248.05 567.07,259.101C574.305,267.478 580.945,276.553 587.355,285.577C588.831,287.656 592.408,294.054 592.712,293.971C593.11,293.863 588.282,277.561 586.879,271.92C585.611,266.821 585.335,260.851 583.398,255.962C579.7,246.629 572.08,237.444 566.366,229.25C563.464,225.089 559.596,219.479 556.56,215.415C556.191,214.921 560.996,217.714 561.395,217.998C568.092,222.761 579.014,236.123 579.014,236.123ZM274.987,93.914C274.853,95.051 267.371,104.968 264.905,108.682C257.638,119.629 251.843,132.02 247.044,144.227C244.187,151.495 241.307,158.848 238.988,166.31C238.227,168.761 236.039,177.582 236.039,177.582C236.039,177.582 240.035,170.322 240.342,169.83C245.516,161.552 251.084,154.942 258.497,146.702C265.425,139.001 275.449,130.888 275.449,130.888C274.102,119.187 273.998,106.836 274.987,93.914ZM525.075,93.914C525.209,95.051 532.691,104.968 535.157,108.682C542.424,119.629 548.219,132.02 553.018,144.227C555.875,151.495 558.755,158.848 561.074,166.31C561.835,168.761 564.024,177.582 564.024,177.582C564.024,177.582 560.027,170.322 559.72,169.83C554.546,161.552 548.978,154.942 541.565,146.702C534.637,139.001 524.613,130.888 524.613,130.888C525.96,119.187 526.064,106.836 525.075,93.914Z" style="fill:rgb(173,144,174);"/>
                        <path d="M400.031,4.796C415.986,4.754 432.405,7.153 447.784,10.295C473.638,15.577 499.074,23.837 521.137,38.672C557.549,63.155 580.984,100.7 599.902,139.383C624.449,189.578 643.207,242.882 660.899,295.816C670.81,325.471 679.816,355.42 688.265,385.522C701.509,432.704 714.406,480.034 726.796,527.449C729.738,538.707 732.841,550.201 734.006,561.815C734.268,564.433 735.349,570.71 732.324,572.388C726.438,575.653 714.723,560.318 711.814,557.067C693.399,536.482 679.804,511.837 668.144,486.948C644.989,437.519 616.312,367.941 606.224,313.75C600.268,281.761 595.996,249.414 591.039,217.26C588.789,202.663 588.512,184.497 582.574,170.755C576.909,157.644 567.612,145.641 560.028,133.617C554.805,125.335 549.375,117.097 543.509,109.253C539.696,104.154 535.588,99.227 531.522,94.328C529.889,92.361 517.992,75.237 517.709,75.254C517.503,75.266 517.372,75.425 517.312,75.608C515.498,81.047 517.277,89.489 517.377,95.086C517.377,95.108 517.391,95.898 517.391,95.916C517.395,96.351 517.391,96.787 517.391,97.222L517.391,98.117C517.391,113.114 516.146,128.153 514.324,143.035C513.71,148.045 514.414,159.84 510.954,163.949C510.933,163.974 510.874,164.022 510.838,164.029C510.239,164.141 509.947,157.558 509.922,157.064C509.529,149.468 509.677,141.846 510.059,134.252C510.924,117.05 510.824,101.038 507.807,84.037C506.989,79.423 506.953,71.162 503.903,67.265C499.592,61.757 487.249,59.492 481.271,57.385C459.789,49.815 438.154,43.971 415.424,41.782C415.032,41.744 407.545,41.179 400.166,41.179C392.553,41.178 385.042,41.743 384.638,41.782C361.908,43.971 340.273,49.815 318.791,57.385C312.813,59.492 300.47,61.757 296.159,67.265C293.109,71.162 293.073,79.423 292.255,84.037C289.238,101.038 289.138,117.05 290.003,134.252C290.385,141.846 290.533,149.468 290.14,157.064C290.115,157.558 289.823,164.141 289.224,164.029C289.188,164.022 289.129,163.974 289.108,163.949C285.648,159.84 286.352,148.045 285.738,143.035C283.916,128.153 282.671,113.114 282.671,98.117L282.671,97.222C282.671,96.787 282.667,96.351 282.671,95.916C282.671,95.898 282.685,95.108 282.685,95.086C282.785,89.489 284.564,81.047 282.75,75.608C282.69,75.425 282.559,75.266 282.353,75.254C282.07,75.237 270.173,92.361 268.54,94.328C264.474,99.227 260.366,104.154 256.553,109.253C250.687,117.097 245.257,125.335 240.034,133.617C232.45,145.641 223.153,157.644 217.488,170.755C211.55,184.497 211.273,202.663 209.023,217.26C204.066,249.414 199.794,281.761 193.838,313.75C183.75,367.941 155.073,437.519 131.918,486.948C120.258,511.837 106.663,536.482 88.248,557.067C85.339,560.318 73.624,575.653 67.738,572.388C64.713,570.71 65.794,564.433 66.056,561.815C67.221,550.201 70.324,538.707 73.266,527.449C85.656,480.034 98.554,432.704 111.797,385.522C120.246,355.42 129.252,325.471 139.163,295.816C156.855,242.882 175.613,189.578 200.16,139.383C219.078,100.7 242.513,63.155 278.925,38.672C300.988,23.837 326.424,15.577 352.278,10.295C367.657,7.153 384.076,4.754 400.031,4.796Z" style="fill:white;"/>
                        <g id="lines">
                            <path d="M290.374,50.768C289.351,50.666 287.238,62.051 287.044,62.972C284.293,76.067 284.419,89.428 282.891,102.672" style="fill:none;stroke:black;stroke-width:2.1px;"/>
                            <g transform="matrix(-1,0,0,1,800.391,0)">
                                <path d="M290.374,50.768C289.351,50.666 287.238,62.051 287.044,62.972C284.293,76.067 284.419,89.428 282.891,102.672" style="fill:none;stroke:black;stroke-width:2.1px;"/>
                            </g>
                            <path d="M283.683,122.354C283.878,122.419 284.159,126.881 284.226,127.334C285.04,132.831 285.902,138.311 286.904,143.777C291.458,168.618 289.495,193.418 289.495,218.484" style="fill:none;stroke:black;stroke-width:2.1px;"/>
                            <g transform="matrix(-1,0,0,1,800.129,0)">
                                <path d="M283.683,122.354C283.878,122.419 284.159,126.881 284.226,127.334C285.04,132.831 285.902,138.311 286.904,143.777C291.458,168.618 289.495,193.418 289.495,218.484" style="fill:none;stroke:black;stroke-width:2.1px;"/>
                            </g>
                            <path d="M304.001,113.979C303.994,113.935 300.136,116.507 299.9,116.684C297.279,118.659 294.748,120.747 292.092,122.677C284.24,128.381 275.971,133.39 268.837,140.038C256.816,151.241 248.861,167.283 241.241,181.584C232.108,198.727 222.559,215.745 213.979,233.173" style="fill:none;stroke:black;stroke-width:2.1px;"/>
                            <g transform="matrix(-1,0,0,1,800.129,0)">
                                <path d="M304.001,113.979C303.994,113.935 300.136,116.507 299.9,116.684C297.279,118.659 294.748,120.747 292.092,122.677C284.24,128.381 275.971,133.39 268.837,140.038C256.816,151.241 248.861,167.283 241.241,181.584C232.108,198.727 222.559,215.745 213.979,233.173" style="fill:none;stroke:black;stroke-width:2.1px;"/>
                            </g>
                            <path d="M306.848,152.46C306.842,152.442 302.932,155.285 302.714,155.46C300.037,157.622 297.407,159.841 294.806,162.093C282.854,172.442 271.826,182.64 263.983,196.532" style="fill:none;stroke:black;stroke-width:2.1px;"/>
                            <g transform="matrix(-1,0,0,1,800.129,0)">
                                <path d="M306.848,152.46C306.842,152.442 302.932,155.285 302.714,155.46C300.037,157.622 297.407,159.841 294.806,162.093C282.854,172.442 271.826,182.64 263.983,196.532" style="fill:none;stroke:black;stroke-width:2.1px;"/>
                            </g>
                            <path d="M256.984,233.32C256.615,233.121 252.15,238.382 251.831,238.721C246.058,244.871 240.292,251.019 234.546,257.192C209.37,284.239 193.816,315.637 175.978,347.598" style="fill:none;stroke:black;stroke-width:2.1px;"/>
                            <g transform="matrix(-1,0,0,1,800.129,0)">
                                <path d="M256.984,233.32C256.615,233.121 252.15,238.382 251.831,238.721C246.058,244.871 240.292,251.019 234.546,257.192C209.37,284.239 193.816,315.637 175.978,347.598" style="fill:none;stroke:black;stroke-width:2.1px;"/>
                            </g>
                            <path d="M281.006,227.035C280.979,227 302.949,217.302 307.618,215.575C321.635,210.391 354.026,199.312 397.357,200.033C436.324,200.681 462.531,203.839 517.623,226.436" style="fill:none;stroke:black;stroke-width:2.1px;"/>
                        </g>
                        <path d="M400.098,279.679L373.525,308.661L393.973,329.71L371.975,349.951L399.333,379.492L427.08,348.71L405.744,330.016L426.048,308.802L400.098,279.679ZM399.767,333.82L383.791,349.518L399.683,366.869L416.671,349.206L399.767,333.82ZM400.137,288.892L382.636,307.79L399.579,325.492L416.587,308.389L400.137,288.892Z" style="fill:rgb(236,72,102);stroke:black;stroke-width:2.1px;"/>
                        <path d="M399.787,376.652C403.857,371.906 428.286,343.956 440.636,334.298C454.151,323.729 474.66,307.747 502.775,308.583C530.89,309.418 561.352,331.006 585.682,357.323C610.013,383.641 640.272,418.989 673.425,478.602C689.954,508.323 712.963,564.272 718.172,578.701C723.381,593.13 738.167,629.586 733.576,656.655C728.985,683.725 711.519,703.586 696.588,718.36C681.657,733.134 619.884,766.16 616.964,767.98C614.045,769.8 588.055,790.012 585.964,804.177C556.164,838.039 572.638,798.215 572.638,798.215C572.638,798.215 583.324,776.598 632.021,748.109C681.904,718.926 693.312,718.308 710.535,688.017C727.757,657.727 735.419,633.803 706.461,567.275C677.504,500.747 664.914,478.172 629.548,422.218C594.181,366.263 547.314,334.647 532.7,326.907C518.085,319.167 490.258,311.485 456.432,335.674C425.522,357.778 403.186,386.202 399.679,390.928C399.679,390.928 374.637,357.778 343.727,335.674C309.901,311.485 282.074,319.167 267.459,326.907C252.844,334.647 205.978,366.263 170.611,422.218C135.244,478.172 122.655,500.747 93.697,567.275C64.74,633.803 72.402,657.727 89.624,688.017C106.847,718.308 118.236,715.231 166.725,746.674C208.71,773.9 218.364,789.6 218.364,789.6C218.364,789.6 258.181,846.926 217.5,813.402C207.976,786.69 186.114,769.8 183.195,767.98C180.275,766.16 118.502,733.134 103.571,718.36C88.639,703.586 71.173,683.725 66.583,656.655C61.992,629.586 76.778,593.13 81.987,578.701C87.196,564.272 109.808,508.099 126.733,478.602C143.659,449.105 190.146,383.641 214.476,357.323C238.807,331.006 269.269,309.418 297.384,308.583C325.499,307.747 346.007,323.729 359.523,334.298C371.873,343.956 395.718,371.906 399.787,376.652Z" style="fill:rgb(236,72,102);stroke:black;stroke-width:2.1px;"/>
                    </g>
                    <g id="red-strip-front">
                        <g transform="matrix(0.992376,0,0,0.992376,3.05031,0.844821)">
                            <path d="M161.994,424.353C183.338,393.231 189.779,385.908 212.995,359.217C236.698,331.967 268.209,310.944 296.54,310.102C324.871,309.26 345.537,325.364 359.156,336.015C371.356,345.556 395.253,372.809 400.052,378.385C404.851,372.809 428.747,345.556 440.948,336.015C454.567,325.364 475.233,309.26 503.564,310.102C531.895,310.944 562.591,332.698 587.108,359.217C611.626,385.737 615.202,389.656 635.655,418.012C636.953,419.812 631.519,423.452 629.611,420.842C590.254,366.987 548.446,336.367 533.719,328.567C518.992,320.767 490.951,313.027 456.865,337.402C427.897,358.116 406.403,384.339 400.693,391.74C400.534,392.571 400.428,393.08 400.428,393.08C400.32,392.934 400.195,392.767 400.052,392.578C399.909,392.767 399.784,392.934 399.676,393.08C399.676,393.08 399.57,392.571 399.411,391.74C393.7,384.339 372.206,358.116 343.239,337.402C309.153,313.027 281.112,320.767 266.385,328.567C251.658,336.367 204.431,368.226 168.793,424.61" style="fill:rgb(236,72,102);"/>
                        </g>
                        <g transform="matrix(0.992376,0,0,0.992376,3.05031,0.844821)">
                            <path d="M162.429,424.16C180.567,398.867 188.478,385.737 212.995,359.217C237.513,332.698 268.209,310.944 296.54,310.102C324.871,309.26 345.537,325.364 359.156,336.015C371.356,345.556 395.253,372.809 400.052,378.385C404.851,372.809 428.747,345.556 440.948,336.015C454.567,325.364 475.233,309.26 503.564,310.102C531.895,310.944 562.591,332.698 587.108,359.217C611.626,385.737 618.498,393.56 638.754,422.818" style="fill:none;stroke:black;stroke-width:2.1px;"/>
                        </g>
                        <g transform="matrix(0.992376,0,0,0.992376,3.05031,0.844821)">
                            <path d="M631.727,425.184C595.558,369.139 548.446,336.367 533.719,328.567C518.992,320.767 490.951,313.027 456.865,337.402C427.897,358.116 406.403,384.339 400.693,391.74C400.534,392.571 400.428,393.08 400.428,393.08C400.32,392.934 400.195,392.767 400.052,392.578C399.909,392.767 399.784,392.934 399.676,393.08C399.676,393.08 399.57,392.571 399.411,391.74C393.7,384.339 372.206,358.116 343.239,337.402C309.153,313.027 281.112,320.767 266.385,328.567C251.658,336.367 204.593,368.329 168.793,424.61" style="fill:none;stroke:black;stroke-width:2.1px;"/>
                        </g>
                    </g>
                </g>
            </g>
        </g>
    </g>
</svg>