<?xml version="1.0" encoding="UTF-8" standalone="no"?>
<!DOCTYPE svg PUBLIC "-//W3C//DTD SVG 1.1//EN" "http://www.w3.org/Graphics/SVG/1.1/DTD/svg11.dtd">
<svg width="100%" height="100%" viewBox="0 0 800 800" version="1.1" xmlns="http://www.w3.org/2000/svg">
  <g id="monocle" style="fill-rule: evenodd; clip-rule: evenodd; stroke-linecap: round; stroke-linejoin: round; stroke-miterlimit: 1.5">
    <path
      id="shadow"
      d="M372.396,377.383C372.401,377.261 374.466,376.367 374.638,376.262C376.399,375.181 377.61,373.67 378.514,371.826C380.753,367.263 382.189,362.224 385.355,358.164C390.8,351.18 399.754,348.057 407.729,352.359C413.875,355.675 417.837,360.794 420.505,367.196C421.807,370.32 422.353,374.193 424.351,376.971C425.024,377.907 425.963,378.74 427.184,378.506C427.439,378.457 429.269,377.581 429.327,377.638C430.148,378.46 430.683,380.392 431.38,381.401C433.633,384.663 436.007,387.929 438.593,390.934C446.879,400.564 458.818,407.636 471.067,410.88C487.118,415.132 503.688,410.251 516.379,400.065C520.644,396.642 524.697,392.783 527.788,388.239C528.816,386.727 529.756,385.145 530.552,383.498C530.81,382.964 531.717,380.978 531.749,381.021C532.218,381.646 531.155,395.201 531.026,399.851C530.81,407.617 530.492,414.368 530.516,421.333C530.55,431.176 530.851,440.361 530.929,450.21C530.986,457.328 531.049,464.334 531.963,471.406C532.262,473.716 532.57,476.025 532.909,478.329C532.945,478.576 533.502,482.007 533.908,481.383C534.653,480.239 534.728,478.389 534.943,477.091C535.47,473.913 535.923,470.721 536.393,467.535C538.158,455.582 539.337,443.588 540.055,431.528C541.223,411.903 541.542,391.986 540.803,372.335C540.562,365.91 541.678,355.846 536.009,351.335C532.18,348.288 528.219,371.797 525.381,375.631C505.81,402.073 492.839,401.465 473.311,401.868C460.518,402.132 450.536,391.961 443.711,384.757C438.056,378.788 431.085,358.564 428.267,355.752C421.306,348.804 413.654,344.836 405.013,343.098C395.155,341.115 380.862,347.301 375.966,356.123C373.479,360.604 373.146,366.362 372.318,371.327"
      style="fill: rgb(56, 25, 57); fill-opacity: 0.5"
    />
    <g id="main">
      <g id="thread">
        <path
          d="M537.835,353.962C537.745,353.941 537.477,359.589 537.467,359.927C537.341,363.901 536.997,368.978 536.723,372.942C535.902,384.802 535.893,395.998 535.489,407.893C534.316,442.428 532.875,475.58 530.264,510.026C527.962,540.404 527.359,568.559 525.638,598.377C523.594,633.808 521.332,668.132 524.85,703.578C526.352,718.711 530.115,739.418 537.267,753.077C540.049,758.39 545.537,761.38 552.303,761.044C559.9,760.668 561.417,754.783 562.694,748.253C565.682,732.972 562.697,713.52 561.523,698.16C556.578,633.446 547.439,573.44 545.262,508.538C544.056,472.572 543.987,438.372 544.366,402.43C544.515,388.323 543.424,372.634 543.329,358.414C543.315,356.413 543.471,346.247 541.507,347.204L537.835,353.962ZM539.163,484.963C539.143,485.645 538.814,489.36 538.796,489.576C538.364,494.704 537.885,499.828 537.419,504.953C536.203,518.299 534.959,531.773 534.851,545.171C534.414,599.128 526.373,651.092 530.291,705.206C531.193,717.651 534.596,734.364 540.161,745.659C542.246,749.892 544.288,754.457 549.598,754.841C555.731,755.286 556.568,746.539 556.929,742.207C558.146,727.565 555.86,711.905 554.764,697.31C550.141,635.766 542.749,574.276 540.249,512.596L539.163,484.963C539.165,484.894 539.163,484.856 539.158,484.856L539.163,484.963Z"
          style="fill: rgb(206, 81, 103)"
        />
        <clipPath id="Monocle_0">
          <path
            d="M537.835,353.962C537.745,353.941 537.477,359.589 537.467,359.927C537.341,363.901 536.997,368.978 536.723,372.942C535.902,384.802 535.893,395.998 535.489,407.893C534.316,442.428 532.875,475.58 530.264,510.026C527.962,540.404 527.359,568.559 525.638,598.377C523.594,633.808 521.332,668.132 524.85,703.578C526.352,718.711 530.115,739.418 537.267,753.077C540.049,758.39 545.537,761.38 552.303,761.044C559.9,760.668 561.417,754.783 562.694,748.253C565.682,732.972 562.697,713.52 561.523,698.16C556.578,633.446 547.439,573.44 545.262,508.538C544.056,472.572 543.987,438.372 544.366,402.43C544.515,388.323 543.424,372.634 543.329,358.414C543.315,356.413 543.471,346.247 541.507,347.204L537.835,353.962ZM539.163,484.963C539.143,485.645 538.814,489.36 538.796,489.576C538.364,494.704 537.885,499.828 537.419,504.953C536.203,518.299 534.959,531.773 534.851,545.171C534.414,599.128 526.373,651.092 530.291,705.206C531.193,717.651 534.596,734.364 540.161,745.659C542.246,749.892 544.288,754.457 549.598,754.841C555.731,755.286 556.568,746.539 556.929,742.207C558.146,727.565 555.86,711.905 554.764,697.31C550.141,635.766 542.749,574.276 540.249,512.596L539.163,484.963C539.165,484.894 539.163,484.856 539.158,484.856L539.163,484.963Z"
          />
        </clipPath>
        <g clip-path="url(#Monocle_0)">
          <path d="M541.245,352.82C541.245,352.82 540.167,403.64 539.545,418.943C538.922,434.246 539.566,486.043 539.566,486.043" style="fill: none; stroke: black; stroke-width: 2.1px" />
          <path
            d="M528.182,688.761C527.897,689.02 527.151,689.456 526.856,689.712C525.938,690.512 525.079,691.364 524.885,692.629C524.342,696.154 525.381,700.346 525.519,703.903C525.554,704.806 525.194,707.292 526.107,707.892C527.154,708.579 529.108,705.381 529.378,704.59C530.154,702.318 529.191,698.674 529.002,696.352L528.182,688.761C528.323,688.633 528.351,688.548 528.159,688.548L528.182,688.761ZM558.169,670.728C558.162,670.786 557.208,671.704 557.126,671.81C556.596,672.498 556.431,673.412 556.304,674.246C555.727,678.026 556.382,681.753 556.821,685.514C556.906,686.24 556.735,688.66 557.533,689.093C558.556,689.648 559.422,687.267 559.544,686.719C560.241,683.58 559.734,680.433 559.261,677.304L558.169,670.728C558.169,670.727 558.169,670.726 558.169,670.726L558.169,670.728ZM532.682,582.42C530.031,582.602 529.018,586.647 529.018,588.611C529.018,589.003 528.778,591.426 529.449,591.426C530.477,591.426 531.931,588.738 532.494,588.025C533.299,587.006 533.567,586.217 533.628,584.913L532.682,582.42ZM548.108,565.149C545.676,567.424 545.193,571.496 545.387,574.564C545.421,575.103 545.271,577.425 545.76,577.744C546.121,577.98 546.962,576.034 547.067,575.824C548.131,573.696 548.951,571.412 548.907,568.998L548.108,565.149ZM534.077,555.873C533.803,556.046 532.89,556.184 532.573,556.448C531.813,557.078 531.386,558.206 531.104,559.117C530.009,562.657 530.689,567.052 530.568,570.728C530.555,571.124 530.143,574.21 530.656,574.354C531.429,574.571 532.819,571.819 533.057,571.321C534.831,567.61 534.074,562.808 534.244,558.822L534.077,555.873C534.176,555.81 534.192,555.743 534.065,555.664L534.077,555.873ZM545.399,532.954C545.322,533.135 545.137,533.505 545.057,533.668C544.804,534.182 544.569,534.704 544.336,535.227C543.651,536.768 543.258,538.324 542.995,539.989C542.142,545.411 543.484,551.203 543.837,556.646C543.86,557.007 543.87,561.845 544.12,561.886C544.577,561.963 545.928,558.147 546.11,557.75C548.489,552.565 546.66,546.299 546.273,540.768L545.399,532.954C545.442,532.854 545.451,532.812 545.392,532.893L545.399,532.954ZM538.732,415.596C538.48,416.992 537.277,418.57 536.798,419.961C535.948,422.43 535.732,425.088 535.552,427.678C535.487,428.604 535.016,430.9 535.508,431.732C535.606,431.898 536.162,430.756 536.201,430.675C536.577,429.895 536.972,429.121 537.288,428.314C538.218,425.941 538.704,423.251 538.864,420.714L538.732,415.596ZM543.195,406.771C542.784,406.937 542.246,408.858 542.077,409.25C540.984,411.787 540.651,414.446 540.698,417.185C540.706,417.64 540.506,419.29 540.877,419.643C541.123,419.876 541.873,419 541.999,418.864C543.063,417.719 543.715,416.71 543.858,415.089C543.961,413.923 543.878,412.744 543.863,411.576L543.195,406.771ZM538.852,354.243C538.858,354.355 538.87,354.7 538.876,354.842C538.892,355.26 538.903,355.678 538.913,356.096C538.941,357.337 538.947,358.582 538.947,359.823C538.947,363.325 539.193,366.82 539.521,370.305C539.547,370.589 539.65,373.575 539.917,373.629C540.048,373.655 540.138,372.115 540.143,372.032C540.258,370.094 540.347,368.151 540.421,366.211C540.596,361.63 541.243,356.78 540.748,352.203L538.852,354.243ZM538.852,354.243L538.848,354.247C538.848,354.19 538.849,354.198 538.852,354.243Z"
            style="fill: rgb(219, 153, 165)"
          />
          <path
            d="M536.037,749.383C535.876,749.107 536.297,749.967 536.441,750.252C536.745,750.854 537.083,751.44 537.445,752.009C538.526,753.71 539.892,755.57 541.907,756.173C547.184,757.752 553.954,754.432 556.067,749.566C559.329,742.051 557.502,732.352 557.079,724.439C556.94,721.849 556.837,719.258 556.78,716.665C556.773,716.382 556.837,712.356 557.149,712.647C557.836,713.288 557.915,715.251 558.101,716.107C558.783,719.241 559.474,722.368 560.017,725.529C561.655,735.065 562.556,745.789 559.939,755.175C558.116,761.712 554.058,766.203 546.925,763.445C545.483,762.887 544.107,762.169 542.825,761.306C540.617,759.82 538.672,758.013 537.011,755.936"
            style="fill: rgb(103, 59, 90)"
          />
        </g>
        <path
          d="M537.835,353.962C537.745,353.941 537.477,359.589 537.467,359.927C537.341,363.901 536.997,368.978 536.723,372.942C535.902,384.802 535.893,395.998 535.489,407.893C534.316,442.428 532.875,475.58 530.264,510.026C527.962,540.404 527.359,568.559 525.638,598.377C523.594,633.808 521.332,668.132 524.85,703.578C526.352,718.711 530.115,739.418 537.267,753.077C540.049,758.39 545.537,761.38 552.303,761.044C559.9,760.668 561.417,754.783 562.694,748.253C565.682,732.972 562.697,713.52 561.523,698.16C556.578,633.446 547.439,573.44 545.262,508.538C544.056,472.572 543.987,438.372 544.366,402.43C544.515,388.323 543.424,372.634 543.329,358.414C543.315,356.413 543.471,346.247 541.507,347.204L537.835,353.962ZM539.163,484.963C539.143,485.645 538.814,489.36 538.796,489.576C538.364,494.704 537.885,499.828 537.419,504.953C536.203,518.299 534.959,531.773 534.851,545.171C534.414,599.128 526.373,651.092 530.291,705.206C531.193,717.651 534.596,734.364 540.161,745.659C542.246,749.892 544.288,754.457 549.598,754.841C555.731,755.286 556.568,746.539 556.929,742.207C558.146,727.565 555.86,711.905 554.764,697.31C550.141,635.766 542.749,574.276 540.249,512.596L539.163,484.963C539.165,484.894 539.163,484.856 539.158,484.856L539.163,484.963Z"
          style="fill: none; stroke: black; stroke-width: 2.1px"
        />
      </g>
      <g id="bits">
        <path
          d="M533.445,339.509C533.445,339.509 542.292,338.803 543.622,339.248C544.952,339.692 545.275,346.51 544.012,349.228C542.75,351.945 534.816,355.752 534.816,355.752L533.445,339.509Z"
          style="fill: rgb(211, 188, 186)"
        />
        <clipPath id="Monocle_1">
          <path d="M533.445,339.509C533.445,339.509 542.292,338.803 543.622,339.248C544.952,339.692 545.275,346.51 544.012,349.228C542.75,351.945 534.816,355.752 534.816,355.752L533.445,339.509Z" />
        </clipPath>
        <g clip-path="url(#Monocle_1)">
          <path
            d="M531.906,344.748C531.726,344.821 532.581,344.638 532.703,344.613C533.304,344.49 533.784,344.618 534.384,344.493C535.602,344.24 540.766,343.675 540.766,343.675C540.766,343.675 540.598,349.732 538.933,352.347C538.008,353.802 537.045,354.534 537.322,354.925C537.591,355.303 540.041,353.473 540.201,353.321C540.582,352.958 540.953,352.583 541.311,352.196C541.975,351.479 542.618,350.718 543.127,349.882C544.586,347.489 544.62,344.158 544.475,341.442C544.426,340.518 544.535,338.87 543.505,338.422C541.363,337.491 537.03,338.896 534.861,339.398C534.046,339.586 532.478,339.72 532.276,340.722"
            style="fill: white"
          />
        </g>
        <path
          d="M533.445,339.509C533.445,339.509 542.292,338.803 543.622,339.248C544.952,339.692 545.275,346.51 544.012,349.228C542.75,351.945 534.816,355.752 534.816,355.752L533.445,339.509Z"
          style="fill: none; stroke: black; stroke-width: 2.1px"
        />
        <path
          d="M399.716,339.22C399.99,339.215 400.258,339.216 400.516,339.225L400.514,339.252C402.92,339.398 405.714,339.971 407.776,340.621C412.554,342.127 414.799,343.92 418.774,346.702C419.817,347.432 419.73,347.752 420.807,348.545C421.312,348.917 422.059,348.635 423.324,349.83C423.672,350.159 424.298,349.169 424.959,348.778C425.965,348.181 426.636,347.73 427.716,348.523C429.021,349.481 429.724,353.456 429.988,354.879C431.069,360.701 430.662,365.521 431.32,371.513C431.603,374.081 429.14,378.893 427.789,378.021C426.515,377.199 425.136,375.503 424.655,374.297C422.923,369.952 423.098,367.68 422.496,363.081C422.34,361.885 422.151,359.25 422.151,359.25C422.151,359.25 420.035,358.721 419.088,357.152C417.766,354.963 415.878,352.985 414.166,351.652C409.711,348.182 405.567,345.311 399.716,345.224C393.864,345.311 389.72,348.182 385.265,351.652C383.554,352.985 381.666,354.963 380.344,357.152C379.397,358.721 377.281,359.25 377.281,359.25C377.281,359.25 377.092,361.885 376.936,363.081C376.333,367.68 376.508,369.952 374.777,374.297C374.296,375.503 372.917,377.199 371.642,378.021C370.292,378.893 369.027,374.07 369.309,371.502C369.967,365.511 369.852,361.086 370.933,355.265C371.197,353.841 371.388,350.141 372.344,349.157C373.277,348.195 373.782,348.307 374.473,348.778C375.108,349.21 375.76,350.159 376.108,349.83C377.373,348.635 378.12,348.917 378.625,348.545C379.702,347.752 379.615,347.432 380.658,346.702C384.633,343.92 386.877,342.127 391.655,340.621C393.718,339.971 396.512,339.398 398.917,339.252L398.916,339.225C399.174,339.216 399.441,339.215 399.716,339.22Z"
          style="fill: rgb(211, 188, 186)"
        />
        <clipPath id="Monocle_2">
          <path
            d="M399.716,339.22C399.99,339.215 400.258,339.216 400.516,339.225L400.514,339.252C402.92,339.398 405.714,339.971 407.776,340.621C412.554,342.127 414.799,343.92 418.774,346.702C419.817,347.432 419.73,347.752 420.807,348.545C421.312,348.917 422.059,348.635 423.324,349.83C423.672,350.159 424.298,349.169 424.959,348.778C425.965,348.181 426.636,347.73 427.716,348.523C429.021,349.481 429.724,353.456 429.988,354.879C431.069,360.701 430.662,365.521 431.32,371.513C431.603,374.081 429.14,378.893 427.789,378.021C426.515,377.199 425.136,375.503 424.655,374.297C422.923,369.952 423.098,367.68 422.496,363.081C422.34,361.885 422.151,359.25 422.151,359.25C422.151,359.25 420.035,358.721 419.088,357.152C417.766,354.963 415.878,352.985 414.166,351.652C409.711,348.182 405.567,345.311 399.716,345.224C393.864,345.311 389.72,348.182 385.265,351.652C383.554,352.985 381.666,354.963 380.344,357.152C379.397,358.721 377.281,359.25 377.281,359.25C377.281,359.25 377.092,361.885 376.936,363.081C376.333,367.68 376.508,369.952 374.777,374.297C374.296,375.503 372.917,377.199 371.642,378.021C370.292,378.893 369.027,374.07 369.309,371.502C369.967,365.511 369.852,361.086 370.933,355.265C371.197,353.841 371.388,350.141 372.344,349.157C373.277,348.195 373.782,348.307 374.473,348.778C375.108,349.21 375.76,350.159 376.108,349.83C377.373,348.635 378.12,348.917 378.625,348.545C379.702,347.752 379.615,347.432 380.658,346.702C384.633,343.92 386.877,342.127 391.655,340.621C393.718,339.971 396.512,339.398 398.917,339.252L398.916,339.225C399.174,339.216 399.441,339.215 399.716,339.22Z"
          />
        </clipPath>
        <g clip-path="url(#Monocle_2)">
          <path
            d="M427.249,351.076C427.393,351.09 425.677,351.67 425.204,353.888C424.678,356.352 425.504,360.172 425.977,362.638C426.768,366.763 429.029,370.499 429.154,374.734C429.183,375.702 429.135,376.71 428.86,377.646C428.758,377.994 428.559,378.514 428.112,378.486C427.555,378.451 427.021,377.798 426.7,377.407C425.662,376.144 424.924,374.553 424.326,373.044C423.263,370.363 422.894,367.497 422.617,364.646C422.259,360.963 422.058,357.202 423.111,353.61C423.607,351.921 424.338,350.134 425.585,348.853C426.17,348.252 427.146,347.801 427.663,348.726L427.249,351.076ZM376.173,352.298C374.746,352.478 374.086,355.046 373.888,356.077C373.313,359.067 373.227,362.17 372.803,365.189C372.598,366.647 371.961,368.509 372.462,369.963C372.883,371.186 374.269,370.446 374.981,369.965C375.11,369.877 376.196,368.893 376.256,369.121C376.745,370.953 374.015,375.227 373.024,376.538C372.539,377.18 371.809,377.987 370.911,377.775C368.763,377.268 368.371,373.316 368.186,371.64C367.517,365.594 367.965,358.832 369.73,352.997C370.737,349.668 373.907,344.315 375.711,350.087L376.173,352.298ZM421.523,350.649C421.381,351.055 421.554,352.122 421.572,352.343C421.682,353.661 421.704,355.083 421.506,356.393C421.435,356.859 421.275,357.57 420.787,357.783C420.237,358.023 419.997,357.233 419.91,356.855C419.627,355.631 419.688,354.327 419.875,353.094L421.523,350.649C421.546,350.585 421.576,350.538 421.615,350.513L421.523,350.649ZM379.354,351.723C378.646,351.723 377.678,353.288 377.232,353.139C376.221,352.802 376.41,348.097 378.156,349.658C378.367,349.846 378.558,350.061 378.728,350.286C378.99,350.632 379.182,351.042 379.376,351.43L379.354,351.723ZM385.158,343.668C385.056,343.493 385.268,344.057 385.326,344.25C385.457,344.688 385.595,345.123 385.73,345.56C385.994,346.411 386.559,350.178 387.775,349.805C388.737,349.509 390.57,348.334 390.824,347.296C391.015,346.515 390.672,345.496 390.538,344.725C390.257,343.116 390.368,341.087 388.253,341.664L385.158,343.668ZM406.532,339.906C406.498,339.771 406.541,340.184 406.55,340.324C406.566,340.599 406.594,340.875 406.616,341.15C406.686,342.012 406.722,342.893 406.71,343.757C406.699,344.485 406.434,345.711 406.753,346.383C407.265,347.464 409.236,347.904 410.191,348.447C410.659,348.713 411.136,349.003 411.557,349.34C411.615,349.387 411.873,349.709 411.955,349.688C412.08,349.655 412.065,349.187 412.069,349.104C412.104,348.419 412.082,347.732 412.074,347.046C412.045,344.62 412.846,342.185 410.109,341.144L406.532,339.906ZM391.963,340.938C391.933,340.942 392.109,342.086 392.117,342.152C392.267,343.342 392.464,344.428 393.007,345.507C393.076,345.643 393.467,346.526 393.698,346.427C394.025,346.287 393.947,345.262 393.951,345.004C393.972,343.645 393.591,342.305 393.249,341.001C393.14,340.588 393.043,339.744 392.426,339.917L391.963,340.938Z"
            style="fill: white"
          />
          <path
            d="M375.563,349.335C375.535,349.369 375.791,349.953 375.805,349.998C376.027,350.709 376.242,351.419 376.418,352.144C377.063,354.796 377.245,357.559 377.289,360.28"
            style="fill: none; stroke: black; stroke-width: 2.1px"
          />
          <path
            d="M378.294,348.578C378.185,348.599 378.434,348.751 378.498,348.842C378.634,349.032 378.768,349.223 378.898,349.417C379.272,349.979 379.613,350.571 379.914,351.176C380.816,352.992 381.287,355.036 381.287,357.066"
            style="fill: none; stroke: black; stroke-width: 2.1px"
          />
          <path
            d="M421.911,349.128C421.981,349.058 421.768,349.268 421.707,349.347C421.571,349.52 421.441,349.7 421.31,349.877C420.918,350.411 420.552,350.968 420.221,351.542C419.176,353.352 418.89,355.185 419.298,357.225"
            style="fill: none; stroke: black; stroke-width: 2.1px"
          />
          <path
            d="M424.669,349.11C424.795,349.093 424.529,349.32 424.468,349.431C424.341,349.664 424.226,349.905 424.116,350.146C423.779,350.886 423.458,351.645 423.2,352.416C422.425,354.735 422.166,357.242 422.166,359.679"
            style="fill: none; stroke: black; stroke-width: 2.1px"
          />
        </g>
        <path
          d="M399.716,339.22C399.99,339.215 400.258,339.216 400.516,339.225L400.514,339.252C402.92,339.398 405.714,339.971 407.776,340.621C412.554,342.127 414.799,343.92 418.774,346.702C419.817,347.432 419.73,347.752 420.807,348.545C421.312,348.917 422.059,348.635 423.324,349.83C423.672,350.159 424.298,349.169 424.959,348.778C425.965,348.181 426.636,347.73 427.716,348.523C429.021,349.481 429.724,353.456 429.988,354.879C431.069,360.701 430.662,365.521 431.32,371.513C431.603,374.081 429.14,378.893 427.789,378.021C426.515,377.199 425.136,375.503 424.655,374.297C422.923,369.952 423.098,367.68 422.496,363.081C422.34,361.885 422.151,359.25 422.151,359.25C422.151,359.25 420.035,358.721 419.088,357.152C417.766,354.963 415.878,352.985 414.166,351.652C409.711,348.182 405.567,345.311 399.716,345.224C393.864,345.311 389.72,348.182 385.265,351.652C383.554,352.985 381.666,354.963 380.344,357.152C379.397,358.721 377.281,359.25 377.281,359.25C377.281,359.25 377.092,361.885 376.936,363.081C376.333,367.68 376.508,369.952 374.777,374.297C374.296,375.503 372.917,377.199 371.642,378.021C370.292,378.893 369.027,374.07 369.309,371.502C369.967,365.511 369.852,361.086 370.933,355.265C371.197,353.841 371.388,350.141 372.344,349.157C373.277,348.195 373.782,348.307 374.473,348.778C375.108,349.21 375.76,350.159 376.108,349.83C377.373,348.635 378.12,348.917 378.625,348.545C379.702,347.752 379.615,347.432 380.658,346.702C384.633,343.92 386.877,342.127 391.655,340.621C393.718,339.971 396.512,339.398 398.917,339.252L398.916,339.225C399.174,339.216 399.441,339.215 399.716,339.22Z"
          style="fill: none; stroke: black; stroke-width: 2.1px"
        />
      </g>
      <g id="frame">
        <g transform="matrix(0.840847,0,0,0.840847,76.1806,56.8959)">
          <circle cx="482.002" cy="351.926" r="56.215" style="fill: url(#Monocle_Linear4)" />
        </g>
        <path
          d="M483.556,305.414C483.556,305.414 447.429,340.169 445.696,341.933C443.963,343.696 442.033,347.144 442.033,347.144L492.143,307.028L483.556,305.414ZM511.264,316.628L446.35,383.564C446.35,383.564 448.414,387.237 450.574,389.356C452.734,391.475 458.675,393.861 458.675,393.861C459.418,394.136 519.351,326.718 520.079,325.883C521.12,324.688 511.264,316.628 511.264,316.628ZM490.173,399.503C490.173,399.503 527.94,358.737 528.209,358.543C528.478,358.35 527.817,367.341 525.31,371.307C522.802,375.273 514.016,389.682 508.502,392.436C502.989,395.19 490.173,399.503 490.173,399.503Z"
          style="fill: url(#Monocle_Linear5)"
        />
        <path
          d="M481.471,299.609C510.835,299.609 534.675,323.448 534.675,352.812C534.675,382.176 510.835,406.016 481.471,406.016C452.107,406.016 428.267,382.176 428.267,352.812C428.267,323.448 452.107,299.609 481.471,299.609ZM481.471,305.544C507.559,305.544 528.739,326.724 528.739,352.812C528.739,378.9 507.559,400.081 481.471,400.081C455.383,400.081 434.202,378.9 434.202,352.812C434.202,326.724 455.383,305.544 481.471,305.544Z"
          style="fill: rgb(211, 188, 186)"
        />
        <clipPath id="Monocle_3">
          <path
            d="M481.471,299.609C510.835,299.609 534.675,323.448 534.675,352.812C534.675,382.176 510.835,406.016 481.471,406.016C452.107,406.016 428.267,382.176 428.267,352.812C428.267,323.448 452.107,299.609 481.471,299.609ZM481.471,305.544C507.559,305.544 528.739,326.724 528.739,352.812C528.739,378.9 507.559,400.081 481.471,400.081C455.383,400.081 434.202,378.9 434.202,352.812C434.202,326.724 455.383,305.544 481.471,305.544Z"
          />
        </clipPath>
        <g clip-path="url(#Monocle_3)">
          <path
            d="M440.849,390.028C440.636,389.843 442.073,388.406 442.231,388.241C443.248,387.178 446.455,382.905 448.111,384.08C450.884,386.048 453.08,388.827 455.669,391.023C456.208,391.48 459.26,392.883 458.524,393.101C456.366,393.742 454.931,396.612 454.931,396.612C454.931,396.612 466.902,403.092 470.542,404.195C475.145,405.591 474.851,406.534 470.435,405.797C470.042,405.731 468.705,405.879 468.6,405.86C466.563,405.497 464.543,404.893 462.586,404.233C457.385,402.479 452.288,400.386 447.59,397.525L440.849,390.028ZM503.957,401.826C503.952,401.823 505.088,400.595 505.174,400.508C506.013,399.657 506.833,398.786 507.651,397.914C510.085,395.319 512.553,392.757 514.902,390.083C519.145,385.252 523.28,380.318 527.79,375.729C528.44,375.067 531.447,371.201 532.581,371.548C533.163,371.726 532.153,373.788 532.044,374.044C530.945,376.626 529.491,379.049 527.89,381.349C526.109,383.908 524.239,386.419 522.299,388.86C519.353,392.566 516.097,396.189 512.385,399.147L503.957,401.826ZM430.113,367.573C430.443,368.257 431.127,366.44 431.659,365.897C432.637,364.898 435.666,361.45 436.445,363.435C437.406,365.882 436.316,365.88 435.659,366.898C434.633,368.485 433.234,369.924 433.234,369.924C433.234,369.924 435.69,377.752 436.317,380.503C436.379,380.776 436.148,381.598 435.833,381.74C435.5,381.889 434.657,379.802 434.578,379.627C433.455,377.148 432.357,374.651 431.327,372.132L430.113,367.573ZM512.439,316.415C512.494,316.35 512.653,316.151 512.732,316.081C512.966,315.873 513.196,315.659 513.429,315.448C514.145,314.798 514.816,314.191 515.838,314.172C518.725,314.118 520.815,316.239 522.447,318.327C528.084,325.539 531.48,334.887 533.207,343.868C533.605,345.938 534.059,351.977 534.079,352.187C534.197,353.457 533.578,351.06 533.443,350.416C533.043,348.506 532.658,345.465 532.166,343.576C530.67,337.83 528.099,332.114 525.384,326.79C524.27,324.604 521.242,320.966 521.242,320.966C521.242,320.966 518.328,321.823 518.399,323.708L512.439,316.415ZM425.572,346.27C427.192,344.732 427.472,342.568 428.781,340.674C432.935,334.663 437.852,326.791 442.382,321.066C451.571,309.453 462.948,300.655 473.338,290.266C473.573,290.03 472.779,290.631 472.49,290.797C471.958,291.103 471.419,291.401 470.874,291.682C469.254,292.516 467.651,293.368 466.093,294.315C461.217,297.278 456.716,300.769 452.421,304.52C439.243,316.027 426.75,329.222 421.194,346.105L425.572,346.27ZM512.439,316.415L512.436,316.411C512.412,316.446 512.417,316.442 512.439,316.415ZM483.718,305.667C484.337,305.045 486.141,303.184 486.468,302.914C487.882,301.747 489.507,300.313 491.424,300.343C493.19,300.37 495.094,301.171 496.763,301.688C500.634,302.888 504.608,304.329 507.968,306.647C509.043,307.389 510.083,308.141 511.06,309.009C511.226,309.156 511.941,309.632 511.916,309.906C511.905,310.031 510.82,309.427 510.756,309.39C510.035,308.963 509.631,308.919 508.89,308.528C506.715,307.378 504.008,306.336 501.69,305.524C499.562,304.779 493.455,303.633 493.455,303.633C493.455,303.633 491.996,304.224 490.759,305.863L483.718,305.667ZM483.718,305.667L483.688,305.666C483.416,305.963 483.478,305.908 483.718,305.667Z"
            style="fill: white"
          />
        </g>
        <path
          d="M481.471,299.609C510.835,299.609 534.675,323.448 534.675,352.812C534.675,382.176 510.835,406.016 481.471,406.016C452.107,406.016 428.267,382.176 428.267,352.812C428.267,323.448 452.107,299.609 481.471,299.609ZM481.471,305.544C507.559,305.544 528.739,326.724 528.739,352.812C528.739,378.9 507.559,400.081 481.471,400.081C455.383,400.081 434.202,378.9 434.202,352.812C434.202,326.724 455.383,305.544 481.471,305.544Z"
          style="fill: none; stroke: black; stroke-width: 2.22px"
        />
      </g>
    </g>
  </g>
  <defs>
    <linearGradient id="Monocle_Linear4" x1="0" y1="0" x2="1" y2="0" gradientUnits="userSpaceOnUse" gradientTransform="matrix(19.5996,-79.2554,79.2554,19.5996,477.074,397.487)">
      <stop offset="0" style="stop-color: rgb(239, 145, 159); stop-opacity: 0.7" />
      <stop offset="1" style="stop-color: rgb(241, 19, 50); stop-opacity: 0.7" />
    </linearGradient>
    <linearGradient id="Monocle_Linear5" x1="0" y1="0" x2="1" y2="0" gradientUnits="userSpaceOnUse" gradientTransform="matrix(-56.3355,74.5806,-74.5806,-56.3355,508.862,320.063)">
      <stop offset="0" style="stop-color: white; stop-opacity: 1" />
      <stop offset="0.49" style="stop-color: white; stop-opacity: 0.745098" />
      <stop offset="1" style="stop-color: white; stop-opacity: 0" />
    </linearGradient>
  </defs>
</svg>
