<?xml version="1.0" encoding="UTF-8" standalone="no"?>
<!DOCTYPE svg PUBLIC "-//W3C//DTD SVG 1.1//EN" "http://www.w3.org/Graphics/SVG/1.1/DTD/svg11.dtd">
<svg
  width="100%"
  height="100%"
  viewBox="0 0 800 800"
  version="1.1"
  xmlns="http://www.w3.org/2000/svg"
  
  
  
>
  <g
    id="Santa-hat-back"
    
    style="
      fill-rule: evenodd;
      clip-rule: evenodd;
      stroke-linecap: round;
      stroke-linejoin: round;
      stroke-miterlimit: 1.5;
    "
  >
    <path
      d="M576.758,35.095C576.372,34.125 578.139,36.663 578.834,37.442C580.194,38.964 581.567,40.48 582.898,42.027C586.959,46.743 590.938,51.505 594.771,56.41C600.422,63.64 608.316,71.579 611.682,80.211C614.814,88.243 614.536,98.327 615.39,106.797C616.177,114.596 615.113,119.705 618.846,126.795C620.379,129.708 628.243,137.472 628.442,138.76C629.826,147.746 625.011,160.46 626.104,169.448C626.706,174.404 634.138,176.484 633.611,181.523C632.469,192.439 626.491,204.913 626.603,216.027C626.676,223.178 633.886,228.77 635.238,235.625C637.232,245.73 633.762,257.648 633.134,267.782C632.321,280.935 633.273,293.971 635.532,306.942C636.126,310.355 639.41,321.196 634.809,320.507C617.262,317.88 599.03,333.56 596.892,332.07C593.682,329.833 573.717,293.668 568.106,287.29C556.753,274.381 487.548,255.232 480.016,249.125C471.987,242.614 463.652,223.823 460.899,214.115C450.228,176.472 536.415,46.72 544.291,8.985"
      style="fill: rgb(203, 57, 57)"
    />
    <clipPath id="Santa-hat_0">
      <path
        d="M576.758,35.095C576.372,34.125 578.139,36.663 578.834,37.442C580.194,38.964 581.567,40.48 582.898,42.027C586.959,46.743 590.938,51.505 594.771,56.41C600.422,63.64 608.316,71.579 611.682,80.211C614.814,88.243 614.536,98.327 615.39,106.797C616.177,114.596 615.113,119.705 618.846,126.795C620.379,129.708 628.243,137.472 628.442,138.76C629.826,147.746 625.011,160.46 626.104,169.448C626.706,174.404 634.138,176.484 633.611,181.523C632.469,192.439 626.491,204.913 626.603,216.027C626.676,223.178 633.886,228.77 635.238,235.625C637.232,245.73 633.762,257.648 633.134,267.782C632.321,280.935 633.273,293.971 635.532,306.942C636.126,310.355 639.41,321.196 634.809,320.507C617.262,317.88 599.03,333.56 596.892,332.07C593.682,329.833 573.717,293.668 568.106,287.29C556.753,274.381 487.548,255.232 480.016,249.125C471.987,242.614 463.652,223.823 460.899,214.115C450.228,176.472 536.415,46.72 544.291,8.985"
      />
    </clipPath>
    <g clip-path="url(#Santa-hat_0)">
      <path
        d="M562.257,30C562.183,28.902 563.591,31.75 564.238,32.64C565.553,34.45 566.885,36.249 568.207,38.053C572.274,43.607 575.89,49.537 580.153,54.942C586.431,62.9 598.642,71.151 601.404,80.739C603.197,86.961 604.271,96.702 605.189,105.389C605.662,109.86 605.646,122.415 606.79,123.945C609.578,127.673 618.66,133.265 619.498,137.522C621.419,147.275 615.147,158.894 616.573,169.071C617.162,173.272 626.154,175.903 624.981,179.114C623.456,183.285 618.455,194.269 618.455,194.269C618.455,194.269 621.762,199.158 621.602,200.222C620.268,209.139 616.691,224.603 618.004,227.686C620.409,233.335 624.59,238.603 625.455,244.275C625.99,247.785 626.651,259.478 626.705,265.192C626.837,279.247 629.559,294.532 631.45,308.448C631.915,311.871 635.294,318.414 639.746,317.235C644.16,316.067 645.038,302.653 645.638,299.406C649.322,279.488 650.378,259.691 650.947,239.459C652.426,186.863 656.003,133 633.616,83.906C624.318,63.516 610.867,42.303 589.656,32.788"
        style="fill: rgb(236, 195, 167)"
      />
      <path
        d="M584.762,122.642C583.973,123.243 585.084,125.496 585.584,126.361C587.481,129.65 591.822,129.979 593.354,133.413C594.52,136.026 594.186,139.183 593.709,141.909C593.639,142.309 592.587,145.966 592.996,146.068C593.78,146.264 595.711,144.473 596.301,144.092C599.131,142.263 602.185,140.645 605.274,139.297C605.759,139.086 608.992,137.299 609.121,138.491C609.815,144.917 604.625,153.024 602.45,158.904C600.633,163.815 600.838,169.504 601.092,174.674C601.227,177.408 607.616,179.2 609.611,180.752C610.085,181.121 612.184,182.472 611.961,183.267C611.749,184.025 608.745,184.691 608.102,184.95C604.86,186.252 598.576,187.715 598.535,191.83C598.502,195.241 599.263,199.745 601.489,202.429C603.857,205.284 609.019,208.454 609.833,212.363C610.073,213.515 608.766,215.355 608.318,216.329C607.017,219.156 605.619,222.051 604.961,225.111C603.586,231.51 605.881,239.349 607.557,245.482C608.953,250.591 610.787,255.721 613.925,260.043C614.619,260.999 617.842,264.589 617.456,265.902C617.321,266.358 615.882,265.737 615.627,265.666C614.973,265.484 609.247,263.277 609.092,263.922C608.86,264.887 609.939,266.683 610.301,267.52C611.567,270.449 612.912,273.327 614.047,276.313C617.211,284.636 617.344,293.777 619.355,302.401C620.284,306.384 624.595,314.695 618.52,316.426C615.59,317.261 612.236,317.037 609.217,317.329C601.048,318.12 592.951,318.255 584.755,317.713C550.588,315.45 512.905,303.652 488.197,278.912C463.866,254.548 456.593,215.559 475.133,185.624C491.96,158.453 526.415,142.483 556.101,133.855"
        style="fill: rgb(135, 44, 62)"
      />
      <path
        d="M586.873,150.031C586.99,150.132 592.181,146.688 592.695,146.387C597.112,143.803 601.523,141.334 606.249,139.356C606.635,139.194 610.242,137.477 610.588,138.137C611.42,139.726 607.757,145.544 607.137,146.954C606.189,149.108 605.225,151.254 604.26,153.4C602.833,156.574 601.301,159.705 600.078,162.966"
        style="fill: none; stroke: rgb(6, 0, 0); stroke-width: 2.1px"
      />
      <path
        d="M597.907,188.636C597.885,188.614 599.48,187.934 599.733,187.829C600.954,187.324 602.169,186.807 603.386,186.294C607.071,184.743 610.688,183.029 614.369,181.475"
        style="fill: none; stroke: rgb(6, 0, 0); stroke-width: 2.1px"
      />
      <path
        d="M593.923,224.839C603.222,237.242 611.197,252.05 618.537,265.73"
        style="fill: none; stroke: rgb(6, 0, 0); stroke-width: 2.1px"
      />
    </g>
    <path
      d="M576.758,35.095C576.372,34.125 578.139,36.663 578.834,37.442C580.194,38.964 581.567,40.48 582.898,42.027C586.959,46.743 590.938,51.505 594.771,56.41C600.422,63.64 608.316,71.579 611.682,80.211C614.814,88.243 614.536,98.327 615.39,106.797C616.177,114.596 615.113,119.705 618.846,126.795C620.379,129.708 628.243,137.472 628.442,138.76C629.826,147.746 625.011,160.46 626.104,169.448C626.706,174.404 634.138,176.484 633.611,181.523C632.469,192.439 626.491,204.913 626.603,216.027C626.676,223.178 633.886,228.77 635.238,235.625C637.232,245.73 633.762,257.648 633.134,267.782C632.321,280.935 633.273,293.971 635.532,306.942C636.126,310.355 639.41,321.196 634.809,320.507C617.262,317.88 599.03,333.56 596.892,332.07C593.682,329.833 573.717,293.668 568.106,287.29C556.753,274.381 487.548,255.232 480.016,249.125C471.987,242.614 463.652,223.823 460.899,214.115C450.228,176.472 536.415,46.72 544.291,8.985"
      style="fill: none; stroke: black; stroke-width: 2.1px"
    />
    <path
      d="M609.715,307.654C609.836,307.244 612.758,305.513 613.233,305.042C613.951,304.331 614.683,303.617 615.336,302.846C615.787,302.314 616.172,301.742 616.537,301.148C616.706,300.872 617.428,299.036 617.749,298.978C617.861,298.958 617.956,301.2 617.972,301.371C618.124,302.979 618.104,306.362 620.227,306.682C622.54,307.03 624.389,304.994 625.106,303.039C625.27,302.59 625.469,300.371 626.071,300.293C627.045,300.167 628.543,302.978 629.629,303.354C631.747,304.086 634.38,302.488 636.578,302.511C637.899,302.525 639.438,303.287 640.688,302.634C641.974,301.962 642.578,300.603 643.054,299.305C643.097,299.186 643.603,297.393 643.681,297.423C644.967,297.905 643.943,302.618 645.512,303.431C647.588,304.508 650.061,301.443 652.028,302.273C653.022,302.693 652.435,305.928 653.793,307.002C654.949,307.916 656.45,308.206 657.879,308.372C658.332,308.425 659.677,308.284 660.004,308.697C660.337,309.117 659.916,310.53 659.954,311.058C660.065,312.554 660.611,313.918 661.685,314.991C662.507,315.813 663.681,316.438 664.81,316.716C665.015,316.767 666.125,316.806 666.203,317.039C666.351,317.482 664.816,319.313 664.6,319.702C663.572,321.548 662.779,323.639 663.44,325.753C664.821,330.165 671.876,332.519 670.806,337.867C670.671,338.542 669.314,337.383 668.746,337.77C667.589,338.557 667.615,340.156 667.731,341.403C667.92,343.443 668.691,345.511 669.826,347.214C670.334,347.975 671.808,349.043 671.589,350.067C670.897,353.294 666.092,353.939 664.988,356.751C664.49,358.018 664.847,359.835 664.805,361.169C664.721,363.88 664.453,367.324 663.748,369.911C663.501,370.816 659.507,371.843 658.667,372.786C657.421,374.185 656.938,376.043 655.741,377.474C654.323,379.17 652.478,380.297 651.258,382.193C650.131,383.943 649.567,386.843 647.595,387.876C646.031,388.695 646.959,382.723 643.599,384.806C641.811,385.914 641.237,387.922 640.931,389.889C640.804,390.706 640.856,392.552 639.893,392.897C637.296,393.828 636.152,389.201 634.047,389.387C632.007,389.567 629.491,391.538 627.839,392.652C627.501,392.88 626.171,394.209 625.743,394.127C625.356,394.054 625.413,392.633 625.376,392.372C625.201,391.162 624.539,389.72 623.21,389.467C621.481,389.136 619.561,390.295 618.399,391.477C618.035,391.848 617.268,393.072 616.722,393.16C615.762,393.313 614.198,391.991 613.051,391.972C611.184,391.94 609.361,392.534 607.652,393.232C607.057,393.476 605.871,394.358 605.185,394.015C603.767,393.306 604.744,390.229 602.634,389.454C600.527,388.68 598.306,389.972 596.295,389.449C594.825,389.067 593.564,386.482 592.365,385.556C591.239,384.686 589.639,384.733 588.604,383.816C587.874,383.168 585.109,382.209 585.231,381.151C585.405,379.641 586.884,378.586 586.321,376.913C585.849,375.509 580.786,375.09 579.498,374.447C578.859,374.127 577.475,373.996 577.298,373.134C577.055,371.952 580.769,370.302 580.949,369.095C581.353,366.373 577.929,363.328 578.053,360.517C578.125,358.905 580.001,358.572 580.001,356.719C580.001,352.382 574.065,350.645 574.031,345.95C574.023,344.91 573.847,342.779 574.616,341.921C575.316,341.141 576.186,341.889 576.799,340.366C577.936,337.54 580.711,332.659 579.268,329.007C578.368,326.732 582.048,325.989 582.967,323.783C583.329,322.916 585.925,320.462 585.227,319.764C585.035,319.572 583.526,319.1 583.672,318.854C584.776,316.986 587.706,317.749 588.71,316.368C590.399,314.047 588.443,309.522 591.548,307.617C592.225,307.202 592.404,308.719 592.739,309.074C593.486,309.869 594.828,310.229 595.832,309.747C598.174,308.622 600.126,306.314 602.064,305.539C602.896,305.206 604.745,306.61 605.48,306.957C607.457,307.892 609.715,307.654 609.715,307.654Z"
      style="fill: rgb(251, 239, 239)"
    />
    <clipPath id="Santa-hat_1">
      <path
        d="M609.715,307.654C609.836,307.244 612.758,305.513 613.233,305.042C613.951,304.331 614.683,303.617 615.336,302.846C615.787,302.314 616.172,301.742 616.537,301.148C616.706,300.872 617.428,299.036 617.749,298.978C617.861,298.958 617.956,301.2 617.972,301.371C618.124,302.979 618.104,306.362 620.227,306.682C622.54,307.03 624.389,304.994 625.106,303.039C625.27,302.59 625.469,300.371 626.071,300.293C627.045,300.167 628.543,302.978 629.629,303.354C631.747,304.086 634.38,302.488 636.578,302.511C637.899,302.525 639.438,303.287 640.688,302.634C641.974,301.962 642.578,300.603 643.054,299.305C643.097,299.186 643.603,297.393 643.681,297.423C644.967,297.905 643.943,302.618 645.512,303.431C647.588,304.508 650.061,301.443 652.028,302.273C653.022,302.693 652.435,305.928 653.793,307.002C654.949,307.916 656.45,308.206 657.879,308.372C658.332,308.425 659.677,308.284 660.004,308.697C660.337,309.117 659.916,310.53 659.954,311.058C660.065,312.554 660.611,313.918 661.685,314.991C662.507,315.813 663.681,316.438 664.81,316.716C665.015,316.767 666.125,316.806 666.203,317.039C666.351,317.482 664.816,319.313 664.6,319.702C663.572,321.548 662.779,323.639 663.44,325.753C664.821,330.165 671.876,332.519 670.806,337.867C670.671,338.542 669.314,337.383 668.746,337.77C667.589,338.557 667.615,340.156 667.731,341.403C667.92,343.443 668.691,345.511 669.826,347.214C670.334,347.975 671.808,349.043 671.589,350.067C670.897,353.294 666.092,353.939 664.988,356.751C664.49,358.018 664.847,359.835 664.805,361.169C664.721,363.88 664.453,367.324 663.748,369.911C663.501,370.816 659.507,371.843 658.667,372.786C657.421,374.185 656.938,376.043 655.741,377.474C654.323,379.17 652.478,380.297 651.258,382.193C650.131,383.943 649.567,386.843 647.595,387.876C646.031,388.695 646.959,382.723 643.599,384.806C641.811,385.914 641.237,387.922 640.931,389.889C640.804,390.706 640.856,392.552 639.893,392.897C637.296,393.828 636.152,389.201 634.047,389.387C632.007,389.567 629.491,391.538 627.839,392.652C627.501,392.88 626.171,394.209 625.743,394.127C625.356,394.054 625.413,392.633 625.376,392.372C625.201,391.162 624.539,389.72 623.21,389.467C621.481,389.136 619.561,390.295 618.399,391.477C618.035,391.848 617.268,393.072 616.722,393.16C615.762,393.313 614.198,391.991 613.051,391.972C611.184,391.94 609.361,392.534 607.652,393.232C607.057,393.476 605.871,394.358 605.185,394.015C603.767,393.306 604.744,390.229 602.634,389.454C600.527,388.68 598.306,389.972 596.295,389.449C594.825,389.067 593.564,386.482 592.365,385.556C591.239,384.686 589.639,384.733 588.604,383.816C587.874,383.168 585.109,382.209 585.231,381.151C585.405,379.641 586.884,378.586 586.321,376.913C585.849,375.509 580.786,375.09 579.498,374.447C578.859,374.127 577.475,373.996 577.298,373.134C577.055,371.952 580.769,370.302 580.949,369.095C581.353,366.373 577.929,363.328 578.053,360.517C578.125,358.905 580.001,358.572 580.001,356.719C580.001,352.382 574.065,350.645 574.031,345.95C574.023,344.91 573.847,342.779 574.616,341.921C575.316,341.141 576.186,341.889 576.799,340.366C577.936,337.54 580.711,332.659 579.268,329.007C578.368,326.732 582.048,325.989 582.967,323.783C583.329,322.916 585.925,320.462 585.227,319.764C585.035,319.572 583.526,319.1 583.672,318.854C584.776,316.986 587.706,317.749 588.71,316.368C590.399,314.047 588.443,309.522 591.548,307.617C592.225,307.202 592.404,308.719 592.739,309.074C593.486,309.869 594.828,310.229 595.832,309.747C598.174,308.622 600.126,306.314 602.064,305.539C602.896,305.206 604.745,306.61 605.48,306.957C607.457,307.892 609.715,307.654 609.715,307.654Z"
      />
    </clipPath>
    <g clip-path="url(#Santa-hat_1)">
      <path
        d="M613.22,384.121C613.087,383.978 613.57,384.299 613.726,384.417C614.047,384.66 614.349,384.935 614.644,385.208C615.474,385.975 616.402,386.834 617.038,387.772C617.192,387.999 617.604,388.589 617.385,388.877C617.08,389.28 616.072,388.8 615.776,388.632C614.438,387.875 613.208,386.793 612.597,385.359L613.22,384.121ZM622.593,382.74C622.605,382.627 622.272,383.23 622.253,383.399C622.192,383.95 622.299,384.492 622.447,385.021C622.836,386.415 624.185,388.2 625.853,387.435C627.486,386.686 625.023,384.604 624.48,383.752C624.237,383.371 623.943,382.542 623.493,382.358L622.593,382.74ZM602.379,381.08C602.783,381.003 602.446,381.921 602.631,382.289C603.023,383.073 603.756,384.257 604.802,383.983C606.47,383.546 605.467,381.047 604.328,380.598L602.379,381.08ZM634.782,376.131C634.538,376.01 634.412,376.872 634.407,376.963C634.37,377.693 634.662,378.551 635.132,379.106C636.96,381.266 637.742,378.263 636.651,376.769L634.782,376.131ZM625.948,325.01C627.665,322.393 628.837,320.902 629.728,317.784C629.862,317.316 630.316,314.558 630.947,314.425C631.374,314.335 631.624,317.515 631.661,317.806C632.037,320.778 633.215,323.416 634.516,326.089C634.745,326.559 635.391,328.512 636.054,328.586C636.428,328.628 636.727,327.077 636.79,326.862C637.371,324.885 637.962,322.91 638.66,320.97C638.729,320.778 639.224,318.96 639.516,318.99C639.826,319.021 639.794,321.071 639.794,321.276C639.794,323.775 639.458,326.248 638.806,328.663C638.761,328.83 638.065,331.191 638.133,331.225C638.436,331.376 639.706,330.347 639.928,330.2C641.798,328.953 643.409,327.46 644.936,325.815C645.099,325.639 646.533,323.858 646.785,323.996C647.091,324.163 647.021,326.743 646.836,327.113C646.789,327.206 645.678,327.594 645.516,327.694C644.33,328.43 642.858,330.359 643.986,331.73C645.401,333.452 648.809,331.838 650.538,331.519C650.884,331.455 652.208,331.042 652.521,331.277C652.75,331.448 651.335,332.595 651.229,332.691C650.019,333.781 647.107,335.406 646.643,337.076C646.431,337.837 650.846,337.375 651.381,337.391C651.517,337.396 652.689,337.434 652.689,337.654C652.689,338.044 651.244,338.547 650.98,338.674C649.371,339.445 647.778,340.284 646.236,341.185C646.003,341.321 644.807,341.834 644.826,342.187C644.84,342.46 646.391,343.197 646.609,343.345C648.318,344.495 649.9,345.792 651.328,347.278C651.472,347.428 652.987,348.895 652.744,349.179C652.53,349.429 651.248,349.003 651.004,348.954C649.216,348.601 647.431,348.25 645.682,347.727C645.461,347.661 643.69,346.923 643.54,347.242C643.366,347.612 645.082,349.177 645.311,349.432C646.641,350.912 649.349,353.572 649.349,355.777C649.349,356.062 645.373,353.816 645.094,354.42C644.527,355.649 646.753,358.373 647.404,359.271C647.474,359.367 648.538,360.641 648.448,360.717C647.47,361.532 643.716,358.666 642.808,359.401C642.11,359.966 642.943,363.934 642.93,364.841C642.927,365.071 643.037,366.339 642.741,366.463C642.512,366.558 641.965,365.588 641.871,365.461C641.045,364.342 640.342,363.133 639.624,361.944C639.549,361.819 639.002,360.466 638.92,360.517C638.592,360.723 638.721,362.689 638.689,363.046C638.47,365.511 636.98,367.306 637.859,369.838C637.992,370.222 639.768,373.698 639.471,373.83C638.998,374.04 637.953,373.121 637.64,372.873C635.878,371.479 635.001,369.753 634.798,367.52C634.777,367.29 634.871,365.236 634.701,365.151C634.49,365.045 634.032,366.892 634.007,367.003C633.628,368.658 633.458,370.272 633.409,371.964C633.399,372.292 633.549,373.386 633.143,373.552C632.389,373.859 631.508,372.643 631.186,372.14C630.389,370.894 628.279,366.862 626.333,367.705C625.062,368.256 627.111,372.178 627.495,372.858C627.608,373.057 628.347,373.904 628.237,374.142C627.995,374.667 625.138,372.383 624.716,372.355C623.302,372.26 623.159,375.077 622.112,375.408C621.701,375.538 621.645,373.716 621.325,373.844C620.692,374.097 621.105,377.746 621.134,378.278C621.143,378.453 621.352,379.638 620.988,379.588C619.752,379.419 618.686,375.337 618.325,374.43C618.228,374.185 617.84,372.73 617.473,372.747C617.169,372.762 614.437,373.721 614.365,373.931C614.167,374.503 613.16,377.754 612.392,377.809C612.176,377.824 612.263,376.233 612.266,376.087C612.282,375.229 612.858,371.221 612.128,370.603C611.909,370.418 611.075,371.211 610.924,371.327C609.754,372.225 608.527,373.037 607.196,373.68C607.076,373.739 605.867,374.44 605.756,374.302C605.556,374.051 606.098,372.938 606.177,372.692C606.541,371.556 607.62,369.471 607.009,368.277C606.206,366.709 604.658,366.173 603.066,366.544C602.639,366.643 600.913,367.395 600.567,367.007C599.795,366.145 603.291,363.886 602.427,363.259C600.941,362.182 596.996,360.752 595.374,359.725C595.038,359.513 593.999,358.913 593.999,358.426C593.999,358.11 595.524,358.397 595.721,358.4C596.739,358.416 598.024,358.119 598.53,357.132C599.86,354.532 595.462,355.161 595.308,354.2C595.101,352.902 598.265,352.632 598.117,351.419C597.837,349.119 593.994,347.175 593.994,344.499C593.994,344.361 595.812,345.659 596.269,345.101C597.094,344.092 595.234,343.094 594.941,342.373C594.633,341.613 594.982,340.435 595.172,339.686C595.636,337.856 597.894,340.055 597.943,338.205C597.975,337.022 596.917,336.034 595.943,335.554C595.841,335.503 594.181,334.91 594.324,334.684C595.144,333.385 597.823,334.885 598.454,334.254C599.427,333.281 599.106,329.401 600.815,329.123C601.551,329.004 601.408,330.813 602.056,331.129C603.022,331.6 604.841,329.852 605.64,329.467C605.85,329.365 606.673,329.206 606.796,329.001C607.001,328.659 604.466,327.044 604.705,326.841C605.529,326.144 607.964,327.753 608.984,327.565C610.158,327.349 608.892,324.246 609.712,323.973C610.709,323.64 614.178,328.134 615.287,327.672C616.204,327.29 615.015,323.624 614.938,322.935C614.921,322.781 614.963,320.572 615.318,320.61C615.906,320.673 616.506,322.041 616.762,322.458C617.928,324.353 619.089,323.334 619.886,325.413C619.998,325.707 620.516,327.84 620.844,327.923C620.925,327.943 620.915,326.768 620.913,326.696C620.899,325.865 621.676,327.596 621.713,326.766C621.807,324.719 621.887,322.415 622.694,320.499C622.777,320.303 623.389,318.784 623.804,318.981C624.685,319.398 625.219,322.908 625.601,323.809L625.948,325.01ZM592.067,373.654C592.16,373.329 593.074,373.119 593.338,373.045C593.668,372.953 594.005,372.885 594.347,372.867C597.08,372.72 594.686,375.525 593.057,375.02L592.067,373.654ZM662.268,364.168C662.341,364.148 661.759,363.511 661.727,363.481C661.344,363.122 660.198,362.324 659.822,363.107C659.06,364.691 661.667,368.65 662.09,365.349L662.268,364.168ZM590.065,364.351C588.663,363.799 587.88,362.17 586.201,361.834C585.527,361.699 584.033,362.757 584.475,363.568C585.094,364.702 587.251,365.171 588.427,365.028L590.065,364.351ZM650.972,359.935C651.008,359.75 650.698,360.229 650.674,360.416C650.624,360.812 650.66,361.222 650.719,361.615C650.876,362.651 651.673,364.861 653.092,364.684C653.69,364.609 653.711,363.826 653.702,363.371C653.682,362.384 653.727,360.164 652.6,359.706L650.972,359.935ZM594.42,362.335C594.097,362.007 592.505,362.01 592.9,362.751C593.19,363.295 595.83,364.146 595.683,363.118L594.42,362.335ZM656.611,351.442C656.671,351.509 656.286,351.512 656.188,351.613C655.986,351.82 655.911,352.132 655.88,352.411C655.781,353.307 656.119,354.115 656.998,354.473C658.219,354.971 657.937,352.927 657.756,352.37L656.611,351.442C656.607,351.438 656.602,351.433 656.595,351.429L656.611,351.442ZM590.166,347.045C590.115,346.98 589.685,347.787 589.658,347.843C589.131,348.932 589.181,351.468 590.343,349.351C590.496,349.072 590.593,348.762 590.685,348.458L590.166,347.045ZM587.913,337.422C588.05,337.345 587.602,337.366 587.444,337.358C587.131,337.343 586.819,337.372 586.51,337.422C586.024,337.5 582.963,337.909 583.109,338.653C583.186,339.048 584.146,339.046 584.424,339.067C585.369,339.137 587.758,339.36 588.17,338.126L587.913,337.422ZM592.135,326.111C591.34,325.45 590.346,324.884 589.38,324.508C589.263,324.462 588.334,324.08 588.343,324.392C588.374,325.428 589.83,325.84 590.133,326.693C590.341,327.276 589.148,328.453 589.546,328.816C590.094,329.317 593.641,327.924 592.986,327.006L592.135,326.111ZM660.279,325.71C660.322,325.97 659.751,325.808 659.521,325.937C659.007,326.227 658.195,327.077 658.49,327.726C659.085,329.034 662.369,329.211 661.798,327.292L660.279,325.71ZM609.452,320.288C609.433,320.302 609.376,319.796 609.376,319.771C609.378,319.443 609.4,319.112 609.439,318.786C609.508,318.219 610.035,315.504 610.823,315.518C611.369,315.528 611.489,316.395 611.56,316.776C611.759,317.829 611.956,319.661 610.604,320.029L609.452,320.288ZM600.136,314.602C600.026,314.759 599.705,315.161 599.63,315.363C599.465,315.811 598.936,317.294 599.44,317.666C600.259,318.269 600.744,316.066 600.648,315.603L600.136,314.602C600.185,314.534 600.193,314.512 600.122,314.575L600.136,314.602ZM620.318,312.321C620.397,312.589 619.805,312.583 619.633,312.803C619.262,313.279 618.051,315.436 619.138,315.809C620.289,316.204 623.154,313.075 621.082,312.349L620.318,312.321ZM645.472,309.184C645.631,309.318 645.221,309.516 645.111,309.692C644.896,310.039 644.718,310.403 644.549,310.773C644.006,311.957 643.09,314.781 644.569,315.724C645.576,316.367 646.616,314.084 647.016,313.453C647.178,313.199 647.346,312.949 647.527,312.709C647.665,312.526 647.805,312.346 647.96,312.177C649.163,310.864 647.011,311.488 646.645,310.701C646.46,310.301 647.071,309.378 646.62,309.138L645.472,309.184ZM635.242,308.45C635.385,308.542 634.934,308.613 634.824,308.743C634.598,309.009 634.45,309.351 634.318,309.671C634.016,310.401 633.332,312.794 634.458,313.244C634.907,313.424 635.438,312.663 635.653,312.386C636.442,311.372 636.995,310.069 636.3,308.865L635.242,308.45ZM623.002,309.91C622.378,309.826 621.614,311.458 622.03,311.897C622.649,312.551 624.401,311.166 624.114,310.4L623.002,309.91Z"
        style="fill: rgb(158, 133, 152)"
      />
    </g>
    <path
      d="M609.715,307.654C609.836,307.244 612.758,305.513 613.233,305.042C613.951,304.331 614.683,303.617 615.336,302.846C615.787,302.314 616.172,301.742 616.537,301.148C616.706,300.872 617.428,299.036 617.749,298.978C617.861,298.958 617.956,301.2 617.972,301.371C618.124,302.979 618.104,306.362 620.227,306.682C622.54,307.03 624.389,304.994 625.106,303.039C625.27,302.59 625.469,300.371 626.071,300.293C627.045,300.167 628.543,302.978 629.629,303.354C631.747,304.086 634.38,302.488 636.578,302.511C637.899,302.525 639.438,303.287 640.688,302.634C641.974,301.962 642.578,300.603 643.054,299.305C643.097,299.186 643.603,297.393 643.681,297.423C644.967,297.905 643.943,302.618 645.512,303.431C647.588,304.508 650.061,301.443 652.028,302.273C653.022,302.693 652.435,305.928 653.793,307.002C654.949,307.916 656.45,308.206 657.879,308.372C658.332,308.425 659.677,308.284 660.004,308.697C660.337,309.117 659.916,310.53 659.954,311.058C660.065,312.554 660.611,313.918 661.685,314.991C662.507,315.813 663.681,316.438 664.81,316.716C665.015,316.767 666.125,316.806 666.203,317.039C666.351,317.482 664.816,319.313 664.6,319.702C663.572,321.548 662.779,323.639 663.44,325.753C664.821,330.165 671.876,332.519 670.806,337.867C670.671,338.542 669.314,337.383 668.746,337.77C667.589,338.557 667.615,340.156 667.731,341.403C667.92,343.443 668.691,345.511 669.826,347.214C670.334,347.975 671.808,349.043 671.589,350.067C670.897,353.294 666.092,353.939 664.988,356.751C664.49,358.018 664.847,359.835 664.805,361.169C664.721,363.88 664.453,367.324 663.748,369.911C663.501,370.816 659.507,371.843 658.667,372.786C657.421,374.185 656.938,376.043 655.741,377.474C654.323,379.17 652.478,380.297 651.258,382.193C650.131,383.943 649.567,386.843 647.595,387.876C646.031,388.695 646.959,382.723 643.599,384.806C641.811,385.914 641.237,387.922 640.931,389.889C640.804,390.706 640.856,392.552 639.893,392.897C637.296,393.828 636.152,389.201 634.047,389.387C632.007,389.567 629.491,391.538 627.839,392.652C627.501,392.88 626.171,394.209 625.743,394.127C625.356,394.054 625.413,392.633 625.376,392.372C625.201,391.162 624.539,389.72 623.21,389.467C621.481,389.136 619.561,390.295 618.399,391.477C618.035,391.848 617.268,393.072 616.722,393.16C615.762,393.313 614.198,391.991 613.051,391.972C611.184,391.94 609.361,392.534 607.652,393.232C607.057,393.476 605.871,394.358 605.185,394.015C603.767,393.306 604.744,390.229 602.634,389.454C600.527,388.68 598.306,389.972 596.295,389.449C594.825,389.067 593.564,386.482 592.365,385.556C591.239,384.686 589.639,384.733 588.604,383.816C587.874,383.168 585.109,382.209 585.231,381.151C585.405,379.641 586.884,378.586 586.321,376.913C585.849,375.509 580.786,375.09 579.498,374.447C578.859,374.127 577.475,373.996 577.298,373.134C577.055,371.952 580.769,370.302 580.949,369.095C581.353,366.373 577.929,363.328 578.053,360.517C578.125,358.905 580.001,358.572 580.001,356.719C580.001,352.382 574.065,350.645 574.031,345.95C574.023,344.91 573.847,342.779 574.616,341.921C575.316,341.141 576.186,341.889 576.799,340.366C577.936,337.54 580.711,332.659 579.268,329.007C578.368,326.732 582.048,325.989 582.967,323.783C583.329,322.916 585.925,320.462 585.227,319.764C585.035,319.572 583.526,319.1 583.672,318.854C584.776,316.986 587.706,317.749 588.71,316.368C590.399,314.047 588.443,309.522 591.548,307.617C592.225,307.202 592.404,308.719 592.739,309.074C593.486,309.869 594.828,310.229 595.832,309.747C598.174,308.622 600.126,306.314 602.064,305.539C602.896,305.206 604.745,306.61 605.48,306.957C607.457,307.892 609.715,307.654 609.715,307.654Z"
      style="fill: none; stroke: black; stroke-width: 2.1px"
    />
  </g>
  <g
    id="Santa-hat-front"
    
    style="
      fill-rule: evenodd;
      clip-rule: evenodd;
      stroke-linecap: round;
      stroke-linejoin: round;
      stroke-miterlimit: 1.5;
    "
  >
    <path
      id="shadow"
      d="M217.911,275.145C216.594,275.359 220.336,276.258 221.55,276.81C224.024,277.936 226.632,278.968 229.253,279.696C236.935,281.831 244.738,278.755 252.336,277.456C265.319,275.237 278.519,273.136 291.674,272.265C294.884,272.052 297.335,275.273 299.748,274.966C306.586,274.097 313.705,268.366 320.876,269.568C322.569,269.852 323.682,271.392 325.438,271.487C329.826,271.724 334.325,269.68 338.652,269.123C348.314,267.878 359.504,267.023 369.242,267.13C373.581,267.178 377.192,270.212 381.215,270.391C384.521,270.538 387.354,267.556 391.398,268.295C393.599,268.698 396.624,272.247 398.137,272.259C404.016,272.305 409.893,268.314 415.699,268.042C418.199,267.925 419.93,270.277 422.134,270.319C425.216,270.376 428.108,267.324 431.601,267.402C435.18,267.482 437.002,270.965 439.979,271.319C444.443,271.85 449.951,269.314 454.689,269.464C458.903,269.598 462.745,272.257 466.42,272.533C471.637,272.925 477.017,269.756 482.386,270.115C484.728,270.271 486.163,272.481 488.397,272.695C491.596,273 494.864,271.816 498.091,271.928C505.241,272.174 512.125,274.269 519.071,274.952C522.195,275.259 525.319,274.471 528.446,275.029C531.201,275.52 533.06,277.882 535.508,278.402C541.807,279.738 548.186,278.704 554.734,280.448C558.898,281.557 575.071,284.451 575.53,276.852C575.783,272.661 559.095,266.513 556.358,265.479C534.28,257.138 510.768,252.383 487.536,248.641C428.088,239.066 367.636,236.804 307.885,244.953C279.794,248.784 249.926,253.073 225.552,268.603"
      style="fill: rgb(56, 25, 57); fill-opacity: 0.5"
    />
    <g id="cap">
      <path
        d="M587.075,87.309C586.556,92.025 589.759,106.046 586.44,114.229C581.181,127.198 585.965,132.776 587.061,145.493C588.001,156.403 587.314,167.045 588.78,178.041C589.728,185.147 593.825,199.114 585.182,203.032C564.002,212.634 520.004,204.261 497.713,202.504C437.971,197.794 377.782,193.26 317.817,194.503C295.235,194.971 272.711,196.73 250.148,197.656C243.265,197.939 230.5,200.713 224.309,196.256C213.585,188.534 220.986,164.026 223.379,153.536C227.101,137.216 231.277,119.788 240.428,105.524C246.058,96.748 253.906,89.785 258.861,80.524C266.154,66.894 270.064,50.382 279.936,38.232C291.412,24.108 342.545,9.815 360.68,2.758C402.278,-13.431 465.285,-35.198 491.543,-24.54C504.487,-19.285 530.291,-8.663 539.426,0.317C557.42,18.005 582.942,41.551 582.942,41.551"
        style="fill: rgb(203, 57, 57)"
      />
      <clipPath id="Santa-hat_2">
        <path
          d="M587.075,87.309C586.556,92.025 589.759,106.046 586.44,114.229C581.181,127.198 585.965,132.776 587.061,145.493C588.001,156.403 587.314,167.045 588.78,178.041C589.728,185.147 593.825,199.114 585.182,203.032C564.002,212.634 520.004,204.261 497.713,202.504C437.971,197.794 377.782,193.26 317.817,194.503C295.235,194.971 272.711,196.73 250.148,197.656C243.265,197.939 230.5,200.713 224.309,196.256C213.585,188.534 220.986,164.026 223.379,153.536C227.101,137.216 231.277,119.788 240.428,105.524C246.058,96.748 253.906,89.785 258.861,80.524C266.154,66.894 270.064,50.382 279.936,38.232C291.412,24.108 342.545,9.815 360.68,2.758C402.278,-13.431 465.285,-35.198 491.543,-24.54C504.487,-19.285 530.291,-8.663 539.426,0.317C557.42,18.005 582.942,41.551 582.942,41.551"
        />
      </clipPath>
      <g clip-path="url(#Santa-hat_2)">
        <path
          d="M579.533,179.903C579.076,179.966 579.532,178.979 579.503,178.518C579.438,177.499 579.381,176.479 579.327,175.459C579.172,172.509 578.949,169.563 578.774,166.614C578.25,157.822 578.102,147.249 575.196,138.846C573.072,132.705 567.12,127.542 563.549,122.15C559.736,116.394 558.213,109.555 555.843,103.163C554.731,100.164 553.632,97.159 552.502,94.168C552.34,93.738 551.217,91.596 551.573,91.166C551.706,91.006 552.938,92.828 553.014,92.941C554.482,95.125 555.863,97.367 557.274,99.587C560.83,105.181 564.728,110.294 569.226,115.162C575.604,122.065 583.082,129.901 586.043,139.076C588.695,147.294 588.375,157.299 589.086,165.839C589.552,171.43 592.216,181.738 588.855,186.699L579.533,179.903ZM230.865,176.086C230.557,175.713 232.135,171.148 232.276,170.507C233.614,164.43 234.903,158.446 236.615,152.455C240.388,139.247 242.746,125.073 248.186,112.443C252.517,102.384 259.319,93.496 265.035,84.207C269.128,77.556 274.763,72.024 279.894,66.184C281.626,64.212 283.321,62.204 285.02,60.204C285.199,59.993 287.421,57.17 287.315,57.15C286.289,56.957 283.275,60.16 282.562,60.741C277.655,64.741 272.804,68.801 268.101,73.039C245.573,93.339 230.99,117.918 222.872,147.078C220.615,155.187 218.036,163.667 217.68,172.133C217.551,175.192 217.883,179.746 221.259,181.072L230.865,176.086ZM506.231,9.674C505.772,9.531 506.875,10.388 507.168,10.768C507.788,11.571 508.428,12.359 509.054,13.157C510.967,15.601 512.792,18.131 514.533,20.699C519.613,28.189 524.389,35.879 529.596,43.284C536.896,53.668 543.419,64.625 551.118,74.724C554.584,79.272 560.072,82.549 562.863,87.52C566.722,94.393 568.172,101.752 572.899,108.352C573.233,108.819 577.138,114.371 577.501,114.084C578.253,113.491 575.985,108.41 575.76,107.763C573.574,101.481 571.779,95.249 570.361,88.756C567.903,77.503 559.644,70.37 552.675,61.63C539.028,44.514 524.8,28.317 509.836,12.341L506.231,9.674ZM254.777,81.538C257.736,80.994 264.289,69.208 266.214,66.843C277.059,53.52 283.478,41.588 299.607,33.798C342.525,13.069 390.242,12.878 435.682,0.892C459.941,-5.507 484.535,-12.46 509.725,-9.83C513.275,-9.459 522.686,-17.248 567.018,37.892C571.443,43.396 586.953,64.266 586.675,60.608C585.655,47.189 582.043,32.363 582.973,24.044C583.956,15.248 535.578,-16.917 529.157,-21.821C505.346,-40.009 475.739,-45.89 446.304,-46.048C370.613,-46.453 244.818,-2.807 231.947,85.858L254.777,81.538Z"
          style="fill: rgb(236, 195, 167)"
        />
        <path
          d="M529.261,172.02C529.37,171.148 528.112,169.303 527.761,168.531C526.45,165.646 525.189,162.737 523.949,159.821C518.795,147.695 513.498,135.54 506.256,124.488C504.04,121.107 501.648,117.817 499.234,114.574C498.726,113.892 496.587,111.98 496.6,111.078C496.603,110.879 499.388,112.17 499.576,112.259C501.521,113.174 503.47,113.984 505.518,114.643C512.539,116.9 519.364,119.205 526.148,122.132C528.775,123.265 531.372,124.485 533.959,125.705C534.183,125.81 536.205,126.943 536.392,126.604C536.569,126.281 534.333,124.979 534.145,124.848C531.625,123.102 529.079,121.397 526.545,119.672C517.071,113.221 507.025,107.977 497.273,102C495.035,100.628 492.838,99.14 490.808,97.472C490.617,97.315 488.964,96.117 489.08,95.828C489.109,95.756 493.994,97.816 494.307,97.94C499.013,99.805 503.85,101.444 508.784,102.607C509.225,102.712 512.794,103.922 513.151,103.553C513.283,103.417 511.979,102.14 511.88,102.033C510.339,100.368 508.799,98.706 507.298,97.004C504.304,93.612 501.435,89.533 499.302,85.523C498.369,83.77 498.299,81.333 497.064,79.807C495.72,78.146 493.096,78.678 491.918,77.5C491.229,76.81 492.495,71.91 492.562,71.039C493.008,65.271 492.391,59.411 491.213,53.759C490.166,48.738 488.89,43.744 487.756,38.74C487.681,38.409 486.59,34.296 487.058,34.161C487.404,34.061 489.545,37.307 489.791,37.599C492.707,41.051 496.176,43.834 499.661,46.683C511.922,56.705 522.967,68.908 533.571,80.665C536.166,83.542 538.241,86.847 540.573,89.932C540.974,90.463 542.956,92.338 542.859,93.078C542.852,93.126 540.63,91.816 540.484,91.727C538.978,90.813 537.434,89.958 535.886,89.119C529.761,85.802 523.3,83.907 516.488,82.602C515.162,82.349 513.827,82.108 512.517,81.776C512.374,81.74 510.427,81.197 510.421,81.273C510.366,81.891 512.719,83.428 513.104,83.754C515.916,86.133 518.792,88.47 521.761,90.651C530.225,96.869 538.936,102.918 547.22,109.366C549.618,111.232 551.872,113.293 554.031,115.426C554.608,115.997 556.096,116.972 556.385,117.751C556.515,118.102 555.697,117.45 555.373,117.261C554.714,116.877 554.053,116.494 553.389,116.119C552.103,115.391 547.504,111.968 545.955,112.416C545.917,112.427 547.031,113.696 547.115,113.785C547.938,114.66 548.76,115.543 549.53,116.465C553.787,121.562 557.954,126.736 562.214,131.832C563.74,133.657 566.702,136.621 566.998,139.106C567.193,140.745 565.184,143.471 564.784,145.125C563.633,149.888 563.714,154.222 565.042,158.914C566.343,163.514 568.128,168.063 570.058,172.432C570.629,173.725 572.5,176.365 571.552,177.828C569.616,180.817 561.274,179.19 558.467,179.158L529.261,172.02ZM257.723,162.686C257.603,163.112 257.759,161.8 257.804,161.359C257.902,160.417 258.004,159.475 258.088,158.53C258.326,155.866 258.58,153.204 258.937,150.552C260.004,142.634 261.548,134.628 264.21,127.085C264.664,125.799 265.552,124.193 265.37,122.786C265.134,120.962 263.602,119.627 264.359,117.71C266.786,111.573 273.485,107.453 277.621,102.548C279.258,100.606 277.499,97.793 278.744,96.244C286.464,86.642 297.73,79.062 307.495,71.711C312.841,67.687 318.198,63.738 324.245,60.821C324.751,60.577 329.215,58.049 329.732,58.463C329.97,58.653 327.998,60.736 327.85,60.905C325.534,63.549 323.31,66.243 321.187,69.045C315.602,76.42 310.052,83.866 304.93,91.57C301.293,97.041 297.804,102.586 294.665,108.359C293.924,109.721 291.573,112.684 291.685,114.303C291.758,115.367 298.487,116.461 299.482,116.742C299.703,116.804 302.144,117.469 302.079,117.555C301.195,118.734 296.767,119.408 295.446,119.894C289.734,121.992 284.199,124.668 278.744,127.353C277.47,127.981 273.832,129.107 273.092,130.401C272.642,131.19 274.908,130.285 275.803,130.136C277.537,129.847 279.281,129.548 281.028,129.355C286.841,128.713 292.361,126.785 298.147,126.132C298.707,126.069 303.298,125.407 303.628,126.067C303.688,126.188 301.852,128.252 301.717,128.477C300.668,130.216 300.206,132.017 300.346,134.049C300.758,139.982 301.544,145.861 301.629,151.819C301.651,153.365 302.431,156.746 301.325,158.022C298.602,161.16 291.678,161.7 287.944,162.343C284.55,162.927 281.128,163.357 277.724,163.875L257.723,162.686ZM576.975,114.032C575.924,110.546 575.007,107.021 574.289,103.442C572.132,92.7 571.413,83.893 564.001,75.316C558.013,68.386 551.083,62.343 545.056,55.433C536.406,45.515 528.901,34.669 520.374,24.651C516.952,20.63 513.456,16.687 509.812,12.865C509.613,12.656 506.448,9.585 506.569,9.443C506.861,9.096 510.774,11.64 511.116,11.843C515.825,14.631 520.082,18.051 524.424,21.366C532.563,27.581 540.252,33.992 547.836,40.888C552.815,45.417 558.23,50.095 562.065,55.674C565.319,60.408 567.295,65.702 569.27,71.06C569.939,72.876 570.613,74.694 571.254,76.52C571.47,77.136 571.684,77.752 571.879,78.375C571.938,78.564 572.182,79.317 572.152,79.302L572.708,80.902C573.971,85.01 575.349,89.072 576.803,93.117C576.926,93.459 577.879,96.864 578.321,96.861C578.539,96.859 579.484,94.638 579.599,94.432C580.962,92 582.973,89.801 584.912,87.815C585.148,87.573 587.235,85.247 587.517,85.988C588.338,88.149 588.061,91.269 588.253,93.533C588.683,98.6 589.249,103.897 588.428,108.953C587.74,113.187 585.852,117.113 585.125,121.336C584.451,125.253 584.853,129.285 585.217,133.215C585.332,134.455 585.449,135.695 585.576,136.934C585.587,137.042 585.759,138.865 585.685,138.857C585.32,138.816 584.464,135.467 584.329,135.072C583.831,133.616 583.315,132.168 582.79,130.723C582.965,131.457 583.106,132.179 582.988,132.218C582.669,132.324 581.467,129.982 581.351,129.781C579.618,126.803 577.793,123.871 575.831,121.038C571.991,115.494 566.698,111.551 562.169,106.637C557.547,101.623 553.863,95.647 550.74,89.606L549.564,86.056C549.974,86.431 552.09,86.771 552.803,87.079C555.28,88.149 557.647,89.374 559.784,91.041C567.151,96.787 572.966,105.356 576.975,114.032ZM266.535,74.727C266.838,74.332 267.367,73.59 267.611,73.258C268.366,72.232 269.067,71.166 269.777,70.109C271.898,66.954 274.026,63.802 276.164,60.659C282.496,51.352 286.933,43.178 298.448,39.944C301.053,39.212 305.866,37.874 308.493,39.283C311.197,40.734 304.027,45.081 303.242,45.621C295.164,51.175 287.915,57.389 280.468,63.725L266.535,74.727C266.341,74.982 266.239,75.093 266.366,74.861L266.535,74.727Z"
          style="fill: rgb(135, 44, 62)"
        />
      </g>
      <path
        d="M587.075,87.309C586.556,92.025 589.759,106.046 586.44,114.229C581.181,127.198 585.965,132.776 587.061,145.493C588.001,156.403 587.314,167.045 588.78,178.041C589.728,185.147 593.825,199.114 585.182,203.032C564.002,212.634 520.004,204.261 497.713,202.504C437.971,197.794 377.782,193.26 317.817,194.503C295.235,194.971 272.711,196.73 250.148,197.656C243.265,197.939 230.5,200.713 224.309,196.256C213.585,188.534 220.986,164.026 223.379,153.536C227.101,137.216 231.277,119.788 240.428,105.524C246.058,96.748 253.906,89.785 258.861,80.524C266.154,66.894 270.064,50.382 279.936,38.232C291.412,24.108 342.545,9.815 360.68,2.758C402.278,-13.431 465.285,-35.198 491.543,-24.54C504.487,-19.285 530.291,-8.663 539.426,0.317C557.42,18.005 582.942,41.551 582.942,41.551"
        style="fill: none; stroke: black; stroke-width: 2.1px"
      />
      <path
        d="M192.876,204.324C195.712,203.255 198.63,201.122 198.739,197.823C198.787,196.357 197.837,194.385 198.211,192.997C198.663,191.318 201.124,189.695 202.075,188.217C202.892,186.949 203.151,184.838 204.195,183.795C205.835,182.155 209.079,184.044 211.111,181.752C214.887,177.494 212.14,171.317 218.802,169.392C220.892,168.788 221,172.011 223.033,172.176C226.172,172.43 234.156,169.403 236.72,167.805C239.37,166.153 241.203,163.395 241.845,160.352C242.047,159.396 241.863,155.623 242.973,155.202C245.38,154.289 248.871,158.861 251.796,158.292C256.231,157.43 260.566,154.119 265.335,153.283C268.208,152.778 270.597,155.127 273.647,154.393C277.084,153.567 279.895,150.891 283.47,150.554C286.573,150.262 288.987,152.209 292.106,151.929C299.118,151.3 305.83,148.563 312.867,148.103C317.672,147.789 322.599,149.418 327.351,148.418C329.994,147.861 331.729,146.18 333.974,144.885C336.037,143.695 339.361,145.866 341.392,146.319C345.853,147.315 350.713,146.349 355.263,146.664C363.684,147.247 371.595,141.918 379.672,142.429C382.097,142.583 383.597,145.615 385.916,146.434C391.28,148.331 399.298,149.205 404.988,148.507C408.109,148.124 410.405,145.439 413.236,145.085C415.888,144.754 419.31,147.337 422.148,147.515C427.677,147.863 432.84,145.98 438.283,145.702C442.36,145.494 447.592,149.571 451.312,147.06C452.944,145.958 452.916,142.263 454.325,141.65C455.129,141.301 456.205,143.06 456.538,143.532C457.45,144.822 459.406,151.352 460.777,151.499C465.692,152.026 469.771,144.867 473.903,145.353C475.248,145.512 477.449,148.367 479.138,148.899C484.158,150.478 489.599,149.577 494.592,151.214C499.344,152.771 502.211,156.448 507.493,157.028C512.619,157.591 517.819,157.256 522.964,157.581C525.593,157.747 528.58,158.745 531.204,158.275C533.658,157.835 533.827,151.975 534.592,152.031C536.944,152.205 538.005,157.543 539.652,158.875C541.141,160.079 543.793,158.126 545.7,158.841C548.369,159.842 547.503,162.422 554.535,163.992C558.377,164.85 558.482,159.657 561.517,160.871C565.157,162.327 564.16,169.13 567.883,170.991C570.074,172.087 572.576,172.543 574.462,173.644C576.634,174.91 577.752,176.95 580.685,177.799C582.552,178.339 587.437,175.824 589.22,177.615C592.599,181.01 592.219,176.903 595.109,180.154C595.545,180.644 593.694,184.521 594.665,186.093C596.735,189.446 602.057,191.547 602.405,192.869C602.764,194.232 598.816,195.864 598.962,198.079C599.164,201.138 602.856,202.706 603.027,205.782C603.237,209.573 599.381,213.487 598.711,217.07C598.065,220.521 600.364,223.554 600.315,226.974C600.264,230.573 597.963,235.067 597.255,238.742C596.7,241.625 597.472,244.216 597.379,247.075C597.261,250.689 595.302,252.67 595.592,256.593C595.944,261.345 593.658,267.815 590.93,271.337C589.836,272.748 584.283,273.61 583.819,276.614C583.337,279.738 581.096,279.696 578.499,279.209C576.433,278.821 576.373,283.261 574.583,281.553C569.192,276.407 562.382,276.208 559.768,275.365C552.715,273.09 556.344,271.505 548.927,270.284C545.556,269.73 545.248,272.723 542.938,273.991C541.542,274.758 540.869,272.135 539.43,271.804C537.337,271.322 531.311,275.003 530.238,273.087C529.65,272.037 532.158,266.453 530.629,266.071C527.872,265.381 522.838,267.299 519.887,267.467C516.434,267.663 513.378,265.974 509.987,265.807C505.908,265.606 501.685,266.869 497.678,266.377C493.594,265.876 489.915,263.688 485.884,263.134C483.073,262.747 479.921,263.92 477.215,263.159C474.505,262.398 473.101,259.087 470.332,259.163C466.186,259.277 463.066,264.249 459.143,264.249C458.204,264.249 458.828,261.284 458.747,260.648C458.513,258.801 456.909,258.305 455.261,258.146C451.356,257.768 447.375,258.894 443.472,258.988C437.884,259.124 432.179,258.299 426.639,259.261C420.419,260.341 414.739,262.625 408.265,262.525C405.279,262.479 406.787,258.589 405.728,258.503C401.766,258.182 397.831,261.832 393.819,261.832C392.119,261.832 393.913,259.174 392.053,259.04C388.497,258.782 384.901,261.651 381.319,262.053C376.804,262.559 372.685,260.399 368.248,260.431C362.895,260.47 357.519,262.516 352.156,262.176C349.036,261.979 351.118,258.652 348.906,258.461C342.755,257.931 337.484,258.22 335.958,258.865C334.508,259.477 335.411,263.347 335.411,263.347C335.411,263.347 331.651,264.058 329.629,263.989C328.797,263.96 325.184,264.039 324.551,263.308C323.734,262.366 324.794,261.368 323.172,260.797C320.316,259.792 316.758,261.293 314.021,262.112C311.134,262.976 307.734,263.889 305.13,265.419C302.823,266.775 301.246,268.732 298.396,269.054C294.676,269.474 294.242,264.687 289.68,264.956C284.033,265.288 278.734,268.758 273.102,269.62C267.177,270.528 260.858,271.656 254.886,271.94C251.471,272.103 247.952,271.202 244.586,271.982C241.795,272.629 241.164,275.186 238.509,275.944C235.439,276.822 234.19,273.346 228.775,275.086C225.396,276.171 221.139,276.478 218.569,275.053C216.613,273.968 214.962,277.701 211.887,275.319C209.846,273.738 208.951,270.778 207.436,269.048C205.873,267.263 203.713,266.712 203.075,265.276C201.954,262.749 203.53,261.338 203.703,259.113C203.888,256.744 200.46,252.881 202.861,248.421C204.485,245.403 200.044,244.629 200.62,241.036C201.199,237.421 203.459,232.265 203.192,228.921C202.88,225.03 198.382,226.073 196.968,223.02C196.321,221.623 197.326,219.416 197.462,217.959C197.726,215.114 197.522,211.239 197.372,208.4L192.876,204.324Z"
        style="fill: rgb(251, 239, 239)"
      />
      <clipPath id="Santa-hat_3">
        <path
          d="M192.876,204.324C195.712,203.255 198.63,201.122 198.739,197.823C198.787,196.357 197.837,194.385 198.211,192.997C198.663,191.318 201.124,189.695 202.075,188.217C202.892,186.949 203.151,184.838 204.195,183.795C205.835,182.155 209.079,184.044 211.111,181.752C214.887,177.494 212.14,171.317 218.802,169.392C220.892,168.788 221,172.011 223.033,172.176C226.172,172.43 234.156,169.403 236.72,167.805C239.37,166.153 241.203,163.395 241.845,160.352C242.047,159.396 241.863,155.623 242.973,155.202C245.38,154.289 248.871,158.861 251.796,158.292C256.231,157.43 260.566,154.119 265.335,153.283C268.208,152.778 270.597,155.127 273.647,154.393C277.084,153.567 279.895,150.891 283.47,150.554C286.573,150.262 288.987,152.209 292.106,151.929C299.118,151.3 305.83,148.563 312.867,148.103C317.672,147.789 322.599,149.418 327.351,148.418C329.994,147.861 331.729,146.18 333.974,144.885C336.037,143.695 339.361,145.866 341.392,146.319C345.853,147.315 350.713,146.349 355.263,146.664C363.684,147.247 371.595,141.918 379.672,142.429C382.097,142.583 383.597,145.615 385.916,146.434C391.28,148.331 399.298,149.205 404.988,148.507C408.109,148.124 410.405,145.439 413.236,145.085C415.888,144.754 419.31,147.337 422.148,147.515C427.677,147.863 432.84,145.98 438.283,145.702C442.36,145.494 447.592,149.571 451.312,147.06C452.944,145.958 452.916,142.263 454.325,141.65C455.129,141.301 456.205,143.06 456.538,143.532C457.45,144.822 459.406,151.352 460.777,151.499C465.692,152.026 469.771,144.867 473.903,145.353C475.248,145.512 477.449,148.367 479.138,148.899C484.158,150.478 489.599,149.577 494.592,151.214C499.344,152.771 502.211,156.448 507.493,157.028C512.619,157.591 517.819,157.256 522.964,157.581C525.593,157.747 528.58,158.745 531.204,158.275C533.658,157.835 533.827,151.975 534.592,152.031C536.944,152.205 538.005,157.543 539.652,158.875C541.141,160.079 543.793,158.126 545.7,158.841C548.369,159.842 547.503,162.422 554.535,163.992C558.377,164.85 558.482,159.657 561.517,160.871C565.157,162.327 564.16,169.13 567.883,170.991C570.074,172.087 572.576,172.543 574.462,173.644C576.634,174.91 577.752,176.95 580.685,177.799C582.552,178.339 587.437,175.824 589.22,177.615C592.599,181.01 592.219,176.903 595.109,180.154C595.545,180.644 593.694,184.521 594.665,186.093C596.735,189.446 602.057,191.547 602.405,192.869C602.764,194.232 598.816,195.864 598.962,198.079C599.164,201.138 602.856,202.706 603.027,205.782C603.237,209.573 599.381,213.487 598.711,217.07C598.065,220.521 600.364,223.554 600.315,226.974C600.264,230.573 597.963,235.067 597.255,238.742C596.7,241.625 597.472,244.216 597.379,247.075C597.261,250.689 595.302,252.67 595.592,256.593C595.944,261.345 593.658,267.815 590.93,271.337C589.836,272.748 584.283,273.61 583.819,276.614C583.337,279.738 581.096,279.696 578.499,279.209C576.433,278.821 576.373,283.261 574.583,281.553C569.192,276.407 562.382,276.208 559.768,275.365C552.715,273.09 556.344,271.505 548.927,270.284C545.556,269.73 545.248,272.723 542.938,273.991C541.542,274.758 540.869,272.135 539.43,271.804C537.337,271.322 531.311,275.003 530.238,273.087C529.65,272.037 532.158,266.453 530.629,266.071C527.872,265.381 522.838,267.299 519.887,267.467C516.434,267.663 513.378,265.974 509.987,265.807C505.908,265.606 501.685,266.869 497.678,266.377C493.594,265.876 489.915,263.688 485.884,263.134C483.073,262.747 479.921,263.92 477.215,263.159C474.505,262.398 473.101,259.087 470.332,259.163C466.186,259.277 463.066,264.249 459.143,264.249C458.204,264.249 458.828,261.284 458.747,260.648C458.513,258.801 456.909,258.305 455.261,258.146C451.356,257.768 447.375,258.894 443.472,258.988C437.884,259.124 432.179,258.299 426.639,259.261C420.419,260.341 414.739,262.625 408.265,262.525C405.279,262.479 406.787,258.589 405.728,258.503C401.766,258.182 397.831,261.832 393.819,261.832C392.119,261.832 393.913,259.174 392.053,259.04C388.497,258.782 384.901,261.651 381.319,262.053C376.804,262.559 372.685,260.399 368.248,260.431C362.895,260.47 357.519,262.516 352.156,262.176C349.036,261.979 351.118,258.652 348.906,258.461C342.755,257.931 337.484,258.22 335.958,258.865C334.508,259.477 335.411,263.347 335.411,263.347C335.411,263.347 331.651,264.058 329.629,263.989C328.797,263.96 325.184,264.039 324.551,263.308C323.734,262.366 324.794,261.368 323.172,260.797C320.316,259.792 316.758,261.293 314.021,262.112C311.134,262.976 307.734,263.889 305.13,265.419C302.823,266.775 301.246,268.732 298.396,269.054C294.676,269.474 294.242,264.687 289.68,264.956C284.033,265.288 278.734,268.758 273.102,269.62C267.177,270.528 260.858,271.656 254.886,271.94C251.471,272.103 247.952,271.202 244.586,271.982C241.795,272.629 241.164,275.186 238.509,275.944C235.439,276.822 234.19,273.346 228.775,275.086C225.396,276.171 221.139,276.478 218.569,275.053C216.613,273.968 214.962,277.701 211.887,275.319C209.846,273.738 208.951,270.778 207.436,269.048C205.873,267.263 203.713,266.712 203.075,265.276C201.954,262.749 203.53,261.338 203.703,259.113C203.888,256.744 200.46,252.881 202.861,248.421C204.485,245.403 200.044,244.629 200.62,241.036C201.199,237.421 203.459,232.265 203.192,228.921C202.88,225.03 198.382,226.073 196.968,223.02C196.321,221.623 197.326,219.416 197.462,217.959C197.726,215.114 197.522,211.239 197.372,208.4L192.876,204.324Z"
        />
      </clipPath>
      <g clip-path="url(#Santa-hat_3)">
        <path
          d="M208.49,277.395C208.533,277.414 208.568,277.429 208.59,277.436C209.164,277.63 209.772,277.765 210.369,277.865C212.086,278.153 214.181,278.316 215.869,277.834C219.578,276.774 220.68,272.719 223.766,271.158C225.697,270.182 227.596,272.606 229.579,271.101C231.316,269.783 232.015,267.443 233.769,266.156C234.989,265.262 236.584,266.054 237.675,265.215C238.588,264.512 239.6,262.045 241.022,262.364C242.436,262.681 242.827,265.119 243.612,266.115C244.222,266.888 247.842,267.549 248.832,267.392C250.544,267.12 250.509,263.935 252.556,263.443C254.889,262.882 257.414,263.542 259.806,263.086C262.59,262.555 265.341,260.805 268.195,260.797C269.743,260.792 271.026,262.249 272.417,262.151C274.015,262.038 274.826,260.084 276.753,260.151C278.749,260.219 280.167,261.694 282.029,262.152C284.546,262.771 288.142,262.126 290.616,261.528C294.494,260.59 297.589,256.768 301.504,256.381C304.075,256.126 305.53,259.257 308.331,259.183C314.851,259.011 320.862,255.126 327.205,254.149C332.049,253.403 336.762,255.727 341.474,254.986C344.735,254.474 347.047,250.884 350.167,250.548C351.361,250.419 352.468,251.999 353.381,252.574C355.064,253.635 356.984,254.109 358.962,254.161C362.456,254.255 365.772,253.347 369.228,253.106C370.981,252.983 372.869,253.596 374.566,253.309C376.598,252.965 378.388,251.846 380.439,251.597C383.928,251.173 387.458,251.901 390.954,251.486C393.908,251.135 397.005,250.005 399.983,250.77C402.586,251.438 404.607,253.797 407.393,253.774C411.196,253.743 414.023,250.237 417.689,250.169C419.18,250.141 420.337,251.409 421.669,251.916C422.88,252.376 424.953,252.232 426.855,252.364C428.607,252.143 430.42,252.137 432.035,252.013C434.052,251.859 436.223,251.524 438.199,252.125C440.775,252.909 442.806,254.715 445.59,254.852C450.968,255.117 456.221,252.478 461.618,252.813C464.533,252.994 465.95,255.772 468.853,255.647C471.777,255.521 474.891,255.174 477.708,254.375C480.571,253.564 483.467,252.189 486.52,252.596C487.964,252.788 489.607,253.624 490.442,254.858C490.899,255.533 490.269,257.163 491.082,257.217C491.685,257.257 493.165,255.995 493.705,255.727C495.933,254.621 499.048,252.848 501.654,253.389C502.669,253.599 503.882,255.585 505.143,256.048C508.216,257.176 511.66,256.742 514.637,258.27C515.59,258.759 516.848,260.967 517.643,261.181C518.096,261.303 520.141,259.806 520.618,259.621C523.135,258.646 527.099,256.997 529.882,257.746C530.261,257.849 530.637,259.001 530.929,259.3C531.888,260.279 533.102,261.006 534.391,261.46C536.958,262.363 539.61,262.001 542.225,262.533C544.982,263.094 548.22,264.738 550.774,265.93C552.006,266.505 552.758,267.338 553.343,268.543C553.498,268.863 553.808,270.236 554.208,270.328C556.524,270.857 559.83,269.242 562.336,269.435C565.755,269.698 567.941,272.852 571.212,273.4C573.292,273.748 575.846,274.342 577.944,274.24C580.743,274.104 583.493,273.211 586.32,273.818C588.311,274.246 588.953,276.105 588.8,277.995C588.183,285.628 576.255,286.136 570.768,286.443C569.195,286.531 567.619,286.566 566.043,286.563C563.781,286.559 561.519,286.473 559.26,286.352C556.676,286.213 554.095,286.022 551.516,285.804C517.776,282.955 483.844,279.106 450.325,274.293C448.295,274.001 446.266,273.702 444.24,273.381C436.532,272.16 422.901,271.147 421.058,262.126C420.992,262.144 420.929,262.161 420.867,262.179C408.366,265.722 395.103,266.803 382.195,267.611C348.241,269.739 314.38,272.219 280.614,276.504C268.764,278.008 256.927,279.618 245.064,281.021C235.608,282.139 225.999,283.384 216.556,281.568L208.49,277.395C208.259,277.291 207.797,277.053 207.854,277.065L208.49,277.395ZM593.035,265.286C592.594,264.594 592.939,262.898 592.641,262.041C592.102,260.495 591.079,260.442 590.288,261.879C589.594,263.137 589.416,267.302 591.708,267.188L593.035,265.286ZM556.423,260.243C556.475,260.509 555.734,260.813 555.669,261.177C555.465,262.314 555.581,264.178 556.883,264.661C558.224,265.158 557.519,262.292 557.367,261.834L556.423,260.243C556.416,260.211 556.398,260.179 556.366,260.148L556.423,260.243ZM220.473,259.204C220.167,259.602 219.385,259.889 219.024,260.417C216.93,263.474 221.503,262.562 221.72,260.223L220.473,259.204ZM480.642,221.802C480.564,221.865 480.476,221.92 480.379,221.964C479.989,222.144 479.362,221.743 479.143,222.227C477.375,226.142 479.137,230.881 477.111,234.971C476.916,235.363 475.657,238.283 475.174,238.27C474.975,238.265 475.458,235.672 475.485,235.501C475.769,233.718 475.957,231.866 475.673,230.071C474.862,224.927 471.418,218.954 470.848,213.799C470.571,211.297 471.49,209.334 470.102,207.909C470.012,208.433 469.896,208.957 469.749,209.482C468.918,212.474 467.939,216.924 465.539,219.113C463.011,221.42 459.335,222.237 456.756,224.672C455.292,226.053 453.909,227.548 452.638,229.109C452.533,229.238 451.685,230.548 451.508,230.512C451.167,230.444 451.801,229.881 451.967,229.575C452.286,228.987 452.613,228.405 452.909,227.804C454.087,225.412 454.978,222.899 456.019,220.448C456.094,220.27 457.14,218.032 456.402,218.19C454.934,218.504 453.314,221.291 452.071,222.179C447.76,225.258 443.545,228.198 438.625,230.248C437.608,230.672 432.942,233.11 431.828,232.047C431.574,231.805 432.844,230.722 432.995,230.558C434.363,229.081 435.882,227.701 437.127,226.116C437.835,225.215 439.445,222.864 438.331,221.704C437.623,220.967 435.689,220.697 435.618,219.425C435.577,218.685 437.87,216.136 437.123,215.486C436.381,214.841 434.772,216.331 433.955,216.304C433.583,216.292 434.504,213.746 432.549,214.462C429.987,215.4 428.402,218.25 426.69,220.206C426.14,220.835 425.241,222.307 424.304,222.421C423.917,222.467 423.597,218.796 423.39,218.298C422.956,217.258 421.86,217.126 420.918,216.782C418.401,215.862 417.114,215.11 414.928,217.521C412.421,220.287 412.643,224.507 413.302,227.908C413.513,228.998 414.816,231.381 414.241,231.285C413.931,231.234 410.261,227.646 409.048,225.446C408.481,224.417 406.378,225.247 406.656,223.741C407.115,221.251 408.023,219.64 408.437,217.09C408.497,216.72 408.93,214.81 408.359,214.604C407.735,214.38 406.036,216.697 405.701,217.051C403.196,219.699 400.364,221.887 397.164,223.645C396.847,223.819 393.852,225.616 393.503,225.266C393.092,224.855 396.566,222.214 397.288,221.227C398.154,220.044 400.2,216.805 399.882,215.476C399.7,214.714 397.845,216.055 397.952,215.787C398.286,214.951 400.442,211.978 399.815,211.109C399.58,210.784 395.775,216.073 394.445,216.464C394.336,216.497 395.277,210.321 393.347,210.638C390.412,211.119 387.703,216.304 386.196,218.447C385.856,218.931 384.697,220.885 383.864,220.617C383.342,220.449 383.416,219.354 383.486,219.012C383.974,216.635 384.839,214.323 385.393,211.954C385.461,211.661 386.02,209.433 385.505,209.347C384.56,209.189 382.804,211.67 382.285,212.245C380.631,214.078 379.283,216.23 377.56,217.988C376.111,219.466 374.425,220.293 373.6,222.331C373.067,223.648 372.822,225.04 372.631,226.44C372.606,226.624 372.627,227.84 372.447,227.942C372.417,227.96 372.174,226.844 372.16,226.764C372.02,225.974 371.892,225.186 371.797,224.389C371.516,222.022 371.605,219.665 371.878,217.301C371.916,216.972 372.399,215.132 372.055,214.903C371.843,214.762 370.264,216.469 370.095,216.623C368.371,218.202 365.913,220.442 363.618,221.125C362.586,221.433 365.914,217.87 365.617,217.652C365.32,217.435 364.246,218.087 363.965,218.194C362.722,218.671 359.922,219.299 359.81,220.953C359.596,224.105 362.99,227.424 365.159,229.194C365.51,229.48 368.424,231.255 368.292,231.748C368.23,231.982 366.749,231.714 366.588,231.695C364.799,231.487 362.997,230.451 361.72,229.111C360.612,227.95 359.641,227.003 358.878,225.609C358.774,225.419 358.278,224.244 357.954,224.348C357.613,224.457 357.772,225.629 357.782,225.861C357.807,226.435 358.022,230.636 357.617,230.137C357.011,229.389 355.183,229.029 354.668,228.91C353.714,228.689 352.88,228.409 352.089,228.936C351.964,229.019 350.762,230.289 350.845,230.799C350.938,230.917 350.977,230.976 350.935,230.947C350.884,230.911 350.855,230.86 350.845,230.799C350.425,230.263 348.894,228.51 348.746,228.275C347.754,226.702 347.375,225.395 345.349,225.308C343.387,225.223 341.467,226.476 339.879,227.651C338.477,229.619 336.891,231.472 335.124,233.188C332.573,235.665 329.773,237.888 326.789,239.819C326.338,240.111 324.333,241.708 323.753,241.518C323.706,241.503 325.824,239.101 325.985,238.935C327.82,237.044 329.639,234.963 330.959,232.671C331.164,232.315 332.239,230.601 331.447,230.322C329.92,229.784 327.058,232.046 325.882,232.738C321.029,235.59 316.348,238.705 311.397,241.393C309.84,242.239 308.217,242.974 306.568,243.621C306.406,243.684 305.179,244.278 305.078,243.989C304.819,243.247 307.098,241.216 307.504,240.774C309.99,238.068 312.524,235.401 314.888,232.586C315.262,232.141 317.178,230.474 316.96,229.755C316.889,229.52 313.407,229.05 312.798,228.512C311.488,227.353 310.327,222.99 308.559,222.656C307.308,222.419 307.344,224.969 305.265,224.147C304.63,223.896 302.28,221.401 301.837,221.554C300.548,221.997 299.573,225.342 298.335,226.282C297.727,226.744 294.696,226.666 294.634,226.783C294.333,227.345 296.97,230.504 295.913,230.681C293.283,231.12 288.424,227.371 286.058,226.376C285.379,226.091 283.218,224.906 282.46,225.382C281.817,225.785 282.741,228.454 282.847,228.99C283.563,232.614 283.978,236.288 284.702,239.907C284.749,240.145 285.769,243.937 285.736,243.953C285.544,244.042 283.502,241.317 283.334,241.12C281.191,238.617 279.028,236.141 276.825,233.69C276.52,233.351 275.192,231.406 274.653,231.494C274.541,231.512 276.437,234.808 276.573,235.026C278.462,238.049 280.42,241.066 281.97,244.282C282.112,244.577 283.4,246.909 283.155,247.195C282.943,247.441 280.594,244.877 280.417,244.695C278.392,242.619 276.427,240.471 274.331,238.465C273.809,237.965 272.76,236.609 271.914,236.733C271.058,236.858 270.719,239.123 270.507,239.74C269.589,242.402 268.806,245.567 266.59,247.491C264.059,249.689 264.478,245.851 264.433,244.145C264.429,244.025 264.396,242.475 264.282,242.486C262.706,242.639 261.571,248.623 259.825,248.708C259.767,248.711 260.481,246.44 260.522,246.325C261.102,244.727 261.749,243.155 262.386,241.579C263.963,237.673 265.72,233.838 267.181,229.885C267.597,228.759 268.835,226.598 268.597,225.343C268.596,225.336 266.231,228.456 265.989,228.833C264.898,230.528 261.897,236.406 259.398,236.529C258.902,236.553 259.12,235.128 259.137,234.895C259.27,233.065 259.526,231.25 259.696,229.425C259.711,229.263 259.899,227.438 259.588,227.436C258.436,227.431 255.903,231.347 255.221,232.067C251.204,236.306 247.466,240.717 244.126,245.517C243.512,246.4 241.542,250.615 240.484,250.864C239.814,251.022 240.872,249.541 241.133,248.904C241.674,247.583 242.247,246.276 242.806,244.963C244.589,240.774 246.578,236.498 247.279,231.962C247.402,231.167 248.062,228.299 247.213,227.689C246.712,227.329 245.873,228.428 245.628,228.714C244.272,230.293 243.089,232.013 241.725,233.587C238.748,237.021 236.861,236.688 234.01,240.365C233.711,240.751 228.842,247.625 229.545,246.182C229.691,245.883 230.474,239.397 231.544,237.071C231.758,236.607 232.962,235.049 232.876,234.55C232.769,233.927 231.848,235.285 231.33,235.646C230.276,236.381 225.4,237.595 224.215,238.093C221.515,239.229 225.17,235.191 222.267,236.057C220.41,236.61 217.951,237.801 216.038,238.149C215.844,238.184 213.185,239.268 213.087,239.008C212.922,238.569 215.922,237.069 216.204,236.903C218.993,235.252 221.673,233.424 224.35,231.599C224.669,231.381 226.838,230.211 226.852,229.737C226.862,229.38 226.141,229.589 225.833,229.409C225.227,229.054 224.808,228.494 224.416,227.925C223.871,227.133 223.866,225.632 223.264,225.014C222.683,224.418 221.164,224.158 220.421,223.742C218.742,222.804 217.415,221.525 216.134,220.104C215.776,219.708 213.108,217.229 213.739,216.533C214.19,216.036 217.953,216.983 218.668,217.039L223.486,216.694C223.123,216.607 223.441,215.436 223.216,214.946C222.692,213.807 221.957,212.719 221.054,211.85C219.943,210.78 217.692,209.827 217.159,208.293C216.558,206.558 218.417,204.145 219.023,202.613C220.206,199.619 220.507,196.371 220.686,193.183C220.807,191.039 220.806,188.89 220.801,186.743C220.8,186.571 220.68,184.739 220.95,184.737C221.683,184.731 222.402,188.47 222.534,188.941C223.488,192.363 224.174,195.819 224.77,199.317C224.884,199.985 224.847,202.633 225.397,203.113C225.424,203.136 225.78,201.936 225.805,201.85C226.069,200.968 226.339,200.089 226.642,199.219C227.723,196.106 228.409,193.994 230.028,191.123C230.164,190.881 232.291,187.556 232.186,187.906C231.399,190.516 231.016,192.015 230.948,192.339C230.256,195.625 230.329,199.211 230.812,202.555C231.016,203.969 231.47,205.714 233.123,205.946C235.976,206.347 239.451,204.83 242.185,204.133C243.311,203.846 244.753,203.704 245.585,202.802C246.795,201.488 247.051,199.236 247.313,197.565C247.682,195.221 247.818,192.849 247.794,190.477C247.791,190.184 247.511,188.404 247.913,188.258C248.277,188.125 249.167,191.646 249.348,191.929C250.879,194.319 253.855,199.435 256.081,200.198C257.096,200.545 258.668,197.797 258.96,197.141C259.457,196.027 261.401,194.066 261.493,192.848C261.613,191.262 258.575,186.46 262.247,186.01C262.919,185.928 262.947,189.475 263.129,189.928C263.496,190.848 264.151,190.821 264.309,191.802C264.643,193.874 263.58,198.833 267.534,198.965C269.861,199.043 270.496,195.652 272.37,195.42C273.094,195.33 274.284,197.88 274.784,198.369C276.876,200.414 278.974,196.425 279.924,194.989C281.391,192.77 282.323,190.318 283.014,187.762C283.089,187.485 283.843,183.811 283.996,183.879C284.65,184.166 285.214,186.374 285.476,186.974C286.737,189.859 288.695,193.304 288.292,196.56C288.237,197.007 286.752,201.107 286.797,201.155C287.033,201.404 287.183,200.588 287.377,200.306C287.733,199.785 288.114,199.279 288.495,198.777C289.319,197.69 292.528,192.969 294.194,193.255C295.312,193.446 293.617,197.21 296.312,196.836C298.673,196.507 300.892,194.767 302.711,193.345C303.029,193.097 304.387,191.541 304.868,191.73C305.346,191.918 305.376,193.739 305.44,194.138C305.941,197.242 306.691,201.403 310.196,198.087C312.966,195.467 315.018,191.872 315.663,188.105C315.743,187.639 315.82,182.202 315.909,182.193C316.43,182.143 317.383,184.001 317.608,184.328C319.217,186.658 320.856,188.923 322.321,191.351C322.76,192.078 323.174,192.82 323.562,193.575C323.758,193.955 323.83,195.013 324.14,194.719C324.336,194.534 324.023,192.956 324.008,192.701C323.898,190.805 323.786,188.87 324.271,187.015C325.084,183.907 327.993,184.172 329.131,181.57C329.843,179.942 330.265,178.2 330.913,176.546C330.973,176.392 331.415,175.041 331.732,175.196C332.171,175.412 331.802,177.967 331.788,178.353C331.692,181.103 331.851,183.965 332.48,186.654C332.621,187.255 332.981,189.022 333.757,189.147C335.296,189.395 337.275,185.761 338.01,184.825C341.51,180.372 345.676,176.751 350.404,173.634C351.865,172.671 353.345,171.73 354.84,170.821C354.952,170.752 356.116,169.973 356.205,170.268C356.459,171.106 353.541,173.587 353.074,174.125C350.523,177.059 348.147,180.467 347.524,184.391C347.436,184.943 347.368,185.496 347.316,186.05C348.322,187.362 349.459,187.906 351.098,187.465C354.141,186.645 356.316,183.895 359.484,183.326C361.114,183.033 362.529,183.815 364.087,184.088C364.586,184.176 367.031,183.817 367.318,184.153C367.336,184.173 365.292,185.912 365.162,186.036C363.385,187.728 360.558,192.438 364.243,193.827C367.306,194.982 369.642,191.444 372.411,190.724C375.78,189.847 377.669,193.009 381.054,190.391C382.624,189.176 383.359,187.304 383.851,185.443C383.913,185.209 384.338,183.767 384.153,183.622L385.89,183.875C386.16,184.332 387.858,187.324 388.229,187.703C392.341,191.901 392.305,181.299 392.582,179.377C392.632,179.03 392.84,176.195 393.397,176.162C393.735,176.142 394.492,177.929 394.667,178.188C396.011,180.176 398.483,181.57 399.137,183.999C399.226,184.33 398.934,187.578 399.073,187.598C399.394,187.644 400.682,186.145 400.942,185.935C402.315,184.829 404.737,182.908 406.632,182.993C408.148,183.06 405.798,186.841 406.531,187.207C406.98,187.432 408.952,185.952 409.376,185.737C412.008,184.409 414.91,183.079 417.847,182.627C419.914,182.309 419.035,185.749 419.308,185.668C421.85,184.915 424.692,181.693 426.644,180.032C427.028,179.706 428.662,177.898 429.27,178.02C429.357,178.037 428.879,178.804 428.845,178.863C428.542,179.388 428.272,179.919 428.045,180.482C427.578,181.643 426.484,185.566 428.776,185.701C431.736,185.875 435.234,181.788 436.626,179.664C436.796,179.407 438.803,175.855 438.827,175.872C439.169,176.117 439.046,178.24 439.105,178.649C439.457,181.116 440.953,184.546 439.842,186.948C439.553,187.573 437.047,190.198 437.265,190.742C437.331,190.907 439.31,189.593 439.468,189.504C441.117,188.573 442.958,187.878 444.739,187.24C444.973,187.156 446.175,186.592 446.416,186.833C446.554,186.971 445.461,187.932 445.364,188.037C444.934,188.501 441.389,192.091 442.61,192.734C443.37,193.134 445.086,192.729 445.936,192.729C449.769,192.729 455.557,191.332 458.03,188.062C458.956,186.837 459.328,184.38 459.643,183.17C459.713,182.899 459.729,185.499 459.833,186.022C460.115,187.45 460.329,190.76 462.207,191.073C463.075,191.218 463.243,189.907 463.325,189.332C463.646,187.088 464.04,184.858 464.402,182.621C464.427,182.468 464.759,180.134 464.919,180.161C465.079,180.187 465.281,181.548 465.319,181.697C465.782,183.502 466.047,185.361 466.389,187.191C466.589,188.258 466.845,189.323 467.131,190.387C469.21,189.409 471.862,189.602 473.645,187.859C475.876,185.678 475.169,181.84 475.295,179.018C475.33,178.232 475.104,176.48 475.643,175.826C476.025,175.363 477.148,175.326 477.68,175.203C479.261,174.839 480.765,174.256 482.319,173.803C483.461,173.471 486.073,172.466 487.256,172.915C487.262,172.917 485.509,173.961 485.322,174.059C483.985,174.756 482.714,175.522 481.571,176.511C479.161,178.596 477.505,185.215 478.88,188.166C479.427,189.342 481.067,189.33 482.193,189.329C485.292,189.328 488.374,188.269 490.987,186.62C491.973,185.998 492.875,185.242 493.657,184.378C493.912,184.096 494.158,183.805 494.401,183.513C494.525,183.364 494.703,182.887 494.774,183.067C494.836,183.226 494.342,184.165 494.29,184.355C493.963,185.548 493.788,186.77 493.591,187.989C493.553,188.226 493.207,189.248 493.385,189.463C493.723,189.87 494.112,188.694 494.503,188.337C494.981,187.9 497.641,185.728 498.289,186.783C499.151,188.185 493.577,193.603 497.256,193.761C498.413,193.811 499.577,192.803 500.417,192.134C502.944,190.12 504.759,187.691 506.36,184.901C506.623,184.443 508.212,180.737 508.867,180.798C509.04,180.814 508.611,182.965 508.589,183.116C508.396,184.448 506.993,191.164 510.06,190.352C513.561,189.425 516.608,184.238 518.997,181.782C519.169,181.605 521.827,178.761 522.068,179.436C522.259,179.972 521.735,180.953 521.55,181.433C520.914,183.081 520.144,184.661 519.614,186.35C519.561,186.519 518.956,188.454 519.103,188.494C519.373,188.57 520.29,187.272 520.434,187.11C521.772,185.606 523.174,184.143 524.717,182.846C524.875,182.713 527.131,181.035 527.14,181.077C527.277,181.732 525.693,183.61 525.404,184.194C523.762,187.504 522.471,190.702 520.254,193.717C519.665,194.519 519.086,195.332 518.446,196.094C518.362,196.194 517.37,197.2 517.425,197.253C517.57,197.397 518.487,197.049 518.653,197.01C520.026,196.689 521.375,196.208 522.695,195.718C526.508,194.301 530.207,192.563 534.054,191.238C535.016,190.907 537.213,189.721 538.251,189.976C538.324,189.994 537.508,190.591 537.433,190.64C536.838,191.031 536.253,191.443 535.676,191.858C533.596,193.355 531.721,195.242 530.26,197.353C530.121,197.554 528.853,199.159 529.145,199.395C529.744,199.88 533.51,198.264 534.211,198.103C536.578,197.558 539.108,196.784 541.537,196.612C542.395,196.551 542.516,197.462 543.279,197.574C544.835,197.804 546.678,196.287 547.784,195.393C549.35,194.126 550.697,192.6 551.901,190.99C552.037,190.808 552.782,189.49 553.109,189.628C553.495,189.79 553.087,192.623 553.06,192.969C552.832,195.988 552.148,198.539 550.377,201.04C550.155,201.355 547.902,203.733 548.005,204.028C548.044,204.141 550.409,202.91 550.555,202.828C552.857,201.533 555.107,200.152 557.195,198.531C557.384,198.384 558.866,196.992 559.125,197.176C559.291,197.296 558.181,199.481 558.094,199.679C557.12,201.898 556.446,204.223 555.378,206.409C555.166,206.843 554.188,208.224 554.981,208.585C556.229,209.154 558.66,207.598 559.584,206.924C563.822,203.836 564.658,198.511 565.468,193.689C565.707,192.266 565.955,190.845 566.26,189.433C566.295,189.269 566.441,188.229 566.716,188.224C567.076,188.218 567.026,190.912 567.028,191.144C567.04,193.365 567.086,195.586 567.144,197.806C567.162,198.509 566.938,199.813 567.286,200.455C567.38,200.63 568.333,199.054 568.39,198.955C569.137,197.655 569.878,196.327 570.803,195.142C570.924,194.987 571.565,194.064 571.863,194.294C572.281,194.618 571.898,196.261 571.847,196.678C571.557,199.024 571.327,201.373 571.093,203.724C571.062,204.033 570.611,205.91 570.848,206.139C571.143,206.423 571.234,205.415 571.424,205.052C571.782,204.366 572.146,203.685 572.514,203.005C573.942,200.362 575.739,197.944 577.153,195.293C577.28,195.055 578.15,192.898 578.493,192.997C578.97,193.134 578.851,195.627 578.867,195.969C579.012,199.082 579.507,202.345 578.781,205.416C578.561,206.352 578.213,207.264 577.795,208.129C577.594,208.546 576.716,209.439 577.173,209.369C577.799,209.272 579.43,206.195 579.817,205.69C581.852,203.041 584.054,200.558 586.903,198.762C587.764,198.219 589.127,197.278 590.218,197.327C590.499,197.34 588.189,200.843 587.97,201.248C586.766,203.471 583.666,209.002 585.11,211.673C585.553,212.492 586.683,212.043 587.251,211.645C588.836,210.531 589.704,208.694 591.168,207.455C591.704,207.002 593.523,206.053 593.55,207.535C593.555,207.805 591.046,209.808 590.771,210.223C589.115,212.721 588.002,215.745 587.27,218.645C586.765,220.646 586.662,222.691 587.341,224.666C587.461,225.015 589,227.298 588.857,227.501C588.139,228.526 585.555,225.034 585.172,225.943C584.41,227.75 585.499,230.783 586.374,232.355C587.312,234.037 589.335,235.213 586.679,236.607C585.892,237.02 585.208,236.108 584.771,235.582C583.513,234.068 582.648,232.357 581.847,230.572C581.746,230.347 580.965,228.187 580.457,228.742C579.853,229.403 580.121,231.303 580.145,232.096C580.245,235.358 580.74,238.605 581.362,241.803C581.577,242.906 581.847,243.981 582.186,245.052C582.35,245.568 583.258,246.637 582.719,246.587C582.65,246.58 582.301,245.756 582.255,245.679C581.73,244.797 581.085,243.974 580.341,243.265C576.987,240.073 573.857,239.836 573.173,234.684C572.947,232.975 572.887,231.216 572.925,229.493C572.929,229.315 572.946,226.873 572.877,226.909C572.536,227.086 572.381,228.131 572.286,228.451C571.824,230.013 571.441,231.603 571.313,233.231C570.783,239.962 573.251,247.007 574.981,253.427C575.527,255.452 576.089,257.469 576.654,259.488C576.692,259.622 577.295,261.281 577.129,261.346C576.894,261.438 576.1,260.283 575.979,260.141C574.933,258.916 574,256.969 572.75,255.982C572.503,255.786 571.393,259.653 570.944,259.17C570.171,258.338 570.118,256.12 569.775,255.066C568.777,251.997 567.348,249.091 566.336,246.031C565.984,244.964 565.678,243.877 565.453,242.776C565.439,242.707 565.309,241.765 565.244,241.759C565.231,241.758 565.057,242.991 565.046,243.06C564.922,243.878 564.752,244.692 564.549,245.495C563.991,247.703 562.931,251.649 561.159,253.318C561.031,253.439 561.099,251.669 561.114,251.507C561.236,250.194 561.358,248.881 561.404,247.562C561.411,247.347 561.548,246.465 561.247,246.375C560.903,246.273 559.877,247.665 559.675,247.874C558.227,249.377 556.535,250.268 554.658,251.117C554.369,251.248 552.839,252.188 552.556,251.904C552.377,251.725 552.855,250.963 552.931,250.791C553.454,249.61 553.94,248.419 554.358,247.196C555.388,244.178 557.244,238.923 556.376,235.724C556.147,234.882 555.292,234.284 554.886,233.516C554.525,232.833 554.145,230.506 553.226,230.382C551.96,230.212 551.158,233.089 550.933,233.948C550.875,234.172 550.767,235.149 550.501,235.235C550.138,235.352 549.11,233.696 548.88,233.467C547.186,231.782 545.577,232.871 544.522,234.654C543.132,237.005 542.133,239.643 541.09,242.161C541.013,242.345 540.248,244.55 540.099,244.536C539.923,244.52 539.843,241.997 539.834,241.826C539.681,239.176 539.552,236.519 539.461,233.865C539.449,233.535 539.454,231.503 538.752,231.622C537.718,231.798 536.466,234.161 535.855,234.883C533.731,237.39 531.126,239.604 528.486,241.555C527.878,242.004 525.221,244.024 524.31,243.458C524.183,243.379 525.437,242.296 525.507,242.236C526.32,241.543 527.106,240.815 527.849,240.049C530.173,237.651 532.036,234.791 532.963,231.558C533.14,230.94 533.83,229.113 533.326,228.531C532.644,227.744 530.325,230.589 529.997,231.039C529.946,231.109 529.393,232.023 529.315,231.996C529.265,231.978 529.565,230.77 529.581,230.686C529.735,229.911 530.533,227.193 529.333,226.808C526.781,225.988 527.02,232.081 526.02,232.911C525.606,233.255 525.999,231.835 525.999,231.297C525.999,230.194 526.297,228.194 524.733,228.128C523.247,228.065 521.899,229.191 521.584,230.611C521.454,231.199 521.442,231.801 521.465,232.401C521.475,232.687 521.839,233.282 521.554,233.256C521.396,233.241 520.708,231.058 520.625,230.86C519.749,228.748 518.484,226.885 517.431,224.871C517.188,224.406 516.769,222.98 516.062,223.055C514.666,223.202 514.025,226.273 513.77,227.271C512.824,230.976 512.153,233.276 508.659,235.094C508.285,235.289 506.076,236.759 505.664,236.549C505.55,236.49 506.607,233.448 506.659,233.232C507.336,230.416 507.162,227.622 507.019,224.763C506.998,224.342 507.186,222.448 506.767,222.188C506.645,222.112 506.179,224.725 505.531,224.733C502.665,224.769 500.696,221.226 498.034,223.473C496.733,224.571 495.721,225.959 494.379,227.018C494.236,227.131 493.099,227.984 492.904,227.59C492.685,227.147 494.057,225.596 494.248,225.213C495.35,222.999 495.834,220.353 496.582,218.002C496.703,217.624 497.575,215.041 496.825,214.866C495.992,214.671 495.591,216.189 494.989,216.483C494.082,216.925 493.106,216.56 492.144,217.231C490.535,218.354 489.327,220.276 487.528,221.112C485.248,222.171 484.385,217.827 482.936,217.144C482.263,216.826 481.586,220.033 481.436,220.414C481.39,220.534 481.343,220.657 481.294,220.781C483.88,221.567 485.513,225.465 485.521,227.684C485.524,228.677 485.528,229.701 485.333,230.678C485.316,230.76 485.169,231.55 484.989,231.468C484.706,231.34 484.559,230.244 484.472,229.97C484.013,228.511 483.414,227.102 482.744,225.729C482.146,224.505 481.153,223.224 480.696,221.983L480.642,221.802ZM595.259,252.726C595.339,252.724 594.962,251.764 594.935,251.71C594.595,251.023 593.565,250.222 592.954,251.092C592.609,251.583 592.539,252.26 592.452,252.837C592.236,254.275 591.71,258.608 593.203,259.631C594.692,260.652 594.834,255.954 594.87,255.389L595.259,252.726ZM212.387,257.006C212.568,257.089 213.589,255.982 213.719,255.861C214.689,254.957 217.763,251.92 219.064,253.762C219.485,254.358 219.079,255.102 218.752,255.636C218.105,256.694 214.433,260.864 213.229,258.73L212.387,257.006ZM547.749,252.644C546.677,253.621 547.347,257.262 547.918,258.305C548.901,260.102 549.855,259.037 549.727,257.375C549.684,256.821 549.566,256.277 549.493,255.728C549.396,254.99 549.479,254.078 549.151,253.396L547.749,252.644ZM241.351,255.145C240.991,255.378 240.705,255.522 240.489,255.932C239.212,258.361 243.876,258.562 242.769,256.099L241.351,255.145ZM589.911,246.781C588.847,245.611 587.322,248.635 587.779,249.61C589.158,252.549 592.478,251.571 590.95,248.356L589.911,246.781ZM208.651,243.322C208.642,243.301 208.286,243.978 208.271,244.022C208.108,244.505 208.029,245.011 207.924,245.508C207.72,246.475 206.388,250.754 208.153,251.093C208.891,251.236 209.426,250.135 209.666,249.61C210.21,248.421 211.747,244.4 210.246,243.44L208.651,243.322ZM509.301,243.487C508.298,245.043 509.185,249.222 510.786,250.106C512.205,250.89 513.422,249.785 512.789,248.342C512.535,247.766 512.172,247.248 511.902,246.68C511.495,245.827 511.258,244.92 510.879,244.06L509.301,243.487ZM485.934,244.854C484.169,245.608 484.943,250.178 487.032,250.186C488.951,250.194 488.529,245.9 487.304,245.343L485.934,244.854ZM452.497,240.384C452.611,240.074 452.208,240.988 452.161,241.315C452.064,241.976 451.983,242.649 451.928,243.315C451.824,244.582 451.897,245.529 451.022,246.546C450.848,246.748 449.265,248.164 449.772,248.479C450.217,248.755 451.343,247.902 451.663,247.677C453.551,246.345 454.09,244.233 453.543,242.032L452.497,240.384ZM342.905,243.163C342.809,242.702 342.583,244.065 342.562,244.536C342.528,245.29 342.439,247.722 343.557,247.887C344.608,248.042 344.118,244.06 343.989,243.549L342.905,243.163ZM366.382,241.602C366.276,241.416 365.508,242.418 365.456,242.485C364.759,243.394 363.69,244.401 363.805,245.648C363.898,246.653 365.206,246.454 365.834,246.114C366.918,245.528 367.525,244.299 367.569,243.096L366.382,241.602ZM410.859,240.707C410.873,240.652 410.655,241.035 410.634,241.161C410.568,241.558 410.563,241.961 410.494,242.358C410.374,243.048 408.971,245.94 409.889,246.247C412.231,247.032 413.28,242.429 412.452,240.987L410.859,240.707ZM299.054,238.989C299.264,239.441 298.374,239.733 298.141,240.174C297.539,241.315 296.952,242.895 297.916,244.01C299.762,246.146 301.932,240.522 301.065,239.479L299.054,238.989ZM469.135,238.351C468.603,238.771 468.066,239.43 467.574,239.969C467.234,240.342 466.879,240.73 466.614,241.161C465.938,242.261 466.085,243.735 467.726,243.511C469.261,243.302 471.89,240.838 471.042,239.125L469.135,238.351ZM447.762,236.055C447.775,237.556 447.153,239.376 446.559,240.727C446.329,241.252 445.761,242.225 446.258,242.756C446.899,243.441 448.055,242.566 448.493,242.08C449.459,241.008 450.744,238.084 449.544,236.772L447.762,236.055ZM385.971,235.486C386.121,235.64 385.724,235.847 385.661,236.052C385.524,236.502 385.504,236.989 385.557,237.454C385.695,238.682 386.723,239.903 387.725,240.572C388.738,241.249 390.192,241.308 389.834,239.65C389.551,238.344 388.555,236.264 387.429,235.468L385.971,235.486ZM203.952,229.335L206.544,224.37C207.375,225.02 207.346,226.945 207.375,227.874C207.454,230.485 207.055,232.974 206.706,235.551C206.541,236.772 206.594,238.156 205.768,239.16C205.047,240.037 201.62,242.048 201.036,240.204C200.494,238.493 201.487,236.076 201.961,234.457L203.957,229.322L203.952,229.335ZM599.484,228.529C599.401,228.665 599.275,228.837 599.21,228.926C598.948,229.284 598.674,229.633 598.407,229.986C597.65,230.989 596.696,232.138 596.486,233.412C596.41,233.873 596.526,236.281 597.45,235.973C598.186,235.727 598.553,234.432 598.794,233.808L599.484,228.529C599.564,228.398 599.604,228.3 599.507,228.347L599.484,228.529ZM198.905,218.685C198.843,218.827 199.243,218.635 199.371,218.724C199.687,218.943 199.911,219.313 200.179,219.585C201.175,220.596 202.068,221.64 203.014,222.694C203.253,222.961 204.019,223.557 203.729,223.999C203.44,224.442 202.636,224.586 202.174,224.76C199.545,225.747 196.776,223.832 196.865,220.93L198.905,218.685ZM593.215,219.944C593.389,219.805 592.793,220.145 592.674,220.332C592.411,220.746 592.263,221.235 592.206,221.72C592.061,222.971 592.949,224.242 594.251,224.382C596.993,224.677 594.046,221.95 593.923,221.204L593.215,219.944ZM223.486,216.694L223.621,216.684C223.568,216.701 223.523,216.703 223.486,216.694ZM202.477,203.258C202.46,203.361 202.306,203.712 202.288,203.868C202.24,204.273 202.276,204.681 202.335,205.082C202.496,206.169 203.039,208.932 204.672,208.698C206.52,208.432 205.418,203.433 203.822,203.341L202.477,203.258C202.483,203.223 202.473,203.217 202.437,203.256L202.477,203.258ZM587.958,189.476C587.917,189.258 587.321,190.553 587.309,190.782C587.253,191.83 587.652,192.898 588.708,193.264C590.492,193.88 590.001,191.283 589.611,190.45L587.958,189.476ZM545.185,180.022C544.119,180.308 543.299,180.934 542.526,181.714C542.007,182.238 541.511,182.788 541.115,183.413C540.724,184.031 539.874,187.52 541.737,186.642C543.088,186.006 543.2,184.158 544.039,183.105C544.409,182.641 545.241,182.813 545.719,182.463C546.096,182.187 546.229,181.682 546.185,181.233L545.185,180.022ZM298.975,182.576C299.122,182.713 298.297,182.753 298.06,182.942C297.596,183.312 296.409,184.37 296.851,185.053C297.443,185.968 300.272,184.443 300.269,183.48L298.975,182.576C298.966,182.568 298.955,182.56 298.939,182.551L298.975,182.576ZM574.366,180.778C573.829,181.185 573.795,181.669 573.55,182.306C573.394,182.714 573.246,183.107 573.143,183.533C572.262,187.195 577.794,183.496 576.063,181.126L574.366,180.778ZM230.389,177.114C230.388,177.092 230.202,177.607 230.193,177.738C230.164,178.203 230.235,178.69 230.36,179.138C230.69,180.321 231.961,182.696 233.559,182.158C235.843,181.391 233.605,176.566 231.9,176.7L230.389,177.114ZM549.019,174.952C547.23,174.303 546.059,177.512 547.684,178.532C550.028,180.003 549.927,178.082 549.781,176.643C549.721,176.05 550.158,175.409 549.639,174.948L549.019,174.952ZM380.026,167.559C380.225,167.35 379.521,167.869 379.346,168.099C379.009,168.54 378.826,169.114 378.649,169.633C378.084,171.285 378.023,172.891 377.821,174.603C377.768,175.051 377.589,176.077 378.155,176.325C378.819,176.617 379.609,175.5 379.908,175.084C381.126,173.388 381.272,171.112 381.039,169.102L380.026,167.559ZM463.246,170.93C462.556,170.866 461.929,170.606 461.176,170.648C460.737,170.673 460.3,170.739 459.876,170.851C458.326,171.263 458.293,172.308 459.711,172.974C460.951,173.557 462.879,174.31 464.281,174.215C465.719,174.116 465.552,172.445 464.843,171.592L463.246,170.93ZM234.833,169.074C234.973,169.173 236.756,169.01 237.154,169.054C239.62,169.327 242.328,169.615 244.194,167.699C244.6,167.282 245.375,166.518 245.336,165.864C245.29,165.109 243.002,167.01 242.713,166.41C242.064,165.061 243.176,158.796 241.152,162.389C240.957,162.734 240.766,163.081 240.568,163.425C240.226,164.022 239.865,164.605 239.495,165.185L234.833,169.074ZM289.552,166.873C289.757,166.593 288.856,166.668 288.725,166.77C288.338,167.071 288.305,167.655 288.469,168.082C288.766,168.859 290.543,169.859 290.345,168.393L289.552,166.873ZM310.106,164.443C310.072,164.282 309.924,164.718 309.826,164.851C309.621,165.125 309.409,165.39 309.186,165.65C308.829,166.064 306.959,167.9 307.574,168.524C307.89,168.845 308.658,168.455 308.954,168.293C309.941,167.753 311.029,166.408 310.995,165.223L310.106,164.443ZM472.519,164.918C469.756,164.111 470.949,169.901 472.589,167.477C472.78,167.195 472.889,166.892 472.943,166.558L472.519,164.918ZM321.325,161.472C321.217,161.375 320.314,163.057 320.237,163.199C319.766,164.07 318.145,166.709 319.424,167.555C320.139,168.027 321.09,167.252 321.564,166.766C322.572,165.734 324.341,162.731 322.888,161.391L321.325,161.472ZM532.004,162.847C531.444,163.205 531.096,163.556 530.743,164.151C530.497,164.566 530.283,164.995 530.134,165.455C528.996,168.972 533.769,167 533.635,164.316L532.004,162.847ZM512.434,162.558C512.399,162.749 512.044,162.51 511.851,162.536C511.444,162.591 511.081,162.737 510.714,162.918C509.414,163.562 507.055,164.918 507.268,166.675C507.368,167.498 508.512,167.377 509.041,167.184C510.08,166.807 513.812,164.986 513.632,163.662L512.434,162.558ZM253.553,166.99C252.987,167.185 253.938,165.701 254.049,165.615C254.851,164.988 256.316,164.163 257.367,164.683C258.586,165.285 256.042,166.906 255.616,167.063L253.553,166.99ZM298.932,164.079C298.996,164.297 297.244,166.3 297.683,166.897C298.214,167.618 299.482,165.552 299.613,165.232L298.932,164.079C298.931,164.074 298.929,164.07 298.925,164.067L298.932,164.079ZM554.714,164.396C554.738,164.397 556.105,165.682 556.211,165.769C557.559,166.863 559.548,167.668 560.75,165.976C561.264,165.253 562.453,161.197 560.5,161.376C559.287,161.487 557.957,163.111 557.093,163.847L554.714,164.396ZM422.612,159.858C420.973,160.597 420.691,163.825 421.643,165.209C422.61,166.614 423.736,165.475 423.84,164.218C423.881,163.716 423.864,163.213 423.849,162.71C423.827,162.012 423.826,161.267 423.63,160.591L422.612,159.858ZM269.346,161.149C269.37,161.42 268.763,161.185 268.56,161.366C268.038,161.834 267.736,162.52 267.995,163.211C268.391,164.271 269.841,165.546 271.061,165.424C272.451,165.286 272.102,163.416 271.538,162.688L269.346,161.149ZM388.66,157.377C388.409,157.498 388.122,157.392 387.858,157.65C386.193,159.283 391.374,160.772 390.19,159.038L388.66,157.377ZM272.039,156.754C271.822,156.515 270.884,157.912 271.117,158.384C271.449,159.055 272.797,158.881 273.368,158.79C274.293,158.643 275.361,158.336 276.035,157.642C277.209,156.432 275.531,155.893 274.506,156.051L272.039,156.754ZM352.067,153.187C351.892,152.932 351.528,153.603 351.501,153.701C351.364,154.207 351.617,154.812 351.803,155.276C352.328,156.59 354.035,158.312 355.606,157.911C357.374,157.46 354.216,154.623 353.741,154.143L352.067,153.187ZM494.406,151.348C494.061,151.408 494.91,151.853 495.063,152.168C495.415,152.896 495.701,153.658 496.1,154.363C496.689,155.405 497.444,156.787 498.648,157.195C499.502,157.485 502.953,157.504 502.683,155.894C502.508,154.846 500.952,154.03 500.134,153.597L494.406,151.348ZM404.039,155.365C403.666,155.472 403.281,155.373 402.868,155.566C399.503,157.142 404.645,157.91 405.148,156.282L404.039,155.365ZM436.777,147.449C435.816,146.625 434.676,148.487 435.146,149.362C436.155,151.241 439.717,151.696 438.579,148.774L436.777,147.449ZM375.182,143.734C374.765,143.695 375.851,144.242 376.168,144.516C376.806,145.066 377.412,145.653 378.037,146.217C380.216,148.185 381.629,147.983 384.285,147.601C384.821,147.523 386.211,147.583 386.594,147.131C386.952,146.708 385.458,145.741 385.24,145.591C383.589,144.447 381.632,143.293 379.655,142.858L375.182,143.734Z"
          style="fill: rgb(158, 133, 152)"
        />
      </g>
      <path
        d="M192.876,204.324C195.712,203.255 198.63,201.122 198.739,197.823C198.787,196.357 197.837,194.385 198.211,192.997C198.663,191.318 201.124,189.695 202.075,188.217C202.892,186.949 203.151,184.838 204.195,183.795C205.835,182.155 209.079,184.044 211.111,181.752C214.887,177.494 212.14,171.317 218.802,169.392C220.892,168.788 221,172.011 223.033,172.176C226.172,172.43 234.156,169.403 236.72,167.805C239.37,166.153 241.203,163.395 241.845,160.352C242.047,159.396 241.863,155.623 242.973,155.202C245.38,154.289 248.871,158.861 251.796,158.292C256.231,157.43 260.566,154.119 265.335,153.283C268.208,152.778 270.597,155.127 273.647,154.393C277.084,153.567 279.895,150.891 283.47,150.554C286.573,150.262 288.987,152.209 292.106,151.929C299.118,151.3 305.83,148.563 312.867,148.103C317.672,147.789 322.599,149.418 327.351,148.418C329.994,147.861 331.729,146.18 333.974,144.885C336.037,143.695 339.361,145.866 341.392,146.319C345.853,147.315 350.713,146.349 355.263,146.664C363.684,147.247 371.595,141.918 379.672,142.429C382.097,142.583 383.597,145.615 385.916,146.434C391.28,148.331 399.298,149.205 404.988,148.507C408.109,148.124 410.405,145.439 413.236,145.085C415.888,144.754 419.31,147.337 422.148,147.515C427.677,147.863 432.84,145.98 438.283,145.702C442.36,145.494 447.592,149.571 451.312,147.06C452.944,145.958 452.916,142.263 454.325,141.65C455.129,141.301 456.205,143.06 456.538,143.532C457.45,144.822 459.406,151.352 460.777,151.499C465.692,152.026 469.771,144.867 473.903,145.353C475.248,145.512 477.449,148.367 479.138,148.899C484.158,150.478 489.599,149.577 494.592,151.214C499.344,152.771 502.211,156.448 507.493,157.028C512.619,157.591 517.819,157.256 522.964,157.581C525.593,157.747 528.58,158.745 531.204,158.275C533.658,157.835 533.827,151.975 534.592,152.031C536.944,152.205 538.005,157.543 539.652,158.875C541.141,160.079 543.793,158.126 545.7,158.841C548.369,159.842 547.503,162.422 554.535,163.992C558.377,164.85 558.482,159.657 561.517,160.871C565.157,162.327 564.16,169.13 567.883,170.991C570.074,172.087 572.576,172.543 574.462,173.644C576.634,174.91 577.752,176.95 580.685,177.799C582.552,178.339 587.437,175.824 589.22,177.615C592.599,181.01 592.219,176.903 595.109,180.154C595.545,180.644 593.694,184.521 594.665,186.093C596.735,189.446 602.057,191.547 602.405,192.869C602.764,194.232 598.816,195.864 598.962,198.079C599.164,201.138 602.856,202.706 603.027,205.782C603.237,209.573 599.381,213.487 598.711,217.07C598.065,220.521 600.364,223.554 600.315,226.974C600.264,230.573 597.963,235.067 597.255,238.742C596.7,241.625 597.472,244.216 597.379,247.075C597.261,250.689 595.302,252.67 595.592,256.593C595.944,261.345 593.658,267.815 590.93,271.337C589.836,272.748 584.283,273.61 583.819,276.614C583.337,279.738 581.096,279.696 578.499,279.209C576.433,278.821 576.373,283.261 574.583,281.553C569.192,276.407 562.382,276.208 559.768,275.365C552.715,273.09 556.344,271.505 548.927,270.284C545.556,269.73 545.248,272.723 542.938,273.991C541.542,274.758 540.869,272.135 539.43,271.804C537.337,271.322 531.311,275.003 530.238,273.087C529.65,272.037 532.158,266.453 530.629,266.071C527.872,265.381 522.838,267.299 519.887,267.467C516.434,267.663 513.378,265.974 509.987,265.807C505.908,265.606 501.685,266.869 497.678,266.377C493.594,265.876 489.915,263.688 485.884,263.134C483.073,262.747 479.921,263.92 477.215,263.159C474.505,262.398 473.101,259.087 470.332,259.163C466.186,259.277 463.066,264.249 459.143,264.249C458.204,264.249 458.828,261.284 458.747,260.648C458.513,258.801 456.909,258.305 455.261,258.146C451.356,257.768 447.375,258.894 443.472,258.988C437.884,259.124 432.179,258.299 426.639,259.261C420.419,260.341 414.739,262.625 408.265,262.525C405.279,262.479 406.787,258.589 405.728,258.503C401.766,258.182 397.831,261.832 393.819,261.832C392.119,261.832 393.913,259.174 392.053,259.04C388.497,258.782 384.901,261.651 381.319,262.053C376.804,262.559 372.685,260.399 368.248,260.431C362.895,260.47 357.519,262.516 352.156,262.176C349.036,261.979 351.118,258.652 348.906,258.461C342.755,257.931 337.484,258.22 335.958,258.865C334.508,259.477 335.411,263.347 335.411,263.347C335.411,263.347 331.651,264.058 329.629,263.989C328.797,263.96 325.184,264.039 324.551,263.308C323.734,262.366 324.794,261.368 323.172,260.797C320.316,259.792 316.758,261.293 314.021,262.112C311.134,262.976 307.734,263.889 305.13,265.419C302.823,266.775 301.246,268.732 298.396,269.054C294.676,269.474 294.242,264.687 289.68,264.956C284.033,265.288 278.734,268.758 273.102,269.62C267.177,270.528 260.858,271.656 254.886,271.94C251.471,272.103 247.952,271.202 244.586,271.982C241.795,272.629 241.164,275.186 238.509,275.944C235.439,276.822 234.19,273.346 228.775,275.086C225.396,276.171 221.139,276.478 218.569,275.053C216.613,273.968 214.962,277.701 211.887,275.319C209.846,273.738 208.951,270.778 207.436,269.048C205.873,267.263 203.713,266.712 203.075,265.276C201.954,262.749 203.53,261.338 203.703,259.113C203.888,256.744 200.46,252.881 202.861,248.421C204.485,245.403 200.044,244.629 200.62,241.036C201.199,237.421 203.459,232.265 203.192,228.921C202.88,225.03 198.382,226.073 196.968,223.02C196.321,221.623 197.326,219.416 197.462,217.959C197.726,215.114 197.522,211.239 197.372,208.4L192.876,204.324Z"
        style="fill: none; stroke: black; stroke-width: 2.1px"
      />
    </g>
  </g>
</svg>
