<svg viewBox="0 0 800 800" xmlns="http://www.w3.org/2000/svg">
  <g id="Punk-emotions" transform="matrix(0.388951,0,0,0.388951,2.34032,2.21244)">
    <g id="Annoyed">
      <g>
        <g id="Mouth">
          <path
            d="M1051.58,1326.43C1051.41,1325.89 1047.76,1326.62 1047.41,1326.67C1043.04,1327.19 1038.63,1327.47 1034.29,1328.13C1021.73,1330.03 1011.19,1335.44 1002.63,1344.77C1000.02,1347.61 995.57,1353.07 995.996,1357.36C996.182,1359.24 1001,1359.38 1002.22,1359.44C1008.84,1359.81 1015.55,1358.53 1022.19,1358.51C1031.51,1358.47 1040.47,1358.33 1049.75,1359.21C1052.05,1359.43 1054.34,1359.59 1056.61,1360.09C1057.12,1360.2 1058.54,1360.82 1059.06,1360.47C1059.27,1360.33 1058.34,1358.37 1058.26,1358.16C1057.37,1355.77 1056.66,1353.17 1056.18,1350.67C1054.76,1343.37 1053.31,1335.95 1053.08,1328.5"
            style="fill: white"
          />
          <clipPath id="_clip1_punk_annoyed_mouth">
            <path
              d="M1051.58,1326.43C1051.41,1325.89 1047.76,1326.62 1047.41,1326.67C1043.04,1327.19 1038.63,1327.47 1034.29,1328.13C1021.73,1330.03 1011.19,1335.44 1002.63,1344.77C1000.02,1347.61 995.57,1353.07 995.996,1357.36C996.182,1359.24 1001,1359.38 1002.22,1359.44C1008.84,1359.81 1015.55,1358.53 1022.19,1358.51C1031.51,1358.47 1040.47,1358.33 1049.75,1359.21C1052.05,1359.43 1054.34,1359.59 1056.61,1360.09C1057.12,1360.2 1058.54,1360.82 1059.06,1360.47C1059.27,1360.33 1058.34,1358.37 1058.26,1358.16C1057.37,1355.77 1056.66,1353.17 1056.18,1350.67C1054.76,1343.37 1053.31,1335.95 1053.08,1328.5"
            />
          </clipPath>
          <g clip-path="url(#_clip1_punk_annoyed_mouth)">
            <path
              d="M1034.68,1355.39C1034.6,1355.59 1033.85,1355.57 1034.06,1355.6C1035.37,1355.77 1037.73,1354.61 1038.97,1354.22C1040.92,1353.61 1045.81,1353.49 1047.34,1352.1C1047.74,1351.72 1047.5,1349.83 1047.48,1349.35C1047.32,1346.62 1046.92,1343.89 1046.69,1341.16C1046.59,1339.94 1047.5,1334.97 1045.85,1334.64C1043.09,1334.1 1040.15,1335.05 1037.42,1335.29C1029.31,1335.99 1021.87,1337.77 1015.1,1342.35C1012.35,1344.21 1008.15,1346.23 1007.54,1349.96C1007.15,1352.36 1012.15,1354.68 1013.84,1355.61C1014.1,1355.76 1016.94,1356.88 1016.86,1357.01C1016.3,1357.88 1013.47,1358.09 1012.59,1358.27C1008.5,1359.07 1004.35,1359.41 1000.19,1359.08C998.029,1358.91 995.684,1359.02 996.443,1356.32C998.477,1349.1 1003.62,1343.93 1009.5,1339.57C1017.76,1333.42 1026.22,1329.07 1036.54,1327.79C1040.37,1327.31 1044.24,1327.73 1048.08,1327.58C1048.85,1327.55 1051.5,1326.93 1052.14,1327.62C1053.37,1328.95 1052.97,1334.21 1053.17,1336.04C1053.84,1342.12 1055.26,1347.95 1056.76,1353.87C1057.13,1355.36 1057.55,1356.89 1058.14,1358.32C1058.18,1358.42 1058.9,1359.59 1058.87,1359.65C1058.75,1359.82 1056.62,1359.5 1056.54,1359.5"
              style="fill: rgb(193, 157, 197)"
            />
          </g>
          <path
            d="M1067.33,1325.8C1066.77,1325.21 1063.73,1325.79 1063.03,1325.78C1058.82,1325.72 1054.7,1325.54 1050.5,1326C1038.89,1327.27 1025.91,1326.96 1015.61,1333.35C1011.38,1335.98 1008.04,1338.33 1004.82,1342.06C1002.42,1344.85 994.201,1353.51 995.781,1358.25C995.981,1358.85 997.972,1358.96 998.416,1358.96C1002.56,1358.96 1006.69,1358.39 1010.83,1358.45C1025.78,1358.67 1043.14,1355.95 1057.68,1359.83C1060.97,1360.7 1064.14,1361.46 1067.52,1361.94C1068.28,1362.04 1070.44,1362.15 1070.69,1363.18"
            style="fill: none; stroke: rgb(13, 0, 0); stroke-width: 5.4px"
          />
          <path
            d="M1052.72,1326.12C1053.16,1326.39 1052.71,1329.63 1052.71,1330.08C1052.74,1333.94 1053.22,1337.82 1053.74,1341.64C1054.35,1346.15 1055.87,1350.58 1057.7,1354.73C1058.32,1356.16 1060.49,1358.55 1060.66,1360.05"
            style="fill: none; stroke: rgb(13, 0, 0); stroke-width: 5.4px"
          />
          <path d="M998.62,1397.72C999.612,1399.41 1010.97,1401.46 1014.41,1402.09C1032.2,1405.35 1050.13,1402.51 1067.08,1396.6" style="fill: none; stroke: rgb(13, 0, 0); stroke-width: 5.4px" />
          <g transform="matrix(2.57102,0,0,2.57102,-6.01701,-5.68822)">
            <path
              d="M417.198,536.572C416.409,535.611 409.156,538.043 409.825,539.059C410.927,540.731 415.458,540.027 417.015,539.572C417.762,539.354 419.359,538.825 418.904,537.734"
              style="fill: rgb(252, 255, 216); fill-opacity: 0.6"
            />
          </g>
        </g>
      </g>
    </g>
  </g>
</svg>