<svg viewBox="0 0 800 800" xmlns="http://www.w3.org/2000/svg">
  <g transform="matrix(0.88685,0,0,0.88685,45.1133,13.2405)">
    <g id="heads">
      <g id="head-3">
        <path
          d="M259.036,532.267C279.289,453.722 529.405,448.278 539.079,528.671C539.079,528.671 538.729,542.882 535.37,554.204C531.795,566.253 527.844,578.271 522.821,588.117C502.848,627.274 475.7,650.172 438.915,673.554C429.911,679.276 419.631,683.578 408.869,684.048C408.274,684.074 403.844,684.512 399.671,684.51C396.022,684.508 392.571,684.071 392.05,684.048C381.288,683.578 371.008,679.276 362.005,673.554C325.219,650.172 300.147,625.496 278.209,587.405C271.928,576.5 268.578,564.294 263.715,552.705C260.729,545.588 259.036,532.267 259.036,532.267Z"
          style="fill: rgb(66, 31, 67); fill-opacity: 0.5"
        />
        <path
          d="M399.671,88.147C490.052,88.254 564.06,144.284 589.585,208.846C600.96,237.618 593.572,287.361 589.056,318.333C585.632,341.807 581.772,365.481 580.322,389.166C579.23,407 580.096,425.518 578.312,443.311C574.367,482.666 551.281,530.547 534.205,552.14C521.863,567.747 504.429,587.568 486.676,605.381C460.642,631.503 444.528,647.784 399.592,647.597C354.656,647.784 338.541,631.503 312.507,605.381C294.755,587.568 277.321,567.747 264.979,552.14C247.903,530.547 224.817,482.666 220.872,443.311C219.088,425.518 219.953,407 218.862,389.166C217.411,365.481 213.551,341.807 210.128,318.333C205.611,287.361 198.224,237.618 209.599,208.846C235.123,144.284 309.132,88.254 399.513,88.147L399.513,88.147L399.592,88.147L399.671,88.147L399.671,88.147Z"
          style="fill: var(--color_skin, rgb(240, 205, 177))"
        />
        <clipPath id="_clip14_Business_head">
          <path
            d="M399.671,88.147C490.052,88.254 564.06,144.284 589.585,208.846C600.96,237.618 593.572,287.361 589.056,318.333C585.632,341.807 581.772,365.481 580.322,389.166C579.23,407 580.096,425.518 578.312,443.311C574.367,482.666 551.281,530.547 534.205,552.14C521.863,567.747 504.429,587.568 486.676,605.381C460.642,631.503 444.528,647.784 399.592,647.597C354.656,647.784 338.541,631.503 312.507,605.381C294.755,587.568 277.321,567.747 264.979,552.14C247.903,530.547 224.817,482.666 220.872,443.311C219.088,425.518 219.953,407 218.862,389.166C217.411,365.481 213.551,341.807 210.128,318.333C205.611,287.361 198.224,237.618 209.599,208.846C235.123,144.284 309.132,88.254 399.513,88.147L399.513,88.147L399.592,88.147L399.671,88.147L399.671,88.147Z"
          />
        </clipPath>
        <g clip-path="url(#_clip14_Business_head)">
          <path
            d="M220.062,403.336L216.346,393.637C209.542,361.821 208.086,329.228 201.788,297.373C192.469,250.235 173.785,200.924 195.882,154.243C214.278,115.382 254.934,90.373 293.202,74.483C383.758,36.88 507.038,36.437 572.373,120.34C622.953,185.297 616.54,257.719 591.376,330.125C587.092,342.453 584.502,354.893 582.201,367.597C582.673,366.137 583.868,362.57 584.425,360.132L584.583,357.699C584.833,357.895 584.716,358.86 584.425,360.132L583.52,374.061C577.163,403.727 580.352,434.495 576.066,464.495C571.103,499.24 552.481,531.009 533.597,559.964C528.903,567.162 523.44,573.988 518.196,580.786C517.815,581.279 513.614,588.18 512.545,586.755C511.296,585.09 517.7,576.691 518.27,575.711C524.928,564.28 531.81,552.805 536.829,540.538C545.973,518.185 556.3,495.733 562.136,472.233C568.008,448.587 569.577,424.316 573.858,400.405C574.032,399.43 574.217,398.457 574.412,397.487C573.65,394.693 574.177,387.242 574.19,385.905C574.341,371.487 576.382,356.923 577.374,342.54C580.635,295.249 594.256,236.389 566.7,194.194C553.208,173.535 530.675,147.657 510.353,134.343C474.76,111.023 442.743,100.694 399.592,101.636C324.91,103.266 243.962,155.95 220.434,224.876C205.968,267.257 223.715,335.137 225.356,381.095C225.644,389.152 227.544,400.043 227.485,409.586C230.714,430.51 232.563,451.609 237.684,472.233C243.52,495.733 253.847,518.185 262.991,540.538C268.01,552.805 274.892,564.28 281.55,575.711C282.12,576.691 288.524,585.09 287.275,586.755C286.206,588.18 282.005,581.279 281.624,580.786C276.38,573.988 270.917,567.162 266.223,559.964C247.339,531.009 228.717,499.24 223.754,464.495C220.864,444.266 221.373,423.688 220.062,403.336Z"
            style="fill: rgb(252, 255, 216); fill-opacity: 0.6"
          />
        </g>
        <path
          d="M399.671,88.147C490.052,88.254 564.06,144.284 589.585,208.846C600.96,237.618 593.572,287.361 589.056,318.333C585.632,341.807 581.772,365.481 580.322,389.166C579.23,407 580.096,425.518 578.312,443.311C574.367,482.666 551.281,530.547 534.205,552.14C521.863,567.747 504.429,587.568 486.676,605.381C460.642,631.503 444.528,647.784 399.592,647.597C354.656,647.784 338.541,631.503 312.507,605.381C294.755,587.568 277.321,567.747 264.979,552.14C247.903,530.547 224.817,482.666 220.872,443.311C219.088,425.518 219.953,407 218.862,389.166C217.411,365.481 213.551,341.807 210.128,318.333C205.611,287.361 198.224,237.618 209.599,208.846C235.123,144.284 309.132,88.254 399.513,88.147L399.513,88.147L399.592,88.147L399.671,88.147L399.671,88.147Z"
          style="fill: none; stroke: black; stroke-width: 2.37px"
        />
      </g>
    </g>
  </g>
</svg>
