<svg width="800px" height="800px" viewBox="0 0 800 800" version="2.0" xmlns="http://www.w3.org/2000/svg" style="fill-rule: evenodd; clip-rule: evenodd; stroke-linecap: round; stroke-linejoin: round; stroke-miterlimit: 1.5"><g id="normal-card"><rect id="bg" x="-48.418" y="-9.957" width="931.967" height="871.066" style="fill: rgb(6, 46, 66)" /><g id="rectangles" transform="matrix(1,0,0,1,49.4291,64.1339)"><g opacity="0.5"><g transform="matrix(0.660629,0,0,1.04551,351.522,-81.058)"><rect x="462.47" y="633.282" width="419.335" height="322.449" style="fill: none" /><clipPath id="_clip1_card_template"><rect x="462.47" y="633.282" width="419.335" height="322.449" /></clipPath><g clip-path="url(#_clip1_card_template)"><g transform="matrix(1.51371,0,0,0.956468,-452.99,37.369)"><path d="M604.78,633.282L877.032,634.306" style="fill: none; stroke: rgb(166, 240, 98); stroke-width: 4px; stroke-dasharray: 4.25, 7.5, 0, 0" /></g><g transform="matrix(1.51371,0,0,0.956468,-452.99,58.0423)"><path d="M604.78,633.282L877.032,634.306" style="fill: none; stroke: rgb(166, 240, 98); stroke-width: 4px; stroke-dasharray: 4.25, 7.5, 0, 0" /></g><g transform="matrix(1.51371,0,0,0.956468,-452.99,68.3789)"><path d="M604.78,633.282L877.032,634.306" style="fill: none; stroke: rgb(166, 240, 98); stroke-width: 4px; stroke-dasharray: 4.25, 7.5, 0, 0" /></g><g transform="matrix(1.51371,0,0,0.956468,-452.99,89.0522)"><path d="M604.78,633.282L877.032,634.306" style="fill: none; stroke: rgb(166, 240, 98); stroke-width: 4px; stroke-dasharray: 4.25, 7.5, 0, 0" /></g><g transform="matrix(1.51371,0,0,0.956468,-452.99,99.3888)"><path d="M604.78,633.282L877.032,634.306" style="fill: none; stroke: rgb(166, 240, 98); stroke-width: 4px; stroke-dasharray: 4.25, 7.5, 0, 0" /></g><g transform="matrix(1.51371,0,0,0.956468,-452.99,130.399)"><path d="M604.78,633.282L877.032,634.306" style="fill: none; stroke: rgb(166, 240, 98); stroke-width: 4px; stroke-dasharray: 4.25, 7.5, 0, 0" /></g><g transform="matrix(1.51371,0,0,0.956468,-452.99,151.072)"><path d="M604.78,633.282L877.032,634.306" style="fill: none; stroke: rgb(166, 240, 98); stroke-width: 4px; stroke-dasharray: 4.25, 7.5, 0, 0" /></g><g transform="matrix(1.51371,0,0,0.956468,-452.99,171.745)"><path d="M604.78,633.282L877.032,634.306" style="fill: none; stroke: rgb(166, 240, 98); stroke-width: 4px; stroke-dasharray: 4.25, 7.5, 0, 0" /></g></g><rect x="462.47" y="633.282" width="419.335" height="322.449" style="fill: none; stroke: rgb(166, 240, 98); stroke-width: 4.57px; stroke-dasharray: 4.86, 8.58, 0, 0" /></g><g transform="matrix(0.192707,0,0,1.04551,466.744,2.40586)"><rect x="462.47" y="633.282" width="419.335" height="322.449" style="fill: none" /><clipPath id="_clip2_card_template"><rect x="462.47" y="633.282" width="419.335" height="322.449" /></clipPath><g clip-path="url(#_clip2_card_template)"><g transform="matrix(1.51371,0,0,0.956468,-452.99,37.369)"><path d="M604.78,633.282L877.032,634.306" style="fill: none; stroke: rgb(237, 30, 121); stroke-width: 5.43px; stroke-dasharray: 5.77, 10.18, 0, 0" /></g><g transform="matrix(1.51371,0,0,0.956468,-452.99,58.0423)"><path d="M604.78,633.282L877.032,634.306" style="fill: none; stroke: rgb(237, 30, 121); stroke-width: 5.43px; stroke-dasharray: 5.77, 10.18, 0, 0" /></g><g transform="matrix(1.51371,0,0,0.956468,-452.99,68.3789)"><path d="M604.78,633.282L877.032,634.306" style="fill: none; stroke: rgb(237, 30, 121); stroke-width: 5.43px; stroke-dasharray: 5.77, 10.18, 0, 0" /></g><g transform="matrix(1.51371,0,0,0.956468,-452.99,89.0522)"><path d="M604.78,633.282L877.032,634.306" style="fill: none; stroke: rgb(237, 30, 121); stroke-width: 5.43px; stroke-dasharray: 5.77, 10.18, 0, 0" /></g></g><rect x="462.47" y="633.282" width="419.335" height="322.449" style="fill: none; stroke: rgb(237, 30, 121); stroke-width: 5.32px; stroke-dasharray: 5.65, 9.98, 0, 0" /></g></g></g><g id="circles" opacity="0.5"><g transform="matrix(1,0,0,1,-118.853,-94.5905)"><circle cx="155.124" cy="124.814" r="124.814" style="fill: none; stroke: rgb(255, 207, 0); stroke-width: 4px; stroke-dasharray: 4.25, 7.5, 0, 0" /></g><g transform="matrix(0.928318,0,0,0.928318,-107.734,-85.6437)"><circle cx="155.124" cy="124.814" r="124.814" style="fill: none; stroke: rgb(255, 207, 0); stroke-width: 4.31px; stroke-dasharray: 4.58, 8.08, 0, 0" /></g><g transform="matrix(0.691272,0,0,0.691272,-70.9623,-56.0571)"><circle cx="155.124" cy="124.814" r="124.814" style="fill: none; stroke: rgb(255, 108, 0); stroke-width: 5.79px; stroke-dasharray: 6.15, 10.85, 0, 0" /></g></g><g id="rarity-bars" transform="matrix(0.86723,0,0,0.86723,10.4494,88.5493)"><g id="rarity-bars-fill"><g transform="matrix(0.114833,0,0,0.114833,59.0756,653.445)"><path d="M400,117.517L629.266,249.774L629.266,514.685L400.192,646.941L400.192,647.052L400.096,646.997L400,647.052L400,646.941L170.925,514.685L170.925,249.774L400,117.517Z" style="fill: rgb(139, 57, 219)" /></g><g transform="matrix(0.114833,0,0,0.114833,126.648,653.445)"><path d="M400,117.517L629.266,249.774L629.266,514.685L400.192,646.941L400.192,647.052L400.096,646.997L400,647.052L400,646.941L170.925,514.685L170.925,249.774L400,117.517Z" style="fill: rgb(237, 30, 121)" /></g><g transform="matrix(0.114833,0,0,0.114833,194.22,653.445)"><path d="M400,117.517L629.266,249.774L629.266,514.685L400.192,646.941L400.192,647.052L400.096,646.997L400,647.052L400,646.941L170.925,514.685L170.925,249.774L400,117.517Z" style="fill: rgb(241, 90, 36)" /></g></g><g id="rarity-bars-stroke"><g transform="matrix(0.114833,0,0,0.114833,59.0756,653.445)"><path d="M400,117.517L629.266,249.774L629.266,514.685L400.192,646.941L400.192,647.052L400.096,646.997L400,647.052L400,646.941L170.925,514.685L170.925,249.774L400,117.517Z" style="fill: none; stroke: white; stroke-width: 34.83px" /></g><g transform="matrix(0.114833,0,0,0.114833,126.648,653.445)"><path d="M400,117.517L629.266,249.774L629.266,514.685L400.192,646.941L400.192,647.052L400.096,646.997L400,647.052L400,646.941L170.925,514.685L170.925,249.774L400,117.517Z" style="fill: none; stroke: white; stroke-width: 34.83px" /></g><g transform="matrix(0.114833,0,0,0.114833,194.22,653.445)"><path d="M400,117.517L629.266,249.774L629.266,514.685L400.192,646.941L400.192,647.052L400.096,646.997L400,647.052L400,646.941L170.925,514.685L170.925,249.774L400,117.517Z" style="fill: none; stroke: white; stroke-width: 34.83px" /></g><g transform="matrix(0.114833,0,0,0.114833,261.792,653.445)"><path d="M400,117.517L629.266,249.774L629.266,514.685L400.192,646.941L400.192,647.052L400.096,646.997L400,647.052L400,646.941L170.925,514.685L170.925,249.774L400,117.517Z" style="fill: none; stroke: white; stroke-width: 34.83px" /></g><g transform="matrix(0.114833,0,0,0.114833,329.364,653.445)"><path d="M400,117.517L629.266,249.774L629.266,514.685L400.192,646.941L400.192,647.052L400.096,646.997L400,647.052L400,646.941L170.925,514.685L170.925,249.774L400,117.517Z" style="fill: none; stroke: white; stroke-width: 34.83px" /></g></g></g><g transform="matrix(0.720342,0,0,0.720342,23.1337,330.63)"><text x="77.471px" y="439.84px" style="font-family: 'Futura-Medium', 'Futura', sans-serif; font-weight: 500; font-size: 50px; fill: white">RARITY</text></g><g transform="matrix(0.911866,0,0,0.911866,252.534,309.097)"><text x="190.763px" y="439.84px" style="font-family: 'Futura-Medium', 'Futura', sans-serif; font-weight: 500; font-size: 50px; fill: white" id="wear_value"></text></g><g transform="matrix(0.720342,0,0,0.720342,340.614,330.63)"><text x="77.471px" y="439.84px" style="font-family: 'Futura-Medium', 'Futura', sans-serif; font-weight: 500; font-size: 50px; fill: white">WEAR</text></g><g transform="matrix(1,0,0,1,11.3386,0)"><g id="clothing"><path d="M643.088,685.842C646.783,685.778 648.661,683.2 649.092,679.318C650.012,671.056 649.138,666.716 649.138,666.716L653.408,666.766C653.408,666.766 651.456,677.988 655.595,682.825C658.992,686.794 662.073,686.445 662.073,686.445L662.462,712.698L623.892,712.698L624.28,686.445C624.28,686.445 626.476,686.794 629.873,682.825C634.012,677.988 632.06,666.766 632.06,666.766L636.417,666.616C636.417,666.616 635.514,670.986 636.433,679.248C636.865,683.129 638.73,685.919 643.088,685.842Z" style="fill: white" /></g></g><g transform="matrix(0.720342,0,0,0.720342,520.614,330.63)"><text x="124.102px" y="439.84px" style="font-family: 'Futura-Medium', 'Futura', sans-serif; font-weight: 500; font-size: 50px; fill: white">SLOT</text></g><g transform="matrix(1,0,0,1,-7.69409,0)"><path d="M82.194,602.738L733.196,602.258C733.979,602.258 734.615,601.621 734.614,600.838C734.614,600.055 733.977,599.42 733.194,599.42L82.192,599.9C81.409,599.901 80.773,600.537 80.774,601.321C80.775,602.104 81.411,602.739 82.194,602.738Z" style="fill: white" /></g><g transform="matrix(1,0,0,1,120.441,145.046)"><text x="160.471px" y="439.84px" style="font-family: 'Futura-Medium', 'Futura', sans-serif; font-weight: 500; font-size: 50px; fill: white">LAB COAT</text></g><path id="border" d="M800,801.235L800,-4.106L-0,-4.106L0,801.235L800,801.235ZM260.875,30.644L30.644,30.644C30.644,30.644 30.644,769.356 30.644,769.356C30.644,769.356 769.356,769.356 769.356,769.356L769.356,30.644L539.125,30.644L539.125,61.806L260.875,61.806L260.875,30.644Z" style="fill: rgb(0, 153, 197)" /><g id="guide" transform="matrix(1,0,0,1.04284,1.75676,-22.4672)"><rect x="82.193" y="95.569" width="632.101" height="428.927" style="fill: url(#_Linear3_card_template); stroke: rgb(0, 153, 197); stroke-width: 4.8px" /><rect x="82.193" y="95.569" width="632.101" height="428.927" style="fill: url(#lab-coat)"/></g><pattern id="lab-coat" viewBox="0,0,800,800" width="100%" height="100%"><g transform="matrix(1.00459,0,0,1.00459,-1.83472,-2.98929)"><g id="accessories"><g id="lab-coat-front"><path id="shadow" d="M276.459,519.029C278.809,523.323 277.056,533.853 277.157,538.566C277.52,555.344 277.12,572.119 277.389,588.89C277.867,618.791 283.987,651.881 286.855,681.601C289.469,708.695 280.943,738.84 279.397,726.354C276.52,703.125 274.276,679.75 272.382,656.42C269.414,619.859 260.914,578.009 271.715,542.212L276.459,519.029ZM523.545,519.029C521.195,523.323 522.948,533.853 522.846,538.566C522.483,555.344 522.883,572.119 522.615,588.89C522.137,618.791 516.017,651.881 513.149,681.601C510.535,708.695 519.061,738.84 520.607,726.354C523.483,703.125 525.728,679.75 527.622,656.42C530.59,619.859 539.09,578.009 528.289,542.212L523.545,519.029Z" style="fill: rgb(56, 25, 57); fill-opacity: 0.5" /><path id="blue-tshirt" d="M399.373,759.1C403.647,754.054 411.057,747.739 414.574,744.084C434.425,723.454 454.279,703.642 475.609,684.993C489.793,672.591 504.023,660.294 515.641,645.373C519.513,640.401 522.976,635.115 526.207,629.707C527.338,627.814 529.758,620.953 530.481,621.471L547.87,641.093C554.304,698.427 547.871,757.059 543.533,814.309C540.633,852.574 537.211,890.797 533.491,928.991C532.099,943.279 268.281,943.279 266.889,928.991C263.168,890.797 259.747,852.574 256.847,814.309C252.508,757.059 246.075,698.427 252.509,641.093L269.899,621.471C270.621,620.953 273.041,627.814 274.172,629.707C277.404,635.115 280.866,640.401 284.738,645.373C296.356,660.294 310.447,672.059 324.119,685.024C344.658,704.502 366.059,723.17 385.783,744.828C389.198,748.578 395.099,754.054 399.373,759.1Z" style="fill: rgb(114, 164, 203)" /><clipPath id="_clip1"><path id="blue-tshirt1" d="M399.373,759.1C403.647,754.054 411.057,747.739 414.574,744.084C434.425,723.454 454.279,703.642 475.609,684.993C489.793,672.591 504.023,660.294 515.641,645.373C519.513,640.401 522.976,635.115 526.207,629.707C527.338,627.814 529.758,620.953 530.481,621.471L547.87,641.093C554.304,698.427 547.871,757.059 543.533,814.309C540.633,852.574 537.211,890.797 533.491,928.991C532.099,943.279 268.281,943.279 266.889,928.991C263.168,890.797 259.747,852.574 256.847,814.309C252.508,757.059 246.075,698.427 252.509,641.093L269.899,621.471C270.621,620.953 273.041,627.814 274.172,629.707C277.404,635.115 280.866,640.401 284.738,645.373C296.356,660.294 310.447,672.059 324.119,685.024C344.658,704.502 366.059,723.17 385.783,744.828C389.198,748.578 395.099,754.054 399.373,759.1Z" /></clipPath><g clip-path="url(#_clip1)"><path d="M289.827,685.249C298.385,754.81 324.109,974.563 335.853,1042.09C339.876,1065.23 343.868,1088.37 346.624,1111.7C347.321,1117.61 351.893,1134.07 341.786,1134.43C332.706,1134.76 323.5,1127.75 317.197,1122.04C300.034,1106.51 286.43,1086.5 276.262,1065.82C239.036,990.144 222.634,723.149 228.901,640.294C229.495,632.431 230.204,624.575 231.157,616.747C231.884,610.78 232.751,604.829 233.785,598.907C234.568,594.425 235.45,589.961 236.447,585.521C239.288,572.864 248.48,534.889 267.221,536.376L280.912,620.635C283.211,637.828 285.763,660.4 288.021,677.594L288.151,678.589C292.893,683.181 297.67,687.739 302.254,692.497C306.974,697.397 311.705,702.285 316.441,707.169C320.543,711.399 324.69,715.585 328.763,719.844C330.302,721.453 331.847,723.057 333.323,724.724C333.392,724.802 334.724,726.309 334.532,726.416C334.084,726.667 331.805,724.428 331.495,724.171C328.454,721.656 325.564,718.972 322.624,716.343C310.972,705.923 300.315,696.862 289.827,685.249ZM510.846,685.038C501.882,752.973 475.505,974.563 463.761,1042.09C459.737,1065.23 455.746,1088.37 452.99,1111.7C452.292,1117.61 447.72,1134.07 457.828,1134.43C466.908,1134.76 476.114,1127.75 482.417,1122.04C499.579,1106.51 513.184,1086.5 523.352,1065.82C560.578,990.144 576.979,723.149 570.713,640.294C570.118,632.431 569.41,624.575 568.457,616.747C567.73,610.78 566.862,604.829 565.828,598.907C565.046,594.425 564.164,589.961 563.167,585.521C560.325,572.864 551.134,534.889 532.393,536.376L518.701,620.635C516.402,637.828 513.851,660.4 511.593,677.594L511.462,678.589C506.72,683.181 501.944,687.739 497.36,692.497C492.64,697.397 487.909,702.285 483.173,707.169C479.071,711.399 474.924,715.585 470.851,719.844C469.312,721.453 467.767,723.057 466.291,724.724C466.221,724.802 464.889,726.309 465.082,726.416C465.529,726.667 467.809,724.428 468.119,724.171C471.159,721.656 473.91,718.808 476.989,716.343C489.319,706.471 500.358,696.651 510.846,685.038ZM414.891,774.374C414.982,774.253 415.347,774.033 415.485,773.904C415.905,773.509 416.346,773.136 416.78,772.756C418.085,771.61 419.595,770.817 421.242,770.272C425.674,768.806 431.299,769.784 435.891,769.711C445.31,769.561 455.139,768.957 464.492,770.333C470.599,771.232 476.592,773.478 482.491,775.221C486.04,776.269 489.578,777.313 493.032,778.648C493.47,778.817 496.09,779.548 496.076,780.232C496.059,781.108 492.456,781.04 491.967,781.07C487.396,781.354 482.846,781.398 478.267,781.383C462.917,781.332 447.827,777.921 432.571,776.645C428.256,776.284 419.777,775.523 419.777,775.523C419.777,775.523 422.764,780.992 423.344,781.809C426.551,786.331 428.751,791.691 431.498,796.522C432.727,798.683 434.035,800.799 435.216,802.987C435.339,803.215 436.326,804.818 435.856,805.053C435.392,805.284 434.414,804.127 434.169,803.877C432.599,802.277 431.272,800.454 429.946,798.653C425.582,792.723 421.836,786.384 417.538,780.414C416.274,778.658 412.732,775.866 414.469,773.519L414.891,774.374C414.857,774.419 414.862,774.451 414.933,774.458L414.891,774.374ZM430.887,759.229C431.129,759.097 431.415,758.454 431.677,758.22C432.427,757.548 433.163,756.856 433.893,756.162C436.219,753.952 438.266,751.545 441.436,750.602C450.011,748.052 460.143,749.431 468.582,751.834C469.918,752.214 475.678,753.084 476.351,754.502C476.496,754.808 474.515,754.882 474.371,754.889C472.192,755.003 470,754.964 467.819,755.001C462.034,755.099 456.249,755.116 450.508,755.929C444.675,756.755 438.923,758.138 433.296,759.866L430.887,759.229ZM430.887,759.229L430.673,759.172C430.738,759.261 430.81,759.27 430.887,759.229Z" style="fill: rgb(84, 103, 162)" /><g id="lines"><path d="M397.786,757.402C397.786,757.402 405.149,765.503 407.145,767.896C414.832,777.109 421.648,785.225 428.845,794.828C441.075,811.147 454.196,826.732 466.517,842.971C483.541,865.41 499.892,888.349 517.454,910.378" style="fill: none; stroke: black; stroke-width: 2.1px" /><path d="M271.634,657.272C270.343,656.966 273.104,659.478 273.857,660.569C275.404,662.809 277.022,665.014 278.693,667.162C283.734,673.646 288.99,679.984 294.636,685.952C311.398,703.67 329.403,720.112 346.142,737.877C363.8,756.617 383.35,773.422 400.841,792.309C433.566,827.645 467.273,886.279 495.612,925.194" style="fill: none; stroke: black; stroke-width: 2.1px" /><path d="M413.623,774.847C416.037,774.779 422.309,767.014 424.08,765.431C434.887,755.766 445.028,745.348 455.184,735.007C498.311,691.099 537.71,655.755 568.794,600.658" style="fill: none; stroke: black; stroke-width: 2.1px" /><path d="M430.627,759.901C431.01,760.551 436.084,758.393 437.579,757.943C442.074,756.59 446.757,755.893 451.402,755.194" style="fill: none; stroke: black; stroke-width: 2.1px" /><path d="M415.292,774.73C415.302,774.777 423.214,774.924 425.658,775.238C436.256,776.603 448.51,778.698 459.211,779.164" style="fill: none; stroke: black; stroke-width: 2.1px" /><path d="M270.664,641.767C270.664,641.767 318.126,696.724 346.378,722.477C380.357,753.453 474.746,848.142 540.293,961.354" style="fill: none; stroke: black; stroke-width: 1px" /><path d="M407.41,766.736C407.389,766.971 483.585,702.419 549.566,616.252" style="fill: none; stroke: black; stroke-width: 1px" /><path d="M271.762,665.945C271.762,665.945 309.405,707.23 329.138,728.038C348.872,748.847 382.006,778.674 405.235,805.079C428.463,831.483 503.905,942.227 503.905,942.227" style="fill: none; stroke: black; stroke-width: 1px; stroke-dasharray: 6.31, 10.31, 0, 0" /><path d="M416.047,778.434C416.047,778.434 476.364,720.542 480.63,716.117C484.896,711.693 581.603,612.175 586.41,608.889" style="fill: none; stroke: black; stroke-width: 1px; stroke-dasharray: 6.31, 10.31, 0, 0; stroke-dashoffset: 13.63" /></g></g><path id="blue-tshirt2" d="M399.373,759.1C403.647,754.054 411.057,747.739 414.574,744.084C434.425,723.454 454.279,703.642 475.609,684.993C489.793,672.591 504.023,660.294 515.641,645.373C519.513,640.401 522.976,635.115 526.207,629.707C527.338,627.814 529.758,620.953 530.481,621.471L547.87,641.093C554.304,698.427 547.871,757.059 543.533,814.309C540.633,852.574 537.211,890.797 533.491,928.991C532.099,943.279 268.281,943.279 266.889,928.991C263.168,890.797 259.747,852.574 256.847,814.309C252.508,757.059 246.075,698.427 252.509,641.093L269.899,621.471C270.621,620.953 273.041,627.814 274.172,629.707C277.404,635.115 280.866,640.401 284.738,645.373C296.356,660.294 310.447,672.059 324.119,685.024C344.658,704.502 366.059,723.17 385.783,744.828C389.198,748.578 395.099,754.054 399.373,759.1Z" style="fill: none; stroke: black; stroke-width: 2.1px" /><g id="coat"><g><path d="M257.213,537.201C247.768,537.201 234.287,545.529 225.939,549.2C202.949,559.311 180.228,570.054 157.411,580.547C119.532,597.965 84.077,618.876 47.213,638.222C33.319,645.514 6.357,656.074 -3.172,668.738C-11.679,680.044 -14.558,696.911 -18.88,710.047C-28.855,740.358 -38.12,771.242 -44.933,802.425C-51.176,831.002 -56.901,859.674 -63.52,888.168C-64.687,893.191 297.524,904.048 294.873,894.396C286.909,865.411 279.699,836.277 273.954,806.766C262.715,749.04 253.815,689.099 254.265,630.158C254.481,601.821 259.087,573.961 261.214,545.78L257.213,537.201Z" style="fill: url(#_Linear2)" /><clipPath id="_clip3"><path d="M257.213,537.201C247.768,537.201 234.287,545.529 225.939,549.2C202.949,559.311 180.228,570.054 157.411,580.547C119.532,597.965 84.077,618.876 47.213,638.222C33.319,645.514 6.357,656.074 -3.172,668.738C-11.679,680.044 -14.558,696.911 -18.88,710.047C-28.855,740.358 -38.12,771.242 -44.933,802.425C-51.176,831.002 -56.901,859.674 -63.52,888.168C-64.687,893.191 297.524,904.048 294.873,894.396C286.909,865.411 279.699,836.277 273.954,806.766C262.715,749.04 253.815,689.099 254.265,630.158C254.481,601.821 259.087,573.961 261.214,545.78L257.213,537.201Z" /></clipPath><g clip-path="url(#_clip3)"><path d="M9.613,708.659C9.302,708.852 9.755,710.755 9.786,711.015C10.807,719.543 11.335,728.214 11.508,736.796C12.209,771.478 25.812,805.403 35.355,838.385C43.868,867.804 51.628,897.598 61.511,926.591C63.258,931.717 64.99,936.846 66.769,941.961C67.163,943.096 69.961,954.169 71.147,954.268C71.241,954.276 69.706,945.319 69.605,944.828C68.403,939.019 67.058,933.24 65.682,927.471C61.453,909.747 56.453,892.204 51.947,874.549C38.795,823.021 26.261,771.493 12.388,720.163L9.613,708.659ZM164.444,702.463C164.472,701.854 163.226,702.395 162.621,702.318C161.283,702.148 159.938,702.013 158.597,701.874C157.217,701.73 149.664,700.084 149.754,702.325C149.923,706.491 152.981,711.357 154.251,715.287C158.01,726.911 162.199,738.364 166.199,749.904C180.328,790.664 187.704,833.736 204.659,873.483C208.732,883.033 212.565,892.712 217.101,902.056C218.179,904.275 220.324,910.316 223.681,910.16C227.642,909.977 227.402,902.379 227.256,899.972C226.542,888.158 224.34,876.623 221.574,865.132C210.393,818.694 198.325,771.613 178.519,728.015L164.444,702.463ZM57.709,842.772C54.48,835.032 53.104,825.944 50.64,817.915C44.228,797.026 38.211,776.309 33.003,755.078C30.526,744.977 28.711,734.775 27.689,724.424C27.293,720.418 26.985,716.296 27.353,712.274C27.391,711.856 27.621,708.219 28.757,709.075C32.905,712.204 34.936,722.083 36.636,726.697C42.884,743.659 46.878,761.54 49.669,779.379C50.636,785.561 51.443,791.77 52.311,797.967C52.379,798.458 52.715,803.489 53.21,803.581C53.442,803.623 53.561,802.342 53.576,802.223C54.028,798.689 54.093,795.101 54.469,791.558C55.59,781.002 57.144,770.252 59.36,759.868C59.68,758.367 60.674,750.559 62.425,749.947C63.228,749.666 63.27,756.952 63.27,757.409C63.276,765.656 62.914,773.862 62.501,782.096C61.437,803.299 59.707,824.369 58.258,845.546L57.709,842.772ZM170.338,648.229C170.486,647.471 169.511,649.534 169.113,650.196C168.298,651.555 167.493,652.922 166.753,654.324C164.003,659.537 164.405,660.583 169.478,663.509C185.956,673.015 201.473,683.706 217.362,694.143C221.463,696.837 225.616,699.45 229.713,702.15C230.303,702.539 233.186,705.019 233.937,704.897C234.453,704.813 233.829,699.699 233.782,699.323C233.052,693.52 231.639,687.844 230.649,682.088C227.494,663.755 224.578,645.365 220.608,627.184C219.158,620.542 218.073,610.174 211.82,606.04C208.747,604.008 205.039,605.322 202.111,606.925C194.899,610.873 190.076,618.331 185.231,624.74L170.338,648.229Z" style="fill: rgb(130, 168, 187)" /><path d="M29.321,787.158C24.709,760.841 19.416,734.724 15.253,708.304C14.309,702.316 9.28,682.766 11.538,677.3C13.502,672.544 21.21,670.097 25.312,667.909C33.653,663.461 42.009,658.117 50.926,654.907C55.19,653.372 59.803,653.294 64.045,651.784C74.093,648.205 81.879,636.78 91.237,631.398C101.002,625.781 111.563,624.758 121.643,620.396C129.696,616.912 136.721,610.609 144.172,605.992C175.246,586.735 212.634,576.701 242.088,554.81C249.04,549.643 254.051,543.083 259.109,536.151C259.586,535.498 263.696,530.633 262.921,529.748C261.734,528.39 246.653,532.431 241.347,533.437C216.784,538.094 192.632,544.479 168.805,552.043C122.055,566.885 76.146,585.1 34.197,610.772C19.521,619.752 -3.279,633.029 -11.121,649.621C-21.813,672.242 -44.583,720.968 -45.433,745.529C-46.105,764.975 -35.437,818.717 -34.36,819.256C-33.777,819.547 -25.222,793.961 -23.535,787.718C-17.647,765.923 -4.768,741.877 0.471,719.922C0.861,718.288 5.085,700.595 7.096,700.595L29.321,787.158Z" style="fill: rgb(244, 248, 251)" /><path d="M2.054,671.335C3.284,672.66 3.412,681.415 3.84,683.61C6.048,694.948 8.677,706.283 11.618,717.453C18.16,742.29 25.195,766.811 30.827,791.895C35.364,812.106 53.255,865.874 65.097,930.059" style="fill: none; stroke: black; stroke-width: 2.1px" /><path d="M27.939,727.163C27.894,727.166 28.672,732.189 28.719,732.466C29.711,738.343 30.859,744.215 32.183,750.026C37.841,774.861 46.636,798.889 51.546,823.889" style="fill: none; stroke: black; stroke-width: 2.1px" /><path d="M57.267,774.662C57.722,774.347 57.257,775.77 57.213,776.322C57.132,777.331 57.044,778.339 56.94,779.347C56.628,782.345 56.246,785.331 55.846,788.319C54.63,797.393 52.869,806.347 52.758,815.531" style="fill: none; stroke: black; stroke-width: 2.1px" /></g><path d="M257.213,537.201C247.768,537.201 234.287,545.529 225.939,549.2C202.949,559.311 180.228,570.054 157.411,580.547C119.532,597.965 84.077,618.876 47.213,638.222C33.319,645.514 6.357,656.074 -3.172,668.738C-11.679,680.044 -14.558,696.911 -18.88,710.047C-28.855,740.358 -38.12,771.242 -44.933,802.425C-51.176,831.002 -56.901,859.674 -63.52,888.168C-64.687,893.191 297.524,904.048 294.873,894.396C286.909,865.411 279.699,836.277 273.954,806.766C262.715,749.04 253.815,689.099 254.265,630.158C254.481,601.821 259.087,573.961 261.214,545.78L257.213,537.201Z" style="fill: none; stroke: black; stroke-width: 2.1px" /><g transform="matrix(-1,0,0,1,800.283,0)"><path d="M257.213,537.201C247.768,537.201 234.287,545.529 225.939,549.2C202.949,559.311 180.228,570.054 157.411,580.547C119.532,597.965 84.077,618.876 47.213,638.222C33.319,645.514 6.357,656.074 -3.172,668.738C-11.679,680.044 -14.558,696.911 -18.88,710.047C-28.855,740.358 -38.12,771.242 -44.933,802.425C-51.176,831.002 -56.901,859.674 -63.52,888.168C-64.687,893.191 297.524,904.048 294.873,894.396C286.909,865.411 279.699,836.277 273.954,806.766C262.715,749.04 253.815,689.099 254.265,630.158C254.481,601.821 259.087,573.961 261.214,545.78L257.213,537.201Z" style="fill: url(#_Linear4)" /><clipPath id="_clip5"><path d="M257.213,537.201C247.768,537.201 234.287,545.529 225.939,549.2C202.949,559.311 180.228,570.054 157.411,580.547C119.532,597.965 84.077,618.876 47.213,638.222C33.319,645.514 6.357,656.074 -3.172,668.738C-11.679,680.044 -14.558,696.911 -18.88,710.047C-28.855,740.358 -38.12,771.242 -44.933,802.425C-51.176,831.002 -56.901,859.674 -63.52,888.168C-64.687,893.191 297.524,904.048 294.873,894.396C286.909,865.411 279.699,836.277 273.954,806.766C262.715,749.04 253.815,689.099 254.265,630.158C254.481,601.821 259.087,573.961 261.214,545.78L257.213,537.201Z" /></clipPath><g clip-path="url(#_clip5)"><path d="M9.613,708.659C9.302,708.852 9.755,710.755 9.786,711.015C10.807,719.543 11.335,728.214 11.508,736.796C12.209,771.478 25.812,805.403 35.355,838.385C43.868,867.804 51.628,897.598 61.511,926.591C63.258,931.717 64.99,936.846 66.769,941.961C67.163,943.096 69.961,954.169 71.147,954.268C71.241,954.276 69.706,945.319 69.605,944.828C68.403,939.019 67.058,933.24 65.682,927.471C61.453,909.747 56.453,892.204 51.947,874.549C38.795,823.021 26.261,771.493 12.388,720.163L9.613,708.659ZM164.444,702.463C164.472,701.854 163.226,702.395 162.621,702.318C161.283,702.148 159.938,702.013 158.597,701.874C157.217,701.73 149.664,700.084 149.754,702.325C149.923,706.491 152.981,711.357 154.251,715.287C158.01,726.911 162.199,738.364 166.199,749.904C180.328,790.664 187.704,833.736 204.659,873.483C208.732,883.033 212.565,892.712 217.101,902.056C218.179,904.275 220.324,910.316 223.681,910.16C227.642,909.977 227.402,902.379 227.256,899.972C226.542,888.158 224.34,876.623 221.574,865.132C210.393,818.694 198.325,771.613 178.519,728.015L164.444,702.463ZM57.709,842.772C54.48,835.032 53.104,825.944 50.64,817.915C44.228,797.026 38.211,776.309 33.003,755.078C30.526,744.977 28.711,734.775 27.689,724.424C27.293,720.418 26.985,716.296 27.353,712.274C27.391,711.856 27.621,708.219 28.757,709.075C32.905,712.204 34.936,722.083 36.636,726.697C42.884,743.659 46.878,761.54 49.669,779.379C50.636,785.561 51.443,791.77 52.311,797.967C52.379,798.458 52.715,803.489 53.21,803.581C53.442,803.623 53.561,802.342 53.576,802.223C54.028,798.689 54.093,795.101 54.469,791.558C55.59,781.002 57.144,770.252 59.36,759.868C59.68,758.367 60.674,750.559 62.425,749.947C63.228,749.666 63.27,756.952 63.27,757.409C63.276,765.656 62.914,773.862 62.501,782.096C61.437,803.299 59.707,824.369 58.258,845.546L57.709,842.772ZM170.338,648.229C170.486,647.471 169.511,649.534 169.113,650.196C168.298,651.555 167.493,652.922 166.753,654.324C164.003,659.537 164.405,660.583 169.478,663.509C185.956,673.015 201.473,683.706 217.362,694.143C221.463,696.837 225.616,699.45 229.713,702.15C230.303,702.539 233.186,705.019 233.937,704.897C234.453,704.813 233.829,699.699 233.782,699.323C233.052,693.52 231.639,687.844 230.649,682.088C227.494,663.755 224.578,645.365 220.608,627.184C219.158,620.542 218.073,610.174 211.82,606.04C208.747,604.008 205.039,605.322 202.111,606.925C194.899,610.873 190.076,618.331 185.231,624.74L170.338,648.229Z" style="fill: rgb(130, 168, 187)" /><path d="M29.321,787.158C24.709,760.841 19.416,734.724 15.253,708.304C14.309,702.316 9.28,682.766 11.538,677.3C13.502,672.544 21.21,670.097 25.312,667.909C33.653,663.461 42.009,658.117 50.926,654.907C55.19,653.372 59.803,653.294 64.045,651.784C74.093,648.205 81.879,636.78 91.237,631.398C101.002,625.781 111.563,624.758 121.643,620.396C129.696,616.912 136.721,610.609 144.172,605.992C175.246,586.735 212.634,576.701 242.088,554.81C249.04,549.643 254.051,543.083 259.109,536.151C259.586,535.498 263.696,530.633 262.921,529.748C261.734,528.39 246.653,532.431 241.347,533.437C216.784,538.094 192.632,544.479 168.805,552.043C122.055,566.885 76.146,585.1 34.197,610.772C19.521,619.752 -3.279,633.029 -11.121,649.621C-21.813,672.242 -44.583,720.968 -45.433,745.529C-46.105,764.975 -35.437,818.717 -34.36,819.256C-33.777,819.547 -25.222,793.961 -23.535,787.718C-17.647,765.923 -4.768,741.877 0.471,719.922C0.861,718.288 5.085,700.595 7.096,700.595L29.321,787.158Z" style="fill: rgb(244, 248, 251)" /><path d="M2.054,671.335C3.284,672.66 3.412,681.415 3.84,683.61C6.048,694.948 8.677,706.283 11.618,717.453C18.16,742.29 25.195,766.811 30.827,791.895C35.364,812.106 53.255,865.874 65.097,930.059" style="fill: none; stroke: black; stroke-width: 2.1px" /><path d="M27.939,727.163C27.894,727.166 28.672,732.189 28.719,732.466C29.711,738.343 30.859,744.215 32.183,750.026C37.841,774.861 46.636,798.889 51.546,823.889" style="fill: none; stroke: black; stroke-width: 2.1px" /><path d="M57.267,774.662C57.722,774.347 57.257,775.77 57.213,776.322C57.132,777.331 57.044,778.339 56.94,779.347C56.628,782.345 56.246,785.331 55.846,788.319C54.63,797.393 52.869,806.347 52.758,815.531" style="fill: none; stroke: black; stroke-width: 2.1px" /></g><path d="M257.213,537.201C247.768,537.201 234.287,545.529 225.939,549.2C202.949,559.311 180.228,570.054 157.411,580.547C119.532,597.965 84.077,618.876 47.213,638.222C33.319,645.514 6.357,656.074 -3.172,668.738C-11.679,680.044 -14.558,696.911 -18.88,710.047C-28.855,740.358 -38.12,771.242 -44.933,802.425C-51.176,831.002 -56.901,859.674 -63.52,888.168C-64.687,893.191 297.524,904.048 294.873,894.396C286.909,865.411 279.699,836.277 273.954,806.766C262.715,749.04 253.815,689.099 254.265,630.158C254.481,601.821 259.087,573.961 261.214,545.78L257.213,537.201Z" style="fill: none; stroke: black; stroke-width: 2.1px" /></g></g><g><path d="M276.893,517.508C277.435,517.127 265.361,526.004 261.799,528.055C250.407,534.614 242.164,542.05 233.709,552.195C215.039,574.6 197.294,597.743 181.382,622.196C176.461,629.758 163.364,649.385 163.364,649.385C163.364,649.385 174.01,655.964 175.278,656.841C185.613,663.989 194.54,670.556 204.646,678.015C208.851,681.118 216.115,688.741 216.115,688.741C216.115,688.741 203.755,689.059 203.006,689.117C189.194,690.179 175.401,691.276 161.646,692.943C160.782,693.048 149.459,694.221 149.459,694.221C149.459,694.221 156.077,703.259 157.211,705.805C161.642,715.757 165.366,726.733 169.021,736.998C179.754,767.137 201.074,883.129 223.607,908.322C227.325,912.478 304.717,910.928 306.673,907.894C309.903,902.881 286.313,772.862 282.204,749.759C269.62,679.004 264.996,604.357 277.631,533.6L276.893,517.508Z" style="fill: url(#_Linear6)" /><clipPath id="_clip7"><path d="M276.893,517.508C277.435,517.127 265.361,526.004 261.799,528.055C250.407,534.614 242.164,542.05 233.709,552.195C215.039,574.6 197.294,597.743 181.382,622.196C176.461,629.758 163.364,649.385 163.364,649.385C163.364,649.385 174.01,655.964 175.278,656.841C185.613,663.989 194.54,670.556 204.646,678.015C208.851,681.118 216.115,688.741 216.115,688.741C216.115,688.741 203.755,689.059 203.006,689.117C189.194,690.179 175.401,691.276 161.646,692.943C160.782,693.048 149.459,694.221 149.459,694.221C149.459,694.221 156.077,703.259 157.211,705.805C161.642,715.757 165.366,726.733 169.021,736.998C179.754,767.137 201.074,883.129 223.607,908.322C227.325,912.478 304.717,910.928 306.673,907.894C309.903,902.881 286.313,772.862 282.204,749.759C269.62,679.004 264.996,604.357 277.631,533.6L276.893,517.508Z" /></clipPath><g clip-path="url(#_clip7)"><path d="M228.482,701.232C228.647,700.991 219.551,691.719 216.193,688.868" style="fill: none; stroke: black; stroke-width: 2.1px" /><path d="M214.968,690.311C206.752,691.272 189.346,693.17 178.239,695.467C173.807,696.384 165.297,699.302 165.297,699.302C165.297,699.302 171.232,715.416 172.714,722.224C176.674,740.406 189.024,795.02 190.435,813.551C190.921,819.937 196.824,852.785 197.015,859.186C197.029,859.687 185.994,821.991 183.501,813.154C182.716,810.372 175.764,791.984 175.022,790.006C169.338,774.872 163.937,759.641 158.139,744.548C153.003,731.176 148.038,717.715 141.931,704.748C140.431,701.562 135.406,694.64 137.85,690.983C139.504,688.508 143.369,687.754 146.055,687.185C153.702,685.567 161.822,685.269 169.609,684.949C176.844,684.652 184.039,684.846 191.264,685.258L214.968,690.311ZM165.951,653.064C166.166,654.032 167.154,651.485 167.737,650.683C168.906,649.072 170.122,647.498 171.284,645.882C174.847,640.926 178.42,635.978 181.944,630.995C192.261,616.409 202.949,602.028 213.879,587.897C223.673,575.236 234.421,563.878 245.661,552.543C250.307,547.857 254.216,541.979 259.715,538.229C268.417,532.296 278.359,527.573 287.819,522.981C291.604,521.143 297.751,519.569 300.456,516.147C303.971,511.698 296.492,500.56 293.027,497.865C287.56,493.613 277.557,498.433 272.24,500.695C250.839,509.801 238.608,527.991 224.219,545.709C219.612,551.381 215.07,557.108 210.541,562.842C204.261,570.792 198.039,578.789 191.883,586.835C184.658,596.278 177.601,605.857 170.929,615.701C169.015,618.524 167.13,621.368 165.253,624.216C163.912,626.251 162.587,628.295 161.269,630.344C157.198,636.678 141.179,654.394 154.288,658.534L165.951,653.064Z" style="fill: rgb(244, 248, 251)" /><path d="M280.213,514.197C280.582,512.811 268.527,541.212 266.567,549.559C260.901,573.693 261.226,601.268 260.87,625.927C260.039,683.596 271.443,747.37 281.837,803.875C284.846,820.233 306.045,935.177 314.553,947.531C323.599,960.666 341.574,955.361 356.429,954.184C367.459,953.31 353.915,863.688 352.008,855.89C347.434,837.176 341.565,818.742 336.594,800.127C314.819,718.574 304.369,635.176 294.359,551.566L280.213,514.197ZM206.789,687.215C208.363,687.659 210.456,689.939 211.786,690.879C215.703,693.649 219.673,696.34 223.615,699.073C224.132,699.432 228.415,702.915 228.984,702.532C229.133,702.431 227.704,700.987 227.617,700.898C225.995,699.219 224.303,697.603 222.635,695.97C219.336,692.742 214.172,685.592 208.934,685.467L206.789,687.215Z" style="fill: rgb(130, 168, 187)" /></g><path d="M276.893,517.508C277.435,517.127 265.361,526.004 261.799,528.055C250.407,534.614 242.164,542.05 233.709,552.195C215.039,574.6 197.294,597.743 181.382,622.196C176.461,629.758 163.364,649.385 163.364,649.385C163.364,649.385 174.01,655.964 175.278,656.841C185.613,663.989 194.54,670.556 204.646,678.015C208.851,681.118 216.115,688.741 216.115,688.741C216.115,688.741 203.755,689.059 203.006,689.117C189.194,690.179 175.401,691.276 161.646,692.943C160.782,693.048 149.459,694.221 149.459,694.221C149.459,694.221 156.077,703.259 157.211,705.805C161.642,715.757 165.366,726.733 169.021,736.998C179.754,767.137 201.074,883.129 223.607,908.322C227.325,912.478 304.717,910.928 306.673,907.894C309.903,902.881 286.313,772.862 282.204,749.759C269.62,679.004 264.996,604.357 277.631,533.6L276.893,517.508Z" style="fill: none; stroke: black; stroke-width: 2.1px" /><g transform="matrix(-1,0,0,1,800.283,0)"><path d="M276.893,517.508C277.435,517.127 265.361,526.004 261.799,528.055C250.407,534.614 242.164,542.05 233.709,552.195C215.039,574.6 197.294,597.743 181.382,622.196C176.461,629.758 163.364,649.385 163.364,649.385C163.364,649.385 174.01,655.964 175.278,656.841C185.613,663.989 194.54,670.556 204.646,678.015C208.851,681.118 216.115,688.741 216.115,688.741C216.115,688.741 203.755,689.059 203.006,689.117C189.194,690.179 175.401,691.276 161.646,692.943C160.782,693.048 149.459,694.221 149.459,694.221C149.459,694.221 156.077,703.259 157.211,705.805C161.642,715.757 165.366,726.733 169.021,736.998C179.754,767.137 201.074,883.129 223.607,908.322C227.325,912.478 304.717,910.928 306.673,907.894C309.903,902.881 286.313,772.862 282.204,749.759C269.62,679.004 264.996,604.357 277.631,533.6L276.893,517.508Z" style="fill: url(#_Linear8)" /><clipPath id="_clip9"><path d="M276.893,517.508C277.435,517.127 265.361,526.004 261.799,528.055C250.407,534.614 242.164,542.05 233.709,552.195C215.039,574.6 197.294,597.743 181.382,622.196C176.461,629.758 163.364,649.385 163.364,649.385C163.364,649.385 174.01,655.964 175.278,656.841C185.613,663.989 194.54,670.556 204.646,678.015C208.851,681.118 216.115,688.741 216.115,688.741C216.115,688.741 203.755,689.059 203.006,689.117C189.194,690.179 175.401,691.276 161.646,692.943C160.782,693.048 149.459,694.221 149.459,694.221C149.459,694.221 156.077,703.259 157.211,705.805C161.642,715.757 165.366,726.733 169.021,736.998C179.754,767.137 201.074,883.129 223.607,908.322C227.325,912.478 304.717,910.928 306.673,907.894C309.903,902.881 286.313,772.862 282.204,749.759C269.62,679.004 264.996,604.357 277.631,533.6L276.893,517.508Z" /></clipPath><g clip-path="url(#_clip9)"><path d="M228.482,701.232C228.647,700.991 219.551,691.719 216.193,688.868" style="fill: none; stroke: black; stroke-width: 2.1px" /><g transform="matrix(-1,0,0,1,800.283,0)"><path d="M585.316,690.311C593.531,691.272 610.937,693.17 622.045,695.467C626.476,696.384 634.986,699.302 634.986,699.302C634.986,699.302 629.051,715.416 627.569,722.224C623.609,740.406 611.259,795.02 609.848,813.551C609.362,819.937 603.46,852.785 603.269,859.186C603.254,859.687 614.289,821.991 616.783,813.154C617.568,810.372 624.519,791.984 625.261,790.006C630.945,774.872 636.347,759.641 642.144,744.548C647.281,731.176 652.246,717.715 658.352,704.748C659.853,701.562 664.877,694.64 662.433,690.983C660.779,688.508 656.915,687.754 654.228,687.185C646.581,685.567 638.461,685.269 630.674,684.949C623.439,684.652 616.244,684.846 609.019,685.258L585.316,690.311ZM634.332,653.064C634.117,654.032 633.129,651.485 632.546,650.683C631.378,649.072 630.161,647.498 628.999,645.882C625.436,640.926 621.864,635.978 618.339,630.995C608.022,616.409 597.335,602.028 586.404,587.897C576.611,575.236 565.862,563.878 554.622,552.543C549.976,547.857 546.067,541.979 540.568,538.229C531.866,532.296 521.925,527.573 512.464,522.981C508.679,521.143 502.532,519.569 499.828,516.147C496.313,511.698 503.792,500.56 507.256,497.865C512.724,493.613 522.726,498.433 528.043,500.695C549.444,509.801 561.676,527.991 576.064,545.709C580.671,551.381 585.213,557.108 589.743,562.842C596.022,570.792 602.244,578.789 608.4,586.835C615.625,596.278 622.683,605.857 629.355,615.701C631.269,618.524 633.153,621.368 635.03,624.216C636.371,626.251 637.696,628.295 639.014,630.344C643.085,636.678 659.104,654.394 645.995,658.534L634.332,653.064Z" style="fill: rgb(244, 248, 251)" /></g><g transform="matrix(-1,0,0,1,800.283,0)"><path d="M520.071,514.197C519.701,512.811 531.756,541.212 533.716,549.559C539.383,573.693 539.057,601.268 539.413,625.927C540.245,683.596 528.84,747.37 518.446,803.875C515.437,820.233 494.238,935.177 485.73,947.531C476.684,960.666 458.71,955.361 443.854,954.184C432.824,953.31 446.369,863.688 448.275,855.89C452.849,837.176 458.718,818.742 463.689,800.127C485.464,718.574 495.914,635.176 505.924,551.566L520.071,514.197ZM593.494,687.215C591.92,687.659 589.827,689.939 588.497,690.879C584.58,693.649 580.611,696.34 576.668,699.073C576.151,699.432 571.868,702.915 571.3,702.532C571.15,702.431 572.579,700.987 572.666,700.898C574.288,699.219 575.98,697.603 577.648,695.97C580.947,692.742 586.111,685.592 591.349,685.467L593.494,687.215Z" style="fill: rgb(130, 168, 187)" /></g></g><path d="M276.893,517.508C277.435,517.127 265.361,526.004 261.799,528.055C250.407,534.614 242.164,542.05 233.709,552.195C215.039,574.6 197.294,597.743 181.382,622.196C176.461,629.758 163.364,649.385 163.364,649.385C163.364,649.385 174.01,655.964 175.278,656.841C185.613,663.989 194.54,670.556 204.646,678.015C208.851,681.118 216.115,688.741 216.115,688.741C216.115,688.741 203.755,689.059 203.006,689.117C189.194,690.179 175.401,691.276 161.646,692.943C160.782,693.048 149.459,694.221 149.459,694.221C149.459,694.221 156.077,703.259 157.211,705.805C161.642,715.757 165.366,726.733 169.021,736.998C179.754,767.137 201.074,883.129 223.607,908.322C227.325,912.478 304.717,910.928 306.673,907.894C309.903,902.881 286.313,772.862 282.204,749.759C269.62,679.004 264.996,604.357 277.631,533.6L276.893,517.508Z" style="fill: none; stroke: black; stroke-width: 2.1px" /></g></g></g></g></g></g><defs><linearGradient id="_Linear2" x1="0" y1="0" x2="1" y2="0.0286456" gradientUnits="userSpaceOnUse" gradientTransform="matrix(5.33425,347.021,-211.665,-0.444678,116.784,544.634)"><stop offset="0" style="stop-color: rgb(218, 231, 237); stop-opacity: 1" /><stop offset="0.53" style="stop-color: rgb(200, 219, 230); stop-opacity: 1" /><stop offset="1" style="stop-color: rgb(140, 180, 206); stop-opacity: 1" /></linearGradient><linearGradient id="_Linear4" x1="0" y1="0" x2="1" y2="0.0286456" gradientUnits="userSpaceOnUse" gradientTransform="matrix(5.33425,347.021,-211.665,-0.444678,116.784,544.634)"><stop offset="0" style="stop-color: rgb(218, 231, 237); stop-opacity: 1" /><stop offset="0.53" style="stop-color: rgb(200, 219, 230); stop-opacity: 1" /><stop offset="1" style="stop-color: rgb(140, 180, 206); stop-opacity: 1" /></linearGradient><linearGradient id="_Linear6" x1="0" y1="0" x2="1" y2="0.128238" gradientUnits="userSpaceOnUse" gradientTransform="matrix(4.03851,445.622,-131.304,-3.77558,224.289,523.654)"><stop offset="0" style="stop-color: rgb(218, 231, 237); stop-opacity: 1" /><stop offset="0.51" style="stop-color: rgb(199, 219, 230); stop-opacity: 1" /><stop offset="1" style="stop-color: rgb(140, 180, 206); stop-opacity: 1" /></linearGradient><linearGradient id="_Linear8" x1="0" y1="0" x2="1" y2="0.128238" gradientUnits="userSpaceOnUse" gradientTransform="matrix(4.03851,445.622,-131.304,-3.77558,224.289,523.654)"><stop offset="0" style="stop-color: rgb(218, 231, 237); stop-opacity: 1" /><stop offset="0.51" style="stop-color: rgb(199, 219, 230); stop-opacity: 1" /><stop offset="1" style="stop-color: rgb(140, 180, 206); stop-opacity: 1" /></linearGradient></defs></pattern><g transform="matrix(1,0,0,1,7.6296,-2.65748)"><text x="263.72px" y="53.076px" style="font-family: 'Futura-Medium', 'Futura', sans-serif; font-weight: 500; font-size: 50px; fill: white">SEASON 0</text></g></g><defs><linearGradient id="_Linear3_card_template" x1="0" y1="0" x2="1" y2="0" gradientUnits="userSpaceOnUse" gradientTransform="matrix(3.89688e-14,-610.267,636.408,3.73681e-14,398.243,614.74)"><stop offset="0" style="stop-color: rgb(80, 225, 255); stop-opacity: 1" /><stop offset="0.44" style="stop-color: rgb(219, 249, 255); stop-opacity: 1" /><stop offset="1" style="stop-color: white; stop-opacity: 1" /></linearGradient><g id="heli-cap"><path id="Shadow" d="M404.234,215.129C428.898,218.296 500.585,226.535 542.136,238.146C592.982,252.354 584.265,253.34 584.265,253.34L550.569,247.259L542.493,305.294C542.493,305.294 541.37,323.811 530.272,331.323C519.173,338.835 479.09,333.357 447.17,329.124C424.063,326.059 407.352,325.468 399.884,325.376C392.417,325.468 375.705,326.059 352.598,329.124C320.678,333.357 280.595,338.835 269.497,331.323C258.398,323.811 257.275,305.294 257.275,305.294L249.199,247.259L215.503,253.34C215.503,253.34 207.131,252.297 257.976,238.089C299.527,226.479 370.87,218.296 395.534,215.129L395.534,214.041C395.534,214.041 397.081,214.225 399.884,214.577C402.687,214.225 404.234,214.041 404.234,214.041L404.234,215.129Z" style="fill: rgb(56, 25, 57); fill-opacity: 0.5" /><g id="fan-bit"><path d="M395.662,27.087C395.662,27.087 305.36,21.898 297.195,21.931C289.03,21.964 217.675,23.635 219.953,27.087C222.232,30.54 246.78,39.059 264.821,40.14C282.862,41.221 395.662,31.814 395.662,31.814L395.662,27.087Z" style="fill: rgb(255, 223, 92)" /><clipPath id="_clip1_helicap"><path d="M395.662,27.087C395.662,27.087 305.36,21.898 297.195,21.931C289.03,21.964 217.675,23.635 219.953,27.087C222.232,30.54 246.78,39.059 264.821,40.14C282.862,41.221 395.662,31.814 395.662,31.814L395.662,27.087Z" /></clipPath><g clip-path="url(#_clip1_helicap)"><path d="M225.045,30.993C224.466,30.556 226.493,31.072 227.216,31.134C228.615,31.253 230.015,31.49 231.402,31.711C235.56,32.373 239.679,33.266 243.832,33.951C256.481,36.039 268.516,36.65 281.321,35.92C311.507,34.198 341.744,31.992 371.953,30.788C378.744,30.517 385.563,29.762 392.361,29.793C393.154,29.796 398.369,29.49 398.481,30.879C398.643,32.871 390.787,34.056 389.713,34.297C379.34,36.621 368.638,37.688 358.071,38.674C335.223,40.808 312.31,42.38 289.381,43.297C269.861,44.077 249.889,44.568 231.024,38.676" style="fill: rgb(160, 127, 79)" /><path d="M221.982,34.549C221.357,34.464 223.132,34.023 223.728,33.816C224.969,33.385 226.236,33.022 227.503,32.675C231.207,31.658 234.941,30.706 238.7,29.914C250.216,27.49 261.202,27.44 272.971,27.087C304.553,26.141 336.842,27.518 368.406,28.034C376.092,28.159 383.776,28.339 391.464,28.358C393.343,28.363 395.23,28.409 397.107,28.295C397.365,28.279 398.648,28.328 398.721,27.932C398.808,27.454 397.199,26.951 396.934,26.847C394.602,25.938 392.138,25.344 389.71,24.758C378.824,22.128 367.743,20.21 356.698,18.389C320.376,12.401 283.559,9.397 247.002,15.239C236.346,16.943 224.953,18.817 215.008,23.192C211.62,24.682 204.696,29.027 210.51,32.198" style="fill: rgb(254, 239, 171)" /></g><path d="M395.662,27.087C395.662,27.087 305.36,21.898 297.195,21.931C289.03,21.964 217.675,23.635 219.953,27.087C222.232,30.54 246.78,39.059 264.821,40.14C282.862,41.221 395.662,31.814 395.662,31.814L395.662,27.087Z" style="fill: none; stroke: black; stroke-width: 2.1px" /><g transform="matrix(-1,0,0,1,800.877,0)"><path d="M395.662,27.087C395.662,27.087 305.36,21.898 297.195,21.931C289.03,21.964 217.675,23.635 219.953,27.087C222.232,30.54 246.78,39.059 264.821,40.14C282.862,41.221 395.662,31.814 395.662,31.814L395.662,27.087Z" style="fill: rgb(255, 223, 92)" /><clipPath id="_clip2_helicap"><path d="M395.662,27.087C395.662,27.087 305.36,21.898 297.195,21.931C289.03,21.964 217.675,23.635 219.953,27.087C222.232,30.54 246.78,39.059 264.821,40.14C282.862,41.221 395.662,31.814 395.662,31.814L395.662,27.087Z" /></clipPath><g clip-path="url(#_clip2_helicap)"><path d="M225.045,30.993C224.466,30.556 226.493,31.072 227.216,31.134C228.615,31.253 230.015,31.49 231.402,31.711C235.56,32.373 239.679,33.266 243.832,33.951C256.481,36.039 268.516,36.65 281.321,35.92C311.507,34.198 341.744,31.992 371.953,30.788C378.744,30.517 385.563,29.762 392.361,29.793C393.154,29.796 398.369,29.49 398.481,30.879C398.643,32.871 390.787,34.056 389.713,34.297C379.34,36.621 368.638,37.688 358.071,38.674C335.223,40.808 312.31,42.38 289.381,43.297C269.861,44.077 249.889,44.568 231.024,38.676" style="fill: rgb(160, 127, 79)" /><path d="M221.982,34.549C221.357,34.464 223.132,34.023 223.728,33.816C224.969,33.385 226.236,33.022 227.503,32.675C231.207,31.658 234.941,30.706 238.7,29.914C250.216,27.49 261.202,27.44 272.971,27.087C304.553,26.141 336.842,27.518 368.406,28.034C376.092,28.159 383.776,28.339 391.464,28.358C393.343,28.363 395.23,28.409 397.107,28.295C397.365,28.279 398.648,28.328 398.721,27.932C398.808,27.454 397.199,26.951 396.934,26.847C394.602,25.938 392.138,25.344 389.71,24.758C378.824,22.128 367.743,20.21 356.698,18.389C320.376,12.401 283.559,9.397 247.002,15.239C236.346,16.943 224.953,18.817 215.008,23.192C211.62,24.682 204.696,29.027 210.51,32.198" style="fill: rgb(254, 239, 171)" /></g><path d="M395.662,27.087C395.662,27.087 305.36,21.898 297.195,21.931C289.03,21.964 217.675,23.635 219.953,27.087C222.232,30.54 246.78,39.059 264.821,40.14C282.862,41.221 395.662,31.814 395.662,31.814L395.662,27.087Z" style="fill: none; stroke: black; stroke-width: 2.1px" /></g><path d="M395.662,36.495L395.751,21.86C395.751,21.86 396.109,18.084 399.915,17.68C399.926,17.679 399.937,17.679 399.948,17.68C399.959,17.679 399.971,17.679 399.982,17.68C403.788,18.084 404.145,21.86 404.145,21.86L404.234,36.495L395.662,36.495Z" style="fill: rgb(255, 223, 92)" /><clipPath id="_clip3_helicap"><path d="M395.662,36.495L395.751,21.86C395.751,21.86 396.109,18.084 399.915,17.68C399.926,17.679 399.937,17.679 399.948,17.68C399.959,17.679 399.971,17.679 399.982,17.68C403.788,18.084 404.145,21.86 404.145,21.86L404.234,36.495L395.662,36.495Z" /></clipPath><g clip-path="url(#_clip3_helicap)"><path d="M396.408,29.617C396.622,29.65 396.458,29.188 396.499,28.976C396.586,28.528 396.7,28.084 396.829,27.647C397.214,26.343 397.757,24.643 399.011,23.909C400.932,22.783 402.315,25.251 402.895,26.692C403,26.952 403.771,29.292 403.827,29.257C404.439,28.867 404.137,25.96 404.128,25.393C404.091,23.044 404.028,20.205 402.607,18.211C400.488,15.235 397.048,17.454 396.012,20.143C395.592,21.235 395.43,22.372 395.383,23.535C395.31,25.354 395.397,27.164 395.535,28.977" style="fill: rgb(254, 239, 171)" /><path d="M397.685,37.145C397.749,37.229 397.921,36.235 397.982,35.601C398.159,33.772 398.137,29.726 398.588,28.438C398.797,27.841 399.356,26.99 400.104,27.024C400.945,27.062 401.459,28.117 401.604,28.989C401.909,30.833 402.046,33.45 402.211,35.31C402.242,35.657 402.318,36.883 402.038,37.169C401.738,37.475 401.072,37.264 400.699,37.246" style="fill: rgb(160, 127, 79)" /></g><path d="M395.662,36.495L395.751,21.86C395.751,21.86 396.109,18.084 399.915,17.68C399.926,17.679 399.937,17.679 399.948,17.68C399.959,17.679 399.971,17.679 399.982,17.68C403.788,18.084 404.145,21.86 404.145,21.86L404.234,36.495L395.662,36.495Z" style="fill: none; stroke: black; stroke-width: 2.1px" /></g><g id="Cap"><g transform="matrix(1,0,0,1.17244,0.492122,-13.9146)"><ellipse cx="399.645" cy="49.941" rx="13.8" ry="6.946" style="fill: rgb(235, 65, 81)" /><clipPath id="_clip4"><ellipse cx="399.645" cy="49.941" rx="13.8" ry="6.946" /></clipPath><g clip-path="url(#_clip4)"><g transform="matrix(1,0,0,0.85292,-0.492122,11.868)"><path d="M401.096,36.072C401.204,36.209 400.782,36.223 400.629,36.306C400.317,36.474 400.014,36.659 399.719,36.855C398.851,37.433 397.984,38.08 397.247,38.82C396.394,39.676 395.756,40.729 395.141,41.761C394.702,42.5 394.314,43.34 393.452,43.653C391.461,44.376 388.942,43.894 386.882,43.762C386.382,43.73 384.99,43.751 384.867,43.052C384.762,42.453 385.534,41.728 385.889,41.348C387.186,39.958 388.811,38.787 390.491,37.908C392.195,37.015 394.026,36.518 395.915,36.2L401.096,36.072ZM400.846,37.102C400.704,37.107 401.084,37.26 401.196,37.348C401.422,37.524 401.643,37.71 401.856,37.901C402.508,38.488 403.129,39.093 403.652,39.801C404.274,40.64 404.859,41.926 405.729,42.523C406.892,43.323 409.006,43.103 410.336,43.246C410.947,43.312 412.812,43.875 413.279,43.263C413.926,42.417 412.056,40.88 411.571,40.433C409.234,38.282 406.484,36.91 403.337,36.446L400.846,37.102Z" style="fill: rgb(245, 180, 162)" /></g></g><ellipse cx="399.645" cy="49.941" rx="13.8" ry="6.946" style="fill: none; stroke: black; stroke-width: 1.93px" /></g><path d="M397.676,42.89C398.239,42.681 401.591,42.681 402.153,42.89C501.816,49.249 562.727,112.371 575.583,128.609C598.099,165.571 588.808,253.34 588.808,253.34L550.413,240.154C501.393,225.168 450.081,213.936 399.915,213.936C349.748,213.936 298.436,225.168 249.416,240.154L211.021,253.34C211.021,253.34 201.73,165.571 224.246,128.609C237.102,112.371 298.013,49.249 397.676,42.89Z" style="fill: url(#_Linear5)" /><clipPath id="_clip6"><path d="M397.676,42.89C398.239,42.681 401.591,42.681 402.153,42.89C501.816,49.249 562.727,112.371 575.583,128.609C598.099,165.571 588.808,253.34 588.808,253.34L550.413,240.154C501.393,225.168 450.081,213.936 399.915,213.936C349.748,213.936 298.436,225.168 249.416,240.154L211.021,253.34C211.021,253.34 201.73,165.571 224.246,128.609C237.102,112.371 298.013,49.249 397.676,42.89Z" /></clipPath><g clip-path="url(#_clip6)"><path d="M249.199,239.63C249.199,239.63 253.866,164.607 268.912,136.528C283.959,108.45 312.705,85.883 333.536,71.098C354.368,56.313 390.641,43.187 390.777,43.294C390.913,43.4 396.586,42.578 396.586,42.578C396.586,42.578 374.576,62.921 364.35,92.142C354.124,121.362 346.116,161.226 347.318,218.647C340.968,218.814 275.527,230.905 267.561,234.361C259.596,237.818 249.199,239.63 249.199,239.63ZM551.074,239.63C551.074,239.63 546.408,164.607 531.361,136.528C516.315,108.45 487.569,85.883 466.737,71.098C445.905,56.313 409.632,43.187 409.496,43.294C409.361,43.4 403.687,42.578 403.687,42.578C403.687,42.578 425.697,62.921 435.923,92.142C446.149,121.362 454.157,161.226 452.955,218.647C459.305,218.814 524.746,230.905 532.712,234.361C540.678,237.818 551.074,239.63 551.074,239.63Z" style="fill: url(#_Linear7)" /><path d="M386.51,40.023C386.149,40.084 385.678,40.219 385.621,40.231C382.237,40.915 378.883,41.767 375.538,42.617C363.669,45.633 355.109,49.217 343.932,54.254C303.045,72.682 247.542,103.044 231.39,146.585C222.965,169.296 223.688,209.652 225.073,237.051C225.43,244.108 227.418,247.931 226.532,254.956C225.78,260.918 213.933,261.098 210.297,258.578C204.079,254.269 201.397,245.103 200.242,238.083C197.333,220.407 199.714,201.275 201.542,183.602C203.778,161.983 208.463,138.497 220.356,119.889C230.231,104.439 245.732,92.839 260.744,82.753C294.17,60.297 333.806,42.68 374.377,39.606L386.51,40.023ZM413.666,40.023C414.027,40.084 414.499,40.219 414.555,40.231C417.94,40.915 421.293,41.767 424.639,42.617C436.507,45.633 445.067,49.217 456.244,54.254C497.131,72.682 552.634,103.044 568.786,146.585C577.211,169.296 576.488,209.652 575.104,237.051C574.747,244.108 572.758,247.931 573.644,254.956C574.396,260.918 586.243,261.098 589.88,258.578C596.098,254.269 598.779,245.103 599.934,238.083C602.844,220.407 600.463,201.275 598.635,183.602C596.398,161.983 591.713,138.497 579.82,119.889C569.946,104.439 554.444,92.839 539.432,82.753C506.007,60.297 466.371,42.68 425.8,39.606L413.666,40.023ZM386.51,40.023L386.927,40.038C386.903,39.978 386.727,39.987 386.51,40.023ZM413.666,40.023L413.25,40.038C413.273,39.978 413.45,39.987 413.666,40.023Z" style="fill: rgb(245, 180, 162)" /><path d="M249.586,240.272C249.586,240.272 250.164,154.307 278.814,120.051C307.465,85.795 350.156,54.702 391.1,43.408" style="fill: none; stroke: black; stroke-width: 2.1px" /><g transform="matrix(-1,0,0,1,799.538,0)"><path d="M249.586,240.272C249.586,240.272 250.164,154.307 278.814,120.051C307.465,85.795 350.442,54.751 391.387,43.457" style="fill: none; stroke: black; stroke-width: 2.1px" /></g><path d="M347.158,217.127C347.158,217.127 347.667,120.455 367.04,84.844C386.412,49.233 394.933,43.753 394.933,43.753" style="fill: none; stroke: black; stroke-width: 2.1px" /><g transform="matrix(-1,0,0,1,799.538,0)"><path d="M347.158,217.127C347.158,217.127 347.667,120.455 367.04,84.844C386.412,49.233 394.933,43.753 394.933,43.753" style="fill: none; stroke: black; stroke-width: 2.1px" /></g></g><path d="M397.676,42.89C398.239,42.681 401.591,42.681 402.153,42.89C501.816,49.249 562.727,112.371 575.583,128.609C598.099,165.571 588.808,253.34 588.808,253.34L550.413,240.154C501.393,225.168 450.081,213.936 399.915,213.936C349.748,213.936 298.436,225.168 249.416,240.154L211.021,253.34C211.021,253.34 201.73,165.571 224.246,128.609C237.102,112.371 298.013,49.249 397.676,42.89Z" style="fill: none; stroke: black; stroke-width: 2.1px" /><path d="M400.347,214.257L401.046,214.208C401.046,214.208 449.984,210.469 544.124,238.299C546.339,238.954 551.328,240.087 551.328,240.087C551.328,240.087 551.171,297.659 547.632,301.641C544.093,305.623 528.746,308.238 501.077,299.129C475.591,290.739 428.873,277.289 406.043,275.531L406.052,275.716C406.052,275.716 403.087,275.432 400.347,275.357C397.607,275.432 394.642,275.716 394.642,275.716L394.651,275.531C371.821,277.289 325.102,290.739 299.616,299.129C271.947,308.238 256.601,305.623 253.062,301.641C249.522,297.659 249.366,240.087 249.366,240.087C249.366,240.087 254.355,238.954 256.57,238.299C350.709,210.469 399.648,214.208 399.648,214.208L400.347,214.257Z" style="fill: url(#_Linear8)" /><clipPath id="_clip9"><path d="M400.347,214.257L401.046,214.208C401.046,214.208 449.984,210.469 544.124,238.299C546.339,238.954 551.328,240.087 551.328,240.087C551.328,240.087 551.171,297.659 547.632,301.641C544.093,305.623 528.746,308.238 501.077,299.129C475.591,290.739 428.873,277.289 406.043,275.531L406.052,275.716C406.052,275.716 403.087,275.432 400.347,275.357C397.607,275.432 394.642,275.716 394.642,275.716L394.651,275.531C371.821,277.289 325.102,290.739 299.616,299.129C271.947,308.238 256.601,305.623 253.062,301.641C249.522,297.659 249.366,240.087 249.366,240.087C249.366,240.087 254.355,238.954 256.57,238.299C350.709,210.469 399.648,214.208 399.648,214.208L400.347,214.257Z" /></clipPath><g clip-path="url(#_clip9)"><path d="M251.594,304.731C251.855,304.832 251.343,304.231 251.219,303.98C250.987,303.508 250.764,303.037 250.575,302.546C250.178,301.512 248.566,297.054 250.267,296.409C250.947,296.151 251.987,297.086 252.485,297.443C254.046,298.559 255.536,299.132 257.393,299.572C262.424,300.766 267.816,300.083 272.82,299.104C280.741,297.554 288.173,294.644 295.884,292.343C309.5,288.281 323.323,284.314 337.073,280.731C358.304,275.198 380.747,268.911 402.879,269.112C413.132,269.206 423.378,271.42 433.364,273.556C447.757,276.636 462.055,280.229 476.212,284.264C492.078,288.786 507.505,294.936 523.521,298.915C526.586,299.676 536.917,300.668 544.665,299.083C547.082,298.589 549.341,294.044 550.722,294.862C552.363,295.833 552.898,302.364 552.859,304.112C552.755,308.734 528.869,308.393 526.293,308.154C525.101,308.044 523.911,307.919 522.722,307.782C521.31,307.618 519.899,307.44 518.49,307.25C516.83,307.027 515.17,306.794 513.513,306.547C511.62,306.266 509.729,305.973 507.84,305.669C472.977,300.059 438.366,292.599 402.918,291.939C380.65,291.524 358.558,294.166 336.816,298.89C319.525,302.647 302.576,307.914 285.225,311.392C273.857,313.671 251.512,316.991 247.271,301.573" style="fill: rgb(136, 47, 70)" /><path d="M304.06,221.428C304.196,221.397 304.296,221.385 304.356,221.393L304.06,221.428C301.643,221.973 287.912,228.319 284.128,230.433C275.725,235.129 262.331,240.137 258.778,247.358C256.559,251.869 256.411,257.63 256.193,262.592C256.007,266.843 256.49,272.054 256.819,276.295C257.425,284.097 256.806,291.928 265.149,294.62C268.762,295.785 274.938,295.658 278.728,295.876C280.053,295.953 286.575,295.818 286.575,295.875C286.575,296.105 271.974,299.379 267.78,299.819C263.539,300.264 258.059,300.249 254.244,298C244.208,292.081 243.503,272.492 242.848,262.664C242.333,254.936 241.625,246.108 245.124,238.937C247.754,233.545 252.778,229.873 257.849,226.955L304.06,221.428ZM496.238,221.428C498.655,221.973 512.386,228.319 516.17,230.433C524.573,235.129 537.967,240.137 541.52,247.358C543.739,251.869 543.887,257.63 544.105,262.592C544.291,266.843 543.808,272.054 543.479,276.295C542.874,284.097 543.492,291.928 535.149,294.62C531.536,295.785 525.36,295.658 521.57,295.876C520.245,295.953 513.723,295.818 513.723,295.875C513.723,296.105 528.324,299.379 532.519,299.819C536.759,300.264 542.239,300.249 546.054,298C556.09,292.081 556.795,272.492 557.45,262.664C557.966,254.936 558.673,246.108 555.174,238.937C552.544,233.545 547.521,229.873 542.449,226.955L496.238,221.428C496.102,221.397 496.003,221.385 495.942,221.393L496.238,221.428Z" style="fill: rgb(245, 180, 162)" /><path d="M251.677,295.591C251.677,295.591 256.821,304.1 277.718,297.961C298.615,291.823 371.118,268.698 399.043,268.92C426.969,269.142 476.724,284.555 501.938,292.832C527.152,301.109 544.899,301.572 548.436,295.121" style="fill: none; stroke: black; stroke-width: 2.1px" /></g><path d="M400.347,214.257L401.046,214.208C401.046,214.208 449.984,210.469 544.124,238.299C546.339,238.954 551.328,240.087 551.328,240.087C551.328,240.087 551.171,297.659 547.632,301.641C544.093,305.623 528.746,308.238 501.077,299.129C475.591,290.739 428.873,277.289 406.043,275.531L406.052,275.716C406.052,275.716 403.087,275.432 400.347,275.357C397.607,275.432 394.642,275.716 394.642,275.716L394.651,275.531C371.821,277.289 325.102,290.739 299.616,299.129C271.947,308.238 256.601,305.623 253.062,301.641C249.522,297.659 249.366,240.087 249.366,240.087C249.366,240.087 254.355,238.954 256.57,238.299C350.709,210.469 399.648,214.208 399.648,214.208L400.347,214.257Z" style="fill: none; stroke: black; stroke-width: 2.1px" /></g></g><linearGradient id="_Linear5" x1="0" y1="0" x2="1" y2="0" gradientUnits="userSpaceOnUse" gradientTransform="matrix(0.676239,212.321,-212.321,0.676239,399.671,115.988)"><stop offset="0" style="stop-color: rgb(236, 65, 81); stop-opacity: 1" /><stop offset="0.5" style="stop-color: rgb(220, 55, 76); stop-opacity: 1" /><stop offset="1" style="stop-color: rgb(172, 27, 60); stop-opacity: 1" /></linearGradient><linearGradient id="_Linear7" x1="0" y1="0" x2="1" y2="0" gradientUnits="userSpaceOnUse" gradientTransform="matrix(0.676239,174.104,-174.104,0.676239,399.671,95.0041)"><stop offset="0" style="stop-color: rgb(245, 249, 251); stop-opacity: 1" /><stop offset="0.59" style="stop-color: rgb(226, 236, 243); stop-opacity: 1" /><stop offset="0.81" style="stop-color: rgb(183, 208, 225); stop-opacity: 1" /><stop offset="1" style="stop-color: rgb(140, 180, 206); stop-opacity: 1" /></linearGradient><linearGradient id="_Linear8" x1="0" y1="0" x2="1" y2="0" gradientUnits="userSpaceOnUse" gradientTransform="matrix(6.8912e-15,-112.542,112.542,6.8912e-15,399.671,269.108)"><stop offset="0" style="stop-color: rgb(236, 65, 81); stop-opacity: 1" /><stop offset="0.46" style="stop-color: rgb(227, 63, 84); stop-opacity: 1" /><stop offset="1" style="stop-color: rgb(203, 57, 90); stop-opacity: 1" /></linearGradient></defs></svg>