<svg
  width="100%"
  height="100%"
  viewBox="0 0 800 800"
  xmlns="http://www.w3.org/2000/svg"
>
  <g id="hairstyle13-top">
    <path
      id="shadow"
      d="M264.746,187.835C273.997,200.568 279.279,215.117 292.378,224.898C310.316,238.291 331.361,248.464 353.123,253.776C374.005,258.873 395.299,257.474 415.534,267.448C436.393,277.729 456.883,289.679 475.656,302.908C486.529,310.568 496.261,317.448 508.179,323.576C520.943,330.138 535.261,335.156 547.652,342.232C556.023,347.013 563.499,355.316 569.858,362.439C580.974,374.89 584.713,379.801 590.756,395.228C591.106,396.122 593.189,374.675 595.859,353.193C597.178,342.58 593.985,332.05 592.955,320.038C590.157,287.423 582.312,251.989 564.571,235.889C511.502,187.73 444.042,169.12 373.41,174.053C339.11,176.448 302.848,187.015 268.978,187.113"
      style="fill: rgb(56, 25, 57); fill-opacity: 0.5"
    />
    <path
      id="main"
      d="M623.673,364.454C611.101,343.045 593.331,333.434 583.52,326.504C548.095,301.48 512.029,285.457 480.181,255.148C469.244,244.739 458.975,231.535 449.153,220.094C445.682,216.05 439.366,205.663 434.021,206.445C430.135,207.013 416.395,208.883 412.108,208.946C393.63,209.22 378.018,210.178 359.645,207.24C337.929,203.768 301.038,198.997 278.631,205.338C278.211,204.729 276.738,202.933 276.445,202.536C275.309,200.997 274.117,199.498 272.936,197.994C269.264,193.321 265.971,188.46 262.665,183.525C252.322,168.086 244.983,152.674 243.382,133.835C242.492,123.366 241.834,111.63 247.786,102.433C255.85,89.969 272.517,82.049 283.246,71.915C290.638,64.934 297.404,57.397 304.483,50.111C307.659,46.841 310.719,42.87 314.516,40.273C329.651,29.917 350.171,29.942 367.637,31.42C374.274,31.981 391.495,33.128 392.818,32.687C403.347,29.177 409.557,25.763 420.833,24.494C425.31,23.991 433.796,23.772 438.239,24.223C448.396,25.254 458.342,26.785 468.293,29.084C489.659,34.022 508.002,37.943 527.184,49.068C541.76,57.522 554.969,72.959 567.93,83.655C572.863,87.725 578.168,90.862 583.868,93.713C583.858,93.737 584.741,94.131 584.788,94.156C585.428,94.493 586.065,94.835 586.713,95.158C589.786,96.688 592.888,98.347 596.095,99.574C604.526,102.802 612.958,102.572 621.771,103.742C628.034,104.573 634.173,106.465 639.82,109.298C649.285,114.048 657.115,121.145 664.498,128.629C674.382,138.648 682.688,148.764 689.627,161.051C692.846,166.752 695.449,172.785 697.42,179.03C697.874,180.47 698.248,181.93 698.559,183.406C698.582,183.516 698.848,184.64 698.694,184.669C698.378,184.728 697.776,183.759 697.629,183.582C696.591,182.337 695.493,181.144 694.334,180.011C690.332,176.098 685.479,172.461 680.124,170.812C669.494,167.54 657.786,170.89 646.325,171.487C646.881,172.122 648.405,173.199 649.179,173.703C651.353,175.116 653.338,176.791 655.236,178.554C659.65,182.657 663.556,187.321 667.8,191.6C673.548,197.396 679.714,203.234 684.457,209.909C691.737,220.156 694.936,232.492 697.263,244.663C697.258,244.663 697.391,245.371 697.402,245.431C697.499,245.978 697.576,246.526 697.628,247.079C697.782,248.726 697.85,250.389 697.909,252.042C698.119,257.882 697.754,263.76 697.213,269.572C697.088,270.908 696.938,272.243 696.835,273.58C696.824,273.723 696.879,274.762 696.725,274.827C696.663,274.852 696.274,273.599 696.244,273.512C695.958,272.66 695.641,271.816 695.293,270.988C694.292,268.601 692.893,266.385 691.282,264.365C685.792,257.482 677.675,253.379 669.756,249.947C667.953,249.165 666.235,248.32 664.652,247.147C664.419,246.975 663.437,245.963 663.102,246.269C662.357,246.947 663.247,250.204 663.298,251.056C663.54,255.138 663.32,259.371 662.555,263.391C661.704,267.864 660.251,272.278 658.154,276.322C656.654,279.216 654.057,282.506 653.536,285.783C653.063,288.759 654.269,292.195 654.741,295.112C655.632,300.611 656.268,306.145 656.54,311.71C656.832,317.686 657.073,323.836 656.171,329.772C655.96,331.166 655.609,332.5 655.185,333.842C655.122,334.039 654.989,334.992 654.805,335.093C654.495,335.265 654.767,334.385 654.775,334.03C654.793,333.278 654.782,332.525 654.762,331.773C654.701,329.482 654.566,327.196 654.344,324.915C653.475,315.979 651.394,307.08 649.153,298.394C648.641,296.41 648.071,294.441 647.389,292.509C647.341,292.374 646.817,290.718 646.649,290.8C645.524,291.352 644.8,295.335 644.408,296.37C642.192,302.227 640.242,308.107 639.675,314.383C639.251,319.076 640.531,323.671 641.022,328.309C641.406,331.939 640.634,335.699 641.075,339.248C641.986,346.575 644.612,353.707 645.734,361.035C647.097,369.941 646.318,378.885 646.307,387.833C646.599,387.664 646.303,388.507 646.298,388.844C646.288,389.551 646.254,390.258 646.213,390.964C646.09,393.082 645.893,395.183 645.655,397.291C644.956,403.464 644.14,409.784 642.099,415.681C641.511,417.379 640.723,419.011 639.892,420.603C639.61,421.144 639.329,421.685 639.04,422.222C639.015,422.269 638.627,423.017 638.585,422.979C638.433,422.842 638.738,421.936 638.773,421.782C639.041,420.595 639.321,419.413 639.521,418.212C640.272,413.708 640.216,404.475 639.593,399.982C637.584,385.511 630.997,376.927 623.673,364.454Z"
      style="
        fill: rgb(
          calc(var(--color_hairs_r, 65) + 9),
          calc(var(--color_hairs_g, 190) + 3),
          calc(var(--color_hairs_b, 194) - 3)
        );
      "
    />
    <clipPath id="_clip2_hair13">
      <path
        id="main1"
        d="M623.673,364.454C611.101,343.045 593.331,333.434 583.52,326.504C548.095,301.48 512.029,285.457 480.181,255.148C469.244,244.739 458.975,231.535 449.153,220.094C445.682,216.05 439.366,205.663 434.021,206.445C430.135,207.013 416.395,208.883 412.108,208.946C393.63,209.22 378.018,210.178 359.645,207.24C337.929,203.768 301.038,198.997 278.631,205.338C278.211,204.729 276.738,202.933 276.445,202.536C275.309,200.997 274.117,199.498 272.936,197.994C269.264,193.321 265.971,188.46 262.665,183.525C252.322,168.086 244.983,152.674 243.382,133.835C242.492,123.366 241.834,111.63 247.786,102.433C255.85,89.969 272.517,82.049 283.246,71.915C290.638,64.934 297.404,57.397 304.483,50.111C307.659,46.841 310.719,42.87 314.516,40.273C329.651,29.917 350.171,29.942 367.637,31.42C374.274,31.981 391.495,33.128 392.818,32.687C403.347,29.177 409.557,25.763 420.833,24.494C425.31,23.991 433.796,23.772 438.239,24.223C448.396,25.254 458.342,26.785 468.293,29.084C489.659,34.022 508.002,37.943 527.184,49.068C541.76,57.522 554.969,72.959 567.93,83.655C572.863,87.725 578.168,90.862 583.868,93.713C583.858,93.737 584.741,94.131 584.788,94.156C585.428,94.493 586.065,94.835 586.713,95.158C589.786,96.688 592.888,98.347 596.095,99.574C604.526,102.802 612.958,102.572 621.771,103.742C628.034,104.573 634.173,106.465 639.82,109.298C649.285,114.048 657.115,121.145 664.498,128.629C674.382,138.648 682.688,148.764 689.627,161.051C692.846,166.752 695.449,172.785 697.42,179.03C697.874,180.47 698.248,181.93 698.559,183.406C698.582,183.516 698.848,184.64 698.694,184.669C698.378,184.728 697.776,183.759 697.629,183.582C696.591,182.337 695.493,181.144 694.334,180.011C690.332,176.098 685.479,172.461 680.124,170.812C669.494,167.54 657.786,170.89 646.325,171.487C646.881,172.122 648.405,173.199 649.179,173.703C651.353,175.116 653.338,176.791 655.236,178.554C659.65,182.657 663.556,187.321 667.8,191.6C673.548,197.396 679.714,203.234 684.457,209.909C691.737,220.156 694.936,232.492 697.263,244.663C697.258,244.663 697.391,245.371 697.402,245.431C697.499,245.978 697.576,246.526 697.628,247.079C697.782,248.726 697.85,250.389 697.909,252.042C698.119,257.882 697.754,263.76 697.213,269.572C697.088,270.908 696.938,272.243 696.835,273.58C696.824,273.723 696.879,274.762 696.725,274.827C696.663,274.852 696.274,273.599 696.244,273.512C695.958,272.66 695.641,271.816 695.293,270.988C694.292,268.601 692.893,266.385 691.282,264.365C685.792,257.482 677.675,253.379 669.756,249.947C667.953,249.165 666.235,248.32 664.652,247.147C664.419,246.975 663.437,245.963 663.102,246.269C662.357,246.947 663.247,250.204 663.298,251.056C663.54,255.138 663.32,259.371 662.555,263.391C661.704,267.864 660.251,272.278 658.154,276.322C656.654,279.216 654.057,282.506 653.536,285.783C653.063,288.759 654.269,292.195 654.741,295.112C655.632,300.611 656.268,306.145 656.54,311.71C656.832,317.686 657.073,323.836 656.171,329.772C655.96,331.166 655.609,332.5 655.185,333.842C655.122,334.039 654.989,334.992 654.805,335.093C654.495,335.265 654.767,334.385 654.775,334.03C654.793,333.278 654.782,332.525 654.762,331.773C654.701,329.482 654.566,327.196 654.344,324.915C653.475,315.979 651.394,307.08 649.153,298.394C648.641,296.41 648.071,294.441 647.389,292.509C647.341,292.374 646.817,290.718 646.649,290.8C645.524,291.352 644.8,295.335 644.408,296.37C642.192,302.227 640.242,308.107 639.675,314.383C639.251,319.076 640.531,323.671 641.022,328.309C641.406,331.939 640.634,335.699 641.075,339.248C641.986,346.575 644.612,353.707 645.734,361.035C647.097,369.941 646.318,378.885 646.307,387.833C646.599,387.664 646.303,388.507 646.298,388.844C646.288,389.551 646.254,390.258 646.213,390.964C646.09,393.082 645.893,395.183 645.655,397.291C644.956,403.464 644.14,409.784 642.099,415.681C641.511,417.379 640.723,419.011 639.892,420.603C639.61,421.144 639.329,421.685 639.04,422.222C639.015,422.269 638.627,423.017 638.585,422.979C638.433,422.842 638.738,421.936 638.773,421.782C639.041,420.595 639.321,419.413 639.521,418.212C640.272,413.708 640.216,404.475 639.593,399.982C637.584,385.511 630.997,376.927 623.673,364.454Z"
      />
    </clipPath>
    <g clip-path="url(#_clip2_hair13)">
      <g id="colors">
        <path
          d="M431.539,197.83C434.143,200.183 435.411,201.227 438.145,203.426C446.111,209.834 453.478,216.915 461.527,223.224C479.225,237.096 497.705,249.465 516.805,261.321C522.019,264.557 527.438,267.405 533.092,269.791C534.143,270.234 537.279,272.247 538.449,271.91C538.55,271.881 537.113,270.59 537.018,270.512C536.012,269.681 534.975,268.888 533.957,268.07C530.96,265.661 527.922,263.301 524.974,260.831C513.408,251.145 503.237,240.384 492.825,229.514C490.444,227.028 488.11,224.497 485.737,222.003C485.596,221.856 483.642,219.774 483.721,219.713C484.147,219.382 488.029,222.701 488.374,222.963C493.063,226.514 497.903,229.885 502.92,232.956C524.743,246.315 549.365,255.728 569.497,271.507C575.462,276.183 581.37,280.922 587.389,285.532C589.354,287.037 591.255,288.626 593.226,290.126C593.43,290.281 596.191,292.388 596.231,292.279C596.6,291.273 591.302,287.013 590.698,286.426C584.883,280.78 578.919,275.185 573.556,269.102C568.668,263.556 564.042,257.809 558.858,252.526C555.522,249.127 551.976,245.938 548.409,242.784C544.703,239.507 540.954,236.264 537.375,232.847C537.087,232.572 534.018,229.983 534.256,229.596C534.41,229.345 536.445,230.67 536.605,230.766C539.172,232.303 541.734,233.846 544.293,235.395C554.777,241.739 564.866,248.481 574.765,255.693C577.756,257.873 580.58,260.236 583.437,262.585C583.839,262.916 585.766,265.039 586.261,264.94C587.005,264.791 585.126,263.935 584.572,263.418C583.382,262.308 582.206,261.184 581.041,260.047C577.525,256.614 573.992,253.192 570.532,249.701C558.768,237.83 546.402,228.402 531.954,219.995C526.238,216.669 520.505,213.422 515.258,209.374C514.948,209.134 510.638,205.722 510.91,205.471C511.456,204.969 515.371,207.394 515.872,207.639C521.238,210.262 526.561,212.969 531.993,215.455C555.427,226.18 574.509,239.955 595.035,255.274C600.546,259.386 605.995,263.558 610.866,268.428C612.535,270.097 614.13,271.836 615.706,273.592C616.465,274.436 617.67,277.119 618.061,276.053C618.63,274.5 612.637,267.578 611.81,266.375C605.527,257.247 599.008,248.263 591.096,240.463C588.689,238.09 586.222,235.778 583.695,233.533C583.534,233.391 581.413,231.666 581.624,231.412C582.015,230.939 588.493,235.601 588.934,235.895C596.775,241.122 604.137,247.079 610.736,253.809C612.614,255.724 614.391,257.745 616.109,259.804C616.689,260.499 617.253,261.206 617.831,261.903C618.119,262.25 618.841,263.346 618.739,262.907C617.333,256.865 609.867,249.391 606.359,244.474C594.407,227.724 581.855,213.166 566.774,199.138C560.965,193.734 555.006,188.405 548.809,183.447C546.322,181.458 543.746,179.574 541.286,177.552C541.165,177.453 539.162,175.808 539.295,175.681C539.651,175.343 543.645,178.214 543.994,178.433C549.045,181.603 554.063,184.823 559.086,188.037C575.423,198.492 591.142,209.635 605.421,222.825C609.329,226.435 613.16,230.136 616.692,234.119C617.286,234.789 619.52,238.274 620.429,238.305C621.394,238.337 619.378,236.683 618.816,235.898C617.622,234.232 616.434,232.561 615.257,230.882C611.947,226.158 608.584,221.471 605.232,216.776C596.047,203.914 587.826,190.369 575.275,180.443C572.026,177.874 568.652,175.466 565.291,173.048C564.864,172.742 562.231,171.305 562.316,170.624C562.35,170.351 564.704,171.415 564.85,171.483C567.584,172.75 570.273,174.134 572.925,175.564C580.365,179.576 587.547,184.112 594.012,189.579C596.699,191.851 599.265,194.27 602.029,196.45C602.246,196.62 604.335,198.383 604.569,198.105C604.624,198.039 604.565,197.923 604.535,197.86C603.048,194.72 600.047,191.896 597.933,189.178C591.396,180.774 585.554,171.952 579.353,163.309C578.982,162.792 573.404,155.997 573.608,155.736C573.644,155.69 575.923,157.782 576.042,157.889C577.599,159.304 579.163,160.714 580.748,162.098C585.626,166.36 590.608,170.514 595.325,174.957C608.816,187.663 623.072,202.026 632.2,218.312C636.227,225.497 639.396,233.133 643.757,240.137C644.236,240.907 647.209,246.453 648.253,246.266C648.696,246.187 647.878,243.491 647.812,243.238C646.905,239.761 645.66,236.346 644.397,232.986C640.039,221.4 635.613,209.824 629.661,198.938C628.164,196.202 626.576,193.518 624.87,190.906C624.73,190.691 623.185,188.8 623.329,188.553C623.431,188.377 623.998,189.3 624.315,189.689C624.986,190.512 625.675,191.32 626.363,192.129C628.438,194.568 630.572,196.956 632.782,199.274C639.554,206.382 646.096,213.38 651.828,221.378C653.438,223.624 655.032,225.882 656.573,228.176C657.32,229.287 658.187,232.632 658.863,231.476C659.097,231.075 657.56,228.672 657.381,228.3C655.755,224.936 654.136,221.569 652.513,218.203C646.121,204.944 640.316,191.103 631.993,178.894C629.567,175.334 626.842,172.066 623.846,168.975C623.634,168.757 620.711,166.175 620.97,166.028C621.081,165.965 622.169,167.079 622.771,167.601C624.062,168.72 625.319,169.877 626.587,171.021C630.456,174.512 634.345,177.983 638.234,181.452C651.632,193.404 663.395,205.814 674.1,220.258C676.738,223.818 679.476,227.309 682.256,230.759C682.513,231.079 684.371,233.82 684.761,233.694C684.882,233.655 684.499,233 684.474,232.953C682.94,230.105 681.151,227.376 679.405,224.656C675.555,218.659 671.613,212.73 667.605,206.838C656.946,191.165 647.347,171.72 632.459,159.56C625.524,153.896 618.352,148.495 610.916,143.504C610.463,143.2 602.962,139.145 603.157,138.737C603.242,138.558 606.292,139.673 606.436,139.74C609.242,141.06 612.031,142.417 614.844,143.724C624.908,148.401 635.594,151.602 645.492,156.624C646.108,156.937 653.891,161.882 654.144,161.641C654.3,161.493 652.067,159.558 651.931,159.437C649.334,157.13 646.667,154.904 643.921,152.777C634.071,145.148 623.324,138.886 612.275,133.176C609.11,131.54 605.746,130.133 602.7,128.281C602.57,128.201 601.976,127.922 602.013,127.707C602.073,127.365 605.599,128.322 605.834,128.378C610.241,129.429 614.64,130.536 619.019,131.699C633.483,135.539 647.558,139.832 660.504,147.501C663.848,149.482 667.124,151.572 670.244,153.893C670.61,154.166 672.878,156.338 673.339,156.146C673.55,156.058 671.542,153.643 671.429,153.513C668.962,150.677 666.358,147.949 663.722,145.269C656.455,137.878 648.417,131.371 639.686,125.782C638.899,125.278 631.453,121.317 631.732,120.294C631.848,119.871 634.461,120.886 634.67,120.959C638.039,122.139 641.366,123.454 644.661,124.826C655.389,129.289 665.513,134.736 674.694,141.889C677.01,143.693 679.233,145.575 681.344,147.614C681.587,147.848 683.058,149.732 683.418,149.637C683.479,149.621 681.34,145.191 681.229,144.958C679.074,140.443 676.519,136.076 674.643,131.435C674.483,131.039 672.655,127.033 674.155,127.239C675.903,127.479 677.754,130.194 678.856,131.349C682.574,135.244 686.171,139.237 689.676,143.325C703.491,159.439 718.211,176.437 724.93,196.918C744.716,257.229 719.927,317.027 696.307,372.235C686.649,394.809 676.905,422.799 658.667,440.091C648.466,449.763 636.907,446.896 629.634,435.669C617.75,417.324 612.647,395.4 600.322,377.106C572.121,335.246 525.372,313.204 487.56,281.628C464.808,262.628 451.682,233.112 437.82,207.143"
          style="fill: rgb(193, 59, 184)"
        />
        <path
          d="M526.054,290.212C526.045,289.896 526.578,290.567 526.851,290.724C527.414,291.047 527.983,291.363 528.558,291.665C530.258,292.558 532.02,293.343 533.786,294.095C538.978,296.305 544.289,298.23 549.54,300.29C568.006,307.538 587.705,313.872 604.254,325.018C610.102,328.957 615.87,333.12 621.386,337.515C622.578,338.465 625.983,342.539 627.516,342.582C627.602,342.585 626.874,341.464 626.818,341.389C626.304,340.691 625.764,340.013 625.228,339.331C623.687,337.373 622.108,335.442 620.511,333.528C615.307,327.291 609.913,321.217 604.125,315.512C602.207,313.622 600.236,311.789 598.214,310.011C598.059,309.874 594.927,307.173 595.101,307.036C595.432,306.776 597.045,307.873 597.307,308.016C599.594,309.26 601.833,310.587 604.065,311.927C613.985,317.879 622.512,324.146 629.473,333.534C631.44,336.187 633.36,338.871 635.216,341.604C635.41,341.889 638.126,345.982 638.289,345.853C638.608,345.603 637.416,343.07 637.309,342.792C636.019,339.444 634.737,336.091 633.505,332.722C629.473,321.701 625.464,310.746 619.865,300.401C618.322,297.551 616.65,294.783 614.932,292.036C614.563,291.446 613.028,289.727 613.163,288.945C613.167,288.923 613.812,289.622 613.864,289.686C614.25,290.157 614.634,290.629 615.024,291.097C616.232,292.55 617.42,294.018 618.588,295.503C622.475,300.444 626.319,305.475 629.606,310.839C630.719,312.655 631.738,314.531 632.729,316.415C632.853,316.651 634.357,319.269 634.363,319.261C634.677,318.842 634.083,317.304 633.976,316.898C633.318,314.396 632.579,311.924 631.759,309.469C629.152,301.664 625.896,294.134 622.056,286.857C621.2,285.234 617.231,280.37 617.556,278.491C617.664,277.866 618.467,279.377 618.876,279.862C619.643,280.772 620.376,281.711 621.112,282.647C623.693,285.927 626.241,289.246 628.505,292.757C629.264,293.933 629.946,295.155 630.62,296.381C630.704,296.532 631.711,298.345 631.763,298.275C632.683,297.05 630.938,291.306 630.724,289.931C629.858,284.359 628.838,278.859 627.471,273.386C626.847,270.887 625.173,267.646 625.446,265.02C625.546,264.057 627.177,265.494 627.469,265.69C629.417,266.991 634.058,269.546 633.179,265.112C632.086,259.599 629.339,253.942 626.908,248.912C626.708,248.497 624.192,244.093 624.654,243.729C624.94,243.504 629.014,248.526 629.316,248.879C634.378,254.795 638.8,261.035 641.948,268.185C642.886,270.317 643.701,272.494 644.527,274.671C644.584,274.821 645.156,276.632 645.357,276.542C646.101,276.209 645.358,270.935 645.318,270.286C644.967,264.501 644.46,258.738 643.704,252.991C643.624,252.383 642.573,248.106 643.093,247.697C643.107,247.686 643.681,249.492 643.714,249.609C644.048,250.787 644.413,251.955 644.762,253.129C646.103,257.642 647.49,262.151 648.987,266.615C649.16,267.133 651.185,273.255 651.369,273.101C652.662,272.016 652.703,268.08 652.947,266.595C653.986,260.257 654.471,253.91 654.356,247.487C654.31,244.904 654.15,242.314 653.941,239.739C653.93,239.594 653.701,237.445 653.948,237.46C654.562,237.497 656.199,243.548 656.397,244.134C658.859,251.419 660.803,258.612 661.099,266.337C661.197,268.891 661.183,271.447 661.3,274C661.309,274.199 661.288,276.422 661.776,276.295C662.399,276.134 662.743,274.472 662.901,273.992C663.722,271.494 664.23,268.869 664.605,266.27C665.774,258.184 665.421,251.16 663.473,243.267C662.845,240.722 659.879,234.311 661.102,231.783C661.495,230.97 663.33,233.078 663.573,233.323C665.93,235.701 668.301,237.998 670.906,240.107C671.202,240.347 674.075,242.584 674.058,242.31C673.922,240.089 671.466,237.046 670.456,235.152C667.48,229.574 664.541,223.964 661.342,218.51C660.19,216.545 658.976,214.606 657.905,212.596C657.769,212.341 656.847,210.979 657.077,210.655C657.253,210.407 658.95,212.386 659.062,212.512C661.018,214.722 662.886,217.01 664.784,219.271C671.592,227.381 678.487,235.445 684.958,243.829C686.551,245.892 688.127,247.966 689.626,250.099C689.865,250.44 690.738,252.121 691.283,252.06C691.657,252.018 691.149,250.195 691.109,250.025C690.589,247.797 689.991,245.584 689.429,243.367C687.368,235.226 685.951,226.962 684.294,218.736C683.913,216.848 683.493,214.976 682.986,213.118C682.938,212.94 682.411,211.479 682.714,211.337C683.018,211.193 683.936,212.66 684.059,212.823C685.405,214.608 686.882,216.295 688.318,218.008C695.008,225.99 698.304,236.179 701.891,245.809C702.844,248.367 703.828,250.913 704.756,253.48C704.891,253.853 705.907,257.497 706.313,257.237C707.497,256.481 707.168,252.743 707.17,251.635C707.18,245.368 705.852,239.143 704.402,233.076C702.585,225.476 700.368,217.984 696.773,211.016C691.957,201.686 685.268,193.544 679.398,184.886C676.378,180.432 675.096,174.249 671.503,170.328C667.263,165.701 660.947,162.835 656.095,158.879C655.622,158.493 651.497,155.483 651.856,154.671C651.959,154.439 653.587,155.468 653.716,155.543C655.688,156.692 657.645,157.848 659.673,158.898C666.083,162.219 672.834,164.433 679.547,167.01C679.989,167.179 685.19,169.707 685.442,169.419C685.835,168.97 682.518,164.82 682.24,164.429C679.905,161.134 677.606,157.816 675.204,154.57C674.989,154.28 672.899,151.879 673.305,151.454C673.649,151.094 675.037,151.779 675.372,151.898C677.439,152.627 679.475,153.43 681.507,154.253C683.425,155.03 685.302,155.866 687.091,156.911C709.238,169.856 721.344,197.832 726.04,221.657C736.658,275.535 724.318,331.032 701.218,379.942C692.621,398.145 682.198,416.087 668.79,431.204C662.807,437.951 654.426,445.218 644.753,444.581C627.153,443.422 617.308,421.21 610.574,407.682C603.042,392.549 595.143,378.109 584.1,365.192C574.656,354.146 564.422,343.631 554.269,333.237C547.329,326.132 540.058,319.168 534.236,311.079"
          style="fill: rgb(128, 37, 164)"
        />
      </g>
      <path
        d="M373.147,137.076C381.654,141.845 391.14,144.771 399.208,150.357C410.012,157.837 418.577,167.916 428.576,176.358C434.688,181.517 441.113,185.932 448.005,189.983C450.249,191.303 452.491,192.632 454.771,193.89C455.026,194.031 458.337,195.829 458.377,195.598C458.516,194.791 456.418,193.134 455.959,192.666C453.291,189.952 450.596,187.268 447.99,184.493C438.203,174.071 431.56,162.591 424.97,150.011C423.085,146.411 421.249,142.759 419.15,139.277C418.961,138.963 417.064,136.352 417.674,136.016C418.455,135.585 420.513,137.472 421.034,137.853C424.366,140.289 427.572,142.877 430.781,145.47C443.43,155.689 454.754,170.184 469.564,177.382C471.41,178.279 467.994,172.969 467.733,172.523C465.791,169.202 463.865,165.773 462.495,162.17C462.377,161.86 460.806,157.387 461.045,157.3C461.379,157.177 462.554,158.887 462.721,159.089C464.385,161.098 466.329,162.914 468.361,164.544C474.783,169.699 482.29,173.528 489.568,177.303C490.91,177.999 495.413,181.175 497.035,180.575C497.863,180.269 496.076,178.143 495.87,177.866C493.729,174.978 491.586,172.113 489.598,169.115C482.509,158.422 474.932,148.043 467.81,137.372C466.119,134.838 461.194,128.245 461.465,127.87C461.654,127.609 470.732,135.832 473.648,137.827C484.788,145.45 494.381,151.375 505.258,157.277C507.842,158.679 510.36,160.204 512.998,161.504C513.514,161.758 515.178,162.771 515.786,162.305C516.355,161.868 514.445,159.706 514.204,159.393C512.343,156.978 508.665,153.82 508.273,150.597C508.125,149.378 509.636,149.339 510.501,149.364C512.422,149.42 517.769,151.367 516.519,147.7C513.043,137.508 504.592,129.194 498.17,120.762C496.51,118.582 493.004,113.193 493.004,113.193C493.004,113.193 490.921,110.802 491.696,110.948C492.459,111.092 496.61,112.461 497.063,112.682C502.029,115.104 507.161,117.154 512.258,119.28C529.504,126.474 545.743,135.37 560.735,146.464C564.424,149.194 568.08,152.206 571.661,155.077C572.857,156.036 575.636,157.253 576.203,158.78C576.496,159.57 568.69,155.836 566.247,154.389C558.973,150.081 550.822,147.078 543.123,144.723C541.691,144.285 528.89,139.293 528.89,139.293C528.89,139.293 535.542,149.231 535.867,150.332C536.837,153.619 538.284,156.746 539.208,160.05C539.469,160.981 540.416,162.951 539.98,163.932C539.599,164.787 536.902,162.287 536.467,161.941C530.944,157.565 528.054,160.176 529.079,166.384C530.057,172.308 532.444,177.548 535.283,182.827C536.192,184.516 541.942,192.406 541.898,193.367C541.878,193.81 537.938,191.16 537.716,191.017C535.482,189.574 533.852,188.397 531.634,186.93C525.525,182.891 521.424,182.357 515.131,178.611C512.813,177.232 507.823,175.11 505.012,174.975C501.985,174.829 504.526,176.202 505.12,177.489C508.297,184.372 507.854,188.163 508.186,193.334C508.271,194.657 508.733,199.785 507.621,200.53C506.509,201.275 502.751,198.582 501.512,197.803C494.323,193.279 489.792,191.463 483.072,189.757C481.815,189.438 476.878,186.919 475.79,188.204C474.663,189.535 479.641,194.055 480.32,194.769C486.147,200.896 491.429,206.906 497.324,212.972C498.934,214.628 505.745,220.043 505.525,220.312C505.29,220.599 496.029,215.138 493.54,213.72C486.64,209.789 481.196,206.368 474.314,202.406C471.907,201.02 468.991,198.162 466.096,197.919C464.751,197.806 466.073,202.87 466.189,203.428C467.016,207.405 465.928,211.293 465.756,215.38C465.711,216.446 465.757,218.95 464.293,219.178C462.301,219.488 459.794,217.529 458.225,216.581C453.567,213.767 448.962,210.975 444.538,207.796C423.88,192.951 409.523,171.171 390.814,153.334L373.147,137.076ZM515.465,105.812C516.051,105.631 517.831,107.184 518.336,107.45C521.962,109.358 525.052,110.54 528.681,112.444C540.095,118.432 553.869,123.817 564.069,131.828C566.391,133.652 572.266,137.995 572.137,138.379C571.987,138.824 562.739,135.174 559.341,133.758C556.437,132.548 553.609,131.832 550.771,130.474C545.585,127.993 540.731,125.011 535.805,122.063C529.403,118.231 523.455,114.776 517.912,109.821L515.465,105.812ZM594.088,98.411C599.761,102.118 608.475,105.391 615.927,107.763C630.131,112.285 642.283,115.412 654.839,122.62C659.712,125.418 664.211,129.53 668.691,132.914C669.1,133.224 672.462,136.213 672.931,135.868C673.443,135.492 669.783,130.931 669.553,130.637C665.158,124.996 660.029,120.058 654.62,115.395C636.607,99.868 615.711,94.396 592.507,98.069L594.088,98.411ZM242.677,120.603C242.275,120.174 243.216,118.493 243.381,118.146C244.579,115.619 246.364,113.308 248.165,111.186C255.293,102.791 265.373,97.127 273.409,89.627C275.67,87.517 277.725,85.221 279.791,82.924C279.981,82.712 282.306,79.841 282.306,79.841C282.306,79.841 277.665,87.194 277.434,87.57C274.018,93.147 272.42,94.51 271.005,100.926C270.897,101.418 268.654,106.69 268.565,109.333C268.556,109.599 273.442,101.512 274.62,99.642C277.734,94.699 280.418,92.735 284.374,88.429C292.567,79.509 300.012,72.935 310.176,64.664C314.897,60.822 318.162,55.381 322.514,51.119C331.53,42.287 342.584,38.286 354.397,34.732C358.916,33.372 366.865,32.21 371.15,30.229C371.568,30.035 371.907,27.961 371.237,27.131C369.933,25.519 365.091,25.968 363.363,25.953C355.269,25.883 347.09,25.613 339.05,26.705C304.452,31.404 273.285,55.014 252.635,82.295C250.941,84.533 249.272,86.8 247.705,89.129C242.552,96.789 230.874,114.523 240.688,123.205L242.677,120.603ZM524.582,85.809C525.067,85.879 526.083,85.548 526.626,85.581C528.059,85.667 529.487,85.828 530.91,86.012C535.259,86.574 539.617,87.215 543.859,88.357C557.46,92.018 568.713,100.901 579.364,109.619C581.878,111.677 589.702,117.08 589.587,117.478C589.54,117.642 583.215,114.633 581.152,113.514C575.847,110.637 570.408,108.112 564.99,105.449C557.391,101.713 549.687,98.423 541.55,96.074C535.745,94.398 532.293,93.563 528.271,90.708L524.582,85.809C524.382,85.781 524.272,85.684 524.323,85.465L524.582,85.809ZM322.922,78.92C322.507,79.248 323.858,78.426 324.335,78.197C325.248,77.76 326.15,77.302 327.075,76.89C329.779,75.684 332.536,74.585 335.277,73.469C343.901,69.958 352.341,66.43 360.414,61.756C369.357,56.578 377.812,50.559 387.274,46.317C400.1,40.566 414.679,37.581 428.576,35.843C434.381,35.118 440.257,34.702 446.108,34.762C447.421,34.775 450.858,34.24 452,35.057C452.074,35.11 449.586,35.845 449.379,35.89C447.721,36.247 446.057,36.573 444.399,36.929C439.451,37.991 434.355,38.641 429.64,40.48C412.85,47.031 400.651,52.39 386.643,62.755C383.79,64.866 375.341,70.582 375.421,71.065C375.442,71.194 388.387,66.218 392.117,64.698C403.306,60.14 414.504,57.917 426.492,55.983C442.152,53.458 460.791,51.455 476.647,51.471C481.624,51.476 486.592,51.952 491.475,52.923C491.98,53.023 498.907,54.91 499.09,54.545C499.225,54.275 492.266,51.615 491.83,51.447C483.502,48.238 474.826,46.956 465.977,45.798C464.346,45.585 453.267,44.583 454.645,44.278C468.581,41.198 486.049,39.527 499.62,44.049C509.263,47.262 519.646,51.831 528.823,56.076C537.58,60.126 548.195,68.116 554.143,67.022C554.822,66.898 562.789,69.623 562.966,68.667C563.128,67.788 560.721,66.249 560.206,65.841C557.028,63.323 553.718,60.971 550.445,58.58C536.584,48.456 522.677,38.257 506.881,31.31C461.537,11.369 405.57,19.138 363.916,45.428C353.328,52.111 344.404,61.545 334.779,69.501L322.922,78.92Z"
        style="fill: rgb(252, 255, 216); fill-opacity: 0.7"
      />
      <path
        d="M281.546,205.636C280.526,202.789 282.425,196.866 283.101,194.09C285.718,183.348 290.635,173.031 296.561,163.73C301.26,156.356 307.329,147.356 314.341,142.082C322.827,135.699 334.683,128.458 345.585,127.216C354.221,126.233 362.884,130.465 369.816,135.087C384.865,145.119 398.65,158.964 409.972,172.95C417.183,181.859 424.77,190.451 432.143,199.223C434,201.432 439.147,206.282 438.51,209.467C437.98,212.121 432.79,213.252 430.775,213.864C422.214,216.466 413.117,217.588 404.236,218.403C391.592,219.565 378.859,219.876 366.167,219.824C343.747,219.733 321.741,217.49 299.788,213.019L281.546,205.636ZM250.897,163.551C250.269,163.976 250.397,162.117 250.217,161.381C249.881,160.007 249.617,158.612 249.409,157.214C248.791,153.05 248.458,148.837 248.404,144.629C248.257,133.011 251.872,121.128 258.967,111.877C260.513,109.861 263.26,105.446 265.792,104.526C265.844,104.507 264.656,108.167 264.525,108.521C263.505,111.287 262.558,114.073 261.865,116.942C259.448,126.958 259.66,138.459 261.374,148.571C261.811,151.152 262.387,153.708 263.121,156.221C263.166,156.375 263.747,158.493 263.946,158.408C264.616,158.12 264.313,152.192 264.347,151.503C264.699,144.408 265.538,137.021 267.957,130.313C276.476,106.677 295.204,90.067 316.485,77.97C321.413,75.169 326.566,72.714 331.849,70.657C332.502,70.403 336.022,68.55 336.658,68.959C336.889,69.107 335.461,70.36 335.375,70.438C333.771,71.894 332.045,73.217 330.351,74.565C326.015,78.018 321.584,81.395 317.461,85.106C306.384,95.075 298.805,107.185 293.524,121.047C292.326,124.191 288.524,131.097 289.226,134.607C289.255,134.75 290.448,133.481 290.543,133.37C291.352,132.419 292.15,131.459 292.96,130.509C295.403,127.647 297.796,124.739 300.444,122.061C309.266,113.138 319.83,109.02 331.951,106.769C334.681,106.262 337.4,105.799 340.176,105.653C340.392,105.642 342.551,105.322 342.639,105.498C342.676,105.572 340.954,106.235 340.865,106.27C339.626,106.756 338.421,107.319 337.221,107.896C333.705,109.589 330.31,111.614 327.116,113.855C316.782,121.106 306.35,128.625 297.977,138.155C287.2,150.423 279.703,164.205 273.995,179.462C271.983,184.839 270.467,190.382 269.659,196.07C269.579,196.631 269.262,201.548 268.698,201.594C268.185,201.636 267.498,200.134 267.302,199.801C265.976,197.544 264.834,195.176 263.659,192.839C258.978,183.537 253.819,174.272 250.024,164.563L250.897,163.551ZM507.239,94.46C507.48,94.637 507.921,95.016 508.131,95.172C508.805,95.67 509.482,96.165 510.159,96.659C512.167,98.124 514.134,99.64 516.205,101.015C522.375,105.11 528.761,109.195 535.2,112.845C545.877,118.896 557.326,124.58 568.952,128.532C573.871,130.203 578.814,131.978 583.846,133.281C586.894,134.07 590.095,135.142 593.053,136.249C597.486,137.907 601.843,139.266 606.035,141.449C606.502,141.692 609.812,144.048 610.234,143.825C610.673,143.593 609.462,143.197 609.075,142.885C608.366,142.312 607.662,141.733 606.952,141.163C604.829,139.46 602.715,137.744 600.614,136.014C593.983,130.556 587.06,125.822 579.417,121.894C568.851,116.464 557.741,112.514 546.66,108.303C534.562,103.704 522.528,98.823 510.231,94.78L507.239,94.46C507.096,94.354 507.024,94.32 507.114,94.446L507.239,94.46ZM504.395,71.415C504.528,71.219 503.924,71.369 503.688,71.355C503.184,71.326 502.679,71.293 502.175,71.258C500.699,71.157 499.224,71.03 497.75,70.899C492.461,70.427 487.181,69.891 481.887,69.459C479.743,69.284 477.595,69.093 475.463,68.796C475.349,68.78 473.497,68.557 473.719,68.219C474.229,67.445 477.324,67.203 478.167,66.962C482.029,65.859 485.632,64.086 489.395,62.72C495.79,60.397 503.099,58.592 509.966,58.996C516.141,59.358 522.128,61.92 527.84,64.087C539.955,68.684 550.87,74.317 561.459,81.804C567.166,85.839 572.885,89.539 579.13,92.704C580.637,93.468 582.145,94.232 583.655,94.991C583.837,95.082 585.105,95.588 585.064,95.872C585.022,96.163 583.131,95.533 582.995,95.49C580.654,94.75 578.353,93.868 576.055,93.009C570.153,90.804 564.372,88.323 558.375,86.372C545.713,82.253 533.459,76.658 520.468,73.563C514.059,72.037 507.396,71.556 500.828,71.297L504.395,71.415Z"
        style="fill: rgb(66, 31, 67); fill-opacity: 0.6"
      />
      <g id="lines">
        <path
          d="M290.567,117.506C304.395,91.146 331.543,72.383 354.145,54.179C361.715,48.082 369.534,42.565 378.407,38.519C381.319,37.19 384.24,35.865 387.231,34.722C388.179,34.359 389.134,34.02 390.092,33.684C390.571,33.517 392.029,33.085 391.552,33.255C391.553,33.253 391.553,33.247 391.554,33.252"
          style="fill: none; stroke: black; stroke-width: 2.1px"
        />
        <path
          d="M595.602,99.804C595.346,99.091 590.596,98.024 589.996,97.819C583.907,95.739 577.789,93.731 571.64,91.839C547.526,84.422 526.012,70.058 499.962,71.57"
          style="fill: none; stroke: black; stroke-width: 2.1px"
        />
        <path
          d="M648.383,173.168C648.195,173.364 644.037,169.904 643.82,169.727C638.667,165.527 633.761,161.039 628.609,156.839C622.073,151.511 614.808,146.43 607.25,142.672C601.386,139.756 595.592,137.217 589.345,134.678"
          style="fill: none; stroke: black; stroke-width: 2.1px"
        />
        <path
          d="M442.317,152.118C446.123,154 453.898,166.094 457.762,169.801C471.115,182.609 485.557,194.761 500.228,206.023C549.11,243.542 623.787,271.9 640.003,338.018"
          style="fill: none; stroke: black; stroke-width: 2.1px"
        />
        <path
          d="M491.037,132.301C491.173,132.171 493.933,135.408 494.069,135.569C497.244,139.337 500.317,143.207 503.747,146.752C512.545,155.845 522.792,163.412 533.068,170.744C566.407,194.531 604.392,222.361 622.963,260C631.874,278.06 637.601,297.628 639.705,317.86"
          style="fill: none; stroke: black; stroke-width: 2.1px"
        />
        <path
          d="M646.924,292.532C647.481,291.378 644.419,285.862 643.931,284.79C640.054,276.277 633.194,269.941 625.865,264.4"
          style="fill: none; stroke: black; stroke-width: 2.1px"
        />
        <path
          d="M270.879,194.973C270.52,190.776 273.614,181.635 274.095,179.899C278.273,164.832 287.535,149.078 298.175,137.874C314.139,121.063 337.599,104.476 360.695,99.595C371.419,97.329 384.599,100.828 395.385,98.788C407.904,96.42 417.219,87.502 430.336,88.742C477.172,93.17 515.729,114.625 550.943,139.377C563.436,148.158 577.122,158.596 588.836,168.428C604.703,181.747 617.41,197.572 628.027,213.847C641.814,234.984 648.226,262.874 653.285,287.527"
          style="fill: none; stroke: black; stroke-width: 2.1px"
        />
        <path
          d="M280.864,204.276C281.188,201.751 282.074,196.68 282.587,194.187C284.13,186.696 286.867,179.447 290.266,172.607C300.047,152.927 319.026,134.15 340.577,128.031C356.49,123.512 367.502,133.111 379.24,142.87C394.633,155.669 407.228,169.48 420.121,184.649C426.263,191.875 433.844,199.945 439.118,207.855"
          style="fill: none; stroke: black; stroke-width: 2.1px"
        />
        <path
          d="M304.336,201.704C305.353,200.74 305.524,195.125 305.833,193.769C307.312,187.279 309.118,180.886 311.911,174.826C321.004,155.097 345.923,136.203 369.673,135.468"
          style="fill: none; stroke: black; stroke-width: 2.1px"
        />
        <path
          d="M336.952,203.195C337.684,203.761 337.248,201.368 337.43,200.461C337.818,198.525 338.265,196.599 338.712,194.676C340.035,188.989 341.802,183.166 344.72,178.072C352.606,164.306 370.333,149.483 387.54,150.06"
          style="fill: none; stroke: black; stroke-width: 2.1px"
        />
        <path
          d="M370.791,207.557C370.738,208.23 371.035,206.229 371.174,205.569C371.477,204.138 371.868,202.737 372.289,201.338C373.537,197.19 374.989,193.066 377.395,189.436C384.243,179.104 397.548,172.832 409.765,172.832"
          style="fill: none; stroke: black; stroke-width: 2.1px"
        />
        <path
          d="M406.391,208.723C407.283,209.434 406.86,206.481 407.253,205.41C408.088,203.133 409.123,200.832 410.498,198.83C414.395,193.155 418.314,191.848 425.252,190.896"
          style="fill: none; stroke: black; stroke-width: 2.1px"
        />
      </g>
    </g>
    <path
      id="main2"
      d="M623.673,364.454C611.101,343.045 593.331,333.434 583.52,326.504C548.095,301.48 512.029,285.457 480.181,255.148C469.244,244.739 458.975,231.535 449.153,220.094C445.682,216.05 439.366,205.663 434.021,206.445C430.135,207.013 416.395,208.883 412.108,208.946C393.63,209.22 378.018,210.178 359.645,207.24C337.929,203.768 301.038,198.997 278.631,205.338C278.211,204.729 276.738,202.933 276.445,202.536C275.309,200.997 274.117,199.498 272.936,197.994C269.264,193.321 265.971,188.46 262.665,183.525C252.322,168.086 244.983,152.674 243.382,133.835C242.492,123.366 241.834,111.63 247.786,102.433C255.85,89.969 272.517,82.049 283.246,71.915C290.638,64.934 297.404,57.397 304.483,50.111C307.659,46.841 310.719,42.87 314.516,40.273C329.651,29.917 350.171,29.942 367.637,31.42C374.274,31.981 391.495,33.128 392.818,32.687C403.347,29.177 409.557,25.763 420.833,24.494C425.31,23.991 433.796,23.772 438.239,24.223C448.396,25.254 458.342,26.785 468.293,29.084C489.659,34.022 508.002,37.943 527.184,49.068C541.76,57.522 554.969,72.959 567.93,83.655C572.863,87.725 578.168,90.862 583.868,93.713C583.858,93.737 584.741,94.131 584.788,94.156C585.428,94.493 586.065,94.835 586.713,95.158C589.786,96.688 592.888,98.347 596.095,99.574C604.526,102.802 612.958,102.572 621.771,103.742C628.034,104.573 634.173,106.465 639.82,109.298C649.285,114.048 657.115,121.145 664.498,128.629C674.382,138.648 682.688,148.764 689.627,161.051C692.846,166.752 695.449,172.785 697.42,179.03C697.874,180.47 698.248,181.93 698.559,183.406C698.582,183.516 698.848,184.64 698.694,184.669C698.378,184.728 697.776,183.759 697.629,183.582C696.591,182.337 695.493,181.144 694.334,180.011C690.332,176.098 685.479,172.461 680.124,170.812C669.494,167.54 657.786,170.89 646.325,171.487C646.881,172.122 648.405,173.199 649.179,173.703C651.353,175.116 653.338,176.791 655.236,178.554C659.65,182.657 663.556,187.321 667.8,191.6C673.548,197.396 679.714,203.234 684.457,209.909C691.737,220.156 694.936,232.492 697.263,244.663C697.258,244.663 697.391,245.371 697.402,245.431C697.499,245.978 697.576,246.526 697.628,247.079C697.782,248.726 697.85,250.389 697.909,252.042C698.119,257.882 697.754,263.76 697.213,269.572C697.088,270.908 696.938,272.243 696.835,273.58C696.824,273.723 696.879,274.762 696.725,274.827C696.663,274.852 696.274,273.599 696.244,273.512C695.958,272.66 695.641,271.816 695.293,270.988C694.292,268.601 692.893,266.385 691.282,264.365C685.792,257.482 677.675,253.379 669.756,249.947C667.953,249.165 666.235,248.32 664.652,247.147C664.419,246.975 663.437,245.963 663.102,246.269C662.357,246.947 663.247,250.204 663.298,251.056C663.54,255.138 663.32,259.371 662.555,263.391C661.704,267.864 660.251,272.278 658.154,276.322C656.654,279.216 654.057,282.506 653.536,285.783C653.063,288.759 654.269,292.195 654.741,295.112C655.632,300.611 656.268,306.145 656.54,311.71C656.832,317.686 657.073,323.836 656.171,329.772C655.96,331.166 655.609,332.5 655.185,333.842C655.122,334.039 654.989,334.992 654.805,335.093C654.495,335.265 654.767,334.385 654.775,334.03C654.793,333.278 654.782,332.525 654.762,331.773C654.701,329.482 654.566,327.196 654.344,324.915C653.475,315.979 651.394,307.08 649.153,298.394C648.641,296.41 648.071,294.441 647.389,292.509C647.341,292.374 646.817,290.718 646.649,290.8C645.524,291.352 644.8,295.335 644.408,296.37C642.192,302.227 640.242,308.107 639.675,314.383C639.251,319.076 640.531,323.671 641.022,328.309C641.406,331.939 640.634,335.699 641.075,339.248C641.986,346.575 644.612,353.707 645.734,361.035C647.097,369.941 646.318,378.885 646.307,387.833C646.599,387.664 646.303,388.507 646.298,388.844C646.288,389.551 646.254,390.258 646.213,390.964C646.09,393.082 645.893,395.183 645.655,397.291C644.956,403.464 644.14,409.784 642.099,415.681C641.511,417.379 640.723,419.011 639.892,420.603C639.61,421.144 639.329,421.685 639.04,422.222C639.015,422.269 638.627,423.017 638.585,422.979C638.433,422.842 638.738,421.936 638.773,421.782C639.041,420.595 639.321,419.413 639.521,418.212C640.272,413.708 640.216,404.475 639.593,399.982C637.584,385.511 630.997,376.927 623.673,364.454Z"
      style="fill: none; stroke: black; stroke-width: 2.1px"
    />
  </g>
</svg>
