<svg width="100%" height="100%" viewBox="0 0 800 800" version="1.1"
    xmlns="http://www.w3.org/2000/svg" style="fill-rule:evenodd;clip-rule:evenodd;stroke-linecap:round;stroke-linejoin:round;stroke-miterlimit:1.5;">
    <g id="hairstyles-back">
        <g id="mushroom-hair-hat-back">
            <path d="M112.801,345.925C125.157,332.878 218.593,255.146 287.277,194.173C319.619,165.463 358.215,187.007 402.971,187.005C450.725,187.003 507.004,171.895 535.345,207.738C590.585,277.6 675.885,333.304 687.836,345.925C701.13,359.964 714.836,373.733 729.201,386.676C733.71,390.739 738.347,394.401 743.777,397.165C744.493,397.529 749.868,398.796 749.825,399.268C748.132,417.889 726.496,439.398 709.287,444.601C703.553,446.335 688.38,445.995 688.38,445.995C688.38,445.995 671.161,463.194 658.472,467.658C650.896,470.324 627.285,471.282 627.285,471.282C627.285,471.282 617.223,487.835 608.059,493.195C591.784,502.715 568.844,500.188 568.844,500.188C568.844,500.188 547.761,517.929 535.062,523.244C520.719,529.249 494.17,526.599 494.17,526.599C494.17,526.599 479.004,539.89 475.413,542.545C461.177,553.067 445.982,560.651 429.347,566.523C421.636,569.244 414.749,573.459 408.534,578.736C406.558,580.414 401.503,584.617 399.671,586.45C399.573,586.548 394.079,580.414 392.104,578.736C385.889,573.459 379.002,569.244 371.291,566.523C354.655,560.651 339.461,553.067 325.225,542.545C321.634,539.89 306.468,526.599 306.468,526.599C306.468,526.599 279.919,529.249 265.575,523.244C252.877,517.929 231.794,500.188 231.794,500.188C231.794,500.188 208.854,502.715 192.578,493.195C183.415,487.835 173.353,471.282 173.353,471.282C173.353,471.282 149.741,470.324 142.166,467.658C129.477,463.194 112.258,445.995 112.258,445.995C112.258,445.995 97.084,446.335 91.351,444.601C74.142,439.398 52.506,417.889 50.813,399.268C50.77,398.796 56.145,397.529 56.861,397.165C62.291,394.401 66.928,390.739 71.436,386.676C85.801,373.733 99.508,359.964 112.801,345.925Z" style="fill: rgb(calc(var(--color_hairs_r, 38)), calc(var(--color_hairs_g, 183)), calc(var(--color_hairs_b, 200)))"/>
            <clipPath id="_clip1_hair_6_hat">
                <path d="M112.801,345.925C125.157,332.878 218.593,255.146 287.277,194.173C319.619,165.463 358.215,187.007 402.971,187.005C450.725,187.003 507.004,171.895 535.345,207.738C590.585,277.6 675.885,333.304 687.836,345.925C701.13,359.964 714.836,373.733 729.201,386.676C733.71,390.739 738.347,394.401 743.777,397.165C744.493,397.529 749.868,398.796 749.825,399.268C748.132,417.889 726.496,439.398 709.287,444.601C703.553,446.335 688.38,445.995 688.38,445.995C688.38,445.995 671.161,463.194 658.472,467.658C650.896,470.324 627.285,471.282 627.285,471.282C627.285,471.282 617.223,487.835 608.059,493.195C591.784,502.715 568.844,500.188 568.844,500.188C568.844,500.188 547.761,517.929 535.062,523.244C520.719,529.249 494.17,526.599 494.17,526.599C494.17,526.599 479.004,539.89 475.413,542.545C461.177,553.067 445.982,560.651 429.347,566.523C421.636,569.244 414.749,573.459 408.534,578.736C406.558,580.414 401.503,584.617 399.671,586.45C399.573,586.548 394.079,580.414 392.104,578.736C385.889,573.459 379.002,569.244 371.291,566.523C354.655,560.651 339.461,553.067 325.225,542.545C321.634,539.89 306.468,526.599 306.468,526.599C306.468,526.599 279.919,529.249 265.575,523.244C252.877,517.929 231.794,500.188 231.794,500.188C231.794,500.188 208.854,502.715 192.578,493.195C183.415,487.835 173.353,471.282 173.353,471.282C173.353,471.282 149.741,470.324 142.166,467.658C129.477,463.194 112.258,445.995 112.258,445.995C112.258,445.995 97.084,446.335 91.351,444.601C74.142,439.398 52.506,417.889 50.813,399.268C50.77,398.796 56.145,397.529 56.861,397.165C62.291,394.401 66.928,390.739 71.436,386.676C85.801,373.733 99.508,359.964 112.801,345.925Z"/>
            </clipPath>
            <g clip-path="url(#_clip1_hair_6_hat)">
                <path id="orange" d="M400.422,574.472C400.981,574.471 401.526,574.415 401.963,574.205C409.892,570.399 416.976,564.711 425.178,561.43C439.877,555.55 448.246,551.256 462.106,543.279C469.399,539.083 493.13,517.792 493.13,517.792C493.13,517.792 510.955,520.33 521.769,517.113C532.968,513.781 543.755,507.627 553.77,501.688C557.628,499.4 561.652,495.534 565.831,493.926C568.62,492.854 574.266,494.437 577.342,494.229C583.983,493.78 590.309,491.393 596.34,488.72C603.868,485.384 610.71,480.308 616.273,474.255C618.832,471.47 621.337,466.285 624.611,464.351C627.791,462.472 636.319,464.604 640.01,464.255C649.995,463.309 659.562,460.08 667.676,454.117C672.68,450.44 677.939,442.564 683.776,440.462C688.905,438.616 696.325,440.535 701.744,440.023C711.234,439.125 719.062,434.342 725.962,427.962C734.85,419.743 742.786,410.695 750.304,401.216C750.881,400.488 756.363,392.487 757.708,393.619C760.094,395.629 756.844,416.342 756.348,419.101C750.738,450.357 728.786,473.032 704.024,491.33C641.324,537.666 558.691,541.064 488.945,571.21C472.693,578.235 455.041,585.527 441.388,597.132C430.776,606.152 417.151,621.019 402.277,624.944L402.267,625.683C401.65,625.601 401.036,625.498 400.422,625.375C399.809,625.498 399.194,625.601 398.578,625.683L398.567,624.944C383.693,621.019 370.069,606.152 359.457,597.132C345.803,585.527 328.151,578.235 311.899,571.21C242.154,541.064 159.521,537.666 96.82,491.33C72.059,473.032 50.106,450.357 44.496,419.101C44.001,416.342 40.75,395.629 43.136,393.619C44.481,392.487 49.963,400.488 50.541,401.216C58.058,410.695 65.994,419.743 74.882,427.962C81.782,434.342 89.611,439.125 99.101,440.023C104.519,440.535 111.939,438.616 117.068,440.462C122.906,442.564 128.165,450.44 133.168,454.117C141.282,460.08 150.85,463.309 160.834,464.255C164.526,464.604 173.054,462.472 176.233,464.351C179.507,466.285 182.013,471.47 184.572,474.255C190.134,480.308 196.977,485.384 204.504,488.72C210.536,491.393 216.861,493.78 223.502,494.229C226.578,494.437 232.224,492.854 235.014,493.926C239.192,495.534 243.217,499.4 247.075,501.688C257.09,507.627 267.877,513.781 279.076,517.113C289.889,520.33 307.715,517.792 307.715,517.792C307.715,517.792 331.446,539.083 338.738,543.279C352.599,551.256 360.968,555.55 375.666,561.43C383.869,564.711 390.952,570.399 398.882,574.205C399.318,574.415 399.864,574.471 400.422,574.472Z" style="fill: rgb(calc(var(--color_hairs_r, 38)), calc(var(--color_hairs_g, 183)), calc(var(--color_hairs_b, 200)))"/>
            </g>
            <path d="M112.801,345.925C125.157,332.878 218.593,255.146 287.277,194.173C319.619,165.463 358.215,187.007 402.971,187.005C450.725,187.003 507.004,171.895 535.345,207.738C590.585,277.6 675.885,333.304 687.836,345.925C701.13,359.964 714.836,373.733 729.201,386.676C733.71,390.739 738.347,394.401 743.777,397.165C744.493,397.529 749.868,398.796 749.825,399.268C748.132,417.889 726.496,439.398 709.287,444.601C703.553,446.335 688.38,445.995 688.38,445.995C688.38,445.995 671.161,463.194 658.472,467.658C650.896,470.324 627.285,471.282 627.285,471.282C627.285,471.282 617.223,487.835 608.059,493.195C591.784,502.715 568.844,500.188 568.844,500.188C568.844,500.188 547.761,517.929 535.062,523.244C520.719,529.249 494.17,526.599 494.17,526.599C494.17,526.599 479.004,539.89 475.413,542.545C461.177,553.067 445.982,560.651 429.347,566.523C421.636,569.244 414.749,573.459 408.534,578.736C406.558,580.414 401.503,584.617 399.671,586.45C399.573,586.548 394.079,580.414 392.104,578.736C385.889,573.459 379.002,569.244 371.291,566.523C354.655,560.651 339.461,553.067 325.225,542.545C321.634,539.89 306.468,526.599 306.468,526.599C306.468,526.599 279.919,529.249 265.575,523.244C252.877,517.929 231.794,500.188 231.794,500.188C231.794,500.188 208.854,502.715 192.578,493.195C183.415,487.835 173.353,471.282 173.353,471.282C173.353,471.282 149.741,470.324 142.166,467.658C129.477,463.194 112.258,445.995 112.258,445.995C112.258,445.995 97.084,446.335 91.351,444.601C74.142,439.398 52.506,417.889 50.813,399.268C50.77,398.796 56.145,397.529 56.861,397.165C62.291,394.401 66.928,390.739 71.436,386.676C85.801,373.733 99.508,359.964 112.801,345.925Z" style="fill:none;stroke:black;stroke-width:2.1px;"/>
        </g>
    </g>
    <g id="hairstyles-front">
        <g id="mushroom-hair-hat-front">
            <path id="shadow" d="M273.467,192.839C287.029,163.116 531.325,162.517 544.834,190.346C572.232,246.787 602.948,282.507 600.131,343.649L576.528,345.932C576.985,347.283 564.395,346.763 563.529,346.631C553.001,345.025 544.224,341.183 538.337,331.933C535.566,327.578 531.612,318.798 531.5,311.43C531.319,299.503 535.789,288.485 531.182,285.077C523.159,279.143 516.134,281.407 509.422,282.571C504.643,283.399 501.827,280.714 496.943,280.432C488.291,279.933 485.971,282.644 473.432,279.537C471.739,279.118 468.712,278.933 466.98,279.206C462.168,279.966 457.908,283.166 453.034,283.27C450.441,283.325 447.428,281.873 444.847,281.563C441.228,281.128 438.178,282.241 433.303,283.408C431.974,283.726 429.255,280.155 423.905,279.466C421.056,279.1 412.337,284.251 399.362,284.177C386.387,284.251 377.668,279.1 374.819,279.466C369.468,280.155 366.749,283.726 365.421,283.408C360.546,282.241 357.495,281.128 353.876,281.563C351.295,281.873 348.282,283.325 345.69,283.27C340.815,283.166 336.556,279.966 331.744,279.206C330.012,278.933 326.984,279.118 325.291,279.537C312.752,282.644 310.433,279.933 301.781,280.432C296.897,280.714 294.081,283.399 289.301,282.571C282.59,281.407 275.564,279.143 267.542,285.077C262.934,288.485 267.404,299.503 267.223,311.43C267.111,318.798 263.157,327.578 260.386,331.933C254.5,341.183 245.722,345.025 235.195,346.631C234.328,346.763 221.738,347.283 222.196,345.932L198.593,343.649C201.978,278.749 248.977,246.511 273.467,192.839Z" style="fill:rgb(56,25,57);fill-opacity:0.5;"/>
            <path d="M115.881,307.077C97.85,313.195 67.474,319.367 54.897,321.993C26.706,327.88 8.049,339.183 15.935,368.101C19.303,380.448 29.897,390.447 39.066,399.464C43.705,404.026 50.27,413.788 50.27,413.788C50.27,413.788 55.015,424.313 57.288,427.855C63.966,438.26 77.665,440.796 89.332,440.604C97.771,440.466 103.699,437.826 110.729,433.353C112.367,432.31 119.688,426.3 119.688,426.3C119.688,426.3 128.883,435.096 132.164,436.611C148.902,444.336 173.118,444.95 187.086,431.28C199.173,419.449 204.776,401.226 201.654,384.651C199.94,375.555 193.956,360.339 199.334,350.733C199.84,349.828 206.03,352.657 213.935,352.341C227.021,351.818 238.378,348.762 248.219,339.167C260.288,327.399 270.201,309.116 266.275,292.338C264.504,284.773 258.293,272.034 258.186,269.441C257.849,261.26 258.591,247.251 259.066,238.593C259.917,223.081 259.894,217.29 260.959,212.558C261.028,212.25 261.889,234.074 262.318,240.67C262.523,243.836 262.407,250.252 262.856,253.393C263.622,258.753 265.495,267.533 267.383,269.278C270.935,272.558 279.15,267.162 287.863,269.275C290.589,269.936 295.439,279.127 297.557,278.704C297.738,278.668 296.645,273.912 296.49,271.209C296.218,266.464 295.586,262.177 295.466,257.427C295.02,239.815 294.728,222.783 297.098,205.303C297.583,201.723 300.387,186.346 300.387,186.346C300.387,186.346 299.561,207.564 299.353,213.649C298.747,231.43 298.193,252.051 305.129,268.811C306.33,271.714 313.677,283.088 313.677,283.088C313.677,283.088 312.163,267.073 311.737,262.24C310.128,244.008 310.254,228.847 311.162,210.535C311.332,207.106 314.684,188.234 314.684,188.234C314.684,188.234 313.01,202.591 313.01,206.508C313.01,216.656 313.678,225.692 314.217,235.806C314.412,239.459 314.587,243.127 314.976,246.765C315.25,249.315 315.733,251.819 316.217,254.336C316.81,257.42 317.244,264.28 318.348,265.461C322.387,269.778 330.137,259.348 339.799,265.386C344.092,268.07 344.635,278.016 348.647,279.621C350.524,280.372 348.904,275.587 348.981,273.568C349.14,269.337 349.339,265.116 349.591,260.888C350.525,245.25 352.165,229.579 354.404,214.075C354.577,212.876 357.458,199.303 357.458,199.303C357.458,199.303 356.483,213.513 356.107,217.647C354.992,229.912 353.844,241.781 355.182,254.113C355.72,259.075 356.416,264.017 357.236,268.94C357.521,270.65 358.551,277.807 358.551,276.863C358.551,258.255 358.964,239.415 361.56,220.981C362.421,214.872 364.668,204.368 366.145,199.988C367.089,197.191 364.185,214.944 363.753,222.712C363.028,235.778 361.849,248.137 362.938,261.203C363.07,262.797 363.395,272.704 364.974,273.494C365.339,273.677 368.329,270.299 370.892,270.047C373.376,269.803 375.394,272.703 378.189,271.826C381.639,270.744 384.651,267.869 385.669,267.756C387.673,267.533 389.61,267.877 391.539,268.394L396.285,270.548C397.379,270.655 398.445,270.613 399.491,270.474C400.537,270.613 401.602,270.655 402.697,270.548L407.442,268.394C409.372,267.877 411.308,267.533 413.313,267.756C414.331,267.869 417.343,270.744 420.792,271.826C423.587,272.703 425.606,269.803 428.09,270.047C430.652,270.299 433.642,273.677 434.008,273.494C435.587,272.704 435.911,262.797 436.044,261.203C437.133,248.137 436.696,234.064 435.97,220.998C435.538,213.229 431.613,192.52 432.052,192.081C432.584,191.549 434.852,201.185 435.275,203.695C436.3,209.78 436.905,214.222 437.765,220.331C440.362,238.765 440.431,258.255 440.431,276.863C440.431,277.807 441.46,270.65 441.745,268.94C442.566,264.017 443.262,259.075 443.8,254.113C445.137,241.781 444.565,230.95 443.45,218.686C443.074,214.552 441.523,199.303 441.523,199.303C441.523,199.303 444.404,212.876 444.577,214.075C446.817,229.579 448.456,245.25 449.39,260.888C449.642,265.116 449.841,269.337 450.001,273.568C450.077,275.587 448.458,280.372 450.334,279.621C454.346,278.016 454.889,268.07 459.182,265.386C468.844,259.348 476.595,269.778 480.633,265.461C481.738,264.28 482.172,257.42 482.765,254.336C483.249,251.819 483.732,249.315 484.005,246.765C484.395,243.127 484.569,239.459 484.764,235.806C485.304,225.692 486.335,217.129 485.843,206.993C485.473,199.384 483.638,189.062 483.638,189.062C483.638,189.062 487.584,207.127 487.661,208.218C488.949,226.506 488.853,244.008 487.245,262.24C486.818,267.073 485.304,283.088 485.304,283.088C485.304,283.088 492.652,271.714 493.853,268.811C500.788,252.051 502.033,231.591 500.839,213.84C500.354,206.635 499.928,185.649 499.928,185.649C499.928,185.649 501.089,188.973 503.025,205.321C505.099,222.838 503.961,239.815 503.515,257.427C503.395,262.177 502.763,266.464 502.491,271.209C502.336,273.912 501.243,278.668 501.425,278.704C503.543,279.127 508.392,269.936 511.119,269.275C519.831,267.162 528.047,272.558 531.598,269.278C533.487,267.533 536.065,259.589 536.831,254.228C537.28,251.088 538.412,240.003 538.103,226.805C538.033,223.803 538.312,212.217 538.349,212.53C540.58,231.253 541.55,251.122 540.796,269.441C540.689,272.034 534.477,284.773 532.707,292.338C528.78,309.116 538.693,327.399 550.762,339.167C560.604,348.762 571.96,351.818 585.046,352.341C592.951,352.657 599.141,349.828 599.648,350.733C605.025,360.339 599.042,375.555 597.328,384.651C594.205,401.226 599.808,419.449 611.896,431.28C625.864,444.95 650.08,444.336 666.817,436.611C670.098,435.096 679.293,426.3 679.293,426.3C679.293,426.3 686.614,432.31 688.253,433.353C695.282,437.826 701.21,440.466 709.65,440.604C721.316,440.796 735.015,438.26 741.693,427.855C743.967,424.313 748.711,413.788 748.711,413.788C748.711,413.788 752.659,401.459 756.237,397.333C764.662,387.617 775.639,382.757 782.507,367.406C794.749,340.046 776.123,330.653 760.91,325.683C742.89,319.794 713.692,319.157 666.075,299.245C637.466,287.281 627.12,282.364 587.391,255.015C574.062,245.84 554.59,181.356 548.192,180.206C451.045,162.754 382.3,165.266 281.745,175.906C273.153,176.815 229.062,244.874 215.064,253.882C173.702,280.498 143.791,297.608 115.881,307.077Z" style="fill: rgb(calc(var(--color_hairs_r, 38)), calc(var(--color_hairs_g, 183)), calc(var(--color_hairs_b, 200)))"/>
            <clipPath id="_clip2_hair_6_hat">
                <path d="M115.881,307.077C97.85,313.195 67.474,319.367 54.897,321.993C26.706,327.88 8.049,339.183 15.935,368.101C19.303,380.448 29.897,390.447 39.066,399.464C43.705,404.026 50.27,413.788 50.27,413.788C50.27,413.788 55.015,424.313 57.288,427.855C63.966,438.26 77.665,440.796 89.332,440.604C97.771,440.466 103.699,437.826 110.729,433.353C112.367,432.31 119.688,426.3 119.688,426.3C119.688,426.3 128.883,435.096 132.164,436.611C148.902,444.336 173.118,444.95 187.086,431.28C199.173,419.449 204.776,401.226 201.654,384.651C199.94,375.555 193.956,360.339 199.334,350.733C199.84,349.828 206.03,352.657 213.935,352.341C227.021,351.818 238.378,348.762 248.219,339.167C260.288,327.399 270.201,309.116 266.275,292.338C264.504,284.773 258.293,272.034 258.186,269.441C257.849,261.26 258.591,247.251 259.066,238.593C259.917,223.081 259.894,217.29 260.959,212.558C261.028,212.25 261.889,234.074 262.318,240.67C262.523,243.836 262.407,250.252 262.856,253.393C263.622,258.753 265.495,267.533 267.383,269.278C270.935,272.558 279.15,267.162 287.863,269.275C290.589,269.936 295.439,279.127 297.557,278.704C297.738,278.668 296.645,273.912 296.49,271.209C296.218,266.464 295.586,262.177 295.466,257.427C295.02,239.815 294.728,222.783 297.098,205.303C297.583,201.723 300.387,186.346 300.387,186.346C300.387,186.346 299.561,207.564 299.353,213.649C298.747,231.43 298.193,252.051 305.129,268.811C306.33,271.714 313.677,283.088 313.677,283.088C313.677,283.088 312.163,267.073 311.737,262.24C310.128,244.008 310.254,228.847 311.162,210.535C311.332,207.106 314.684,188.234 314.684,188.234C314.684,188.234 313.01,202.591 313.01,206.508C313.01,216.656 313.678,225.692 314.217,235.806C314.412,239.459 314.587,243.127 314.976,246.765C315.25,249.315 315.733,251.819 316.217,254.336C316.81,257.42 317.244,264.28 318.348,265.461C322.387,269.778 330.137,259.348 339.799,265.386C344.092,268.07 344.635,278.016 348.647,279.621C350.524,280.372 348.904,275.587 348.981,273.568C349.14,269.337 349.339,265.116 349.591,260.888C350.525,245.25 352.165,229.579 354.404,214.075C354.577,212.876 357.458,199.303 357.458,199.303C357.458,199.303 356.483,213.513 356.107,217.647C354.992,229.912 353.844,241.781 355.182,254.113C355.72,259.075 356.416,264.017 357.236,268.94C357.521,270.65 358.551,277.807 358.551,276.863C358.551,258.255 358.964,239.415 361.56,220.981C362.421,214.872 364.668,204.368 366.145,199.988C367.089,197.191 364.185,214.944 363.753,222.712C363.028,235.778 361.849,248.137 362.938,261.203C363.07,262.797 363.395,272.704 364.974,273.494C365.339,273.677 368.329,270.299 370.892,270.047C373.376,269.803 375.394,272.703 378.189,271.826C381.639,270.744 384.651,267.869 385.669,267.756C387.673,267.533 389.61,267.877 391.539,268.394L396.285,270.548C397.379,270.655 398.445,270.613 399.491,270.474C400.537,270.613 401.602,270.655 402.697,270.548L407.442,268.394C409.372,267.877 411.308,267.533 413.313,267.756C414.331,267.869 417.343,270.744 420.792,271.826C423.587,272.703 425.606,269.803 428.09,270.047C430.652,270.299 433.642,273.677 434.008,273.494C435.587,272.704 435.911,262.797 436.044,261.203C437.133,248.137 436.696,234.064 435.97,220.998C435.538,213.229 431.613,192.52 432.052,192.081C432.584,191.549 434.852,201.185 435.275,203.695C436.3,209.78 436.905,214.222 437.765,220.331C440.362,238.765 440.431,258.255 440.431,276.863C440.431,277.807 441.46,270.65 441.745,268.94C442.566,264.017 443.262,259.075 443.8,254.113C445.137,241.781 444.565,230.95 443.45,218.686C443.074,214.552 441.523,199.303 441.523,199.303C441.523,199.303 444.404,212.876 444.577,214.075C446.817,229.579 448.456,245.25 449.39,260.888C449.642,265.116 449.841,269.337 450.001,273.568C450.077,275.587 448.458,280.372 450.334,279.621C454.346,278.016 454.889,268.07 459.182,265.386C468.844,259.348 476.595,269.778 480.633,265.461C481.738,264.28 482.172,257.42 482.765,254.336C483.249,251.819 483.732,249.315 484.005,246.765C484.395,243.127 484.569,239.459 484.764,235.806C485.304,225.692 486.335,217.129 485.843,206.993C485.473,199.384 483.638,189.062 483.638,189.062C483.638,189.062 487.584,207.127 487.661,208.218C488.949,226.506 488.853,244.008 487.245,262.24C486.818,267.073 485.304,283.088 485.304,283.088C485.304,283.088 492.652,271.714 493.853,268.811C500.788,252.051 502.033,231.591 500.839,213.84C500.354,206.635 499.928,185.649 499.928,185.649C499.928,185.649 501.089,188.973 503.025,205.321C505.099,222.838 503.961,239.815 503.515,257.427C503.395,262.177 502.763,266.464 502.491,271.209C502.336,273.912 501.243,278.668 501.425,278.704C503.543,279.127 508.392,269.936 511.119,269.275C519.831,267.162 528.047,272.558 531.598,269.278C533.487,267.533 536.065,259.589 536.831,254.228C537.28,251.088 538.412,240.003 538.103,226.805C538.033,223.803 538.312,212.217 538.349,212.53C540.58,231.253 541.55,251.122 540.796,269.441C540.689,272.034 534.477,284.773 532.707,292.338C528.78,309.116 538.693,327.399 550.762,339.167C560.604,348.762 571.96,351.818 585.046,352.341C592.951,352.657 599.141,349.828 599.648,350.733C605.025,360.339 599.042,375.555 597.328,384.651C594.205,401.226 599.808,419.449 611.896,431.28C625.864,444.95 650.08,444.336 666.817,436.611C670.098,435.096 679.293,426.3 679.293,426.3C679.293,426.3 686.614,432.31 688.253,433.353C695.282,437.826 701.21,440.466 709.65,440.604C721.316,440.796 735.015,438.26 741.693,427.855C743.967,424.313 748.711,413.788 748.711,413.788C748.711,413.788 752.659,401.459 756.237,397.333C764.662,387.617 775.639,382.757 782.507,367.406C794.749,340.046 776.123,330.653 760.91,325.683C742.89,319.794 713.692,319.157 666.075,299.245C637.466,287.281 627.12,282.364 587.391,255.015C574.062,245.84 554.59,181.356 548.192,180.206C451.045,162.754 382.3,165.266 281.745,175.906C273.153,176.815 229.062,244.874 215.064,253.882C173.702,280.498 143.791,297.608 115.881,307.077Z"/>
            </clipPath>
            <g clip-path="url(#_clip2_hair_6_hat)">
                <g id="colors">
                    <path d="M192.181,349.106C192.451,348.318 187.135,346.367 186.599,346.188C178.191,343.374 166.236,333.438 169.038,328.246C169.539,327.318 176.315,337.169 196.135,338.78C206.929,339.657 219.716,335.095 232.023,326.663C244.516,318.104 252.568,305.555 254.985,291.01C255.929,285.329 257.125,279.401 257.403,273.652C257.429,273.101 257.216,268.624 257.864,268.446C258.883,268.167 261.386,271.484 261.91,272.058C266.041,276.579 269.911,281.619 272.843,287C275.477,291.833 277.191,296.995 277.97,302.446C282.325,332.946 265.977,364.194 251.245,389.604C231.396,423.842 208.919,465.338 168.698,478.014C155.357,482.219 141.316,483.319 127.396,482.857C115.703,482.469 103.969,480.869 92.688,477.736C35.709,461.914 -29.836,398.194 11.316,337.341L14.103,346.913C13.925,347.403 13.398,349.61 13.213,350.492C12.692,352.965 12.225,355.431 11.936,357.944C11.029,365.812 12.672,373.716 17.015,380.348C22.558,388.814 25.204,393.541 34.79,396.546C43.446,399.259 46.523,397.281 46.523,397.281C46.523,397.281 49.192,405.357 52.749,409.693C57,414.876 68.413,418.833 73.188,418.964C82.147,419.21 91.617,420.151 102.66,417.767C104.986,417.265 111.261,414.132 110.58,410.999C108.944,403.471 108.033,397.765 108.009,396.712C107.942,393.817 113.567,410.734 123.72,417.241C132.627,422.949 150.92,424.91 163.17,421.769C181.118,417.167 198.603,394.446 196.89,375.126C196.465,370.338 192.392,367.752 191.032,363.31C189.659,358.825 190.696,353.437 192.181,349.106ZM607.031,349.106C606.761,348.318 612.077,346.367 612.613,346.188C621.021,343.374 632.975,333.438 630.174,328.246C629.673,327.318 622.896,337.169 603.077,338.78C592.283,339.657 579.495,335.095 567.189,326.663C554.696,318.104 546.643,305.555 544.227,291.01C543.283,285.329 542.086,279.401 541.809,273.652C541.782,273.101 541.996,268.624 541.348,268.446C540.328,268.167 537.826,271.484 537.302,272.058C533.171,276.579 529.301,281.619 526.368,287C523.735,291.833 522.02,296.995 521.242,302.446C516.886,332.946 533.235,364.194 547.967,389.604C567.816,423.842 590.293,465.338 630.514,478.014C643.855,482.219 657.896,483.319 671.815,482.857C683.508,482.469 695.243,480.869 706.524,477.736C763.503,461.914 829.048,398.194 787.896,337.341L785.109,346.913C785.286,347.403 785.813,349.61 785.999,350.492C786.519,352.965 786.986,355.431 787.276,357.944C788.182,365.812 786.54,373.716 782.197,380.348C776.653,388.814 774.007,393.541 764.421,396.546C755.766,399.259 752.689,397.281 752.689,397.281C752.689,397.281 750.019,405.357 746.463,409.693C742.212,414.876 730.799,418.833 726.024,418.964C717.065,419.21 707.595,420.151 696.552,417.767C694.226,417.265 687.951,414.132 688.632,410.999C690.268,403.471 691.179,397.765 691.203,396.712C691.27,393.817 685.645,410.734 675.492,417.241C666.585,422.949 648.292,424.91 636.042,421.769C618.094,417.167 600.609,394.446 602.322,375.126C602.746,370.338 606.819,367.752 608.18,363.31C609.552,358.825 608.516,353.437 607.031,349.106ZM92.314,410.178C92.324,410.168 92.331,410.154 92.336,410.134L92.314,410.178C92.224,410.267 91.934,409.952 91.759,409.879C91.344,409.705 90.945,409.486 90.571,409.237C89.054,408.225 87.953,406.676 87.013,405.14C84.244,400.62 84.786,395.155 88.227,391.14C92.334,386.349 108.194,386.349 108.383,387.897C108.6,389.685 109.551,383.163 109.494,382.509C109.087,377.822 105.873,378.216 101.899,376.976C91.347,373.683 78.996,377.529 72.919,386.265C71.121,388.85 70.705,392.947 70.615,396.161C70.419,403.149 76.857,409.512 82.995,410.97C86.056,411.698 88.694,411.186 91.851,411.111L92.314,410.178ZM706.898,410.178C706.888,410.168 706.88,410.154 706.876,410.134L706.898,410.178C706.988,410.267 707.278,409.952 707.453,409.879C707.868,409.705 708.267,409.486 708.641,409.237C710.158,408.225 711.259,406.676 712.199,405.14C714.968,400.62 714.425,395.155 710.985,391.14C706.877,386.349 691.017,386.349 690.829,387.897C690.612,389.685 689.66,383.163 689.717,382.509C690.125,377.822 693.339,378.216 697.313,376.976C707.865,373.683 720.216,377.529 726.293,386.265C728.091,388.85 728.507,392.947 728.597,396.161C728.793,403.149 722.354,409.512 716.217,410.97C713.155,411.698 710.518,411.186 707.361,411.111L706.898,410.178ZM151.976,410.184C152.26,410.098 151.707,409.654 151.57,409.39C151.288,408.849 150.982,408.32 150.7,407.779C149.849,406.144 149.066,404.466 148.57,402.685C147.252,397.95 148.703,392.714 151.873,389.031C155.558,384.751 162.464,380.706 168.311,381.588C170.531,381.923 172.619,382.94 174.489,384.157C175.065,384.531 175.661,384.967 176.137,385.465C176.21,385.542 176.722,386.282 176.843,386.183C177.091,385.98 176.737,384.894 176.687,384.664C176.331,383.016 175.709,381.457 174.904,379.977C171.734,374.142 165.21,372.523 158.941,372.984C149.588,373.673 140.585,377.111 134.965,384.967C133.674,386.771 132.761,388.894 132.172,391.026C131.428,393.721 131.011,396.809 131.658,399.57C133.364,406.854 142.583,409.525 149.049,409.956L151.976,410.184ZM647.236,410.184C646.952,410.098 647.504,409.654 647.642,409.39C647.924,408.849 648.23,408.32 648.511,407.779C649.362,406.144 650.146,404.466 650.641,402.685C651.959,397.95 650.509,392.714 647.339,389.031C643.654,384.751 636.747,380.706 630.901,381.588C628.68,381.923 626.593,382.94 624.722,384.157C624.147,384.531 623.551,384.967 623.075,385.465C623.001,385.542 622.489,386.282 622.369,386.183C622.12,385.98 622.475,384.894 622.524,384.664C622.881,383.016 623.503,381.457 624.307,379.977C627.478,374.142 634.002,372.523 640.271,372.984C649.624,373.673 658.627,377.111 664.247,384.967C665.538,386.771 666.45,388.894 667.039,391.026C667.784,393.721 668.201,396.809 667.554,399.57C665.848,406.854 656.629,409.525 650.163,409.956L647.236,410.184ZM14.158,346.82L14.154,346.815C14.128,346.816 14.108,346.9 14.103,346.913L14.145,347.056C14.162,346.915 14.166,346.84 14.158,346.82ZM785.054,346.82L785.057,346.815C785.084,346.816 785.104,346.9 785.109,346.913L785.067,347.056C785.049,346.915 785.046,346.84 785.054,346.82ZM230.467,277.943C229.022,278.101 226.98,279.068 226.172,279.462C220.859,282.053 217.306,287.776 216.961,293.633C216.711,297.888 217.512,302.151 219.955,305.699C221.02,307.246 222.154,308.743 223.367,310.176C223.571,310.418 224.66,311.388 224.607,311.733C224.563,312.021 222.347,312.427 222.111,312.495C219.519,313.232 216.905,313.97 214.187,313.97C211.978,313.97 209.812,313.675 207.77,312.8L205.532,311.023C205.677,311.106 205.307,310.875 205.104,310.401C204.845,309.792 204.609,309.17 204.378,308.55C203.72,306.779 203.394,304.917 203.466,303.029C203.701,296.855 205.138,290.635 208.964,285.671C212.525,281.05 217.681,278.795 223.348,277.94C225.148,277.668 227.025,277.575 228.841,277.708C229.391,277.748 229.926,277.855 230.467,277.943ZM568.745,277.943C570.19,278.101 572.231,279.068 573.04,279.462C578.352,282.053 581.906,287.776 582.25,293.633C582.501,297.888 581.699,302.151 579.256,305.699C578.191,307.246 577.058,308.743 575.845,310.176C575.641,310.418 574.552,311.388 574.605,311.733C574.649,312.021 576.864,312.427 577.1,312.495C579.693,313.232 582.307,313.97 585.024,313.97C587.234,313.97 589.4,313.675 591.442,312.8L593.68,311.023C593.535,311.106 593.905,310.875 594.107,310.401C594.367,309.792 594.603,309.17 594.834,308.55C595.492,306.779 595.817,304.917 595.746,303.029C595.51,296.855 594.074,290.635 590.248,285.671C586.687,281.05 581.531,278.795 575.864,277.94C574.064,277.668 572.187,277.575 570.37,277.708C569.821,277.748 569.286,277.855 568.745,277.943ZM230.467,277.943C230.905,277.895 231.288,277.921 231.565,278.06C231.825,278.19 230.984,278.021 230.696,277.978C230.619,277.967 230.543,277.955 230.467,277.943ZM568.745,277.943C568.307,277.895 567.924,277.921 567.647,278.06C567.386,278.19 568.228,278.021 568.516,277.978C568.592,277.967 568.669,277.955 568.745,277.943Z" style="             fill: rgb(0, 0, 0);             fill-opacity: 1;             stroke: none;             stroke-width: 1;             stroke-linecap: butt;             stroke-linejoin: miter;             stroke-miterlimit: 10;             stroke-dasharray: none;             stroke-dashoffset: 0;             stroke-opacity: 1;           "/>
                    <path d="M45.814,385.867C45.663,386.392 45.597,386.887 45.648,387.333L45.814,385.867C46.543,383.32 49.266,380.092 50.341,378.503C55.872,370.318 62.186,362.428 69.069,355.345C96.849,326.757 136.627,312.674 170.303,291.805C181.416,284.918 188.398,279.688 198.226,271.06C199.566,269.884 206.449,254.072 205.846,251.834C205.503,250.559 200.27,253.107 199.717,253.347C193.636,255.989 187.896,259.358 182.113,262.58C158.83,275.553 135.441,288.054 115.19,305.47C108.497,311.225 95.17,312.448 87.134,315.265C69.156,321.566 42.706,320.13 26.137,329.575C22.2,331.818 7.017,343.03 7.583,351.988C8.858,372.136 9.865,354.33 25.609,344.916C40.375,336.088 59.171,334.307 75.7,329.441C81.81,327.642 90.406,326.139 89.951,326.493C85.487,329.965 77.748,335.149 73.468,338.848C60.705,349.881 46.064,365.814 46.064,383.651L45.814,385.867ZM754.232,385.867C754.383,386.392 754.449,386.887 754.398,387.333L754.232,385.867C753.503,383.32 750.78,380.092 749.705,378.503C744.174,370.318 737.86,362.428 730.977,355.345C703.197,326.757 663.419,312.674 629.743,291.805C618.63,284.918 611.648,279.688 601.82,271.06C600.48,269.884 593.597,254.072 594.2,251.834C594.543,250.559 599.776,253.107 600.329,253.347C606.41,255.989 612.15,259.358 617.933,262.58C641.216,275.553 664.605,288.054 684.856,305.47C691.549,311.225 704.876,312.448 712.911,315.265C730.89,321.566 757.34,320.13 773.909,329.575C777.846,331.818 793.029,343.03 792.463,351.988C791.188,372.136 790.181,354.33 774.437,344.916C759.671,336.088 740.875,334.307 724.346,329.441C718.236,327.642 709.64,326.139 710.095,326.493C714.559,329.965 722.298,335.149 726.578,338.848C739.341,349.881 753.982,365.814 753.982,383.651L754.232,385.867Z" style="fill : rgb(calc(var(--color_hairs_r, 38)), calc(var(--color_hairs_g, 183)), calc(var(--color_hairs_b, 200)))"/>
                </g>
                <g id="lines">
                    <g id="lines1">
                        <g>
                            <path d="M50.67,415.154C50.67,415.154 48.269,408.783 46.88,401.679C44.988,392.007 45.672,382.078 47.733,374.919C52.335,358.933 62.096,347.289 73.755,338.473C98.679,319.629 128.929,308.435 145.521,300.067C161.286,292.115 198.297,267.589 215.634,253.858" style="fill:none;stroke:black;stroke-width:2.1px;"/>
                            <path d="M120.488,426.936C120.929,427.444 113.603,417.254 111.352,411.519C103.03,390.317 112.088,365.928 120.207,356.679C145.254,328.148 168.29,297.893 214.934,254.26" style="fill:none;stroke:black;stroke-width:2.1px;"/>
                            <path d="M183.939,357.698C183.929,357.72 186.139,358.954 186.279,359.049C187.644,359.972 188.956,361.076 190.162,362.196C194.345,366.08 198.093,370.129 199.923,375.62" style="fill:none;stroke:black;stroke-width:2.1px;"/>
                            <path d="M200.277,350.302C191.925,349.451 167.347,342.618 167.549,324.569C167.96,287.661 198.482,276.515 227.783,240.66" style="fill:none;stroke:black;stroke-width:2.1px;"/>
                            <path d="M192.938,291.79C192.995,291.79 195.747,300.61 196.041,301.251C198.67,306.996 203.127,312.056 209.293,313.916C215.218,315.702 221.439,313.351 227.018,310.887C234.311,307.666 240.438,302.248 242.872,296.685C251.383,277.233 223.631,273.044 212.44,281.777C208.56,284.806 204.398,288.89 205.472,294.258" style="fill:none;stroke:black;stroke-width:2.1px;"/>
                            <path d="M258.437,270.943C244.144,254.802 212.492,261.981 203.794,281.863C200.608,289.144 197.693,306.823 206.256,312.531" style="fill:none;stroke:black;stroke-width:2.1px;"/>
                            <path d="M283.565,119.345C283.572,119.193 282.747,120.425 280.624,123.83C278.603,127.072 276.549,130.298 274.573,133.567C268.533,143.561 264.276,154.434 261.003,165.632C251.379,198.555 249.988,230.771 249.988,264.845" style="fill:none;stroke:black;stroke-width:2.1px;"/>
                            <path d="M274.489,155.027C274.805,155.345 274.089,155.829 273.896,156.234C271.914,160.392 270.29,164.815 268.964,169.221C264.529,183.957 262.395,198.967 260.942,214.231" style="fill:none;stroke:black;stroke-width:2.1px;"/>
                            <path d="M301.294,151.898C299.6,153.536 298.84,157.895 298.101,160.01C295.518,167.412 293.64,175.008 292.308,182.73C287.861,208.524 282.273,244.36 289.309,270.157" style="fill:none;stroke:black;stroke-width:2.1px;"/>
                            <path d="M314.748,140.923C312.052,142.733 310.35,150.388 309.332,153.225C305.01,165.276 301.977,177.458 299.877,190.054" style="fill:none;stroke:black;stroke-width:2.1px;"/>
                            <path d="M324.806,156.079C324.802,156.072 324.696,156.279 324.682,156.307C323.988,157.79 323.319,159.295 322.719,160.819C321.469,163.997 320.275,167.19 319.167,170.421C315.66,180.65 314.367,190.404 312.86,200.955" style="fill:none;stroke:black;stroke-width:2.1px;"/>
                            <path d="M343.659,196.601C343.231,198.335 342.725,202.258 342.357,204.006C341.289,209.091 340.477,214.195 339.924,219.362C338.292,234.59 337.418,250.081 339.453,265.343" style="fill:none;stroke:black;stroke-width:2.1px;"/>
                            <path d="M372.894,174.288C373.137,174.537 370.743,180.388 370.578,180.955C368.678,187.458 367.369,194.235 366.101,200.891" style="fill:none;stroke:black;stroke-width:2.1px;"/>
                            <path d="M378.857,191.941C378.919,191.967 378.114,196.285 378.077,196.54C377.333,201.719 376.889,206.96 376.632,212.185C375.918,226.738 375.51,241.293 376.499,255.843C376.877,261.41 376.632,268.252 378.744,273.533" style="fill:none;stroke:black;stroke-width:2.1px;"/>
                            <path d="M383.568,239.835C383.363,239.509 383.533,240.604 383.529,240.989C383.522,241.721 383.517,242.453 383.517,243.185C383.517,245.268 383.549,247.351 383.621,249.433C383.841,255.754 383.864,262.664 385.244,268.872" style="fill:none;stroke:black;stroke-width:2.1px;"/>
                            <path d="M131.326,398.466C131.326,398.466 131.133,396.242 131.239,395.258C131.489,392.938 132.25,390.448 133.329,388.371C137.579,380.185 146.202,376.09 153.196,374.272C155.85,373.582 165.451,372.472 171.664,376.423C183.037,383.656 174.68,402.193 165.535,406.876C150.596,414.526 131.554,408.469 129.772,394.015C127.992,379.578 139.166,362.688 150.018,354.488" style="fill:none;stroke:black;stroke-width:2.1px;"/>
                            <path d="M108.846,380.017C103.503,376.003 95.229,375.827 90.742,376.257C79.413,377.342 70.001,384.56 70.149,396.575C70.262,405.729 80.953,412.858 89.558,411.866C97.357,410.968 103.465,405.754 107.304,399.036" style="fill:none;stroke:black;stroke-width:2.1px;"/>
                            <path d="M366.88,163.236C366.853,163.207 366.587,164.266 366.534,164.454C366.265,165.428 365.974,166.396 365.69,167.366C364.88,170.13 364.068,172.896 363.295,175.671C360.943,184.111 359.247,192.686 357.413,201.244" style="fill:none;stroke:black;stroke-width:2.1px;"/>
                        </g>
                    </g>
                    <g id="lines2" transform="matrix(-1,0,0,1,799.517,0)">
                        <g>
                            <path d="M50.67,415.154C50.67,415.154 48.269,408.783 46.88,401.679C44.988,392.007 45.672,382.078 47.733,374.919C52.335,358.933 63.137,348.519 73.755,338.473C95.485,317.916 124.035,307.713 141.272,300.771C170.513,288.993 197.881,265.758 215.634,253.858" style="fill:none;stroke:black;stroke-width:2.1px;"/>
                            <path d="M120.488,426.936C120.929,427.444 113.603,417.254 111.352,411.519C103.03,390.317 112.088,365.928 120.207,356.679C145.254,328.148 168.29,297.893 214.934,254.26" style="fill:none;stroke:black;stroke-width:2.1px;"/>
                            <path d="M183.939,357.698C183.929,357.72 186.139,358.954 186.279,359.049C187.644,359.972 188.956,361.076 190.162,362.196C194.345,366.08 198.093,370.129 199.923,375.62" style="fill:none;stroke:black;stroke-width:2.1px;"/>
                            <path d="M200.277,350.302C191.925,349.451 167.347,342.618 167.549,324.569C167.96,287.661 198.482,276.515 227.783,240.66" style="fill:none;stroke:black;stroke-width:2.1px;"/>
                            <path d="M192.938,291.79C192.995,291.79 195.747,300.61 196.041,301.251C198.67,306.996 203.127,312.056 209.293,313.916C215.218,315.702 221.439,313.351 227.018,310.887C234.311,307.666 240.438,302.248 242.872,296.685C251.383,277.233 223.631,273.044 212.44,281.777C208.56,284.806 204.398,288.89 205.472,294.258" style="fill:none;stroke:black;stroke-width:2.1px;"/>
                            <path d="M258.437,270.943C244.144,254.802 212.492,261.981 203.794,281.863C200.608,289.144 197.693,306.823 206.256,312.531" style="fill:none;stroke:black;stroke-width:2.1px;"/>
                            <path d="M283.565,119.345C283.572,119.193 282.747,120.425 280.624,123.83C278.603,127.072 276.549,130.298 274.573,133.567C268.533,143.561 264.276,154.434 261.003,165.632C251.379,198.555 249.988,230.771 249.988,264.845" style="fill:none;stroke:black;stroke-width:2.1px;"/>
                            <path d="M274.489,155.027C274.805,155.345 274.089,155.829 273.896,156.234C271.914,160.392 270.29,164.815 268.964,169.221C264.529,183.957 262.395,198.967 260.942,214.231" style="fill:none;stroke:black;stroke-width:2.1px;"/>
                            <path d="M301.294,151.898C299.6,153.536 298.84,157.895 298.101,160.01C295.518,167.412 293.64,175.008 292.308,182.73C287.861,208.524 282.273,244.36 289.309,270.157" style="fill:none;stroke:black;stroke-width:2.1px;"/>
                            <path d="M314.748,140.923C312.052,142.733 310.35,150.388 309.332,153.225C305.01,165.276 301.977,177.458 299.877,190.054" style="fill:none;stroke:black;stroke-width:2.1px;"/>
                            <path d="M324.806,156.079C324.802,156.072 324.696,156.279 324.682,156.307C323.988,157.79 323.319,159.295 322.719,160.819C321.469,163.997 320.275,167.19 319.167,170.421C315.66,180.65 314.367,190.404 312.86,200.955" style="fill:none;stroke:black;stroke-width:2.1px;"/>
                            <path d="M343.659,196.601C343.231,198.335 342.725,202.258 342.357,204.006C341.289,209.091 340.477,214.195 339.924,219.362C338.292,234.59 337.418,250.081 339.453,265.343" style="fill:none;stroke:black;stroke-width:2.1px;"/>
                            <path d="M372.894,174.288C373.137,174.537 370.743,180.388 370.578,180.955C368.678,187.458 367.369,194.235 366.101,200.891" style="fill:none;stroke:black;stroke-width:2.1px;"/>
                            <path d="M378.857,191.941C378.919,191.967 378.114,196.285 378.077,196.54C377.333,201.719 376.889,206.96 376.632,212.185C375.918,226.738 375.51,241.293 376.499,255.843C376.877,261.41 376.632,268.252 378.744,273.533" style="fill:none;stroke:black;stroke-width:2.1px;"/>
                            <path d="M383.568,239.835C383.363,239.509 383.533,240.604 383.529,240.989C383.522,241.721 383.517,242.453 383.517,243.185C383.517,245.268 383.549,247.351 383.621,249.433C383.841,255.754 383.864,262.664 385.244,268.872" style="fill:none;stroke:black;stroke-width:2.1px;"/>
                            <path d="M131.326,398.466C131.326,398.466 131.133,396.242 131.239,395.258C131.489,392.938 132.25,390.448 133.329,388.371C137.579,380.185 146.202,376.09 153.196,374.272C155.85,373.582 165.451,372.472 171.664,376.423C183.037,383.656 174.68,402.193 165.535,406.876C150.596,414.526 131.554,408.469 129.772,394.015C127.992,379.578 139.166,362.688 150.018,354.488" style="fill:none;stroke:black;stroke-width:2.1px;"/>
                            <path d="M108.846,380.017C103.503,376.003 95.229,375.827 90.742,376.257C79.413,377.342 70.001,384.56 70.149,396.575C70.262,405.729 80.953,412.858 89.558,411.866C97.357,410.968 103.465,405.754 107.304,399.036" style="fill:none;stroke:black;stroke-width:2.1px;"/>
                            <path d="M366.88,163.236C366.853,163.207 366.587,164.266 366.534,164.454C366.265,165.428 365.974,166.396 365.69,167.366C364.88,170.13 364.068,172.896 363.295,175.671C360.943,184.111 359.247,192.686 357.413,201.244" style="fill:none;stroke:black;stroke-width:2.1px;"/>
                        </g>
                    </g>
                </g>
            </g>
            <path d="M115.881,307.077C97.85,313.195 67.474,319.367 54.897,321.993C26.706,327.88 8.049,339.183 15.935,368.101C19.303,380.448 29.897,390.447 39.066,399.464C43.705,404.026 50.27,413.788 50.27,413.788C50.27,413.788 55.015,424.313 57.288,427.855C63.966,438.26 77.665,440.796 89.332,440.604C97.771,440.466 103.699,437.826 110.729,433.353C112.367,432.31 119.688,426.3 119.688,426.3C119.688,426.3 128.883,435.096 132.164,436.611C148.902,444.336 173.118,444.95 187.086,431.28C199.173,419.449 204.776,401.226 201.654,384.651C199.94,375.555 193.956,360.339 199.334,350.733C199.84,349.828 206.03,352.657 213.935,352.341C227.021,351.818 238.378,348.762 248.219,339.167C260.288,327.399 270.201,309.116 266.275,292.338C264.504,284.773 258.293,272.034 258.186,269.441C257.849,261.26 258.591,247.251 259.066,238.593C259.917,223.081 259.894,217.29 260.959,212.558C261.028,212.25 261.889,234.074 262.318,240.67C262.523,243.836 262.407,250.252 262.856,253.393C263.622,258.753 265.495,267.533 267.383,269.278C270.935,272.558 279.15,267.162 287.863,269.275C290.589,269.936 295.439,279.127 297.557,278.704C297.738,278.668 296.645,273.912 296.49,271.209C296.218,266.464 295.586,262.177 295.466,257.427C295.02,239.815 294.728,222.783 297.098,205.303C297.583,201.723 300.387,186.346 300.387,186.346C300.387,186.346 299.561,207.564 299.353,213.649C298.747,231.43 298.193,252.051 305.129,268.811C306.33,271.714 313.677,283.088 313.677,283.088C313.677,283.088 312.163,267.073 311.737,262.24C310.128,244.008 310.254,228.847 311.162,210.535C311.332,207.106 314.684,188.234 314.684,188.234C314.684,188.234 313.01,202.591 313.01,206.508C313.01,216.656 313.678,225.692 314.217,235.806C314.412,239.459 314.587,243.127 314.976,246.765C315.25,249.315 315.733,251.819 316.217,254.336C316.81,257.42 317.244,264.28 318.348,265.461C322.387,269.778 330.137,259.348 339.799,265.386C344.092,268.07 344.635,278.016 348.647,279.621C350.524,280.372 348.904,275.587 348.981,273.568C349.14,269.337 349.339,265.116 349.591,260.888C350.525,245.25 352.165,229.579 354.404,214.075C354.577,212.876 357.458,199.303 357.458,199.303C357.458,199.303 356.483,213.513 356.107,217.647C354.992,229.912 353.844,241.781 355.182,254.113C355.72,259.075 356.416,264.017 357.236,268.94C357.521,270.65 358.551,277.807 358.551,276.863C358.551,258.255 358.964,239.415 361.56,220.981C362.421,214.872 364.668,204.368 366.145,199.988C367.089,197.191 364.185,214.944 363.753,222.712C363.028,235.778 361.849,248.137 362.938,261.203C363.07,262.797 363.395,272.704 364.974,273.494C365.339,273.677 368.329,270.299 370.892,270.047C373.376,269.803 375.394,272.703 378.189,271.826C381.639,270.744 384.651,267.869 385.669,267.756C387.673,267.533 389.61,267.877 391.539,268.394L396.285,270.548C397.379,270.655 398.445,270.613 399.491,270.474C400.537,270.613 401.602,270.655 402.697,270.548L407.442,268.394C409.372,267.877 411.308,267.533 413.313,267.756C414.331,267.869 417.343,270.744 420.792,271.826C423.587,272.703 425.606,269.803 428.09,270.047C430.652,270.299 433.642,273.677 434.008,273.494C435.587,272.704 435.911,262.797 436.044,261.203C437.133,248.137 436.696,234.064 435.97,220.998C435.538,213.229 431.613,192.52 432.052,192.081C432.584,191.549 434.852,201.185 435.275,203.695C436.3,209.78 436.905,214.222 437.765,220.331C440.362,238.765 440.431,258.255 440.431,276.863C440.431,277.807 441.46,270.65 441.745,268.94C442.566,264.017 443.262,259.075 443.8,254.113C445.137,241.781 444.565,230.95 443.45,218.686C443.074,214.552 441.523,199.303 441.523,199.303C441.523,199.303 444.404,212.876 444.577,214.075C446.817,229.579 448.456,245.25 449.39,260.888C449.642,265.116 449.841,269.337 450.001,273.568C450.077,275.587 448.458,280.372 450.334,279.621C454.346,278.016 454.889,268.07 459.182,265.386C468.844,259.348 476.595,269.778 480.633,265.461C481.738,264.28 482.172,257.42 482.765,254.336C483.249,251.819 483.732,249.315 484.005,246.765C484.395,243.127 484.569,239.459 484.764,235.806C485.304,225.692 486.335,217.129 485.843,206.993C485.473,199.384 483.638,189.062 483.638,189.062C483.638,189.062 487.584,207.127 487.661,208.218C488.949,226.506 488.853,244.008 487.245,262.24C486.818,267.073 485.304,283.088 485.304,283.088C485.304,283.088 492.652,271.714 493.853,268.811C500.788,252.051 502.033,231.591 500.839,213.84C500.354,206.635 499.928,185.649 499.928,185.649C499.928,185.649 501.089,188.973 503.025,205.321C505.099,222.838 503.961,239.815 503.515,257.427C503.395,262.177 502.763,266.464 502.491,271.209C502.336,273.912 501.243,278.668 501.425,278.704C503.543,279.127 508.392,269.936 511.119,269.275C519.831,267.162 528.047,272.558 531.598,269.278C533.487,267.533 536.065,259.589 536.831,254.228C537.28,251.088 538.412,240.003 538.103,226.805C538.033,223.803 538.312,212.217 538.349,212.53C540.58,231.253 541.55,251.122 540.796,269.441C540.689,272.034 534.477,284.773 532.707,292.338C528.78,309.116 538.693,327.399 550.762,339.167C560.604,348.762 571.96,351.818 585.046,352.341C592.951,352.657 599.141,349.828 599.648,350.733C605.025,360.339 599.042,375.555 597.328,384.651C594.205,401.226 599.808,419.449 611.896,431.28C625.864,444.95 650.08,444.336 666.817,436.611C670.098,435.096 679.293,426.3 679.293,426.3C679.293,426.3 686.614,432.31 688.253,433.353C695.282,437.826 701.21,440.466 709.65,440.604C721.316,440.796 735.015,438.26 741.693,427.855C743.967,424.313 748.711,413.788 748.711,413.788C748.711,413.788 752.659,401.459 756.237,397.333C764.662,387.617 775.639,382.757 782.507,367.406C794.749,340.046 776.123,330.653 760.91,325.683C742.89,319.794 713.692,319.157 666.075,299.245C637.466,287.281 627.12,282.364 587.391,255.015C574.062,245.84 554.59,181.356 548.192,180.206C451.045,162.754 382.3,165.266 281.745,175.906C273.153,176.815 229.062,244.874 215.064,253.882C173.702,280.498 143.791,297.608 115.881,307.077Z" style="fill:none;stroke:black;stroke-width:2.1px;"/>
        </g>
    </g>
</svg>