<svg viewBox="0 0 800 800" xmlns="http://www.w3.org/2000/svg">
  <g id="mouth">
    <path
      d="M370.946,524.922C378.753,535.238 392.781,542.622 405.595,538.401C411.194,536.558 417.103,534.123 421.375,529.927C422.493,528.83 423.5,527.576 424.24,526.191C424.399,525.894 424.915,525.151 424.569,524.807C423.914,524.155 421.261,525.363 420.589,525.534C416.362,526.606 412.303,528.281 408.039,529.202C402.396,530.421 396.899,529.774 391.259,528.926C384.803,527.955 378.798,526.881 372.843,524.069"
      style="fill: rgb(56, 25, 57); fill-opacity: 0.5"
    />
    <path
      d="M369.761,523.349C370.611,522.977 373.769,524.794 374.608,525.103C378.916,526.693 383.273,528.068 387.795,528.915C400.087,531.218 412.262,530.082 423.439,524.363"
      style="fill: none; stroke: black; stroke-width: 2.1px"
    />
    <path
      d="M413.619,517.535C415.348,515.774 419.32,515.181 421.633,515.408C423.273,515.569 424.538,516.174 423.126,517.975C421.503,520.044 418.554,520.425 416.214,520.188C415.341,520.1 413.414,519.758 413.608,518.469L413.619,517.535Z"
      style="fill: rgb(252, 255, 216); fill-opacity: 0.6"
    />
    <path
      d="M362.107,509.194C362.107,509.194 363.283,507.188 363.794,506.592C365.28,504.859 366.868,503.193 368.58,501.681C373.779,497.093 379.27,492.85 385.265,489.351C394.776,483.8 404.062,482.238 414.874,481.737C417.435,481.618 425.389,481.548 425.748,481.912C429.197,485.405 430.202,500.688 432.092,506.154C432.837,508.307 422.598,509.719 416.317,510.881C403.665,513.22 392.19,512.55 379.463,511.613C374.149,511.222 367.287,510.64 362.107,509.194Z"
      style="fill: rgb(91, 51, 75)"
    />
    <clipPath id="_clip1_business_tired_mouth">
      <path
        d="M362.107,509.194C362.107,509.194 363.283,507.188 363.794,506.592C365.28,504.859 366.868,503.193 368.58,501.681C373.779,497.093 379.27,492.85 385.265,489.351C394.776,483.8 404.062,482.238 414.874,481.737C417.435,481.618 425.389,481.548 425.748,481.912C429.197,485.405 430.202,500.688 432.092,506.154C432.837,508.307 422.598,509.719 416.317,510.881C403.665,513.22 392.19,512.55 379.463,511.613C374.149,511.222 367.287,510.64 362.107,509.194Z"
      />
    </clipPath>
    <g clip-path="url(#_clip1_business_tired_mouth)">
      <path
        d="M376.844,485.065C376.839,485.057 378.112,484.852 378.223,484.838C379.244,484.716 380.269,484.638 381.296,484.58C384.274,484.411 387.223,484.7 390.161,485.186C402.08,487.16 412.072,493.178 419.598,502.517C421.317,504.65 423.009,507.031 424.185,509.514C424.526,510.235 425.297,511.575 424.791,512.373C423.994,513.631 421.151,513.83 419.897,514.113C415.428,515.122 410.916,515.983 406.404,516.779C403.007,517.379 399.6,517.93 396.174,518.344C393.09,518.716 389.991,518.99 386.889,519.156C384.394,519.29 381.902,519.33 379.404,519.259C377.568,519.207 375.736,519.093 373.909,518.896C365.904,518.032 351.2,514.951 355.945,503.678C356.756,501.749 357.846,499.937 359.037,498.221C360.851,495.607 362.9,493.213 365.251,491.069L376.844,485.065Z"
        style="fill: rgb(184, 102, 141); stroke: black; stroke-width: 2.1px"
      />
      <path
        d="M355.836,512.653C356.146,512.415 356.498,511.836 356.834,511.642C358.012,510.96 359.208,510.317 360.459,509.778C364.18,508.172 368.087,507.182 372.091,506.599C379.189,505.565 386.357,506.233 393.495,506.091C402.648,505.908 411.997,504.988 421.123,506.137C424.915,506.615 428.582,507.525 432.227,508.664C432.931,508.884 435.378,509.296 435.706,510.109C435.92,510.64 432.594,510.924 432.391,510.946C427.953,511.429 423.5,511.788 419.053,512.183C401.993,513.697 385.594,514.227 368.542,512.493L355.836,512.653C355.678,512.774 355.531,512.808 355.403,512.659L355.836,512.653ZM373.777,496.056C377.35,495.881 380.912,495.409 384.485,495.173C396.19,494.399 409.612,493.826 420.225,488.504C422.737,487.244 425.888,485.225 428.041,483.417C428.468,483.058 428.697,481.285 428.6,480.587C428.51,479.932 425.692,479.599 425.298,479.517C421.495,478.725 417.559,478.581 413.686,478.67C403.159,478.913 391.086,480.281 382.003,486.069C378.833,488.09 376.291,490.87 373.858,493.696C373.858,493.696 372.578,496.116 373.777,496.056Z"
        style="fill: white"
      />
      <clipPath id="_clip2_business_tired_mouth">
        <path
          d="M355.836,512.653C356.146,512.415 356.498,511.836 356.834,511.642C358.012,510.96 359.208,510.317 360.459,509.778C364.18,508.172 368.087,507.182 372.091,506.599C379.189,505.565 386.357,506.233 393.495,506.091C402.648,505.908 411.997,504.988 421.123,506.137C424.915,506.615 428.582,507.525 432.227,508.664C432.931,508.884 435.378,509.296 435.706,510.109C435.92,510.64 432.594,510.924 432.391,510.946C427.953,511.429 423.5,511.788 419.053,512.183C401.993,513.697 385.594,514.227 368.542,512.493L355.836,512.653C355.678,512.774 355.531,512.808 355.403,512.659L355.836,512.653ZM373.777,496.056C377.35,495.881 380.912,495.409 384.485,495.173C396.19,494.399 409.612,493.826 420.225,488.504C422.737,487.244 425.888,485.225 428.041,483.417C428.468,483.058 428.697,481.285 428.6,480.587C428.51,479.932 425.692,479.599 425.298,479.517C421.495,478.725 417.559,478.581 413.686,478.67C403.159,478.913 391.086,480.281 382.003,486.069C378.833,488.09 376.291,490.87 373.858,493.696C373.858,493.696 372.578,496.116 373.777,496.056Z"
        />
      </clipPath>
      <g clip-path="url(#_clip2_business_tired_mouth)">
        <path
          d="M366.388,514.945C366.388,514.95 366.39,514.952 366.395,514.949L366.388,514.945C366.39,514.888 366.678,514.377 366.712,514.326C367.01,513.882 367.338,513.462 367.685,513.057C368.735,511.826 369.944,510.648 371.318,509.785C374.227,507.957 377.727,507.148 380.987,506.195C381.303,506.102 384.358,505.391 384.209,504.869C384.118,504.548 383.338,504.431 383.09,504.374C381.811,504.081 380.467,504.031 379.161,504.024C373.891,503.997 368.522,505.113 363.639,507.077C362.786,507.42 358.457,509.005 359.637,510.564L366.388,514.945ZM421.15,512.807C421.641,512.118 422.784,511.484 422.557,510.425C422.274,509.11 420.008,508.74 418.988,508.447C415.311,507.388 411.494,506.731 407.738,506.021C406.286,505.746 404.83,505.491 403.389,505.163C403.22,505.124 400.993,504.477 401.05,504.42C401.341,504.132 402.304,504.225 402.657,504.211C404.436,504.141 406.222,504.187 408,504.252C414.256,504.481 420.659,504.961 426.635,506.966C427.506,507.258 428.366,507.591 429.197,507.982C429.687,508.212 430.169,508.465 430.63,508.749C430.985,508.967 431.329,509.208 431.652,509.472C434.562,511.858 428.576,511.674 427.284,511.757C426.688,511.795 426.092,511.832 425.497,511.87L421.15,512.807ZM382.621,499.636C382.69,499.686 382.773,499.718 382.872,499.725L382.621,499.636C382.285,499.39 382.28,498.702 382.305,498.328C382.397,496.962 383.128,495.724 384.019,494.722C387.126,491.225 391.384,488.928 395.793,487.492C403.581,484.957 411.867,484.05 420.021,483.924C423.254,483.874 426.588,484.512 429.797,484.141C430.685,484.039 432.844,483.637 432.23,482.26C431.741,481.161 430.364,480.503 429.327,480.073C426.559,478.925 423.472,478.485 420.508,478.225C407.961,477.126 394.882,479.603 383.793,485.63C380.056,487.661 376.497,490.147 373.573,493.256C373.013,493.851 370.779,495.906 371.644,496.917C372.689,498.137 376.338,497.801 377.769,497.915L382.621,499.636Z"
          style="fill: rgb(56, 25, 57); fill-opacity: 0.5"
        />
      </g>
      <path
        d="M355.836,512.653C356.146,512.415 356.498,511.836 356.834,511.642C358.012,510.96 359.208,510.317 360.459,509.778C364.18,508.172 368.087,507.182 372.091,506.599C379.189,505.565 386.357,506.233 393.495,506.091C402.648,505.908 411.997,504.988 421.123,506.137C424.915,506.615 428.582,507.525 432.227,508.664C432.931,508.884 435.378,509.296 435.706,510.109C435.92,510.64 432.594,510.924 432.391,510.946C427.953,511.429 423.5,511.788 419.053,512.183C401.993,513.697 385.594,514.227 368.542,512.493L355.836,512.653C355.678,512.774 355.531,512.808 355.403,512.659L355.836,512.653ZM373.777,496.056C377.35,495.881 380.912,495.409 384.485,495.173C396.19,494.399 409.612,493.826 420.225,488.504C422.737,487.244 425.888,485.225 428.041,483.417C428.468,483.058 428.697,481.285 428.6,480.587C428.51,479.932 425.692,479.599 425.298,479.517C421.495,478.725 417.559,478.581 413.686,478.67C403.159,478.913 391.086,480.281 382.003,486.069C378.833,488.09 376.291,490.87 373.858,493.696C373.858,493.696 372.578,496.116 373.777,496.056Z"
        style="fill: none; stroke: black; stroke-width: 2.1px"
      />
    </g>
    <path
      d="M362.107,509.194C362.107,509.194 363.283,507.188 363.794,506.592C365.28,504.859 366.868,503.193 368.58,501.681C373.779,497.093 379.27,492.85 385.265,489.351C394.776,483.8 404.062,482.238 414.874,481.737C417.435,481.618 425.389,481.548 425.748,481.912C429.197,485.405 430.202,500.688 432.092,506.154C432.837,508.307 422.598,509.719 416.317,510.881C403.665,513.22 392.19,512.55 379.463,511.613C374.149,511.222 367.287,510.64 362.107,509.194Z"
      style="fill: none; stroke: black; stroke-width: 2.1px"
    />
  </g>
</svg>
