<svg viewBox="0 0 800 800" xmlns="http://www.w3.org/2000/svg">
  <g transform="matrix(0.88685,0,0,0.88685,45.1133,13.2405)">
    <g id="mouth">
      <path
        d="M336.918,545.882C336.667,545.494 337.797,545.597 338.237,545.456C339.11,545.174 339.989,544.909 340.867,544.639C343.56,543.811 346.256,542.989 348.954,542.175C356.955,539.761 364.684,536.942 372.915,535.323C379.095,534.108 385.324,533.383 391.625,533.845C394.279,534.04 397.304,535.374 399.886,535.341C404.348,535.283 408.746,533.562 413.277,533.55C422.283,533.525 431.873,535.88 440.524,538.214C445.976,539.685 451.402,541.338 456.641,543.453C457.848,543.941 459.048,544.447 460.255,544.933C460.428,545.002 461.328,545.233 461.38,545.453C461.391,545.498 459.726,545.372 459.635,545.363C458.544,545.259 457.453,545.146 456.362,545.041C453.163,544.736 449.962,544.48 446.76,544.215C437.07,543.412 427.392,542.936 417.696,542.249C411.365,541.801 405.541,544.67 399.121,544.766C394.268,544.839 389.989,541.892 385.23,541.928C379.685,541.97 374.11,543.309 368.595,543.831C357.833,544.85 347.044,545.609 336.258,546.308"
        style="fill: rgb(66, 31, 67); fill-opacity: 0.5"
      />
      <path
        d="M362.06,565.565C361.989,565.49 362.416,566.254 362.521,566.386C362.942,566.914 363.435,567.375 363.916,567.848C365.363,569.27 367.077,570.43 368.702,571.636C373.784,575.409 378.797,577.941 384.673,580.285C395.13,584.456 405.31,585.784 415.94,581.095C419.958,579.322 423.418,576.76 427.075,574.379C430.279,572.292 433.212,570.048 435.932,567.357C436.427,566.867 438.334,565.384 438.33,564.632C438.328,564.134 436.442,564.908 436.27,564.973C434.024,565.825 431.773,566.647 429.468,567.33C423.313,569.151 417.348,570.824 410.932,571.456C400.967,572.438 390.135,571.822 380.365,569.723C373.659,568.283 367.086,565.432 360.278,564.555"
        style="fill: rgb(66, 31, 67); fill-opacity: 0.5"
      />
      <path
        d="M361.25,564.604C363.564,565.987 367.97,566.452 370.743,567.44C374.858,568.907 391.531,571.923 399.671,572.116C405.69,572.259 420.773,569.815 425.479,568.816C431.178,567.606 433.363,566.185 439.013,564.662"
        style="fill: none; stroke: black; stroke-width: 2.1px"
      />
      <path
        d="M341.447,545.457C341.447,545.458 339.995,546.254 339.471,546.422C338.127,546.854 337.177,547.218 335.852,547.424C335.579,547.466 334.695,547.793 334.775,547.201C335.05,545.187 337.236,545.39 338.707,545.429C342.392,545.527 346.027,545.37 349.703,545.087C356.986,544.524 364.26,543.918 371.516,543.053C376.005,542.518 380.707,541.417 385.247,541.585C388.943,541.721 392.19,543.501 395.804,544.03"
        style="fill: none; stroke: black; stroke-width: 2.1px"
      />
      <g transform="matrix(-1,0,0,1,800.201,0)">
        <path
          d="M341.447,545.457C341.447,545.458 339.995,546.254 339.471,546.422C338.127,546.854 337.177,547.218 335.852,547.424C335.579,547.466 334.695,547.793 334.775,547.201C335.05,545.187 337.236,545.39 338.707,545.429C342.392,545.527 346.027,545.37 349.703,545.087C356.986,544.524 364.26,543.918 371.516,543.053C376.005,542.518 380.707,541.417 385.247,541.585C388.943,541.721 392.19,543.501 395.804,544.03"
          style="fill: none; stroke: black; stroke-width: 2.1px"
        />
      </g>
      <path
        d="M421.393,556.299C422.147,554.97 421.326,553.277 423.045,551.978C425.501,550.123 429.841,551.021 432.601,551.578C433.315,551.722 435.43,551.995 435.624,552.939C435.849,554.033 433.386,554.852 432.697,555.12C429.768,556.257 425.031,557.84 421.89,556.823"
        style="fill: rgb(252, 255, 216); fill-opacity: 0.6"
      />
    </g>
  </g>
</svg>
