<svg
  viewBox="0 0 800 800"
  xmlns="http://www.w3.org/2000/svg"
  style="
    fill-rule: evenodd;
    clip-rule: evenodd;
    stroke-linecap: round;
    stroke-linejoin: round;
    stroke-miterlimit: 1.5;
  "
>
  <g id="mouth-exp-l">
    <path
      d="M350.492,516.85C350.573,518.216 352.911,520.549 353.69,521.574C357.257,526.27 361.671,530.429 366.407,533.926C378.933,543.174 393.003,549.3 410.017,546.626C416.921,545.541 427.697,540.178 433.174,535.907C439.387,531.062 442.703,525.853 446.346,518.892C447.235,517.194 450.379,510.115 449.899,509.978C448.879,509.688 444.406,514.14 443.603,514.566C440.087,516.435 436.46,518.036 432.721,519.403C421.728,523.423 409.858,525.844 398.119,525.097C383.22,524.15 370.371,516.845 355.956,514.298"
      style="fill: rgb(66, 31, 67); fill-opacity: 0.5"
    />
    <path
      d="M348.018,510.732C348.159,510.841 349.143,510.428 349.301,510.376C350.779,509.888 352.222,509.237 353.63,508.579C359.128,506.01 364.193,502.718 369.976,500.77C376.695,498.507 383.512,496.341 390.688,497.017C392.687,497.205 394.731,497.665 396.566,498.496C397.469,498.905 398.812,500.083 399.847,499.972C400.834,499.866 401.826,498.755 402.645,498.265C404.294,497.278 406.081,496.587 407.931,496.079C414.724,494.216 421.735,494.507 428.65,495.421C434.955,496.253 441.219,497.884 447.583,498.213C449.774,498.326 452.009,498.457 454.202,498.358C454.896,498.326 455.637,498.325 456.314,498.148C456.414,498.122 457.327,497.604 457.327,497.815C457.327,498.237 456.88,498.836 456.733,499.236C456.272,500.491 455.879,501.717 455.309,502.937C453.156,507.542 450.589,511.802 447.54,515.866C444.655,519.713 441.506,523.491 437.833,526.62C426.683,536.119 412.315,540.645 397.762,540.185C392.554,540.02 387.064,538.674 382.023,537.42C373.706,535.353 365.976,530.371 359.314,525.128C357.038,523.336 354.54,521.684 352.593,519.527C350.674,517.4 348.623,515.044 347.571,512.348C347.373,511.841 346.409,509.897 347.158,509.492"
      style="fill: rgb(140, 45, 87)"
    />
    <clipPath id="_clip17_miss_mouth">
      <path
        d="M348.018,510.732C348.159,510.841 349.143,510.428 349.301,510.376C350.779,509.888 352.222,509.237 353.63,508.579C359.128,506.01 364.193,502.718 369.976,500.77C376.695,498.507 383.512,496.341 390.688,497.017C392.687,497.205 394.731,497.665 396.566,498.496C397.469,498.905 398.812,500.083 399.847,499.972C400.834,499.866 401.826,498.755 402.645,498.265C404.294,497.278 406.081,496.587 407.931,496.079C414.724,494.216 421.735,494.507 428.65,495.421C434.955,496.253 441.219,497.884 447.583,498.213C449.774,498.326 452.009,498.457 454.202,498.358C454.896,498.326 455.637,498.325 456.314,498.148C456.414,498.122 457.327,497.604 457.327,497.815C457.327,498.237 456.88,498.836 456.733,499.236C456.272,500.491 455.879,501.717 455.309,502.937C453.156,507.542 450.589,511.802 447.54,515.866C444.655,519.713 441.506,523.491 437.833,526.62C426.683,536.119 412.315,540.645 397.762,540.185C392.554,540.02 387.064,538.674 382.023,537.42C373.706,535.353 365.976,530.371 359.314,525.128C357.038,523.336 354.54,521.684 352.593,519.527C350.674,517.4 348.623,515.044 347.571,512.348C347.373,511.841 346.409,509.897 347.158,509.492"
      />
    </clipPath>
    <g clip-path="url(#_clip17_miss_mouth)">
      <path
        d="M368.597,524.019C368.23,523.739 368.094,521.319 368.137,520.941C368.335,519.204 369.186,518.781 370.836,518.148C375.443,516.382 381.756,518.023 386.542,518.312C390.701,518.563 394.854,518.915 398.997,519.351C401.851,519.651 404.834,520.205 407.691,519.669C410.558,519.132 413.084,517.325 415.666,516.074C417.949,514.969 420.356,514.363 422.853,513.965C426.76,513.342 430.903,512.278 434.864,512.221C436.527,512.197 438.501,512.636 438.813,514.525C439.19,516.808 437.669,519.122 436.347,520.828C432.991,525.16 427.975,528.713 422.915,530.752C417.853,532.792 412.758,533.687 407.393,534.447C397.197,535.891 386.332,536.113 377.062,530.804C374.627,529.409 372.45,527.428 370.455,525.468L368.597,524.019ZM349.659,510.703C349.772,510.799 350.469,510.634 350.605,510.616C351.628,510.475 352.652,510.284 353.658,510.05C357.963,509.05 362.148,507.493 366.185,505.721C374.54,502.056 382.722,499.205 391.89,498.54C393.564,498.419 395.217,498.435 396.872,498.735C397.792,498.902 398.905,499.496 399.863,499.407C401.265,499.278 402.703,498.666 404.061,498.318C405.931,497.84 407.841,497.601 409.757,497.388C414.653,496.844 419.642,496.458 424.555,496.965C430.902,497.621 437.048,499.346 443.441,499.625C446.026,499.738 448.579,499.37 451.098,498.809C451.459,498.728 453.613,498.448 453.481,497.821C453.397,497.423 452.767,497.173 452.456,497.019C451.422,496.504 450.321,496.114 449.237,495.72C444.236,493.899 439.102,492.392 433.926,491.16C411.281,485.768 387.996,485.747 365.868,493.503C359.959,495.575 353.037,498.49 350.061,504.427C349.422,505.702 347.385,509.868 349.416,510.928L349.659,510.703Z"
        style="fill: rgb(204, 68, 106)"
      />
      <path
        d="M402.251,522.867C402.348,522.867 402.241,523.062 402.235,523.16C402.225,523.337 402.219,523.515 402.211,523.693C402.188,524.225 402.158,524.758 402.147,525.291C402.135,525.857 401.912,526.956 402.255,527.47C402.455,527.77 402.892,527.767 403.211,527.746C403.997,527.696 405.389,527.747 406.077,527.319C406.387,527.126 406.373,526.579 406.39,526.263C406.439,525.331 406.352,524.391 406.334,523.459C406.329,523.164 406.368,522.645 406.072,522.46C405.424,522.057 403.854,522.564 403.119,522.598L402.251,522.867ZM415.443,519.829C415.435,519.833 415.537,520.289 415.543,520.32C415.643,520.861 415.732,521.404 415.824,521.946C415.983,522.871 416.108,523.804 416.323,524.718C416.388,524.998 416.433,525.473 416.711,525.638C417.123,525.881 417.706,525.556 418.096,525.365C418.709,525.065 418.411,523.651 418.336,523.182C418.175,522.17 417.975,521.013 417.731,520.018C417.651,519.692 417.723,519.272 417.372,519.113C416.971,518.932 416.259,519.245 415.89,519.403L415.443,519.829ZM422.446,524.586C422.4,524.438 422.135,524.327 422.088,524.179C421.946,523.735 421.776,523.197 421.658,522.746C421.403,521.77 421.392,520.856 421.102,519.89C420.956,519.402 420.757,518.855 421.039,518.377C421.59,517.444 424.121,516.617 424.925,517.656C426.282,519.412 425.641,519.047 426.295,518.862C426.932,518.683 426.435,517.441 426.604,516.85C426.691,516.547 427.153,516.294 427.403,516.171C428.067,515.842 429.53,515.231 430.253,515.817C430.547,516.054 430.504,516.887 430.538,517.214C430.667,518.43 431.344,520.149 430.213,521.03C429.934,521.248 428.822,522.033 428.447,521.8C427.222,521.036 427.956,520.18 426.651,520.73C425.98,521.014 426.442,521.314 425.917,523.136C425.67,523.995 423.941,524.321 423.163,524.521L422.446,524.586Z"
        style="fill: rgb(252, 194, 179)"
      />
    </g>
    <path
      d="M349.66,510.169C350.143,510.433 351.886,509.444 352.28,509.272C354.911,508.122 357.418,506.749 359.947,505.395C368.215,500.971 377.782,496.789 387.317,496.633C390.13,496.587 392.911,497.021 395.611,497.793C396.867,498.152 398.685,499.21 400.024,499.111C400.752,499.057 401.697,498.202 402.336,497.892C403.96,497.106 405.642,496.478 407.38,495.995C413.238,494.364 419.64,494.003 425.658,494.818C432.58,495.755 439.4,497.223 446.345,498.051C450.007,498.487 454.231,499.034 457.547,497.021"
      style="fill: none; stroke: black; stroke-width: 2.09px"
    />
    <path
      d="M345.274,508.809C345.173,508.87 347.678,510.378 347.829,510.441C350.662,511.626 353.945,511.949 356.904,512.738C365.232,514.959 373.025,515.805 381.614,515.114C389.09,514.513 396.796,515.875 404.177,514.941C410.602,514.128 416.488,511.116 422.983,510.39C434.326,509.123 448.334,507.328 456.126,497.866"
      style="fill: none; stroke: black; stroke-width: 2.09px"
    />
    <path
      d="M350.649,516.78C350.563,516.856 352.069,518.544 352.136,518.617C353.979,520.594 355.987,522.422 358.07,524.142C366.288,530.932 374.746,535.57 385.082,538.115C404.954,543.008 426.117,538.395 440.853,523.513C445.599,518.72 449.657,512.566 452.636,506.608"
      style="fill: none; stroke: black; stroke-width: 2.09px"
    />
    <path
      d="M382.588,512.825C382.442,512.947 382.97,512.817 383.161,512.826C383.539,512.844 383.917,512.875 384.295,512.902C385.416,512.983 386.535,513.066 387.653,513.183C390.972,513.529 394.273,514.072 397.594,514.386C400.988,514.707 404.412,514.727 407.772,514.087C414.659,512.777 420.913,509.498 427.604,507.572"
      style="fill: none; stroke: black; stroke-width: 1.54px"
    />
    <path
      d="M345.831,508.871C346.288,509.367 346.921,509.715 347.535,509.844C348.226,509.99 348.88,509.857 349.319,509.51C349.807,509.125 350.159,508.442 349.861,507.336C349.771,507.001 349.22,505.808 348.463,505.36C347.03,504.513 345.736,504.728 344.904,505.446C344.101,506.139 343.667,507.394 344.073,508.896C344.204,509.379 344.702,509.665 345.185,509.535C345.517,509.445 345.756,509.183 345.831,508.871Z"
    />
    <path
      d="M456.472,495.392C456.41,495.573 455.989,496.438 455.838,496.749C455.624,496.912 455.498,497.162 455.485,497.424C455.134,497.82 454.839,498.157 454.713,498.308C454.487,498.579 454.453,498.799 454.448,498.827C454.379,499.253 454.572,499.506 454.75,499.66C454.906,499.795 455.118,499.903 455.42,499.878C455.562,499.866 455.896,499.762 456.301,499.483C457.214,498.854 459.043,497.205 459.75,496.08C460.278,495.241 460.573,494.044 460.418,493.02C460.235,491.815 459.509,490.817 457.979,490.633C457.076,490.525 456.54,490.774 456.22,491.092C455.865,491.443 455.699,491.963 455.756,492.604C455.805,493.156 456.034,493.839 456.239,494.469C456.32,494.719 456.396,494.958 456.441,495.171C456.457,495.245 456.468,495.358 456.472,495.392Z"
    />
  </g>
</svg>
