<svg
  viewBox="0 0 800 800"
  xmlns="http://www.w3.org/2000/svg"
  style="
    fill-rule: evenodd;
    clip-rule: evenodd;
    stroke-linecap: round;
    stroke-linejoin: round;
    stroke-miterlimit: 1.5;
  "
>
  <g
    id="Gorgeous-emotions"
    transform="matrix(0.388951,0,0,0.388951,2.34032,2.21244)"
  >
    <g>
      <path
        d="M956.151,1331.08C955.977,1331.1 955.105,1330.58 955.244,1330.38C955.766,1329.64 957.951,1329.11 958.727,1328.67C961.269,1327.22 963.625,1325.45 966.072,1323.86C973.25,1319.18 981.566,1315.83 989.3,1312.17C994.633,1309.64 1000.23,1305.94 1006.09,1304.76C1011.42,1303.69 1017.28,1304.55 1022.67,1304.65C1030.35,1304.81 1038.03,1304.44 1045.69,1304.07C1053.78,1303.67 1061.04,1300.21 1069.15,1301.4C1076.34,1302.45 1081.24,1308.76 1087.05,1312.51C1087.83,1313.01 1093.34,1315.75 1093.36,1316.86C1093.4,1318.56 1089.19,1319.93 1088.11,1320.45C1082.31,1323.23 1076.36,1325.65 1070.55,1328.39C1066.2,1330.44 1061.87,1332.48 1057.93,1335.27C1053.36,1338.49 1050.03,1342.25 1044.19,1343.03C1035.92,1344.13 1026.96,1336.77 1019.4,1334.13C1011.65,1331.41 1002.68,1331.97 994.626,1331.32C983.867,1330.45 973.708,1329.82 962.963,1331.17C960.322,1331.51 957.697,1332.04 955.049,1332.31C954.584,1332.36 952.896,1332.69 952.525,1332.27C952.201,1331.9 954.362,1330.65 954.543,1330.54"
        style="fill: white"
      />
      <clipPath id="_clip7_miss_annoyed_mouth">
        <path
          d="M956.151,1331.08C955.977,1331.1 955.105,1330.58 955.244,1330.38C955.766,1329.64 957.951,1329.11 958.727,1328.67C961.269,1327.22 963.625,1325.45 966.072,1323.86C973.25,1319.18 981.566,1315.83 989.3,1312.17C994.633,1309.64 1000.23,1305.94 1006.09,1304.76C1011.42,1303.69 1017.28,1304.55 1022.67,1304.65C1030.35,1304.81 1038.03,1304.44 1045.69,1304.07C1053.78,1303.67 1061.04,1300.21 1069.15,1301.4C1076.34,1302.45 1081.24,1308.76 1087.05,1312.51C1087.83,1313.01 1093.34,1315.75 1093.36,1316.86C1093.4,1318.56 1089.19,1319.93 1088.11,1320.45C1082.31,1323.23 1076.36,1325.65 1070.55,1328.39C1066.2,1330.44 1061.87,1332.48 1057.93,1335.27C1053.36,1338.49 1050.03,1342.25 1044.19,1343.03C1035.92,1344.13 1026.96,1336.77 1019.4,1334.13C1011.65,1331.41 1002.68,1331.97 994.626,1331.32C983.867,1330.45 973.708,1329.82 962.963,1331.17C960.322,1331.51 957.697,1332.04 955.049,1332.31C954.584,1332.36 952.896,1332.69 952.525,1332.27C952.201,1331.9 954.362,1330.65 954.543,1330.54"
        />
      </clipPath>
      <g clip-path="url(#_clip7_miss_annoyed_mouth)">
        <path
          d="M1000.5,1331.45C1002.12,1331.21 991.79,1326.56 991.871,1326.24C992.271,1324.66 994.13,1323.25 995.191,1322.14C998.219,1318.96 1001.45,1314.98 1005.57,1313.15C1009.64,1311.35 1013.74,1312.3 1018,1312.22C1027.09,1312.05 1036.13,1312.73 1045.17,1311.35C1049.05,1310.76 1052.95,1309.86 1056.69,1308.68C1059.15,1307.91 1061.61,1306.49 1064.28,1306.94C1066.84,1307.37 1071.11,1311.17 1072.97,1312.91C1073.76,1313.66 1075.23,1314.8 1074.54,1315.97C1072.82,1318.89 1054.61,1330.72 1047.66,1334.34C1046.01,1335.19 1037.9,1339.25 1040.24,1342.05C1042.02,1344.19 1046.35,1342.3 1048.2,1341.28C1054.85,1337.63 1060.96,1333.02 1067.8,1329.72C1074.16,1326.66 1080.72,1324.66 1087.29,1322.19C1088.12,1321.87 1093.4,1320.35 1093.32,1319.01C1093.11,1315.71 1086.27,1312.34 1084,1310.93C1080.73,1308.9 1077.49,1306.74 1074.35,1304.52C1072.57,1303.27 1071.1,1301.54 1068.89,1301.09C1064.54,1300.19 1059.22,1302.52 1055.07,1303.62C1048.23,1305.43 1039.91,1306.25 1032.86,1305.94C1024.02,1305.56 1015.58,1303.86 1006.69,1305.42C994.338,1307.58 985.196,1316.17 974.397,1321.88C969.514,1324.45 964.17,1326.11 959.407,1328.92C957.943,1329.79 955.894,1332.44 956.045,1332.44C957.203,1332.47 993.035,1332.55 1000.5,1331.45Z"
          style="fill: rgb(56, 25, 57); fill-opacity: 0.5"
        />
      </g>
      <path
        d="M1132.25,1320.37C1128.69,1322.67 1126.4,1326.84 1125.03,1331.2C1120.36,1346.12 1116.31,1360.14 1107.52,1373.43C1103.48,1379.55 1097.85,1386.48 1091.8,1390.77C1086.88,1394.24 1081,1396.14 1075.43,1398.26C1070.49,1400.13 1065.5,1402.77 1060.34,1404C1051.88,1406.02 1042.32,1406.52 1033.67,1407.25C1016.42,1408.71 996.368,1403.2 981.376,1394.86C977.625,1392.77 975.049,1389.18 971.316,1387.02C960.074,1380.52 938.91,1365.32 938.897,1365.31C938.748,1365.48 929.463,1360.13 925.629,1355.67C922.334,1351.83 918.012,1348.77 913.535,1346.46C910.012,1344.64 906.603,1342.55 902.552,1343.75C902.42,1343.68 901.604,1343.67 901.235,1343.98C900.469,1344.62 899.817,1345.68 899.527,1346.64C898.78,1349.11 900.032,1351.18 902.351,1352.19C905.301,1353.48 908.812,1352.33 911.359,1350.65C911.984,1350.23 913.876,1347.41 914.539,1347.78C916.47,1348.84 918.039,1351.43 919.404,1353.13C921.277,1355.47 934.899,1370.26 950.482,1383.38C965.278,1395.83 981.987,1406.62 986.752,1409.34C996.159,1414.71 1004.62,1420.49 1015.6,1422.02C1025.74,1423.43 1064.45,1422.79 1078.7,1414.6C1083.25,1411.99 1086.78,1406.34 1090.14,1402.31C1096.16,1395.1 1102.93,1386.06 1107.86,1378.1C1112.65,1370.38 1115.03,1363.57 1118.95,1355.38C1121.01,1351.06 1123.27,1346.75 1125.05,1342.31C1127.01,1337.4 1128.99,1331.41 1132.51,1327.32C1133.58,1326.07 1135.62,1328.47 1136.63,1328.91C1138.73,1329.84 1141.65,1328.83 1143.08,1327.17C1143.51,1326.67 1146.45,1325.43 1145.54,1323.06C1144.22,1319.64 1140.83,1318.23 1137.87,1318.54C1135.71,1318.67 1133.85,1319.33 1132.25,1320.37"
        style="fill: rgb(56, 25, 57); fill-opacity: 0.5"
      />
      <path
        d="M909.622,1343.88C909.622,1343.88 980.751,1267.06 999.558,1264.98C1018.37,1262.89 1021.22,1270.51 1032.94,1268.34C1051.61,1264.87 1070.09,1255.77 1085.67,1258.25C1099.31,1260.42 1127.43,1310.22 1133.59,1321.67C1131.27,1325.75 1126.93,1342.73 1116.83,1360.01C1104.53,1381.04 1086.53,1398.09 1077.92,1401.39C1060.22,1408.18 1015.17,1411.61 1005.06,1407.49C997.637,1404.46 978.447,1393.45 958.031,1379.45C933.561,1362.67 909.622,1343.88 909.622,1343.88ZM944.182,1333.17C942.886,1333.33 964.783,1327.15 983.719,1315.93C993.233,1310.3 1000.46,1305.13 1011.5,1304.32C1024.65,1303.36 1037.5,1306.57 1050.67,1304.24C1055.55,1303.37 1063.9,1299.35 1068.77,1300.26C1072.66,1300.99 1081.93,1308.39 1085.65,1311.12C1086.77,1311.94 1095.76,1318.61 1095.76,1318.61C1095.76,1318.61 1092.2,1319.04 1086.76,1320.52C1080.13,1322.32 1073.62,1325.59 1067.55,1328.84C1061.95,1331.83 1047.53,1343.27 1044.42,1343.65C1040.56,1344.12 1029.53,1335.35 1011.44,1333.17C997.51,1331.5 982.809,1331.43 968.923,1331.65C963.086,1331.75 949.963,1332.48 944.182,1333.17Z"
        style="fill: rgb(205, 68, 108)"
      />
      <clipPath id="_clip8_miss_annoyed_mouth">
        <path
          d="M909.622,1343.88C909.622,1343.88 980.751,1267.06 999.558,1264.98C1018.37,1262.89 1021.22,1270.51 1032.94,1268.34C1051.61,1264.87 1070.09,1255.77 1085.67,1258.25C1099.31,1260.42 1127.43,1310.22 1133.59,1321.67C1131.27,1325.75 1126.93,1342.73 1116.83,1360.01C1104.53,1381.04 1086.53,1398.09 1077.92,1401.39C1060.22,1408.18 1015.17,1411.61 1005.06,1407.49C997.637,1404.46 978.447,1393.45 958.031,1379.45C933.561,1362.67 909.622,1343.88 909.622,1343.88ZM944.182,1333.17C942.886,1333.33 964.783,1327.15 983.719,1315.93C993.233,1310.3 1000.46,1305.13 1011.5,1304.32C1024.65,1303.36 1037.5,1306.57 1050.67,1304.24C1055.55,1303.37 1063.9,1299.35 1068.77,1300.26C1072.66,1300.99 1081.93,1308.39 1085.65,1311.12C1086.77,1311.94 1095.76,1318.61 1095.76,1318.61C1095.76,1318.61 1092.2,1319.04 1086.76,1320.52C1080.13,1322.32 1073.62,1325.59 1067.55,1328.84C1061.95,1331.83 1047.53,1343.27 1044.42,1343.65C1040.56,1344.12 1029.53,1335.35 1011.44,1333.17C997.51,1331.5 982.809,1331.43 968.923,1331.65C963.086,1331.75 949.963,1332.48 944.182,1333.17Z"
        />
      </clipPath>
      <g clip-path="url(#_clip8_miss_annoyed_mouth)">
        <path
          d="M920.653,1335.21C920.885,1334.98 921.081,1334.81 921.113,1334.79C923.058,1333.2 925.256,1331.93 927.246,1330.39C932.485,1326.36 937.353,1321.91 942.36,1317.61C957.408,1304.66 973.459,1293.01 988.894,1280.58C995.67,1275.12 1004.98,1271.96 1013.7,1272.06C1021.91,1272.15 1029.81,1274.25 1038.17,1273.94C1047.05,1273.62 1055.78,1271.06 1064.39,1269.03C1069.38,1267.86 1074.52,1266.46 1079.67,1267.14C1088.82,1268.35 1095.52,1274.77 1101.06,1281.67C1108.53,1290.97 1115.12,1300.76 1122.28,1310.31C1124.36,1313.09 1127.26,1316.02 1130.23,1317.84C1130.81,1318.2 1134.66,1319.31 1134.87,1319.74C1135.08,1320.16 1133.07,1321.95 1132.87,1322.2C1131.06,1324.61 1129.57,1327.85 1128.38,1330.61C1126.26,1335.55 1124.15,1340.57 1122.64,1345.73C1121.73,1348.85 1121.35,1352.31 1119.97,1355.27C1117.9,1359.72 1114.25,1363.23 1111.53,1367.27C1103.84,1378.67 1094.88,1390.16 1082.88,1397.48C1073.94,1402.92 1064.45,1404.39 1054.28,1405.73C1045.78,1406.86 1037.55,1407.83 1028.95,1407.66C1024.21,1407.57 1019.57,1408.49 1014.85,1408.31C1010.61,1408.14 1005.31,1406.6 1001.24,1405.27C997.051,1403.91 993.957,1400.96 990.259,1398.73C982.207,1393.87 974.383,1388.57 965.936,1384.42C960.932,1381.96 957.364,1378.36 952.832,1375.34C948.214,1372.26 942.967,1370.29 938.455,1367C933.229,1363.19 929.039,1357.89 924.387,1353.43C921.361,1350.52 918.415,1347.99 915.562,1344.96C914.737,1344.08 912.83,1342.31 912.987,1340.98C913.066,1340.32 914.473,1339.5 914.935,1339.13C917.032,1337.45 919.111,1335.78 921.154,1334.03L920.653,1335.21C920.113,1335.74 919.383,1336.57 920.091,1336.54L920.653,1335.21ZM1059.6,1350.72C1059.62,1350.78 1058.37,1355.42 1058.38,1355.41C1058.63,1355.02 1060.49,1349.38 1060.79,1349.03C1061.7,1347.95 1062.68,1346.9 1063.66,1345.9C1066.66,1342.86 1070.06,1340.58 1073.52,1338.12C1081.15,1332.68 1091.62,1329.1 1101.06,1329.27C1105.09,1329.35 1110.24,1330.17 1112.53,1333.88C1114.78,1337.54 1113.34,1341.43 1112.04,1345.08C1109.09,1353.33 1104.89,1358.85 1100.08,1366C1095.8,1372.35 1089.98,1379.1 1084.44,1384.39C1081.89,1386.83 1079.23,1388.8 1075.66,1389.59C1064.45,1392.09 1051.05,1386.91 1039.85,1388.68C1024.96,1391.04 1013.33,1397.16 999.495,1392.05C997.973,1391.49 988.174,1387.88 978.582,1381.51C966.58,1373.54 954.351,1362.38 952.737,1360.39C950.783,1357.99 947.375,1354.91 948,1351.42C948.76,1347.16 954.243,1344.72 957.679,1343.14C960.324,1341.92 966.13,1339.55 980.261,1340.16C1006.5,1341.29 1035.42,1341.63 1058.38,1355.41L1059.6,1350.72Z"
          style="fill: rgb(142, 43, 87)"
        />
        <g transform="matrix(2.57102,0,0,2.57102,-6.01701,-5.68822)">
          <path
            d="M395.928,531.601C395.329,531.437 395.511,532.597 395.511,533.174C395.511,533.856 395.293,534.727 395.501,535.391C395.799,536.34 397.401,536.808 398.258,536.399C398.909,536.088 398.941,535.217 399.029,534.599C399.306,532.665 399.295,531.887 397.305,531.415C396.816,531.299 396.31,531.224 395.865,531.522L395.928,531.601ZM392.358,531.992C392.314,531.936 391.955,532.89 391.924,533.011C391.731,533.75 391.652,535.325 392.819,535.18C394.25,535.001 394.154,531.242 392.56,532.049L392.358,531.992ZM419.026,533.423C419.096,533.526 418.943,533.187 418.899,533.071C418.805,532.821 418.77,532.566 418.76,532.3C418.736,531.668 419.044,530.278 420.008,530.619C420.621,530.836 420.882,533.416 420.568,533.885C420.059,534.646 419.103,533.935 418.92,533.28L419.026,533.423ZM423.145,528.898C423.032,528.748 424.009,528.44 424.597,528.073C424.779,527.959 426.264,526.688 426.489,526.962C426.78,527.317 426.801,527.969 426.895,528.405C427.318,530.358 427.204,530.981 425.493,532.064C425.198,532.25 424.346,532.938 423.951,532.812C423.716,532.738 423.805,531.871 423.79,531.7C423.708,530.817 423.401,529.702 422.861,528.982L423.145,528.898ZM386.399,530.793C386.491,530.993 385.894,530.802 385.767,530.981C385.541,531.299 385.429,531.958 385.895,532.13C386.854,532.483 387.914,530.843 386.431,530.842L386.399,530.793ZM427.368,526.118C427.266,526.086 427.518,527.005 427.555,527.171C427.604,527.387 428.047,529.824 428.577,529.595C429.294,529.284 428.999,526.853 428.787,526.314C428.589,525.809 428.063,525.548 427.689,526.058L427.368,526.118Z"
            style="fill: rgb(252, 196, 181)"
          />
        </g>
        <path
          d="M911.408,1342.52C910.63,1342 915.165,1340.79 915.692,1340.6C918.936,1339.42 922.207,1338.4 925.552,1337.54C932.153,1335.86 938.796,1334.04 945.478,1332.71"
          style="fill: none; stroke: black; stroke-width: 5.4px"
        />
        <path
          d="M1093.85,1318.78C1096.3,1318.81 1122.15,1318.72 1131.07,1320.24C1133.55,1320.66 1136.03,1321.1 1138.46,1321.76C1139.16,1321.95 1140.55,1322.12 1141.11,1322.68"
          style="fill: none; stroke: black; stroke-width: 5.4px"
        />
        <path
          d="M1063.26,1300.5C1071.01,1298.75 1078.63,1296.32 1086.58,1295.56C1088.69,1295.36 1092.66,1295.2 1094.76,1295.5"
          style="fill: none; stroke: black; stroke-width: 5.4px"
        />
        <path
          d="M1043.63,1343.79C1043.65,1343.86 1044.77,1344.19 1044.89,1344.24C1046.12,1344.75 1047.31,1345.34 1048.49,1345.95C1051.79,1347.64 1055,1349.59 1058.02,1351.75C1059.19,1352.59 1060.31,1354.02 1061.54,1354.71"
          style="fill: none; stroke: black; stroke-width: 5.4px"
        />
      </g>
      <path
        d="M909.622,1343.88C909.622,1343.88 980.751,1267.06 999.558,1264.98C1018.37,1262.89 1021.22,1270.51 1032.94,1268.34C1051.61,1264.87 1070.09,1255.77 1085.67,1258.25C1099.31,1260.42 1127.43,1310.22 1133.59,1321.67C1131.27,1325.75 1126.93,1342.73 1116.83,1360.01C1104.53,1381.04 1086.53,1398.09 1077.92,1401.39C1060.22,1408.18 1015.17,1411.61 1005.06,1407.49C997.637,1404.46 978.447,1393.45 958.031,1379.45C933.561,1362.67 909.622,1343.88 909.622,1343.88ZM944.182,1333.17C942.886,1333.33 964.783,1327.15 983.719,1315.93C993.233,1310.3 1000.46,1305.13 1011.5,1304.32C1024.65,1303.36 1037.5,1306.57 1050.67,1304.24C1055.55,1303.37 1063.9,1299.35 1068.77,1300.26C1072.66,1300.99 1081.93,1308.39 1085.65,1311.12C1086.77,1311.94 1095.76,1318.61 1095.76,1318.61C1095.76,1318.61 1092.2,1319.04 1086.76,1320.52C1080.13,1322.32 1073.62,1325.59 1067.55,1328.84C1061.95,1331.83 1047.53,1343.27 1044.42,1343.65C1040.56,1344.12 1029.53,1335.35 1011.44,1333.17C997.51,1331.5 982.809,1331.43 968.923,1331.65C963.086,1331.75 949.963,1332.48 944.182,1333.17Z"
        style="fill: none; stroke: black; stroke-width: 5.4px"
      />
      <g transform="matrix(2.57102,0,0,2.57102,-6.01701,-5.68822)">
        <path
          d="M358.565,522.638C358.734,522.143 356.584,522.28 356.362,522.295C355.064,522.379 353.328,522.501 352.348,523.471C351.113,524.693 351.893,526.375 353.62,526.316C354.289,526.293 354.958,526.26 355.626,526.229C356.611,526.183 357.291,525.615 358.171,525.351L358.565,522.638ZM443.064,515.441C443.011,515.007 444.289,514.92 444.642,514.837C445.89,514.545 448.614,513.929 449.007,515.692C449.375,517.347 447.889,517.86 446.533,517.923C444.599,518.013 443.182,517.366 442.522,515.493L443.064,515.441Z"
        />
      </g>
    </g>
  </g>
</svg>
