<svg width="800px" height="800px" viewBox="0 0 800 800" version="2.0"
  xmlns="http://www.w3.org/2000/svg" style="fill-rule: evenodd; clip-rule: evenodd; stroke-linecap: round; stroke-linejoin: round; stroke-miterlimit: 1.5">
  <g id="normal-card">
    <rect id="bg" x="-48.418" y="-9.957" width="931.967" height="871.066" style="fill: rgb(6, 46, 66)" />
    <g id="rectangles" transform="matrix(1,0,0,1,49.4291,64.1339)">
      <g opacity="0.5">
        <g transform="matrix(0.660629,0,0,1.04551,351.522,-81.058)">
          <rect x="462.47" y="633.282" width="419.335" height="322.449" style="fill: none" />
          <clipPath id="_clip1_card_template">
            <rect x="462.47" y="633.282" width="419.335" height="322.449" />
          </clipPath>
          <g clip-path="url(#_clip1_card_template)">
            <g transform="matrix(1.51371,0,0,0.956468,-452.99,37.369)">
              <path d="M604.78,633.282L877.032,634.306" style="fill: none; stroke: rgb(166, 240, 98); stroke-width: 4px; stroke-dasharray: 4.25, 7.5, 0, 0" />
            </g>
            <g transform="matrix(1.51371,0,0,0.956468,-452.99,58.0423)">
              <path d="M604.78,633.282L877.032,634.306" style="fill: none; stroke: rgb(166, 240, 98); stroke-width: 4px; stroke-dasharray: 4.25, 7.5, 0, 0" />
            </g>
            <g transform="matrix(1.51371,0,0,0.956468,-452.99,68.3789)">
              <path d="M604.78,633.282L877.032,634.306" style="fill: none; stroke: rgb(166, 240, 98); stroke-width: 4px; stroke-dasharray: 4.25, 7.5, 0, 0" />
            </g>
            <g transform="matrix(1.51371,0,0,0.956468,-452.99,89.0522)">
              <path d="M604.78,633.282L877.032,634.306" style="fill: none; stroke: rgb(166, 240, 98); stroke-width: 4px; stroke-dasharray: 4.25, 7.5, 0, 0" />
            </g>
            <g transform="matrix(1.51371,0,0,0.956468,-452.99,99.3888)">
              <path d="M604.78,633.282L877.032,634.306" style="fill: none; stroke: rgb(166, 240, 98); stroke-width: 4px; stroke-dasharray: 4.25, 7.5, 0, 0" />
            </g>
            <g transform="matrix(1.51371,0,0,0.956468,-452.99,130.399)">
              <path d="M604.78,633.282L877.032,634.306" style="fill: none; stroke: rgb(166, 240, 98); stroke-width: 4px; stroke-dasharray: 4.25, 7.5, 0, 0" />
            </g>
            <g transform="matrix(1.51371,0,0,0.956468,-452.99,151.072)">
              <path d="M604.78,633.282L877.032,634.306" style="fill: none; stroke: rgb(166, 240, 98); stroke-width: 4px; stroke-dasharray: 4.25, 7.5, 0, 0" />
            </g>
            <g transform="matrix(1.51371,0,0,0.956468,-452.99,171.745)">
              <path d="M604.78,633.282L877.032,634.306" style="fill: none; stroke: rgb(166, 240, 98); stroke-width: 4px; stroke-dasharray: 4.25, 7.5, 0, 0" />
            </g>
          </g>
          <rect x="462.47" y="633.282" width="419.335" height="322.449" style="fill: none; stroke: rgb(166, 240, 98); stroke-width: 4.57px; stroke-dasharray: 4.86, 8.58, 0, 0" />
        </g>
        <g transform="matrix(0.192707,0,0,1.04551,466.744,2.40586)">
          <rect x="462.47" y="633.282" width="419.335" height="322.449" style="fill: none" />
          <clipPath id="_clip2_card_template">
            <rect x="462.47" y="633.282" width="419.335" height="322.449" />
          </clipPath>
          <g clip-path="url(#_clip2_card_template)">
            <g transform="matrix(1.51371,0,0,0.956468,-452.99,37.369)">
              <path d="M604.78,633.282L877.032,634.306" style="fill: none; stroke: rgb(237, 30, 121); stroke-width: 5.43px; stroke-dasharray: 5.77, 10.18, 0, 0" />
            </g>
            <g transform="matrix(1.51371,0,0,0.956468,-452.99,58.0423)">
              <path d="M604.78,633.282L877.032,634.306" style="fill: none; stroke: rgb(237, 30, 121); stroke-width: 5.43px; stroke-dasharray: 5.77, 10.18, 0, 0" />
            </g>
            <g transform="matrix(1.51371,0,0,0.956468,-452.99,68.3789)">
              <path d="M604.78,633.282L877.032,634.306" style="fill: none; stroke: rgb(237, 30, 121); stroke-width: 5.43px; stroke-dasharray: 5.77, 10.18, 0, 0" />
            </g>
            <g transform="matrix(1.51371,0,0,0.956468,-452.99,89.0522)">
              <path d="M604.78,633.282L877.032,634.306" style="fill: none; stroke: rgb(237, 30, 121); stroke-width: 5.43px; stroke-dasharray: 5.77, 10.18, 0, 0" />
            </g>
          </g>
          <rect x="462.47" y="633.282" width="419.335" height="322.449" style="fill: none; stroke: rgb(237, 30, 121); stroke-width: 5.32px; stroke-dasharray: 5.65, 9.98, 0, 0" />
        </g>
      </g>
    </g>
    <g id="circles" opacity="0.5">
      <g transform="matrix(1,0,0,1,-118.853,-94.5905)">
        <circle cx="155.124" cy="124.814" r="124.814" style="fill: none; stroke: rgb(255, 207, 0); stroke-width: 4px; stroke-dasharray: 4.25, 7.5, 0, 0" />
      </g>
      <g transform="matrix(0.928318,0,0,0.928318,-107.734,-85.6437)">
        <circle cx="155.124" cy="124.814" r="124.814" style="fill: none; stroke: rgb(255, 207, 0); stroke-width: 4.31px; stroke-dasharray: 4.58, 8.08, 0, 0" />
      </g>
      <g transform="matrix(0.691272,0,0,0.691272,-70.9623,-56.0571)">
        <circle cx="155.124" cy="124.814" r="124.814" style="fill: none; stroke: rgb(255, 108, 0); stroke-width: 5.79px; stroke-dasharray: 6.15, 10.85, 0, 0" />
      </g>
    </g>
    <g id="rarity-bars" transform="matrix(0.86723,0,0,0.86723,10.4494,88.5493)">
      <g id="rarity-bars-fill">
        <g transform="matrix(0.114833,0,0,0.114833,59.0756,653.445)">
          <path d="M400,117.517L629.266,249.774L629.266,514.685L400.192,646.941L400.192,647.052L400.096,646.997L400,647.052L400,646.941L170.925,514.685L170.925,249.774L400,117.517Z" style="fill: rgb(139, 57, 219)" />
        </g>
      </g>
      <g id="rarity-bars-stroke">
        <g transform="matrix(0.114833,0,0,0.114833,59.0756,653.445)">
          <path d="M400,117.517L629.266,249.774L629.266,514.685L400.192,646.941L400.192,647.052L400.096,646.997L400,647.052L400,646.941L170.925,514.685L170.925,249.774L400,117.517Z" style="fill: none; stroke: white; stroke-width: 34.83px" />
        </g>
        <g transform="matrix(0.114833,0,0,0.114833,126.648,653.445)">
          <path d="M400,117.517L629.266,249.774L629.266,514.685L400.192,646.941L400.192,647.052L400.096,646.997L400,647.052L400,646.941L170.925,514.685L170.925,249.774L400,117.517Z" style="fill: none; stroke: white; stroke-width: 34.83px" />
        </g>
        <g transform="matrix(0.114833,0,0,0.114833,194.22,653.445)">
          <path d="M400,117.517L629.266,249.774L629.266,514.685L400.192,646.941L400.192,647.052L400.096,646.997L400,647.052L400,646.941L170.925,514.685L170.925,249.774L400,117.517Z" style="fill: none; stroke: white; stroke-width: 34.83px" />
        </g>
        <g transform="matrix(0.114833,0,0,0.114833,261.792,653.445)">
          <path d="M400,117.517L629.266,249.774L629.266,514.685L400.192,646.941L400.192,647.052L400.096,646.997L400,647.052L400,646.941L170.925,514.685L170.925,249.774L400,117.517Z" style="fill: none; stroke: white; stroke-width: 34.83px" />
        </g>
        <g transform="matrix(0.114833,0,0,0.114833,329.364,653.445)">
          <path d="M400,117.517L629.266,249.774L629.266,514.685L400.192,646.941L400.192,647.052L400.096,646.997L400,647.052L400,646.941L170.925,514.685L170.925,249.774L400,117.517Z" style="fill: none; stroke: white; stroke-width: 34.83px" />
        </g>
      </g>
    </g>
    <g transform="matrix(0.720342,0,0,0.720342,23.1337,330.63)">
      <text x="77.471px" y="439.84px" style="font-family: 'Futura-Medium', 'Futura', sans-serif; font-weight: 500; font-size: 50px; fill: white">RARITY</text>
    </g>
    <g transform="matrix(0.911866,0,0,0.911866,252.534,309.097)">
      <text x="190.763px" y="439.84px" style="font-family: 'Futura-Medium', 'Futura', sans-serif; font-weight: 500; font-size: 50px; fill: white" id="wear_value"></text>
    </g>
    <g transform="matrix(0.720342,0,0,0.720342,340.614,330.63)">
      <text x="77.471px" y="439.84px" style="font-family: 'Futura-Medium', 'Futura', sans-serif; font-weight: 500; font-size: 50px; fill: white">WEAR</text>
    </g>
    <g id="hat" transform="matrix(1.10125,0,0,1.10125,158.833,-78.5692)">
      <g transform="matrix(1,0,0,1,-51.9094,-2.83465)">
        <path d="M474.461,710.793C485.268,715.724 523.434,714.96 530.456,710.765" style="fill: none; stroke: white; stroke-width: 3px; stroke-linecap: butt" />
      </g>
      <g transform="matrix(1,0,0,0.58812,-0.101996,292.708)">
        <rect x="433.636" y="663.946" width="33.608" height="46.716" style="fill: white" />
      </g>
    </g>
    <g transform="matrix(0.720342,0,0,0.720342,520.614,330.63)">
      <text x="124.102px" y="439.84px" style="font-family: 'Futura-Medium', 'Futura', sans-serif; font-weight: 500; font-size: 50px; fill: white">SLOT</text>
    </g>
    <g transform="matrix(1,0,0,1,-7.69409,0)">
      <path d="M82.194,602.738L733.196,602.258C733.979,602.258 734.615,601.621 734.614,600.838C734.614,600.055 733.977,599.42 733.194,599.42L82.192,599.9C81.409,599.901 80.773,600.537 80.774,601.321C80.775,602.104 81.411,602.739 82.194,602.738Z" style="fill: white" />
    </g>
    <g transform="matrix(1,0,0,1,120.441,145.046)">
      <text x="125.471px" y="439.84px" style="font-family: 'Futura-Medium', 'Futura', sans-serif; font-weight: 500; font-size: 50px; fill: white">SHINOBI HAT</text>
    </g>
    <path id="border" d="M800,801.235L800,-4.106L-0,-4.106L0,801.235L800,801.235ZM260.875,30.644L30.644,30.644C30.644,30.644 30.644,769.356 30.644,769.356C30.644,769.356 769.356,769.356 769.356,769.356L769.356,30.644L539.125,30.644L539.125,61.806L260.875,61.806L260.875,30.644Z" style="fill: rgb(0, 153, 197)" />
    <g id="guide" transform="matrix(1,0,0,1.04284,1.75676,-22.4672)">
      <rect x="82.193" y="95.569" width="632.101" height="428.927" style="fill: url(#_Linear3_card_template); stroke: rgb(0, 153, 197); stroke-width: 4.8px" />
    </g>
    <g transform="translate(215,100)">
      <g transform="scale(0.45)" style="fill-rule: evenodd; clip-rule: evenodd; stroke-linecap: round; stroke-linejoin: round; stroke-miterlimit: 1.5">
        <g id="accessories-back">
          <g id="shinobi-hat-back">
            <path d="M181.032,254.372C177.414,262.055 182.422,278.747 183.21,286.608C185.838,312.827 188.578,339.03 190.861,365.282C194.433,406.367 184.383,558.535 196.186,598.055C199.803,610.166 200.066,884.932 199.482,878.541C198.63,869.22 266.771,881.434 275.586,880.207C332.794,872.243 396.307,882.279 454.035,880.059C498.974,878.33 550.858,892.515 595.78,894.601C601.796,894.88 615.171,627.789 619.491,624.436C626.627,618.898 624.617,598.353 624.969,590.941C626.438,559.98 634.906,419.33 635.833,388.345C636.769,357.06 642.654,268.598 630.176,241.702C620.056,219.89 592.78,206.106 572.574,195.625C509.654,162.985 250.959,245.588 181.032,254.372Z" style="fill: rgb(139, 131, 152)" />
            <clipPath id="_clip1_shinobi_hat">
              <path d="M181.032,254.372C177.414,262.055 182.422,278.747 183.21,286.608C185.838,312.827 188.578,339.03 190.861,365.282C194.433,406.367 184.383,558.535 196.186,598.055C199.803,610.166 200.066,884.932 199.482,878.541C198.63,869.22 266.771,881.434 275.586,880.207C332.794,872.243 396.307,882.279 454.035,880.059C498.974,878.33 550.858,892.515 595.78,894.601C601.796,894.88 615.171,627.789 619.491,624.436C626.627,618.898 624.617,598.353 624.969,590.941C626.438,559.98 634.906,419.33 635.833,388.345C636.769,357.06 642.654,268.598 630.176,241.702C620.056,219.89 592.78,206.106 572.574,195.625C509.654,162.985 250.959,245.588 181.032,254.372Z" />
            </clipPath>
            <g clip-path="url(#_clip1_shinobi_hat)">
              <path d="M248.015,279.135C243.172,301.549 249.096,353.605 249.665,377.818C251.388,451.173 258.921,781.276 257.028,854.608" style="fill: none; stroke: black; stroke-width: 2.1px" />
              <path d="M544.11,309.575C544.1,309.562 544.08,310.03 544.079,310.046C543.859,313.949 543.695,317.851 543.578,321.759C543.343,329.616 543.273,337.475 543.266,345.335C543.246,370.304 543.361,395.276 543.579,420.243C544.212,492.811 548.022,789.91 550.879,862.417" style="fill: none; stroke: black; stroke-width: 2.1px" />
            </g>
            <path d="M696.286,296.397C696.286,296.397 709.029,654.82 708.601,661.56C708.174,668.299 729.981,829.982 729.981,829.982L785.701,871.401L760.085,568.813C760.085,568.813 748.117,331.466 746.786,310.171C745.455,288.875 696.286,296.397 696.286,296.397Z" style="fill: rgb(213, 230, 237)" />
            <clipPath id="_clip2_shinobi_hat">
              <path d="M696.286,296.397C696.286,296.397 709.029,654.82 708.601,661.56C708.174,668.299 729.981,829.982 729.981,829.982L785.701,871.401L760.085,568.813C760.085,568.813 748.117,331.466 746.786,310.171C745.455,288.875 696.286,296.397 696.286,296.397Z" />
            </clipPath>
            <g clip-path="url(#_clip2_shinobi_hat)">
              <path d="M703.028,762.094C701.897,761.086 700.992,744.174 700.793,742.154C698.806,721.95 696.957,701.724 695.544,681.47C689.911,600.719 698.631,520.082 696.538,439.333C695.692,406.708 694.517,374.102 691.316,341.607C688.868,316.755 684.774,292.113 682.154,267.29C680.709,253.594 678.772,239.03 680.633,225.288C681.185,221.207 682.539,213.269 687.688,212.356C691.083,211.753 694.023,214.638 696.231,216.788C701.878,222.287 707.321,228.146 711.686,234.735C718.892,245.614 716.994,262.271 717.697,274.694C718.745,293.231 723.901,310.632 725.59,328.913C727.178,346.101 727.182,364.174 726.287,381.397C725.9,388.846 726.58,396.656 724.456,403.893C721.954,412.424 714.335,407.365 713.346,411.604C707.206,437.91 708.045,471.504 708.659,498.32C709.27,524.992 713.278,551.391 715.907,577.901C718.457,603.617 719.632,629.477 721.856,655.23C724.325,683.831 738.601,845.149 734.333,873.723L703.028,762.094ZM745.958,561.608C745.264,554.171 744.551,546.738 743.824,539.312C736.159,460.974 734.046,382.04 723.443,303.999C720.897,285.258 717.229,265.787 717.351,246.825C717.391,240.571 719.317,230.548 727.124,229.681C737.848,228.491 746.268,241.189 749.205,249.72C756.668,271.397 752.401,295.954 751.422,318.41C750.941,329.434 751.612,340.548 750.919,351.545C750.413,359.579 748.764,367.46 748.49,375.524C748.183,384.56 749.591,393.736 748.315,402.736C747.599,407.788 739.833,405.528 739.549,409.27C736.943,443.677 741.781,479.872 743.776,514.229C744.694,530.025 745.256,545.826 745.958,561.608C747.618,579.387 749.172,597.188 750.562,614.977C751.219,623.38 751.852,631.729 752.883,640.093L752.899,640.221C753.083,641.361 753.273,642.501 753.468,643.64L754.373,651.977C754.457,652.368 754.519,652.67 754.424,652.438L754.373,651.977C754.308,651.668 754.229,651.303 754.205,651.106C754.096,650.207 754.025,649.305 753.935,648.404C753.663,645.668 753.238,642.949 752.899,640.221C748.679,614.146 747.126,587.905 745.958,561.608Z" style="fill: rgb(139, 131, 152)" />
              <path d="M726.623,327.553C726.718,327.567 727.197,337.296 728.295,344.95C729.178,351.099 729.954,362.031 730.326,368.229C731.62,389.794 733.731,414.291 735.635,437.268C737.892,464.507 739.729,489.281 741.691,516.536C746.943,589.513 759.93,758.781 766.27,831.69" style="fill: none; stroke: black; stroke-width: 2.1px" />
            </g>
            <path d="M696.286,296.397C696.286,296.397 709.029,654.82 708.601,661.56C708.174,668.299 729.981,829.982 729.981,829.982L785.701,871.401L760.085,568.813C760.085,568.813 748.117,331.466 746.786,310.171C745.455,288.875 696.286,296.397 696.286,296.397Z" style="fill: none; stroke: black; stroke-width: 2.1px" />
            <g transform="matrix(-1,0,0,1,799.571,0)">
              <path d="M696.286,296.397C696.286,296.397 709.029,654.82 708.601,661.56C708.174,668.299 724.852,816.113 724.852,816.113L776.36,840.426L760.085,568.813C760.085,568.813 748.117,331.466 746.786,310.171C745.455,288.875 696.286,296.397 696.286,296.397Z" style="fill: rgb(213, 230, 237)" />
              <clipPath id="_clip3_shinobi_hat">
                <path d="M696.286,296.397C696.286,296.397 709.029,654.82 708.601,661.56C708.174,668.299 724.852,816.113 724.852,816.113L776.36,840.426L760.085,568.813C760.085,568.813 748.117,331.466 746.786,310.171C745.455,288.875 696.286,296.397 696.286,296.397Z" />
              </clipPath>
              <g clip-path="url(#_clip3_shinobi_hat)">
                <path d="M703.028,762.094C701.897,761.086 700.992,744.174 700.793,742.154C698.806,721.95 696.957,701.724 695.544,681.47C689.911,600.719 698.631,520.082 696.538,439.333C695.692,406.708 694.517,374.102 691.316,341.607C688.868,316.755 684.774,292.113 682.154,267.29C680.709,253.594 678.772,239.03 680.633,225.288C681.185,221.207 682.539,213.269 687.688,212.356C691.083,211.753 694.023,214.638 696.231,216.788C701.878,222.287 707.321,228.146 711.686,234.735C718.892,245.614 716.994,262.271 717.697,274.694C718.745,293.231 723.901,310.632 725.59,328.913C727.178,346.101 727.182,364.174 726.287,381.397C725.9,388.846 726.58,396.656 724.456,403.893C721.954,412.424 714.335,407.365 713.346,411.604C707.206,437.91 708.045,471.504 708.659,498.32C709.27,524.992 713.278,551.391 715.907,577.901C718.457,603.617 719.632,629.477 721.856,655.23C724.325,683.831 738.304,833.613 734.037,862.186L703.028,762.094ZM745.958,561.608C745.264,554.171 744.551,546.738 743.824,539.312C736.159,460.974 734.046,382.04 723.443,303.999C720.897,285.258 717.229,265.787 717.351,246.825C717.391,240.571 719.317,230.548 727.124,229.681C737.848,228.491 746.268,241.189 749.205,249.72C756.668,271.397 752.401,295.954 751.422,318.41C750.941,329.434 751.612,340.548 750.919,351.545C750.413,359.579 748.764,367.46 748.49,375.524C748.183,384.56 749.591,393.736 748.315,402.736C747.599,407.788 739.833,405.528 739.549,409.27C736.943,443.677 741.781,479.872 743.776,514.229C744.694,530.025 745.256,545.826 745.958,561.608C747.618,579.387 749.172,597.188 750.562,614.977C751.219,623.38 751.852,631.729 752.883,640.093L752.899,640.221C753.083,641.361 753.273,642.501 753.468,643.64L754.373,651.977C754.457,652.368 754.519,652.67 754.424,652.438L754.373,651.977C754.308,651.668 754.229,651.303 754.205,651.106C754.096,650.207 754.025,649.305 753.935,648.404C753.663,645.668 753.238,642.949 752.899,640.221C748.679,614.146 747.126,587.905 745.958,561.608Z" style="fill: rgb(139, 131, 152)" />
                <path d="M726.623,327.553C726.718,327.567 727.197,337.296 728.295,344.95C729.178,351.099 729.954,362.031 730.326,368.229C731.62,389.794 733.731,414.291 735.635,437.268C737.892,464.507 739.729,489.281 741.691,516.536C746.943,589.513 755.905,752.854 762.245,825.763" style="fill: none; stroke: black; stroke-width: 2.1px" />
              </g>
              <path d="M696.286,296.397C696.286,296.397 709.029,654.82 708.601,661.56C708.174,668.299 724.852,816.113 724.852,816.113L776.36,840.426L760.085,568.813C760.085,568.813 748.117,331.466 746.786,310.171C745.455,288.875 696.286,296.397 696.286,296.397Z" style="fill: none; stroke: black; stroke-width: 2.1px" />
            </g>
          </g>
        </g>
        <g id="accessories">
          <g id="shinobi-hat-front">
            <path d="M97.552,231.188C97.552,231.188 108.376,563.387 109.257,574.412C110.137,585.437 102.884,651.479 100.555,674.894C98.226,698.308 85.946,836.527 83.578,849.661C81.21,862.795 152.976,854.925 152.976,854.925C152.976,854.925 157.297,743.649 158.39,727.501C159.483,711.354 173.571,624.396 173.334,622.499C173.096,620.603 166.618,845.744 168.439,859.374C170.26,873.005 239.799,849.732 239.799,849.732C239.799,849.732 231.054,827.771 229.301,802.46C227.547,777.149 223.484,635.952 221.545,596.231C219.606,556.51 216.579,400.673 216.674,399.184C216.77,397.695 213.692,270.36 213.53,269.651C213.367,268.942 193.242,213.339 193.242,213.339L97.552,231.188Z" style="fill: rgb(213, 230, 237)" />
            <clipPath id="_clip4_shinobi_hat">
              <path d="M97.552,231.188C97.552,231.188 108.376,563.387 109.257,574.412C110.137,585.437 102.884,651.479 100.555,674.894C98.226,698.308 85.946,836.527 83.578,849.661C81.21,862.795 152.976,854.925 152.976,854.925C152.976,854.925 157.297,743.649 158.39,727.501C159.483,711.354 173.571,624.396 173.334,622.499C173.096,620.603 166.618,845.744 168.439,859.374C170.26,873.005 239.799,849.732 239.799,849.732C239.799,849.732 231.054,827.771 229.301,802.46C227.547,777.149 223.484,635.952 221.545,596.231C219.606,556.51 216.579,400.673 216.674,399.184C216.77,397.695 213.692,270.36 213.53,269.651C213.367,268.942 193.242,213.339 193.242,213.339L97.552,231.188Z" />
            </clipPath>
            <g clip-path="url(#_clip4_shinobi_hat)">
              <path d="M86.159,237.826C86.914,236.013 86.058,241.755 86.171,243.715C86.392,247.563 86.645,251.409 86.946,255.252C87.87,267.046 88.845,278.845 90.182,290.601C93.724,321.752 98.584,352.874 104.957,383.581C106.3,390.049 107.974,405.328 110.15,410.578C110.982,412.585 125.877,414.181 127.644,415.966C130.732,419.086 140.79,439.054 145.996,438.186C151.606,437.251 153.441,411.959 155.341,414.927C167.159,433.381 166.642,485.772 165.728,506.415C164.058,544.082 168.021,585.083 164.914,623.19C163.496,640.584 156.049,657.343 152.297,674.378C145.428,705.567 141.022,737.888 138.533,769.715C134.412,822.403 133.467,875.383 132.527,928.21C132.375,936.745 127.281,977.819 142.767,976.385C153.031,975.434 158.007,956.224 159.909,948.565C167.574,917.699 162.917,883.788 163.861,852.247C164.998,814.266 163.129,776.144 164.852,738.245C166.16,709.463 167.199,680.165 169.94,651.49C171.199,638.326 174.587,625.52 175.3,612.283C177.033,580.1 175.795,547.311 176.27,515.049C176.648,489.332 175.738,463.542 175.738,437.813C175.738,434.03 177.8,416.444 177.8,416.444C177.8,416.444 195.013,416.598 202.323,419.929C208.178,422.597 209.178,454.48 209.157,459.517C209.034,488.626 208.894,517.781 210.605,546.922C212.891,585.866 218.373,647.612 225.457,702.729C227.822,721.129 230.571,721.621 234.289,739.796C236.786,752.006 243.89,755.731 244.746,755.117C249.479,751.718 247.63,729.504 247.822,724.69C249.09,692.892 250.037,661.071 250.867,629.259C251.622,600.283 252.18,571.302 252.963,542.327C253.601,518.689 253.978,495.044 254.318,471.4C254.572,453.743 254.874,436.087 255.1,418.429C255.276,404.717 255.475,391.005 255.642,377.293C256.32,321.894 246.272,193.413 160.545,234.001" style="fill: rgb(139, 131, 152)" />
              <path d="M179.288,329.116C180.612,329.976 178.466,344.811 178.391,346.385C177.535,364.509 176.961,382.715 176.676,400.857C175.465,477.725 177.198,555.162 173.36,631.918" style="fill: none; stroke: black; stroke-width: 2.1px" />
            </g>
            <path d="M97.552,231.188C97.552,231.188 108.376,563.387 109.257,574.412C110.137,585.437 102.884,651.479 100.555,674.894C98.226,698.308 85.946,836.527 83.578,849.661C81.21,862.795 152.976,854.925 152.976,854.925C152.976,854.925 157.297,743.649 158.39,727.501C159.483,711.354 173.571,624.396 173.334,622.499C173.096,620.603 166.618,845.744 168.439,859.374C170.26,873.005 239.799,849.732 239.799,849.732C239.799,849.732 231.054,827.771 229.301,802.46C227.547,777.149 223.484,635.952 221.545,596.231C219.606,556.51 216.579,400.673 216.674,399.184C216.77,397.695 213.692,270.36 213.53,269.651C213.367,268.942 193.242,213.339 193.242,213.339L97.552,231.188Z" style="fill: none; stroke: black; stroke-width: 2.1px" />
            <g transform="matrix(-1,0,0,1,799.717,0)">
              <path d="M97.552,231.188C97.552,231.188 108.376,563.387 109.257,574.412C110.137,585.437 102.884,651.479 100.555,674.894C98.226,698.308 85.946,836.527 83.578,849.661C81.21,862.795 152.976,854.925 152.976,854.925C152.976,854.925 157.297,743.649 158.39,727.501C159.483,711.354 173.571,624.396 173.334,622.499C173.096,620.603 166.618,845.744 168.439,859.374C170.26,873.005 239.799,849.732 239.799,849.732C239.799,849.732 231.054,827.771 229.301,802.46C227.547,777.149 223.484,635.952 221.545,596.231C219.606,556.51 216.579,400.673 216.674,399.184C216.77,397.695 213.692,270.36 213.53,269.651C213.367,268.942 193.242,213.339 193.242,213.339L97.552,231.188Z" style="fill: rgb(213, 230, 237)" />
              <clipPath id="_clip5_shinobi_hat">
                <path d="M97.552,231.188C97.552,231.188 108.376,563.387 109.257,574.412C110.137,585.437 102.884,651.479 100.555,674.894C98.226,698.308 85.946,836.527 83.578,849.661C81.21,862.795 152.976,854.925 152.976,854.925C152.976,854.925 157.297,743.649 158.39,727.501C159.483,711.354 173.571,624.396 173.334,622.499C173.096,620.603 166.618,845.744 168.439,859.374C170.26,873.005 239.799,849.732 239.799,849.732C239.799,849.732 231.054,827.771 229.301,802.46C227.547,777.149 223.484,635.952 221.545,596.231C219.606,556.51 216.579,400.673 216.674,399.184C216.77,397.695 213.692,270.36 213.53,269.651C213.367,268.942 193.242,213.339 193.242,213.339L97.552,231.188Z" />
              </clipPath>
              <g clip-path="url(#_clip5_shinobi_hat)">
                <path d="M86.159,237.826C86.914,236.013 86.058,241.755 86.171,243.715C86.392,247.563 86.645,251.409 86.946,255.252C87.87,267.046 88.845,278.845 90.182,290.601C93.724,321.752 98.584,352.874 104.957,383.581C106.3,390.049 107.974,405.328 110.15,410.578C110.982,412.585 125.877,414.181 127.644,415.966C130.732,419.086 140.79,439.054 145.996,438.186C151.606,437.251 153.441,411.959 155.341,414.927C167.159,433.381 166.642,485.772 165.728,506.415C164.058,544.082 168.021,585.083 164.914,623.19C163.496,640.584 156.049,657.343 152.297,674.378C145.428,705.567 141.022,737.888 138.533,769.715C134.412,822.403 133.467,875.383 132.527,928.21C132.375,936.745 127.281,977.819 142.767,976.385C153.031,975.434 158.007,956.224 159.909,948.565C167.574,917.699 162.917,883.788 163.861,852.247C164.998,814.266 163.129,776.144 164.852,738.245C166.16,709.463 167.199,680.165 169.94,651.49C171.199,638.326 174.587,625.52 175.3,612.283C177.033,580.1 175.795,547.311 176.27,515.049C176.648,489.332 175.738,463.542 175.738,437.813C175.738,434.03 177.8,416.444 177.8,416.444C177.8,416.444 195.013,416.598 202.323,419.929C208.178,422.597 209.178,454.48 209.157,459.517C209.034,488.626 208.894,517.781 210.605,546.922C212.891,585.866 218.373,647.612 225.457,702.729C227.822,721.129 230.571,721.621 234.289,739.796C236.786,752.006 243.89,755.731 244.746,755.117C249.479,751.718 247.63,729.504 247.822,724.69C249.09,692.892 250.037,661.071 250.867,629.259C251.622,600.283 252.18,571.302 252.963,542.327C253.601,518.689 253.978,495.044 254.318,471.4C254.572,453.743 254.874,436.087 255.1,418.429C255.276,404.717 255.475,391.005 255.642,377.293C256.32,321.894 246.272,193.413 160.545,234.001" style="fill: rgb(139, 131, 152)" />
                <path d="M179.288,329.116C180.612,329.976 178.466,344.811 178.391,346.385C177.535,364.509 176.961,382.715 176.676,400.857C175.465,477.725 177.198,555.162 173.36,631.918" style="fill: none; stroke: black; stroke-width: 2.1px" />
              </g>
              <path d="M97.552,231.188C97.552,231.188 108.376,563.387 109.257,574.412C110.137,585.437 102.884,651.479 100.555,674.894C98.226,698.308 85.946,836.527 83.578,849.661C81.21,862.795 152.976,854.925 152.976,854.925C152.976,854.925 157.297,743.649 158.39,727.501C159.483,711.354 173.571,624.396 173.334,622.499C173.096,620.603 166.618,845.744 168.439,859.374C170.26,873.005 239.799,849.732 239.799,849.732C239.799,849.732 231.054,827.771 229.301,802.46C227.547,777.149 223.484,635.952 221.545,596.231C219.606,556.51 216.579,400.673 216.674,399.184C216.77,397.695 213.692,270.36 213.53,269.651C213.367,268.942 193.242,213.339 193.242,213.339L97.552,231.188Z" style="fill: none; stroke: black; stroke-width: 2.1px" />
            </g>
            <path d="M114.093,350.219C-65.939,341.146 -214.237,321.35 -211.926,314.355L399.91,13.451L399.91,13.432L399.928,13.441L399.946,13.432L399.947,13.451L1015.29,313.889C1017.61,320.907 866.772,341.017 684.862,350.188L664.408,325.816L675.733,350.637C619.141,353.359 559.783,354.996 501.265,354.836C486.818,303.298 471.402,251.852 454.307,206.125C454.307,206.125 467.836,318.574 471.999,354.602C447.635,354.275 423.522,353.612 399.928,352.559C312.301,356.467 217.875,355.06 130.059,350.991L178.992,273.714L114.093,350.219Z" style="fill: rgb(197, 173, 129)" />
            <clipPath id="_clip6_shinobi_hat">
              <path d="M114.093,350.219C-65.939,341.146 -214.237,321.35 -211.926,314.355L399.91,13.451L399.91,13.432L399.928,13.441L399.946,13.432L399.947,13.451L1015.29,313.889C1017.61,320.907 866.772,341.017 684.862,350.188L664.408,325.816L675.733,350.637C619.141,353.359 559.783,354.996 501.265,354.836C486.818,303.298 471.402,251.852 454.307,206.125C454.307,206.125 467.836,318.574 471.999,354.602C447.635,354.275 423.522,353.612 399.928,352.559C312.301,356.467 217.875,355.06 130.059,350.991L178.992,273.714L114.093,350.219Z" />
            </clipPath>
            <g clip-path="url(#_clip6_shinobi_hat)">
              <g id="highlights">
                <path d="M911.386,318.416L400.895,28.456L423.518,2.58L988.535,274.51L1005.94,300.384C1018.52,297.389 1031.46,293.419 1032.06,295.348C1033.51,299.959 1028.7,312.104 1027.61,316.676C1026.7,320.457 1025.52,324.006 1024.08,327.341L1085.52,418.667L988.664,362.906C973.532,370.915 956.09,376.005 939.769,380.153C835.276,406.708 690.592,395.754 582.581,387.554L488.163,351.416C499.36,351.035 538.783,350.597 549.966,349.951C582.81,348.052 613.959,350.091 646.787,348.158C733.08,343.076 818.854,333.526 904.196,319.595C906.594,319.204 908.992,318.811 911.386,318.416ZM457.369,355.593C457.224,355.555 457.046,355.485 456.931,355.479C454.026,355.325 451.135,354.977 448.236,354.745C442.124,354.257 436.01,353.794 429.899,353.281C411.942,351.772 393.943,350.875 375.927,350.513C327.509,349.542 277.673,349.792 229.253,349.378C205.315,349.173 182.808,347.891 158.872,347.615C141.123,347.41 124.004,347.533 106.599,351.314C104.167,351.843 91.435,353.209 91.04,356.29C90.6,359.726 104.145,361.516 105.914,361.849C124.279,365.308 142.962,367.301 161.5,369.577C239.018,379.094 316.681,385.161 394.26,373.313L457.369,355.593ZM-206.972,288.724C-220.609,285.509 -234.348,282.458 -248.184,280.254C-250.727,279.849 -260.45,277.23 -262.268,280.349C-264.355,283.928 -253.016,291.022 -251.145,292.395C-235.761,303.686 -219.675,314.075 -203.083,323.496C-202.438,323.862 -201.793,324.226 -201.154,324.584L-194.847,363.468L-161.197,344.324C-102.855,369.364 -40.659,380.06 23.938,376.102L82.461,348.653C83.927,348.352 79.538,348.003 78.058,347.79C75.124,347.368 72.18,346.982 69.235,346.65C60.59,345.675 52.049,343.846 43.446,342.56C17.702,338.711 -8.122,335.121 -33.899,331.392C-59.52,327.686 -84.643,321.689 -109.621,314.982L381.28,39.125L391.619,8.886L-215.413,236.685L-206.972,288.724ZM457.369,355.593L457.609,355.526C457.618,355.637 457.509,355.63 457.369,355.593Z" style="fill: rgb(241, 228, 184)" />
                <path d="M71.865,218.439L102.454,199.556" style="fill: none; stroke: rgb(241, 228, 184); stroke-width: 2.1px" />
                <path d="M229.555,136.156L244.131,127.576" style="fill: none; stroke: rgb(241, 228, 184); stroke-width: 2.1px" />
                <path d="M11.598,291.86L-41.971,334.832" style="fill: none; stroke: rgb(241, 228, 184); stroke-width: 2.1px" />
                <path d="M126.386,220.295L82.498,249.634" style="fill: none; stroke: rgb(241, 228, 184); stroke-width: 2.1px" />
                <path d="M214.8,197.085L155.01,252.7" style="fill: none; stroke: rgb(241, 228, 184); stroke-width: 2.1px" />
                <path d="M97.481,303.53L60.192,341.036" style="fill: none; stroke: rgb(241, 228, 184); stroke-width: 2.1px" />
                <path d="M220.101,217.059L214.011,225.395" style="fill: none; stroke: rgb(241, 228, 184); stroke-width: 2.1px" />
                <path d="M577.442,130.373L584.576,135.119" style="fill: none; stroke: rgb(241, 228, 184); stroke-width: 2.1px" />
                <path d="M599.679,142.92L653.36,177.97" style="fill: none; stroke: rgb(241, 228, 184); stroke-width: 2.1px" />
                <path d="M716.758,216.915L769.451,247.329" style="fill: none; stroke: rgb(241, 228, 184); stroke-width: 2.1px" />
                <path d="M776.234,271.622L785.917,278.023" style="fill: none; stroke: rgb(241, 228, 184); stroke-width: 2.1px" />
                <path d="M692.321,234.178L761.457,292.071" style="fill: none; stroke: rgb(241, 228, 184); stroke-width: 2.1px" />
                <path d="M675.926,233.675L703.272,257.449" style="fill: none; stroke: rgb(241, 228, 184); stroke-width: 2.1px" />
                <path d="M741.609,312.6L776.023,342.929" style="fill: none; stroke: rgb(241, 228, 184); stroke-width: 2.1px" />
              </g>
              <g id="lines">
                <g id="horizontal">
                  <path d="M98.557,324.721C98.557,324.721 -3.916,333.711 -85.703,289.651" style="fill: none; stroke: black; stroke-width: 2.1px" />
                  <path d="M43.083,308.817C43.083,308.817 -3.561,306.433 -33.777,294.099" style="fill: none; stroke: black; stroke-width: 2.1px" />
                  <path d="M134.643,299.304C134.643,299.304 87.964,300.687 70.941,296.475" style="fill: none; stroke: black; stroke-width: 2.1px" />
                  <path d="M74.775,272.962C74.775,272.962 28.541,268.461 9.185,261.806" style="fill: none; stroke: black; stroke-width: 2.1px" />
                  <path d="M43.319,237.884C43.319,237.884 17.672,230.543 7.845,224.921" style="fill: none; stroke: black; stroke-width: 2.1px" />
                  <path d="M119.182,234.742C119.182,234.742 61.087,225.998 19.42,207.173" style="fill: none; stroke: black; stroke-width: 2.1px" />
                  <path d="M205.965,162.897C205.965,162.897 169.662,146.941 162.737,143.094" style="fill: none; stroke: black; stroke-width: 2.1px" />
                  <path d="M200.029,125.426L223.151,138.006" style="fill: none; stroke: black; stroke-width: 2.1px" />
                  <path d="M238.58,107.824C238.58,107.824 249.832,114.059 253.024,114.249" style="fill: none; stroke: black; stroke-width: 2.1px" />
                  <path d="M308.082,75.906C308.082,75.906 325.919,82.826 329.84,83.208" style="fill: none; stroke: black; stroke-width: 2.1px" />
                  <path d="M322.685,64.898C322.685,64.898 373.739,81.337 383.733,81.638" style="fill: none; stroke: black; stroke-width: 2.1px" />
                  <path d="M164.671,320.955C164.671,320.955 268.099,330.03 288.131,327.989" style="fill: none; stroke: black; stroke-width: 2.1px" />
                  <path d="M226.622,302.697C226.622,302.697 252.304,306.448 260.26,305.851" style="fill: none; stroke: black; stroke-width: 2.1px" />
                  <path d="M227.518,254.797C227.518,254.797 270.682,262.616 290.241,262.204" style="fill: none; stroke: black; stroke-width: 2.1px" />
                  <path d="M247.078,205.728C247.078,205.728 291.94,212.729 304.312,212.373" style="fill: none; stroke: black; stroke-width: 2.1px" />
                  <path d="M310.861,250.24C310.861,250.24 333.33,254.198 340.667,253.932" style="fill: none; stroke: black; stroke-width: 2.1px" />
                  <path d="M330.863,296.126C330.863,296.126 373.387,296.473 383.823,294.92" style="fill: none; stroke: black; stroke-width: 2.1px" />
                  <path d="M324.339,335.468C324.339,335.468 392.601,335.764 405.282,332.922" style="fill: none; stroke: black; stroke-width: 2.1px" />
                  <path d="M353.078,216.407C353.078,216.407 394.695,216.925 403.441,216.044" style="fill: none; stroke: black; stroke-width: 2.1px" />
                  <path d="M388.359,117.619C388.359,117.619 417.993,116.798 429.455,113.178" style="fill: none; stroke: black; stroke-width: 2.1px" />
                  <path d="M418.279,157.871C418.279,157.871 446.545,158.071 452.697,156.491" style="fill: none; stroke: black; stroke-width: 2.1px" />
                  <path d="M427.648,174.521C427.648,174.521 486.533,168.998 501.628,164.99" style="fill: none; stroke: black; stroke-width: 2.1px" />
                  <path d="M486.215,214.897C486.215,214.897 514.992,210.789 525.502,207.732" style="fill: none; stroke: black; stroke-width: 2.1px" />
                  <path d="M497.046,281.717C497.046,281.717 584.185,286.327 698.88,272.361" style="fill: none; stroke: black; stroke-width: 2.1px" />
                  <path d="M581.832,248.515C581.832,248.515 603.109,248.816 640.075,241.809" style="fill: none; stroke: black; stroke-width: 2.1px" />
                  <path d="M535.852,170.434C535.852,170.434 554.105,167.825 574.162,162.164" style="fill: none; stroke: black; stroke-width: 2.1px" />
                  <path d="M424.329,62.914C424.329,62.914 438.931,60.725 444.395,58.955" style="fill: none; stroke: black; stroke-width: 2.1px" />
                  <path d="M430.114,76.883C430.114,76.883 448.728,76.896 483.998,64.365" style="fill: none; stroke: black; stroke-width: 2.1px" />
                  <path d="M587.045,139.812C587.045,139.812 605.038,136.572 615.533,132.517" style="fill: none; stroke: black; stroke-width: 2.1px" />
                  <path d="M613.384,164.737C613.384,164.737 638.54,160.928 660.937,153.286" style="fill: none; stroke: black; stroke-width: 2.1px" />
                  <path d="M605.304,195.145C605.304,195.145 661.338,184.923 688.07,174.411" style="fill: none; stroke: black; stroke-width: 2.1px" />
                  <path d="M556.549,311.688C556.549,311.688 604.277,312.363 619.658,310.458" style="fill: none; stroke: black; stroke-width: 2.1px" />
                  <path d="M509.736,333.589C509.736,333.589 589.444,332.077 619.828,328.762" style="fill: none; stroke: black; stroke-width: 2.1px" />
                  <path d="M676.92,300.387C676.92,300.387 701.172,297.547 716.513,294.022" style="fill: none; stroke: black; stroke-width: 2.1px" />
                  <path d="M736.029,327.026C736.029,327.026 775.988,324.232 791.656,319.648" style="fill: none; stroke: black; stroke-width: 2.1px" />
                  <path d="M716.337,206.332C716.337,206.332 751.348,200.395 763.079,196.753" style="fill: none; stroke: black; stroke-width: 2.1px" />
                  <path d="M736.591,228.547C736.591,228.547 774.357,218.403 784.023,214.889" style="fill: none; stroke: black; stroke-width: 2.1px" />
                  <path d="M677.993,253.399C677.993,253.399 759.4,247.095 813.731,223.493" style="fill: none; stroke: black; stroke-width: 2.1px" />
                  <path d="M775.152,281.703C775.152,281.703 806.991,279.905 886.404,241.01" style="fill: none; stroke: black; stroke-width: 2.1px" />
                </g>
                <g id="vertical">
                  <path d="M81.364,189.782L-110.182,299.225" style="fill: none; stroke: black; stroke-width: 2.1px" />
                  <path d="M14.479,272.527L200.549,154.055" style="fill: none; stroke: black; stroke-width: 2.1px" />
                  <path d="M400.115,245.523L399.27,352.763" style="fill: none; stroke: black; stroke-width: 2.1px" />
                  <path d="M424.732,269.759L428.059,321.392" style="fill: none; stroke: black; stroke-width: 2.1px" />
                  <path d="M436.221,205.517L454.825,355.109" style="fill: none; stroke: black; stroke-width: 2.1px" />
                  <path d="M436.509,131.929L454.871,207.312" style="fill: none; stroke: black; stroke-width: 2.1px" />
                  <path d="M433.47,53.801L463.056,113.132" style="fill: none; stroke: black; stroke-width: 2.1px" />
                  <path d="M478.678,181.508L534.997,308.309" style="fill: none; stroke: black; stroke-width: 2.1px" />
                  <path d="M515.644,323.851L528.849,354.195" style="fill: none; stroke: black; stroke-width: 2.1px" />
                  <path d="M542.71,243.558L586.457,326.449" style="fill: none; stroke: black; stroke-width: 2.1px" />
                  <path d="M446.404,46.973C490.685,90.601 530.978,135.36 569.464,182.995" style="fill: rgb(197, 173, 129); stroke: black; stroke-width: 2.1px" />
                  <path d="M494.226,72.05L574.045,115.831" style="fill: none; stroke: black; stroke-width: 2.1px" />
                  <path d="M594.958,167.246L655.811,218.656" style="fill: none; stroke: black; stroke-width: 2.1px" />
                  <path d="M607.486,268.54L665.795,352.757" style="fill: none; stroke: black; stroke-width: 2.1px" />
                  <path d="M613.467,330.664L624.83,351.572" style="fill: none; stroke: black; stroke-width: 2.1px" />
                  <path d="M596.512,232.496L665.164,326.227" style="fill: none; stroke: black; stroke-width: 2.1px" />
                  <path d="M687.423,291.788L740.191,349.364" style="fill: none; stroke: black; stroke-width: 2.1px" />
                  <path d="M736.732,311.642L774.283,347.476" style="fill: none; stroke: black; stroke-width: 2.1px" />
                  <path d="M666.2,208.452L780.985,300.735" style="fill: none; stroke: black; stroke-width: 2.1px" />
                  <path d="M67.227,266.316L-50.433,349.778" style="fill: none; stroke: black; stroke-width: 2.1px" />
                  <path d="M11.641,349.522L151.977,235.583" style="fill: none; stroke: black; stroke-width: 2.1px" />
                  <path d="M55.664,333.149L187.924,213.509" style="fill: none; stroke: black; stroke-width: 2.1px" />
                  <path d="M243.537,169.824L301.429,118.627" style="fill: none; stroke: black; stroke-width: 2.1px" />
                  <path d="M309.26,86.126L358.657,51.27" style="fill: none; stroke: black; stroke-width: 2.1px" />
                  <path d="M336.822,107.431L374.438,60.736" style="fill: none; stroke: black; stroke-width: 2.1px" />
                  <path d="M222.077,284.492L288.802,192.053" style="fill: none; stroke: black; stroke-width: 2.1px" />
                  <path d="M177.634,274.528L207.722,241.293" style="fill: none; stroke: black; stroke-width: 2.1px" />
                  <path d="M159.932,351.839L175.362,330.761" style="fill: none; stroke: black; stroke-width: 2.1px" />
                  <path d="M228.373,354.838L253.289,304.61" style="fill: none; stroke: black; stroke-width: 2.1px" />
                  <path d="M263.85,353.995L277.661,317.454" style="fill: none; stroke: black; stroke-width: 2.1px" />
                  <path d="M317.198,281.638L355.551,151.934" style="fill: none; stroke: black; stroke-width: 2.1px" />
                  <path d="M328.146,354.801L366.801,206.292" style="fill: none; stroke: black; stroke-width: 2.1px" />
                  <path d="M361.122,353.307L367.297,315.262" style="fill: none; stroke: black; stroke-width: 2.1px" />
                  <path d="M400.236,79.124L406.906,138.401" style="fill: none; stroke: black; stroke-width: 2.1px" />
                  <path d="M747.127,230.642L865.047,296.956" style="fill: none; stroke: black; stroke-width: 2.1px" />
                  <path d="M690.88,166.83L789.064,216.211" style="fill: none; stroke: black; stroke-width: 2.1px" />
                </g>
              </g>
              <path d="M348.894,37.745C348.894,37.745 368.21,32.834 400.589,65.082C412.455,53.29 434.448,33.645 453.315,38.339C472.182,43.033 458.672,27.979 458.672,27.979L429.586,9.805L393.748,1.114L354.087,20.806L348.894,37.745Z" style="fill: rgb(75, 62, 56)" />
              <clipPath id="_clip7_shinobi_hat">
                <path d="M348.894,37.745C348.894,37.745 368.21,32.834 400.589,65.082C412.455,53.29 434.448,33.645 453.315,38.339C472.182,43.033 458.672,27.979 458.672,27.979L429.586,9.805L393.748,1.114L354.087,20.806L348.894,37.745Z" />
              </clipPath>
              <g clip-path="url(#_clip7_shinobi_hat)">
                <path d="M357.592,50.958C357.574,50.941 358.659,50.503 358.977,50.354C360.146,49.81 361.31,49.253 362.467,48.684C365.798,47.045 368.303,45.778 371.563,44C379.673,39.577 399.899,28.763 399.899,28.763C399.899,28.763 409.125,33.031 412.063,34.712C419.599,39.024 427.155,43.31 434.751,47.515C437.649,49.119 441.762,52.45 445.13,52.799C447.652,53.061 450.456,51.437 452.634,50.391C457.718,47.948 466.291,43.681 465.694,36.873C464.497,23.205 446.345,15.343 435.098,13.259C418.656,10.213 401.086,11.993 384.806,15.194C369.043,18.294 355.153,22.472 346.196,36.536" style="fill: rgb(185, 153, 125)" />
              </g>
              <path d="M348.894,37.745C348.894,37.745 368.21,32.834 400.589,65.082C412.455,53.29 434.448,33.645 453.315,38.339C472.182,43.033 458.672,27.979 458.672,27.979L429.586,9.805L393.748,1.114L354.087,20.806L348.894,37.745Z" style="fill: none; stroke: black; stroke-width: 2.1px" />
            </g>
            <path d="M114.093,350.219C-65.939,341.146 -214.237,321.35 -211.926,314.355L399.91,13.451L399.91,13.432L399.928,13.441L399.946,13.432L399.947,13.451L1015.29,313.889C1017.61,320.907 866.772,341.017 684.862,350.188L664.408,325.816L675.733,350.637C619.141,353.359 559.783,354.996 501.265,354.836C486.818,303.298 471.402,251.852 454.307,206.125C454.307,206.125 467.836,318.574 471.999,354.602C447.635,354.275 423.522,353.612 399.928,352.559C312.301,356.467 217.875,355.06 130.059,350.991L178.992,273.714L114.093,350.219Z" style="fill: none; stroke: black; stroke-width: 2.1px" />
          </g>
        </g>
      </g>
      <defs>
        <linearGradient id="_Linear2_kitsune_mask" x1="0" y1="0" x2="1" y2="0" gradientUnits="userSpaceOnUse" gradientTransform="matrix(1,0,0,-1,0,-0.0513998)">
          <stop offset="0" style="stop-color: rgb(241, 90, 36); stop-opacity: 1" />
          <stop offset="0.21" style="stop-color: rgb(241, 90, 36); stop-opacity: 1" />
          <stop offset="0.68" style="stop-color: rgb(251, 176, 59); stop-opacity: 1" />
          <stop offset="1" style="stop-color: rgb(251, 176, 59); stop-opacity: 1" />
        </linearGradient>
        <linearGradient id="_Linear3_kitsune_mask" x1="0" y1="0" x2="1" y2="0" gradientUnits="userSpaceOnUse" gradientTransform="matrix(1,5.55112e-17,5.55112e-17,-1,0,-0.0515017)">
          <stop offset="0" style="stop-color: rgb(237, 30, 121); stop-opacity: 1" />
          <stop offset="0.21" style="stop-color: rgb(237, 30, 121); stop-opacity: 1" />
          <stop offset="0.89" style="stop-color: rgb(82, 39, 133); stop-opacity: 1" />
          <stop offset="1" style="stop-color: rgb(82, 39, 133); stop-opacity: 1" />
        </linearGradient>
      </defs>
    </g>
    <g transform="matrix(1,0,0,1,7.6296,-2.65748)">
      <text x="263.72px" y="53.076px" style="font-family: 'Futura-Medium', 'Futura', sans-serif; font-weight: 500; font-size: 50px; fill: white">SEASON 0</text>
    </g>
  </g>
  <defs>
    <linearGradient id="_Linear3_card_template" x1="0" y1="0" x2="1" y2="0" gradientUnits="userSpaceOnUse" gradientTransform="matrix(3.89688e-14,-610.267,636.408,3.73681e-14,398.243,614.74)">
      <stop offset="0" style="stop-color: rgb(80, 225, 255); stop-opacity: 1" />
      <stop offset="0.44" style="stop-color: rgb(219, 249, 255); stop-opacity: 1" />
      <stop offset="1" style="stop-color: white; stop-opacity: 1" />
    </linearGradient>
  </defs>
</svg>