<svg width="800px" height="800px" viewBox="0 0 800 800" version="2.0" xmlns="http://www.w3.org/2000/svg" style="fill-rule: evenodd; clip-rule: evenodd; stroke-linecap: round; stroke-linejoin: round; stroke-miterlimit: 1.5"><g id="normal-card"><rect id="bg" x="-48.418" y="-9.957" width="931.967" height="871.066" style="fill: rgb(6, 46, 66)" /><g id="rectangles" transform="matrix(1,0,0,1,49.4291,64.1339)"><g opacity="0.5"><g transform="matrix(0.660629,0,0,1.04551,351.522,-81.058)"><rect x="462.47" y="633.282" width="419.335" height="322.449" style="fill: none" /><clipPath id="_clip1_card_template"><rect x="462.47" y="633.282" width="419.335" height="322.449" /></clipPath><g clip-path="url(#_clip1_card_template)"><g transform="matrix(1.51371,0,0,0.956468,-452.99,37.369)"><path d="M604.78,633.282L877.032,634.306" style="fill: none; stroke: rgb(166, 240, 98); stroke-width: 4px; stroke-dasharray: 4.25, 7.5, 0, 0" /></g><g transform="matrix(1.51371,0,0,0.956468,-452.99,58.0423)"><path d="M604.78,633.282L877.032,634.306" style="fill: none; stroke: rgb(166, 240, 98); stroke-width: 4px; stroke-dasharray: 4.25, 7.5, 0, 0" /></g><g transform="matrix(1.51371,0,0,0.956468,-452.99,68.3789)"><path d="M604.78,633.282L877.032,634.306" style="fill: none; stroke: rgb(166, 240, 98); stroke-width: 4px; stroke-dasharray: 4.25, 7.5, 0, 0" /></g><g transform="matrix(1.51371,0,0,0.956468,-452.99,89.0522)"><path d="M604.78,633.282L877.032,634.306" style="fill: none; stroke: rgb(166, 240, 98); stroke-width: 4px; stroke-dasharray: 4.25, 7.5, 0, 0" /></g><g transform="matrix(1.51371,0,0,0.956468,-452.99,99.3888)"><path d="M604.78,633.282L877.032,634.306" style="fill: none; stroke: rgb(166, 240, 98); stroke-width: 4px; stroke-dasharray: 4.25, 7.5, 0, 0" /></g><g transform="matrix(1.51371,0,0,0.956468,-452.99,130.399)"><path d="M604.78,633.282L877.032,634.306" style="fill: none; stroke: rgb(166, 240, 98); stroke-width: 4px; stroke-dasharray: 4.25, 7.5, 0, 0" /></g><g transform="matrix(1.51371,0,0,0.956468,-452.99,151.072)"><path d="M604.78,633.282L877.032,634.306" style="fill: none; stroke: rgb(166, 240, 98); stroke-width: 4px; stroke-dasharray: 4.25, 7.5, 0, 0" /></g><g transform="matrix(1.51371,0,0,0.956468,-452.99,171.745)"><path d="M604.78,633.282L877.032,634.306" style="fill: none; stroke: rgb(166, 240, 98); stroke-width: 4px; stroke-dasharray: 4.25, 7.5, 0, 0" /></g></g><rect x="462.47" y="633.282" width="419.335" height="322.449" style="fill: none; stroke: rgb(166, 240, 98); stroke-width: 4.57px; stroke-dasharray: 4.86, 8.58, 0, 0" /></g><g transform="matrix(0.192707,0,0,1.04551,466.744,2.40586)"><rect x="462.47" y="633.282" width="419.335" height="322.449" style="fill: none" /><clipPath id="_clip2_card_template"><rect x="462.47" y="633.282" width="419.335" height="322.449" /></clipPath><g clip-path="url(#_clip2_card_template)"><g transform="matrix(1.51371,0,0,0.956468,-452.99,37.369)"><path d="M604.78,633.282L877.032,634.306" style="fill: none; stroke: rgb(237, 30, 121); stroke-width: 5.43px; stroke-dasharray: 5.77, 10.18, 0, 0" /></g><g transform="matrix(1.51371,0,0,0.956468,-452.99,58.0423)"><path d="M604.78,633.282L877.032,634.306" style="fill: none; stroke: rgb(237, 30, 121); stroke-width: 5.43px; stroke-dasharray: 5.77, 10.18, 0, 0" /></g><g transform="matrix(1.51371,0,0,0.956468,-452.99,68.3789)"><path d="M604.78,633.282L877.032,634.306" style="fill: none; stroke: rgb(237, 30, 121); stroke-width: 5.43px; stroke-dasharray: 5.77, 10.18, 0, 0" /></g><g transform="matrix(1.51371,0,0,0.956468,-452.99,89.0522)"><path d="M604.78,633.282L877.032,634.306" style="fill: none; stroke: rgb(237, 30, 121); stroke-width: 5.43px; stroke-dasharray: 5.77, 10.18, 0, 0" /></g></g><rect x="462.47" y="633.282" width="419.335" height="322.449" style="fill: none; stroke: rgb(237, 30, 121); stroke-width: 5.32px; stroke-dasharray: 5.65, 9.98, 0, 0" /></g></g></g><g id="circles" opacity="0.5"><g transform="matrix(1,0,0,1,-118.853,-94.5905)"><circle cx="155.124" cy="124.814" r="124.814" style="fill: none; stroke: rgb(255, 207, 0); stroke-width: 4px; stroke-dasharray: 4.25, 7.5, 0, 0" /></g><g transform="matrix(0.928318,0,0,0.928318,-107.734,-85.6437)"><circle cx="155.124" cy="124.814" r="124.814" style="fill: none; stroke: rgb(255, 207, 0); stroke-width: 4.31px; stroke-dasharray: 4.58, 8.08, 0, 0" /></g><g transform="matrix(0.691272,0,0,0.691272,-70.9623,-56.0571)"><circle cx="155.124" cy="124.814" r="124.814" style="fill: none; stroke: rgb(255, 108, 0); stroke-width: 5.79px; stroke-dasharray: 6.15, 10.85, 0, 0" /></g></g><g id="rarity-bars" transform="matrix(0.86723,0,0,0.86723,10.4494,88.5493)"><g id="rarity-bars-fill"><g transform="matrix(0.114833,0,0,0.114833,59.0756,653.445)"><path d="M400,117.517L629.266,249.774L629.266,514.685L400.192,646.941L400.192,647.052L400.096,646.997L400,647.052L400,646.941L170.925,514.685L170.925,249.774L400,117.517Z" style="fill: rgb(139, 57, 219)" /></g><g transform="matrix(0.114833,0,0,0.114833,126.648,653.445)"><path d="M400,117.517L629.266,249.774L629.266,514.685L400.192,646.941L400.192,647.052L400.096,646.997L400,647.052L400,646.941L170.925,514.685L170.925,249.774L400,117.517Z" style="fill: rgb(237, 30, 121)" /></g></g><g id="rarity-bars-stroke"><g transform="matrix(0.114833,0,0,0.114833,59.0756,653.445)"><path d="M400,117.517L629.266,249.774L629.266,514.685L400.192,646.941L400.192,647.052L400.096,646.997L400,647.052L400,646.941L170.925,514.685L170.925,249.774L400,117.517Z" style="fill: none; stroke: white; stroke-width: 34.83px" /></g><g transform="matrix(0.114833,0,0,0.114833,126.648,653.445)"><path d="M400,117.517L629.266,249.774L629.266,514.685L400.192,646.941L400.192,647.052L400.096,646.997L400,647.052L400,646.941L170.925,514.685L170.925,249.774L400,117.517Z" style="fill: none; stroke: white; stroke-width: 34.83px" /></g><g transform="matrix(0.114833,0,0,0.114833,194.22,653.445)"><path d="M400,117.517L629.266,249.774L629.266,514.685L400.192,646.941L400.192,647.052L400.096,646.997L400,647.052L400,646.941L170.925,514.685L170.925,249.774L400,117.517Z" style="fill: none; stroke: white; stroke-width: 34.83px" /></g><g transform="matrix(0.114833,0,0,0.114833,261.792,653.445)"><path d="M400,117.517L629.266,249.774L629.266,514.685L400.192,646.941L400.192,647.052L400.096,646.997L400,647.052L400,646.941L170.925,514.685L170.925,249.774L400,117.517Z" style="fill: none; stroke: white; stroke-width: 34.83px" /></g><g transform="matrix(0.114833,0,0,0.114833,329.364,653.445)"><path d="M400,117.517L629.266,249.774L629.266,514.685L400.192,646.941L400.192,647.052L400.096,646.997L400,647.052L400,646.941L170.925,514.685L170.925,249.774L400,117.517Z" style="fill: none; stroke: white; stroke-width: 34.83px" /></g></g></g><g transform="matrix(0.720342,0,0,0.720342,23.1337,330.63)"><text x="77.471px" y="439.84px" style="font-family: 'Futura-Medium', 'Futura', sans-serif; font-weight: 500; font-size: 50px; fill: white">RARITY</text></g><g transform="matrix(0.911866,0,0,0.911866,252.534,309.097)"><text x="190.763px" y="439.84px" style="font-family: 'Futura-Medium', 'Futura', sans-serif; font-weight: 500; font-size: 50px; fill: white" id="wear_value"></text></g><g transform="matrix(0.720342,0,0,0.720342,340.614,330.63)"><text x="77.471px" y="439.84px" style="font-family: 'Futura-Medium', 'Futura', sans-serif; font-weight: 500; font-size: 50px; fill: white">WEAR</text></g><g transform="matrix(1,0,0,1,11.3386,0)"><g id="clothing"><path d="M643.088,685.842C646.783,685.778 648.661,683.2 649.092,679.318C650.012,671.056 649.138,666.716 649.138,666.716L653.408,666.766C653.408,666.766 651.456,677.988 655.595,682.825C658.992,686.794 662.073,686.445 662.073,686.445L662.462,712.698L623.892,712.698L624.28,686.445C624.28,686.445 626.476,686.794 629.873,682.825C634.012,677.988 632.06,666.766 632.06,666.766L636.417,666.616C636.417,666.616 635.514,670.986 636.433,679.248C636.865,683.129 638.73,685.919 643.088,685.842Z" style="fill: white" /></g></g><g transform="matrix(0.720342,0,0,0.720342,520.614,330.63)"><text x="124.102px" y="439.84px" style="font-family: 'Futura-Medium', 'Futura', sans-serif; font-weight: 500; font-size: 50px; fill: white">SLOT</text></g><g transform="matrix(1,0,0,1,-7.69409,0)"><path d="M82.194,602.738L733.196,602.258C733.979,602.258 734.615,601.621 734.614,600.838C734.614,600.055 733.977,599.42 733.194,599.42L82.192,599.9C81.409,599.901 80.773,600.537 80.774,601.321C80.775,602.104 81.411,602.739 82.194,602.738Z" style="fill: white" /></g><g transform="matrix(1,0,0,1,120.441,145.046)"><text x="90.471px" y="439.84px" style="font-family: 'Futura-Medium', 'Futura', sans-serif; font-weight: 500; font-size: 50px; fill: white">ASSASSIN CAPE</text></g><path id="border" d="M800,801.235L800,-4.106L-0,-4.106L0,801.235L800,801.235ZM260.875,30.644L30.644,30.644C30.644,30.644 30.644,769.356 30.644,769.356C30.644,769.356 769.356,769.356 769.356,769.356L769.356,30.644L539.125,30.644L539.125,61.806L260.875,61.806L260.875,30.644Z" style="fill: rgb(0, 153, 197)" /><g id="guide" transform="matrix(1,0,0,1.04284,1.75676,-22.4672)"><rect x="82.193" y="95.569" width="632.101" height="428.927" style="fill: url(#_Linear3_card_template); stroke: rgb(0, 153, 197); stroke-width: 4.8px" /><rect x="82.193" y="95.569" width="632.101" height="428.927" style="fill: url(#assassin-cap)"/></g><pattern id="assassin-cap" viewBox="0,0,800,800" width="100%" height="100%"><g id="assassin-shirt" transform="matrix(0.997371,0,0,0.997371,1.05174,2.60804)"><path d="M294.497,626.912C225.777,645.697 160.401,673.644 93.624,698.852C63.14,710.359 18.403,720.179 -6.136,742.673C-25.53,760.451 -36.893,792.555 -48.34,815.557C-54.441,827.817 -92.078,902.343 -85.334,914.989C-82.55,920.207 -6.179,929.222 20.652,932.763C114.775,945.183 210.185,942.53 304.67,951.158C324.216,952.943 336.82,957.234 352.146,940.515C364.402,927.145 358.135,854.464 358.651,836.899C361.655,734.642 276.124,684.917 279.816,639.568L294.497,626.912Z" style="fill: rgb(231, 231, 231)" /><clipPath id="_clip1"><path d="M294.497,626.912C225.777,645.697 160.401,673.644 93.624,698.852C63.14,710.359 18.403,720.179 -6.136,742.673C-25.53,760.451 -36.893,792.555 -48.34,815.557C-54.441,827.817 -92.078,902.343 -85.334,914.989C-82.55,920.207 -6.179,929.222 20.652,932.763C114.775,945.183 210.185,942.53 304.67,951.158C324.216,952.943 336.82,957.234 352.146,940.515C364.402,927.145 358.135,854.464 358.651,836.899C361.655,734.642 276.124,684.917 279.816,639.568L294.497,626.912Z" /></clipPath><g clip-path="url(#_clip1)"><path d="M39.745,813.533C39.81,813.515 36.837,800.077 36.656,799.268C34.238,788.473 26.117,766.396 30.446,755.43C32.468,750.305 42.271,747.001 46.682,744.774C62.528,736.776 116.977,711.169 132.581,702.636C135.344,701.124 150.463,695.474 151.088,692.095C151.225,691.358 150.033,691.047 149.536,690.96C138.848,689.094 86.583,712.133 76.413,714.724C65.814,717.424 19.231,727.686 12,734.314C8.884,737.171 23.473,776.782 25.069,781.426" style="fill: white" /><path d="M99.939,700.288C98.037,697.655 101.874,719.354 103.222,726.158C107.251,746.496 114.181,766.398 120.726,786.034C139.368,841.96 161.479,895.428 189.825,947.192C197.982,962.087 209.787,996.637 231.794,988.561C239.733,985.648 280.643,965.573 282.386,956.513C283.825,949.027 256.986,905.129 252.735,896.123C230.216,848.418 206.609,798.268 188.896,748.469C185.195,738.067 176.735,694.301 169.96,688.569C166.382,685.541 130.247,694.596 125.191,695.786L99.939,700.288Z" style="fill: rgb(96, 69, 60)" /><clipPath id="_clip2"><path d="M99.939,700.288C98.037,697.655 101.874,719.354 103.222,726.158C107.251,746.496 114.181,766.398 120.726,786.034C139.368,841.96 161.479,895.428 189.825,947.192C197.982,962.087 209.787,996.637 231.794,988.561C239.733,985.648 280.643,965.573 282.386,956.513C283.825,949.027 256.986,905.129 252.735,896.123C230.216,848.418 206.609,798.268 188.896,748.469C185.195,738.067 176.735,694.301 169.96,688.569C166.382,685.541 130.247,694.596 125.191,695.786L99.939,700.288Z" /></clipPath><g clip-path="url(#_clip2)"><path d="M82.873,690.695C81.687,689.671 83.725,693.712 84.244,695.19C85.325,698.268 86.485,701.336 87.811,704.318C91.805,713.306 96.858,721.238 102.938,728.929C113.691,742.533 119.61,757.179 124.668,773.749C126.525,779.832 129.228,796.188 133.28,800.239C134.22,801.179 132.76,797.63 132.419,796.345C131.712,793.687 130.989,791.033 130.29,788.372C127.699,778.517 125.601,768.704 124.652,758.551C124.603,758.026 123.855,749.55 124.224,749.576C125.502,749.667 128.204,754.28 128.963,755.187C133.098,760.13 137.699,764.692 142.742,768.712C152.707,776.655 164.463,781.857 174.952,789.012C185.068,795.911 193.819,804.594 202.418,813.26C207.378,818.259 212.385,823.517 216.294,829.4C216.761,830.103 221.13,838.67 221.71,838.554C221.926,838.511 221.621,837.059 221.602,836.929C221.012,832.798 220.456,828.668 219.95,824.526C218.102,809.386 216.836,794.234 213.456,779.327C206.041,746.626 215.362,692.978 188.356,677.553C179.084,672.257 114.791,673.093 103.069,675.242" style="fill: rgb(75, 44, 59)" /><path d="M102.881,682.891C101.233,685.211 103.95,694.921 104.282,697.483C106.317,713.198 110.332,728.402 115.151,743.471C122.746,767.218 129.133,791.409 138.145,814.681C153.554,854.471 195.605,942.154 229.591,997.704" style="fill: none; stroke: black; stroke-width: 2.1px" /><path d="M151.852,666.62C150.933,665.763 152.224,669.106 152.484,670.335C153.028,672.906 153.591,675.47 154.192,678.029C156.03,685.852 158.204,693.591 160.651,701.244C168.018,724.279 176.565,746.938 185.021,769.589C195.256,797.003 205.54,826.309 218.46,852.514C235.782,887.644 259.482,943.938 283.335,980.356" style="fill: none; stroke: black; stroke-width: 2.1px" /></g><path d="M99.939,700.288C98.037,697.655 101.874,719.354 103.222,726.158C107.251,746.496 114.181,766.398 120.726,786.034C139.368,841.96 161.479,895.428 189.825,947.192C197.982,962.087 209.787,996.637 231.794,988.561C239.733,985.648 280.643,965.573 282.386,956.513C283.825,949.027 256.986,905.129 252.735,896.123C230.216,848.418 206.609,798.268 188.896,748.469C185.195,738.067 176.735,694.301 169.96,688.569C166.382,685.541 130.247,694.596 125.191,695.786L99.939,700.288Z" style="fill: none; stroke: black; stroke-width: 2.1px" /><path d="M16.905,734.389C17.172,734.125 23.731,759.199 25.853,766.626C32.154,788.676 40.844,806.585 47.601,828.489C62.566,877.004 70.497,928.042 76.223,978.375C77.814,992.366 85.916,1021.08 78.186,1034.06C72.663,1043.33 22.675,1030.83 13.609,1029.24C-32.776,1021.1 -79.904,1014.64 -127.006,1013.06C-143.562,1012.51 -182.496,1020.36 -196.523,1013.85C-220.411,1002.75 -192.672,939.237 -186.239,924.171C-153.266,846.948 -109.344,772.728 -36.492,727.248" style="fill: rgb(165, 35, 59)" /><clipPath id="_clip3"><path d="M16.905,734.389C17.172,734.125 23.731,759.199 25.853,766.626C32.154,788.676 40.844,806.585 47.601,828.489C62.566,877.004 70.497,928.042 76.223,978.375C77.814,992.366 85.916,1021.08 78.186,1034.06C72.663,1043.33 22.675,1030.83 13.609,1029.24C-32.776,1021.1 -79.904,1014.64 -127.006,1013.06C-143.562,1012.51 -182.496,1020.36 -196.523,1013.85C-220.411,1002.75 -192.672,939.237 -186.239,924.171C-153.266,846.948 -109.344,772.728 -36.492,727.248" /></clipPath><g clip-path="url(#_clip3)"><path d="M-119.286,814.134C-113.711,820.631 -88.282,837.494 -82.427,831.121C-62.88,809.844 -42.051,790.747 -18.709,773.721C-15.419,771.321 9.92,756.904 9.92,756.904C9.92,756.904 15.513,767.023 16.164,768.701C19.892,778.32 37.271,823.828 41.084,824.463C42.573,824.711 49.784,819.644 48.89,818.751C48.033,817.894 41.127,802.666 40.199,797.952C35.142,772.285 38.255,749.5 11.706,738.19L-119.286,814.134Z" style="fill: rgb(234, 80, 108)" /></g><path d="M16.905,734.389C17.172,734.125 23.731,759.199 25.853,766.626C32.154,788.676 40.844,806.585 47.601,828.489C62.566,877.004 70.497,928.042 76.223,978.375C77.814,992.366 85.916,1021.08 78.186,1034.06C72.663,1043.33 22.675,1030.83 13.609,1029.24C-32.776,1021.1 -79.904,1014.64 -127.006,1013.06C-143.562,1012.51 -182.496,1020.36 -196.523,1013.85C-220.411,1002.75 -192.672,939.237 -186.239,924.171C-153.266,846.948 -109.344,772.728 -36.492,727.248" style="fill: none; stroke: black; stroke-width: 2.1px" /><path d="M8.14,736.438C8.256,735.668 8.667,737.902 8.914,738.64C9.429,740.183 9.967,741.717 10.501,743.254C12.136,747.955 13.777,752.655 15.387,757.365C20.232,771.53 24.905,785.741 29.672,799.931C35.863,818.366 40.508,837.567 45.234,856.435C52.932,887.17 59.688,919.187 64.921,943.737" style="fill: none; stroke: black; stroke-width: 2.1px" /><path d="M305.889,636.207C307.855,635.45 301.842,637.378 299.825,637.985C295.615,639.253 291.396,640.488 287.165,641.689C274.859,645.181 262.559,648.577 250.368,652.464C214.126,664.019 180.41,682.675 145.612,697.79C79.739,726.404 4.692,736.119 -52.053,782.996C-72.927,800.24 -92.054,819.189 -106.933,841.835C-111.518,848.815 -124.545,874.319 -130.788,877.027C-131.24,877.223 -131.732,877.207 -132.078,876.82C-136.35,872.035 -129.591,855.415 -127.971,850.7C-118.947,824.432 -101.681,799.938 -84.201,778.682C-12.204,691.135 114.16,669.748 216.576,635.976" style="fill: rgb(237, 72, 101)" /><clipPath id="_clip4"><path d="M305.889,636.207C307.855,635.45 301.842,637.378 299.825,637.985C295.615,639.253 291.396,640.488 287.165,641.689C274.859,645.181 262.559,648.577 250.368,652.464C214.126,664.019 180.41,682.675 145.612,697.79C79.739,726.404 4.692,736.119 -52.053,782.996C-72.927,800.24 -92.054,819.189 -106.933,841.835C-111.518,848.815 -124.545,874.319 -130.788,877.027C-131.24,877.223 -131.732,877.207 -132.078,876.82C-136.35,872.035 -129.591,855.415 -127.971,850.7C-118.947,824.432 -101.681,799.938 -84.201,778.682C-12.204,691.135 114.16,669.748 216.576,635.976" /></clipPath><g clip-path="url(#_clip4)"><path d="M-176.602,940.374C-178.213,940.84 -175.082,937.381 -174.2,935.955C-172.298,932.879 -170.513,929.734 -168.591,926.669C-163.2,918.068 -157.598,909.569 -151.933,901.147C-134.797,875.673 -119.856,848.899 -100.262,825.127C-29.429,739.19 52.324,724.443 152.615,692.004C175.362,684.647 197.285,675.586 221.035,672.11C228.691,670.99 239.707,667.917 244.923,675.448C251.074,684.327 243.035,697.371 237.899,704.486C220.572,728.492 193.313,745.797 169.415,762.421C69.196,832.135 -34.752,892.383 -148.491,937.308" style="fill: rgb(109, 45, 74); fill-opacity: 0.7" /></g><path d="M305.889,636.207C307.855,635.45 301.842,637.378 299.825,637.985C295.615,639.253 291.396,640.488 287.165,641.689C274.859,645.181 262.559,648.577 250.368,652.464C214.126,664.019 180.41,682.675 145.612,697.79C79.739,726.404 4.692,736.119 -52.053,782.996C-72.927,800.24 -92.054,819.189 -106.933,841.835C-111.518,848.815 -124.545,874.319 -130.788,877.027C-131.24,877.223 -131.732,877.207 -132.078,876.82C-136.35,872.035 -129.591,855.415 -127.971,850.7C-118.947,824.432 -101.681,799.938 -84.201,778.682C-12.204,691.135 114.16,669.748 216.576,635.976" style="fill: none; stroke: black; stroke-width: 2.1px" /></g><path d="M294.497,626.912C225.777,645.697 160.401,673.644 93.624,698.852C63.14,710.359 18.403,720.179 -6.136,742.673C-25.53,760.451 -36.893,792.555 -48.34,815.557C-54.441,827.817 -92.078,902.343 -85.334,914.989C-82.55,920.207 -6.179,929.222 20.652,932.763C114.775,945.183 210.185,942.53 304.67,951.158C324.216,952.943 336.82,957.234 352.146,940.515C364.402,927.145 358.135,854.464 358.651,836.899C361.655,734.642 276.124,684.917 279.816,639.568L294.497,626.912Z" style="fill: none; stroke: black; stroke-width: 2.1px" /><g transform="matrix(-1,0,0,1,800.197,0)"><path d="M294.497,626.912C225.777,645.697 160.401,673.644 93.624,698.852C63.14,710.359 18.403,720.179 -6.136,742.673C-25.53,760.451 -36.893,792.555 -48.34,815.557C-54.441,827.817 -92.078,902.343 -85.334,914.989C-82.55,920.207 -6.179,929.222 20.652,932.763C114.775,945.183 210.185,942.53 304.67,951.158C324.216,952.943 336.82,957.234 352.146,940.515C364.402,927.145 358.135,854.464 358.651,836.899C361.655,734.642 276.124,684.917 279.816,639.568L294.497,626.912Z" style="fill: rgb(231, 231, 231)" /><clipPath id="_clip5"><path d="M294.497,626.912C225.777,645.697 160.401,673.644 93.624,698.852C63.14,710.359 18.403,720.179 -6.136,742.673C-25.53,760.451 -36.893,792.555 -48.34,815.557C-54.441,827.817 -92.078,902.343 -85.334,914.989C-82.55,920.207 -6.179,929.222 20.652,932.763C114.775,945.183 210.185,942.53 304.67,951.158C324.216,952.943 336.82,957.234 352.146,940.515C364.402,927.145 358.135,854.464 358.651,836.899C361.655,734.642 276.124,684.917 279.816,639.568L294.497,626.912Z" /></clipPath><g clip-path="url(#_clip5)"><path d="M39.745,813.533C39.81,813.515 36.837,800.077 36.656,799.268C34.238,788.473 26.117,766.396 30.446,755.43C32.468,750.305 42.271,747.001 46.682,744.774C62.528,736.776 116.977,711.169 132.581,702.636C135.344,701.124 150.463,695.474 151.088,692.095C151.225,691.358 150.033,691.047 149.536,690.96C138.848,689.094 86.583,712.133 76.413,714.724C65.814,717.424 19.231,727.686 12,734.314C8.884,737.171 23.473,776.782 25.069,781.426" style="fill: white" /><path d="M99.939,700.288C98.037,697.655 101.874,719.354 103.222,726.158C107.251,746.496 114.181,766.398 120.726,786.034C139.368,841.96 161.479,895.428 189.825,947.192C197.982,962.087 209.787,996.637 231.794,988.561C239.733,985.648 280.643,965.573 282.386,956.513C283.825,949.027 256.986,905.129 252.735,896.123C230.216,848.418 206.609,798.268 188.896,748.469C185.195,738.067 176.735,694.301 169.96,688.569C166.382,685.541 130.247,694.596 125.191,695.786L99.939,700.288Z" style="fill: rgb(96, 69, 60)" /><clipPath id="_clip6"><path d="M99.939,700.288C98.037,697.655 101.874,719.354 103.222,726.158C107.251,746.496 114.181,766.398 120.726,786.034C139.368,841.96 161.479,895.428 189.825,947.192C197.982,962.087 209.787,996.637 231.794,988.561C239.733,985.648 280.643,965.573 282.386,956.513C283.825,949.027 256.986,905.129 252.735,896.123C230.216,848.418 206.609,798.268 188.896,748.469C185.195,738.067 176.735,694.301 169.96,688.569C166.382,685.541 130.247,694.596 125.191,695.786L99.939,700.288Z" /></clipPath><g clip-path="url(#_clip6)"><path d="M82.873,690.695C81.687,689.671 83.725,693.712 84.244,695.19C85.325,698.268 86.485,701.336 87.811,704.318C91.805,713.306 96.858,721.238 102.938,728.929C113.691,742.533 119.61,757.179 124.668,773.749C126.525,779.832 129.228,796.188 133.28,800.239C134.22,801.179 132.76,797.63 132.419,796.345C131.712,793.687 130.989,791.033 130.29,788.372C127.699,778.517 125.601,768.704 124.652,758.551C124.603,758.026 123.855,749.55 124.224,749.576C125.502,749.667 128.204,754.28 128.963,755.187C133.098,760.13 137.699,764.692 142.742,768.712C152.707,776.655 164.463,781.857 174.952,789.012C185.068,795.911 193.819,804.594 202.418,813.26C207.378,818.259 212.385,823.517 216.294,829.4C216.761,830.103 221.13,838.67 221.71,838.554C221.926,838.511 221.621,837.059 221.602,836.929C221.012,832.798 220.456,828.668 219.95,824.526C218.102,809.386 216.836,794.234 213.456,779.327C206.041,746.626 215.362,692.978 188.356,677.553C179.084,672.257 114.791,673.093 103.069,675.242" style="fill: rgb(75, 44, 59)" /><path d="M102.881,682.891C101.233,685.211 103.95,694.921 104.282,697.483C106.317,713.198 110.332,728.402 115.151,743.471C122.746,767.218 129.133,791.409 138.145,814.681C153.554,854.471 195.605,942.154 229.591,997.704" style="fill: none; stroke: black; stroke-width: 2.1px" /><path d="M151.852,666.62C150.933,665.763 152.224,669.106 152.484,670.335C153.028,672.906 153.591,675.47 154.192,678.029C156.03,685.852 158.204,693.591 160.651,701.244C168.018,724.279 176.565,746.938 185.021,769.589C195.256,797.003 205.54,826.309 218.46,852.514C235.782,887.644 259.482,943.938 283.335,980.356" style="fill: none; stroke: black; stroke-width: 2.1px" /></g><path d="M99.939,700.288C98.037,697.655 101.874,719.354 103.222,726.158C107.251,746.496 114.181,766.398 120.726,786.034C139.368,841.96 161.479,895.428 189.825,947.192C197.982,962.087 209.787,996.637 231.794,988.561C239.733,985.648 280.643,965.573 282.386,956.513C283.825,949.027 256.986,905.129 252.735,896.123C230.216,848.418 206.609,798.268 188.896,748.469C185.195,738.067 176.735,694.301 169.96,688.569C166.382,685.541 130.247,694.596 125.191,695.786L99.939,700.288Z" style="fill: none; stroke: black; stroke-width: 2.1px" /><path d="M16.905,734.389C17.172,734.125 23.731,759.199 25.853,766.626C32.154,788.676 40.844,806.585 47.601,828.489C62.566,877.004 70.497,928.042 76.223,978.375C77.814,992.366 85.916,1021.08 78.186,1034.06C72.663,1043.33 22.675,1030.83 13.609,1029.24C-32.776,1021.1 -79.904,1014.64 -127.006,1013.06C-143.562,1012.51 -182.496,1020.36 -196.523,1013.85C-220.411,1002.75 -192.672,939.237 -186.239,924.171C-153.266,846.948 -109.344,772.728 -36.492,727.248" style="fill: rgb(165, 35, 59)" /><clipPath id="_clip7"><path d="M16.905,734.389C17.172,734.125 23.731,759.199 25.853,766.626C32.154,788.676 40.844,806.585 47.601,828.489C62.566,877.004 70.497,928.042 76.223,978.375C77.814,992.366 85.916,1021.08 78.186,1034.06C72.663,1043.33 22.675,1030.83 13.609,1029.24C-32.776,1021.1 -79.904,1014.64 -127.006,1013.06C-143.562,1012.51 -182.496,1020.36 -196.523,1013.85C-220.411,1002.75 -192.672,939.237 -186.239,924.171C-153.266,846.948 -109.344,772.728 -36.492,727.248" /></clipPath><g clip-path="url(#_clip7)"><path d="M-119.286,814.134C-113.711,820.631 -88.282,837.494 -82.427,831.121C-62.88,809.844 -42.051,790.747 -18.709,773.721C-15.419,771.321 9.92,756.904 9.92,756.904C9.92,756.904 15.513,767.023 16.164,768.701C19.892,778.32 37.271,823.828 41.084,824.463C42.573,824.711 49.784,819.644 48.89,818.751C48.033,817.894 41.127,802.666 40.199,797.952C35.142,772.285 38.255,749.5 11.706,738.19L-119.286,814.134Z" style="fill: rgb(234, 80, 108)" /></g><path d="M16.905,734.389C17.172,734.125 23.731,759.199 25.853,766.626C32.154,788.676 40.844,806.585 47.601,828.489C62.566,877.004 70.497,928.042 76.223,978.375C77.814,992.366 85.916,1021.08 78.186,1034.06C72.663,1043.33 22.675,1030.83 13.609,1029.24C-32.776,1021.1 -79.904,1014.64 -127.006,1013.06C-143.562,1012.51 -182.496,1020.36 -196.523,1013.85C-220.411,1002.75 -192.672,939.237 -186.239,924.171C-153.266,846.948 -109.344,772.728 -36.492,727.248" style="fill: none; stroke: black; stroke-width: 2.1px" /><path d="M8.14,736.438C8.256,735.668 8.667,737.902 8.914,738.64C9.429,740.183 9.967,741.717 10.501,743.254C12.136,747.955 13.777,752.655 15.387,757.365C20.232,771.53 24.905,785.741 29.672,799.931C35.863,818.366 40.508,837.567 45.234,856.435C52.932,887.17 59.688,919.187 64.921,943.737" style="fill: none; stroke: black; stroke-width: 2.1px" /><path d="M305.889,636.207C307.855,635.45 301.842,637.378 299.825,637.985C295.615,639.253 291.396,640.488 287.165,641.689C274.859,645.181 262.559,648.577 250.368,652.464C214.126,664.019 180.41,682.675 145.612,697.79C79.739,726.404 4.692,736.119 -52.053,782.996C-72.927,800.24 -92.054,819.189 -106.933,841.835C-111.518,848.815 -124.545,874.319 -130.788,877.027C-131.24,877.223 -131.732,877.207 -132.078,876.82C-136.35,872.035 -129.591,855.415 -127.971,850.7C-118.947,824.432 -101.681,799.938 -84.201,778.682C-12.204,691.135 114.16,669.748 216.576,635.976" style="fill: rgb(237, 72, 101)" /><clipPath id="_clip8"><path d="M305.889,636.207C307.855,635.45 301.842,637.378 299.825,637.985C295.615,639.253 291.396,640.488 287.165,641.689C274.859,645.181 262.559,648.577 250.368,652.464C214.126,664.019 180.41,682.675 145.612,697.79C79.739,726.404 4.692,736.119 -52.053,782.996C-72.927,800.24 -92.054,819.189 -106.933,841.835C-111.518,848.815 -124.545,874.319 -130.788,877.027C-131.24,877.223 -131.732,877.207 -132.078,876.82C-136.35,872.035 -129.591,855.415 -127.971,850.7C-118.947,824.432 -101.681,799.938 -84.201,778.682C-12.204,691.135 114.16,669.748 216.576,635.976" /></clipPath><g clip-path="url(#_clip8)"><path d="M-176.602,940.374C-178.213,940.84 -175.082,937.381 -174.2,935.955C-172.298,932.879 -170.513,929.734 -168.591,926.669C-163.2,918.068 -157.598,909.569 -151.933,901.147C-134.797,875.673 -119.856,848.899 -100.262,825.127C-29.429,739.19 52.324,724.443 152.615,692.004C175.362,684.647 197.285,675.586 221.035,672.11C228.691,670.99 239.707,667.917 244.923,675.448C251.074,684.327 243.035,697.371 237.899,704.486C220.572,728.492 193.313,745.797 169.415,762.421C69.196,832.135 -34.752,892.383 -148.491,937.308" style="fill: rgb(109, 45, 74); fill-opacity: 0.7" /></g><path d="M305.889,636.207C307.855,635.45 301.842,637.378 299.825,637.985C295.615,639.253 291.396,640.488 287.165,641.689C274.859,645.181 262.559,648.577 250.368,652.464C214.126,664.019 180.41,682.675 145.612,697.79C79.739,726.404 4.692,736.119 -52.053,782.996C-72.927,800.24 -92.054,819.189 -106.933,841.835C-111.518,848.815 -124.545,874.319 -130.788,877.027C-131.24,877.223 -131.732,877.207 -132.078,876.82C-136.35,872.035 -129.591,855.415 -127.971,850.7C-118.947,824.432 -101.681,799.938 -84.201,778.682C-12.204,691.135 114.16,669.748 216.576,635.976" style="fill: none; stroke: black; stroke-width: 2.1px" /></g><path d="M294.497,626.912C225.777,645.697 160.401,673.644 93.624,698.852C63.14,710.359 18.403,720.179 -6.136,742.673C-25.53,760.451 -36.893,792.555 -48.34,815.557C-54.441,827.817 -92.078,902.343 -85.334,914.989C-82.55,920.207 -6.179,929.222 20.652,932.763C114.775,945.183 210.185,942.53 304.67,951.158C324.216,952.943 336.82,957.234 352.146,940.515C364.402,927.145 358.135,854.464 358.651,836.899C361.655,734.642 276.124,684.917 279.816,639.568L294.497,626.912Z" style="fill: none; stroke: black; stroke-width: 2.1px" /></g></g><g transform="matrix(1.01049,0,0,1.01049,-4.19221,-6.31731)"><g id="assassin-red-bits"><path d="M406.617,536.005C421.19,535.53 435.793,535.633 450.338,536.628C505.437,540.395 532.169,563.611 579.854,585.035C603.768,595.779 631.134,600.043 652.735,615.401C669.72,627.476 686.127,644.837 698.309,661.716C700.545,664.814 705.415,677.218 705.415,677.218C705.415,677.218 685.168,678.229 676.276,680.353C661.934,683.78 640.699,688.163 626.079,697.977C607.865,710.203 593.245,731.34 574.878,765.623C567.398,779.585 569.595,770.136 565.423,763.969C546.656,736.227 530.078,645.937 515.342,615.897C499.957,584.536 299.162,584.536 283.777,615.897C269.041,645.937 258.075,723.272 239.308,751.014C235.136,757.181 230.732,763.15 226.984,769.605C225.667,771.872 219.358,752.706 210.416,743.311C192.257,724.231 191.253,710.203 173.04,697.977C158.419,688.163 137.185,683.78 122.843,680.353C113.951,678.229 93.704,677.218 93.704,677.218C93.704,677.218 98.574,664.814 100.81,661.716C112.992,644.837 129.399,627.476 146.384,615.401C167.984,600.043 195.351,595.779 219.265,585.035C266.95,563.611 293.682,540.395 348.781,536.628C363.326,535.633 377.929,535.53 392.502,536.005C394.666,535.812 397.318,535.884 399.559,535.975C401.802,535.884 404.454,535.811 406.617,536.005Z" style="fill: rgb(165, 35, 59)" /><clipPath id="_clip10"><path d="M406.617,536.005C421.19,535.53 435.793,535.633 450.338,536.628C505.437,540.395 532.169,563.611 579.854,585.035C603.768,595.779 631.134,600.043 652.735,615.401C669.72,627.476 686.127,644.837 698.309,661.716C700.545,664.814 705.415,677.218 705.415,677.218C705.415,677.218 685.168,678.229 676.276,680.353C661.934,683.78 640.699,688.163 626.079,697.977C607.865,710.203 593.245,731.34 574.878,765.623C567.398,779.585 569.595,770.136 565.423,763.969C546.656,736.227 530.078,645.937 515.342,615.897C499.957,584.536 299.162,584.536 283.777,615.897C269.041,645.937 258.075,723.272 239.308,751.014C235.136,757.181 230.732,763.15 226.984,769.605C225.667,771.872 219.358,752.706 210.416,743.311C192.257,724.231 191.253,710.203 173.04,697.977C158.419,688.163 137.185,683.78 122.843,680.353C113.951,678.229 93.704,677.218 93.704,677.218C93.704,677.218 98.574,664.814 100.81,661.716C112.992,644.837 129.399,627.476 146.384,615.401C167.984,600.043 195.351,595.779 219.265,585.035C266.95,563.611 293.682,540.395 348.781,536.628C363.326,535.633 377.929,535.53 392.502,536.005C394.666,535.812 397.318,535.884 399.559,535.975C401.802,535.884 404.454,535.811 406.617,536.005Z" /></clipPath><g clip-path="url(#_clip10)"><path d="M233.064,574.572C233.356,574.318 233.485,574.232 233.262,574.508L233.064,574.572C232.538,575.028 231.486,576.028 231.01,576.451C229.334,577.939 227.622,579.384 225.902,580.82C220.981,584.929 216.065,588.99 210.94,592.843C198.348,602.31 183.531,609.271 171.729,619.685C167.431,623.477 161.879,629.762 164.333,635.971C166.905,642.478 176.903,642.13 182.557,641.408C184.578,641.15 190.303,640.562 190.386,640.833C190.61,641.559 185.552,644.055 185.071,644.319C179.053,647.623 173.819,649.285 166.795,648.627C161.93,648.171 157.159,645.634 154.498,641.716C154.243,641.342 151.121,635.945 151.03,635.938C149.624,635.83 145.888,639.878 144.993,640.632C141.434,643.628 137.519,647.315 135.799,649.677C134.209,651.861 130.01,659.157 130.01,659.157C130.01,659.157 141.597,664.161 146.209,666.714C162.529,675.748 179.47,689.193 189.664,704.767C192.12,708.52 194.569,712.296 196.675,716.26C197.087,717.035 198.813,719.505 198.179,720.455C197.736,721.12 196.085,720.568 195.538,720.422C192.682,719.66 190,718.273 187.331,717.035C176.314,711.928 165.171,707.149 153.807,702.862C138.323,697.02 122.486,691.958 106.487,687.723C101.875,686.502 97.191,685.584 92.491,684.776C90.573,684.445 87.543,684.459 86.009,683.054C83.662,680.905 87.369,675.655 88.433,673.792C93.481,664.959 99.854,656.87 106.487,649.185C132.515,619.026 165.661,596.353 203.584,584.071L233.064,574.572ZM567.091,574.572C567.617,575.028 568.669,576.028 569.145,576.451C570.821,577.939 572.533,579.384 574.253,580.82C579.174,584.929 584.09,588.99 589.215,592.843C601.807,602.31 616.624,609.271 628.426,619.685C632.724,623.477 638.276,629.762 635.822,635.971C633.25,642.478 623.252,642.13 617.598,641.408C615.577,641.15 609.852,640.562 609.769,640.833C609.545,641.559 614.603,644.055 615.084,644.319C621.102,647.623 626.336,649.285 633.36,648.627C638.225,648.171 642.996,645.634 645.657,641.716C645.912,641.342 649.034,635.945 649.125,635.938C650.531,635.83 654.267,639.878 655.162,640.632C658.721,643.628 662.636,647.315 664.356,649.677C665.946,651.861 670.144,659.157 670.144,659.157C670.144,659.157 658.558,664.161 653.946,666.714C637.626,675.748 620.685,689.193 610.491,704.767C608.035,708.52 605.586,712.296 603.48,716.26C603.068,717.035 601.342,719.505 601.976,720.455C602.419,721.12 604.07,720.568 604.617,720.422C607.473,719.66 610.155,718.273 612.824,717.035C623.841,711.928 634.984,707.149 646.348,702.862C661.832,697.02 677.669,691.958 693.668,687.723C698.28,686.502 702.964,685.584 707.664,684.776C709.582,684.445 712.612,684.459 714.146,683.054C716.493,680.905 712.786,675.655 711.722,673.792C706.674,664.959 700.301,656.87 693.668,649.185C667.64,619.026 634.494,596.353 596.571,584.071L567.091,574.572C566.799,574.318 566.67,574.232 566.893,574.508L567.091,574.572Z" style="fill: rgb(234, 80, 108)" /><path d="M399.965,516.261C411.451,516.064 423.556,518.959 434.178,521.203C456.817,525.987 479.332,531.42 501.706,537.319C513.645,540.467 525.562,543.795 537.226,547.858C540.994,549.17 544.732,550.567 548.402,552.135C549.06,552.416 554.726,555.179 554.249,555.279L549.956,559.942C554.522,563.05 559.13,566.091 563.637,569.286C566.002,570.964 568.371,572.645 570.658,574.43C571.654,575.207 580.362,581.329 579.234,583.064C577.991,584.976 568.79,581.619 567.154,581.225C554.963,578.29 544.786,574.983 532.493,572.481C529.191,571.809 518.7,569.36 517.874,570.286C515.622,572.811 526.561,588.75 525.833,591.392C525.192,593.72 514.12,596.242 513.514,597.862C512.353,600.965 520.837,604.181 523.097,604.721C535.387,607.66 547.91,609.255 560.094,612.775C565.284,614.274 570.412,616.028 575.524,617.776C577.176,618.341 583.625,620.993 582.996,620.364C576.84,614.207 563.273,610.812 555.435,607.754C554.709,607.471 546.009,604.698 546.232,603.805C546.465,602.872 550.796,602.58 551.524,602.456C557.519,601.436 563.761,601.328 569.825,601.482C590.135,601.996 609.989,609.178 627.279,619.596C633.009,623.049 643.438,630.649 639.604,638.73C636.65,644.958 625.535,643.347 620.303,642.286C601.189,638.409 583.275,627.518 564.779,621.403C563.124,620.856 541.746,615.045 540.813,615.791C540.722,615.864 548.713,623.399 549.123,623.934C552.837,628.788 557.308,636.069 559.616,641.71C566.714,659.062 567.369,678.698 567.952,697.254C568.057,700.604 571.134,712.524 568.431,715.226C568.29,715.368 566.855,711.669 566.773,711.432C565.943,709.049 565.1,706.666 564.185,704.314C561.262,696.796 557.875,689.411 554.525,682.076C544.478,660.078 532.039,636.15 511.546,622.119C500.05,614.248 486.977,612.939 473.549,610.71C456.932,607.95 440.538,604.994 423.608,605.334C418.897,605.429 414.181,605.518 409.467,605.632C407.532,606.66 403.604,606.04 402.167,605.986C401.433,605.958 400.699,605.932 399.965,605.907C399.231,605.932 398.497,605.958 397.763,605.986C396.325,606.04 392.397,606.66 390.462,605.632C385.749,605.518 381.032,605.429 376.322,605.334C359.391,604.994 342.997,607.95 326.38,610.71C312.952,612.939 299.879,614.248 288.383,622.119C267.89,636.15 255.452,660.078 245.405,682.076C242.055,689.411 238.668,696.796 235.744,704.314C234.83,706.666 233.986,709.049 233.156,711.432C233.074,711.669 231.639,715.368 231.498,715.226C228.795,712.524 231.872,700.604 231.978,697.254C232.561,678.698 233.215,659.062 240.314,641.71C242.622,636.069 247.092,628.788 250.807,623.934C251.216,623.399 259.208,615.864 259.117,615.791C258.184,615.045 236.805,620.856 235.15,621.403C216.654,627.518 198.741,638.409 179.627,642.286C174.395,643.347 163.279,644.958 160.325,638.73C156.492,630.649 166.92,623.049 172.651,619.596C189.94,609.178 209.794,601.996 230.104,601.482C236.168,601.328 242.41,601.436 248.405,602.456C249.133,602.58 253.464,602.872 253.697,603.805C253.92,604.698 245.22,607.471 244.495,607.754C236.656,610.812 223.09,614.207 216.933,620.364C216.304,620.993 222.753,618.341 224.406,617.776C229.517,616.028 234.645,614.274 239.836,612.775C252.02,609.255 264.543,607.66 276.832,604.721C279.092,604.181 287.576,600.965 286.416,597.862C285.81,596.242 274.737,593.72 274.096,591.392C273.369,588.75 284.307,572.811 282.056,570.286C281.229,569.36 270.739,571.809 267.437,572.481C255.143,574.983 244.966,578.29 232.776,581.225C231.14,581.619 221.938,584.976 220.695,583.064C219.568,581.329 228.275,575.207 229.272,574.43C231.559,572.645 233.927,570.964 236.293,569.286C240.799,566.091 245.407,563.05 249.974,559.942L245.681,555.279C245.203,555.179 250.869,552.416 251.527,552.135C255.197,550.567 258.935,549.17 262.703,547.858C274.368,543.795 286.284,540.467 298.223,537.319C320.597,531.42 343.112,525.987 365.751,521.203C376.374,518.959 388.478,516.064 399.965,516.261Z" style="fill: rgb(93, 29, 66)" /><path d="M252.289,603.655C246.411,602.666 236.931,602.629 230.985,602.652C209.716,602.734 187.764,609.977 170.589,622.536C166.754,625.34 156.521,633.311 160.209,639.458C162.005,642.45 164.697,643.672 167.772,643.855C176.924,644.398 186.344,641.76 194.936,638.896C226.155,628.489 254.921,607.076 289.137,607.527" style="fill: none; stroke: black; stroke-width: 2.1px" /><g transform="matrix(-1,0,0,1,799.7,0)"><path d="M252.289,603.655C246.411,602.666 236.931,602.629 230.985,602.652C209.716,602.734 187.764,609.977 170.589,622.536C166.754,625.34 156.521,633.311 160.209,639.458C162.005,642.45 164.697,643.672 167.772,643.855C176.924,644.398 186.344,641.76 194.936,638.896C226.155,628.489 254.921,607.076 289.137,607.527" style="fill: none; stroke: black; stroke-width: 2.1px" /></g><path d="M399.435,528.875C440.136,528.729 479.406,534.543 517.59,544.889L589.532,574.741L681.974,617.167L710.909,663.997L708.916,698.986L623.975,716.45L590.806,781.893L573.938,786.162C573.938,786.162 562.532,786.602 565.654,775.764C568.776,764.925 594.445,715.948 608.373,703.219C622.301,690.49 654.735,679.391 661.624,677.09C668.513,674.789 692.091,670.681 692.091,670.681C692.091,670.681 690.699,663.079 681.705,652.429C672.711,641.778 658.399,627.133 637.324,614.333C616.249,601.534 597.524,598.418 585.123,593.923C572.723,589.428 546.878,577.325 539.113,571.922C531.347,566.519 520.569,560.046 503.04,554.524C483.602,548.401 475.158,545.469 446.727,544.09C435.527,543.546 417.314,543.426 399.995,542.918C382.677,543.426 365.185,543.337 353.986,543.88C325.555,545.259 314.677,546.768 295.831,554.524C280.23,560.944 267.523,566.519 259.758,571.922C251.992,577.325 226.147,589.428 213.747,593.923C201.347,598.418 182.621,601.534 161.547,614.333C140.472,627.133 126.16,641.778 117.166,652.429C108.171,663.079 106.779,670.681 106.779,670.681C106.779,670.681 130.357,674.789 137.247,677.09C144.136,679.391 181.117,690.126 191.991,705.546C203.484,721.845 227.68,753.141 241.935,786.018C246.422,796.366 224.933,786.162 224.933,786.162L208.065,781.893L174.895,716.45L89.955,698.986L87.962,663.997L116.896,617.167L209.339,574.741L281.28,544.889C319.465,534.543 358.734,528.729 399.435,528.875Z" style="fill: rgb(231, 231, 231); stroke: black; stroke-width: 2.1px" /></g><path d="M406.617,536.005C421.19,535.53 435.793,535.633 450.338,536.628C505.437,540.395 532.169,563.611 579.854,585.035C603.768,595.779 631.134,600.043 652.735,615.401C669.72,627.476 686.127,644.837 698.309,661.716C700.545,664.814 705.415,677.218 705.415,677.218C705.415,677.218 685.168,678.229 676.276,680.353C661.934,683.78 640.699,688.163 626.079,697.977C607.865,710.203 593.245,731.34 574.878,765.623C567.398,779.585 569.595,770.136 565.423,763.969C546.656,736.227 530.078,645.937 515.342,615.897C499.957,584.536 299.162,584.536 283.777,615.897C269.041,645.937 258.075,723.272 239.308,751.014C235.136,757.181 230.732,763.15 226.984,769.605C225.667,771.872 219.358,752.706 210.416,743.311C192.257,724.231 191.253,710.203 173.04,697.977C158.419,688.163 137.185,683.78 122.843,680.353C113.951,678.229 93.704,677.218 93.704,677.218C93.704,677.218 98.574,664.814 100.81,661.716C112.992,644.837 129.399,627.476 146.384,615.401C167.984,600.043 195.351,595.779 219.265,585.035C266.95,563.611 293.682,540.395 348.781,536.628C363.326,535.633 377.929,535.53 392.502,536.005C394.666,535.812 397.318,535.884 399.559,535.975C401.802,535.884 404.454,535.811 406.617,536.005Z" style="fill: none; stroke: black; stroke-width: 2.1px" /></g></g><g id="assassin-collar" transform="matrix(0.990533,0,0,0.990533,3.78391,1.08813)"><path id="shadow1" d="M292.885,607.359C293.94,606.858 292.704,609.686 292.632,610.851C292.494,613.09 292.349,615.329 292.223,617.569C291.844,624.346 291.882,631.179 293.107,637.871C296.68,657.384 313.753,682.431 324.724,698.695C345.766,729.889 363.748,760.16 371.589,797.509C377.266,824.556 374.925,848.762 374.232,869.907C373.78,883.68 372.591,894.404 369.809,907.902C369.053,911.571 368.792,919.715 365.67,922.439C363.882,923.999 361.189,919.127 360.569,918.121C356.857,912.102 353.868,905.516 351.002,899.066C338.272,870.424 332.005,840.013 324.368,809.767C320.473,794.34 315.971,779.1 310.468,764.164C306.73,754.018 302.682,743.998 298.529,734.017C295.341,726.354 292.066,718.727 288.889,711.06C277.121,682.658 261.397,634.785 286.17,607.535L292.885,607.359ZM507.211,607.359C506.157,606.858 507.393,609.686 507.465,610.851C507.603,613.09 507.748,615.329 507.874,617.569C508.253,624.346 508.215,631.179 506.99,637.871C503.417,657.384 491.062,676.957 480.091,693.221C459.049,724.415 432.858,756.066 425.018,793.416C419.341,820.463 425.171,848.762 425.865,869.907C426.316,883.68 427.506,894.404 430.288,907.902C431.044,911.571 431.305,919.715 434.427,922.439C436.215,923.999 438.908,919.127 439.528,918.121C443.239,912.102 446.228,905.516 449.095,899.066C461.825,870.424 468.092,840.013 475.728,809.767C479.624,794.34 484.126,779.1 489.629,764.164C493.367,754.018 497.415,743.998 501.568,734.017C504.756,726.354 508.031,718.727 511.208,711.06C522.976,682.658 538.7,634.785 513.927,607.535L507.211,607.359Z" style="fill: rgb(56, 25, 57); fill-opacity: 0.5" /><g id="collar"><g transform="matrix(-1,0,0,1,798.8,0)"><path d="M280.908,658.174C284.689,663.042 286.531,671.551 289.302,677.108C296.497,691.536 304.36,705.589 312.339,719.593C346.6,779.73 368.233,797.056 376.537,868.529C378.483,885.28 377.362,902.802 379.281,919.556C379.444,920.975 382.048,933.92 380.277,934.628C379.057,935.116 320.626,929.426 317.563,914.916C311.526,886.319 261.29,842.527 243.578,816.25C220.782,782.43 233.659,749.989 257.185,678.569L280.908,658.174Z" style="fill: rgb(231, 231, 231)" /><clipPath id="_clip12"><path d="M280.908,658.174C284.689,663.042 286.531,671.551 289.302,677.108C296.497,691.536 304.36,705.589 312.339,719.593C346.6,779.73 368.233,797.056 376.537,868.529C378.483,885.28 377.362,902.802 379.281,919.556C379.444,920.975 382.048,933.92 380.277,934.628C379.057,935.116 320.626,929.426 317.563,914.916C311.526,886.319 261.29,842.527 243.578,816.25C220.782,782.43 233.659,749.989 257.185,678.569L280.908,658.174Z" /></clipPath><g clip-path="url(#_clip12)"><g transform="matrix(-0.854447,0,0,0.854447,740.621,167.596)"><path d="M533.734,660.01C533.051,659.253 542.09,681.182 543.528,687.644C547.675,706.277 541.375,726.212 535.435,744.178C527.205,769.071 516.656,790.332 502.419,812.083C496.938,820.457 491.117,828.577 485.149,836.609C484.519,837.458 479.064,843.776 481.7,844.56C486.558,846.004 495.262,839.891 499.233,837.871C514.156,830.277 529.163,821.747 542.165,811.12C571.3,787.308 589.578,763.937 600.675,728.036C603.848,717.769 609.651,707.863 607.209,696.778C603.718,680.934 588.678,666.442 577.858,655.125" style="fill: rgb(165, 35, 59); stroke: black; stroke-width: 2.1px" /></g><g transform="matrix(-0.854447,0,0,0.854447,740.621,167.596)"><path d="M622.443,691.318C587.972,719.183 585.29,748.643 556.114,781.531C546.198,792.707 535.726,803.394 525.387,814.174C521.423,818.306 517.315,822.412 513.667,826.831C513.171,827.432 510.067,830.954 511.97,831.525C514.95,832.419 519.827,829.661 522.402,828.51C532.295,824.091 541.522,818.09 549.942,811.302C580.287,786.837 593.431,760.703 610.428,727.62C617.865,713.144 633.801,707.044 622.443,691.318Z" style="fill: rgb(231, 231, 231); stroke: black; stroke-width: 2.1px" /></g><g transform="matrix(-0.854447,0,0,0.854447,740.621,167.596)"><path d="M614.185,767.953C610.3,770.7 593.293,763.014 589.554,761.875C566.396,754.822 544.748,747.091 520.162,746.814C489.141,746.464 462.11,753.814 441.514,778.215C433.286,787.962 426.978,799.254 421.875,810.903C421.166,812.522 418.483,821.721 415.968,821.592C415.369,821.561 415.204,820.633 415.124,820.194C413.664,812.163 417.294,801.65 419.028,793.933C419.146,793.407 419.266,792.881 419.386,792.356C425.945,763.758 438.372,737.596 461.63,718.771C492.426,693.844 539.575,679.697 575.012,703.803C589.167,713.432 598.887,728.487 607.53,742.927" style="fill: rgb(76, 13, 78); fill-opacity: 0.5" /></g></g><path d="M280.908,658.174C284.689,663.042 286.531,671.551 289.302,677.108C296.497,691.536 304.36,705.589 312.339,719.593C346.6,779.73 368.233,797.056 376.537,868.529C378.483,885.28 377.362,902.802 379.281,919.556C379.444,920.975 382.048,933.92 380.277,934.628C379.057,935.116 320.626,929.426 317.563,914.916C311.526,886.319 261.29,842.527 243.578,816.25C220.782,782.43 233.659,749.989 257.185,678.569L280.908,658.174Z" style="fill: none; stroke: black; stroke-width: 2.1px" /></g><g transform="matrix(1,0,0,1,-0.246501,0)"><path d="M280.908,658.174C284.689,663.042 286.531,671.551 289.302,677.108C296.497,691.536 304.36,705.589 312.339,719.593C346.6,779.73 368.233,797.056 376.537,868.529C378.483,885.28 377.362,902.802 379.281,919.556C379.444,920.975 382.048,933.92 380.277,934.628C379.057,935.116 320.626,929.426 317.563,914.916C311.526,886.319 261.29,842.527 243.578,816.25C220.782,782.43 233.659,749.989 257.185,678.569L280.908,658.174Z" style="fill: rgb(231, 231, 231)" /><clipPath id="_clip13"><path d="M280.908,658.174C284.689,663.042 286.531,671.551 289.302,677.108C296.497,691.536 304.36,705.589 312.339,719.593C346.6,779.73 368.233,797.056 376.537,868.529C378.483,885.28 377.362,902.802 379.281,919.556C379.444,920.975 382.048,933.92 380.277,934.628C379.057,935.116 320.626,929.426 317.563,914.916C311.526,886.319 261.29,842.527 243.578,816.25C220.782,782.43 233.659,749.989 257.185,678.569L280.908,658.174Z" /></clipPath><g clip-path="url(#_clip13)"><g transform="matrix(-0.854447,0,0,0.854447,740.621,167.596)"><path d="M533.734,660.01C533.051,659.253 542.09,681.182 543.528,687.644C547.675,706.277 541.375,726.212 535.435,744.178C527.205,769.071 516.656,790.332 502.419,812.083C496.938,820.457 491.117,828.577 485.149,836.609C484.519,837.458 479.064,843.776 481.7,844.56C486.558,846.004 495.262,839.891 499.233,837.871C514.156,830.277 529.163,821.747 542.165,811.12C571.3,787.308 589.578,763.937 600.675,728.036C603.848,717.769 609.651,707.863 607.209,696.778C603.718,680.934 588.678,666.442 577.858,655.125" style="fill: rgb(165, 35, 59); stroke: black; stroke-width: 2.1px" /></g><g transform="matrix(-0.854447,0,0,0.854447,740.621,167.596)"><path d="M622.443,691.318C587.972,719.183 585.29,748.643 556.114,781.531C546.198,792.707 535.726,803.394 525.387,814.174C521.423,818.306 517.315,822.412 513.667,826.831C513.171,827.432 510.067,830.954 511.97,831.525C514.95,832.419 519.827,829.661 522.402,828.51C532.295,824.091 541.522,818.09 549.942,811.302C580.287,786.837 593.431,760.703 610.428,727.62C617.865,713.144 633.801,707.044 622.443,691.318Z" style="fill: rgb(231, 231, 231); stroke: black; stroke-width: 2.1px" /></g><g transform="matrix(-0.854447,0,0,0.854447,740.621,167.596)"><path d="M614.185,767.953C610.3,770.7 593.293,763.014 589.554,761.875C566.396,754.822 544.748,747.091 520.162,746.814C489.141,746.464 462.11,753.814 441.514,778.215C433.286,787.962 426.978,799.254 421.875,810.903C421.166,812.522 418.483,821.721 415.968,821.592C415.369,821.561 415.204,820.633 415.124,820.194C413.664,812.163 417.294,801.65 419.028,793.933C419.146,793.407 419.266,792.881 419.386,792.356C425.945,763.758 438.372,737.596 461.63,718.771C492.426,693.844 539.575,679.697 575.012,703.803C589.167,713.432 598.887,728.487 607.53,742.927" style="fill: rgb(76, 13, 78); fill-opacity: 0.5" /></g></g><path d="M280.908,658.174C284.689,663.042 286.531,671.551 289.302,677.108C296.497,691.536 304.36,705.589 312.339,719.593C346.6,779.73 368.233,797.056 376.537,868.529C378.483,885.28 377.362,902.802 379.281,919.556C379.444,920.975 382.048,933.92 380.277,934.628C379.057,935.116 320.626,929.426 317.563,914.916C311.526,886.319 261.29,842.527 243.578,816.25C220.782,782.43 233.659,749.989 257.185,678.569L280.908,658.174Z" style="fill: none; stroke: black; stroke-width: 2.1px" /></g><path d="M293.103,604.868C293.103,604.868 266.006,609.898 250.473,639.285C234.939,668.672 231.64,707.449 227.196,727.206C222.752,746.964 208.067,803.089 202.633,811.867C197.198,820.644 193.267,828.004 193.267,828.004C193.267,828.004 217.496,824.198 226.938,815.287C236.38,806.377 245.384,794.345 254.937,788.329C264.49,782.314 274.754,775.339 292.195,775.526C309.635,775.712 325.821,777.709 341.259,787.677C356.697,797.646 365.289,816.789 365.289,816.789C365.289,816.789 364.123,776.697 352.766,754.114C340.89,730.499 330.189,711.629 324.119,702.938C318.049,694.248 291.072,667.253 288.697,657.133C286.322,647.014 282.58,630.083 293.103,604.868Z" style="fill: rgb(231, 231, 231)" /><clipPath id="_clip14"><path d="M293.103,604.868C293.103,604.868 266.006,609.898 250.473,639.285C234.939,668.672 231.64,707.449 227.196,727.206C222.752,746.964 208.067,803.089 202.633,811.867C197.198,820.644 193.267,828.004 193.267,828.004C193.267,828.004 217.496,824.198 226.938,815.287C236.38,806.377 245.384,794.345 254.937,788.329C264.49,782.314 274.754,775.339 292.195,775.526C309.635,775.712 325.821,777.709 341.259,787.677C356.697,797.646 365.289,816.789 365.289,816.789C365.289,816.789 364.123,776.697 352.766,754.114C340.89,730.499 330.189,711.629 324.119,702.938C318.049,694.248 291.072,667.253 288.697,657.133C286.322,647.014 282.58,630.083 293.103,604.868Z" /></clipPath><g clip-path="url(#_clip14)"><path d="M212.024,736.163C213.819,727.509 225.282,713.082 230.03,705.409C237.192,693.835 246.229,666.747 260.288,662.856C270.679,659.98 278.139,670.796 281.854,678.65C286.234,687.91 289.997,697.244 295.435,705.989C304.964,721.311 316.594,736.324 320.412,754.348C320.75,755.944 321.074,757.552 321.35,759.16C322.43,765.433 320.636,766.014 314.364,766.014C312.422,766.014 310.481,766.093 308.542,766.191C304.156,766.412 299.805,767.001 295.48,767.747C280.276,770.368 265.25,775.523 253.919,786.361C249.826,790.276 246.601,794.998 243.429,799.661C242.704,800.726 240.039,803.579 240.405,805.041C240.708,806.253 244.356,804.388 244.836,804.175C249.645,802.037 254.173,799.287 258.93,797.034C270.935,791.347 283.346,787.844 296.688,787.619C313.36,787.338 330.129,791.457 344.065,800.748C346.229,802.191 356.222,808.948 359.02,804.55C360.133,802.801 358.619,799.847 357.977,798.204C355.744,792.491 352.378,787.263 350.113,781.521C346.195,771.592 343.854,761.107 339.76,751.23C334.193,737.797 326.631,725.028 320.258,711.96C309.091,689.063 295.973,667.927 294.53,641.808C293.934,631.014 295.696,620.635 297.372,610.027C297.977,606.205 299.441,599.719 296.644,596.396C292.904,591.954 285.704,593.43 280.966,594.746C267.657,598.443 255.483,606.73 245.774,616.395C238.361,623.775 232.275,632.485 227.259,641.643C218.407,657.806 213.824,675.68 210.312,693.638" style="fill: rgb(173, 144, 174)" /><path d="M241.609,658.712C240.261,658.002 240.85,661.664 240.516,663.151C239.85,666.122 239.176,669.095 238.581,672.082C236.794,681.052 235.488,690.129 234.631,699.235C231.771,729.624 224.975,760.95 217.039,790.389C215.928,794.508 210.534,818.119 205.662,818.119C191.906,818.119 198.134,791.831 199.365,784.889C205.164,752.183 215.539,717.94 228.61,687.318" style="fill: rgb(231, 231, 231)" /></g><path d="M293.103,604.868C293.103,604.868 266.006,609.898 250.473,639.285C234.939,668.672 231.64,707.449 227.196,727.206C222.752,746.964 208.067,803.089 202.633,811.867C197.198,820.644 193.267,828.004 193.267,828.004C193.267,828.004 217.496,824.198 226.938,815.287C236.38,806.377 245.384,794.345 254.937,788.329C264.49,782.314 274.754,775.339 292.195,775.526C309.635,775.712 325.821,777.709 341.259,787.677C356.697,797.646 365.289,816.789 365.289,816.789C365.289,816.789 364.123,776.697 352.766,754.114C340.89,730.499 330.189,711.629 324.119,702.938C318.049,694.248 291.072,667.253 288.697,657.133C286.322,647.014 282.58,630.083 293.103,604.868Z" style="fill: none; stroke: black; stroke-width: 2.1px" /><g transform="matrix(-1,0,0,1,799.422,0)"><path d="M293.103,604.868C293.103,604.868 266.006,609.898 250.473,639.285C234.939,668.672 231.64,707.449 227.196,727.206C222.752,746.964 208.067,803.089 202.633,811.867C197.198,820.644 193.267,828.004 193.267,828.004C193.267,828.004 217.496,824.198 226.938,815.287C236.38,806.377 245.384,794.345 254.937,788.329C264.49,782.314 274.754,775.339 292.195,775.526C309.635,775.712 325.821,777.709 341.259,787.677C356.697,797.646 367.645,820.734 367.645,820.734C367.645,820.734 362.609,774.991 353.387,756.877C344.165,738.763 329.64,713.057 323.57,704.367C317.5,695.676 291.072,667.253 288.697,657.133C286.322,647.014 282.58,630.083 293.103,604.868Z" style="fill: rgb(231, 231, 231)" /><clipPath id="_clip15"><path d="M293.103,604.868C293.103,604.868 266.006,609.898 250.473,639.285C234.939,668.672 231.64,707.449 227.196,727.206C222.752,746.964 208.067,803.089 202.633,811.867C197.198,820.644 193.267,828.004 193.267,828.004C193.267,828.004 217.496,824.198 226.938,815.287C236.38,806.377 245.384,794.345 254.937,788.329C264.49,782.314 274.754,775.339 292.195,775.526C309.635,775.712 325.821,777.709 341.259,787.677C356.697,797.646 367.645,820.734 367.645,820.734C367.645,820.734 362.609,774.991 353.387,756.877C344.165,738.763 329.64,713.057 323.57,704.367C317.5,695.676 291.072,667.253 288.697,657.133C286.322,647.014 282.58,630.083 293.103,604.868Z" /></clipPath><g clip-path="url(#_clip15)"><path d="M212.024,736.163C213.819,727.509 225.282,713.082 230.03,705.409C237.192,693.835 246.229,666.747 260.288,662.856C270.679,659.98 278.139,670.796 281.854,678.65C286.234,687.91 289.997,697.244 295.435,705.989C304.964,721.311 316.594,736.324 320.412,754.348C320.75,755.944 321.074,757.552 321.35,759.16C322.43,765.433 320.636,766.014 314.364,766.014C312.422,766.014 310.481,766.093 308.542,766.191C304.156,766.412 299.805,767.001 295.48,767.747C280.276,770.368 265.25,775.523 253.919,786.361C249.826,790.276 246.601,794.998 243.429,799.661C242.704,800.726 240.039,803.579 240.405,805.041C240.708,806.253 244.356,804.388 244.836,804.175C249.645,802.037 254.173,799.287 258.93,797.034C270.935,791.347 283.346,787.844 296.688,787.619C313.36,787.338 330.129,791.457 344.065,800.748C346.229,802.191 356.222,808.948 359.02,804.55C360.133,802.801 358.619,799.847 357.977,798.204C355.744,792.491 352.378,787.263 350.113,781.521C346.195,771.592 343.854,761.107 339.76,751.23C334.193,737.797 326.631,725.028 320.258,711.96C309.091,689.063 295.973,667.927 294.53,641.808C293.934,631.014 295.696,620.635 297.372,610.027C297.977,606.205 299.441,599.719 296.644,596.396C292.904,591.954 285.704,593.43 280.966,594.746C267.657,598.443 255.483,606.73 245.774,616.395C238.361,623.775 232.275,632.485 227.259,641.643C218.407,657.806 213.824,675.68 210.312,693.638" style="fill: rgb(173, 144, 174)" /><path d="M241.609,658.712C240.261,658.002 240.85,661.664 240.516,663.151C239.85,666.122 239.176,669.095 238.581,672.082C236.794,681.052 235.488,690.129 234.631,699.235C231.771,729.624 224.975,760.95 217.039,790.389C215.928,794.508 210.534,818.119 205.662,818.119C191.906,818.119 198.134,791.831 199.365,784.889C205.164,752.183 215.539,717.94 228.61,687.318" style="fill: rgb(231, 231, 231)" /></g><path d="M293.103,604.868C293.103,604.868 266.006,609.898 250.473,639.285C234.939,668.672 231.64,707.449 227.196,727.206C222.752,746.964 208.067,803.089 202.633,811.867C197.198,820.644 193.267,828.004 193.267,828.004C193.267,828.004 217.496,824.198 226.938,815.287C236.38,806.377 245.384,794.345 254.937,788.329C264.49,782.314 274.754,775.339 292.195,775.526C309.635,775.712 325.821,777.709 341.259,787.677C356.697,797.646 367.645,820.734 367.645,820.734C367.645,820.734 362.609,774.991 353.387,756.877C344.165,738.763 329.64,713.057 323.57,704.367C317.5,695.676 291.072,667.253 288.697,657.133C286.322,647.014 282.58,630.083 293.103,604.868Z" style="fill: none; stroke: black; stroke-width: 2.1px" /></g></g></g></pattern><g transform="matrix(1,0,0,1,7.6296,-2.65748)"><text x="263.72px" y="53.076px" style="font-family: 'Futura-Medium', 'Futura', sans-serif; font-weight: 500; font-size: 50px; fill: white">SEASON 0</text></g></g><defs><linearGradient id="_Linear3_card_template" x1="0" y1="0" x2="1" y2="0" gradientUnits="userSpaceOnUse" gradientTransform="matrix(3.89688e-14,-610.267,636.408,3.73681e-14,398.243,614.74)"><stop offset="0" style="stop-color: rgb(80, 225, 255); stop-opacity: 1" /><stop offset="0.44" style="stop-color: rgb(219, 249, 255); stop-opacity: 1" /><stop offset="1" style="stop-color: white; stop-opacity: 1" /></linearGradient><g id="heli-cap"><path id="Shadow" d="M404.234,215.129C428.898,218.296 500.585,226.535 542.136,238.146C592.982,252.354 584.265,253.34 584.265,253.34L550.569,247.259L542.493,305.294C542.493,305.294 541.37,323.811 530.272,331.323C519.173,338.835 479.09,333.357 447.17,329.124C424.063,326.059 407.352,325.468 399.884,325.376C392.417,325.468 375.705,326.059 352.598,329.124C320.678,333.357 280.595,338.835 269.497,331.323C258.398,323.811 257.275,305.294 257.275,305.294L249.199,247.259L215.503,253.34C215.503,253.34 207.131,252.297 257.976,238.089C299.527,226.479 370.87,218.296 395.534,215.129L395.534,214.041C395.534,214.041 397.081,214.225 399.884,214.577C402.687,214.225 404.234,214.041 404.234,214.041L404.234,215.129Z" style="fill: rgb(56, 25, 57); fill-opacity: 0.5" /><g id="fan-bit"><path d="M395.662,27.087C395.662,27.087 305.36,21.898 297.195,21.931C289.03,21.964 217.675,23.635 219.953,27.087C222.232,30.54 246.78,39.059 264.821,40.14C282.862,41.221 395.662,31.814 395.662,31.814L395.662,27.087Z" style="fill: rgb(255, 223, 92)" /><clipPath id="_clip1_helicap"><path d="M395.662,27.087C395.662,27.087 305.36,21.898 297.195,21.931C289.03,21.964 217.675,23.635 219.953,27.087C222.232,30.54 246.78,39.059 264.821,40.14C282.862,41.221 395.662,31.814 395.662,31.814L395.662,27.087Z" /></clipPath><g clip-path="url(#_clip1_helicap)"><path d="M225.045,30.993C224.466,30.556 226.493,31.072 227.216,31.134C228.615,31.253 230.015,31.49 231.402,31.711C235.56,32.373 239.679,33.266 243.832,33.951C256.481,36.039 268.516,36.65 281.321,35.92C311.507,34.198 341.744,31.992 371.953,30.788C378.744,30.517 385.563,29.762 392.361,29.793C393.154,29.796 398.369,29.49 398.481,30.879C398.643,32.871 390.787,34.056 389.713,34.297C379.34,36.621 368.638,37.688 358.071,38.674C335.223,40.808 312.31,42.38 289.381,43.297C269.861,44.077 249.889,44.568 231.024,38.676" style="fill: rgb(160, 127, 79)" /><path d="M221.982,34.549C221.357,34.464 223.132,34.023 223.728,33.816C224.969,33.385 226.236,33.022 227.503,32.675C231.207,31.658 234.941,30.706 238.7,29.914C250.216,27.49 261.202,27.44 272.971,27.087C304.553,26.141 336.842,27.518 368.406,28.034C376.092,28.159 383.776,28.339 391.464,28.358C393.343,28.363 395.23,28.409 397.107,28.295C397.365,28.279 398.648,28.328 398.721,27.932C398.808,27.454 397.199,26.951 396.934,26.847C394.602,25.938 392.138,25.344 389.71,24.758C378.824,22.128 367.743,20.21 356.698,18.389C320.376,12.401 283.559,9.397 247.002,15.239C236.346,16.943 224.953,18.817 215.008,23.192C211.62,24.682 204.696,29.027 210.51,32.198" style="fill: rgb(254, 239, 171)" /></g><path d="M395.662,27.087C395.662,27.087 305.36,21.898 297.195,21.931C289.03,21.964 217.675,23.635 219.953,27.087C222.232,30.54 246.78,39.059 264.821,40.14C282.862,41.221 395.662,31.814 395.662,31.814L395.662,27.087Z" style="fill: none; stroke: black; stroke-width: 2.1px" /><g transform="matrix(-1,0,0,1,800.877,0)"><path d="M395.662,27.087C395.662,27.087 305.36,21.898 297.195,21.931C289.03,21.964 217.675,23.635 219.953,27.087C222.232,30.54 246.78,39.059 264.821,40.14C282.862,41.221 395.662,31.814 395.662,31.814L395.662,27.087Z" style="fill: rgb(255, 223, 92)" /><clipPath id="_clip2_helicap"><path d="M395.662,27.087C395.662,27.087 305.36,21.898 297.195,21.931C289.03,21.964 217.675,23.635 219.953,27.087C222.232,30.54 246.78,39.059 264.821,40.14C282.862,41.221 395.662,31.814 395.662,31.814L395.662,27.087Z" /></clipPath><g clip-path="url(#_clip2_helicap)"><path d="M225.045,30.993C224.466,30.556 226.493,31.072 227.216,31.134C228.615,31.253 230.015,31.49 231.402,31.711C235.56,32.373 239.679,33.266 243.832,33.951C256.481,36.039 268.516,36.65 281.321,35.92C311.507,34.198 341.744,31.992 371.953,30.788C378.744,30.517 385.563,29.762 392.361,29.793C393.154,29.796 398.369,29.49 398.481,30.879C398.643,32.871 390.787,34.056 389.713,34.297C379.34,36.621 368.638,37.688 358.071,38.674C335.223,40.808 312.31,42.38 289.381,43.297C269.861,44.077 249.889,44.568 231.024,38.676" style="fill: rgb(160, 127, 79)" /><path d="M221.982,34.549C221.357,34.464 223.132,34.023 223.728,33.816C224.969,33.385 226.236,33.022 227.503,32.675C231.207,31.658 234.941,30.706 238.7,29.914C250.216,27.49 261.202,27.44 272.971,27.087C304.553,26.141 336.842,27.518 368.406,28.034C376.092,28.159 383.776,28.339 391.464,28.358C393.343,28.363 395.23,28.409 397.107,28.295C397.365,28.279 398.648,28.328 398.721,27.932C398.808,27.454 397.199,26.951 396.934,26.847C394.602,25.938 392.138,25.344 389.71,24.758C378.824,22.128 367.743,20.21 356.698,18.389C320.376,12.401 283.559,9.397 247.002,15.239C236.346,16.943 224.953,18.817 215.008,23.192C211.62,24.682 204.696,29.027 210.51,32.198" style="fill: rgb(254, 239, 171)" /></g><path d="M395.662,27.087C395.662,27.087 305.36,21.898 297.195,21.931C289.03,21.964 217.675,23.635 219.953,27.087C222.232,30.54 246.78,39.059 264.821,40.14C282.862,41.221 395.662,31.814 395.662,31.814L395.662,27.087Z" style="fill: none; stroke: black; stroke-width: 2.1px" /></g><path d="M395.662,36.495L395.751,21.86C395.751,21.86 396.109,18.084 399.915,17.68C399.926,17.679 399.937,17.679 399.948,17.68C399.959,17.679 399.971,17.679 399.982,17.68C403.788,18.084 404.145,21.86 404.145,21.86L404.234,36.495L395.662,36.495Z" style="fill: rgb(255, 223, 92)" /><clipPath id="_clip3_helicap"><path d="M395.662,36.495L395.751,21.86C395.751,21.86 396.109,18.084 399.915,17.68C399.926,17.679 399.937,17.679 399.948,17.68C399.959,17.679 399.971,17.679 399.982,17.68C403.788,18.084 404.145,21.86 404.145,21.86L404.234,36.495L395.662,36.495Z" /></clipPath><g clip-path="url(#_clip3_helicap)"><path d="M396.408,29.617C396.622,29.65 396.458,29.188 396.499,28.976C396.586,28.528 396.7,28.084 396.829,27.647C397.214,26.343 397.757,24.643 399.011,23.909C400.932,22.783 402.315,25.251 402.895,26.692C403,26.952 403.771,29.292 403.827,29.257C404.439,28.867 404.137,25.96 404.128,25.393C404.091,23.044 404.028,20.205 402.607,18.211C400.488,15.235 397.048,17.454 396.012,20.143C395.592,21.235 395.43,22.372 395.383,23.535C395.31,25.354 395.397,27.164 395.535,28.977" style="fill: rgb(254, 239, 171)" /><path d="M397.685,37.145C397.749,37.229 397.921,36.235 397.982,35.601C398.159,33.772 398.137,29.726 398.588,28.438C398.797,27.841 399.356,26.99 400.104,27.024C400.945,27.062 401.459,28.117 401.604,28.989C401.909,30.833 402.046,33.45 402.211,35.31C402.242,35.657 402.318,36.883 402.038,37.169C401.738,37.475 401.072,37.264 400.699,37.246" style="fill: rgb(160, 127, 79)" /></g><path d="M395.662,36.495L395.751,21.86C395.751,21.86 396.109,18.084 399.915,17.68C399.926,17.679 399.937,17.679 399.948,17.68C399.959,17.679 399.971,17.679 399.982,17.68C403.788,18.084 404.145,21.86 404.145,21.86L404.234,36.495L395.662,36.495Z" style="fill: none; stroke: black; stroke-width: 2.1px" /></g><g id="Cap"><g transform="matrix(1,0,0,1.17244,0.492122,-13.9146)"><ellipse cx="399.645" cy="49.941" rx="13.8" ry="6.946" style="fill: rgb(235, 65, 81)" /><clipPath id="_clip4"><ellipse cx="399.645" cy="49.941" rx="13.8" ry="6.946" /></clipPath><g clip-path="url(#_clip4)"><g transform="matrix(1,0,0,0.85292,-0.492122,11.868)"><path d="M401.096,36.072C401.204,36.209 400.782,36.223 400.629,36.306C400.317,36.474 400.014,36.659 399.719,36.855C398.851,37.433 397.984,38.08 397.247,38.82C396.394,39.676 395.756,40.729 395.141,41.761C394.702,42.5 394.314,43.34 393.452,43.653C391.461,44.376 388.942,43.894 386.882,43.762C386.382,43.73 384.99,43.751 384.867,43.052C384.762,42.453 385.534,41.728 385.889,41.348C387.186,39.958 388.811,38.787 390.491,37.908C392.195,37.015 394.026,36.518 395.915,36.2L401.096,36.072ZM400.846,37.102C400.704,37.107 401.084,37.26 401.196,37.348C401.422,37.524 401.643,37.71 401.856,37.901C402.508,38.488 403.129,39.093 403.652,39.801C404.274,40.64 404.859,41.926 405.729,42.523C406.892,43.323 409.006,43.103 410.336,43.246C410.947,43.312 412.812,43.875 413.279,43.263C413.926,42.417 412.056,40.88 411.571,40.433C409.234,38.282 406.484,36.91 403.337,36.446L400.846,37.102Z" style="fill: rgb(245, 180, 162)" /></g></g><ellipse cx="399.645" cy="49.941" rx="13.8" ry="6.946" style="fill: none; stroke: black; stroke-width: 1.93px" /></g><path d="M397.676,42.89C398.239,42.681 401.591,42.681 402.153,42.89C501.816,49.249 562.727,112.371 575.583,128.609C598.099,165.571 588.808,253.34 588.808,253.34L550.413,240.154C501.393,225.168 450.081,213.936 399.915,213.936C349.748,213.936 298.436,225.168 249.416,240.154L211.021,253.34C211.021,253.34 201.73,165.571 224.246,128.609C237.102,112.371 298.013,49.249 397.676,42.89Z" style="fill: url(#_Linear5)" /><clipPath id="_clip6"><path d="M397.676,42.89C398.239,42.681 401.591,42.681 402.153,42.89C501.816,49.249 562.727,112.371 575.583,128.609C598.099,165.571 588.808,253.34 588.808,253.34L550.413,240.154C501.393,225.168 450.081,213.936 399.915,213.936C349.748,213.936 298.436,225.168 249.416,240.154L211.021,253.34C211.021,253.34 201.73,165.571 224.246,128.609C237.102,112.371 298.013,49.249 397.676,42.89Z" /></clipPath><g clip-path="url(#_clip6)"><path d="M249.199,239.63C249.199,239.63 253.866,164.607 268.912,136.528C283.959,108.45 312.705,85.883 333.536,71.098C354.368,56.313 390.641,43.187 390.777,43.294C390.913,43.4 396.586,42.578 396.586,42.578C396.586,42.578 374.576,62.921 364.35,92.142C354.124,121.362 346.116,161.226 347.318,218.647C340.968,218.814 275.527,230.905 267.561,234.361C259.596,237.818 249.199,239.63 249.199,239.63ZM551.074,239.63C551.074,239.63 546.408,164.607 531.361,136.528C516.315,108.45 487.569,85.883 466.737,71.098C445.905,56.313 409.632,43.187 409.496,43.294C409.361,43.4 403.687,42.578 403.687,42.578C403.687,42.578 425.697,62.921 435.923,92.142C446.149,121.362 454.157,161.226 452.955,218.647C459.305,218.814 524.746,230.905 532.712,234.361C540.678,237.818 551.074,239.63 551.074,239.63Z" style="fill: url(#_Linear7)" /><path d="M386.51,40.023C386.149,40.084 385.678,40.219 385.621,40.231C382.237,40.915 378.883,41.767 375.538,42.617C363.669,45.633 355.109,49.217 343.932,54.254C303.045,72.682 247.542,103.044 231.39,146.585C222.965,169.296 223.688,209.652 225.073,237.051C225.43,244.108 227.418,247.931 226.532,254.956C225.78,260.918 213.933,261.098 210.297,258.578C204.079,254.269 201.397,245.103 200.242,238.083C197.333,220.407 199.714,201.275 201.542,183.602C203.778,161.983 208.463,138.497 220.356,119.889C230.231,104.439 245.732,92.839 260.744,82.753C294.17,60.297 333.806,42.68 374.377,39.606L386.51,40.023ZM413.666,40.023C414.027,40.084 414.499,40.219 414.555,40.231C417.94,40.915 421.293,41.767 424.639,42.617C436.507,45.633 445.067,49.217 456.244,54.254C497.131,72.682 552.634,103.044 568.786,146.585C577.211,169.296 576.488,209.652 575.104,237.051C574.747,244.108 572.758,247.931 573.644,254.956C574.396,260.918 586.243,261.098 589.88,258.578C596.098,254.269 598.779,245.103 599.934,238.083C602.844,220.407 600.463,201.275 598.635,183.602C596.398,161.983 591.713,138.497 579.82,119.889C569.946,104.439 554.444,92.839 539.432,82.753C506.007,60.297 466.371,42.68 425.8,39.606L413.666,40.023ZM386.51,40.023L386.927,40.038C386.903,39.978 386.727,39.987 386.51,40.023ZM413.666,40.023L413.25,40.038C413.273,39.978 413.45,39.987 413.666,40.023Z" style="fill: rgb(245, 180, 162)" /><path d="M249.586,240.272C249.586,240.272 250.164,154.307 278.814,120.051C307.465,85.795 350.156,54.702 391.1,43.408" style="fill: none; stroke: black; stroke-width: 2.1px" /><g transform="matrix(-1,0,0,1,799.538,0)"><path d="M249.586,240.272C249.586,240.272 250.164,154.307 278.814,120.051C307.465,85.795 350.442,54.751 391.387,43.457" style="fill: none; stroke: black; stroke-width: 2.1px" /></g><path d="M347.158,217.127C347.158,217.127 347.667,120.455 367.04,84.844C386.412,49.233 394.933,43.753 394.933,43.753" style="fill: none; stroke: black; stroke-width: 2.1px" /><g transform="matrix(-1,0,0,1,799.538,0)"><path d="M347.158,217.127C347.158,217.127 347.667,120.455 367.04,84.844C386.412,49.233 394.933,43.753 394.933,43.753" style="fill: none; stroke: black; stroke-width: 2.1px" /></g></g><path d="M397.676,42.89C398.239,42.681 401.591,42.681 402.153,42.89C501.816,49.249 562.727,112.371 575.583,128.609C598.099,165.571 588.808,253.34 588.808,253.34L550.413,240.154C501.393,225.168 450.081,213.936 399.915,213.936C349.748,213.936 298.436,225.168 249.416,240.154L211.021,253.34C211.021,253.34 201.73,165.571 224.246,128.609C237.102,112.371 298.013,49.249 397.676,42.89Z" style="fill: none; stroke: black; stroke-width: 2.1px" /><path d="M400.347,214.257L401.046,214.208C401.046,214.208 449.984,210.469 544.124,238.299C546.339,238.954 551.328,240.087 551.328,240.087C551.328,240.087 551.171,297.659 547.632,301.641C544.093,305.623 528.746,308.238 501.077,299.129C475.591,290.739 428.873,277.289 406.043,275.531L406.052,275.716C406.052,275.716 403.087,275.432 400.347,275.357C397.607,275.432 394.642,275.716 394.642,275.716L394.651,275.531C371.821,277.289 325.102,290.739 299.616,299.129C271.947,308.238 256.601,305.623 253.062,301.641C249.522,297.659 249.366,240.087 249.366,240.087C249.366,240.087 254.355,238.954 256.57,238.299C350.709,210.469 399.648,214.208 399.648,214.208L400.347,214.257Z" style="fill: url(#_Linear8)" /><clipPath id="_clip9"><path d="M400.347,214.257L401.046,214.208C401.046,214.208 449.984,210.469 544.124,238.299C546.339,238.954 551.328,240.087 551.328,240.087C551.328,240.087 551.171,297.659 547.632,301.641C544.093,305.623 528.746,308.238 501.077,299.129C475.591,290.739 428.873,277.289 406.043,275.531L406.052,275.716C406.052,275.716 403.087,275.432 400.347,275.357C397.607,275.432 394.642,275.716 394.642,275.716L394.651,275.531C371.821,277.289 325.102,290.739 299.616,299.129C271.947,308.238 256.601,305.623 253.062,301.641C249.522,297.659 249.366,240.087 249.366,240.087C249.366,240.087 254.355,238.954 256.57,238.299C350.709,210.469 399.648,214.208 399.648,214.208L400.347,214.257Z" /></clipPath><g clip-path="url(#_clip9)"><path d="M251.594,304.731C251.855,304.832 251.343,304.231 251.219,303.98C250.987,303.508 250.764,303.037 250.575,302.546C250.178,301.512 248.566,297.054 250.267,296.409C250.947,296.151 251.987,297.086 252.485,297.443C254.046,298.559 255.536,299.132 257.393,299.572C262.424,300.766 267.816,300.083 272.82,299.104C280.741,297.554 288.173,294.644 295.884,292.343C309.5,288.281 323.323,284.314 337.073,280.731C358.304,275.198 380.747,268.911 402.879,269.112C413.132,269.206 423.378,271.42 433.364,273.556C447.757,276.636 462.055,280.229 476.212,284.264C492.078,288.786 507.505,294.936 523.521,298.915C526.586,299.676 536.917,300.668 544.665,299.083C547.082,298.589 549.341,294.044 550.722,294.862C552.363,295.833 552.898,302.364 552.859,304.112C552.755,308.734 528.869,308.393 526.293,308.154C525.101,308.044 523.911,307.919 522.722,307.782C521.31,307.618 519.899,307.44 518.49,307.25C516.83,307.027 515.17,306.794 513.513,306.547C511.62,306.266 509.729,305.973 507.84,305.669C472.977,300.059 438.366,292.599 402.918,291.939C380.65,291.524 358.558,294.166 336.816,298.89C319.525,302.647 302.576,307.914 285.225,311.392C273.857,313.671 251.512,316.991 247.271,301.573" style="fill: rgb(136, 47, 70)" /><path d="M304.06,221.428C304.196,221.397 304.296,221.385 304.356,221.393L304.06,221.428C301.643,221.973 287.912,228.319 284.128,230.433C275.725,235.129 262.331,240.137 258.778,247.358C256.559,251.869 256.411,257.63 256.193,262.592C256.007,266.843 256.49,272.054 256.819,276.295C257.425,284.097 256.806,291.928 265.149,294.62C268.762,295.785 274.938,295.658 278.728,295.876C280.053,295.953 286.575,295.818 286.575,295.875C286.575,296.105 271.974,299.379 267.78,299.819C263.539,300.264 258.059,300.249 254.244,298C244.208,292.081 243.503,272.492 242.848,262.664C242.333,254.936 241.625,246.108 245.124,238.937C247.754,233.545 252.778,229.873 257.849,226.955L304.06,221.428ZM496.238,221.428C498.655,221.973 512.386,228.319 516.17,230.433C524.573,235.129 537.967,240.137 541.52,247.358C543.739,251.869 543.887,257.63 544.105,262.592C544.291,266.843 543.808,272.054 543.479,276.295C542.874,284.097 543.492,291.928 535.149,294.62C531.536,295.785 525.36,295.658 521.57,295.876C520.245,295.953 513.723,295.818 513.723,295.875C513.723,296.105 528.324,299.379 532.519,299.819C536.759,300.264 542.239,300.249 546.054,298C556.09,292.081 556.795,272.492 557.45,262.664C557.966,254.936 558.673,246.108 555.174,238.937C552.544,233.545 547.521,229.873 542.449,226.955L496.238,221.428C496.102,221.397 496.003,221.385 495.942,221.393L496.238,221.428Z" style="fill: rgb(245, 180, 162)" /><path d="M251.677,295.591C251.677,295.591 256.821,304.1 277.718,297.961C298.615,291.823 371.118,268.698 399.043,268.92C426.969,269.142 476.724,284.555 501.938,292.832C527.152,301.109 544.899,301.572 548.436,295.121" style="fill: none; stroke: black; stroke-width: 2.1px" /></g><path d="M400.347,214.257L401.046,214.208C401.046,214.208 449.984,210.469 544.124,238.299C546.339,238.954 551.328,240.087 551.328,240.087C551.328,240.087 551.171,297.659 547.632,301.641C544.093,305.623 528.746,308.238 501.077,299.129C475.591,290.739 428.873,277.289 406.043,275.531L406.052,275.716C406.052,275.716 403.087,275.432 400.347,275.357C397.607,275.432 394.642,275.716 394.642,275.716L394.651,275.531C371.821,277.289 325.102,290.739 299.616,299.129C271.947,308.238 256.601,305.623 253.062,301.641C249.522,297.659 249.366,240.087 249.366,240.087C249.366,240.087 254.355,238.954 256.57,238.299C350.709,210.469 399.648,214.208 399.648,214.208L400.347,214.257Z" style="fill: none; stroke: black; stroke-width: 2.1px" /></g></g><linearGradient id="_Linear5" x1="0" y1="0" x2="1" y2="0" gradientUnits="userSpaceOnUse" gradientTransform="matrix(0.676239,212.321,-212.321,0.676239,399.671,115.988)"><stop offset="0" style="stop-color: rgb(236, 65, 81); stop-opacity: 1" /><stop offset="0.5" style="stop-color: rgb(220, 55, 76); stop-opacity: 1" /><stop offset="1" style="stop-color: rgb(172, 27, 60); stop-opacity: 1" /></linearGradient><linearGradient id="_Linear7" x1="0" y1="0" x2="1" y2="0" gradientUnits="userSpaceOnUse" gradientTransform="matrix(0.676239,174.104,-174.104,0.676239,399.671,95.0041)"><stop offset="0" style="stop-color: rgb(245, 249, 251); stop-opacity: 1" /><stop offset="0.59" style="stop-color: rgb(226, 236, 243); stop-opacity: 1" /><stop offset="0.81" style="stop-color: rgb(183, 208, 225); stop-opacity: 1" /><stop offset="1" style="stop-color: rgb(140, 180, 206); stop-opacity: 1" /></linearGradient><linearGradient id="_Linear8" x1="0" y1="0" x2="1" y2="0" gradientUnits="userSpaceOnUse" gradientTransform="matrix(6.8912e-15,-112.542,112.542,6.8912e-15,399.671,269.108)"><stop offset="0" style="stop-color: rgb(236, 65, 81); stop-opacity: 1" /><stop offset="0.46" style="stop-color: rgb(227, 63, 84); stop-opacity: 1" /><stop offset="1" style="stop-color: rgb(203, 57, 90); stop-opacity: 1" /></linearGradient></defs></svg>