<?xml version="1.0" ?><svg
  viewBox="0 0 512 512"
  xmlns="http://www.w3.org/2000/svg"
>
  <defs>
    <style>
      .cls-1 {
        fill: #6562f1;
      }
      .cls-2 {
        fill: #5350ef;
      }
      .cls-3 {
        fill: #7572f2;
      }
      .cls-4 {
        fill: #ffd892;
      }
      .cls-5 {
        fill: #f2c34e;
      }
      .cls-6 {
        fill: #f4f4f4;
      }
      .cls-7 {
        fill: #cc993e;
      }
      .cls-8 {
        fill: #dfdfdf;
      }
      .cls-9 {
        fill: #8380f3;
      }
      .cls-10 {
        fill: #292956;
      }
    </style>
  </defs>
  <g id="FILLED_OUTLINE">
    <polygon
      class="cls-1"
      points="452.937 94.123 409.393 114.325 444.293 191.2 452.918 152.141 488 171.357 452.937 94.123"
    />
    <path
      class="cls-2"
      d="M96.16455,220.9585,66.19263,209.74731c-19.00049-2.417-35.66358,4.00538-40.54517,17.05518-6.19165,16.553,8.91724,37.501,33.74658,46.78857,24.82959,9.28785,49.97705,3.3982,56.169-13.155C120.44434,247.38623,112.08691,231.60474,96.16455,220.9585Z"
    />
    <path
      class="cls-2"
      d="M217.67676,112.377A35.008,35.008,0,0,0,196.415,89.958q-.12452-.04687-.25195-.085l-4.43457-1.33033-3.63135,7.2627,5.63525,1.69067A27.2304,27.2304,0,0,1,206.501,138.39648a52.40154,52.40154,0,0,1-37.67969,22.42188l-26.64893,2.83691-4.24878,8.49756,31.74341-3.37939a60.39325,60.39325,0,0,0,43.42383-25.83985A35.0138,35.0138,0,0,0,217.67676,112.377Z"
    />
    <path
      class="cls-2"
      d="M70.84058,138.31885l-19.99976-21.6333A52.39809,52.39809,0,0,1,37.127,75.041,27.22982,27.22982,0,0,1,73.668,52.585l6.67016,2.73877,3.58765-7.17529-7.28027-2.98926c-.03906-.01563-.07813-.03125-.11817-.0459A35.23049,35.23049,0,0,0,29.17773,74.13867,60.39,60.39,0,0,0,44.97461,122.126l22.0415,23.84179Z"
    />
    <path
      class="cls-1"
      d="M84.14877,161.39094l-20.12094,54.144a15.99994,15.99994,0,1,0,29.97168,11.21118l20.311-54.251Z"
    />
    <path
      class="cls-3"
      d="M80.73169,33.87305,65.4397,74.75488a98.63149,98.63149,0,0,0,27.58789,108.9209h.00024a98.632,98.632,0,0,0,92.29907-64.07617L200.6189,78.718Z"
    />
    <path
      class="cls-4"
      d="M374.35746,320.71411l-3.92932-35.3645A24,24,0,0,0,346.575,264H308.37407a24,24,0,0,0-23.6709,20.03955l-5.9469,35.54443.005.01319a23.96878,23.96878,0,0,0,.12574,17.48047l5.78247,14.4563a31.99956,31.99956,0,0,1,1.80188,17.44555L264.056,496h80V381.25488a31.99925,31.99925,0,0,1,9.37256-22.62744l11.7522-11.7522A31.99993,31.99993,0,0,0,374.35746,320.71411Z"
    />
    <path
      class="cls-5"
      d="M316.261,353.26465l-8-24a4,4,0,0,1,2.53076-5.05957l1.23145-.41016A29.25848,29.25848,0,0,0,331.784,300H312.056a20.12832,20.12832,0,0,0-12,4l-10.88574,8.16406-4.79981-6.40039,10.88575-8.16406A28.17583,28.17583,0,0,1,312.056,292h24a4.0002,4.0002,0,0,1,4,4,37.25,37.25,0,0,1-22.9707,34.43848l6.76562,20.29687Z"
    />
    <path
      class="cls-5"
      d="M309.16048,107.23943l-86.563,33.33291a48,48,0,0,0-30.74273,45.69609l2.23852,119.05679a24.21858,24.21858,0,0,0,32.91724,22.14556l0,0a24.21858,24.21858,0,0,0,15.07509-18.0025l4.20425-21.74014A72,72,0,0,1,291.107,234.20806l30.03825-11.56687a72,72,0,0,1,69.13795,9.63925l17.69939,13.30568a24.21858,24.21858,0,0,0,23.25587,3.24234l0,0a24.21858,24.21858,0,0,0,9.563-38.5035l-78.19009-89.81A48,48,0,0,0,309.16048,107.23943Z"
    />
    <path
      class="cls-4"
      d="M244.90967,240.57191a16.02386,16.02386,0,0,0-21.92773,4.019l-29.31423,41.03973-1.7598-93.59614-21.65107,16.2383A32.00064,32.00064,0,0,0,157.89222,228.612L144.7439,307.50184a31.994,31.994,0,0,1-2.69629,8.5459L56,495.96546H160L197.32154,339.215a32.00049,32.00049,0,0,1,11.92968-18.188l5.641-4.23072a79.999,79.999,0,0,0,25.53161-32.48657l10.32569-24.093A16.0241,16.0241,0,0,0,244.90967,240.57191Z"
    />
    <polygon
      class="cls-6"
      points="262.168 181.058 243.504 188.244 236.316 169.58 228.852 172.455 236.039 191.119 217.374 198.306 220.249 205.771 238.913 198.584 246.101 217.248 253.565 214.373 246.378 195.709 265.043 188.522 262.168 181.058"
    />
    <rect
      class="cls-7"
      height="7.99934"
      transform="translate(-29.07095 122.42083) rotate(-21.06362)"
      width="16.00051"
      x="306.7058"
      y="135.39486"
    />
    <rect
      class="cls-7"
      height="7.99934"
      transform="translate(-41.14028 119.54371) rotate(-21.06362)"
      width="16.00016"
      x="292.93351"
      y="166.41585"
    />
    <rect
      class="cls-7"
      height="7.99934"
      transform="translate(-44.01737 131.61322) rotate(-21.06362)"
      width="16.00016"
      x="323.955"
      y="180.18832"
    />
    <rect
      class="cls-7"
      height="7.99934"
      transform="translate(-31.94804 134.49034) rotate(-21.06362)"
      width="16.00051"
      x="337.72728"
      y="149.16732"
    />
    <path
      class="cls-8"
      d="M449.56684,269.5921,461.627,286.05365A176.34566,176.34566,0,0,1,485.8082,331.988l2.22893,6.36485L457.6399,357.221l-.226-.75929a176.34578,176.34578,0,0,0-38.24429-68.00141l0,0Z"
    />
    <path
      class="cls-5"
      d="M26.26123,327.25073l-2.00146,1.60108,32,32,1.80712-3.61426a108.98457,108.98457,0,0,1,41.4065-44.71387l12.78638-7.67187A108.98414,108.98414,0,0,0,26.26123,327.25073Z"
    />
    <path
      class="cls-9"
      d="M442.11865,445.49561l-3.32226,1.79736a51.777,51.777,0,0,1-54.35108-3.1377l-11.8125,30.79712,19.23633,8.44873a51.77732,51.77732,0,0,0,36.91455,1.8064L448,478.92334Z"
    />
    <rect class="cls-8" height="8" width="16" x="368" y="412" />
    <rect class="cls-8" height="8" width="16" x="64" y="388" />
    <rect class="cls-8" height="8" width="16" x="472" y="452" />
    <path
      class="cls-5"
      d="M450.62012,388.20483A95.26077,95.26077,0,0,1,410.67212,360l-19.407,16.22876,9.77978,13.19824a95.26115,95.26115,0,0,0,40.54785,31.48706l20.376,8.31494,3.178-35.63574Z"
    />
    <path
      class="cls-9"
      d="M235.19043,369.18384l-.58594-1.26367-.291,2.72973A109.25411,109.25411,0,0,1,194.29834,444.074h0l37.22827,28.10816,7.12769-19.4502A109.25417,109.25417,0,0,0,235.19043,369.18384Z"
    />
    <circle
      class="cls-3"
      cx="416.54077"
      cy="72.01172"
      r="48.0001"
      transform="translate(202.68785 436.64692) rotate(-69.4174)"
    />
    <path
      class="cls-1"
      d="M427.57422,97.49609l-3.30664-7.28515a19.99978,19.99978,0,0,0-16.53516-36.42188l-3.30664-7.28515a28.00024,28.00024,0,0,1,23.14844,50.99218Z"
    />
    <polygon
      class="cls-8"
      points="304.182 57.626 314.412 24.512 286.231 43.959 261.51 25.361 261.508 25.362 270.126 55.074 241.945 74.521 276.534 76.705 285.622 108.929 297.27 77.181 331.084 77.555 304.182 57.626"
    />
    <rect class="cls-8" height="8" width="16" x="24" y="420" />
    <ellipse
      class="cls-2"
      cx="140.67529"
      cy="56.29553"
      rx="24.00004"
      ry="64.00003"
      transform="translate(38.66231 168.33158) rotate(-69.49131)"
    />
    <path
      class="cls-2"
      d="M117.77148,158.52246l-3.46093-7.21289a95.24288,95.24288,0,0,0,42.86133-41.332l7.084,3.7168A103.30245,103.30245,0,0,1,117.77148,158.52246Z"
    />
    <polygon
      class="cls-10"
      points="243.504 188.244 236.316 169.58 228.852 172.455 236.039 191.119 217.374 198.306 220.249 205.771 238.913 198.584 246.101 217.248 253.565 214.373 246.378 195.709 265.043 188.522 262.168 181.058 243.504 188.244"
    />
    <rect
      class="cls-10"
      height="7.99934"
      transform="translate(-29.07095 122.42083) rotate(-21.06362)"
      width="16.00051"
      x="306.7058"
      y="135.39486"
    />
    <rect
      class="cls-10"
      height="7.99934"
      transform="translate(-41.14028 119.54371) rotate(-21.06362)"
      width="16.00016"
      x="292.93351"
      y="166.41585"
    />
    <rect
      class="cls-10"
      height="7.99934"
      transform="translate(-44.01207 131.57531) rotate(-21.05785)"
      width="16.00016"
      x="323.955"
      y="180.18832"
    />
    <rect
      class="cls-10"
      height="7.99934"
      transform="translate(-31.94804 134.49034) rotate(-21.06362)"
      width="16.00051"
      x="337.72728"
      y="149.16732"
    />
    <path
      class="cls-10"
      d="M292.54492,237.94043,322.583,226.374a67.61537,67.61537,0,0,1,65.29687,9.10352L405.5791,248.7832a28.21845,28.21845,0,0,0,38.23926-41.085L365.62793,117.8877a52.15731,52.15731,0,0,0-57.90527-14.38086L289.23,110.62793c.05-.10645.106-.20923.147-.32129l10.67481-29.09375,30.98828.34277a4.00016,4.00016,0,0,0,2.4248-7.21386l-24.625-18.24317,9.39356-30.40625a3.99966,3.99966,0,0,0-6.09375-4.47265L286.332,39.03027,263.916,22.16406a4.00233,4.00233,0,0,0-6.249,4.3125L265.48145,53.419l-25.8086,17.81054a4.00018,4.00018,0,0,0,2.02051,7.28418l31.76074,2.00488,8.31836,29.4961a3.99158,3.99158,0,0,0,2.30908,2.5957l-62.92138,24.22949a51.598,51.598,0,0,0-6.063,2.8064,35.235,35.235,0,0,0-15.01489-48.0769l4.28295-11.4502c6.37207-17.0332-23.00488-38.5-53.87988-50.04883-16.42383-6.14355-32.82324-9.52441-46.18945-9.52441h-.06445c-14.69727.01172-24.374,4.24707-27.2461,11.92578L72.70264,43.92139A35.23674,35.23674,0,0,0,29.17773,74.13867a60.3945,60.3945,0,0,0,15.80567,47.9961l14.11133,15.17187A102.10052,102.10052,0,0,0,76.21118,171.5481L63.52686,205.45776c-19.97608-1.59253-36.48707,6.20679-41.62549,19.94361-3.47852,9.29883-1.43946,19.90332,5.74218,29.86035,6.83106,9.4707,17.60938,17.31055,30.34961,22.07519a70.55858,70.55858,0,0,0,24.585,4.60157c17.37793,0,31.9375-7.28516,36.73145-20.10059,5.13843-13.73682-2.20264-30.4541-18.3186-42.36523l12.68432-33.91114A102.10442,102.10442,0,0,0,149.062,170.96l20.605-2.18652a60.42635,60.42635,0,0,0,24.47486-8.12134,51.84741,51.84741,0,0,0-6.28638,25.69165l.07031,3.71167-20.06836,15.052a35.83842,35.83842,0,0,0-13.91015,22.88184l-13.14844,78.88867a28.01415,28.01415,0,0,1-2.35938,7.47852L52.3916,494.27441l7.2168,3.45118,86.04785-179.918a35.97878,35.97878,0,0,0,3.0332-9.61426l13.14844-78.88965a27.87414,27.87414,0,0,1,10.81934-17.7959L188,200v88a3.99991,3.99991,0,0,0,7.25488,2.3252l30.98145-43.375a12.024,12.024,0,0,1,20.83594,11.72558l-10.3252,24.09375a76.116,76.116,0,0,1-24.25391,30.86133l-5.64257,4.23047a36.08252,36.08252,0,0,0-13.4209,20.46191l-37.32129,156.75,7.7832,1.85352,37.32129-156.75a28.00717,28.00717,0,0,1,4.635-9.99146,27.70808,27.70808,0,0,0,12.37866,2.94263,28.40745,28.40745,0,0,0,10.22168-1.92481,28.05824,28.05824,0,0,0,17.56446-20.9746l4.20507-21.74024A67.60948,67.60948,0,0,1,292.54492,237.94043ZM280.38379,75.61914a4.00113,4.00113,0,0,0-3.59766-2.90625l-23.06836-1.45605,18.68067-12.89161a3.99972,3.99972,0,0,0,1.56933-4.40625l-5.27539-18.18945,15.13379,11.38672a3.99891,3.99891,0,0,0,4.67774.0957l18.67871-12.89062-6.82227,22.084a3.99839,3.99839,0,0,0,1.44043,4.39453L318.78125,73.419l-21.46777-.23731h-.044a3.9992,3.9992,0,0,0-3.75488,2.62207L286.12012,95.958ZM104.2373,28.5459h.05958c12.43164,0,27.83691,3.20117,43.38574,9.0166,15.57324,5.82617,29.3164,13.53516,38.69726,21.709,8.14258,7.09473,12.06543,13.84082,10.49317,18.04493-1.57325,4.20507-8.96,6.7207-19.75977,6.72949h-.06055c-12.43164,0-27.83691-3.20215-43.38476-9.01758-15.57324-5.82617-29.31641-13.53516-38.69727-21.709-8.14258-7.09473-12.06543-13.83985-10.49316-18.04493C86.05078,31.07031,93.4375,28.55469,104.2373,28.5459Zm87.86133,61.53467-10.51758,28.11767a95.08891,95.08891,0,0,1-87.05273,61.46387A95.08826,95.08826,0,0,1,69.18555,76.15625l10.48974-28.0437c8.17627,13.04516,29.29834,26.21948,51.18994,34.408,16.42383,6.14355,32.82227,9.52539,46.18946,9.52539h.06543A51.18865,51.18865,0,0,0,192.09863,90.08057ZM37.127,75.041A27.223,27.223,0,0,1,69.87329,51.48511L61.69336,73.35352a102.09935,102.09935,0,0,0-5.68482,48.88818l-5.16772-5.55615A52.39809,52.39809,0,0,1,37.127,75.041Zm74.69043,183.99414c-5.41113,14.46-28.29883,19.30957-51.02148,10.80957-11.27735-4.21875-20.74707-11.05957-26.66406-19.26368-5.56641-7.71679-7.249-15.66406-4.73829-22.37695,3.68165-9.83935,15.91016-15.53711,31.20411-14.916l-.31641.8457a20,20,0,1,0,37.46484,14.01367l.31592-.84448C110.01123,236.87231,115.49731,249.196,111.81738,259.03516ZM90.25391,225.34473a12.00072,12.00072,0,0,1-22.48047-8.40821l14.33667-38.32641a103.58991,103.58991,0,0,0,8.2893,8.0813,4.00065,4.00065,0,0,0,2.62793.98437h.00293a103.55313,103.55313,0,0,0,11.55957-.65747Zm78.56933-64.52637-7.54638.80078A102.09936,102.09936,0,0,0,189.07324,121.001l8.17969-21.86792a27.22265,27.22265,0,0,1,9.24805,39.26342A52.40142,52.40142,0,0,1,168.82324,160.81836ZM238.15918,308.709A20.23842,20.23842,0,0,1,211.915,324.06323l5.37793-4.032a84.1415,84.1415,0,0,0,24.21289-28.63306Zm17.75757-52.65234a20.01309,20.01309,0,0,0-36.19019-13.75684L196,275.51758V192a3.993,3.993,0,0,0-.0481-.60132l-.09838-5.20532a44.1368,44.1368,0,0,1,28.18164-41.88867l86.5625-33.333a44.13917,44.13917,0,0,1,48.99707,12.16992l78.19043,89.81055a20.21865,20.21865,0,0,1-27.39942,29.43652L392.68652,229.083A75.55707,75.55707,0,0,0,319.708,218.90918l-30.03809,11.56641A75.76813,75.76813,0,0,0,255.91675,256.05664Z"
    />
    <path
      class="cls-10"
      d="M378.27734,320.27246l-3.92968-35.36426A27.9717,27.9717,0,0,0,346.51855,260H308.31836a27.91434,27.91434,0,0,0-27.61621,23.37988l-5.90088,35.26758a27.98058,27.98058,0,0,0,.31592,19.915l5.78222,14.458a27.96063,27.96063,0,0,1,1.57618,15.26367l-22.415,127.02051,7.8789,1.39062,22.415-127.02051a35.96346,35.96346,0,0,0-2.02734-19.626l-5.78223-14.457a20.03325,20.03325,0,0,1,6.57031-23.42774L299.999,304A20.13338,20.13338,0,0,1,312,300h19.72852a29.26,29.26,0,0,1-19.76075,23.79492l-1.23144.41016a4.00078,4.00078,0,0,0-2.53125,5.05957l8,24,7.58984-2.5293-6.76562-20.29687A37.24828,37.24828,0,0,0,340,296a4.0002,4.0002,0,0,0-4-4H312a28.17981,28.17981,0,0,0-16.80078,5.59961l-10.02271,7.51758,3.41626-20.417A19.9384,19.9384,0,0,1,308.31836,268h38.20019a19.97942,19.97942,0,0,1,19.87793,17.791l3.92969,35.36425a27.86543,27.86543,0,0,1-8.02929,22.89161l-11.752,11.752A35.76437,35.76437,0,0,0,340,381.25488V496h8V381.25488a27.82071,27.82071,0,0,1,8.20117-19.7998l11.752-11.752A35.82254,35.82254,0,0,0,378.27734,320.27246Z"
    />
    <path
      class="cls-10"
      d="M491.8125,337.03027,489.584,330.666a180.26312,180.26312,0,0,0-24.73046-46.97657L452.793,267.22754a4.00093,4.00093,0,0,0-5.33594-1.03418l-30.39648,18.86816a4.00042,4.00042,0,0,0-.85743,6.082,173.41461,173.41461,0,0,1,37.377,66.458l.22558.75879a3.99952,3.99952,0,0,0,5.94336,2.25879L490.14648,341.751A4.00087,4.00087,0,0,0,491.8125,337.03027Zm-31.88184,14.06055a181.71339,181.71339,0,0,0-34.63476-61.72559l23.2334-14.42187,9.87109,13.47461a172.23177,172.23177,0,0,1,23.63281,44.89258l1.168,3.33593Z"
    />
    <path
      class="cls-10"
      d="M56.25977,364.85156a3.94424,3.94424,0,0,0,.64062-.05176,3.99958,3.99958,0,0,0,2.93652-2.15918l1.8086-3.61425a104.80888,104.80888,0,0,1,39.88574-43.07325l12.78613-7.67187a3.99949,3.99949,0,0,0-1.40039-7.375A113.1367,113.1367,0,0,0,23.76172,324.127l-2.001,1.60059a3.99965,3.99965,0,0,0-.3291,5.95215l32,32A3.99556,3.99556,0,0,0,56.25977,364.85156Zm43.76953-57.32617L97.416,309.09375a112.77541,112.77541,0,0,0-42.24414,45.0127L30.26074,329.19531A105.11814,105.11814,0,0,1,100.0293,307.52539Z"
    />
    <path
      class="cls-10"
      d="M446.05762,444.80273a3.9999,3.9999,0,0,0-5.84278-2.82519l-3.32129,1.79687a47.51588,47.51588,0,0,1-50.15234-2.89453,3.99985,3.99985,0,0,0-6.03027,1.84278l-11.8125,30.79687a3.99972,3.99972,0,0,0,2.126,5.09473l19.23633,8.44922a55.6944,55.6944,0,0,0,39.76563,1.94531l19.21679-6.28418a3.99923,3.99923,0,0,0,2.69629-4.49512ZM427.54,481.40527a47.70749,47.70749,0,0,1-34.0625-1.666l-15.74414-6.916,8.69531-22.66894a55.41244,55.41244,0,0,0,52.707,1.47265l4.32324,24.57227Z"
    />
    <rect class="cls-10" height="8" width="16" x="368" y="412" />
    <rect class="cls-10" height="8" width="16" x="64" y="388" />
    <rect class="cls-10" height="8" width="16" x="472" y="452" />
    <path
      class="cls-10"
      d="M466.53711,389.84277l-14.52637-5.38769a91.411,91.411,0,0,1-38.27051-27.02149,4,4,0,0,0-5.63476-.50195l-19.40625,16.22852a4.00106,4.00106,0,0,0-.64746,5.45019l9.77929,13.19824a99.23892,99.23892,0,0,0,42.25,32.8086l20.376,8.31445a4,4,0,0,0,5.49609-3.34766l3.17774-35.63574A3.99974,3.99974,0,0,0,466.53711,389.84277Zm-8.07129,33.63575-15.3623-6.26758a91.24346,91.24346,0,0,1-38.84473-30.166l-7.53418-10.167L410.23145,365.583a99.43658,99.43658,0,0,0,38.998,26.37207l11.66113,4.32519Z"
    />
    <path
      class="cls-10"
      d="M238.2334,366.2373a4.00005,4.00005,0,0,0-7.60645,1.25879l-.291,2.7295a104.56569,104.56569,0,0,1-38.54981,70.73632,4.00077,4.00077,0,0,0,.10254,6.30469L229.11621,475.374a4.00027,4.00027,0,0,0,6.166-1.8164l7.12793-19.44922a112.51341,112.51341,0,0,0-3.59082-86.60742Zm-3.335,85.11915-5.27051,14.37988-28.92188-21.83692a112.26933,112.26933,0,0,0,35.65137-60.77148A104.46333,104.46333,0,0,1,234.89844,451.35645Z"
    />
    <path
      class="cls-10"
      d="M409.15137,123.46826l31.499,69.38526a4.00024,4.00024,0,0,0,7.54883-.791l7.47461-33.85156,30.40429,16.65429a3.99988,3.99988,0,0,0,5.56446-5.16113l-31.49121-69.36548A52.42576,52.42576,0,0,0,465.22168,90.292a52.01029,52.01029,0,1,0-56.07031,33.17627ZM479.39746,162.084l-24.55762-13.45117a3.99977,3.99977,0,0,0-5.82812,2.64551l-6.03711,27.3418L418.165,123.96924a52.05214,52.05214,0,0,0,36.44067-16.49292ZM398.35156,31.94727a44,44,0,1,1-21.875,58.2539A43.74739,43.74739,0,0,1,398.35156,31.94727Z"
    />
    <path
      class="cls-10"
      d="M434.21094,63.73242a20.02117,20.02117,0,0,1-9.94336,26.47852l3.30664,7.28515a28.00024,28.00024,0,0,0-23.14844-50.99218l3.30664,7.28515A20.01982,20.01982,0,0,1,434.21094,63.73242Z"
    />
    <rect class="cls-10" height="8" width="16" x="24" y="420" />
    <path
      class="cls-10"
      d="M114.31055,151.30957l3.46093,7.21289a103.30245,103.30245,0,0,0,46.48438-44.82812l-7.084-3.7168A95.24288,95.24288,0,0,1,114.31055,151.30957Z"
    />
  </g>
</svg>
