<svg width="800px" height="800px" viewBox="0 0 800 800" version="2.0" xmlns="http://www.w3.org/2000/svg" style="fill-rule: evenodd; clip-rule: evenodd; stroke-linecap: round; stroke-linejoin: round; stroke-miterlimit: 1.5"><g id="normal-card"><rect id="bg" x="-48.418" y="-9.957" width="931.967" height="871.066" style="fill: rgb(6, 46, 66)" /><g id="rectangles" transform="matrix(1,0,0,1,49.4291,64.1339)"><g opacity="0.5"><g transform="matrix(0.660629,0,0,1.04551,351.522,-81.058)"><rect x="462.47" y="633.282" width="419.335" height="322.449" style="fill: none" /><clipPath id="_clip1_card_template"><rect x="462.47" y="633.282" width="419.335" height="322.449" /></clipPath><g clip-path="url(#_clip1_card_template)"><g transform="matrix(1.51371,0,0,0.956468,-452.99,37.369)"><path d="M604.78,633.282L877.032,634.306" style="fill: none; stroke: rgb(166, 240, 98); stroke-width: 4px; stroke-dasharray: 4.25, 7.5, 0, 0" /></g><g transform="matrix(1.51371,0,0,0.956468,-452.99,58.0423)"><path d="M604.78,633.282L877.032,634.306" style="fill: none; stroke: rgb(166, 240, 98); stroke-width: 4px; stroke-dasharray: 4.25, 7.5, 0, 0" /></g><g transform="matrix(1.51371,0,0,0.956468,-452.99,68.3789)"><path d="M604.78,633.282L877.032,634.306" style="fill: none; stroke: rgb(166, 240, 98); stroke-width: 4px; stroke-dasharray: 4.25, 7.5, 0, 0" /></g><g transform="matrix(1.51371,0,0,0.956468,-452.99,89.0522)"><path d="M604.78,633.282L877.032,634.306" style="fill: none; stroke: rgb(166, 240, 98); stroke-width: 4px; stroke-dasharray: 4.25, 7.5, 0, 0" /></g><g transform="matrix(1.51371,0,0,0.956468,-452.99,99.3888)"><path d="M604.78,633.282L877.032,634.306" style="fill: none; stroke: rgb(166, 240, 98); stroke-width: 4px; stroke-dasharray: 4.25, 7.5, 0, 0" /></g><g transform="matrix(1.51371,0,0,0.956468,-452.99,130.399)"><path d="M604.78,633.282L877.032,634.306" style="fill: none; stroke: rgb(166, 240, 98); stroke-width: 4px; stroke-dasharray: 4.25, 7.5, 0, 0" /></g><g transform="matrix(1.51371,0,0,0.956468,-452.99,151.072)"><path d="M604.78,633.282L877.032,634.306" style="fill: none; stroke: rgb(166, 240, 98); stroke-width: 4px; stroke-dasharray: 4.25, 7.5, 0, 0" /></g><g transform="matrix(1.51371,0,0,0.956468,-452.99,171.745)"><path d="M604.78,633.282L877.032,634.306" style="fill: none; stroke: rgb(166, 240, 98); stroke-width: 4px; stroke-dasharray: 4.25, 7.5, 0, 0" /></g></g><rect x="462.47" y="633.282" width="419.335" height="322.449" style="fill: none; stroke: rgb(166, 240, 98); stroke-width: 4.57px; stroke-dasharray: 4.86, 8.58, 0, 0" /></g><g transform="matrix(0.192707,0,0,1.04551,466.744,2.40586)"><rect x="462.47" y="633.282" width="419.335" height="322.449" style="fill: none" /><clipPath id="_clip2_card_template"><rect x="462.47" y="633.282" width="419.335" height="322.449" /></clipPath><g clip-path="url(#_clip2_card_template)"><g transform="matrix(1.51371,0,0,0.956468,-452.99,37.369)"><path d="M604.78,633.282L877.032,634.306" style="fill: none; stroke: rgb(237, 30, 121); stroke-width: 5.43px; stroke-dasharray: 5.77, 10.18, 0, 0" /></g><g transform="matrix(1.51371,0,0,0.956468,-452.99,58.0423)"><path d="M604.78,633.282L877.032,634.306" style="fill: none; stroke: rgb(237, 30, 121); stroke-width: 5.43px; stroke-dasharray: 5.77, 10.18, 0, 0" /></g><g transform="matrix(1.51371,0,0,0.956468,-452.99,68.3789)"><path d="M604.78,633.282L877.032,634.306" style="fill: none; stroke: rgb(237, 30, 121); stroke-width: 5.43px; stroke-dasharray: 5.77, 10.18, 0, 0" /></g><g transform="matrix(1.51371,0,0,0.956468,-452.99,89.0522)"><path d="M604.78,633.282L877.032,634.306" style="fill: none; stroke: rgb(237, 30, 121); stroke-width: 5.43px; stroke-dasharray: 5.77, 10.18, 0, 0" /></g></g><rect x="462.47" y="633.282" width="419.335" height="322.449" style="fill: none; stroke: rgb(237, 30, 121); stroke-width: 5.32px; stroke-dasharray: 5.65, 9.98, 0, 0" /></g></g></g><g id="circles" opacity="0.5"><g transform="matrix(1,0,0,1,-118.853,-94.5905)"><circle cx="155.124" cy="124.814" r="124.814" style="fill: none; stroke: rgb(255, 207, 0); stroke-width: 4px; stroke-dasharray: 4.25, 7.5, 0, 0" /></g><g transform="matrix(0.928318,0,0,0.928318,-107.734,-85.6437)"><circle cx="155.124" cy="124.814" r="124.814" style="fill: none; stroke: rgb(255, 207, 0); stroke-width: 4.31px; stroke-dasharray: 4.58, 8.08, 0, 0" /></g><g transform="matrix(0.691272,0,0,0.691272,-70.9623,-56.0571)"><circle cx="155.124" cy="124.814" r="124.814" style="fill: none; stroke: rgb(255, 108, 0); stroke-width: 5.79px; stroke-dasharray: 6.15, 10.85, 0, 0" /></g></g><g id="rarity-bars" transform="matrix(0.86723,0,0,0.86723,10.4494,88.5493)"><g id="rarity-bars-fill"><g transform="matrix(0.114833,0,0,0.114833,59.0756,653.445)"><path d="M400,117.517L629.266,249.774L629.266,514.685L400.192,646.941L400.192,647.052L400.096,646.997L400,647.052L400,646.941L170.925,514.685L170.925,249.774L400,117.517Z" style="fill: rgb(139, 57, 219)" /></g></g><g id="rarity-bars-stroke"><g transform="matrix(0.114833,0,0,0.114833,59.0756,653.445)"><path d="M400,117.517L629.266,249.774L629.266,514.685L400.192,646.941L400.192,647.052L400.096,646.997L400,647.052L400,646.941L170.925,514.685L170.925,249.774L400,117.517Z" style="fill: none; stroke: white; stroke-width: 34.83px" /></g><g transform="matrix(0.114833,0,0,0.114833,126.648,653.445)"><path d="M400,117.517L629.266,249.774L629.266,514.685L400.192,646.941L400.192,647.052L400.096,646.997L400,647.052L400,646.941L170.925,514.685L170.925,249.774L400,117.517Z" style="fill: none; stroke: white; stroke-width: 34.83px" /></g><g transform="matrix(0.114833,0,0,0.114833,194.22,653.445)"><path d="M400,117.517L629.266,249.774L629.266,514.685L400.192,646.941L400.192,647.052L400.096,646.997L400,647.052L400,646.941L170.925,514.685L170.925,249.774L400,117.517Z" style="fill: none; stroke: white; stroke-width: 34.83px" /></g><g transform="matrix(0.114833,0,0,0.114833,261.792,653.445)"><path d="M400,117.517L629.266,249.774L629.266,514.685L400.192,646.941L400.192,647.052L400.096,646.997L400,647.052L400,646.941L170.925,514.685L170.925,249.774L400,117.517Z" style="fill: none; stroke: white; stroke-width: 34.83px" /></g><g transform="matrix(0.114833,0,0,0.114833,329.364,653.445)"><path d="M400,117.517L629.266,249.774L629.266,514.685L400.192,646.941L400.192,647.052L400.096,646.997L400,647.052L400,646.941L170.925,514.685L170.925,249.774L400,117.517Z" style="fill: none; stroke: white; stroke-width: 34.83px" /></g></g></g><g transform="matrix(0.720342,0,0,0.720342,23.1337,330.63)"><text x="77.471px" y="439.84px" style="font-family: 'Futura-Medium', 'Futura', sans-serif; font-weight: 500; font-size: 50px; fill: white">RARITY</text></g><g transform="matrix(0.911866,0,0,0.911866,252.534,309.097)"><text x="190.763px" y="439.84px" style="font-family: 'Futura-Medium', 'Futura', sans-serif; font-weight: 500; font-size: 50px; fill: white" id="wear_value"></text></g><g transform="matrix(0.720342,0,0,0.720342,340.614,330.63)"><text x="77.471px" y="439.84px" style="font-family: 'Futura-Medium', 'Futura', sans-serif; font-weight: 500; font-size: 50px; fill: white">WEAR</text></g><g transform="matrix(1,0,0,1,11.3386,0)"><g id="clothing"><path d="M643.088,685.842C646.783,685.778 648.661,683.2 649.092,679.318C650.012,671.056 649.138,666.716 649.138,666.716L653.408,666.766C653.408,666.766 651.456,677.988 655.595,682.825C658.992,686.794 662.073,686.445 662.073,686.445L662.462,712.698L623.892,712.698L624.28,686.445C624.28,686.445 626.476,686.794 629.873,682.825C634.012,677.988 632.06,666.766 632.06,666.766L636.417,666.616C636.417,666.616 635.514,670.986 636.433,679.248C636.865,683.129 638.73,685.919 643.088,685.842Z" style="fill: white" /></g></g><g transform="matrix(0.720342,0,0,0.720342,520.614,330.63)"><text x="124.102px" y="439.84px" style="font-family: 'Futura-Medium', 'Futura', sans-serif; font-weight: 500; font-size: 50px; fill: white">SLOT</text></g><g transform="matrix(1,0,0,1,-7.69409,0)"><path d="M82.194,602.738L733.196,602.258C733.979,602.258 734.615,601.621 734.614,600.838C734.614,600.055 733.977,599.42 733.194,599.42L82.192,599.9C81.409,599.901 80.773,600.537 80.774,601.321C80.775,602.104 81.411,602.739 82.194,602.738Z" style="fill: white" /></g><g transform="matrix(1,0,0,1,120.441,145.046)"><text x="95.471px" y="439.84px" style="font-family: 'Futura-Medium', 'Futura', sans-serif; font-weight: 500; font-size: 50px; fill: white">HELICAP TSHIRT</text></g><path id="border" d="M800,801.235L800,-4.106L-0,-4.106L0,801.235L800,801.235ZM260.875,30.644L30.644,30.644C30.644,30.644 30.644,769.356 30.644,769.356C30.644,769.356 769.356,769.356 769.356,769.356L769.356,30.644L539.125,30.644L539.125,61.806L260.875,61.806L260.875,30.644Z" style="fill: rgb(0, 153, 197)" /><g id="guide" transform="matrix(1,0,0,1.04284,1.75676,-22.4672)"><rect x="82.193" y="95.569" width="632.101" height="428.927" style="fill: url(#_Linear3_card_template); stroke: rgb(0, 153, 197); stroke-width: 4.8px" /><rect x="82.193" y="95.569" width="632.101" height="428.927" style="fill: url(#helicap-tshirt)"/></g><pattern id="helicap-tshirt" viewBox="0,0,800,800" width="100%" height="100%"><g id="accessories"><g id="fan-cap-shirt"><path id="white-red" d="M399.976,668.975C416.806,665.197 433.366,660.626 449.383,654.132C495.699,635.353 542.163,602.66 565.081,556.823L571.961,554.228C575.976,553.794 587.572,557.6 591.545,557.516C601.201,557.312 609.608,566.255 613.859,568.053C638.45,578.453 645.824,582.356 669.935,594.952C687.437,604.094 703.189,611.844 720.495,621.348C730.753,626.981 742.32,632.273 752.343,638.318C758.065,641.769 769.408,648.408 775.218,651.712C788.407,659.212 794.45,668.298 794.45,668.298C794.45,668.298 800.524,714.312 794.183,732.49C791.02,741.555 796.651,747.024 781.922,770.376C773.161,784.266 780.445,790.616 775.182,806.17C768.7,825.325 760.707,832.614 756.447,852.414C755.168,858.363 737.794,858.41 732.717,862.569C722.623,870.839 680.058,867.169 667.827,867.199C610.274,867.341 552.696,867.711 495.148,866.775C469.849,866.364 444.543,865.879 419.234,865.811C412.9,866.875 405.589,866.044 399.976,865.868C394.364,866.044 387.052,866.875 380.718,865.811C355.409,865.879 330.103,866.364 304.804,866.775C247.256,867.711 189.678,867.341 132.125,867.199C119.893,867.169 77.329,870.839 67.235,862.569C62.158,858.41 40.29,866.884 39.011,860.935C34.751,841.135 34.246,832.177 27.764,813.023C22.501,797.469 22.389,777.236 16.689,761.836C13.357,752.832 13.222,731.982 10.06,722.916C3.719,704.739 5.502,668.298 5.502,668.298C5.502,668.298 11.544,659.212 24.734,651.712C30.543,648.408 41.886,641.769 47.609,638.318C57.632,632.273 69.199,626.981 79.456,621.348C96.763,611.844 112.515,604.094 130.017,594.952C154.128,582.356 161.502,578.453 186.093,568.053C190.344,566.255 198.751,557.312 208.407,557.516C212.38,557.6 223.976,553.794 227.99,554.228L234.871,556.823C257.789,602.66 304.253,635.353 350.568,654.132C366.586,660.626 383.146,665.197 399.976,668.975Z" style="fill: url(#_Linear1)" /><clipPath id="_clip2"><path id="white-red1" d="M399.976,668.975C416.806,665.197 433.366,660.626 449.383,654.132C495.699,635.353 542.163,602.66 565.081,556.823L571.961,554.228C575.976,553.794 587.572,557.6 591.545,557.516C601.201,557.312 609.608,566.255 613.859,568.053C638.45,578.453 645.824,582.356 669.935,594.952C687.437,604.094 703.189,611.844 720.495,621.348C730.753,626.981 742.32,632.273 752.343,638.318C758.065,641.769 769.408,648.408 775.218,651.712C788.407,659.212 794.45,668.298 794.45,668.298C794.45,668.298 800.524,714.312 794.183,732.49C791.02,741.555 796.651,747.024 781.922,770.376C773.161,784.266 780.445,790.616 775.182,806.17C768.7,825.325 760.707,832.614 756.447,852.414C755.168,858.363 737.794,858.41 732.717,862.569C722.623,870.839 680.058,867.169 667.827,867.199C610.274,867.341 552.696,867.711 495.148,866.775C469.849,866.364 444.543,865.879 419.234,865.811C412.9,866.875 405.589,866.044 399.976,865.868C394.364,866.044 387.052,866.875 380.718,865.811C355.409,865.879 330.103,866.364 304.804,866.775C247.256,867.711 189.678,867.341 132.125,867.199C119.893,867.169 77.329,870.839 67.235,862.569C62.158,858.41 40.29,866.884 39.011,860.935C34.751,841.135 34.246,832.177 27.764,813.023C22.501,797.469 22.389,777.236 16.689,761.836C13.357,752.832 13.222,731.982 10.06,722.916C3.719,704.739 5.502,668.298 5.502,668.298C5.502,668.298 11.544,659.212 24.734,651.712C30.543,648.408 41.886,641.769 47.609,638.318C57.632,632.273 69.199,626.981 79.456,621.348C96.763,611.844 112.515,604.094 130.017,594.952C154.128,582.356 161.502,578.453 186.093,568.053C190.344,566.255 198.751,557.312 208.407,557.516C212.38,557.6 223.976,553.794 227.99,554.228L234.871,556.823C257.789,602.66 304.253,635.353 350.568,654.132C366.586,660.626 383.146,665.197 399.976,668.975Z" /></clipPath><g clip-path="url(#_clip2)"><path id="red" d="M85.493,617.253C84.303,618.217 85.059,626.168 85.029,627.705C84.814,638.663 84.769,649.622 85.562,660.56C87.367,685.468 93.588,709.904 97.224,734.571C100.123,754.232 100.952,774.028 102.675,793.806C107.357,847.562 117.555,946.557 109.309,952.329C103.703,956.253 93.723,951.322 88.04,949.782C54.165,940.601 44.652,811.269 33.013,780.019C25.611,760.144 18.074,740.307 11.39,720.175C-0.715,683.719 -3.352,662.242 32.514,640.324C43.35,633.702 54.907,628.071 66.452,622.805L85.493,617.253ZM714.577,617.253C715.767,618.217 715.011,626.168 715.042,627.705C715.256,638.663 715.301,649.622 714.508,660.56C712.703,685.468 706.483,709.904 702.846,734.571C699.947,754.232 699.118,774.028 697.396,793.806C692.714,847.562 682.515,946.557 690.762,952.329C696.368,956.253 706.347,951.322 712.03,949.782C745.905,940.601 755.418,811.269 767.057,780.019C774.459,760.144 781.996,740.307 788.681,720.175C800.785,683.719 803.423,662.242 767.556,640.324C756.72,633.702 745.164,628.071 733.619,622.805L714.577,617.253ZM225.303,576.305C226.866,577.086 226.167,592.537 226.222,594.165C226.87,613.428 228.225,632.618 229.1,651.868C231.035,694.447 231.685,737.033 235.202,779.52C236.156,791.054 243.449,907.324 238.618,916.6C235.862,921.893 230.313,917.825 225.27,917.75C214.501,917.591 183.527,920.998 174.574,916.413C170.898,914.53 172.123,903.284 171.858,899.935C170.414,881.706 167.334,780.151 166.945,761.874C166.02,718.394 160.779,675.417 158.702,632.021C157.916,615.601 158.934,591.514 159.023,575.935C159.037,573.514 173.204,569.762 175.29,568.758C189.136,562.096 208.322,547.196 224.115,556.123L225.303,576.305ZM574.768,576.305C573.204,577.086 573.903,592.537 573.848,594.165C573.201,613.428 571.846,632.618 570.971,651.868C569.035,694.447 568.385,737.033 564.869,779.52C563.914,791.054 556.621,907.324 561.452,916.6C564.209,921.893 569.757,917.825 574.801,917.75C585.57,917.591 616.544,920.998 625.496,916.413C629.172,914.53 627.948,903.284 628.213,899.935C629.657,881.706 632.736,780.151 633.125,761.874C634.05,718.394 639.291,675.417 641.369,632.021C642.155,615.601 641.136,591.514 641.047,575.935C641.033,573.514 626.867,569.762 624.78,568.758C610.935,562.096 591.748,547.196 575.956,556.123L574.768,576.305ZM288.157,637.377C288.027,637.172 288.098,637.421 288.127,637.602C288.635,640.753 288.777,643.957 288.976,647.139C289.383,653.674 289.838,660.248 289.911,666.795C290.136,687.036 290.708,707.259 291.987,727.466C294.253,763.281 294.735,799.117 295.452,834.982C295.533,839.045 295.247,910.141 297.164,911.953C300.44,915.051 308.712,913.147 312.618,912.919C323.514,912.284 334.343,910.335 345.271,910.335C349.581,910.335 355.888,913.194 359.971,912.174C363.496,911.292 360.238,859.128 360.029,856.875C358.475,840.109 359.331,823.574 359.656,806.803C360.261,775.665 359.483,744.521 360.588,713.393C360.959,702.955 365.031,683.368 358.699,674.25C348.078,658.956 321.172,652.018 305.39,643.521L288.157,637.377ZM511.914,637.377C512.044,637.172 511.972,637.421 511.943,637.602C511.435,640.753 511.293,643.957 511.095,647.139C510.687,653.674 510.232,660.248 510.16,666.795C509.935,687.036 509.363,707.259 508.084,727.466C505.817,763.281 505.336,799.117 504.619,834.982C504.537,839.045 504.823,910.141 502.906,911.953C499.63,915.051 491.359,913.147 487.453,912.919C476.556,912.284 465.727,910.335 454.8,910.335C450.489,910.335 444.182,913.194 440.1,912.174C436.575,911.292 439.832,859.128 440.041,856.875C441.596,840.109 440.74,823.574 440.414,806.803C439.809,775.665 440.587,744.521 439.482,713.393C439.111,702.955 435.04,683.368 441.371,674.25C451.993,658.956 478.899,652.018 494.68,643.521L511.914,637.377Z" style="fill: url(#_Linear3)" /><clipPath id="_clip4"><path id="red1" d="M85.493,617.253C84.303,618.217 85.059,626.168 85.029,627.705C84.814,638.663 84.769,649.622 85.562,660.56C87.367,685.468 93.588,709.904 97.224,734.571C100.123,754.232 100.952,774.028 102.675,793.806C107.357,847.562 117.555,946.557 109.309,952.329C103.703,956.253 93.723,951.322 88.04,949.782C54.165,940.601 44.652,811.269 33.013,780.019C25.611,760.144 18.074,740.307 11.39,720.175C-0.715,683.719 -3.352,662.242 32.514,640.324C43.35,633.702 54.907,628.071 66.452,622.805L85.493,617.253ZM714.577,617.253C715.767,618.217 715.011,626.168 715.042,627.705C715.256,638.663 715.301,649.622 714.508,660.56C712.703,685.468 706.483,709.904 702.846,734.571C699.947,754.232 699.118,774.028 697.396,793.806C692.714,847.562 682.515,946.557 690.762,952.329C696.368,956.253 706.347,951.322 712.03,949.782C745.905,940.601 755.418,811.269 767.057,780.019C774.459,760.144 781.996,740.307 788.681,720.175C800.785,683.719 803.423,662.242 767.556,640.324C756.72,633.702 745.164,628.071 733.619,622.805L714.577,617.253ZM225.303,576.305C226.866,577.086 226.167,592.537 226.222,594.165C226.87,613.428 228.225,632.618 229.1,651.868C231.035,694.447 231.685,737.033 235.202,779.52C236.156,791.054 243.449,907.324 238.618,916.6C235.862,921.893 230.313,917.825 225.27,917.75C214.501,917.591 183.527,920.998 174.574,916.413C170.898,914.53 172.123,903.284 171.858,899.935C170.414,881.706 167.334,780.151 166.945,761.874C166.02,718.394 160.779,675.417 158.702,632.021C157.916,615.601 158.934,591.514 159.023,575.935C159.037,573.514 173.204,569.762 175.29,568.758C189.136,562.096 208.322,547.196 224.115,556.123L225.303,576.305ZM574.768,576.305C573.204,577.086 573.903,592.537 573.848,594.165C573.201,613.428 571.846,632.618 570.971,651.868C569.035,694.447 568.385,737.033 564.869,779.52C563.914,791.054 556.621,907.324 561.452,916.6C564.209,921.893 569.757,917.825 574.801,917.75C585.57,917.591 616.544,920.998 625.496,916.413C629.172,914.53 627.948,903.284 628.213,899.935C629.657,881.706 632.736,780.151 633.125,761.874C634.05,718.394 639.291,675.417 641.369,632.021C642.155,615.601 641.136,591.514 641.047,575.935C641.033,573.514 626.867,569.762 624.78,568.758C610.935,562.096 591.748,547.196 575.956,556.123L574.768,576.305ZM288.157,637.377C288.027,637.172 288.098,637.421 288.127,637.602C288.635,640.753 288.777,643.957 288.976,647.139C289.383,653.674 289.838,660.248 289.911,666.795C290.136,687.036 290.708,707.259 291.987,727.466C294.253,763.281 294.735,799.117 295.452,834.982C295.533,839.045 295.247,910.141 297.164,911.953C300.44,915.051 308.712,913.147 312.618,912.919C323.514,912.284 334.343,910.335 345.271,910.335C349.581,910.335 355.888,913.194 359.971,912.174C363.496,911.292 360.238,859.128 360.029,856.875C358.475,840.109 359.331,823.574 359.656,806.803C360.261,775.665 359.483,744.521 360.588,713.393C360.959,702.955 365.031,683.368 358.699,674.25C348.078,658.956 321.172,652.018 305.39,643.521L288.157,637.377ZM511.914,637.377C512.044,637.172 511.972,637.421 511.943,637.602C511.435,640.753 511.293,643.957 511.095,647.139C510.687,653.674 510.232,660.248 510.16,666.795C509.935,687.036 509.363,707.259 508.084,727.466C505.817,763.281 505.336,799.117 504.619,834.982C504.537,839.045 504.823,910.141 502.906,911.953C499.63,915.051 491.359,913.147 487.453,912.919C476.556,912.284 465.727,910.335 454.8,910.335C450.489,910.335 444.182,913.194 440.1,912.174C436.575,911.292 439.832,859.128 440.041,856.875C441.596,840.109 440.74,823.574 440.414,806.803C439.809,775.665 440.587,744.521 439.482,713.393C439.111,702.955 435.04,683.368 441.371,674.25C451.993,658.956 478.899,652.018 494.68,643.521L511.914,637.377Z" /></clipPath><g clip-path="url(#_clip4)"><path d="M18.184,830.007C18.19,830.053 18.199,830.076 18.213,830.073L18.184,830.007C18.095,829.35 18.734,823.971 18.842,823.058C19.405,818.323 20.093,813.606 20.837,808.895C23.113,794.476 25.534,780.072 27.459,765.601C30.026,746.301 26.92,725.442 23.445,706.335C21.383,694.989 16.687,683.418 25.448,674.657C44.863,655.243 72.436,644.185 96.634,632.205C126.024,617.654 153.932,601.667 183.933,588.518C194.75,583.777 205.584,579.059 216.453,574.438C219.234,573.255 227.094,571.423 228.719,568.61C231.534,563.737 224.346,549.801 221.325,546.262C214.63,538.417 199.429,540.193 190.574,541.187C160.984,544.506 133.683,556.908 107.296,569.995C61.937,592.492 -22.495,625.854 -29.112,684.002C-31.841,707.992 -24.146,732.55 -15.671,754.675L18.184,830.007ZM781.21,830.007C781.298,829.35 780.659,823.971 780.551,823.058C779.988,818.323 779.3,813.606 778.556,808.895C776.28,794.476 773.859,780.072 771.935,765.601C769.368,746.301 772.474,725.442 775.948,706.335C778.011,694.989 782.706,683.418 773.945,674.657C754.531,655.243 726.957,644.185 702.76,632.205C673.37,617.654 645.462,601.667 615.461,588.518C604.643,583.777 593.809,579.059 582.94,574.438C580.16,573.255 572.3,571.423 570.674,568.61C567.859,563.737 575.048,549.801 578.068,546.262C584.764,538.417 599.964,540.193 608.82,541.187C638.409,544.506 665.711,556.908 692.098,569.995C737.457,592.492 821.888,625.854 828.505,684.002C831.235,707.992 823.539,732.55 815.064,754.675L781.21,830.007C781.204,830.053 781.194,830.076 781.18,830.073L781.21,830.007Z" style="fill: rgb(252, 255, 216); fill-opacity: 0.6" /></g><path id="red2" d="M85.493,617.253C84.303,618.217 85.059,626.168 85.029,627.705C84.814,638.663 84.769,649.622 85.562,660.56C87.367,685.468 93.588,709.904 97.224,734.571C100.123,754.232 100.952,774.028 102.675,793.806C107.357,847.562 117.555,946.557 109.309,952.329C103.703,956.253 93.723,951.322 88.04,949.782C54.165,940.601 44.652,811.269 33.013,780.019C25.611,760.144 18.074,740.307 11.39,720.175C-0.715,683.719 -3.352,662.242 32.514,640.324C43.35,633.702 54.907,628.071 66.452,622.805L85.493,617.253ZM714.577,617.253C715.767,618.217 715.011,626.168 715.042,627.705C715.256,638.663 715.301,649.622 714.508,660.56C712.703,685.468 706.483,709.904 702.846,734.571C699.947,754.232 699.118,774.028 697.396,793.806C692.714,847.562 682.515,946.557 690.762,952.329C696.368,956.253 706.347,951.322 712.03,949.782C745.905,940.601 755.418,811.269 767.057,780.019C774.459,760.144 781.996,740.307 788.681,720.175C800.785,683.719 803.423,662.242 767.556,640.324C756.72,633.702 745.164,628.071 733.619,622.805L714.577,617.253ZM225.303,576.305C226.866,577.086 226.167,592.537 226.222,594.165C226.87,613.428 228.225,632.618 229.1,651.868C231.035,694.447 231.685,737.033 235.202,779.52C236.156,791.054 243.449,907.324 238.618,916.6C235.862,921.893 230.313,917.825 225.27,917.75C214.501,917.591 183.527,920.998 174.574,916.413C170.898,914.53 172.123,903.284 171.858,899.935C170.414,881.706 167.334,780.151 166.945,761.874C166.02,718.394 160.779,675.417 158.702,632.021C157.916,615.601 158.934,591.514 159.023,575.935C159.037,573.514 173.204,569.762 175.29,568.758C189.136,562.096 208.322,547.196 224.115,556.123L225.303,576.305ZM574.768,576.305C573.204,577.086 573.903,592.537 573.848,594.165C573.201,613.428 571.846,632.618 570.971,651.868C569.035,694.447 568.385,737.033 564.869,779.52C563.914,791.054 556.621,907.324 561.452,916.6C564.209,921.893 569.757,917.825 574.801,917.75C585.57,917.591 616.544,920.998 625.496,916.413C629.172,914.53 627.948,903.284 628.213,899.935C629.657,881.706 632.736,780.151 633.125,761.874C634.05,718.394 639.291,675.417 641.369,632.021C642.155,615.601 641.136,591.514 641.047,575.935C641.033,573.514 626.867,569.762 624.78,568.758C610.935,562.096 591.748,547.196 575.956,556.123L574.768,576.305ZM288.157,637.377C288.027,637.172 288.098,637.421 288.127,637.602C288.635,640.753 288.777,643.957 288.976,647.139C289.383,653.674 289.838,660.248 289.911,666.795C290.136,687.036 290.708,707.259 291.987,727.466C294.253,763.281 294.735,799.117 295.452,834.982C295.533,839.045 295.247,910.141 297.164,911.953C300.44,915.051 308.712,913.147 312.618,912.919C323.514,912.284 334.343,910.335 345.271,910.335C349.581,910.335 355.888,913.194 359.971,912.174C363.496,911.292 360.238,859.128 360.029,856.875C358.475,840.109 359.331,823.574 359.656,806.803C360.261,775.665 359.483,744.521 360.588,713.393C360.959,702.955 365.031,683.368 358.699,674.25C348.078,658.956 321.172,652.018 305.39,643.521L288.157,637.377ZM511.914,637.377C512.044,637.172 511.972,637.421 511.943,637.602C511.435,640.753 511.293,643.957 511.095,647.139C510.687,653.674 510.232,660.248 510.16,666.795C509.935,687.036 509.363,707.259 508.084,727.466C505.817,763.281 505.336,799.117 504.619,834.982C504.537,839.045 504.823,910.141 502.906,911.953C499.63,915.051 491.359,913.147 487.453,912.919C476.556,912.284 465.727,910.335 454.8,910.335C450.489,910.335 444.182,913.194 440.1,912.174C436.575,911.292 439.832,859.128 440.041,856.875C441.596,840.109 440.74,823.574 440.414,806.803C439.809,775.665 440.587,744.521 439.482,713.393C439.111,702.955 435.04,683.368 441.371,674.25C451.993,658.956 478.899,652.018 494.68,643.521L511.914,637.377Z" style="fill: none; stroke: black; stroke-width: 2.1px" /></g><path id="white-red2" d="M399.976,668.975C416.806,665.197 433.366,660.626 449.383,654.132C495.699,635.353 542.163,602.66 565.081,556.823L571.961,554.228C575.976,553.794 587.572,557.6 591.545,557.516C601.201,557.312 609.608,566.255 613.859,568.053C638.45,578.453 645.824,582.356 669.935,594.952C687.437,604.094 703.189,611.844 720.495,621.348C730.753,626.981 742.32,632.273 752.343,638.318C758.065,641.769 769.408,648.408 775.218,651.712C788.407,659.212 794.45,668.298 794.45,668.298C794.45,668.298 800.524,714.312 794.183,732.49C791.02,741.555 796.651,747.024 781.922,770.376C773.161,784.266 780.445,790.616 775.182,806.17C768.7,825.325 760.707,832.614 756.447,852.414C755.168,858.363 737.794,858.41 732.717,862.569C722.623,870.839 680.058,867.169 667.827,867.199C610.274,867.341 552.696,867.711 495.148,866.775C469.849,866.364 444.543,865.879 419.234,865.811C412.9,866.875 405.589,866.044 399.976,865.868C394.364,866.044 387.052,866.875 380.718,865.811C355.409,865.879 330.103,866.364 304.804,866.775C247.256,867.711 189.678,867.341 132.125,867.199C119.893,867.169 77.329,870.839 67.235,862.569C62.158,858.41 40.29,866.884 39.011,860.935C34.751,841.135 34.246,832.177 27.764,813.023C22.501,797.469 22.389,777.236 16.689,761.836C13.357,752.832 13.222,731.982 10.06,722.916C3.719,704.739 5.502,668.298 5.502,668.298C5.502,668.298 11.544,659.212 24.734,651.712C30.543,648.408 41.886,641.769 47.609,638.318C57.632,632.273 69.199,626.981 79.456,621.348C96.763,611.844 112.515,604.094 130.017,594.952C154.128,582.356 161.502,578.453 186.093,568.053C190.344,566.255 198.751,557.312 208.407,557.516C212.38,557.6 223.976,553.794 227.99,554.228L234.871,556.823C257.789,602.66 304.253,635.353 350.568,654.132C366.586,660.626 383.146,665.197 399.976,668.975Z" style="fill: none; stroke: black; stroke-width: 2.1px" /><path id="dark" d="M78.979,895.425C73.364,888.497 66.999,851.702 62.841,837.372C51.666,798.864 37.609,754.625 23.38,717.145C18.457,704.176 13.898,692.817 9.988,679.439C9.675,678.366 6.279,667.13 5.679,668.042C1.949,673.71 -7.251,685.885 -8.608,688.618C-21.87,715.312 -27.046,734.641 -30.108,759.628C-38.246,826.04 -53.343,895.144 -53.343,895.144C-53.343,895.144 34.167,896.254 50.077,897.394L78.979,895.425ZM720.693,895.425C726.308,888.497 732.673,851.702 736.831,837.372C748.006,798.864 762.063,754.625 776.292,717.145C781.215,704.176 785.774,692.817 789.684,679.439C789.997,678.366 793.393,667.13 793.993,668.042C797.723,673.71 806.923,685.885 808.28,688.618C821.542,715.312 826.718,734.641 829.78,759.628C837.918,826.04 853.015,895.144 853.015,895.144C853.015,895.144 765.505,896.254 749.595,897.394L720.693,895.425ZM399.96,648.48C408.587,648.201 418.414,646.976 423.698,646.167C445.199,642.875 464.962,635.555 484.157,625.42C505.79,613.998 523.839,599.924 537.398,579.382C543.481,570.168 549.299,560.747 554.872,551.217C556.186,548.97 558.346,541.856 560.778,540.616C562.567,539.704 566.787,544.365 568.011,545.27C573.884,549.616 581.482,549.666 587.992,552.585C588.855,552.972 592.889,554.054 592.443,555.577C587.561,572.228 575.203,588.696 565.21,602.445C552.84,619.465 537.932,636.25 521.724,649.502C486.724,678.116 452.838,689.822 407.865,692.897L392.055,692.897C347.082,689.822 313.196,678.116 278.196,649.502C261.987,636.25 247.08,619.465 234.71,602.445C224.716,588.696 212.359,572.228 207.477,555.577C207.03,554.054 211.065,552.972 211.928,552.585C218.438,549.666 226.036,549.616 231.909,545.27C233.132,544.365 237.352,539.704 239.142,540.616C241.574,541.856 243.734,548.97 245.048,551.217C250.621,560.747 256.439,570.168 262.521,579.382C276.081,599.924 294.13,613.998 315.762,625.42C334.958,635.555 354.721,642.875 376.222,646.167C381.506,646.976 391.333,648.201 399.96,648.48Z" style="fill: rgb(63, 63, 63)" /><clipPath id="_clip5"><path id="dark1" d="M78.979,895.425C73.364,888.497 66.999,851.702 62.841,837.372C51.666,798.864 37.609,754.625 23.38,717.145C18.457,704.176 13.898,692.817 9.988,679.439C9.675,678.366 6.279,667.13 5.679,668.042C1.949,673.71 -7.251,685.885 -8.608,688.618C-21.87,715.312 -27.046,734.641 -30.108,759.628C-38.246,826.04 -53.343,895.144 -53.343,895.144C-53.343,895.144 34.167,896.254 50.077,897.394L78.979,895.425ZM720.693,895.425C726.308,888.497 732.673,851.702 736.831,837.372C748.006,798.864 762.063,754.625 776.292,717.145C781.215,704.176 785.774,692.817 789.684,679.439C789.997,678.366 793.393,667.13 793.993,668.042C797.723,673.71 806.923,685.885 808.28,688.618C821.542,715.312 826.718,734.641 829.78,759.628C837.918,826.04 853.015,895.144 853.015,895.144C853.015,895.144 765.505,896.254 749.595,897.394L720.693,895.425ZM399.96,648.48C408.587,648.201 418.414,646.976 423.698,646.167C445.199,642.875 464.962,635.555 484.157,625.42C505.79,613.998 523.839,599.924 537.398,579.382C543.481,570.168 549.299,560.747 554.872,551.217C556.186,548.97 558.346,541.856 560.778,540.616C562.567,539.704 566.787,544.365 568.011,545.27C573.884,549.616 581.482,549.666 587.992,552.585C588.855,552.972 592.889,554.054 592.443,555.577C587.561,572.228 575.203,588.696 565.21,602.445C552.84,619.465 537.932,636.25 521.724,649.502C486.724,678.116 452.838,689.822 407.865,692.897L392.055,692.897C347.082,689.822 313.196,678.116 278.196,649.502C261.987,636.25 247.08,619.465 234.71,602.445C224.716,588.696 212.359,572.228 207.477,555.577C207.03,554.054 211.065,552.972 211.928,552.585C218.438,549.666 226.036,549.616 231.909,545.27C233.132,544.365 237.352,539.704 239.142,540.616C241.574,541.856 243.734,548.97 245.048,551.217C250.621,560.747 256.439,570.168 262.521,579.382C276.081,599.924 294.13,613.998 315.762,625.42C334.958,635.555 354.721,642.875 376.222,646.167C381.506,646.976 391.333,648.201 399.96,648.48Z" /></clipPath><g clip-path="url(#_clip5)"><path d="M751.765,775.929C751.358,776.473 751.157,776.85 751.637,776.708L751.765,775.929C752.248,775.283 753.021,774.404 753.296,773.877C754.402,771.753 755.493,769.622 756.559,767.477C759.708,761.139 762.679,754.749 765.543,748.279C771.608,734.579 776.14,722.213 782.757,708.771C783.742,706.77 787.836,696.558 790.052,695.713C790.429,695.568 795.723,706.705 796.016,707.382C796.089,707.549 806.353,727.934 811.351,738.784C812.034,740.267 814.952,749.656 817.436,748.194C824.026,744.314 825.135,728.95 825.439,722.529C826.44,701.347 818.351,686.291 806.501,669.353C802.427,663.53 798.208,655.561 791.763,651.982C783.134,647.192 778.243,661.818 776.206,667.428C768.084,689.806 762.656,713.625 758.191,736.972L751.765,775.929ZM48.093,775.929C48.5,776.473 48.701,776.85 48.221,776.708L48.093,775.929C47.61,775.283 46.837,774.404 46.563,773.877C45.456,771.753 44.365,769.622 43.299,767.477C40.15,761.139 37.18,754.749 34.315,748.279C28.25,734.579 23.718,722.213 17.101,708.771C16.116,706.77 12.022,696.558 9.806,695.713C9.429,695.568 4.136,706.705 3.842,707.382C3.769,707.549 -6.495,727.934 -11.493,738.784C-12.176,740.267 -15.094,749.656 -17.578,748.194C-24.168,744.314 -25.277,728.95 -25.581,722.529C-26.582,701.347 -18.493,686.291 -6.643,669.353C-2.569,663.53 1.65,655.561 8.095,651.982C16.724,647.192 21.615,661.818 23.652,667.428C31.774,689.806 37.202,713.625 41.667,736.972L48.093,775.929ZM566.129,534.369L565.944,534.367C564.711,534.363 563.482,534.472 562.259,534.726C554.23,536.392 548.396,543.929 543.436,549.863C533.281,562.01 523.468,574.509 514.249,587.38L506.438,607.413C506.691,606.827 508.508,605.971 508.97,605.635C511.261,603.971 513.555,602.312 515.812,600.601C522.984,595.163 529.925,589.45 535.683,582.489C540.979,576.087 545.998,569.456 551.301,563.053C552.121,562.063 555.231,556.852 556.956,557.443C559.272,558.237 561.343,559.8 563.714,560.59C564.075,560.71 566.087,561.019 566.29,561.426C566.486,561.818 563.936,565.219 563.721,565.584C561.095,570.052 558.593,574.592 555.986,579.07C554.329,581.916 552.718,584.771 551.154,587.669C550.636,588.627 550.087,589.568 549.565,590.523C549.519,590.608 548.814,592.071 548.908,592.071C549.248,592.071 550.137,590.693 550.328,590.465C551.819,588.685 553.3,586.901 554.744,585.082C560.242,578.16 564.943,570.567 570.445,563.689C570.839,563.197 572.255,564.151 572.616,564.329C573.516,564.772 579.511,566.902 579.653,567.896C579.882,569.502 577.253,572.851 576.557,574.162C573.456,580.001 570.28,585.779 566.734,591.363C551.619,615.161 533.445,637.882 510.775,654.837C502.717,660.864 494.389,666.546 486.056,672.182C483.248,674.081 480.432,675.971 477.636,677.888C476.664,678.554 475.701,679.232 474.747,679.924C474.683,679.971 473.485,680.879 473.595,680.946C474.001,681.19 475.533,680.226 475.855,680.065C478.052,678.967 480.177,677.717 482.286,676.461C491.766,670.811 501.061,664.749 510.135,658.472C541.073,637.071 568.014,610.496 589.572,579.61C594.57,572.449 599.301,565.039 603.47,557.361C604.863,554.796 607.406,550.917 606.181,547.844C605.307,545.653 602.558,544.819 600.519,544.181C595.518,542.614 590.446,541.278 585.448,539.696C579.363,537.77 572.719,534.456 566.129,534.369ZM234.099,534.368C235.269,534.374 236.437,534.485 237.599,534.726C245.628,536.392 251.462,543.929 256.422,549.863C266.578,562.01 276.39,574.509 285.609,587.38L293.42,607.413C293.167,606.827 291.35,605.971 290.888,605.635C288.597,603.971 286.303,602.312 284.046,600.601C276.874,595.163 269.933,589.45 264.175,582.489C258.879,576.087 253.861,569.456 248.557,563.053C247.737,562.063 244.627,556.852 242.902,557.443C240.586,558.237 238.515,559.8 236.144,560.59C235.783,560.71 233.771,561.019 233.568,561.426C233.372,561.818 235.922,565.219 236.137,565.584C238.763,570.052 241.265,574.592 243.872,579.07C245.529,581.916 247.14,584.771 248.704,587.669C249.222,588.627 249.771,589.568 250.293,590.523C250.34,590.608 251.044,592.071 250.95,592.071C250.61,592.071 249.721,590.693 249.53,590.465C248.039,588.685 246.558,586.901 245.114,585.082C239.616,578.16 234.915,570.567 229.413,563.689C229.019,563.197 227.603,564.151 227.243,564.329C226.342,564.772 220.347,566.902 220.205,567.896C219.976,569.502 222.605,572.851 223.301,574.162C226.402,580.001 229.578,585.779 233.124,591.363C248.239,615.161 266.413,637.882 289.083,654.837C297.141,660.864 305.469,666.546 313.802,672.182C316.61,674.081 319.426,675.971 322.222,677.888C323.194,678.554 324.157,679.232 325.111,679.924C325.175,679.971 326.373,680.879 326.263,680.946C325.857,681.19 324.325,680.226 324.004,680.065C321.806,678.967 319.681,677.717 317.572,676.461C308.092,670.811 298.797,664.749 289.723,658.472C258.785,637.071 231.844,610.496 210.286,579.61C205.288,572.449 200.557,565.039 196.388,557.361C194.995,554.796 192.452,550.917 193.677,547.844C194.551,545.653 197.3,544.819 199.339,544.181C204.34,542.614 209.412,541.278 214.41,539.696C220.552,537.752 227.265,534.393 233.914,534.367L234.099,534.368Z" style="fill: rgb(252, 255, 216); fill-opacity: 0.6" /></g><path id="dark2" d="M78.979,895.425C73.364,888.497 66.999,851.702 62.841,837.372C51.666,798.864 37.609,754.625 23.38,717.145C18.457,704.176 13.898,692.817 9.988,679.439C9.675,678.366 6.279,667.13 5.679,668.042C1.949,673.71 -7.251,685.885 -8.608,688.618C-21.87,715.312 -27.046,734.641 -30.108,759.628C-38.246,826.04 -53.343,895.144 -53.343,895.144C-53.343,895.144 34.167,896.254 50.077,897.394L78.979,895.425ZM720.693,895.425C726.308,888.497 732.673,851.702 736.831,837.372C748.006,798.864 762.063,754.625 776.292,717.145C781.215,704.176 785.774,692.817 789.684,679.439C789.997,678.366 793.393,667.13 793.993,668.042C797.723,673.71 806.923,685.885 808.28,688.618C821.542,715.312 826.718,734.641 829.78,759.628C837.918,826.04 853.015,895.144 853.015,895.144C853.015,895.144 765.505,896.254 749.595,897.394L720.693,895.425ZM399.96,648.48C408.587,648.201 418.414,646.976 423.698,646.167C445.199,642.875 464.962,635.555 484.157,625.42C505.79,613.998 523.839,599.924 537.398,579.382C543.481,570.168 549.299,560.747 554.872,551.217C556.186,548.97 558.346,541.856 560.778,540.616C562.567,539.704 566.787,544.365 568.011,545.27C573.884,549.616 581.482,549.666 587.992,552.585C588.855,552.972 592.889,554.054 592.443,555.577C587.561,572.228 575.203,588.696 565.21,602.445C552.84,619.465 537.932,636.25 521.724,649.502C486.724,678.116 452.838,689.822 407.865,692.897L392.055,692.897C347.082,689.822 313.196,678.116 278.196,649.502C261.987,636.25 247.08,619.465 234.71,602.445C224.716,588.696 212.359,572.228 207.477,555.577C207.03,554.054 211.065,552.972 211.928,552.585C218.438,549.666 226.036,549.616 231.909,545.27C233.132,544.365 237.352,539.704 239.142,540.616C241.574,541.856 243.734,548.97 245.048,551.217C250.621,560.747 256.439,570.168 262.521,579.382C276.081,599.924 294.13,613.998 315.762,625.42C334.958,635.555 354.721,642.875 376.222,646.167C381.506,646.976 391.333,648.201 399.96,648.48Z" style="fill: none; stroke: black; stroke-width: 2.1px" /></g></g><defs><linearGradient id="_Linear1" x1="0" y1="0" x2="1" y2="0.00245245" gradientUnits="userSpaceOnUse" gradientTransform="matrix(-0.897855,318.921,-525.283,-3.60072,399.782,560.048)"><stop offset="0" style="stop-color: rgb(245, 249, 251); stop-opacity: 1" /><stop offset="0.53" style="stop-color: rgb(221, 233, 241); stop-opacity: 1" /><stop offset="1" style="stop-color: rgb(140, 180, 206); stop-opacity: 1" /></linearGradient><linearGradient id="_Linear3" x1="0" y1="0" x2="1" y2="0" gradientUnits="userSpaceOnUse" gradientTransform="matrix(-1.68008,328.079,-342.313,-1.75297,399.966,655.878)"><stop offset="0" style="stop-color: rgb(236, 65, 81); stop-opacity: 1" /><stop offset="1" style="stop-color: rgb(172, 27, 60); stop-opacity: 1" /></linearGradient></defs></pattern><g transform="matrix(1,0,0,1,7.6296,-2.65748)"><text x="263.72px" y="53.076px" style="font-family: 'Futura-Medium', 'Futura', sans-serif; font-weight: 500; font-size: 50px; fill: white">SEASON 0</text></g></g><defs><linearGradient id="_Linear3_card_template" x1="0" y1="0" x2="1" y2="0" gradientUnits="userSpaceOnUse" gradientTransform="matrix(3.89688e-14,-610.267,636.408,3.73681e-14,398.243,614.74)"><stop offset="0" style="stop-color: rgb(80, 225, 255); stop-opacity: 1" /><stop offset="0.44" style="stop-color: rgb(219, 249, 255); stop-opacity: 1" /><stop offset="1" style="stop-color: white; stop-opacity: 1" /></linearGradient><g id="heli-cap"><path id="Shadow" d="M404.234,215.129C428.898,218.296 500.585,226.535 542.136,238.146C592.982,252.354 584.265,253.34 584.265,253.34L550.569,247.259L542.493,305.294C542.493,305.294 541.37,323.811 530.272,331.323C519.173,338.835 479.09,333.357 447.17,329.124C424.063,326.059 407.352,325.468 399.884,325.376C392.417,325.468 375.705,326.059 352.598,329.124C320.678,333.357 280.595,338.835 269.497,331.323C258.398,323.811 257.275,305.294 257.275,305.294L249.199,247.259L215.503,253.34C215.503,253.34 207.131,252.297 257.976,238.089C299.527,226.479 370.87,218.296 395.534,215.129L395.534,214.041C395.534,214.041 397.081,214.225 399.884,214.577C402.687,214.225 404.234,214.041 404.234,214.041L404.234,215.129Z" style="fill: rgb(56, 25, 57); fill-opacity: 0.5" /><g id="fan-bit"><path d="M395.662,27.087C395.662,27.087 305.36,21.898 297.195,21.931C289.03,21.964 217.675,23.635 219.953,27.087C222.232,30.54 246.78,39.059 264.821,40.14C282.862,41.221 395.662,31.814 395.662,31.814L395.662,27.087Z" style="fill: rgb(255, 223, 92)" /><clipPath id="_clip1_helicap"><path d="M395.662,27.087C395.662,27.087 305.36,21.898 297.195,21.931C289.03,21.964 217.675,23.635 219.953,27.087C222.232,30.54 246.78,39.059 264.821,40.14C282.862,41.221 395.662,31.814 395.662,31.814L395.662,27.087Z" /></clipPath><g clip-path="url(#_clip1_helicap)"><path d="M225.045,30.993C224.466,30.556 226.493,31.072 227.216,31.134C228.615,31.253 230.015,31.49 231.402,31.711C235.56,32.373 239.679,33.266 243.832,33.951C256.481,36.039 268.516,36.65 281.321,35.92C311.507,34.198 341.744,31.992 371.953,30.788C378.744,30.517 385.563,29.762 392.361,29.793C393.154,29.796 398.369,29.49 398.481,30.879C398.643,32.871 390.787,34.056 389.713,34.297C379.34,36.621 368.638,37.688 358.071,38.674C335.223,40.808 312.31,42.38 289.381,43.297C269.861,44.077 249.889,44.568 231.024,38.676" style="fill: rgb(160, 127, 79)" /><path d="M221.982,34.549C221.357,34.464 223.132,34.023 223.728,33.816C224.969,33.385 226.236,33.022 227.503,32.675C231.207,31.658 234.941,30.706 238.7,29.914C250.216,27.49 261.202,27.44 272.971,27.087C304.553,26.141 336.842,27.518 368.406,28.034C376.092,28.159 383.776,28.339 391.464,28.358C393.343,28.363 395.23,28.409 397.107,28.295C397.365,28.279 398.648,28.328 398.721,27.932C398.808,27.454 397.199,26.951 396.934,26.847C394.602,25.938 392.138,25.344 389.71,24.758C378.824,22.128 367.743,20.21 356.698,18.389C320.376,12.401 283.559,9.397 247.002,15.239C236.346,16.943 224.953,18.817 215.008,23.192C211.62,24.682 204.696,29.027 210.51,32.198" style="fill: rgb(254, 239, 171)" /></g><path d="M395.662,27.087C395.662,27.087 305.36,21.898 297.195,21.931C289.03,21.964 217.675,23.635 219.953,27.087C222.232,30.54 246.78,39.059 264.821,40.14C282.862,41.221 395.662,31.814 395.662,31.814L395.662,27.087Z" style="fill: none; stroke: black; stroke-width: 2.1px" /><g transform="matrix(-1,0,0,1,800.877,0)"><path d="M395.662,27.087C395.662,27.087 305.36,21.898 297.195,21.931C289.03,21.964 217.675,23.635 219.953,27.087C222.232,30.54 246.78,39.059 264.821,40.14C282.862,41.221 395.662,31.814 395.662,31.814L395.662,27.087Z" style="fill: rgb(255, 223, 92)" /><clipPath id="_clip2_helicap"><path d="M395.662,27.087C395.662,27.087 305.36,21.898 297.195,21.931C289.03,21.964 217.675,23.635 219.953,27.087C222.232,30.54 246.78,39.059 264.821,40.14C282.862,41.221 395.662,31.814 395.662,31.814L395.662,27.087Z" /></clipPath><g clip-path="url(#_clip2_helicap)"><path d="M225.045,30.993C224.466,30.556 226.493,31.072 227.216,31.134C228.615,31.253 230.015,31.49 231.402,31.711C235.56,32.373 239.679,33.266 243.832,33.951C256.481,36.039 268.516,36.65 281.321,35.92C311.507,34.198 341.744,31.992 371.953,30.788C378.744,30.517 385.563,29.762 392.361,29.793C393.154,29.796 398.369,29.49 398.481,30.879C398.643,32.871 390.787,34.056 389.713,34.297C379.34,36.621 368.638,37.688 358.071,38.674C335.223,40.808 312.31,42.38 289.381,43.297C269.861,44.077 249.889,44.568 231.024,38.676" style="fill: rgb(160, 127, 79)" /><path d="M221.982,34.549C221.357,34.464 223.132,34.023 223.728,33.816C224.969,33.385 226.236,33.022 227.503,32.675C231.207,31.658 234.941,30.706 238.7,29.914C250.216,27.49 261.202,27.44 272.971,27.087C304.553,26.141 336.842,27.518 368.406,28.034C376.092,28.159 383.776,28.339 391.464,28.358C393.343,28.363 395.23,28.409 397.107,28.295C397.365,28.279 398.648,28.328 398.721,27.932C398.808,27.454 397.199,26.951 396.934,26.847C394.602,25.938 392.138,25.344 389.71,24.758C378.824,22.128 367.743,20.21 356.698,18.389C320.376,12.401 283.559,9.397 247.002,15.239C236.346,16.943 224.953,18.817 215.008,23.192C211.62,24.682 204.696,29.027 210.51,32.198" style="fill: rgb(254, 239, 171)" /></g><path d="M395.662,27.087C395.662,27.087 305.36,21.898 297.195,21.931C289.03,21.964 217.675,23.635 219.953,27.087C222.232,30.54 246.78,39.059 264.821,40.14C282.862,41.221 395.662,31.814 395.662,31.814L395.662,27.087Z" style="fill: none; stroke: black; stroke-width: 2.1px" /></g><path d="M395.662,36.495L395.751,21.86C395.751,21.86 396.109,18.084 399.915,17.68C399.926,17.679 399.937,17.679 399.948,17.68C399.959,17.679 399.971,17.679 399.982,17.68C403.788,18.084 404.145,21.86 404.145,21.86L404.234,36.495L395.662,36.495Z" style="fill: rgb(255, 223, 92)" /><clipPath id="_clip3_helicap"><path d="M395.662,36.495L395.751,21.86C395.751,21.86 396.109,18.084 399.915,17.68C399.926,17.679 399.937,17.679 399.948,17.68C399.959,17.679 399.971,17.679 399.982,17.68C403.788,18.084 404.145,21.86 404.145,21.86L404.234,36.495L395.662,36.495Z" /></clipPath><g clip-path="url(#_clip3_helicap)"><path d="M396.408,29.617C396.622,29.65 396.458,29.188 396.499,28.976C396.586,28.528 396.7,28.084 396.829,27.647C397.214,26.343 397.757,24.643 399.011,23.909C400.932,22.783 402.315,25.251 402.895,26.692C403,26.952 403.771,29.292 403.827,29.257C404.439,28.867 404.137,25.96 404.128,25.393C404.091,23.044 404.028,20.205 402.607,18.211C400.488,15.235 397.048,17.454 396.012,20.143C395.592,21.235 395.43,22.372 395.383,23.535C395.31,25.354 395.397,27.164 395.535,28.977" style="fill: rgb(254, 239, 171)" /><path d="M397.685,37.145C397.749,37.229 397.921,36.235 397.982,35.601C398.159,33.772 398.137,29.726 398.588,28.438C398.797,27.841 399.356,26.99 400.104,27.024C400.945,27.062 401.459,28.117 401.604,28.989C401.909,30.833 402.046,33.45 402.211,35.31C402.242,35.657 402.318,36.883 402.038,37.169C401.738,37.475 401.072,37.264 400.699,37.246" style="fill: rgb(160, 127, 79)" /></g><path d="M395.662,36.495L395.751,21.86C395.751,21.86 396.109,18.084 399.915,17.68C399.926,17.679 399.937,17.679 399.948,17.68C399.959,17.679 399.971,17.679 399.982,17.68C403.788,18.084 404.145,21.86 404.145,21.86L404.234,36.495L395.662,36.495Z" style="fill: none; stroke: black; stroke-width: 2.1px" /></g><g id="Cap"><g transform="matrix(1,0,0,1.17244,0.492122,-13.9146)"><ellipse cx="399.645" cy="49.941" rx="13.8" ry="6.946" style="fill: rgb(235, 65, 81)" /><clipPath id="_clip4"><ellipse cx="399.645" cy="49.941" rx="13.8" ry="6.946" /></clipPath><g clip-path="url(#_clip4)"><g transform="matrix(1,0,0,0.85292,-0.492122,11.868)"><path d="M401.096,36.072C401.204,36.209 400.782,36.223 400.629,36.306C400.317,36.474 400.014,36.659 399.719,36.855C398.851,37.433 397.984,38.08 397.247,38.82C396.394,39.676 395.756,40.729 395.141,41.761C394.702,42.5 394.314,43.34 393.452,43.653C391.461,44.376 388.942,43.894 386.882,43.762C386.382,43.73 384.99,43.751 384.867,43.052C384.762,42.453 385.534,41.728 385.889,41.348C387.186,39.958 388.811,38.787 390.491,37.908C392.195,37.015 394.026,36.518 395.915,36.2L401.096,36.072ZM400.846,37.102C400.704,37.107 401.084,37.26 401.196,37.348C401.422,37.524 401.643,37.71 401.856,37.901C402.508,38.488 403.129,39.093 403.652,39.801C404.274,40.64 404.859,41.926 405.729,42.523C406.892,43.323 409.006,43.103 410.336,43.246C410.947,43.312 412.812,43.875 413.279,43.263C413.926,42.417 412.056,40.88 411.571,40.433C409.234,38.282 406.484,36.91 403.337,36.446L400.846,37.102Z" style="fill: rgb(245, 180, 162)" /></g></g><ellipse cx="399.645" cy="49.941" rx="13.8" ry="6.946" style="fill: none; stroke: black; stroke-width: 1.93px" /></g><path d="M397.676,42.89C398.239,42.681 401.591,42.681 402.153,42.89C501.816,49.249 562.727,112.371 575.583,128.609C598.099,165.571 588.808,253.34 588.808,253.34L550.413,240.154C501.393,225.168 450.081,213.936 399.915,213.936C349.748,213.936 298.436,225.168 249.416,240.154L211.021,253.34C211.021,253.34 201.73,165.571 224.246,128.609C237.102,112.371 298.013,49.249 397.676,42.89Z" style="fill: url(#_Linear5)" /><clipPath id="_clip6"><path d="M397.676,42.89C398.239,42.681 401.591,42.681 402.153,42.89C501.816,49.249 562.727,112.371 575.583,128.609C598.099,165.571 588.808,253.34 588.808,253.34L550.413,240.154C501.393,225.168 450.081,213.936 399.915,213.936C349.748,213.936 298.436,225.168 249.416,240.154L211.021,253.34C211.021,253.34 201.73,165.571 224.246,128.609C237.102,112.371 298.013,49.249 397.676,42.89Z" /></clipPath><g clip-path="url(#_clip6)"><path d="M249.199,239.63C249.199,239.63 253.866,164.607 268.912,136.528C283.959,108.45 312.705,85.883 333.536,71.098C354.368,56.313 390.641,43.187 390.777,43.294C390.913,43.4 396.586,42.578 396.586,42.578C396.586,42.578 374.576,62.921 364.35,92.142C354.124,121.362 346.116,161.226 347.318,218.647C340.968,218.814 275.527,230.905 267.561,234.361C259.596,237.818 249.199,239.63 249.199,239.63ZM551.074,239.63C551.074,239.63 546.408,164.607 531.361,136.528C516.315,108.45 487.569,85.883 466.737,71.098C445.905,56.313 409.632,43.187 409.496,43.294C409.361,43.4 403.687,42.578 403.687,42.578C403.687,42.578 425.697,62.921 435.923,92.142C446.149,121.362 454.157,161.226 452.955,218.647C459.305,218.814 524.746,230.905 532.712,234.361C540.678,237.818 551.074,239.63 551.074,239.63Z" style="fill: url(#_Linear7)" /><path d="M386.51,40.023C386.149,40.084 385.678,40.219 385.621,40.231C382.237,40.915 378.883,41.767 375.538,42.617C363.669,45.633 355.109,49.217 343.932,54.254C303.045,72.682 247.542,103.044 231.39,146.585C222.965,169.296 223.688,209.652 225.073,237.051C225.43,244.108 227.418,247.931 226.532,254.956C225.78,260.918 213.933,261.098 210.297,258.578C204.079,254.269 201.397,245.103 200.242,238.083C197.333,220.407 199.714,201.275 201.542,183.602C203.778,161.983 208.463,138.497 220.356,119.889C230.231,104.439 245.732,92.839 260.744,82.753C294.17,60.297 333.806,42.68 374.377,39.606L386.51,40.023ZM413.666,40.023C414.027,40.084 414.499,40.219 414.555,40.231C417.94,40.915 421.293,41.767 424.639,42.617C436.507,45.633 445.067,49.217 456.244,54.254C497.131,72.682 552.634,103.044 568.786,146.585C577.211,169.296 576.488,209.652 575.104,237.051C574.747,244.108 572.758,247.931 573.644,254.956C574.396,260.918 586.243,261.098 589.88,258.578C596.098,254.269 598.779,245.103 599.934,238.083C602.844,220.407 600.463,201.275 598.635,183.602C596.398,161.983 591.713,138.497 579.82,119.889C569.946,104.439 554.444,92.839 539.432,82.753C506.007,60.297 466.371,42.68 425.8,39.606L413.666,40.023ZM386.51,40.023L386.927,40.038C386.903,39.978 386.727,39.987 386.51,40.023ZM413.666,40.023L413.25,40.038C413.273,39.978 413.45,39.987 413.666,40.023Z" style="fill: rgb(245, 180, 162)" /><path d="M249.586,240.272C249.586,240.272 250.164,154.307 278.814,120.051C307.465,85.795 350.156,54.702 391.1,43.408" style="fill: none; stroke: black; stroke-width: 2.1px" /><g transform="matrix(-1,0,0,1,799.538,0)"><path d="M249.586,240.272C249.586,240.272 250.164,154.307 278.814,120.051C307.465,85.795 350.442,54.751 391.387,43.457" style="fill: none; stroke: black; stroke-width: 2.1px" /></g><path d="M347.158,217.127C347.158,217.127 347.667,120.455 367.04,84.844C386.412,49.233 394.933,43.753 394.933,43.753" style="fill: none; stroke: black; stroke-width: 2.1px" /><g transform="matrix(-1,0,0,1,799.538,0)"><path d="M347.158,217.127C347.158,217.127 347.667,120.455 367.04,84.844C386.412,49.233 394.933,43.753 394.933,43.753" style="fill: none; stroke: black; stroke-width: 2.1px" /></g></g><path d="M397.676,42.89C398.239,42.681 401.591,42.681 402.153,42.89C501.816,49.249 562.727,112.371 575.583,128.609C598.099,165.571 588.808,253.34 588.808,253.34L550.413,240.154C501.393,225.168 450.081,213.936 399.915,213.936C349.748,213.936 298.436,225.168 249.416,240.154L211.021,253.34C211.021,253.34 201.73,165.571 224.246,128.609C237.102,112.371 298.013,49.249 397.676,42.89Z" style="fill: none; stroke: black; stroke-width: 2.1px" /><path d="M400.347,214.257L401.046,214.208C401.046,214.208 449.984,210.469 544.124,238.299C546.339,238.954 551.328,240.087 551.328,240.087C551.328,240.087 551.171,297.659 547.632,301.641C544.093,305.623 528.746,308.238 501.077,299.129C475.591,290.739 428.873,277.289 406.043,275.531L406.052,275.716C406.052,275.716 403.087,275.432 400.347,275.357C397.607,275.432 394.642,275.716 394.642,275.716L394.651,275.531C371.821,277.289 325.102,290.739 299.616,299.129C271.947,308.238 256.601,305.623 253.062,301.641C249.522,297.659 249.366,240.087 249.366,240.087C249.366,240.087 254.355,238.954 256.57,238.299C350.709,210.469 399.648,214.208 399.648,214.208L400.347,214.257Z" style="fill: url(#_Linear8)" /><clipPath id="_clip9"><path d="M400.347,214.257L401.046,214.208C401.046,214.208 449.984,210.469 544.124,238.299C546.339,238.954 551.328,240.087 551.328,240.087C551.328,240.087 551.171,297.659 547.632,301.641C544.093,305.623 528.746,308.238 501.077,299.129C475.591,290.739 428.873,277.289 406.043,275.531L406.052,275.716C406.052,275.716 403.087,275.432 400.347,275.357C397.607,275.432 394.642,275.716 394.642,275.716L394.651,275.531C371.821,277.289 325.102,290.739 299.616,299.129C271.947,308.238 256.601,305.623 253.062,301.641C249.522,297.659 249.366,240.087 249.366,240.087C249.366,240.087 254.355,238.954 256.57,238.299C350.709,210.469 399.648,214.208 399.648,214.208L400.347,214.257Z" /></clipPath><g clip-path="url(#_clip9)"><path d="M251.594,304.731C251.855,304.832 251.343,304.231 251.219,303.98C250.987,303.508 250.764,303.037 250.575,302.546C250.178,301.512 248.566,297.054 250.267,296.409C250.947,296.151 251.987,297.086 252.485,297.443C254.046,298.559 255.536,299.132 257.393,299.572C262.424,300.766 267.816,300.083 272.82,299.104C280.741,297.554 288.173,294.644 295.884,292.343C309.5,288.281 323.323,284.314 337.073,280.731C358.304,275.198 380.747,268.911 402.879,269.112C413.132,269.206 423.378,271.42 433.364,273.556C447.757,276.636 462.055,280.229 476.212,284.264C492.078,288.786 507.505,294.936 523.521,298.915C526.586,299.676 536.917,300.668 544.665,299.083C547.082,298.589 549.341,294.044 550.722,294.862C552.363,295.833 552.898,302.364 552.859,304.112C552.755,308.734 528.869,308.393 526.293,308.154C525.101,308.044 523.911,307.919 522.722,307.782C521.31,307.618 519.899,307.44 518.49,307.25C516.83,307.027 515.17,306.794 513.513,306.547C511.62,306.266 509.729,305.973 507.84,305.669C472.977,300.059 438.366,292.599 402.918,291.939C380.65,291.524 358.558,294.166 336.816,298.89C319.525,302.647 302.576,307.914 285.225,311.392C273.857,313.671 251.512,316.991 247.271,301.573" style="fill: rgb(136, 47, 70)" /><path d="M304.06,221.428C304.196,221.397 304.296,221.385 304.356,221.393L304.06,221.428C301.643,221.973 287.912,228.319 284.128,230.433C275.725,235.129 262.331,240.137 258.778,247.358C256.559,251.869 256.411,257.63 256.193,262.592C256.007,266.843 256.49,272.054 256.819,276.295C257.425,284.097 256.806,291.928 265.149,294.62C268.762,295.785 274.938,295.658 278.728,295.876C280.053,295.953 286.575,295.818 286.575,295.875C286.575,296.105 271.974,299.379 267.78,299.819C263.539,300.264 258.059,300.249 254.244,298C244.208,292.081 243.503,272.492 242.848,262.664C242.333,254.936 241.625,246.108 245.124,238.937C247.754,233.545 252.778,229.873 257.849,226.955L304.06,221.428ZM496.238,221.428C498.655,221.973 512.386,228.319 516.17,230.433C524.573,235.129 537.967,240.137 541.52,247.358C543.739,251.869 543.887,257.63 544.105,262.592C544.291,266.843 543.808,272.054 543.479,276.295C542.874,284.097 543.492,291.928 535.149,294.62C531.536,295.785 525.36,295.658 521.57,295.876C520.245,295.953 513.723,295.818 513.723,295.875C513.723,296.105 528.324,299.379 532.519,299.819C536.759,300.264 542.239,300.249 546.054,298C556.09,292.081 556.795,272.492 557.45,262.664C557.966,254.936 558.673,246.108 555.174,238.937C552.544,233.545 547.521,229.873 542.449,226.955L496.238,221.428C496.102,221.397 496.003,221.385 495.942,221.393L496.238,221.428Z" style="fill: rgb(245, 180, 162)" /><path d="M251.677,295.591C251.677,295.591 256.821,304.1 277.718,297.961C298.615,291.823 371.118,268.698 399.043,268.92C426.969,269.142 476.724,284.555 501.938,292.832C527.152,301.109 544.899,301.572 548.436,295.121" style="fill: none; stroke: black; stroke-width: 2.1px" /></g><path d="M400.347,214.257L401.046,214.208C401.046,214.208 449.984,210.469 544.124,238.299C546.339,238.954 551.328,240.087 551.328,240.087C551.328,240.087 551.171,297.659 547.632,301.641C544.093,305.623 528.746,308.238 501.077,299.129C475.591,290.739 428.873,277.289 406.043,275.531L406.052,275.716C406.052,275.716 403.087,275.432 400.347,275.357C397.607,275.432 394.642,275.716 394.642,275.716L394.651,275.531C371.821,277.289 325.102,290.739 299.616,299.129C271.947,308.238 256.601,305.623 253.062,301.641C249.522,297.659 249.366,240.087 249.366,240.087C249.366,240.087 254.355,238.954 256.57,238.299C350.709,210.469 399.648,214.208 399.648,214.208L400.347,214.257Z" style="fill: none; stroke: black; stroke-width: 2.1px" /></g></g><linearGradient id="_Linear5" x1="0" y1="0" x2="1" y2="0" gradientUnits="userSpaceOnUse" gradientTransform="matrix(0.676239,212.321,-212.321,0.676239,399.671,115.988)"><stop offset="0" style="stop-color: rgb(236, 65, 81); stop-opacity: 1" /><stop offset="0.5" style="stop-color: rgb(220, 55, 76); stop-opacity: 1" /><stop offset="1" style="stop-color: rgb(172, 27, 60); stop-opacity: 1" /></linearGradient><linearGradient id="_Linear7" x1="0" y1="0" x2="1" y2="0" gradientUnits="userSpaceOnUse" gradientTransform="matrix(0.676239,174.104,-174.104,0.676239,399.671,95.0041)"><stop offset="0" style="stop-color: rgb(245, 249, 251); stop-opacity: 1" /><stop offset="0.59" style="stop-color: rgb(226, 236, 243); stop-opacity: 1" /><stop offset="0.81" style="stop-color: rgb(183, 208, 225); stop-opacity: 1" /><stop offset="1" style="stop-color: rgb(140, 180, 206); stop-opacity: 1" /></linearGradient><linearGradient id="_Linear8" x1="0" y1="0" x2="1" y2="0" gradientUnits="userSpaceOnUse" gradientTransform="matrix(6.8912e-15,-112.542,112.542,6.8912e-15,399.671,269.108)"><stop offset="0" style="stop-color: rgb(236, 65, 81); stop-opacity: 1" /><stop offset="0.46" style="stop-color: rgb(227, 63, 84); stop-opacity: 1" /><stop offset="1" style="stop-color: rgb(203, 57, 90); stop-opacity: 1" /></linearGradient></defs></svg>