<svg
  width="100%"
  height="100%"
  viewBox="0 0 800 800"
  xmlns="http://www.w3.org/2000/svg"
>
  <g id="tired">
    <g id="eyes">
      <path
        d="M427.112,312.975C426.935,312.821 424.821,315.89 424.689,316.085C422.355,319.531 420.066,323.216 418.905,327.246C415.714,338.319 419.935,352.293 425.757,361.755C426.349,362.717 427.532,361.131 428.091,360.699C430.276,359.009 432.491,357.379 434.59,355.58C434.876,355.335 436.55,353.378 437.002,353.642C438.649,354.603 439.526,357.576 440.458,359.109C442.623,362.669 445,365.694 448.709,367.737C453.82,370.554 459.415,372.255 465.018,373.762C477.139,377.021 492.022,381.089 503.379,373.84C511.575,368.609 514.931,360.522 519.106,352.172C520.619,349.147 522.863,346.245 524.075,343.094C524.632,341.644 521.781,341.229 520.984,341.017C516.93,339.942 512.964,338.797 508.984,337.453C503.073,335.457 497.213,333.636 491.242,331.834C483.088,329.374 474.584,326.988 466.074,325.998C462.371,325.568 458.677,325.248 454.955,325.026C454.619,325.006 451.59,325.133 451.481,324.834C451.067,323.695 456.056,321.649 456.767,321.45C462.721,319.783 470.088,320.367 476.245,320.442C477.965,320.463 479.694,320.587 481.411,320.676C482.251,320.719 483.932,321.637 483.932,320.796C483.932,320.727 481.559,320.19 481.411,320.154C479.251,319.628 477.115,318.997 474.973,318.402C474.698,318.325 471.624,317.587 471.727,317.406C472.341,316.314 476.218,315.92 477.277,315.677C482.977,314.372 488.803,313.718 494.498,312.353C495.228,312.178 501.227,311.207 501.261,310.217C501.283,309.567 497.746,309.186 497.367,309.119C493.223,308.389 489.043,307.963 484.85,307.649C467.992,306.386 450.473,307.109 433.81,310.139L427.112,312.975ZM371.666,312.975C371.843,312.821 373.957,315.89 374.089,316.085C376.423,319.531 378.712,323.216 379.873,327.246C383.064,338.319 378.843,352.293 373.021,361.755C372.429,362.717 371.246,361.131 370.687,360.699C368.502,359.009 366.287,357.379 364.188,355.58C363.902,355.335 362.228,353.378 361.776,353.642C360.129,354.603 359.252,357.576 358.32,359.109C356.155,362.669 353.777,365.694 350.069,367.737C344.958,370.554 339.362,372.255 333.76,373.762C321.639,377.021 306.756,381.089 295.399,373.84C287.203,368.609 283.847,360.522 279.672,352.172C278.159,349.147 275.915,346.245 274.703,343.094C274.146,341.644 276.997,341.229 277.793,341.017C281.848,339.942 285.814,338.797 289.794,337.453C295.705,335.457 301.565,333.636 307.536,331.834C315.69,329.374 324.194,326.988 332.704,325.998C336.407,325.568 340.101,325.248 343.823,325.026C344.159,325.006 347.188,325.133 347.297,324.834C347.711,323.695 342.722,321.649 342.01,321.45C336.057,319.783 328.69,320.367 322.533,320.442C320.813,320.463 319.084,320.587 317.367,320.676C316.527,320.719 314.846,321.637 314.846,320.796C314.846,320.727 317.219,320.19 317.367,320.154C319.527,319.628 321.663,318.997 323.805,318.402C324.08,318.325 327.154,317.587 327.051,317.406C326.437,316.314 322.559,315.92 321.501,315.677C315.8,314.372 309.975,313.718 304.28,312.353C303.55,312.178 297.551,311.207 297.517,310.217C297.495,309.567 301.032,309.186 301.411,309.119C305.555,308.389 309.735,307.963 313.928,307.649C330.786,306.386 348.305,307.109 364.968,310.139L371.666,312.975ZM411.601,292.04C411.53,292.938 410.662,295.444 410.588,295.756C409.731,299.357 408.902,303.858 409.454,307.565C409.836,310.129 412.3,311.444 414.668,311.681C415.124,311.727 417.263,312.05 417.446,311.363C417.731,310.295 415.744,307.487 415.34,306.527C413.694,302.609 412.642,299.102 412.04,294.886L411.601,292.04C411.613,291.88 411.601,291.771 411.554,291.734L411.601,292.04ZM387.177,292.04C387.248,292.938 388.116,295.444 388.19,295.756C389.047,299.357 389.876,303.858 389.324,307.565C388.942,310.129 386.478,311.444 384.11,311.681C383.654,311.727 381.515,312.05 381.332,311.363C381.047,310.295 383.034,307.487 383.438,306.527C385.084,302.609 386.136,299.102 386.738,294.886L387.177,292.04C387.165,291.88 387.177,291.771 387.224,291.734L387.177,292.04Z"
        style="fill: rgb(56, 25, 57); fill-opacity: 0.5"
      />
      <g>
        <path
          d="M447.08,362.669C448.214,363.226 450.711,364.676 451.866,365.186C458.259,368.007 463.753,370.238 469.783,371.76C476.459,373.445 483.101,374.124 489.942,372.994C501.235,371.13 511.202,363.727 517.338,354.072"
          style="fill: none; stroke: black; stroke-width: 2.1px"
        />
        <path
          d="M449.749,367.2C449.459,367.185 454.735,369.624 456.257,370.228C460.979,372.105 466.029,373.805 470.941,375.157C479.504,377.513 489.426,379.215 498.046,376.049C503.617,374.003 510.033,367.922 513.477,363.187"
          style="fill: none; stroke: black; stroke-width: 2.1px"
        />
        <path
          d="M446.041,342.39C442.934,347.1 439.416,354.683 445.745,358.735C451.179,362.214 458.24,364.563 464.205,366.108C471.164,367.912 478.394,370.362 485.682,369.863C493.796,369.308 502.535,363.76 508.508,358.633C512.055,355.587 514.976,352.1 517.732,348.337C518.475,347.323 520.3,345.509 520.459,344.185C520.5,343.845 519.179,343.926 519.015,343.921C517.368,343.87 515.724,343.784 514.083,343.623C509.929,343.215 505.832,342.209 501.743,341.402C493.174,339.71 484.504,338.717 475.817,337.866C465.936,336.899 454.472,335.966 446.041,342.39Z"
          style="fill: white"
        />
        <clipPath id="_clip3_Business_tired_eyes">
          <path
            d="M446.041,342.39C442.934,347.1 439.416,354.683 445.745,358.735C451.179,362.214 458.24,364.563 464.205,366.108C471.164,367.912 478.394,370.362 485.682,369.863C493.796,369.308 502.535,363.76 508.508,358.633C512.055,355.587 514.976,352.1 517.732,348.337C518.475,347.323 520.3,345.509 520.459,344.185C520.5,343.845 519.179,343.926 519.015,343.921C517.368,343.87 515.724,343.784 514.083,343.623C509.929,343.215 505.832,342.209 501.743,341.402C493.174,339.71 484.504,338.717 475.817,337.866C465.936,336.899 454.472,335.966 446.041,342.39Z"
          />
        </clipPath>
        <g clip-path="url(#_clip3_Business_tired_eyes)">
          <g transform="matrix(0.990163,0,0,0.980632,1.16209,2.63913)">
            <circle
              cx="482.434"
              cy="348.254"
              r="18.521"
              style="
                fill: rgb(
                  var(--color_eyes_r, 99),
                  var(--color_eyes_g, 65),
                  var(--color_eyes_b)
                );
              "
            />
            <clipPath id="_clip4_Business_tired_eyes">
              <circle cx="482.434" cy="348.254" r="18.521" />
            </clipPath>
            <g clip-path="url(#_clip4_Business_tired_eyes)">
              <g transform="matrix(0.511888,0,0,0.521841,235.441,167.831)">
                <circle
                  cx="482.434"
                  cy="348.254"
                  r="18.521"
                  style="
                    fill: rgb(
                      calc(var(--color_eyes_r, 99) + 119),
                      calc(var(--color_eyes_g, 65) + 106),
                      calc(var(--color_eyes_b, 28) + 41)
                    );
                  "
                />
              </g>
              <g transform="matrix(0.455248,0,0,0.455248,262.807,189.712)">
                <circle cx="482.434" cy="348.254" r="18.521" />
              </g>
            </g>
            <circle
              cx="482.434"
              cy="348.254"
              r="18.521"
              style="fill: none; stroke: black; stroke-width: 2.1px"
            />
          </g>
          <path
            d="M436.59,356.238C437.241,356.688 437.75,355.151 438.407,354.71C439.72,353.827 441.225,353.348 442.708,352.83C447.333,351.214 452.26,350.58 457.111,350.054C478.185,347.772 498.764,356.487 519.816,353.294C525.268,352.467 530.82,350.916 535.195,347.414C537.595,345.492 539.562,342.588 537.128,339.816C532.35,334.374 522.111,332.904 515.485,331.872C497.027,328.997 477.682,329.404 459.576,334.128C452.002,336.104 444.433,338.941 438.706,344.466C437.251,345.87 434.487,348.829 435.301,351.224"
            style="fill: rgb(56, 25, 57); fill-opacity: 0.5"
          />
          <path
            d="M470.112,326.177C469.636,326.103 468.652,326.9 468.29,327.115C466.597,328.123 464.968,329.244 463.449,330.5C459.087,334.107 455.281,339.257 452.339,344.085C451.028,346.236 449.746,348.606 449.693,351.185C449.607,355.393 451.686,358.482 454.486,361.37C455.543,362.46 456.603,363.547 457.626,364.669C457.717,364.769 458.731,365.808 458.38,365.925C456.826,366.443 453.177,364.6 451.715,364.154C445.435,362.238 436.654,359.946 436.69,351.792C436.729,343.196 444.974,338.429 452.213,336.29"
            style="fill: rgb(205, 67, 67)"
          />
          <path
            d="M497.096,338.164C496.933,338.304 499.993,340.484 500.464,340.887C502.863,342.933 508.858,345.916 508.188,349.636C507.388,354.08 503.4,358.66 500.632,362.015C499.649,363.205 498.592,364.333 497.58,365.498C497.452,365.646 496.287,367.218 496.353,367.214C496.924,367.177 497.712,366.38 498.141,366.067C499.761,364.887 501.306,363.605 502.846,362.325C508.875,357.311 514.551,351.959 519.252,345.655C520.609,343.835 521.919,341.904 522.911,339.857C523.218,339.224 523.863,338.027 523.271,337.37C522.411,336.416 520.244,336.757 519.139,336.776C515.375,336.839 511.617,337.115 507.853,337.207"
            style="fill: rgb(205, 67, 67)"
          />
          <g>
            <path
              d="M497.929,348.868C498.329,348.792 499.001,348.938 499.407,348.963C500.64,349.04 501.725,349.37 502.886,349.764C506.401,350.956 509.268,349.612 512.788,349.612"
              style="fill: none; stroke: rgb(180, 41, 56); stroke-width: 1px"
            />
            <path
              d="M495.24,355.099C495.294,355.043 497.518,356.144 497.664,356.194C500.162,357.041 502.005,358.437 504.042,360.066"
              style="fill: none; stroke: rgb(180, 41, 56); stroke-width: 1px"
            />
            <path
              d="M500.277,362.512C499.012,360.961 499.034,358.773 499.034,356.922"
              style="fill: none; stroke: rgb(180, 41, 56); stroke-width: 1px"
            />
            <path
              d="M491.202,364.984C490.909,364.153 489.257,361.732 488.818,360.956"
              style="fill: none; stroke: rgb(180, 41, 56); stroke-width: 1px"
            />
            <path
              d="M479.044,366.667C479.036,366.675 478.571,364.435 478.571,363.588"
              style="fill: none; stroke: rgb(180, 41, 56); stroke-width: 1px"
            />
            <path
              d="M462.066,363.919C462.113,363.94 463.16,362.782 463.28,362.662C464.363,361.583 464.967,360.307 466.364,359.26"
              style="fill: none; stroke: rgb(180, 41, 56); stroke-width: 1px"
            />
            <path
              d="M443.678,355.733C443.488,355.758 444.061,355.725 444.252,355.711C444.68,355.678 445.099,355.585 445.519,355.5C446.691,355.263 447.816,354.928 448.936,354.513C452.479,353.198 455.936,353.425 459.632,352.942"
              style="fill: none; stroke: rgb(180, 41, 56); stroke-width: 1px"
            />
            <path
              d="M462.745,355.455C461.877,355.523 461.003,355.556 460.133,355.566C457.776,355.592 454.568,355.721 452.453,354.513"
              style="fill: none; stroke: rgb(180, 41, 56); stroke-width: 1px"
            />
            <path
              d="M442.376,352.756C442.344,352.718 443.358,352.231 443.517,352.145C444.254,351.746 444.968,351.322 445.64,350.82C446.998,349.804 448.143,348.473 449.619,347.624C451.774,346.384 454.367,345.884 456.702,345.083"
              style="fill: none; stroke: rgb(180, 41, 56); stroke-width: 1px"
            />
            <path
              d="M443.804,346.824C443.815,346.867 445.349,346.643 445.457,346.637C446.556,346.568 447.527,346.787 448.553,347.172"
              style="fill: none; stroke: rgb(180, 41, 56); stroke-width: 1px"
            />
          </g>
          <g transform="matrix(0.80691,0,0,0.342675,91.8555,228.386)">
            <ellipse
              cx="493.419"
              cy="343.808"
              rx="4.638"
              ry="4.51"
              style="fill: white"
            />
          </g>
        </g>
        <path
          d="M439.863,350.03C439.731,349.964 440.489,347.702 440.527,347.588C441.274,345.323 442.054,343.247 443.334,341.222C443.436,341.06 444.699,339.453 444.632,339.32C444.597,339.253 443.318,339.353 443.224,339.35C441.846,339.304 440.437,339.249 439.084,338.978C438.969,338.955 437.585,338.74 437.597,338.585C437.647,337.902 440.469,337.253 440.933,337.113C444.752,335.964 448.714,335.303 452.65,334.696C469.579,332.086 486.839,336.164 503.42,339.423C508.288,340.38 513.22,341.016 518.17,341.356C520.064,341.486 521.96,341.536 523.856,341.604C523.962,341.608 525.591,341.585 525.61,341.712C525.777,342.858 523.983,344.768 523.335,345.532C520.534,348.83 517.579,351.99 514.414,354.942C506.366,362.445 494.912,370.565 483.437,370.968C476.091,371.225 468.731,368.663 461.863,366.399C457.494,364.959 453.515,363.585 449.315,361.693C448.359,361.262 445.272,360.841 444.878,359.672C444.376,358.182 446.751,358.878 447.281,359.052C450.093,359.98 452.863,360.953 455.627,362.014C462.635,364.704 469.441,366.521 476.735,368.277C492.862,372.16 508.212,358.603 515.636,345.51C515.918,345.014 514.5,345.407 513.933,345.349C512.834,345.237 511.731,345.129 510.634,344.997C507.216,344.589 503.89,344.116 500.501,343.527C490.513,341.791 479.918,340.002 469.778,339.577C462.413,339.268 454.735,339.597 448.295,343.489C445.948,344.908 444.264,346.405 442.631,348.598C442.24,349.122 441.554,350.875 440.612,350.565"
        />
        <path
          d="M490.217,334.315C490.204,334.06 487.928,333.573 487.762,333.528C485.009,332.776 482.236,332.07 479.439,331.501C468.88,329.354 455.5,327.134 445.248,331.676"
          style="fill: none; stroke: black; stroke-width: 2.1px"
        />
        <path
          d="M443.212,336.865C443.15,336.894 443.439,336.248 443.464,336.19C443.654,335.749 443.837,335.304 444.02,334.859C444.573,333.513 445.047,332.148 445.466,330.755C446.711,326.618 447.062,322.207 446.904,317.898"
          style="fill: none; stroke: black; stroke-width: 2.1px"
        />
        <path
          d="M441.11,320.181C440.839,320.264 441.527,319.793 441.768,319.643C442.244,319.348 442.739,319.079 443.248,318.844C444.778,318.136 446.363,317.778 448.01,317.466C452.944,316.533 458.295,316.606 463.287,316.812C477.996,317.419 492.793,323.218 506.573,328.006"
          style="fill: none; stroke: black; stroke-width: 2.1px"
        />
      </g>
      <g transform="matrix(-1,0,0,1,798.778,0)">
        <path
          d="M447.08,362.669C448.214,363.226 450.711,364.676 451.866,365.186C458.259,368.007 463.753,370.238 469.783,371.76C476.459,373.445 483.101,374.124 489.942,372.994C501.235,371.13 511.202,363.727 517.338,354.072"
          style="fill: none; stroke: black; stroke-width: 2.1px"
        />
        <path
          d="M449.749,367.2C449.459,367.185 454.735,369.624 456.257,370.228C460.979,372.105 466.029,373.805 470.941,375.157C479.504,377.513 489.426,379.215 498.046,376.049C503.617,374.003 510.033,367.922 513.477,363.187"
          style="fill: none; stroke: black; stroke-width: 2.1px"
        />
        <path
          d="M446.041,342.39C442.934,347.1 439.416,354.683 445.745,358.735C451.179,362.214 458.24,364.563 464.205,366.108C471.164,367.912 478.394,370.362 485.682,369.863C493.796,369.308 502.535,363.76 508.508,358.633C512.055,355.587 514.976,352.1 517.732,348.337C518.475,347.323 520.3,345.509 520.459,344.185C520.5,343.845 519.179,343.926 519.015,343.921C517.368,343.87 515.724,343.784 514.083,343.623C509.929,343.215 505.832,342.209 501.743,341.402C493.174,339.71 484.504,338.717 475.817,337.866C465.936,336.899 454.472,335.966 446.041,342.39Z"
          style="fill: white"
        />
        <clipPath id="_clip5_Business_tired_eyes">
          <path
            d="M446.041,342.39C442.934,347.1 439.416,354.683 445.745,358.735C451.179,362.214 458.24,364.563 464.205,366.108C471.164,367.912 478.394,370.362 485.682,369.863C493.796,369.308 502.535,363.76 508.508,358.633C512.055,355.587 514.976,352.1 517.732,348.337C518.475,347.323 520.3,345.509 520.459,344.185C520.5,343.845 519.179,343.926 519.015,343.921C517.368,343.87 515.724,343.784 514.083,343.623C509.929,343.215 505.832,342.209 501.743,341.402C493.174,339.71 484.504,338.717 475.817,337.866C465.936,336.899 454.472,335.966 446.041,342.39Z"
          />
        </clipPath>
        <g clip-path="url(#_clip5_Business_tired_eyes)">
          <g transform="matrix(0.990163,0,0,0.980632,1.16209,2.63913)">
            <circle
              cx="482.434"
              cy="348.254"
              r="18.521"
              style="
                fill: rgb(
                  var(--color_eyes_r, 99),
                  var(--color_eyes_g, 65),
                  var(--color_eyes_b)
                );
              "
            />
            <clipPath id="_clip6_Business_tired_eyes">
              <circle cx="482.434" cy="348.254" r="18.521" />
            </clipPath>
            <g clip-path="url(#_clip6_Business_tired_eyes)">
              <g transform="matrix(0.511888,0,0,0.521841,235.441,167.831)">
                <circle
                  cx="482.434"
                  cy="348.254"
                  r="18.521"
                  style="
                    fill: rgb(
                      calc(var(--color_eyes_r, 99) + 119),
                      calc(var(--color_eyes_g, 65) + 106),
                      calc(var(--color_eyes_b, 28) + 41)
                    );
                  "
                />
              </g>
              <g transform="matrix(0.455248,0,0,0.455248,262.807,189.712)">
                <circle cx="482.434" cy="348.254" r="18.521" />
              </g>
            </g>
            <circle
              cx="482.434"
              cy="348.254"
              r="18.521"
              style="fill: none; stroke: black; stroke-width: 2.1px"
            />
          </g>
          <path
            d="M436.59,356.238C437.241,356.688 437.75,355.151 438.407,354.71C439.72,353.827 441.225,353.348 442.708,352.83C447.333,351.214 452.26,350.58 457.111,350.054C478.185,347.772 498.764,356.487 519.816,353.294C525.268,352.467 530.82,350.916 535.195,347.414C537.595,345.492 539.562,342.588 537.128,339.816C532.35,334.374 522.111,332.904 515.485,331.872C497.027,328.997 477.682,329.404 459.576,334.128C452.002,336.104 444.433,338.941 438.706,344.466C437.251,345.87 434.487,348.829 435.301,351.224"
            style="fill: rgb(56, 25, 57); fill-opacity: 0.5"
          />
          <path
            d="M470.112,326.177C469.636,326.103 468.652,326.9 468.29,327.115C466.597,328.123 464.968,329.244 463.449,330.5C459.087,334.107 455.281,339.257 452.339,344.085C451.028,346.236 449.746,348.606 449.693,351.185C449.607,355.393 451.686,358.482 454.486,361.37C455.543,362.46 456.603,363.547 457.626,364.669C457.717,364.769 458.731,365.808 458.38,365.925C456.826,366.443 453.177,364.6 451.715,364.154C445.435,362.238 436.654,359.946 436.69,351.792C436.729,343.196 444.974,338.429 452.213,336.29"
            style="fill: rgb(205, 67, 67)"
          />
          <path
            d="M497.096,338.164C496.933,338.304 499.993,340.484 500.464,340.887C502.863,342.933 508.858,345.916 508.188,349.636C507.388,354.08 503.4,358.66 500.632,362.015C499.649,363.205 498.592,364.333 497.58,365.498C497.452,365.646 496.287,367.218 496.353,367.214C496.924,367.177 497.712,366.38 498.141,366.067C499.761,364.887 501.306,363.605 502.846,362.325C508.875,357.311 514.551,351.959 519.252,345.655C520.609,343.835 521.919,341.904 522.911,339.857C523.218,339.224 523.863,338.027 523.271,337.37C522.411,336.416 520.244,336.757 519.139,336.776C515.375,336.839 511.617,337.115 507.853,337.207"
            style="fill: rgb(205, 67, 67)"
          />
          <g>
            <path
              d="M497.929,348.868C498.329,348.792 499.001,348.938 499.407,348.963C500.64,349.04 501.725,349.37 502.886,349.764C506.401,350.956 509.268,349.612 512.788,349.612"
              style="fill: none; stroke: rgb(180, 41, 56); stroke-width: 1px"
            />
            <path
              d="M495.24,355.099C495.294,355.043 497.518,356.144 497.664,356.194C500.162,357.041 502.005,358.437 504.042,360.066"
              style="fill: none; stroke: rgb(180, 41, 56); stroke-width: 1px"
            />
            <path
              d="M500.277,362.512C499.012,360.961 499.034,358.773 499.034,356.922"
              style="fill: none; stroke: rgb(180, 41, 56); stroke-width: 1px"
            />
            <path
              d="M491.202,364.984C490.909,364.153 489.257,361.732 488.818,360.956"
              style="fill: none; stroke: rgb(180, 41, 56); stroke-width: 1px"
            />
            <path
              d="M479.044,366.667C479.036,366.675 478.571,364.435 478.571,363.588"
              style="fill: none; stroke: rgb(180, 41, 56); stroke-width: 1px"
            />
            <path
              d="M462.066,363.919C462.113,363.94 463.16,362.782 463.28,362.662C464.363,361.583 464.967,360.307 466.364,359.26"
              style="fill: none; stroke: rgb(180, 41, 56); stroke-width: 1px"
            />
            <path
              d="M443.678,355.733C443.488,355.758 444.061,355.725 444.252,355.711C444.68,355.678 445.099,355.585 445.519,355.5C446.691,355.263 447.816,354.928 448.936,354.513C452.479,353.198 455.936,353.425 459.632,352.942"
              style="fill: none; stroke: rgb(180, 41, 56); stroke-width: 1px"
            />
            <path
              d="M462.745,355.455C461.877,355.523 461.003,355.556 460.133,355.566C457.776,355.592 454.568,355.721 452.453,354.513"
              style="fill: none; stroke: rgb(180, 41, 56); stroke-width: 1px"
            />
            <path
              d="M442.376,352.756C442.344,352.718 443.358,352.231 443.517,352.145C444.254,351.746 444.968,351.322 445.64,350.82C446.998,349.804 448.143,348.473 449.619,347.624C451.774,346.384 454.367,345.884 456.702,345.083"
              style="fill: none; stroke: rgb(180, 41, 56); stroke-width: 1px"
            />
            <path
              d="M443.804,346.824C443.815,346.867 445.349,346.643 445.457,346.637C446.556,346.568 447.527,346.787 448.553,347.172"
              style="fill: none; stroke: rgb(180, 41, 56); stroke-width: 1px"
            />
          </g>
          <g transform="matrix(0.80691,0,0,0.342675,71.2463,226.955)">
            <ellipse
              cx="493.419"
              cy="343.808"
              rx="4.638"
              ry="4.51"
              style="fill: white"
            />
          </g>
        </g>
        <path
          d="M439.863,350.03C439.731,349.964 440.489,347.702 440.527,347.588C441.274,345.323 442.054,343.247 443.334,341.222C443.436,341.06 444.699,339.453 444.632,339.32C444.597,339.253 443.318,339.353 443.224,339.35C441.846,339.304 440.437,339.249 439.084,338.978C438.969,338.955 437.585,338.74 437.597,338.585C437.647,337.902 440.469,337.253 440.933,337.113C444.752,335.964 448.714,335.303 452.65,334.696C469.579,332.086 486.839,336.164 503.42,339.423C508.288,340.38 513.22,341.016 518.17,341.356C520.064,341.486 521.96,341.536 523.856,341.604C523.962,341.608 525.591,341.585 525.61,341.712C525.777,342.858 523.983,344.768 523.335,345.532C520.534,348.83 517.579,351.99 514.414,354.942C506.366,362.445 494.912,370.565 483.437,370.968C476.091,371.225 468.731,368.663 461.863,366.399C457.494,364.959 453.515,363.585 449.315,361.693C448.359,361.262 445.272,360.841 444.878,359.672C444.376,358.182 446.751,358.878 447.281,359.052C450.093,359.98 452.863,360.953 455.627,362.014C462.635,364.704 469.441,366.521 476.735,368.277C492.862,372.16 508.212,358.603 515.636,345.51C515.918,345.014 514.5,345.407 513.933,345.349C512.834,345.237 511.731,345.129 510.634,344.997C507.216,344.589 503.89,344.116 500.501,343.527C490.513,341.791 479.918,340.002 469.778,339.577C462.413,339.268 454.735,339.597 448.295,343.489C445.948,344.908 444.264,346.405 442.631,348.598C442.24,349.122 441.554,350.875 440.612,350.565"
        />
        <path
          d="M490.217,334.315C490.204,334.06 487.928,333.573 487.762,333.528C485.009,332.776 482.236,332.07 479.439,331.501C468.88,329.354 455.5,327.134 445.248,331.676"
          style="fill: none; stroke: black; stroke-width: 2.1px"
        />
        <path
          d="M443.212,336.865C443.15,336.894 443.439,336.248 443.464,336.19C443.654,335.749 443.837,335.304 444.02,334.859C444.573,333.513 445.047,332.148 445.466,330.755C446.711,326.618 447.062,322.207 446.904,317.898"
          style="fill: none; stroke: black; stroke-width: 2.1px"
        />
        <path
          d="M441.11,320.181C440.839,320.264 441.527,319.793 441.768,319.643C442.244,319.348 442.739,319.079 443.248,318.844C444.778,318.136 446.363,317.778 448.01,317.466C452.944,316.533 458.295,316.606 463.287,316.812C477.996,317.419 492.793,323.218 506.573,328.006"
          style="fill: none; stroke: black; stroke-width: 2.1px"
        />
      </g>
    </g>
    <g id="eyebrows">
      <path
        d="M433.82,322.373C433.649,322.292 432.238,323.904 432.113,324.033C430.282,325.928 428.626,327.927 427.157,330.114C420.77,339.627 422.813,350.554 425.78,360.938"
        style="fill: none; stroke: black; stroke-width: 2.1px"
      />
      <path
        d="M412.301,290.366C412.194,290.402 412.105,294.277 412.105,294.93C412.105,299.942 413.247,304.634 415.782,308.98"
        style="fill: none; stroke: black; stroke-width: 2.1px"
      />
      <g transform="matrix(-1,0,0,1,798.778,0)">
        <path
          d="M433.82,322.373C433.649,322.292 432.238,323.904 432.113,324.033C430.282,325.928 428.626,327.927 427.157,330.114C420.77,339.627 422.813,350.554 425.78,360.938"
          style="fill: none; stroke: black; stroke-width: 2.1px"
        />
      </g>
      <g transform="matrix(-1,0,0,1,798.778,0)">
        <path
          d="M412.301,290.366C412.194,290.402 412.105,294.277 412.105,294.93C412.105,299.942 413.247,304.634 415.782,308.98"
          style="fill: none; stroke: black; stroke-width: 2.1px"
        />
      </g>
      <path
        d="M420.654,296.317C420.708,296.036 420.529,296.879 420.515,297.165C420.484,297.803 420.492,298.445 420.505,299.083C420.543,300.916 420.65,302.752 420.804,304.578C421.293,310.405 423.301,316.776 429.855,317.574C438.332,318.607 446.132,315.221 454.44,314.307C468.354,312.776 483.468,311.191 497.872,311.578C506.806,311.818 515.361,311.224 524.092,313.106C527.481,313.836 536.82,316.968 536.901,316.639C537.15,315.631 521.195,305.111 514.327,302.289C499.018,296 480.667,298.363 464.731,299.882C451.802,301.115 437.696,299.499 424.962,296.887L420.654,296.317Z"
        style="
          fill: rgb(
            calc(var(--color_eyebrows_r, 72) + 31),
            calc(var(--color_eyebrows_g, 46) + 16),
            calc(var(--color_eyebrows_b, 31) - 2)
          );
        "
      />
      <clipPath id="_clip7_Business_tired_eyes">
        <path
          d="M420.654,296.317C420.708,296.036 420.529,296.879 420.515,297.165C420.484,297.803 420.492,298.445 420.505,299.083C420.543,300.916 420.65,302.752 420.804,304.578C421.293,310.405 423.301,316.776 429.855,317.574C438.332,318.607 446.132,315.221 454.44,314.307C468.354,312.776 483.468,311.191 497.872,311.578C506.806,311.818 515.361,311.224 524.092,313.106C527.481,313.836 536.82,316.968 536.901,316.639C537.15,315.631 521.195,305.111 514.327,302.289C499.018,296 480.667,298.363 464.731,299.882C451.802,301.115 437.696,299.499 424.962,296.887L420.654,296.317Z"
        />
      </clipPath>
      <g clip-path="url(#_clip7_Business_tired_eyes)">
        <path
          d="M411.144,297.807C411.046,297.988 412.521,298.818 412.627,298.882C414.209,299.834 415.87,300.646 417.613,301.257C425.019,303.856 433.473,304.542 441.242,304.871C455.897,305.49 470.453,304.205 485.066,303.474C492.555,303.1 500.586,302.281 508.042,303.419C513.294,304.22 518.241,306.284 523.182,308.16C529.578,310.589 535.572,313.461 541.036,317.626C541.864,318.257 545.958,320.677 545.817,321.943C545.755,322.501 544.549,322.392 544.214,322.39C542.026,322.378 539.835,322.173 537.652,322.044C528.38,321.497 519.078,321.022 509.79,320.916C487.351,320.658 465.015,323.419 442.593,323.239C433.64,323.167 422.659,323.215 415.809,316.409C413.519,314.133 411.933,311.27 410.598,308.361"
          style="
            fill: rgb(
              var(--color_eyebrows_r, 72),
              var(--color_eyebrows_g, 46),
              var(--color_eyebrows_b, 31)
            );
          "
        />
        <path
          d="M404.594,289.941C404.81,291.387 408.842,293.047 409.927,293.674C415.884,297.118 421.029,299.671 427.877,300.829C436.109,302.221 444.702,302.502 452.992,302.448C467.435,302.353 481.446,300.734 495.826,299.372C500.902,298.891 506.119,299.551 511.217,299.513C512.066,299.507 516.323,300 516.872,299.258C516.915,299.201 514.551,298.785 514.408,298.765C512.562,298.511 510.714,298.301 508.861,298.11C503.126,297.518 497.376,297.056 491.629,296.592C484.352,296.003 477.062,295.591 469.783,295.021C456.216,293.958 442.751,291.791 429.173,290.903C425.343,290.652 417.09,289.137 414.632,293.329"
          style="
            fill: rgb(
              calc(var(--color_eyebrows_r, 72) + 138),
              calc(var(--color_eyebrows_g, 46) + 111),
              calc(var(--color_eyebrows_b, 31) + 45)
            );
          "
        />
      </g>
      <path
        d="M420.654,296.317C420.708,296.036 420.529,296.879 420.515,297.165C420.484,297.803 420.492,298.445 420.505,299.083C420.543,300.916 420.65,302.752 420.804,304.578C421.293,310.405 423.301,316.776 429.855,317.574C438.332,318.607 446.132,315.221 454.44,314.307C468.354,312.776 483.468,311.191 497.872,311.578C506.806,311.818 515.361,311.224 524.092,313.106C527.481,313.836 536.82,316.968 536.901,316.639C537.15,315.631 521.195,305.111 514.327,302.289C499.018,296 480.667,298.363 464.731,299.882C451.802,301.115 437.696,299.499 424.962,296.887L420.654,296.317Z"
        style="fill: none; stroke: black; stroke-width: 2.1px"
      />
      <g transform="matrix(-1,0,0,1,798.778,0)">
        <path
          d="M420.654,296.317C420.708,296.036 420.529,296.879 420.515,297.165C420.484,297.803 420.492,298.445 420.505,299.083C420.543,300.916 420.65,302.752 420.804,304.578C421.293,310.405 423.301,316.776 429.855,317.574C438.332,318.607 446.132,315.221 454.44,314.307C468.354,312.776 483.468,311.191 497.872,311.578C506.806,311.818 515.361,311.224 524.092,313.106C527.481,313.836 536.82,316.968 536.901,316.639C537.15,315.631 521.195,305.111 514.327,302.289C499.018,296 480.667,298.363 464.731,299.882C451.802,301.115 437.696,299.499 424.962,296.887L420.654,296.317Z"
          style="
            fill: rgb(
              calc(var(--color_eyebrows_r, 72) + 31),
              calc(var(--color_eyebrows_g, 46) + 16),
              calc(var(--color_eyebrows_b, 31) - 2)
            );
          "
        />
        <clipPath id="_clip8_Business_tired_eyes">
          <path
            d="M420.654,296.317C420.708,296.036 420.529,296.879 420.515,297.165C420.484,297.803 420.492,298.445 420.505,299.083C420.543,300.916 420.65,302.752 420.804,304.578C421.293,310.405 423.301,316.776 429.855,317.574C438.332,318.607 446.132,315.221 454.44,314.307C468.354,312.776 483.468,311.191 497.872,311.578C506.806,311.818 515.361,311.224 524.092,313.106C527.481,313.836 536.82,316.968 536.901,316.639C537.15,315.631 521.195,305.111 514.327,302.289C499.018,296 480.667,298.363 464.731,299.882C451.802,301.115 437.696,299.499 424.962,296.887L420.654,296.317Z"
          />
        </clipPath>
        <g clip-path="url(#_clip8_Business_tired_eyes)">
          <path
            d="M411.144,297.807C411.046,297.988 412.521,298.818 412.627,298.882C414.209,299.834 415.87,300.646 417.613,301.257C425.019,303.856 433.473,304.542 441.242,304.871C455.897,305.49 470.453,304.205 485.066,303.474C492.555,303.1 500.586,302.281 508.042,303.419C513.294,304.22 518.241,306.284 523.182,308.16C529.578,310.589 535.572,313.461 541.036,317.626C541.864,318.257 545.958,320.677 545.817,321.943C545.755,322.501 544.549,322.392 544.214,322.39C542.026,322.378 539.835,322.173 537.652,322.044C528.38,321.497 519.078,321.022 509.79,320.916C487.351,320.658 465.015,323.419 442.593,323.239C433.64,323.167 422.659,323.215 415.809,316.409C413.519,314.133 411.933,311.27 410.598,308.361"
            style="
              fill: rgb(
                var(--color_eyebrows_r, 72),
                var(--color_eyebrows_g, 46),
                var(--color_eyebrows_b, 31)
              );
            "
          />
          <path
            d="M404.594,289.941C404.81,291.387 408.842,293.047 409.927,293.674C415.884,297.118 421.029,299.671 427.877,300.829C436.109,302.221 444.702,302.502 452.992,302.448C467.435,302.353 481.446,300.734 495.826,299.372C500.902,298.891 506.119,299.551 511.217,299.513C512.066,299.507 516.323,300 516.872,299.258C516.915,299.201 514.551,298.785 514.408,298.765C512.562,298.511 510.714,298.301 508.861,298.11C503.126,297.518 497.376,297.056 491.629,296.592C484.352,296.003 477.062,295.591 469.783,295.021C456.216,293.958 442.751,291.791 429.173,290.903C425.343,290.652 417.09,289.137 414.632,293.329"
            style="
              fill: rgb(
                calc(var(--color_eyebrows_r, 72) + 138),
                calc(var(--color_eyebrows_g, 46) + 111),
                calc(var(--color_eyebrows_b, 31) + 45)
              );
            "
          />
        </g>
        <path
          d="M420.654,296.317C420.708,296.036 420.529,296.879 420.515,297.165C420.484,297.803 420.492,298.445 420.505,299.083C420.543,300.916 420.65,302.752 420.804,304.578C421.293,310.405 423.301,316.776 429.855,317.574C438.332,318.607 446.132,315.221 454.44,314.307C468.354,312.776 483.468,311.191 497.872,311.578C506.806,311.818 515.361,311.224 524.092,313.106C527.481,313.836 536.82,316.968 536.901,316.639C537.15,315.631 521.195,305.111 514.327,302.289C499.018,296 480.667,298.363 464.731,299.882C451.802,301.115 437.696,299.499 424.962,296.887L420.654,296.317Z"
          style="fill: none; stroke: black; stroke-width: 2.1px"
        />
      </g>
    </g>
  </g>
</svg>
