<svg
  width="100%"
  height="100%"
  viewBox="0 0 800 800"
  xmlns="http://www.w3.org/2000/svg"
>
  <g transform="matrix(0.34609,0,0,0.34609,46.5396,11.9877)">
    <g id="Eyes">
      <path
        d="M1163.67,973.717C1163.3,973.4 1163.02,983.773 1163.34,985.994C1164.38,993.447 1172.89,999.241 1178.69,1003.25C1185.64,1008.04 1195.17,1006.22 1203.16,1006.85C1215.67,1007.83 1227.54,1011.82 1239.9,1013.24C1277.84,1017.6 1315.67,1013.33 1345.88,988.066C1354.85,980.562 1361.85,970.844 1369,961.687C1375.76,953.028 1382.24,943.983 1387.78,934.487C1389.53,931.481 1393.11,926.716 1392.45,922.982C1391.48,917.429 1383.66,914.676 1379.18,913.087C1364.93,908.032 1349.33,909.247 1334.58,910.845C1289.35,915.749 1243.12,921.398 1200.35,937.588C1183.48,943.973 1160.69,950.639 1159.94,971.625"
        style="fill: white"
      />
      <clipPath id="_clip2_business_angry_eyes">
        <path
          d="M1163.67,973.717C1163.3,973.4 1163.02,983.773 1163.34,985.994C1164.38,993.447 1172.89,999.241 1178.69,1003.25C1185.64,1008.04 1195.17,1006.22 1203.16,1006.85C1215.67,1007.83 1227.54,1011.82 1239.9,1013.24C1277.84,1017.6 1315.67,1013.33 1345.88,988.066C1354.85,980.562 1361.85,970.844 1369,961.687C1375.76,953.028 1382.24,943.983 1387.78,934.487C1389.53,931.481 1393.11,926.716 1392.45,922.982C1391.48,917.429 1383.66,914.676 1379.18,913.087C1364.93,908.032 1349.33,909.247 1334.58,910.845C1289.35,915.749 1243.12,921.398 1200.35,937.588C1183.48,943.973 1160.69,950.639 1159.94,971.625"
        />
      </clipPath>
      <g clip-path="url(#_clip2_business_angry_eyes)">
        <path
          d="M1173.77,957.891C1172.16,956.931 1170.75,960.297 1169.56,962.204C1166.7,966.789 1163.18,972.004 1162.62,977.526C1162.56,978.146 1161.99,984.416 1162.29,984.453C1165.52,984.847 1171.2,980.3 1174,979.003C1183.83,974.433 1194.13,969.813 1204.29,966.041C1214.86,962.117 1226.26,959.96 1237.2,957.351C1257.11,952.605 1276.88,948.175 1297.19,945.424C1321.15,942.178 1345.7,939.357 1369.85,938.102C1374.96,937.836 1391.5,938.177 1389.76,929.454C1388.73,924.334 1381.15,921.315 1376.95,919.645C1363.7,914.375 1348.63,913.429 1334.52,913.759C1311.18,914.303 1288.54,919.848 1265.7,924.1C1243.51,928.232 1221.03,931.059 1199.68,938.758C1189.44,942.45 1181.29,947.573 1172.93,954.353C1167.96,958.389 1162.99,962.815 1161.88,969.48"
          style="fill: rgb(56, 25, 57); fill-opacity: 0.5"
        />
        <g transform="matrix(1.15607,0,0,1.15607,-58.6514,-191.265)">
          <circle
            cx="1143.18"
            cy="989.986"
            r="50.296"
            style="
              fill: rgb(
                var(--color_eyes_r, 99),
                var(--color_eyes_g, 65),
                var(--color_eyes_b, 28)
              );
            "
          />
          <clipPath id="_clip3_business_angry_eyes">
            <circle cx="1143.18" cy="989.986" r="50.296" />
          </clipPath>
          <g clip-path="url(#_clip3_business_angry_eyes)">
            <g transform="matrix(0.620989,0,0,0.620989,433.969,377.289)">
              <circle
                cx="1143.18"
                cy="989.986"
                r="50.296"
                style="
                  fill: rgb(
                    calc(var(--color_eyes_r, 99) + 119),
                    calc(var(--color_eyes_g, 65) + 106),
                    calc(var(--color_eyes_b, 28) + 41)
                  );
                "
              />
            </g>
            <g transform="matrix(0.864997,0,0,0.864997,50.7333,165.443)">
              <path
                d="M1205.54,966.286C1205.6,964.961 1228.45,959.262 1234.89,957.657C1256.04,952.387 1277.51,948.088 1299.04,944.601C1306.83,943.338 1320.26,942.939 1321.56,941.451C1323.31,939.428 1321.38,932.926 1320.81,930.781C1319.78,926.933 1316.75,918.341 1306.66,916.018C1298.46,914.13 1211.7,935.004 1208.17,938.396C1202.15,944.181 1204.01,958.845 1205.54,966.286Z"
                style="
                  fill: rgb(
                    calc(var(--color_eyes_r, 99) - 29),
                    calc(var(--color_eyes_g, 65) - 25),
                    calc(var(--color_eyes_b, 28) + 1)
                  );
                "
              />
            </g>
            <g transform="matrix(0.473841,0,0,0.473841,602.186,522.963)">
              <circle cx="1143.18" cy="989.986" r="50.296" />
            </g>
          </g>
          <circle
            cx="1143.18"
            cy="989.986"
            r="50.296"
            style="fill: none; stroke: black; stroke-width: 5.25px"
          />
        </g>
        <g
          transform="matrix(0.86217,-0.410811,0.341211,0.716101,-141.522,809.511)"
        >
          <ellipse
            cx="1300.55"
            cy="933.645"
            rx="17.147"
            ry="14.467"
            style="fill: white"
          />
        </g>
      </g>
      <g transform="matrix(-1,0,0,1,2042.97,0)">
        <path
          d="M1163.67,973.717C1163.3,973.4 1163.02,983.773 1163.34,985.994C1164.38,993.447 1172.89,999.241 1178.69,1003.25C1185.64,1008.04 1195.17,1006.22 1203.16,1006.85C1215.67,1007.83 1227.54,1011.82 1239.9,1013.24C1277.84,1017.6 1315.67,1013.33 1345.88,988.066C1354.85,980.562 1361.85,970.844 1369,961.687C1375.76,953.028 1382.24,943.983 1387.78,934.487C1389.53,931.481 1393.11,926.716 1392.45,922.982C1391.48,917.429 1383.66,914.676 1379.18,913.087C1364.93,908.032 1349.33,909.247 1334.58,910.845C1289.35,915.749 1243.12,921.398 1200.35,937.588C1183.48,943.973 1160.69,950.639 1159.94,971.625"
          style="fill: white"
        />
        <clipPath id="_clip4_business_angry_eyes">
          <path
            d="M1163.67,973.717C1163.3,973.4 1163.02,983.773 1163.34,985.994C1164.38,993.447 1172.89,999.241 1178.69,1003.25C1185.64,1008.04 1195.17,1006.22 1203.16,1006.85C1215.67,1007.83 1227.54,1011.82 1239.9,1013.24C1277.84,1017.6 1315.67,1013.33 1345.88,988.066C1354.85,980.562 1361.85,970.844 1369,961.687C1375.76,953.028 1382.24,943.983 1387.78,934.487C1389.53,931.481 1393.11,926.716 1392.45,922.982C1391.48,917.429 1383.66,914.676 1379.18,913.087C1364.93,908.032 1349.33,909.247 1334.58,910.845C1289.35,915.749 1243.12,921.398 1200.35,937.588C1183.48,943.973 1160.69,950.639 1159.94,971.625"
          />
        </clipPath>
        <g clip-path="url(#_clip4_business_angry_eyes)">
          <path
            d="M1173.77,957.891C1172.16,956.931 1170.75,960.297 1169.56,962.204C1166.7,966.789 1163.18,972.004 1162.62,977.526C1162.56,978.146 1161.99,984.416 1162.29,984.453C1165.52,984.847 1171.2,980.3 1174,979.003C1183.83,974.433 1194.13,969.813 1204.29,966.041C1214.86,962.117 1226.26,959.96 1237.2,957.351C1257.11,952.605 1276.88,948.175 1297.19,945.424C1321.15,942.178 1345.7,939.357 1369.85,938.102C1374.96,937.836 1391.5,938.177 1389.76,929.454C1388.73,924.334 1381.15,921.315 1376.95,919.645C1363.7,914.375 1348.63,913.429 1334.52,913.759C1311.18,914.303 1288.54,919.848 1265.7,924.1C1243.51,928.232 1221.03,931.059 1199.68,938.758C1189.44,942.45 1181.29,947.573 1172.93,954.353C1167.96,958.389 1162.99,962.815 1161.88,969.48"
            style="fill: rgb(56, 25, 57); fill-opacity: 0.5"
          />
          <g transform="matrix(1.15607,0,0,1.15607,-58.6514,-191.265)">
            <circle
              cx="1143.18"
              cy="989.986"
              r="50.296"
              style="
                fill: rgb(
                  var(--color_eyes_r, 99),
                  var(--color_eyes_g, 65),
                  var(--color_eyes_b, 28)
                );
              "
            />
            <clipPath id="_clip5">
              <circle cx="1143.18" cy="989.986" r="50.296" />
            </clipPath>
            <g clip-path="url(#_clip5_business_angry_eyes)">
              <g transform="matrix(0.620989,0,0,0.620989,433.969,377.289)">
                <circle
                  cx="1143.18"
                  cy="989.986"
                  r="50.296"
                  style="
                    fill: rgb(
                      calc(var(--color_eyes_r, 99) + 119),
                      calc(var(--color_eyes_g, 65) + 106),
                      calc(var(--color_eyes_b, 28) + 41)
                    );
                  "
                />
              </g>
              <g transform="matrix(0.864997,0,0,0.864997,50.7333,165.443)">
                <path
                  d="M1205.54,966.286C1205.6,964.961 1228.45,959.262 1234.89,957.657C1256.04,952.387 1277.51,948.088 1299.04,944.601C1306.83,943.338 1320.26,942.939 1321.56,941.451C1323.31,939.428 1321.38,932.926 1320.81,930.781C1319.78,926.933 1316.75,918.341 1306.66,916.018C1298.46,914.13 1211.7,935.004 1208.17,938.396C1202.15,944.181 1204.01,958.845 1205.54,966.286Z"
                  style="
                    fill: rgb(
                      calc(var(--color_eyes_r, 99) - 29),
                      calc(var(--color_eyes_g, 65) - 25),
                      calc(var(--color_eyes_b, 28) + 1)
                    );
                  "
                />
              </g>
              <g transform="matrix(0.473841,0,0,0.473841,602.186,522.963)">
                <circle cx="1143.18" cy="989.986" r="50.296" />
              </g>
            </g>
            <circle
              cx="1143.18"
              cy="989.986"
              r="50.296"
              style="fill: none; stroke: black; stroke-width: 5.25px"
            />
          </g>
          <g
            transform="matrix(0.932769,0.205047,-0.170308,0.77474,175.642,-39.0206)"
          >
            <ellipse
              cx="1300.55"
              cy="933.645"
              rx="17.147"
              ry="14.467"
              style="fill: white"
            />
          </g>
        </g>
      </g>
      <path
        d="M1135,947.751C1136.44,945.751 1154.99,920.148 1161.37,916.008C1165.43,913.372 1193.51,908.291 1204.97,906.055C1235.51,900.1 1265.98,893.785 1296.24,887.227C1310.51,884.132 1324.68,881.379 1339.13,879.207C1345.74,878.213 1354.92,876.136 1361.61,876.851C1369.56,877.701 1389.76,889.198 1398.93,893.448"
        style="fill: none; stroke: black; stroke-width: 6.07px"
      />
      <path
        d="M1178.44,1021.94C1178.89,1022.93 1180.52,1021.19 1181.6,1021.12C1183.83,1021 1186.09,1021.12 1188.31,1021.33C1195.77,1022.03 1203.36,1022.55 1210.74,1023.91C1226.51,1026.83 1241.76,1031.75 1257.74,1033.78C1267.48,1035.02 1277.52,1034.41 1287.31,1034.07C1294.75,1033.81 1308.67,1034.17 1314.73,1028.7"
        style="fill: none; stroke: black; stroke-width: 6.07px"
      />
      <path
        d="M1145.06,959.468C1144.99,960.066 1145.89,958.589 1146.3,958.146C1147.15,957.22 1147.99,956.279 1148.86,955.367C1151.39,952.702 1154.07,950.114 1156.72,947.565C1164.39,940.19 1173.92,939.615 1183.6,937.061"
        style="fill: none; stroke: black; stroke-width: 6.07px"
      />
      <path
        d="M1177.89,1007.24C1177.78,1007.67 1178.68,1006.77 1179.12,1006.68C1180.08,1006.46 1181.06,1006.32 1182.03,1006.19C1185.02,1005.8 1188.11,1005.8 1191.12,1005.78C1200.1,1005.73 1209.16,1006.17 1218.01,1007.81C1230.44,1010.1 1242.22,1012.81 1254.76,1014.34C1270.28,1016.24 1281.79,1017.17 1303.16,1011.76"
        style="fill: none; stroke: black; stroke-width: 6.07px"
      />
      <g transform="matrix(-1,0,0,1,2042.97,0)">
        <path
          d="M1135,947.751C1136.44,945.751 1154.99,920.148 1161.37,916.008C1165.43,913.372 1193.51,908.291 1204.97,906.055C1235.51,900.1 1265.98,893.785 1296.24,887.227C1310.51,884.132 1324.68,881.379 1339.13,879.207C1345.74,878.213 1354.92,876.136 1361.61,876.851C1369.56,877.701 1389.76,889.198 1398.93,893.448"
          style="fill: none; stroke: black; stroke-width: 6.07px"
        />
      </g>
      <g transform="matrix(-1,0,0,1,2042.97,0)">
        <path
          d="M1178.44,1021.94C1178.89,1022.93 1180.52,1021.19 1181.6,1021.12C1183.83,1021 1186.09,1021.12 1188.31,1021.33C1195.77,1022.03 1203.36,1022.55 1210.74,1023.91C1226.51,1026.83 1241.76,1031.75 1257.74,1033.78C1267.48,1035.02 1277.52,1034.41 1287.31,1034.07C1294.75,1033.81 1308.67,1034.17 1314.73,1028.7"
          style="fill: none; stroke: black; stroke-width: 6.07px"
        />
      </g>
      <path
        d="M1154.21,980.648C1160.05,982.719 1166.57,965.89 1180.36,954.903C1189.44,947.677 1200.51,945.033 1208.97,942.495C1218.43,939.655 1239.34,933.186 1263.37,928.233C1296.03,921.499 1333.11,917.77 1345.5,918.889C1368.58,920.975 1372.95,923.74 1380.23,928.649C1374.73,939.884 1354,975.736 1333.39,991.344C1315.56,1004.85 1304.31,1008.95 1296.88,1010.78C1283.76,1014.02 1293.26,1016.28 1295.41,1016.03C1307.52,1014.63 1329.19,1009.88 1344.05,1001.44C1364.43,989.865 1415.99,929.15 1416.4,923.93C1416.88,917.861 1369.38,896.238 1354.78,895.284C1340.18,894.329 1263.69,913.669 1249.24,917.099C1234.79,920.528 1182.51,932.905 1170.77,939.061C1161.09,944.133 1150.52,979.34 1154.21,980.648Z"
      />
      <g transform="matrix(-1,0,0,1,2042.97,0)">
        <path
          d="M1154.21,980.648C1160.05,982.719 1166.57,965.89 1180.36,954.903C1189.44,947.677 1200.51,945.033 1208.97,942.495C1218.43,939.655 1239.34,933.186 1263.37,928.233C1296.03,921.499 1333.11,917.77 1345.5,918.889C1368.58,920.975 1372.95,923.74 1380.23,928.649C1374.73,939.884 1354,975.736 1333.39,991.344C1315.56,1004.85 1304.31,1008.95 1296.88,1010.78C1283.76,1014.02 1293.26,1016.28 1295.41,1016.03C1307.52,1014.63 1329.19,1009.88 1344.05,1001.44C1364.43,989.865 1415.99,929.15 1416.4,923.93C1416.88,917.861 1369.38,896.238 1354.78,895.284C1340.18,894.329 1263.69,913.669 1249.24,917.099C1234.79,920.528 1182.51,932.905 1170.77,939.061C1161.09,944.133 1150.52,979.34 1154.21,980.648Z"
        />
      </g>
      <g transform="matrix(-1,0,0,1,2042.97,0)">
        <path
          d="M1145.06,959.468C1144.99,960.066 1145.89,958.589 1146.3,958.146C1147.15,957.22 1147.99,956.279 1148.86,955.367C1151.39,952.702 1154.07,950.114 1156.72,947.565C1164.39,940.19 1173.92,939.615 1183.6,937.061"
          style="fill: none; stroke: black; stroke-width: 6.07px"
        />
      </g>
      <g transform="matrix(-1,0,0,1,2042.97,0)">
        <path
          d="M1177.89,1007.24C1177.78,1007.67 1178.68,1006.77 1179.12,1006.68C1180.08,1006.46 1181.06,1006.32 1182.03,1006.19C1185.02,1005.8 1188.11,1005.8 1191.12,1005.78C1200.1,1005.73 1209.16,1006.17 1218.01,1007.81C1230.44,1010.1 1242.22,1012.81 1254.76,1014.34C1270.28,1016.24 1281.79,1017.17 1303.16,1011.76"
          style="fill: none; stroke: black; stroke-width: 6.07px"
        />
      </g>
    </g>
    <g id="Eyebrow">
      <g transform="matrix(2.88942,0,0,2.88942,-134.472,-34.6374)">
        <path
          d="M421.998,317.59C424.548,323.202 429.023,324.107 435.007,326.017C436.808,326.592 438.997,328.67 440.941,328.313C444.137,327.726 447.091,325.549 449.923,324.085C455.388,321.261 460.911,318.552 466.357,315.691C471.602,312.935 476.802,310.14 482.252,307.804C483.292,307.359 484.345,306.941 485.379,306.483C485.485,306.436 487.047,305.665 487.08,305.779C487.233,306.317 484.727,308.358 484.382,308.704C481.336,311.75 478.376,314.889 475.369,317.973C475.133,318.216 471.962,321.035 471.992,321.124C472.042,321.275 473.965,321.087 474.127,321.087C476.353,321.087 478.569,321.145 480.796,321.106C481.537,321.093 482.278,321.186 483.017,321.216C483.377,321.231 484.348,321.035 484.094,321.289C483.799,321.585 482.221,321.555 481.824,321.614C479.922,321.894 478.037,322.272 476.159,322.678C470.365,323.931 464.552,325.275 458.807,326.728C456.514,327.309 452.69,327.765 450.828,329.384C448.413,331.485 447.535,336.057 446.13,338.867C445.806,339.515 444.414,341.316 444.52,342.061C444.616,342.731 445.652,341.319 446.209,340.935C447.627,339.961 449.111,339.115 450.688,338.427C450.825,338.367 452.279,337.687 452.279,338.072C452.279,339.316 450.636,341.873 449.763,342.716C445.785,346.558 440.873,351.585 436.82,356.314C435.285,358.104 433.731,362.119 430.987,361.677C428.519,361.278 427.722,357.64 426.967,355.736C424.6,349.767 421.95,344.132 425.217,337.882C426.179,336.043 426.967,334.093 428.047,332.325C428.178,332.111 429.086,330.286 429.05,330.25C426.29,327.49 423.529,327.116 422.983,322.206L421.998,317.59ZM377.953,317.59C375.402,323.202 370.927,324.107 364.944,326.017C363.143,326.592 360.954,328.67 359.009,328.313C355.814,327.726 352.86,325.549 350.028,324.085C344.563,321.261 339.04,318.552 333.594,315.691C328.348,312.935 323.149,310.14 317.698,307.804C316.659,307.359 315.606,306.941 314.572,306.483C314.466,306.436 312.904,305.665 312.871,305.779C312.717,306.317 315.224,308.358 315.569,308.704C318.615,311.75 321.574,314.889 324.581,317.973C324.818,318.216 327.989,321.035 327.959,321.124C327.908,321.275 325.985,321.087 325.823,321.087C323.598,321.087 321.381,321.145 319.154,321.106C318.413,321.093 317.673,321.186 316.933,321.216C316.574,321.231 315.602,321.035 315.857,321.289C316.152,321.585 317.729,321.555 318.127,321.614C320.029,321.894 321.913,322.272 323.792,322.678C329.586,323.931 335.398,325.275 341.144,326.728C343.436,327.309 347.26,327.765 349.122,329.384C351.538,331.485 352.416,336.057 353.821,338.867C354.145,339.515 355.537,341.316 355.43,342.061C355.335,342.731 354.299,341.319 353.742,340.935C352.324,339.961 350.84,339.115 349.263,338.427C349.125,338.367 347.672,337.687 347.672,338.072C347.672,339.316 349.315,341.873 350.187,342.716C354.165,346.558 359.078,351.585 363.131,356.314C364.665,358.104 366.219,362.119 368.964,361.677C371.432,361.278 372.228,357.64 372.984,355.736C375.351,349.767 378.001,344.132 374.734,337.882C373.772,336.043 372.984,334.093 371.904,332.325C371.773,332.111 370.864,330.286 370.901,330.25C373.661,327.49 376.422,327.116 376.967,322.206L377.953,317.59Z"
          style="fill: rgb(56, 25, 57); fill-opacity: 0.5"
        />
      </g>
      <path
        d="M1104.9,860.421C1104.99,859.823 1116.97,858.474 1122.18,857.404C1141.22,853.495 1159.71,848.423 1177.52,840.548C1216.41,823.342 1255.47,806.734 1295.9,793.231C1316.45,786.368 1332.25,779.188 1350.5,777.949C1359.23,777.356 1375.75,784.665 1393.2,793.064C1406.97,799.687 1422.49,811.473 1434.22,821.235C1435.67,822.44 1445.11,829.036 1445.06,830.611C1445.06,830.622 1411.96,816.154 1388.15,814.186C1357.27,811.634 1342.2,817.04 1330.33,822.442C1315.01,829.413 1294.74,838.043 1280.06,846.242C1267.78,853.102 1259.67,856.906 1243.75,865.25C1218.89,878.27 1194.3,892.487 1169.19,904.921C1158.79,910.07 1144.12,919.019 1133.04,912.508C1112.14,900.224 1103.63,868.915 1104.9,860.421Z"
        style="
          fill: rgb(
            var(--color_eyebrows_r, 72),
            var(--color_eyebrows_g, 46),
            var(--color_eyebrows_b, 31)
          );
        "
      />
      <clipPath id="_clip6_business_angry_eyes">
        <path
          d="M1104.9,860.421C1104.99,859.823 1116.97,858.474 1122.18,857.404C1141.22,853.495 1159.71,848.423 1177.52,840.548C1216.41,823.342 1255.47,806.734 1295.9,793.231C1316.45,786.368 1332.25,779.188 1350.5,777.949C1359.23,777.356 1375.75,784.665 1393.2,793.064C1406.97,799.687 1422.49,811.473 1434.22,821.235C1435.67,822.44 1445.11,829.036 1445.06,830.611C1445.06,830.622 1411.96,816.154 1388.15,814.186C1357.27,811.634 1342.2,817.04 1330.33,822.442C1315.01,829.413 1294.74,838.043 1280.06,846.242C1267.78,853.102 1259.67,856.906 1243.75,865.25C1218.89,878.27 1194.3,892.487 1169.19,904.921C1158.79,910.07 1144.12,919.019 1133.04,912.508C1112.14,900.224 1103.63,868.915 1104.9,860.421Z"
        />
      </clipPath>
      <g clip-path="url(#_clip6_business_angry_eyes)">
        <path
          d="M1106.63,867.61C1106.69,867.517 1106.25,866.986 1106.23,867.005C1105.74,867.518 1107.03,870.922 1107.18,871.502C1107.96,874.625 1108.85,881.174 1113.15,881.144C1115.7,881.127 1118.04,880.1 1120.45,879.418C1125.98,877.86 1131.01,876.09 1136.3,873.808C1144.17,870.416 1152.28,867.68 1160.15,864.304C1191.24,850.976 1221.97,836.814 1253,823.329C1261.78,819.513 1270.21,814.978 1279.06,811.308C1295.36,804.55 1312.6,799.241 1329.67,794.832C1348.46,789.978 1366.48,790.388 1384.85,796.615C1390.84,798.644 1397.08,800.482 1402.93,802.86C1405.33,803.837 1407.73,804.769 1410.16,805.673C1410.36,805.745 1412.47,806.585 1412.38,806C1412.23,805.136 1410.74,804.27 1410.12,803.861C1407.88,802.406 1405.48,801.173 1403.12,799.948C1393.26,794.845 1383.19,789.236 1372.65,785.707C1364.58,783.003 1355.4,778.853 1346.77,778.827C1341.46,778.811 1336.05,780.396 1330.94,781.683C1318.81,784.735 1307.53,789.34 1296.1,794.318C1281.78,800.556 1266.82,805.257 1252.38,811.223C1246.16,813.796 1239.57,814.33 1233.52,817.19C1228.3,819.658 1223.86,822.733 1218.38,824.481C1188.94,833.852 1161.76,848.795 1130.03,855.061C1123.74,856.305 1117.58,858.13 1111.33,859.555C1109.64,859.939 1106.22,860.028 1105.11,861.603C1104.07,863.088 1104.87,866.093 1105.23,867.638"
          style="
            fill: rgb(
              calc(var(--color_eyebrows_r, 72) + 31),
              calc(var(--color_eyebrows_g, 46) + 16),
              calc(var(--color_eyebrows_b, 31) - 2)
            );
          "
        />
        <path
          d="M1106.88,861.018C1106.93,860.991 1106.64,862.499 1106.59,863.159C1106.45,864.805 1104.26,867.259 1106.14,867.97C1108.1,868.707 1122.66,866.42 1126.63,865.183C1138.92,861.351 1151.46,857.477 1163.42,852.61C1175.78,847.583 1184.16,843.05 1196.72,836.956C1199.8,835.465 1205.67,832.458 1213,829.003C1219.68,825.851 1229.01,821.963 1235.89,818.876C1256.78,809.498 1254.75,809.377 1254.47,809.471C1250,810.985 1231.41,819.409 1226.99,821.09C1208.87,827.989 1191.19,835.944 1173.11,842.929C1156.73,849.26 1139.77,855.248 1122.36,858.065C1119.09,858.596 1115.79,859.466 1112.48,859.746C1109.69,859.982 1106.29,858.763 1105.17,862.11"
          style="
            fill: rgb(
              calc(var(--color_eyebrows_r, 72) + 138),
              calc(var(--color_eyebrows_g, 46) + 111),
              calc(var(--color_eyebrows_b, 31) + 45)
            );
          "
        />
      </g>
      <path
        d="M1104.9,860.421C1104.99,859.823 1116.97,858.474 1122.18,857.404C1141.22,853.495 1159.71,848.423 1177.52,840.548C1216.41,823.342 1255.47,806.734 1295.9,793.231C1316.45,786.368 1332.25,779.188 1350.5,777.949C1359.23,777.356 1375.75,784.665 1393.2,793.064C1406.97,799.687 1422.49,811.473 1434.22,821.235C1435.67,822.44 1445.11,829.036 1445.06,830.611C1445.06,830.622 1411.96,816.154 1388.15,814.186C1357.27,811.634 1342.2,817.04 1330.33,822.442C1315.01,829.413 1294.74,838.043 1280.06,846.242C1267.78,853.102 1259.67,856.906 1243.75,865.25C1218.89,878.27 1194.3,892.487 1169.19,904.921C1158.79,910.07 1144.12,919.019 1133.04,912.508C1112.14,900.224 1103.63,868.915 1104.9,860.421Z"
        style="fill: none; stroke: black; stroke-width: 6.07px"
      />
      <g transform="matrix(-1,0,0,1,2042.97,0)">
        <path
          d="M1104.9,860.421C1104.99,859.823 1116.97,858.474 1122.18,857.404C1141.22,853.495 1159.71,848.423 1177.52,840.548C1216.41,823.342 1255.47,806.734 1295.9,793.231C1316.45,786.368 1332.25,779.188 1350.5,777.949C1359.23,777.356 1375.75,784.665 1393.2,793.064C1406.97,799.687 1422.49,811.473 1434.22,821.235C1435.67,822.44 1445.11,829.036 1445.06,830.611C1445.06,830.622 1411.96,816.154 1388.15,814.186C1357.27,811.634 1342.2,817.04 1330.33,822.442C1315.01,829.413 1294.74,838.043 1280.06,846.242C1267.78,853.102 1259.67,856.906 1243.75,865.25C1218.89,878.27 1194.3,892.487 1169.19,904.921C1158.79,910.07 1144.12,919.019 1133.04,912.508C1112.14,900.224 1103.63,868.915 1104.9,860.421Z"
          style="
            fill: rgb(
              var(--color_eyebrows_r, 72),
              var(--color_eyebrows_g, 46),
              var(--color_eyebrows_b, 31)
            );
          "
        />
        <clipPath id="_clip7_business_angry_eyes">
          <path
            d="M1104.9,860.421C1104.99,859.823 1116.97,858.474 1122.18,857.404C1141.22,853.495 1159.71,848.423 1177.52,840.548C1216.41,823.342 1255.47,806.734 1295.9,793.231C1316.45,786.368 1332.25,779.188 1350.5,777.949C1359.23,777.356 1375.75,784.665 1393.2,793.064C1406.97,799.687 1422.49,811.473 1434.22,821.235C1435.67,822.44 1445.11,829.036 1445.06,830.611C1445.06,830.622 1411.96,816.154 1388.15,814.186C1357.27,811.634 1342.2,817.04 1330.33,822.442C1315.01,829.413 1294.74,838.043 1280.06,846.242C1267.78,853.102 1259.67,856.906 1243.75,865.25C1218.89,878.27 1194.3,892.487 1169.19,904.921C1158.79,910.07 1144.12,919.019 1133.04,912.508C1112.14,900.224 1103.63,868.915 1104.9,860.421Z"
          />
        </clipPath>
        <g clip-path="url(#_clip7_business_angry_eyes)">
          <path
            d="M1106.63,867.61C1106.69,867.517 1106.25,866.986 1106.23,867.005C1105.74,867.518 1107.03,870.922 1107.18,871.502C1107.96,874.625 1108.85,881.174 1113.15,881.144C1115.7,881.127 1118.04,880.1 1120.45,879.418C1125.98,877.86 1131.01,876.09 1136.3,873.808C1144.17,870.416 1152.28,867.68 1160.15,864.304C1191.24,850.976 1221.97,836.814 1253,823.329C1261.78,819.513 1270.21,814.978 1279.06,811.308C1295.36,804.55 1312.6,799.241 1329.67,794.832C1348.46,789.978 1366.48,790.388 1384.85,796.615C1390.84,798.644 1397.08,800.482 1402.93,802.86C1405.33,803.837 1407.73,804.769 1410.16,805.673C1410.36,805.745 1412.47,806.585 1412.38,806C1412.23,805.136 1410.74,804.27 1410.12,803.861C1407.88,802.406 1405.48,801.173 1403.12,799.948C1393.26,794.845 1383.19,789.236 1372.65,785.707C1364.58,783.003 1355.4,778.853 1346.77,778.827C1341.46,778.811 1336.05,780.396 1330.94,781.683C1318.81,784.735 1307.53,789.34 1296.1,794.318C1281.78,800.556 1266.82,805.257 1252.38,811.223C1246.16,813.796 1239.57,814.33 1233.52,817.19C1228.3,819.658 1223.86,822.733 1218.38,824.481C1188.94,833.852 1161.76,848.795 1130.03,855.061C1123.74,856.305 1117.58,858.13 1111.33,859.555C1109.64,859.939 1106.22,860.028 1105.11,861.603C1104.07,863.088 1104.87,866.093 1105.23,867.638"
            style="
              fill: rgb(
                calc(var(--color_eyebrows_r, 72) + 31),
                calc(var(--color_eyebrows_g, 46) + 16),
                calc(var(--color_eyebrows_b, 31) - 2)
              );
            "
          />
          <path
            d="M1106.88,861.018C1106.93,860.991 1106.64,862.499 1106.59,863.159C1106.45,864.805 1104.26,867.259 1106.14,867.97C1108.1,868.707 1122.66,866.42 1126.63,865.183C1138.92,861.351 1151.46,857.477 1163.42,852.61C1175.78,847.583 1184.16,843.05 1196.72,836.956C1199.8,835.465 1205.67,832.458 1213,829.003C1219.68,825.851 1229.01,821.963 1235.89,818.876C1256.78,809.498 1254.75,809.377 1254.47,809.471C1250,810.985 1231.41,819.409 1226.99,821.09C1208.87,827.989 1191.19,835.944 1173.11,842.929C1156.73,849.26 1139.77,855.248 1122.36,858.065C1119.09,858.596 1115.79,859.466 1112.48,859.746C1109.69,859.982 1106.29,858.763 1105.17,862.11"
            style="
              fill: rgb(
                calc(var(--color_eyebrows_r, 72) + 138),
                calc(var(--color_eyebrows_g, 46) + 111),
                calc(var(--color_eyebrows_b, 31) + 45)
              );
            "
          />
        </g>
        <path
          d="M1104.9,860.421C1104.99,859.823 1116.97,858.474 1122.18,857.404C1141.22,853.495 1159.71,848.423 1177.52,840.548C1216.41,823.342 1255.47,806.734 1295.9,793.231C1316.45,786.368 1332.25,779.188 1350.5,777.949C1359.23,777.356 1375.75,784.665 1393.2,793.064C1406.97,799.687 1422.49,811.473 1434.22,821.235C1435.67,822.44 1445.11,829.036 1445.06,830.611C1445.06,830.622 1411.96,816.154 1388.15,814.186C1357.27,811.634 1342.2,817.04 1330.33,822.442C1315.01,829.413 1294.74,838.043 1280.06,846.242C1267.78,853.102 1259.67,856.906 1243.75,865.25C1218.89,878.27 1194.3,892.487 1169.19,904.921C1158.79,910.07 1144.12,919.019 1133.04,912.508C1112.14,900.224 1103.63,868.915 1104.9,860.421Z"
          style="fill: none; stroke: black; stroke-width: 6.07px"
        />
      </g>
      <path
        d="M1116.74,926.023C1115.59,926.417 1112.29,923.481 1111.24,922.649C1105.91,918.425 1100.5,914.114 1095.88,909.108C1079.78,891.686 1081.55,869.524 1079.57,847.599C1079,841.311 1078.65,835.059 1078.47,828.75C1078.42,827.097 1077.57,823.219 1078.21,821.688"
        style="fill: none; stroke: black; stroke-width: 6.07px"
      />
      <g transform="matrix(-1,0,0,1,2042.97,0)">
        <path
          d="M1116.74,926.023C1115.59,926.417 1112.29,923.481 1111.24,922.649C1105.91,918.425 1100.5,914.114 1095.88,909.108C1079.78,891.686 1081.55,869.524 1079.57,847.599C1079,841.311 1078.65,835.059 1078.47,828.75C1078.42,827.097 1077.57,823.219 1078.21,821.688"
          style="fill: none; stroke: black; stroke-width: 6.07px"
        />
      </g>
      <path
        d="M1102.82,1000.48C1103.18,999.102 1099.86,993.705 1099.33,992.338C1096.31,984.524 1092.76,976.424 1090.48,968.371C1085.86,952.077 1093.37,938.417 1102.25,925.601"
        style="fill: none; stroke: black; stroke-width: 6.07px"
      />
      <g transform="matrix(-1,0,0,1,2042.97,0)">
        <path
          d="M1102.82,1000.48C1103.18,999.102 1099.86,993.705 1099.33,992.338C1096.31,984.524 1092.76,976.424 1090.48,968.371C1085.86,952.077 1093.37,938.417 1102.25,925.601"
          style="fill: none; stroke: black; stroke-width: 6.07px"
        />
      </g>
    </g>
  </g>
</svg>
