<svg
  width="100%"
  height="100%"
  viewBox="0 0 800 800"
  xmlns="http://www.w3.org/2000/svg"
>
  <g
    id="Gorgeous-emotions"
    transform="matrix(0.388951,0,0,0.388951,2.34032,2.21244)"
  >
    <g id="Disgusted">
      <g transform="matrix(2.57102,0,0,2.57102,-6.01701,-5.68822)">
        <path
          d="M437.097,370.465C436.585,370.122 437.486,369.295 437.654,368.703C438.197,366.789 438.717,364.873 439.238,362.953C441.123,356.006 440.651,346.016 448.541,343.3C467.08,336.918 489.843,335.175 508.407,342.174C513.472,344.084 517.724,347.562 522.503,350.029C525.52,351.586 528.325,352.525 531.278,354.15C533.047,355.122 531.555,365.556 528.317,367.832C521.615,372.541 512.731,372.68 504.846,372.875C490.588,373.227 476.169,372.687 461.945,371.657C456.898,371.291 451.853,370.825 446.835,370.162C442.948,369.649 439.81,370.196 439.81,365.817L437.097,370.465ZM363.303,370.465C363.815,370.122 362.914,369.295 362.746,368.703C362.202,366.789 361.683,364.873 361.162,362.953C359.276,356.006 359.748,346.016 351.859,343.3C333.32,336.918 310.556,335.175 291.992,342.174C286.927,344.084 282.676,347.562 277.896,350.029C274.88,351.586 272.075,352.525 269.121,354.15C267.353,355.122 268.844,365.556 272.083,367.832C278.784,372.541 287.668,372.68 295.554,372.875C309.812,373.227 324.231,372.687 338.454,371.657C343.502,371.291 348.546,370.825 353.564,370.162C357.451,369.649 360.589,370.196 360.589,365.817L363.303,370.465Z"
          style="
            fill: rgb(
              var(--color_eyeliner_r, 255),
              var(--color_eyeliner_g, 255),
              var(--color_eyeliner_b, 255)
            );
          "
        />
      </g>
      <g id="Eyes" transform="matrix(1,0,0,1,-1.67015,-3.3403)">
        <g transform="matrix(2.57102,0,0,2.57102,-4.34686,-2.34792)">
          <path
            d="M468.835,387.205C468.046,387.462 466.364,387.879 465.55,388.026C463.022,388.484 460.458,388.778 457.888,388.836C456.559,388.867 455.233,388.893 453.906,388.973C453.659,388.987 452.751,388.876 452.571,389.119C451.922,389.988 453.967,392.041 454.409,392.609C454.926,393.272 454.925,393.822 454.102,393.56C453.898,393.495 453.696,393.426 453.496,393.349C453.035,393.173 452.581,392.977 452.125,392.79C451.471,392.52 450.813,392.259 450.17,391.966C449.068,391.463 447.994,390.934 446.866,390.488C445.224,389.838 443.585,389.173 441.949,388.51C441.734,388.422 440.476,388.063 440.394,387.824C440.325,387.624 442.463,387.285 442.586,387.267C445.024,386.912 447.493,386.529 449.939,386.709C455.996,387.156 463.356,387.074 469.408,386.401L468.835,387.205ZM330.981,386.417L330.839,386.401L331.412,387.205C332.201,387.462 333.883,387.879 334.697,388.026C337.226,388.484 339.789,388.778 342.359,388.836C343.688,388.867 345.014,388.893 346.341,388.973C346.588,388.987 347.496,388.876 347.677,389.119C348.325,389.988 346.281,392.041 345.838,392.609C345.321,393.272 345.322,393.822 346.145,393.56C346.35,393.495 346.551,393.426 346.751,393.349C347.212,393.173 347.666,392.977 348.123,392.79C348.776,392.52 349.434,392.259 350.077,391.966C351.179,391.463 352.253,390.934 353.382,390.488C355.024,389.838 356.663,389.173 358.298,388.51C358.513,388.422 359.771,388.063 359.853,387.824C359.923,387.624 357.784,387.285 357.661,387.267C355.223,386.912 352.754,386.529 350.308,386.709C344.298,387.152 337.006,387.075 330.981,386.417ZM468.835,387.205C468.559,387.323 469.121,387.112 468.835,387.205ZM331.331,387.181L331.33,387.181C331.308,387.179 331.637,387.3 331.412,387.205L331.388,387.197C331.355,387.187 331.337,387.182 331.331,387.181Z"
            style="fill: rgb(56, 25, 57); fill-opacity: 0.51"
          />
        </g>
        <path
          d="M1123.99,949.875C1122.44,951.17 1116.92,965.238 1156.35,970.337C1195.78,975.435 1281.64,982.314 1305.53,972.378C1329.41,962.443 1338.45,955.657 1345.9,947.821C1353.36,939.985 1344.12,934.871 1325.09,925.926C1274.43,902.107 1231.19,902.018 1196.98,914.244C1143.32,933.423 1124.85,949.156 1123.99,949.875Z"
          style="fill: white"
        />
        <clipPath id="_clip1_miss_disgusted_eyes">
          <path
            d="M1123.99,949.875C1122.44,951.17 1116.92,965.238 1156.35,970.337C1195.78,975.435 1281.64,982.314 1305.53,972.378C1329.41,962.443 1338.45,955.657 1345.9,947.821C1353.36,939.985 1344.12,934.871 1325.09,925.926C1274.43,902.107 1231.19,902.018 1196.98,914.244C1143.32,933.423 1124.85,949.156 1123.99,949.875Z"
          />
        </clipPath>
        <g clip-path="url(#_clip1_miss_disgusted_eyes)">
          <path
            d="M1123.49,953.494C1121.51,952.543 1125.27,962.127 1128.06,962.497C1130.84,962.867 1143.17,954.728 1177.59,948.837C1212.02,942.947 1269.61,942.41 1289.3,945.925C1308.98,949.441 1320.19,951.338 1325.99,955.172C1331.8,959.006 1343.22,952.88 1344.37,947.742C1345.52,942.604 1292.15,908.976 1275.21,907.024C1258.27,905.073 1178.48,904.398 1153.2,924.883C1127.92,945.369 1125.46,954.445 1123.49,953.494Z"
            style="fill: rgb(56, 25, 57); fill-opacity: 0.5"
          />
          <g transform="matrix(1.36544,0,0,1.36544,-204.148,-460.834)">
            <circle
              cx="1056.39"
              cy="1019.97"
              r="43.493"
              style="
                fill: rgb(
                  var(--color_eyes_r, 99),
                  var(--color_eyes_g, 65),
                  var(--color_eyes_b, 28)
                );
              "
            />
            <clipPath id="_clip2_miss_disgusted_eyes">
              <circle cx="1056.39" cy="1019.97" r="43.493" />
            </clipPath>
            <g clip-path="url(#_clip2_miss_disgusted_eyes)">
              <g transform="matrix(0.763645,0,0,0.743669,535.6,434.325)">
                <circle
                  cx="681.52"
                  cy="791.949"
                  r="30.721"
                  style="
                    fill: rgb(
                      calc(var(--color_eyes_r, 99) + 119),
                      calc(var(--color_eyes_g, 65) + 106),
                      calc(var(--color_eyes_b, 28) + 41)
                    );
                  "
                />
              </g>
              <g transform="matrix(0.732362,0,0,0.732362,149.51,337.498)">
                <path
                  d="M1180.83,947.803C1180.6,947.928 1252.21,932.892 1293.86,947.701C1297.26,939.749 1296.8,925.541 1297.08,922.855C1297.36,920.169 1253.03,902.095 1217.92,906.779C1162.43,914.182 1182.33,946.994 1180.83,947.803Z"
                  style="
                    fill: rgb(
                      calc(var(--color_eyes_r, 99) - 29),
                      calc(var(--color_eyes_g, 65) - 25),
                      calc(var(--color_eyes_b, 28) + 1)
                    );
                  "
                />
              </g>
              <g transform="matrix(0.732362,0,0,0.732362,556.977,438.431)">
                <circle cx="681.52" cy="791.949" r="30.721" />
              </g>
            </g>
            <circle
              cx="1056.39"
              cy="1019.97"
              r="43.493"
              style="fill: none; stroke: black; stroke-width: 3.95px"
            />
          </g>
          <g transform="matrix(0.942106,0,0,0.933052,66.8757,60.5691)">
            <ellipse
              cx="1284.4"
              cy="935.392"
              rx="12.647"
              ry="11.818"
              style="fill: white"
            />
          </g>
        </g>
        <g transform="matrix(-1,0,0,1,2048.76,0)">
          <path
            d="M1123.99,949.875C1122.44,951.17 1116.92,965.238 1156.35,970.337C1195.78,975.435 1281.64,982.314 1305.53,972.378C1329.41,962.443 1338.45,955.657 1345.9,947.821C1353.36,939.985 1344.12,934.871 1325.09,925.926C1274.43,902.107 1231.19,902.018 1196.98,914.244C1143.32,933.423 1124.85,949.156 1123.99,949.875Z"
            style="fill: white"
          />
          <clipPath id="_clip3_miss_disgusted_eyes">
            <path
              d="M1123.99,949.875C1122.44,951.17 1116.92,965.238 1156.35,970.337C1195.78,975.435 1281.64,982.314 1305.53,972.378C1329.41,962.443 1338.45,955.657 1345.9,947.821C1353.36,939.985 1344.12,934.871 1325.09,925.926C1274.43,902.107 1231.19,902.018 1196.98,914.244C1143.32,933.423 1124.85,949.156 1123.99,949.875Z"
            />
          </clipPath>
          <g clip-path="url(#_clip3_miss_disgusted_eyes)">
            <path
              d="M1123.49,953.494C1121.51,952.543 1125.27,962.127 1128.06,962.497C1130.84,962.867 1143.17,954.728 1177.59,948.837C1212.02,942.947 1269.61,942.41 1289.3,945.925C1308.98,949.441 1320.19,951.338 1325.99,955.172C1331.8,959.006 1343.22,952.88 1344.37,947.742C1345.52,942.604 1292.15,908.976 1275.21,907.024C1258.27,905.073 1178.48,904.398 1153.2,924.883C1127.92,945.369 1125.46,954.445 1123.49,953.494Z"
              style="fill: rgb(56, 25, 57); fill-opacity: 0.5"
            />
            <g transform="matrix(1.36544,0,0,1.36544,-204.148,-460.834)">
              <circle
                cx="1056.39"
                cy="1019.97"
                r="43.493"
                style="
                  fill: rgb(
                    var(--color_eyes_r, 99),
                    var(--color_eyes_g, 65),
                    var(--color_eyes_b)
                  );
                "
              />
              <clipPath id="_clip4_miss_disgusted_eyes">
                <circle cx="1056.39" cy="1019.97" r="43.493" />
              </clipPath>
              <g clip-path="url(#_clip4_miss_disgusted_eyes)">
                <g transform="matrix(0.763645,0,0,0.743669,535.6,434.325)">
                  <circle
                    cx="681.52"
                    cy="791.949"
                    r="30.721"
                    style="
                      fill: rgb(
                        calc(var(--color_eyes_r, 99) + 119),
                        calc(var(--color_eyes_g, 65) + 106),
                        calc(var(--color_eyes_b, 28) + 41)
                      );
                    "
                  />
                </g>
                <g transform="matrix(0.732362,0,0,0.732362,149.51,337.498)">
                  <path
                    d="M1180.83,947.803C1180.6,947.928 1252.21,932.892 1293.86,947.701C1297.26,939.749 1296.8,925.541 1297.08,922.855C1297.36,920.169 1253.03,902.095 1217.92,906.779C1162.43,914.182 1182.33,946.994 1180.83,947.803Z"
                    style="
                      fill: rgb(
                        calc(var(--color_eyes_r, 99) - 29),
                        calc(var(--color_eyes_g, 65) - 25),
                        calc(var(--color_eyes_b, 28) + 1)
                      );
                    "
                  />
                </g>
                <g transform="matrix(0.732362,0,0,0.732362,556.977,438.431)">
                  <circle cx="681.52" cy="791.949" r="30.721" />
                </g>
              </g>
              <circle
                cx="1056.39"
                cy="1019.97"
                r="43.493"
                style="fill: none; stroke: black; stroke-width: 3.95px"
              />
            </g>
            <g transform="matrix(0.942106,0,0,0.933052,-8.28103,60.5691)">
              <ellipse
                cx="1284.4"
                cy="935.392"
                rx="12.647"
                ry="11.818"
                style="fill: white"
              />
            </g>
          </g>
        </g>
        <path
          d="M1114.06,952.992C1112.49,956.146 1132.07,926.531 1133.25,925.102C1134.44,923.673 1119.78,910.319 1121.46,908.263C1122.63,906.825 1136.86,909.002 1151.3,910.34C1158.06,907.162 1163.74,905.656 1163.62,904.664C1162.93,898.728 1157.7,885.018 1160.04,883.821C1162.69,882.466 1182.55,897.282 1184.43,896.613C1190.18,894.568 1205.35,892.098 1209.16,891.867C1209.49,891.846 1216.25,869.785 1218.18,869.517C1222,868.984 1221.92,877.577 1233.94,889.568C1237.48,893.107 1256.81,891.526 1258.36,890.789C1262.64,888.749 1280.91,874.837 1283.86,875.202C1287.27,875.623 1278.8,894.619 1281.47,896.173C1289,896.427 1297.87,900.425 1300.18,899.557C1301.77,898.747 1322.33,889.687 1324.06,890.079C1325.79,890.471 1319.39,904.929 1320.71,906.687C1322.37,908.882 1337.71,912.948 1340.65,912.474C1343.59,912 1366.15,910.205 1370.63,907.212C1373.93,905.012 1361.58,919.94 1363.46,921.314C1365.34,922.687 1391.27,929.839 1392.52,932.516C1394.85,937.553 1348.8,961.531 1339.45,964.249C1347.91,972.841 1354.28,981.446 1352.98,982.431C1351.38,983.649 1331.82,973.753 1328.95,969.399C1328.57,968.816 1323,969.832 1321.82,969.611C1320.65,969.389 1337.58,990.607 1335.08,991.528C1332.76,992.382 1313.68,977.097 1307.83,974.846C1304.22,973.459 1299.77,975.604 1299.14,975.04C1298.51,974.475 1307.61,991.121 1305.92,992.703C1304.02,994.475 1292.35,980.177 1289.05,978.437C1287.07,977.395 1275.56,978.373 1260.12,978.234C1223.22,977.902 1170.33,974.872 1156.96,974.515C1152.92,974.407 1154.91,969.901 1156.57,969.964C1175.11,970.664 1269.37,976.182 1285.38,973.199C1303.38,969.844 1330.32,954.742 1335.65,946.141C1324.97,935.051 1314.75,929.761 1297.42,923.448C1293.85,922.145 1268.85,909.467 1241.52,911.43C1217.52,913.155 1189.91,920.076 1181.41,924.297C1167.08,931.412 1157.92,934.663 1143.53,944.063C1129.15,953.463 1132.05,953.308 1124.39,956.699C1121.12,958.143 1116.41,960.296 1114.46,958.578C1112.5,956.852 1114.4,952.302 1114.06,952.992Z"
        />
        <g transform="matrix(-1,0,0,1,2048.76,0)">
          <path
            d="M1114.06,952.992C1112.49,956.146 1132.07,926.531 1133.25,925.102C1134.44,923.673 1119.78,910.319 1121.46,908.263C1122.63,906.825 1136.86,909.002 1151.3,910.34C1158.06,907.162 1163.74,905.656 1163.62,904.664C1162.93,898.728 1157.7,885.018 1160.04,883.821C1162.69,882.466 1182.55,897.282 1184.43,896.613C1190.18,894.568 1205.35,892.098 1209.16,891.867C1209.49,891.846 1216.25,869.785 1218.18,869.517C1222,868.984 1221.92,877.577 1233.94,889.568C1237.48,893.107 1256.81,891.526 1258.36,890.789C1262.64,888.749 1280.91,874.837 1283.86,875.202C1287.27,875.623 1278.8,894.619 1281.47,896.173C1289,896.427 1297.87,900.425 1300.18,899.557C1301.77,898.747 1322.33,889.687 1324.06,890.079C1325.79,890.471 1319.39,904.929 1320.71,906.687C1322.37,908.882 1337.71,912.948 1340.65,912.474C1343.59,912 1366.15,910.205 1370.63,907.212C1373.93,905.012 1361.58,919.94 1363.46,921.314C1365.34,922.687 1391.27,929.839 1392.52,932.516C1394.85,937.553 1348.8,961.531 1339.45,964.249C1347.91,972.841 1354.28,981.446 1352.98,982.431C1351.38,983.649 1331.82,973.753 1328.95,969.399C1328.57,968.816 1323,969.832 1321.82,969.611C1320.65,969.389 1337.58,990.607 1335.08,991.528C1332.76,992.382 1313.68,977.097 1307.83,974.846C1304.22,973.459 1299.77,975.604 1299.14,975.04C1298.51,974.475 1307.61,991.121 1305.92,992.703C1304.02,994.475 1292.35,980.177 1289.05,978.437C1287.07,977.395 1275.56,978.373 1260.12,978.234C1223.22,977.902 1170.33,974.872 1156.96,974.515C1152.92,974.407 1154.91,969.901 1156.57,969.964C1175.11,970.664 1269.37,976.182 1285.38,973.199C1303.38,969.844 1330.32,954.742 1335.65,946.141C1324.97,935.051 1314.75,929.761 1297.42,923.448C1293.85,922.145 1268.85,909.467 1241.52,911.43C1217.52,913.155 1189.91,920.076 1181.41,924.297C1167.08,931.412 1157.92,934.663 1143.53,944.063C1129.15,953.463 1132.05,953.308 1124.39,956.699C1121.12,958.143 1116.41,960.296 1114.46,958.578C1112.5,956.852 1114.4,952.302 1114.06,952.992Z"
          />
        </g>
        <path
          d="M1202.97,992.114C1202.87,992.359 1198.84,992.06 1198.57,992.056C1193.86,991.996 1189.15,991.98 1184.44,992.112C1168.9,992.545 1153.24,992.056 1137.69,992.199C1134.15,992.232 1130.53,992.132 1126.99,991.813C1126.87,991.801 1123.97,991.781 1123.96,992.032C1123.93,992.619 1129.09,994.486 1129.56,994.703C1135.64,997.478 1141.49,1000.72 1147.68,1003.25C1153.65,1005.69 1159.62,1008.12 1165.73,1010.21"
          style="fill: none; stroke: black; stroke-width: 5.4px"
        />
        <path
          d="M1128.4,890.158C1128.39,890.17 1129.27,889.828 1129.38,889.781C1130.06,889.47 1130.73,889.12 1131.39,888.772C1133.38,887.735 1135.37,886.693 1137.38,885.703C1143.45,882.715 1149.59,879.769 1155.98,877.516C1175.22,870.733 1194.73,868.868 1214.86,867.159C1230.88,865.799 1252.36,864.523 1268.25,867.657C1306.84,875.264 1332.81,896.347 1367.55,909.261"
          style="fill: none; stroke: black; stroke-width: 5.4px"
        />
        <path
          d="M1126.01,924.827C1127.24,921.953 1135.39,895.915 1135.97,886.522"
          style="fill: none; stroke: black; stroke-width: 5.4px"
        />
        <g transform="matrix(-1,0,0,1,2048.76,0)">
          <path
            d="M1202.97,992.114C1202.87,992.359 1198.84,992.06 1198.57,992.056C1193.86,991.996 1189.15,991.98 1184.44,992.112C1168.9,992.545 1153.24,992.056 1137.69,992.199C1134.15,992.232 1130.53,992.132 1126.99,991.813C1126.87,991.801 1123.97,991.781 1123.96,992.032C1123.93,992.619 1129.09,994.486 1129.56,994.703C1135.64,997.478 1141.49,1000.72 1147.68,1003.25C1153.65,1005.69 1159.62,1008.12 1165.73,1010.21"
            style="fill: none; stroke: black; stroke-width: 5.4px"
          />
        </g>
        <g transform="matrix(-1,0,0,1,2048.76,0)">
          <path
            d="M1128.4,890.158C1128.39,890.17 1129.27,889.828 1129.38,889.781C1130.06,889.47 1130.73,889.12 1131.39,888.772C1133.38,887.735 1135.37,886.693 1137.38,885.703C1143.45,882.715 1149.59,879.769 1155.98,877.516C1175.22,870.733 1194.73,868.868 1214.86,867.159C1230.88,865.799 1252.36,864.523 1268.25,867.657C1306.84,875.264 1332.81,896.347 1367.55,909.261"
            style="fill: none; stroke: black; stroke-width: 5.4px"
          />
        </g>
        <g transform="matrix(-1,0,0,1,2048.76,0)">
          <path
            d="M1126.01,924.827C1127.24,921.953 1135.39,895.915 1135.97,886.522"
            style="fill: none; stroke: black; stroke-width: 5.4px"
          />
        </g>
      </g>
      <g id="Eyebrows" transform="matrix(1,0,0,1,-3.3403,-3.3403)">
        <g transform="matrix(2.57102,0,0,2.57102,-2.67671,-2.34792)">
          <path
            d="M355.405,344.514C355.192,344.26 353.007,343.012 352.185,342.712C347.911,341.154 344.153,338.423 340.341,336.054C339.466,335.51 338.507,334.817 337.917,333.94C337.721,333.649 337.866,333.331 338.127,332.994C338.45,332.576 339.367,332.652 339.811,332.683C341.302,332.789 342.834,333.17 344.283,333.527C347.045,334.207 349.84,334.703 352.586,335.451C355.829,336.335 359.195,337.491 362.599,337.471C364.212,337.461 365.835,337.069 367.444,337.141C368.627,337.194 369.717,337.529 370.875,337.631C373.437,337.858 376.325,337.675 378.809,337.078C380.708,336.622 382.577,336.018 384.234,334.951C384.755,334.615 385.243,334.212 385.706,333.8C385.783,333.732 386.091,333.348 386.205,333.364C386.4,333.392 385.999,333.702 385.894,333.869C385.667,334.228 385.445,334.592 385.247,334.967C384.661,336.073 384.192,337.186 383.418,338.175C381.552,340.559 380.23,343.357 378.15,345.592C377.546,346.242 376.902,346.831 376.208,347.384C376.114,347.459 375.459,347.809 375.459,347.933C375.459,348.12 379.416,356.524 380.504,359.277C381.934,362.896 382.442,366.606 382.707,370.111C382.966,373.544 383.326,376.74 382.554,379.741C382.548,379.748 378.789,377.028 377.967,376.176C375.442,373.563 372.986,370.819 370.585,368.092C366.131,363.03 361.97,359.151 359.354,354.576C358.337,352.799 357.119,347.759 356.3,345.891C356.152,345.552 356.013,345.21 355.844,344.896C355.808,344.93 355.446,344.563 355.405,344.514ZM443.754,344.896C443.789,344.93 446.673,343.257 447.495,342.958C451.77,341.399 454.961,338.467 458.772,336.098C459.647,335.554 460.655,335.01 461.245,334.133C461.441,333.842 461.732,333.331 461.471,332.994C461.147,332.576 460.231,332.652 459.787,332.683C458.295,332.789 456.764,333.17 455.314,333.527C452.552,334.207 449.758,334.703 447.012,335.451C443.768,336.335 440.403,337.491 436.999,337.471C435.385,337.461 433.763,337.069 432.154,337.141C430.97,337.194 429.88,337.529 428.723,337.631C426.161,337.858 423.272,337.675 420.788,337.078C418.889,336.622 417.02,336.018 415.364,334.951C414.842,334.615 414.354,334.212 413.891,333.8C413.815,333.732 413.506,333.348 413.393,333.364C413.197,333.392 413.599,333.702 413.704,333.869C413.931,334.228 414.152,334.592 414.351,334.967C414.936,336.073 415.405,337.186 416.179,338.175C418.045,340.559 419.367,343.357 421.447,345.592C422.052,346.242 422.695,346.831 423.39,347.384C423.484,347.459 424.138,347.809 424.138,347.933C424.138,348.12 420.182,356.524 419.094,359.277C417.663,362.896 417.405,366.407 417.223,370.256C417.078,373.309 416.954,376.541 417.725,379.542C417.731,379.549 418.105,379.349 418.251,379.296C418.629,379.159 420.808,377.028 421.631,376.176C424.156,373.563 426.612,370.819 429.012,368.092C433.466,363.03 438.246,355.293 440.532,354.358C442.428,353.583 442.478,347.759 443.297,345.891C443.446,345.552 443.585,345.21 443.754,344.896Z"
            style="fill: rgb(56, 25, 57); fill-opacity: 0.51"
          />
        </g>
        <path
          d="M1067.14,821.744C1068.07,821.25 1080.76,823.427 1091.86,823.794C1107.67,824.316 1143.91,818.956 1152.66,817.979C1173.39,815.663 1195.45,813.576 1216.25,811.902C1244.56,809.621 1256.22,807.29 1276.18,809.179C1286.69,810.174 1297.11,812.648 1307.22,815.595C1313.06,817.3 1336.37,826.384 1355.25,837.382C1362.53,841.622 1391.07,862.183 1391.07,862.183C1391.07,862.183 1367.94,855.538 1361.34,853.533C1337.14,846.193 1322.08,843.735 1298.42,842.182C1277.97,840.839 1258.79,843.159 1238.54,845.645C1210.41,849.097 1199.8,849.059 1151.32,861.627C1140.53,864.422 1123.41,867.308 1112.17,866.918C1096.24,866.365 1079.46,849.296 1074.26,839.058C1072.07,834.764 1067.72,826.602 1067.14,821.744Z"
          style="
            fill: rgb(
              var(--color_eyebrows_r, 72),
              var(--color_eyebrows_g, 46),
              var(--color_eyebrows_b, 31)
            );
          "
        />
        <clipPath id="_clip5_miss_disgusted_eyes">
          <path
            d="M1067.14,821.744C1068.07,821.25 1080.76,823.427 1091.86,823.794C1107.67,824.316 1143.91,818.956 1152.66,817.979C1173.39,815.663 1195.45,813.576 1216.25,811.902C1244.56,809.621 1256.22,807.29 1276.18,809.179C1286.69,810.174 1297.11,812.648 1307.22,815.595C1313.06,817.3 1336.37,826.384 1355.25,837.382C1362.53,841.622 1391.07,862.183 1391.07,862.183C1391.07,862.183 1367.94,855.538 1361.34,853.533C1337.14,846.193 1322.08,843.735 1298.42,842.182C1277.97,840.839 1258.79,843.159 1238.54,845.645C1210.41,849.097 1199.8,849.059 1151.32,861.627C1140.53,864.422 1123.41,867.308 1112.17,866.918C1096.24,866.365 1079.46,849.296 1074.26,839.058C1072.07,834.764 1067.72,826.602 1067.14,821.744Z"
          />
        </clipPath>
        <g clip-path="url(#_clip5_miss_disgusted_eyes)">
          <path
            d="M1074.44,836.264C1074.44,836.264 1226.41,823.461 1240.07,822.647C1253.72,821.833 1304.94,814.054 1349,837.841C1330.57,821.613 1315.4,819.707 1283.98,809.91C1261.88,803.019 1099.78,824.315 1084.8,824.453C1069.83,824.591 1069.82,822.659 1069.82,822.659L1074.44,836.264Z"
            style="
              fill: rgb(
                calc(var(--color_eyebrows_r, 72) + 31),
                calc(var(--color_eyebrows_g, 46) + 16),
                calc(var(--color_eyebrows_b, 31) - 2)
              );
            "
          />
        </g>
        <path
          d="M1067.14,821.744C1068.07,821.25 1080.76,823.427 1091.86,823.794C1107.67,824.316 1143.91,818.956 1152.66,817.979C1173.39,815.663 1195.45,813.576 1216.25,811.902C1244.56,809.621 1256.22,807.29 1276.18,809.179C1286.69,810.174 1297.11,812.648 1307.22,815.595C1313.06,817.3 1336.37,826.384 1355.25,837.382C1362.53,841.622 1391.07,862.183 1391.07,862.183C1391.07,862.183 1367.94,855.538 1361.34,853.533C1337.14,846.193 1322.08,843.735 1298.42,842.182C1277.97,840.839 1258.79,843.159 1238.54,845.645C1210.41,849.097 1199.8,849.059 1151.32,861.627C1140.53,864.422 1123.41,867.308 1112.17,866.918C1096.24,866.365 1079.46,849.296 1074.26,839.058C1072.07,834.764 1067.72,826.602 1067.14,821.744Z"
          style="fill: none; stroke: black; stroke-width: 5.4px"
        />
        <g transform="matrix(-1,0,0,1,2048.76,0)">
          <path
            d="M1067.14,821.744C1068.07,821.25 1080.76,823.427 1091.86,823.794C1107.67,824.316 1143.91,818.956 1152.66,817.979C1173.39,815.663 1195.45,813.576 1216.25,811.902C1244.56,809.621 1256.22,807.29 1276.18,809.179C1286.69,810.174 1297.11,812.648 1307.22,815.595C1313.06,817.3 1336.37,826.384 1355.25,837.382C1362.53,841.622 1391.07,862.183 1391.07,862.183C1391.07,862.183 1367.94,855.538 1361.34,853.533C1337.14,846.193 1322.08,843.735 1298.42,842.182C1277.97,840.839 1258.79,843.159 1238.54,845.645C1210.41,849.097 1199.8,849.059 1151.32,861.627C1140.53,864.422 1123.41,867.308 1112.17,866.918C1096.24,866.365 1079.46,849.296 1074.26,839.058C1072.07,834.764 1067.72,826.602 1067.14,821.744Z"
            style="
              fill: rgb(
                var(--color_eyebrows_r, 72),
                var(--color_eyebrows_g, 46),
                var(--color_eyebrows_b, 31)
              );
            "
          />
          <clipPath id="_clip6_miss_disgusted_eyes">
            <path
              d="M1067.14,821.744C1068.07,821.25 1080.76,823.427 1091.86,823.794C1107.67,824.316 1143.91,818.956 1152.66,817.979C1173.39,815.663 1195.45,813.576 1216.25,811.902C1244.56,809.621 1256.22,807.29 1276.18,809.179C1286.69,810.174 1297.11,812.648 1307.22,815.595C1313.06,817.3 1336.37,826.384 1355.25,837.382C1362.53,841.622 1391.07,862.183 1391.07,862.183C1391.07,862.183 1367.94,855.538 1361.34,853.533C1337.14,846.193 1322.08,843.735 1298.42,842.182C1277.97,840.839 1258.79,843.159 1238.54,845.645C1210.41,849.097 1199.8,849.059 1151.32,861.627C1140.53,864.422 1123.41,867.308 1112.17,866.918C1096.24,866.365 1079.46,849.296 1074.26,839.058C1072.07,834.764 1067.72,826.602 1067.14,821.744Z"
            />
          </clipPath>
          <g clip-path="url(#_clip6_miss_disgusted_eyes)">
            <path
              d="M1074.44,836.264C1074.44,836.264 1226.41,823.461 1240.07,822.647C1253.72,821.833 1304.94,814.054 1349,837.841C1330.57,821.613 1315.4,819.707 1283.98,809.91C1261.88,803.019 1099.78,824.315 1084.8,824.453C1069.83,824.591 1069.82,822.659 1069.82,822.659L1074.44,836.264Z"
              style="
                fill: rgb(
                  calc(var(--color_eyebrows_r, 72) + 31),
                  calc(var(--color_eyebrows_g, 46) + 16),
                  calc(var(--color_eyebrows_b, 31) - 2)
                );
              "
            />
          </g>
          <path
            d="M1067.14,821.744C1068.07,821.25 1080.76,823.427 1091.86,823.794C1107.67,824.316 1143.91,818.956 1152.66,817.979C1173.39,815.663 1195.45,813.576 1216.25,811.902C1244.56,809.621 1256.22,807.29 1276.18,809.179C1286.69,810.174 1297.11,812.648 1307.22,815.595C1313.06,817.3 1336.37,826.384 1355.25,837.382C1362.53,841.622 1391.07,862.183 1391.07,862.183C1391.07,862.183 1367.94,855.538 1361.34,853.533C1337.14,846.193 1322.08,843.735 1298.42,842.182C1277.97,840.839 1258.79,843.159 1238.54,845.645C1210.41,849.097 1199.8,849.059 1151.32,861.627C1140.53,864.422 1123.41,867.308 1112.17,866.918C1096.24,866.365 1079.46,849.296 1074.26,839.058C1072.07,834.764 1067.72,826.602 1067.14,821.744Z"
            style="fill: none; stroke: black; stroke-width: 5.4px"
          />
        </g>
        <g transform="matrix(1,0,0,1,1.67015,0)">
          <path
            d="M1068.36,984.461C1068.01,980.15 1067.85,969.463 1067.63,964.102C1067.01,949.142 1069.29,935.086 1074.65,921.064C1076.75,915.562 1079.7,910.692 1082.35,905.484"
            style="fill: none; stroke: black; stroke-width: 5.4px"
          />
        </g>
        <g transform="matrix(-1,0,0,1,2050.43,0)">
          <path
            d="M1068.36,984.461C1068.01,980.15 1067.85,969.463 1067.63,964.102C1067.01,949.142 1069.29,935.086 1074.65,921.064C1076.75,915.562 1079.7,910.692 1082.35,905.484"
            style="fill: none; stroke: black; stroke-width: 5.4px"
          />
        </g>
        <path
          d="M1072.01,873.352C1071.98,873.395 1071.08,872.478 1071.04,872.442C1069.93,871.291 1068.91,870.042 1067.88,868.819C1065.22,865.654 1062.63,862.438 1060.12,859.147C1052.79,849.53 1047.07,838.506 1044.35,826.679C1043.2,821.726 1042.01,816.703 1041.32,811.664C1040.97,809.103 1041.33,805.782 1040.07,803.436"
          style="fill: none; stroke: black; stroke-width: 5.4px"
        />
        <g transform="matrix(-1,0,0,1,2048.76,0)">
          <path
            d="M1072.01,873.352C1071.98,873.395 1071.08,872.478 1071.04,872.442C1069.93,871.291 1068.91,870.042 1067.88,868.819C1065.22,865.654 1062.63,862.438 1060.12,859.147C1052.79,849.53 1047.07,838.506 1044.35,826.679C1043.2,821.726 1042.01,816.703 1041.32,811.664C1040.97,809.103 1041.33,805.782 1040.07,803.436"
            style="fill: none; stroke: black; stroke-width: 5.4px"
          />
        </g>
      </g>
    </g>
  </g>
</svg>
