<svg
  width="100%"
  height="100%"
  viewBox="0 0 800 800"
  xmlns="http://www.w3.org/2000/svg"
>
  <g id="Annoyed" transform="matrix(0.388951,0,0,0.388951,2.34032,2.21244)">
    <g id="Eyebrows">
      <path
        d="M1060.82,853.36C1063.34,852.2 1072.64,854.564 1074.05,855.371C1074.7,855.747 1081.8,860.844 1082.07,860.474C1082.8,859.469 1080.49,853.323 1080.25,852.178C1079.43,848.303 1074.38,823.98 1076.43,821.69C1076.68,821.404 1077.69,822.011 1077.92,822.109C1083.88,824.681 1088.83,830.307 1093.63,834.531C1102.58,842.401 1112.45,843.825 1124.15,845.096C1142.57,847.097 1159.41,842.753 1177.23,838.467C1180.1,837.778 1198.36,832.281 1200.8,833.332C1202.4,834.023 1197.8,835.126 1196.29,835.998C1193.36,837.692 1190.45,839.434 1187.53,841.139C1179.65,845.729 1173.29,852.299 1165.09,856.405C1163.65,857.126 1156.86,859.678 1156.44,861.464C1155.96,863.563 1171.45,869.205 1173.57,870.052C1175.72,870.911 1180.05,872.533 1180.05,872.533C1180.05,872.533 1174.52,873.972 1172.09,875.392C1166.96,878.386 1161.93,881.513 1157.23,885.17C1152.59,888.785 1147.64,893.321 1144.43,898.317C1144.26,898.595 1143.63,899.643 1143.15,899.52C1139.53,898.592 1144.63,887.092 1144,886.704C1142.74,885.937 1131.31,896.835 1130.2,897.963C1122,906.347 1114.04,914.848 1104.89,922.22C1102.49,924.156 1097.71,925.657 1095.87,927.644C1095.08,928.504 1092.32,934.042 1091.37,940.804C1090.05,950.216 1090.55,961.399 1089.74,960.297C1083.18,951.28 1079.88,916.576 1079.42,914.647C1076.41,902.118 1076.96,885.594 1074.21,872.992C1073.08,867.776 1055.5,854.769 1060.85,853.305L1060.82,853.36C1060.31,853.597 1060.08,853.983 1060.26,854.562L1060.82,853.36ZM987.637,853.36C988.154,853.597 988.385,853.983 988.205,854.562L987.637,853.36C985.118,852.2 975.821,854.564 974.412,855.371C973.756,855.747 966.658,860.844 966.391,860.474C965.664,859.469 967.97,853.323 968.212,852.178C969.032,848.303 974.081,823.98 972.035,821.69C971.779,821.404 970.77,822.011 970.544,822.109C964.585,824.681 959.63,830.307 954.83,834.531C945.886,842.401 936.008,843.825 924.312,845.096C905.893,847.097 889.049,842.753 871.227,838.467C868.359,837.778 850.099,832.281 847.666,833.332C846.064,834.023 850.66,835.126 852.171,835.998C855.104,837.692 858.009,839.434 860.935,841.139C868.815,845.729 875.175,852.299 883.367,856.405C884.807,857.126 891.604,859.678 892.017,861.464C892.504,863.563 877.008,869.205 874.889,870.052C872.743,870.911 868.414,872.533 868.414,872.533C868.414,872.533 873.937,873.972 876.372,875.392C881.505,878.386 886.535,881.513 891.231,885.17C895.872,888.785 900.824,893.321 904.028,898.317C904.206,898.595 904.827,899.643 905.307,899.52C908.929,898.592 903.831,887.092 904.465,886.704C905.718,885.937 917.156,896.835 918.26,897.963C926.466,906.347 934.425,914.848 943.572,922.22C945.974,924.156 950.75,925.657 952.59,927.644C953.386,928.504 956.145,934.042 957.094,940.804C958.415,950.216 957.915,961.399 958.718,960.297C965.284,951.28 968.579,916.576 969.043,914.647C972.055,902.118 971.503,885.594 974.247,872.992C975.383,867.776 992.958,854.769 987.611,853.305L987.637,853.36Z"
        style="fill: rgb(56, 25, 57); fill-opacity: 0.5"
      />
      <path
        d="M1105.19,850.518C1093.37,845.645 1072.03,814.577 1074.83,815.39C1080.77,817.113 1086.4,821.25 1090.99,820.792C1104.38,819.453 1124.97,809.211 1137.97,805.018C1188.29,788.787 1240.36,777.426 1292.84,771.129C1303.79,769.814 1314.62,767.855 1325.54,766.264C1329.64,765.665 1342.02,764.511 1342.02,765.08C1342.02,767.521 1328.9,775.062 1326.63,776.319C1309.11,785.985 1291.25,794.89 1272.91,802.918C1233.31,820.256 1209.02,829.222 1164.04,843.149C1150.86,847.231 1111.71,853.203 1105.19,850.518Z"
        style="
          fill: rgb(
            var(--color_eyebrows_r, 72),
            var(--color_eyebrows_g, 46),
            var(--color_eyebrows_b, 31)
          );
        "
      />
      <clipPath id="_clip2_punk_annoyed_eyes">
        <path
          d="M1105.19,850.518C1093.37,845.645 1072.03,814.577 1074.83,815.39C1080.77,817.113 1086.4,821.25 1090.99,820.792C1104.38,819.453 1124.97,809.211 1137.97,805.018C1188.29,788.787 1240.36,777.426 1292.84,771.129C1303.79,769.814 1314.62,767.855 1325.54,766.264C1329.64,765.665 1342.02,764.511 1342.02,765.08C1342.02,767.521 1328.9,775.062 1326.63,776.319C1309.11,785.985 1291.25,794.89 1272.91,802.918C1233.31,820.256 1209.02,829.222 1164.04,843.149C1150.86,847.231 1111.71,853.203 1105.19,850.518Z"
        />
      </clipPath>
      <g clip-path="url(#_clip2_punk_annoyed_eyes)">
        <path
          d="M1077.06,817.447C1077.06,817.447 1079.45,826.893 1084.54,827.604C1089.64,828.314 1142.84,812.683 1163.7,806.082C1184.57,799.481 1208.86,793.783 1215.26,792.432C1221.65,791.081 1333.41,770.414 1333.87,770.606C1337.8,766.679 1333.01,765.599 1333.01,765.599C1333.01,765.599 1200.58,785.613 1183.56,791.318C1166.54,797.023 1100.53,817.421 1095.73,819.105C1090.93,820.789 1077.06,817.447 1077.06,817.447Z"
          style="
            fill: rgb(
              calc(var(--color_eyebrows_r, 72) + 46),
              calc(var(--color_eyebrows_g, 46) + 75),
              calc(var(--color_eyebrows_b, 31) + 16)
            );
          "
        />
        <path
          d="M1088.15,834.111C1088.15,834.111 1099.38,843.77 1123.32,840.134C1147.27,836.499 1293.56,789.763 1307.82,782.308C1304.34,789.209 1296.38,792.982 1296.38,792.982C1296.38,792.982 1175.46,842.556 1150.91,846.494C1126.37,850.433 1109.79,851.621 1106.58,850.499C1103.36,849.377 1088.77,833.2 1088.15,834.111Z"
          style="
            fill: rgb(
              calc(var(--color_eyebrows_r, 72) - 80),
              calc(var(--color_eyebrows_g, 46) - 13),
              calc(var(--color_eyebrows_b, 31) + 7)
            );
          "
        />
      </g>
      <path
        d="M1105.19,850.518C1093.37,845.645 1072.03,814.577 1074.83,815.39C1080.77,817.113 1086.4,821.25 1090.99,820.792C1104.38,819.453 1124.97,809.211 1137.97,805.018C1188.29,788.787 1240.36,777.426 1292.84,771.129C1303.79,769.814 1314.62,767.855 1325.54,766.264C1329.64,765.665 1342.02,764.511 1342.02,765.08C1342.02,767.521 1328.9,775.062 1326.63,776.319C1309.11,785.985 1291.25,794.89 1272.91,802.918C1233.31,820.256 1209.02,829.222 1164.04,843.149C1150.86,847.231 1111.71,853.203 1105.19,850.518Z"
        style="fill: none; stroke: black; stroke-width: 5.4px"
      />
      <g transform="matrix(-1,0,0,1,2048.46,0)">
        <path
          d="M1105.19,850.518C1093.37,845.645 1072.03,814.577 1074.83,815.39C1080.77,817.113 1086.4,821.25 1090.99,820.792C1104.38,819.453 1124.97,809.211 1137.97,805.018C1188.29,788.787 1240.36,777.426 1292.84,771.129C1303.79,769.814 1314.62,767.855 1325.54,766.264C1329.64,765.665 1342.02,764.511 1342.02,765.08C1342.02,767.521 1328.9,775.062 1326.63,776.319C1309.11,785.985 1291.25,794.89 1272.91,802.918C1233.31,820.256 1209.02,829.222 1164.04,843.149C1150.86,847.231 1111.71,853.203 1105.19,850.518Z"
          style="
            fill: rgb(
              var(--color_eyebrows_r, 72),
              var(--color_eyebrows_g, 46),
              var(--color_eyebrows_b, 31)
            );
          "
        />
        <clipPath id="_clip3_punk_annoyed_eyes">
          <path
            d="M1105.19,850.518C1093.37,845.645 1072.03,814.577 1074.83,815.39C1080.77,817.113 1086.4,821.25 1090.99,820.792C1104.38,819.453 1124.97,809.211 1137.97,805.018C1188.29,788.787 1240.36,777.426 1292.84,771.129C1303.79,769.814 1314.62,767.855 1325.54,766.264C1329.64,765.665 1342.02,764.511 1342.02,765.08C1342.02,767.521 1328.9,775.062 1326.63,776.319C1309.11,785.985 1291.25,794.89 1272.91,802.918C1233.31,820.256 1209.02,829.222 1164.04,843.149C1150.86,847.231 1111.71,853.203 1105.19,850.518Z"
          />
        </clipPath>
        <g clip-path="url(#_clip3_punk_annoyed_eyes)">
          <path
            d="M1077.06,817.447C1077.06,817.447 1079.45,826.893 1084.54,827.604C1089.64,828.314 1142.84,812.683 1163.7,806.082C1184.57,799.481 1208.86,793.783 1215.26,792.432C1221.65,791.081 1333.41,770.414 1333.87,770.606C1337.8,766.679 1333.01,765.599 1333.01,765.599C1333.01,765.599 1200.58,785.613 1183.56,791.318C1166.54,797.023 1100.53,817.421 1095.73,819.105C1090.93,820.789 1077.06,817.447 1077.06,817.447Z"
            style="
              fill: rgb(
                calc(var(--color_eyebrows_r, 72) + 46),
                calc(var(--color_eyebrows_g, 46) + 75),
                calc(var(--color_eyebrows_b, 31) + 16)
              );
            "
          />
          <path
            d="M1088.15,834.111C1088.15,834.111 1099.38,843.77 1123.32,840.134C1147.27,836.499 1293.56,789.763 1307.82,782.308C1304.34,789.209 1296.38,792.982 1296.38,792.982C1296.38,792.982 1175.46,842.556 1150.91,846.494C1126.37,850.433 1109.79,851.621 1106.58,850.499C1103.36,849.377 1088.77,833.2 1088.15,834.111Z"
            style="
              fill: rgb(
                calc(var(--color_eyebrows_r, 72) - 80),
                calc(var(--color_eyebrows_g, 46) - 13),
                calc(var(--color_eyebrows_b, 31) + 7)
              );
            "
          />
        </g>
        <path
          d="M1105.19,850.518C1093.37,845.645 1072.03,814.577 1074.83,815.39C1080.77,817.113 1086.4,821.25 1090.99,820.792C1104.38,819.453 1124.97,809.211 1137.97,805.018C1188.29,788.787 1240.36,777.426 1292.84,771.129C1303.79,769.814 1314.62,767.855 1325.54,766.264C1329.64,765.665 1342.02,764.511 1342.02,765.08C1342.02,767.521 1328.9,775.062 1326.63,776.319C1309.11,785.985 1291.25,794.89 1272.91,802.918C1233.31,820.256 1209.02,829.222 1164.04,843.149C1150.86,847.231 1111.71,853.203 1105.19,850.518Z"
          style="fill: none; stroke: black; stroke-width: 5.4px"
        />
      </g>
      <path
        d="M1091.03,704.139C1090.91,704.065 1090.5,705.733 1090.47,705.872C1090.16,707.04 1089.82,708.201 1089.45,709.352C1088.4,712.622 1082.7,726.131 1081.5,729.346C1077.84,739.15 1050.74,780.043 1048.11,785.282C1045.17,791.142 1045.91,820.206 1047.03,840.92C1047.44,848.58 1068.1,861.801 1070.01,863.061C1072.37,864.608 1078,866.97 1079.39,869.575"
        style="fill: none; stroke: black; stroke-width: 5.4px"
      />
      <g transform="matrix(-1,0,0,1,2048.46,0)">
        <path
          d="M1091.03,704.139C1090.91,704.065 1090.5,705.733 1090.47,705.872C1090.16,707.04 1089.82,708.201 1089.45,709.352C1088.4,712.622 1082.7,726.131 1081.5,729.346C1077.84,739.15 1050.74,780.043 1048.11,785.282C1045.17,791.142 1045.91,820.206 1047.03,840.92C1047.44,848.58 1068.1,861.801 1070.01,863.061C1072.37,864.608 1078,866.97 1079.39,869.575"
          style="fill: none; stroke: black; stroke-width: 5.4px"
        />
      </g>
    </g>
    <g id="Eyes">
      <path
        d="M1154.59,907.742C1155.27,906.896 1154.11,901.049 1154.24,899.501C1154.67,894.479 1157.51,890.515 1161.25,887.277C1173.65,876.544 1188.12,875.26 1203.39,872.554C1211.71,871.078 1219.91,868.932 1228.34,867.987C1232.9,867.474 1237.45,868.1 1242.01,867.432C1260.32,864.752 1277.49,861.308 1296.14,861.23C1311.29,861.166 1325.17,864.942 1339.85,868.292C1343.41,869.104 1346.97,869.883 1350.57,870.451C1351.25,870.557 1353.48,870.66 1353.37,871.756C1353.08,874.721 1349.56,878.268 1347.8,880.442C1341.76,887.923 1334.81,894.952 1327.42,901.09C1316.09,910.488 1301.13,922.973 1286.54,927.532C1261,935.507 1234.17,923.338 1209.07,920.057C1204.89,919.511 1200.69,919.394 1196.5,919.047C1184.19,918.03 1174.7,916.754 1163.91,912.12C1160.02,910.445 1157.38,911.316 1154.89,907.725"
        style="fill: white"
      />
      <clipPath id="_clip4_punk_annoyed_eyes">
        <path
          d="M1154.59,907.742C1155.27,906.896 1154.11,901.049 1154.24,899.501C1154.67,894.479 1157.51,890.515 1161.25,887.277C1173.65,876.544 1188.12,875.26 1203.39,872.554C1211.71,871.078 1219.91,868.932 1228.34,867.987C1232.9,867.474 1237.45,868.1 1242.01,867.432C1260.32,864.752 1277.49,861.308 1296.14,861.23C1311.29,861.166 1325.17,864.942 1339.85,868.292C1343.41,869.104 1346.97,869.883 1350.57,870.451C1351.25,870.557 1353.48,870.66 1353.37,871.756C1353.08,874.721 1349.56,878.268 1347.8,880.442C1341.76,887.923 1334.81,894.952 1327.42,901.09C1316.09,910.488 1301.13,922.973 1286.54,927.532C1261,935.507 1234.17,923.338 1209.07,920.057C1204.89,919.511 1200.69,919.394 1196.5,919.047C1184.19,918.03 1174.7,916.754 1163.91,912.12C1160.02,910.445 1157.38,911.316 1154.89,907.725"
        />
      </clipPath>
      <g clip-path="url(#_clip4_punk_annoyed_eyes)">
        <path
          d="M1157.83,892.353C1158.14,891.365 1157,894.254 1156.69,895.241C1156.47,895.915 1153.47,903.318 1154.83,903.564C1158.92,904.304 1164.54,901.676 1168.4,900.589C1177.79,897.944 1187.2,895.389 1196.6,892.846C1208.49,889.633 1220.44,886.128 1232.61,884.146C1251.75,881.028 1271.86,880.229 1291.19,879.907C1300.46,879.752 1309.45,880.423 1318.7,881.012C1322.34,881.244 1327.78,880.69 1331.29,881.79C1331.59,881.884 1331.02,883.989 1330.98,884.232C1330.42,887.003 1329.46,889.585 1328.48,892.228C1328.39,892.463 1327.45,895.075 1327.87,895.189C1329,895.491 1333.2,890.667 1333.93,890.029C1338.62,885.936 1343.75,882.267 1348.2,877.908C1349.67,876.464 1352.06,874.26 1351.64,871.933C1350.93,867.995 1343.41,866.672 1340.42,865.965C1328.74,863.208 1316.27,862.339 1304.29,861.826C1293.33,861.357 1282.2,860.84 1271.28,862.103C1262.09,863.166 1253.08,865.648 1243.94,867.116C1227.73,869.72 1211.47,872.279 1195.45,875.926C1179.91,879.466 1160.76,882.841 1153.12,898.368"
          style="fill: rgb(56, 25, 57); fill-opacity: 0.5"
        />
        <g transform="matrix(0.867214,0,0,0.867214,175.098,81.609)">
          <circle
            cx="1240.48"
            cy="904.328"
            r="54.693"
            style="
              fill: rgb(
                var(--color_eyes_r, 99),
                var(--color_eyes_g, 65),
                var(--color_eyes_b, 28)
              );
            "
          />
          <clipPath id="_clip5_punk_annoyed_eyes">
            <circle cx="1240.48" cy="904.328" r="54.693" />
          </clipPath>
          <g clip-path="url(#_clip5_punk_annoyed_eyes)">
            <g transform="matrix(1.15312,0,0,1.15312,-201.909,-94.1048)">
              <path
                d="M1210.49,888.411C1214.7,887.493 1221.6,885.315 1226.82,884.385C1234.89,882.945 1242.97,882.671 1251.1,881.862C1255.59,881.416 1260.02,880.426 1264.52,880.081C1271.66,879.534 1278.92,878.885 1286.06,878.635C1288.79,878.54 1292.19,879.503 1294.83,878.854C1295.97,878.576 1296.12,875.648 1296.29,874.813C1297.02,871.41 1301.89,864.446 1298.17,862.034C1292.44,858.322 1280.53,861.871 1274.29,862.543C1258.88,864.203 1243.27,865.287 1228.01,867.937C1224.19,868.599 1220.01,869.169 1216.13,869.284C1213.87,869.351 1206.47,870.113 1204.67,871.822C1202.99,873.422 1206.26,878.051 1206.18,880.23C1206.12,881.777 1208.16,882.851 1208.54,884.349"
                style="
                  fill: rgb(
                    calc(var(--color_eyes_r, 99) - 77),
                    calc(var(--color_eyes_g, 65) - 14),
                    calc(var(--color_eyes_b, 28) + 9)
                  );
                "
              />
            </g>
          </g>
          <circle
            cx="1240.48"
            cy="904.328"
            r="54.693"
            style="fill: none; stroke: black; stroke-width: 11.41px"
          />
        </g>
        <g transform="matrix(1.07325,0,0,1.01345,282.88,-81.8856)">
          <circle
            cx="903.513"
            cy="947.953"
            r="21.044"
            style="
              fill: rgb(
                calc(var(--color_eyes_r, 99) + 50),
                calc(var(--color_eyes_g, 65) + 81),
                calc(var(--color_eyes_b, 28) + 8)
              );
            "
          />
        </g>
        <g transform="matrix(0.986287,0,0,0.994827,361.221,-70.9862)">
          <circle cx="903.513" cy="947.953" r="21.044" />
        </g>
        <g
          transform="matrix(1.04025,-0.0577611,0.0482783,0.86947,-98.81,182.482)"
        >
          <ellipse
            cx="1284.58"
            cy="880.48"
            rx="10.022"
            ry="8.026"
            style="fill: white"
          />
        </g>
      </g>
      <g transform="matrix(-1,0,0,1,2048.46,0)">
        <path
          d="M1154.59,907.742C1155.27,906.896 1154.11,901.049 1154.24,899.501C1154.67,894.479 1157.51,890.515 1161.25,887.277C1173.65,876.544 1188.12,875.26 1203.39,872.554C1211.71,871.078 1219.91,868.932 1228.34,867.987C1232.9,867.474 1237.45,868.1 1242.01,867.432C1260.32,864.752 1277.49,861.308 1296.14,861.23C1311.29,861.166 1325.17,864.942 1339.85,868.292C1343.41,869.104 1346.97,869.883 1350.57,870.451C1351.25,870.557 1353.48,870.66 1353.37,871.756C1353.08,874.721 1349.56,878.268 1347.8,880.442C1341.76,887.923 1334.81,894.952 1327.42,901.09C1316.09,910.488 1301.13,922.973 1286.54,927.532C1261,935.507 1234.17,923.338 1209.07,920.057C1204.89,919.511 1200.69,919.394 1196.5,919.047C1184.19,918.03 1174.7,916.754 1163.91,912.12C1160.02,910.445 1157.38,911.316 1154.89,907.725"
          style="fill: white"
        />
        <clipPath id="_clip6_punk_annoyed_eyes">
          <path
            d="M1154.59,907.742C1155.27,906.896 1154.11,901.049 1154.24,899.501C1154.67,894.479 1157.51,890.515 1161.25,887.277C1173.65,876.544 1188.12,875.26 1203.39,872.554C1211.71,871.078 1219.91,868.932 1228.34,867.987C1232.9,867.474 1237.45,868.1 1242.01,867.432C1260.32,864.752 1277.49,861.308 1296.14,861.23C1311.29,861.166 1325.17,864.942 1339.85,868.292C1343.41,869.104 1346.97,869.883 1350.57,870.451C1351.25,870.557 1353.48,870.66 1353.37,871.756C1353.08,874.721 1349.56,878.268 1347.8,880.442C1341.76,887.923 1334.81,894.952 1327.42,901.09C1316.09,910.488 1301.13,922.973 1286.54,927.532C1261,935.507 1234.17,923.338 1209.07,920.057C1204.89,919.511 1200.69,919.394 1196.5,919.047C1184.19,918.03 1174.7,916.754 1163.91,912.12C1160.02,910.445 1157.38,911.316 1154.89,907.725"
          />
        </clipPath>
        <g clip-path="url(#_clip6_punk_annoyed_eyes)">
          <path
            d="M1157.83,892.353C1158.14,891.365 1157,894.254 1156.69,895.241C1156.47,895.915 1153.47,903.318 1154.83,903.564C1158.92,904.304 1164.54,901.676 1168.4,900.589C1177.79,897.944 1187.2,895.389 1196.6,892.846C1208.49,889.633 1220.44,886.128 1232.61,884.146C1251.75,881.028 1271.86,880.229 1291.19,879.907C1300.46,879.752 1309.45,880.423 1318.7,881.012C1322.34,881.244 1327.78,880.69 1331.29,881.79C1331.59,881.884 1331.02,883.989 1330.98,884.232C1330.42,887.003 1329.46,889.585 1328.48,892.228C1328.39,892.463 1327.45,895.075 1327.87,895.189C1329,895.491 1333.2,890.667 1333.93,890.029C1338.62,885.936 1343.75,882.267 1348.2,877.908C1349.67,876.464 1352.06,874.26 1351.64,871.933C1350.93,867.995 1343.41,866.672 1340.42,865.965C1328.74,863.208 1316.27,862.339 1304.29,861.826C1293.33,861.357 1282.2,860.84 1271.28,862.103C1262.09,863.166 1253.08,865.648 1243.94,867.116C1227.73,869.72 1211.47,872.279 1195.45,875.926C1179.91,879.466 1160.76,882.841 1153.12,898.368"
            style="fill: rgb(56, 25, 57); fill-opacity: 0.5"
          />
          <g transform="matrix(0.867214,0,0,0.867214,175.098,81.609)">
            <circle
              cx="1240.48"
              cy="904.328"
              r="54.693"
              style="
                fill: rgb(
                  var(--color_eyes_r, 99),
                  var(--color_eyes_g, 65),
                  var(--color_eyes_b)
                );
              "
            />
            <clipPath id="_clip7_punk_annoyed_eyes">
              <circle cx="1240.48" cy="904.328" r="54.693" />
            </clipPath>
            <g clip-path="url(#_clip7_punk_annoyed_eyes)">
              <g transform="matrix(1.15312,0,0,1.15312,-201.909,-94.1048)">
                <path
                  d="M1210.49,888.411C1214.7,887.493 1221.6,885.315 1226.82,884.385C1234.89,882.945 1242.97,882.671 1251.1,881.862C1255.59,881.416 1260.02,880.426 1264.52,880.081C1271.66,879.534 1278.92,878.885 1286.06,878.635C1288.79,878.54 1292.19,879.503 1294.83,878.854C1295.97,878.576 1296.12,875.648 1296.29,874.813C1297.02,871.41 1301.89,864.446 1298.17,862.034C1292.44,858.322 1280.53,861.871 1274.29,862.543C1258.88,864.203 1243.27,865.287 1228.01,867.937C1224.19,868.599 1220.01,869.169 1216.13,869.284C1213.87,869.351 1206.47,870.113 1204.67,871.822C1202.99,873.422 1206.26,878.051 1206.18,880.23C1206.12,881.777 1208.16,882.851 1208.54,884.349"
                  style="
                    fill: rgb(
                      calc(var(--color_eyes_r, 99) - 77),
                      calc(var(--color_eyes_g, 65) - 14),
                      calc(var(--color_eyes_b, 28) + 9)
                    );
                  "
                />
              </g>
            </g>
            <circle
              cx="1240.48"
              cy="904.328"
              r="54.693"
              style="fill: none; stroke: black; stroke-width: 6.23px"
            />
          </g>
          <g transform="matrix(1.07325,0,0,1.01345,282.88,-81.8856)">
            <circle
              cx="903.513"
              cy="947.953"
              r="21.044"
              style="
                fill: rgb(
                  calc(var(--color_eyes_r, 99) + 50),
                  calc(var(--color_eyes_g, 65) + 81),
                  calc(var(--color_eyes_b, 28) + 8)
                );
              "
            />
          </g>
          <g transform="matrix(0.986287,0,0,0.994827,361.221,-70.9862)">
            <circle cx="903.513" cy="947.953" r="21.044" />
          </g>
          <g
            transform="matrix(1.04025,-0.0577611,0.0482783,0.86947,-155.291,185.215)"
          >
            <ellipse
              cx="1284.58"
              cy="880.48"
              rx="10.022"
              ry="8.026"
              style="fill: white"
            />
          </g>
        </g>
      </g>
      <path
        d="M1083.94,895.376C1083.94,895.376 1079.17,930.396 1082.94,945.235C1086.71,960.074 1109.12,998.942 1159.05,1021.84"
        style="fill: none; stroke: black; stroke-width: 5.4px"
      />
      <g transform="matrix(-1,0,0,1,2048.46,0)">
        <path
          d="M1083.94,895.376C1083.94,895.376 1079.17,930.396 1082.94,945.235C1086.71,960.074 1109.12,998.942 1159.05,1021.84"
          style="fill: none; stroke: black; stroke-width: 5.4px"
        />
      </g>
      <path
        d="M1166.25,872.73C1166.25,872.73 1136.76,893.057 1140.64,901.439C1141.69,903.723 1152.11,895.816 1164.82,889.641C1180.71,881.918 1197.48,875.522 1201.23,874.386C1211.61,871.235 1240.15,867.427 1257.03,865.338C1273.9,863.25 1325.16,858.55 1345.96,873.448C1340.11,882.141 1321.31,900.695 1310.59,910.033C1313.62,910.323 1306.86,917.84 1312.81,913.394C1314.37,912.228 1321.42,908.602 1326.3,905.861C1346.81,894.359 1370.52,871.721 1366.96,869.554C1349.86,859.142 1331.91,853.701 1334.48,854.891C1334.84,855.06 1307.08,857.957 1306.78,857.871C1306.48,857.785 1288.13,858.95 1288.01,859.126"
      />
      <g transform="matrix(-1,0,0,1,2048.46,0)">
        <path
          d="M1166.25,872.73C1166.25,872.73 1136.76,893.057 1140.64,901.439C1141.69,903.723 1152.11,895.816 1164.82,889.641C1180.71,881.918 1197.48,875.522 1201.23,874.386C1211.61,871.235 1240.15,867.427 1257.03,865.338C1273.9,863.25 1325.16,858.55 1345.96,873.448C1340.11,882.141 1321.31,900.695 1310.59,910.033C1313.62,910.323 1306.86,917.84 1312.81,913.394C1314.37,912.228 1321.42,908.602 1326.3,905.861C1346.81,894.359 1370.52,871.721 1366.96,869.554C1349.86,859.142 1331.91,853.701 1334.48,854.891C1334.84,855.06 1307.08,857.957 1306.78,857.871C1306.48,857.785 1288.13,858.95 1288.01,859.126"
        />
      </g>
      <path
        d="M1130.57,861.297C1130.57,861.297 1153.39,881.349 1214,870.61C1285.35,857.97 1368.87,852.308 1376.78,846.78C1380.89,843.909 1366.52,833.501 1346.62,819.455"
        style="fill: none; stroke: black; stroke-width: 5.4px"
      />
      <path
        d="M1172.91,915.813C1172.91,915.813 1217.95,920.881 1237.12,925.216C1257.73,929.877 1282.22,940.418 1316.74,906.99"
        style="fill: none; stroke: black; stroke-width: 5.4px"
      />
      <path
        d="M1228.35,933.796C1228.35,933.796 1272.2,946.328 1288.82,940.191C1306.41,933.696 1327.72,907.835 1339.49,893.116"
        style="fill: none; stroke: black; stroke-width: 5.4px"
      />
      <g transform="matrix(-1,0,0,1,2048.46,0)">
        <path
          d="M1130.57,861.297C1130.57,861.297 1153.39,881.349 1214,870.61C1285.35,857.97 1367.65,852.468 1375.56,846.94C1379.67,844.069 1371.63,837.431 1351.98,817.416"
          style="fill: none; stroke: black; stroke-width: 5.4px"
        />
      </g>
      <g transform="matrix(-1,0,0,1,2048.46,0)">
        <path
          d="M1172.91,915.813C1172.91,915.813 1217.95,920.881 1237.12,925.216C1257.73,929.877 1282.22,940.418 1316.74,906.99"
          style="fill: none; stroke: black; stroke-width: 5.4px"
        />
      </g>
      <g transform="matrix(-1,0,0,1,2048.46,0)">
        <path
          d="M1228.35,933.796C1228.35,933.796 1272.2,946.328 1288.82,940.191C1306.41,933.696 1327.72,907.835 1339.49,893.116"
          style="fill: none; stroke: black; stroke-width: 5.4px"
        />
      </g>
    </g>
  </g>
</svg>
