<svg width="100%" height="100%" viewBox="0 0 800 800" version="1.1" xmlns="http://www.w3.org/2000/svg">
    <g id="Punk-emotions" transform="matrix(0.388951,0,0,0.388951,2.34032,2.21244)">
        <g id="embarrased">
            <g id="Eyes">
                <path d="M1087.97,924.836C1087.97,924.836 1045.01,857.772 1098.29,760.996" style="fill:none;stroke:black;stroke-width:5.4px;"/>
                <g transform="matrix(-1,0,0,1,2041.47,0)">
                    <path d="M1087.97,924.836C1087.97,924.836 1045.01,857.772 1098.29,760.996" style="fill:none;stroke:black;stroke-width:5.4px;"/>
                </g>
                <path d="M1147.72,826.057C1165.64,810.688 1223.6,773.674 1296.88,806.32" style="fill:none;stroke:black;stroke-width:5.4px;"/>
                <g transform="matrix(-1,0,0,1,2041.47,0)">
                    <path d="M1147.72,826.057C1165.64,810.688 1223.6,773.674 1296.88,806.32" style="fill:none;stroke:black;stroke-width:5.4px;"/>
                </g>
                <path d="M1177.85,922.804C1177.66,922.456 1191.22,908.263 1242.9,907.99" style="fill:none;stroke:black;stroke-width:5.4px;"/>
                <g transform="matrix(-1,0,0,1,2041.47,0)">
                    <path d="M1177.85,922.804C1177.66,922.456 1191.22,908.263 1242.9,907.99" style="fill:none;stroke:black;stroke-width:5.4px;"/>
                </g>
                <path d="M1131.68,896.908C1131.68,896.908 1167.94,868.15 1200.11,856.861C1235.91,844.295 1261.19,839.999 1296.48,852.957C1308.54,857.384 1342.09,876.641 1342.75,899.729C1335.68,908.299 1334.01,909.627 1330.73,908.278C1318.05,903.072 1293.87,877.305 1260.43,876.395C1216.22,875.191 1169.47,895.563 1154.53,903.629C1148.38,906.951 1146.14,909.102 1137.77,914.28C1135.03,915.973 1132.96,910.918 1134.43,909.582C1148.46,896.856 1151.49,894.399 1151.49,894.399C1151.49,894.399 1141.65,898.677 1136.58,900.694C1128.87,903.758 1132.85,895.476 1131.68,896.908Z"/>
                <g transform="matrix(-1,0,0,1,2041.47,0)">
                    <path d="M1131.68,896.908C1131.68,896.908 1167.94,868.15 1200.11,856.861C1235.91,844.295 1261.19,839.999 1296.48,852.957C1308.54,857.384 1342.09,876.641 1342.75,899.729C1335.68,908.299 1334.01,909.627 1330.73,908.278C1318.05,903.072 1293.87,877.305 1260.43,876.395C1216.22,875.191 1169.47,895.563 1154.53,903.629C1148.38,906.951 1146.14,909.102 1137.77,914.28C1135.03,915.973 1132.96,910.918 1134.43,909.582C1148.46,896.856 1151.49,894.399 1151.49,894.399C1151.49,894.399 1141.65,898.677 1136.58,900.694C1128.87,903.758 1132.85,895.476 1131.68,896.908Z"/>
                </g>
            </g>
            <g id="Eyebrows">
                <path d="M1124.97,677.924C1124.97,677.924 1103.03,645.747 1132.61,630.135C1145.14,629.431 1165.25,628.277 1179.39,629.853C1193.53,631.43 1307.26,647.366 1342.36,740.226C1319.89,719.328 1293.39,704.387 1220.93,687.327C1189.21,679.858 1173.74,681.066 1124.97,677.924Z" style="fill:rgb(var(--color_eyebrows_r, 72), var(--color_eyebrows_g, 46), var(--color_eyebrows_b, 31));"/>
                <clipPath id="_clip2_punk_embarassed_eyes">
                    <path d="M1124.97,677.924C1124.97,677.924 1103.03,645.747 1132.61,630.135C1145.14,629.431 1165.25,628.277 1179.39,629.853C1193.53,631.43 1307.26,647.366 1342.36,740.226C1319.89,719.328 1293.39,704.387 1220.93,687.327C1189.21,679.858 1173.74,681.066 1124.97,677.924Z"/>
                </clipPath>
                <g clip-path="url(#_clip2_punk_embarassed_eyes)">
                    <path d="M1119.09,642.64C1119.09,642.64 1150.93,633.999 1201.62,645.275C1264.58,659.283 1306.56,688.24 1303.88,685.298C1285.26,664.903 1273.09,660.976 1273.09,660.976C1273.09,660.976 1180.48,614.132 1128.14,633.522C1122.79,635.503 1121.15,638.931 1119.09,642.64Z" style="fill:rgb(calc(var(--color_eyebrows_r, 72) + 46 ),calc(var(--color_eyebrows_g, 46) + 75 ), calc(var(--color_eyebrows_b,31) + 16));"/>
                    <path d="M1118.48,660.055C1118.65,659.613 1189.31,663.432 1223.2,674.2C1254.87,684.258 1301.33,696.054 1320.94,722.978C1294.71,714.431 1320.68,717.533 1280.55,705.927C1240.41,694.32 1240.08,690.046 1212.73,686.813C1185.38,683.581 1160.19,680.75 1144.12,679.82C1128.06,678.89 1124.31,676.226 1124.31,676.226C1124.31,676.226 1117.18,663.354 1118.48,660.055Z" style="fill:rgb(calc(var(--color_eyebrows_r, 72) - 80 ),calc(var(--color_eyebrows_g, 46) - 13 ), calc(var(--color_eyebrows_b,31) + 7));"/>
                </g>
                <path d="M1124.97,677.924C1124.97,677.924 1103.03,645.747 1132.61,630.135C1145.14,629.431 1165.25,628.277 1179.39,629.853C1193.53,631.43 1307.26,647.366 1342.36,740.226C1319.89,719.328 1293.39,704.387 1220.93,687.327C1189.21,679.858 1173.74,681.066 1124.97,677.924Z" style="fill:none;stroke:black;stroke-width:5.4px;"/>
                <g transform="matrix(-1,0,0,1,2041.47,0)">
                    <path d="M1124.97,677.924C1124.97,677.924 1103.03,645.747 1132.61,630.135C1145.14,629.431 1165.25,628.277 1179.39,629.853C1193.53,631.43 1307.26,647.366 1342.36,740.226C1319.89,719.328 1293.39,704.387 1220.93,687.327C1189.21,679.858 1173.74,681.066 1124.97,677.924Z" style="fill:rgb(var(--color_eyebrows_r, 72), var(--color_eyebrows_g, 46), var(--color_eyebrows_b, 31));"/>
                    <clipPath id="_clip3_punk_embarassed_eyes">
                        <path d="M1124.97,677.924C1124.97,677.924 1103.03,645.747 1132.61,630.135C1145.14,629.431 1165.25,628.277 1179.39,629.853C1193.53,631.43 1307.26,647.366 1342.36,740.226C1319.89,719.328 1293.39,704.387 1220.93,687.327C1189.21,679.858 1173.74,681.066 1124.97,677.924Z"/>
                    </clipPath>
                    <g clip-path="url(#_clip3_punk_embarassed_eyes)">
                        <path d="M1119.09,642.64C1119.09,642.64 1150.93,633.999 1201.62,645.275C1264.58,659.283 1306.56,688.24 1303.88,685.298C1285.26,664.903 1273.09,660.976 1273.09,660.976C1273.09,660.976 1180.48,614.132 1128.14,633.522C1122.79,635.503 1121.15,638.931 1119.09,642.64Z" style="fill:rgb(calc(var(--color_eyebrows_r, 72) + 46 ),calc(var(--color_eyebrows_g, 46) + 75 ), calc(var(--color_eyebrows_b,31) + 16));"/>
                        <path d="M1118.48,660.055C1118.65,659.613 1189.31,663.432 1223.2,674.2C1254.87,684.258 1301.33,696.054 1320.94,722.978C1294.71,714.431 1320.68,717.533 1280.55,705.927C1240.41,694.32 1240.08,690.046 1212.73,686.813C1185.38,683.581 1160.19,680.75 1144.12,679.82C1128.06,678.89 1124.31,676.226 1124.31,676.226C1124.31,676.226 1117.18,663.354 1118.48,660.055Z" style="fill:rgb(calc(var(--color_eyebrows_r, 72) - 80 ),calc(var(--color_eyebrows_g, 46) - 13 ), calc(var(--color_eyebrows_b,31) + 7));"/>
                    </g>
                    <path d="M1124.97,677.924C1124.97,677.924 1103.03,645.747 1132.61,630.135C1145.14,629.431 1165.25,628.277 1179.39,629.853C1193.53,631.43 1307.26,647.366 1342.36,740.226C1319.89,719.328 1293.39,704.387 1220.93,687.327C1189.21,679.858 1173.74,681.066 1124.97,677.924Z" style="fill:none;stroke:black;stroke-width:5.18px;"/>
                </g>
            </g>
        </g>
    </g>
</svg>
