<svg width="100%" height="100%" viewBox="0 0 800 800" version="1.1" xmlns="http://www.w3.org/2000/svg" style="fill-rule:evenodd;clip-rule:evenodd;stroke-linecap:round;stroke-linejoin:round;stroke-miterlimit:1.5;">
    <g id="accessories-back" >
        <g id="robe-head-cover-back" >
            <path d="M176.014,869.676C176.014,869.676 107.684,713.757 128.982,636.437C150.28,559.116 169.129,449.592 183.68,380.989C198.231,312.387 223.473,213.761 257.931,176.326C292.389,138.892 394.494,76.229 476.832,125.433C559.17,174.637 579.379,239.97 609.379,402.159C639.379,564.347 668.415,728.452 657.224,784.148C645.73,841.346 604.893,875.418 604.893,875.418L176.014,869.676Z" style="fill:rgb(42,29,49);"/>
        </g>
        <g id="robe-shirt-back" transform="matrix(0.993959,0,0,0.993959,2.27596,4.40887)">
            <path d="M308.677,808.527C302.16,792.342 289.111,776.845 279.981,762.163C257.127,725.413 233.02,688.428 220.076,646.759C215.087,630.697 212.188,613.983 213.122,597.128C213.759,585.648 215.386,573.935 219.659,563.262C245.443,498.857 340.273,488.153 398.977,490.596C442.55,492.41 522.286,487.273 559.122,536.902C563.101,542.262 564.668,549.097 566.472,555.509C569.536,566.399 570.917,577.416 571.089,588.719C571.336,604.898 569.556,621.043 566.041,636.828C554.894,686.89 527.716,732.053 506.239,778.16C496.657,798.732 473.147,878.395 456.505,894.447C429.491,920.506 388.837,907.144 353.43,907.658L308.677,808.527Z" style="fill:rgb(54,30,66);"/>
            <path d="M306.729,809.312C306.74,809.338 306.751,809.365 306.763,809.391L351.516,908.522C351.861,909.284 352.624,909.77 353.461,909.757C371.154,909.501 390.157,912.713 408.113,912.732C426.632,912.751 444.04,909.389 457.963,895.959C463.08,891.023 468.891,880.255 474.7,866.98C487.916,836.773 501.439,793.44 508.143,779.047C529.683,732.804 556.91,687.494 568.091,637.284C571.642,621.34 573.438,605.03 573.189,588.687C573.014,577.202 571.607,566.007 568.493,554.94C566.621,548.286 564.938,541.214 560.808,535.65C545.785,515.41 523.792,504.056 499.931,497.657C464.667,488.199 425.328,489.591 399.064,488.498C363.573,487.021 314.983,490.344 276.173,507.231C249.977,518.63 228.232,536.198 217.71,562.481C213.352,573.365 211.675,585.305 211.026,597.012C210.077,614.117 213.007,631.082 218.071,647.382C231.068,689.222 255.25,726.371 278.198,763.272C287.267,777.856 300.256,793.234 306.729,809.312ZM308.677,808.527C302.16,792.342 289.111,776.845 279.981,762.163C257.127,725.413 233.02,688.428 220.076,646.759C215.087,630.697 212.188,613.983 213.122,597.128C213.759,585.648 215.386,573.935 219.659,563.262C245.443,498.857 340.273,488.153 398.977,490.596C442.55,492.41 522.286,487.273 559.122,536.902C563.101,542.262 564.668,549.097 566.472,555.509C569.536,566.399 570.917,577.416 571.089,588.719C571.336,604.898 569.556,621.043 566.041,636.828C554.894,686.89 527.716,732.053 506.239,778.16C496.657,798.732 473.147,878.395 456.505,894.447C429.491,920.506 388.837,907.144 353.43,907.658L308.677,808.527Z"/>
        </g>
    </g>
    <g id="accessories-front">
        <g id="robe-shirt-front" transform="matrix(1.19036,0,0,1.19036,-76.6857,-227.193)">
            <g id="shadow" transform="matrix(0.835003,0,0,0.835003,66.334,194.563)">
                <path d="M276.571,507.948C277.879,507.549 266.485,543.072 265.819,551.06C263.739,576.026 262.985,627.431 309.829,717.54C313.076,723.786 317.198,742.801 318.641,755.812C321.067,777.695 326.377,846.964 324.389,848.842C320.257,852.744 301.14,823.213 300.127,762.759C299.757,740.723 269.015,714.937 257.69,696.118C227.133,645.34 215.232,567.784 259.632,520.054L276.571,507.948ZM524.134,507.948C522.826,507.549 534.22,543.072 534.885,551.06C536.966,576.026 537.72,627.431 490.875,717.54C487.628,723.786 483.507,742.801 482.064,755.812C479.637,777.695 474.327,846.964 476.316,848.842C480.447,852.744 499.564,823.213 500.578,762.759C500.947,740.723 531.69,714.937 543.015,696.118C573.572,645.34 585.473,567.784 541.073,520.054L524.134,507.948Z" style="fill:rgb(56,25,57);fill-opacity:0.5;"/>
            </g>
            <g transform="matrix(1,0,0,1,1.16026,0)">
                <path d="M295.311,618.838C295.311,618.838 271.056,618.138 260.529,624.275C250.002,630.412 239.26,640.62 239.26,640.62C239.26,640.62 227.179,646.652 222.225,648.318C217.27,649.984 203.192,667.078 203.192,667.078C203.192,667.078 187.377,670.568 181.571,673.436C175.765,676.304 172.315,685.31 172.315,685.31C172.315,685.31 126.611,694.467 123.313,708.595C122.007,714.192 119.368,719.944 109.717,723.328C100.749,726.472 89.799,723.549 88.285,734.897C87.241,742.724 62.508,746.074 38.356,751.626C29.883,753.574 25.542,756.937 16.443,769.215C-8.562,802.955 -35.362,895.473 -35.362,895.473L364.035,896.311C364.035,896.311 372.541,849.035 304.395,761.999C300.161,756.591 277.82,725.752 275.203,716.797C272.586,707.841 267.518,696.452 272.99,667.288C278.461,638.124 295.311,618.838 295.311,618.838Z" style="fill:rgb(97,69,109);"/>
                <clipPath id="_clip1_magic_cap">
                    <path d="M295.311,618.838C295.311,618.838 271.056,618.138 260.529,624.275C250.002,630.412 239.26,640.62 239.26,640.62C239.26,640.62 227.179,646.652 222.225,648.318C217.27,649.984 203.192,667.078 203.192,667.078C203.192,667.078 187.377,670.568 181.571,673.436C175.765,676.304 172.315,685.31 172.315,685.31C172.315,685.31 126.611,694.467 123.313,708.595C122.007,714.192 119.368,719.944 109.717,723.328C100.749,726.472 89.799,723.549 88.285,734.897C87.241,742.724 62.508,746.074 38.356,751.626C29.883,753.574 25.542,756.937 16.443,769.215C-8.562,802.955 -35.362,895.473 -35.362,895.473L364.035,896.311C364.035,896.311 372.541,849.035 304.395,761.999C300.161,756.591 277.82,725.752 275.203,716.797C272.586,707.841 267.518,696.452 272.99,667.288C278.461,638.124 295.311,618.838 295.311,618.838Z"/>
                </clipPath>
                <g clip-path="url(#_clip1_magic_cap)">
                    <g transform="matrix(-0.834408,0,0,0.834408,732.403,189.091)">
                        <path d="M696.785,613.776C695.972,612.582 699.207,615.353 700.402,616.164C702.864,617.834 705.326,619.505 707.774,621.194C714.939,626.137 723.832,636.381 724.519,645.279C724.745,648.212 745.088,643.902 756.894,652.302C761.566,655.626 763.17,655.103 763.624,665.09C763.975,672.778 782.197,667.042 789.567,670.275C796.345,673.249 795.7,675.43 793.462,690.977C793.2,692.795 818.545,680.606 825.2,690.095C825.573,690.627 828.47,693.57 824.637,715.254C824.479,716.144 828.923,718.094 835.632,712.287C842.738,706.135 855.09,702.156 854.01,717.708C853.883,719.543 856.022,720.648 858.462,732.222C861.782,747.973 882.675,783.698 887.147,828.1C890.617,862.55 930.141,860.467 933.268,825.853C936.086,794.647 879.794,696.405 880.005,696.338C892.801,692.277 817.744,667.555 811.102,658.87C795.345,638.269 751.675,606.147 727.876,594.16C713.203,586.77 518.805,491.457 520.456,514.305C525.577,516.559 542.317,517.118 558.143,525.57C567.397,530.513 583.621,552.769 585.723,568.824C586.05,571.327 606.339,551.393 612.033,560.041C616.598,566.974 623.005,568.479 625.363,592.315C625.773,596.457 659.326,583.565 667.618,604.699L696.785,613.776Z" style="fill:rgb(214,152,193);"/>
                    </g>
                    <g transform="matrix(0.835003,0,0,0.835003,65.1738,194.563)">
                        <path d="M317.479,811.77C317.54,811.875 316.502,810.35 316.291,809.845C315.61,808.222 314.95,806.591 314.306,804.953C312.322,799.904 310.482,794.799 308.47,789.76C302.047,773.671 295.39,757.651 288.673,741.683C286.487,736.486 284.23,731.319 282.055,726.118C281.86,725.652 278.87,717.862 279.508,717.934C281.479,718.158 283.734,722.528 284.721,723.868C289.595,730.487 294.359,737.186 298.975,743.988C316.184,769.349 330.408,796.051 342.141,824.361C344.815,830.813 347.44,837.291 349.852,843.847C349.995,844.236 352.331,849.81 351.983,849.974C350.703,850.576 342.103,840.95 341.165,840.082L317.479,811.77ZM181.567,682.132L181.426,681.799L181.706,682.441C183.101,685.654 184.437,688.88 185.697,692.12C187.707,697.289 189.338,702.613 190.752,707.973C190.841,708.313 192.021,712.993 191.917,713.014C191.482,713.101 189.357,707.2 189.191,706.809C186.296,699.988 184.504,689.186 181.567,682.132ZM248.738,674.098C249.605,678.604 251.587,683.007 252.573,687.528C254.626,696.942 255.859,706.54 257.278,716.062C257.803,719.579 289.29,853.591 292.329,855.979C294.799,857.92 299.367,855.761 302.069,855.346C302.709,855.247 315.798,863.589 315.658,862.467C314.956,856.85 268.479,717.611 266.505,712.324C261.907,700.004 257.689,687.397 251.106,675.986L248.738,674.098ZM165.009,608.223L165.209,611.804C165.872,613.307 166.885,615.398 168.154,617.911C166.938,614.736 165.883,611.496 165.009,608.223ZM204.715,524.392C204.597,531.7 202.632,538.517 203.671,545.958C204.849,554.407 207.11,562.784 210.579,570.589C210.843,571.181 213.3,577.576 214.124,577.37C214.9,577.176 214.359,569.135 214.371,568.461C214.534,559.252 215.61,549.903 218.23,541.05C220.808,532.339 225.265,524.14 230.646,516.847C231.165,516.145 236.312,510.391 235.697,509.571C235.133,508.819 230.974,511.059 230.444,511.309C224.762,513.991 219.408,517.327 214.034,520.564L204.715,524.392ZM180.465,679.621C172.495,661.73 162.831,644.201 154.4,626.728C148.754,615.027 148.154,607.313 153.289,594.425C155.235,589.542 159.353,600.489 163.138,596.893C164.008,596.067 163.119,589.695 169.459,590.129C174.47,590.472 181.764,608.171 184.642,613.468C186.392,616.689 188.304,619.839 190.466,622.802C190.878,623.367 191.892,625.457 192.603,625.67C192.621,625.675 192.19,623.881 192.148,623.743C191.786,622.557 191.406,621.377 191.051,620.189C189.92,616.403 188.868,612.58 188.045,608.714C185.025,594.528 185.513,579.986 186.194,565.579C186.356,562.143 190.683,559.897 191.033,560.736C194.393,568.799 199.689,575.962 203.886,583.592C214.239,602.416 224.878,622.121 231.71,642.528C237.315,659.268 240.101,677.099 244.411,694.212C247.186,705.226 282.407,834.867 285.069,845.908C285.599,848.107 288.642,855.238 285.76,856.87C282.608,858.655 277.309,855.368 274.343,854.368C271.933,853.556 267.205,853.316 265.285,851.465C262.912,849.177 230.121,724.126 229.186,721.144C226.343,712.076 223.034,703.194 219.281,694.461C215.52,685.71 211.007,676.923 205.134,669.384C197.23,659.238 187.57,650.54 180.048,640.084C179.87,639.836 179.693,639.586 179.516,639.335C187.082,653.205 195.319,667.775 198.67,673.191C207.17,686.93 215.881,711.397 218.301,727.245C219.411,734.516 241.381,852.799 233.403,858.118C225.281,863.533 207.463,860.794 198.414,861.202C187.441,861.698 176.476,862.261 165.491,862.374C147.322,862.563 129.165,862.678 111.022,863.759C74.627,865.927 39.046,874.695 2.809,876.873C-9.162,877.592 -33.926,880.452 -34.612,865.81C-37.916,795.293 -62.624,706.184 -36.11,761.656C-34.61,764.794 -45.45,715.959 -45.229,713.526C-44.702,707.729 -31.737,716.841 -24.12,725.241C-22.647,726.865 -16.613,734.704 -13.6,732.875C-11.253,731.45 -12.933,725.85 -13.358,723.915C-15.273,715.191 -8.108,714.443 -10.892,705.952C-11.09,705.349 -14.573,695.825 -14.042,695.674C-13.006,695.377 -9.909,700.416 -9.449,701.022C-4.691,707.272 -0.027,713.602 4.646,719.915C5.096,720.523 9.286,726.818 10.346,726.076C11.569,725.22 7.91,718.371 7.526,717.49C4.207,709.887 0.078,702.743 -3.91,695.483C-4.461,694.481 -7.549,689.636 -6.233,688.472C-5.038,687.415 0.502,691.705 1.416,692.289C7.557,696.218 14.863,697.609 20.233,702.532C28.017,709.667 40.449,717.34 35.441,710.34C8.041,672.041 19.419,666.8 26.793,669.473C35.724,672.71 42.308,694.965 45.31,694.006C64.095,688.005 47.914,654.406 61.659,655.66C78.101,657.16 78.609,691.228 82.092,685.737C83.511,683.501 75.776,639.57 78.95,639.343C82.406,639.097 86.444,644.91 88.327,647.094C96.368,656.423 103.377,666.626 109.418,677.351C110.214,678.764 115.559,690.991 117.829,690.457C118.043,690.406 118.165,690.186 118.232,689.995C120.061,684.783 117.825,675.811 117.909,670.303C117.992,664.89 109.882,630.169 109.71,624.903C109.667,623.564 121.26,643.565 122.389,638.175C123.903,630.948 125.466,623.708 126.488,616.259C126.664,614.978 127.071,600.135 128.774,600.135C129.894,600.135 136.24,616.057 139.111,621.036C143.372,628.427 149.543,633.927 154.503,640.787C164.815,655.048 174.025,665.241 181.231,681.353L180.849,680.487L180.465,679.621Z" style="fill:rgb(54,30,66);"/>
                    </g>
                    <path d="M21.274,749.989C21.084,749.91 21.197,749.904 21.39,750.283C23.289,754.018 25.482,757.436 27.94,760.836C32.828,767.598 37.562,774.461 41.935,781.57C55.428,803.506 65.841,826.753 73.11,851.466" style="fill:none;stroke:black;stroke-width:2.1px;"/>
                    <path d="M203.07,666.978C202.913,668.278 201.542,674.646 201.428,675.95C201.082,679.931 200.866,683.916 201.016,687.913C201.436,699.133 205.022,710.27 210.136,720.202C218.347,736.151 232.332,746.725 242.144,761.359C252.894,777.393 258.44,797.067 264.484,815.196" style="fill:none;stroke:black;stroke-width:2.1px;"/>
                    <g transform="matrix(-0.834408,0,0,0.834408,732.403,189.091)">
                        <path d="M771.889,675.155C771.809,674.866 776.608,675.381 777.083,675.508C782.141,676.854 782.081,682.208 781.416,686.652C779.787,697.541 769.108,709.056 763.069,717.85C741.297,749.553 716.886,778.939 692.296,808.472" style="fill:none;stroke:black;stroke-width:2.1px;"/>
                    </g>
                    <path d="M173.234,684.583C173.39,685.484 175.738,691.945 175.937,692.837C176.493,695.331 177.278,697.761 178.176,700.151C180.977,707.602 184.672,714.72 189.069,721.351C194.325,729.279 200.801,736.323 205.84,744.401C214.233,757.854 220.242,772.9 224.59,788.118" style="fill:none;stroke:black;stroke-width:2.1px;"/>
                </g>
                <path d="M295.311,618.838C295.311,618.838 271.056,618.138 260.529,624.275C250.002,630.412 239.26,640.62 239.26,640.62C239.26,640.62 227.179,646.652 222.225,648.318C217.27,649.984 203.192,667.078 203.192,667.078C203.192,667.078 187.377,670.568 181.571,673.436C175.765,676.304 172.315,685.31 172.315,685.31C172.315,685.31 126.611,694.467 123.313,708.595C122.007,714.192 119.368,719.944 109.717,723.328C100.749,726.472 89.799,723.549 88.285,734.897C87.241,742.724 62.508,746.074 38.356,751.626C29.883,753.574 25.542,756.937 16.443,769.215C-8.562,802.955 -35.362,895.473 -35.362,895.473L364.035,896.311C364.035,896.311 372.541,849.035 304.395,761.999C300.161,756.591 277.82,725.752 275.203,716.797C272.586,707.841 267.518,696.452 272.99,667.288C278.461,638.124 295.311,618.838 295.311,618.838Z" style="fill:none;stroke:black;stroke-width:2.1px;"/>
            </g>
            <g transform="matrix(-1,0,0,1,800.099,0)">
                <path d="M295.311,618.838C295.311,618.838 271.056,618.138 260.529,624.275C250.002,630.412 239.26,640.62 239.26,640.62C239.26,640.62 227.179,646.652 222.225,648.318C217.27,649.984 203.192,667.078 203.192,667.078C203.192,667.078 187.377,670.568 181.571,673.436C175.765,676.304 172.315,685.31 172.315,685.31C172.315,685.31 126.611,694.467 123.313,708.595C122.007,714.192 119.368,719.944 109.717,723.328C100.749,726.472 89.799,723.549 88.285,734.897C87.241,742.724 62.508,746.074 38.356,751.626C29.883,753.574 24.046,755.959 16.443,769.215C-10.181,815.632 -36.206,901.347 -36.206,901.347L364.035,896.311C364.035,896.311 372.541,849.035 304.395,761.999C300.161,756.591 277.82,725.752 275.203,716.797C272.586,707.841 267.518,696.452 272.99,667.288C278.461,638.124 295.311,618.838 295.311,618.838Z" style="fill:rgb(97,69,109);"/>
                <clipPath id="_clip2_magic_cap">
                    <path d="M295.311,618.838C295.311,618.838 271.056,618.138 260.529,624.275C250.002,630.412 239.26,640.62 239.26,640.62C239.26,640.62 227.179,646.652 222.225,648.318C217.27,649.984 203.192,667.078 203.192,667.078C203.192,667.078 187.377,670.568 181.571,673.436C175.765,676.304 172.315,685.31 172.315,685.31C172.315,685.31 126.611,694.467 123.313,708.595C122.007,714.192 119.368,719.944 109.717,723.328C100.749,726.472 89.799,723.549 88.285,734.897C87.241,742.724 62.508,746.074 38.356,751.626C29.883,753.574 24.046,755.959 16.443,769.215C-10.181,815.632 -36.206,901.347 -36.206,901.347L364.035,896.311C364.035,896.311 372.541,849.035 304.395,761.999C300.161,756.591 277.82,725.752 275.203,716.797C272.586,707.841 267.518,696.452 272.99,667.288C278.461,638.124 295.311,618.838 295.311,618.838Z"/>
                </clipPath>
                <g clip-path="url(#_clip2_magic_cap)">
                    <g transform="matrix(-0.834408,0,0,0.834408,732.403,189.091)">
                        <path d="M696.785,613.776C695.972,612.582 699.207,615.353 700.402,616.164C702.864,617.834 705.326,619.505 707.774,621.194C714.939,626.137 723.832,636.381 724.519,645.279C724.745,648.212 745.088,643.902 756.894,652.302C761.566,655.626 763.17,655.103 763.624,665.09C763.975,672.778 782.197,667.042 789.567,670.275C796.345,673.249 795.7,675.43 793.462,690.977C793.2,692.795 818.545,680.606 825.2,690.095C825.573,690.627 828.47,693.57 824.637,715.254C824.479,716.144 828.923,718.094 835.632,712.287C842.738,706.135 855.09,702.156 854.01,717.708C853.883,719.543 856.022,720.648 858.462,732.222C861.782,747.973 880.484,786.012 886.949,830.168C889.694,848.913 914.022,859.723 917.148,825.11C919.967,793.903 879.794,696.405 880.005,696.338C892.801,692.277 817.744,667.555 811.102,658.87C795.345,638.269 751.675,606.147 727.876,594.16C713.203,586.77 518.805,491.457 520.456,514.305C525.577,516.559 542.317,517.118 558.143,525.57C567.397,530.513 583.621,552.769 585.723,568.824C586.05,571.327 606.339,551.393 612.033,560.041C616.598,566.974 623.005,568.479 625.363,592.315C625.773,596.457 659.326,583.565 667.618,604.699L696.785,613.776Z" style="fill:rgb(214,152,193);"/>
                    </g>
                    <g transform="matrix(0.835003,0,0,0.835003,65.1738,194.563)">
                        <path d="M317.479,811.77C317.54,811.875 316.502,810.35 316.291,809.845C315.61,808.222 314.95,806.591 314.306,804.953C312.322,799.904 310.482,794.799 308.47,789.76C302.047,773.671 295.39,757.651 288.673,741.683C286.487,736.486 284.23,731.319 282.055,726.118C281.86,725.652 278.87,717.862 279.508,717.934C281.479,718.158 283.734,722.528 284.721,723.868C289.595,730.487 294.359,737.186 298.975,743.988C316.184,769.349 330.408,796.051 342.141,824.361C344.815,830.813 347.44,837.291 349.852,843.847C349.995,844.236 352.331,849.81 351.983,849.974C350.703,850.576 342.103,840.95 341.165,840.082L317.479,811.77ZM181.567,682.132L181.426,681.799L181.706,682.441C183.101,685.654 184.437,688.88 185.697,692.12C187.707,697.289 189.338,702.613 190.752,707.973C190.841,708.313 192.021,712.993 191.917,713.014C191.482,713.101 189.357,707.2 189.191,706.809C186.296,699.988 184.504,689.186 181.567,682.132ZM248.738,674.098C249.605,678.604 251.587,683.007 252.573,687.528C254.626,696.942 255.859,706.54 257.278,716.062C257.803,719.579 289.29,853.591 292.329,855.979C294.799,857.92 299.367,855.761 302.069,855.346C302.709,855.247 315.798,863.589 315.658,862.467C314.956,856.85 268.479,717.611 266.505,712.324C261.907,700.004 257.689,687.397 251.106,675.986L248.738,674.098ZM165.009,608.223L165.209,611.804C165.872,613.307 166.885,615.398 168.154,617.911C166.938,614.736 165.883,611.496 165.009,608.223ZM204.715,524.392C204.597,531.7 202.632,538.517 203.671,545.958C204.849,554.407 207.11,562.784 210.579,570.589C210.843,571.181 213.3,577.576 214.124,577.37C214.9,577.176 214.359,569.135 214.371,568.461C214.534,559.252 215.61,549.903 218.23,541.05C220.808,532.339 225.265,524.14 230.646,516.847C231.165,516.145 236.312,510.391 235.697,509.571C235.133,508.819 230.974,511.059 230.444,511.309C224.762,513.991 219.408,517.327 214.034,520.564L204.715,524.392ZM180.465,679.621C172.495,661.73 162.831,644.201 154.4,626.728C148.754,615.027 148.154,607.313 153.289,594.425C155.235,589.542 159.353,600.489 163.138,596.893C164.008,596.067 163.119,589.695 169.459,590.129C174.47,590.472 181.764,608.171 184.642,613.468C186.392,616.689 188.304,619.839 190.466,622.802C190.878,623.367 191.892,625.457 192.603,625.67C192.621,625.675 192.19,623.881 192.148,623.743C191.786,622.557 191.406,621.377 191.051,620.189C189.92,616.403 188.868,612.58 188.045,608.714C185.025,594.528 185.513,579.986 186.194,565.579C186.356,562.143 190.683,559.897 191.033,560.736C194.393,568.799 199.689,575.962 203.886,583.592C214.239,602.416 224.878,622.121 231.71,642.528C237.315,659.268 240.101,677.099 244.411,694.212C247.186,705.226 282.407,834.867 285.069,845.908C285.599,848.107 288.642,855.238 285.76,856.87C282.608,858.655 277.309,855.368 274.343,854.368C271.933,853.556 267.205,853.316 265.285,851.465C262.912,849.177 230.121,724.126 229.186,721.144C226.343,712.076 223.034,703.194 219.281,694.461C215.52,685.71 211.007,676.923 205.134,669.384C197.23,659.238 187.57,650.54 180.048,640.084C179.87,639.836 179.693,639.586 179.516,639.335C187.082,653.205 195.319,667.775 198.67,673.191C207.17,686.93 215.881,711.397 218.301,727.245C219.411,734.516 241.381,852.799 233.403,858.118C225.281,863.533 207.463,860.794 198.414,861.202C187.441,861.698 176.476,862.261 165.491,862.374C147.322,862.563 129.165,862.678 111.022,863.759C74.627,865.927 39.046,874.695 2.809,876.873C-9.162,877.592 -33.926,880.452 -34.612,865.81C-37.916,795.293 -62.624,706.184 -36.11,761.656C-34.61,764.794 -45.45,715.959 -45.229,713.526C-44.702,707.729 -31.737,716.841 -24.12,725.241C-22.647,726.865 -16.613,734.704 -13.6,732.875C-11.253,731.45 -12.933,725.85 -13.358,723.915C-15.273,715.191 -8.108,714.443 -10.892,705.952C-11.09,705.349 -14.573,695.825 -14.042,695.674C-13.006,695.377 -9.909,700.416 -9.449,701.022C-4.691,707.272 -0.027,713.602 4.646,719.915C5.096,720.523 9.286,726.818 10.346,726.076C11.569,725.22 7.91,718.371 7.526,717.49C4.207,709.887 0.078,702.743 -3.91,695.483C-4.461,694.481 -7.549,689.636 -6.233,688.472C-5.038,687.415 0.502,691.705 1.416,692.289C7.557,696.218 14.863,697.609 20.233,702.532C28.017,709.667 40.449,717.34 35.441,710.34C8.041,672.041 19.419,666.8 26.793,669.473C35.724,672.71 42.308,694.965 45.31,694.006C64.095,688.005 47.914,654.406 61.659,655.66C78.101,657.16 78.609,691.228 82.092,685.737C83.511,683.501 75.776,639.57 78.95,639.343C82.406,639.097 86.444,644.91 88.327,647.094C96.368,656.423 103.377,666.626 109.418,677.351C110.214,678.764 115.559,690.991 117.829,690.457C118.043,690.406 118.165,690.186 118.232,689.995C120.061,684.783 117.825,675.811 117.909,670.303C117.992,664.89 109.882,630.169 109.71,624.903C109.667,623.564 121.26,643.565 122.389,638.175C123.903,630.948 125.466,623.708 126.488,616.259C126.664,614.978 127.071,600.135 128.774,600.135C129.894,600.135 136.24,616.057 139.111,621.036C143.372,628.427 149.543,633.927 154.503,640.787C164.815,655.048 174.025,665.241 181.231,681.353L180.849,680.487L180.465,679.621Z" style="fill:rgb(54,30,66);"/>
                    </g>
                    <path d="M21.274,749.989C21.084,749.91 21.197,749.904 21.39,750.283C23.289,754.018 25.482,757.436 27.94,760.836C32.828,767.598 37.562,774.461 41.935,781.57C55.428,803.506 65.841,826.753 73.11,851.466" style="fill:none;stroke:black;stroke-width:2.1px;"/>
                    <path d="M203.07,666.978C202.913,668.278 201.542,674.646 201.428,675.95C201.082,679.931 200.866,683.916 201.016,687.913C201.436,699.133 205.022,710.27 210.136,720.202C218.347,736.151 232.332,746.725 242.144,761.359C252.894,777.393 258.44,797.067 264.484,815.196" style="fill:none;stroke:black;stroke-width:2.1px;"/>
                    <g transform="matrix(-0.834408,0,0,0.834408,732.403,189.091)">
                        <path d="M771.889,675.155C771.809,674.866 776.608,675.381 777.083,675.508C782.141,676.854 782.081,682.208 781.416,686.652C779.787,697.541 769.108,709.056 763.069,717.85C741.297,749.553 716.886,778.939 692.296,808.472" style="fill:none;stroke:black;stroke-width:2.1px;"/>
                    </g>
                    <path d="M173.234,684.583C173.39,685.484 175.738,691.945 175.937,692.837C176.493,695.331 177.278,697.761 178.176,700.151C180.977,707.602 184.672,714.72 189.069,721.351C194.325,729.279 200.801,736.323 205.84,744.401C214.233,757.854 220.242,772.9 224.59,788.118" style="fill:none;stroke:black;stroke-width:2.1px;"/>
                </g>
                <path d="M295.311,618.838C295.311,618.838 271.056,618.138 260.529,624.275C250.002,630.412 239.26,640.62 239.26,640.62C239.26,640.62 227.179,646.652 222.225,648.318C217.27,649.984 203.192,667.078 203.192,667.078C203.192,667.078 187.377,670.568 181.571,673.436C175.765,676.304 172.315,685.31 172.315,685.31C172.315,685.31 126.611,694.467 123.313,708.595C122.007,714.192 119.368,719.944 109.717,723.328C100.749,726.472 89.799,723.549 88.285,734.897C87.241,742.724 62.508,746.074 38.356,751.626C29.883,753.574 24.046,755.959 16.443,769.215C-10.181,815.632 -36.206,901.347 -36.206,901.347L364.035,896.311C364.035,896.311 372.541,849.035 304.395,761.999C300.161,756.591 277.82,725.752 275.203,716.797C272.586,707.841 267.518,696.452 272.99,667.288C278.461,638.124 295.311,618.838 295.311,618.838Z" style="fill:none;stroke:black;stroke-width:2.1px;"/>
            </g>
        </g>
        <g id="robe-head-cover-front" transform="matrix(0.983499,0,0,0.979056,6.6007,7.05054)">
            <path id="shadow1" d="M400.214,344.056C414.974,338.133 435.811,337.989 448.786,337.016C510.247,332.411 569.554,342.779 590.842,408.016C603.32,446.258 601.87,489.279 597.788,528.834L574.672,534.569C572.285,536.96 573.033,528.003 571.893,524.822C569.414,517.907 566.105,514.156 562.29,507.873C550.684,488.757 536.517,469.094 516.929,457.944C488.973,442.03 461.66,445.172 431.396,448.909C426.341,449.533 410.608,452.791 400.214,452.791C389.82,452.791 374.086,449.533 369.032,448.909C338.767,445.172 311.455,442.03 283.499,457.944C263.91,469.094 249.743,488.757 238.137,507.873C234.322,514.156 231.013,517.907 228.534,524.822C227.394,528.003 228.142,536.96 225.755,534.569L202.639,528.834C198.558,489.279 197.107,446.258 209.586,408.016C230.874,342.779 290.18,332.411 351.641,337.016C364.617,337.989 385.453,338.133 400.214,344.056Z" style="fill:rgb(56,25,57);fill-opacity:0.5;"/>
            <path d="M391.487,22.829C396.708,22.299 402.391,22.299 408.537,22.829C428.732,24.396 463.921,29.665 497.565,47.067C548.805,73.569 572.364,95.426 583.178,125.101C593.993,154.775 629.756,365.28 674.416,494.804C719.076,624.328 715.568,652.435 712.368,671.144C698.621,751.533 655.684,860.703 655.684,860.703L626.717,886.081C626.717,886.081 587.011,664.426 582.85,644.232C578.69,624.038 573.405,551.477 572.921,514.008C572.437,476.539 573.64,419.296 562.74,401.494C551.839,383.692 535.31,366.627 483.824,376.415C439.716,384.8 427.773,391.27 406.623,393.309C406.094,393.737 393.929,393.737 393.4,393.309C372.25,391.27 360.307,384.8 316.199,376.415C264.713,366.627 248.184,383.692 237.284,401.494C226.383,419.296 227.586,476.539 227.102,514.008C226.618,551.477 221.334,624.038 217.173,644.232C213.012,664.426 167.762,904.817 167.762,904.817L125.917,824.048C125.917,824.048 80.983,702.749 86.371,662.529C87.473,654.299 80.948,624.328 125.608,494.804C170.267,365.28 206.031,154.775 216.845,125.101C227.659,95.426 251.218,73.569 302.458,47.067C336.103,29.665 371.291,24.396 391.487,22.829Z" style="fill:rgb(97,69,109);"/>
            <clipPath id="_clip3_magic_cap">
                <path d="M391.487,22.829C396.708,22.299 402.391,22.299 408.537,22.829C428.732,24.396 463.921,29.665 497.565,47.067C548.805,73.569 572.364,95.426 583.178,125.101C593.993,154.775 629.756,365.28 674.416,494.804C719.076,624.328 715.568,652.435 712.368,671.144C698.621,751.533 655.684,860.703 655.684,860.703L626.717,886.081C626.717,886.081 587.011,664.426 582.85,644.232C578.69,624.038 573.405,551.477 572.921,514.008C572.437,476.539 573.64,419.296 562.74,401.494C551.839,383.692 535.31,366.627 483.824,376.415C439.716,384.8 427.773,391.27 406.623,393.309C406.094,393.737 393.929,393.737 393.4,393.309C372.25,391.27 360.307,384.8 316.199,376.415C264.713,366.627 248.184,383.692 237.284,401.494C226.383,419.296 227.586,476.539 227.102,514.008C226.618,551.477 221.334,624.038 217.173,644.232C213.012,664.426 167.762,904.817 167.762,904.817L125.917,824.048C125.917,824.048 80.983,702.749 86.371,662.529C87.473,654.299 80.948,624.328 125.608,494.804C170.267,365.28 206.031,154.775 216.845,125.101C227.659,95.426 251.218,73.569 302.458,47.067C336.103,29.665 371.291,24.396 391.487,22.829Z"/>
            </clipPath>
            <g clip-path="url(#_clip3_magic_cap)">
                <path d="M141.765,848.216C141.584,847.945 144.112,839.424 144.365,838.078C146.317,827.721 155.084,783.883 156.483,773.441C162.284,730.151 170.346,686.858 176.895,643.674C178.795,631.137 182.212,592.77 183.472,592.295C183.699,592.209 182.465,614.498 182.041,620.128C180.809,636.521 180.877,663.02 178.604,679.319C171.287,731.787 162.058,796.819 149.879,843.205L141.765,848.216ZM655.361,843.246C655.542,842.975 653.014,834.454 652.76,833.109C650.809,822.751 644.298,783.883 642.898,773.441C637.098,730.151 629.035,686.858 622.487,643.674C620.586,631.137 617.169,592.77 615.909,592.295C615.682,592.209 616.917,614.498 617.34,620.128C618.573,636.521 618.505,663.02 620.778,679.319C623.686,700.172 625.614,717.404 627.647,733.511C630.728,757.931 639.908,810.285 647.247,838.235L655.361,843.246ZM409.071,12.79L591.84,49.205L808.725,745.796L809.528,768.376C809.528,768.376 797.063,757.864 793.088,755.92C789.113,753.976 779.222,749.882 773.869,746.413C768.515,742.943 751.992,726.408 749.316,722.865C746.64,719.322 741.194,716.549 741.419,717.231C741.645,717.913 747.447,746.104 747.447,746.104C747.447,746.104 740.02,729.46 737.437,723.767C734.853,718.075 730.865,704.812 726.927,695.826C722.988,686.839 714.685,678.946 714.685,678.946C714.685,678.946 713.025,694.248 712.356,701.562C711.687,708.876 694.523,774.359 694.523,774.359C694.523,774.359 704.328,699.471 702.963,684.05C701.597,668.63 666.552,562.533 653.702,528.722C640.852,494.912 595.001,327.517 583.923,284.184C572.844,240.852 568.109,174.478 564.254,147.984C560.398,121.49 550.996,104.56 540.284,92.642C529.571,80.724 492.812,62.022 463.034,49.554C441.162,40.397 413.066,38.707 399.691,38.455C386.316,38.707 358.219,40.397 336.347,49.554C306.569,62.022 269.81,80.724 259.098,92.642C248.385,104.56 238.983,121.49 235.128,147.984C231.272,174.478 226.537,240.852 215.459,284.184C204.381,327.517 158.53,494.912 145.679,528.722C132.829,562.533 97.784,668.63 96.419,684.05C95.053,699.471 104.858,774.359 104.858,774.359C104.858,774.359 87.695,708.876 87.026,701.562C86.356,694.248 84.697,678.946 84.697,678.946C84.697,678.946 76.393,686.839 72.455,695.826C68.516,704.812 64.529,718.075 61.945,723.767C59.361,729.46 51.934,746.104 51.934,746.104C51.934,746.104 57.737,717.913 57.962,717.231C58.187,716.549 52.741,719.322 50.065,722.865C47.389,726.408 30.866,742.943 25.513,746.413C20.159,749.882 10.269,753.976 6.294,755.92C2.319,757.864 -10.146,768.376 -10.146,768.376L-9.344,745.796L207.542,49.205L390.311,12.79L390.07,9.005L399.691,10.921L409.311,9.005L409.071,12.79ZM221.295,405.308C221.031,405.232 221.41,403.234 221.436,403.019C222.247,396.338 223.286,389.69 224.676,383.102C229.86,358.533 236.442,334.273 241.999,309.789C249.069,278.643 253.972,247.174 257.679,215.464C258.095,211.904 261.121,184.133 262.952,183.035C263.828,182.509 263.768,210.591 262.678,219.924C259.874,243.93 258.55,268.079 256.931,292.183C255.88,307.832 254.137,323.374 251.558,338.847C250.759,343.643 251.016,361.227 251.016,361.227C251.016,361.227 273.645,361.012 278.033,362.266C278.165,362.303 278.631,362.413 278.631,362.614C278.631,364.796 262.235,370.501 260.403,371.392C244.235,379.258 232.789,388.637 224.294,404.32L221.295,405.308ZM578.086,405.308C578.35,405.232 577.972,403.234 577.946,403.019C577.134,396.338 576.095,389.69 574.705,383.102C569.521,358.533 562.94,334.273 557.382,309.789C550.312,278.643 545.409,247.174 541.703,215.464C541.287,211.904 538.26,184.133 536.429,183.035C535.553,182.509 535.613,210.591 536.703,219.924C539.507,243.93 540.831,268.079 542.45,292.183C543.501,307.832 545.245,323.374 547.823,338.847C548.623,343.643 548.365,361.227 548.365,361.227C548.365,361.227 525.736,361.012 521.348,362.266C521.217,362.303 520.75,362.413 520.75,362.614C520.75,364.796 537.147,370.501 538.979,371.392C555.147,379.258 566.592,388.637 575.087,404.32L578.086,405.308Z" style="fill:rgb(214,152,193);"/>
                <path d="M119.378,806.353C119.201,805.096 119.033,803.838 118.873,802.578C118.117,796.621 117.625,790.657 117.27,784.664C116.224,766.959 115.297,749.32 117.27,731.639C123.647,674.516 143.219,618.173 164.936,565.336C169.457,554.335 173.939,543.315 178.076,532.163C178.461,531.123 184.281,515.103 184.917,515.421C186.981,516.454 184.737,529.819 184.615,531.629C183.473,548.657 182.765,565.676 182.005,582.723C179.366,641.91 167.291,696.883 159.542,754.998C157.481,770.457 158.949,811.49 149.375,822.395C140.786,832.179 123.32,833.544 111.385,835.475C75.975,841.202 37.506,841.041 2.001,836.173L-56.098,824.659C-55.472,824.157 -53.685,822.7 -52.969,822.065C-51.008,820.327 -48.968,818.694 -46.936,817.041C-40.592,811.884 -34.146,806.862 -27.665,801.88C-10.909,788.998 7.442,778.407 24.102,765.329C26.206,763.678 37.028,752.406 40.034,753.844C42.263,754.91 46.917,776.863 47.625,780.399C47.667,780.609 48.127,783.63 48.331,783.63C48.478,783.63 48.205,780.741 48.193,780.597C47.957,777.802 47.812,774.991 47.702,772.188C47.397,764.381 47.503,756.56 48.926,748.863C49.058,748.147 51.556,737.951 52.346,738.498C54.289,739.843 52.898,750.767 52.932,752.853C53.137,765.335 56.83,775.876 62.143,787.034C64.325,791.616 66.632,796.138 68.838,800.708C69.904,802.915 70.748,809.444 72.009,807.342C72.465,806.582 69.991,785.591 70.01,782.932C70.156,761.929 71.274,738.985 76.024,718.499C76.633,715.875 83.419,693.994 86.544,693.426C86.599,693.416 90.181,710.183 90.422,711.098C93.563,723.033 97.128,734.86 100.313,746.787C104.757,763.427 109.943,779.706 115.452,796.021C115.776,796.98 118.007,802.155 119.378,806.353C119.528,807.421 119.684,808.489 119.847,809.557C119.963,810.32 119.688,812.386 120.234,811.84C120.774,811.3 120.25,809.025 119.378,806.353ZM681.075,806.353C681.251,805.096 681.42,803.838 681.58,802.578C682.335,796.621 682.828,790.657 683.182,784.664C684.229,766.959 685.156,749.32 683.182,731.639C676.806,674.516 657.234,618.173 635.517,565.336C630.995,554.335 626.514,543.315 622.377,532.163C621.991,531.123 616.171,515.103 615.536,515.421C613.471,516.454 615.716,529.819 615.837,531.629C616.98,548.657 617.688,565.676 618.448,582.723C621.087,641.91 633.162,696.883 640.911,754.998C642.972,770.457 641.504,811.49 651.078,822.395C659.667,832.179 677.132,833.544 689.067,835.475C724.478,841.202 762.946,841.041 798.451,836.173L856.551,824.659C855.925,824.157 854.137,822.7 853.422,822.065C851.461,820.327 849.421,818.694 847.388,817.041C841.044,811.884 834.599,806.862 828.117,801.88C811.362,788.998 793.011,778.407 776.351,765.329C774.247,763.678 763.424,752.406 760.419,753.844C758.19,754.91 753.535,776.863 752.828,780.399C752.786,780.609 752.325,783.63 752.121,783.63C751.974,783.63 752.247,780.741 752.259,780.597C752.496,777.802 752.641,774.991 752.75,772.188C753.055,764.381 752.95,756.56 751.527,748.863C751.394,748.147 748.896,737.951 748.106,738.498C746.163,739.843 747.555,750.767 747.52,752.853C747.316,765.335 743.623,775.876 738.309,787.034C736.127,791.616 733.821,796.138 731.615,800.708C730.549,802.915 729.705,809.444 728.444,807.342C727.987,806.582 730.461,785.591 730.443,782.932C730.297,761.929 729.179,738.985 724.429,718.499C723.82,715.875 717.033,693.994 713.908,693.426C713.853,693.416 710.271,710.183 710.031,711.098C706.89,723.033 703.325,734.86 700.139,746.787C695.695,763.427 690.509,779.706 685,796.021C684.676,796.98 682.445,802.155 681.075,806.353C680.924,807.421 680.768,808.489 680.606,809.557C680.49,810.32 680.764,812.386 680.218,811.84C679.679,811.3 680.202,809.025 681.075,806.353ZM-56.098,824.659C-56.36,824.87 -56.419,824.912 -56.11,824.657L-56.098,824.659ZM856.551,824.659L856.562,824.657C856.871,824.912 856.813,824.87 856.551,824.659ZM238.378,326.445C238.187,326.993 238.265,314.503 238.223,311.064C238.097,300.78 239.481,290.196 239.99,279.919C241.535,248.772 242.299,216.24 250.391,186.011C252.277,178.963 254.531,171.952 257.8,165.412C258.105,164.802 260.264,159.662 261.182,159.815C262.274,159.997 261.698,167.763 261.698,168.515C261.698,177.993 260.902,186.919 259.834,196.349C257.434,217.544 252.517,245.716 249.404,269.882C247.352,285.809 244.77,298.467 241.651,314.21L238.378,326.445ZM562.074,326.445C562.266,326.993 562.187,314.503 562.229,311.064C562.355,300.78 560.972,290.196 560.462,279.919C558.918,248.772 558.153,216.24 550.062,186.011C548.175,178.963 545.922,171.952 542.652,165.412C542.347,164.802 540.189,159.662 539.27,159.815C538.178,159.997 538.754,167.763 538.754,168.515C538.754,177.993 539.551,186.919 540.618,196.349C543.019,217.544 547.936,245.716 551.049,269.882C553.101,285.809 555.682,298.467 558.801,314.21L562.074,326.445Z" style="fill:rgb(54,30,66);"/>
                <g id="lines">
                    <path d="M260.932,182.604C262.551,186.514 260.178,194.673 259.706,198.653C258.09,212.288 256.135,225.859 254.028,239.427C245.832,292.213 235.01,345.266 222.476,397.195" style="fill:none;stroke:black;stroke-width:2.1px;"/>
                    <path d="M84.338,665.324C84.924,665.132 84.428,666.554 84.462,667.17C84.527,668.352 84.611,669.534 84.683,670.717C84.899,674.241 85.191,677.761 85.453,681.282C86.241,691.866 87.755,702.313 89.798,712.723C95.817,743.407 107.481,771.785 116.546,801.553" style="fill:none;stroke:black;stroke-width:2.1px;"/>
                    <path d="M61.041,700.381C61.525,700.829 60.53,704.642 60.448,705.176C59.63,710.458 58.411,715.644 57.149,720.834C54.793,730.52 51.536,739.964 49.789,749.8C47.758,761.231 47.51,772.866 47.672,784.444" style="fill:none;stroke:black;stroke-width:2.1px;"/>
                    <path d="M182.364,587.803C182.364,587.803 181.513,600.318 181.163,604.459C179.931,619.046 178.173,633.688 176.124,648.185C172.758,671.995 167.233,695.377 163.595,719.132C159.267,747.394 152.449,828.097 149.001,856.486" style="fill:none;stroke:black;stroke-width:2.1px;"/>
                    <g transform="matrix(-1,0,0,1,800.453,0)">
                        <path d="M260.932,182.604C262.551,186.514 260.178,194.673 259.706,198.653C258.09,212.288 256.135,225.859 254.028,239.427C245.832,292.213 235.01,345.266 222.476,397.195" style="fill:none;stroke:black;stroke-width:2.1px;"/>
                    </g>
                    <g transform="matrix(-1,0,0,1,800.453,0)">
                        <path d="M84.338,665.324C84.924,665.132 84.428,666.554 84.462,667.17C84.527,668.352 84.611,669.534 84.683,670.717C84.899,674.241 85.191,677.761 85.453,681.282C86.241,691.866 87.755,702.313 89.798,712.723C95.817,743.407 107.481,771.785 116.546,801.553" style="fill:none;stroke:black;stroke-width:2.1px;"/>
                    </g>
                    <g transform="matrix(-1,0,0,1,800.453,0)">
                        <path d="M61.041,700.381C61.525,700.829 60.53,704.642 60.448,705.176C59.63,710.458 58.411,715.644 57.149,720.834C54.793,730.52 51.536,739.964 49.789,749.8C47.758,761.231 47.51,772.866 47.672,784.444" style="fill:none;stroke:black;stroke-width:2.1px;"/>
                    </g>
                    <g transform="matrix(-1,0,0,1,800.453,0)">
                        <path d="M182.364,587.803C182.364,587.803 181.513,600.318 181.163,604.459C179.931,619.046 178.173,633.688 176.124,648.185C172.758,671.995 167.233,695.377 163.595,719.132C159.267,747.394 152.858,825.656 149.41,854.044" style="fill:none;stroke:black;stroke-width:2.1px;"/>
                    </g>
                </g>
                <path id="border-strip" d="M399.953,377.508C404.893,377.329 411.605,376.476 417.609,375.426C426.937,373.794 453.916,363.14 496.474,360.283C531.443,357.936 551.274,365.133 569.178,381.679C587.082,398.225 583.895,445.615 582.646,472.494C581.396,499.373 582.313,590.113 592.143,635.269C601.973,680.425 658.955,900.892 658.955,900.892C658.955,900.892 616.444,865.363 610.71,813.839C609.236,800.589 575.262,676.266 573.024,656.317C570.785,636.369 564.596,594.294 564.076,502.157C563.555,410.02 558.269,418.702 547.667,401.002C537.065,383.303 509.914,388.255 493.458,391.205C477.003,394.155 438.423,395.735 419.537,400.843C410.504,403.287 404.137,403.744 399.953,403.555C395.768,403.744 389.402,403.287 380.368,400.843C361.482,395.735 322.902,394.155 306.447,391.205C289.992,388.255 262.84,383.303 252.238,401.002C241.636,418.702 236.35,410.02 235.83,502.157C235.309,594.294 229.12,636.369 226.882,656.317C224.643,676.266 176.278,883.878 170.966,896.096C165.654,908.314 150.184,848.465 150.184,848.465C150.184,848.465 197.933,680.425 207.762,635.269C217.592,590.113 218.509,499.373 217.26,472.494C216.01,445.615 212.581,398.889 230.485,382.343C248.389,365.796 270.42,356.547 305.17,361.111C340.557,365.759 372.969,373.794 382.296,375.426C388.301,376.476 395.013,377.329 399.953,377.508Z" style="fill:rgb(163,130,175);stroke:black;stroke-width:2.1px;"/>
                <path d="M404.248,13.055C415.865,13.573 437.196,15.143 452.372,19.865C474.219,26.664 533.776,49.722 562.259,82.549C590.741,115.375 604.449,160.985 604.449,160.985L600.443,200.699C600.443,200.699 594.641,180.149 585.474,170.468C576.308,160.787 561.053,146.882 556.711,140.809C552.37,134.737 543.819,115.708 543.819,115.708C543.819,115.708 526.769,129.963 506.126,128.477C485.484,126.992 448.619,106.443 447.338,104.924C446.057,103.406 449.333,112.691 427.101,141.315C410.056,163.262 403.015,179.789 400.657,186.306L400.085,187.957L399.512,186.306C397.154,179.789 390.113,163.262 373.068,141.315C350.836,112.691 354.112,103.406 352.831,104.924C351.55,106.443 314.685,126.992 294.043,128.477C273.4,129.963 256.39,115.544 256.39,115.544C256.39,115.544 247.799,134.737 243.458,140.809C239.116,146.882 223.861,160.787 214.695,170.468C205.528,180.149 199.726,200.699 199.726,200.699L195.72,160.985C195.72,160.985 209.428,115.375 237.911,82.549C266.393,49.722 325.95,26.664 347.797,19.865C362.973,15.143 384.304,13.573 395.921,13.055L395.917,12.803C395.917,12.803 397.454,12.814 400.085,12.897C402.715,12.814 404.252,12.803 404.252,12.803L404.248,13.055ZM234.679,92.141C234.679,92.141 235.247,95.934 237.666,99.485C240.084,103.035 243.037,105.629 243.037,105.629C243.037,105.629 238.728,114.197 234.433,119.962C230.137,125.728 216.494,138.026 212.125,141.435C207.756,144.845 210.187,134.65 210.187,134.65C210.187,134.65 215.543,116.363 220.353,107.834C225.163,99.305 234.679,92.141 234.679,92.141ZM565.49,92.141C565.49,92.141 564.922,95.934 562.503,99.485C560.085,103.035 557.132,105.629 557.132,105.629C557.132,105.629 561.441,114.197 565.736,119.962C570.032,125.728 583.676,138.026 588.045,141.435C592.414,144.845 589.982,134.65 589.982,134.65C589.982,134.65 584.626,116.363 579.816,107.834C575.006,99.305 565.49,92.141 565.49,92.141ZM400.085,61.006C400.078,61.008 400.073,61.013 400.07,61.019C400.039,61.068 399.887,61.145 399.645,61.27C398.361,62.347 394.694,66.427 392.452,69.162C389.761,72.443 376.409,86.221 376.284,86.465C376.16,86.709 377.631,94.07 381.291,100.922C384.951,107.775 391.383,117.033 393.641,120.117C395.72,122.958 399.5,131.768 400.085,133.144C400.669,131.768 404.449,122.958 406.528,120.117C408.786,117.033 415.218,107.775 418.878,100.922C422.538,94.07 424.01,86.709 423.885,86.465C423.76,86.221 410.408,72.443 407.718,69.162C405.475,66.427 401.809,62.347 400.524,61.27C400.282,61.145 400.13,61.068 400.099,61.019C400.096,61.013 400.091,61.008 400.085,61.006ZM250.309,76.151C250.309,76.151 256.812,88.218 268.024,92.933C279.237,97.648 298.652,102.821 319.337,93.043C340.022,83.265 350.884,73.836 360.378,65.525C369.872,57.214 381.114,40.534 381.114,40.534L366.781,26.279L350.966,25.736C350.966,25.736 300.085,38.558 281.791,52.635C263.498,66.712 250.309,76.151 250.309,76.151ZM549.86,76.151C549.86,76.151 543.357,88.218 532.145,92.933C520.932,97.648 501.517,102.821 480.832,93.043C460.147,83.265 449.285,73.836 439.791,65.525C430.297,57.214 419.055,40.534 419.055,40.534L433.388,26.279L449.203,25.736C449.203,25.736 500.084,38.558 518.378,52.635C536.672,66.712 549.86,76.151 549.86,76.151Z" style="fill:rgb(177,140,191);"/>
                <clipPath id="_clip4_magic_cap">
                    <path d="M404.248,13.055C415.865,13.573 437.196,15.143 452.372,19.865C474.219,26.664 533.776,49.722 562.259,82.549C590.741,115.375 604.449,160.985 604.449,160.985L600.443,200.699C600.443,200.699 594.641,180.149 585.474,170.468C576.308,160.787 561.053,146.882 556.711,140.809C552.37,134.737 543.819,115.708 543.819,115.708C543.819,115.708 526.769,129.963 506.126,128.477C485.484,126.992 448.619,106.443 447.338,104.924C446.057,103.406 449.333,112.691 427.101,141.315C410.056,163.262 403.015,179.789 400.657,186.306L400.085,187.957L399.512,186.306C397.154,179.789 390.113,163.262 373.068,141.315C350.836,112.691 354.112,103.406 352.831,104.924C351.55,106.443 314.685,126.992 294.043,128.477C273.4,129.963 256.39,115.544 256.39,115.544C256.39,115.544 247.799,134.737 243.458,140.809C239.116,146.882 223.861,160.787 214.695,170.468C205.528,180.149 199.726,200.699 199.726,200.699L195.72,160.985C195.72,160.985 209.428,115.375 237.911,82.549C266.393,49.722 325.95,26.664 347.797,19.865C362.973,15.143 384.304,13.573 395.921,13.055L395.917,12.803C395.917,12.803 397.454,12.814 400.085,12.897C402.715,12.814 404.252,12.803 404.252,12.803L404.248,13.055ZM234.679,92.141C234.679,92.141 235.247,95.934 237.666,99.485C240.084,103.035 243.037,105.629 243.037,105.629C243.037,105.629 238.728,114.197 234.433,119.962C230.137,125.728 216.494,138.026 212.125,141.435C207.756,144.845 210.187,134.65 210.187,134.65C210.187,134.65 215.543,116.363 220.353,107.834C225.163,99.305 234.679,92.141 234.679,92.141ZM565.49,92.141C565.49,92.141 564.922,95.934 562.503,99.485C560.085,103.035 557.132,105.629 557.132,105.629C557.132,105.629 561.441,114.197 565.736,119.962C570.032,125.728 583.676,138.026 588.045,141.435C592.414,144.845 589.982,134.65 589.982,134.65C589.982,134.65 584.626,116.363 579.816,107.834C575.006,99.305 565.49,92.141 565.49,92.141ZM400.085,61.006C400.078,61.008 400.073,61.013 400.07,61.019C400.039,61.068 399.887,61.145 399.645,61.27C398.361,62.347 394.694,66.427 392.452,69.162C389.761,72.443 376.409,86.221 376.284,86.465C376.16,86.709 377.631,94.07 381.291,100.922C384.951,107.775 391.383,117.033 393.641,120.117C395.72,122.958 399.5,131.768 400.085,133.144C400.669,131.768 404.449,122.958 406.528,120.117C408.786,117.033 415.218,107.775 418.878,100.922C422.538,94.07 424.01,86.709 423.885,86.465C423.76,86.221 410.408,72.443 407.718,69.162C405.475,66.427 401.809,62.347 400.524,61.27C400.282,61.145 400.13,61.068 400.099,61.019C400.096,61.013 400.091,61.008 400.085,61.006ZM250.309,76.151C250.309,76.151 256.812,88.218 268.024,92.933C279.237,97.648 298.652,102.821 319.337,93.043C340.022,83.265 350.884,73.836 360.378,65.525C369.872,57.214 381.114,40.534 381.114,40.534L366.781,26.279L350.966,25.736C350.966,25.736 300.085,38.558 281.791,52.635C263.498,66.712 250.309,76.151 250.309,76.151ZM549.86,76.151C549.86,76.151 543.357,88.218 532.145,92.933C520.932,97.648 501.517,102.821 480.832,93.043C460.147,83.265 449.285,73.836 439.791,65.525C430.297,57.214 419.055,40.534 419.055,40.534L433.388,26.279L449.203,25.736C449.203,25.736 500.084,38.558 518.378,52.635C536.672,66.712 549.86,76.151 549.86,76.151Z"/>
                </clipPath>
                <g clip-path="url(#_clip4_magic_cap)">
                    <path d="M400.092,10.936C406.189,8.993 415.102,10.569 419.709,11.022C444.78,13.485 469.423,19.569 493.022,28.329C523.107,39.497 554.904,56.611 575.142,82.259C594.955,107.37 600.224,142.846 603.491,173.725C604.881,186.858 606.569,200.542 605.546,213.763C605.476,214.673 605.389,215.579 605.247,216.481C604.207,223.112 599.892,217.606 597.589,214.817C592.723,208.924 589.632,201.471 585.805,194.888C584.461,192.577 583.138,190.254 581.822,187.928C576.644,178.771 570.494,169.522 568.066,159.239C562.694,136.486 558.085,113.02 541.28,94.547C531.02,83.269 517.956,75.399 504.774,67.965C486.199,57.488 467.112,48.783 446.279,43.937C434.776,41.261 423.168,40.049 411.375,39.558C409.631,39.485 390.552,39.485 388.808,39.558C377.015,40.049 365.407,41.261 353.904,43.937C333.071,48.783 313.984,57.488 295.409,67.965C282.227,75.399 269.163,83.269 258.903,94.547C242.098,113.02 237.489,136.486 232.117,159.239C229.689,169.522 223.539,178.771 218.361,187.928C217.045,190.254 215.722,192.577 214.378,194.888C210.551,201.471 207.46,208.924 202.594,214.817C200.291,217.606 195.976,223.112 194.936,216.481C194.794,215.579 194.707,214.673 194.637,213.763C193.614,200.542 195.302,186.858 196.692,173.725C199.959,142.846 205.228,107.37 225.041,82.259C245.279,56.611 277.076,39.497 307.161,28.329C330.76,19.569 355.403,13.485 380.474,11.022C385.081,10.569 393.994,8.993 400.092,10.936Z" style="fill:rgb(240,190,227);"/>
                    <g>
                        <path d="M419.667,39.61C419.541,39.573 415.925,43.161 415.838,43.249C414.673,44.434 413.497,45.608 412.334,46.795C407.546,51.676 402.934,56.699 398.705,62.073" style="fill:rgb(177,140,191);stroke:black;stroke-width:2.1px;"/>
                        <path d="M380.656,40.351C380.884,40.288 381.797,41.404 381.929,41.535C383.274,42.861 384.573,44.241 385.854,45.629C390.984,51.191 396.019,56.862 401.293,62.289" style="fill:rgb(177,140,191);stroke:black;stroke-width:2.1px;"/>
                        <path d="M399.232,21.808C399.242,21.889 398.128,22.674 398.045,22.743C396.793,23.786 395.588,24.897 394.406,26.018C389.782,30.4 385.082,34.896 381.237,39.996" style="fill:rgb(177,140,191);stroke:black;stroke-width:2.1px;"/>
                        <path d="M418.769,40.478C418.772,40.475 418.127,39.776 418.09,39.737C417.652,39.278 417.211,38.823 416.765,38.372C415.394,36.984 414.017,35.6 412.61,34.248C408.513,30.31 404.836,25.947 400.576,22.182" style="fill:rgb(177,140,191);stroke:black;stroke-width:2.1px;"/>
                        <path d="M352.312,105.465C354.275,103.783 359.361,100.303 361.106,98.939C366.861,94.437 371.617,91.29 376.526,86.476" style="fill:rgb(177,140,191);stroke:black;stroke-width:2.1px;"/>
                        <path d="M423.54,85.785C425.04,88.315 428.754,90.58 430.965,92.421C436.464,96.999 441.906,101.599 447.936,105.473" style="fill:rgb(177,140,191);stroke:black;stroke-width:2.1px;"/>
                        <path d="M242.55,105.212C243.367,106.074 245.091,107.554 245.838,108.167C249.031,110.789 252.451,112.971 255.889,115.26" style="fill:rgb(177,140,191);stroke:black;stroke-width:2.1px;"/>
                        <path d="M543.739,115.874C548.048,113.032 553.186,109.136 557.025,105.873" style="fill:rgb(177,140,191);stroke:black;stroke-width:2.1px;"/>
                    </g>
                </g>
                <path d="M404.248,13.055C415.865,13.573 437.196,15.143 452.372,19.865C474.219,26.664 533.776,49.722 562.259,82.549C590.741,115.375 604.449,160.985 604.449,160.985L600.443,200.699C600.443,200.699 594.641,180.149 585.474,170.468C576.308,160.787 561.053,146.882 556.711,140.809C552.37,134.737 543.819,115.708 543.819,115.708C543.819,115.708 526.769,129.963 506.126,128.477C485.484,126.992 448.619,106.443 447.338,104.924C446.057,103.406 449.333,112.691 427.101,141.315C410.056,163.262 403.015,179.789 400.657,186.306L400.085,187.957L399.512,186.306C397.154,179.789 390.113,163.262 373.068,141.315C350.836,112.691 354.112,103.406 352.831,104.924C351.55,106.443 314.685,126.992 294.043,128.477C273.4,129.963 256.39,115.544 256.39,115.544C256.39,115.544 247.799,134.737 243.458,140.809C239.116,146.882 223.861,160.787 214.695,170.468C205.528,180.149 199.726,200.699 199.726,200.699L195.72,160.985C195.72,160.985 209.428,115.375 237.911,82.549C266.393,49.722 325.95,26.664 347.797,19.865C362.973,15.143 384.304,13.573 395.921,13.055L395.917,12.803C395.917,12.803 397.454,12.814 400.085,12.897C402.715,12.814 404.252,12.803 404.252,12.803L404.248,13.055ZM234.679,92.141C234.679,92.141 235.247,95.934 237.666,99.485C240.084,103.035 243.037,105.629 243.037,105.629C243.037,105.629 238.728,114.197 234.433,119.962C230.137,125.728 216.494,138.026 212.125,141.435C207.756,144.845 210.187,134.65 210.187,134.65C210.187,134.65 215.543,116.363 220.353,107.834C225.163,99.305 234.679,92.141 234.679,92.141ZM565.49,92.141C565.49,92.141 564.922,95.934 562.503,99.485C560.085,103.035 557.132,105.629 557.132,105.629C557.132,105.629 561.441,114.197 565.736,119.962C570.032,125.728 583.676,138.026 588.045,141.435C592.414,144.845 589.982,134.65 589.982,134.65C589.982,134.65 584.626,116.363 579.816,107.834C575.006,99.305 565.49,92.141 565.49,92.141ZM400.085,61.006C400.078,61.008 400.073,61.013 400.07,61.019C400.039,61.068 399.887,61.145 399.645,61.27C398.361,62.347 394.694,66.427 392.452,69.162C389.761,72.443 376.409,86.221 376.284,86.465C376.16,86.709 377.631,94.07 381.291,100.922C384.951,107.775 391.383,117.033 393.641,120.117C395.72,122.958 399.5,131.768 400.085,133.144C400.669,131.768 404.449,122.958 406.528,120.117C408.786,117.033 415.218,107.775 418.878,100.922C422.538,94.07 424.01,86.709 423.885,86.465C423.76,86.221 410.408,72.443 407.718,69.162C405.475,66.427 401.809,62.347 400.524,61.27C400.282,61.145 400.13,61.068 400.099,61.019C400.096,61.013 400.091,61.008 400.085,61.006ZM250.309,76.151C250.309,76.151 256.812,88.218 268.024,92.933C279.237,97.648 298.652,102.821 319.337,93.043C340.022,83.265 350.884,73.836 360.378,65.525C369.872,57.214 381.114,40.534 381.114,40.534L366.781,26.279L350.966,25.736C350.966,25.736 300.085,38.558 281.791,52.635C263.498,66.712 250.309,76.151 250.309,76.151ZM549.86,76.151C549.86,76.151 543.357,88.218 532.145,92.933C520.932,97.648 501.517,102.821 480.832,93.043C460.147,83.265 449.285,73.836 439.791,65.525C430.297,57.214 419.055,40.534 419.055,40.534L433.388,26.279L449.203,25.736C449.203,25.736 500.084,38.558 518.378,52.635C536.672,66.712 549.86,76.151 549.86,76.151Z" style="fill:none;stroke:black;stroke-width:2.1px;"/>
                <path d="M264.328,136.439C263.714,135.067 261.848,133.473 259.587,134.227C256.273,135.333 254.67,138.547 254.025,141.362C252.857,146.456 253.075,149.725 253.114,157.744C253.118,158.605 253.523,165.926 253.722,165.614C262.325,152.081 266.912,142.207 264.328,136.439Z" style="fill:rgb(177,140,191);stroke:black;stroke-width:2.1px;"/>
                <g transform="matrix(-1,0,0,1,799.993,0)">
                    <path d="M264.328,136.439C263.714,135.067 261.848,133.473 259.587,134.227C256.273,135.333 254.67,138.547 254.025,141.362C252.857,146.456 253.075,149.725 253.114,157.744C253.118,158.605 253.523,165.926 253.722,165.614C262.325,152.081 266.912,142.207 264.328,136.439Z" style="fill:rgb(177,140,191);stroke:black;stroke-width:2.1px;"/>
                </g>
                <g transform="matrix(1,0,0,1,30.927,1.86223)">
                    <path d="M263.639,136.385C263.025,135.013 261.436,133.459 259.175,134.214C255.861,135.319 253.959,138.323 253.314,141.138C252.146,146.232 252.938,148.814 254.075,156.752C254.486,159.627 256.786,168.88 256.932,168.541C264.257,151.558 266.223,142.153 263.639,136.385Z" style="fill:rgb(177,140,191);stroke:black;stroke-width:2.1px;"/>
                </g>
                <g transform="matrix(-1,0,0,1,769.066,1.86223)">
                    <path d="M263.639,136.385C263.025,135.013 261.436,133.459 259.175,134.214C255.861,135.319 253.959,138.323 253.314,141.138C252.146,146.232 252.938,148.814 254.075,156.752C254.486,159.627 256.786,168.88 256.932,168.541C264.257,151.558 266.223,142.153 263.639,136.385Z" style="fill:rgb(177,140,191);stroke:black;stroke-width:2.1px;"/>
                </g>
                <g transform="matrix(1,0,0,1,67.4356,-6.47128)">
                    <path d="M263.63,137.052C263.015,135.681 261.436,133.459 259.175,134.214C255.861,135.319 254.424,138.497 253.779,141.313C252.611,146.406 252.486,148.938 253.622,156.876C254.034,159.751 256.017,170.093 256.164,169.753C263.488,152.771 266.214,142.82 263.63,137.052Z" style="fill:rgb(177,140,191);stroke:black;stroke-width:2.1px;"/>
                </g>
                <g transform="matrix(-1,0,0,1,732.558,-6.47128)">
                    <path d="M263.63,137.052C263.015,135.681 261.436,133.459 259.175,134.214C255.861,135.319 254.424,138.497 253.779,141.313C252.611,146.406 252.486,148.938 253.622,156.876C254.034,159.751 256.017,170.093 256.164,169.753C263.488,152.771 266.214,142.82 263.63,137.052Z" style="fill:rgb(177,140,191);stroke:black;stroke-width:2.1px;"/>
                </g>
            </g>
            <path d="M391.487,22.829C396.708,22.299 402.391,22.299 408.537,22.829C428.732,24.396 463.921,29.665 497.565,47.067C548.805,73.569 572.364,95.426 583.178,125.101C593.993,154.775 629.756,365.28 674.416,494.804C719.076,624.328 715.568,652.435 712.368,671.144C698.621,751.533 655.684,860.703 655.684,860.703L626.717,886.081C626.717,886.081 587.011,664.426 582.85,644.232C578.69,624.038 573.405,551.477 572.921,514.008C572.437,476.539 573.64,419.296 562.74,401.494C551.839,383.692 535.31,366.627 483.824,376.415C439.716,384.8 427.773,391.27 406.623,393.309C406.094,393.737 393.929,393.737 393.4,393.309C372.25,391.27 360.307,384.8 316.199,376.415C264.713,366.627 248.184,383.692 237.284,401.494C226.383,419.296 227.586,476.539 227.102,514.008C226.618,551.477 221.334,624.038 217.173,644.232C213.012,664.426 167.762,904.817 167.762,904.817L125.917,824.048C125.917,824.048 80.983,702.749 86.371,662.529C87.473,654.299 80.948,624.328 125.608,494.804C170.267,365.28 206.031,154.775 216.845,125.101C227.659,95.426 251.218,73.569 302.458,47.067C336.103,29.665 371.291,24.396 391.487,22.829Z" style="fill:none;stroke:black;stroke-width:2.1px;"/>
        </g>
    </g>
</svg>
