<svg width="800px" height="800px" viewBox="0 0 800 800" version="2.0" xmlns="http://www.w3.org/2000/svg" style="fill-rule: evenodd; clip-rule: evenodd; stroke-linecap: round; stroke-linejoin: round; stroke-miterlimit: 1.5"><g id="normal-card"><rect id="bg" x="-48.418" y="-9.957" width="931.967" height="871.066" style="fill: rgb(6, 46, 66)" /><g id="rectangles" transform="matrix(1,0,0,1,49.4291,64.1339)"><g opacity="0.5"><g transform="matrix(0.660629,0,0,1.04551,351.522,-81.058)"><rect x="462.47" y="633.282" width="419.335" height="322.449" style="fill: none" /><clipPath id="_clip1_card_template"><rect x="462.47" y="633.282" width="419.335" height="322.449" /></clipPath><g clip-path="url(#_clip1_card_template)"><g transform="matrix(1.51371,0,0,0.956468,-452.99,37.369)"><path d="M604.78,633.282L877.032,634.306" style="fill: none; stroke: rgb(166, 240, 98); stroke-width: 4px; stroke-dasharray: 4.25, 7.5, 0, 0" /></g><g transform="matrix(1.51371,0,0,0.956468,-452.99,58.0423)"><path d="M604.78,633.282L877.032,634.306" style="fill: none; stroke: rgb(166, 240, 98); stroke-width: 4px; stroke-dasharray: 4.25, 7.5, 0, 0" /></g><g transform="matrix(1.51371,0,0,0.956468,-452.99,68.3789)"><path d="M604.78,633.282L877.032,634.306" style="fill: none; stroke: rgb(166, 240, 98); stroke-width: 4px; stroke-dasharray: 4.25, 7.5, 0, 0" /></g><g transform="matrix(1.51371,0,0,0.956468,-452.99,89.0522)"><path d="M604.78,633.282L877.032,634.306" style="fill: none; stroke: rgb(166, 240, 98); stroke-width: 4px; stroke-dasharray: 4.25, 7.5, 0, 0" /></g><g transform="matrix(1.51371,0,0,0.956468,-452.99,99.3888)"><path d="M604.78,633.282L877.032,634.306" style="fill: none; stroke: rgb(166, 240, 98); stroke-width: 4px; stroke-dasharray: 4.25, 7.5, 0, 0" /></g><g transform="matrix(1.51371,0,0,0.956468,-452.99,130.399)"><path d="M604.78,633.282L877.032,634.306" style="fill: none; stroke: rgb(166, 240, 98); stroke-width: 4px; stroke-dasharray: 4.25, 7.5, 0, 0" /></g><g transform="matrix(1.51371,0,0,0.956468,-452.99,151.072)"><path d="M604.78,633.282L877.032,634.306" style="fill: none; stroke: rgb(166, 240, 98); stroke-width: 4px; stroke-dasharray: 4.25, 7.5, 0, 0" /></g><g transform="matrix(1.51371,0,0,0.956468,-452.99,171.745)"><path d="M604.78,633.282L877.032,634.306" style="fill: none; stroke: rgb(166, 240, 98); stroke-width: 4px; stroke-dasharray: 4.25, 7.5, 0, 0" /></g></g><rect x="462.47" y="633.282" width="419.335" height="322.449" style="fill: none; stroke: rgb(166, 240, 98); stroke-width: 4.57px; stroke-dasharray: 4.86, 8.58, 0, 0" /></g><g transform="matrix(0.192707,0,0,1.04551,466.744,2.40586)"><rect x="462.47" y="633.282" width="419.335" height="322.449" style="fill: none" /><clipPath id="_clip2_card_template"><rect x="462.47" y="633.282" width="419.335" height="322.449" /></clipPath><g clip-path="url(#_clip2_card_template)"><g transform="matrix(1.51371,0,0,0.956468,-452.99,37.369)"><path d="M604.78,633.282L877.032,634.306" style="fill: none; stroke: rgb(237, 30, 121); stroke-width: 5.43px; stroke-dasharray: 5.77, 10.18, 0, 0" /></g><g transform="matrix(1.51371,0,0,0.956468,-452.99,58.0423)"><path d="M604.78,633.282L877.032,634.306" style="fill: none; stroke: rgb(237, 30, 121); stroke-width: 5.43px; stroke-dasharray: 5.77, 10.18, 0, 0" /></g><g transform="matrix(1.51371,0,0,0.956468,-452.99,68.3789)"><path d="M604.78,633.282L877.032,634.306" style="fill: none; stroke: rgb(237, 30, 121); stroke-width: 5.43px; stroke-dasharray: 5.77, 10.18, 0, 0" /></g><g transform="matrix(1.51371,0,0,0.956468,-452.99,89.0522)"><path d="M604.78,633.282L877.032,634.306" style="fill: none; stroke: rgb(237, 30, 121); stroke-width: 5.43px; stroke-dasharray: 5.77, 10.18, 0, 0" /></g></g><rect x="462.47" y="633.282" width="419.335" height="322.449" style="fill: none; stroke: rgb(237, 30, 121); stroke-width: 5.32px; stroke-dasharray: 5.65, 9.98, 0, 0" /></g></g></g><g id="circles" opacity="0.5"><g transform="matrix(1,0,0,1,-118.853,-94.5905)"><circle cx="155.124" cy="124.814" r="124.814" style="fill: none; stroke: rgb(255, 207, 0); stroke-width: 4px; stroke-dasharray: 4.25, 7.5, 0, 0" /></g><g transform="matrix(0.928318,0,0,0.928318,-107.734,-85.6437)"><circle cx="155.124" cy="124.814" r="124.814" style="fill: none; stroke: rgb(255, 207, 0); stroke-width: 4.31px; stroke-dasharray: 4.58, 8.08, 0, 0" /></g><g transform="matrix(0.691272,0,0,0.691272,-70.9623,-56.0571)"><circle cx="155.124" cy="124.814" r="124.814" style="fill: none; stroke: rgb(255, 108, 0); stroke-width: 5.79px; stroke-dasharray: 6.15, 10.85, 0, 0" /></g></g><g id="rarity-bars" transform="matrix(0.86723,0,0,0.86723,10.4494,88.5493)"><g id="rarity-bars-fill"><g transform="matrix(0.114833,0,0,0.114833,59.0756,653.445)"><path d="M400,117.517L629.266,249.774L629.266,514.685L400.192,646.941L400.192,647.052L400.096,646.997L400,647.052L400,646.941L170.925,514.685L170.925,249.774L400,117.517Z" style="fill: rgb(139, 57, 219)" /></g><g transform="matrix(0.114833,0,0,0.114833,126.648,653.445)"><path d="M400,117.517L629.266,249.774L629.266,514.685L400.192,646.941L400.192,647.052L400.096,646.997L400,647.052L400,646.941L170.925,514.685L170.925,249.774L400,117.517Z" style="fill: rgb(237, 30, 121)" /></g><g transform="matrix(0.114833,0,0,0.114833,194.22,653.445)"><path d="M400,117.517L629.266,249.774L629.266,514.685L400.192,646.941L400.192,647.052L400.096,646.997L400,647.052L400,646.941L170.925,514.685L170.925,249.774L400,117.517Z" style="fill: rgb(241, 90, 36)" /></g><g transform="matrix(0.114833,0,0,0.114833,261.792,653.445)"><!-- <path d="M400,117.517L629.266,249.774L629.266,514.685L400.192,646.941L400.192,647.052L400.096,646.997L400,647.052L400,646.941L170.925,514.685L170.925,249.774L400,117.517Z" style="fill: rgb(251, 176, 59)" /> --></g><g transform="matrix(0.114833,0,0,0.114833,329.364,653.445)"><!-- <path d="M400,117.517L629.266,249.774L629.266,514.685L400.192,646.941L400.192,647.052L400.096,646.997L400,647.052L400,646.941L170.925,514.685L170.925,249.774L400,117.517Z" style="fill: rgb(41, 171, 226)" /> --></g></g><g id="rarity-bars-stroke"><g transform="matrix(0.114833,0,0,0.114833,59.0756,653.445)"><path d="M400,117.517L629.266,249.774L629.266,514.685L400.192,646.941L400.192,647.052L400.096,646.997L400,647.052L400,646.941L170.925,514.685L170.925,249.774L400,117.517Z" style="fill: none; stroke: white; stroke-width: 34.83px" /></g><g transform="matrix(0.114833,0,0,0.114833,126.648,653.445)"><path d="M400,117.517L629.266,249.774L629.266,514.685L400.192,646.941L400.192,647.052L400.096,646.997L400,647.052L400,646.941L170.925,514.685L170.925,249.774L400,117.517Z" style="fill: none; stroke: white; stroke-width: 34.83px" /></g><g transform="matrix(0.114833,0,0,0.114833,194.22,653.445)"><path d="M400,117.517L629.266,249.774L629.266,514.685L400.192,646.941L400.192,647.052L400.096,646.997L400,647.052L400,646.941L170.925,514.685L170.925,249.774L400,117.517Z" style="fill: none; stroke: white; stroke-width: 34.83px" /></g><g transform="matrix(0.114833,0,0,0.114833,261.792,653.445)"><path d="M400,117.517L629.266,249.774L629.266,514.685L400.192,646.941L400.192,647.052L400.096,646.997L400,647.052L400,646.941L170.925,514.685L170.925,249.774L400,117.517Z" style="fill: none; stroke: white; stroke-width: 34.83px" /></g><g transform="matrix(0.114833,0,0,0.114833,329.364,653.445)"><path d="M400,117.517L629.266,249.774L629.266,514.685L400.192,646.941L400.192,647.052L400.096,646.997L400,647.052L400,646.941L170.925,514.685L170.925,249.774L400,117.517Z" style="fill: none; stroke: white; stroke-width: 34.83px" /></g></g></g><g transform="matrix(0.720342,0,0,0.720342,23.1337,330.63)"><text x="77.471px" y="439.84px" style="font-family: 'Futura-Medium', 'Futura', sans-serif; font-weight: 500; font-size: 50px; fill: white">RARITY</text></g><g transform="matrix(0.911866,0,0,0.911866,252.534,309.097)"><text x="190.763px" y="439.84px" style="font-family: 'Futura-Medium', 'Futura', sans-serif; font-weight: 500; font-size: 50px; fill: white" id="wear_value"></text></g><g transform="matrix(0.720342,0,0,0.720342,340.614,330.63)"><text x="77.471px" y="439.84px" style="font-family: 'Futura-Medium', 'Futura', sans-serif; font-weight: 500; font-size: 50px; fill: white">WEAR</text></g><g id="hat" transform="matrix(1.10125,0,0,1.10125,158.833,-78.5692)"><g transform="matrix(1,0,0,1,-51.9094,-2.83465)"><path d="M474.461,710.793C485.268,715.724 523.434,714.96 530.456,710.765" style="fill: none; stroke: white; stroke-width: 3px; stroke-linecap: butt" /></g><g transform="matrix(1,0,0,0.58812,-0.101996,292.708)"><rect x="433.636" y="663.946" width="33.608" height="46.716" style="fill: white" /></g></g><g transform="matrix(0.720342,0,0,0.720342,520.614,330.63)"><text x="124.102px" y="439.84px" style="font-family: 'Futura-Medium', 'Futura', sans-serif; font-weight: 500; font-size: 50px; fill: white">SLOT</text></g><g transform="matrix(1,0,0,1,-7.69409,0)"><path d="M82.194,602.738L733.196,602.258C733.979,602.258 734.615,601.621 734.614,600.838C734.614,600.055 733.977,599.42 733.194,599.42L82.192,599.9C81.409,599.901 80.773,600.537 80.774,601.321C80.775,602.104 81.411,602.739 82.194,602.738Z" style="fill: white" /></g><g transform="matrix(1,0,0,1,120.441,145.046)"><text x="77.471px" y="439.84px" style="font-family: 'Futura-Medium', 'Futura', sans-serif; font-weight: 500; font-size: 50px; fill: white">NINJA HEADBAND</text></g><path id="border" d="M800,801.235L800,-4.106L-0,-4.106L0,801.235L800,801.235ZM260.875,30.644L30.644,30.644C30.644,30.644 30.644,769.356 30.644,769.356C30.644,769.356 769.356,769.356 769.356,769.356L769.356,30.644L539.125,30.644L539.125,61.806L260.875,61.806L260.875,30.644Z" style="fill: rgb(0, 153, 197)" /><g id="guide" transform="matrix(1,0,0,1.04284,1.75676,-22.4672)"><rect x="82.193" y="95.569" width="632.101" height="428.927" style="fill: url(#_Linear3_card_template); stroke: rgb(0, 153, 197); stroke-width: 4.8px" /></g><g transform="translate(0,50)"><g id="ninja-headband" style="fill-rule: evenodd; clip-rule: evenodd; stroke-linecap: round; stroke-linejoin: round; stroke-miterlimit: 1.5"><path id="Shadow" d="M228.747,281.018C229.107,281.635 232.283,282 232.92,282.162C236.979,283.194 241.013,284.323 245.025,285.528C263.322,291.026 282.953,292.801 301.788,295.709C338.701,301.41 376.456,304.92 413.813,303.931C445.463,303.093 476.473,299.083 507.783,294.76C524.53,292.448 541.48,289.855 557.69,284.922C561.566,283.742 565.353,282.361 569.073,280.758C569.417,280.61 572.243,279.642 572.084,279.068C571.866,278.286 567.648,278.676 567.111,278.676C561.209,278.675 555.305,278.809 549.405,278.9C524.533,279.283 499.667,279.929 474.794,280.231C448.417,280.55 422.04,280.503 395.661,280.458C348.318,280.378 301.056,279.934 253.735,278.635" style="fill: rgb(56, 25, 57); fill-opacity: 0.5" /><g id="headband"><path d="M399.997,202.442C400.791,202.429 553.424,200.02 564.56,200.937C575.726,201.857 586.28,198.369 588.363,205.326C590.445,212.283 588.478,225.009 588.235,228.766C587.992,232.522 589.474,242.22 588.273,246.264C587.072,250.308 586.457,263.321 585.998,266.167C585.539,269.013 584.789,275.606 578.571,278.903C572.353,282.199 561.486,283.464 555.42,283.905C549.355,284.346 515.825,290.287 507.138,291.149C498.454,292.012 403.708,299.06 399.997,298.758C396.286,299.06 301.54,292.012 292.856,291.149C284.169,290.287 250.639,284.346 244.574,283.905C238.508,283.464 227.641,282.199 221.423,278.903C215.205,275.606 214.455,269.013 213.996,266.167C213.537,263.321 212.922,250.308 211.721,246.264C210.52,242.22 212.002,232.522 211.759,228.766C211.516,225.009 209.549,212.283 211.631,205.326C213.714,198.369 224.268,201.857 235.434,200.937C246.57,200.02 399.203,202.429 399.997,202.442Z" style="fill: rgb(71, 67, 66)" /><clipPath id="_clip1_ninja_headband"><path d="M399.997,202.442C400.791,202.429 553.424,200.02 564.56,200.937C575.726,201.857 586.28,198.369 588.363,205.326C590.445,212.283 588.478,225.009 588.235,228.766C587.992,232.522 589.474,242.22 588.273,246.264C587.072,250.308 586.457,263.321 585.998,266.167C585.539,269.013 584.789,275.606 578.571,278.903C572.353,282.199 561.486,283.464 555.42,283.905C549.355,284.346 515.825,290.287 507.138,291.149C498.454,292.012 403.708,299.06 399.997,298.758C396.286,299.06 301.54,292.012 292.856,291.149C284.169,290.287 250.639,284.346 244.574,283.905C238.508,283.464 227.641,282.199 221.423,278.903C215.205,275.606 214.455,269.013 213.996,266.167C213.537,263.321 212.922,250.308 211.721,246.264C210.52,242.22 212.002,232.522 211.759,228.766C211.516,225.009 209.549,212.283 211.631,205.326C213.714,198.369 224.268,201.857 235.434,200.937C246.57,200.02 399.203,202.429 399.997,202.442Z" /></clipPath><g clip-path="url(#_clip1_ninja_headband)"><g id="strokes"><path d="M536.34,218.459C536.737,218.059 538.779,218.295 539.273,218.275C542.12,218.159 544.966,218.075 547.815,218.029C558.662,217.856 569.5,218.293 580.327,217.439" style="fill: none; stroke: black; stroke-width: 2.1px" /><path d="M537.717,235.454C540.154,234.017 545.766,234.426 548.468,234.186C557.633,233.373 566.805,233.025 576.003,233.368C579.035,233.481 582.209,233.62 585.165,234.373C585.432,234.441 587.819,234.908 587.731,235.364C587.631,235.881 586.043,235.886 585.698,235.925C583.332,236.194 580.935,236.267 578.559,236.393C568.786,236.913 559.08,237.818 549.433,239.508" style="fill: none; stroke: black; stroke-width: 2.1px" /><path d="M534.567,263.13C536.888,261.613 543.65,262.379 546.328,262.218C556.406,261.612 566.513,261.093 576.608,260.868" style="fill: none; stroke: black; stroke-width: 2.1px" /><g transform="matrix(-1,0,0,1,799.329,0)"><path d="M536.34,218.459C536.737,218.059 538.779,218.295 539.273,218.275C542.12,218.159 544.966,218.075 547.815,218.029C558.662,217.856 569.5,218.293 580.327,217.439" style="fill: none; stroke: black; stroke-width: 2.1px" /></g><g transform="matrix(-1,0,0,1,799.329,0)"><path d="M537.717,235.454C540.154,234.017 545.766,234.426 548.468,234.186C557.633,233.373 566.805,233.025 576.003,233.368C579.035,233.481 582.209,233.62 585.165,234.373C585.432,234.441 587.819,234.908 587.731,235.364C587.631,235.881 586.043,235.886 585.698,235.925C583.332,236.194 580.935,236.267 578.559,236.393C568.786,236.913 559.08,237.818 549.433,239.508" style="fill: none; stroke: black; stroke-width: 2.1px" /></g><g transform="matrix(-1,0,0,1,799.329,0)"><path d="M534.567,263.13C536.888,261.613 543.65,262.379 546.328,262.218C556.406,261.612 566.513,261.093 576.608,260.868" style="fill: none; stroke: black; stroke-width: 2.1px" /></g></g><path d="M330.977,201.224C327.943,200.718 324.319,201.412 321.285,201.625C314.303,202.115 307.353,202.898 300.383,203.521C282.368,205.132 264.24,205.598 246.199,206.995C239.56,207.509 232.139,206.871 225.692,208.719C224.186,209.151 220.604,210.155 219.887,211.776C219.52,212.607 220.814,213.273 221.37,213.531C223.475,214.509 225.521,215.436 227.518,216.625C227.667,216.713 229.481,217.488 229.481,217.667C229.481,218.114 228.591,217.586 228.145,217.556C227.206,217.494 226.271,217.409 225.334,217.323C221.749,216.995 214.97,216.276 216.184,221.916C216.93,225.383 219.197,228.09 220.436,231.336C220.812,232.322 220.628,234.292 221.761,234.712C226.79,236.577 233.42,235.966 238.748,237.068C239.797,237.285 243.626,237.672 244.286,238.693C244.489,239.006 241.669,239.516 241.45,239.56C239.508,239.955 237.584,240.413 235.651,240.855C230.281,242.082 224.901,243.312 219.674,245.071C218.41,245.496 215.155,246.092 214.39,247.33C212.927,249.7 219.879,252.305 220.425,254.435C220.936,256.43 219.206,258.839 218.687,260.708C217.957,263.335 218.301,266.168 218.301,268.857C218.301,271.539 218.376,274.101 218.587,276.783C218.642,277.487 218.773,279.104 217.689,279.125C216.087,279.155 214.86,276.295 214.307,275.183C211.93,270.405 210.361,265.144 208.949,260.018C205.198,246.398 202.406,232.082 203.438,217.891C203.943,210.943 205.608,203.459 210.737,198.39C219.407,189.823 234.054,190.964 245.204,191.53C270.349,192.806 295.402,195.98 320.339,199.35L330.977,201.224ZM468.97,201.224C472.004,200.718 475.628,201.412 478.661,201.625C485.644,202.115 492.593,202.898 499.563,203.521C517.579,205.132 535.706,205.598 553.748,206.995C560.387,207.509 567.808,206.871 574.255,208.719C575.761,209.151 579.342,210.155 580.059,211.776C580.427,212.607 579.132,213.273 578.576,213.531C576.471,214.509 574.426,215.436 572.428,216.625C572.28,216.713 570.466,217.488 570.466,217.667C570.466,218.114 571.356,217.586 571.802,217.556C572.74,217.494 573.676,217.409 574.612,217.323C578.197,216.995 584.977,216.276 583.763,221.916C583.017,225.383 580.749,228.09 579.511,231.336C579.134,232.322 579.319,234.292 578.186,234.712C573.157,236.577 566.527,235.966 561.199,237.068C560.15,237.285 556.321,237.672 555.66,238.693C555.458,239.006 558.278,239.516 558.496,239.56C560.439,239.955 562.363,240.413 564.295,240.855C569.665,242.082 575.046,243.312 580.273,245.071C581.536,245.496 584.791,246.092 585.556,247.33C587.02,249.7 580.067,252.305 579.522,254.435C579.011,256.43 580.741,258.839 581.26,260.708C581.99,263.335 581.645,266.168 581.645,268.857C581.645,271.539 581.571,274.101 581.36,276.783C581.304,277.487 581.173,279.104 582.258,279.125C583.859,279.155 585.086,276.295 585.64,275.183C588.016,270.405 589.586,265.144 590.998,260.018C594.749,246.398 597.54,232.082 596.509,217.891C596.003,210.943 594.339,203.459 589.21,198.39C580.54,189.823 565.893,190.964 554.743,191.53C529.598,192.806 504.545,195.98 479.608,199.35L468.97,201.224Z" style="fill: rgb(183, 171, 155)" /><path d="M275.732,276.549C275.082,276.228 276.245,277.906 276.545,278.566C277.248,280.111 278.019,281.359 279.589,282.111C283.853,284.155 288.909,285.242 293.506,286.202C307.59,289.143 322.088,290.566 336.422,291.599C384.54,295.064 432.262,295.931 480.34,290.803C491.396,289.623 502.433,287.286 513.226,284.652C516.733,283.796 523.214,283.08 523.358,278.268C523.52,272.833 514.587,275.556 511.425,275.802C510.069,275.908 508.712,276.016 507.356,276.128C505.771,276.258 504.186,276.391 502.602,276.526C478.437,278.578 454.25,280.506 430.023,281.655C396.75,283.233 362.674,284.32 329.526,280.243C317.455,278.759 305.587,276.158 293.688,273.704C288.791,272.695 281.926,269.953 276.781,270.786L275.732,276.549ZM222.466,261.471C222.722,261.607 223.214,262.069 223.484,262.217C224.244,262.633 225.031,263.007 225.806,263.394C228.194,264.588 230.636,265.703 233.146,266.619C240.648,269.357 248.428,265.655 255.941,264.334C257.899,263.989 259.868,263.693 261.844,263.478C261.971,263.465 263.615,263.321 263.588,263.148C263.553,262.922 261.688,262.919 261.512,262.909C259.023,262.775 256.529,262.698 254.039,262.588C243.86,262.139 233.631,260.951 223.442,260.957L222.466,261.471ZM577.669,261.471C577.412,261.607 576.92,262.069 576.65,262.217C575.89,262.633 575.103,263.007 574.329,263.394C571.94,264.588 569.498,265.703 566.988,266.619C559.486,269.357 551.706,265.655 544.193,264.334C542.236,263.989 540.266,263.693 538.29,263.478C538.163,263.465 536.52,263.321 536.546,263.148C536.581,262.922 538.447,262.919 538.622,262.909C541.112,262.775 543.605,262.698 546.096,262.588C556.274,262.139 566.503,260.951 576.692,260.957L577.669,261.471ZM222.466,261.471L222.307,261.555C222.279,261.415 222.347,261.409 222.466,261.471ZM577.669,261.471L577.827,261.555C577.855,261.415 577.787,261.409 577.669,261.471ZM216.428,233.749C216.579,233.726 217.123,233.616 217.346,233.593C217.935,233.532 218.527,233.493 219.118,233.461C220.883,233.365 222.653,233.334 224.42,233.31C229.831,233.236 235.209,233.515 240.608,233.837C248.787,234.325 256.951,235.151 265.143,235.439C267.233,235.513 269.326,235.504 271.417,235.556C272.202,235.576 273.389,235.473 274.044,236.01C275.014,236.805 274.47,239.893 274.474,240.963C274.493,245.429 275.681,251.201 274.279,255.548C274.061,256.223 272.091,255.297 271.741,255.186C268.972,254.311 266.157,253.568 263.328,252.914C260.642,252.293 257.946,251.72 255.249,251.144C255.067,251.105 252.9,250.743 252.953,250.509C253.085,249.921 255.672,249.596 256.1,249.51C259.63,248.798 263.247,248.232 266.845,248.037C267.439,248.005 272.155,247.867 271.613,247.499C268.835,245.61 265.33,244.434 262.222,243.249C251.852,239.298 240.598,237.939 229.614,236.899C226.459,236.601 223.299,236.393 220.133,236.277C218.145,236.204 215.967,236.347 214.07,235.663L216.428,233.749ZM583.706,233.749C583.556,233.726 583.011,233.616 582.788,233.593C582.199,233.532 581.607,233.493 581.016,233.461C579.251,233.365 577.481,233.334 575.714,233.31C570.303,233.236 564.926,233.515 559.527,233.837C551.347,234.325 543.183,235.151 534.991,235.439C532.901,235.513 530.808,235.504 528.717,235.556C527.932,235.576 526.745,235.473 526.09,236.01C525.12,236.805 525.664,239.893 525.66,240.963C525.642,245.429 524.453,251.201 525.856,255.548C526.073,256.223 528.043,255.297 528.394,255.186C531.162,254.311 533.977,253.568 536.806,252.914C539.493,252.293 542.188,251.72 544.885,251.144C545.067,251.105 547.234,250.743 547.181,250.509C547.049,249.921 544.463,249.596 544.034,249.51C540.504,248.798 536.887,248.232 533.289,248.037C532.696,248.005 527.979,247.867 528.521,247.499C531.3,245.61 534.804,244.434 537.913,243.249C548.282,239.298 559.536,237.939 570.52,236.899C573.675,236.601 576.835,236.393 580.002,236.277C581.989,236.204 584.167,236.347 586.064,235.663L583.706,233.749ZM216.428,233.749L216.447,233.734C216.371,233.755 216.375,233.757 216.428,233.749ZM583.706,233.749L583.687,233.734C583.763,233.755 583.759,233.757 583.706,233.749ZM224.837,218.347C225.115,218.376 227.251,218.306 227.394,218.304C230.446,218.246 233.496,218.186 236.548,218.153C247.595,218.033 258.639,218.584 269.689,218.457C271.392,218.438 279.408,217.16 279.389,220.169C279.356,225.454 269.901,222.856 266.962,222.649C253.831,221.722 240.356,221.334 227.387,218.96L224.837,218.347C224.818,218.345 224.808,218.343 224.807,218.34L224.837,218.347Z" style="fill: rgb(40, 37, 44)" /></g><path d="M399.997,202.442C400.791,202.429 553.424,200.02 564.56,200.937C575.726,201.857 586.28,198.369 588.363,205.326C590.445,212.283 588.478,225.009 588.235,228.766C587.992,232.522 589.474,242.22 588.273,246.264C587.072,250.308 586.457,263.321 585.998,266.167C585.539,269.013 584.789,275.606 578.571,278.903C572.353,282.199 561.486,283.464 555.42,283.905C549.355,284.346 515.825,290.287 507.138,291.149C498.454,292.012 403.708,299.06 399.997,298.758C396.286,299.06 301.54,292.012 292.856,291.149C284.169,290.287 250.639,284.346 244.574,283.905C238.508,283.464 227.641,282.199 221.423,278.903C215.205,275.606 214.455,269.013 213.996,266.167C213.537,263.321 212.922,250.308 211.721,246.264C210.52,242.22 212.002,232.522 211.759,228.766C211.516,225.009 209.549,212.283 211.631,205.326C213.714,198.369 224.268,201.857 235.434,200.937C246.57,200.02 399.203,202.429 399.997,202.442Z" style="fill: none; stroke: black; stroke-width: 2.1px" /><path d="M402.246,206.286C415.635,206.47 459.642,207.034 466.172,206.632C473.89,206.157 517.082,204.546 521.829,211.798C526.576,219.05 527.086,239.103 526.782,249.445C526.478,259.787 526.529,272.629 523.089,276.776C519.65,280.923 472.396,289.138 454.529,289.721C438.082,290.257 407.24,293.152 400.315,292.275C393.39,293.152 362.548,290.257 346.101,289.721C328.234,289.138 280.98,280.923 277.54,276.776C274.101,272.629 274.152,259.787 273.848,249.445C273.543,239.103 274.054,219.05 278.801,211.798C283.548,204.546 326.74,206.157 334.457,206.632C340.987,207.034 384.995,206.47 398.383,206.286L398.386,206.232L400.315,206.26L402.244,206.232L402.246,206.286Z" style="fill: rgb(201, 221, 228)" /><clipPath id="_clip2_ninja_headband"><path d="M402.246,206.286C415.635,206.47 459.642,207.034 466.172,206.632C473.89,206.157 517.082,204.546 521.829,211.798C526.576,219.05 527.086,239.103 526.782,249.445C526.478,259.787 526.529,272.629 523.089,276.776C519.65,280.923 472.396,289.138 454.529,289.721C438.082,290.257 407.24,293.152 400.315,292.275C393.39,293.152 362.548,290.257 346.101,289.721C328.234,289.138 280.98,280.923 277.54,276.776C274.101,272.629 274.152,259.787 273.848,249.445C273.543,239.103 274.054,219.05 278.801,211.798C283.548,204.546 326.74,206.157 334.457,206.632C340.987,207.034 384.995,206.47 398.383,206.286L398.386,206.232L400.315,206.26L402.244,206.232L402.246,206.286Z" /></clipPath><g clip-path="url(#_clip2_ninja_headband)"><path d="M356.042,291.583C355.589,291.545 356.631,290.886 356.89,290.512C357.421,289.745 357.928,288.959 358.426,288.17C359.888,285.854 361.197,283.47 362.49,281.057C366.505,273.571 370.837,266.267 374.847,258.778C381.84,245.719 389.783,233.021 397.642,220.469C399.74,217.118 401.842,213.768 403.996,210.453C405.089,208.771 406.108,206.616 407.878,205.538C412.143,202.94 419.023,203.702 423.793,203.36C427.895,203.066 431.988,202.655 436.092,202.384C437.121,202.316 439.741,201.745 440.677,202.425C441.026,202.679 440.029,203.178 439.898,203.251C438.724,203.901 433.191,209.311 431.88,211.769C426.852,221.201 403.158,268.997 395.772,283.157C393.884,286.777 391.348,291.345 389.364,294.914C388.093,297.202 385.232,297.574 382.571,298.366C379.462,299.291 376.091,298.244 373.115,297.313L356.042,291.583ZM459.604,207.245C459.54,207.274 459.497,207.333 459.48,207.431L459.604,207.245C459.924,207.098 460.756,207.696 461.252,207.767C462.503,207.944 463.755,208.107 465.008,208.269C468.695,208.748 472.437,208.917 476.152,209.009C481.57,209.143 486.985,209.139 492.396,209.488C492.919,209.522 497.133,209.43 497.253,210.162C497.524,211.807 493.203,216.536 492.361,218.033C487.84,226.074 483.659,234.274 479.397,242.453C478.082,244.976 476.903,247.537 475.817,250.165C475.75,250.328 474.878,252.521 475.059,252.57C475.392,252.659 476.835,250.118 476.985,249.903C479.049,246.928 481.151,243.979 483.223,241.01C488.205,233.871 492.812,226.227 497.357,218.799C498.655,216.678 500.315,211.077 502.5,209.815C504.085,208.9 507.221,209.652 508.953,209.672C512.026,209.706 515.066,209.941 518.073,210.608C518.835,210.778 520.628,211.003 520.99,211.872C521.347,212.728 519.677,214.85 519.328,215.599C517.495,219.529 515.385,223.302 513.367,227.138C505.135,242.788 495.726,257.837 487.791,273.618C485.399,278.375 483.101,283.172 480.791,287.968C480.396,288.786 478.356,291.859 478.999,292.813C479.63,293.749 482.12,293.072 482.944,292.889C487.065,291.972 493.152,290.675 496.454,287.911C500.179,284.792 502.083,277.799 504.279,273.642C510.427,262.002 516.371,250.349 521.925,238.406C525.434,230.86 531.494,217.683 525.9,209.615C522.993,205.422 515.022,204.311 510.626,203.256C495.397,199.6 479.49,198.357 463.962,200.667L459.604,207.245ZM337.54,288.855C337.757,287.318 339.878,285.166 340.694,283.938C343.311,279.997 345.871,276.023 348.419,272.036C350.737,268.409 353.055,264.781 355.51,261.244C358.031,257.611 360.672,254.073 363.437,250.621C364.064,249.838 364.688,249.054 365.322,248.278C365.363,248.228 365.924,247.53 365.979,247.585C366.152,247.759 364.991,249.414 364.892,249.579C363.653,251.64 362.428,253.709 361.194,255.773C355.899,264.625 351.002,273.71 345.84,282.64C344.346,285.224 342.875,287.823 341.341,290.384C340.737,291.394 340.028,292.849 338.626,292.717L337.54,288.855ZM286.112,208.031C286.029,207.916 285.307,208.606 285.228,208.679C284.347,209.478 283.452,210.368 282.839,211.393C280.394,215.484 279.953,220.763 279.245,225.367C278.045,233.166 277.396,240.929 277.173,248.809C277.052,253.109 276.897,258.154 277.877,262.377C277.97,262.778 278.955,261.748 279.046,261.67C280.316,260.573 281.627,259.528 282.922,258.461C287.215,254.925 291.325,251.461 296.122,248.618C297.196,247.981 298.262,247.335 299.324,246.678C299.414,246.622 300.283,246.018 300.393,246.183C300.534,246.394 299.488,247.407 299.377,247.53C298.172,248.859 296.863,250.104 295.541,251.314C290.102,256.296 278.252,265.507 278.252,265.507C278.252,265.507 278.224,268.485 278.243,269.794C278.287,272.662 278.317,275.519 278.725,278.356C278.922,279.726 278.665,280.543 278.795,281.921C278.804,282.017 278.936,283.135 278.696,283.082C277.744,282.872 277.068,279.416 276.878,278.732C275.566,274.016 274.751,269.177 274.1,264.332C272.162,249.907 270.453,233.818 273.735,219.459C274.896,214.382 278.366,206.333 284.6,205.994L286.112,208.031ZM462.694,279.832C462.326,278.902 465.731,274.706 466.297,273.899C466.574,273.505 467.296,272.448 467.906,272.937C470.234,274.802 466.067,278.334 465.045,279.713C464.858,279.966 463.768,281.898 463.381,281.919C463.264,281.925 463.066,281.018 463.05,280.921L462.694,279.832ZM321.646,207.145C321.668,206.972 321.419,207.41 321.309,207.544C321.068,207.837 320.841,208.136 320.584,208.416C319.814,209.254 319.054,210.095 318.203,210.855C315.662,213.128 313.008,215.243 310.571,217.634C304.096,223.986 298.163,230.506 292.43,237.54C291.052,239.231 289.678,240.926 288.369,242.672C288.27,242.804 287.151,244.144 287.312,244.305C287.417,244.409 288.313,243.735 288.402,243.675C289.59,242.867 290.745,242.01 291.912,241.173C296.694,237.742 301.525,234.386 306.245,230.87C313.88,225.182 321.575,219.601 329.329,214.075C332.298,211.959 335.286,209.862 338.358,207.896C338.582,207.753 341.074,206.363 340.891,206.073C340.566,205.555 338.511,205.846 338.041,205.853C334.988,205.894 331.931,206.153 328.884,206.336L321.646,207.145Z" style="fill: white" /><path d="M406.359,291.642L415.811,270.551C415.811,270.551 428.716,278.933 443.751,274.857C442.781,278.141 438.138,290.564 438.138,290.564L406.359,291.642ZM389.651,291.439L404.101,262.147L406.538,264.407L392.973,291.608L389.651,291.439ZM298.415,283.547C313.157,258.247 329.134,233.676 347.008,210.222L369.15,210.628L365.19,217.218C365.19,217.218 345.14,215.719 336.353,232.759C327.566,249.799 335.313,259.406 336.771,263.524C334.094,267.097 321.455,289.179 321.455,289.179L298.415,283.547ZM524.993,227.476L499.729,282.869L512.174,280.394L525.572,253.361L524.993,227.476ZM282.155,271.364C282.155,271.364 282.675,276.963 284.024,278.33C285.373,279.696 287.654,280.343 288.583,279.067C289.512,277.79 291.538,274.211 291.538,274.211C291.538,274.211 287.601,275.785 285.806,275.1C284.011,274.414 282.155,271.364 282.155,271.364ZM422.9,254.167L432.617,233.298C432.617,233.298 438.486,229.879 447.706,235.461C453.324,238.864 454.148,248.707 447.341,255.529C444.325,258.55 436.743,259.817 430.515,257.393C424.287,254.969 422.9,254.167 422.9,254.167ZM412.164,247.036L413.701,243.864L419.875,238.572L414.635,248.543L412.164,247.036ZM347.56,244.183C347.56,244.183 347.39,239.918 348.954,237.645C350.517,235.372 355.466,232.907 355.466,232.907L347.56,244.183ZM312.287,209.435L298.906,229.361L319.932,209.172L312.287,209.435ZM441.101,217.529L445.012,209.956L472.765,209.81L464.456,229.015C464.456,229.015 460.8,222.651 451.872,219.637C446.868,217.948 441.101,217.529 441.101,217.529ZM283.093,215.6C283.093,215.6 282.326,220.924 284.312,223.325C286.299,225.726 287.591,225.481 289.259,223.997C290.928,222.513 293.213,216.696 293.241,216.337C293.269,215.978 289.304,220.168 287.175,219.625C285.046,219.082 283.093,215.6 283.093,215.6ZM506.997,214.986C506.649,216.014 506.854,217.911 506.903,219.053C506.949,220.115 507.118,221.502 507.636,222.435C509.505,225.804 513.727,222.687 515.055,220.663C515.51,219.969 515.897,218.927 515.825,218.833C515.723,218.701 513.725,219.399 513.504,219.429C511.774,219.668 510.185,219.332 508.823,218.214L506.997,214.986ZM427.504,218.876L432.597,209.978L435.925,209.961L431.411,218.286L427.504,218.876Z" style="fill: rgb(129, 158, 164)" /><g transform="matrix(1,0,0,1,-0.188361,0)"><path d="M400.188,240.239C403.136,236.337 419.03,217.019 442.647,220.016C468.586,223.308 474.958,249.266 457.659,265.107C442.741,278.768 423.348,273.621 411.337,264.404C405.661,260.049 401.602,256.052 400.188,254.609C398.774,256.052 394.716,260.049 389.04,264.404C377.028,273.621 357.636,278.768 342.718,265.107C325.419,249.266 331.791,223.308 357.729,220.016C381.346,217.019 397.241,236.337 400.188,240.239ZM406.971,246.658C406.971,246.658 418.574,230.525 434.075,229.677C449.576,228.83 457.366,237.218 454.503,248.8C451.64,260.382 439.231,263.104 429.147,259.777C419.063,256.45 406.971,246.658 406.971,246.658ZM393.405,246.658C393.405,246.658 381.803,230.525 366.302,229.677C350.801,228.83 343.011,237.218 345.874,248.8C348.737,260.382 361.146,263.104 371.23,259.777C381.314,256.45 393.405,246.658 393.405,246.658Z" style="fill: rgb(129, 158, 164); stroke: black; stroke-width: 2.1px" /></g><g id="Scratches"><path d="M318.768,216.42C318.153,216.466 316.498,219.303 316.15,219.736C313.387,223.174 310.72,226.692 308.074,230.22" style="fill: none; stroke: black; stroke-width: 1.2px" /><path d="M320.051,219.696C320.13,219.354 319.817,220.358 319.702,220.69C319.483,221.327 319.274,221.967 319.063,222.606C318.425,224.542 317.788,226.481 317.214,228.437" style="fill: none; stroke: black; stroke-width: 1.2px" /><path d="M328.972,215.544C328.882,215.525 328.138,217.275 328.088,217.384" style="fill: none; stroke: black; stroke-width: 1.2px" /><path d="M303.888,265.214C303.912,265.189 305.058,266.666 305.131,266.761" style="fill: none; stroke: black; stroke-width: 1.2px" /><path d="M318.312,270.187C317.655,270.837 317.354,272.867 317.081,273.727" style="fill: none; stroke: black; stroke-width: 1.2px" /><path d="M478.817,217.154C478.948,217.111 479.598,217.86 479.685,217.946" style="fill: none; stroke: black; stroke-width: 1.2px" /><path d="M491.987,229.762C491.406,231.505 489.924,233.291 489.019,234.876C486.976,238.456 484.973,242.06 482.979,245.667" style="fill: none; stroke: black; stroke-width: 1.2px" /><path d="M494.786,236.726C494.596,236.749 494.036,238.195 493.948,238.357C492.992,240.11 492.071,241.893 491.031,243.597" style="fill: none; stroke: black; stroke-width: 1.2px" /><path d="M478.817,274.813C478.832,274.825 477.933,276.601 477.878,276.724" style="fill: none; stroke: black; stroke-width: 1.2px" /></g><g id="Screws"><g transform="matrix(1,0,0,1,-0.753959,0.151398)"><ellipse cx="288.868" cy="215.408" rx="4.221" ry="4.327" style="fill: rgb(201, 221, 228)" /><clipPath id="_clip3_ninja_headband"><ellipse cx="288.868" cy="215.408" rx="4.221" ry="4.327" /></clipPath><g clip-path="url(#_clip3_ninja_headband)"><g transform="matrix(1,0,0,1,-223.715,-56.1356)"><path d="M513.054,268.88C510.972,269.213 512.283,272.02 514.01,272.076C515.669,272.13 514.792,269.136 513.548,268.845" style="fill: white" /></g></g><ellipse cx="288.868" cy="215.408" rx="4.221" ry="4.327" style="fill: none; stroke: black; stroke-width: 2.1px" /></g><g transform="matrix(1,0,0,1,-1.46262,55.9585)"><ellipse cx="288.868" cy="215.408" rx="4.221" ry="4.327" style="fill: rgb(201, 221, 228)" /><clipPath id="_clip4_ninja_headband"><ellipse cx="288.868" cy="215.408" rx="4.221" ry="4.327" /></clipPath><g clip-path="url(#_clip4_ninja_headband)"><g transform="matrix(1,0,0,1,-223.36,-55.9585)"><path d="M513.054,268.88C510.972,269.213 512.283,272.02 514.01,272.076C515.669,272.13 514.792,269.136 513.548,268.845" style="fill: white" /></g></g><ellipse cx="288.868" cy="215.408" rx="4.221" ry="4.327" style="fill: none; stroke: black; stroke-width: 2.1px" /></g><g transform="matrix(1,0,0,1,223.183,0.151398)"><ellipse cx="288.868" cy="215.408" rx="4.221" ry="4.327" style="fill: rgb(201, 221, 228)" /><clipPath id="_clip5_ninja_headband"><ellipse cx="288.868" cy="215.408" rx="4.221" ry="4.327" /></clipPath><g clip-path="url(#_clip5_ninja_headband)"><g transform="matrix(1,0,0,1,-223.537,-56.1356)"><path d="M513.054,268.88C510.972,269.213 512.283,272.02 514.01,272.076C515.669,272.13 514.792,269.136 513.548,268.845" style="fill: white" /></g></g><ellipse cx="288.868" cy="215.408" rx="4.221" ry="4.327" style="fill: none; stroke: black; stroke-width: 2.1px" /></g><g transform="matrix(1,0,0,1,223.537,55.9585)"><ellipse cx="288.868" cy="215.408" rx="4.221" ry="4.327" style="fill: rgb(201, 221, 228)" /><clipPath id="_clip6_ninja_headband"><ellipse cx="288.868" cy="215.408" rx="4.221" ry="4.327" /></clipPath><g clip-path="url(#_clip6_ninja_headband)"><g transform="matrix(1,0,0,1,-223.537,-55.9585)"><path d="M513.054,268.88C510.972,269.213 512.283,272.02 514.01,272.076C515.669,272.13 514.792,269.136 513.548,268.845" style="fill: white" /></g></g><ellipse cx="288.868" cy="215.408" rx="4.221" ry="4.327" style="fill: none; stroke: black; stroke-width: 2.1px" /></g></g></g><path d="M402.246,206.286C415.635,206.47 459.642,207.034 466.172,206.632C473.89,206.157 517.082,204.546 521.829,211.798C526.576,219.05 527.086,239.103 526.782,249.445C526.478,259.787 526.529,272.629 523.089,276.776C519.65,280.923 472.396,289.138 454.529,289.721C438.082,290.257 407.24,293.152 400.315,292.275C393.39,293.152 362.548,290.257 346.101,289.721C328.234,289.138 280.98,280.923 277.54,276.776C274.101,272.629 274.152,259.787 273.848,249.445C273.543,239.103 274.054,219.05 278.801,211.798C283.548,204.546 326.74,206.157 334.457,206.632C340.987,207.034 384.995,206.47 398.383,206.286L398.386,206.232L400.315,206.26L402.244,206.232L402.246,206.286Z" style="fill: none; stroke: black; stroke-width: 2.1px" /></g></g><defs><linearGradient id="_Linear5" x1="0" y1="0" x2="1" y2="0" gradientUnits="userSpaceOnUse" gradientTransform="matrix(0.676239,212.321,-212.321,0.676239,399.671,115.988)"><stop offset="0" style="stop-color: rgb(236, 65, 81); stop-opacity: 1" /><stop offset="0.5" style="stop-color: rgb(220, 55, 76); stop-opacity: 1" /><stop offset="1" style="stop-color: rgb(172, 27, 60); stop-opacity: 1" /></linearGradient><linearGradient id="_Linear7" x1="0" y1="0" x2="1" y2="0" gradientUnits="userSpaceOnUse" gradientTransform="matrix(0.676239,174.104,-174.104,0.676239,399.671,95.0041)"><stop offset="0" style="stop-color: rgb(245, 249, 251); stop-opacity: 1" /><stop offset="0.59" style="stop-color: rgb(226, 236, 243); stop-opacity: 1" /><stop offset="0.81" style="stop-color: rgb(183, 208, 225); stop-opacity: 1" /><stop offset="1" style="stop-color: rgb(140, 180, 206); stop-opacity: 1" /></linearGradient><linearGradient id="_Linear8" x1="0" y1="0" x2="1" y2="0" gradientUnits="userSpaceOnUse" gradientTransform="matrix(6.8912e-15,-112.542,112.542,6.8912e-15,399.671,269.108)"><stop offset="0" style="stop-color: rgb(236, 65, 81); stop-opacity: 1" /><stop offset="0.46" style="stop-color: rgb(227, 63, 84); stop-opacity: 1" /><stop offset="1" style="stop-color: rgb(203, 57, 90); stop-opacity: 1" /></linearGradient></defs></g><g transform="matrix(1,0,0,1,7.6296,-2.65748)"><text x="263.72px" y="53.076px" style="font-family: 'Futura-Medium', 'Futura', sans-serif; font-weight: 500; font-size: 50px; fill: white">SEASON 0</text></g></g><defs><linearGradient id="_Linear3_card_template" x1="0" y1="0" x2="1" y2="0" gradientUnits="userSpaceOnUse" gradientTransform="matrix(3.89688e-14,-610.267,636.408,3.73681e-14,398.243,614.74)"><stop offset="0" style="stop-color: rgb(80, 225, 255); stop-opacity: 1" /><stop offset="0.44" style="stop-color: rgb(219, 249, 255); stop-opacity: 1" /><stop offset="1" style="stop-color: white; stop-opacity: 1" /></linearGradient></defs></svg>