<svg width="100%" height="100%" viewBox="0 0 800 800" version="1.1" xmlns="http://www.w3.org/2000/svg" style="fill-rule: evenodd; clip-rule: evenodd; stroke-linejoin: round; stroke-miterlimit: 1.5">
  <g id="accessories-front">
    <g id="cronic-eyepatch">
      <path
        id="shadow"
        d="M411.161,322.484C414.446,323.606 412.626,381.689 458.338,403.888C498.894,423.584 531.852,397.8 545.828,381.374C559.805,364.949 564.636,333.59 564.636,333.59C564.636,333.59 427.437,322.538 386.105,307.15C344.773,291.762 221.473,234.41 221.473,234.41L221.396,240.059C221.396,240.059 226.811,259.558 411.161,322.484Z"
        style="fill: rgb(56, 25, 57); fill-opacity: 0.5"
      />
      <path
        id="strap"
        d="M419.165,322.329C419.165,322.329 241.312,262.673 221.376,238.642C219.48,228.395 221.313,225.422 221.313,225.422C221.313,225.422 266.691,255.324 421.761,311.128C424.698,318.684 419.165,322.329 419.165,322.329Z"
        style="fill: rgb(53, 53, 53)"
      />
      <clipPath id="Cronic-eye-patch_0">
        <path
          id="strap1"
          d="M419.165,322.329C419.165,322.329 241.312,262.673 221.376,238.642C219.48,228.395 221.313,225.422 221.313,225.422C221.313,225.422 266.691,255.324 421.761,311.128C424.698,318.684 419.165,322.329 419.165,322.329Z"
        />
      </clipPath>
      <g clip-path="url(#Cronic-eye-patch_0)">
        <path
          d="M217.434,223.531C218.174,220.92 219.555,218.604 221.797,216.848C221.797,216.848 230.618,218.349 230.405,220.384C230.218,222.169 230.011,224.444 229.829,226.943L380.58,268.446L471.5,324.333C471.5,324.333 495.367,344.696 353.863,288.054C283.502,259.89 247.68,243.321 229.442,233.774C229.256,238.573 229.279,243.334 229.776,246.509C230.17,249.028 229.607,251.606 230.042,254.118C230.519,256.868 230.019,257.261 229.712,257.248C229.06,257.221 227.712,254.45 227.28,254.057C225.189,252.153 223.456,249.987 222.061,247.526C219.106,242.312 216.137,233.852 216.852,226.661C210.732,222.793 210.548,221.635 210.548,221.635L217.434,223.531Z"
          style="fill: rgb(252, 255, 216); fill-opacity: 0.6"
        />
      </g>
      <path
        id="strap2"
        d="M419.165,322.329C419.165,322.329 241.312,262.673 221.376,238.642C219.48,228.395 221.313,225.422 221.313,225.422C221.313,225.422 266.691,255.324 421.761,311.128C424.698,318.684 419.165,322.329 419.165,322.329Z"
        style="fill: none; stroke: black; stroke-width: 2.1px"
      />
      <g transform="matrix(0.123241,-0.877408,0.867414,0.121837,51.8059,719.095)">
        <path
          d="M520.792,346.6C462.848,346.6 415.804,385.487 415.804,433.386C415.804,481.285 462.848,520.173 520.792,520.173C520.937,491.316 521.055,462.362 521.055,433.386C521.055,404.41 520.937,375.456 520.792,346.6Z"
          style="fill: rgb(53, 53, 53)"
        />
        <clipPath id="Cronic-eye-patch_1">
          <path
            d="M520.792,346.6C462.848,346.6 415.804,385.487 415.804,433.386C415.804,481.285 462.848,520.173 520.792,520.173C520.937,491.316 521.055,462.362 521.055,433.386C521.055,404.41 520.937,375.456 520.792,346.6Z"
          />
        </clipPath>
        <g clip-path="url(#Cronic-eye-patch_1)">
          <g id="inner-design-4" transform="matrix(-0.00225532,-0.255785,0.252872,-0.0022813,388.991,537.622)">
            <g transform="matrix(0.665952,-0.665952,0.665952,0.665952,-87.8597,380.8)">
              <path d="M400,86.373L400,578.195" style="fill: none; stroke: rgb(179, 68, 67); stroke-width: 39.39px" />
            </g>
            <g transform="matrix(-0.68633,-0.68633,0.666738,-0.666738,452.985,831.977)">
              <path d="M400,86.373L400,578.195" style="fill: none; stroke: rgb(179, 68, 67); stroke-width: 38.77px" />
            </g>
            <g transform="matrix(-0.970617,6.93889e-18,6.38378e-16,-0.942911,788.247,649.213)">
              <path d="M400,86.373L400,578.195" style="fill: none; stroke: rgb(179, 68, 67); stroke-width: 38.77px" />
            </g>
            <g transform="matrix(-1.36002e-15,-0.970617,0.942911,-6.80012e-16,86.6856,724.145)">
              <path d="M400,86.373L400,578.195" style="fill: none; stroke: rgb(179, 68, 67); stroke-width: 38.77px" />
            </g>
            <g transform="matrix(-1.2356,-1.51317e-16,1.87782e-16,-1.53336,784.53,1644.57)">
              <path d="M311.366,643.402L343.454,680.713L311.366,718.023L279.277,680.713L311.366,643.402Z" style="fill: none; stroke: rgb(179, 68, 67); stroke-width: 26.64px" />
            </g>
            <g transform="matrix(-0.873702,0.873702,-1.08425,-1.08425,1597.22,989.229)">
              <path d="M311.366,643.402L343.454,680.713L311.366,718.023L279.277,680.713L311.366,643.402Z" style="fill: none; stroke: rgb(179, 68, 67); stroke-width: 26.64px" />
            </g>
            <g transform="matrix(-3.33067e-16,1.2356,-1.53336,-7.77156e-16,1708.48,-48.8254)">
              <path d="M311.366,643.402L343.454,680.713L311.366,718.023L279.277,680.713L311.366,643.402Z" style="fill: none; stroke: rgb(179, 68, 67); stroke-width: 26.64px" />
            </g>
            <g transform="matrix(0.873702,0.873702,-1.08425,1.08425,1053.14,-861.514)">
              <path d="M311.366,643.402L343.454,680.713L311.366,718.023L279.277,680.713L311.366,643.402Z" style="fill: none; stroke: rgb(179, 68, 67); stroke-width: 26.64px" />
            </g>
            <g transform="matrix(1.2356,7.77156e-16,-8.88178e-16,1.53336,15.083,-972.775)">
              <path d="M311.366,643.402L343.454,680.713L311.366,718.023L279.277,680.713L311.366,643.402Z" style="fill: none; stroke: rgb(179, 68, 67); stroke-width: 26.64px" />
            </g>
            <g transform="matrix(0.873702,-0.873702,1.08425,1.08425,-797.606,-317.433)">
              <path d="M311.366,643.402L343.454,680.713L311.366,718.023L279.277,680.713L311.366,643.402Z" style="fill: none; stroke: rgb(179, 68, 67); stroke-width: 26.64px" />
            </g>
            <g transform="matrix(9.99201e-16,-1.2356,1.53336,1.55431e-15,-908.867,720.622)">
              <path d="M311.366,643.402L343.454,680.713L311.366,718.023L279.277,680.713L311.366,643.402Z" style="fill: none; stroke: rgb(179, 68, 67); stroke-width: 26.64px" />
            </g>
            <g transform="matrix(-0.873702,-0.873702,1.08425,-1.08425,-253.525,1533.31)">
              <path d="M311.366,643.402L343.454,680.713L311.366,718.023L279.277,680.713L311.366,643.402Z" style="fill: none; stroke: rgb(179, 68, 67); stroke-width: 26.64px" />
            </g>
          </g>
          <g transform="matrix(0.156988,1.13055,-1.11767,0.158797,795.579,-172.759)">
            <path
              d="M390.626,302.858L563.121,328.975C563.121,328.975 561.795,337.532 559.774,343.635C548.395,378.008 518.32,401.02 518.32,401.02C518.32,401.02 574.452,368.545 585.311,350.028C596.17,331.51 588.663,320.088 588.663,320.088L547.141,298.27L408.457,282.125L390.626,302.858Z"
              style="fill: rgb(252, 255, 216); fill-opacity: 0.6"
            />
          </g>
        </g>
        <path
          d="M520.792,346.6C462.848,346.6 415.804,385.487 415.804,433.386C415.804,481.285 462.848,520.173 520.792,520.173C520.937,491.316 521.055,462.362 521.055,433.386C521.055,404.41 520.937,375.456 520.792,346.6Z"
          style="fill: none; stroke: black; stroke-width: 2.44px"
        />
      </g>
    </g>
  </g>
</svg>
