<svg viewBox="0 0 800 800" xmlns="http://www.w3.org/2000/svg">
  <g id="eyes">
    <g>
      <path
        d="M462.682,328.728C460.252,329.814 458.105,333.093 456.655,335.155C451.944,341.857 446.584,353.952 454.198,360.72C457.692,363.826 462.674,364.939 467.098,365.992C477.63,368.5 489.191,371.306 499.701,367.335C504.614,365.479 508.692,361.368 512.299,357.705C516.141,353.803 519.906,349.578 522.949,345.013C524.178,343.171 525.943,340.586 525.817,338.231C525.537,333.011 518.198,329.547 514.286,327.694C501.428,321.603 484.957,320.221 471.362,324.753"
        style="fill: white"
      />
      <clipPath id="_clip1_business_confused_eyes">
        <path
          d="M462.682,328.728C460.252,329.814 458.105,333.093 456.655,335.155C451.944,341.857 446.584,353.952 454.198,360.72C457.692,363.826 462.674,364.939 467.098,365.992C477.63,368.5 489.191,371.306 499.701,367.335C504.614,365.479 508.692,361.368 512.299,357.705C516.141,353.803 519.906,349.578 522.949,345.013C524.178,343.171 525.943,340.586 525.817,338.231C525.537,333.011 518.198,329.547 514.286,327.694C501.428,321.603 484.957,320.221 471.362,324.753"
        />
      </clipPath>
      <g clip-path="url(#_clip1_business_confused_eyes)">
        <g transform="matrix(0.990163,0,0,0.980632,4.90415,5.99863)">
          <circle cx="482.434" cy="348.254" r="18.521" style="fill: rgb(var(--color_eyes_r, 99), var(--color_eyes_g, 65), var(--color_eyes_b))" />
          <clipPath id="_clip2_business_confused_eyes">
            <circle cx="482.434" cy="348.254" r="18.521" />
          </clipPath>
          <g clip-path="url(#_clip2_business_confused_eyes)">
            <g transform="matrix(0.511888,0,0,0.521841,235.441,167.831)">
              <circle cx="482.434" cy="348.254" r="18.521" style="fill: rgb(calc(var(--color_eyes_r, 99) + 119), calc(var(--color_eyes_g, 65) + 106), calc(var(--color_eyes_b, 28) + 41))" />
            </g>
            <g transform="matrix(0.455248,0,0,0.455248,262.807,189.712)">
              <circle cx="482.434" cy="348.254" r="18.521" />
            </g>
          </g>
          <circle cx="482.434" cy="348.254" r="18.521" style="fill: none; stroke: black; stroke-width: 2.1px" />
        </g>
        <path
          d="M443.652,359.979C443.217,360.324 451.168,351.172 453.818,349.027C461.663,342.676 468.938,338.799 478.715,336.146C489.674,333.171 504.204,334.237 513.972,336.781C518.208,337.885 522.659,340.665 526.779,342.116C527.971,342.536 530.811,343.389 530.205,340.681C527.983,330.737 515.561,321.265 507.121,317.381C479.627,304.732 431.6,316.975 433.685,353.796"
          style="fill: rgb(56, 25, 57); fill-opacity: 0.5"
        />
        <g transform="matrix(0.921428,0,0,0.918058,37.1783,27.666)">
          <ellipse cx="493.419" cy="343.808" rx="4.638" ry="4.51" style="fill: white" />
        </g>
      </g>
      <path
        d="M460.168,368.639C460.027,368.386 460.743,368.716 461.026,368.777C461.653,368.912 462.269,369.097 462.884,369.279C464.743,369.829 466.545,370.485 468.361,371.163C473.626,373.126 478.837,375.219 484.339,376.452C499.016,379.739 513.318,371.327 522.002,359.916"
        style="fill: none; stroke: black; stroke-width: 2.1px"
      />
      <path
        d="M444.788,353.907C443.545,353.688 444.116,352.821 444.502,350.483C444.837,348.451 445.697,343.792 446.946,341.228C449.861,335.244 457.162,328.067 464.358,324.771C469.562,322.388 474.34,320.867 479.951,320.042C494.191,317.951 506.966,319.184 519.57,326.441C523.245,328.556 532.443,335.799 532.867,336.977C533.104,337.634 525.05,347.009 522.27,350.062C517.822,354.944 510.639,361.443 505.029,364.998C495.664,370.931 486.857,371.721 475.948,369.569C471.384,368.669 466.226,367.437 461.849,365.853C460.907,365.512 458.613,364.138 457.614,363.407C456.269,362.425 459.887,363.1 460.064,363.123C462.333,363.412 464.434,364.314 466.624,364.933C472.173,366.503 477.44,367.977 482.866,368.6C486.501,369.018 492.141,368.82 495.579,367.44C506.589,363.02 509.509,356.56 515.04,349.681C517.844,346.192 522.015,338.791 521.825,338.237C521.151,336.278 506.81,327.896 499.113,326.025C482.522,321.992 466.135,325.813 455.445,339.164C452.109,343.331 448.876,347.969 447.541,350.313C445.825,353.327 444.788,353.907 444.788,353.907Z"
      />
      <path d="M443.692,342.977C444.651,340.984 448.147,335.7 453.748,331.5C460.38,326.528 473.451,321.725 483.425,320.488" style="fill: none; stroke: black; stroke-width: 2.1px" />
      <path
        d="M441.754,334.695C441.754,334.695 444.272,331.047 445.258,329.92C447.861,326.945 450.994,324.453 454.356,322.384C472.986,310.921 500.344,312.42 520.263,320.29"
        style="fill: none; stroke: black; stroke-width: 2.1px"
      />
      <path d="M449.625,308.659C448.936,309.056 448.575,312.34 448.369,313.036C447.175,317.078 446.216,321.179 445.115,325.245" style="fill: none; stroke: black; stroke-width: 2.1px" />
      <path
        d="M446.412,306.366C446.166,306.526 446.944,306.118 447.204,305.98C447.683,305.725 448.168,305.478 448.653,305.234C450.113,304.5 451.64,303.879 453.198,303.387C457.943,301.887 463.027,301.464 467.974,301.22C483.473,300.456 497.759,303.947 511.82,310.217"
        style="fill: none; stroke: black; stroke-width: 2.1px"
      />
    </g>
    <g transform="matrix(-1,0,0,1,798.347,0)">
      <path
        d="M462.682,328.728C460.252,329.814 458.105,333.093 456.655,335.155C451.944,341.857 446.584,353.952 454.198,360.72C457.692,363.826 462.674,364.939 467.098,365.992C477.63,368.5 489.191,371.306 499.701,367.335C504.614,365.479 508.692,361.368 512.299,357.705C516.141,353.803 519.906,349.578 522.949,345.013C524.178,343.171 525.943,340.586 525.817,338.231C525.537,333.011 518.198,329.547 514.286,327.694C501.428,321.603 484.957,320.221 471.362,324.753"
        style="fill: white"
      />
      <clipPath id="_clip3_business_confused_eyes">
        <path
          d="M462.682,328.728C460.252,329.814 458.105,333.093 456.655,335.155C451.944,341.857 446.584,353.952 454.198,360.72C457.692,363.826 462.674,364.939 467.098,365.992C477.63,368.5 489.191,371.306 499.701,367.335C504.614,365.479 508.692,361.368 512.299,357.705C516.141,353.803 519.906,349.578 522.949,345.013C524.178,343.171 525.943,340.586 525.817,338.231C525.537,333.011 518.198,329.547 514.286,327.694C501.428,321.603 484.957,320.221 471.362,324.753"
        />
      </clipPath>
      <g clip-path="url(#_clip3_business_confused_eyes)">
        <g transform="matrix(0.990163,0,0,0.980632,4.90415,5.99863)">
          <circle cx="482.434" cy="348.254" r="18.521" style="fill: rgb(var(--color_eyes_r, 99), var(--color_eyes_g, 65), var(--color_eyes_b))" />
          <clipPath id="_clip4_business_confused_eyes">
            <circle cx="482.434" cy="348.254" r="18.521" />
          </clipPath>
          <g clip-path="url(#_clip4_business_confused_eyes)">
            <g transform="matrix(0.511888,0,0,0.521841,235.495,167.861)">
              <circle cx="482.434" cy="348.254" r="18.521" style="fill: rgb(calc(var(--color_eyes_r, 99) + 119), calc(var(--color_eyes_g, 65) + 106), calc(var(--color_eyes_b, 28) + 41))" />
            </g>
            <g transform="matrix(0.455248,0,0,0.455248,262.807,189.712)">
              <circle cx="482.434" cy="348.254" r="18.521" />
            </g>
          </g>
          <circle cx="482.434" cy="348.254" r="18.521" style="fill: none; stroke: black; stroke-width: 2.1px" />
        </g>
        <path
          d="M443.652,359.979C443.217,360.324 451.168,351.172 453.818,349.027C461.663,342.676 468.938,338.799 478.715,336.146C489.674,333.171 504.204,334.237 513.972,336.781C518.208,337.885 522.659,340.665 526.779,342.116C527.971,342.536 530.811,343.389 530.205,340.681C527.983,330.737 515.561,321.265 507.121,317.381C479.627,304.732 431.6,316.975 433.685,353.796"
          style="fill: rgb(56, 25, 57); fill-opacity: 0.5"
        />
        <g transform="matrix(0.921428,0,0,0.918058,16.7413,29.2694)">
          <ellipse cx="493.419" cy="343.808" rx="4.638" ry="4.51" style="fill: white" />
        </g>
      </g>
      <path
        d="M460.168,368.639C460.027,368.386 460.743,368.716 461.026,368.777C461.653,368.912 462.269,369.097 462.884,369.279C464.743,369.829 466.545,370.485 468.361,371.163C473.626,373.126 478.837,375.219 484.339,376.452C499.016,379.739 513.318,371.327 522.002,359.916"
        style="fill: none; stroke: black; stroke-width: 2.1px"
      />
      <path
        d="M444.788,353.907C443.545,353.688 444.116,352.821 444.502,350.483C444.837,348.451 445.697,343.792 446.946,341.228C449.861,335.244 457.162,328.067 464.358,324.771C469.562,322.388 474.34,320.867 479.951,320.042C494.191,317.951 506.966,319.184 519.57,326.441C523.245,328.556 532.443,335.799 532.867,336.977C533.104,337.634 525.05,347.009 522.27,350.062C517.822,354.944 510.639,361.443 505.029,364.998C495.664,370.931 486.857,371.721 475.948,369.569C471.384,368.669 466.226,367.437 461.849,365.853C460.907,365.512 458.613,364.138 457.614,363.407C456.269,362.425 459.887,363.1 460.064,363.123C462.333,363.412 464.434,364.314 466.624,364.933C472.173,366.503 477.44,367.977 482.866,368.6C486.501,369.018 492.141,368.82 495.579,367.44C506.589,363.02 509.509,356.56 515.04,349.681C517.844,346.192 522.015,338.791 521.825,338.237C521.151,336.278 506.81,327.896 499.113,326.025C482.522,321.992 466.135,325.813 455.445,339.164C452.109,343.331 448.876,347.969 447.541,350.313C445.825,353.327 444.788,353.907 444.788,353.907Z"
      />
      <path d="M443.692,342.977C444.651,340.984 448.147,335.7 453.748,331.5C460.38,326.528 473.451,321.725 483.425,320.488" style="fill: none; stroke: black; stroke-width: 2.1px" />
      <path
        d="M441.754,334.695C441.754,334.695 444.272,331.047 445.258,329.92C447.861,326.945 450.994,324.453 454.356,322.384C472.986,310.921 500.344,312.42 520.263,320.29"
        style="fill: none; stroke: black; stroke-width: 2.1px"
      />
      <path d="M448.805,314.216C448.116,314.613 448.811,323.742 446.627,328.125" style="fill: none; stroke: black; stroke-width: 2.1px" />
    </g>
  </g>
  <g id="eyebrows">
    <path
      d="M363.941,305.515C366.469,307.642 368.906,313.535 370.015,316.791C373.448,326.872 376.017,335.069 375.203,345.794C374.894,349.861 373.428,354.639 371.9,358.46C371.789,358.739 371.268,361.191 371.033,361.097C369.229,360.376 366.188,356.282 365.196,354.736C360.568,347.529 358.819,338.487 353.777,331.651C350.495,327.202 344.617,323.27 339.868,320.54C339.425,320.286 334.674,318.377 334.88,317.556C334.967,317.21 336.912,317.402 337.138,317.411C339.42,317.503 345.608,319.109 345.604,319.098C345.296,318.195 342.835,316.42 342.084,315.863C337.91,312.761 333.942,310.854 329.621,307.963C329.043,307.576 324.167,304.946 324.461,304.097C324.867,302.923 330.614,303.132 331.47,303.094C338.906,302.767 346.345,303.26 353.779,303.383L363.941,305.515ZM446.724,306.83C446.934,307.088 446.363,310.728 446.319,311.276C445.959,315.806 445.538,320.479 444.611,324.934C444.306,326.402 443.94,327.854 443.569,329.307C443.543,329.412 443.044,331.606 443.11,331.602C444.078,331.542 446.256,329.023 446.971,328.439C450.307,325.714 453.827,323.079 457.52,320.853C460.559,319.021 463.584,317.724 466.93,316.547C467.266,316.429 470.176,315.746 470.229,315.359C470.234,315.317 465.777,315.622 465.487,315.652C461.586,316.056 458.456,316.333 454.653,317.315C452.882,317.771 450.3,318.858 450.3,318.858C450.3,318.858 450.684,309.915 451.602,307.347C451.676,307.141 453.339,303.577 453.155,303.43C452.736,303.094 450.729,304.041 450.302,304.18L446.724,306.83ZM416.55,269.533C416.5,269.135 416.224,270.269 416.108,270.653C415.849,271.515 415.596,272.381 415.372,273.253C414.708,275.834 414.198,278.564 414.22,281.238C414.281,288.85 417.137,300.821 424.259,304.862C429.064,307.589 432.145,306.52 436.761,304.284C444.597,300.487 449.889,294.032 460.734,289.497C463.612,288.293 466.193,286.455 468.981,285.048C469.676,284.697 471.844,284.046 472.14,283.209C472.295,282.772 466.282,282.083 465.81,282.01C461.839,281.395 457.946,280.43 454.008,279.644C448.197,278.485 442.338,278.039 436.457,278.928C433.463,279.38 430.431,279.965 427.549,280.914C426.559,281.24 424.751,282.455 423.687,282.265C421.64,281.898 419.506,277.671 418.812,276.024C418.212,274.601 417.764,273.031 417.457,271.518L416.55,269.533Z"
      style="fill: rgb(56, 25, 57); fill-opacity: 0.5"
    />
    <path
      d="M256.134,316.761C256.134,316.761 260.729,307.248 262.436,305.092C267.515,298.678 274.903,294.864 282.646,292.635C305.681,286.004 327.72,293.388 350.918,293.291C356.464,293.267 360.637,293.37 365.981,291.806C366.72,291.589 372.229,288.755 372.229,288.755C372.229,288.755 371.244,294.959 370.298,297.283C368.896,300.731 367.66,304.803 361.719,306.563C348.547,310.466 329.25,304.743 315.982,303.283C292.748,300.726 273.254,303.172 256.134,316.761Z"
      style="fill: rgb(calc(var(--color_eyebrows_r, 72) + 31), calc(var(--color_eyebrows_g, 46) + 16), calc(var(--color_eyebrows_b, 31) - 2))"
    />
    <clipPath id="_clip5_business_confused_eyes">
      <path
        d="M256.134,316.761C256.134,316.761 260.729,307.248 262.436,305.092C267.515,298.678 274.903,294.864 282.646,292.635C305.681,286.004 327.72,293.388 350.918,293.291C356.464,293.267 360.637,293.37 365.981,291.806C366.72,291.589 372.229,288.755 372.229,288.755C372.229,288.755 371.244,294.959 370.298,297.283C368.896,300.731 367.66,304.803 361.719,306.563C348.547,310.466 329.25,304.743 315.982,303.283C292.748,300.726 273.254,303.172 256.134,316.761Z"
      />
    </clipPath>
    <g clip-path="url(#_clip5_business_confused_eyes)">
      <path
        d="M249.267,319.331C251.647,312.991 258.219,308.836 263.444,305.023C287.502,287.467 320.36,295.972 347.547,299.069C354.238,299.831 361.015,299.669 367.606,298.247C369.011,297.944 374.348,295.563 375.623,296.408C376.318,296.869 375.012,299.137 374.798,299.604C373.329,302.813 371.623,305.871 368.862,308.153C360.335,315.199 346.832,313.881 336.641,312.874C325.679,311.791 314.778,309.976 303.752,309.633C292.174,309.273 280.266,310.167 269.432,314.542C266.129,315.875 263.014,317.591 260.15,319.71C258.483,320.944 256.394,323.162 254.178,323.312"
        style="fill: rgb(var(--color_eyebrows_r, 72), var(--color_eyebrows_g, 46), var(--color_eyebrows_b, 31))"
      />
      <path
        d="M308.461,288.962C314.553,289.796 320.714,289.918 326.786,291.02C338.922,293.223 351.159,296.398 363.625,295.007C368.005,294.518 372.477,292.735 375.124,289.042C376.57,287.025 377.238,283.763 374.405,282.512C371.817,281.369 368.63,282.042 365.985,282.579C361.61,283.466 357.259,284.413 352.824,284.976C346.951,285.722 341.031,285.911 335.116,285.895"
        style="fill: rgb(calc(var(--color_eyebrows_r, 72) + 138), calc(var(--color_eyebrows_g, 46) + 111), calc(var(--color_eyebrows_b, 31) + 45))"
      />
    </g>
    <path
      d="M256.134,316.761C256.134,316.761 260.729,307.248 262.436,305.092C267.515,298.678 274.903,294.864 282.646,292.635C305.681,286.004 327.72,293.388 350.918,293.291C356.464,293.267 360.637,293.37 365.981,291.806C366.72,291.589 372.229,288.755 372.229,288.755C372.229,288.755 371.244,294.959 370.298,297.283C368.896,300.731 367.66,304.803 361.719,306.563C348.547,310.466 329.25,304.743 315.982,303.283C292.748,300.726 273.254,303.172 256.134,316.761Z"
      style="fill: none; stroke: black; stroke-width: 2.1px"
    />
    <path
      d="M427.104,258.152C426.715,261.137 426.412,264.293 426.7,267.275C428.948,290.588 465.681,283.794 484.843,284.304C490.377,284.451 495.779,285.048 501.239,285.966C510.69,287.555 519.769,290.839 528.245,295.299C530.98,296.738 538.829,302.281 538.829,302.281C538.829,302.281 526.753,289.113 521.633,285.674C502.157,272.588 479.93,271.329 457.577,267.18C448.647,265.523 440.063,264.749 432.316,260.673L427.104,258.152Z"
      style="fill: rgb(calc(var(--color_eyebrows_r, 72) + 31), calc(var(--color_eyebrows_g, 46) + 16), calc(var(--color_eyebrows_b, 31) - 2))"
    />
    <clipPath id="_clip6_business_confused_eyes">
      <path
        d="M427.104,258.152C426.715,261.137 426.412,264.293 426.7,267.275C428.948,290.588 465.681,283.794 484.843,284.304C490.377,284.451 495.779,285.048 501.239,285.966C510.69,287.555 519.769,290.839 528.245,295.299C530.98,296.738 538.829,302.281 538.829,302.281C538.829,302.281 526.753,289.113 521.633,285.674C502.157,272.588 479.93,271.329 457.577,267.18C448.647,265.523 440.063,264.749 432.316,260.673L427.104,258.152Z"
      />
    </clipPath>
    <g clip-path="url(#_clip6_business_confused_eyes)">
      <path
        d="M425.187,262.055C424.815,261.869 425.837,262.579 426.19,262.8C426.906,263.247 427.624,263.691 428.376,264.076C430.54,265.185 432.786,266.038 435.059,266.889C441.942,269.465 449.165,271.428 456.406,272.68C480.901,276.916 504.49,277.133 525.769,291.446C530.604,294.698 535.037,298.55 539.267,302.545C539.63,302.889 543.358,306.009 543.05,306.509C542.563,307.299 535.554,304.457 534.904,304.265C526.75,301.856 518.385,300.058 509.96,298.91C504.126,298.115 498.25,297.628 492.367,297.393C488.084,297.222 483.797,297.2 479.511,297.147C458.953,296.895 426.494,295.932 421.025,270.366"
        style="fill: rgb(var(--color_eyebrows_r, 72), var(--color_eyebrows_g, 46), var(--color_eyebrows_b, 31))"
      />
      <path
        d="M417.331,253.724C417.061,253.625 417.73,254.142 417.953,254.323C418.419,254.701 418.88,255.085 419.364,255.438C420.798,256.487 422.317,257.455 423.846,258.359C428.596,261.166 433.17,263.851 438.341,265.837C451.467,270.88 466.216,270.214 479.979,271.668C483.485,272.039 486.979,272.445 490.469,272.944C491.071,273.03 493.481,273.785 493.999,273.403C494.042,273.372 493.146,273.011 493.127,273.005C492.49,272.789 491.848,272.589 491.204,272.395C489.182,271.786 487.147,271.222 485.117,270.645C479.341,269.007 473.566,267.367 467.787,265.74C455.683,262.333 443.863,258.207 431.959,254.183C429.205,253.252 421.928,249.809 419.93,253.62"
        style="fill: rgb(calc(var(--color_eyebrows_r, 72) + 138), calc(var(--color_eyebrows_g, 46) + 111), calc(var(--color_eyebrows_b, 31) + 45))"
      />
    </g>
    <path
      d="M427.104,258.152C426.715,261.137 426.412,264.293 426.7,267.275C428.948,290.588 465.681,283.794 484.843,284.304C490.377,284.451 495.779,285.048 501.239,285.966C510.69,287.555 519.769,290.839 528.245,295.299C530.98,296.738 538.829,302.281 538.829,302.281C538.829,302.281 526.753,289.113 521.633,285.674C502.157,272.588 479.93,271.329 457.577,267.18C448.647,265.523 440.063,264.749 432.316,260.673L427.104,258.152Z"
      style="fill: none; stroke: black; stroke-width: 2.1px"
    />
    <path
      d="M420.472,252.63C420.493,252.626 419.834,256.298 419.709,256.965C419.136,260.023 418.384,263.057 417.935,266.138C416.573,275.476 418.455,283.595 424.541,291.034"
      style="fill: none; stroke: black; stroke-width: 2.1px"
    />
    <path d="M367.196,326.524C369.814,327.121 372.602,331.926 373.567,334.543C377.115,344.173 373.899,352.229 370.632,361.213" style="fill: none; stroke: black; stroke-width: 2.1px" />
    <path
      d="M431.404,326.821C431.844,326.821 430.651,327.287 430.333,327.591C429.661,328.23 429.11,328.982 428.57,329.733C426.902,332.054 425.617,334.487 424.753,337.221C422.396,344.686 423.303,355.263 428.503,361.503"
      style="fill: none; stroke: black; stroke-width: 2.1px"
    />
  </g>
</svg>