<svg viewBox="0 0 800 800" xmlns="http://www.w3.org/2000/svg">
  <g id="nose-girl" >
    <path
      d="M366.316,456.801C366.349,457.967 366.096,458.597 366.383,459.912C367.344,464.323 372.134,462.394 375.173,461.523C377.113,460.967 379.546,460.733 381.557,460.807C388.18,461.053 392.959,464.293 399.671,464.098C407.271,463.878 411.231,461.455 416.451,460.45C420.828,459.608 424.158,461.558 427.959,462.256C429.532,462.545 430.944,462.791 432.654,462.354C432.957,462.277 433.541,461.593 433.519,462.222C433.462,463.807 432.237,466.6 431.499,467.952C428.513,473.428 423.926,477.628 418.554,480.63C413.579,483.41 405.54,487.43 400,486.926C387.785,485.815 380.923,481.341 373.361,474.603C369.906,471.525 366.586,467.655 365.688,462.927"
      style="fill: rgb(66, 31, 67); fill-opacity: 0.4"
    />
    <path
      d="M370.815,451.126C370.249,451.494 369.609,452.198 369.124,452.67C367.627,454.127 366.602,455.782 366.047,457.798C364.169,464.613 368.404,470.83 373.85,474.6"
      style="fill: none; stroke: black; stroke-width: 2.06px"
    />
    <path
      d="M399.671,472.648C400.052,472.634 400.632,472.561 400.815,472.542C402.31,472.387 403.676,471.878 405.006,471.197C409.592,468.848 413.628,464.08 419.002,463.534C420.362,463.396 421.708,463.502 422.976,464.04C423.468,464.248 424.135,464.612 424.304,465.165C424.602,466.136 422.805,466.946 422.172,467.225C420.355,468.025 418.197,468.348 416.263,467.812C415.479,467.595 414.525,466.781 413.723,466.762C413.472,466.756 413.201,467.03 413.018,467.172C412.477,467.593 411.94,468.017 411.409,468.45C409.696,469.846 407.931,471.099 405.915,472.025C404.573,472.642 403.176,473.08 401.725,473.348C401.234,473.438 400.742,473.512 400.248,473.58C400.083,473.603 399.917,473.63 399.75,473.646C399.732,473.648 399.703,473.648 399.671,473.649L399.671,473.664C399.682,473.669 399.684,473.676 399.671,473.687L399.671,473.664C399.652,473.655 399.607,473.651 399.557,473.65C399.506,473.651 399.461,473.655 399.443,473.664L399.443,473.687C399.429,473.676 399.431,473.669 399.443,473.664L399.443,473.649C399.41,473.648 399.381,473.648 399.363,473.646C399.196,473.63 399.031,473.603 398.865,473.58C398.371,473.512 397.879,473.438 397.389,473.348C395.937,473.08 394.54,472.642 393.199,472.025C391.183,471.099 389.417,469.846 387.704,468.45C387.173,468.017 386.636,467.593 386.095,467.172C385.912,467.03 385.641,466.756 385.391,466.762C384.589,466.781 383.634,467.595 382.85,467.812C380.916,468.348 378.758,468.025 376.941,467.225C376.308,466.946 374.511,466.136 374.809,465.165C374.979,464.612 375.646,464.248 376.137,464.04C377.405,463.502 378.752,463.396 380.111,463.534C385.485,464.08 389.521,468.848 394.107,471.197C395.437,471.878 396.803,472.387 398.298,472.542C398.481,472.561 399.061,472.634 399.443,472.648L399.443,472.646C399.462,472.648 399.484,472.649 399.507,472.65L399.533,472.65L399.565,472.65L399.584,472.65L399.606,472.65C399.63,472.649 399.651,472.648 399.671,472.646L399.671,472.648Z"
    />
    <g transform="matrix(-1,0,0,1,799.113,0)">
      <path
        d="M370.815,451.126C370.249,451.494 369.609,452.198 369.124,452.67C367.627,454.127 366.602,455.782 366.047,457.798C364.169,464.613 368.404,470.83 373.85,474.6"
        style="fill: none; stroke: black; stroke-width: 2.06px"
      />
    </g>
    <path
      d="M404.553,435.327C404.529,435.185 404.746,434.711 404.766,434.667C405.097,433.934 405.575,433.376 406.253,432.939C408.46,431.518 410.168,431.866 412.331,433.122C413.053,433.542 414.173,434.254 414.14,435.22C414.102,436.33 412.779,436.642 411.898,436.754C409.963,437.001 407.894,436.914 406.026,436.322C405.324,436.099 404.366,435.675 404.254,434.847L404.553,435.327C404.556,435.346 404.564,435.359 404.576,435.364L404.553,435.327ZM400.482,434.914C400.609,434.019 401.494,433.075 402.273,432.696C402.815,432.432 403.6,432.454 403.614,433.219C403.628,434.022 403.189,435.104 402.493,435.542C401.803,435.976 400.636,435.813 400.395,434.929L400.482,434.914Z"
      style="fill: rgb(252, 255, 216); fill-opacity: 0.6"
    />
  </g>
</svg>
