<svg
  width="100%"
  height="100%"
  viewBox="0 0 800 800"
  version="1.1"
  xmlns="http://www.w3.org/2000/svg"
>
  <g transform="matrix(1.23252,0,0,1.23252,-93.0418,-250.076)">
    <g id="accessories-back">
      <g id="lab-coat-back">
        <path
          d="M300.418,622.457C304.933,618.965 312.616,616.682 316.17,615.744C328.012,612.619 340.001,610.899 352.176,609.593C390.464,605.487 425.111,607.232 465.747,612.43C477,613.87 494.102,615.582 502.291,624.794C507.318,630.449 508.539,647.291 510.011,654.238C511.381,660.699 519.28,1095.65 517.945,1102.26C516.673,1108.56 499.108,1103.51 495.758,1102.95C470.282,1098.71 444.441,1097.53 418.647,1097.12C390.475,1096.67 362.014,1097.31 333.997,1100.49C326.337,1101.35 318.713,1102.49 311.125,1103.85C306.826,1104.62 302.542,1105.48 298.242,1106.24C294.677,1106.88 287.113,1109.28 283.785,1106.63C280.602,1104.09 282.873,654.209 283.989,649.925C283.989,649.925 288.89,631.374 300.418,622.457Z"
          style="fill: rgb(64, 78, 98); stroke: black; stroke-width: 2.1px"
        />
      </g>
    </g>
  </g>
  <g transform="matrix(1.00459,0,0,1.00459,-1.83472,-2.98929)">
    <g id="accessories">
      <g id="lab-coat-front">
        <path
          id="shadow"
          d="M276.459,519.029C278.809,523.323 277.056,533.853 277.157,538.566C277.52,555.344 277.12,572.119 277.389,588.89C277.867,618.791 283.987,651.881 286.855,681.601C289.469,708.695 280.943,738.84 279.397,726.354C276.52,703.125 274.276,679.75 272.382,656.42C269.414,619.859 260.914,578.009 271.715,542.212L276.459,519.029ZM523.545,519.029C521.195,523.323 522.948,533.853 522.846,538.566C522.483,555.344 522.883,572.119 522.615,588.89C522.137,618.791 516.017,651.881 513.149,681.601C510.535,708.695 519.061,738.84 520.607,726.354C523.483,703.125 525.728,679.75 527.622,656.42C530.59,619.859 539.09,578.009 528.289,542.212L523.545,519.029Z"
          style="fill: rgb(56, 25, 57); fill-opacity: 0.5"
        />
        <path
          id="blue-tshirt"
          d="M399.373,759.1C403.647,754.054 411.057,747.739 414.574,744.084C434.425,723.454 454.279,703.642 475.609,684.993C489.793,672.591 504.023,660.294 515.641,645.373C519.513,640.401 522.976,635.115 526.207,629.707C527.338,627.814 529.758,620.953 530.481,621.471L547.87,641.093C554.304,698.427 547.871,757.059 543.533,814.309C540.633,852.574 537.211,890.797 533.491,928.991C532.099,943.279 268.281,943.279 266.889,928.991C263.168,890.797 259.747,852.574 256.847,814.309C252.508,757.059 246.075,698.427 252.509,641.093L269.899,621.471C270.621,620.953 273.041,627.814 274.172,629.707C277.404,635.115 280.866,640.401 284.738,645.373C296.356,660.294 310.447,672.059 324.119,685.024C344.658,704.502 366.059,723.17 385.783,744.828C389.198,748.578 395.099,754.054 399.373,759.1Z"
          style="fill: rgb(114, 164, 203)"
        />
        <clipPath id="Lab-coat_0">
          <path
            id="blue-tshirt1"
            d="M399.373,759.1C403.647,754.054 411.057,747.739 414.574,744.084C434.425,723.454 454.279,703.642 475.609,684.993C489.793,672.591 504.023,660.294 515.641,645.373C519.513,640.401 522.976,635.115 526.207,629.707C527.338,627.814 529.758,620.953 530.481,621.471L547.87,641.093C554.304,698.427 547.871,757.059 543.533,814.309C540.633,852.574 537.211,890.797 533.491,928.991C532.099,943.279 268.281,943.279 266.889,928.991C263.168,890.797 259.747,852.574 256.847,814.309C252.508,757.059 246.075,698.427 252.509,641.093L269.899,621.471C270.621,620.953 273.041,627.814 274.172,629.707C277.404,635.115 280.866,640.401 284.738,645.373C296.356,660.294 310.447,672.059 324.119,685.024C344.658,704.502 366.059,723.17 385.783,744.828C389.198,748.578 395.099,754.054 399.373,759.1Z"
          />
        </clipPath>
        <g clip-path="url(#Lab-coat_0)">
          <path
            d="M289.827,685.249C298.385,754.81 324.109,974.563 335.853,1042.09C339.876,1065.23 343.868,1088.37 346.624,1111.7C347.321,1117.61 351.893,1134.07 341.786,1134.43C332.706,1134.76 323.5,1127.75 317.197,1122.04C300.034,1106.51 286.43,1086.5 276.262,1065.82C239.036,990.144 222.634,723.149 228.901,640.294C229.495,632.431 230.204,624.575 231.157,616.747C231.884,610.78 232.751,604.829 233.785,598.907C234.568,594.425 235.45,589.961 236.447,585.521C239.288,572.864 248.48,534.889 267.221,536.376L280.912,620.635C283.211,637.828 285.763,660.4 288.021,677.594L288.151,678.589C292.893,683.181 297.67,687.739 302.254,692.497C306.974,697.397 311.705,702.285 316.441,707.169C320.543,711.399 324.69,715.585 328.763,719.844C330.302,721.453 331.847,723.057 333.323,724.724C333.392,724.802 334.724,726.309 334.532,726.416C334.084,726.667 331.805,724.428 331.495,724.171C328.454,721.656 325.564,718.972 322.624,716.343C310.972,705.923 300.315,696.862 289.827,685.249ZM510.846,685.038C501.882,752.973 475.505,974.563 463.761,1042.09C459.737,1065.23 455.746,1088.37 452.99,1111.7C452.292,1117.61 447.72,1134.07 457.828,1134.43C466.908,1134.76 476.114,1127.75 482.417,1122.04C499.579,1106.51 513.184,1086.5 523.352,1065.82C560.578,990.144 576.979,723.149 570.713,640.294C570.118,632.431 569.41,624.575 568.457,616.747C567.73,610.78 566.862,604.829 565.828,598.907C565.046,594.425 564.164,589.961 563.167,585.521C560.325,572.864 551.134,534.889 532.393,536.376L518.701,620.635C516.402,637.828 513.851,660.4 511.593,677.594L511.462,678.589C506.72,683.181 501.944,687.739 497.36,692.497C492.64,697.397 487.909,702.285 483.173,707.169C479.071,711.399 474.924,715.585 470.851,719.844C469.312,721.453 467.767,723.057 466.291,724.724C466.221,724.802 464.889,726.309 465.082,726.416C465.529,726.667 467.809,724.428 468.119,724.171C471.159,721.656 473.91,718.808 476.989,716.343C489.319,706.471 500.358,696.651 510.846,685.038ZM414.891,774.374C414.982,774.253 415.347,774.033 415.485,773.904C415.905,773.509 416.346,773.136 416.78,772.756C418.085,771.61 419.595,770.817 421.242,770.272C425.674,768.806 431.299,769.784 435.891,769.711C445.31,769.561 455.139,768.957 464.492,770.333C470.599,771.232 476.592,773.478 482.491,775.221C486.04,776.269 489.578,777.313 493.032,778.648C493.47,778.817 496.09,779.548 496.076,780.232C496.059,781.108 492.456,781.04 491.967,781.07C487.396,781.354 482.846,781.398 478.267,781.383C462.917,781.332 447.827,777.921 432.571,776.645C428.256,776.284 419.777,775.523 419.777,775.523C419.777,775.523 422.764,780.992 423.344,781.809C426.551,786.331 428.751,791.691 431.498,796.522C432.727,798.683 434.035,800.799 435.216,802.987C435.339,803.215 436.326,804.818 435.856,805.053C435.392,805.284 434.414,804.127 434.169,803.877C432.599,802.277 431.272,800.454 429.946,798.653C425.582,792.723 421.836,786.384 417.538,780.414C416.274,778.658 412.732,775.866 414.469,773.519L414.891,774.374C414.857,774.419 414.862,774.451 414.933,774.458L414.891,774.374ZM430.887,759.229C431.129,759.097 431.415,758.454 431.677,758.22C432.427,757.548 433.163,756.856 433.893,756.162C436.219,753.952 438.266,751.545 441.436,750.602C450.011,748.052 460.143,749.431 468.582,751.834C469.918,752.214 475.678,753.084 476.351,754.502C476.496,754.808 474.515,754.882 474.371,754.889C472.192,755.003 470,754.964 467.819,755.001C462.034,755.099 456.249,755.116 450.508,755.929C444.675,756.755 438.923,758.138 433.296,759.866L430.887,759.229ZM430.887,759.229L430.673,759.172C430.738,759.261 430.81,759.27 430.887,759.229Z"
            style="fill: rgb(84, 103, 162)"
          />
          <g id="lines">
            <path
              d="M397.786,757.402C397.786,757.402 405.149,765.503 407.145,767.896C414.832,777.109 421.648,785.225 428.845,794.828C441.075,811.147 454.196,826.732 466.517,842.971C483.541,865.41 499.892,888.349 517.454,910.378"
              style="fill: none; stroke: black; stroke-width: 2.1px"
            />
            <path
              d="M271.634,657.272C270.343,656.966 273.104,659.478 273.857,660.569C275.404,662.809 277.022,665.014 278.693,667.162C283.734,673.646 288.99,679.984 294.636,685.952C311.398,703.67 329.403,720.112 346.142,737.877C363.8,756.617 383.35,773.422 400.841,792.309C433.566,827.645 467.273,886.279 495.612,925.194"
              style="fill: none; stroke: black; stroke-width: 2.1px"
            />
            <path
              d="M413.623,774.847C416.037,774.779 422.309,767.014 424.08,765.431C434.887,755.766 445.028,745.348 455.184,735.007C498.311,691.099 537.71,655.755 568.794,600.658"
              style="fill: none; stroke: black; stroke-width: 2.1px"
            />
            <path d="M430.627,759.901C431.01,760.551 436.084,758.393 437.579,757.943C442.074,756.59 446.757,755.893 451.402,755.194" style="fill: none; stroke: black; stroke-width: 2.1px" />
            <path d="M415.292,774.73C415.302,774.777 423.214,774.924 425.658,775.238C436.256,776.603 448.51,778.698 459.211,779.164" style="fill: none; stroke: black; stroke-width: 2.1px" />
            <path d="M270.664,641.767C270.664,641.767 318.126,696.724 346.378,722.477C380.357,753.453 474.746,848.142 540.293,961.354" style="fill: none; stroke: black; stroke-width: 1px" />
            <path d="M407.41,766.736C407.389,766.971 483.585,702.419 549.566,616.252" style="fill: none; stroke: black; stroke-width: 1px" />
            <path
              d="M271.762,665.945C271.762,665.945 309.405,707.23 329.138,728.038C348.872,748.847 382.006,778.674 405.235,805.079C428.463,831.483 503.905,942.227 503.905,942.227"
              style="fill: none; stroke: black; stroke-width: 1px; stroke-dasharray: 6.31, 10.31, 0, 0"
            />
            <path
              d="M416.047,778.434C416.047,778.434 476.364,720.542 480.63,716.117C484.896,711.693 581.603,612.175 586.41,608.889"
              style="fill: none; stroke: black; stroke-width: 1px; stroke-dasharray: 6.31, 10.31, 0, 0; stroke-dashoffset: 13.63"
            />
          </g>
        </g>
        <path
          id="blue-tshirt2"
          d="M399.373,759.1C403.647,754.054 411.057,747.739 414.574,744.084C434.425,723.454 454.279,703.642 475.609,684.993C489.793,672.591 504.023,660.294 515.641,645.373C519.513,640.401 522.976,635.115 526.207,629.707C527.338,627.814 529.758,620.953 530.481,621.471L547.87,641.093C554.304,698.427 547.871,757.059 543.533,814.309C540.633,852.574 537.211,890.797 533.491,928.991C532.099,943.279 268.281,943.279 266.889,928.991C263.168,890.797 259.747,852.574 256.847,814.309C252.508,757.059 246.075,698.427 252.509,641.093L269.899,621.471C270.621,620.953 273.041,627.814 274.172,629.707C277.404,635.115 280.866,640.401 284.738,645.373C296.356,660.294 310.447,672.059 324.119,685.024C344.658,704.502 366.059,723.17 385.783,744.828C389.198,748.578 395.099,754.054 399.373,759.1Z"
          style="fill: none; stroke: black; stroke-width: 2.1px"
        />
        <g id="coat">
          <g>
            <path
              d="M257.213,537.201C247.768,537.201 234.287,545.529 225.939,549.2C202.949,559.311 180.228,570.054 157.411,580.547C119.532,597.965 84.077,618.876 47.213,638.222C33.319,645.514 6.357,656.074 -3.172,668.738C-11.679,680.044 -14.558,696.911 -18.88,710.047C-28.855,740.358 -38.12,771.242 -44.933,802.425C-51.176,831.002 -56.901,859.674 -63.52,888.168C-64.687,893.191 297.524,904.048 294.873,894.396C286.909,865.411 279.699,836.277 273.954,806.766C262.715,749.04 253.815,689.099 254.265,630.158C254.481,601.821 259.087,573.961 261.214,545.78L257.213,537.201Z"
              style="fill: url(#Lab-coat_Linear2)"
            />
            <clipPath id="Lab-coat_1">
              <path
                d="M257.213,537.201C247.768,537.201 234.287,545.529 225.939,549.2C202.949,559.311 180.228,570.054 157.411,580.547C119.532,597.965 84.077,618.876 47.213,638.222C33.319,645.514 6.357,656.074 -3.172,668.738C-11.679,680.044 -14.558,696.911 -18.88,710.047C-28.855,740.358 -38.12,771.242 -44.933,802.425C-51.176,831.002 -56.901,859.674 -63.52,888.168C-64.687,893.191 297.524,904.048 294.873,894.396C286.909,865.411 279.699,836.277 273.954,806.766C262.715,749.04 253.815,689.099 254.265,630.158C254.481,601.821 259.087,573.961 261.214,545.78L257.213,537.201Z"
              />
            </clipPath>
            <g clip-path="url(#Lab-coat_1)">
              <path
                d="M9.613,708.659C9.302,708.852 9.755,710.755 9.786,711.015C10.807,719.543 11.335,728.214 11.508,736.796C12.209,771.478 25.812,805.403 35.355,838.385C43.868,867.804 51.628,897.598 61.511,926.591C63.258,931.717 64.99,936.846 66.769,941.961C67.163,943.096 69.961,954.169 71.147,954.268C71.241,954.276 69.706,945.319 69.605,944.828C68.403,939.019 67.058,933.24 65.682,927.471C61.453,909.747 56.453,892.204 51.947,874.549C38.795,823.021 26.261,771.493 12.388,720.163L9.613,708.659ZM164.444,702.463C164.472,701.854 163.226,702.395 162.621,702.318C161.283,702.148 159.938,702.013 158.597,701.874C157.217,701.73 149.664,700.084 149.754,702.325C149.923,706.491 152.981,711.357 154.251,715.287C158.01,726.911 162.199,738.364 166.199,749.904C180.328,790.664 187.704,833.736 204.659,873.483C208.732,883.033 212.565,892.712 217.101,902.056C218.179,904.275 220.324,910.316 223.681,910.16C227.642,909.977 227.402,902.379 227.256,899.972C226.542,888.158 224.34,876.623 221.574,865.132C210.393,818.694 198.325,771.613 178.519,728.015L164.444,702.463ZM57.709,842.772C54.48,835.032 53.104,825.944 50.64,817.915C44.228,797.026 38.211,776.309 33.003,755.078C30.526,744.977 28.711,734.775 27.689,724.424C27.293,720.418 26.985,716.296 27.353,712.274C27.391,711.856 27.621,708.219 28.757,709.075C32.905,712.204 34.936,722.083 36.636,726.697C42.884,743.659 46.878,761.54 49.669,779.379C50.636,785.561 51.443,791.77 52.311,797.967C52.379,798.458 52.715,803.489 53.21,803.581C53.442,803.623 53.561,802.342 53.576,802.223C54.028,798.689 54.093,795.101 54.469,791.558C55.59,781.002 57.144,770.252 59.36,759.868C59.68,758.367 60.674,750.559 62.425,749.947C63.228,749.666 63.27,756.952 63.27,757.409C63.276,765.656 62.914,773.862 62.501,782.096C61.437,803.299 59.707,824.369 58.258,845.546L57.709,842.772ZM170.338,648.229C170.486,647.471 169.511,649.534 169.113,650.196C168.298,651.555 167.493,652.922 166.753,654.324C164.003,659.537 164.405,660.583 169.478,663.509C185.956,673.015 201.473,683.706 217.362,694.143C221.463,696.837 225.616,699.45 229.713,702.15C230.303,702.539 233.186,705.019 233.937,704.897C234.453,704.813 233.829,699.699 233.782,699.323C233.052,693.52 231.639,687.844 230.649,682.088C227.494,663.755 224.578,645.365 220.608,627.184C219.158,620.542 218.073,610.174 211.82,606.04C208.747,604.008 205.039,605.322 202.111,606.925C194.899,610.873 190.076,618.331 185.231,624.74L170.338,648.229Z"
                style="fill: rgb(130, 168, 187)"
              />
              <path
                d="M29.321,787.158C24.709,760.841 19.416,734.724 15.253,708.304C14.309,702.316 9.28,682.766 11.538,677.3C13.502,672.544 21.21,670.097 25.312,667.909C33.653,663.461 42.009,658.117 50.926,654.907C55.19,653.372 59.803,653.294 64.045,651.784C74.093,648.205 81.879,636.78 91.237,631.398C101.002,625.781 111.563,624.758 121.643,620.396C129.696,616.912 136.721,610.609 144.172,605.992C175.246,586.735 212.634,576.701 242.088,554.81C249.04,549.643 254.051,543.083 259.109,536.151C259.586,535.498 263.696,530.633 262.921,529.748C261.734,528.39 246.653,532.431 241.347,533.437C216.784,538.094 192.632,544.479 168.805,552.043C122.055,566.885 76.146,585.1 34.197,610.772C19.521,619.752 -3.279,633.029 -11.121,649.621C-21.813,672.242 -44.583,720.968 -45.433,745.529C-46.105,764.975 -35.437,818.717 -34.36,819.256C-33.777,819.547 -25.222,793.961 -23.535,787.718C-17.647,765.923 -4.768,741.877 0.471,719.922C0.861,718.288 5.085,700.595 7.096,700.595L29.321,787.158Z"
                style="fill: rgb(244, 248, 251)"
              />
              <path
                d="M2.054,671.335C3.284,672.66 3.412,681.415 3.84,683.61C6.048,694.948 8.677,706.283 11.618,717.453C18.16,742.29 25.195,766.811 30.827,791.895C35.364,812.106 53.255,865.874 65.097,930.059"
                style="fill: none; stroke: black; stroke-width: 2.1px"
              />
              <path
                d="M27.939,727.163C27.894,727.166 28.672,732.189 28.719,732.466C29.711,738.343 30.859,744.215 32.183,750.026C37.841,774.861 46.636,798.889 51.546,823.889"
                style="fill: none; stroke: black; stroke-width: 2.1px"
              />
              <path
                d="M57.267,774.662C57.722,774.347 57.257,775.77 57.213,776.322C57.132,777.331 57.044,778.339 56.94,779.347C56.628,782.345 56.246,785.331 55.846,788.319C54.63,797.393 52.869,806.347 52.758,815.531"
                style="fill: none; stroke: black; stroke-width: 2.1px"
              />
            </g>
            <path
              d="M257.213,537.201C247.768,537.201 234.287,545.529 225.939,549.2C202.949,559.311 180.228,570.054 157.411,580.547C119.532,597.965 84.077,618.876 47.213,638.222C33.319,645.514 6.357,656.074 -3.172,668.738C-11.679,680.044 -14.558,696.911 -18.88,710.047C-28.855,740.358 -38.12,771.242 -44.933,802.425C-51.176,831.002 -56.901,859.674 -63.52,888.168C-64.687,893.191 297.524,904.048 294.873,894.396C286.909,865.411 279.699,836.277 273.954,806.766C262.715,749.04 253.815,689.099 254.265,630.158C254.481,601.821 259.087,573.961 261.214,545.78L257.213,537.201Z"
              style="fill: none; stroke: black; stroke-width: 2.1px"
            />
            <g transform="matrix(-1,0,0,1,800.283,0)">
              <path
                d="M257.213,537.201C247.768,537.201 234.287,545.529 225.939,549.2C202.949,559.311 180.228,570.054 157.411,580.547C119.532,597.965 84.077,618.876 47.213,638.222C33.319,645.514 6.357,656.074 -3.172,668.738C-11.679,680.044 -14.558,696.911 -18.88,710.047C-28.855,740.358 -38.12,771.242 -44.933,802.425C-51.176,831.002 -56.901,859.674 -63.52,888.168C-64.687,893.191 297.524,904.048 294.873,894.396C286.909,865.411 279.699,836.277 273.954,806.766C262.715,749.04 253.815,689.099 254.265,630.158C254.481,601.821 259.087,573.961 261.214,545.78L257.213,537.201Z"
                style="fill: url(#Lab-coat_Linear4)"
              />
              <clipPath id="Lab-coat_2">
                <path
                  d="M257.213,537.201C247.768,537.201 234.287,545.529 225.939,549.2C202.949,559.311 180.228,570.054 157.411,580.547C119.532,597.965 84.077,618.876 47.213,638.222C33.319,645.514 6.357,656.074 -3.172,668.738C-11.679,680.044 -14.558,696.911 -18.88,710.047C-28.855,740.358 -38.12,771.242 -44.933,802.425C-51.176,831.002 -56.901,859.674 -63.52,888.168C-64.687,893.191 297.524,904.048 294.873,894.396C286.909,865.411 279.699,836.277 273.954,806.766C262.715,749.04 253.815,689.099 254.265,630.158C254.481,601.821 259.087,573.961 261.214,545.78L257.213,537.201Z"
                />
              </clipPath>
              <g clip-path="url(#Lab-coat_2)">
                <path
                  d="M9.613,708.659C9.302,708.852 9.755,710.755 9.786,711.015C10.807,719.543 11.335,728.214 11.508,736.796C12.209,771.478 25.812,805.403 35.355,838.385C43.868,867.804 51.628,897.598 61.511,926.591C63.258,931.717 64.99,936.846 66.769,941.961C67.163,943.096 69.961,954.169 71.147,954.268C71.241,954.276 69.706,945.319 69.605,944.828C68.403,939.019 67.058,933.24 65.682,927.471C61.453,909.747 56.453,892.204 51.947,874.549C38.795,823.021 26.261,771.493 12.388,720.163L9.613,708.659ZM164.444,702.463C164.472,701.854 163.226,702.395 162.621,702.318C161.283,702.148 159.938,702.013 158.597,701.874C157.217,701.73 149.664,700.084 149.754,702.325C149.923,706.491 152.981,711.357 154.251,715.287C158.01,726.911 162.199,738.364 166.199,749.904C180.328,790.664 187.704,833.736 204.659,873.483C208.732,883.033 212.565,892.712 217.101,902.056C218.179,904.275 220.324,910.316 223.681,910.16C227.642,909.977 227.402,902.379 227.256,899.972C226.542,888.158 224.34,876.623 221.574,865.132C210.393,818.694 198.325,771.613 178.519,728.015L164.444,702.463ZM57.709,842.772C54.48,835.032 53.104,825.944 50.64,817.915C44.228,797.026 38.211,776.309 33.003,755.078C30.526,744.977 28.711,734.775 27.689,724.424C27.293,720.418 26.985,716.296 27.353,712.274C27.391,711.856 27.621,708.219 28.757,709.075C32.905,712.204 34.936,722.083 36.636,726.697C42.884,743.659 46.878,761.54 49.669,779.379C50.636,785.561 51.443,791.77 52.311,797.967C52.379,798.458 52.715,803.489 53.21,803.581C53.442,803.623 53.561,802.342 53.576,802.223C54.028,798.689 54.093,795.101 54.469,791.558C55.59,781.002 57.144,770.252 59.36,759.868C59.68,758.367 60.674,750.559 62.425,749.947C63.228,749.666 63.27,756.952 63.27,757.409C63.276,765.656 62.914,773.862 62.501,782.096C61.437,803.299 59.707,824.369 58.258,845.546L57.709,842.772ZM170.338,648.229C170.486,647.471 169.511,649.534 169.113,650.196C168.298,651.555 167.493,652.922 166.753,654.324C164.003,659.537 164.405,660.583 169.478,663.509C185.956,673.015 201.473,683.706 217.362,694.143C221.463,696.837 225.616,699.45 229.713,702.15C230.303,702.539 233.186,705.019 233.937,704.897C234.453,704.813 233.829,699.699 233.782,699.323C233.052,693.52 231.639,687.844 230.649,682.088C227.494,663.755 224.578,645.365 220.608,627.184C219.158,620.542 218.073,610.174 211.82,606.04C208.747,604.008 205.039,605.322 202.111,606.925C194.899,610.873 190.076,618.331 185.231,624.74L170.338,648.229Z"
                  style="fill: rgb(130, 168, 187)"
                />
                <path
                  d="M29.321,787.158C24.709,760.841 19.416,734.724 15.253,708.304C14.309,702.316 9.28,682.766 11.538,677.3C13.502,672.544 21.21,670.097 25.312,667.909C33.653,663.461 42.009,658.117 50.926,654.907C55.19,653.372 59.803,653.294 64.045,651.784C74.093,648.205 81.879,636.78 91.237,631.398C101.002,625.781 111.563,624.758 121.643,620.396C129.696,616.912 136.721,610.609 144.172,605.992C175.246,586.735 212.634,576.701 242.088,554.81C249.04,549.643 254.051,543.083 259.109,536.151C259.586,535.498 263.696,530.633 262.921,529.748C261.734,528.39 246.653,532.431 241.347,533.437C216.784,538.094 192.632,544.479 168.805,552.043C122.055,566.885 76.146,585.1 34.197,610.772C19.521,619.752 -3.279,633.029 -11.121,649.621C-21.813,672.242 -44.583,720.968 -45.433,745.529C-46.105,764.975 -35.437,818.717 -34.36,819.256C-33.777,819.547 -25.222,793.961 -23.535,787.718C-17.647,765.923 -4.768,741.877 0.471,719.922C0.861,718.288 5.085,700.595 7.096,700.595L29.321,787.158Z"
                  style="fill: rgb(244, 248, 251)"
                />
                <path
                  d="M2.054,671.335C3.284,672.66 3.412,681.415 3.84,683.61C6.048,694.948 8.677,706.283 11.618,717.453C18.16,742.29 25.195,766.811 30.827,791.895C35.364,812.106 53.255,865.874 65.097,930.059"
                  style="fill: none; stroke: black; stroke-width: 2.1px"
                />
                <path
                  d="M27.939,727.163C27.894,727.166 28.672,732.189 28.719,732.466C29.711,738.343 30.859,744.215 32.183,750.026C37.841,774.861 46.636,798.889 51.546,823.889"
                  style="fill: none; stroke: black; stroke-width: 2.1px"
                />
                <path
                  d="M57.267,774.662C57.722,774.347 57.257,775.77 57.213,776.322C57.132,777.331 57.044,778.339 56.94,779.347C56.628,782.345 56.246,785.331 55.846,788.319C54.63,797.393 52.869,806.347 52.758,815.531"
                  style="fill: none; stroke: black; stroke-width: 2.1px"
                />
              </g>
              <path
                d="M257.213,537.201C247.768,537.201 234.287,545.529 225.939,549.2C202.949,559.311 180.228,570.054 157.411,580.547C119.532,597.965 84.077,618.876 47.213,638.222C33.319,645.514 6.357,656.074 -3.172,668.738C-11.679,680.044 -14.558,696.911 -18.88,710.047C-28.855,740.358 -38.12,771.242 -44.933,802.425C-51.176,831.002 -56.901,859.674 -63.52,888.168C-64.687,893.191 297.524,904.048 294.873,894.396C286.909,865.411 279.699,836.277 273.954,806.766C262.715,749.04 253.815,689.099 254.265,630.158C254.481,601.821 259.087,573.961 261.214,545.78L257.213,537.201Z"
                style="fill: none; stroke: black; stroke-width: 2.1px"
              />
            </g>
          </g>
          <g>
            <path
              d="M276.893,517.508C277.435,517.127 265.361,526.004 261.799,528.055C250.407,534.614 242.164,542.05 233.709,552.195C215.039,574.6 197.294,597.743 181.382,622.196C176.461,629.758 163.364,649.385 163.364,649.385C163.364,649.385 174.01,655.964 175.278,656.841C185.613,663.989 194.54,670.556 204.646,678.015C208.851,681.118 216.115,688.741 216.115,688.741C216.115,688.741 203.755,689.059 203.006,689.117C189.194,690.179 175.401,691.276 161.646,692.943C160.782,693.048 149.459,694.221 149.459,694.221C149.459,694.221 156.077,703.259 157.211,705.805C161.642,715.757 165.366,726.733 169.021,736.998C179.754,767.137 201.074,883.129 223.607,908.322C227.325,912.478 304.717,910.928 306.673,907.894C309.903,902.881 286.313,772.862 282.204,749.759C269.62,679.004 264.996,604.357 277.631,533.6L276.893,517.508Z"
              style="fill: url(#Lab-coat_Linear6)"
            />
            <clipPath id="Lab-coat_3">
              <path
                d="M276.893,517.508C277.435,517.127 265.361,526.004 261.799,528.055C250.407,534.614 242.164,542.05 233.709,552.195C215.039,574.6 197.294,597.743 181.382,622.196C176.461,629.758 163.364,649.385 163.364,649.385C163.364,649.385 174.01,655.964 175.278,656.841C185.613,663.989 194.54,670.556 204.646,678.015C208.851,681.118 216.115,688.741 216.115,688.741C216.115,688.741 203.755,689.059 203.006,689.117C189.194,690.179 175.401,691.276 161.646,692.943C160.782,693.048 149.459,694.221 149.459,694.221C149.459,694.221 156.077,703.259 157.211,705.805C161.642,715.757 165.366,726.733 169.021,736.998C179.754,767.137 201.074,883.129 223.607,908.322C227.325,912.478 304.717,910.928 306.673,907.894C309.903,902.881 286.313,772.862 282.204,749.759C269.62,679.004 264.996,604.357 277.631,533.6L276.893,517.508Z"
              />
            </clipPath>
            <g clip-path="url(#Lab-coat_3)">
              <path d="M228.482,701.232C228.647,700.991 219.551,691.719 216.193,688.868" style="fill: none; stroke: black; stroke-width: 2.1px" />
              <path
                d="M214.968,690.311C206.752,691.272 189.346,693.17 178.239,695.467C173.807,696.384 165.297,699.302 165.297,699.302C165.297,699.302 171.232,715.416 172.714,722.224C176.674,740.406 189.024,795.02 190.435,813.551C190.921,819.937 196.824,852.785 197.015,859.186C197.029,859.687 185.994,821.991 183.501,813.154C182.716,810.372 175.764,791.984 175.022,790.006C169.338,774.872 163.937,759.641 158.139,744.548C153.003,731.176 148.038,717.715 141.931,704.748C140.431,701.562 135.406,694.64 137.85,690.983C139.504,688.508 143.369,687.754 146.055,687.185C153.702,685.567 161.822,685.269 169.609,684.949C176.844,684.652 184.039,684.846 191.264,685.258L214.968,690.311ZM165.951,653.064C166.166,654.032 167.154,651.485 167.737,650.683C168.906,649.072 170.122,647.498 171.284,645.882C174.847,640.926 178.42,635.978 181.944,630.995C192.261,616.409 202.949,602.028 213.879,587.897C223.673,575.236 234.421,563.878 245.661,552.543C250.307,547.857 254.216,541.979 259.715,538.229C268.417,532.296 278.359,527.573 287.819,522.981C291.604,521.143 297.751,519.569 300.456,516.147C303.971,511.698 296.492,500.56 293.027,497.865C287.56,493.613 277.557,498.433 272.24,500.695C250.839,509.801 238.608,527.991 224.219,545.709C219.612,551.381 215.07,557.108 210.541,562.842C204.261,570.792 198.039,578.789 191.883,586.835C184.658,596.278 177.601,605.857 170.929,615.701C169.015,618.524 167.13,621.368 165.253,624.216C163.912,626.251 162.587,628.295 161.269,630.344C157.198,636.678 141.179,654.394 154.288,658.534L165.951,653.064Z"
                style="fill: rgb(244, 248, 251)"
              />
              <path
                d="M280.213,514.197C280.582,512.811 268.527,541.212 266.567,549.559C260.901,573.693 261.226,601.268 260.87,625.927C260.039,683.596 271.443,747.37 281.837,803.875C284.846,820.233 306.045,935.177 314.553,947.531C323.599,960.666 341.574,955.361 356.429,954.184C367.459,953.31 353.915,863.688 352.008,855.89C347.434,837.176 341.565,818.742 336.594,800.127C314.819,718.574 304.369,635.176 294.359,551.566L280.213,514.197ZM206.789,687.215C208.363,687.659 210.456,689.939 211.786,690.879C215.703,693.649 219.673,696.34 223.615,699.073C224.132,699.432 228.415,702.915 228.984,702.532C229.133,702.431 227.704,700.987 227.617,700.898C225.995,699.219 224.303,697.603 222.635,695.97C219.336,692.742 214.172,685.592 208.934,685.467L206.789,687.215Z"
                style="fill: rgb(130, 168, 187)"
              />
            </g>
            <path
              d="M276.893,517.508C277.435,517.127 265.361,526.004 261.799,528.055C250.407,534.614 242.164,542.05 233.709,552.195C215.039,574.6 197.294,597.743 181.382,622.196C176.461,629.758 163.364,649.385 163.364,649.385C163.364,649.385 174.01,655.964 175.278,656.841C185.613,663.989 194.54,670.556 204.646,678.015C208.851,681.118 216.115,688.741 216.115,688.741C216.115,688.741 203.755,689.059 203.006,689.117C189.194,690.179 175.401,691.276 161.646,692.943C160.782,693.048 149.459,694.221 149.459,694.221C149.459,694.221 156.077,703.259 157.211,705.805C161.642,715.757 165.366,726.733 169.021,736.998C179.754,767.137 201.074,883.129 223.607,908.322C227.325,912.478 304.717,910.928 306.673,907.894C309.903,902.881 286.313,772.862 282.204,749.759C269.62,679.004 264.996,604.357 277.631,533.6L276.893,517.508Z"
              style="fill: none; stroke: black; stroke-width: 2.1px"
            />
            <g transform="matrix(-1,0,0,1,800.283,0)">
              <path
                d="M276.893,517.508C277.435,517.127 265.361,526.004 261.799,528.055C250.407,534.614 242.164,542.05 233.709,552.195C215.039,574.6 197.294,597.743 181.382,622.196C176.461,629.758 163.364,649.385 163.364,649.385C163.364,649.385 174.01,655.964 175.278,656.841C185.613,663.989 194.54,670.556 204.646,678.015C208.851,681.118 216.115,688.741 216.115,688.741C216.115,688.741 203.755,689.059 203.006,689.117C189.194,690.179 175.401,691.276 161.646,692.943C160.782,693.048 149.459,694.221 149.459,694.221C149.459,694.221 156.077,703.259 157.211,705.805C161.642,715.757 165.366,726.733 169.021,736.998C179.754,767.137 201.074,883.129 223.607,908.322C227.325,912.478 304.717,910.928 306.673,907.894C309.903,902.881 286.313,772.862 282.204,749.759C269.62,679.004 264.996,604.357 277.631,533.6L276.893,517.508Z"
                style="fill: url(#Lab-coat_Linear8)"
              />
              <clipPath id="Lab-coat_4">
                <path
                  d="M276.893,517.508C277.435,517.127 265.361,526.004 261.799,528.055C250.407,534.614 242.164,542.05 233.709,552.195C215.039,574.6 197.294,597.743 181.382,622.196C176.461,629.758 163.364,649.385 163.364,649.385C163.364,649.385 174.01,655.964 175.278,656.841C185.613,663.989 194.54,670.556 204.646,678.015C208.851,681.118 216.115,688.741 216.115,688.741C216.115,688.741 203.755,689.059 203.006,689.117C189.194,690.179 175.401,691.276 161.646,692.943C160.782,693.048 149.459,694.221 149.459,694.221C149.459,694.221 156.077,703.259 157.211,705.805C161.642,715.757 165.366,726.733 169.021,736.998C179.754,767.137 201.074,883.129 223.607,908.322C227.325,912.478 304.717,910.928 306.673,907.894C309.903,902.881 286.313,772.862 282.204,749.759C269.62,679.004 264.996,604.357 277.631,533.6L276.893,517.508Z"
                />
              </clipPath>
              <g clip-path="url(#Lab-coat_4)">
                <path d="M228.482,701.232C228.647,700.991 219.551,691.719 216.193,688.868" style="fill: none; stroke: black; stroke-width: 2.1px" />
                <g transform="matrix(-1,0,0,1,800.283,0)">
                  <path
                    d="M585.316,690.311C593.531,691.272 610.937,693.17 622.045,695.467C626.476,696.384 634.986,699.302 634.986,699.302C634.986,699.302 629.051,715.416 627.569,722.224C623.609,740.406 611.259,795.02 609.848,813.551C609.362,819.937 603.46,852.785 603.269,859.186C603.254,859.687 614.289,821.991 616.783,813.154C617.568,810.372 624.519,791.984 625.261,790.006C630.945,774.872 636.347,759.641 642.144,744.548C647.281,731.176 652.246,717.715 658.352,704.748C659.853,701.562 664.877,694.64 662.433,690.983C660.779,688.508 656.915,687.754 654.228,687.185C646.581,685.567 638.461,685.269 630.674,684.949C623.439,684.652 616.244,684.846 609.019,685.258L585.316,690.311ZM634.332,653.064C634.117,654.032 633.129,651.485 632.546,650.683C631.378,649.072 630.161,647.498 628.999,645.882C625.436,640.926 621.864,635.978 618.339,630.995C608.022,616.409 597.335,602.028 586.404,587.897C576.611,575.236 565.862,563.878 554.622,552.543C549.976,547.857 546.067,541.979 540.568,538.229C531.866,532.296 521.925,527.573 512.464,522.981C508.679,521.143 502.532,519.569 499.828,516.147C496.313,511.698 503.792,500.56 507.256,497.865C512.724,493.613 522.726,498.433 528.043,500.695C549.444,509.801 561.676,527.991 576.064,545.709C580.671,551.381 585.213,557.108 589.743,562.842C596.022,570.792 602.244,578.789 608.4,586.835C615.625,596.278 622.683,605.857 629.355,615.701C631.269,618.524 633.153,621.368 635.03,624.216C636.371,626.251 637.696,628.295 639.014,630.344C643.085,636.678 659.104,654.394 645.995,658.534L634.332,653.064Z"
                    style="fill: rgb(244, 248, 251)"
                  />
                </g>
                <g transform="matrix(-1,0,0,1,800.283,0)">
                  <path
                    d="M520.071,514.197C519.701,512.811 531.756,541.212 533.716,549.559C539.383,573.693 539.057,601.268 539.413,625.927C540.245,683.596 528.84,747.37 518.446,803.875C515.437,820.233 494.238,935.177 485.73,947.531C476.684,960.666 458.71,955.361 443.854,954.184C432.824,953.31 446.369,863.688 448.275,855.89C452.849,837.176 458.718,818.742 463.689,800.127C485.464,718.574 495.914,635.176 505.924,551.566L520.071,514.197ZM593.494,687.215C591.92,687.659 589.827,689.939 588.497,690.879C584.58,693.649 580.611,696.34 576.668,699.073C576.151,699.432 571.868,702.915 571.3,702.532C571.15,702.431 572.579,700.987 572.666,700.898C574.288,699.219 575.98,697.603 577.648,695.97C580.947,692.742 586.111,685.592 591.349,685.467L593.494,687.215Z"
                    style="fill: rgb(130, 168, 187)"
                  />
                </g>
              </g>
              <path
                d="M276.893,517.508C277.435,517.127 265.361,526.004 261.799,528.055C250.407,534.614 242.164,542.05 233.709,552.195C215.039,574.6 197.294,597.743 181.382,622.196C176.461,629.758 163.364,649.385 163.364,649.385C163.364,649.385 174.01,655.964 175.278,656.841C185.613,663.989 194.54,670.556 204.646,678.015C208.851,681.118 216.115,688.741 216.115,688.741C216.115,688.741 203.755,689.059 203.006,689.117C189.194,690.179 175.401,691.276 161.646,692.943C160.782,693.048 149.459,694.221 149.459,694.221C149.459,694.221 156.077,703.259 157.211,705.805C161.642,715.757 165.366,726.733 169.021,736.998C179.754,767.137 201.074,883.129 223.607,908.322C227.325,912.478 304.717,910.928 306.673,907.894C309.903,902.881 286.313,772.862 282.204,749.759C269.62,679.004 264.996,604.357 277.631,533.6L276.893,517.508Z"
                style="fill: none; stroke: black; stroke-width: 2.1px"
              />
            </g>
          </g>
        </g>
      </g>
    </g>
  </g>
  <defs>
    <linearGradient id="Lab-coat_Linear2" x1="0" y1="0" x2="1" y2="0.0286456" gradientUnits="userSpaceOnUse" gradientTransform="matrix(5.33425,347.021,-211.665,-0.444678,116.784,544.634)">
      <stop offset="0" style="stop-color: rgb(218, 231, 237); stop-opacity: 1" />
      <stop offset="0.53" style="stop-color: rgb(200, 219, 230); stop-opacity: 1" />
      <stop offset="1" style="stop-color: rgb(140, 180, 206); stop-opacity: 1" />
    </linearGradient>
    <linearGradient id="Lab-coat_Linear4" x1="0" y1="0" x2="1" y2="0.0286456" gradientUnits="userSpaceOnUse" gradientTransform="matrix(5.33425,347.021,-211.665,-0.444678,116.784,544.634)">
      <stop offset="0" style="stop-color: rgb(218, 231, 237); stop-opacity: 1" />
      <stop offset="0.53" style="stop-color: rgb(200, 219, 230); stop-opacity: 1" />
      <stop offset="1" style="stop-color: rgb(140, 180, 206); stop-opacity: 1" />
    </linearGradient>
    <linearGradient id="Lab-coat_Linear6" x1="0" y1="0" x2="1" y2="0.128238" gradientUnits="userSpaceOnUse" gradientTransform="matrix(4.03851,445.622,-131.304,-3.77558,224.289,523.654)">
      <stop offset="0" style="stop-color: rgb(218, 231, 237); stop-opacity: 1" />
      <stop offset="0.51" style="stop-color: rgb(199, 219, 230); stop-opacity: 1" />
      <stop offset="1" style="stop-color: rgb(140, 180, 206); stop-opacity: 1" />
    </linearGradient>
    <linearGradient id="Lab-coat_Linear8" x1="0" y1="0" x2="1" y2="0.128238" gradientUnits="userSpaceOnUse" gradientTransform="matrix(4.03851,445.622,-131.304,-3.77558,224.289,523.654)">
      <stop offset="0" style="stop-color: rgb(218, 231, 237); stop-opacity: 1" />
      <stop offset="0.51" style="stop-color: rgb(199, 219, 230); stop-opacity: 1" />
      <stop offset="1" style="stop-color: rgb(140, 180, 206); stop-opacity: 1" />
    </linearGradient>
  </defs>
</svg>
