<svg viewBox="0 0 800 800" xmlns="http://www.w3.org/2000/svg">
  <g transform="matrix(0.88685,0,0,0.88685,45.1133,44.9531)">
    <g id="torso">
      <g id="torso-3">
        <g transform="matrix(1.12759,0,0,1.12759,-50.8692,-50.6885)">
          <path
            d="M399.469,520.176C439.826,519.743 478.251,518.933 494.337,518.044L549.012,543.586C546.991,543.586 665.828,593.164 696.294,612.781C715.729,625.295 776.624,661.168 784.562,668.791C843.793,725.672 885.432,830.862 863.979,845.54C851.184,854.295 767.557,883.814 753.112,883.311C714.714,881.975 658.038,892.699 619.628,891.771C567.569,890.514 515.597,889.441 463.556,887.591C455.653,887.31 427.922,887.798 399.855,888.436L399.855,888.453L399.469,888.444L399.083,888.453L399.083,888.436C371.016,887.798 343.285,887.31 335.382,887.591C283.342,889.441 231.369,890.514 179.31,891.771C140.901,892.699 84.224,881.975 45.826,883.311C31.381,883.814 -52.246,854.295 -65.041,845.54C-86.494,830.862 -44.855,725.672 14.376,668.791C22.314,661.168 83.209,625.295 102.644,612.781C133.11,593.164 251.947,543.586 249.926,543.586L304.602,518.044C320.687,518.933 359.112,519.743 399.469,520.176Z"
            style="fill: var(--color_skin, rgb(240, 205, 177))"
          />
          <clipPath id="_clip1_business_body">
            <path
              d="M399.469,520.176C439.826,519.743 478.251,518.933 494.337,518.044L549.012,543.586C546.991,543.586 665.828,593.164 696.294,612.781C715.729,625.295 776.624,661.168 784.562,668.791C843.793,725.672 885.432,830.862 863.979,845.54C851.184,854.295 767.557,883.814 753.112,883.311C714.714,881.975 658.038,892.699 619.628,891.771C567.569,890.514 515.597,889.441 463.556,887.591C455.653,887.31 427.922,887.798 399.855,888.436L399.855,888.453L399.469,888.444L399.083,888.453L399.083,888.436C371.016,887.798 343.285,887.31 335.382,887.591C283.342,889.441 231.369,890.514 179.31,891.771C140.901,892.699 84.224,881.975 45.826,883.311C31.381,883.814 -52.246,854.295 -65.041,845.54C-86.494,830.862 -44.855,725.672 14.376,668.791C22.314,661.168 83.209,625.295 102.644,612.781C133.11,593.164 251.947,543.586 249.926,543.586L304.602,518.044C320.687,518.933 359.112,519.743 399.469,520.176Z"
            />
          </clipPath>
          <g clip-path="url(#_clip1_business_body)">
            <path
              d="M257.008,550.757L271.415,531.307C253.708,521.649 202.222,541.571 186.319,549.022C140.6,570.444 96.721,596.072 57.107,627.498C50.833,632.475 -64.255,715.951 -60.96,725.944C-59.276,731.05 -40.643,751.781 7.674,696.431C18.401,684.142 68.025,650.451 87.751,639.851C144.86,609.164 158.887,599.538 203.784,576.467C213.963,571.236 252.091,555.788 257.008,550.757ZM540.327,550.757L525.92,531.307C543.627,521.649 595.113,541.571 611.016,549.022C656.735,570.444 700.614,596.072 740.228,627.498C746.501,632.475 861.59,715.951 858.294,725.944C856.61,731.05 837.978,751.781 789.661,696.431C778.933,684.142 729.31,650.451 709.583,639.851C652.475,609.164 638.448,599.538 593.551,576.467C583.372,571.236 545.243,555.788 540.327,550.757Z"
              style="fill: rgb(252, 255, 216); fill-opacity: 0.6"
            />
          </g>
          <path
            d="M399.469,520.176C439.826,519.743 478.251,518.933 494.337,518.044L549.012,543.586C546.991,543.586 665.828,593.164 696.294,612.781C715.729,625.295 776.624,661.168 784.562,668.791C843.793,725.672 885.432,830.862 863.979,845.54C851.184,854.295 767.557,883.814 753.112,883.311C714.714,881.975 658.038,892.699 619.628,891.771C567.569,890.514 515.597,889.441 463.556,887.591C455.653,887.31 427.922,887.798 399.855,888.436L399.855,888.453L399.469,888.444L399.083,888.453L399.083,888.436C371.016,887.798 343.285,887.31 335.382,887.591C283.342,889.441 231.369,890.514 179.31,891.771C140.901,892.699 84.224,881.975 45.826,883.311C31.381,883.814 -52.246,854.295 -65.041,845.54C-86.494,830.862 -44.855,725.672 14.376,668.791C22.314,661.168 83.209,625.295 102.644,612.781C133.11,593.164 251.947,543.586 249.926,543.586L304.602,518.044C320.687,518.933 359.112,519.743 399.469,520.176Z"
            style="fill: none; stroke: black; stroke-width: 2.1px"
          />
        </g>
        <g transform="matrix(1,0,0,1,0,54.9365)">
          <path
            d="M114.703,629.406C131.466,634.483 148.339,639.226 165.353,643.399C225.725,658.207 315.549,658.233 366.531,692.77"
            style="fill: none; stroke: black; stroke-width: 2.37px"
          />
        </g>
        <g transform="matrix(-1,0,0,1,797.829,54.9365)">
          <path
            d="M114.703,629.406C131.466,634.483 148.339,639.226 165.353,643.399C225.725,658.207 315.549,658.233 366.531,692.77"
            style="fill: none; stroke: black; stroke-width: 2.37px"
          />
        </g>
      </g>
    </g>
  </g>
  <g transform="matrix(0.88685,0,0,0.88685,45.1133,13.2405)">
    <g id="necks">
      <g id="neck-3">
        <g transform="matrix(1.12759,0,0,1.12759,-50.8692,-14.9298)">
          <path
            d="M270.328,624.68C268.686,622.049 273.522,610.338 274.213,606.954C278.119,587.813 280.07,569.944 278.904,550.59C277.806,532.35 277.691,517.001 275.952,501.178C275.522,497.265 274.771,490.106 280.064,488.434C287.937,485.948 317.179,497.862 325.645,500.024C354.98,507.514 383.782,509.517 413.961,507.237C441.153,505.183 467.947,500.689 494.786,496.05C496.937,495.678 522.576,491.29 524.982,492.694C527.051,493.901 523.779,504.555 523.515,506.172C521.285,519.829 521.214,533.523 521.214,547.323C521.214,563.64 523.472,582.617 527.173,598.576C528.235,603.157 531.684,613.661 529.162,618.026C523.682,627.511 499.046,631.324 489.971,633.822C479.937,636.584 469.824,639.058 459.64,641.206C443.684,644.572 427.592,647.019 411.294,647.847C371.931,649.845 333.739,643.801 296.308,631.836"
            style="fill: var(--color_skin, rgb(240, 205, 177))"
          />
          <clipPath id="_clip2_business_body">
            <path
              d="M270.328,624.68C268.686,622.049 273.522,610.338 274.213,606.954C278.119,587.813 280.07,569.944 278.904,550.59C277.806,532.35 277.691,517.001 275.952,501.178C275.522,497.265 274.771,490.106 280.064,488.434C287.937,485.948 317.179,497.862 325.645,500.024C354.98,507.514 383.782,509.517 413.961,507.237C441.153,505.183 467.947,500.689 494.786,496.05C496.937,495.678 522.576,491.29 524.982,492.694C527.051,493.901 523.779,504.555 523.515,506.172C521.285,519.829 521.214,533.523 521.214,547.323C521.214,563.64 523.472,582.617 527.173,598.576C528.235,603.157 531.684,613.661 529.162,618.026C523.682,627.511 499.046,631.324 489.971,633.822C479.937,636.584 469.824,639.058 459.64,641.206C443.684,644.572 427.592,647.019 411.294,647.847C371.931,649.845 333.739,643.801 296.308,631.836"
            />
          </clipPath>
          <g clip-path="url(#_clip2_business_body)">
            <path
              d="M276.438,497.629C276.947,497.019 277.181,499.035 277.54,499.744C278.28,501.213 279.042,502.903 279.564,504.468C281.736,510.986 282.203,519.074 282.561,525.86C283.396,541.736 285.02,557.549 282.135,573.285C281.449,577.026 280.046,580.624 278.934,584.261C278.822,584.628 277.959,587.102 277.552,587.17C277.54,587.172 278.047,578.434 278.086,577.936C278.55,571.967 278.879,565.994 279.082,560.012C279.676,542.401 277.784,525.539 275.411,508.136L276.438,497.629ZM524.758,497.629C524.248,497.019 524.014,499.035 523.656,499.744C522.915,501.213 522.153,502.903 521.631,504.468C519.459,510.986 518.992,519.074 518.635,525.86C517.799,541.736 516.175,557.549 519.06,573.285C519.746,577.026 521.149,580.624 522.262,584.261C522.374,584.628 523.237,587.102 523.643,587.17C523.655,587.172 523.148,578.434 523.109,577.936C522.646,571.967 522.316,565.994 522.114,560.012C521.519,542.401 523.412,525.539 525.785,508.136L524.758,497.629Z"
              style="fill: rgb(252, 255, 216); fill-opacity: 0.6"
            />
          </g>
        </g>
        <g transform="matrix(1.12759,0,0,1.12759,-50.8692,-14.9298)">
          <path
            d="M275.568,495.005L276.932,510.248C276.932,510.248 277.497,526.429 277.913,534.43C279.193,559.071 280.331,583.333 273.594,607.287"
            style="fill: none; stroke: black; stroke-width: 2.1px"
          />
        </g>
        <g transform="matrix(1.12759,0,0,1.12759,-50.8692,-14.9298)">
          <path
            d="M526.165,491.524C520.421,502.753 521.497,586.931 528.322,602.402"
            style="fill: none; stroke: black; stroke-width: 2.1px"
          />
        </g>
      </g>
    </g>
  </g>
</svg>
