<?xml version="1.0" encoding="UTF-8" standalone="no"?>
<!DOCTYPE svg PUBLIC "-//W3C//DTD SVG 1.1//EN" "http://www.w3.org/Graphics/SVG/1.1/DTD/svg11.dtd">
<svg
  width="100%"
  height="100%"
  viewBox="0 0 800 800"
  version="1.1"
  xmlns="http://www.w3.org/2000/svg"
  xmlns:xlink="http://www.w3.org/1999/xlink"
  xml:space="preserve"
>
  <g id="torso">
    <g id="torso-1">
      <path
        id="curves"
        d="M293.346,632.475C306.111,629.293 487.396,627.041 503.617,629.089C524.137,645.299 582.398,683.553 605.535,690.808C623.734,696.514 645.985,708.645 663.533,716.176C679.43,722.998 698.002,734.424 714.343,740.187C740.119,749.278 765.38,753.651 789.185,767.912C809.406,780.026 821.584,801.682 829.568,823.24C831.086,823.24 826.75,824.371 825.323,824.888C822.235,826.009 819.103,826.942 815.913,827.727C806.613,830.013 797.104,831.69 787.587,832.737C757.88,836.005 728.477,835.183 698.73,832.887C673.829,830.966 649.096,827.682 624.25,825.24C594.757,822.34 565.573,820.53 536.324,815.391C532.33,814.689 509.668,810.94 507.173,807.614C506.005,806.057 511.768,804.117 510.392,802.74C510.342,802.691 497.331,806.453 496.687,806.539C482.442,808.435 467.563,807.382 453.28,806.503C443.995,805.932 434.725,805.049 425.462,804.217C421.873,803.894 418.287,803.516 414.689,803.306C412.689,803.19 403.584,803.04 400,803.072L400,803.093C399.857,803.087 399.679,803.082 399.469,803.079C399.258,803.082 399.08,803.087 398.937,803.093L398.937,803.072C395.353,803.04 386.248,803.19 384.248,803.306C380.65,803.516 377.064,803.894 373.475,804.217C364.212,805.049 354.942,805.932 345.657,806.503C331.374,807.382 316.495,808.435 302.25,806.539C301.606,806.453 288.595,802.691 288.545,802.74C287.169,804.117 292.932,806.057 291.764,807.614C289.269,810.94 266.607,814.689 262.613,815.391C233.364,820.53 204.18,822.34 174.687,825.24C149.841,827.682 125.108,830.966 100.207,832.887C70.46,835.183 41.057,836.005 11.35,832.737C1.833,831.69 -7.676,830.013 -16.976,827.727C-20.166,826.942 -23.298,826.009 -26.386,824.888C-27.813,824.371 -32.149,823.24 -30.631,823.24C-22.647,801.682 -10.469,780.026 9.752,767.912C33.557,753.651 62.864,752.253 88.639,743.162C104.98,737.399 120.142,728.862 136.039,722.039C153.587,714.508 167.26,706.258 187.913,696.213C209.294,685.813 263.498,651.402 293.346,632.475Z"
        style="
          fill: var(--color_skin, rgb(240, 205, 177));
          stroke: black;
          stroke-width: 2.13px;
        "
      />
      <path
        d="M377.756,794.993C367.218,788.642 357.548,777.834 345.57,773.841C328.284,768.079 301.703,769.209 283.475,767.642C230.499,763.087 175.851,762.857 124.016,750.149"
        style="fill: none; stroke: black; stroke-width: 2.13px"
      />
      <g transform="matrix(-1,0,0,1,796.397,0)">
        <path
          d="M377.756,794.993C367.218,788.642 357.548,777.834 345.57,773.841C328.284,768.079 301.703,769.209 283.475,767.642C230.499,763.087 175.851,762.857 124.016,750.149"
          style="fill: none; stroke: black; stroke-width: 2.13px"
        />
      </g>
    </g>
  </g>
  <g id="necks">
    <g id="neck-1">
      <path
        d="M291.885,514.666C291.889,514.664 293.039,548.747 293.005,558.272C292.879,593.67 293.16,637.471 288.786,670.82C287.825,678.147 281.91,705.193 284.333,709.034C292.363,721.763 316.363,720.943 329.039,723.132C375.84,731.214 424.243,726.774 470.746,718.676C483.633,716.432 518.663,721.901 514.973,707.965C507.857,681.091 507.143,664.134 506.17,656.477C502,623.666 503.091,562.353 505.826,534.499C507.171,520.811 510.231,499.787 498.656,489.948C485.609,478.858 462.373,478.001 446.307,477.01C402.722,474.323 348.967,475.942 309.14,496.354"
        style="fill: var(--color_skin, rgb(240, 205, 177))"
      />
      <clipPath id="_clip1_punk_body">
        <path
          d="M291.885,514.666C291.889,514.664 293.039,548.747 293.005,558.272C292.879,593.67 293.16,637.471 288.786,670.82C287.825,678.147 281.91,705.193 284.333,709.034C292.363,721.763 316.363,720.943 329.039,723.132C375.84,731.214 424.243,726.774 470.746,718.676C483.633,716.432 518.663,721.901 514.973,707.965C507.857,681.091 507.143,664.134 506.17,656.477C502,623.666 503.091,562.353 505.826,534.499C507.171,520.811 510.231,499.787 498.656,489.948C485.609,478.858 462.373,478.001 446.307,477.01C402.722,474.323 348.967,475.942 309.14,496.354"
        />
      </clipPath>
      <g clip-path="url(#_clip1_punk_body)">
        <path
          d="M290.432,527.568C290.672,528.036 291.589,528.643 291.9,529.14C292.799,530.577 293.619,532.054 294.359,533.578C296.481,537.945 297.968,543.089 298.225,547.965C299.261,567.655 298.23,588.827 295.547,608.372C294.904,613.062 292.555,617.467 290.169,621.494C289.786,622.139 288.403,625.307 287.468,625.274C286.195,625.23 287.235,618.274 287.301,617.659C288.226,609.129 289.4,600.627 290.076,592.07C291.049,579.745 290.831,567.506 290.238,555.17C289.859,547.279 288.771,539.072 289.588,531.175L290.432,527.568C290.338,527.384 290.348,527.222 290.543,527.097L290.432,527.568ZM506.408,526.51C506.168,526.977 505.251,527.584 504.94,528.082C504.041,529.518 503.221,530.995 502.481,532.519C500.359,536.886 498.872,542.03 498.615,546.906C497.579,566.596 498.61,587.768 501.293,607.313C501.936,612.003 504.285,616.408 506.671,620.435C507.054,621.08 508.438,624.248 509.372,624.215C510.645,624.172 509.605,617.215 509.539,616.6C508.614,608.07 507.44,599.568 506.764,591.011C505.791,578.686 506.009,566.447 506.602,554.111C506.981,546.22 508.069,538.014 507.252,530.116L506.408,526.51C506.502,526.325 506.492,526.163 506.297,526.038L506.408,526.51Z"
          style="fill: rgb(252, 255, 216); fill-opacity: 0.6"
        />
      </g>
      <g transform="matrix(-1,0,0,1,798.883,0)">
        <path
          d="M290.588,516.997C292.035,518.867 294.709,553.499 294.709,564.516C294.709,593.234 296.339,664.877 286.421,693.899"
          style="fill: none; stroke: black; stroke-width: 2.1px"
        />
      </g>
      <path
        d="M290.588,516.997C292.035,518.867 293.571,557.953 293.571,568.97C293.571,597.688 293.544,668.722 283.626,697.744"
        style="fill: none; stroke: black; stroke-width: 2.1px"
      />
      <path
        d="M332.608,592.419C333.07,592.049 332.861,593.576 332.969,594.159C333.197,595.387 333.443,596.611 333.689,597.836C334.421,601.486 335.124,605.142 335.854,608.792C337.963,619.336 341.152,629.406 344.73,639.52C349.021,651.652 350.901,664.41 354.029,676.86C359.322,697.926 365.21,718.732 368.991,740.158"
        style="fill: none; stroke: black; stroke-width: 2.13px"
      />
      <g transform="matrix(-1,0,0,1,800.812,0)">
        <path
          d="M332.608,592.419C333.07,592.049 332.861,593.576 332.969,594.159C333.197,595.387 333.443,596.611 333.689,597.836C334.421,601.486 335.124,605.142 335.854,608.792C337.963,619.336 341.152,629.406 344.73,639.52C349.021,651.652 350.901,664.41 354.029,676.86C359.322,697.926 365.21,718.732 368.991,740.158"
          style="fill: none; stroke: black; stroke-width: 2.13px"
        />
      </g>
    </g>
  </g>
</svg>
