<svg viewBox="0 0 800 800" xmlns="http://www.w3.org/2000/svg">
  <g id="mouth">
    <path
      d="M406.948,536.6C406.916,536.687 408.568,537.006 408.653,537.022C410.553,537.375 412.299,537.244 414.181,536.837C419.981,535.583 423.509,530.433 426.797,525.999C427.681,524.806 428.463,523.602 429.036,522.228C429.133,521.995 429.564,521.116 429.399,520.856C429.192,520.531 427.102,521.558 426.884,521.642C424.093,522.722 421.176,523.672 418.239,524.255C412.794,525.337 406.652,525.816 401.101,525.344C399.072,525.172 397.065,524.885 395.073,524.459C394.348,524.305 393.025,523.764 392.278,524.013C391.238,524.36 392.995,528.06 393.265,528.563C395.35,532.442 398.998,534.948 403.226,536.096L406.948,536.6Z"
      style="fill: rgb(56, 25, 57); fill-opacity: 0.5"
    />
    <path
      d="M392.184,524.068C391.952,523.721 402.506,525.172 405.243,525.382C413.083,525.985 422.044,523.47 429.267,520.547"
      style="fill: none; stroke: black; stroke-width: 2.1px"
    />
    <path
      d="M416.781,491.569C416.037,492.358 413.954,492.831 412.982,493.339C410.193,494.796 407.552,496.468 404.829,498.032"
      style="fill: none; stroke: black; stroke-width: 2.1px"
    />
    <path
      d="M391.279,506.011C391.173,505.913 389.865,506.33 389.756,506.392C388.06,507.356 386.272,508.683 384.505,509.513C384.015,509.743 384.255,508.696 384.042,508.434C383.609,507.902 382.601,508.157 382.056,508.3C380.705,508.655 376.723,511.441 378.109,513.317C378.923,514.418 380.374,513.575 381.253,513.079C383.875,511.597 386.613,510.368 389.409,509.26C390.275,508.917 391.143,508.579 392.011,508.24C392.154,508.185 392.825,508.029 392.867,507.835C392.885,507.751 392.264,507.551 392.19,507.509C391.774,507.274 391.438,506.952 391.219,506.527L391.279,506.011ZM430.79,500.013C430.913,500.037 431.339,500.045 431.514,500.048C432.001,500.055 432.488,500.039 432.971,499.971C434.257,499.792 437.628,498.302 437.536,500.964C437.446,503.558 433.6,502.293 432.255,501.94C432.035,501.882 430.24,501.656 430.221,501.415L430.79,500.013C430.746,500.004 430.741,499.994 430.803,499.981L430.79,500.013Z"
    />
    <path
      d="M389.837,507.439C389.837,507.439 400.879,500.485 404.048,498.624C405.425,497.815 407.696,496.502 409.249,496.04C410.859,495.56 420.459,497.867 425.145,499.068C426.39,499.388 431.989,501.056 431.989,501.056C431.989,501.056 422.612,502.534 419.19,503.318C410.848,505.229 403.236,506.383 395.848,507.261L389.837,507.439Z"
      style="fill: white; stroke: black; stroke-width: 2.1px"
    />
    <path
      d="M422.798,511.827C422.242,511.518 424.509,510.327 424.603,510.286C425.886,509.723 432.813,507.589 433.33,510.347C433.849,513.115 422.191,515.704 422.798,511.827Z"
      style="fill: rgb(252, 255, 216); fill-opacity: 0.6"
    />
  </g>
</svg>
