<svg viewBox="0 0 800 800" xmlns="http://www.w3.org/2000/svg">
  <g
    id="Gorgeous-emotions"
    transform="matrix(0.388951,0,0,0.388951,2.34032,2.21244)"
  >
    <g id="Mouth" transform="matrix(1,0,0,1,-6.6806,-5.84553)">
      <g transform="matrix(2.57102,0,0,2.57102,0.663588,0.157309)">
        <path
          d="M333.147,490.573C333.285,491.242 332.437,494.199 333.343,495.724C334.327,497.382 337.372,497.237 338.138,498.189C341.054,501.812 342.94,507.018 345.353,511.029C353.109,523.923 362.354,540.6 375.465,548.77C380.113,551.667 385.367,552.899 390.699,553.868C395.448,554.73 400.04,555.028 404.852,554.67C428.51,552.909 439.364,535.817 452.542,515.306C456.352,509.378 458.978,504.387 462.232,498.517C463.343,496.513 467.369,498.83 467.625,492.564C467.783,488.693 461.162,494.031 460.448,494.62C459.972,495.014 459.498,495.41 459.024,495.805C458.232,496.465 457.444,497.128 456.647,497.781C446.082,506.425 434.795,514.807 421.373,518.306C407.115,522.023 391.538,522.016 377.565,517.036C362.578,511.695 349.272,501.394 336.571,491.978"
          style="fill: rgb(56, 25, 57); fill-opacity: 0.5"
        />
      </g>
      <path
        d="M919.831,1288.04C919.164,1288.25 918.3,1286.41 918.943,1286.14C919.912,1285.73 923.236,1286.82 924.424,1286.85C928.717,1286.96 932.831,1288.14 936.945,1289.29C949.796,1292.88 962.651,1297.1 975.729,1299.76C1003.25,1305.35 1030.52,1306.74 1058.51,1303.19C1068.25,1301.95 1077.63,1298.77 1087.22,1296.79C1099.24,1294.3 1111.32,1292.29 1123.37,1290.01C1127.33,1289.25 1131.38,1288.42 1135.41,1288.18C1135.79,1288.16 1139.62,1288.8 1139.69,1288.72C1140.12,1288.22 1141.66,1288.75 1141.66,1288.75C1141.66,1288.75 1140,1290.8 1139.32,1291.92C1137.85,1294.37 1136.56,1296.94 1135.18,1299.43C1131.21,1306.61 1127.29,1313.81 1122.47,1320.47C1117.98,1326.69 1095.82,1340.72 1090.95,1343.1C1082.67,1347.16 1074.36,1352.07 1065.44,1354.6C1057.94,1356.73 1049.56,1359.02 1041.83,1359.53C1034.05,1360.05 1025.42,1359.49 1017.62,1358.77C1002.46,1357.37 987.812,1351.71 973.917,1345.7C965.779,1342.18 956.962,1339.18 950.131,1333.36C937.716,1322.76 928.365,1305.65 922.343,1290.7"
        style="fill: white"
      />
      <clipPath id="_clip7_miss_scheming_mouth">
        <path
          d="M919.831,1288.04C919.164,1288.25 918.3,1286.41 918.943,1286.14C919.912,1285.73 923.236,1286.82 924.424,1286.85C928.717,1286.96 932.831,1288.14 936.945,1289.29C949.796,1292.88 962.651,1297.1 975.729,1299.76C1003.25,1305.35 1030.52,1306.74 1058.51,1303.19C1068.25,1301.95 1077.63,1298.77 1087.22,1296.79C1099.24,1294.3 1111.32,1292.29 1123.37,1290.01C1127.33,1289.25 1131.38,1288.42 1135.41,1288.18C1135.79,1288.16 1139.62,1288.8 1139.69,1288.72C1140.12,1288.22 1141.66,1288.75 1141.66,1288.75C1141.66,1288.75 1140,1290.8 1139.32,1291.92C1137.85,1294.37 1136.56,1296.94 1135.18,1299.43C1131.21,1306.61 1127.29,1313.81 1122.47,1320.47C1117.98,1326.69 1095.82,1340.72 1090.95,1343.1C1082.67,1347.16 1074.36,1352.07 1065.44,1354.6C1057.94,1356.73 1049.56,1359.02 1041.83,1359.53C1034.05,1360.05 1025.42,1359.49 1017.62,1358.77C1002.46,1357.37 987.812,1351.71 973.917,1345.7C965.779,1342.18 956.962,1339.18 950.131,1333.36C937.716,1322.76 928.365,1305.65 922.343,1290.7"
        />
      </clipPath>
      <g clip-path="url(#_clip7_miss_scheming_mouth)">
        <path
          d="M981.463,1349.82C979.592,1347.7 974.428,1342.92 972.639,1341.62C967.969,1338.24 961.219,1331.46 959.661,1325.65C959.451,1324.87 972.93,1326.78 972.386,1325.93C970.99,1323.75 964.482,1322.56 962.353,1321.19C956.887,1317.69 952.491,1314.32 949.824,1308.43C949.442,1307.59 946.9,1304.4 947.146,1303.55C947.232,1303.25 952.71,1304.53 953.155,1304.63C959.737,1306.06 966.369,1306.72 972.835,1308.66C976.484,1309.75 1005.61,1311.98 1016.29,1312.06C1023.18,1312.11 1030.06,1313.06 1036.93,1313.03C1049.67,1312.99 1062.45,1311.73 1075.04,1309.99C1097.61,1306.86 1109.09,1302.29 1110.04,1303.03C1111.1,1303.85 1108.6,1308.36 1108.21,1309.18C1106.02,1313.87 1102.99,1316.61 1098.34,1318.89C1096.65,1319.71 1091.81,1320.84 1090.8,1322.52C1090.51,1323.02 1093.77,1323.39 1094.07,1323.44C1096.68,1323.86 1100.04,1323.34 1098.9,1326.94C1097.89,1330.15 1095.69,1333.15 1093.72,1335.84C1093.49,1336.16 1089.67,1342.33 1089.98,1342.57C1090.57,1343.04 1095.39,1341.47 1096.85,1340.22C1102.14,1335.71 1100.64,1334.29 1103.28,1331.36C1112.08,1321.58 1118.82,1310.66 1128.57,1301.58C1131.07,1299.24 1138.06,1293.75 1137.02,1289.57C1136.58,1287.83 1132.44,1289.13 1131.37,1289.35C1125.13,1290.62 1118.77,1291.04 1112.53,1292.31C1094.53,1295.98 1076.61,1299.8 1058.51,1303.04C1050.52,1304.47 1042.56,1306.32 1034.44,1306.91C1016.63,1308.19 999.646,1303.21 982.355,1300.01C972.433,1298.17 962.336,1298.68 952.458,1296.35C945.68,1294.75 938.914,1292.86 932.196,1291.03C931.306,1290.79 926.073,1288.55 925.297,1289.46C924.827,1290.02 925.712,1291.28 925.983,1291.73C927.374,1294.06 943.467,1323.09 945.585,1326.6C949.672,1333.37 964.565,1343.44 971.776,1345.86C973.702,1346.51 975.487,1349.32 977.354,1349.6C978.592,1349.78 980.415,1352.75 981.463,1349.82Z"
          style="fill: rgb(56, 25, 57); fill-opacity: 0.5"
        />
        <path
          d="M1072.51,1328.42C1072.51,1328.42 1112.82,1320.28 1128.9,1296.8"
          style="fill: none; stroke: black; stroke-width: 5.4px"
        />
        <path
          d="M986.083,1328.28C986.083,1328.28 946.237,1322.41 926.535,1291.91"
          style="fill: none; stroke: black; stroke-width: 5.4px"
        />
      </g>
      <path
        d="M867.733,1264.48C867.474,1264.31 867.386,1264.22 867.479,1264.21C867.524,1264.21 867.609,1264.3 867.733,1264.48C870.431,1266.2 891.721,1275.76 922.366,1272.25C955.961,1268.4 1005.92,1259.3 1029.01,1280.07C1065.59,1260.63 1075.15,1266.87 1132.1,1272.09C1153.41,1274.05 1186.2,1266.37 1190.81,1265.15C1190.7,1265.46 1190.6,1265.79 1190.48,1266.12C1188.84,1266.8 1186,1268.24 1181.88,1270.75C1151.81,1283.32 1076.56,1305.41 1026.08,1306.07C968.858,1306.81 871.634,1267.46 871.549,1267.91C871.464,1268.37 879.435,1267.38 945.082,1327.83C991.562,1370.64 1068.83,1377.23 1133.63,1310.92C1148.2,1296.01 1154.43,1289.12 1168.52,1278.97C1173.76,1275.19 1178.44,1272.84 1181.88,1270.75C1185.25,1269.34 1188.06,1268.05 1190.19,1266.92C1183.03,1286.69 1155.85,1334.49 1135.19,1357.44C1113.89,1381.1 1100.66,1392.59 1087.67,1400.62C1065.5,1414.32 1003.76,1421.58 970.895,1400.63C947.767,1385.89 922.396,1358.05 907.365,1336.12C893.226,1315.49 870.549,1268.39 867.733,1264.48Z"
        style="fill: rgb(205, 68, 107)"
      />
      <clipPath id="_clip8_miss_scheming_mouth">
        <path
          d="M867.733,1264.48C867.474,1264.31 867.386,1264.22 867.479,1264.21C867.524,1264.21 867.609,1264.3 867.733,1264.48C870.431,1266.2 891.721,1275.76 922.366,1272.25C955.961,1268.4 1005.92,1259.3 1029.01,1280.07C1065.59,1260.63 1075.15,1266.87 1132.1,1272.09C1153.41,1274.05 1186.2,1266.37 1190.81,1265.15C1190.7,1265.46 1190.6,1265.79 1190.48,1266.12C1188.84,1266.8 1186,1268.24 1181.88,1270.75C1151.81,1283.32 1076.56,1305.41 1026.08,1306.07C968.858,1306.81 871.634,1267.46 871.549,1267.91C871.464,1268.37 879.435,1267.38 945.082,1327.83C991.562,1370.64 1068.83,1377.23 1133.63,1310.92C1148.2,1296.01 1154.43,1289.12 1168.52,1278.97C1173.76,1275.19 1178.44,1272.84 1181.88,1270.75C1185.25,1269.34 1188.06,1268.05 1190.19,1266.92C1183.03,1286.69 1155.85,1334.49 1135.19,1357.44C1113.89,1381.1 1100.66,1392.59 1087.67,1400.62C1065.5,1414.32 1003.76,1421.58 970.895,1400.63C947.767,1385.89 922.396,1358.05 907.365,1336.12C893.226,1315.49 870.549,1268.39 867.733,1264.48Z"
        />
      </clipPath>
      <g clip-path="url(#_clip8_miss_scheming_mouth)">
        <path
          d="M1180.27,1274.28C1180.88,1273.96 1181.49,1273.64 1182.1,1273.31C1182.75,1272.96 1186.19,1270.45 1186.88,1271.46C1188.39,1273.66 1185.53,1280.03 1184.88,1282.13C1181.46,1293.12 1174.83,1301.31 1168.98,1310.97C1165.12,1317.34 1162.44,1324.35 1158.4,1330.63C1153.56,1338.17 1146.98,1344.43 1141.13,1351.17C1135.38,1357.8 1129.98,1365.39 1123.25,1371.07C1114.98,1378.04 1107.01,1389.04 1098.04,1394.92C1090.74,1399.7 1085.48,1402.26 1077.31,1405.93C1059.64,1413.85 1035.74,1416.89 1016.86,1414.58C999.999,1412.52 982.154,1407.14 966.734,1399.21C956.125,1393.75 947.312,1382.9 939.504,1374.17C924.115,1356.95 908.678,1338.74 897.875,1318.2C895.653,1313.98 891.711,1311.3 889.006,1307.41C883.288,1299.18 879.261,1290.51 876.37,1280.94C875.523,1278.13 872.067,1270.48 873.305,1267.57C873.82,1266.37 881.014,1270.39 881.672,1270.73C882.811,1271.34 883.913,1271.98 884.987,1272.67C896.201,1273.55 934.626,1276.32 958.205,1275.21C986.371,1273.88 1003.1,1270.75 1029.08,1287.36C1045.99,1280.37 1062.22,1271.6 1087.18,1274.08C1115.72,1276.92 1131.18,1275.71 1153.34,1273.68C1175.51,1271.65 1181.8,1269.66 1184.17,1269.18C1185.4,1268.93 1184.82,1271.13 1180.27,1274.28ZM920.355,1317.24C917.749,1315.45 914.742,1314.24 911.718,1313.31C910.31,1312.87 908.465,1314.3 908.163,1315.6C906.605,1322.3 909.315,1328.84 912.869,1334.4C919.071,1344.09 928.078,1351.68 936.081,1359.95C948.119,1372.39 955.363,1379.16 969.294,1389.48C984.287,1400.58 1008.35,1401.82 1025.79,1401.58C1043.06,1401.33 1065.97,1400.37 1082.72,1393.61C1096.6,1388.02 1108.79,1374.62 1118.81,1364.57C1131.49,1351.87 1132.07,1350.84 1142.99,1336.8C1146.31,1332.53 1151.59,1327 1151.65,1320.97C1151.82,1303.52 1140.89,1315.79 1130.12,1323.48C1108.72,1338.76 1089.41,1355.96 1063.13,1362.4C1041.22,1367.77 1015.27,1368.15 993.292,1363.21C987.343,1361.88 967.109,1351.51 963.106,1349.08C948.082,1340 934.593,1327.04 920.355,1317.24ZM889.212,1275.6C897.375,1278.63 914.547,1284.42 950.662,1295.35C1018.51,1315.88 1067.57,1302.34 1070.56,1301.98C1073.55,1301.62 1129.42,1291.13 1155.8,1284.22C1161.64,1282.69 1166.41,1281.08 1170.26,1279.49C1169.41,1280 1168.57,1280.53 1167.76,1281.1C1153.14,1291.27 1139.15,1303.44 1126.08,1315.48C1122.88,1318.42 1119.61,1321.27 1116.4,1324.2C1115.2,1325.3 1112.91,1326.6 1112.2,1328.13C1044.4,1386.87 972.642,1344.25 965.767,1339.76C957.788,1334.55 949.182,1329.53 942.287,1322.87C934.279,1315.14 925.122,1308.35 917.087,1300.64C912.195,1295.94 909.295,1290.08 903.61,1286.46C898.514,1283.22 894.031,1279.19 889.212,1275.6Z"
          style="fill: rgb(141, 44, 87)"
        />
        <g transform="matrix(2.57102,0,0,2.57102,0.663588,0.157309)">
          <path
            d="M406.329,534.538C406.5,535.169 405.796,537.69 406.46,538.444C406.779,538.806 407.581,538.781 408.015,538.81C409.42,538.901 410.766,538.937 412.175,538.858C412.675,538.83 413.512,538.903 413.815,538.392C414.416,537.378 414.315,535.848 414.185,534.738C414.132,534.294 414.107,533.591 413.582,533.444C412.507,533.143 411.058,533.447 409.975,533.584C408.795,533.734 407.513,533.835 406.362,534.13L406.329,534.538ZM403.549,534.151C403.579,534.1 403.006,534.214 402.969,534.227C402.593,534.36 402.238,534.593 401.994,534.913C401.467,535.601 400.799,538.143 401.97,538.603C404.457,539.578 403.946,535.516 403.814,534.115L403.549,534.151ZM381.93,533.289C381.941,533.462 381.908,533.976 381.901,534.024C381.812,534.577 381.693,535.125 381.589,535.676C381.365,536.874 382.343,538.982 384.022,538.425C384.744,538.186 384.753,536.789 384.807,536.204C384.969,534.447 384.846,532.494 382.389,533.123L381.93,533.289ZM416.885,533.235C416.91,533.242 416.918,533.978 416.942,534.175C417.005,534.69 416.95,537.485 417.449,537.669C417.959,537.856 418.671,537.293 419.071,537.056C421.015,535.905 421.258,535.746 421.12,533.39C421.093,532.929 421.263,531.377 420.533,531.267C419.665,531.136 418.306,532.082 417.559,532.435L416.885,533.235ZM377.7,531.26C377.24,530.8 376.459,531.284 376.202,531.7C375.737,532.452 375.438,533.974 376.027,534.75C376.85,535.833 377.963,535.063 378.433,534.074C378.783,533.341 378.498,532.45 378.054,531.809L377.7,531.26ZM421.75,531.001C421.378,530.896 421.852,531.769 421.88,532.155C421.936,532.94 421.68,535.001 423.076,534.539C423.573,534.375 423.45,533.819 423.424,533.404C423.363,532.436 423.651,530.016 422.17,530.679L421.75,531.001ZM381.93,533.289L381.892,533.303C381.915,533.205 381.926,533.218 381.93,533.289ZM424.643,529.762C424.395,529.839 424.654,530.281 424.648,530.541C424.634,531.156 424.55,533.148 425.724,532.721C427.899,531.931 426.255,528.622 424.872,529.662L424.643,529.762Z"
            style="fill: rgb(255, 192, 179)"
          />
        </g>
      </g>
      <path
        d="M867.733,1264.48C867.474,1264.31 867.386,1264.22 867.479,1264.21C867.524,1264.21 867.609,1264.3 867.733,1264.48C870.431,1266.2 891.721,1275.76 922.366,1272.25C955.961,1268.4 1005.92,1259.3 1029.01,1280.07C1065.59,1260.63 1075.15,1266.87 1132.1,1272.09C1153.41,1274.05 1186.2,1266.37 1190.81,1265.15C1190.7,1265.46 1190.6,1265.79 1190.48,1266.12C1188.84,1266.8 1186,1268.24 1181.88,1270.75C1151.81,1283.32 1076.56,1305.41 1026.08,1306.07C968.858,1306.81 871.634,1267.46 871.549,1267.91C871.464,1268.37 879.435,1267.38 945.082,1327.83C991.562,1370.64 1068.83,1377.23 1133.63,1310.92C1148.2,1296.01 1154.43,1289.12 1168.52,1278.97C1173.76,1275.19 1178.44,1272.84 1181.88,1270.75C1185.25,1269.34 1188.06,1268.05 1190.19,1266.92C1183.03,1286.69 1155.85,1334.49 1135.19,1357.44C1113.89,1381.1 1100.66,1392.59 1087.67,1400.62C1065.5,1414.32 1003.76,1421.58 970.895,1400.63C947.767,1385.89 922.396,1358.05 907.365,1336.12C893.226,1315.49 870.549,1268.39 867.733,1264.48Z"
        style="fill: none; stroke: black; stroke-width: 5.4px"
      />
      <g transform="matrix(2.57102,0,0,2.57102,0.663588,0.157309)">
        <path
          d="M438.317,502.74C438.508,502.629 438.075,503.111 437.966,503.304C437.76,503.67 437.569,504.044 437.367,504.413C436.748,505.55 435.987,506.601 435.282,507.684C433.223,510.848 431.314,514.497 428.865,517.36C428.026,518.341 424.774,521.718 423.859,522.626C423.56,522.923 425.658,521.976 426.946,521.024C428.784,519.667 430.538,518.125 432.408,516.813C438.788,512.333 443.746,506.452 449.489,501.265C450.826,500.058 452.214,498.904 453.539,497.684C453.653,497.578 454.789,496.673 454.639,496.503C454.355,496.179 452.733,496.946 452.443,497.044C450.242,497.784 448.089,498.663 445.893,499.418C443.639,500.194 441.284,500.733 439.073,501.628L438.317,502.74ZM360.866,500.56C360.847,500.579 361.864,502.557 362.082,502.886C362.778,503.936 363.368,505.019 363.969,506.124C365.935,509.737 368.482,512.996 370.786,516.396C373.477,520.368 375.133,522.126 375.02,522.192C374.776,522.336 370.99,519.425 370.824,519.296C369.324,518.125 367.375,516.616 365.996,515.301C360.936,510.478 355.799,506.297 350.862,501.465C349.719,500.347 342.073,494.812 342.106,494.453C342.132,494.168 351.557,497.608 352.828,498.041C354.372,498.566 359.215,500.033 360.866,500.56ZM360.866,500.56L360.868,500.56C360.867,500.56 360.866,500.559 360.866,500.56ZM340.409,492.774C340.724,492.617 340.674,492.122 340.786,491.789C341.088,490.894 341.626,489.279 340.687,488.554C338.958,487.221 335.194,487.244 333.334,488.321C332,489.093 332.428,490.519 332.893,491.664C333.74,493.748 334.782,495.76 337.285,495.994C337.538,496.018 337.79,496.022 338.039,495.962C339.144,495.691 338.98,495.103 338.737,494.199C338.643,493.849 338.538,493.232 338.924,493.007L340.409,492.774ZM459.729,492.886C459.443,492.776 459.308,492.2 459.196,491.955C458.694,490.858 458.414,489.686 459.33,488.717C459.872,488.144 460.684,487.932 461.423,487.751C463.367,487.276 466.475,486.975 467.923,488.712C469.516,490.622 467.485,492.833 466.094,494.155C465.21,494.995 464.039,495.83 462.747,495.285C461.458,494.741 462.935,493.035 462.39,492.213L459.729,492.886Z"
        />
      </g>
    </g>
  </g>
</svg>
