<svg viewBox="0 0 800 800" xmlns="http://www.w3.org/2000/svg">
  <g
    id="Punk-emotions"
    transform="matrix(0.388951,0,0,0.388951,2.34032,2.21244)"
  >
    <g id="mouth">
      <g>
        <path
          d="M1138.28,1290.38C1132.89,1291.9 1117.17,1280.97 1073.8,1271.8C1067.66,1270.5 1042.79,1281.04 1036.83,1283.05C1020.58,1288.5 1003.65,1292.13 987.832,1298.88C982.22,1301.28 976.659,1303.81 971.116,1306.36C969.219,1307.23 967.321,1308.1 965.43,1308.98C965.251,1309.07 962.733,1310.3 962.822,1310.38C963.655,1311.12 969.188,1309.38 970.15,1309.2C977.911,1307.74 985.645,1306.11 993.382,1304.53C1022.74,1298.53 1051.94,1295.03 1081.89,1293.8C1096.14,1293.22 1110.37,1292.35 1124.61,1291.61C1129.18,1291.37 1133.74,1290.95 1138.28,1290.38Z"
          style="fill: white"
        />
        <path
          d="M902.886,1235.11C903.254,1233.85 901.093,1237.82 900.967,1238.18C899.976,1240.98 899.14,1243.83 898.254,1246.66C895.602,1255.14 892.833,1263.59 890.492,1272.17C886.879,1285.4 884.138,1298.78 881.327,1312.19C878.616,1325.14 875.118,1336.62 879.043,1351.31"
          style="fill: none; stroke: black; stroke-width: 5.4px"
        />
        <path
          d="M883.28,1307.7C883.513,1307.94 882.584,1307.88 882.376,1308.14C881.917,1308.72 881.645,1309.49 881.393,1310.18C880.619,1312.28 880.357,1314.62 879.996,1316.82C878.489,1325.99 877.393,1335.47 877.938,1344.76C878.06,1346.84 876.507,1352.03 879.017,1353.1C880.462,1353.72 883.422,1352.86 884.443,1352.04C888.212,1348.98 888.119,1343.85 887.988,1339.28C887.946,1337.82 887.886,1336.37 887.794,1334.91C887.677,1333.08 887.538,1331.25 887.379,1329.42C887.188,1327.23 886.988,1325.04 886.751,1322.86C885.984,1315.79 885.224,1308.71 884.567,1301.63"
          style="stroke: black; stroke-width: 3.85px"
        />
        <path
          d="M1086.13,1266.57C1086.13,1266.57 973.016,1301.68 941.756,1319.06C961.879,1312.56 983.166,1305.83 1003.08,1302.14C1035.89,1296.06 1123.07,1289.89 1152,1292.98C1116.74,1284.07 1072.7,1271.16 1072.43,1271.12"
          style="fill: none; stroke: black; stroke-width: 5.4px"
        />
        <g transform="matrix(2.57102,0,0,2.57102,-6.01701,-5.68822)">
          <path
            d="M371.088,513.486C370.979,513.56 370.655,513.511 370.495,513.565C369.78,513.811 369.097,514.015 368.337,514.073C367.657,514.125 366.999,513.924 366.32,513.969C364.702,514.076 363.115,515.096 361.895,516.104C361.331,516.571 360.787,517.277 360.988,518.054C361.339,519.408 363.334,519.512 364.375,519.27C365.397,519.032 366.369,518.442 367.029,517.609C367.339,517.218 367.561,516.58 367.947,516.269C368.608,515.737 369.811,515.565 370.564,515.085L371.088,513.486C371.119,513.465 371.133,513.434 371.121,513.387L371.088,513.486ZM447.518,503.909C447.519,503.905 448.361,504.022 448.427,504.027C449.014,504.076 449.603,504.022 450.19,504.044C451.517,504.095 454.044,503.639 455.006,504.758C455.545,505.385 454.757,506.174 454.204,506.412C453.005,506.931 451.639,506.728 450.486,506.22C449.403,505.742 448.239,505.294 447.057,505.155L447.518,503.909Z"
          />
        </g>
      </g>
    </g>
  </g>
</svg>
