<svg viewBox="0 0 800 800" xmlns="http://www.w3.org/2000/svg">
  <g id="torso">
    <path
      d="M271.442,665.87C282.932,659.314 312.785,646.72 316.437,643.51C346.326,617.233 453.208,617.234 487.979,645.385C491.376,648.135 519.658,661.147 527.935,665.87C559.421,683.838 591.055,699.016 626.193,708.582C654.279,716.227 677.292,719.542 701.626,736.589C723.804,752.126 739.734,781.03 748.279,806.495C750.643,813.542 754.143,834.425 752.864,834.525C732.159,836.145 701.901,834.878 681.148,835.431C607.943,837.382 191.434,837.382 118.23,835.431C97.477,834.878 67.548,835.628 46.843,834.008C45.564,833.908 48.734,813.542 51.099,806.495C59.643,781.03 75.573,752.126 97.751,736.589C122.085,719.542 145.098,716.227 173.184,708.582C208.323,699.016 239.956,683.838 271.442,665.87Z"
      style="fill: var(--color_skin, rgb(240, 205, 177))"
    />
    <clipPath id="_clip1_miss_body">
      <path
        d="M271.442,665.87C282.932,659.314 312.785,646.72 316.437,643.51C346.326,617.233 453.208,617.234 487.979,645.385C491.376,648.135 519.658,661.147 527.935,665.87C559.421,683.838 591.055,699.016 626.193,708.582C654.279,716.227 677.292,719.542 701.626,736.589C723.804,752.126 739.734,781.03 748.279,806.495C750.643,813.542 754.143,834.425 752.864,834.525C732.159,836.145 701.901,834.878 681.148,835.431C607.943,837.382 191.434,837.382 118.23,835.431C97.477,834.878 67.548,835.628 46.843,834.008C45.564,833.908 48.734,813.542 51.099,806.495C59.643,781.03 75.573,752.126 97.751,736.589C122.085,719.542 145.098,716.227 173.184,708.582C208.323,699.016 239.956,683.838 271.442,665.87Z"
      />
    </clipPath>
    <g clip-path="url(#_clip1_miss_body)">
      <path
        d="M311.023,549.421C312.499,550.693 313.641,554.914 314.499,556.794C318.657,565.903 318.047,572.577 318.197,582.806C318.424,598.225 318.404,614.007 317.574,629.406C316.651,646.529 318.646,655.298 305.647,667.706C305.495,667.851 308.976,655.435 306.982,655.435C301.44,655.435 294.583,661.904 290.329,664.788C278.69,672.681 267.059,680.254 254.558,686.729C238.233,695.184 222.046,704.391 204.628,710.446C178.104,719.667 150.357,725.124 124.728,736.875C103.701,746.516 83.257,762.104 71.921,782.659C68.141,789.512 65.54,796.872 62.502,804.062C60.998,807.621 59.277,811.332 54.855,811.447C41.079,811.805 41.957,788.683 43.409,780.45C48.835,749.678 72.418,723.91 93.62,702.572C114.88,681.176 137.933,661.631 162.18,643.708C192.285,621.453 224.653,602.772 255.825,582.131C270.414,572.471 284.021,561.551 298.248,551.406L311.023,549.421ZM488.519,549.421C487.043,550.693 485.9,554.914 485.042,556.794C480.884,565.903 481.742,573.292 481.592,583.52C481.365,598.939 481.392,614.695 482.222,630.094C483.145,647.217 481.959,654.043 492.906,668.099C493.035,668.264 490.565,655.435 492.559,655.435C498.102,655.435 504.958,661.904 509.212,664.788C520.851,672.681 532.482,680.254 544.984,686.729C561.308,695.184 577.495,704.391 594.913,710.446C621.438,719.667 649.185,725.124 674.814,736.875C695.84,746.516 716.284,762.104 727.621,782.659C731.401,789.512 734.001,796.872 737.039,804.062C738.543,807.621 740.265,811.332 744.687,811.447C758.462,811.805 757.584,788.683 756.133,780.45C750.706,749.678 727.123,723.91 705.921,702.572C684.661,681.176 661.608,661.631 637.361,643.708C607.256,621.453 574.889,602.772 543.716,582.131C529.127,572.471 515.52,561.551 501.293,551.406L488.519,549.421Z"
        style="fill: rgb(252, 255, 216); fill-opacity: 0.6"
      />
    </g>
    <path
      d="M271.442,665.87C282.932,659.314 312.785,646.72 316.437,643.51C346.326,617.233 453.208,617.234 487.979,645.385C491.376,648.135 519.658,661.147 527.935,665.87C559.421,683.838 591.055,699.016 626.193,708.582C654.279,716.227 677.292,719.542 701.626,736.589C723.804,752.126 739.734,781.03 748.279,806.495C750.643,813.542 754.143,834.425 752.864,834.525C732.159,836.145 701.901,834.878 681.148,835.431C607.943,837.382 191.434,837.382 118.23,835.431C97.477,834.878 67.548,835.628 46.843,834.008C45.564,833.908 48.734,813.542 51.099,806.495C59.643,781.03 75.573,752.126 97.751,736.589C122.085,719.542 145.098,716.227 173.184,708.582C208.323,699.016 239.956,683.838 271.442,665.87Z"
      style="fill: none; stroke: black; stroke-width: 2.1px"
    />
    <g transform="matrix(-1,0,0,1,799.46,0)">
      <path
        d="M213.542,717.415C213.491,717.477 216.659,719.446 216.791,719.525C220.608,721.808 224.547,723.852 228.503,725.883C245.241,734.474 261.913,741.498 280.176,746.149C298.142,750.724 316.636,753.837 334.88,757.104C345.113,758.936 355.522,760.062 365.49,763.135C371.827,765.089 376.98,768.482 381.931,772.814C385.832,776.227 391.177,778.763 396.883,778.129"
        style="fill: none; stroke: black; stroke-width: 2.1px"
      />
    </g>
    <path
      d="M213.542,717.415C213.491,717.477 216.659,719.446 216.791,719.525C220.608,721.808 224.547,723.852 228.503,725.883C245.241,734.474 261.913,741.498 280.176,746.149C298.142,750.724 316.636,753.837 334.88,757.104C345.113,758.936 355.522,760.062 365.49,763.135C371.827,765.089 376.98,768.482 381.931,772.814C385.832,776.227 391.177,778.763 396.883,778.129"
      style="fill: none; stroke: black; stroke-width: 2.1px"
    />
  </g>
  <g id="neck">
    <path
      d="M309.644,530.463C309.75,529.822 309.72,531.759 309.739,532.409C309.776,533.694 309.816,534.979 309.862,536.265C310.004,540.241 309.846,544.179 310.106,548.17C310.876,560.035 311.768,571.831 312.33,583.701C313.576,610.006 314.011,636.579 309.471,662.485C308.324,669.03 306.921,675.551 305.397,682.018C304.75,684.764 303.406,688.204 305.154,690.817C307.538,694.381 314.168,695.613 317.936,696.724C328.776,699.919 339.813,701.919 350.524,705.636C365.502,710.833 377.212,724.273 393.119,726.835C402.428,728.335 412.293,725.663 420.999,722.531C438.274,716.318 454.412,707.195 469.771,697.23C476.913,692.595 486.872,687.85 492.958,681.667C494.972,679.622 491.307,673.974 490.67,671.747C487.933,662.18 486.956,651.717 486.33,641.823C485.149,623.176 486.75,605.198 487.402,586.683C487.916,572.095 487.687,557.964 489.053,543.388C490.231,530.832 493.845,515.923 483.147,506.397C471.046,495.621 451.324,494.253 436.01,493.915C398.778,493.093 357.76,499.646 324.837,517.972"
      style="fill: var(--color_skin, rgb(240, 205, 177))"
    />
    <clipPath id="_clip2_miss_body">
      <path
        d="M309.644,530.463C309.75,529.822 309.72,531.759 309.739,532.409C309.776,533.694 309.816,534.979 309.862,536.265C310.004,540.241 309.846,544.179 310.106,548.17C310.876,560.035 311.768,571.831 312.33,583.701C313.576,610.006 314.011,636.579 309.471,662.485C308.324,669.03 306.921,675.551 305.397,682.018C304.75,684.764 303.406,688.204 305.154,690.817C307.538,694.381 314.168,695.613 317.936,696.724C328.776,699.919 339.813,701.919 350.524,705.636C365.502,710.833 377.212,724.273 393.119,726.835C402.428,728.335 412.293,725.663 420.999,722.531C438.274,716.318 454.412,707.195 469.771,697.23C476.913,692.595 486.872,687.85 492.958,681.667C494.972,679.622 491.307,673.974 490.67,671.747C487.933,662.18 486.956,651.717 486.33,641.823C485.149,623.176 486.75,605.198 487.402,586.683C487.916,572.095 487.687,557.964 489.053,543.388C490.231,530.832 493.845,515.923 483.147,506.397C471.046,495.621 451.324,494.253 436.01,493.915C398.778,493.093 357.76,499.646 324.837,517.972"
      />
    </clipPath>
    <g clip-path="url(#_clip2_miss_body)">
      <path
        d="M307.968,541.611C309.682,541.128 309.249,544.937 309.947,546.576C312.078,551.581 314.496,556.7 315.222,562.143C318.429,586.196 317.499,613.298 315.732,637.324C315.244,643.962 314.818,649.967 312.956,656.389C312.854,656.741 310.104,661.752 309.927,661.676C309.346,661.427 309.938,656.582 309.955,656.071C310.166,649.606 310.298,643.138 310.419,636.671C310.908,610.518 308.958,584.487 306.28,558.496L307.968,541.611ZM491.051,541.611C489.337,541.128 489.77,544.937 489.072,546.576C486.94,551.581 484.523,556.7 483.797,562.143C480.59,586.196 481.52,613.298 483.287,637.324C483.775,643.962 484.201,649.967 486.063,656.389C486.165,656.741 488.915,661.752 489.092,661.676C489.673,661.427 489.08,656.582 489.064,656.071C488.853,649.606 488.721,643.138 488.6,636.671C488.111,610.518 490.061,584.487 492.739,558.496L491.051,541.611Z"
        style="fill: rgb(252, 255, 216); fill-opacity: 0.6"
      />
    </g>
    <path
      d="M342.209,665.277C341.731,665.949 343.284,670.263 343.458,670.984C344.875,676.868 346.731,682.622 348.627,688.364C353.076,701.839 358.503,715.02 362.764,728.542C366.022,738.88 367.831,749.877 373.312,759.377"
      style="fill: none; stroke: black; stroke-width: 2.1px"
    />
    <g transform="matrix(-1,0,0,1,799.46,0)">
      <path
        d="M342.209,665.277C341.731,665.949 343.284,670.263 343.458,670.984C344.875,676.868 346.731,682.622 348.627,688.364C353.076,701.839 358.503,715.02 362.764,728.542C366.022,738.88 367.831,749.877 373.312,759.377"
        style="fill: none; stroke: black; stroke-width: 2.1px"
      />
    </g>
    <path
      d="M308.797,539.78C308.546,539.895 312.022,565.418 312.248,574.216C313.117,607.966 315.622,646.02 305.367,679.348"
      style="fill: none; stroke: black; stroke-width: 2.1px"
    />
    <g transform="matrix(-1,0,0,1,799.056,0)">
      <path
        d="M308.797,539.78C308.546,539.895 312.022,565.418 312.248,574.216C313.117,607.966 315.622,646.02 305.367,679.348"
        style="fill: none; stroke: black; stroke-width: 2.1px"
      />
    </g>
  </g>
</svg>
