<?xml version="1.0" encoding="UTF-8" standalone="no"?>
<!DOCTYPE svg PUBLIC "-//W3C//DTD SVG 1.1//EN" "http://www.w3.org/Graphics/SVG/1.1/DTD/svg11.dtd">
<svg
  width="100%"
  height="100%"
  viewBox="0 0 800 800"
  version="1.1"
  xmlns="http://www.w3.org/2000/svg"
  
  
  
>
  <g
    id="noses"
    style="
      fill-rule: evenodd;
      clip-rule: evenodd;
      stroke-linecap: round;
      stroke-linejoin: round;
      stroke-miterlimit: 1.5;
    "
  >
    <g id="punk-nose" >
      <path
        d="M360.29,450.189C360.771,452.022 359.687,453.952 360.906,455.995C362.268,458.278 364.494,457.987 367.129,457.95C372.181,457.878 378.598,455.731 382.284,455.966C388.667,456.374 393.486,460.103 399.878,460.286C405.533,460.447 410.354,457.214 415.832,456.262C421.697,455.242 427.833,457.22 433.579,457.612C435.499,457.743 437.464,457.669 439.25,456.894C439.855,456.632 440.434,456.32 440.987,455.962C441.262,455.785 441.877,455.065 441.774,455.375C438.699,464.598 429.115,470.821 421.279,475.88C415.064,479.893 407.567,482.666 400.353,482.563C390.287,482.419 381.62,479.443 375.026,473.639C368.508,467.902 360.012,463.619 359.68,454.82"
        style="fill: rgb(56, 25, 57); fill-opacity: 0.5"
      />
      <path
        d="M365.982,437.593C365.794,437.159 365.592,438.454 365.387,438.88C365,439.687 364.557,440.469 364.143,441.263C362.911,443.621 361.625,445.972 360.54,448.402C356.555,457.327 360.276,463.791 368.227,468.714"
        style="fill: none; stroke: black; stroke-width: 2.1px"
      />
      <g transform="matrix(-1,0,0,1,799.794,0)">
        <path
          d="M365.982,437.593C365.794,437.159 365.592,438.454 365.387,438.88C365,439.687 364.557,440.469 364.143,441.263C362.911,443.621 361.625,445.972 360.54,448.402C356.555,457.327 360.276,463.791 368.227,468.714"
          style="fill: none; stroke: black; stroke-width: 2.1px"
        />
      </g>
      <path
        d="M409.327,465.768C409.379,464.892 410.884,463.189 411.427,462.634C413.962,460.047 418.325,458.436 421.947,458.196C423.315,458.106 426.429,458.15 426.854,459.945C427.301,461.835 424.254,462.921 422.929,463.238C421.354,463.615 419.735,463.889 418.115,463.905C417.079,463.914 415.681,463.714 414.367,463.456C412.67,463.124 411.321,465.139 409.988,465.798"
      />
      <g transform="matrix(-1,0,0,1,799.907,0)">
        <path
          d="M409.327,465.768C409.379,464.892 410.884,463.189 411.427,462.634C413.962,460.047 418.325,458.436 421.947,458.196C423.315,458.106 426.429,458.15 426.854,459.945C427.301,461.835 424.254,462.921 422.929,463.238C421.354,463.615 419.735,463.889 418.115,463.905C417.079,463.914 415.681,463.714 414.367,463.456C412.67,463.124 411.321,465.139 409.988,465.798"
        />
      </g>
      <path
        d="M407.616,441.229C407.138,440.556 407.275,440.031 407.394,439.442C407.629,438.281 408.349,437.259 409.277,436.544C411.287,434.996 418.061,433.43 419.498,436.604C420.163,438.074 418.799,439.502 417.663,440.213C415.521,441.551 410.061,442.757 407.616,441.229Z"
        style="fill: rgb(252, 255, 216); fill-opacity: 0.6"
      />
    </g>
  </g>
  <g
    transform="matrix(0.983365,0,0,1.12443,6.66291,-49.371)"
    style="
      fill-rule: evenodd;
      clip-rule: evenodd;
      stroke-linecap: round;
      stroke-linejoin: round;
      stroke-miterlimit: 1.5;
    "
  >
    <g id="accessories">
      <g id="juggalo-mask" >
        <ellipse
          cx="400.538"
          cy="335.558"
          rx="219.306"
          ry="257.673"
          style="fill: white"
        />
        <clipPath id="Juggalo-face-mask_0">
          <ellipse cx="400.538" cy="335.558" rx="219.306" ry="257.673" />
        </clipPath>
        <g clip-path="url(#Juggalo-face-mask_0)">
          <g transform="matrix(1.01692,0,0,0.889341,-6.77562,43.9077)">
            <path
              d="M400.134,551.63L420.049,551.54C420.049,551.54 428.607,561.085 429.926,563.801C431.937,567.941 428.967,586.583 430.215,584.498C433.058,579.75 443.398,560.216 443.398,560.216C443.398,560.216 490.306,536.441 504.964,500.746C510.955,486.158 515.627,469.178 519.353,453.811C519.873,451.67 523.072,438.132 523.072,438.132C523.072,438.132 524.278,447.93 524.3,448.487C524.695,458.299 524.09,468.176 523.47,477.963C523.427,478.641 522.302,486.96 522.896,487.278C522.983,487.325 526.925,473.257 527.127,472.45C531.249,456.006 534.344,438.973 535.37,421.961C535.619,417.821 535.767,413.684 535.767,409.535C535.767,409.125 535.668,402.972 536.165,403.104C539.883,404.1 545.155,442.968 545.432,447.087C545.493,448.008 545.529,460.366 546.315,460.506C546.862,460.604 548.679,451.065 548.824,450.312C550.999,439.003 551.211,427.477 550.485,415.975C550.28,412.741 549.922,409.521 549.681,406.291C549.659,406.008 549.43,402.015 549.592,402.102C554.822,404.901 558.487,440.128 558.912,446.255C562.187,493.378 559.658,545.227 540.022,588.45L532.755,614.952C508.027,656.677 471.47,688.807 435.182,718.455C431.158,721.743 415.646,735.767 404.952,742.104C404.778,743.917 404.523,745.022 404.158,745.123C403.164,745.399 401.786,745.158 400.134,744.528C398.482,745.158 397.103,745.399 396.109,745.123C395.745,745.022 395.489,743.917 395.315,742.104C384.622,735.767 369.11,721.743 365.085,718.455C328.797,688.807 292.241,656.677 267.513,614.952L260.246,588.45C240.609,545.227 238.081,493.378 241.355,446.255C241.781,440.128 245.446,404.901 250.675,402.102C250.837,402.015 250.608,406.008 250.587,406.291C250.345,409.521 249.987,412.741 249.783,415.975C249.057,427.477 249.269,439.003 251.444,450.312C251.589,451.065 253.405,460.604 253.953,460.506C254.739,460.366 254.774,448.008 254.836,447.087C255.113,442.968 260.384,404.1 264.103,403.104C264.599,402.972 264.5,409.125 264.5,409.535C264.5,413.684 264.648,417.821 264.898,421.961C265.923,438.973 269.019,456.006 273.14,472.45C273.342,473.257 277.284,487.325 277.372,487.278C277.966,486.96 276.84,478.641 276.797,477.963C276.178,468.176 275.572,458.299 275.967,448.487C275.989,447.93 277.195,438.132 277.195,438.132C277.195,438.132 280.395,451.67 280.914,453.811C284.641,469.178 289.313,486.158 295.303,500.746C309.961,536.441 356.87,560.216 356.87,560.216C356.87,560.216 367.21,579.75 370.052,584.498C371.301,586.583 368.33,567.941 370.341,563.801C371.661,561.085 380.219,551.54 380.219,551.54L400.134,551.63ZM408.706,420.543C416.16,424.154 421.363,432.302 421.363,441.766C421.363,454.576 411.83,464.975 400.088,464.975C388.346,464.975 378.813,454.576 378.813,441.766C378.813,432.386 383.925,424.297 391.274,420.639L399.683,397.469L408.706,420.543ZM238.635,298.634C240.194,300.873 249.906,299.498 251.633,298.937C261.764,295.651 273.647,289.495 281.45,280.229C286.295,274.476 288.538,264.406 290.038,257.048C290.248,256.015 290.616,249.535 291.617,249.188C292.899,248.742 295.891,251.065 296.921,251.652C302.131,254.616 307.248,257.584 312.084,261.222C324.043,270.216 334.708,280.892 346.028,290.742C351.971,295.914 357.595,301.688 364.587,305.236C373.316,309.665 379.94,307.302 384.732,298.192C386.332,295.149 387.547,291.793 388.316,288.402C388.582,287.229 388.818,286.054 389.033,284.87C389.058,284.735 389.416,282.914 389.573,283.118C390.62,284.487 390.691,288.002 390.981,289.654C392.156,296.33 392.382,303.289 391.814,310.08C390.144,330.051 378.165,346.947 367.398,362.765C361.647,371.215 357.012,379.384 353.007,389.023C349.09,398.451 340.536,422.627 338.372,423.797C338.343,423.812 339.317,416.589 339.487,413.795C340.034,404.822 340.153,395.802 336.886,387.483C336.462,386.404 335.089,381.159 333.209,381.525C331.473,381.863 328.997,381.878 326.73,382.906C324.582,383.881 319.756,385.261 318.069,387.166C316.9,388.486 316.603,392.036 316.331,393.69C315.622,398.008 315.253,402.107 314.067,406.296C310.933,417.361 308.204,426.944 304.318,437.726C302.888,441.696 299.111,452.063 297.701,454.093C297.619,454.211 297.828,438.885 297.969,434.321C298.374,421.159 297.684,408.222 295.434,395.272C294.958,392.529 294.298,384.722 291.895,382.911C291.314,382.473 290.988,384.992 290.916,385.283C290.219,388.135 289.507,390.983 288.786,393.828C286.697,402.079 283.962,410.639 279.853,418.012C279.415,418.798 276.608,424.444 275.632,424.336C275.451,424.316 276.147,419.51 276.174,419.225C276.491,415.82 276.63,412.385 276.495,408.964C276.191,401.285 275.434,393.657 274.846,386.003C274.543,382.051 274.915,377.207 273.714,373.407C272.739,370.322 267.876,367.612 265.743,365.548C260.304,360.284 254.993,354.32 250.561,348.054C242.227,336.269 239.992,317.632 238.678,303.189L238.635,298.634ZM561.272,298.634C559.713,300.873 550,299.498 548.274,298.937C538.143,295.651 526.26,289.495 518.457,280.229C513.612,274.476 511.369,264.406 509.869,257.048C509.659,256.015 509.29,249.535 508.29,249.188C507.008,248.742 504.016,251.065 502.985,251.652C497.776,254.616 492.659,257.584 487.822,261.222C475.863,270.216 465.199,280.892 453.879,290.742C447.935,295.914 442.311,301.688 435.319,305.236C426.591,309.665 419.967,307.302 415.175,298.192C413.574,295.149 412.359,291.793 411.591,288.402C411.325,287.229 411.089,286.054 410.873,284.87C410.849,284.735 410.49,282.914 410.334,283.118C409.287,284.487 409.216,288.002 408.925,289.654C407.75,296.33 407.525,303.289 408.093,310.08C409.763,330.051 421.742,346.947 432.508,362.765C438.26,371.215 442.895,379.384 446.9,389.023C450.817,398.451 459.371,422.627 461.535,423.797C461.564,423.812 460.59,416.589 460.419,413.795C459.873,404.822 459.754,395.802 463.021,387.483C463.445,386.404 464.818,381.159 466.698,381.525C468.433,381.863 470.91,381.878 473.177,382.906C475.324,383.881 480.151,385.261 481.838,387.166C483.006,388.486 483.304,392.036 483.576,393.69C484.285,398.008 484.654,402.107 485.84,406.296C488.973,417.361 491.703,426.944 495.589,437.726C497.019,441.696 500.796,452.063 502.206,454.093C502.287,454.211 502.079,438.885 501.938,434.321C501.533,421.159 502.223,408.222 504.472,395.272C504.949,392.529 505.609,384.722 508.012,382.911C508.592,382.473 508.919,384.992 508.99,385.283C509.688,388.135 510.4,390.983 511.121,393.828C513.21,402.079 515.944,410.639 520.054,418.012C520.491,418.798 523.299,424.444 524.274,424.336C524.456,424.316 523.76,419.51 523.733,419.225C523.415,415.82 523.277,412.385 523.412,408.964C523.715,401.285 524.473,393.657 525.06,386.003C525.364,382.051 524.991,377.207 526.193,373.407C527.167,370.322 532.031,367.612 534.164,365.548C539.602,360.284 544.914,354.32 549.345,348.054C557.68,336.269 559.914,317.632 561.229,303.189L561.272,298.634ZM430.821,291.669C430.77,291.798 428.558,288.292 428.443,288.029C427.337,285.487 426.605,282.765 426.084,280.047C424.565,272.115 424.206,262.209 428.113,254.766C428.75,253.552 435.721,256.068 437.698,255.732C444.359,254.601 450.504,250.726 456.34,247.532C466.056,242.215 475.952,237.372 486.305,233.421C487.628,232.916 494.558,229.269 495.89,230.068C496.039,230.157 493.317,232.08 493.144,232.194C491.317,233.406 489.502,234.653 487.732,235.948C482.417,239.839 477.424,244.304 472.741,248.929C459.655,261.85 456.632,276.889 430.821,291.669ZM369.222,291.669C369.273,291.798 371.485,288.292 371.6,288.029C372.706,285.487 373.438,282.765 373.959,280.047C375.478,272.115 375.837,262.209 371.93,254.766C371.293,253.552 364.321,256.068 362.344,255.732C355.684,254.601 349.539,250.726 343.703,247.532C333.987,242.215 324.091,237.372 313.738,233.421C312.415,232.916 305.485,229.269 304.153,230.068C304.004,230.157 306.726,232.08 306.899,232.194C308.726,233.406 310.541,234.653 312.311,235.948C317.626,239.839 322.619,244.304 327.302,248.929C340.388,261.85 343.411,276.889 369.222,291.669Z"
              style="fill: rgb(28, 28, 28)"
            />
          </g>
        </g>
      </g>
    </g>
  </g>
</svg>
