<?xml version="1.0" encoding="UTF-8" standalone="no"?>
<!DOCTYPE svg PUBLIC "-//W3C//DTD SVG 1.1//EN" "http://www.w3.org/Graphics/SVG/1.1/DTD/svg11.dtd">
<svg
  width="100%"
  height="100%"
  viewBox="0 0 800 800"
  version="1.1"
  xmlns="http://www.w3.org/2000/svg"
  
  
  
>
  <g
    id="Matrix-glasses"
    
    style="
      fill-rule: evenodd;
      clip-rule: evenodd;
      stroke-linecap: round;
      stroke-linejoin: round;
      stroke-miterlimit: 1.5;
    "
  >
    <path
      id="shadow"
      d="M400.138,350.796C404.105,350.095 410.328,351.899 412.316,352.308C413.554,352.563 414.794,352.809 416.036,353.044C417.769,353.372 419.496,353.743 421.236,354.032C450.415,358.892 480.725,353.024 510.19,355.699L526.994,360.054C527.287,359.91 526.682,361.974 525.785,365.467C524.84,369.141 521.452,373.73 518.861,376.426C511.111,384.494 499.538,390.779 488.756,393.459C473.978,397.133 453.94,394.86 441.811,384.371C438.284,381.321 435.898,377.935 432.682,374.975C431.167,373.581 429.482,374.742 428.282,373.26C426.029,370.48 426.062,366.939 422.554,364.987C418.326,362.634 412.685,359.866 407.933,358.995C405.479,358.545 402.658,358.904 400.138,358.636C397.618,358.904 394.797,358.545 392.343,358.995C387.591,359.866 381.95,362.634 377.722,364.987C374.214,366.939 374.247,370.48 371.994,373.26C370.794,374.742 369.109,373.581 367.594,374.975C364.378,377.935 361.992,381.321 358.465,384.371C346.336,394.86 326.298,397.133 311.52,393.459C300.738,390.779 289.165,384.494 281.415,376.426C278.824,373.73 275.436,369.141 274.491,365.467C273.594,361.974 272.989,359.91 273.282,360.054L290.086,355.699C319.551,353.024 349.86,358.892 379.04,354.032C380.78,353.743 382.507,353.372 384.24,353.044C385.482,352.809 386.722,352.563 387.96,352.308C389.948,351.899 396.171,350.095 400.138,350.796Z"
      style="fill: rgb(56, 25, 57); fill-opacity: 0.5"
    />
    <g id="glasses">
      <g transform="matrix(0.965458,0,0,0.977435,18.2515,6.29125)">
        <ellipse
          cx="475.216"
          cy="353.228"
          rx="52.956"
          ry="34.854"
          style="fill: url(#Matrix-glasses_Linear1)"
        />
        <clipPath id="Matrix-glasses_0">
          <ellipse cx="475.216" cy="353.228" rx="52.956" ry="34.854" />
        </clipPath>
        <g clip-path="url(#Matrix-glasses_0)">
          <g transform="matrix(1.03578,0,0,1.02309,-18.9045,-6.43649)">
            <path
              d="M446.742,342.409C446.742,342.409 446.661,340.487 447.399,338.716C447.951,337.39 459.801,326.988 462.237,325.198C463.391,325.119 464.207,325.371 464.683,325.953L446.742,342.409ZM440.355,373.69C440.355,373.69 480.825,331.881 481.164,330.746C481.503,329.611 481.379,327.328 481.379,327.328C481.379,327.328 486.635,324.234 489.687,323.883C492.739,323.533 500.393,323.004 502.029,325.863C498.84,329.127 450.017,376.437 448.795,379.348C448.079,381.053 440.76,375.628 440.76,375.628L440.355,373.69ZM505.467,330.655C505.467,330.655 499.334,335.952 493.91,340.776C488.487,345.6 469.484,363.393 465.729,368.244C461.974,373.095 460.809,374.994 460.809,374.994C460.809,374.994 461.464,377.677 462.091,376.948C463.213,375.643 470.167,367.942 478.159,360.038C486.753,351.538 496.484,342.773 499.57,340.571C504.53,337.031 508.934,332.285 508.934,332.285C508.242,331.425 507.117,330.861 505.467,330.655ZM518.686,339.876C517.838,338.827 489.399,375.256 488.593,380.187C488.086,383.294 496.265,380.299 496.265,380.299C496.265,380.299 499.151,373.2 506.654,362.962C510.127,358.223 514.938,352.51 522.242,344.245C523,343.387 518.686,339.876 518.686,339.876Z"
              style="fill: url(#Matrix-glasses_Linear3)"
            />
          </g>
        </g>
        <ellipse
          cx="475.216"
          cy="353.228"
          rx="52.956"
          ry="34.854"
          style="fill: none; stroke: black; stroke-width: 2.16px"
        />
      </g>
      <g transform="matrix(0.965458,0,0,0.977435,-136.06,6.29125)">
        <ellipse
          cx="475.216"
          cy="353.228"
          rx="52.956"
          ry="34.854"
          style="fill: url(#Matrix-glasses_Linear4)"
        />
        <clipPath id="Matrix-glasses_1">
          <ellipse cx="475.216" cy="353.228" rx="52.956" ry="34.854" />
        </clipPath>
        <g clip-path="url(#Matrix-glasses_1)">
          <g transform="matrix(1.03578,0,0,1.02309,140.927,-6.43649)">
            <path
              d="M318.099,321.275C318.099,321.275 304.362,333.578 303.207,335.519C302.052,337.46 303.785,337.02 303.785,337.02L322.075,323.673C322.075,323.673 322.291,321.285 318.099,321.275ZM335.307,321.457C314.837,336.229 296.183,351.196 277.977,366.918L287.224,375.754C304.873,358.128 323.512,340.47 343.247,324.048C343.247,324.048 339.491,321.181 335.307,321.457ZM345.991,327.58C345.991,327.58 323.539,346.49 320.928,349.003C318.316,351.516 306.602,361.875 306.602,361.875L307.499,364.134C307.499,364.134 344.186,331.554 344.401,331.312C344.615,331.07 348.876,327.491 345.991,327.58ZM306.57,381.515L340,354.485C340,354.485 362.983,334.996 363.45,334.592C363.917,334.187 367.334,336.769 366.423,338.138C365.511,339.507 335.687,366.278 335.687,366.278L315.601,384.689L303.83,383.108L306.57,381.515Z"
              style="fill: url(#Matrix-glasses_Linear6)"
            />
          </g>
        </g>
        <ellipse
          cx="475.216"
          cy="353.228"
          rx="52.956"
          ry="34.854"
          style="fill: none; stroke: black; stroke-width: 2.16px"
        />
      </g>
      <path
        d="M373.876,353.502C374.098,352.789 374.369,352.135 374.537,351.838C374.869,351.247 375.217,350.672 375.606,350.117C376.516,348.82 379.277,345.313 381.094,347.279C382.562,348.867 382.497,351.879 382.461,353.868C382.352,359.851 380.94,365.07 378.001,370.286C377.024,372.02 375.947,373.68 374.651,375.194C374.296,375.61 373.605,376.508 372.949,376.37C372.3,376.233 372.089,375.035 371.96,374.524C371.434,372.45 371.307,370.182 371.278,368.051C371.252,366.159 371.366,364.253 371.739,362.396C372.358,359.32 372.946,356.499 373.876,353.502Z"
        style="fill: rgb(208, 199, 221)"
      />
      <clipPath id="Matrix-glasses_2">
        <path
          d="M373.876,353.502C374.098,352.789 374.369,352.135 374.537,351.838C374.869,351.247 375.217,350.672 375.606,350.117C376.516,348.82 379.277,345.313 381.094,347.279C382.562,348.867 382.497,351.879 382.461,353.868C382.352,359.851 380.94,365.07 378.001,370.286C377.024,372.02 375.947,373.68 374.651,375.194C374.296,375.61 373.605,376.508 372.949,376.37C372.3,376.233 372.089,375.035 371.96,374.524C371.434,372.45 371.307,370.182 371.278,368.051C371.252,366.159 371.366,364.253 371.739,362.396C372.358,359.32 372.946,356.499 373.876,353.502Z"
        />
      </clipPath>
      <g clip-path="url(#Matrix-glasses_2)">
        <path
          d="M372.217,365.587C372.194,365.702 372.554,366.159 372.617,366.263C372.842,366.637 373.519,368.527 374.132,368.191C374.71,367.875 375.129,367.039 375.522,366.537C376.466,365.326 377.406,364.006 378.513,362.936C378.948,362.515 379.511,362.203 380.066,361.97C380.197,361.915 380.595,361.682 380.686,361.895C380.855,362.294 380.521,362.922 380.385,363.279C379.95,364.422 379.46,365.544 378.967,366.663C377.735,369.459 376.441,372.29 374.697,374.812C374.469,375.142 373.286,377.074 372.703,376.809C372.396,376.669 372.293,376.162 372.218,375.877C371.964,374.909 371.802,373.913 371.673,372.922C371.549,371.981 371.468,371.036 371.402,370.089"
          style="fill: white"
        />
        <path
          d="M371.019,367.544C371.408,367.238 371.753,365.835 372.084,365.402C373.256,363.871 374.427,362.403 376.172,361.525C377.26,360.978 378.773,360.936 379.974,361.034C380.325,361.062 381.375,361.709 381.658,361.493C382.346,360.969 382.35,359.209 382.508,358.436C382.549,358.238 382.781,357.627 382.622,357.444C382.48,357.28 381.985,357.375 381.805,357.397C380.941,357.506 380.086,357.741 379.234,357.915C376.995,358.375 373.867,358.611 372.457,360.664C371.966,361.378 371.781,362.212 371.602,363.047"
          style="fill: rgb(96, 71, 85)"
        />
      </g>
      <path
        d="M373.876,353.502C374.098,352.789 374.369,352.135 374.537,351.838C374.869,351.247 375.217,350.672 375.606,350.117C376.516,348.82 379.277,345.313 381.094,347.279C382.562,348.867 382.497,351.879 382.461,353.868C382.352,359.851 380.94,365.07 378.001,370.286C377.024,372.02 375.947,373.68 374.651,375.194C374.296,375.61 373.605,376.508 372.949,376.37C372.3,376.233 372.089,375.035 371.96,374.524C371.434,372.45 371.307,370.182 371.278,368.051C371.252,366.159 371.366,364.253 371.739,362.396C372.358,359.32 372.946,356.499 373.876,353.502Z"
        style="fill: none; stroke: black; stroke-width: 2.1px"
      />
      <g transform="matrix(-1,0,0,1,800.166,0)">
        <path
          d="M373.876,353.502C374.098,352.789 374.369,352.135 374.537,351.838C374.869,351.247 375.217,350.672 375.606,350.117C376.516,348.82 379.277,345.313 381.094,347.279C382.562,348.867 382.497,351.879 382.461,353.868C382.352,359.851 380.94,365.07 378.001,370.286C377.024,372.02 375.947,373.68 374.651,375.194C374.296,375.61 373.605,376.508 372.949,376.37C372.3,376.233 372.089,375.035 371.96,374.524C371.434,372.45 371.307,370.182 371.278,368.051C371.252,366.159 371.366,364.253 371.739,362.396C372.358,359.32 372.946,356.499 373.876,353.502Z"
          style="fill: rgb(208, 199, 221)"
        />
        <clipPath id="Matrix-glasses_3">
          <path
            d="M373.876,353.502C374.098,352.789 374.369,352.135 374.537,351.838C374.869,351.247 375.217,350.672 375.606,350.117C376.516,348.82 379.277,345.313 381.094,347.279C382.562,348.867 382.497,351.879 382.461,353.868C382.352,359.851 380.94,365.07 378.001,370.286C377.024,372.02 375.947,373.68 374.651,375.194C374.296,375.61 373.605,376.508 372.949,376.37C372.3,376.233 372.089,375.035 371.96,374.524C371.434,372.45 371.307,370.182 371.278,368.051C371.252,366.159 371.366,364.253 371.739,362.396C372.358,359.32 372.946,356.499 373.876,353.502Z"
          />
        </clipPath>
        <g clip-path="url(#Matrix-glasses_3)">
          <path
            d="M372.217,365.587C372.194,365.702 372.554,366.159 372.617,366.263C372.842,366.637 373.519,368.527 374.132,368.191C374.71,367.875 375.129,367.039 375.522,366.537C376.466,365.326 377.406,364.006 378.513,362.936C378.948,362.515 379.511,362.203 380.066,361.97C380.197,361.915 380.595,361.682 380.686,361.895C380.855,362.294 380.521,362.922 380.385,363.279C379.95,364.422 379.46,365.544 378.967,366.663C377.735,369.459 376.441,372.29 374.697,374.812C374.469,375.142 373.286,377.074 372.703,376.809C372.396,376.669 372.293,376.162 372.218,375.877C371.964,374.909 371.802,373.913 371.673,372.922C371.549,371.981 371.468,371.036 371.402,370.089"
            style="fill: white"
          />
          <path
            d="M371.019,367.544C371.408,367.238 371.753,365.835 372.084,365.402C373.256,363.871 374.427,362.403 376.172,361.525C377.26,360.978 378.773,360.936 379.974,361.034C380.325,361.062 381.375,361.709 381.658,361.493C382.346,360.969 382.35,359.209 382.508,358.436C382.549,358.238 382.781,357.627 382.622,357.444C382.48,357.28 381.985,357.375 381.805,357.397C380.941,357.506 380.086,357.741 379.234,357.915C376.995,358.375 373.867,358.611 372.457,360.664C371.966,361.378 371.781,362.212 371.602,363.047"
            style="fill: rgb(96, 71, 85)"
          />
        </g>
        <path
          d="M373.876,353.502C374.098,352.789 374.369,352.135 374.537,351.838C374.869,351.247 375.217,350.672 375.606,350.117C376.516,348.82 379.277,345.313 381.094,347.279C382.562,348.867 382.497,351.879 382.461,353.868C382.352,359.851 380.94,365.07 378.001,370.286C377.024,372.02 375.947,373.68 374.651,375.194C374.296,375.61 373.605,376.508 372.949,376.37C372.3,376.233 372.089,375.035 371.96,374.524C371.434,372.45 371.307,370.182 371.278,368.051C371.252,366.159 371.366,364.253 371.739,362.396C372.358,359.32 372.946,356.499 373.876,353.502Z"
          style="fill: none; stroke: black; stroke-width: 2.1px"
        />
      </g>
      <path
        d="M398.415,348.62L401.552,348.62C404.807,348.62 408.036,348.727 411.221,349.468C415.107,350.372 418.711,352.159 422.571,353.151C427.919,354.525 434.469,353.697 438.934,356.16C440.001,356.748 440.285,357.762 440.285,357.762C439.98,358.714 439.051,359.162 437.998,359.284C435.559,359.568 432.997,359.26 430.547,359.225C427.911,359.187 425.149,359.203 422.567,358.605C417.99,357.546 413.896,355.672 409.128,355.296C407.091,355.136 405.042,355.117 402.997,355.142L396.969,355.142C394.924,355.117 392.876,355.136 390.839,355.296C386.071,355.672 381.977,357.546 377.399,358.605C374.817,359.203 372.056,359.187 369.42,359.225C366.969,359.26 364.407,359.568 361.968,359.284C360.915,359.162 359.987,358.714 359.681,357.762C359.681,357.762 359.965,356.748 361.033,356.16C365.497,353.697 372.047,354.525 377.396,353.151C381.255,352.159 384.859,350.372 388.746,349.468C391.931,348.727 395.16,348.62 398.415,348.62Z"
        style="fill: rgb(212, 199, 224)"
      />
      <clipPath id="Matrix-glasses_4">
        <path
          d="M398.415,348.62L401.552,348.62C404.807,348.62 408.036,348.727 411.221,349.468C415.107,350.372 418.711,352.159 422.571,353.151C427.919,354.525 434.469,353.697 438.934,356.16C440.001,356.748 440.285,357.762 440.285,357.762C439.98,358.714 439.051,359.162 437.998,359.284C435.559,359.568 432.997,359.26 430.547,359.225C427.911,359.187 425.149,359.203 422.567,358.605C417.99,357.546 413.896,355.672 409.128,355.296C407.091,355.136 405.042,355.117 402.997,355.142L396.969,355.142C394.924,355.117 392.876,355.136 390.839,355.296C386.071,355.672 381.977,357.546 377.399,358.605C374.817,359.203 372.056,359.187 369.42,359.225C366.969,359.26 364.407,359.568 361.968,359.284C360.915,359.162 359.987,358.714 359.681,357.762C359.681,357.762 359.965,356.748 361.033,356.16C365.497,353.697 372.047,354.525 377.396,353.151C381.255,352.159 384.859,350.372 388.746,349.468C391.931,348.727 395.16,348.62 398.415,348.62Z"
        />
      </clipPath>
      <g clip-path="url(#Matrix-glasses_4)">
        <path
          d="M359.679,358.828C359.326,358.721 359.991,358.051 360.066,357.983C360.876,357.253 361.844,356.689 362.764,356.111C364.533,354.998 366.291,353.743 368.166,352.814C368.401,352.697 369.871,351.949 370.148,352.258C370.238,352.358 369.334,353.129 369.259,353.205C368.637,353.827 368.071,354.521 367.562,355.238C366.67,356.493 365.274,359.958 363.603,360.219C362.547,360.384 361.452,359.74 360.538,359.299L359.679,358.828ZM431.296,354.26C431.263,354.526 432.357,355.824 432.553,356.127C433.321,357.311 434.052,358.904 435.533,359.241C436.531,359.468 440.122,359.098 439.922,357.48C439.795,356.456 438.472,355.814 437.677,355.402C436.963,355.032 436.236,354.687 435.467,354.448L431.296,354.26ZM382.846,350.771C383.015,350.811 382.73,351.099 382.685,351.266C382.586,351.638 382.485,352.007 382.379,352.377C381.987,353.738 381.576,355.094 381.208,356.462C381.111,356.823 380.691,357.702 381.261,357.862C382.043,358.083 382.78,357.342 383.243,356.827C384.498,355.432 385.128,353.849 385.776,352.118C385.983,351.566 386.918,349.886 385.798,349.765L382.846,350.771ZM414.372,350.449C414.263,351.881 414.388,354.401 415.003,355.702C415.505,356.765 416.918,357.061 417.967,357.224C418.16,357.254 418.901,357.522 419.06,357.344C419.298,357.078 419.069,356.239 419.03,355.937C418.86,354.61 418.808,352.886 417.891,351.848L414.372,350.449ZM397.979,347.933C397.712,348.015 397.289,349.167 397.166,349.386C396.463,350.636 395.818,351.915 395.208,353.213C395.001,353.655 394.527,354.369 394.883,354.845C395.258,355.347 396.062,355.395 396.628,355.41C398.238,355.452 400.494,355.471 402.041,354.982C402.793,354.745 403.044,353.427 403.282,352.801C403.859,351.287 405.965,348.097 403.383,347.772L397.979,347.933Z"
          style="fill: white"
        />
        <path
          d="M373.222,353.377C373.086,353.42 372.859,354.143 372.801,354.267C372.372,355.187 371.925,356.102 371.476,357.012C371.199,357.574 370.924,358.136 370.646,358.697C370.565,358.86 370.31,359.269 370.67,359.242C372.273,359.124 373.907,358.658 375.509,358.456C377.157,358.249 379.257,358.213 380.706,357.263C381.091,357.011 381.196,356.408 381.328,356.009C381.615,355.142 381.918,354.28 382.219,353.418C382.286,353.227 382.784,352.221 382.503,352.068C382.043,351.818 380.929,352.34 380.486,352.455C378.818,352.885 377.13,353.155 375.417,353.32L373.222,353.377ZM418.312,352.354C418.32,352.383 418.344,352.491 418.347,352.506L418.661,353.865C418.869,354.794 419.002,356.113 419.687,356.831C420.568,357.757 421.98,357.977 423.178,358.161C424.345,358.339 425.519,358.546 426.696,358.646C427.262,358.694 427.832,358.684 428.4,358.684C428.569,358.684 428.87,358.732 429.019,358.626C429.164,358.522 429.018,358.225 428.976,358.107C428.795,357.594 428.539,357.107 428.306,356.616C427.976,355.924 427.708,354.97 427.145,354.426C426.744,354.038 426.091,353.885 425.568,353.759C424.651,353.538 423.72,353.345 422.79,353.181L418.312,352.354C418.31,352.345 418.309,352.344 418.31,352.354L418.312,352.354ZM404.866,349.126C404.893,349.07 404.803,349.233 404.777,349.29C404.724,349.406 404.669,349.522 404.616,349.637C404.449,349.996 404.275,350.35 404.11,350.709C403.639,351.731 403.152,352.745 402.674,353.764C402.542,354.044 402.143,354.674 402.586,354.87C403.155,355.121 404.008,354.868 404.592,354.784C405.129,354.708 405.667,354.643 406.205,354.582C406.434,354.556 406.797,354.565 406.98,354.393C407.262,354.129 407.392,353.618 407.526,353.273C407.634,352.994 407.747,352.717 407.857,352.438C408.132,351.74 408.41,351.041 408.674,350.339C408.767,350.092 408.939,349.72 408.805,349.459C408.632,349.122 408.136,349.048 407.804,349.007L404.866,349.126ZM394.89,348.921C394.906,348.95 394.772,349.153 394.758,349.182C394.609,349.476 394.453,349.767 394.302,350.06C393.732,351.165 393.185,352.289 392.671,353.422C392.487,353.828 392.146,354.486 392.714,354.728C392.992,354.846 393.331,354.758 393.619,354.733C393.99,354.7 394.511,354.723 394.832,354.499C395.151,354.277 395.3,353.685 395.453,353.357C395.84,352.533 396.251,351.721 396.662,350.91C396.947,350.349 397.959,349.113 396.862,348.981L394.89,348.921Z"
          style="fill: rgb(166, 117, 141)"
        />
      </g>
      <path
        d="M398.415,348.62L401.552,348.62C404.807,348.62 408.036,348.727 411.221,349.468C415.107,350.372 418.711,352.159 422.571,353.151C427.919,354.525 434.469,353.697 438.934,356.16C440.001,356.748 440.285,357.762 440.285,357.762C439.98,358.714 439.051,359.162 437.998,359.284C435.559,359.568 432.997,359.26 430.547,359.225C427.911,359.187 425.149,359.203 422.567,358.605C417.99,357.546 413.896,355.672 409.128,355.296C407.091,355.136 405.042,355.117 402.997,355.142L396.969,355.142C394.924,355.117 392.876,355.136 390.839,355.296C386.071,355.672 381.977,357.546 377.399,358.605C374.817,359.203 372.056,359.187 369.42,359.225C366.969,359.26 364.407,359.568 361.968,359.284C360.915,359.162 359.987,358.714 359.681,357.762C359.681,357.762 359.965,356.748 361.033,356.16C365.497,353.697 372.047,354.525 377.396,353.151C381.255,352.159 384.859,350.372 388.746,349.468C391.931,348.727 395.16,348.62 398.415,348.62Z"
        style="fill: none; stroke: black; stroke-width: 2.1px"
      />
    </g>
  </g>
  <defs>
    <linearGradient
      id="Matrix-glasses_Linear1"
      x1="0"
      y1="0"
      x2="1"
      y2="0"
      gradientUnits="userSpaceOnUse"
      gradientTransform="matrix(-17.801,64.9251,-65.7305,-17.5829,488.478,328.534)"
    >
      <stop offset="0" style="stop-color: rgb(88, 18, 71); stop-opacity: 1" />
      <stop
        offset="0.66"
        style="stop-color: rgb(227, 52, 46); stop-opacity: 1"
      />
      <stop
        offset="0.84"
        style="stop-color: rgb(229, 47, 63); stop-opacity: 1"
      />
      <stop offset="1" style="stop-color: rgb(237, 30, 121); stop-opacity: 1" />
    </linearGradient>
    <linearGradient
      id="Matrix-glasses_Linear3"
      x1="0"
      y1="0"
      x2="1"
      y2="0"
      gradientUnits="userSpaceOnUse"
      gradientTransform="matrix(-14.3633,48.7334,-48.7334,-14.3633,497.433,339.96)"
    >
      <stop offset="0" style="stop-color: white; stop-opacity: 1" />
      <stop offset="1" style="stop-color: white; stop-opacity: 0" />
    </linearGradient>
    <linearGradient
      id="Matrix-glasses_Linear4"
      x1="0"
      y1="0"
      x2="1"
      y2="0"
      gradientUnits="userSpaceOnUse"
      gradientTransform="matrix(-17.801,64.9251,-65.7305,-17.5829,488.478,328.534)"
    >
      <stop offset="0" style="stop-color: rgb(88, 18, 71); stop-opacity: 1" />
      <stop
        offset="0.66"
        style="stop-color: rgb(227, 52, 46); stop-opacity: 1"
      />
      <stop
        offset="0.84"
        style="stop-color: rgb(229, 47, 63); stop-opacity: 1"
      />
      <stop offset="1" style="stop-color: rgb(237, 30, 121); stop-opacity: 1" />
    </linearGradient>
    <linearGradient
      id="Matrix-glasses_Linear6"
      x1="0"
      y1="0"
      x2="1"
      y2="0"
      gradientUnits="userSpaceOnUse"
      gradientTransform="matrix(-44.4467,44.7782,-44.7782,-44.4467,334.629,334.091)"
    >
      <stop offset="0" style="stop-color: white; stop-opacity: 1" />
      <stop offset="1" style="stop-color: white; stop-opacity: 0" />
    </linearGradient>
  </defs>
</svg>
