<svg
  width="100%"
  height="100%"
  viewBox="0 0 800 800"
  xmlns="http://www.w3.org/2000/svg"
>
  <g
    id="Punk-emotions"
    transform="matrix(0.388951,0,0,0.388951,2.34032,2.21244)"
  >
    <g
      id="eye-without-piercing"
      transform="matrix(2.57102,0,0,2.57102,-6.01701,-5.68822)"
    >
      <path
        d="M447.913,311.611C446.365,314.335 441.917,316.589 439.739,318.983C434.449,324.794 429.676,331.924 426.334,339.011C425.158,341.505 423.98,344.056 423.226,346.714C423.059,347.3 422.459,348.87 422.815,349.493C422.857,349.566 423.565,348.878 423.617,348.833C424.147,348.371 424.702,347.924 425.282,347.526C426.964,346.373 428.911,345.564 430.789,344.793C433.993,343.477 437.552,342.479 440.361,340.373C442.35,338.88 443.557,336.569 445.604,335.086C449.238,332.452 453.466,330.272 457.354,328.046C461.363,325.752 465.451,323.977 469.753,322.278C470.394,322.024 475.477,321.062 475.718,320.421C475.727,320.396 474.436,320.375 473.355,320.478C472.589,320.551 471.572,320.552 470.814,320.681C467.995,321.161 466.957,321.327 464.146,321.852C463.692,321.937 461.5,322.225 461.5,322.225C461.5,322.225 461.399,317.974 463.72,315.686C467.864,311.6 472.557,307.898 476.777,303.905C478.328,302.438 479.795,300.887 481.157,299.243C481.341,299.02 482.387,297.933 482.026,297.599C480.919,296.573 475.916,299.275 474.905,299.702C467.482,302.833 460.061,306.104 452.836,309.672L447.913,311.611ZM352.011,311.611C353.559,314.335 358.006,316.589 360.185,318.983C365.475,324.794 370.248,331.924 373.59,339.011C374.766,341.505 375.943,344.056 376.698,346.714C376.864,347.3 377.464,348.87 377.108,349.493C377.067,349.566 376.359,348.878 376.307,348.833C375.777,348.371 375.221,347.924 374.641,347.526C372.959,346.373 371.012,345.564 369.134,344.793C365.931,343.477 362.371,342.479 359.563,340.373C357.573,338.88 356.367,336.569 354.319,335.086C350.685,332.452 346.458,330.272 342.569,328.046C338.561,325.752 334.336,323.967 330.034,322.268C329.393,322.015 324.446,321.062 324.206,320.421C324.197,320.396 325.487,320.375 326.569,320.478C327.334,320.551 328.352,320.552 329.11,320.681C331.929,321.161 332.967,321.327 335.778,321.852C336.232,321.937 338.423,322.225 338.423,322.225C338.423,322.225 338.524,317.974 336.204,315.686C332.06,311.6 327.367,307.898 323.147,303.905C321.596,302.438 320.128,300.887 318.767,299.243C318.583,299.02 317.537,297.933 317.898,297.599C319.005,296.573 324.008,299.275 325.019,299.702C332.442,302.833 339.863,306.104 347.087,309.672L352.011,311.611Z"
        style="fill: rgb(66, 31, 67); fill-opacity: 0.5"
      />
      <g id="eyes">
        <g id="Left-eye">
          <path
            d="M452.471,339.507C452.471,339.507 452.065,340.583 451.912,340.878C451.373,341.915 450.884,342.982 450.376,344.034C448.8,347.296 446.164,351.533 447.803,355.237C449.439,358.933 454.398,359.041 457.842,359.926C462.763,361.191 467.207,363.356 471.998,364.878C476.346,366.259 481.1,367.046 485.634,367.418C493.338,368.049 501.639,366.91 508.267,362.704C513.741,359.231 518.303,354.12 522.534,349.274C525.473,345.907 531.764,340.514 531.119,335.445C530.818,333.076 528.477,331.814 526.642,330.716C522.332,328.139 517.75,325.882 513.028,324.167C500.054,319.456 485.619,321.635 472.85,326.059C465.132,328.733 457.437,332.807 452.471,339.507Z"
            style="fill: rgb(252, 236, 236)"
          />
          <clipPath id="_clip2_punk_confident_eyes">
            <path
              d="M452.471,339.507C452.471,339.507 452.065,340.583 451.912,340.878C451.373,341.915 450.884,342.982 450.376,344.034C448.8,347.296 446.164,351.533 447.803,355.237C449.439,358.933 454.398,359.041 457.842,359.926C462.763,361.191 467.207,363.356 471.998,364.878C476.346,366.259 481.1,367.046 485.634,367.418C493.338,368.049 501.639,366.91 508.267,362.704C513.741,359.231 518.303,354.12 522.534,349.274C525.473,345.907 531.764,340.514 531.119,335.445C530.818,333.076 528.477,331.814 526.642,330.716C522.332,328.139 517.75,325.882 513.028,324.167C500.054,319.456 485.619,321.635 472.85,326.059C465.132,328.733 457.437,332.807 452.471,339.507Z"
            />
          </clipPath>
          <g clip-path="url(#_clip2_punk_confident_eyes)">
            <path
              d="M447.148,357.305C447.615,355.889 448.913,354.488 449.933,353.453C452.631,350.716 455.862,348.472 459.145,346.503C467.449,341.52 477.38,339.328 486.782,337.423C493.392,336.083 500.207,334.674 506.982,334.73C513.148,334.78 519.458,334.668 525.594,335.269C528.008,335.506 530.415,335.852 532.823,336.143C533.082,336.174 535.195,336.555 535.006,335.874C534.66,334.634 532.315,333.56 531.346,332.969C527.875,330.851 524.363,328.768 520.747,326.906C516.083,324.504 511.06,322.422 505.848,321.615C495.488,320.011 484.294,322.616 474.579,326.086C469.168,328.019 463.858,330.298 459.08,333.524C453.099,337.562 448.768,342.796 446.62,349.728C445.818,352.313 445.076,355.809 447.309,357.897"
              style="fill: rgb(194, 188, 177)"
            />
          </g>
          <g id="pupil">
            <g transform="matrix(1.01031,0,0,1,-5.90204,-1.33334)">
              <circle
                cx="488.414"
                cy="344.374"
                r="18.677"
                style="
                  fill: rgb(
                    var(--color_eyes_r, 99),
                    var(--color_eyes_g, 65),
                    var(--color_eyes_b, 28)
                  );
                "
              />
              <clipPath id="_clip3_punk_confident_eyes">
                <circle cx="488.414" cy="344.374" r="18.677" />
              </clipPath>
              <g clip-path="url(#_clip3_punk_confident_eyes)">
                <g transform="matrix(0.989796,0,0,1,5.84182,1.33334)">
                  <path
                    d="M468.091,342.43C468.37,342.025 469.517,341.783 469.94,341.639C471.67,341.052 473.455,340.606 475.211,340.106C482.616,337.998 490.18,336.301 497.821,335.329C500.007,335.051 502.198,334.921 504.391,334.722C504.963,334.67 506.178,334.832 506.631,334.49C507.061,334.165 506.877,333.303 506.758,332.889C505.773,329.453 501.678,327.421 498.73,326.031C489.245,321.559 476.549,323.655 468.7,330.567C466.311,332.671 463.871,335.856 463.602,339.157C463.469,340.784 464.353,342.95 466.155,343.25"
                    style="
                      fill: rgb(
                        calc(var(--color_eyes_r, 99) - 80),
                        calc(var(--color_eyes_g, 65) - 14),
                        calc(var(--color_eyes_b, 28) + 8)
                      );
                    "
                  />
                </g>
              </g>
              <circle
                cx="488.414"
                cy="344.374"
                r="18.677"
                style="fill: none; stroke: black; stroke-width: 2.1px"
              />
            </g>
            <path
              d="M477.904,342.213C477.936,342.236 477.698,343.424 477.688,343.511C477.535,344.863 477.58,345.978 477.675,347.338C477.883,350.284 479.947,352.967 482.37,354.452C487.368,357.513 494.519,355.093 496.939,349.858C497.863,347.859 498.546,344.119 497.11,341.761C496.249,340.347 492.984,340.913 491.49,340.899C489.104,340.876 486.701,341.224 484.348,341.597L477.904,342.213Z"
              style="
                fill: rgb(
                  calc(var(--color_eyes_r, 99) + 44),
                  calc(var(--color_eyes_g, 65) + 80),
                  calc(var(--color_eyes_b, 28) + 9)
                );
              "
            />
            <g transform="matrix(0.525618,0,0,0.520254,230.828,163.879)">
              <circle cx="488.414" cy="344.374" r="18.677" />
            </g>
            <g transform="matrix(0.273455,0,0,0.270664,364.393,243.559)">
              <circle
                cx="488.414"
                cy="344.374"
                r="18.677"
                style="fill: rgb(252, 236, 236)"
              />
            </g>
          </g>
          <path
            d="M523.37,314.262C523.257,314.071 521.675,314.536 521.51,314.574C519.839,314.958 518.125,315.463 516.596,316.247C516.427,316.334 515.206,316.869 515.277,317.154C515.444,317.824 516.841,318.702 517.29,319.17C518.923,320.874 520.418,322.735 521.928,324.547C522.436,325.157 522.941,325.772 523.416,326.408C523.47,326.48 523.883,326.935 523.749,327.042C523.535,327.214 522.817,326.858 522.623,326.782C521.395,326.305 520.218,325.675 519.038,325.094C515.154,323.181 511.195,321.382 507.405,319.288C506.667,318.881 504.145,318.047 503.89,317.09C503.631,316.118 506.806,315.732 507.317,315.613C511.243,314.698 515.406,314.635 519.416,314.635L523.37,314.262Z"
            style="fill: rgb(156, 109, 132)"
          />
          <path
            d="M444.868,356.041C444.868,356.041 444.166,355.337 444.647,352.901C445.153,350.342 445.62,349.03 446.189,347.094C446.812,344.972 447.548,343.232 448.466,341.218C448.561,341.009 449.381,339.553 449.257,339.355C449.178,339.228 448.021,340.39 447.935,340.461C446.379,341.733 444.958,343.323 443.457,344.661C443.364,344.745 442.185,346.081 441.576,346.246C441.306,346.319 442.121,344.626 442.212,344.418C442.736,343.224 443.231,342.026 443.84,340.873C446.68,335.5 449.905,331.906 455.233,328.992C466.503,322.829 478.837,319.036 492.229,317.127C497.707,316.346 506.207,314.752 508.252,316.111C510.868,317.848 520.048,322.04 525.282,325.393C528.833,327.667 531.479,328.722 534.959,331.101C536.771,332.339 540.33,334.707 540.33,334.707C540.33,334.707 537.753,338.799 537.104,339.524C533.977,343.023 530.761,346.413 527.412,349.696C519.219,357.729 510.35,364.106 499.265,367.302C494.844,368.577 489.922,369.221 485.287,369.024C479.853,368.793 475.191,367.031 470.174,365.106C465.876,363.458 461.917,361.136 457.346,360.365C455.733,360.093 453.586,360.071 452.204,359.936C451.287,359.846 449.834,359.858 449.817,358.913C449.794,357.609 452.489,357.811 453.372,357.891C455.96,358.127 457.946,358.438 459.21,358.743C464.971,360.133 470.468,363.442 476.199,365.089C480.718,366.388 485.608,366.524 490.391,366.425C503.839,366.146 514.181,356.05 522.03,346.299C524.06,343.777 526.03,341.171 527.78,338.444C528.046,338.03 529.415,336.287 528.938,335.737C528.218,334.905 526.641,334.461 525.693,333.981C523.124,332.68 520.511,331.464 517.938,330.168C513.881,328.124 509.752,324.792 505.222,323.949C501.124,323.187 496.674,323.905 492.616,324.611C482.124,326.438 471.53,330.476 462.611,336.246C457.473,339.57 453.859,343.462 450.389,348.507C449.01,350.512 447.871,351.931 446.522,354.365C446.295,354.774 445.541,355.726 444.868,356.041Z"
          />
          <path
            d="M440.504,340.461C440.452,340.571 440.57,340.226 440.614,340.113C440.706,339.882 440.818,339.658 440.932,339.438C441.268,338.791 441.658,338.181 442.099,337.6C443.451,335.82 445.154,334.387 446.956,333.085C452.294,329.226 458.828,326.887 464.932,324.553C474.782,320.787 485.009,318.755 495.376,316.961C505.273,315.249 514.979,313.821 525.035,314.393"
            style="fill: none; stroke: black; stroke-width: 2.1px"
          />
          <path
            d="M466.762,369.103C466.555,368.903 467.329,369.203 467.608,369.271C468.162,369.406 468.714,369.545 469.266,369.687C470.933,370.114 472.593,370.573 474.257,371.016C479.328,372.366 484.129,372.988 489.357,372.282C504.377,370.254 515.826,360.608 524.772,348.825"
            style="fill: none; stroke: black; stroke-width: 2.1px"
          />
        </g>
        <g id="Left-eye1" transform="matrix(-1,0,0,1,800.112,0)">
          <path
            d="M452.471,339.507C452.471,339.507 452.065,340.583 451.912,340.878C451.373,341.915 450.884,342.982 450.376,344.034C448.8,347.296 446.164,351.533 447.803,355.237C449.439,358.933 454.398,359.041 457.842,359.926C462.763,361.191 467.207,363.356 471.998,364.878C476.346,366.259 481.1,367.046 485.634,367.418C493.338,368.049 501.639,366.91 508.267,362.704C513.741,359.231 518.303,354.12 522.534,349.274C525.473,345.907 531.764,340.514 531.119,335.445C530.818,333.076 528.477,331.814 526.642,330.716C522.332,328.139 517.75,325.882 513.028,324.167C500.054,319.456 485.619,321.635 472.85,326.059C465.132,328.733 457.437,332.807 452.471,339.507Z"
            style="fill: rgb(252, 236, 236)"
          />
          <clipPath id="_clip4_punk_confident_eyes">
            <path
              d="M452.471,339.507C452.471,339.507 452.065,340.583 451.912,340.878C451.373,341.915 450.884,342.982 450.376,344.034C448.8,347.296 446.164,351.533 447.803,355.237C449.439,358.933 454.398,359.041 457.842,359.926C462.763,361.191 467.207,363.356 471.998,364.878C476.346,366.259 481.1,367.046 485.634,367.418C493.338,368.049 501.639,366.91 508.267,362.704C513.741,359.231 518.303,354.12 522.534,349.274C525.473,345.907 531.764,340.514 531.119,335.445C530.818,333.076 528.477,331.814 526.642,330.716C522.332,328.139 517.75,325.882 513.028,324.167C500.054,319.456 485.619,321.635 472.85,326.059C465.132,328.733 457.437,332.807 452.471,339.507Z"
            />
          </clipPath>
          <g clip-path="url(#_clip4_punk_confident_eyes)">
            <path
              d="M447.148,357.305C447.615,355.889 448.913,354.488 449.933,353.453C452.631,350.716 455.862,348.472 459.145,346.503C467.449,341.52 477.38,339.328 486.782,337.423C493.392,336.083 500.207,334.674 506.982,334.73C513.148,334.78 519.458,334.668 525.594,335.269C528.008,335.506 530.415,335.852 532.823,336.143C533.082,336.174 535.195,336.555 535.006,335.874C534.66,334.634 532.315,333.56 531.346,332.969C527.875,330.851 524.363,328.768 520.747,326.906C516.083,324.504 511.06,322.422 505.848,321.615C495.488,320.011 484.294,322.616 474.579,326.086C469.168,328.019 463.858,330.298 459.08,333.524C453.099,337.562 448.768,342.796 446.62,349.728C445.818,352.313 445.076,355.809 447.309,357.897"
              style="fill: rgb(194, 188, 177)"
            />
          </g>
          <g id="pupil1">
            <g transform="matrix(1.01031,0,0,1,-5.90204,-1.33334)">
              <circle
                cx="488.414"
                cy="344.374"
                r="18.677"
                style="
                  fill: rgb(
                    var(--color_eyes_r, 99),
                    var(--color_eyes_g, 65),
                    var(--color_eyes_b, 28)
                  );
                "
              />
              <clipPath id="_clip5_punk_confident_eyes">
                <circle cx="488.414" cy="344.374" r="18.677" />
              </clipPath>
              <g clip-path="url(#_clip5_punk_confident_eyes)">
                <g transform="matrix(0.989796,0,0,1,5.84182,1.33334)">
                  <path
                    d="M468.091,342.43C468.37,342.025 469.517,341.783 469.94,341.639C471.67,341.052 473.455,340.606 475.211,340.106C482.616,337.998 490.18,336.301 497.821,335.329C500.007,335.051 502.198,334.921 504.391,334.722C504.963,334.67 506.178,334.832 506.631,334.49C507.061,334.165 506.877,333.303 506.758,332.889C505.773,329.453 501.678,327.421 498.73,326.031C489.245,321.559 476.549,323.655 468.7,330.567C466.311,332.671 463.871,335.856 463.602,339.157C463.469,340.784 464.353,342.95 466.155,343.25"
                    style="
                      fill: rgb(
                        calc(var(--color_eyes_r, 99) - 80),
                        calc(var(--color_eyes_g, 65) - 14),
                        calc(var(--color_eyes_b, 28) + 8)
                      );
                    "
                  />
                </g>
              </g>
              <circle
                cx="488.414"
                cy="344.374"
                r="18.677"
                style="fill: none; stroke: black; stroke-width: 2.1px"
              />
            </g>
            <path
              d="M477.904,342.213C477.936,342.236 477.698,343.424 477.688,343.511C477.535,344.863 477.58,345.978 477.675,347.338C477.883,350.284 479.947,352.967 482.37,354.452C487.368,357.513 494.519,355.093 496.939,349.858C497.863,347.859 498.546,344.119 497.11,341.761C496.249,340.347 492.984,340.913 491.49,340.899C489.104,340.876 486.701,341.224 484.348,341.597L477.904,342.213Z"
              style="
                fill: rgb(
                  calc(var(--color_eyes_r, 99) + 44),
                  calc(var(--color_eyes_g, 65) + 80),
                  calc(var(--color_eyes_b, 28) + 9)
                );
              "
            />
            <g transform="matrix(0.525618,0,0,0.520254,230.828,163.879)">
              <circle cx="488.414" cy="344.374" r="18.677" />
            </g>
            <g transform="matrix(0.273455,0,0,0.270664,343.665,245.508)">
              <circle
                cx="488.414"
                cy="344.374"
                r="18.677"
                style="fill: rgb(252, 236, 236)"
              />
            </g>
          </g>
          <path
            d="M523.37,314.262C523.257,314.071 521.675,314.536 521.51,314.574C519.839,314.958 518.125,315.463 516.596,316.247C516.427,316.334 515.206,316.869 515.277,317.154C515.444,317.824 516.841,318.702 517.29,319.17C518.923,320.874 520.418,322.735 521.928,324.547C522.436,325.157 522.941,325.772 523.416,326.408C523.47,326.48 523.883,326.935 523.749,327.042C523.535,327.214 522.817,326.858 522.623,326.782C521.395,326.305 520.218,325.675 519.038,325.094C515.154,323.181 511.195,321.382 507.405,319.288C506.667,318.881 504.145,318.047 503.89,317.09C503.631,316.118 506.806,315.732 507.317,315.613C511.243,314.698 515.406,314.635 519.416,314.635L523.37,314.262Z"
            style="fill: rgb(156, 109, 132)"
          />
          <path
            d="M444.868,356.041C444.868,356.041 444.166,355.337 444.647,352.901C445.153,350.342 445.62,349.03 446.189,347.094C446.812,344.972 447.548,343.232 448.466,341.218C448.561,341.009 449.381,339.553 449.257,339.355C449.178,339.228 448.021,340.39 447.935,340.461C446.379,341.733 444.958,343.323 443.457,344.661C443.364,344.745 442.185,346.081 441.576,346.246C441.306,346.319 442.121,344.626 442.212,344.418C442.736,343.224 443.231,342.026 443.84,340.873C446.68,335.5 449.905,331.906 455.233,328.992C466.503,322.829 478.837,319.036 492.229,317.127C497.707,316.346 506.207,314.752 508.252,316.111C510.868,317.848 520.048,322.04 525.282,325.393C528.833,327.667 531.479,328.722 534.959,331.101C536.771,332.339 540.33,334.707 540.33,334.707C540.33,334.707 537.753,338.799 537.104,339.524C533.977,343.023 530.761,346.413 527.412,349.696C519.219,357.729 510.35,364.106 499.265,367.302C494.844,368.577 489.922,369.221 485.287,369.024C479.853,368.793 475.191,367.031 470.174,365.106C465.876,363.458 461.917,361.136 457.346,360.365C455.733,360.093 453.586,360.071 452.204,359.936C451.287,359.846 449.834,359.858 449.817,358.913C449.794,357.609 452.489,357.811 453.372,357.891C455.96,358.127 457.946,358.438 459.21,358.743C464.971,360.133 470.468,363.442 476.199,365.089C480.718,366.388 485.608,366.524 490.391,366.425C503.839,366.146 514.181,356.05 522.03,346.299C524.06,343.777 526.03,341.171 527.78,338.444C528.046,338.03 529.415,336.287 528.938,335.737C528.218,334.905 526.641,334.461 525.693,333.981C523.124,332.68 520.511,331.464 517.938,330.168C513.881,328.124 509.752,324.792 505.222,323.949C501.124,323.187 496.674,323.905 492.616,324.611C482.124,326.438 471.53,330.476 462.611,336.246C457.473,339.57 453.859,343.462 450.389,348.507C449.01,350.512 447.871,351.931 446.522,354.365C446.295,354.774 445.541,355.726 444.868,356.041Z"
          />
          <path
            d="M440.504,340.461C440.452,340.571 440.57,340.226 440.614,340.113C440.706,339.882 440.818,339.658 440.932,339.438C441.268,338.791 441.658,338.181 442.099,337.6C443.451,335.82 445.154,334.387 446.956,333.085C452.294,329.226 458.828,326.887 464.932,324.553C474.782,320.787 485.009,318.755 495.376,316.961C505.273,315.249 514.979,313.821 525.035,314.393"
            style="fill: none; stroke: black; stroke-width: 2.1px"
          />
          <path
            d="M466.762,369.103C466.555,368.903 467.329,369.203 467.608,369.271C468.162,369.406 468.714,369.545 469.266,369.687C470.933,370.114 472.593,370.573 474.257,371.016C479.328,372.366 484.129,372.988 489.357,372.282C504.377,370.254 515.826,360.608 524.772,348.825"
            style="fill: none; stroke: black; stroke-width: 2.1px"
          />
        </g>
      </g>
      <g id="eyebrows">
        <path
          d="M425.533,300.387C425.387,300.05 425.293,299.694 425.328,299.347C425.514,299.346 429.785,300.426 430.025,300.496C433.461,301.505 436.007,302.3 439.532,301.171C451.185,297.439 462.573,292.779 474.112,288.711C485.63,284.651 497.255,280.815 508.828,276.912C511.457,276.025 514.217,275.122 517.028,275.189C517.507,275.2 519.409,275.181 519.502,275.954C519.653,277.211 515.247,279.191 514.486,279.672C508.707,283.322 502.743,286.682 496.896,290.22C492.856,292.665 488.867,295.193 484.798,297.59C475.854,302.859 466.557,307.915 456.948,311.875C452.769,313.597 447.806,315.906 443.178,315.033C438.403,314.133 434.929,310.527 431.674,307.198C430.191,305.681 427.729,303.812 426.39,301.778C426.359,301.793 426.03,301.283 426.008,301.247C425.845,300.99 425.667,300.696 425.533,300.387Z"
          style="
            fill: rgb(
              var(--color_eyebrows_r, 72),
              var(--color_eyebrows_g, 46),
              var(--color_eyebrows_b, 31)
            );
          "
        />
        <clipPath id="_clip6_punk_confident_eyes">
          <path
            d="M425.533,300.387C425.387,300.05 425.293,299.694 425.328,299.347C425.514,299.346 429.785,300.426 430.025,300.496C433.461,301.505 436.007,302.3 439.532,301.171C451.185,297.439 462.573,292.779 474.112,288.711C485.63,284.651 497.255,280.815 508.828,276.912C511.457,276.025 514.217,275.122 517.028,275.189C517.507,275.2 519.409,275.181 519.502,275.954C519.653,277.211 515.247,279.191 514.486,279.672C508.707,283.322 502.743,286.682 496.896,290.22C492.856,292.665 488.867,295.193 484.798,297.59C475.854,302.859 466.557,307.915 456.948,311.875C452.769,313.597 447.806,315.906 443.178,315.033C438.403,314.133 434.929,310.527 431.674,307.198C430.191,305.681 427.729,303.812 426.39,301.778C426.359,301.793 426.03,301.283 426.008,301.247C425.845,300.99 425.667,300.696 425.533,300.387Z"
          />
        </clipPath>
        <g clip-path="url(#_clip6_punk_confident_eyes)">
          <path
            d="M425.47,301C425.401,301.05 427.216,302.681 427.311,302.758C429.506,304.512 431.925,306.204 434.536,307.274C441.284,310.041 450.381,307.226 457.004,305.28C464.61,303.045 471.42,299.063 478.313,295.26C488.53,289.623 498.881,283.434 509.576,278.75C513.848,276.879 518.536,275.954 523.169,275.57C524.242,275.481 527.354,275.071 527.7,276.642C528.063,278.296 525.226,280.203 524.215,281.016C519.367,284.914 514.058,288.26 508.828,291.611C494.678,300.678 480.178,309.248 464.894,316.28C457.29,319.779 448.728,323.902 440.176,324.021C432.645,324.126 425.51,319.668 423.177,312.373C422.156,309.178 421.417,305.467 421.9,302.102C421.967,301.635 423.297,296.859 424.567,297.787C425.469,298.446 425.34,300.061 425.772,301.012L425.47,301Z"
            style="fill: rgb(66, 31, 67); fill-opacity: 0.5"
          />
          <path
            d="M424.336,298.83C424.565,298.748 425.449,299.305 425.645,299.388C426.917,299.921 428.212,300.393 429.508,300.862C433.495,302.305 437.978,304.239 442.294,303.209C450.053,301.359 457.613,297.539 464.978,294.587C477.098,289.729 489.445,285.945 501.712,280.862C509.102,277.801 514.945,276.291 520.352,273.926C521.819,273.285 523.282,272.599 524.665,271.789C524.894,271.654 525.849,271.188 525.702,270.796C525.553,270.399 524.591,270.44 524.283,270.428C522.931,270.374 521.569,270.486 520.223,270.608C514.046,271.168 507.888,272.151 501.778,273.196C480.952,276.757 460.144,282.006 440.115,288.748C435.895,290.169 431.675,291.679 427.673,293.643C426.813,294.065 425.962,294.506 425.135,294.99C424.687,295.253 424.246,295.527 423.82,295.824C423.481,296.061 422.56,296.589 422.603,297.115C422.648,297.668 425.249,298.993 425.809,299.366"
            style="fill: rgb(249, 255, 173); fill-opacity: 0.6"
          />
        </g>
        <path
          d="M425.533,300.387C425.387,300.05 425.293,299.694 425.328,299.347C425.514,299.346 429.785,300.426 430.025,300.496C433.461,301.505 436.007,302.3 439.532,301.171C451.185,297.439 462.573,292.779 474.112,288.711C485.63,284.651 497.255,280.815 508.828,276.912C511.457,276.025 514.217,275.122 517.028,275.189C517.507,275.2 519.409,275.181 519.502,275.954C519.653,277.211 515.247,279.191 514.486,279.672C508.707,283.322 502.743,286.682 496.896,290.22C492.856,292.665 488.867,295.193 484.798,297.59C475.854,302.859 466.557,307.915 456.948,311.875C452.769,313.597 447.806,315.906 443.178,315.033C438.403,314.133 434.929,310.527 431.674,307.198C430.191,305.681 427.729,303.812 426.39,301.778C426.359,301.793 426.03,301.283 426.008,301.247C425.845,300.99 425.667,300.696 425.533,300.387Z"
          style="fill: none; stroke: black; stroke-width: 2.1px"
        />
        <g transform="matrix(-1,0,0,1,799.374,0)">
          <path
            d="M425.533,300.387C425.387,300.05 425.293,299.694 425.328,299.347C425.514,299.346 429.785,300.426 430.025,300.496C433.461,301.505 436.007,302.3 439.532,301.171C451.185,297.439 462.573,292.779 474.112,288.711C485.63,284.651 497.255,280.815 508.828,276.912C511.457,276.025 514.217,275.122 517.028,275.189C517.507,275.2 519.409,275.181 519.502,275.954C519.653,277.211 515.247,279.191 514.486,279.672C508.707,283.322 502.743,286.682 496.896,290.22C492.856,292.665 488.867,295.193 484.798,297.59C475.854,302.859 466.557,307.915 456.948,311.875C452.769,313.597 447.806,315.906 443.178,315.033C438.403,314.133 434.929,310.527 431.674,307.198C430.191,305.681 427.729,303.812 426.39,301.778C426.359,301.793 426.03,301.283 426.008,301.247C425.845,300.99 425.667,300.696 425.533,300.387Z"
            style="
              fill: rgb(
                var(--color_eyebrows_r, 72),
                var(--color_eyebrows_g, 46),
                var(--color_eyebrows_b, 31)
              );
            "
          />
          <clipPath id="_clip7_punk_confident_eyes">
            <path
              d="M425.533,300.387C425.387,300.05 425.293,299.694 425.328,299.347C425.514,299.346 429.785,300.426 430.025,300.496C433.461,301.505 436.007,302.3 439.532,301.171C451.185,297.439 462.573,292.779 474.112,288.711C485.63,284.651 497.255,280.815 508.828,276.912C511.457,276.025 514.217,275.122 517.028,275.189C517.507,275.2 519.409,275.181 519.502,275.954C519.653,277.211 515.247,279.191 514.486,279.672C508.707,283.322 502.743,286.682 496.896,290.22C492.856,292.665 488.867,295.193 484.798,297.59C475.854,302.859 466.557,307.915 456.948,311.875C452.769,313.597 447.806,315.906 443.178,315.033C438.403,314.133 434.929,310.527 431.674,307.198C430.191,305.681 427.729,303.812 426.39,301.778C426.359,301.793 426.03,301.283 426.008,301.247C425.845,300.99 425.667,300.696 425.533,300.387Z"
            />
          </clipPath>
          <g clip-path="url(#_clip7_punk_confident_eyes)">
            <path
              d="M425.47,301C425.401,301.05 427.216,302.681 427.311,302.758C429.506,304.512 431.925,306.204 434.536,307.274C441.284,310.041 450.381,307.226 457.004,305.28C464.61,303.045 471.42,299.063 478.313,295.26C488.53,289.623 498.881,283.434 509.576,278.75C513.848,276.879 518.536,275.954 523.169,275.57C524.242,275.481 527.354,275.071 527.7,276.642C528.063,278.296 525.226,280.203 524.215,281.016C519.367,284.914 514.058,288.26 508.828,291.611C494.678,300.678 480.178,309.248 464.894,316.28C457.29,319.779 448.728,323.902 440.176,324.021C432.645,324.126 425.51,319.668 423.177,312.373C422.156,309.178 421.417,305.467 421.9,302.102C421.967,301.635 423.297,296.859 424.567,297.787C425.469,298.446 425.34,300.061 425.772,301.012L425.47,301Z"
              style="fill: rgb(66, 31, 67); fill-opacity: 0.5"
            />
            <path
              d="M424.336,298.83C424.565,298.748 425.449,299.305 425.645,299.388C426.917,299.921 428.212,300.393 429.508,300.862C433.495,302.305 437.978,304.239 442.294,303.209C450.053,301.359 457.613,297.539 464.978,294.587C477.098,289.729 489.445,285.945 501.712,280.862C509.102,277.801 514.945,276.291 520.352,273.926C521.819,273.285 523.282,272.599 524.665,271.789C524.894,271.654 525.849,271.188 525.702,270.796C525.553,270.399 524.591,270.44 524.283,270.428C522.931,270.374 521.569,270.486 520.223,270.608C514.046,271.168 507.888,272.151 501.778,273.196C480.952,276.757 460.144,282.006 440.115,288.748C435.895,290.169 431.675,291.679 427.673,293.643C426.813,294.065 425.962,294.506 425.135,294.99C424.687,295.253 424.246,295.527 423.82,295.824C423.481,296.061 422.56,296.589 422.603,297.115C422.648,297.668 425.249,298.993 425.809,299.366"
              style="fill: rgb(249, 255, 173); fill-opacity: 0.6"
            />
          </g>
          <path
            d="M425.533,300.387C425.387,300.05 425.293,299.694 425.328,299.347C425.514,299.346 429.785,300.426 430.025,300.496C433.461,301.505 436.007,302.3 439.532,301.171C451.185,297.439 462.573,292.779 474.112,288.711C485.63,284.651 497.255,280.815 508.828,276.912C511.457,276.025 514.217,275.122 517.028,275.189C517.507,275.2 519.409,275.181 519.502,275.954C519.653,277.211 515.247,279.191 514.486,279.672C508.707,283.322 502.743,286.682 496.896,290.22C492.856,292.665 488.867,295.193 484.798,297.59C475.854,302.859 466.557,307.915 456.948,311.875C452.769,313.597 447.806,315.906 443.178,315.033C438.403,314.133 434.929,310.527 431.674,307.198C430.191,305.681 427.729,303.812 426.39,301.778C426.359,301.793 426.03,301.283 426.008,301.247C425.845,300.99 425.667,300.696 425.533,300.387Z"
            style="fill: none; stroke: black; stroke-width: 2.1px"
          />
        </g>
      </g>
    </g>
  </g>
</svg>
