<svg viewBox="0 0 800 800"
    xmlns="http://www.w3.org/2000/svg">
    <g transform="matrix(0.976593,0,0,0.976593,9.36136,3.21573)">
        <g id="hairstyles-front">
            <g id="hairstyle-1">
                <path d="M399.935,78.687C418.335,78.687 439.207,83.797 455.135,88.451C510.188,104.538 559.807,141.267 577.071,198.582C585.157,225.429 581.465,254.228 576.348,281.207C572.202,303.069 565.926,324.502 562.63,346.536C561.806,352.043 558.033,368.296 557.963,368.196C556.103,365.539 553.607,335.769 554.949,324.266C555.373,320.635 555.635,317.017 555.928,313.376C556.028,312.143 556.711,307.926 556.711,307.926L548.107,314.686C548.107,314.686 551.572,294.185 554.243,285.127C555.418,281.144 557.869,275.867 557.68,275.615C557.507,275.384 554.819,277.348 554.612,277.486C551.791,279.367 543.863,284.917 543.863,284.917C543.863,284.917 548.8,268.719 551.424,263.702C551.644,263.282 553.946,257.687 553.946,257.687L539.098,266.455C539.098,266.455 546.344,246.42 548.879,239.54C549.039,239.106 551.903,232.686 551.903,232.686C551.903,232.686 547.299,233.507 546.54,233.72C541.088,235.243 535.569,236.717 530.199,238.507C529.793,238.642 523.737,240.726 523.737,240.726C523.737,240.726 527.014,234.852 527.545,234.003C531.764,227.251 535.565,220.201 539.849,213.506C540.264,212.857 544.917,207.308 544.712,206.794C544.566,206.429 540.387,207.64 540.067,207.719C534.848,209.001 518.896,212.995 518.896,212.995C518.896,212.995 527.867,197.1 531.363,192.042C532.296,190.693 536.262,186.203 536.215,186.156C536.096,186.037 532.266,187.832 531.994,187.93C528.15,189.314 524.267,190.676 520.55,192.379C520.133,192.57 517.466,194.337 517.068,194.098C516.848,193.966 519.008,191.224 519.179,191.019C521.326,188.443 527.736,181.099 527.577,180.782C527.439,180.505 522.089,182.502 521.67,182.664C516.958,184.492 502.588,191.313 502.588,191.313C502.588,191.313 509.896,183.309 512.14,181.065C512.343,180.863 515.438,177.966 515.425,177.954C515.101,177.629 509.168,180.456 508.604,180.641C500.894,183.174 493.012,185.391 485.584,188.702C485.013,188.957 477.751,192.858 477.751,192.858C477.751,192.858 487.594,182.297 491.078,178.813C491.939,177.952 495.798,175.298 495.212,175.005C493.839,174.319 487.377,177.721 486.096,178.226C476.451,182.025 466.723,185.644 457.201,189.747C453.9,191.169 442.412,196.513 442.412,196.513C442.412,196.513 458.983,181.042 458.289,180.695C456.871,179.986 425.36,195.403 415.599,202.867C411.944,205.662 408.156,207.963 404.144,210.199C403.231,210.708 399.516,213.362 399.655,213.239C399.655,213.239 396.638,210.708 395.726,210.199C391.713,207.963 387.925,205.662 384.27,202.867C374.51,195.403 342.998,179.986 341.58,180.695C340.886,181.042 357.457,196.513 357.457,196.513C357.457,196.513 345.969,191.169 342.668,189.747C333.147,185.644 323.418,182.025 313.774,178.226C312.492,177.721 306.03,174.319 304.657,175.005C304.071,175.298 307.93,177.952 308.791,178.813C312.275,182.297 322.118,192.858 322.118,192.858C322.118,192.858 314.856,188.957 314.285,188.702C306.857,185.391 298.975,183.174 291.265,180.641C290.701,180.456 284.768,177.629 284.444,177.954C284.432,177.966 287.527,180.863 287.729,181.065C289.973,183.309 297.281,191.313 297.281,191.313C297.281,191.313 282.911,184.492 278.199,182.664C277.78,182.502 272.43,180.505 272.292,180.782C272.133,181.099 278.544,188.443 280.69,191.019C280.861,191.224 283.021,193.966 282.801,194.098C282.403,194.337 279.736,192.57 279.32,192.379C275.602,190.676 271.719,189.314 267.875,187.93C267.603,187.832 263.773,186.037 263.654,186.156C263.607,186.203 267.573,190.693 268.506,192.042C272.002,197.1 280.973,212.995 280.973,212.995C280.973,212.995 265.022,209.001 259.803,207.719C259.482,207.64 255.303,206.429 255.157,206.794C254.952,207.308 259.605,212.857 260.02,213.506C264.305,220.201 268.105,227.251 272.324,234.003C272.856,234.852 276.132,240.726 276.132,240.726C276.132,240.726 270.076,238.642 269.67,238.507C264.301,236.717 258.781,235.243 253.33,233.72C252.57,233.507 247.966,232.686 247.966,232.686C247.966,232.686 250.831,239.106 250.991,239.54C253.525,246.42 260.771,266.455 260.771,266.455L245.923,257.687C245.923,257.687 248.225,263.282 248.445,263.702C251.069,268.719 256.006,284.917 256.006,284.917C256.006,284.917 248.078,279.367 245.257,277.486C245.05,277.348 242.363,275.384 242.189,275.615C242,275.867 244.452,281.144 245.626,285.127C248.297,294.185 251.762,314.686 251.762,314.686L243.158,307.926C243.158,307.926 243.841,312.143 243.941,313.376C244.235,317.017 244.496,320.635 244.92,324.266C246.262,335.769 245.495,346.721 243.375,358.089C242.792,361.216 241.742,368.654 241.623,368.595C241.099,368.332 238.063,352.043 237.239,346.536C233.943,324.502 227.667,303.069 223.521,281.207C218.404,254.228 214.712,225.429 222.798,198.582C240.062,141.267 289.682,104.538 344.734,88.451C360.662,83.797 381.534,78.687 399.935,78.687Z" style="fill: rgb(var(--color_hairs_r, 74), var(--color_hairs_g, 45), var(--color_hairs_b, 37))" />
                <clipPath id="_clip3_hair1_base">
                    <path d="M399.935,78.687C418.335,78.687 439.207,83.797 455.135,88.451C510.188,104.538 559.807,141.267 577.071,198.582C585.157,225.429 581.465,254.228 576.348,281.207C572.202,303.069 565.926,324.502 562.63,346.536C561.806,352.043 558.033,368.296 557.963,368.196C556.103,365.539 553.607,335.769 554.949,324.266C555.373,320.635 555.635,317.017 555.928,313.376C556.028,312.143 556.711,307.926 556.711,307.926L548.107,314.686C548.107,314.686 551.572,294.185 554.243,285.127C555.418,281.144 557.869,275.867 557.68,275.615C557.507,275.384 554.819,277.348 554.612,277.486C551.791,279.367 543.863,284.917 543.863,284.917C543.863,284.917 548.8,268.719 551.424,263.702C551.644,263.282 553.946,257.687 553.946,257.687L539.098,266.455C539.098,266.455 546.344,246.42 548.879,239.54C549.039,239.106 551.903,232.686 551.903,232.686C551.903,232.686 547.299,233.507 546.54,233.72C541.088,235.243 535.569,236.717 530.199,238.507C529.793,238.642 523.737,240.726 523.737,240.726C523.737,240.726 527.014,234.852 527.545,234.003C531.764,227.251 535.565,220.201 539.849,213.506C540.264,212.857 544.917,207.308 544.712,206.794C544.566,206.429 540.387,207.64 540.067,207.719C534.848,209.001 518.896,212.995 518.896,212.995C518.896,212.995 527.867,197.1 531.363,192.042C532.296,190.693 536.262,186.203 536.215,186.156C536.096,186.037 532.266,187.832 531.994,187.93C528.15,189.314 524.267,190.676 520.55,192.379C520.133,192.57 517.466,194.337 517.068,194.098C516.848,193.966 519.008,191.224 519.179,191.019C521.326,188.443 527.736,181.099 527.577,180.782C527.439,180.505 522.089,182.502 521.67,182.664C516.958,184.492 502.588,191.313 502.588,191.313C502.588,191.313 509.896,183.309 512.14,181.065C512.343,180.863 515.438,177.966 515.425,177.954C515.101,177.629 509.168,180.456 508.604,180.641C500.894,183.174 493.012,185.391 485.584,188.702C485.013,188.957 477.751,192.858 477.751,192.858C477.751,192.858 487.594,182.297 491.078,178.813C491.939,177.952 495.798,175.298 495.212,175.005C493.839,174.319 487.377,177.721 486.096,178.226C476.451,182.025 466.723,185.644 457.201,189.747C453.9,191.169 442.412,196.513 442.412,196.513C442.412,196.513 458.983,181.042 458.289,180.695C456.871,179.986 425.36,195.403 415.599,202.867C411.944,205.662 408.156,207.963 404.144,210.199C403.231,210.708 399.516,213.362 399.655,213.239C399.655,213.239 396.638,210.708 395.726,210.199C391.713,207.963 387.925,205.662 384.27,202.867C374.51,195.403 342.998,179.986 341.58,180.695C340.886,181.042 357.457,196.513 357.457,196.513C357.457,196.513 345.969,191.169 342.668,189.747C333.147,185.644 323.418,182.025 313.774,178.226C312.492,177.721 306.03,174.319 304.657,175.005C304.071,175.298 307.93,177.952 308.791,178.813C312.275,182.297 322.118,192.858 322.118,192.858C322.118,192.858 314.856,188.957 314.285,188.702C306.857,185.391 298.975,183.174 291.265,180.641C290.701,180.456 284.768,177.629 284.444,177.954C284.432,177.966 287.527,180.863 287.729,181.065C289.973,183.309 297.281,191.313 297.281,191.313C297.281,191.313 282.911,184.492 278.199,182.664C277.78,182.502 272.43,180.505 272.292,180.782C272.133,181.099 278.544,188.443 280.69,191.019C280.861,191.224 283.021,193.966 282.801,194.098C282.403,194.337 279.736,192.57 279.32,192.379C275.602,190.676 271.719,189.314 267.875,187.93C267.603,187.832 263.773,186.037 263.654,186.156C263.607,186.203 267.573,190.693 268.506,192.042C272.002,197.1 280.973,212.995 280.973,212.995C280.973,212.995 265.022,209.001 259.803,207.719C259.482,207.64 255.303,206.429 255.157,206.794C254.952,207.308 259.605,212.857 260.02,213.506C264.305,220.201 268.105,227.251 272.324,234.003C272.856,234.852 276.132,240.726 276.132,240.726C276.132,240.726 270.076,238.642 269.67,238.507C264.301,236.717 258.781,235.243 253.33,233.72C252.57,233.507 247.966,232.686 247.966,232.686C247.966,232.686 250.831,239.106 250.991,239.54C253.525,246.42 260.771,266.455 260.771,266.455L245.923,257.687C245.923,257.687 248.225,263.282 248.445,263.702C251.069,268.719 256.006,284.917 256.006,284.917C256.006,284.917 248.078,279.367 245.257,277.486C245.05,277.348 242.363,275.384 242.189,275.615C242,275.867 244.452,281.144 245.626,285.127C248.297,294.185 251.762,314.686 251.762,314.686L243.158,307.926C243.158,307.926 243.841,312.143 243.941,313.376C244.235,317.017 244.496,320.635 244.92,324.266C246.262,335.769 245.495,346.721 243.375,358.089C242.792,361.216 241.742,368.654 241.623,368.595C241.099,368.332 238.063,352.043 237.239,346.536C233.943,324.502 227.667,303.069 223.521,281.207C218.404,254.228 214.712,225.429 222.798,198.582C240.062,141.267 289.682,104.538 344.734,88.451C360.662,83.797 381.534,78.687 399.935,78.687Z" />
                </clipPath>
                <g clip-path="url(#_clip3_hair1_base)">
                    <path d="M399.967,72.554C405.928,70.686 416.562,73.22 420.799,73.957C446.858,78.489 471.985,89.534 496.961,97.859C541.286,112.634 585.735,145.938 594.594,194.862C599.371,221.242 593.788,250.351 586.387,275.705C582.761,288.124 578.302,300.343 573.918,312.511C572.614,316.131 571.351,324.156 568.516,326.99C567.508,327.998 568.46,324.138 568.516,322.714C568.638,319.643 568.741,316.572 568.877,313.501C569.292,304.091 570.304,294.745 571.142,285.368C573.767,256.013 577.885,230.043 570.152,200.954C556.565,149.841 492.037,110.571 443.5,97.964C431.611,94.876 419.536,92.654 407.333,91.386L407.334,91.39L407.325,91.385L392.61,91.385L392.601,91.39L392.602,91.386C380.399,92.654 368.323,94.876 356.435,97.964C307.898,110.571 243.37,149.841 229.783,200.954C222.05,230.043 226.167,256.013 228.793,285.368C229.631,294.745 230.643,304.091 231.058,313.501C231.194,316.572 231.297,319.643 231.418,322.714C231.475,324.138 232.426,327.998 231.418,326.99C228.584,324.156 227.321,316.131 226.017,312.511C221.632,300.343 217.173,288.124 213.548,275.705C206.147,250.351 200.564,221.242 205.341,194.862C214.2,145.938 258.649,112.634 302.974,97.859C327.95,89.534 353.077,78.489 379.136,73.957C383.373,73.22 394.007,70.686 399.967,72.554Z" style="fill: rgb(252, 255, 216); fill-opacity: 0.6" />
                </g>
                <path d="M399.935,78.687C418.335,78.687 439.207,83.797 455.135,88.451C510.188,104.538 559.807,141.267 577.071,198.582C585.157,225.429 581.465,254.228 576.348,281.207C572.202,303.069 565.926,324.502 562.63,346.536C561.806,352.043 558.033,368.296 557.963,368.196C556.103,365.539 553.607,335.769 554.949,324.266C555.373,320.635 555.635,317.017 555.928,313.376C556.028,312.143 556.711,307.926 556.711,307.926L548.107,314.686C548.107,314.686 551.572,294.185 554.243,285.127C555.418,281.144 557.869,275.867 557.68,275.615C557.507,275.384 554.819,277.348 554.612,277.486C551.791,279.367 543.863,284.917 543.863,284.917C543.863,284.917 548.8,268.719 551.424,263.702C551.644,263.282 553.946,257.687 553.946,257.687L539.098,266.455C539.098,266.455 546.344,246.42 548.879,239.54C549.039,239.106 551.903,232.686 551.903,232.686C551.903,232.686 547.299,233.507 546.54,233.72C541.088,235.243 535.569,236.717 530.199,238.507C529.793,238.642 523.737,240.726 523.737,240.726C523.737,240.726 527.014,234.852 527.545,234.003C531.764,227.251 535.565,220.201 539.849,213.506C540.264,212.857 544.917,207.308 544.712,206.794C544.566,206.429 540.387,207.64 540.067,207.719C534.848,209.001 518.896,212.995 518.896,212.995C518.896,212.995 527.867,197.1 531.363,192.042C532.296,190.693 536.262,186.203 536.215,186.156C536.096,186.037 532.266,187.832 531.994,187.93C528.15,189.314 524.267,190.676 520.55,192.379C520.133,192.57 517.466,194.337 517.068,194.098C516.848,193.966 519.008,191.224 519.179,191.019C521.326,188.443 527.736,181.099 527.577,180.782C527.439,180.505 522.089,182.502 521.67,182.664C516.958,184.492 502.588,191.313 502.588,191.313C502.588,191.313 509.896,183.309 512.14,181.065C512.343,180.863 515.438,177.966 515.425,177.954C515.101,177.629 509.168,180.456 508.604,180.641C500.894,183.174 493.012,185.391 485.584,188.702C485.013,188.957 477.751,192.858 477.751,192.858C477.751,192.858 487.594,182.297 491.078,178.813C491.939,177.952 495.798,175.298 495.212,175.005C493.839,174.319 487.377,177.721 486.096,178.226C476.451,182.025 466.723,185.644 457.201,189.747C453.9,191.169 442.412,196.513 442.412,196.513C442.412,196.513 458.983,181.042 458.289,180.695C456.871,179.986 425.36,195.403 415.599,202.867C411.944,205.662 408.156,207.963 404.144,210.199C403.231,210.708 399.516,213.362 399.655,213.239C399.655,213.239 396.638,210.708 395.726,210.199C391.713,207.963 387.925,205.662 384.27,202.867C374.51,195.403 342.998,179.986 341.58,180.695C340.886,181.042 357.457,196.513 357.457,196.513C357.457,196.513 345.969,191.169 342.668,189.747C333.147,185.644 323.418,182.025 313.774,178.226C312.492,177.721 306.03,174.319 304.657,175.005C304.071,175.298 307.93,177.952 308.791,178.813C312.275,182.297 322.118,192.858 322.118,192.858C322.118,192.858 314.856,188.957 314.285,188.702C306.857,185.391 298.975,183.174 291.265,180.641C290.701,180.456 284.768,177.629 284.444,177.954C284.432,177.966 287.527,180.863 287.729,181.065C289.973,183.309 297.281,191.313 297.281,191.313C297.281,191.313 282.911,184.492 278.199,182.664C277.78,182.502 272.43,180.505 272.292,180.782C272.133,181.099 278.544,188.443 280.69,191.019C280.861,191.224 283.021,193.966 282.801,194.098C282.403,194.337 279.736,192.57 279.32,192.379C275.602,190.676 271.719,189.314 267.875,187.93C267.603,187.832 263.773,186.037 263.654,186.156C263.607,186.203 267.573,190.693 268.506,192.042C272.002,197.1 280.973,212.995 280.973,212.995C280.973,212.995 265.022,209.001 259.803,207.719C259.482,207.64 255.303,206.429 255.157,206.794C254.952,207.308 259.605,212.857 260.02,213.506C264.305,220.201 268.105,227.251 272.324,234.003C272.856,234.852 276.132,240.726 276.132,240.726C276.132,240.726 270.076,238.642 269.67,238.507C264.301,236.717 258.781,235.243 253.33,233.72C252.57,233.507 247.966,232.686 247.966,232.686C247.966,232.686 250.831,239.106 250.991,239.54C253.525,246.42 260.771,266.455 260.771,266.455L245.923,257.687C245.923,257.687 248.225,263.282 248.445,263.702C251.069,268.719 256.006,284.917 256.006,284.917C256.006,284.917 248.078,279.367 245.257,277.486C245.05,277.348 242.363,275.384 242.189,275.615C242,275.867 244.452,281.144 245.626,285.127C248.297,294.185 251.762,314.686 251.762,314.686L243.158,307.926C243.158,307.926 243.841,312.143 243.941,313.376C244.235,317.017 244.496,320.635 244.92,324.266C246.262,335.769 245.495,346.721 243.375,358.089C242.792,361.216 241.742,368.654 241.623,368.595C241.099,368.332 238.063,352.043 237.239,346.536C233.943,324.502 227.667,303.069 223.521,281.207C218.404,254.228 214.712,225.429 222.798,198.582C240.062,141.267 289.682,104.538 344.734,88.451C360.662,83.797 381.534,78.687 399.935,78.687Z" style="fill: none; stroke: black; stroke-width: 2.1px" />
            </g>
        </g>
    </g>
</svg>