<svg width="800px" height="800px" viewBox="0 0 800 800" version="1.1" xmlns="http://www.w3.org/2000/svg" style="fill-rule:evenodd;clip-rule:evenodd;stroke-linecap:round;stroke-linejoin:round;stroke-miterlimit:1.5;"><g id="Special-edition-card"><g id="bg" transform="matrix(0.858399,0,0,0.918415,41.5617,9.1444)"><rect x="-48.418" y="-9.957" width="931.967" height="871.066" style="fill:rgb(6,46,66);"/></g><g id="rectangles" transform="matrix(1,0,0,1,49.4291,64.1339)"><g opacity="0.5"><g transform="matrix(0.660629,0,0,1.04551,351.522,-81.058)"><rect x="462.47" y="633.282" width="419.335" height="322.449" style="fill:none;"/><clipPath id="special-edition_0"><rect x="462.47" y="633.282" width="419.335" height="322.449"/></clipPath><g clip-path="url(#special-edition_0)"><g transform="matrix(1.51371,0,0,0.956468,-452.99,37.369)"><path d="M604.78,633.282L877.032,634.306" style="fill:none;stroke:rgb(166,240,98);stroke-width:4px;stroke-dasharray:4.25,7.5,0,0;"/></g><g transform="matrix(1.51371,0,0,0.956468,-452.99,58.0423)"><path d="M604.78,633.282L877.032,634.306" style="fill:none;stroke:rgb(166,240,98);stroke-width:4px;stroke-dasharray:4.25,7.5,0,0;"/></g><g transform="matrix(1.51371,0,0,0.956468,-452.99,68.3789)"><path d="M604.78,633.282L877.032,634.306" style="fill:none;stroke:rgb(166,240,98);stroke-width:4px;stroke-dasharray:4.25,7.5,0,0;"/></g><g transform="matrix(1.51371,0,0,0.956468,-452.99,89.0522)"><path d="M604.78,633.282L877.032,634.306" style="fill:none;stroke:rgb(166,240,98);stroke-width:4px;stroke-dasharray:4.25,7.5,0,0;"/></g><g xtransform="matrix(1.51371,0,0,0.956468,-452.99,99.3888)"><path d="M604.78,633.282L877.032,634.306" style="fill:none;stroke:rgb(166,240,98);stroke-width:4px;stroke-dasharray:4.25,7.5,0,0;"/></g><g transform="matrix(1.51371,0,0,0.956468,-452.99,130.399)"><path d="M604.78,633.282L877.032,634.306" style="fill:none;stroke:rgb(166,240,98);stroke-width:4px;stroke-dasharray:4.25,7.5,0,0;"/></g><g transform="matrix(1.51371,0,0,0.956468,-452.99,151.072)"><path d="M604.78,633.282L877.032,634.306" style="fill:none;stroke:rgb(166,240,98);stroke-width:4px;stroke-dasharray:4.25,7.5,0,0;"/></g><g transform="matrix(1.51371,0,0,0.956468,-452.99,171.745)"><path d="M604.78,633.282L877.032,634.306" style="fill:none;stroke:rgb(166,240,98);stroke-width:4px;stroke-dasharray:4.25,7.5,0,0;"/></g></g><rect x="462.47" y="633.282" width="419.335" height="322.449" style="fill:none;stroke:rgb(166,240,98);stroke-width:4.57px;stroke-dasharray:4.86,8.58,0,0;"/></g><g transform="matrix(0.192707,0,0,1.04551,466.744,2.40586)"><rect x="462.47" y="633.282" width="419.335" height="322.449" style="fill:none;"/><clipPath id="special-edition_1"><rect x="462.47" y="633.282" width="419.335" height="322.449"/></clipPath><g clip-path="url(#special-edition_1)"><g transform="matrix(1.51371,0,0,0.956468,-452.99,37.369)"><path d="M604.78,633.282L877.032,634.306" style="fill:none;stroke:rgb(237,30,121);stroke-width:5.43px;stroke-dasharray:5.77,10.18,0,0;"/></g><g transform="matrix(1.51371,0,0,0.956468,-452.99,58.0423)"><path d="M604.78,633.282L877.032,634.306" style="fill:none;stroke:rgb(237,30,121);stroke-width:5.43px;stroke-dasharray:5.77,10.18,0,0;"/></g><g transform="matrix(1.51371,0,0,0.956468,-452.99,68.3789)"><path d="M604.78,633.282L877.032,634.306" style="fill:none;stroke:rgb(237,30,121);stroke-width:5.43px;stroke-dasharray:5.77,10.18,0,0;"/></g><g transform="matrix(1.51371,0,0,0.956468,-452.99,89.0522)"><path d="M604.78,633.282L877.032,634.306" style="fill:none;stroke:rgb(237,30,121);stroke-width:5.43px;stroke-dasharray:5.77,10.18,0,0;"/></g></g><rect x="462.47" y="633.282" width="419.335" height="322.449" style="fill:none;stroke:rgb(237,30,121);stroke-width:5.32px;stroke-dasharray:5.65,9.98,0,0;"/></g></g></g><g id="circles" opacity="0.5"><g transform="matrix(1,0,0,1,-118.853,-94.5905)"><circle cx="155.124" cy="124.814" r="124.814" style="fill:none;stroke:rgb(255,207,0);stroke-width:4px;stroke-dasharray:4.25,7.5,0,0;"/></g><g transform="matrix(0.928318,0,0,0.928318,-107.734,-85.6437)"><circle cx="155.124" cy="124.814" r="124.814" style="fill:none;stroke:rgb(255,207,0);stroke-width:4.31px;stroke-dasharray:4.58,8.08,0,0;"/></g><g transform="matrix(0.691272,0,0,0.691272,-70.9623,-56.0571)"><circle cx="155.124" cy="124.814" r="124.814" style="fill:none;stroke:rgb(255,108,0);stroke-width:5.79px;stroke-dasharray:6.15,10.85,0,0;"/></g></g><g transform="matrix(0.911866,0,0,0.911866,252.534,309.097)"><text x="190.763px" y="439.84px" style="font-family: 'Futura-Medium', 'Futura', sans-serif; font-weight: 500; font-size: 50px; fill: white" id="wear_value"></text></g><g transform="matrix(0.720342,0,0,0.720342,340.614,330.63)"><text x="77.471px" y="439.84px" style="font-family:'Futura-Medium', 'Futura', sans-serif;font-weight:500;font-size:50px;fill:white;">WEAR</text></g><a href="https://entrepot.app/marketplace/cronics" target="_blank"><g id="logo" transform="matrix(1,0,0,1,70,625) scale(0.25)"><g><g><g><linearGradient id="SVGID_1_" gradientUnits="userSpaceOnUse" x1="200.6935" y1="239.7638" x2="200.6935" y2="564.005" gradientTransform="matrix(1 0 0 -1 0 602)"><stop offset="0" style="stop-color:#001D37"/><stop offset="0.2048" style="stop-color:#002537"/><stop offset="0.5267" style="stop-color:#003C37"/><stop offset="0.9235" style="stop-color:#006037"/><stop offset="1" style="stop-color:#006837"/></linearGradient><path class="st0" fill="url(#SVGID_1_)" d="M191.9,39.1c-2.2,0.7-5.1,2-7.1,3.1c-1.8,1.1-34.5,33.4-72.9,72c-78,78-73.3,72.4-73.3,86.2                        s-4.5,8,73.7,86.4c79.1,79.1,74.6,75.3,88.5,75.3c14.7,0,9.8,4,88.5-74.6c55.3-55.3,69.7-70.2,71.3-74c1.8-4,2.2-6.2,2.2-13.4                        s-0.4-9.8-2.2-13.4c-1.8-3.8-16.3-18.9-71.3-74c-62.2-62.2-69.7-69.5-74.9-72C207.7,37.8,197.9,37.1,191.9,39.1z"/><linearGradient id="SVGID_00000032627298072131830170000006504364722110665119_" gradientUnits="userSpaceOnUse" x1="200.7058" y1="572" x2="200.7058" y2="232" gradientTransform="matrix(1 0 0 -1 0 602)"><stop offset="0" style="stop-color:#001D37"/><stop offset="0.2048" style="stop-color:#002537"/><stop offset="0.5267" style="stop-color:#003C37"/><stop offset="0.9235" style="stop-color:#006037"/><stop offset="1" style="stop-color:#006837"/></linearGradient><path style="fill:url(#SVGID_00000032627298072131830170000006504364722110665119_);" d="M199.9,38c4.9,0,10.2,1.1,14.3,3.1                        c5.1,2.5,12.7,9.8,74.9,72c55,55,69.7,70.2,71.3,74c1.8,3.8,2.2,6.2,2.2,13.4c0,7.4-0.4,9.6-2.2,13.4s-16,18.7-71.3,74                        c-71.3,71.3-73.7,74.6-84.7,74.6c-1.1,0-2.5,0-3.8,0c-1.3,0-2.5,0-3.3,0c-10.2,0-12.9-3.3-84.9-75.3                        c-78.2-78.7-73.7-72.9-73.7-86.7s-4.7-8.2,73.3-86.2c38.3-38.5,71.1-70.9,72.9-72c1.8-1.1,4.9-2.7,7.1-3.1                        C194.1,38.2,197,38,199.9,38 M199.9,30c-3.8,0-7.4,0.4-10.2,1.6c-3.8,1.1-7.8,3.3-8.9,4h-0.2h-0.2c-3.8,2.5-59.3,58.2-74,72.9                        l-13.8,13.8c-29.9,30.1-45,45.2-52.6,54.1c-8.5,10-9.4,14.5-9.1,22.1c0,0.7,0,1.3,0,2s0,1.3,0,2c-0.2,7.4,0.7,11.8,8.7,21.2                        c7.1,8.5,21.2,22.5,49,50.4c5.6,5.6,11.8,11.8,18.5,18.5l11.6,11.6c31,31,46.6,46.6,56.4,55c9.8,8.5,14.9,10.9,22.7,10.9                        c0.4,0,1.1,0,1.6,0s1.1,0,1.8,0s1.3,0,2,0c0.7,0,1.1,0,1.8,0c8,0,13.1-2.5,22.7-10.7s24.5-23.2,54.1-53l13.1-13.1                        c64.4-64.4,70.9-71.7,72.9-76.2c2.5-5.3,2.9-8.9,2.9-16.7c0-8-0.4-11.8-3.1-16.9c-2.2-4.7-8.9-12.3-72.9-76.2                        c-66.2-66.2-70.6-70.4-77.1-73.5C212.6,31.3,206.2,30,199.9,30L199.9,30z"/><path class="st2" opacity="0.1" fill="#FFFFFF" d="M349.2,177.9l-11.4-11.4l-25.6,25.6h-92.7l53.3-53.5c11.1,4.7,24.1-0.2,28.7-11.4c0.2-0.4,0.4-0.9,0.4-1.3                        c-3.3-3.3-7.1-7.1-10.9-10.9c1.3,3.6,0.4,7.6-2.2,10.5c-3.8,4-10,3.8-14,0c-1.8-1.8-2.7-4.5-2.7-6.9c-0.2-2.7,0.9-5.1,2.7-7.1                        c2.9-2.9,7.1-3.6,10.7-2.2c-4-4-7.8-7.8-11.4-11.4c-5.6,2-10.2,6-12.7,11.8c-2.5,5.6-2.5,11.8,0,17.4l-53.3,53.3v-88L233.6,67                        l-11.4-11.4L208,69.9V41.4h-15.4v28.3l-14.3-14.3L167,66.8l25.8,25.6v88.7l-53.3-53.5c4.7-11.1-0.2-24.1-11.1-28.7                        c-0.2,0-0.4-0.2-0.7-0.2c-3.3,3.3-6.9,6.9-10.5,10.5c3.3-0.9,6.9,0,9.4,2.7c3.8,4,3.8,10.2-0.2,14c-4,3.8-10,3.8-13.8,0                        c-2.7-2.7-3.6-6.2-2.7-9.4c-3.8,3.8-7.4,7.4-10.7,10.7c2,5.1,6,9.4,11.4,11.8c5.6,2.5,11.8,2.5,17.4,0l53.5,53.5H89l-25.6-25.6                        l-11.1,11.4l14.3,14.3H39.1c-0.7,2.5-0.4,4.7-0.4,8c0,3.1-0.2,5.3,0.4,7.8h27.4l-14.3,14.3l11.1,11.4L89,208h92.7l-53.3,53.5                        c-11.1-4.7-24.1,0.2-28.7,11.4c-0.2,0.2-0.2,0.4-0.2,0.9c3.3,3.3,6.9,6.9,10.5,10.5c-1.1-3.3-0.2-7.1,2.5-9.8                        c1.8-1.8,4.5-2.9,7.1-2.9c5.6,0,10,4.5,10,10c0,2.7-0.9,5.3-2.9,7.1c-2.7,2.7-6.5,3.6-10,2.5c4,4,7.6,7.6,11.1,11.1                        c5.3-2,9.8-6,12-11.6c2.5-5.6,2.5-11.8,0-17.4l53.5-53.5v88.7l-25.4,25.4l11.4,11.4l14.3-14.3v28.3h15.8V331l14.3,14.3l11.4-11.4                        l-26.1-25.6v-89.1l53.3,53.3c-4.9,10.9,0,24.1,11.1,28.7c0.7,0.2,1.1,0.4,1.8,0.7c3.8-3.8,7.6-7.6,11.8-11.8                        c-1.3,0.7-2.9,1.1-4.7,1.1c-5.6,0-10-4.5-10-10c0-5.6,4.5-10,10-10s10,4.5,10,10c0,1.8-0.4,3.3-1.1,4.7                        c4.2-4.2,8.2-8.2,11.8-11.8c-2-5.6-6-10.5-11.8-12.9c-5.6-2.7-11.8-2.7-17.6,0l-53.3-53.5h92.7l25.4,25.4l11.4-11.4l-14.3-14.3                        H363c0.2-1.8,0.2-4,0.2-7.4c0-3.8,0-6-0.4-8h-27.4L349.2,177.9z"/><g><g><g><linearGradient id="SVGID_00000175282120157342080540000014864819228809247363_" gradientUnits="userSpaceOnUse" x1="200.6089" y1="481.3185" x2="200.6089" y2="322.6815" gradientTransform="matrix(1 0 0 -1 0 602)"><stop offset="0" style="stop-color:#39B54A"/><stop offset="1" style="stop-color:#D9E021"/></linearGradient><path id="SVGID_00000111168901724193085610000003731207404949685684_" style="fill:url(#SVGID_00000175282120157342080540000014864819228809247363_);" d="                                    M200.6,124.7c41.7,0,75.3,33.6,75.3,75.3s-33.6,75.3-75.3,75.3s-75.3-33.6-75.3-75.3S159.2,124.7,200.6,124.7 M200.6,120.7                                    c-43.7,0-79.3,35.6-79.3,79.3s35.6,79.3,79.3,79.3s79.3-35.6,79.3-79.3S244.5,120.7,200.6,120.7L200.6,120.7z"/></g></g></g><g><g><g><linearGradient id="SVGID_00000145778042268540693350000016332868867080637837_" gradientUnits="userSpaceOnUse" x1="200.6089" y1="304.9032" x2="200.6089" y2="455.5192" gradientTransform="matrix(1 0 0 -1 0 602)"><stop offset="0" style="stop-color:#39B54A"/><stop offset="1" style="stop-color:#D9E021"/></linearGradient><circle id="SVGID_00000132800620935544219160000018157359996180826006_" style="fill:url(#SVGID_00000145778042268540693350000016332868867080637837_);" cx="200.6" cy="200.2" r="75.3"/></g></g></g><path class="st5" fill="#EDF790" d="M146,171.7c-2.2,0-4-1.8-4-4c0-0.7,0.2-1.3,0.7-2c9.6-16.3,25.6-27.9,44.1-31.6c2.2-0.7,4.5,0.9,4.7,2.9                        c0.7,2.2-0.9,4.5-2.9,4.7h-0.4c-16.3,3.6-30.3,13.6-38.8,28.1C148.7,171.3,147.6,171.7,146,171.7z"/></g><g><path class="st6" d="M215.1,224.1c-2,0-3.8,1.6-3.8,3.6c0,6.2-5.6,8.9-10.7,8.9s-10.7-2.9-10.7-8.9c0-2-1.6-3.6-3.8-3.6                        c-2,0-3.8,1.6-3.8,3.6c0,10.7,8.9,16.3,17.8,16.3s17.8-5.6,18-16.3C218.7,225.6,217.1,224.1,215.1,224.1z"/><path class="st7" fill="#FFFFFF" d="M176.1,201.6c-2.7,5.6-8.2,9.4-14.7,9.4c-8.9,0-16-7.1-16-16c0-2.5,0.4-4.9,1.3-6.7l-12.5-5.8                        c-6.9,14.9-0.4,32.8,14.5,39.7c14.9,6.9,32.8,0.4,39.7-14.5L176.1,201.6z"/><path class="st6" d="M161.4,210.9c6.5,0,12-3.8,14.7-9.4l-29.2-13.8c-0.9,2.2-1.3,4.2-1.3,6.7                        C145.1,203.8,152.5,210.9,161.4,210.9z"/><path class="st7" fill="#FFFFFF" d="M225.3,201.6c2.7,5.6,8.2,9.4,14.7,9.4c8.9,0,16-7.1,16-16c0-2.5-0.4-4.9-1.3-6.7l12.5-5.8                        c6.9,14.9,0.4,32.8-14.5,39.7c-14.9,6.9-32.8,0.4-39.7-14.5L225.3,201.6z"/><path class="st6" d="M240,210.9c-6.5,0-12-3.8-14.7-9.4l29.2-13.8c0.9,2.2,1.3,4.2,1.3,6.7C256.3,203.8,249,210.9,240,210.9z"/></g></g><g><path class="st8" fill="#11171D" d="M1165.5,209l-62.2,0.3l-0.8,17.2h-1.1v-42.1h1.6l0.5,14l61.7,0.3l4-88.1l-132.9,2.6v1.1l-58.5,1.9l-0.3-3.4			l-71.7,0.5l0.3,10.3l-5-10.1l-56.9-0.5V110L688,111.6l0.3,3.4l-133.7-4v-0.8l-15.1,0.3l0,0l0,0l-117.5,2.4l-1.3,173.6l132.9,1.3			v-1.6h64.6l-1.9-40.5l10.3,6.1V290H706v-4.8l122.8,1.1v0.5l83.4,0.5l-0.8-6.4l3.7,6.1l71.7,0.5v-0.8l56.9,1.1v-1.3l123.9,1.3			L1165.5,209z M488.1,226.2h-1.1v-42.1h1.6l0.5,14l51.1,0.3V209h-51.4L488.1,226.2z M625.8,170.9l-6.4,4.8h-9.5v-7.1l15.9,1.1			V170.9z M697,209.5l1.3,13.8l-12.2-10.9L697,209.5z M772.1,214l-10.1,0.3l1.9-34.4l9.5,0.5L772.1,214z"/><g><linearGradient id="SVGID_00000042001504362112041370000017465812186959476119_" gradientUnits="userSpaceOnUse" x1="487.9765" y1="319.7963" x2="487.9765" y2="484.1549" gradientTransform="matrix(1 0 0 -1 0 602)"><stop offset="0" style="stop-color:#39B54A"/><stop offset="1" style="stop-color:#D9E021"/></linearGradient><polygon style="fill:url(#SVGID_00000042001504362112041370000017465812186959476119_);" points="496.1,176.4 496.8,190.5 				543.4,190.7 546.9,118.2 430.1,120.6 429.1,278.6 545.8,279.9 543.7,216.9 496.6,216.9 495.5,233.9 479.4,234.4 479.4,176.7 							"/><linearGradient id="SVGID_00000049198736774385840320000013459229604645526432_" gradientUnits="userSpaceOnUse" x1="692.1971" y1="317.419" x2="692.1971" y2="484.5459" gradientTransform="matrix(1 0 0 -1 0 602)"><stop offset="0" style="stop-color:#39B54A"/><stop offset="1" style="stop-color:#D9E021"/></linearGradient><path style="fill:url(#SVGID_00000049198736774385840320000013459229604645526432_);" d="M697.5,123l-149.8-4.5l1.1,159.9h61.7				l-2.1-46.6l26.7,15.4v34.9h63.8v-47.9l-28.3-25.4l28.1-7.9l1.1-53.7L711,277.3l122.8,1.1l2.9-160.7L697,119L697.5,123z				 M633.7,174.9l-11.6,8.5h-19.9V160l31.5,2.4V174.9z M756.5,171.4l25.1,1.6l-1.9,48.4l-25.9,0.8L756.5,171.4z"/><linearGradient id="SVGID_00000140709417361227865290000004459155040160521390_" gradientUnits="userSpaceOnUse" x1="908.4619" y1="319.8289" x2="908.4619" y2="481.9901" gradientTransform="matrix(1 0 0 -1 0 602)"><stop offset="0" style="stop-color:#39B54A"/><stop offset="1" style="stop-color:#D9E021"/></linearGradient><path style="fill:url(#SVGID_00000140709417361227865290000004459155040160521390_);" d="M914.6,120.9l1.3,37.9l-18.8-37.6				l-54.5-0.5l-5,158.6l66.4,0.5l-5.3-44.7c2.1,4.8,4.5,9.5,6.6,14c6.4,13.8,11.4,24.6,13.5,28.1l1.6,2.6l59,0.5l-8.5-159.4				L914.6,120.9z"/><linearGradient id="SVGID_00000013189307901744852430000013808581248228066962_" gradientUnits="userSpaceOnUse" x1="1010.7708" y1="319.6928" x2="1010.7708" y2="480.8481" gradientTransform="matrix(1 0 0 -1 0 602)"><stop offset="0" style="stop-color:#39B54A"/><stop offset="1" style="stop-color:#D9E021"/></linearGradient><polygon style="fill:url(#SVGID_00000013189307901744852430000013808581248228066962_);" points="979.4,278.9 1036.6,279.9 				1042.1,121.6 980.5,123.5 			"/><linearGradient id="SVGID_00000061454958770209976590000012526550677083823797_" gradientUnits="userSpaceOnUse" x1="1102.359" y1="319.7963" x2="1102.359" y2="484.1549" gradientTransform="matrix(1 0 0 -1 0 602)"><stop offset="0" style="stop-color:#39B54A"/><stop offset="1" style="stop-color:#D9E021"/></linearGradient><polygon style="fill:url(#SVGID_00000061454958770209976590000012526550677083823797_);" points="1111,216.9 1109.9,233.9 				1093.8,234.4 1093.8,176.7 1110.7,176.4 1111.2,190.5 1158.1,190.7 1161.3,118.2 1044.5,120.6 1043.5,278.6 1160.2,279.9 				1158.1,216.9 			"/></g><linearGradient id="SVGID_00000102531066238825799480000017256952503124775297_" gradientUnits="userSpaceOnUse" x1="795.1678" y1="479.0294" x2="795.1678" y2="325.154" gradientTransform="matrix(1 0 0 -1 0 602)"><stop offset="0" style="stop-color:#39B54A"/><stop offset="1" style="stop-color:#D9E021"/></linearGradient><path style="fill:url(#SVGID_00000102531066238825799480000017256952503124775297_);" d="M474.1,171.4v68.3l26.5-1.1l0.8-16.7			h37.1l1.9,52.4l-106.1-1.1l1.1-148l106.1-2.1l-2.6,62.2h-36.8l-0.5-14H474.1z M693.5,197.1l-33.4,9.5l33.6,30.2v40.5h-53.7v-32.8			L602.5,223l2.4,50.6h-51.1L553,124.3l141.6,4.2L693.5,197.1z M639,157.6l-41.8-3.2v34.1h26.7l15.1-11.1			C639,177.5,639,157.6,639,157.6z M702.8,124.3l128.9-1.3l-2.9,150.4l-113-1.1L702.8,124.3z M748.3,227.8l36.5-1.1l2.1-58.5			l-35.5-2.1L748.3,227.8z M920.1,125.9l1.9,56.4l-28.1-55.9l-46.1-0.5l-4.5,148l55.3,0.3l-8.2-69.9c10.3,19.6,29.1,62.7,33.1,69.9			l50.6,0.3l-7.9-149L920.1,125.9z M984.7,273.9l47.1,0.8l5-147.7l-51.1,1.9L984.7,273.9z M1116,222.2l-0.8,16.7l-26.5,1.1v-68.3			l27.3-0.3l0.5,14h36.8l2.9-61.9l-106.1,2.1l-1.1,148l106.1,1.1l-1.9-52.4L1116,222.2z"/></g></g></g></a><g id="eye" transform="matrix(1,0,0,1,-1.77165,0)"><g transform="matrix(0.88044,0,0,0.88044,68.5829,70.2432)"><path d="M634.355,700.111C653.954,688.642 678.218,688.642 697.818,700.111C704.234,703.866 709.059,706.69 709.059,706.69C709.059,706.69 704.234,709.513 697.818,713.268C678.218,724.738 653.954,724.738 634.355,713.268C627.938,709.513 623.113,706.69 623.113,706.69C623.113,706.69 627.938,703.866 634.355,700.111Z" style="fill: white" /></g><circle cx="655.032" cy="692.441" r="13.365" style="fill: rgb(6, 46, 66)" /></g><g transform="matrix(0.720342,0,0,0.720342,520.614,330.63)"><text x="124.102px" y="439.84px" style="font-family:'Futura-Medium', 'Futura', sans-serif;font-weight:500;font-size:50px;fill:white;">SLOT</text></g><g transform="matrix(1,0,0,1,-7.69409,0)"><path d="M82.194,602.738L733.196,602.258C733.979,602.258 734.615,601.621 734.614,600.838C734.614,600.055 733.977,599.42 733.194,599.42L82.192,599.9C81.409,599.901 80.773,600.537 80.774,601.321C80.775,602.104 81.411,602.739 82.194,602.738Z" style="fill:white;"/></g><g transform="matrix(1,0,0,1,120.441,145.046)"><text x="58.825px" y="439.84px" style="font-family:'Futura-Medium', 'Futura', sans-serif;font-weight:500;font-size:50px;fill:white;">CRONIC EYEPATCH</text></g><path id="border" d="M800,801.235L800,-4.106L-0,-4.106L0,801.235L800,801.235ZM185.403,30.644L30.644,30.644C30.644,30.644 30.644,769.356 30.644,769.356C30.644,769.356 769.356,769.356 769.356,769.356L769.356,30.644L617.786,30.644L617.786,61.806L185.403,61.806L185.403,30.644Z" style="fill:rgb(26,142,191);"/><clipPath id="special-edition_2"><path id="border1" d="M800,801.235L800,-4.106L-0,-4.106L0,801.235L800,801.235ZM185.403,30.644L30.644,30.644C30.644,30.644 30.644,769.356 30.644,769.356C30.644,769.356 769.356,769.356 769.356,769.356L769.356,30.644L617.786,30.644L617.786,61.806L185.403,61.806L185.403,30.644Z"/></clipPath><g clip-path="url(#special-edition_2)"><g id="colored-stripes"><path d="M-20.207,409.943C-19.94,410.79 -10.765,413.79 -9.889,414.148C-3.234,416.869 1.005,421.661 4.781,427.607C13.398,441.177 2.788,452.423 5.99,466.146C7.837,474.062 18.022,470.449 20.213,476.624C23.399,485.604 9.889,515.865 8.688,527.117C8.255,531.176 7.366,545.724 15.247,543.387C27.383,539.788 37.737,517.915 43.564,508.267C63.834,474.703 82.537,440.216 102.081,406.233C109.326,393.636 128.169,360.94 132.329,374.044C138.005,391.923 110.689,438.227 101.965,452.982C69.62,507.692 33.606,560.15 0.525,614.417C-6.269,625.561 -22.872,663.759 -40.561,660.654C-59.412,657.345 -63.701,594.758 -64.889,580.972C-66.944,557.108 -67.587,533.211 -67.587,509.267L-20.207,409.943C-20.225,409.887 -20.204,409.841 -20.142,409.806L-20.207,409.943ZM515.357,178.011C532.645,153.084 558.109,136.361 565.489,104.482C569.935,85.275 552.403,61.361 563.337,44.708C572.351,30.981 593.489,23.497 607.679,17.124C641.91,1.75 676.324,-13.469 711.096,-27.578C738.606,-38.74 765.944,-49.344 795.861,-51.022C801.629,-51.346 819.88,-54.337 823.398,-47.301C827.402,-39.293 793.761,-23.707 788.639,-21.891C746.39,-6.914 699.641,1.259 661.51,26.137C637.639,41.711 674.884,65.026 678.512,84.212C684.067,113.595 648.028,126.816 625.75,132.706L515.357,178.011Z" style="fill:rgb(54,213,32);"/><path d="M-29.625,715.673C-28.115,711.763 -26.152,707.172 -25.941,706.673C-19.046,690.328 -10.29,674.9 -0.411,660.174C35.349,606.874 83.883,568.335 140.632,539.13C148.821,534.916 193.093,511.006 200.859,522.129C210.367,535.747 174.552,578.167 166.53,588.042C130.499,632.395 93.053,679.663 44.855,711.473C39.184,715.216 13.663,736.224 7.816,736.86C-0.852,737.802 10.085,700.983 11.991,683.308C12.131,682.012 12.612,678.892 10.595,678.761C2.94,678.261 -14.809,702.566 -29.625,715.673C-30.76,718.61 -31.64,721.162 -31.33,721.305L-31.314,721.311C-31.32,721.31 -31.325,721.308 -31.33,721.305L-35.164,720.094C-33.385,718.857 -31.53,717.358 -29.625,715.673ZM-35.164,720.094L-51.853,714.822C-49.316,725.921 -42.975,725.527 -35.164,720.094ZM745.009,104.92C746.943,87.473 770.86,73.558 778.515,57.865C780.854,53.07 775.054,23.79 780.567,24.307C790.056,25.197 805.599,35.345 848.006,20.837C875.462,11.444 874.275,21.341 902.894,15.922C904.64,15.591 913.618,13.753 913.331,17.697C911.332,45.193 803.393,67.69 781.136,84.177C772.336,90.695 755.509,252.334 725.158,169.56C722.374,161.965 720.49,153.922 718.906,146L745.009,104.92ZM718.354,39.687C716.986,39.846 716.134,37.488 715.683,36.54C708.846,22.177 737.486,13.323 745.886,11.868C786.818,4.777 723.444,44.6 715.324,47.607L718.354,39.687Z" style="fill:rgb(228,28,71);"/><path d="M629.617,333.809C629.634,333.684 645.162,331.599 646.115,331.366C661.796,327.53 677.028,321.749 691.904,315.54C713.408,306.564 738.575,290.157 762.396,289.397C785.926,288.646 809.406,302.101 832.849,295.698C855.993,289.377 882.321,261.128 907.291,266.716C924.342,270.532 914.871,294.44 907.453,302.667C890.834,321.101 865.71,325.626 842.211,328.002C816.934,330.558 791.27,330.674 766.255,335.476C732.864,341.885 699.301,368.574 664.784,364.572L629.617,333.809ZM731.98,243.249C731.234,243.002 735.594,239.393 735.862,239.154C739.016,236.345 741.953,233.286 744.837,230.203C753.221,221.24 759.013,210.712 764.423,199.772C773.689,181.034 783.493,124.827 798.949,117.457C810.746,111.833 864.18,109.175 851.801,133.121C842.721,150.686 825.067,160.201 812.642,174.331C804.374,183.735 802.837,196.597 794.765,206.081C772.61,232.113 743.865,253.721 719.916,278.374L731.98,243.249ZM-45.552,89.407C-43.997,90.974 -44.53,85.034 -43.378,83.15C-40.332,78.167 -35.533,74.56 -29.902,72.985C-17.753,69.587 8.46,81.037 12.049,77.909C25.159,66.485 13.147,42.391 24.982,31.437C40.123,17.424 77.896,14.803 64.019,-17.089C54.435,-39.116 22.098,-44.145 1.292,-44.661C-47.029,-45.86 -105.771,-42.886 -107.358,17.182L-45.552,89.407Z" style="fill:rgb(156,32,213);"/><path d="M-20.735,858.471C-21.48,858.128 -25.49,856.55 -25.037,855.634C-21.227,847.931 44.401,817.648 56.673,807.923C73.675,794.451 95.087,780.865 105.411,761.14C112.897,746.837 108.799,731.037 121.481,719.132C158.772,684.124 255.229,655.422 302.897,636.207C351.774,616.504 400.671,596.863 449.746,577.656C489.062,562.269 528.515,547.311 568.329,533.255C629.544,511.643 696.206,492.597 751.682,457.901C789.307,434.37 809.092,395.604 852.306,378.135C866.089,372.563 937.434,346.5 948.159,362.667C956.738,375.6 911.331,402.326 903.578,407.199C846.233,443.24 787.823,478.586 729.245,512.528C611.209,580.922 480.678,628.114 354.495,678.866C307.754,697.666 257.171,712.307 212.808,736.505C184.804,751.78 187.489,779.818 165.231,799.81C133.053,828.713 90.155,844.243 55.099,869.449L-20.735,858.471ZM-73.921,231.737C-73.802,231.449 -67.913,231.237 -67.384,231.046C-62.617,229.321 -58.316,225.984 -54.259,223.03C-40.759,213.199 -30.62,199.986 -20.751,186.673C26.96,122.316 68.407,39.646 138.957,-2.552C177.499,-25.605 217.56,-30.556 261.423,-28.95C265.21,-28.812 305.219,-28.152 302.788,-18.914C299.975,-8.225 272.763,1.042 264.609,5.623C230.635,24.713 198.326,46.373 167.46,70.164C131.456,97.916 97.598,128.51 65.357,160.534C26.908,198.723 -8.816,239.874 -42.747,282.104C-50.478,291.727 -68.177,321.577 -83.821,319.597L-73.921,231.737Z" style="fill:rgb(212,27,152);"/><path d="M173.053,834.823C171.95,834.905 184.066,822.532 186.122,820.547C195.887,811.121 206.262,801.915 213.947,790.643C232.002,764.163 279.547,788.393 306.853,780.109C346.593,768.053 371.609,726.372 407.054,706.807C412.545,703.775 443.757,687.035 449.225,695.995C454.353,704.399 398.794,746.021 391.602,751.192C363.318,771.525 334.116,790.45 306.202,811.322C285.814,826.567 266.341,847.179 241.936,855.935C226.095,861.619 208.28,861.417 191.657,861.699L173.053,834.823ZM824.487,487.222C816.86,489.484 807.855,497.777 801.547,502.463C765.26,529.42 792.72,549 779.394,585.276C768.708,614.367 735.502,639.705 712.035,657.667C649.125,705.818 582.848,717.596 506.245,725.694C452.855,731.338 432.107,763.421 403.993,804.499C403.819,804.754 370.265,851.519 385.724,854.518C391.89,855.715 470.962,773.22 491.037,764.608C601.71,717.131 740.088,712.076 812.577,602.975C834.125,570.544 857.755,525.166 843.839,485.157L824.487,487.222ZM14.999,259.674L14.828,261.858C14.828,261.187 14.887,260.452 14.999,259.674L15.027,259.32C7.708,253.414 -9.759,262.942 -10.29,271.801C-10.875,281.547 27.078,304.302 34.528,301.164C38.442,299.516 38.976,291.114 39.436,287.675C40.96,276.277 41.417,256.668 34.772,246.636C26.085,233.52 16.393,249.992 14.999,259.674Z" style="fill:rgb(251,176,59);"/><path d="M634.246,822.23C633.241,819.817 638.24,812.767 639.318,810.679C664.811,761.311 719.305,755.69 759.335,722.975C777.638,708.016 845.82,603.905 871.161,618.476C885.713,626.843 855.43,658.979 850.515,665.32C831.337,690.059 812.577,715.943 789.505,737.27C775.652,750.077 752.073,761.441 741.782,777.52C734.434,789.003 814.225,823.189 797.223,843.446C784.857,858.18 699.632,859.774 679.471,861.715L634.246,822.23ZM546.853,855.392C533.08,851.205 551.452,783.859 559.308,775.615C571.6,762.718 588.639,755.336 605.143,749.482C622.053,743.484 640.067,738.501 657.799,735.626C658.166,735.566 661.931,734.8 661.886,735.756C661.821,737.116 624.897,752.436 602,766.904C568.585,788.018 577.563,806.7 558.869,831.626L546.853,855.392ZM-32.327,361.596C-34.281,353.339 -3.617,326.673 5.176,328.609C14.427,330.646 2.087,372.399 15.48,358.007C23.012,349.913 28.848,340.577 37.296,333.284C63.38,310.764 97.333,296.448 126.886,279.104C127.382,278.813 127.879,278.524 128.375,278.232C129.341,277.663 130.307,277.095 131.27,276.522C131.744,276.241 132.216,275.957 132.689,275.674C133.155,275.395 133.621,275.117 134.085,274.836C134.543,274.559 135,274.279 135.457,273.999C135.911,273.721 136.364,273.44 136.818,273.162C144.922,268.188 156.517,257.901 166.507,257.346C166.855,257.327 167.341,257.325 167.472,257.73C169.027,262.55 127.413,298.643 122.723,302.583C80.461,338.094 29.664,366.626 -6.243,409.117C-16.575,421.343 -29.147,456.833 -47.748,439.516L-32.327,361.596ZM279.203,114.091C278.822,112.222 298.866,100.337 300.741,98.731C314.06,87.316 325.763,73.974 335.028,59.074C350.695,33.879 365.308,-6.422 384.424,-27.008C422.5,-68.014 497.417,-76.451 549.789,-82.549C565.866,-84.42 630.384,-93.908 642.648,-81.979C651.852,-73.025 612.148,-49.834 606.958,-46.847C582.447,-32.744 556.919,-18.696 530.671,-8.064C508.828,0.784 483.807,4.392 464.897,19.438C417.518,57.138 539.29,86.425 484.411,112.622C464.347,122.2 438.371,121.909 416.695,124.158C374.846,128.5 329.926,131.608 289.624,144.335L279.203,114.091Z" style="fill:rgb(241,90,36);"/></g><g id="stars"><path d="M9.013,12.851L9.007,12.84C9.007,12.84 9.131,13.703 9.241,14.496C9.889,19.178 11.484,31.046 11.505,31.358C11.677,33.933 13.906,35.884 16.481,35.712C19.055,35.54 21.006,33.311 20.834,30.736C20.813,30.412 19.176,18.079 18.503,13.215C18.067,10.064 16.64,8.4 16.615,8.379C14.644,6.713 11.692,6.96 10.026,8.93C9.073,10.058 8.746,11.506 9.013,12.851Z" style="fill:white;"/><g transform="matrix(0.940885,0.338725,-0.338725,0.940885,95.2913,-23.19)"><path d="M9.013,12.851L9.007,12.84C9.007,12.84 9.131,13.703 9.241,14.496C9.889,19.178 11.484,31.046 11.505,31.358C11.677,33.933 13.906,35.884 16.481,35.712C19.055,35.54 21.006,33.311 20.834,30.736C20.813,30.412 19.176,18.079 18.503,13.215C18.067,10.064 16.64,8.4 16.615,8.379C14.644,6.713 11.692,6.96 10.026,8.93C9.073,10.058 8.746,11.506 9.013,12.851Z" style="fill:white;"/></g><g transform="matrix(0.932589,-0.360939,0.360939,0.932589,161.648,0.292536)"><path d="M9.013,12.851L9.007,12.84C9.007,12.84 9.131,13.703 9.241,14.496C9.889,19.178 11.484,31.046 11.505,31.358C11.677,33.933 13.906,35.884 16.481,35.712C19.055,35.54 21.006,33.311 20.834,30.736C20.813,30.412 19.176,18.079 18.503,13.215C18.067,10.064 16.64,8.4 16.615,8.379C14.644,6.713 11.692,6.96 10.026,8.93C9.073,10.058 8.746,11.506 9.013,12.851Z" style="fill:white;"/></g><g transform="matrix(0.91286,0.408273,-0.408273,0.91286,342.82,31.5151)"><path d="M9.013,12.851L9.007,12.84C9.007,12.84 9.131,13.703 9.241,14.496C9.889,19.178 11.484,31.046 11.505,31.358C11.677,33.933 13.906,35.884 16.481,35.712C19.055,35.54 21.006,33.311 20.834,30.736C20.813,30.412 19.176,18.079 18.503,13.215C18.067,10.064 16.64,8.4 16.615,8.379C14.644,6.713 11.692,6.96 10.026,8.93C9.073,10.058 8.746,11.506 9.013,12.851Z" style="fill:white;"/></g><g transform="matrix(0.724761,0.689001,-0.689001,0.724761,517.805,-21.0503)"><path d="M9.013,12.851L9.007,12.84C9.007,12.84 9.131,13.703 9.241,14.496C9.889,19.178 11.484,31.046 11.505,31.358C11.677,33.933 13.906,35.884 16.481,35.712C19.055,35.54 21.006,33.311 20.834,30.736C20.813,30.412 19.176,18.079 18.503,13.215C18.067,10.064 16.64,8.4 16.615,8.379C14.644,6.713 11.692,6.96 10.026,8.93C9.073,10.058 8.746,11.506 9.013,12.851Z" style="fill:white;"/></g><g transform="matrix(0.937843,0.34706,-0.34706,0.937843,632.138,0.182994)"><path d="M9.013,12.851L9.007,12.84C9.007,12.84 9.131,13.703 9.241,14.496C9.889,19.178 11.484,31.046 11.505,31.358C11.677,33.933 13.906,35.884 16.481,35.712C19.055,35.54 21.006,33.311 20.834,30.736C20.813,30.412 19.176,18.079 18.503,13.215C18.067,10.064 16.64,8.4 16.615,8.379C14.644,6.713 11.692,6.96 10.026,8.93C9.073,10.058 8.746,11.506 9.013,12.851Z" style="fill:white;"/></g><g transform="matrix(0.998687,-0.0512181,0.0512181,0.998687,753.833,-6.96134)"><path d="M9.013,12.851L9.007,12.84C9.007,12.84 9.131,13.703 9.241,14.496C9.889,19.178 11.484,31.046 11.505,31.358C11.677,33.933 13.906,35.884 16.481,35.712C19.055,35.54 21.006,33.311 20.834,30.736C20.813,30.412 19.176,18.079 18.503,13.215C18.067,10.064 16.64,8.4 16.615,8.379C14.644,6.713 11.692,6.96 10.026,8.93C9.073,10.058 8.746,11.506 9.013,12.851Z" style="fill:white;"/></g><g transform="matrix(0.969949,-0.243307,0.243307,0.969949,-19.6664,59.5857)"><path d="M9.013,12.851L9.007,12.84C9.007,12.84 9.131,13.703 9.241,14.496C9.889,19.178 11.484,31.046 11.505,31.358C11.677,33.933 13.906,35.884 16.481,35.712C19.055,35.54 21.006,33.311 20.834,30.736C20.813,30.412 19.176,18.079 18.503,13.215C18.067,10.064 16.64,8.4 16.615,8.379C14.644,6.713 11.692,6.96 10.026,8.93C9.073,10.058 8.746,11.506 9.013,12.851Z" style="fill:white;"/></g><g transform="matrix(0.997736,-0.0672533,0.0672533,0.997736,1.80044,112.999)"><path d="M9.013,12.851L9.007,12.84C9.007,12.84 9.131,13.703 9.241,14.496C9.889,19.178 11.484,31.046 11.505,31.358C11.677,33.933 13.906,35.884 16.481,35.712C19.055,35.54 21.006,33.311 20.834,30.736C20.813,30.412 19.176,18.079 18.503,13.215C18.067,10.064 16.64,8.4 16.615,8.379C14.644,6.713 11.692,6.96 10.026,8.93C9.073,10.058 8.746,11.506 9.013,12.851Z" style="fill:white;"/></g><g transform="matrix(0.993827,0.110937,-0.110937,0.993827,-8.61556,231.232)"><path d="M9.013,12.851L9.007,12.84C9.007,12.84 9.131,13.703 9.241,14.496C9.889,19.178 11.484,31.046 11.505,31.358C11.677,33.933 13.906,35.884 16.481,35.712C19.055,35.54 21.006,33.311 20.834,30.736C20.813,30.412 19.176,18.079 18.503,13.215C18.067,10.064 16.64,8.4 16.615,8.379C14.644,6.713 11.692,6.96 10.026,8.93C9.073,10.058 8.746,11.506 9.013,12.851Z" style="fill:white;"/></g><g transform="matrix(0.958348,0.285603,-0.285603,0.958348,11.8981,324.883)"><path d="M9.013,12.851L9.007,12.84C9.007,12.84 9.131,13.703 9.241,14.496C9.889,19.178 11.484,31.046 11.505,31.358C11.677,33.933 13.906,35.884 16.481,35.712C19.055,35.54 21.006,33.311 20.834,30.736C20.813,30.412 19.176,18.079 18.503,13.215C18.067,10.064 16.64,8.4 16.615,8.379C14.644,6.713 11.692,6.96 10.026,8.93C9.073,10.058 8.746,11.506 9.013,12.851Z" style="fill:white;"/></g><g transform="matrix(0.958154,-0.286253,0.286253,0.958154,-10.784,435.341)"><path d="M9.013,12.851L9.007,12.84C9.007,12.84 9.131,13.703 9.241,14.496C9.889,19.178 11.484,31.046 11.505,31.358C11.677,33.933 13.906,35.884 16.481,35.712C19.055,35.54 21.006,33.311 20.834,30.736C20.813,30.412 19.176,18.079 18.503,13.215C18.067,10.064 16.64,8.4 16.615,8.379C14.644,6.713 11.692,6.96 10.026,8.93C9.073,10.058 8.746,11.506 9.013,12.851Z" style="fill:white;"/></g><g transform="matrix(0.952045,0.305958,-0.305958,0.952045,10.9351,559.016)"><path d="M9.013,12.851L9.007,12.84C9.007,12.84 9.131,13.703 9.241,14.496C9.889,19.178 11.484,31.046 11.505,31.358C11.677,33.933 13.906,35.884 16.481,35.712C19.055,35.54 21.006,33.311 20.834,30.736C20.813,30.412 19.176,18.079 18.503,13.215C18.067,10.064 16.64,8.4 16.615,8.379C14.644,6.713 11.692,6.96 10.026,8.93C9.073,10.058 8.746,11.506 9.013,12.851Z" style="fill:white;"/></g><g transform="matrix(0.951548,-0.307501,0.307501,0.951548,-2.67699,696.127)"><path d="M9.013,12.851L9.007,12.84C9.007,12.84 9.131,13.703 9.241,14.496C9.889,19.178 11.484,31.046 11.505,31.358C11.677,33.933 13.906,35.884 16.481,35.712C19.055,35.54 21.006,33.311 20.834,30.736C20.813,30.412 19.176,18.079 18.503,13.215C18.067,10.064 16.64,8.4 16.615,8.379C14.644,6.713 11.692,6.96 10.026,8.93C9.073,10.058 8.746,11.506 9.013,12.851Z" style="fill:white;"/></g><g transform="matrix(0.959496,0.281724,-0.281724,0.959496,13.7222,769.38)"><path d="M20.617,29.608L20.58,29.204C20.002,25.185 18.595,14.612 18.243,11.435C17.959,8.87 15.647,7.018 13.082,7.302C10.518,7.586 8.666,9.898 8.95,12.463C9.307,15.694 10.737,26.446 11.325,30.534C12.969,41.979 21.541,37.463 20.819,30.561C20.785,30.231 20.716,29.912 20.617,29.608Z" style="fill:white;"/></g><g transform="matrix(0.993339,-0.115224,0.115224,0.993339,141.97,762.958)"><path d="M20.617,29.608L20.58,29.204C20.002,25.185 18.595,14.612 18.243,11.435C17.959,8.87 15.647,7.018 13.082,7.302C10.518,7.586 8.666,9.898 8.95,12.463C9.307,15.694 10.737,26.446 11.325,30.534C12.969,41.979 21.541,37.463 20.819,30.561C20.785,30.231 20.716,29.912 20.617,29.608Z" style="fill:white;"/></g><g transform="matrix(0.969304,0.245865,-0.245865,0.969304,329.307,764.201)"><path d="M20.617,29.608L20.58,29.204C20.002,25.185 18.595,14.612 18.243,11.435C17.959,8.87 15.647,7.018 13.082,7.302C10.518,7.586 8.666,9.898 8.95,12.463C9.307,15.694 10.737,26.446 11.325,30.534C12.969,41.979 21.541,37.463 20.819,30.561C20.785,30.231 20.716,29.912 20.617,29.608Z" style="fill:white;"/></g><g transform="matrix(0.953151,-0.302495,0.302495,0.953151,503.057,753.98)"><path d="M20.617,29.608L20.58,29.204C20.002,25.185 18.595,14.612 18.243,11.435C17.959,8.87 15.647,7.018 13.082,7.302C10.518,7.586 8.666,9.898 8.95,12.463C9.307,15.694 10.737,26.446 11.325,30.534C12.969,41.979 21.541,37.463 20.819,30.561C20.785,30.231 20.716,29.912 20.617,29.608Z" style="fill:white;"/></g><g transform="matrix(0.650139,-0.759815,0.759815,0.650139,658.11,782.278)"><path d="M20.617,29.608L20.58,29.204C20.002,25.185 18.595,14.612 18.243,11.435C17.959,8.87 15.647,7.018 13.082,7.302C10.518,7.586 8.666,9.898 8.95,12.463C9.307,15.694 10.737,26.446 11.325,30.534C12.969,41.979 21.541,37.463 20.819,30.561C20.785,30.231 20.716,29.912 20.617,29.608Z" style="fill:white;"/></g><g transform="matrix(0.333446,-1.15492,0.960758,0.277387,760.504,783.561)"><path d="M20.26,29.464L20.19,28.991C19.614,24.984 18.209,14.437 17.859,11.267C17.546,8.439 15.382,6.449 13.03,6.825C10.677,7.201 9.021,9.802 9.334,12.63C9.692,15.871 11.127,26.654 11.715,30.75C13.519,43.311 21.229,37.981 20.436,30.402C20.402,30.077 20.344,29.763 20.26,29.464ZM11.88,31.326C11.882,31.439 11.889,31.561 11.903,31.692L11.88,31.326Z" style="fill:white;"/></g><g transform="matrix(-0.525567,-1.08112,0.89936,-0.437209,776.329,714.725)"><path d="M20.26,29.464L20.19,28.991C19.614,24.984 18.209,14.437 17.859,11.267C17.546,8.439 15.382,6.449 13.03,6.825C10.677,7.201 9.021,9.802 9.334,12.63C9.692,15.871 11.127,26.654 11.715,30.75C13.519,43.311 21.229,37.981 20.436,30.402C20.402,30.077 20.344,29.763 20.26,29.464ZM11.88,31.326C11.882,31.439 11.889,31.561 11.903,31.692L11.88,31.326Z" style="fill:white;"/></g><g transform="matrix(-1.11422,-0.451164,0.375315,-0.926897,788.039,576.86)"><path d="M20.26,29.464L20.19,28.991C19.614,24.984 18.209,14.437 17.859,11.267C17.546,8.439 15.382,6.449 13.03,6.825C10.677,7.201 9.021,9.802 9.334,12.63C9.692,15.871 11.127,26.654 11.715,30.75C13.519,43.311 21.229,37.981 20.436,30.402C20.402,30.077 20.344,29.763 20.26,29.464ZM11.88,31.326C11.882,31.439 11.889,31.561 11.903,31.692L11.88,31.326Z" style="fill:white;"/></g><g transform="matrix(-1.1297,0.410875,-0.341799,-0.939773,813.475,440.054)"><path d="M20.26,29.464L20.19,28.991C19.614,24.984 18.209,14.437 17.859,11.267C17.546,8.439 15.382,6.449 13.03,6.825C10.677,7.201 9.021,9.802 9.334,12.63C9.692,15.871 11.127,26.654 11.715,30.75C13.519,43.311 21.229,37.981 20.436,30.402C20.402,30.077 20.344,29.763 20.26,29.464ZM11.88,31.326C11.882,31.439 11.889,31.561 11.903,31.692L11.88,31.326Z" style="fill:white;"/></g><g transform="matrix(-0.564038,1.06155,-0.883085,-0.469213,813.731,284.393)"><path d="M20.26,29.464L20.19,28.991C19.614,24.984 18.209,14.437 17.859,11.267C17.546,8.439 15.382,6.449 13.03,6.825C10.677,7.201 9.021,9.802 9.334,12.63C9.692,15.871 11.127,26.654 11.715,30.75C13.519,43.311 21.229,37.981 20.436,30.402C20.402,30.077 20.344,29.763 20.26,29.464ZM11.88,31.326C11.882,31.439 11.889,31.561 11.903,31.692L11.88,31.326Z" style="fill:white;"/></g><g transform="matrix(0.291771,1.16615,-0.970097,0.242719,810.146,158.82)"><path d="M20.26,29.464L20.19,28.991C19.614,24.984 18.209,14.437 17.859,11.267C17.546,8.439 15.382,6.449 13.03,6.825C10.677,7.201 9.021,9.802 9.334,12.63C9.692,15.871 11.127,26.654 11.715,30.75C13.519,43.311 21.229,37.981 20.436,30.402C20.402,30.077 20.344,29.763 20.26,29.464ZM11.88,31.326C11.882,31.439 11.889,31.561 11.903,31.692L11.88,31.326Z" style="fill:white;"/></g><g transform="matrix(0.997488,0.670857,-0.558073,0.829792,779.929,57.3621)"><path d="M20.26,29.464L20.19,28.991C19.614,24.984 18.209,14.437 17.859,11.267C17.546,8.439 15.382,6.449 13.03,6.825C10.677,7.201 9.021,9.802 9.334,12.63C9.692,15.871 11.127,26.654 11.715,30.75C13.519,43.311 21.229,37.981 20.436,30.402C20.402,30.077 20.344,29.763 20.26,29.464ZM11.88,31.326C11.882,31.439 11.889,31.561 11.903,31.692L11.88,31.326Z" style="fill:white;"/></g></g></g><g id="Special-edition-text" transform="matrix(1,0,0,1,-69.7386,-2.65748)"><path d="M289.551,20.996L284.936,23.73C284.074,22.233 283.252,21.256 282.47,20.801C281.657,20.28 280.607,20.019 279.321,20.019C277.742,20.019 276.432,20.467 275.39,21.362C274.349,22.241 273.828,23.348 273.828,24.683C273.828,26.522 275.195,28.003 277.929,29.126L281.689,30.664C284.749,31.901 286.987,33.411 288.403,35.193C289.819,36.975 290.527,39.16 290.527,41.748C290.527,45.215 289.372,48.079 287.06,50.342C284.733,52.62 281.844,53.76 278.393,53.76C275.122,53.76 272.42,52.791 270.288,50.854C268.188,48.918 266.878,46.191 266.357,42.676L272.119,41.406C272.379,43.62 272.835,45.15 273.486,45.996C274.658,47.624 276.367,48.437 278.613,48.437C280.387,48.437 281.86,47.843 283.032,46.655C284.204,45.467 284.79,43.962 284.79,42.139C284.79,41.406 284.688,40.735 284.485,40.124C284.281,39.514 283.964,38.953 283.533,38.44C283.101,37.927 282.544,37.447 281.86,36.999C281.177,36.552 280.363,36.125 279.419,35.718L275.781,34.204C270.622,32.023 268.042,28.833 268.042,24.634C268.042,21.802 269.124,19.434 271.289,17.529C273.454,15.609 276.147,14.648 279.37,14.648C283.716,14.648 287.109,16.764 289.551,20.996Z" style="fill:white;fill-rule:nonzero;"/><path d="M290.57,22.717C291.513,22.158 291.83,20.945 291.283,19.997C288.435,15.06 284.44,12.648 279.37,12.648C275.616,12.648 272.487,13.794 269.965,16.03C267.345,18.336 266.042,21.206 266.042,24.634C266.042,29.584 268.92,33.475 275.002,36.046L278.637,37.559C279.459,37.913 280.169,38.283 280.765,38.673C281.268,39.002 281.684,39.35 282.002,39.727C282.266,40.041 282.463,40.383 282.587,40.757C282.727,41.175 282.79,41.637 282.79,42.139C282.79,43.391 282.413,44.435 281.608,45.251C280.816,46.054 279.813,46.437 278.613,46.437C277.088,46.437 275.905,45.933 275.109,44.827C275.097,44.81 275.084,44.793 275.071,44.777C274.564,44.117 274.308,42.897 274.105,41.173C274.039,40.611 273.739,40.104 273.278,39.777C272.818,39.449 272.24,39.331 271.689,39.453L265.927,40.723C264.901,40.949 264.225,41.93 264.379,42.969C264.976,47 266.524,50.104 268.932,52.324C268.936,52.328 268.939,52.331 268.943,52.335C271.432,54.596 274.574,55.76 278.393,55.76C282.403,55.76 285.754,54.419 288.459,51.771C291.157,49.13 292.527,45.795 292.527,41.748C292.527,38.665 291.656,36.072 289.969,33.949C288.376,31.944 285.886,30.204 282.445,28.812C282.445,28.812 278.689,27.276 278.689,27.276C276.943,26.559 275.828,25.857 275.828,24.683C275.828,23.961 276.117,23.366 276.68,22.891C276.685,22.887 276.689,22.883 276.694,22.879C277.387,22.283 278.27,22.019 279.321,22.019C280.162,22.019 280.86,22.145 281.392,22.485C281.416,22.5 281.439,22.514 281.463,22.528C282.035,22.862 282.571,23.632 283.203,24.729C283.47,25.192 283.912,25.529 284.429,25.665C284.946,25.801 285.496,25.724 285.956,25.451L290.57,22.717ZM289.551,20.996L284.936,23.73C284.074,22.233 283.252,21.256 282.47,20.801C281.657,20.28 280.607,20.019 279.321,20.019C277.742,20.019 276.432,20.467 275.39,21.362C274.349,22.241 273.828,23.348 273.828,24.683C273.828,26.522 275.195,28.003 277.929,29.126L281.689,30.664C284.749,31.901 286.987,33.411 288.403,35.193C289.819,36.975 290.527,39.16 290.527,41.748C290.527,45.215 289.372,48.079 287.06,50.342C284.733,52.62 281.844,53.76 278.393,53.76C275.122,53.76 272.42,52.791 270.288,50.854C268.188,48.918 266.878,46.191 266.357,42.676L272.119,41.406C272.379,43.62 272.835,45.15 273.486,45.996C274.658,47.624 276.367,48.437 278.613,48.437C280.387,48.437 281.86,47.843 283.032,46.655C284.204,45.467 284.79,43.962 284.79,42.139C284.79,41.406 284.688,40.735 284.485,40.124C284.281,39.514 283.964,38.953 283.533,38.44C283.101,37.927 282.544,37.447 281.86,36.999C281.177,36.552 280.363,36.125 279.419,35.718L275.781,34.204C270.622,32.023 268.042,28.833 268.042,24.634C268.042,21.802 269.124,19.434 271.289,17.529C273.454,15.609 276.147,14.648 279.37,14.648C283.716,14.648 287.109,16.764 289.551,20.996Z" style="fill:rgb(6,46,66);"/><path d="M303.076,37.769L303.076,53.076L297.387,53.076L297.387,15.381L303.833,15.381C306.99,15.381 309.375,15.601 310.986,16.04C312.614,16.479 314.046,17.31 315.283,18.53C317.448,20.646 318.53,23.315 318.53,26.538C318.53,29.989 317.374,32.723 315.063,34.741C312.752,36.759 309.635,37.769 305.713,37.769L303.076,37.769ZM303.076,32.495L305.2,32.495C310.425,32.495 313.037,30.485 313.037,26.465C313.037,22.575 310.343,20.63 304.956,20.63L303.076,20.63L303.076,32.495Z" style="fill:white;fill-rule:nonzero;"/><path d="M305.076,39.769L305.713,39.769C310.195,39.769 313.737,38.554 316.379,36.248C319.119,33.855 320.53,30.629 320.53,26.538C320.53,22.737 319.234,19.596 316.681,17.1C315.198,15.636 313.47,14.639 311.51,14.11C309.779,13.638 307.222,13.381 303.833,13.381C303.833,13.381 297.387,13.381 297.387,13.381C296.283,13.381 295.387,14.276 295.387,15.381L295.387,53.076C295.387,54.181 296.283,55.076 297.387,55.076L303.076,55.076C304.181,55.076 305.076,54.181 305.076,53.076L305.076,39.769ZM303.076,37.769L303.076,53.076L297.387,53.076L297.387,15.381L303.833,15.381C306.99,15.381 309.375,15.601 310.986,16.04C312.614,16.479 314.046,17.31 315.283,18.53C317.448,20.646 318.53,23.315 318.53,26.538C318.53,29.989 317.374,32.723 315.063,34.741C312.752,36.759 309.635,37.769 305.713,37.769L303.076,37.769ZM303.076,32.495L305.2,32.495C310.425,32.495 313.037,30.485 313.037,26.465C313.037,22.575 310.343,20.63 304.956,20.63L303.076,20.63L303.076,32.495ZM305.076,22.631C307.522,22.642 309.287,23.018 310.274,24.087C310.819,24.677 311.037,25.482 311.037,26.465C311.037,27.52 310.82,28.382 310.271,29.015C309.316,30.118 307.589,30.495 305.2,30.495L305.076,30.495L305.076,22.631Z" style="fill:rgb(6,46,66);"/><path d="M345.19,20.727L330.078,20.727L330.078,29.785L344.751,29.785L344.751,35.132L330.078,35.132L330.078,47.729L345.19,47.729L345.19,53.076L324.389,53.076L324.389,15.381L345.19,15.381L345.19,20.727Z" style="fill:white;fill-rule:nonzero;"/><path d="M345.19,22.727C346.295,22.727 347.19,21.832 347.19,20.727L347.19,15.381C347.19,14.276 346.295,13.381 345.19,13.381L324.389,13.381C323.285,13.381 322.389,14.276 322.389,15.381L322.389,53.076C322.389,54.181 323.285,55.076 324.389,55.076L345.19,55.076C346.295,55.076 347.19,54.181 347.19,53.076L347.19,47.729C347.19,46.625 346.295,45.729 345.19,45.729L332.078,45.729C332.078,45.729 332.078,37.132 332.078,37.132C332.078,37.132 344.751,37.132 344.751,37.132C345.855,37.132 346.751,36.236 346.751,35.132L346.751,29.785C346.751,28.681 345.855,27.785 344.751,27.785L332.078,27.785C332.078,27.785 332.078,22.727 332.078,22.727C332.078,22.727 345.19,22.727 345.19,22.727ZM345.19,20.727L330.078,20.727L330.078,29.785L344.751,29.785L344.751,35.132L330.078,35.132L330.078,47.729L345.19,47.729L345.19,53.076L324.389,53.076L324.389,15.381L345.19,15.381L345.19,20.727Z" style="fill:rgb(6,46,66);"/><path d="M380.517,17.407L380.517,24.145C377.23,21.395 373.828,20.019 370.312,20.019C366.439,20.019 363.175,21.411 360.522,24.194C357.853,26.961 356.518,30.347 356.518,34.351C356.518,38.306 357.853,41.642 360.522,44.36C363.192,47.078 366.463,48.437 370.337,48.437C372.339,48.437 374.04,48.112 375.439,47.461C376.22,47.135 377.03,46.696 377.868,46.143C378.707,45.589 379.59,44.922 380.517,44.141L380.517,51.001C377.262,52.84 373.844,53.76 370.263,53.76C364.876,53.76 360.278,51.88 356.47,48.12C352.677,44.328 350.781,39.754 350.781,34.399C350.781,29.598 352.368,25.317 355.542,21.558C359.448,16.951 364.502,14.648 370.703,14.648C374.088,14.648 377.36,15.568 380.517,17.407Z" style="fill:white;fill-rule:nonzero;"/><path d="M382.517,17.407C382.517,16.695 382.139,16.037 381.524,15.679C378.044,13.652 374.435,12.648 370.703,12.648C363.876,12.648 358.317,15.193 354.016,20.264C354.015,20.265 354.014,20.266 354.014,20.267C350.521,24.404 348.781,29.116 348.781,34.399C348.781,40.306 350.872,45.351 355.055,49.534C355.058,49.537 355.061,49.54 355.064,49.543C359.261,53.686 364.327,55.76 370.263,55.76C374.187,55.76 377.934,54.758 381.501,52.742C382.129,52.387 382.517,51.722 382.517,51.001L382.517,44.141C382.517,43.363 382.066,42.655 381.361,42.327C380.656,41.999 379.824,42.11 379.229,42.611C378.366,43.337 377.546,43.959 376.767,44.473C376.043,44.951 375.345,45.334 374.67,45.615C374.645,45.625 374.62,45.636 374.596,45.647C373.429,46.19 372.006,46.437 370.337,46.437C367.027,46.437 364.23,45.281 361.949,42.959C359.655,40.623 358.518,37.75 358.518,34.351C358.518,30.896 359.659,27.97 361.962,25.583C361.964,25.58 361.967,25.577 361.97,25.574C364.23,23.203 367.012,22.019 370.312,22.019C373.392,22.019 376.354,23.27 379.234,25.679C379.83,26.178 380.66,26.286 381.364,25.957C382.068,25.629 382.517,24.922 382.517,24.145L382.517,17.407ZM380.517,17.407L380.517,24.145C377.23,21.395 373.828,20.019 370.312,20.019C366.439,20.019 363.175,21.411 360.522,24.194C357.853,26.961 356.518,30.347 356.518,34.351C356.518,38.306 357.853,41.642 360.522,44.36C363.192,47.078 366.463,48.437 370.337,48.437C372.339,48.437 374.04,48.112 375.439,47.461C376.22,47.135 377.03,46.696 377.868,46.143C378.707,45.589 379.59,44.922 380.517,44.141L380.517,51.001C377.262,52.84 373.844,53.76 370.263,53.76C364.876,53.76 360.278,51.88 356.47,48.12C352.677,44.328 350.781,39.754 350.781,34.399C350.781,29.598 352.368,25.317 355.542,21.558C359.448,16.951 364.502,14.648 370.703,14.648C374.088,14.648 377.36,15.568 380.517,17.407Z" style="fill:rgb(6,46,66);"/><rect x="387.695" y="15.381" width="5.688" height="37.695" style="fill:white;fill-rule:nonzero;"/><path d="M395.384,15.381C395.384,14.276 394.488,13.381 393.384,13.381L387.695,13.381C386.591,13.381 385.695,14.276 385.695,15.381L385.695,53.076C385.695,54.181 386.591,55.076 387.695,55.076L393.384,55.076C394.488,55.076 395.384,54.181 395.384,53.076L395.384,15.381ZM393.384,15.381L393.384,53.076L387.695,53.076L387.695,15.381L393.384,15.381Z" style="fill:rgb(6,46,66);"/><path d="M424.585,43.921L408.447,43.921L404.248,53.076L398.12,53.076L416.772,13.013L434.765,53.076L428.54,53.076L424.585,43.921ZM422.265,38.574L416.675,25.757L410.815,38.574L422.265,38.574Z" style="fill:white;fill-rule:nonzero;"/><path d="M423.27,45.921L426.704,53.869C427.02,54.602 427.742,55.076 428.54,55.076L434.765,55.076C435.444,55.076 436.076,54.732 436.445,54.163C436.813,53.593 436.868,52.876 436.59,52.257L418.597,12.193C418.276,11.479 417.568,11.018 416.786,11.013C416.003,11.007 415.289,11.459 414.959,12.169L396.307,52.232C396.018,52.851 396.066,53.575 396.433,54.151C396.801,54.727 397.437,55.076 398.12,55.076L404.248,55.076C405.03,55.076 405.74,54.621 406.066,53.91L409.73,45.921L423.27,45.921ZM424.585,43.921L408.447,43.921L404.248,53.076L398.12,53.076L416.772,13.013L434.765,53.076L428.54,53.076L424.585,43.921ZM422.265,38.574L416.675,25.757L410.815,38.574L422.265,38.574ZM419.211,36.574L413.929,36.574C413.929,36.574 416.632,30.661 416.632,30.661L419.211,36.574Z" style="fill:rgb(6,46,66);"/><path d="M445.166,15.381L445.166,47.729L456.25,47.729L456.25,53.076L439.477,53.076L439.477,15.381L445.166,15.381Z" style="fill:white;fill-rule:nonzero;"/><path d="M447.166,15.381C447.166,14.276 446.27,13.381 445.166,13.381L439.477,13.381C438.373,13.381 437.477,14.276 437.477,15.381L437.477,53.076C437.477,54.181 438.373,55.076 439.477,55.076L456.25,55.076C457.354,55.076 458.25,54.181 458.25,53.076L458.25,47.729C458.25,46.625 457.354,45.729 456.25,45.729L447.166,45.729C447.166,45.729 447.166,15.381 447.166,15.381ZM445.166,15.381L445.166,47.729L456.25,47.729L456.25,53.076L439.477,53.076L439.477,15.381L445.166,15.381Z" style="fill:rgb(6,46,66);"/><path d="M497.876,20.727L482.763,20.727L482.763,29.785L497.436,29.785L497.436,35.132L482.763,35.132L482.763,47.729L497.876,47.729L497.876,53.076L477.075,53.076L477.075,15.381L497.876,15.381L497.876,20.727Z" style="fill:white;fill-rule:nonzero;"/><path d="M497.876,22.727C498.98,22.727 499.876,21.832 499.876,20.727L499.876,15.381C499.876,14.276 498.98,13.381 497.876,13.381L477.075,13.381C475.97,13.381 475.075,14.276 475.075,15.381L475.075,53.076C475.075,54.181 475.97,55.076 477.075,55.076L497.876,55.076C498.98,55.076 499.876,54.181 499.876,53.076L499.876,47.729C499.876,46.625 498.98,45.729 497.876,45.729L484.763,45.729C484.763,45.729 484.763,37.132 484.763,37.132C484.763,37.132 497.436,37.132 497.436,37.132C498.541,37.132 499.436,36.236 499.436,35.132L499.436,29.785C499.436,28.681 498.541,27.785 497.436,27.785L484.763,27.785C484.763,27.785 484.763,22.727 484.763,22.727C484.763,22.727 497.876,22.727 497.876,22.727ZM497.876,20.727L482.763,20.727L482.763,29.785L497.436,29.785L497.436,35.132L482.763,35.132L482.763,47.729L497.876,47.729L497.876,53.076L477.075,53.076L477.075,15.381L497.876,15.381L497.876,20.727Z" style="fill:rgb(6,46,66);"/><path d="M505.346,53.076L505.346,15.381L513.257,15.381C517.049,15.381 520.044,15.755 522.241,16.504C524.601,17.236 526.741,18.481 528.662,20.239C532.552,23.787 534.497,28.45 534.497,34.228C534.497,40.023 532.47,44.71 528.418,48.291C526.383,50.081 524.251,51.326 522.021,52.026C519.938,52.726 516.984,53.076 513.159,53.076L505.346,53.076ZM511.035,47.729L513.598,47.729C516.154,47.729 518.278,47.461 519.97,46.924C521.663,46.354 523.193,45.451 524.56,44.214C527.36,41.658 528.76,38.33 528.76,34.228C528.76,30.094 527.376,26.741 524.609,24.17C522.119,21.875 518.449,20.727 513.598,20.727L511.035,20.727L511.035,47.729Z" style="fill:white;fill-rule:nonzero;"/><path d="M503.346,53.076C503.346,54.181 504.242,55.076 505.346,55.076L513.159,55.076C517.255,55.076 520.417,54.674 522.65,53.925C525.112,53.149 527.483,51.778 529.739,49.792C529.74,49.792 529.741,49.791 529.742,49.79C534.23,45.825 536.497,40.644 536.497,34.228C536.497,27.836 534.315,22.689 530.011,18.763C527.87,16.804 525.483,15.419 522.854,14.6C520.506,13.805 517.308,13.381 513.257,13.381C513.257,13.381 505.346,13.381 505.346,13.381C504.242,13.381 503.346,14.276 503.346,15.381L503.346,53.076ZM505.346,53.076L505.346,15.381L513.257,15.381C517.049,15.381 520.044,15.755 522.241,16.504C524.601,17.236 526.741,18.481 528.662,20.239C532.552,23.787 534.497,28.45 534.497,34.228C534.497,40.023 532.47,44.71 528.418,48.291C526.383,50.081 524.251,51.326 522.021,52.026C519.938,52.726 516.984,53.076 513.159,53.076L505.346,53.076ZM511.035,47.729L513.598,47.729C516.154,47.729 518.278,47.461 519.97,46.924C521.663,46.354 523.193,45.451 524.56,44.214C527.36,41.658 528.76,38.33 528.76,34.228C528.76,30.094 527.376,26.741 524.609,24.17C522.119,21.875 518.449,20.727 513.598,20.727L511.035,20.727L511.035,47.729ZM513.035,45.729L513.035,22.728C513.035,22.727 513.598,22.727 513.598,22.727C517.837,22.727 521.074,23.634 523.251,25.638C525.609,27.832 526.76,30.703 526.76,34.228C526.76,37.717 525.595,40.56 523.215,42.734C522.065,43.773 520.781,44.536 519.36,45.019C517.82,45.505 515.902,45.729 513.598,45.729L513.035,45.729Z" style="fill:rgb(6,46,66);"/><rect x="541.65" y="15.381" width="5.688" height="37.695" style="fill:white;fill-rule:nonzero;"/><path d="M549.339,15.381C549.339,14.276 548.443,13.381 547.339,13.381L541.65,13.381C540.546,13.381 539.65,14.276 539.65,15.381L539.65,53.076C539.65,54.181 540.546,55.076 541.65,55.076L547.339,55.076C548.443,55.076 549.339,54.181 549.339,53.076L549.339,15.381ZM547.339,15.381L547.339,53.076L541.65,53.076L541.65,15.381L547.339,15.381Z" style="fill:rgb(6,46,66);"/><path d="M566.797,20.727L566.797,53.076L561.108,53.076L561.108,20.727L552.441,20.727L552.441,15.381L575.439,15.381L575.439,20.727L566.797,20.727Z" style="fill:white;fill-rule:nonzero;"/><path d="M568.797,22.727L575.439,22.727C576.544,22.727 577.439,21.832 577.439,20.727L577.439,15.381C577.439,14.276 576.544,13.381 575.439,13.381L552.441,13.381C551.337,13.381 550.441,14.276 550.441,15.381L550.441,20.727C550.441,21.832 551.337,22.727 552.441,22.727L559.108,22.727C559.108,22.727 559.108,53.076 559.108,53.076C559.108,54.181 560.004,55.076 561.108,55.076L566.797,55.076C567.901,55.076 568.797,54.181 568.797,53.076L568.797,22.727ZM566.797,20.727L566.797,53.076L561.108,53.076L561.108,20.727L552.441,20.727L552.441,15.381L575.439,15.381L575.439,20.727L566.797,20.727Z" style="fill:rgb(6,46,66);"/><rect x="580.517" y="15.381" width="5.688" height="37.695" style="fill:white;fill-rule:nonzero;"/><path d="M588.206,15.381C588.206,14.276 587.31,13.381 586.206,13.381L580.517,13.381C579.413,13.381 578.517,14.276 578.517,15.381L578.517,53.076C578.517,54.181 579.413,55.076 580.517,55.076L586.206,55.076C587.31,55.076 588.206,54.181 588.206,53.076L588.206,15.381ZM586.206,15.381L586.206,53.076L580.517,53.076L580.517,15.381L586.206,15.381Z" style="fill:rgb(6,46,66);"/><path d="M593.384,34.058C593.384,28.752 595.329,24.194 599.219,20.386C603.092,16.577 607.747,14.673 613.183,14.673C618.554,14.673 623.161,16.593 627.002,20.435C630.859,24.276 632.788,28.89 632.788,34.277C632.788,39.697 630.851,44.295 626.977,48.071C623.087,51.864 618.392,53.76 612.89,53.76C608.024,53.76 603.654,52.075 599.78,48.706C595.516,44.979 593.384,40.096 593.384,34.058ZM599.121,34.131C599.121,38.297 600.521,41.724 603.32,44.409C606.103,47.095 609.318,48.437 612.964,48.437C616.919,48.437 620.255,47.07 622.973,44.336C625.692,41.569 627.051,38.2 627.051,34.228C627.051,30.208 625.708,26.839 623.022,24.121C620.353,21.387 617.049,20.019 613.11,20.019C609.188,20.019 605.875,21.387 603.174,24.121C600.472,26.823 599.121,30.159 599.121,34.131Z" style="fill:white;fill-rule:nonzero;"/><path d="M591.384,34.058C591.384,40.721 593.758,46.099 598.464,50.212C598.465,50.213 598.466,50.214 598.468,50.215C602.728,53.92 607.539,55.76 612.89,55.76C618.937,55.76 624.098,53.672 628.373,49.503C632.649,45.335 634.788,40.26 634.788,34.277C634.788,28.34 632.665,23.253 628.414,19.019C624.181,14.786 619.103,12.673 613.183,12.673C607.202,12.673 602.08,14.768 597.818,18.958C593.523,23.164 591.384,28.199 591.384,34.058ZM593.384,34.058C593.384,28.752 595.329,24.194 599.219,20.386C603.092,16.577 607.747,14.673 613.183,14.673C618.554,14.673 623.161,16.593 627.002,20.435C630.859,24.276 632.788,28.89 632.788,34.277C632.788,39.697 630.851,44.295 626.977,48.071C623.087,51.864 618.392,53.76 612.89,53.76C608.024,53.76 603.654,52.075 599.78,48.706C595.516,44.979 593.384,40.096 593.384,34.058ZM599.121,34.131C599.121,38.297 600.521,41.724 603.32,44.409C606.103,47.095 609.318,48.437 612.964,48.437C616.919,48.437 620.255,47.07 622.973,44.336C625.692,41.569 627.051,38.2 627.051,34.228C627.051,30.208 625.708,26.839 623.022,24.121C620.353,21.387 617.049,20.019 613.11,20.019C609.188,20.019 605.875,21.387 603.174,24.121C600.472,26.823 599.121,30.159 599.121,34.131ZM601.121,34.131C601.121,30.722 602.269,27.854 604.588,25.535C604.591,25.532 604.593,25.53 604.596,25.527C606.911,23.185 609.75,22.019 613.11,22.019C616.479,22.019 619.308,23.18 621.591,25.518C621.594,25.521 621.597,25.524 621.6,25.527C623.91,27.865 625.051,30.77 625.051,34.228C625.051,37.646 623.889,40.548 621.551,42.93C619.219,45.273 616.355,46.437 612.964,46.437C609.84,46.437 607.093,45.271 604.709,42.97C604.707,42.969 604.706,42.967 604.705,42.966C602.301,40.66 601.121,37.709 601.121,34.131Z" style="fill:rgb(6,46,66);"/><path d="M639.941,53.076L639.941,12.817L667.431,41.577L667.431,15.381L673.12,15.381L673.12,55.371L645.63,26.685L645.63,53.076L639.941,53.076Z" style="fill:white;fill-rule:nonzero;"/><path d="M637.941,53.076C637.941,54.181 638.837,55.076 639.941,55.076L645.63,55.076C646.734,55.076 647.63,54.181 647.63,53.076L647.63,31.662C647.63,31.662 671.676,56.755 671.676,56.755C672.241,57.344 673.108,57.531 673.866,57.227C674.623,56.922 675.12,56.188 675.12,55.371L675.12,15.381C675.12,14.276 674.224,13.381 673.12,13.381L667.431,13.381C666.327,13.381 665.431,14.276 665.431,15.381L665.431,36.59C665.431,36.59 641.387,11.435 641.387,11.435C640.822,10.845 639.955,10.657 639.197,10.961C638.438,11.265 637.941,12 637.941,12.817L637.941,53.076ZM639.941,53.076L639.941,12.817L667.431,41.577L667.431,15.381L673.12,15.381L673.12,55.371L645.63,26.685L645.63,53.076L639.941,53.076Z" style="fill:rgb(6,46,66);"/></g><g id="guide" transform="matrix(1,0,0,1.04284,1.75676,-22.4672)"><rect x="82.193" y="95.569" width="632.101" height="428.927" style="fill:url(#special-editionspecial-editionspecial-edition_Linear4);stroke:rgb(0,153,197);stroke-width:4.8px;"/></g><g transform="scale(1) translate(0,0)"><g id="accessories-front"><g id="cronic-eyepatch"><path id="shadow" d="M411.161,322.484C414.446,323.606 412.626,381.689 458.338,403.888C498.894,423.584 531.852,397.8 545.828,381.374C559.805,364.949 564.636,333.59 564.636,333.59C564.636,333.59 427.437,322.538 386.105,307.15C344.773,291.762 221.473,234.41 221.473,234.41L221.396,240.059C221.396,240.059 226.811,259.558 411.161,322.484Z" style="fill: rgb(56, 25, 57); fill-opacity: 0.5" /><path id="strap" d="M419.165,322.329C419.165,322.329 241.312,262.673 221.376,238.642C219.48,228.395 221.313,225.422 221.313,225.422C221.313,225.422 266.691,255.324 421.761,311.128C424.698,318.684 419.165,322.329 419.165,322.329Z" style="fill: rgb(53, 53, 53)" /><clipPath id="Cronic-eye-patch_0"><path id="strap1" d="M419.165,322.329C419.165,322.329 241.312,262.673 221.376,238.642C219.48,228.395 221.313,225.422 221.313,225.422C221.313,225.422 266.691,255.324 421.761,311.128C424.698,318.684 419.165,322.329 419.165,322.329Z" /></clipPath><g clip-path="url(#Cronic-eye-patch_0)"><path d="M217.434,223.531C218.174,220.92 219.555,218.604 221.797,216.848C221.797,216.848 230.618,218.349 230.405,220.384C230.218,222.169 230.011,224.444 229.829,226.943L380.58,268.446L471.5,324.333C471.5,324.333 495.367,344.696 353.863,288.054C283.502,259.89 247.68,243.321 229.442,233.774C229.256,238.573 229.279,243.334 229.776,246.509C230.17,249.028 229.607,251.606 230.042,254.118C230.519,256.868 230.019,257.261 229.712,257.248C229.06,257.221 227.712,254.45 227.28,254.057C225.189,252.153 223.456,249.987 222.061,247.526C219.106,242.312 216.137,233.852 216.852,226.661C210.732,222.793 210.548,221.635 210.548,221.635L217.434,223.531Z" style="fill: rgb(252, 255, 216); fill-opacity: 0.6" /></g><path id="strap2" d="M419.165,322.329C419.165,322.329 241.312,262.673 221.376,238.642C219.48,228.395 221.313,225.422 221.313,225.422C221.313,225.422 266.691,255.324 421.761,311.128C424.698,318.684 419.165,322.329 419.165,322.329Z" style="fill: none; stroke: black; stroke-width: 2.1px" /><g transform="matrix(0.123241,-0.877408,0.867414,0.121837,51.8059,719.095)"><path d="M520.792,346.6C462.848,346.6 415.804,385.487 415.804,433.386C415.804,481.285 462.848,520.173 520.792,520.173C520.937,491.316 521.055,462.362 521.055,433.386C521.055,404.41 520.937,375.456 520.792,346.6Z" style="fill: rgb(53, 53, 53)" /><clipPath id="Cronic-eye-patch_1"><path d="M520.792,346.6C462.848,346.6 415.804,385.487 415.804,433.386C415.804,481.285 462.848,520.173 520.792,520.173C520.937,491.316 521.055,462.362 521.055,433.386C521.055,404.41 520.937,375.456 520.792,346.6Z" /></clipPath><g clip-path="url(#Cronic-eye-patch_1)"><g id="inner-design-4" transform="matrix(-0.00225532,-0.255785,0.252872,-0.0022813,388.991,537.622)"><g transform="matrix(0.665952,-0.665952,0.665952,0.665952,-87.8597,380.8)"><path d="M400,86.373L400,578.195" style="fill: none; stroke: rgb(179, 68, 67); stroke-width: 39.39px" /></g><g transform="matrix(-0.68633,-0.68633,0.666738,-0.666738,452.985,831.977)"><path d="M400,86.373L400,578.195" style="fill: none; stroke: rgb(179, 68, 67); stroke-width: 38.77px" /></g><g transform="matrix(-0.970617,6.93889e-18,6.38378e-16,-0.942911,788.247,649.213)"><path d="M400,86.373L400,578.195" style="fill: none; stroke: rgb(179, 68, 67); stroke-width: 38.77px" /></g><g transform="matrix(-1.36002e-15,-0.970617,0.942911,-6.80012e-16,86.6856,724.145)"><path d="M400,86.373L400,578.195" style="fill: none; stroke: rgb(179, 68, 67); stroke-width: 38.77px" /></g><g transform="matrix(-1.2356,-1.51317e-16,1.87782e-16,-1.53336,784.53,1644.57)"><path d="M311.366,643.402L343.454,680.713L311.366,718.023L279.277,680.713L311.366,643.402Z" style="fill: none; stroke: rgb(179, 68, 67); stroke-width: 26.64px" /></g><g transform="matrix(-0.873702,0.873702,-1.08425,-1.08425,1597.22,989.229)"><path d="M311.366,643.402L343.454,680.713L311.366,718.023L279.277,680.713L311.366,643.402Z" style="fill: none; stroke: rgb(179, 68, 67); stroke-width: 26.64px" /></g><g transform="matrix(-3.33067e-16,1.2356,-1.53336,-7.77156e-16,1708.48,-48.8254)"><path d="M311.366,643.402L343.454,680.713L311.366,718.023L279.277,680.713L311.366,643.402Z" style="fill: none; stroke: rgb(179, 68, 67); stroke-width: 26.64px" /></g><g transform="matrix(0.873702,0.873702,-1.08425,1.08425,1053.14,-861.514)"><path d="M311.366,643.402L343.454,680.713L311.366,718.023L279.277,680.713L311.366,643.402Z" style="fill: none; stroke: rgb(179, 68, 67); stroke-width: 26.64px" /></g><g transform="matrix(1.2356,7.77156e-16,-8.88178e-16,1.53336,15.083,-972.775)"><path d="M311.366,643.402L343.454,680.713L311.366,718.023L279.277,680.713L311.366,643.402Z" style="fill: none; stroke: rgb(179, 68, 67); stroke-width: 26.64px" /></g><g transform="matrix(0.873702,-0.873702,1.08425,1.08425,-797.606,-317.433)"><path d="M311.366,643.402L343.454,680.713L311.366,718.023L279.277,680.713L311.366,643.402Z" style="fill: none; stroke: rgb(179, 68, 67); stroke-width: 26.64px" /></g><g transform="matrix(9.99201e-16,-1.2356,1.53336,1.55431e-15,-908.867,720.622)"><path d="M311.366,643.402L343.454,680.713L311.366,718.023L279.277,680.713L311.366,643.402Z" style="fill: none; stroke: rgb(179, 68, 67); stroke-width: 26.64px" /></g><g transform="matrix(-0.873702,-0.873702,1.08425,-1.08425,-253.525,1533.31)"><path d="M311.366,643.402L343.454,680.713L311.366,718.023L279.277,680.713L311.366,643.402Z" style="fill: none; stroke: rgb(179, 68, 67); stroke-width: 26.64px" /></g></g><g transform="matrix(0.156988,1.13055,-1.11767,0.158797,795.579,-172.759)"><path d="M390.626,302.858L563.121,328.975C563.121,328.975 561.795,337.532 559.774,343.635C548.395,378.008 518.32,401.02 518.32,401.02C518.32,401.02 574.452,368.545 585.311,350.028C596.17,331.51 588.663,320.088 588.663,320.088L547.141,298.27L408.457,282.125L390.626,302.858Z" style="fill: rgb(252, 255, 216); fill-opacity: 0.6" /></g></g><path d="M520.792,346.6C462.848,346.6 415.804,385.487 415.804,433.386C415.804,481.285 462.848,520.173 520.792,520.173C520.937,491.316 521.055,462.362 521.055,433.386C521.055,404.41 520.937,375.456 520.792,346.6Z" style="fill: none; stroke: black; stroke-width: 2.44px" /></g></g></g></g></g><defs><linearGradient id="special-editionspecial-editionspecial-edition_Linear4" x1="0" y1="0" x2="1" y2="0" gradientUnits="userSpaceOnUse" gradientTransform="matrix(3.89688e-14,-610.267,636.408,3.73681e-14,398.243,614.74)"><stop offset="0" style="stop-color:rgb(80,225,255);stop-opacity:1"/><stop offset="0.44" style="stop-color:rgb(219,249,255);stop-opacity:1"/><stop offset="1" style="stop-color:white;stop-opacity:1"/></linearGradient></defs></svg>