<svg
  width="100%"
  height="100%"
  viewBox="0 0 800 800"
  version="1.1"
  xmlns="http://www.w3.org/2000/svg"
  style="fill-rule: evenodd; clip-rule: evenodd; stroke-linecap: round; stroke-linejoin: round; stroke-miterlimit: 1.5"
>
  <g id="accessories-back">
    <g id="oni-jacket-back">
      <path
        d="M211.978,616.832C202.932,607.771 197.429,583.26 196.918,581.496C195.733,577.4 194.643,573.292 193.654,569.143C190.836,557.33 188.865,545.234 187.705,533.149C183.73,491.744 192.611,442.949 233.462,428.694C313.494,400.765 428.625,396.26 512.067,416.612C539.372,423.271 585.183,428.352 601.248,455.858C612.381,474.918 612.074,501.307 613.613,522.63C615.399,547.362 618.313,604.412 602.528,624.074C582.561,648.945 533.715,793.806 505.613,794.926C426.676,798.071 361.747,797.71 283.015,793.258C283.015,793.258 237.432,642.33 211.978,616.832Z"
        style="fill: rgb(90, 37, 83)"
      />
    </g>
  </g>
  <g id="oni-collar">
    <path
      d="M282.254,708.608C264.927,696.633 220.469,667.144 194.202,634.105C167.936,601.065 176.28,615.126 171.257,601.467C166.233,587.808 163.036,512.98 169.216,489.877C175.396,466.773 187.265,452.657 199.964,441.668C212.664,430.679 228.838,407.973 360.95,405.367C362.463,415.189 357.901,420.857 357.901,420.857C357.901,420.857 273.904,420.881 232.965,441.092C215.258,449.834 196.462,486.366 218.456,518.195C240.128,549.559 275.891,570.097 285.254,583.492C291.051,591.785 297.209,622.923 299.776,685.753C300.349,699.773 300.438,704.063 298.163,705.954C294.474,709.02 286.677,711.665 282.254,708.608Z"
      style="fill: rgb(94, 90, 89)"
    />
    <clipPath id="Yakuza-suit_7">
      <path
        d="M282.254,708.608C264.927,696.633 220.469,667.144 194.202,634.105C167.936,601.065 176.28,615.126 171.257,601.467C166.233,587.808 163.036,512.98 169.216,489.877C175.396,466.773 187.265,452.657 199.964,441.668C212.664,430.679 228.838,407.973 360.95,405.367C362.463,415.189 357.901,420.857 357.901,420.857C357.901,420.857 273.904,420.881 232.965,441.092C215.258,449.834 196.462,486.366 218.456,518.195C240.128,549.559 275.891,570.097 285.254,583.492C291.051,591.785 297.209,622.923 299.776,685.753C300.349,699.773 300.438,704.063 298.163,705.954C294.474,709.02 286.677,711.665 282.254,708.608Z"
      />
    </clipPath>
    <g clip-path="url(#Yakuza-suit_7)">
      <path
        d="M171.929,602.717C172.482,605.075 175.789,608.703 177.602,610.517C177.75,610.665 179.542,612.557 179.723,612.421C180.061,612.168 179.784,610.228 179.776,609.883C179.717,607.282 179.7,604.683 179.815,602.082C179.843,601.453 179.706,598.709 181.02,599.475C182.726,600.471 181.965,602.466 181.815,604.118C181.53,607.254 180.888,611.354 181.572,614.499C182.011,616.519 185.491,618.071 186.907,619.355C187.06,619.494 188.534,621.019 188.716,620.855C189.542,620.112 188.723,615.387 188.699,614.43C188.543,608.017 188.562,601.605 188.562,595.191C188.562,594.686 188.592,587.894 188.936,588.02C190.456,588.581 191.762,593.416 192.521,594.751C193.722,596.865 196.202,599.009 196.812,601.39C197.423,603.774 196.71,606.937 196.592,609.351C196.35,614.301 196.399,619.235 196.927,624.165C197.219,626.894 197.498,630.346 198.723,632.839C201.764,639.027 209.319,644.502 214.183,649.258C217.301,652.306 221.341,657.288 225.303,659.269C225.425,659.329 225.6,656.065 225.615,655.838C225.765,653.571 225.501,649.891 228.81,651.419C229.288,651.639 228.94,653.577 228.928,653.97C228.858,656.307 228.397,659.148 228.859,661.458C229.019,662.258 233.601,665.92 233.725,665.796C234.323,665.198 233.98,662.131 234.004,661.373C234.116,657.758 233.699,653.22 234.877,649.741C235.68,647.37 237.938,645.58 239.579,643.792C239.812,643.537 240.972,641.943 241.437,642.245C242.658,643.039 241.343,649.944 241.27,651.162C240.999,655.625 240.833,660.09 240.531,664.551C240.424,666.131 239.738,668.795 240.406,670.307C241.312,672.356 243.914,673.838 245.653,675.074C247.019,676.045 249.67,678.131 251.566,677.7C252.519,677.484 252.863,675.287 253.04,674.565C253.893,671.067 253.947,667.4 254.035,663.822C254.397,649.045 254.732,634.238 254.543,619.457C254.487,614.991 254.61,610.524 254.537,606.058C254.525,605.345 254.57,599.365 254.688,599.452C256.41,600.725 257.672,603.192 259.028,604.827C261.971,608.373 265.035,611.99 266.573,616.407C269.356,624.398 267.727,634.361 267.857,642.669C268.067,656.108 269.579,670.151 271.357,683.485C272.302,690.576 273.618,697.652 275.007,704.668C275.281,706.052 276.88,710.657 275.08,711.576C272.377,712.956 266.328,708.415 264.34,707.16C253.93,700.587 244.206,692.649 234.706,684.848C224.494,676.462 214.623,667.663 205.618,657.978C196.578,648.257 188.135,637.907 180.721,626.887C177.269,621.755 173.362,616.39 171.069,610.596"
        style="fill: rgb(56, 25, 57); fill-opacity: 0.6"
      />
      <path
        d="M224.959,558.37C223.028,556.284 218.148,555.062 215.674,553.694C209.022,550.015 202.01,545.707 196.762,540.111C189.212,532.061 182.978,520.989 179.561,510.517C178.172,506.259 178.36,499.983 176.328,496.138C176.155,495.81 176.346,496.881 176.331,497.251C176.3,498.015 176.26,498.78 176.185,499.541C175.963,501.786 175.59,504.001 175.258,506.231C174.247,513.002 173.576,519.858 173.24,526.698C172.741,536.864 173.987,546.974 174.18,557.133C174.424,569.973 173.793,582.81 174.177,595.657C174.333,600.883 174.986,606.414 174.541,611.624C174.462,612.546 173.905,616.361 172.441,616.216C169.5,615.926 166.654,608.098 165.797,606.031C160.851,594.105 158.299,580.907 156.207,568.224C150.777,535.317 151.94,494.601 168.815,464.811C175.025,453.847 186.094,440.06 199.027,436.765C204.204,435.447 203.101,442.031 202.548,445.114C200.807,454.826 197.837,464.205 197.088,474.096C195.349,497.052 201.784,524.067 214.807,543.264"
        style="fill: rgb(252, 255, 216); fill-opacity: 0.6"
      />
      <path
        d="M228.437,408.7C218.287,411.545 207.381,427.771 201.076,435.453C182.294,458.335 174.46,486.705 190.26,519.047C200.462,539.932 214.062,552.394 228.421,566.074C238.947,576.102 263.469,591.152 268.65,604.292C272.42,613.856 272.149,625.816 273.064,635.93C274.612,653.046 275.297,669.726 277.627,686.753C278.593,693.813 280.126,702.437 282.422,709.567C283.624,708.556 289.527,718.271 292.876,718.75C300.574,719.849 310.598,712.976 314.946,707.104C325.653,692.645 322.539,667.806 320.858,651.385C318.066,624.124 312.272,597.394 305.583,570.857C300.491,550.653 293.434,528.839 298.174,507.866C308.9,460.404 357.89,460.144 384.587,431.159C407.634,406.136 377.103,381.476 353.696,374.608C342.019,371.181 329.946,369.899 317.803,370.154C300.922,370.508 284.214,373.642 268.463,379.721"
        style="fill: rgb(237, 30, 121)"
      />
      <clipPath id="Yakuza-suit_8">
        <path
          d="M228.437,408.7C218.287,411.545 207.381,427.771 201.076,435.453C182.294,458.335 174.46,486.705 190.26,519.047C200.462,539.932 214.062,552.394 228.421,566.074C238.947,576.102 263.469,591.152 268.65,604.292C272.42,613.856 272.149,625.816 273.064,635.93C274.612,653.046 275.297,669.726 277.627,686.753C278.593,693.813 280.126,702.437 282.422,709.567C283.624,708.556 289.527,718.271 292.876,718.75C300.574,719.849 310.598,712.976 314.946,707.104C325.653,692.645 322.539,667.806 320.858,651.385C318.066,624.124 312.272,597.394 305.583,570.857C300.491,550.653 293.434,528.839 298.174,507.866C308.9,460.404 357.89,460.144 384.587,431.159C407.634,406.136 377.103,381.476 353.696,374.608C342.019,371.181 329.946,369.899 317.803,370.154C300.922,370.508 284.214,373.642 268.463,379.721"
        />
      </clipPath>
      <g clip-path="url(#Yakuza-suit_8)">
        <path
          d="M283.109,720.986C282.727,721.811 275.154,691.807 275.506,648.879C275.597,637.795 274.817,620.286 274.547,615.578C273.743,601.567 270.708,596.488 270.708,596.488C270.708,596.488 286.254,582.5 296.313,590.152C306.373,597.804 318.516,710.273 318.516,710.273L283.109,720.986ZM208.917,485.917C208.789,486.631 208.857,484.466 208.839,483.74C208.8,482.219 208.767,480.697 208.757,479.176C208.729,474.715 208.95,470.227 209.768,465.834C212.294,452.265 219.636,441.363 231.088,433.746C263.116,412.445 305.151,412.012 341.412,409.206C351.287,408.442 361.226,409.11 371.022,410.76C374.245,411.303 379.191,411.661 380.87,415.001C385.289,423.79 371.452,427.201 365.812,429.229C363.907,429.914 361.992,430.574 360.072,431.218C357.886,431.95 355.694,432.666 353.496,433.362C351.027,434.144 348.552,434.907 346.073,435.659C304.568,448.235 256.699,458.183 223.7,488.385L208.917,485.917Z"
          style="fill: rgb(56, 25, 57); fill-opacity: 0.7"
        />
        <path
          d="M268.259,588.926C268.18,589.177 267.368,589.502 267.204,589.891C266.338,591.953 269.06,590.985 269.704,589.958C270.103,589.321 269.585,588.647 268.901,588.647L268.259,588.926ZM214.488,512.427C214.429,513.564 216.251,515.953 216.74,516.941C218.803,521.11 220.767,525.365 223.17,529.355C229.301,539.536 237.827,547.568 247.259,554.846C253.658,559.784 259.228,564.437 265.52,569.519C267.837,571.391 271.861,575.228 273.77,577.604C273.829,577.678 271.343,578.945 271.146,579.074C269.073,580.425 264.077,585.357 264.245,585.668C264.407,585.965 267.525,583.681 267.744,583.555C270.088,582.213 271.921,580.934 274.43,579.925C275.105,579.654 275.96,579.396 276.625,579.923C277.658,580.742 278.739,581.479 278.754,581.946C278.762,582.186 275.865,584.005 274.429,585.065C274.22,585.219 271.731,586.71 272.014,587.477C272.172,587.905 273.913,587.328 275.134,586.966C277.494,586.267 279.882,585.484 282.384,585.885C284.664,586.25 286.592,588.846 288.375,590.149C288.733,590.411 290.541,591.323 290.929,590.588C292.079,588.41 289.336,583.44 288.531,581.585C284.83,573.052 279.699,564.976 274.121,557.563C268.988,550.741 263.15,544.476 256.966,538.599C249.659,531.656 241.775,525.158 233.458,519.456C226.945,514.991 219.897,511.329 213.983,506.055L214.488,512.427ZM211.689,553.844C212.19,553.566 211.011,552.921 210.686,552.45C210.053,551.532 209.431,550.607 208.817,549.676C206.875,546.727 204.986,543.739 203.158,540.718C197.729,531.748 193.306,522.318 190.272,512.277C182.188,485.525 190.714,458.967 211.62,440.677C234.832,420.369 270.558,415.108 299.937,410.333C310.111,408.679 320.179,406.668 330.178,404.157C333.935,403.214 337.788,402.38 341.474,401.183C341.986,401.017 345.37,400.007 344.312,398.95C343.197,397.834 340.696,397.811 339.265,397.644C334.646,397.107 329.964,397.041 325.322,396.826C305.693,395.918 286.101,395.783 266.532,397.87C242.429,400.44 215.643,404.247 194.985,417.867C164.407,438.027 152.374,478.939 168.771,512.084C176.826,528.365 190.778,540.278 204.366,551.834L211.689,553.844Z"
          style="fill: rgb(252, 255, 216); fill-opacity: 0.6"
        />
      </g>
      <path
        d="M228.437,408.7C218.287,411.545 207.381,427.771 201.076,435.453C182.294,458.335 174.46,486.705 190.26,519.047C200.462,539.932 214.062,552.394 228.421,566.074C238.947,576.102 263.469,591.152 268.65,604.292C272.42,613.856 272.149,625.816 273.064,635.93C274.612,653.046 275.297,669.726 277.627,686.753C278.593,693.813 280.126,702.437 282.422,709.567C283.624,708.556 289.527,718.271 292.876,718.75C300.574,719.849 310.598,712.976 314.946,707.104C325.653,692.645 322.539,667.806 320.858,651.385C318.066,624.124 312.272,597.394 305.583,570.857C300.491,550.653 293.434,528.839 298.174,507.866C308.9,460.404 357.89,460.144 384.587,431.159C407.634,406.136 377.103,381.476 353.696,374.608C342.019,371.181 329.946,369.899 317.803,370.154C300.922,370.508 284.214,373.642 268.463,379.721"
        style="fill: none; stroke: black; stroke-width: 2.1px"
      />
      <g transform="matrix(1.12751,-0.086131,0.0792857,1.0379,-80.2924,-4.50893)">
        <ellipse cx="226.077" cy="608.755" rx="16.943" ry="33.67" style="fill: rgb(245, 171, 60)" />
        <clipPath id="Yakuza-suit_9">
          <ellipse cx="226.077" cy="608.755" rx="16.943" ry="33.67" />
        </clipPath>
        <g clip-path="url(#Yakuza-suit_9)">
          <g transform="matrix(0.881763,0.0731736,-0.0673582,0.957891,70.4952,10.1943)">
            <path
              d="M229.301,633.299C229.48,633.405 229.735,633.753 229.92,633.873C230.487,634.24 231.043,634.623 231.615,634.982C233.577,636.215 235.59,639.109 237.372,636.425C237.589,636.1 237.864,635.72 237.968,635.339C238.057,635.01 235.603,634.109 235.288,633.934C234.221,633.339 233.177,632.714 232.092,632.149C231.849,632.023 231.226,631.546 230.927,631.646C230.386,631.828 229.864,632.791 229.532,633.241L229.301,633.299ZM229.301,633.299L229.119,633.344C229.156,633.252 229.221,633.251 229.301,633.299ZM243.691,599.274C243.272,599.516 241.916,599.288 241.435,599.307C239.619,599.381 237.801,599.557 235.994,599.748C235.589,599.79 233.926,599.746 233.661,600.121C233.433,600.444 233.803,601.134 233.899,601.447C234.235,602.538 234.336,603.693 234.453,604.824C234.939,609.489 235.322,614.061 235.089,618.76C235.021,620.122 234.925,621.487 234.746,622.839C234.705,623.144 234.415,624.016 234.614,624.304C235.114,625.028 237.523,625.31 238.283,625.571C239.533,626 240.785,626.457 242.012,626.95C242.339,627.081 243.055,627.528 243.401,627.253C244.077,626.714 244.065,624.934 244.137,624.195C244.213,623.418 244.261,622.637 244.303,621.858C244.373,620.57 244.419,619.282 244.441,617.993C244.496,614.833 244.527,611.671 244.542,608.51L243.691,599.274ZM214.418,567.919C214.437,568.167 214.421,568.876 214.437,569.172C214.481,569.993 214.492,570.815 214.508,571.637C214.553,573.976 214.12,580.837 214.669,580.692C215.71,580.416 221.494,580.329 221.387,580.684C221.387,580.684 223.98,576.227 224.989,574.926C225.516,574.247 229.199,571.887 228.746,570.908C228.102,569.516 224.65,569.221 223.395,568.882L214.418,567.919C214.41,567.816 214.396,567.793 214.371,567.914L214.418,567.919Z"
              style="fill: rgb(56, 25, 57); fill-opacity: 0.5"
            />
          </g>
          <g transform="matrix(0.881763,0.0731736,-0.0673582,0.957891,70.4952,10.1943)">
            <path
              d="M230.001,642.406C229.946,642.381 229.788,642.308 229.724,642.274C229.543,642.18 229.367,642.073 229.19,641.969C228.659,641.659 228.121,641.359 227.59,641.049C225.867,640.045 224.216,638.92 222.76,637.553C222.531,637.339 221.437,636.447 221.7,636.079C221.983,635.683 222.877,635.607 223.307,635.479C223.831,635.323 224.606,634.882 225.16,634.899C225.57,634.911 226.181,635.596 226.466,635.827C227.45,636.624 228.476,637.359 229.515,638.081C230.018,638.431 232.091,639.415 232.177,640.088C232.241,640.597 231.236,640.968 230.899,641.145L230.001,642.406C230.023,642.416 230.028,642.418 230,642.406L230.001,642.406ZM211.265,578.72C211.542,578.707 211.04,579.23 210.976,579.5C210.841,580.07 210.793,580.649 210.739,581.231C210.583,582.906 210.772,584.598 210.426,586.258C209.404,591.158 208.15,595.813 207.821,600.848C207.345,608.152 208.06,615.075 210.057,622.104C210.753,624.555 211.171,626.213 210.23,628.658C210.031,629.175 209.786,630.101 209.308,630.435C208.3,631.14 207.083,627.781 206.895,627.308C205.265,623.198 204.311,618.735 203.538,614.394C202.722,609.811 202.321,605.165 202.52,600.51C202.776,594.549 203.95,588.457 206.516,583.037C207.467,581.027 208.661,578.681 210.451,577.263L211.265,578.72ZM223.311,587.002C223.307,586.998 223.71,586.703 223.734,586.686C224.006,586.49 224.272,586.284 224.537,586.078C225.332,585.461 226.097,584.808 226.84,584.13C228.278,582.815 229.678,581.456 231.215,580.255C231.784,579.81 232.559,579.063 233.332,579.076C234.435,579.095 235.344,580.294 235.991,581.044C237.835,583.183 239.881,586.157 240.197,589.038C240.46,591.441 238.616,592.014 236.783,593.212C235.282,594.193 233.889,595.307 232.486,596.42C231.72,597.028 230.963,597.648 230.18,598.234C229.955,598.402 229.552,598.815 229.234,598.722C228.643,598.551 228.325,597.187 228.147,596.712C227.412,594.752 226.648,592.798 225.763,590.9L223.311,587.002Z"
              style="fill: rgb(252, 255, 216); fill-opacity: 0.7"
            />
          </g>
          <g transform="matrix(0.623555,-2.77556e-17,-1.38778e-17,0.743279,82.0954,157.203)">
            <ellipse cx="226.077" cy="608.755" rx="16.943" ry="33.67" style="fill: rgb(241, 89, 40)" />
            <clipPath id="Yakuza-suit_10">
              <ellipse cx="226.077" cy="608.755" rx="16.943" ry="33.67" />
            </clipPath>
            <g clip-path="url(#Yakuza-suit_10)">
              <g transform="matrix(1.41409,0.098447,-0.108023,1.28874,-18.6034,-197.785)">
                <path
                  d="M207.081,608.172C207.383,608.153 207.064,607.568 207.068,607.266C207.075,606.635 207.093,606.005 207.134,605.376C207.254,603.524 207.478,601.661 208.001,599.877C209.761,593.869 216.3,585.624 223.429,587.586C223.99,587.74 225.359,588.053 225.65,588.638C225.879,589.099 225.143,589.92 224.918,590.245C223.909,591.703 222.902,593.14 222.116,594.737C220.24,598.543 219.198,602.665 218.736,606.872C218.044,613.172 218.601,619.976 220.908,625.918C221.747,628.079 222.868,630.077 224.273,631.92C224.533,632.261 225.815,633.37 225.685,633.864C225.59,634.226 223.606,633.48 223.392,633.41C221.029,632.634 218.66,631.411 216.613,630.008C210.044,625.504 206.748,617.339 205.651,609.72"
                  style="fill: rgb(56, 25, 57); fill-opacity: 0.5"
                />
              </g>
              <g transform="matrix(0.769783,-2.08167e-17,0,0.869528,57.6662,82.0991)">
                <ellipse cx="226.077" cy="608.755" rx="16.943" ry="33.67" style="fill: rgb(245, 171, 60)" />
                <clipPath id="Yakuza-suit_11">
                  <ellipse cx="226.077" cy="608.755" rx="16.943" ry="33.67" />
                </clipPath>
                <g clip-path="url(#Yakuza-suit_11)">
                  <g transform="matrix(1.837,0.113219,-0.140329,1.48211,-99.0794,-321.88)">
                    <path
                      d="M232.404,600.865C232.441,600.826 231.616,600.408 231.567,600.388C230.687,600.014 229.601,599.734 228.641,599.844C226.561,600.082 225.634,602.427 225.148,604.173C223.602,609.731 223.464,617.039 225.581,622.478C226.2,624.069 227.509,627.134 229.442,627.451C231.635,627.81 232.648,623.203 233.002,621.845C234.627,615.606 234.648,608.688 232.937,602.465"
                      style="fill: rgb(252, 255, 216); fill-opacity: 0.7"
                    />
                  </g>
                  <g transform="matrix(1.837,0.113219,-0.140329,1.48211,-99.0794,-321.88)">
                    <path
                      d="M230.435,597.698C230.004,597.575 229.513,596.907 229.13,596.658C227.813,595.803 226.447,595.474 224.908,595.908C222.32,596.638 221.472,599.827 220.933,602.129C219.557,608.008 219.089,614.786 220.317,620.732C221.05,624.278 222.276,627.944 224.005,631.134C224.573,632.181 225.242,633.158 225.958,634.11C226.258,634.51 226.898,635.106 226.93,635.638C226.968,636.267 225.744,636.163 225.399,636.11C223.936,635.889 222.56,634.977 221.359,634.167C218.094,631.966 215.595,628.99 213.987,625.394C209.276,614.858 210.126,600.476 216.37,590.686C217.235,589.331 218.274,588.021 219.494,586.966C220.145,586.403 220.882,585.897 221.69,585.589C227.512,583.368 230.731,590.358 231.377,594.907"
                      style="fill: rgb(56, 25, 57); fill-opacity: 0.5"
                    />
                  </g>
                </g>
                <ellipse cx="226.077" cy="608.755" rx="16.943" ry="33.67" style="fill: none; stroke: black; stroke-width: 3.44px" />
              </g>
            </g>
            <ellipse cx="226.077" cy="608.755" rx="16.943" ry="33.67" style="fill: none; stroke: black; stroke-width: 2.77px" />
          </g>
        </g>
        <ellipse cx="226.077" cy="608.755" rx="16.943" ry="33.67" style="fill: none; stroke: black; stroke-width: 1.94px" />
      </g>
    </g>
    <path
      d="M282.254,708.608C264.927,696.633 220.469,667.144 194.202,634.105C167.936,601.065 176.28,615.126 171.257,601.467C166.233,587.808 163.036,512.98 169.216,489.877C175.396,466.773 187.265,452.657 199.964,441.668C212.664,430.679 228.838,407.973 360.95,405.367C362.463,415.189 357.901,420.857 357.901,420.857C357.901,420.857 273.904,420.881 232.965,441.092C215.258,449.834 196.462,486.366 218.456,518.195C240.128,549.559 275.891,570.097 285.254,583.492C291.051,591.785 297.209,622.923 299.776,685.753C300.349,699.773 300.438,704.063 298.163,705.954C294.474,709.02 286.677,711.665 282.254,708.608Z"
      style="fill: none; stroke: black; stroke-width: 2.1px"
    />
    <g transform="matrix(-1,0,0,1,799.554,0)">
      <path
        d="M282.254,708.608C264.927,696.633 220.469,667.144 194.202,634.105C167.936,601.065 176.28,615.126 171.257,601.467C166.233,587.808 163.036,512.98 169.216,489.877C175.396,466.773 187.265,452.657 199.964,441.668C212.664,430.679 228.838,407.973 360.95,405.367C362.463,415.189 357.901,420.857 357.901,420.857C357.901,420.857 273.904,420.881 232.965,441.092C215.258,449.834 196.462,486.366 218.456,518.195C240.128,549.559 275.891,570.097 285.254,583.492C291.051,591.785 297.209,622.923 299.776,685.753C300.349,699.773 300.438,704.063 298.163,705.954C294.474,709.02 286.677,711.665 282.254,708.608Z"
        style="fill: rgb(94, 90, 89)"
      />
      <clipPath id="Yakuza-suit_12">
        <path
          d="M282.254,708.608C264.927,696.633 220.469,667.144 194.202,634.105C167.936,601.065 176.28,615.126 171.257,601.467C166.233,587.808 163.036,512.98 169.216,489.877C175.396,466.773 187.265,452.657 199.964,441.668C212.664,430.679 228.838,407.973 360.95,405.367C362.463,415.189 357.901,420.857 357.901,420.857C357.901,420.857 273.904,420.881 232.965,441.092C215.258,449.834 196.462,486.366 218.456,518.195C240.128,549.559 275.891,570.097 285.254,583.492C291.051,591.785 297.209,622.923 299.776,685.753C300.349,699.773 300.438,704.063 298.163,705.954C294.474,709.02 286.677,711.665 282.254,708.608Z"
        />
      </clipPath>
      <g clip-path="url(#Yakuza-suit_12)">
        <path
          d="M171.929,602.717C172.482,605.075 175.789,608.703 177.602,610.517C177.75,610.665 179.542,612.557 179.723,612.421C180.061,612.168 179.784,610.228 179.776,609.883C179.717,607.282 179.7,604.683 179.815,602.082C179.843,601.453 179.706,598.709 181.02,599.475C182.726,600.471 181.965,602.466 181.815,604.118C181.53,607.254 180.888,611.354 181.572,614.499C182.011,616.519 185.491,618.071 186.907,619.355C187.06,619.494 188.534,621.019 188.716,620.855C189.542,620.112 188.723,615.387 188.699,614.43C188.543,608.017 188.562,601.605 188.562,595.191C188.562,594.686 188.592,587.894 188.936,588.02C190.456,588.581 191.762,593.416 192.521,594.751C193.722,596.865 196.202,599.009 196.812,601.39C197.423,603.774 196.71,606.937 196.592,609.351C196.35,614.301 196.399,619.235 196.927,624.165C197.219,626.894 197.498,630.346 198.723,632.839C201.764,639.027 209.319,644.502 214.183,649.258C217.301,652.306 221.341,657.288 225.303,659.269C225.425,659.329 225.6,656.065 225.615,655.838C225.765,653.571 225.501,649.891 228.81,651.419C229.288,651.639 228.94,653.577 228.928,653.97C228.858,656.307 228.397,659.148 228.859,661.458C229.019,662.258 233.601,665.92 233.725,665.796C234.323,665.198 233.98,662.131 234.004,661.373C234.116,657.758 233.699,653.22 234.877,649.741C235.68,647.37 237.938,645.58 239.579,643.792C239.812,643.537 240.972,641.943 241.437,642.245C242.658,643.039 241.343,649.944 241.27,651.162C240.999,655.625 240.833,660.09 240.531,664.551C240.424,666.131 239.738,668.795 240.406,670.307C241.312,672.356 243.914,673.838 245.653,675.074C247.019,676.045 249.67,678.131 251.566,677.7C252.519,677.484 252.863,675.287 253.04,674.565C253.893,671.067 253.947,667.4 254.035,663.822C254.397,649.045 254.732,634.238 254.543,619.457C254.487,614.991 254.61,610.524 254.537,606.058C254.525,605.345 254.57,599.365 254.688,599.452C256.41,600.725 257.672,603.192 259.028,604.827C261.971,608.373 265.035,611.99 266.573,616.407C269.356,624.398 267.727,634.361 267.857,642.669C268.067,656.108 269.579,670.151 271.357,683.485C272.302,690.576 273.618,697.652 275.007,704.668C275.281,706.052 276.88,710.657 275.08,711.576C272.377,712.956 266.328,708.415 264.34,707.16C253.93,700.587 244.206,692.649 234.706,684.848C224.494,676.462 214.623,667.663 205.618,657.978C196.578,648.257 188.135,637.907 180.721,626.887C177.269,621.755 173.362,616.39 171.069,610.596"
          style="fill: rgb(56, 25, 57); fill-opacity: 0.7"
        />
        <path
          d="M224.959,558.37C223.028,556.284 218.148,555.062 215.674,553.694C209.022,550.015 202.01,545.707 196.762,540.111C189.212,532.061 182.978,520.989 179.561,510.517C178.172,506.259 178.36,499.983 176.328,496.138C176.155,495.81 176.346,496.881 176.331,497.251C176.3,498.015 176.26,498.78 176.185,499.541C175.963,501.786 175.59,504.001 175.258,506.231C174.247,513.002 173.576,519.858 173.24,526.698C172.741,536.864 173.987,546.974 174.18,557.133C174.424,569.973 173.793,582.81 174.177,595.657C174.333,600.883 174.986,606.414 174.541,611.624C174.462,612.546 173.905,616.361 172.441,616.216C169.5,615.926 166.654,608.098 165.797,606.031C160.851,594.105 158.299,580.907 156.207,568.224C150.777,535.317 151.94,494.601 168.815,464.811C175.025,453.847 186.094,440.06 199.027,436.765C204.204,435.447 203.101,442.031 202.548,445.114C200.807,454.826 197.837,464.205 197.088,474.096C195.349,497.052 201.784,524.067 214.807,543.264"
          style="fill: rgb(252, 255, 216); fill-opacity: 0.6"
        />
        <path
          d="M228.437,408.7C218.287,411.545 207.381,427.771 201.076,435.453C182.294,458.335 174.46,486.705 190.26,519.047C200.462,539.932 214.062,552.394 228.421,566.074C238.947,576.102 263.469,591.152 268.65,604.292C272.42,613.856 272.149,625.816 273.064,635.93C274.612,653.046 275.297,669.726 277.627,686.753C278.593,693.813 280.126,702.437 282.422,709.567C283.624,708.556 289.527,718.271 292.876,718.75C300.574,719.849 310.598,712.976 314.946,707.104C325.653,692.645 322.539,667.806 320.858,651.385C318.066,624.124 312.272,597.394 305.583,570.857C300.491,550.653 293.434,528.839 298.174,507.866C308.9,460.404 357.89,460.144 384.587,431.159C407.634,406.136 377.103,381.476 353.696,374.608C342.019,371.181 329.946,369.899 317.803,370.154C300.922,370.508 284.214,373.642 268.463,379.721"
          style="fill: rgb(237, 30, 121)"
        />
        <clipPath id="Yakuza-suit_13">
          <path
            d="M228.437,408.7C218.287,411.545 207.381,427.771 201.076,435.453C182.294,458.335 174.46,486.705 190.26,519.047C200.462,539.932 214.062,552.394 228.421,566.074C238.947,576.102 263.469,591.152 268.65,604.292C272.42,613.856 272.149,625.816 273.064,635.93C274.612,653.046 275.297,669.726 277.627,686.753C278.593,693.813 280.126,702.437 282.422,709.567C283.624,708.556 289.527,718.271 292.876,718.75C300.574,719.849 310.598,712.976 314.946,707.104C325.653,692.645 322.539,667.806 320.858,651.385C318.066,624.124 312.272,597.394 305.583,570.857C300.491,550.653 293.434,528.839 298.174,507.866C308.9,460.404 357.89,460.144 384.587,431.159C407.634,406.136 377.103,381.476 353.696,374.608C342.019,371.181 329.946,369.899 317.803,370.154C300.922,370.508 284.214,373.642 268.463,379.721"
          />
        </clipPath>
        <g clip-path="url(#Yakuza-suit_13)">
          <path
            d="M283.109,720.986C282.727,721.811 275.154,691.807 275.506,648.879C275.597,637.795 274.817,620.286 274.547,615.578C273.743,601.567 270.708,596.488 270.708,596.488C270.708,596.488 286.254,582.5 296.313,590.152C306.373,597.804 318.516,710.273 318.516,710.273L283.109,720.986ZM208.917,485.917C208.789,486.631 208.857,484.466 208.839,483.74C208.8,482.219 208.767,480.697 208.757,479.176C208.729,474.715 208.95,470.227 209.768,465.834C212.294,452.265 219.636,441.363 231.088,433.746C263.116,412.445 305.151,412.012 341.412,409.206C351.287,408.442 361.226,409.11 371.022,410.76C374.245,411.303 379.191,411.661 380.87,415.001C385.289,423.79 371.452,427.201 365.812,429.229C363.907,429.914 361.992,430.574 360.072,431.218C357.886,431.95 355.694,432.666 353.496,433.362C351.027,434.144 348.552,434.907 346.073,435.659C304.568,448.235 256.699,458.183 223.7,488.385L208.917,485.917Z"
            style="fill: rgb(56, 25, 57); fill-opacity: 0.6"
          />
          <g transform="matrix(-1,0,0,1,799.554,0)">
            <path
              d="M531.104,588.899C531.083,588.8 530.414,589.859 530.418,590.148C530.426,590.891 531.186,591.47 531.897,591.43C533.505,591.338 532.812,589.511 531.874,588.994L531.104,588.899ZM585.066,512.427C585.125,513.564 583.303,515.953 582.814,516.941C580.751,521.11 578.787,525.365 576.385,529.355C570.253,539.536 561.727,547.568 552.295,554.846C545.896,559.784 540.326,564.437 534.035,569.519C531.717,571.391 527.693,575.228 525.784,577.604C525.725,577.678 528.211,578.945 528.408,579.074C530.481,580.425 535.477,585.357 535.309,585.668C535.147,585.965 532.029,583.681 531.81,583.555C529.466,582.213 527.633,580.934 525.124,579.925C524.449,579.654 523.595,579.396 522.929,579.923C521.896,580.742 520.815,581.479 520.8,581.946C520.792,582.186 523.689,584.005 525.125,585.065C525.334,585.219 527.823,586.71 527.54,587.477C527.382,587.905 525.641,587.328 524.42,586.966C522.06,586.267 519.672,585.484 517.17,585.885C514.891,586.25 512.962,588.846 511.179,590.149C510.821,590.411 509.013,591.323 508.625,590.588C507.475,588.41 510.218,583.44 511.023,581.585C514.724,573.052 519.855,564.976 525.433,557.563C530.566,550.741 536.404,544.476 542.588,538.599C549.895,531.656 557.779,525.158 566.096,519.456C572.609,514.991 579.657,511.329 585.571,506.055L585.066,512.427ZM587.865,553.844C587.365,553.566 588.543,552.921 588.868,552.45C589.501,551.532 590.124,550.607 590.737,549.676C592.679,546.727 594.568,543.739 596.396,540.718C601.825,531.748 606.248,522.318 609.282,512.277C617.366,485.525 608.84,458.967 587.934,440.677C564.722,420.369 528.996,415.108 499.617,410.333C489.443,408.679 479.375,406.668 469.376,404.157C465.619,403.214 461.766,402.38 458.08,401.183C457.568,401.017 454.184,400.007 455.242,398.95C456.357,397.834 458.858,397.811 460.289,397.644C464.908,397.107 469.59,397.041 474.232,396.826C493.861,395.918 513.453,395.783 533.022,397.87C557.125,400.44 583.911,404.247 604.569,417.867C635.147,438.027 647.18,478.939 630.783,512.084C622.728,528.365 608.776,540.278 595.188,551.834L587.865,553.844Z"
              style="fill: rgb(252, 255, 216); fill-opacity: 0.6"
            />
          </g>
        </g>
        <path
          d="M228.437,408.7C218.287,411.545 207.381,427.771 201.076,435.453C182.294,458.335 174.46,486.705 190.26,519.047C200.462,539.932 214.062,552.394 228.421,566.074C238.947,576.102 263.469,591.152 268.65,604.292C272.42,613.856 272.149,625.816 273.064,635.93C274.612,653.046 275.297,669.726 277.627,686.753C278.593,693.813 280.126,702.437 282.422,709.567C283.624,708.556 289.527,718.271 292.876,718.75C300.574,719.849 310.598,712.976 314.946,707.104C325.653,692.645 322.539,667.806 320.858,651.385C318.066,624.124 312.272,597.394 305.583,570.857C300.491,550.653 293.434,528.839 298.174,507.866C308.9,460.404 357.89,460.144 384.587,431.159C407.634,406.136 377.103,381.476 353.696,374.608C342.019,371.181 329.946,369.899 317.803,370.154C300.922,370.508 284.214,373.642 268.463,379.721"
          style="fill: none; stroke: black; stroke-width: 2.1px"
        />
        <g transform="matrix(1.12751,-0.086131,0.0792857,1.0379,-80.2924,-4.50893)">
          <ellipse cx="226.077" cy="608.755" rx="16.943" ry="33.67" style="fill: rgb(245, 171, 60)" />
          <clipPath id="Yakuza-suit_14">
            <ellipse cx="226.077" cy="608.755" rx="16.943" ry="33.67" />
          </clipPath>
          <g clip-path="url(#Yakuza-suit_14)">
            <g transform="matrix(0.881763,0.0731736,-0.0673582,0.957891,70.4952,10.1943)">
              <path
                d="M229.301,633.299C229.48,633.405 229.735,633.753 229.92,633.873C230.487,634.24 231.043,634.623 231.615,634.982C233.577,636.215 235.59,639.109 237.372,636.425C237.589,636.1 237.864,635.72 237.968,635.339C238.057,635.01 235.603,634.109 235.288,633.934C234.221,633.339 233.177,632.714 232.092,632.149C231.849,632.023 231.226,631.546 230.927,631.646C230.386,631.828 229.864,632.791 229.532,633.241L229.301,633.299ZM229.301,633.299L229.119,633.344C229.156,633.252 229.221,633.251 229.301,633.299ZM243.691,599.274C243.272,599.516 241.916,599.288 241.435,599.307C239.619,599.381 237.801,599.557 235.994,599.748C235.589,599.79 233.926,599.746 233.661,600.121C233.433,600.444 233.803,601.134 233.899,601.447C234.235,602.538 234.336,603.693 234.453,604.824C234.939,609.489 235.322,614.061 235.089,618.76C235.021,620.122 234.925,621.487 234.746,622.839C234.705,623.144 234.415,624.016 234.614,624.304C235.114,625.028 237.523,625.31 238.283,625.571C239.533,626 240.785,626.457 242.012,626.95C242.339,627.081 243.055,627.528 243.401,627.253C244.077,626.714 244.065,624.934 244.137,624.195C244.213,623.418 244.261,622.637 244.303,621.858C244.373,620.57 244.419,619.282 244.441,617.993C244.496,614.833 244.527,611.671 244.542,608.51L243.691,599.274ZM214.418,567.919C214.437,568.167 214.421,568.876 214.437,569.172C214.481,569.993 214.492,570.815 214.508,571.637C214.553,573.976 214.12,580.837 214.669,580.692C215.71,580.416 221.494,580.329 221.387,580.684C221.387,580.684 223.98,576.227 224.989,574.926C225.516,574.247 229.199,571.887 228.746,570.908C228.102,569.516 224.65,569.221 223.395,568.882L214.418,567.919C214.41,567.816 214.396,567.793 214.371,567.914L214.418,567.919Z"
                style="fill: rgb(56, 25, 57); fill-opacity: 0.5"
              />
            </g>
            <g transform="matrix(0.881763,0.0731736,-0.0673582,0.957891,70.4952,10.1943)">
              <path
                d="M230.001,642.406C229.946,642.381 229.788,642.308 229.724,642.274C229.543,642.18 229.367,642.073 229.19,641.969C228.659,641.659 228.121,641.359 227.59,641.049C225.867,640.045 224.216,638.92 222.76,637.553C222.531,637.339 221.437,636.447 221.7,636.079C221.983,635.683 222.877,635.607 223.307,635.479C223.831,635.323 224.606,634.882 225.16,634.899C225.57,634.911 226.181,635.596 226.466,635.827C227.45,636.624 228.476,637.359 229.515,638.081C230.018,638.431 232.091,639.415 232.177,640.088C232.241,640.597 231.236,640.968 230.899,641.145L230.001,642.406C230.023,642.416 230.028,642.418 230,642.406L230.001,642.406ZM211.265,578.72C211.542,578.707 211.04,579.23 210.976,579.5C210.841,580.07 210.793,580.649 210.739,581.231C210.583,582.906 210.772,584.598 210.426,586.258C209.404,591.158 208.15,595.813 207.821,600.848C207.345,608.152 208.06,615.075 210.057,622.104C210.753,624.555 211.171,626.213 210.23,628.658C210.031,629.175 209.786,630.101 209.308,630.435C208.3,631.14 207.083,627.781 206.895,627.308C205.265,623.198 204.311,618.735 203.538,614.394C202.722,609.811 202.321,605.165 202.52,600.51C202.776,594.549 203.95,588.457 206.516,583.037C207.467,581.027 208.661,578.681 210.451,577.263L211.265,578.72ZM223.311,587.002C223.307,586.998 223.71,586.703 223.734,586.686C224.006,586.49 224.272,586.284 224.537,586.078C225.332,585.461 226.097,584.808 226.84,584.13C228.278,582.815 229.678,581.456 231.215,580.255C231.784,579.81 232.559,579.063 233.332,579.076C234.435,579.095 235.344,580.294 235.991,581.044C237.835,583.183 239.881,586.157 240.197,589.038C240.46,591.441 238.616,592.014 236.783,593.212C235.282,594.193 233.889,595.307 232.486,596.42C231.72,597.028 230.963,597.648 230.18,598.234C229.955,598.402 229.552,598.815 229.234,598.722C228.643,598.551 228.325,597.187 228.147,596.712C227.412,594.752 226.648,592.798 225.763,590.9L223.311,587.002Z"
                style="fill: rgb(252, 255, 216); fill-opacity: 0.7"
              />
            </g>
            <g transform="matrix(0.623555,-2.77556e-17,-1.38778e-17,0.743279,82.0954,157.203)">
              <ellipse cx="226.077" cy="608.755" rx="16.943" ry="33.67" style="fill: rgb(241, 89, 40)" />
              <clipPath id="Yakuza-suit_15">
                <ellipse cx="226.077" cy="608.755" rx="16.943" ry="33.67" />
              </clipPath>
              <g clip-path="url(#Yakuza-suit_15)">
                <g transform="matrix(1.41409,0.098447,-0.108023,1.28874,-18.6034,-197.785)">
                  <path
                    d="M207.081,608.172C207.383,608.153 207.064,607.568 207.068,607.266C207.075,606.635 207.093,606.005 207.134,605.376C207.254,603.524 207.478,601.661 208.001,599.877C209.761,593.869 216.3,585.624 223.429,587.586C223.99,587.74 225.359,588.053 225.65,588.638C225.879,589.099 225.143,589.92 224.918,590.245C223.909,591.703 222.902,593.14 222.116,594.737C220.24,598.543 219.198,602.665 218.736,606.872C218.044,613.172 218.601,619.976 220.908,625.918C221.747,628.079 222.868,630.077 224.273,631.92C224.533,632.261 225.815,633.37 225.685,633.864C225.59,634.226 223.606,633.48 223.392,633.41C221.029,632.634 218.66,631.411 216.613,630.008C210.044,625.504 206.748,617.339 205.651,609.72"
                    style="fill: rgb(56, 25, 57); fill-opacity: 0.5"
                  />
                </g>
                <g transform="matrix(0.769783,-2.08167e-17,0,0.869528,57.6662,82.0991)">
                  <ellipse cx="226.077" cy="608.755" rx="16.943" ry="33.67" style="fill: rgb(245, 171, 60)" />
                  <clipPath id="Yakuza-suit_16">
                    <ellipse cx="226.077" cy="608.755" rx="16.943" ry="33.67" />
                  </clipPath>
                  <g clip-path="url(#Yakuza-suit_16)">
                    <g transform="matrix(1.837,0.113219,-0.140329,1.48211,-99.0794,-321.88)">
                      <path
                        d="M232.404,600.865C232.441,600.826 231.616,600.408 231.567,600.388C230.687,600.014 229.601,599.734 228.641,599.844C226.561,600.082 225.634,602.427 225.148,604.173C223.602,609.731 223.464,617.039 225.581,622.478C226.2,624.069 227.509,627.134 229.442,627.451C231.635,627.81 232.648,623.203 233.002,621.845C234.627,615.606 234.648,608.688 232.937,602.465"
                        style="fill: rgb(252, 255, 216); fill-opacity: 0.7"
                      />
                    </g>
                    <g transform="matrix(1.837,0.113219,-0.140329,1.48211,-99.0794,-321.88)">
                      <path
                        d="M230.435,597.698C230.004,597.575 229.513,596.907 229.13,596.658C227.813,595.803 226.447,595.474 224.908,595.908C222.32,596.638 221.472,599.827 220.933,602.129C219.557,608.008 219.089,614.786 220.317,620.732C221.05,624.278 222.276,627.944 224.005,631.134C224.573,632.181 225.242,633.158 225.958,634.11C226.258,634.51 226.898,635.106 226.93,635.638C226.968,636.267 225.744,636.163 225.399,636.11C223.936,635.889 222.56,634.977 221.359,634.167C218.094,631.966 215.595,628.99 213.987,625.394C209.276,614.858 210.126,600.476 216.37,590.686C217.235,589.331 218.274,588.021 219.494,586.966C220.145,586.403 220.882,585.897 221.69,585.589C227.512,583.368 230.731,590.358 231.377,594.907"
                        style="fill: rgb(56, 25, 57); fill-opacity: 0.5"
                      />
                    </g>
                  </g>
                  <ellipse cx="226.077" cy="608.755" rx="16.943" ry="33.67" style="fill: none; stroke: black; stroke-width: 3.44px" />
                </g>
              </g>
              <ellipse cx="226.077" cy="608.755" rx="16.943" ry="33.67" style="fill: none; stroke: black; stroke-width: 2.77px" />
            </g>
          </g>
          <ellipse cx="226.077" cy="608.755" rx="16.943" ry="33.67" style="fill: none; stroke: black; stroke-width: 1.94px" />
        </g>
      </g>
      <path
        d="M282.254,708.608C264.927,696.633 220.469,667.144 194.202,634.105C167.936,601.065 176.28,615.126 171.257,601.467C166.233,587.808 163.036,512.98 169.216,489.877C175.396,466.773 187.265,452.657 199.964,441.668C212.664,430.679 228.838,407.973 360.95,405.367C362.463,415.189 357.901,420.857 357.901,420.857C357.901,420.857 273.904,420.881 232.965,441.092C215.258,449.834 196.462,486.366 218.456,518.195C240.128,549.559 275.891,570.097 285.254,583.492C291.051,591.785 297.209,622.923 299.776,685.753C300.349,699.773 300.438,704.063 298.163,705.954C294.474,709.02 286.677,711.665 282.254,708.608Z"
        style="fill: none; stroke: black; stroke-width: 2.1px"
      />
    </g>
  </g>
</svg>
