<svg
  width="100%"
  height="100%"
  viewBox="0 0 800 800"
  xmlns="http://www.w3.org/2000/svg"
>
  <g id="hairstyles-back">
    <g id="hairstyle-13-back">
      <path
        id="back-hair"
        d="M613.4,349.003C613.789,349.052 613.157,349.75 613.064,350.13C612.859,350.964 612.641,351.794 612.419,352.623C611.777,355.026 611.185,357.469 610.72,359.914C609.371,367.014 608.928,374.446 608.614,381.659C608.297,388.968 608.588,396.215 609.071,403.508C609.222,405.799 609.378,408.149 609.802,410.41C609.949,411.193 610.069,411.981 610.246,412.758C610.337,413.157 610.903,413.961 610.494,413.961C609.819,413.961 608.039,409.1 607.791,408.561C605.199,402.917 602.666,397.036 601.167,390.988C600.716,389.167 600.298,387.346 599.992,385.494C599.887,384.857 599.791,384.217 599.698,383.578C599.653,383.268 599.783,382.466 599.533,382.653C599.312,382.819 599.46,384.378 599.45,384.634C599.369,386.817 599.331,389.001 599.19,391.181C598.718,398.467 596.976,405.095 594.21,411.812C593.437,413.689 592.722,415.581 592.131,417.524C592.069,417.729 591.748,419.332 591.354,419.201C590.951,419.067 590.758,417.68 590.665,417.352C590.106,415.375 589.584,413.391 588.939,411.439C587.66,407.566 585.756,403.894 584.632,399.975C583.145,394.791 509.894,318.237 508.355,309.407C507.222,302.907 549.399,267.734 550.82,266.623C552.433,265.361 600.073,316.356 605.878,327.278C607.697,330.701 609.306,334.253 610.46,337.958C611.39,340.943 611.678,343.907 613.601,346.436"
        style="fill: rgb(128, 37, 164); stroke: black; stroke-width: 2.1px"
      />
    </g>
  </g>
</svg>
