<svg
  width="100%"
  height="100%"
  viewBox="0 0 800 800"
  xmlns="http://www.w3.org/2000/svg"
>
  <g id="hairstyles-back">
    <g id="hairstyle-6-back">
      <path
        d="M394.691,70.096C396.354,69.888 404.284,69.888 405.947,70.096L405.946,70.186C415.307,71.059 426.603,73.48 435.725,76.049C458.074,82.344 513.101,117.168 541.819,150.889C559.628,171.801 573.381,195.916 588.877,218.5C619.296,262.831 650.787,306.802 687.836,345.925C701.13,359.964 714.836,373.733 729.201,386.676C733.71,390.739 738.347,394.401 743.777,397.165C744.493,397.529 749.868,398.796 749.825,399.268C748.132,417.889 726.496,439.398 709.287,444.601C703.553,446.335 688.38,445.995 688.38,445.995C688.38,445.995 671.161,463.194 658.472,467.658C650.896,470.324 627.285,471.282 627.285,471.282C627.285,471.282 617.223,487.835 608.059,493.195C591.784,502.715 568.844,500.188 568.844,500.188C568.844,500.188 547.761,517.929 535.062,523.244C520.719,529.249 494.17,526.599 494.17,526.599C494.17,526.599 479.004,539.89 475.413,542.545C461.177,553.067 445.982,560.651 429.347,566.523C421.636,569.244 414.749,573.459 408.534,578.736C406.558,580.414 401.503,584.617 399.671,586.45C399.573,586.548 394.079,580.414 392.104,578.736C385.889,573.459 379.002,569.244 371.291,566.523C354.655,560.651 339.461,553.067 325.225,542.545C321.634,539.89 306.468,526.599 306.468,526.599C306.468,526.599 279.919,529.249 265.575,523.244C252.877,517.929 231.794,500.188 231.794,500.188C231.794,500.188 208.854,502.715 192.578,493.195C183.415,487.835 173.353,471.282 173.353,471.282C173.353,471.282 149.741,470.324 142.166,467.658C129.477,463.194 112.258,445.995 112.258,445.995C112.258,445.995 97.084,446.335 91.351,444.601C74.142,439.398 52.506,417.889 50.813,399.268C50.77,398.796 56.145,397.529 56.861,397.165C62.291,394.401 66.928,390.739 71.436,386.676C85.801,373.733 99.508,359.964 112.801,345.925C149.85,306.802 181.342,262.831 211.761,218.5C227.257,195.916 241.01,171.801 258.819,150.889C287.536,117.168 342.564,82.344 364.913,76.049C374.035,73.48 385.33,71.059 394.691,70.186L394.691,70.096Z"
        style="
          fill: rgb(
            calc(var(--color_hairs_r, 38) + 112),
            calc(var(--color_hairs_g, 183) - 123),
            calc(var(--color_hairs_b, 200) + 13)
          );
        "
      />
      <clipPath id="_clip1_hair6">
        <path
          d="M394.691,70.096C396.354,69.888 404.284,69.888 405.947,70.096L405.946,70.186C415.307,71.059 426.603,73.48 435.725,76.049C458.074,82.344 513.101,117.168 541.819,150.889C559.628,171.801 573.381,195.916 588.877,218.5C619.296,262.831 650.787,306.802 687.836,345.925C701.13,359.964 714.836,373.733 729.201,386.676C733.71,390.739 738.347,394.401 743.777,397.165C744.493,397.529 749.868,398.796 749.825,399.268C748.132,417.889 726.496,439.398 709.287,444.601C703.553,446.335 688.38,445.995 688.38,445.995C688.38,445.995 671.161,463.194 658.472,467.658C650.896,470.324 627.285,471.282 627.285,471.282C627.285,471.282 617.223,487.835 608.059,493.195C591.784,502.715 568.844,500.188 568.844,500.188C568.844,500.188 547.761,517.929 535.062,523.244C520.719,529.249 494.17,526.599 494.17,526.599C494.17,526.599 479.004,539.89 475.413,542.545C461.177,553.067 445.982,560.651 429.347,566.523C421.636,569.244 414.749,573.459 408.534,578.736C406.558,580.414 401.503,584.617 399.671,586.45C399.573,586.548 394.079,580.414 392.104,578.736C385.889,573.459 379.002,569.244 371.291,566.523C354.655,560.651 339.461,553.067 325.225,542.545C321.634,539.89 306.468,526.599 306.468,526.599C306.468,526.599 279.919,529.249 265.575,523.244C252.877,517.929 231.794,500.188 231.794,500.188C231.794,500.188 208.854,502.715 192.578,493.195C183.415,487.835 173.353,471.282 173.353,471.282C173.353,471.282 149.741,470.324 142.166,467.658C129.477,463.194 112.258,445.995 112.258,445.995C112.258,445.995 97.084,446.335 91.351,444.601C74.142,439.398 52.506,417.889 50.813,399.268C50.77,398.796 56.145,397.529 56.861,397.165C62.291,394.401 66.928,390.739 71.436,386.676C85.801,373.733 99.508,359.964 112.801,345.925C149.85,306.802 181.342,262.831 211.761,218.5C227.257,195.916 241.01,171.801 258.819,150.889C287.536,117.168 342.564,82.344 364.913,76.049C374.035,73.48 385.33,71.059 394.691,70.186L394.691,70.096Z"
        />
      </clipPath>
      <g clip-path="url(#_clip1_hair6)">
        <path
          d="M400.422,574.472C400.981,574.471 401.526,574.415 401.963,574.205C409.892,570.399 416.976,564.711 425.178,561.43C439.877,555.55 448.246,551.256 462.106,543.279C469.399,539.083 493.13,517.792 493.13,517.792C493.13,517.792 510.955,520.33 521.769,517.113C532.968,513.781 543.755,507.627 553.77,501.688C557.628,499.4 561.652,495.534 565.831,493.926C568.62,492.854 574.266,494.437 577.342,494.229C583.983,493.78 590.309,491.393 596.34,488.72C603.868,485.384 610.71,480.308 616.273,474.255C618.832,471.47 621.337,466.285 624.611,464.351C627.791,462.472 636.319,464.604 640.01,464.255C649.995,463.309 659.562,460.08 667.676,454.117C672.68,450.44 677.939,442.564 683.776,440.462C688.905,438.616 696.325,440.535 701.744,440.023C711.234,439.125 719.062,434.342 725.962,427.962C734.85,419.743 742.786,410.695 750.304,401.216C750.881,400.488 756.363,392.487 757.708,393.619C760.094,395.629 756.844,416.342 756.348,419.101C750.738,450.357 728.786,473.032 704.024,491.33C641.324,537.666 558.691,541.064 488.945,571.21C472.693,578.235 455.041,585.527 441.388,597.132C430.776,606.152 417.151,621.019 402.277,624.944L402.267,625.683C401.65,625.601 401.036,625.498 400.422,625.375C399.809,625.498 399.194,625.601 398.578,625.683L398.567,624.944C383.693,621.019 370.069,606.152 359.457,597.132C345.803,585.527 328.151,578.235 311.899,571.21C242.154,541.064 159.521,537.666 96.82,491.33C72.059,473.032 50.106,450.357 44.496,419.101C44.001,416.342 40.75,395.629 43.136,393.619C44.481,392.487 49.963,400.488 50.541,401.216C58.058,410.695 65.994,419.743 74.882,427.962C81.782,434.342 89.611,439.125 99.101,440.023C104.519,440.535 111.939,438.616 117.068,440.462C122.906,442.564 128.165,450.44 133.168,454.117C141.282,460.08 150.85,463.309 160.834,464.255C164.526,464.604 173.054,462.472 176.233,464.351C179.507,466.285 182.013,471.47 184.572,474.255C190.134,480.308 196.977,485.384 204.504,488.72C210.536,491.393 216.861,493.78 223.502,494.229C226.578,494.437 232.224,492.854 235.014,493.926C239.192,495.534 243.217,499.4 247.075,501.688C257.09,507.627 267.877,513.781 279.076,517.113C289.889,520.33 307.715,517.792 307.715,517.792C307.715,517.792 331.446,539.083 338.738,543.279C352.599,551.256 360.968,555.55 375.666,561.43C383.869,564.711 390.952,570.399 398.882,574.205C399.318,574.415 399.864,574.471 400.422,574.472Z"
          style="
            fill: rgb(
              calc(var(--color_hairs_r, 38) + 203),
              calc(var(--color_hairs_g, 183) - 93),
              calc(var(--color_hairs_b, 200) - 164)
            );
          "
        />
      </g>
      <path
        d="M394.691,70.096C396.354,69.888 404.284,69.888 405.947,70.096L405.946,70.186C415.307,71.059 426.603,73.48 435.725,76.049C458.074,82.344 513.101,117.168 541.819,150.889C559.628,171.801 573.381,195.916 588.877,218.5C619.296,262.831 650.787,306.802 687.836,345.925C701.13,359.964 714.836,373.733 729.201,386.676C733.71,390.739 738.347,394.401 743.777,397.165C744.493,397.529 749.868,398.796 749.825,399.268C748.132,417.889 726.496,439.398 709.287,444.601C703.553,446.335 688.38,445.995 688.38,445.995C688.38,445.995 671.161,463.194 658.472,467.658C650.896,470.324 627.285,471.282 627.285,471.282C627.285,471.282 617.223,487.835 608.059,493.195C591.784,502.715 568.844,500.188 568.844,500.188C568.844,500.188 547.761,517.929 535.062,523.244C520.719,529.249 494.17,526.599 494.17,526.599C494.17,526.599 479.004,539.89 475.413,542.545C461.177,553.067 445.982,560.651 429.347,566.523C421.636,569.244 414.749,573.459 408.534,578.736C406.558,580.414 401.503,584.617 399.671,586.45C399.573,586.548 394.079,580.414 392.104,578.736C385.889,573.459 379.002,569.244 371.291,566.523C354.655,560.651 339.461,553.067 325.225,542.545C321.634,539.89 306.468,526.599 306.468,526.599C306.468,526.599 279.919,529.249 265.575,523.244C252.877,517.929 231.794,500.188 231.794,500.188C231.794,500.188 208.854,502.715 192.578,493.195C183.415,487.835 173.353,471.282 173.353,471.282C173.353,471.282 149.741,470.324 142.166,467.658C129.477,463.194 112.258,445.995 112.258,445.995C112.258,445.995 97.084,446.335 91.351,444.601C74.142,439.398 52.506,417.889 50.813,399.268C50.77,398.796 56.145,397.529 56.861,397.165C62.291,394.401 66.928,390.739 71.436,386.676C85.801,373.733 99.508,359.964 112.801,345.925C149.85,306.802 181.342,262.831 211.761,218.5C227.257,195.916 241.01,171.801 258.819,150.889C287.536,117.168 342.564,82.344 364.913,76.049C374.035,73.48 385.33,71.059 394.691,70.186L394.691,70.096Z"
        style="fill: none; stroke: black; stroke-width: 2.1px"
      />
    </g>
  </g>
</svg>
