<svg
  width="100%"
  height="100%"
  viewBox="0 0 800 800"
  xmlns="http://www.w3.org/2000/svg"
  style="
    fill-rule: evenodd;
    clip-rule: evenodd;
    stroke-linecap: round;
    stroke-linejoin: round;
    stroke-miterlimit: 1.5;
  "
>
  <g
    transform="matrix(0.345139,0,0,0.345139,46.1914,15.8803)"
    style="
      fill-rule: evenodd;
      clip-rule: evenodd;
      stroke-linecap: round;
      stroke-linejoin: round;
      stroke-miterlimit: 1.5;
    "
  >
    <g id="Business-emotions">
      <g id="scheming">
        <g id="Mouth">
          <path
            d="M1123.07,1459.19C1122.41,1465.49 1027.83,1560.16 925.019,1459.31C939.961,1462.02 935.215,1467.66 964.235,1472.1C993.254,1476.53 1000.12,1482.12 1046.9,1477C1094.86,1471.74 1116.35,1459.34 1123.07,1459.19Z"
            style="fill: rgb(56, 25, 57); fill-opacity: 0.5"
          />
          <path
            d="M926.587,1458.34C926.587,1458.34 1009.48,1503.83 1122.22,1458.69"
            style="fill: none; stroke: black; stroke-width: 6.08px"
          />
          <path
            d="M866.665,1355.14C867.166,1356.53 869.52,1354.18 871.003,1354.15C874.38,1354.07 877.679,1354.77 880.857,1355.85C892.887,1359.93 907.444,1362.79 920.133,1364.29C942.075,1366.9 963.484,1369.97 985.701,1371.63C1026.24,1374.66 1064.69,1371.22 1104.92,1367.04C1127.75,1364.66 1170.61,1352.45 1190.19,1350.15C1196.24,1349.44 1193.3,1350.7 1191.13,1353.38C1184.66,1361.37 1167.71,1377.76 1161.1,1385.63C1148.08,1401.13 1134.36,1418.21 1115.88,1427.55C1100,1435.58 1079,1437.76 1061.48,1439.39C1048.72,1440.58 1036.07,1442.22 1023.2,1442.22C1008.75,1442.23 993.613,1441.17 979.333,1439.74C966.261,1438.43 941.547,1431.13 929.39,1424.08C903.761,1409.21 891.972,1404.52 881.114,1376.9C879.965,1373.98 871.586,1357.72 872.979,1355.54"
            style="fill: white"
          />
          <clipPath id="_clip1_mouth_business_scheming">
            <path
              d="M866.665,1355.14C867.166,1356.53 869.52,1354.18 871.003,1354.15C874.38,1354.07 877.679,1354.77 880.857,1355.85C892.887,1359.93 907.444,1362.79 920.133,1364.29C942.075,1366.9 963.484,1369.97 985.701,1371.63C1026.24,1374.66 1064.69,1371.22 1104.92,1367.04C1127.75,1364.66 1170.61,1352.45 1190.19,1350.15C1196.24,1349.44 1193.3,1350.7 1191.13,1353.38C1184.66,1361.37 1167.71,1377.76 1161.1,1385.63C1148.08,1401.13 1134.36,1418.21 1115.88,1427.55C1100,1435.58 1079,1437.76 1061.48,1439.39C1048.72,1440.58 1036.07,1442.22 1023.2,1442.22C1008.75,1442.23 993.613,1441.17 979.333,1439.74C966.261,1438.43 941.547,1431.13 929.39,1424.08C903.761,1409.21 891.972,1404.52 881.114,1376.9C879.965,1373.98 871.586,1357.72 872.979,1355.54"
            />
          </clipPath>
          <g clip-path="url(#_clip1_mouth_business_scheming)">
            <path
              d="M934.571,1400.77C927.813,1397.38 907.546,1385.72 901.695,1380.86C899.038,1378.66 896.377,1377.36 894.815,1374.13C893.788,1372.01 892.403,1370.13 891.278,1368.07C891.224,1367.97 890.182,1366.34 890.286,1366.24C890.877,1365.72 897.219,1368.38 898.171,1368.61C906.865,1370.69 915.308,1373.38 924.086,1375.16C944.976,1379.42 1007.28,1386.35 1019.12,1385.94C1053.98,1384.73 1089.42,1381.23 1123.54,1374.03C1132.03,1372.24 1140.68,1371.38 1149.15,1369.37C1149.85,1369.21 1157.03,1366.26 1157.41,1366.65C1157.89,1367.15 1156.68,1369.01 1156.46,1369.43C1155.02,1372.28 1153.15,1375.09 1150.98,1377.43C1143.75,1385.22 1133.99,1388.4 1125.13,1393.67C1122.92,1394.99 1120.08,1398.06 1121.29,1397.88C1126.24,1397.17 1131.26,1396.61 1136.17,1395.71C1136.58,1395.63 1140.34,1394.5 1140.67,1394.87C1141.45,1395.76 1137.58,1399.02 1137.23,1399.43C1133.01,1404.32 1129.59,1409.31 1124.61,1413.59C1116.38,1420.65 1090.38,1431.08 1087.37,1432.91C1086.4,1433.5 1087.63,1434.82 1088.31,1434.65C1093.59,1433.35 1098.87,1432.11 1104.12,1430.72C1113.57,1428.21 1122.12,1425.54 1130.28,1419.94C1145.68,1409.4 1155.85,1392.38 1167.01,1377.84C1171.88,1371.5 1176.3,1364.87 1180.85,1358.31C1181.41,1357.51 1185.42,1353.3 1184.83,1352.16C1184.48,1351.48 1182.27,1351.84 1181.71,1351.88C1178.25,1352.11 1174.83,1352.6 1171.47,1353.45C1157.65,1356.95 1143.89,1360.74 1129.99,1363.95C1096.68,1371.64 1062.5,1372.07 1028.42,1373.97C1000.44,1375.54 972.563,1372.2 944.876,1368.7C933.235,1367.23 921.697,1364.13 910.172,1361.9C905.122,1360.92 900.187,1361.46 895.338,1359.84C890.051,1358.08 866.721,1352.61 861.239,1351.85C858.902,1351.53 894.174,1393.02 895.775,1395.03C906.757,1408.84 922.214,1420.84 938.215,1428.13C940.906,1429.35 948.083,1433.65 954.753,1435.6C963.831,1438.26 972.319,1438.38 970.514,1437.36C959.636,1431.16 944.101,1427.42 932.728,1420.06C919.523,1411.5 913.158,1403.07 912.153,1402.22C911.882,1401.99 912.663,1400.82 912.789,1400.83C914.347,1401.05 915.899,1401.21 917.47,1401.29C923.504,1401.62 936.59,1402.2 934.571,1400.77Z"
              style="fill: rgb(56, 25, 57); fill-opacity: 0.5"
            />
            <path
              d="M1081.81,1407.92C1110.61,1402.27 1140.27,1397.11 1165.16,1380.65C1171.61,1376.38 1178.67,1371.83 1183.67,1365.82"
              style="fill: none; stroke: rgb(1, 0, 0); stroke-width: 6.08px"
            />
            <path
              d="M967.56,1408.62C968.542,1409.21 965.331,1408.07 964.207,1407.84C961.988,1407.38 959.788,1406.84 957.563,1406.41C950.739,1405.09 943.899,1403.87 937.066,1402.6C916.096,1398.7 895.811,1389.98 878.875,1376.99"
              style="fill: none; stroke: rgb(1, 0, 0); stroke-width: 6.08px"
            />
          </g>
          <path
            d="M826.21,1333.84C826.21,1333.84 852.635,1350.63 897.87,1359.26C977.827,1374.51 1108.11,1389.55 1221.69,1332.49C1211.67,1350.22 1176.24,1396.61 1130.8,1420.22C1077.25,1448.04 992.624,1442.78 972.435,1439.37C962.378,1437.67 917.109,1424.79 888.959,1401C850.443,1368.46 826.21,1333.84 826.21,1333.84ZM872.214,1352.12C1018.8,1391.14 1141.18,1366.53 1182.84,1349.7C1164.1,1377.41 1148.59,1400.79 1134.16,1414.07C1120.4,1426.73 1107.67,1429.83 1093.1,1433.88C1075.33,1438.82 1009.8,1446.76 965.207,1437.72C948.408,1434.31 924.421,1420.05 918.575,1415.64C907.173,1407.06 880.957,1366.32 872.214,1352.12Z"
            style="stroke: black; stroke-width: 6.08px"
          />
          <g transform="matrix(1,0,0,1,624,624)">
            <path
              d="M583.515,713.701C583.862,713.479 582.729,713.401 582.415,713.133C581.669,712.495 581.017,711.751 580.361,711.023C578.432,708.883 571.88,704.062 574.296,700.746C575.74,698.764 579.027,699.206 581.109,699.423C586.228,699.955 595.976,700.779 599.678,705.05C601.487,707.136 600.336,710.701 599.204,712.782C596.134,718.426 590.893,722.686 584.952,725.039L583.515,713.701ZM202.465,710.887C202.758,711.081 202.036,710.332 201.832,710.046C201.396,709.434 201.17,708.657 201.296,707.905C201.638,705.867 203.598,704.096 205.199,702.993C209.559,699.992 215.99,699.546 221.128,699.037C222.744,698.877 225.835,698.765 226.978,700.235C228.655,702.391 225.272,705.291 224.042,706.625C220.742,710.201 214.849,716.981 218.596,722.07L202.465,710.887Z"
            />
          </g>
          <path
            d="M993.77,1357.35C993.084,1357.19 995.183,1357.21 995.884,1357.29C997.38,1357.45 998.884,1357.51 1000.39,1357.54C1004.89,1357.63 1009.4,1357.55 1013.9,1357.66C1027.33,1358 1041.96,1359.47 1055.34,1357.9"
            style="fill: none; stroke: black; stroke-width: 6.08px"
          />
          <g transform="matrix(2.89739,0,0,2.89739,-133.834,-46.0114)">
            <path
              d="M422.609,514.85C423.238,513.982 425.991,513.458 427.104,513.129C428.168,512.813 429.239,512.507 430.321,512.258C439.829,510.072 425.939,521.302 422.783,516.568"
              style="fill: rgb(252, 255, 216); fill-opacity: 0.7"
            />
          </g>
        </g>
      </g>
    </g>
  </g>
</svg>
