<?xml version="1.0" ?>
<svg width="32px" height="32px" viewBox="0 0 32 32" id="OBJECT"
    xmlns="http://www.w3.org/2000/svg">
    <title/>
    <path d="M24.67,29.77l-2.14-.17A4,4,0,0,1,19,24.88a7.89,7.89,0,0,0,.15-1.51A7.21,7.21,0,0,0,17,18.21V9.67h2.33A7.68,7.68,0,0,0,27,2a1,1,0,0,0-1-1H22.67A7.67,7.67,0,0,0,16,4.89,7.67,7.67,0,0,0,9.33,1H6A1,1,0,0,0,5,2a7.68,7.68,0,0,0,7.67,7.67H15v6.45h-.12A15,15,0,0,0,8.62,18a8.66,8.66,0,0,1,.74,6.38,6.44,6.44,0,0,0-.23,1.76,6.68,6.68,0,0,0,1.54,4.27l.21.25a2.43,2.43,0,0,1,.24.32H26.3A1.9,1.9,0,0,0,24.67,29.77Z"/>
    <path d="M17.81,16.19l.48.47a9.38,9.38,0,0,1,2.85,6.71,9.49,9.49,0,0,1-.19,1.9,1.95,1.95,0,0,0,1.74,2.33l2.15.17a3.91,3.91,0,0,1,3.45,2.88,1.51,1.51,0,0,0,.14.35H31A15,15,0,0,0,17.81,16.19Z"/>
    <path d="M7.43,23.87a6.61,6.61,0,0,0-.49-4.73A15,15,0,0,0,1,31H8.61a8.55,8.55,0,0,1-1.48-4.84A8.78,8.78,0,0,1,7.43,23.87Z"/>
</svg>