<?xml version="1.0" encoding="iso-8859-1"?>
<!-- Generator: Adobe Illustrator 19.0.0, SVG Export Plug-In . SVG Version: 6.00 Build 0)  -->
<svg version="1.1" id="Layer_1"
	xmlns="http://www.w3.org/2000/svg"
	xmlns:xlink="http://www.w3.org/1999/xlink" x="0px" y="0px" viewBox="0 0 209.869 209.869" style="enable-background:new 0 0 209.869 209.869;" xml:space="preserve">
	<g>
		<g>
			<g>
				<path d="M186.143,37.684H47.186c-13.084,0-23.726,9.734-23.726,21.7v1.902C10.5,61.421,0,71.091,0,82.973v67.511
				c0,11.966,10.644,21.7,23.726,21.7h138.957c13.082,0,23.726-9.734,23.726-21.7v-1.902c12.957-0.132,23.46-9.802,23.46-21.687
				V59.385C209.872,47.419,199.225,37.684,186.143,37.684z M171.195,150.484c0,3.515-3.896,6.482-8.509,6.482H23.729
				c-4.613,0-8.509-2.967-8.509-6.482v-67.51c0-3.513,3.898-6.482,8.509-6.482h138.957c4.613,0,8.509,2.97,8.509,6.482V150.484z
				 M186.412,133.356V82.973c0-11.966-10.644-21.7-23.726-21.7H38.677v-1.889c0-3.513,3.898-6.482,8.509-6.482h138.957
				c4.613,0,8.509,2.97,8.509,6.482v67.511h0.003C194.654,130.339,190.904,133.242,186.412,133.356z"/>
				<path d="M93.479,111.028c-6.404-0.763-9.655-1.676-9.655-4.558c0-4.464,6.462-4.946,9.242-4.946c4.091,0,8.615,1.978,10.089,4.41
				l0.586,0.971l9.346-4.324l-0.571-1.164c-3.289-6.718-9.12-8.747-13.622-9.572V85.9H87.962v5.914
				c-9.627,1.499-15.336,6.921-15.336,14.654c0,12.724,11.935,14.058,19.825,14.943c7.172,0.847,10.515,2.569,10.515,5.417
				c0,5.509-7.781,5.937-10.168,5.937c-5.351,0-10.505-2.65-11.986-6.168l-0.495-1.169l-10.14,4.296l0.5,1.169
				c2.853,6.68,8.968,10.893,17.282,11.943v6.409H98.89v-6.729c7.979-0.984,15.666-6.087,15.666-15.691
				C114.559,113.628,101.876,112.065,93.479,111.028z"/>
			</g>
		</g>
	</g>
	<g>
	</g>
	<g>
	</g>
	<g>
	</g>
	<g>
	</g>
	<g>
	</g>
	<g>
	</g>
	<g>
	</g>
	<g>
	</g>
	<g>
	</g>
	<g>
	</g>
	<g>
	</g>
	<g>
	</g>
	<g>
	</g>
	<g>
	</g>
	<g>
	</g>
</svg>
