<svg width="100%" height="100%" viewBox="0 0 800 800" version="1.1" xmlns="http://www.w3.org/2000/svg" style="fill-rule:evenodd;clip-rule:evenodd;stroke-linecap:round;stroke-linejoin:round;stroke-miterlimit:1.5;">
  <style>
  :root {
    --color_hairs_r : 200;
    --color_hairs_g : 202;
    --color_hairs_b : 12;
  }
  </style>
    <g id="hairstyles-back" >
        <g id="anime-hair-hat-back">
            <path d="M586.452,338.373C589.101,302.73 566.957,192.35 398.558,190.178C256.835,188.35 212.414,322.077 210.607,356.632C209.146,384.567 201.102,435.75 196.637,463.434C194.725,475.29 188.622,487.968 187.55,499.555C187.412,501.047 189.693,497.457 190.817,496.466C192.816,494.704 194.847,492.987 196.969,491.375C202.88,486.884 208.138,481.773 212.48,475.722C212.918,475.112 218.68,466.113 219.201,466.342C219.614,466.523 217.969,470.444 217.866,470.733C213.894,481.912 209.283,493.475 203.402,503.808C201.96,506.341 200.387,508.824 198.72,511.216C198.579,511.419 196.755,514.17 196.825,514.195C198.256,514.697 205.196,505.754 206.101,504.749C212.063,498.129 218.127,490.747 222.278,482.828C222.432,482.533 224.477,478.341 224.735,478.454C225.282,478.694 222.586,488.599 222.419,489.473C221.57,493.924 221.083,522.436 224.203,524.374C226.373,525.722 224.482,519.273 224.652,516.725C224.689,516.153 224.728,515.58 224.767,515.008C225.256,507.849 225.555,499.804 228.5,493.103C228.52,493.056 228.642,492.598 228.697,492.603C228.822,492.614 228.776,494.839 228.781,494.965C228.902,498.098 229.196,501.263 229.684,504.359C231.713,517.259 235.457,530.057 240.606,542.049C240.759,542.404 241.77,545.435 242.262,545.399C242.591,545.375 242.019,540.461 241.994,540.125C241.274,530.526 242.114,503.035 244.384,502.608C244.968,502.498 245.889,506.205 246.025,506.583C250.604,519.261 255.689,530.736 258.502,544.05C259.14,547.067 259.77,550.078 260.299,553.116C260.334,553.318 260.942,556.768 261.09,556.71C261.362,556.605 261.406,555.064 261.436,554.841C262.809,544.642 264.301,534.457 265.647,524.254C265.755,523.432 266.926,513.181 267.467,513.448C273.045,516.208 275.244,545.342 275.003,551.322C274.967,552.207 273.929,565.545 273.968,565.549C276.065,565.742 280.009,545.283 281.768,545.446C282.343,545.499 283.732,556.726 283.854,557.455C286.19,571.323 287.349,585.279 287.043,599.355C286.956,603.377 286.845,607.395 286.598,611.411C286.472,613.461 284.645,618.646 286.395,617.57C288.959,615.994 290.255,605.507 291.116,602.734C291.741,600.72 291.812,595.123 293.16,596.745C295.063,599.037 299.776,640.677 301.067,649.062C301.351,650.909 301.411,663.715 302.889,664.633C306.412,666.821 308.216,656.956 312.343,656.542C316.184,656.158 331.378,677.491 334.281,681.167C349.437,700.36 365.296,715.003 386.755,727.15C391.632,729.91 403.087,737.795 409.13,736.542C415.663,735.189 424.032,718.469 427.861,713.627C440.19,698.038 451.629,681.983 461.71,664.826C466.405,656.836 469.883,644.766 476.017,637.894C479.343,634.168 491.204,652.925 495.632,651.2C496.346,650.923 496.166,639.007 496.306,637.848C497.933,624.348 497.706,608.002 503.823,595.577C505.666,591.831 513.041,605.967 514.558,603.525C517.888,598.164 518.354,561.616 519.22,554.056C519.332,553.073 520.885,538.959 521.025,538.972C521.184,538.987 521.531,547.248 521.574,547.75C522.043,553.139 522.796,558.461 524.182,563.696C524.277,564.054 526.345,571.229 526.909,570.882C527.328,570.625 527.069,568.67 527.061,568.304C526.791,555.143 528.45,542.072 530.258,529.068C530.378,528.207 531.796,516.799 532.565,516.968C532.949,517.053 533.089,518.662 533.16,518.946C535.792,529.585 538.456,540.356 539.939,551.22C540.275,553.685 540.562,556.158 540.743,558.639C540.761,558.879 540.992,562.486 541.104,562.453C545.878,561.037 554.531,529.311 555.198,523.576C555.628,519.872 555.886,516.149 556.12,512.429C556.139,512.139 556.541,507.866 556.542,507.867C557.394,508.302 563.553,532.069 564.033,534.784C564.481,537.315 564.828,539.874 565.032,542.437C565.126,543.627 564.519,546.759 565.437,545.996C568.037,543.836 567.322,530.99 567.608,527.9C569.424,508.262 567.193,490.268 566.078,470.859C565.908,467.882 563.992,449.727 567.154,448.017C567.597,447.777 574.57,471.939 574.69,471.893C576.322,471.257 575.056,458.976 576.605,449.064C579.116,432.997 585.244,354.627 586.452,338.373Z" style="fill: rgb(var(--color_hairs_r, 183), var(--color_hairs_g, 55), var(--color_hairs_b, 88))"/>
            <clipPath id="_clip1_hair_9_hat">
                <path d="M586.452,338.373C589.101,302.73 566.957,192.35 398.558,190.178C256.835,188.35 212.414,322.077 210.607,356.632C209.146,384.567 201.102,435.75 196.637,463.434C194.725,475.29 188.622,487.968 187.55,499.555C187.412,501.047 189.693,497.457 190.817,496.466C192.816,494.704 194.847,492.987 196.969,491.375C202.88,486.884 208.138,481.773 212.48,475.722C212.918,475.112 218.68,466.113 219.201,466.342C219.614,466.523 217.969,470.444 217.866,470.733C213.894,481.912 209.283,493.475 203.402,503.808C201.96,506.341 200.387,508.824 198.72,511.216C198.579,511.419 196.755,514.17 196.825,514.195C198.256,514.697 205.196,505.754 206.101,504.749C212.063,498.129 218.127,490.747 222.278,482.828C222.432,482.533 224.477,478.341 224.735,478.454C225.282,478.694 222.586,488.599 222.419,489.473C221.57,493.924 221.083,522.436 224.203,524.374C226.373,525.722 224.482,519.273 224.652,516.725C224.689,516.153 224.728,515.58 224.767,515.008C225.256,507.849 225.555,499.804 228.5,493.103C228.52,493.056 228.642,492.598 228.697,492.603C228.822,492.614 228.776,494.839 228.781,494.965C228.902,498.098 229.196,501.263 229.684,504.359C231.713,517.259 235.457,530.057 240.606,542.049C240.759,542.404 241.77,545.435 242.262,545.399C242.591,545.375 242.019,540.461 241.994,540.125C241.274,530.526 242.114,503.035 244.384,502.608C244.968,502.498 245.889,506.205 246.025,506.583C250.604,519.261 255.689,530.736 258.502,544.05C259.14,547.067 259.77,550.078 260.299,553.116C260.334,553.318 260.942,556.768 261.09,556.71C261.362,556.605 261.406,555.064 261.436,554.841C262.809,544.642 264.301,534.457 265.647,524.254C265.755,523.432 266.926,513.181 267.467,513.448C273.045,516.208 275.244,545.342 275.003,551.322C274.967,552.207 273.929,565.545 273.968,565.549C276.065,565.742 280.009,545.283 281.768,545.446C282.343,545.499 283.732,556.726 283.854,557.455C286.19,571.323 287.349,585.279 287.043,599.355C286.956,603.377 286.845,607.395 286.598,611.411C286.472,613.461 284.645,618.646 286.395,617.57C288.959,615.994 290.255,605.507 291.116,602.734C291.741,600.72 291.812,595.123 293.16,596.745C295.063,599.037 299.776,640.677 301.067,649.062C301.351,650.909 301.411,663.715 302.889,664.633C306.412,666.821 308.216,656.956 312.343,656.542C316.184,656.158 331.378,677.491 334.281,681.167C349.437,700.36 365.296,715.003 386.755,727.15C391.632,729.91 403.087,737.795 409.13,736.542C415.663,735.189 424.032,718.469 427.861,713.627C440.19,698.038 451.629,681.983 461.71,664.826C466.405,656.836 469.883,644.766 476.017,637.894C479.343,634.168 491.204,652.925 495.632,651.2C496.346,650.923 496.166,639.007 496.306,637.848C497.933,624.348 497.706,608.002 503.823,595.577C505.666,591.831 513.041,605.967 514.558,603.525C517.888,598.164 518.354,561.616 519.22,554.056C519.332,553.073 520.885,538.959 521.025,538.972C521.184,538.987 521.531,547.248 521.574,547.75C522.043,553.139 522.796,558.461 524.182,563.696C524.277,564.054 526.345,571.229 526.909,570.882C527.328,570.625 527.069,568.67 527.061,568.304C526.791,555.143 528.45,542.072 530.258,529.068C530.378,528.207 531.796,516.799 532.565,516.968C532.949,517.053 533.089,518.662 533.16,518.946C535.792,529.585 538.456,540.356 539.939,551.22C540.275,553.685 540.562,556.158 540.743,558.639C540.761,558.879 540.992,562.486 541.104,562.453C545.878,561.037 554.531,529.311 555.198,523.576C555.628,519.872 555.886,516.149 556.12,512.429C556.139,512.139 556.541,507.866 556.542,507.867C557.394,508.302 563.553,532.069 564.033,534.784C564.481,537.315 564.828,539.874 565.032,542.437C565.126,543.627 564.519,546.759 565.437,545.996C568.037,543.836 567.322,530.99 567.608,527.9C569.424,508.262 567.193,490.268 566.078,470.859C565.908,467.882 563.992,449.727 567.154,448.017C567.597,447.777 574.57,471.939 574.69,471.893C576.322,471.257 575.056,458.976 576.605,449.064C579.116,432.997 585.244,354.627 586.452,338.373Z"/>
            </clipPath>
            <g clip-path="url(#_clip1_hair_9_hat)">
                <path d="M187.589,471.587C186.491,472.409 197.052,464.486 197.061,464.567C197.243,466.205 196.3,479.479 191.232,495.861C190.571,497.998 189.031,504.39 187.061,505.703C186.352,506.175 188.104,504.344 188.728,503.763C189.404,503.134 195.218,498.469 195.256,500.051C195.408,506.268 190.686,514.527 188.552,520.251C188.059,521.573 185.529,526.19 187.451,527.335C193.203,530.758 200.103,520.9 205.878,522.55C211.522,524.163 210.884,534.127 218.701,533.805C222.726,533.639 227.975,529.649 229.536,525.941C231.129,522.16 230.738,517.801 231.066,513.8C231.639,506.82 232.163,499.814 233.161,492.879C233.747,488.81 234.369,484.775 235.578,480.835C235.704,480.424 236.476,477.138 237.166,477.23C237.802,477.315 237.431,480.519 237.41,480.865C237.182,484.678 236.835,488.485 236.552,492.294C235.832,501.98 236.036,511.445 237.42,521.069C238.605,529.317 240.555,537.304 242.779,545.323C242.998,546.111 244.193,552.904 245.01,553.176C246.237,553.585 245.335,550.61 245.566,549.337C245.781,548.149 247.735,538.004 249.824,539.466C251.226,540.447 251.976,543.385 252.533,544.894C254.248,549.539 255.531,554.349 257.044,559.062C257.51,560.511 258.317,565.668 260.309,566C262.533,566.371 263.935,558.152 264.255,556.84C266.626,547.137 268.085,537.003 268.085,527.003C268.085,523.778 267.827,520.509 268.016,517.288C268.036,516.959 268.006,514.414 268.757,514.706C271.242,515.673 273.284,522.89 274.165,525.123C277.336,533.156 279.165,540.868 279.485,549.522C279.625,553.288 278.255,557.657 278.774,561.293C278.844,561.785 279.063,560.343 279.183,559.861C279.433,558.861 279.684,557.86 279.934,556.86C280.237,555.647 282.798,543.85 282.798,549.327C282.798,561.794 283.198,574.259 283.198,586.726C283.198,588.117 277.5,639.661 279.884,639.56C282.02,639.469 292.047,582.154 295.377,595.022C301.646,619.256 317.608,780.902 322.134,779.448C333.298,775.861 457.967,767.662 481.5,757.303C485.604,755.496 495.746,570.853 502.537,593.196C512.273,625.23 512.703,585.66 513.532,576.748C514.197,569.595 515.174,562.66 516.845,555.661C517.701,552.074 518.453,548.44 519.427,544.884C519.519,544.548 520.057,541.83 520.48,541.795C520.992,541.752 521.634,550.26 521.688,550.818C522.489,559.056 523.198,567.415 524.874,575.53C525.133,576.785 525.656,582.023 527.242,582.487C529.714,583.211 531.538,573.386 531.793,572.129C533.598,563.206 532.738,554.306 532.738,545.284C532.738,544.198 531.679,536.832 532.494,536.017C533.147,535.364 532.881,537.823 533.02,538.735C533.32,540.696 533.649,542.653 533.966,544.611C534.915,550.484 535.369,556.762 537.347,562.404C538.046,564.4 540.218,567.945 542.394,565.24C545.289,561.641 543.905,554.241 545.152,550.01C549.037,536.828 552.194,525.261 551.753,511.573C551.588,506.459 548.422,490.113 548.884,489.849C549.531,489.479 554.801,502.049 555.861,506.492C556.165,507.768 559.739,520.086 559.964,521.378C562.206,534.265 564.506,551.989 564.852,551.47C565.625,550.311 563.607,516.098 563.656,514.766C563.843,509.714 563.097,501.82 561.475,495.126C561.321,494.489 557.784,482.221 558.248,482.453C567.033,486.845 569.884,502.095 572.377,510.185C573.438,513.625 574.404,517.088 575.573,520.494C575.674,520.787 576.473,523.777 577.074,523.476C578.001,523.013 577.945,519.951 578.039,519.15C578.572,514.597 578.969,510.03 579.149,505.449C579.862,487.359 572.738,471.052 572.738,453.074C572.738,445.124 574.871,435.854 578.35,428.684C580.809,423.618 584.945,419.778 586.409,414.146C588.648,405.534 600.714,392.959 601.238,384.153C602.012,371.124 608.247,357.409 608.756,344.361C609.388,328.146 595.847,119.951 590.664,104.352C584.607,86.123 570.714,71.762 556.033,59.968C538.63,45.987 518.193,34.182 496.33,29.03C472.685,23.457 447.934,25.849 424.194,29.497C395.668,33.881 367.249,40.014 339.36,47.427C319.732,52.644 300.331,58.824 281.45,66.321C254.262,77.116 223.617,90.831 204.296,113.736C201.263,117.332 195.929,315.121 193.795,319.325C182.97,340.641 189.369,350.134 192.448,370.687C194.973,387.541 199.288,411.954 195.685,428.343" style="fill: rgb(calc(var(--color_hairs_r, 183) - 93), calc(var(--color_hairs_g, 55) - 14), calc(var(--color_hairs_b, 88) - 15))"/>
            </g>
            <path d="M586.452,338.373C589.101,302.73 566.957,192.35 398.558,190.178C256.835,188.35 212.414,322.077 210.607,356.632C209.146,384.567 201.102,435.75 196.637,463.434C194.725,475.29 188.622,487.968 187.55,499.555C187.412,501.047 189.693,497.457 190.817,496.466C192.816,494.704 194.847,492.987 196.969,491.375C202.88,486.884 208.138,481.773 212.48,475.722C212.918,475.112 218.68,466.113 219.201,466.342C219.614,466.523 217.969,470.444 217.866,470.733C213.894,481.912 209.283,493.475 203.402,503.808C201.96,506.341 200.387,508.824 198.72,511.216C198.579,511.419 196.755,514.17 196.825,514.195C198.256,514.697 205.196,505.754 206.101,504.749C212.063,498.129 218.127,490.747 222.278,482.828C222.432,482.533 224.477,478.341 224.735,478.454C225.282,478.694 222.586,488.599 222.419,489.473C221.57,493.924 221.083,522.436 224.203,524.374C226.373,525.722 224.482,519.273 224.652,516.725C224.689,516.153 224.728,515.58 224.767,515.008C225.256,507.849 225.555,499.804 228.5,493.103C228.52,493.056 228.642,492.598 228.697,492.603C228.822,492.614 228.776,494.839 228.781,494.965C228.902,498.098 229.196,501.263 229.684,504.359C231.713,517.259 235.457,530.057 240.606,542.049C240.759,542.404 241.77,545.435 242.262,545.399C242.591,545.375 242.019,540.461 241.994,540.125C241.274,530.526 242.114,503.035 244.384,502.608C244.968,502.498 245.889,506.205 246.025,506.583C250.604,519.261 255.689,530.736 258.502,544.05C259.14,547.067 259.77,550.078 260.299,553.116C260.334,553.318 260.942,556.768 261.09,556.71C261.362,556.605 261.406,555.064 261.436,554.841C262.809,544.642 264.301,534.457 265.647,524.254C265.755,523.432 266.926,513.181 267.467,513.448C273.045,516.208 275.244,545.342 275.003,551.322C274.967,552.207 273.929,565.545 273.968,565.549C276.065,565.742 280.009,545.283 281.768,545.446C282.343,545.499 283.732,556.726 283.854,557.455C286.19,571.323 287.349,585.279 287.043,599.355C286.956,603.377 286.845,607.395 286.598,611.411C286.472,613.461 284.645,618.646 286.395,617.57C288.959,615.994 290.255,605.507 291.116,602.734C291.741,600.72 291.812,595.123 293.16,596.745C295.063,599.037 299.776,640.677 301.067,649.062C301.351,650.909 301.411,663.715 302.889,664.633C306.412,666.821 308.216,656.956 312.343,656.542C316.184,656.158 331.378,677.491 334.281,681.167C349.437,700.36 365.296,715.003 386.755,727.15C391.632,729.91 403.087,737.795 409.13,736.542C415.663,735.189 424.032,718.469 427.861,713.627C440.19,698.038 451.629,681.983 461.71,664.826C466.405,656.836 469.883,644.766 476.017,637.894C479.343,634.168 491.204,652.925 495.632,651.2C496.346,650.923 496.166,639.007 496.306,637.848C497.933,624.348 497.706,608.002 503.823,595.577C505.666,591.831 513.041,605.967 514.558,603.525C517.888,598.164 518.354,561.616 519.22,554.056C519.332,553.073 520.885,538.959 521.025,538.972C521.184,538.987 521.531,547.248 521.574,547.75C522.043,553.139 522.796,558.461 524.182,563.696C524.277,564.054 526.345,571.229 526.909,570.882C527.328,570.625 527.069,568.67 527.061,568.304C526.791,555.143 528.45,542.072 530.258,529.068C530.378,528.207 531.796,516.799 532.565,516.968C532.949,517.053 533.089,518.662 533.16,518.946C535.792,529.585 538.456,540.356 539.939,551.22C540.275,553.685 540.562,556.158 540.743,558.639C540.761,558.879 540.992,562.486 541.104,562.453C545.878,561.037 554.531,529.311 555.198,523.576C555.628,519.872 555.886,516.149 556.12,512.429C556.139,512.139 556.541,507.866 556.542,507.867C557.394,508.302 563.553,532.069 564.033,534.784C564.481,537.315 564.828,539.874 565.032,542.437C565.126,543.627 564.519,546.759 565.437,545.996C568.037,543.836 567.322,530.99 567.608,527.9C569.424,508.262 567.193,490.268 566.078,470.859C565.908,467.882 563.992,449.727 567.154,448.017C567.597,447.777 574.57,471.939 574.69,471.893C576.322,471.257 575.056,458.976 576.605,449.064C579.116,432.997 585.244,354.627 586.452,338.373Z" style="fill:none;stroke:black;stroke-width:2.1px;"/>
        </g>
    </g>
    <g id="hairstyles-front">
        <g id="anime-hair-hat-front">
            <path id="cast-Shadow" d="M253.551,420.586C253.493,420.549 254.012,420.265 254.087,420.232C256.534,419.167 259.131,418.296 261.656,417.439C263.658,416.76 272.74,410.85 274.379,411.506C274.649,411.614 274.253,413.593 274.231,413.846C273.524,421.972 273.227,429.917 271.479,437.958C271.357,438.52 270,444.732 269.303,444.732C268.492,444.732 270.118,443.327 270.572,442.655C271.786,440.86 273.128,439.175 274.478,437.48C277.985,433.078 281.747,428.9 285.191,424.444C289.878,418.377 295.338,411.491 298.458,404.419C298.975,403.247 303.204,391.902 304.029,392.108C304.653,392.264 304.633,402.171 304.688,403.018C305.16,410.34 306.334,416.9 309.121,423.702C310.187,426.302 311.221,428.905 312.417,431.448C313.026,432.74 313.801,436.328 314.593,435.14C314.634,435.077 314.284,417.807 314.593,415.824C315.235,411.701 316.147,407.615 317.131,403.562C317.926,400.286 318.784,397.03 319.653,393.773C319.708,393.564 320.935,389.239 321.004,389.273C321.138,389.34 320.421,392.05 320.394,392.256C320.012,395.159 320.225,398.106 320.493,401.008C321.33,410.079 322.704,416.764 327.629,424.526C328.267,425.532 331.955,432.404 333.332,432.404C335.933,432.404 333.808,427.145 334.799,424.74C336.597,420.373 340.207,416.349 343.649,413.22C356.854,401.215 374.08,393.37 388.46,382.895C392.128,380.224 395.9,377.688 399.519,374.951C400.168,374.461 406.451,368.708 407.183,369.348C407.693,369.794 404.175,374.881 403.87,375.363C400.052,381.417 395.958,387.301 392.202,393.394C390.972,395.388 389.793,397.418 388.642,399.459C388.566,399.594 387.659,401.403 387.752,401.403C389.482,401.403 393.462,396.141 394.558,395.058C400.947,388.749 407.572,382.611 413.726,376.072C439.421,348.771 459.625,316.926 484.149,288.707C491.334,280.439 498.368,272.055 504.569,263.013C505.089,262.254 509.749,254.362 510.683,254.673C511.435,254.924 511.975,261.905 512.232,262.799C514.571,270.915 518.369,278.416 519.913,286.795C526.519,322.658 524.88,359.722 517.77,395.272C516.751,400.367 520.218,399.284 520.934,403.15C521.752,407.568 518.57,413.733 517.177,417.802C515.949,421.385 514.597,424.943 513.287,428.498C512.667,430.183 509.948,434.554 511.441,433.558C516.81,429.978 521.481,416.989 524.857,411.572C526.196,409.423 527.548,407.279 528.911,405.145C529.089,404.866 531.296,401.804 531.35,402.112C532.642,409.429 524.131,433.144 521.577,441.584C520.838,444.028 516.837,450.729 517.506,453.071C517.591,453.366 524.661,445.71 525.45,445.028C525.525,444.964 525.797,444.762 525.681,445.028C521.995,453.452 517.117,461.332 513.683,470.014C512.587,472.784 511.617,475.601 510.518,478.369C509.965,479.763 507.288,482.523 508.788,482.523C511.792,482.523 518.814,472.661 521.231,470.491C538.336,455.141 548.443,442.482 554.935,418.906C571.718,357.956 566.18,299.406 541.651,241.192C535.864,227.458 530.028,212.583 521.577,200.22C506.844,178.668 471.157,216.482 458.142,226.227C453.613,229.618 449.082,233.004 444.529,236.363C416.27,257.21 387.526,277.288 357.872,296.107C316.248,322.521 282.498,339.356 261.673,385.812" style="fill:rgb(56,25,57);fill-opacity:0.5;"/>
            <path d="M604.479,289.45C608.566,295.973 612.619,302.49 616.734,308.9C620.382,314.584 625.017,323.697 626.825,331.858C628.779,340.681 628.504,350.471 628.46,361.835C628.383,381.394 623.188,396.285 619.817,415.443C618.575,422.502 612.441,439.058 611.035,443.031C610.892,443.57 610.79,443.892 610.75,443.9C610.732,443.904 610.837,443.594 611.035,443.031C611.797,440.167 613.728,431.17 613.794,430.43C617.094,393.247 611.935,376.4 611.935,376.4C611.935,376.4 607.265,389.69 606.901,393.219C605.726,404.625 602.515,414.47 597.969,424.912C597.878,425.121 600.328,397.989 596.282,385.408C596.087,384.799 593.742,397.835 593.604,398.845C591.309,415.629 588.716,433.216 587.684,450.29C587.417,454.703 587.084,469.966 587.084,469.966C587.084,469.966 584.64,459.56 584.281,458.385C578.264,438.68 578.487,408.132 578.487,408.132C578.487,408.132 575.834,414.853 571.7,421.001C558.003,441.37 539.102,462.864 523.773,476.051C516.247,482.527 499.553,497.927 498.858,497.357C498.151,496.778 508.206,482.683 508.872,481.715C514.708,473.229 520.745,464.835 526.187,456.09C528.371,452.58 534.09,442.866 534.09,442.866L508.125,466.159C508.125,466.159 517.669,451.594 518.928,449.569C542.541,411.596 545.877,388.771 545.877,388.771C545.877,388.771 535.622,402.132 533.507,405.022C526.418,414.709 506.276,440.989 505.684,440.754C505.547,440.699 513.666,429.391 515.732,425.763C521.353,415.889 528.015,404.32 531.532,394.9C533.517,389.58 535.233,379.758 536.139,373.931C536.532,372.348 536.774,370.782 536.828,369.238C536.829,369.226 536.579,371.11 536.139,373.931C533.135,386.035 521.256,398.989 516.327,408.982C512.342,417.06 503.529,428.536 503.529,428.536C503.529,428.536 515.849,401.013 516.514,399.382C525.404,377.55 530.729,367.241 532.872,333.528C534.057,314.879 533.367,305.991 528.355,274.728C525.164,254.821 513.701,211.132 513.701,211.132C513.701,211.132 508.928,225.552 507.306,229.722C502.89,241.077 495.715,251.305 490.077,262.053C473.173,294.278 450.73,327.092 426.781,354.357C416.845,365.669 406.937,376.994 396.171,387.532C392.53,391.095 388.766,394.562 385.033,398.028C383.827,399.148 382.62,400.29 381.456,401.454C380.865,402.045 379.617,403.994 379.617,403.158C379.617,398.152 387.636,388.969 390.248,385.001C399.26,371.308 409.561,358.27 417.129,343.675C419.088,339.896 424.216,328.134 424.216,328.134C424.216,328.134 419.317,334.727 417.702,336.521C412.765,342.007 407.193,346.785 401.638,351.623C386.77,364.573 373.729,376.804 365.594,395.227C362.734,401.703 359.985,408.364 357.714,415.071C356.961,417.294 356.231,419.529 355.537,421.77C355.476,421.968 354.552,425.016 354.541,425.01C353.296,424.388 354.507,409.721 354.507,408.153C354.507,392.877 354.956,377.426 356.667,362.237C356.862,360.511 358.709,347 358.709,347C358.709,347 356.932,353.186 356.364,354.981C354.723,360.162 353.081,365.314 351.268,370.438C345.446,386.892 342.497,403.798 338.696,420.775C337.519,426.032 336.445,431.268 335.929,436.637C335.723,438.77 335.67,440.911 335.541,443.049C335.532,443.188 335.531,445.074 335.507,445.074C335.071,445.074 333.463,435.928 333.313,435.287C330.777,424.477 327.428,413.889 324.893,403.074C324.723,402.349 322.826,392.004 322.564,392.004C322.296,392.004 321.256,400.064 321.147,400.829C320.068,408.382 324.471,432.52 324.471,432.52C324.471,432.52 322.589,427.485 322.041,425.888C320.603,421.693 319.192,417.477 318.43,413.097C316.62,402.692 316.595,391.951 315.578,381.44C315.371,379.298 314.076,370.438 314.076,370.438C314.076,370.438 313.658,374.145 313.384,375.99C312.858,379.545 312.087,383.087 311.275,386.587C308.588,398.16 309.149,410.121 310.718,421.821C311.152,425.058 314.214,435.766 314.214,435.766C314.214,435.766 308.425,422.484 307.883,421.129C302.936,408.762 299.274,395.274 297.455,382.082C297.192,380.175 296.797,369.375 296.797,369.375C296.797,369.375 294.516,385.193 293.084,389.675C289.126,402.068 282.79,413.706 274.995,424.099C272.426,427.525 269.667,430.769 266.929,434.055C265.991,435.181 262.71,439.016 262.71,439.016C262.71,439.016 268.047,430.74 268.633,429.685C280.255,408.767 282.217,394.451 282.217,394.451C282.217,394.451 274.764,404.638 272.211,407.14C264.265,414.927 255.061,421.267 246.089,427.812C218.539,447.907 186.156,471.644 151.71,477.844C151.394,477.901 147.161,478.855 147.002,478.536C146.978,478.488 151.426,474.034 151.625,473.778C154.444,470.154 156.826,466.115 159.067,462.117C165.72,450.251 168.858,437.095 172.482,424.099C173.639,419.95 178.54,406.162 178.54,406.162C178.54,406.162 169.942,419.38 167.268,423.239C157.094,437.92 146.219,452.756 133.215,465.087C128.333,469.717 123.117,473.185 117.016,475.988C116.873,476.054 115.32,476.895 115.177,476.68C115.017,476.441 119.762,470.459 120.07,469.998C124.488,463.372 128.138,455.971 131.19,448.618C140.086,427.187 145.039,406.281 147.356,383.111C147.925,377.425 150.867,364.231 148.116,358.727C147.817,358.13 144.804,362.173 144.555,362.474C142.366,365.119 140.125,367.716 137.738,370.185C130.591,377.576 122.651,384.122 114.772,390.705C111.01,393.847 97.053,403.647 97.053,403.647C97.053,403.647 111.673,391.385 116.071,386.604C131.336,370.011 134.492,357.129 144.103,342.653C154.839,326.482 167.489,307.084 180.488,289.58C187.286,280.426 194.191,274.205 202.378,266.282C205.079,263.668 215.53,255.636 220.842,246.404C227.916,234.111 236.772,213.162 255.992,197.32C328.688,137.4 477.221,114.402 545.713,205.014C554.123,216.139 562.256,226.116 571.044,236.71L583.781,253.28C583.55,253.823 585.84,256.632 586.093,257.008C588.902,261.182 591.895,265.238 594.967,269.221C608.502,286.767 624.726,302.294 642.859,315.041C647.927,318.605 653.073,322.093 658.431,325.21C658.795,325.422 663.579,327.689 663.525,328.108C663.396,329.113 661.62,327.415 660.689,327.014C658.965,326.272 657.246,325.52 655.531,324.757C646.981,320.948 638.89,316.193 631.144,310.953C622.011,304.774 612.924,297.53 604.479,289.45Z" style="fill: rgb(var(--color_hairs_r, 183),var(--color_hairs_g, 55),var(--color_hairs_b, 88));"/>
            <clipPath id="_clip2_hair_9_hat">
                <path d="M604.479,289.45C608.566,295.973 612.619,302.49 616.734,308.9C620.382,314.584 625.017,323.697 626.825,331.858C628.779,340.681 628.504,350.471 628.46,361.835C628.383,381.394 623.188,396.285 619.817,415.443C618.575,422.502 612.441,439.058 611.035,443.031C610.892,443.57 610.79,443.892 610.75,443.9C610.732,443.904 610.837,443.594 611.035,443.031C611.797,440.167 613.728,431.17 613.794,430.43C617.094,393.247 611.935,376.4 611.935,376.4C611.935,376.4 607.265,389.69 606.901,393.219C605.726,404.625 602.515,414.47 597.969,424.912C597.878,425.121 600.328,397.989 596.282,385.408C596.087,384.799 593.742,397.835 593.604,398.845C591.309,415.629 588.716,433.216 587.684,450.29C587.417,454.703 587.084,469.966 587.084,469.966C587.084,469.966 584.64,459.56 584.281,458.385C578.264,438.68 578.487,408.132 578.487,408.132C578.487,408.132 575.834,414.853 571.7,421.001C558.003,441.37 539.102,462.864 523.773,476.051C516.247,482.527 499.553,497.927 498.858,497.357C498.151,496.778 508.206,482.683 508.872,481.715C514.708,473.229 520.745,464.835 526.187,456.09C528.371,452.58 534.09,442.866 534.09,442.866L508.125,466.159C508.125,466.159 517.669,451.594 518.928,449.569C542.541,411.596 545.877,388.771 545.877,388.771C545.877,388.771 535.622,402.132 533.507,405.022C526.418,414.709 506.276,440.989 505.684,440.754C505.547,440.699 513.666,429.391 515.732,425.763C521.353,415.889 528.015,404.32 531.532,394.9C533.517,389.58 535.233,379.758 536.139,373.931C536.532,372.348 536.774,370.782 536.828,369.238C536.829,369.226 536.579,371.11 536.139,373.931C533.135,386.035 521.256,398.989 516.327,408.982C512.342,417.06 503.529,428.536 503.529,428.536C503.529,428.536 515.849,401.013 516.514,399.382C525.404,377.55 530.729,367.241 532.872,333.528C534.057,314.879 533.367,305.991 528.355,274.728C525.164,254.821 513.701,211.132 513.701,211.132C513.701,211.132 508.928,225.552 507.306,229.722C502.89,241.077 495.715,251.305 490.077,262.053C473.173,294.278 450.73,327.092 426.781,354.357C416.845,365.669 406.937,376.994 396.171,387.532C392.53,391.095 388.766,394.562 385.033,398.028C383.827,399.148 382.62,400.29 381.456,401.454C380.865,402.045 379.617,403.994 379.617,403.158C379.617,398.152 387.636,388.969 390.248,385.001C399.26,371.308 409.561,358.27 417.129,343.675C419.088,339.896 424.216,328.134 424.216,328.134C424.216,328.134 419.317,334.727 417.702,336.521C412.765,342.007 407.193,346.785 401.638,351.623C386.77,364.573 373.729,376.804 365.594,395.227C362.734,401.703 359.985,408.364 357.714,415.071C356.961,417.294 356.231,419.529 355.537,421.77C355.476,421.968 354.552,425.016 354.541,425.01C353.296,424.388 354.507,409.721 354.507,408.153C354.507,392.877 354.956,377.426 356.667,362.237C356.862,360.511 358.709,347 358.709,347C358.709,347 356.932,353.186 356.364,354.981C354.723,360.162 353.081,365.314 351.268,370.438C345.446,386.892 342.497,403.798 338.696,420.775C337.519,426.032 336.445,431.268 335.929,436.637C335.723,438.77 335.67,440.911 335.541,443.049C335.532,443.188 335.531,445.074 335.507,445.074C335.071,445.074 333.463,435.928 333.313,435.287C330.777,424.477 327.428,413.889 324.893,403.074C324.723,402.349 322.826,392.004 322.564,392.004C322.296,392.004 321.256,400.064 321.147,400.829C320.068,408.382 324.471,432.52 324.471,432.52C324.471,432.52 322.589,427.485 322.041,425.888C320.603,421.693 319.192,417.477 318.43,413.097C316.62,402.692 316.595,391.951 315.578,381.44C315.371,379.298 314.076,370.438 314.076,370.438C314.076,370.438 313.658,374.145 313.384,375.99C312.858,379.545 312.087,383.087 311.275,386.587C308.588,398.16 309.149,410.121 310.718,421.821C311.152,425.058 314.214,435.766 314.214,435.766C314.214,435.766 308.425,422.484 307.883,421.129C302.936,408.762 299.274,395.274 297.455,382.082C297.192,380.175 296.797,369.375 296.797,369.375C296.797,369.375 294.516,385.193 293.084,389.675C289.126,402.068 282.79,413.706 274.995,424.099C272.426,427.525 269.667,430.769 266.929,434.055C265.991,435.181 262.71,439.016 262.71,439.016C262.71,439.016 268.047,430.74 268.633,429.685C280.255,408.767 282.217,394.451 282.217,394.451C282.217,394.451 274.764,404.638 272.211,407.14C264.265,414.927 255.061,421.267 246.089,427.812C218.539,447.907 186.156,471.644 151.71,477.844C151.394,477.901 147.161,478.855 147.002,478.536C146.978,478.488 151.426,474.034 151.625,473.778C154.444,470.154 156.826,466.115 159.067,462.117C165.72,450.251 168.858,437.095 172.482,424.099C173.639,419.95 178.54,406.162 178.54,406.162C178.54,406.162 169.942,419.38 167.268,423.239C157.094,437.92 146.219,452.756 133.215,465.087C128.333,469.717 123.117,473.185 117.016,475.988C116.873,476.054 115.32,476.895 115.177,476.68C115.017,476.441 119.762,470.459 120.07,469.998C124.488,463.372 128.138,455.971 131.19,448.618C140.086,427.187 145.039,406.281 147.356,383.111C147.925,377.425 150.867,364.231 148.116,358.727C147.817,358.13 144.804,362.173 144.555,362.474C142.366,365.119 140.125,367.716 137.738,370.185C130.591,377.576 122.651,384.122 114.772,390.705C111.01,393.847 97.053,403.647 97.053,403.647C97.053,403.647 111.673,391.385 116.071,386.604C131.336,370.011 134.492,357.129 144.103,342.653C154.839,326.482 167.489,307.084 180.488,289.58C187.286,280.426 194.191,274.205 202.378,266.282C205.079,263.668 215.53,255.636 220.842,246.404C227.916,234.111 236.772,213.162 255.992,197.32C328.688,137.4 477.221,114.402 545.713,205.014C554.123,216.139 562.256,226.116 571.044,236.71L583.781,253.28C583.55,253.823 585.84,256.632 586.093,257.008C588.902,261.182 591.895,265.238 594.967,269.221C608.502,286.767 624.726,302.294 642.859,315.041C647.927,318.605 653.073,322.093 658.431,325.21C658.795,325.422 663.579,327.689 663.525,328.108C663.396,329.113 661.62,327.415 660.689,327.014C658.965,326.272 657.246,325.52 655.531,324.757C646.981,320.948 638.89,316.193 631.144,310.953C622.011,304.774 612.924,297.53 604.479,289.45Z"/>
            </clipPath>
            <g clip-path="url(#_clip2_hair_9_hat)">
                <path d="M514.659,184.818C514.612,167.228 508.3,171.295 508.915,180.967C508.844,181.177 508.794,181.322 508.771,181.387C505.735,189.68 502.887,198.222 499.374,206.322C494.713,217.07 483.773,226.134 476.791,235.38C467.156,248.142 459.601,262.376 451.369,276.041C444.901,286.779 438.228,297.411 431.351,307.892C430.929,308.533 424.939,318.314 424.326,318.044C424.319,318.041 427.504,311.658 427.719,311.234C431.599,303.549 435.699,295.985 439.745,288.387C450.508,268.177 456.396,248.608 463.953,227.247C465.138,223.898 472.836,210.443 471.285,207.022C471.276,207.002 469.662,209.186 469.574,209.323C468.422,211.112 467.405,212.986 466.358,214.837C463.292,220.258 460.125,225.547 456.748,230.782C448.979,242.825 433.176,274.111 423.465,282.155C422.985,282.552 423.741,280.94 423.891,280.335C424.355,278.458 424.697,276.553 425.152,274.674C426.64,268.523 428.561,262.427 430.689,256.469C430.757,256.278 431.639,254.323 431.36,254.18C431.079,254.035 430.018,255.484 429.893,255.628C426.069,260.043 423.246,265.394 420.388,270.452C420.135,270.901 419.89,271.353 419.641,271.804C419.384,272.272 419.125,272.739 418.871,273.209C418.61,273.694 418.353,274.181 418.096,274.668C409.373,291.218 401.741,308.563 393.833,325.52C391.395,330.746 388.08,343.828 383.086,347.356C382.952,347.451 383.118,347.028 383.168,346.872C384.289,343.367 385.54,339.891 386.809,336.438C389.579,328.905 392.326,321.361 395.27,313.895C399.169,304.01 404.075,294.087 406.296,283.643C409.585,268.182 409.514,253.681 415.252,238.537C418.484,230.009 422.349,221.781 426.502,213.667C427.971,210.797 429.496,207.959 431.024,205.121C431.732,203.806 434.639,200.958 433.162,201.183C430.884,201.53 416.855,225.528 415.09,228.421C401.293,251.024 386.609,272.761 374.801,296.549C371.866,302.46 366.728,320.053 359.837,322.912C359.305,323.133 359.111,322.506 359.039,322.09C357.932,315.741 360.011,307.872 360.798,301.597C362.635,286.961 365.983,272.585 370.562,258.574C372.601,252.332 374.92,246.197 377.1,240.007C377.163,239.825 378.144,237.488 377.66,237.343C377.368,237.255 376.468,238.538 376.329,238.695C371.25,244.402 367.125,251.527 363.296,258.092C350.518,279.996 337.981,305.072 331.382,329.649C329.388,337.074 327.995,344.621 326.569,352.17C326.077,354.777 325.546,357.38 325.159,360.005C324.955,361.392 324.777,365.517 324.46,364.151C321.741,352.443 329.462,312.115 333.204,300.138C335.177,293.822 337.664,287.701 340.143,281.572C340.374,281 344.387,272.094 344.054,271.948C343.4,271.659 338.352,280.722 337.974,281.368C331.352,292.689 326.122,304.9 321.594,317.189C320.309,320.676 319.099,324.19 317.908,327.71C317.297,329.514 316.258,335.04 316.122,333.139C315.416,323.29 323.348,269.943 327.336,258.345C329.832,251.084 333.056,244.081 335.697,236.868C335.778,236.646 336.538,235.013 336.293,234.791C336.285,234.783 332.079,241.509 331.831,241.92C328.955,246.682 326.231,251.629 323.743,256.604C311.533,281.024 305.804,309.571 291.362,332.748C290.797,333.655 290.971,331.039 290.98,330.798C291.077,328.145 291.388,325.55 291.72,322.918C292.637,315.638 293.875,308.322 295.94,301.271C296.925,297.904 298.149,294.572 298.985,291.164C299.002,291.096 299.131,290.55 298.888,290.644C294.967,292.166 291.457,303.878 289.927,307.252C282.745,323.08 276.927,339.661 269.233,355.23C267.972,357.781 258.8,374.106 258.078,374.038C257.943,374.025 258.319,373.113 258.332,373.077C259.85,368.914 261.36,364.727 262.632,360.481C265.338,351.446 267.961,342.389 270.684,333.359C278.303,308.099 280.024,280.935 288.606,256.059C291.016,249.072 294.183,242.435 297.696,235.945C299.153,233.252 300.502,230.489 301.822,227.726C301.89,227.585 302.955,225.132 302.684,225.145C300.871,225.233 282.469,250.203 280.556,252.86C259.095,282.664 238.675,312.11 226.517,346.845C222.478,358.384 217.719,369.612 213.143,380.942C211.535,384.922 209.954,388.912 208.339,392.889C208.218,393.185 205.987,398.257 205.892,398.166C205.36,397.651 211.357,377.16 212.222,374.438C219.946,350.129 222.325,325.862 228.598,301.368C230.059,295.664 231.644,289.921 233.692,284.397C234.312,282.724 237.06,275.852 237.046,275.851C235.848,275.739 231.683,283.288 231.028,284.22C224.176,293.967 219.7,305.096 215.52,316.185C214.251,319.551 212.938,322.902 211.675,326.271C211.05,327.936 210.241,332.92 209.696,331.227C207.747,325.17 211.802,313.279 213.145,307.301C217.983,285.78 223.265,262.444 232.213,242.269C235.616,234.595 239.465,227.131 243.495,219.772C243.823,219.173 249.527,209.037 249.148,208.889C248.607,208.678 247.18,210.644 246.913,210.94C240.075,218.536 233.731,226.995 227.781,235.289C210.571,259.28 183.267,303.948 174.321,331.662C170.95,342.104 167.775,352.6 164.64,363.116C163.537,366.817 162.467,370.53 161.319,374.218C160.789,375.922 160.15,380.988 159.603,379.289C157.141,371.636 162.48,341.175 164.567,333.888C170.905,311.756 130.227,387.052 94.983,409.702C81.14,418.597 83.064,453.92 84.143,470.227C84.528,476.037 83.842,485.59 90.861,487.431C93.496,488.123 96.504,488.502 99.776,488.624C99.575,488.068 100.106,486.794 100.205,486.504C101.207,483.571 102.643,480.766 103.916,477.947C109.128,466.408 114.181,454.819 118.666,442.975C125.116,425.946 130.466,408.575 134.772,390.886C136.188,385.074 137.288,373.055 143.222,369.486L148.797,360.287C148.811,360.231 148.831,360.197 148.857,360.188L148.797,360.287C148.665,360.827 149.112,363.356 149.138,363.564C149.614,367.261 150.346,370.951 151.257,374.564C153.793,384.616 157.571,393.651 155.975,404.315C154.742,412.549 151.235,420.126 148.464,427.912C142.137,445.691 135.434,463.031 120.392,475.16C115.579,479.041 110.594,482.623 105.406,485.981C104.73,486.419 102.831,488.031 101.36,488.664C113.853,488.822 129.813,485.534 143.82,481.606C151.988,474.023 158.033,465.046 163.982,455.229C168.557,447.68 173.729,440.209 177.153,432.049C181.937,420.649 184.656,408.134 188.118,396.269C190.435,388.327 192.433,380.308 194.686,372.353C194.812,371.908 196.77,365.491 197.422,365.87C198.818,366.68 198.365,372.796 198.38,374.028C198.487,382.696 196.777,391.377 195.185,399.859C189.599,429.621 175.617,458.024 153.508,478.701C158.614,477.07 163.198,475.444 166.911,474.004C174,471.253 180.796,467.651 187.482,464.047C187.806,463.872 192.836,460.863 195.706,459.182C198.662,457.142 201.664,455.162 204.652,453.162C212.679,447.418 220.507,441.467 228.274,435.374C236.095,428.893 243.774,422.232 251.783,415.983C256.751,411.522 262.353,406.794 267.885,404.774C268.421,404.515 268.961,404.271 269.507,404.044C270.749,403.527 274.293,401.957 275.641,402.906C276.518,403.521 274.642,405.608 272.737,407.391C272.381,410.623 270.881,415.004 270.693,415.625C267.686,425.522 258.612,442.823 265.881,452.514C269.663,457.556 276.699,459.664 282.567,461.026C290.15,462.787 298.095,460.117 305.707,459.825C318.465,459.337 333.634,464.488 345.105,456.158C364.447,442.112 368.919,415.216 382.947,397.008C394.016,382.641 408.039,370.618 419.508,356.555C447.831,321.825 473.596,284.755 496.465,246.252C503.624,234.199 508.11,223.309 510.659,211.376C510.79,212.366 511.692,214.375 512.879,215.674C512.989,221.445 513.213,227.231 513.493,232.989C513.02,242.412 511.815,251.691 511.223,261.221C510.305,276.018 510.808,291.249 510.642,306.088C510.355,331.681 512.867,357.224 507.311,382.467C503.905,397.937 496.973,414.025 497.106,430.01C497.192,440.271 501.431,449.719 503.557,459.639C504.364,463.408 498.185,471.133 500.469,474.179C500.74,474.539 503.028,472.135 503.197,471.969C505.958,469.262 508.739,466.566 511.424,463.784C522.768,452.03 533.481,439.617 544.184,427.281C548.608,422.182 552.833,416.924 556.873,411.515C558.148,409.809 562.019,403.288 562.277,403.288C563.298,403.288 555.144,415.937 552.368,420.048C542.092,435.273 529.771,448.862 518.551,463.361C511.586,472.362 504.942,481.821 498.862,491.436C498.418,492.138 492.536,500.959 494.442,501.239C496.293,501.511 499.321,499.391 500.776,498.447C506.372,494.817 509.65,488.967 514.275,484.224C532.491,465.547 547.879,449.667 563.754,426.893C567.407,421.654 571.596,415.524 574.675,409.925C575.086,409.179 579.237,402.145 579.89,401.928C579.904,401.923 578.102,408.011 578.023,409.434C577.784,413.725 577.157,418.39 577.019,422.687C576.551,437.185 574.961,452.613 578.995,466.618C579.888,469.721 582.299,479.514 587.169,478.493C590.764,477.739 593.15,473.081 594.74,470.203C599.674,461.27 601.806,450.827 603.855,440.933C608.387,419.055 613.564,396.633 615.159,374.293C616.32,358.042 613.829,341.828 614.641,325.577C614.654,325.317 615.048,321.874 614.8,321.812C614.695,321.786 613.573,326.425 613.51,326.697C612.152,332.528 610.97,338.4 609.756,344.262C609.634,344.847 609.049,350.62 608.423,350.828C607.71,351.066 608.677,345.358 608.677,343.743C608.677,339.008 608.47,334.305 607.969,329.595C606.812,318.721 604.224,310.813 601.606,300.341C600.643,296.488 598.321,288.579 596.324,285.252C595.767,284.323 598.319,292.644 598.483,294.9C598.951,301.331 598.512,307.552 597.627,313.934C594.713,334.943 586.593,354.539 576.594,373.066C574.376,377.177 572.259,381.316 570.207,385.512C570.06,385.813 568.666,389.372 568.367,389.372C568.276,389.372 569.297,383.45 569.361,383.08C570.116,378.742 571.21,374.452 572.132,370.148C575.831,352.885 581.547,336.582 586.249,319.623C587.4,315.47 588.53,311.244 589.231,306.987C589.318,306.457 590.109,303.562 589.654,303.106C589.64,303.092 588.163,306.426 588.068,306.659C587.133,308.93 586.13,311.17 585.138,313.416C581.462,321.745 577.266,329.792 573.274,337.97C572.951,338.632 569.658,345.499 569.658,345.499C569.658,345.499 570.337,342.45 570.736,340.941C571.538,337.912 572.28,334.865 572.999,331.815C578.808,307.187 582.054,279.647 578.17,294.213C577.326,297.378 576.369,306.452 573.443,308.541C572.768,309.023 572.255,306.246 572.206,305.95C571.667,302.714 571.685,299.318 571.878,296.053C572.709,282.047 569.734,267.554 569.56,270.248C569.074,277.793 568.094,289.91 566.126,296.603C565.67,298.152 565.379,302.478 564.201,303.656C563.452,304.405 563.865,301.563 563.704,300.515C563.564,299.607 562.462,291.051 561.854,291.051C561.227,291.051 560.869,299.286 560.817,299.891C559.962,309.809 558.909,319.725 557.169,329.531C555.925,336.546 554.337,343.504 552.897,350.479C552.375,353.009 551.904,355.552 551.501,358.103C551.445,358.46 551.015,361.688 550.941,361.688C550.092,361.688 551.367,352.747 551.692,349.591C553.021,336.658 554.672,323.734 556.069,310.804C557.147,300.835 558.036,291.001 558.036,280.963C558.036,280.362 558.112,272.028 557.962,272.028C557.671,272.028 557.066,274.847 557,275.084C556.083,278.396 555.111,281.692 554.187,285.003C553.898,286.04 553.599,287.074 553.309,288.111C553.171,288.609 553.22,289.957 552.855,289.592C552.095,288.832 553.278,280.771 553.278,279.377C553.278,269.365 552.336,259.957 551.311,250.043C551.16,248.587 551.608,240.428 550.423,239.638C550.248,239.522 548.799,245.955 548.699,246.438C547.744,251.052 546.46,255.562 545.284,260.121C539.639,281.994 538.441,296.098 537.406,286.864C536.218,276.271 533.045,266.14 530.522,255.828C527.309,242.699 524.585,229.804 520.656,216.861C519.091,211.707 517.168,206.704 515.675,201.517C515.418,200.626 515.342,198.661 514.953,197.275C514.759,193.115 514.67,188.948 514.659,184.818ZM513.493,232.989C513.518,233.518 513.544,234.046 513.571,234.573C513.671,236.57 512.947,241.594 514.207,243.376L513.655,222.761C513.737,226.201 513.662,229.604 513.493,232.989Z" style="fill: rgb(calc(var(--color_hairs_r, 183) - 93 ),calc(var(--color_hairs_g, 55) - 14),calc(var(--color_hairs_b, 88) - 15 ));"/>
                <path d="M178.264,425.465C176.282,429.466 173.799,440.115 172.381,443.976C167.147,458.234 159.094,468.849 147.855,478.984C146.61,480.107 135.633,491.187 133.892,490.116C133.534,489.895 139.173,483.714 139.555,483.292C143.627,478.804 147.713,474.339 151.522,469.622C155.683,464.469 159.483,459.063 162.872,453.371C167.889,444.946 172.215,436.237 176.714,427.539L178.264,425.465C178.661,424.663 179.038,424.129 179.382,423.969L178.264,425.465ZM146.78,376.503C146.9,376.503 147.374,382.961 147.395,383.327C147.828,390.767 147.657,398.253 147.357,405.694C146.358,430.506 136.146,455.301 118.695,472.893C114.408,477.215 109.933,481.476 105.21,485.322C104.441,485.947 101.247,489.109 100.018,488.282C99.003,487.598 102.022,482.142 102.35,481.42C105.662,474.13 109.288,466.99 112.743,459.767C116.759,451.37 120.77,442.964 124.573,434.467C130.596,421.014 135.634,407.198 140.935,393.456L146.78,376.503ZM602.152,292.477C602.25,292.773 602.348,293.069 602.445,293.366C604.982,301.106 607.167,308.762 608.237,316.847C608.606,319.645 608.91,322.448 609.198,325.255C609.29,326.157 609.381,327.059 609.471,327.962C609.479,328.048 609.648,329.399 609.69,329.378C609.965,329.24 609.859,327.378 609.869,327.132C609.975,324.569 610.072,322.008 610.134,319.444C610.249,314.76 610.493,309.533 609.706,304.704C613.425,311.09 616.78,317.674 619.29,324.728C627.405,347.528 624.35,372.419 622.359,396.03C621.599,405.05 620.4,414.029 619.651,423.048C619.504,424.812 618.534,431.384 622.133,430.407C626.19,429.305 629.629,424.2 632.066,421.141C638.946,412.505 644.8,403.106 650.938,393.945C659.91,380.555 674.808,366.43 677.618,349.953C681.123,329.403 666.638,313.122 651.857,300.956C626.232,279.864 595.521,262.786 576.513,234.82L575.769,244.187C575.018,243.397 576.526,246.236 576.968,247.234C577.885,249.305 578.863,251.35 579.863,253.381C582.862,259.47 586.096,265.468 589.325,271.437C593.238,278.671 597.731,285.562 602.152,292.477ZM81.423,411.194C81.627,411.189 82.646,410.512 83.055,410.256C84.029,409.646 85.002,409.037 85.964,408.409C89.022,406.415 92.004,404.303 95.039,402.276C104.273,396.107 113.064,389.212 121.209,381.658C145.055,359.544 161.347,327.995 179.415,301.28C185.832,291.792 192.128,282.22 198.514,272.712C200.607,269.596 202.83,266.582 205.125,263.612C205.442,263.202 208.754,259.067 208.458,258.933C207.072,258.303 202.346,262.065 201.35,262.707C193.359,267.86 185.976,273.991 178.946,280.371C150.358,306.318 124.072,336.227 102.518,368.266C93.498,381.675 84.559,395.716 77.863,410.469C76.185,414.166 71.065,425.826 79.756,423.514L81.423,411.194ZM81.423,411.194L81.441,411.059C81.372,411.155 81.373,411.195 81.423,411.194ZM595.366,304.005C598.086,307.592 589.508,336.438 587.756,340.565C587.451,341.283 583.054,351.307 582.431,351.073C581.767,350.824 585.316,340.366 585.534,339.617C588.875,328.152 593.331,315.946 594.421,303.96L595.366,304.005ZM218.452,297.092C217.991,297.359 218.738,296.063 218.926,295.564C219.334,294.479 219.781,293.409 220.243,292.346C221.611,289.203 223.132,286.129 224.72,283.092C229.188,274.544 234.461,266.492 240.756,259.177C241.384,258.448 245.72,252.733 246.894,253.16C247.786,253.484 246.115,258.283 245.977,258.758C244.182,264.949 242.268,271.101 240.563,277.318C238.857,283.537 231.805,311.007 230.366,317.294C230.296,317.602 229.265,322.578 229.017,322.547C228.848,322.526 230.027,314.152 230.099,313.615C230.87,307.867 237.12,280.897 237.957,275.159C238.036,274.613 239.4,266.369 239.057,266.351C237.246,266.255 232.797,273.783 231.861,275.021C230.113,277.332 228.373,279.648 226.732,282.037C224.309,285.565 222.037,289.171 220.272,293.078L218.452,297.092ZM289.223,275.577C289.216,274.414 288.666,277.836 288.391,278.967C287.874,281.093 287.358,283.219 286.868,285.351C285.524,291.203 284.077,297.056 282.941,302.951C282.826,303.547 281.626,308.061 282.433,308.451C283.023,308.736 285.316,304.511 285.567,304.099C287.312,301.238 289.013,298.345 290.706,295.452C293.992,289.837 297.458,284.403 301.433,279.25C301.59,279.047 302.224,278.405 302.163,278.102C302.159,278.082 300.987,279.108 300.888,279.206C299.937,280.139 299.018,281.105 298.103,282.073C294.951,285.404 291.903,288.834 288.872,292.274C288.763,292.399 288.147,293.32 287.94,293.251C287.364,293.059 288.283,288.99 288.346,288.563C289.096,283.475 290.313,278.449 290.902,273.337L289.223,275.577ZM329.615,274.607C329.725,274.666 327.38,281.083 327.237,281.515C325.219,287.631 323.529,293.86 321.696,300.033C321.514,300.647 319.595,305.636 320.173,306.142C320.211,306.175 324.321,296.699 324.589,296.023C327.388,288.959 330.17,281.932 331.25,274.372L329.615,274.607ZM574.971,255.916C575.032,256.271 575.105,256.887 575.17,257.167C575.4,258.157 575.681,259.135 575.96,260.112C576.806,263.07 577.688,266.017 578.56,268.967C581.122,277.633 583.848,286.214 585.393,295.134C585.756,297.228 586.078,299.326 586.384,301.429C586.407,301.583 586.538,303.206 586.725,303.227C586.864,303.242 586.856,301.011 586.856,300.873C586.862,298.265 586.799,295.656 586.753,293.049C586.556,281.884 584.306,272.787 579.28,262.806L574.971,255.916C574.929,255.674 574.892,255.554 574.866,255.749L574.971,255.916ZM251.866,268.378C251.785,268.394 250.328,273.906 250.134,274.544C248.147,281.084 245.883,287.55 244.001,294.12C243.767,294.935 241.373,300.692 242.083,301.401C242.197,301.515 243.941,298.172 244.048,297.949C245.142,295.659 246.229,293.365 247.306,291.067C252.074,280.895 256.154,272.939 254.682,261.894L251.866,268.378ZM344.858,278.958C344.803,278.916 343.89,280.757 343.836,280.868C342.143,284.385 335.763,301.388 341.438,289.565C342.03,288.333 342.599,287.092 343.151,285.841C344.057,283.788 344.94,281.739 345.695,279.624L344.858,278.958ZM567.787,255.633C567.787,255.633 567.29,273.595 566.873,277.883C566.623,280.461 567.543,287.676 565.988,285.604C563.364,282.105 564.868,269.097 565.288,264.755C565.505,262.511 566.003,260.276 566.698,258.132C566.814,257.777 567.511,254.895 567.787,255.633Z"  style="fill: rgb(var(--color_hairs_r, 183),var(--color_hairs_g, 55),var(--color_hairs_b, 88));"/>
                <g>
                    <path d="M491.394,55.56C491.147,53.822 493.152,51.175 494.153,49.985C497.801,45.646 503.59,42.889 509.004,41.464" style="fill:none;stroke:black;stroke-width:2.1px;"/>
                    <path d="M539.393,402.527C538.945,402.249 541.962,396.461 542.222,395.93C545.746,388.752 548.912,381.41 552.027,374.047C559.442,356.522 562.184,338.032 565.698,319.457" style="fill:none;stroke:black;stroke-width:2.1px;"/>
                    <path d="M574.979,417.049C575.093,417.17 575.085,416.735 575.137,416.577C576.002,413.961 577.238,411.39 578.286,408.843C580.618,403.181 582.779,397.467 584.859,391.708C591.072,374.503 594.088,356.261 597.277,338.324" style="fill:none;stroke:black;stroke-width:2.1px;"/>
                    <path d="M355.03,363.684C355.165,363.634 355.456,361.696 355.504,361.508C357.22,354.773 358.615,347.935 360.217,341.169C365.415,319.223 375.138,297.465 385.038,277.269" style="fill:none;stroke:black;stroke-width:2.1px;"/>
                    <path d="M172.956,416.687C180.146,409.788 182.169,393.379 184.383,384.471C190.877,358.329 193.813,330.73 202.971,305.368" style="fill:none;stroke:black;stroke-width:2.1px;"/>
                    <path d="M612.132,342.508C612.82,353.746 611.011,365.149 612.048,376.56" style="fill:none;stroke:black;stroke-width:2.1px;"/>
                    <path d="M478.278,70.853C482.807,68.213 487.158,71.103 489.998,74.621C495.75,81.749 499.669,91.257 502.539,99.867C505.856,109.82 507.246,120.286 509.087,130.577C513.84,157.133 516.368,183.917 513.675,210.848" style="fill:none;stroke:black;stroke-width:2.1px;"/>
                    <path d="M468.587,69.279C452.238,55.016 401.993,88.682 388.278,96.079C313.306,136.518 239.881,188.867 209.027,275.883" style="fill:none;stroke:black;stroke-width:2.1px;"/>
                    <path d="M572.31,249.59C571.245,248.824 573.651,251.843 574.296,252.986C575.57,255.245 576.752,257.562 577.873,259.901C581.268,266.983 584.002,274.262 586.124,281.821" style="fill:none;stroke:black;stroke-width:2.1px;"/>
                    <path d="M152.315,295.003C156.714,291.683 168.258,265.672 170.408,260.34C179.995,236.564 189.858,212.466 208.041,193.792" style="fill:none;stroke:black;stroke-width:2.1px;"/>
                    <path d="M486.579,67.194C486.579,67.194 496.908,67.96 499.631,68.825C508.773,71.731 517.493,75.519 525.981,79.973C547.987,91.522 561.909,113.508 581.198,135.827" style="fill:none;stroke:black;stroke-width:2.1px;"/>
                    <path d="M474.915,66.01C475.336,66.01 474.557,65.238 474.487,64.823C474.333,63.918 474.286,63.008 474.242,62.092C474.112,59.399 474.298,56.7 474.788,54.048C476.154,46.656 480.747,37.698 487.758,34.193" style="fill:none;stroke:black;stroke-width:2.1px;"/>
                    <path d="M379.557,9.524C379.067,9.557 380.508,9.268 380.994,9.191C382.058,9.022 383.126,8.86 384.198,8.742C387.323,8.398 390.624,8.122 393.767,8.339C403.06,8.98 412.043,12.482 421.372,12.742" style="fill:none;stroke:black;stroke-width:2.1px;"/>
                    <path d="M530.145,49.601C533.114,51.937 538.182,51.988 541.76,52.726C544.556,53.303 547.222,54.834 549.719,56.16" style="fill:none;stroke:black;stroke-width:2.1px;"/>
                    <path d="M317.872,276.637C313.207,279.422 310.339,296.084 308.812,300.808C301.116,324.615 298.02,347.314 295.78,371.953" style="fill:none;stroke:black;stroke-width:2.1px;"/>
                </g>
            </g>
            <path d="M604.479,289.45C608.566,295.973 612.619,302.49 616.734,308.9C620.382,314.584 625.017,323.697 626.825,331.858C628.779,340.681 628.504,350.471 628.46,361.835C628.383,381.394 623.188,396.285 619.817,415.443C618.575,422.502 612.441,439.058 611.035,443.031C610.892,443.57 610.79,443.892 610.75,443.9C610.732,443.904 610.837,443.594 611.035,443.031C611.797,440.167 613.728,431.17 613.794,430.43C617.094,393.247 611.935,376.4 611.935,376.4C611.935,376.4 607.265,389.69 606.901,393.219C605.726,404.625 602.515,414.47 597.969,424.912C597.878,425.121 600.328,397.989 596.282,385.408C596.087,384.799 593.742,397.835 593.604,398.845C591.309,415.629 588.716,433.216 587.684,450.29C587.417,454.703 587.084,469.966 587.084,469.966C587.084,469.966 584.64,459.56 584.281,458.385C578.264,438.68 578.487,408.132 578.487,408.132C578.487,408.132 575.834,414.853 571.7,421.001C558.003,441.37 539.102,462.864 523.773,476.051C516.247,482.527 499.553,497.927 498.858,497.357C498.151,496.778 508.206,482.683 508.872,481.715C514.708,473.229 520.745,464.835 526.187,456.09C528.371,452.58 534.09,442.866 534.09,442.866L508.125,466.159C508.125,466.159 517.669,451.594 518.928,449.569C542.541,411.596 545.877,388.771 545.877,388.771C545.877,388.771 535.622,402.132 533.507,405.022C526.418,414.709 506.276,440.989 505.684,440.754C505.547,440.699 513.666,429.391 515.732,425.763C521.353,415.889 528.015,404.32 531.532,394.9C533.517,389.58 535.233,379.758 536.139,373.931C536.532,372.348 536.774,370.782 536.828,369.238C536.829,369.226 536.579,371.11 536.139,373.931C533.135,386.035 521.256,398.989 516.327,408.982C512.342,417.06 503.529,428.536 503.529,428.536C503.529,428.536 515.849,401.013 516.514,399.382C525.404,377.55 530.729,367.241 532.872,333.528C534.057,314.879 533.367,305.991 528.355,274.728C525.164,254.821 513.701,211.132 513.701,211.132C513.701,211.132 508.928,225.552 507.306,229.722C502.89,241.077 495.715,251.305 490.077,262.053C473.173,294.278 450.73,327.092 426.781,354.357C416.845,365.669 406.937,376.994 396.171,387.532C392.53,391.095 388.766,394.562 385.033,398.028C383.827,399.148 382.62,400.29 381.456,401.454C380.865,402.045 379.617,403.994 379.617,403.158C379.617,398.152 387.636,388.969 390.248,385.001C399.26,371.308 409.561,358.27 417.129,343.675C419.088,339.896 424.216,328.134 424.216,328.134C424.216,328.134 419.317,334.727 417.702,336.521C412.765,342.007 407.193,346.785 401.638,351.623C386.77,364.573 373.729,376.804 365.594,395.227C362.734,401.703 359.985,408.364 357.714,415.071C356.961,417.294 356.231,419.529 355.537,421.77C355.476,421.968 354.552,425.016 354.541,425.01C353.296,424.388 354.507,409.721 354.507,408.153C354.507,392.877 354.956,377.426 356.667,362.237C356.862,360.511 358.709,347 358.709,347C358.709,347 356.932,353.186 356.364,354.981C354.723,360.162 353.081,365.314 351.268,370.438C345.446,386.892 342.497,403.798 338.696,420.775C337.519,426.032 336.445,431.268 335.929,436.637C335.723,438.77 335.67,440.911 335.541,443.049C335.532,443.188 335.531,445.074 335.507,445.074C335.071,445.074 333.463,435.928 333.313,435.287C330.777,424.477 327.428,413.889 324.893,403.074C324.723,402.349 322.826,392.004 322.564,392.004C322.296,392.004 321.256,400.064 321.147,400.829C320.068,408.382 324.471,432.52 324.471,432.52C324.471,432.52 322.589,427.485 322.041,425.888C320.603,421.693 319.192,417.477 318.43,413.097C316.62,402.692 316.595,391.951 315.578,381.44C315.371,379.298 314.076,370.438 314.076,370.438C314.076,370.438 313.658,374.145 313.384,375.99C312.858,379.545 312.087,383.087 311.275,386.587C308.588,398.16 309.149,410.121 310.718,421.821C311.152,425.058 314.214,435.766 314.214,435.766C314.214,435.766 308.425,422.484 307.883,421.129C302.936,408.762 299.274,395.274 297.455,382.082C297.192,380.175 296.797,369.375 296.797,369.375C296.797,369.375 294.516,385.193 293.084,389.675C289.126,402.068 282.79,413.706 274.995,424.099C272.426,427.525 269.667,430.769 266.929,434.055C265.991,435.181 262.71,439.016 262.71,439.016C262.71,439.016 268.047,430.74 268.633,429.685C280.255,408.767 282.217,394.451 282.217,394.451C282.217,394.451 274.764,404.638 272.211,407.14C264.265,414.927 255.061,421.267 246.089,427.812C218.539,447.907 186.156,471.644 151.71,477.844C151.394,477.901 147.161,478.855 147.002,478.536C146.978,478.488 151.426,474.034 151.625,473.778C154.444,470.154 156.826,466.115 159.067,462.117C165.72,450.251 168.858,437.095 172.482,424.099C173.639,419.95 178.54,406.162 178.54,406.162C178.54,406.162 169.942,419.38 167.268,423.239C157.094,437.92 146.219,452.756 133.215,465.087C128.333,469.717 123.117,473.185 117.016,475.988C116.873,476.054 115.32,476.895 115.177,476.68C115.017,476.441 119.762,470.459 120.07,469.998C124.488,463.372 128.138,455.971 131.19,448.618C140.086,427.187 145.039,406.281 147.356,383.111C147.925,377.425 150.867,364.231 148.116,358.727C147.817,358.13 144.804,362.173 144.555,362.474C142.366,365.119 140.125,367.716 137.738,370.185C130.591,377.576 122.651,384.122 114.772,390.705C111.01,393.847 97.053,403.647 97.053,403.647C97.053,403.647 111.673,391.385 116.071,386.604C131.336,370.011 134.492,357.129 144.103,342.653C154.839,326.482 167.489,307.084 180.488,289.58C187.286,280.426 194.191,274.205 202.378,266.282C205.079,263.668 215.53,255.636 220.842,246.404C227.916,234.111 236.772,213.162 255.992,197.32C328.688,137.4 477.221,114.402 545.713,205.014C554.123,216.139 562.256,226.116 571.044,236.71L583.781,253.28C583.55,253.823 585.84,256.632 586.093,257.008C588.902,261.182 591.895,265.238 594.967,269.221C608.502,286.767 624.726,302.294 642.859,315.041C647.927,318.605 653.073,322.093 658.431,325.21C658.795,325.422 663.579,327.689 663.525,328.108C663.396,329.113 661.62,327.415 660.689,327.014C658.965,326.272 657.246,325.52 655.531,324.757C646.981,320.948 638.89,316.193 631.144,310.953C622.011,304.774 612.924,297.53 604.479,289.45Z" style="fill:none;stroke:black;stroke-width:2.1px;"/>
        </g>
    </g>
</svg>
