<svg width="800px" height="800px" viewBox="0 0 800 800" version="2.0" xmlns="http://www.w3.org/2000/svg" style="fill-rule: evenodd; clip-rule: evenodd; stroke-linecap: round; stroke-linejoin: round; stroke-miterlimit: 1.5"><g id="normal-card"><rect id="bg" x="-48.418" y="-9.957" width="931.967" height="871.066" style="fill: rgb(6, 46, 66)" /><g id="rectangles" transform="matrix(1,0,0,1,49.4291,64.1339)"><g opacity="0.5"><g transform="matrix(0.660629,0,0,1.04551,351.522,-81.058)"><rect x="462.47" y="633.282" width="419.335" height="322.449" style="fill: none" /><clipPath id="_clip1_card_template"><rect x="462.47" y="633.282" width="419.335" height="322.449" /></clipPath><g clip-path="url(#_clip1_card_template)"><g transform="matrix(1.51371,0,0,0.956468,-452.99,37.369)"><path d="M604.78,633.282L877.032,634.306" style="fill: none; stroke: rgb(166, 240, 98); stroke-width: 4px; stroke-dasharray: 4.25, 7.5, 0, 0" /></g><g transform="matrix(1.51371,0,0,0.956468,-452.99,58.0423)"><path d="M604.78,633.282L877.032,634.306" style="fill: none; stroke: rgb(166, 240, 98); stroke-width: 4px; stroke-dasharray: 4.25, 7.5, 0, 0" /></g><g transform="matrix(1.51371,0,0,0.956468,-452.99,68.3789)"><path d="M604.78,633.282L877.032,634.306" style="fill: none; stroke: rgb(166, 240, 98); stroke-width: 4px; stroke-dasharray: 4.25, 7.5, 0, 0" /></g><g transform="matrix(1.51371,0,0,0.956468,-452.99,89.0522)"><path d="M604.78,633.282L877.032,634.306" style="fill: none; stroke: rgb(166, 240, 98); stroke-width: 4px; stroke-dasharray: 4.25, 7.5, 0, 0" /></g><g transform="matrix(1.51371,0,0,0.956468,-452.99,99.3888)"><path d="M604.78,633.282L877.032,634.306" style="fill: none; stroke: rgb(166, 240, 98); stroke-width: 4px; stroke-dasharray: 4.25, 7.5, 0, 0" /></g><g transform="matrix(1.51371,0,0,0.956468,-452.99,130.399)"><path d="M604.78,633.282L877.032,634.306" style="fill: none; stroke: rgb(166, 240, 98); stroke-width: 4px; stroke-dasharray: 4.25, 7.5, 0, 0" /></g><g transform="matrix(1.51371,0,0,0.956468,-452.99,151.072)"><path d="M604.78,633.282L877.032,634.306" style="fill: none; stroke: rgb(166, 240, 98); stroke-width: 4px; stroke-dasharray: 4.25, 7.5, 0, 0" /></g><g transform="matrix(1.51371,0,0,0.956468,-452.99,171.745)"><path d="M604.78,633.282L877.032,634.306" style="fill: none; stroke: rgb(166, 240, 98); stroke-width: 4px; stroke-dasharray: 4.25, 7.5, 0, 0" /></g></g><rect x="462.47" y="633.282" width="419.335" height="322.449" style="fill: none; stroke: rgb(166, 240, 98); stroke-width: 4.57px; stroke-dasharray: 4.86, 8.58, 0, 0" /></g><g transform="matrix(0.192707,0,0,1.04551,466.744,2.40586)"><rect x="462.47" y="633.282" width="419.335" height="322.449" style="fill: none" /><clipPath id="_clip2_card_template"><rect x="462.47" y="633.282" width="419.335" height="322.449" /></clipPath><g clip-path="url(#_clip2_card_template)"><g transform="matrix(1.51371,0,0,0.956468,-452.99,37.369)"><path d="M604.78,633.282L877.032,634.306" style="fill: none; stroke: rgb(237, 30, 121); stroke-width: 5.43px; stroke-dasharray: 5.77, 10.18, 0, 0" /></g><g transform="matrix(1.51371,0,0,0.956468,-452.99,58.0423)"><path d="M604.78,633.282L877.032,634.306" style="fill: none; stroke: rgb(237, 30, 121); stroke-width: 5.43px; stroke-dasharray: 5.77, 10.18, 0, 0" /></g><g transform="matrix(1.51371,0,0,0.956468,-452.99,68.3789)"><path d="M604.78,633.282L877.032,634.306" style="fill: none; stroke: rgb(237, 30, 121); stroke-width: 5.43px; stroke-dasharray: 5.77, 10.18, 0, 0" /></g><g transform="matrix(1.51371,0,0,0.956468,-452.99,89.0522)"><path d="M604.78,633.282L877.032,634.306" style="fill: none; stroke: rgb(237, 30, 121); stroke-width: 5.43px; stroke-dasharray: 5.77, 10.18, 0, 0" /></g></g><rect x="462.47" y="633.282" width="419.335" height="322.449" style="fill: none; stroke: rgb(237, 30, 121); stroke-width: 5.32px; stroke-dasharray: 5.65, 9.98, 0, 0" /></g></g></g><g id="circles" opacity="0.5"><g transform="matrix(1,0,0,1,-118.853,-94.5905)"><circle cx="155.124" cy="124.814" r="124.814" style="fill: none; stroke: rgb(255, 207, 0); stroke-width: 4px; stroke-dasharray: 4.25, 7.5, 0, 0" /></g><g transform="matrix(0.928318,0,0,0.928318,-107.734,-85.6437)"><circle cx="155.124" cy="124.814" r="124.814" style="fill: none; stroke: rgb(255, 207, 0); stroke-width: 4.31px; stroke-dasharray: 4.58, 8.08, 0, 0" /></g><g transform="matrix(0.691272,0,0,0.691272,-70.9623,-56.0571)"><circle cx="155.124" cy="124.814" r="124.814" style="fill: none; stroke: rgb(255, 108, 0); stroke-width: 5.79px; stroke-dasharray: 6.15, 10.85, 0, 0" /></g></g><g id="rarity-bars" transform="matrix(0.86723,0,0,0.86723,10.4494,88.5493)"><g id="rarity-bars-fill"><g transform="matrix(0.114833,0,0,0.114833,59.0756,653.445)"><path d="M400,117.517L629.266,249.774L629.266,514.685L400.192,646.941L400.192,647.052L400.096,646.997L400,647.052L400,646.941L170.925,514.685L170.925,249.774L400,117.517Z" style="fill: rgb(139, 57, 219)" /></g><g transform="matrix(0.114833,0,0,0.114833,126.648,653.445)"><path d="M400,117.517L629.266,249.774L629.266,514.685L400.192,646.941L400.192,647.052L400.096,646.997L400,647.052L400,646.941L170.925,514.685L170.925,249.774L400,117.517Z" style="fill: rgb(237, 30, 121)" /></g><g transform="matrix(0.114833,0,0,0.114833,194.22,653.445)"><path d="M400,117.517L629.266,249.774L629.266,514.685L400.192,646.941L400.192,647.052L400.096,646.997L400,647.052L400,646.941L170.925,514.685L170.925,249.774L400,117.517Z" style="fill: rgb(241, 90, 36)" /></g><!-- <g transform="matrix(0.114833,0,0,0.114833,261.792,653.445)"><path d="M400,117.517L629.266,249.774L629.266,514.685L400.192,646.941L400.192,647.052L400.096,646.997L400,647.052L400,646.941L170.925,514.685L170.925,249.774L400,117.517Z" style="fill: rgb(251, 176, 59)" /></g> --><!-- <g transform="matrix(0.114833,0,0,0.114833,329.364,653.445)"><path d="M400,117.517L629.266,249.774L629.266,514.685L400.192,646.941L400.192,647.052L400.096,646.997L400,647.052L400,646.941L170.925,514.685L170.925,249.774L400,117.517Z" style="fill: rgb(41, 171, 226)" /></g> --></g><g id="rarity-bars-stroke"><g transform="matrix(0.114833,0,0,0.114833,59.0756,653.445)"><path d="M400,117.517L629.266,249.774L629.266,514.685L400.192,646.941L400.192,647.052L400.096,646.997L400,647.052L400,646.941L170.925,514.685L170.925,249.774L400,117.517Z" style="fill: none; stroke: white; stroke-width: 34.83px" /></g><g transform="matrix(0.114833,0,0,0.114833,126.648,653.445)"><path d="M400,117.517L629.266,249.774L629.266,514.685L400.192,646.941L400.192,647.052L400.096,646.997L400,647.052L400,646.941L170.925,514.685L170.925,249.774L400,117.517Z" style="fill: none; stroke: white; stroke-width: 34.83px" /></g><g transform="matrix(0.114833,0,0,0.114833,194.22,653.445)"><path d="M400,117.517L629.266,249.774L629.266,514.685L400.192,646.941L400.192,647.052L400.096,646.997L400,647.052L400,646.941L170.925,514.685L170.925,249.774L400,117.517Z" style="fill: none; stroke: white; stroke-width: 34.83px" /></g><g transform="matrix(0.114833,0,0,0.114833,261.792,653.445)"><path d="M400,117.517L629.266,249.774L629.266,514.685L400.192,646.941L400.192,647.052L400.096,646.997L400,647.052L400,646.941L170.925,514.685L170.925,249.774L400,117.517Z" style="fill: none; stroke: white; stroke-width: 34.83px" /></g><g transform="matrix(0.114833,0,0,0.114833,329.364,653.445)"><path d="M400,117.517L629.266,249.774L629.266,514.685L400.192,646.941L400.192,647.052L400.096,646.997L400,647.052L400,646.941L170.925,514.685L170.925,249.774L400,117.517Z" style="fill: none; stroke: white; stroke-width: 34.83px" /></g></g></g><g transform="matrix(0.720342,0,0,0.720342,23.1337,330.63)"><text x="77.471px" y="439.84px" style="font-family: 'Futura-Medium', 'Futura', sans-serif; font-weight: 500; font-size: 50px; fill: white">RARITY</text></g><g transform="matrix(0.911866,0,0,0.911866,252.534,309.097)"><text x="190.763px" y="439.84px" style="font-family: 'Futura-Medium', 'Futura', sans-serif; font-weight: 500; font-size: 50px; fill: white" id="wear_value"></text></g><g transform="matrix(0.720342,0,0,0.720342,340.614,330.63)"><text x="77.471px" y="439.84px" style="font-family: 'Futura-Medium', 'Futura', sans-serif; font-weight: 500; font-size: 50px; fill: white">WEAR</text></g><g transform="matrix(1,0,0,1,11.3386,0)"><g id="clothing"><path d="M643.088,685.842C646.783,685.778 648.661,683.2 649.092,679.318C650.012,671.056 649.138,666.716 649.138,666.716L653.408,666.766C653.408,666.766 651.456,677.988 655.595,682.825C658.992,686.794 662.073,686.445 662.073,686.445L662.462,712.698L623.892,712.698L624.28,686.445C624.28,686.445 626.476,686.794 629.873,682.825C634.012,677.988 632.06,666.766 632.06,666.766L636.417,666.616C636.417,666.616 635.514,670.986 636.433,679.248C636.865,683.129 638.73,685.919 643.088,685.842Z" style="fill: white" /></g></g><g transform="matrix(0.720342,0,0,0.720342,520.614,330.63)"><text x="124.102px" y="439.84px" style="font-family: 'Futura-Medium', 'Futura', sans-serif; font-weight: 500; font-size: 50px; fill: white">SLOT</text></g><g transform="matrix(1,0,0,1,-7.69409,0)"><path d="M82.194,602.738L733.196,602.258C733.979,602.258 734.615,601.621 734.614,600.838C734.614,600.055 733.977,599.42 733.194,599.42L82.192,599.9C81.409,599.901 80.773,600.537 80.774,601.321C80.775,602.104 81.411,602.739 82.194,602.738Z" style="fill: white" /></g><g transform="matrix(1,0,0,1,120.441,145.046)"><text x="120.471px" y="439.84px" style="font-family: 'Futura-Medium', 'Futura', sans-serif; font-weight: 500; font-size: 50px; fill: white">SHINOBI SUIT</text></g><path id="border" d="M800,801.235L800,-4.106L-0,-4.106L0,801.235L800,801.235ZM260.875,30.644L30.644,30.644C30.644,30.644 30.644,769.356 30.644,769.356C30.644,769.356 769.356,769.356 769.356,769.356L769.356,30.644L539.125,30.644L539.125,61.806L260.875,61.806L260.875,30.644Z" style="fill: rgb(0, 153, 197)" /><g id="guide" transform="matrix(1,0,0,1.04284,1.75676,-22.4672)"><rect x="82.193" y="95.569" width="632.101" height="428.927" style="fill: url(#_Linear3_card_template); stroke: rgb(0, 153, 197); stroke-width: 4.8px" /><rect x="82.193" y="95.569" width="632.101" height="428.927" style="fill: url(#shinobi-suit)"/></g><pattern id="shinobi-suit" viewBox="0,0,800,800" width="100%" height="100%"><g transform="matrix(1.02852,0,0,1,-6.99002,-39.6109)"><g id="accessories-back"><g id="shinobi-dress-back"><ellipse cx="395.803" cy="443.109" rx="258.132" ry="45.134" style="fill: rgb(237, 30, 121)" /><clipPath id="_clip1"><ellipse cx="395.803" cy="443.109" rx="258.132" ry="45.134" /></clipPath><g clip-path="url(#_clip1)"><g transform="matrix(1,0,0,1,0,6.02362)"><ellipse cx="395.803" cy="443.109" rx="258.132" ry="45.134" style="fill: rgb(119, 57, 106)" /></g></g><ellipse cx="395.803" cy="443.109" rx="258.132" ry="45.134" style="fill: none; stroke: black; stroke-width: 2.1px" /></g></g></g><g id="accessories"><g id="shinobi-dress-front"><path d="M353.512,430.753C362.082,430.691 437.811,430.691 446.38,430.753C499.937,431.142 551.211,432.803 604.203,424.271C620.171,421.699 636.063,417.771 651.45,412.714C660.063,409.882 665.546,403.025 665.546,403.025C665.546,403.025 663.953,415.398 659.76,427.963C654.416,443.975 653.269,459.322 648.211,475.417C640.912,498.64 639.37,518.423 634.44,542.276C633.338,547.61 631.618,564.509 631.618,564.509C631.618,564.509 641.945,564.321 644.263,565.778C650.897,569.948 647.988,582.931 654.356,586.59C662.48,591.258 679.796,592.393 686.403,595.293C691.269,597.429 692.777,604.356 697.393,606.994C703.943,610.737 712.998,609.021 720.013,612.405C731.218,617.809 741.192,626.835 751.91,633.238C773.353,646.05 806.138,660.863 822.786,681.097C833.859,694.556 837.248,715.517 841.17,731.86C850.614,771.208 858.466,810.778 866.217,850.485C871.576,877.941 877.748,905.216 885.884,931.992C887.359,936.843 895.997,953.599 889.919,957.438C881.274,962.898 862.629,958.049 853.2,957.543C826.512,956.11 800.014,957.453 773.374,959.14C693.039,964.227 612.757,961.936 532.415,958.205C493.884,956.416 306.008,956.416 267.478,958.205C187.135,961.936 106.854,964.227 26.519,959.14C-0.122,957.453 -26.619,956.11 -53.307,957.543C-62.736,958.049 -81.381,962.898 -90.026,957.438C-96.105,953.599 -87.466,936.843 -85.992,931.992C-77.856,905.216 -71.684,877.941 -66.324,850.485C-58.573,810.778 -50.721,771.208 -41.278,731.86C-37.355,715.517 -33.967,694.556 -22.893,681.097C-6.245,660.863 26.54,646.05 47.983,633.238C58.701,626.835 68.675,617.809 79.88,612.405C86.895,609.021 95.95,610.737 102.5,606.994C107.116,604.356 108.624,597.429 113.49,595.293C120.096,592.393 137.413,591.258 145.537,586.59C151.905,582.931 148.996,569.948 155.629,565.778C157.948,564.321 168.274,564.509 168.274,564.509C168.274,564.509 166.555,547.61 165.453,542.276C160.523,518.423 158.98,498.64 151.682,475.417C146.623,459.322 144.764,444.196 140.132,427.963C136.943,416.785 134.546,402.574 134.546,402.574C134.546,402.574 141.292,409.727 148.443,412.714C163.389,418.956 179.722,421.699 195.689,424.271C248.682,432.803 299.956,431.142 353.512,430.753Z" style="fill: rgb(57, 53, 52)" /><clipPath id="_clip2"><path d="M353.512,430.753C362.082,430.691 437.811,430.691 446.38,430.753C499.937,431.142 551.211,432.803 604.203,424.271C620.171,421.699 636.063,417.771 651.45,412.714C660.063,409.882 665.546,403.025 665.546,403.025C665.546,403.025 663.953,415.398 659.76,427.963C654.416,443.975 653.269,459.322 648.211,475.417C640.912,498.64 639.37,518.423 634.44,542.276C633.338,547.61 631.618,564.509 631.618,564.509C631.618,564.509 641.945,564.321 644.263,565.778C650.897,569.948 647.988,582.931 654.356,586.59C662.48,591.258 679.796,592.393 686.403,595.293C691.269,597.429 692.777,604.356 697.393,606.994C703.943,610.737 712.998,609.021 720.013,612.405C731.218,617.809 741.192,626.835 751.91,633.238C773.353,646.05 806.138,660.863 822.786,681.097C833.859,694.556 837.248,715.517 841.17,731.86C850.614,771.208 858.466,810.778 866.217,850.485C871.576,877.941 877.748,905.216 885.884,931.992C887.359,936.843 895.997,953.599 889.919,957.438C881.274,962.898 862.629,958.049 853.2,957.543C826.512,956.11 800.014,957.453 773.374,959.14C693.039,964.227 612.757,961.936 532.415,958.205C493.884,956.416 306.008,956.416 267.478,958.205C187.135,961.936 106.854,964.227 26.519,959.14C-0.122,957.453 -26.619,956.11 -53.307,957.543C-62.736,958.049 -81.381,962.898 -90.026,957.438C-96.105,953.599 -87.466,936.843 -85.992,931.992C-77.856,905.216 -71.684,877.941 -66.324,850.485C-58.573,810.778 -50.721,771.208 -41.278,731.86C-37.355,715.517 -33.967,694.556 -22.893,681.097C-6.245,660.863 26.54,646.05 47.983,633.238C58.701,626.835 68.675,617.809 79.88,612.405C86.895,609.021 95.95,610.737 102.5,606.994C107.116,604.356 108.624,597.429 113.49,595.293C120.096,592.393 137.413,591.258 145.537,586.59C151.905,582.931 148.996,569.948 155.629,565.778C157.948,564.321 168.274,564.509 168.274,564.509C168.274,564.509 166.555,547.61 165.453,542.276C160.523,518.423 158.98,498.64 151.682,475.417C146.623,459.322 144.764,444.196 140.132,427.963C136.943,416.785 134.546,402.574 134.546,402.574C134.546,402.574 141.292,409.727 148.443,412.714C163.389,418.956 179.722,421.699 195.689,424.271C248.682,432.803 299.956,431.142 353.512,430.753Z" /></clipPath><g clip-path="url(#_clip2)"><path id="highlight" d="M287.371,428.189C287.371,428.189 214.895,428.576 160.546,422.478C160.933,437.745 171.623,505.253 175.224,520.554C178.826,535.856 183.537,570.278 186.152,578.102C188.766,585.925 197.708,610.833 197.708,610.833L166.507,573.511C166.507,573.511 161.299,572.671 159.386,578.93C157.473,585.189 152.51,598.96 152.51,598.96L154.014,618.852C154.014,618.852 144.962,607.853 144.223,606.83C143.483,605.806 142.61,600.379 142.61,600.379C142.61,600.379 132.329,608.809 127.85,611.405C123.372,614.002 121.027,614.464 112.422,616.107C103.817,617.75 96.015,619.952 93.651,620.778C91.287,621.604 87.885,623.68 86.78,625.032C85.675,626.385 96.994,652.903 96.901,654.199C96.808,655.495 90.657,651.22 88.097,648.442C85.536,645.665 73.006,634.628 73.006,634.628C73.006,634.628 59.49,642.459 53.376,646.273C47.262,650.087 38.625,655.137 31.958,661.397C25.292,667.656 10.59,677.835 10.59,677.835L17.681,696.852C17.681,696.852 20.822,714.117 21.165,715.11C21.508,716.103 6.754,687.878 6.754,687.878C6.754,687.878 -1.946,674.665 -4.626,672.721C-7.307,670.778 -16.276,686.292 -19.366,694.536C-22.455,702.78 -64.898,795.344 -64.898,795.344L-45.987,686.794L-15.503,635.625L87.571,562.585C87.571,562.585 103.137,419.54 103.303,413.375C103.47,407.209 132.744,372.762 132.744,372.762L280.648,400.588L287.371,428.189ZM512.307,428.189C512.307,428.189 584.784,428.576 639.132,422.478C638.745,437.745 628.055,505.253 624.454,520.554C620.852,535.856 616.141,570.278 613.526,578.102C610.912,585.925 601.97,610.833 601.97,610.833L633.171,573.511C633.171,573.511 638.379,572.671 640.292,578.93C642.205,585.189 647.168,598.96 647.168,598.96L645.664,618.852C645.664,618.852 654.716,607.853 655.455,606.83C656.195,605.806 657.069,600.379 657.069,600.379C657.069,600.379 667.349,608.809 671.828,611.405C676.306,614.002 678.651,614.464 687.256,616.107C695.861,617.75 703.663,619.952 706.027,620.778C708.391,621.604 711.793,623.68 712.898,625.032C714.003,626.385 702.684,652.903 702.777,654.199C702.87,655.495 709.021,651.22 711.581,648.442C714.142,645.665 726.672,634.628 726.672,634.628C726.672,634.628 740.188,642.459 746.302,646.273C752.417,650.087 761.053,655.137 767.72,661.397C774.386,667.656 789.088,677.835 789.088,677.835L781.997,696.852C781.997,696.852 778.856,714.117 778.513,715.11C778.17,716.103 792.924,687.878 792.924,687.878C792.924,687.878 801.624,674.665 804.305,672.721C806.985,670.778 815.954,686.292 819.044,694.536C822.134,702.78 864.576,795.344 864.576,795.344L845.665,686.794L815.181,635.625L712.107,562.585C712.107,562.585 696.542,419.54 696.375,413.375C696.208,407.209 666.934,372.762 666.934,372.762L519.03,400.588L512.307,428.189Z" style="fill: rgb(252, 255, 216); fill-opacity: 0.51" /><path id="shadow" d="M317.235,779.996C322.847,779.562 326.854,779.332 326.854,779.332L310.124,759.433L288.734,749.211C288.734,749.211 237.277,721.04 236.337,718.238C235.398,715.436 202.881,667.584 202.881,667.584C202.881,667.584 216.342,676.664 225.696,681.128C235.05,685.592 266.41,700.377 266.41,700.377L245.672,665.319L234.362,645.414C234.362,645.414 268.974,669.543 296.109,682.009C323.243,694.475 341.738,699.223 341.738,699.223C341.738,699.223 291.895,672.278 276.169,656.763C260.444,641.248 257.207,631.675 251.954,613.054C246.702,594.434 229.672,485.02 229.672,485.02L224.753,446.806L272.766,447.843C272.766,447.843 224.606,440.184 215.661,438.59C206.716,436.995 183.074,429.799 183.074,429.799C183.074,429.799 279.277,436.162 302.231,436.723C325.186,437.285 384.358,435.346 384.358,435.346L399.946,436.181L399.946,706.473L400,836.387L400,938.037L365.102,888.824C365.102,888.824 327.938,855.628 303.592,840.662C279.246,825.697 269.319,808.551 271.575,800C272.541,796.339 273.43,793.602 274.786,791.408L211.146,740.424C211.146,740.424 228.019,745.103 232.831,747.256C236.221,748.773 287.33,768.483 317.235,779.996ZM483.088,779.996C477.476,779.562 473.469,779.332 473.469,779.332L490.199,759.433L511.589,749.211C511.589,749.211 563.046,721.04 563.986,718.238C564.925,715.436 597.442,667.584 597.442,667.584C597.442,667.584 583.981,676.664 574.627,681.128C565.273,685.592 533.913,700.377 533.913,700.377L554.651,665.319L565.961,645.414C565.961,645.414 531.349,669.543 504.214,682.009C477.08,694.475 458.585,699.223 458.585,699.223C458.585,699.223 508.428,672.278 524.154,656.763C539.879,641.248 543.116,631.675 548.369,613.054C553.621,594.434 570.651,485.02 570.651,485.02L575.57,446.806L527.557,447.843C527.557,447.843 575.717,440.184 584.662,438.59C593.607,436.995 617.249,429.799 617.249,429.799C617.249,429.799 521.046,436.162 498.092,436.723C475.137,437.285 415.965,435.346 415.965,435.346L400.377,436.181L400.377,706.473L400.323,836.387L400.323,938.037L435.221,888.824C435.221,888.824 472.385,855.628 496.731,840.662C521.077,825.697 531.004,808.551 528.748,800C527.782,796.339 526.893,793.602 525.537,791.408L589.177,740.424C589.177,740.424 572.304,745.103 567.492,747.256C564.102,748.773 512.993,768.483 483.088,779.996ZM22.645,721.306C22.645,721.306 37.757,745.772 42.969,754.762C48.181,763.752 60.504,781.801 64.979,789.247C69.453,796.693 85.822,830.165 87.144,832.76C88.467,835.355 103.314,885.975 103.314,885.975L79.055,853.526L22.645,721.306ZM777.678,721.306C777.678,721.306 762.566,745.772 757.354,754.762C752.142,763.752 739.819,781.801 735.344,789.247C730.87,796.693 714.501,830.165 713.179,832.76C711.856,835.355 697.009,885.975 697.009,885.975L721.268,853.526L777.678,721.306ZM58.7,726.147C58.7,726.147 56.862,742.29 57.657,753.144C58.452,763.998 59.002,767.625 64.081,776.97C69.16,786.316 101.248,843.282 104.905,850.849C108.561,858.416 123.555,877.112 123.555,877.112L88.502,798.646L65.841,745.178L58.7,726.147ZM741.623,726.147C741.623,726.147 743.461,742.29 742.666,753.144C741.871,763.998 741.321,767.625 736.242,776.97C731.163,786.316 699.075,843.282 695.418,850.849C691.762,858.416 676.768,877.112 676.768,877.112L711.821,798.646L734.482,745.178L741.623,726.147ZM22.252,772.596C22.252,772.596 36.608,821.223 44.311,832.519C52.014,843.815 76.907,864.31 76.907,864.31C76.907,864.31 48.211,806.134 43.857,800.289C39.503,794.444 22.252,772.596 22.252,772.596ZM778.071,772.596C778.071,772.596 763.715,821.223 756.012,832.519C748.309,843.815 723.416,864.31 723.416,864.31C723.416,864.31 752.112,806.134 756.466,800.289C760.82,794.444 778.071,772.596 778.071,772.596ZM91.484,630.975C91.484,630.975 91.962,636.648 99.692,649.894C107.422,663.14 120.062,679.674 127.133,684.395C134.204,689.116 174.181,716.645 174.181,716.645C174.181,716.645 136.153,677.597 129.542,669.14C122.931,660.683 103.291,641.304 103.291,641.304L91.484,630.975ZM708.839,630.975C708.839,630.975 708.361,636.648 700.631,649.894C692.901,663.14 680.261,679.674 673.19,684.395C666.119,689.116 626.142,716.645 626.142,716.645C626.142,716.645 664.17,677.597 670.781,669.14C677.392,660.683 697.032,641.304 697.032,641.304L708.839,630.975ZM148.232,591.616C148.232,591.616 157.914,602.065 162.225,611.49C166.537,620.915 180.355,649.068 180.355,649.068C180.355,649.068 161.657,630.024 158.74,626.478C155.824,622.933 153.204,621.276 152.279,616.81C151.354,612.344 148.232,591.616 148.232,591.616ZM652.091,591.616C652.091,591.616 642.409,602.065 638.098,611.49C633.786,620.915 619.968,649.068 619.968,649.068C619.968,649.068 638.666,630.024 641.583,626.478C644.499,622.933 647.119,621.276 648.044,616.81C648.969,612.344 652.091,591.616 652.091,591.616ZM168.179,562.426C168.179,562.426 173.08,580.069 180.541,588.204C188.002,596.339 221.962,636.654 221.962,636.654C221.962,636.654 204.189,628.709 193.547,618.415C182.905,608.121 168.623,592.586 166.656,587.702C164.689,582.818 168.179,562.426 168.179,562.426ZM632.144,562.426C632.144,562.426 627.243,580.069 619.782,588.204C612.321,596.339 578.361,636.654 578.361,636.654C578.361,636.654 596.134,628.709 606.776,618.415C617.418,608.121 631.7,592.586 633.667,587.702C635.634,582.818 632.144,562.426 632.144,562.426Z" style="fill: rgb(33, 29, 28)" /><g id="lines"><path d="M169.093,563.322C169.139,563.325 171.757,571.602 171.997,572.206C174.354,578.138 177.321,583.795 181.091,588.954C193.249,605.592 207.974,620.638 221.935,635.761" style="fill: none; stroke: black; stroke-width: 2.1px" /><g transform="matrix(-1,0,0,1,800.175,0)"><path d="M169.093,563.322C169.139,563.325 171.757,571.602 171.997,572.206C174.354,578.138 177.321,583.795 181.091,588.954C193.249,605.592 207.974,620.638 221.935,635.761" style="fill: none; stroke: black; stroke-width: 2.1px" /></g><path d="M148.777,591.733C148.898,591.693 150.213,593.792 150.294,593.907C151.928,596.233 153.615,598.523 155.228,600.865C162.366,611.231 167.527,621.966 172.612,633.409C175.162,639.148 177.862,645.383 181.811,650.328C186.29,655.935 192.742,660.073 198.444,664.31C206.677,670.427 214.758,676.677 223.625,681.867" style="fill: none; stroke: black; stroke-width: 2.1px" /><g transform="matrix(-1,0,0,1,800.175,0)"><path d="M148.777,591.733C148.898,591.693 150.213,593.792 150.294,593.907C151.928,596.233 153.615,598.523 155.228,600.865C162.366,611.231 167.527,621.966 172.612,633.409C175.162,639.148 177.862,645.383 181.811,650.328C186.29,655.935 192.742,660.073 198.444,664.31C206.677,670.427 214.758,676.677 223.625,681.867" style="fill: none; stroke: black; stroke-width: 2.1px" /></g><path d="M249.663,657.15C279.315,680.375 316,690.319 350.287,703.688" style="fill: none; stroke: black; stroke-width: 2.1px" /><g transform="matrix(-1,0,0,1,800.175,0)"><path d="M249.663,657.15C279.315,680.375 316,690.319 350.287,703.688" style="fill: none; stroke: black; stroke-width: 2.1px" /></g><path d="M92.255,630.299C91.687,629.757 93.427,631.345 93.988,631.893C95.116,632.995 96.23,634.111 97.343,635.228C100.464,638.36 103.563,641.505 106.603,644.715C116.131,654.775 125.644,664.849 134.947,675.119C145.52,686.793 155.386,699.909 167.34,710.237C186.024,726.378 209.847,739.914 231.032,752.553" style="fill: none; stroke: black; stroke-width: 2.1px" /><g transform="matrix(-1,0,0,1,800.175,0)"><path d="M92.255,630.299C91.687,629.757 93.427,631.345 93.988,631.893C95.116,632.995 96.23,634.111 97.343,635.228C100.464,638.36 103.563,641.505 106.603,644.715C116.131,654.775 125.644,664.849 134.947,675.119C145.52,686.793 155.386,699.909 167.34,710.237C186.024,726.378 209.847,739.914 231.032,752.553" style="fill: none; stroke: black; stroke-width: 2.1px" /></g><path d="M59.239,725.838C60.52,726.469 61.837,733.155 62.249,734.377C65.074,742.763 68.19,751.08 71.53,759.273C84.109,790.127 98.598,819.516 114.386,848.847" style="fill: none; stroke: black; stroke-width: 2.1px" /><g transform="matrix(-1,0,0,1,800.175,0)"><path d="M59.239,725.838C60.52,726.469 61.837,733.155 62.249,734.377C65.074,742.763 68.19,751.08 71.53,759.273C84.109,790.127 98.598,819.516 114.386,848.847" style="fill: none; stroke: black; stroke-width: 2.1px" /></g><path d="M1.482,673.241C1.837,673.19 5.662,682.65 5.923,683.217C11.114,694.509 16.267,705.832 21.665,717.026C44.974,765.365 82.134,828.66 136.403,1005.79" style="fill: none; stroke: black; stroke-width: 2.1px" /><g transform="matrix(-1,0,0,1,800.175,0)"><path d="M1.482,673.241C1.837,673.19 5.662,682.65 5.923,683.217C11.114,694.509 16.267,705.832 21.665,717.026C44.974,765.365 82.134,828.66 136.403,1005.79" style="fill: none; stroke: black; stroke-width: 2.1px" /></g><path d="M22.608,771.255C21.648,770.716 23.82,773.091 24.433,774.004C25.741,775.953 27.1,777.87 28.442,779.796C32.452,785.55 36.657,791.159 40.839,796.789C53.056,813.233 87.438,863.616 98.514,880.853" style="fill: none; stroke: black; stroke-width: 2.1px" /><g transform="matrix(-1,0,0,1,800.175,0)"><path d="M22.608,771.255C21.648,770.716 23.82,773.091 24.433,774.004C25.741,775.953 27.1,777.87 28.442,779.796C32.452,785.55 36.657,791.159 40.839,796.789C53.056,813.233 87.438,863.616 98.514,880.853" style="fill: none; stroke: black; stroke-width: 2.1px" /></g></g><path id="pinkish" d="M383.223,406.622L416.866,406.622L415.264,779.683C465.695,745.127 494.45,747.677 518.597,752.871C544.259,758.391 560.776,775.066 564.553,800.623C568.33,826.179 559.363,848.271 559.363,848.271L548.952,881.591L514.176,880.629C514.176,880.629 517.017,873.889 525.671,843.66C534.325,813.432 530.222,794.92 514.252,786.141C498.282,777.362 466.787,777.831 441.148,794.013C429.254,801.52 420.766,812.086 415.086,821.256L414.332,996.89L385.757,996.89L385.003,821.256C379.322,812.086 370.835,801.52 358.941,794.013C333.301,777.831 301.807,777.362 285.837,786.141C269.867,794.92 265.763,813.432 274.417,843.66C283.072,873.889 285.912,880.629 285.912,880.629L251.136,881.591L240.726,848.271C240.726,848.271 231.758,826.179 235.535,800.623C239.312,775.066 255.83,758.391 281.491,752.871C305.639,747.677 334.393,745.127 384.824,779.683L383.223,406.622Z" style="fill: rgb(237, 30, 121)" /><clipPath id="_clip3"><path id="pinkish1" d="M383.223,406.622L416.866,406.622L415.264,779.683C465.695,745.127 494.45,747.677 518.597,752.871C544.259,758.391 560.776,775.066 564.553,800.623C568.33,826.179 559.363,848.271 559.363,848.271L548.952,881.591L514.176,880.629C514.176,880.629 517.017,873.889 525.671,843.66C534.325,813.432 530.222,794.92 514.252,786.141C498.282,777.362 466.787,777.831 441.148,794.013C429.254,801.52 420.766,812.086 415.086,821.256L414.332,996.89L385.757,996.89L385.003,821.256C379.322,812.086 370.835,801.52 358.941,794.013C333.301,777.831 301.807,777.362 285.837,786.141C269.867,794.92 265.763,813.432 274.417,843.66C283.072,873.889 285.912,880.629 285.912,880.629L251.136,881.591L240.726,848.271C240.726,848.271 231.758,826.179 235.535,800.623C239.312,775.066 255.83,758.391 281.491,752.871C305.639,747.677 334.393,745.127 384.824,779.683L383.223,406.622Z" /></clipPath><g clip-path="url(#_clip3)"><path d="M400.195,434.548C409.73,434.495 423.625,434.602 426.425,435.627C430.774,437.219 423.758,498.713 423.758,498.713L415.072,517.017C415.072,517.017 412.916,600.302 412.475,617.875C412.034,635.449 413.853,761.974 414.359,764.682C414.865,767.391 420.2,748.841 420.2,748.841L450.574,758.526C450.574,758.526 488.438,749.726 501.92,754.396C490.301,761.952 440.375,790.142 451.828,786.359C463.281,782.576 487.31,775.076 494.779,772.677C502.247,770.279 533.723,761.047 534.061,760.922C534.399,760.797 542.8,764.547 548.971,771.932C544.326,775.761 522.974,793.341 522.974,793.341L434.287,827.493L414.81,824.627L414.81,824.629C414.899,835.803 414.675,842.892 413.785,838.651L414.81,824.629C414.637,803.11 413.298,766.437 413.298,766.437C412.874,764.712 411.957,779.452 412.37,784.371C412.555,786.578 413.069,809.094 413.425,824.423L400.195,822.476L386.964,824.423C387.32,809.094 387.834,786.578 388.02,784.371C388.433,779.452 387.515,764.712 387.092,766.437C387.092,766.437 385.753,803.11 385.58,824.629L386.604,838.651C385.715,842.892 385.49,835.803 385.58,824.629L385.58,824.627L366.103,827.493L277.415,793.341C277.415,793.341 256.064,775.761 251.419,771.932C257.589,764.547 265.991,760.797 266.329,760.922C266.666,761.047 298.142,770.279 305.611,772.677C313.079,775.076 337.109,782.576 348.562,786.359C360.015,790.142 310.089,761.952 298.469,754.396C311.951,749.726 349.816,758.526 349.816,758.526L380.189,748.841C380.189,748.841 385.525,767.391 386.03,764.682C386.536,761.974 388.608,636.049 388.167,618.476C387.726,600.902 385.318,517.017 385.318,517.017L376.632,498.713C376.632,498.713 369.616,437.219 373.964,435.627C376.765,434.602 390.659,434.495 400.195,434.548Z" style="fill: rgb(119, 57, 106)" /></g><path id="pinkish2" d="M383.223,406.622L416.866,406.622L415.264,779.683C465.695,745.127 494.45,747.677 518.597,752.871C544.259,758.391 560.776,775.066 564.553,800.623C568.33,826.179 559.363,848.271 559.363,848.271L548.952,881.591L514.176,880.629C514.176,880.629 517.017,873.889 525.671,843.66C534.325,813.432 530.222,794.92 514.252,786.141C498.282,777.362 466.787,777.831 441.148,794.013C429.254,801.52 420.766,812.086 415.086,821.256L414.332,996.89L385.757,996.89L385.003,821.256C379.322,812.086 370.835,801.52 358.941,794.013C333.301,777.831 301.807,777.362 285.837,786.141C269.867,794.92 265.763,813.432 274.417,843.66C283.072,873.889 285.912,880.629 285.912,880.629L251.136,881.591L240.726,848.271C240.726,848.271 231.758,826.179 235.535,800.623C239.312,775.066 255.83,758.391 281.491,752.871C305.639,747.677 334.393,745.127 384.824,779.683L383.223,406.622Z" style="fill: none; stroke: black; stroke-width: 2.1px" /></g><path d="M353.512,430.753C362.082,430.691 437.811,430.691 446.38,430.753C499.937,431.142 551.211,432.803 604.203,424.271C620.171,421.699 636.063,417.771 651.45,412.714C660.063,409.882 665.546,403.025 665.546,403.025C665.546,403.025 663.953,415.398 659.76,427.963C654.416,443.975 653.269,459.322 648.211,475.417C640.912,498.64 639.37,518.423 634.44,542.276C633.338,547.61 631.618,564.509 631.618,564.509C631.618,564.509 641.945,564.321 644.263,565.778C650.897,569.948 647.988,582.931 654.356,586.59C662.48,591.258 679.796,592.393 686.403,595.293C691.269,597.429 692.777,604.356 697.393,606.994C703.943,610.737 712.998,609.021 720.013,612.405C731.218,617.809 741.192,626.835 751.91,633.238C773.353,646.05 806.138,660.863 822.786,681.097C833.859,694.556 837.248,715.517 841.17,731.86C850.614,771.208 858.466,810.778 866.217,850.485C871.576,877.941 877.748,905.216 885.884,931.992C887.359,936.843 895.997,953.599 889.919,957.438C881.274,962.898 862.629,958.049 853.2,957.543C826.512,956.11 800.014,957.453 773.374,959.14C693.039,964.227 612.757,961.936 532.415,958.205C493.884,956.416 306.008,956.416 267.478,958.205C187.135,961.936 106.854,964.227 26.519,959.14C-0.122,957.453 -26.619,956.11 -53.307,957.543C-62.736,958.049 -81.381,962.898 -90.026,957.438C-96.105,953.599 -87.466,936.843 -85.992,931.992C-77.856,905.216 -71.684,877.941 -66.324,850.485C-58.573,810.778 -50.721,771.208 -41.278,731.86C-37.355,715.517 -33.967,694.556 -22.893,681.097C-6.245,660.863 26.54,646.05 47.983,633.238C58.701,626.835 68.675,617.809 79.88,612.405C86.895,609.021 95.95,610.737 102.5,606.994C107.116,604.356 108.624,597.429 113.49,595.293C120.096,592.393 137.413,591.258 145.537,586.59C151.905,582.931 148.996,569.948 155.629,565.778C157.948,564.321 168.274,564.509 168.274,564.509C168.274,564.509 166.555,547.61 165.453,542.276C160.523,518.423 158.98,498.64 151.682,475.417C146.623,459.322 144.764,444.196 140.132,427.963C136.943,416.785 134.546,402.574 134.546,402.574C134.546,402.574 141.292,409.727 148.443,412.714C163.389,418.956 179.722,421.699 195.689,424.271C248.682,432.803 299.956,431.142 353.512,430.753Z" style="fill: none; stroke: black; stroke-width: 2.1px" /></g></g></pattern><g transform="matrix(1,0,0,1,7.6296,-2.65748)"><text x="263.72px" y="53.076px" style="font-family: 'Futura-Medium', 'Futura', sans-serif; font-weight: 500; font-size: 50px; fill: white">SEASON 0</text></g></g><defs><linearGradient id="_Linear3_card_template" x1="0" y1="0" x2="1" y2="0" gradientUnits="userSpaceOnUse" gradientTransform="matrix(3.89688e-14,-610.267,636.408,3.73681e-14,398.243,614.74)"><stop offset="0" style="stop-color: rgb(80, 225, 255); stop-opacity: 1" /><stop offset="0.44" style="stop-color: rgb(219, 249, 255); stop-opacity: 1" /><stop offset="1" style="stop-color: white; stop-opacity: 1" /></linearGradient><g id="heli-cap"><path id="Shadow" d="M404.234,215.129C428.898,218.296 500.585,226.535 542.136,238.146C592.982,252.354 584.265,253.34 584.265,253.34L550.569,247.259L542.493,305.294C542.493,305.294 541.37,323.811 530.272,331.323C519.173,338.835 479.09,333.357 447.17,329.124C424.063,326.059 407.352,325.468 399.884,325.376C392.417,325.468 375.705,326.059 352.598,329.124C320.678,333.357 280.595,338.835 269.497,331.323C258.398,323.811 257.275,305.294 257.275,305.294L249.199,247.259L215.503,253.34C215.503,253.34 207.131,252.297 257.976,238.089C299.527,226.479 370.87,218.296 395.534,215.129L395.534,214.041C395.534,214.041 397.081,214.225 399.884,214.577C402.687,214.225 404.234,214.041 404.234,214.041L404.234,215.129Z" style="fill: rgb(56, 25, 57); fill-opacity: 0.5" /><g id="fan-bit"><path d="M395.662,27.087C395.662,27.087 305.36,21.898 297.195,21.931C289.03,21.964 217.675,23.635 219.953,27.087C222.232,30.54 246.78,39.059 264.821,40.14C282.862,41.221 395.662,31.814 395.662,31.814L395.662,27.087Z" style="fill: rgb(255, 223, 92)" /><clipPath id="_clip1_helicap"><path d="M395.662,27.087C395.662,27.087 305.36,21.898 297.195,21.931C289.03,21.964 217.675,23.635 219.953,27.087C222.232,30.54 246.78,39.059 264.821,40.14C282.862,41.221 395.662,31.814 395.662,31.814L395.662,27.087Z" /></clipPath><g clip-path="url(#_clip1_helicap)"><path d="M225.045,30.993C224.466,30.556 226.493,31.072 227.216,31.134C228.615,31.253 230.015,31.49 231.402,31.711C235.56,32.373 239.679,33.266 243.832,33.951C256.481,36.039 268.516,36.65 281.321,35.92C311.507,34.198 341.744,31.992 371.953,30.788C378.744,30.517 385.563,29.762 392.361,29.793C393.154,29.796 398.369,29.49 398.481,30.879C398.643,32.871 390.787,34.056 389.713,34.297C379.34,36.621 368.638,37.688 358.071,38.674C335.223,40.808 312.31,42.38 289.381,43.297C269.861,44.077 249.889,44.568 231.024,38.676" style="fill: rgb(160, 127, 79)" /><path d="M221.982,34.549C221.357,34.464 223.132,34.023 223.728,33.816C224.969,33.385 226.236,33.022 227.503,32.675C231.207,31.658 234.941,30.706 238.7,29.914C250.216,27.49 261.202,27.44 272.971,27.087C304.553,26.141 336.842,27.518 368.406,28.034C376.092,28.159 383.776,28.339 391.464,28.358C393.343,28.363 395.23,28.409 397.107,28.295C397.365,28.279 398.648,28.328 398.721,27.932C398.808,27.454 397.199,26.951 396.934,26.847C394.602,25.938 392.138,25.344 389.71,24.758C378.824,22.128 367.743,20.21 356.698,18.389C320.376,12.401 283.559,9.397 247.002,15.239C236.346,16.943 224.953,18.817 215.008,23.192C211.62,24.682 204.696,29.027 210.51,32.198" style="fill: rgb(254, 239, 171)" /></g><path d="M395.662,27.087C395.662,27.087 305.36,21.898 297.195,21.931C289.03,21.964 217.675,23.635 219.953,27.087C222.232,30.54 246.78,39.059 264.821,40.14C282.862,41.221 395.662,31.814 395.662,31.814L395.662,27.087Z" style="fill: none; stroke: black; stroke-width: 2.1px" /><g transform="matrix(-1,0,0,1,800.877,0)"><path d="M395.662,27.087C395.662,27.087 305.36,21.898 297.195,21.931C289.03,21.964 217.675,23.635 219.953,27.087C222.232,30.54 246.78,39.059 264.821,40.14C282.862,41.221 395.662,31.814 395.662,31.814L395.662,27.087Z" style="fill: rgb(255, 223, 92)" /><clipPath id="_clip2_helicap"><path d="M395.662,27.087C395.662,27.087 305.36,21.898 297.195,21.931C289.03,21.964 217.675,23.635 219.953,27.087C222.232,30.54 246.78,39.059 264.821,40.14C282.862,41.221 395.662,31.814 395.662,31.814L395.662,27.087Z" /></clipPath><g clip-path="url(#_clip2_helicap)"><path d="M225.045,30.993C224.466,30.556 226.493,31.072 227.216,31.134C228.615,31.253 230.015,31.49 231.402,31.711C235.56,32.373 239.679,33.266 243.832,33.951C256.481,36.039 268.516,36.65 281.321,35.92C311.507,34.198 341.744,31.992 371.953,30.788C378.744,30.517 385.563,29.762 392.361,29.793C393.154,29.796 398.369,29.49 398.481,30.879C398.643,32.871 390.787,34.056 389.713,34.297C379.34,36.621 368.638,37.688 358.071,38.674C335.223,40.808 312.31,42.38 289.381,43.297C269.861,44.077 249.889,44.568 231.024,38.676" style="fill: rgb(160, 127, 79)" /><path d="M221.982,34.549C221.357,34.464 223.132,34.023 223.728,33.816C224.969,33.385 226.236,33.022 227.503,32.675C231.207,31.658 234.941,30.706 238.7,29.914C250.216,27.49 261.202,27.44 272.971,27.087C304.553,26.141 336.842,27.518 368.406,28.034C376.092,28.159 383.776,28.339 391.464,28.358C393.343,28.363 395.23,28.409 397.107,28.295C397.365,28.279 398.648,28.328 398.721,27.932C398.808,27.454 397.199,26.951 396.934,26.847C394.602,25.938 392.138,25.344 389.71,24.758C378.824,22.128 367.743,20.21 356.698,18.389C320.376,12.401 283.559,9.397 247.002,15.239C236.346,16.943 224.953,18.817 215.008,23.192C211.62,24.682 204.696,29.027 210.51,32.198" style="fill: rgb(254, 239, 171)" /></g><path d="M395.662,27.087C395.662,27.087 305.36,21.898 297.195,21.931C289.03,21.964 217.675,23.635 219.953,27.087C222.232,30.54 246.78,39.059 264.821,40.14C282.862,41.221 395.662,31.814 395.662,31.814L395.662,27.087Z" style="fill: none; stroke: black; stroke-width: 2.1px" /></g><path d="M395.662,36.495L395.751,21.86C395.751,21.86 396.109,18.084 399.915,17.68C399.926,17.679 399.937,17.679 399.948,17.68C399.959,17.679 399.971,17.679 399.982,17.68C403.788,18.084 404.145,21.86 404.145,21.86L404.234,36.495L395.662,36.495Z" style="fill: rgb(255, 223, 92)" /><clipPath id="_clip3_helicap"><path d="M395.662,36.495L395.751,21.86C395.751,21.86 396.109,18.084 399.915,17.68C399.926,17.679 399.937,17.679 399.948,17.68C399.959,17.679 399.971,17.679 399.982,17.68C403.788,18.084 404.145,21.86 404.145,21.86L404.234,36.495L395.662,36.495Z" /></clipPath><g clip-path="url(#_clip3_helicap)"><path d="M396.408,29.617C396.622,29.65 396.458,29.188 396.499,28.976C396.586,28.528 396.7,28.084 396.829,27.647C397.214,26.343 397.757,24.643 399.011,23.909C400.932,22.783 402.315,25.251 402.895,26.692C403,26.952 403.771,29.292 403.827,29.257C404.439,28.867 404.137,25.96 404.128,25.393C404.091,23.044 404.028,20.205 402.607,18.211C400.488,15.235 397.048,17.454 396.012,20.143C395.592,21.235 395.43,22.372 395.383,23.535C395.31,25.354 395.397,27.164 395.535,28.977" style="fill: rgb(254, 239, 171)" /><path d="M397.685,37.145C397.749,37.229 397.921,36.235 397.982,35.601C398.159,33.772 398.137,29.726 398.588,28.438C398.797,27.841 399.356,26.99 400.104,27.024C400.945,27.062 401.459,28.117 401.604,28.989C401.909,30.833 402.046,33.45 402.211,35.31C402.242,35.657 402.318,36.883 402.038,37.169C401.738,37.475 401.072,37.264 400.699,37.246" style="fill: rgb(160, 127, 79)" /></g><path d="M395.662,36.495L395.751,21.86C395.751,21.86 396.109,18.084 399.915,17.68C399.926,17.679 399.937,17.679 399.948,17.68C399.959,17.679 399.971,17.679 399.982,17.68C403.788,18.084 404.145,21.86 404.145,21.86L404.234,36.495L395.662,36.495Z" style="fill: none; stroke: black; stroke-width: 2.1px" /></g><g id="Cap"><g transform="matrix(1,0,0,1.17244,0.492122,-13.9146)"><ellipse cx="399.645" cy="49.941" rx="13.8" ry="6.946" style="fill: rgb(235, 65, 81)" /><clipPath id="_clip4"><ellipse cx="399.645" cy="49.941" rx="13.8" ry="6.946" /></clipPath><g clip-path="url(#_clip4)"><g transform="matrix(1,0,0,0.85292,-0.492122,11.868)"><path d="M401.096,36.072C401.204,36.209 400.782,36.223 400.629,36.306C400.317,36.474 400.014,36.659 399.719,36.855C398.851,37.433 397.984,38.08 397.247,38.82C396.394,39.676 395.756,40.729 395.141,41.761C394.702,42.5 394.314,43.34 393.452,43.653C391.461,44.376 388.942,43.894 386.882,43.762C386.382,43.73 384.99,43.751 384.867,43.052C384.762,42.453 385.534,41.728 385.889,41.348C387.186,39.958 388.811,38.787 390.491,37.908C392.195,37.015 394.026,36.518 395.915,36.2L401.096,36.072ZM400.846,37.102C400.704,37.107 401.084,37.26 401.196,37.348C401.422,37.524 401.643,37.71 401.856,37.901C402.508,38.488 403.129,39.093 403.652,39.801C404.274,40.64 404.859,41.926 405.729,42.523C406.892,43.323 409.006,43.103 410.336,43.246C410.947,43.312 412.812,43.875 413.279,43.263C413.926,42.417 412.056,40.88 411.571,40.433C409.234,38.282 406.484,36.91 403.337,36.446L400.846,37.102Z" style="fill: rgb(245, 180, 162)" /></g></g><ellipse cx="399.645" cy="49.941" rx="13.8" ry="6.946" style="fill: none; stroke: black; stroke-width: 1.93px" /></g><path d="M397.676,42.89C398.239,42.681 401.591,42.681 402.153,42.89C501.816,49.249 562.727,112.371 575.583,128.609C598.099,165.571 588.808,253.34 588.808,253.34L550.413,240.154C501.393,225.168 450.081,213.936 399.915,213.936C349.748,213.936 298.436,225.168 249.416,240.154L211.021,253.34C211.021,253.34 201.73,165.571 224.246,128.609C237.102,112.371 298.013,49.249 397.676,42.89Z" style="fill: url(#_Linear5)" /><clipPath id="_clip6"><path d="M397.676,42.89C398.239,42.681 401.591,42.681 402.153,42.89C501.816,49.249 562.727,112.371 575.583,128.609C598.099,165.571 588.808,253.34 588.808,253.34L550.413,240.154C501.393,225.168 450.081,213.936 399.915,213.936C349.748,213.936 298.436,225.168 249.416,240.154L211.021,253.34C211.021,253.34 201.73,165.571 224.246,128.609C237.102,112.371 298.013,49.249 397.676,42.89Z" /></clipPath><g clip-path="url(#_clip6)"><path d="M249.199,239.63C249.199,239.63 253.866,164.607 268.912,136.528C283.959,108.45 312.705,85.883 333.536,71.098C354.368,56.313 390.641,43.187 390.777,43.294C390.913,43.4 396.586,42.578 396.586,42.578C396.586,42.578 374.576,62.921 364.35,92.142C354.124,121.362 346.116,161.226 347.318,218.647C340.968,218.814 275.527,230.905 267.561,234.361C259.596,237.818 249.199,239.63 249.199,239.63ZM551.074,239.63C551.074,239.63 546.408,164.607 531.361,136.528C516.315,108.45 487.569,85.883 466.737,71.098C445.905,56.313 409.632,43.187 409.496,43.294C409.361,43.4 403.687,42.578 403.687,42.578C403.687,42.578 425.697,62.921 435.923,92.142C446.149,121.362 454.157,161.226 452.955,218.647C459.305,218.814 524.746,230.905 532.712,234.361C540.678,237.818 551.074,239.63 551.074,239.63Z" style="fill: url(#_Linear7)" /><path d="M386.51,40.023C386.149,40.084 385.678,40.219 385.621,40.231C382.237,40.915 378.883,41.767 375.538,42.617C363.669,45.633 355.109,49.217 343.932,54.254C303.045,72.682 247.542,103.044 231.39,146.585C222.965,169.296 223.688,209.652 225.073,237.051C225.43,244.108 227.418,247.931 226.532,254.956C225.78,260.918 213.933,261.098 210.297,258.578C204.079,254.269 201.397,245.103 200.242,238.083C197.333,220.407 199.714,201.275 201.542,183.602C203.778,161.983 208.463,138.497 220.356,119.889C230.231,104.439 245.732,92.839 260.744,82.753C294.17,60.297 333.806,42.68 374.377,39.606L386.51,40.023ZM413.666,40.023C414.027,40.084 414.499,40.219 414.555,40.231C417.94,40.915 421.293,41.767 424.639,42.617C436.507,45.633 445.067,49.217 456.244,54.254C497.131,72.682 552.634,103.044 568.786,146.585C577.211,169.296 576.488,209.652 575.104,237.051C574.747,244.108 572.758,247.931 573.644,254.956C574.396,260.918 586.243,261.098 589.88,258.578C596.098,254.269 598.779,245.103 599.934,238.083C602.844,220.407 600.463,201.275 598.635,183.602C596.398,161.983 591.713,138.497 579.82,119.889C569.946,104.439 554.444,92.839 539.432,82.753C506.007,60.297 466.371,42.68 425.8,39.606L413.666,40.023ZM386.51,40.023L386.927,40.038C386.903,39.978 386.727,39.987 386.51,40.023ZM413.666,40.023L413.25,40.038C413.273,39.978 413.45,39.987 413.666,40.023Z" style="fill: rgb(245, 180, 162)" /><path d="M249.586,240.272C249.586,240.272 250.164,154.307 278.814,120.051C307.465,85.795 350.156,54.702 391.1,43.408" style="fill: none; stroke: black; stroke-width: 2.1px" /><g transform="matrix(-1,0,0,1,799.538,0)"><path d="M249.586,240.272C249.586,240.272 250.164,154.307 278.814,120.051C307.465,85.795 350.442,54.751 391.387,43.457" style="fill: none; stroke: black; stroke-width: 2.1px" /></g><path d="M347.158,217.127C347.158,217.127 347.667,120.455 367.04,84.844C386.412,49.233 394.933,43.753 394.933,43.753" style="fill: none; stroke: black; stroke-width: 2.1px" /><g transform="matrix(-1,0,0,1,799.538,0)"><path d="M347.158,217.127C347.158,217.127 347.667,120.455 367.04,84.844C386.412,49.233 394.933,43.753 394.933,43.753" style="fill: none; stroke: black; stroke-width: 2.1px" /></g></g><path d="M397.676,42.89C398.239,42.681 401.591,42.681 402.153,42.89C501.816,49.249 562.727,112.371 575.583,128.609C598.099,165.571 588.808,253.34 588.808,253.34L550.413,240.154C501.393,225.168 450.081,213.936 399.915,213.936C349.748,213.936 298.436,225.168 249.416,240.154L211.021,253.34C211.021,253.34 201.73,165.571 224.246,128.609C237.102,112.371 298.013,49.249 397.676,42.89Z" style="fill: none; stroke: black; stroke-width: 2.1px" /><path d="M400.347,214.257L401.046,214.208C401.046,214.208 449.984,210.469 544.124,238.299C546.339,238.954 551.328,240.087 551.328,240.087C551.328,240.087 551.171,297.659 547.632,301.641C544.093,305.623 528.746,308.238 501.077,299.129C475.591,290.739 428.873,277.289 406.043,275.531L406.052,275.716C406.052,275.716 403.087,275.432 400.347,275.357C397.607,275.432 394.642,275.716 394.642,275.716L394.651,275.531C371.821,277.289 325.102,290.739 299.616,299.129C271.947,308.238 256.601,305.623 253.062,301.641C249.522,297.659 249.366,240.087 249.366,240.087C249.366,240.087 254.355,238.954 256.57,238.299C350.709,210.469 399.648,214.208 399.648,214.208L400.347,214.257Z" style="fill: url(#_Linear8)" /><clipPath id="_clip9"><path d="M400.347,214.257L401.046,214.208C401.046,214.208 449.984,210.469 544.124,238.299C546.339,238.954 551.328,240.087 551.328,240.087C551.328,240.087 551.171,297.659 547.632,301.641C544.093,305.623 528.746,308.238 501.077,299.129C475.591,290.739 428.873,277.289 406.043,275.531L406.052,275.716C406.052,275.716 403.087,275.432 400.347,275.357C397.607,275.432 394.642,275.716 394.642,275.716L394.651,275.531C371.821,277.289 325.102,290.739 299.616,299.129C271.947,308.238 256.601,305.623 253.062,301.641C249.522,297.659 249.366,240.087 249.366,240.087C249.366,240.087 254.355,238.954 256.57,238.299C350.709,210.469 399.648,214.208 399.648,214.208L400.347,214.257Z" /></clipPath><g clip-path="url(#_clip9)"><path d="M251.594,304.731C251.855,304.832 251.343,304.231 251.219,303.98C250.987,303.508 250.764,303.037 250.575,302.546C250.178,301.512 248.566,297.054 250.267,296.409C250.947,296.151 251.987,297.086 252.485,297.443C254.046,298.559 255.536,299.132 257.393,299.572C262.424,300.766 267.816,300.083 272.82,299.104C280.741,297.554 288.173,294.644 295.884,292.343C309.5,288.281 323.323,284.314 337.073,280.731C358.304,275.198 380.747,268.911 402.879,269.112C413.132,269.206 423.378,271.42 433.364,273.556C447.757,276.636 462.055,280.229 476.212,284.264C492.078,288.786 507.505,294.936 523.521,298.915C526.586,299.676 536.917,300.668 544.665,299.083C547.082,298.589 549.341,294.044 550.722,294.862C552.363,295.833 552.898,302.364 552.859,304.112C552.755,308.734 528.869,308.393 526.293,308.154C525.101,308.044 523.911,307.919 522.722,307.782C521.31,307.618 519.899,307.44 518.49,307.25C516.83,307.027 515.17,306.794 513.513,306.547C511.62,306.266 509.729,305.973 507.84,305.669C472.977,300.059 438.366,292.599 402.918,291.939C380.65,291.524 358.558,294.166 336.816,298.89C319.525,302.647 302.576,307.914 285.225,311.392C273.857,313.671 251.512,316.991 247.271,301.573" style="fill: rgb(136, 47, 70)" /><path d="M304.06,221.428C304.196,221.397 304.296,221.385 304.356,221.393L304.06,221.428C301.643,221.973 287.912,228.319 284.128,230.433C275.725,235.129 262.331,240.137 258.778,247.358C256.559,251.869 256.411,257.63 256.193,262.592C256.007,266.843 256.49,272.054 256.819,276.295C257.425,284.097 256.806,291.928 265.149,294.62C268.762,295.785 274.938,295.658 278.728,295.876C280.053,295.953 286.575,295.818 286.575,295.875C286.575,296.105 271.974,299.379 267.78,299.819C263.539,300.264 258.059,300.249 254.244,298C244.208,292.081 243.503,272.492 242.848,262.664C242.333,254.936 241.625,246.108 245.124,238.937C247.754,233.545 252.778,229.873 257.849,226.955L304.06,221.428ZM496.238,221.428C498.655,221.973 512.386,228.319 516.17,230.433C524.573,235.129 537.967,240.137 541.52,247.358C543.739,251.869 543.887,257.63 544.105,262.592C544.291,266.843 543.808,272.054 543.479,276.295C542.874,284.097 543.492,291.928 535.149,294.62C531.536,295.785 525.36,295.658 521.57,295.876C520.245,295.953 513.723,295.818 513.723,295.875C513.723,296.105 528.324,299.379 532.519,299.819C536.759,300.264 542.239,300.249 546.054,298C556.09,292.081 556.795,272.492 557.45,262.664C557.966,254.936 558.673,246.108 555.174,238.937C552.544,233.545 547.521,229.873 542.449,226.955L496.238,221.428C496.102,221.397 496.003,221.385 495.942,221.393L496.238,221.428Z" style="fill: rgb(245, 180, 162)" /><path d="M251.677,295.591C251.677,295.591 256.821,304.1 277.718,297.961C298.615,291.823 371.118,268.698 399.043,268.92C426.969,269.142 476.724,284.555 501.938,292.832C527.152,301.109 544.899,301.572 548.436,295.121" style="fill: none; stroke: black; stroke-width: 2.1px" /></g><path d="M400.347,214.257L401.046,214.208C401.046,214.208 449.984,210.469 544.124,238.299C546.339,238.954 551.328,240.087 551.328,240.087C551.328,240.087 551.171,297.659 547.632,301.641C544.093,305.623 528.746,308.238 501.077,299.129C475.591,290.739 428.873,277.289 406.043,275.531L406.052,275.716C406.052,275.716 403.087,275.432 400.347,275.357C397.607,275.432 394.642,275.716 394.642,275.716L394.651,275.531C371.821,277.289 325.102,290.739 299.616,299.129C271.947,308.238 256.601,305.623 253.062,301.641C249.522,297.659 249.366,240.087 249.366,240.087C249.366,240.087 254.355,238.954 256.57,238.299C350.709,210.469 399.648,214.208 399.648,214.208L400.347,214.257Z" style="fill: none; stroke: black; stroke-width: 2.1px" /></g></g><linearGradient id="_Linear5" x1="0" y1="0" x2="1" y2="0" gradientUnits="userSpaceOnUse" gradientTransform="matrix(0.676239,212.321,-212.321,0.676239,399.671,115.988)"><stop offset="0" style="stop-color: rgb(236, 65, 81); stop-opacity: 1" /><stop offset="0.5" style="stop-color: rgb(220, 55, 76); stop-opacity: 1" /><stop offset="1" style="stop-color: rgb(172, 27, 60); stop-opacity: 1" /></linearGradient><linearGradient id="_Linear7" x1="0" y1="0" x2="1" y2="0" gradientUnits="userSpaceOnUse" gradientTransform="matrix(0.676239,174.104,-174.104,0.676239,399.671,95.0041)"><stop offset="0" style="stop-color: rgb(245, 249, 251); stop-opacity: 1" /><stop offset="0.59" style="stop-color: rgb(226, 236, 243); stop-opacity: 1" /><stop offset="0.81" style="stop-color: rgb(183, 208, 225); stop-opacity: 1" /><stop offset="1" style="stop-color: rgb(140, 180, 206); stop-opacity: 1" /></linearGradient><linearGradient id="_Linear8" x1="0" y1="0" x2="1" y2="0" gradientUnits="userSpaceOnUse" gradientTransform="matrix(6.8912e-15,-112.542,112.542,6.8912e-15,399.671,269.108)"><stop offset="0" style="stop-color: rgb(236, 65, 81); stop-opacity: 1" /><stop offset="0.46" style="stop-color: rgb(227, 63, 84); stop-opacity: 1" /><stop offset="1" style="stop-color: rgb(203, 57, 90); stop-opacity: 1" /></linearGradient></defs></svg>