<svg viewBox="0 0 800 800" xmlns="http://www.w3.org/2000/svg">
  <g id="default-tshirt-1" transform="matrix(1,0,0,1,1.04681,-120.203)">
    <path
      id="tshirt"
      d="M-21.371,808.216C1.217,789.932 53.61,758.088 78.351,744.23C99.324,732.483 122.339,717.575 142.638,707.589C161.675,698.224 217.377,670.918 228.72,666.957C233.008,665.459 250.223,653.822 252.813,658.941C254.609,662.493 266.997,690.021 268.897,692.964C276.925,705.403 281.278,718.418 294.397,726.678C314.749,739.492 340.955,739.321 363.581,744.946C387.368,750.86 407.026,762.486 432.238,762.944C466.402,763.565 502.406,743.092 523.8,717.419C530.902,708.898 550.677,663.666 553.661,662.852C555.404,662.377 564.332,666.773 568.532,669.674C576.538,675.203 583.387,677.522 592.402,681.044C631.958,696.495 659.394,713.602 695.533,730.447C707.161,735.866 724.393,744.904 735.69,751.021C759.727,764.038 783.339,780.198 797.902,793.242C818.558,811.743 816.71,821.937 821.405,844.515C824.095,857.453 831.493,960.446 822.528,962.215C771.317,972.317 4.615,980.049 -26.418,957.911C-45.818,944.073 -44.359,843.967 -33.459,831.237L-21.371,808.216Z"
      style="fill: var(--color_clothes, rgb(201, 100, 133))"
    />
    <clipPath id="_clip1_clothes_1">
      <path
        id="tshirt1"
        d="M-21.371,808.216C1.217,789.932 53.61,758.088 78.351,744.23C99.324,732.483 122.339,717.575 142.638,707.589C161.675,698.224 217.377,670.918 228.72,666.957C233.008,665.459 250.223,653.822 252.813,658.941C254.609,662.493 266.997,690.021 268.897,692.964C276.925,705.403 281.278,718.418 294.397,726.678C314.749,739.492 340.955,739.321 363.581,744.946C387.368,750.86 407.026,762.486 432.238,762.944C466.402,763.565 502.406,743.092 523.8,717.419C530.902,708.898 550.677,663.666 553.661,662.852C555.404,662.377 564.332,666.773 568.532,669.674C576.538,675.203 583.387,677.522 592.402,681.044C631.958,696.495 659.394,713.602 695.533,730.447C707.161,735.866 724.393,744.904 735.69,751.021C759.727,764.038 783.339,780.198 797.902,793.242C818.558,811.743 816.71,821.937 821.405,844.515C824.095,857.453 831.493,960.446 822.528,962.215C771.317,972.317 4.615,980.049 -26.418,957.911C-45.818,944.073 -44.359,843.967 -33.459,831.237L-21.371,808.216Z"
      />
    </clipPath>
    <g clip-path="url(#_clip1_clothes_1)">
      <g transform="matrix(1,0,0,1,-1.04681,120.203)">
        <path
          d="M542.529,543.212C543.646,543.773 545.535,545.189 546.544,545.672C549.643,547.157 552.786,548.548 555.899,550.003C560.77,552.28 565.663,554.441 570.58,556.55C570.208,558.309 569.777,560.075 569.212,561.769C567.016,568.359 563.811,575.269 559.982,581.093C556.83,585.888 553.776,590.245 550.922,595.226C547.784,600.704 544.185,606.964 540.791,612.319C538.638,615.715 537.972,618.776 535.711,622.101C534.93,623.25 534.12,624.378 533.332,625.521C532.963,626.057 531.596,627.142 532.247,627.142C532.796,627.142 534.755,623.735 535.059,623.319C538.127,619.136 541.248,614.992 544.335,610.823C554.229,597.464 563.055,584.546 569.992,569.401C571.396,566.336 573.729,562.312 574.922,558.397C577.901,559.655 580.889,560.901 583.887,562.148C612.477,574.039 643.3,589.595 670.953,603.535C697.504,616.919 721.859,629.412 747.302,644.808C752.312,647.839 770.681,659.291 774.05,663.356C774.696,664.136 767.542,684.354 766.322,688.61C766.124,689.302 759.354,717.015 760.082,717.37C760.739,717.689 783.508,668.31 789.079,671.711C800.004,678.38 803.956,692.728 813.284,701.458C827.646,714.899 845.042,724.376 859.45,737.811C867.314,745.145 874.32,752.884 881.745,760.613C881.888,760.762 882.029,760.911 882.172,761.059C882.931,761.852 893.135,772.342 893.722,771.176C896.135,766.386 887.341,752.165 885.342,748.212C873.822,725.429 858.661,703.133 839.782,685.83C823.263,670.691 804.366,658.183 786.049,645.369C718.365,598.016 643.569,559.937 564.143,536.544L542.529,543.212ZM269.316,517.176C269.426,516.723 269.553,516.559 269.727,516.982L269.316,517.176C269.102,518.061 268.958,520.054 268.675,520.904C267.813,523.493 266.362,525.901 264.971,528.233C260.276,536.108 255.302,541.481 247.305,545.972C243.587,548.06 239.778,550.004 235.903,551.843C236.345,553.786 236.807,555.725 237.239,557.671C238.797,564.676 242.024,571.296 244.765,577.908C250.04,590.635 253.392,603.67 259.731,615.972C261.411,619.234 263.024,622.504 264.879,625.672C265.149,626.133 266.923,628.387 266.712,628.917C266.692,628.965 266.04,628.181 265.997,628.124C265.517,627.478 265.065,626.81 264.603,626.151C263.355,624.37 262.115,622.585 260.905,620.778C257.052,615.028 253.585,609.12 250.772,602.791C244.806,589.365 240.429,575.26 235.171,561.552C234.464,559.71 232.878,556.729 231.781,553.751C212.367,562.524 191.562,569.054 172.418,578.068C138.616,593.984 107.76,614.475 75.632,633.365C68.695,637.444 42.526,649.446 38.794,656.517C36.877,660.15 45.474,698.362 45.711,700.309C48.572,723.823 29.185,666.195 28.328,666.332C14.159,668.61 -8.638,694.748 -17.259,704.935C-30.921,721.077 -59.43,750.574 -70.484,765.013C-81.932,779.969 -84.066,721.848 -24.181,676.448C17.759,644.653 68.005,614.682 114.324,590.128L269.316,517.176ZM542.529,543.212L541.694,543.469C541.483,542.847 541.873,542.882 542.529,543.212Z"
          style="fill: rgb(252, 255, 216); fill-opacity: 0.6"
        />
      </g>
      <g>
        <path
          d="M216.169,633.779C216.148,633.794 236.204,687.631 238.703,693.462C248.316,715.892 254.922,744.528 277.224,757.91C294.941,768.54 314.097,767.032 333.174,772.893C349.804,778.001 364.88,787.305 382.098,790.684C445.468,803.122 506.032,785.973 543.036,731.947C550.51,721.034 574.271,686.797 574.271,672.035L552.873,649.368L216.169,633.779ZM408.857,782.743C408.68,784.391 408.624,788.31 407.702,789.21L408.857,782.743C408.872,782.599 408.888,782.473 408.906,782.368C409.933,776.279 410.69,770.082 412.189,764.085L408.857,782.743ZM444.49,787.988C444.72,787.914 444.336,782.824 444.324,782.509C444.111,776.789 444,771.071 443.561,765.364L444.49,787.988ZM376.675,785.082C376.66,785.17 376.657,785.189 376.674,785.085L376.675,785.082C376.712,784.873 376.818,784.278 376.883,784.035C377.069,783.34 377.251,782.644 377.431,781.948C378.001,779.745 378.605,777.551 379.193,775.352C380.921,768.895 382.469,761.971 385.199,755.828L376.675,785.082ZM478.374,778.374C478.826,777.1 477.635,773.997 477.398,772.731C476.489,767.872 475.916,762.644 474.066,758.019L478.374,778.374ZM348.628,774.343C348.104,775.301 349.235,772.244 349.56,771.202C350.211,769.114 350.858,767.023 351.524,764.94C353.515,758.713 355.362,752.382 357.733,746.284L348.628,774.343ZM320.335,761.425C319.842,763.453 319.307,765.836 318.3,767.114L320.335,761.425C320.527,760.635 320.713,759.899 320.917,759.303C322.96,753.353 324.915,747.221 327.474,741.464L320.335,761.425ZM506.238,762.688C504.882,759.958 503.637,757.07 502.462,754.148C501.287,751.226 500.182,748.27 499.108,745.406L506.238,762.688ZM296.396,748.828L302.327,735.143C300.173,739.605 298.301,744.232 296.396,748.828L293.87,754.657C292.944,756.345 290.957,759.599 291.261,760.676L293.87,754.657C294.036,754.354 294.168,754.101 294.246,753.921C294.978,752.234 295.689,750.533 296.396,748.828ZM268.486,742.275C268.317,741.261 271.577,738.266 272.155,737.57C275.934,733.011 279.708,728.438 283.803,724.156L268.486,742.275ZM528.151,738.015L531.604,741.828C530.399,740.623 529.265,739.331 528.151,738.015L520.274,729.317C520.473,729.202 522.819,731.842 523.139,732.185C524.879,734.045 526.493,736.056 528.151,738.015ZM536.231,706.899C535.923,707.135 538.492,709.442 539.002,709.935C542.093,712.92 545.626,715.24 548.893,717.963L536.231,706.899ZM250.217,710.299C252.748,708.511 255.446,706.902 258.18,705.348C260.915,703.795 263.684,702.297 266.357,700.732L250.217,710.299ZM545.688,685.578C546.153,685.69 547.251,685.946 547.704,686.111C549.169,686.644 550.617,687.239 552.051,687.852C555.858,689.479 559.26,691.87 562.943,693.692L564.243,694.303C563.805,694.108 563.372,693.904 562.943,693.692L545.688,685.578C545.459,685.522 545.384,685.502 545.619,685.545L545.688,685.578Z"
          style="fill: none; stroke: black; stroke-width: 2.13px"
        />
        <path d="M239.126,685.22C237.435,686.439 242.682,683.044 244.438,681.921C247.994,679.645 251.468,677.184 255.087,675.012" style="fill: none; stroke: black; stroke-width: 2.1px" />
        <path d="M35.025,757.268C34.636,757.403 36.166,764.429 36.307,765.251C39.804,785.555 62.073,917.24 69.428,936.545" style="fill: none; stroke: black; stroke-width: 2.1px" />
        <path d="M780.806,764.531C775.659,769.057 732.445,927.865 729.965,934.632" style="fill: none; stroke: black; stroke-width: 2.1px" />
      </g>
    </g>
    <path
      id="tshirt2"
      d="M-21.371,808.216C1.217,789.932 53.61,758.088 78.351,744.23C99.324,732.483 122.339,717.575 142.638,707.589C161.675,698.224 217.377,670.918 228.72,666.957C233.008,665.459 250.223,653.822 252.813,658.941C254.609,662.493 266.997,690.021 268.897,692.964C276.925,705.403 281.278,718.418 294.397,726.678C314.749,739.492 340.955,739.321 363.581,744.946C387.368,750.86 407.026,762.486 432.238,762.944C466.402,763.565 502.406,743.092 523.8,717.419C530.902,708.898 550.677,663.666 553.661,662.852C555.404,662.377 564.332,666.773 568.532,669.674C576.538,675.203 583.387,677.522 592.402,681.044C631.958,696.495 659.394,713.602 695.533,730.447C707.161,735.866 724.393,744.904 735.69,751.021C759.727,764.038 783.339,780.198 797.902,793.242C818.558,811.743 816.71,821.937 821.405,844.515C824.095,857.453 831.493,960.446 822.528,962.215C771.317,972.317 4.615,980.049 -26.418,957.911C-45.818,944.073 -44.359,843.967 -33.459,831.237L-21.371,808.216Z"
      style="fill: none; stroke: black; stroke-width: 2.13px"
    />
    <g transform="matrix(1,0,0,1,-1.04681,120.203)">
      <path
        d="M746.425,837.808C746.438,837.459 747.313,835.368 747.632,834.546C748.465,832.407 749.308,830.272 750.126,828.126C752.729,821.297 755.326,814.461 757.707,807.55C765.757,784.187 774.354,760.543 780.881,736.708C781.187,735.593 783.355,729.433 781.732,728.536C781.196,728.24 780.463,729.019 780.15,729.32C773.178,736.028 769.11,747.013 764.896,755.497C758.181,769.017 722.552,834.872 728.448,849.613L746.425,837.808ZM232.4,831.389C236.125,825.751 319.752,800.697 329.195,797.138C399.851,770.508 469.309,740.502 537.757,708.658C546.294,704.686 665.413,641.899 598.574,684.74C592.867,688.398 587.112,691.979 581.353,695.556C571.953,701.395 562.526,707.193 553.091,712.976C538.267,722.063 523.316,730.931 508.364,739.804C480.067,756.597 451.396,772.738 422.22,787.959C377.529,811.273 329.864,835.538 280.773,848.072L232.4,831.389ZM746.425,837.808L746.602,837.692C746.473,837.873 746.422,837.895 746.425,837.808ZM72.45,812.098C71.611,811.137 63.384,793.085 61.934,789.965C52.983,770.714 44.263,751.257 33.635,732.855C32.964,731.691 23.499,716.054 22.381,717.321C18.649,721.551 27.879,743.738 29.264,748.242C37.79,775.975 51.885,815.289 73.964,835.528L72.45,812.098ZM101.458,828.374C101.187,828.411 101.009,823.266 101.007,823.07C100.911,812.214 102.445,801.268 103.44,790.474C104.632,777.549 107.726,733.891 110.85,733.28C112.314,732.993 112.703,737.671 112.803,738.409C115.141,755.63 114.837,773.249 116.843,790.55C118.261,802.784 121.707,815.559 120.47,827.928L101.458,828.374ZM729.359,816.86C729.246,815.879 729.73,811.507 729.729,809.75C729.727,805.605 729.532,801.465 729.285,797.328C728.258,780.139 728.718,761.967 724.98,745.093C724.827,744.403 724.042,739.682 722.681,740.057C717.07,741.6 716.056,811.819 717.153,825.908L729.359,816.86ZM729.359,816.86L729.663,816.635C729.485,817.143 729.394,817.16 729.359,816.86ZM484.626,814.808C483.978,814.72 489.283,812.678 499.122,809.154C509.504,805.435 519.885,801.716 530.211,797.845C544.36,792.54 612.161,762.23 624.312,767.496C627.327,768.802 613.533,777.321 612.672,777.833C604.308,782.813 526.926,818.54 518.28,823.005L484.626,814.808ZM72.45,812.098L72.424,811.702C72.545,812.093 72.546,812.209 72.45,812.098Z"
        style="fill: rgb(56, 25, 57); fill-opacity: 0.5"
      />
    </g>
    <g transform="matrix(1,0,0,1,-1.04681,120.203)">
      <path
        d="M228.494,555.789C229.494,555.636 226.595,556.497 225.685,556.941C224.176,557.678 222.655,558.391 221.144,559.123C216.327,561.455 211.481,563.727 206.652,566.032C192.183,572.939 177.654,579.706 163.339,586.933C131.775,602.868 101.258,621.065 70.362,638.257C59.506,644.299 50.526,650.65 39.09,655.551"
        style="fill: none; stroke: black; stroke-width: 2.1px"
      />
    </g>
    <g transform="matrix(-1,0,0,1,806.744,125.873)">
      <path
        d="M228.494,555.789C229.494,555.636 226.595,556.497 225.685,556.941C224.176,557.678 222.655,558.391 221.144,559.123C216.327,561.455 211.481,563.727 206.652,566.032C192.183,572.939 177.654,579.706 163.339,586.933C131.775,602.868 98.495,619.578 67.599,636.77C56.743,642.811 46.326,652.331 34.89,657.232"
        style="fill: none; stroke: black; stroke-width: 2.1px"
      />
    </g>
  </g>
</svg>