<svg viewBox="0 0 800 800" xmlns="http://www.w3.org/2000/svg">
  <g id="nose">
    <path
      d="M360.29,450.189C360.771,452.022 359.687,453.952 360.906,455.995C362.268,458.278 364.494,457.987 367.129,457.95C372.181,457.878 378.598,455.731 382.284,455.966C388.667,456.374 393.486,460.103 399.878,460.286C405.533,460.447 410.354,457.214 415.832,456.262C421.697,455.242 427.833,457.22 433.579,457.612C435.499,457.743 437.464,457.669 439.25,456.894C439.855,456.632 440.434,456.32 440.987,455.962C441.262,455.785 441.877,455.065 441.774,455.375C438.699,464.598 429.115,470.821 421.279,475.88C415.064,479.893 407.567,482.666 400.353,482.563C390.287,482.419 381.62,479.443 375.026,473.639C368.508,467.902 360.012,463.619 359.68,454.82"
      style="fill: rgb(56, 25, 57); fill-opacity: 0.5"
    />
    <path
      d="M365.982,437.593C365.794,437.159 365.592,438.454 365.387,438.88C365,439.687 364.557,440.469 364.143,441.263C362.911,443.621 361.625,445.972 360.54,448.402C356.555,457.327 360.276,463.791 368.227,468.714"
      style="fill: none; stroke: black; stroke-width: 2.1px"
    />
    <g transform="matrix(-1,0,0,1,799.794,0)">
      <path
        d="M365.982,437.593C365.794,437.159 365.592,438.454 365.387,438.88C365,439.687 364.557,440.469 364.143,441.263C362.911,443.621 361.625,445.972 360.54,448.402C356.555,457.327 360.276,463.791 368.227,468.714"
        style="fill: none; stroke: black; stroke-width: 2.1px"
      />
    </g>
    <path
      d="M409.327,465.768C409.379,464.892 410.884,463.189 411.427,462.634C413.962,460.047 418.325,458.436 421.947,458.196C423.315,458.106 426.429,458.15 426.854,459.945C427.301,461.835 424.254,462.921 422.929,463.238C421.354,463.615 419.735,463.889 418.115,463.905C417.079,463.914 415.681,463.714 414.367,463.456C412.67,463.124 411.321,465.139 409.988,465.798"
    />
    <g transform="matrix(-1,0,0,1,799.907,0)">
      <path
        d="M409.327,465.768C409.379,464.892 410.884,463.189 411.427,462.634C413.962,460.047 418.325,458.436 421.947,458.196C423.315,458.106 426.429,458.15 426.854,459.945C427.301,461.835 424.254,462.921 422.929,463.238C421.354,463.615 419.735,463.889 418.115,463.905C417.079,463.914 415.681,463.714 414.367,463.456C412.67,463.124 411.321,465.139 409.988,465.798"
      />
    </g>
    <path
      d="M407.616,441.229C407.138,440.556 407.275,440.031 407.394,439.442C407.629,438.281 408.349,437.259 409.277,436.544C411.287,434.996 418.061,433.43 419.498,436.604C420.163,438.074 418.799,439.502 417.663,440.213C415.521,441.551 410.061,442.757 407.616,441.229Z"
      style="fill: rgb(252, 255, 216); fill-opacity: 0.6"
    />
  </g>
</svg>
