<?xml version="1.0" encoding="UTF-8" standalone="no"?>
<!DOCTYPE svg PUBLIC "-//W3C//DTD SVG 1.1//EN" "http://www.w3.org/Graphics/SVG/1.1/DTD/svg11.dtd">
<svg width="100%" height="100%" viewBox="0 0 800 800" version="1.1" xmlns="http://www.w3.org/2000/svg" xmlns:xlink="http://www.w3.org/1999/xlink" xml:space="preserve" xmlns:serif="http://www.serif.com/" style="fill-rule:evenodd;clip-rule:evenodd;stroke-linecap:round;stroke-linejoin:round;stroke-miterlimit:1.5;">
    <g id="cloth-card" serif:id="cloth card">
        <rect id="bg" x="-48.418" y="-9.957" width="931.967" height="871.066" style="fill:rgb(74,44,0);"/>
        <g id="rectangles" transform="matrix(1,0,0,1,20.7283,64.1339)">
            <g opacity="0.5">
                <g transform="matrix(0.660629,0,0,1.04551,351.522,-81.058)">
                    <rect x="462.47" y="633.282" width="419.335" height="322.449" style="fill:none;"/>
                    <clipPath id="_clip1">
                        <rect x="462.47" y="633.282" width="419.335" height="322.449"/>
                    </clipPath>
                    <g clip-path="url(#_clip1)">
                        <g transform="matrix(1.51371,0,0,0.956468,-452.99,37.369)">
                            <path d="M604.78,633.282L877.032,634.306" style="fill:none;stroke:rgb(166,240,98);stroke-width:4px;stroke-dasharray:4.25,7.5,0,0;"/>
                        </g>
                        <g transform="matrix(1.51371,0,0,0.956468,-452.99,58.0423)">
                            <path d="M604.78,633.282L877.032,634.306" style="fill:none;stroke:rgb(166,240,98);stroke-width:4px;stroke-dasharray:4.25,7.5,0,0;"/>
                        </g>
                        <g transform="matrix(1.51371,0,0,0.956468,-452.99,68.3789)">
                            <path d="M604.78,633.282L877.032,634.306" style="fill:none;stroke:rgb(166,240,98);stroke-width:4px;stroke-dasharray:4.25,7.5,0,0;"/>
                        </g>
                        <g transform="matrix(1.51371,0,0,0.956468,-452.99,89.0522)">
                            <path d="M604.78,633.282L877.032,634.306" style="fill:none;stroke:rgb(166,240,98);stroke-width:4px;stroke-dasharray:4.25,7.5,0,0;"/>
                        </g>
                        <g transform="matrix(1.51371,0,0,0.956468,-452.99,99.3888)">
                            <path d="M604.78,633.282L877.032,634.306" style="fill:none;stroke:rgb(166,240,98);stroke-width:4px;stroke-dasharray:4.25,7.5,0,0;"/>
                        </g>
                        <g transform="matrix(1.51371,0,0,0.956468,-452.99,130.399)">
                            <path d="M604.78,633.282L877.032,634.306" style="fill:none;stroke:rgb(166,240,98);stroke-width:4px;stroke-dasharray:4.25,7.5,0,0;"/>
                        </g>
                        <g transform="matrix(1.51371,0,0,0.956468,-452.99,151.072)">
                            <path d="M604.78,633.282L877.032,634.306" style="fill:none;stroke:rgb(166,240,98);stroke-width:4px;stroke-dasharray:4.25,7.5,0,0;"/>
                        </g>
                        <g transform="matrix(1.51371,0,0,0.956468,-452.99,171.745)">
                            <path d="M604.78,633.282L877.032,634.306" style="fill:none;stroke:rgb(166,240,98);stroke-width:4px;stroke-dasharray:4.25,7.5,0,0;"/>
                        </g>
                    </g>
                    <rect x="462.47" y="633.282" width="419.335" height="322.449" style="fill:none;stroke:rgb(166,240,98);stroke-width:4.57px;stroke-dasharray:4.86,8.58,0,0;"/>
                </g>
                <g transform="matrix(0.192707,0,0,1.04551,466.744,2.40586)">
                    <rect x="462.47" y="633.282" width="419.335" height="322.449" style="fill:none;"/>
                    <clipPath id="_clip2">
                        <rect x="462.47" y="633.282" width="419.335" height="322.449"/>
                    </clipPath>
                    <g clip-path="url(#_clip2)">
                        <g transform="matrix(1.51371,0,0,0.956468,-452.99,37.369)">
                            <path d="M604.78,633.282L877.032,634.306" style="fill:none;stroke:rgb(237,30,121);stroke-width:5.43px;stroke-dasharray:5.77,10.18,0,0;"/>
                        </g>
                        <g transform="matrix(1.51371,0,0,0.956468,-452.99,58.0423)">
                            <path d="M604.78,633.282L877.032,634.306" style="fill:none;stroke:rgb(237,30,121);stroke-width:5.43px;stroke-dasharray:5.77,10.18,0,0;"/>
                        </g>
                        <g transform="matrix(1.51371,0,0,0.956468,-452.99,68.3789)">
                            <path d="M604.78,633.282L877.032,634.306" style="fill:none;stroke:rgb(237,30,121);stroke-width:5.43px;stroke-dasharray:5.77,10.18,0,0;"/>
                        </g>
                        <g transform="matrix(1.51371,0,0,0.956468,-452.99,89.0522)">
                            <path d="M604.78,633.282L877.032,634.306" style="fill:none;stroke:rgb(237,30,121);stroke-width:5.43px;stroke-dasharray:5.77,10.18,0,0;"/>
                        </g>
                    </g>
                    <rect x="462.47" y="633.282" width="419.335" height="322.449" style="fill:none;stroke:rgb(237,30,121);stroke-width:5.32px;stroke-dasharray:5.65,9.98,0,0;"/>
                </g>
            </g>
        </g>
        <g id="circles" opacity="0.5">
            <g transform="matrix(1,0,0,1,-118.853,-94.5905)">
                <circle cx="155.124" cy="124.814" r="124.814" style="fill:none;stroke:rgb(255,207,0);stroke-width:4px;stroke-dasharray:4.25,7.5,0,0;"/>
            </g>
            <g transform="matrix(0.928318,0,0,0.928318,-107.734,-85.6437)">
                <circle cx="155.124" cy="124.814" r="124.814" style="fill:none;stroke:rgb(255,207,0);stroke-width:4.31px;stroke-dasharray:4.58,8.08,0,0;"/>
            </g>
            <g transform="matrix(0.691272,0,0,0.691272,-70.9623,-56.0571)">
                <circle cx="155.124" cy="124.814" r="124.814" style="fill:none;stroke:rgb(255,108,0);stroke-width:5.79px;stroke-dasharray:6.15,10.85,0,0;"/>
            </g>
        </g>
        <g id="rarity-bars" serif:id="rarity bars">
            <g transform="matrix(0.114833,0,0,0.114833,59.0756,653.445)">
                <g id="rarity-bars-fill" serif:id="rarity bars fill">
                    <path d="M400,117.517L629.266,249.774L629.266,514.685L400.192,646.941L400.192,647.052L400.096,646.997L400,647.052L400,646.941L170.925,514.685L170.925,249.774L400,117.517Z" style="fill:rgb(139,57,219);"/>
                </g>
            </g>
            <g id="rarity-bars-stroke" serif:id="rarity bars stroke">
                <g transform="matrix(0.114833,0,0,0.114833,59.0756,653.445)">
                    <path d="M400,117.517L629.266,249.774L629.266,514.685L400.192,646.941L400.192,647.052L400.096,646.997L400,647.052L400,646.941L170.925,514.685L170.925,249.774L400,117.517Z" style="fill:none;stroke:white;stroke-width:34.83px;"/>
                </g>
                <g transform="matrix(0.114833,0,0,0.114833,126.648,653.445)">
                    <path d="M400,117.517L629.266,249.774L629.266,514.685L400.192,646.941L400.192,647.052L400.096,646.997L400,647.052L400,646.941L170.925,514.685L170.925,249.774L400,117.517Z" style="fill:none;stroke:white;stroke-width:34.83px;"/>
                </g>
                <g transform="matrix(0.114833,0,0,0.114833,194.22,653.445)">
                    <path d="M400,117.517L629.266,249.774L629.266,514.685L400.192,646.941L400.192,647.052L400.096,646.997L400,647.052L400,646.941L170.925,514.685L170.925,249.774L400,117.517Z" style="fill:none;stroke:white;stroke-width:34.83px;"/>
                </g>
                <g transform="matrix(0.114833,0,0,0.114833,261.792,653.445)">
                    <path d="M400,117.517L629.266,249.774L629.266,514.685L400.192,646.941L400.192,647.052L400.096,646.997L400,647.052L400,646.941L170.925,514.685L170.925,249.774L400,117.517Z" style="fill:none;stroke:white;stroke-width:34.83px;"/>
                </g>
                <g transform="matrix(0.114833,0,0,0.114833,329.364,653.445)">
                    <path d="M400,117.517L629.266,249.774L629.266,514.685L400.192,646.941L400.192,647.052L400.096,646.997L400,647.052L400,646.941L170.925,514.685L170.925,249.774L400,117.517Z" style="fill:none;stroke:white;stroke-width:34.83px;"/>
                </g>
            </g>
        </g>
        <g transform="matrix(0.720342,0,0,0.720342,23.1337,330.63)">
            <path d="M94.756,423.775L106.426,439.84L99.468,439.84L88.702,424.41L87.676,424.41L87.676,439.84L81.988,439.84L81.988,402.144L88.653,402.144C93.633,402.144 97.23,403.08 99.444,404.952C101.885,407.035 103.106,409.786 103.106,413.204C103.106,415.873 102.341,418.168 100.811,420.089C99.281,422.009 97.263,423.238 94.756,423.775ZM87.676,419.454L89.483,419.454C94.87,419.454 97.564,417.395 97.564,413.277C97.564,409.42 94.944,407.491 89.703,407.491L87.676,407.491L87.676,419.454Z" style="fill:white;fill-rule:nonzero;"/>
            <path d="M134.234,430.684L118.096,430.684L113.897,439.84L107.769,439.84L126.421,399.776L144.415,439.84L138.189,439.84L134.234,430.684ZM131.915,425.338L126.324,412.52L120.464,425.338L131.915,425.338Z" style="fill:white;fill-rule:nonzero;"/>
            <path d="M161.895,423.775L173.565,439.84L166.607,439.84L155.84,424.41L154.815,424.41L154.815,439.84L149.127,439.84L149.127,402.144L155.792,402.144C160.772,402.144 164.369,403.08 166.583,404.952C169.024,407.035 170.245,409.786 170.245,413.204C170.245,415.873 169.48,418.168 167.95,420.089C166.42,422.009 164.402,423.238 161.895,423.775ZM154.815,419.454L156.622,419.454C162.009,419.454 164.703,417.395 164.703,413.277C164.703,409.42 162.082,407.491 156.841,407.491L154.815,407.491L154.815,419.454Z" style="fill:white;fill-rule:nonzero;"/>
            <rect x="179.229" y="402.144" width="5.688" height="37.695" style="fill:white;fill-rule:nonzero;"/>
            <path d="M204.376,407.491L204.376,439.84L198.687,439.84L198.687,407.491L190.02,407.491L190.02,402.144L213.018,402.144L213.018,407.491L204.376,407.491Z" style="fill:white;fill-rule:nonzero;"/>
            <path d="M228.155,423.555L215.85,402.144L222.393,402.144L231.011,417.208L239.654,402.144L246.197,402.144L233.843,423.555L233.843,439.84L228.155,439.84L228.155,423.555Z" style="fill:white;fill-rule:nonzero;"/>
        </g>
        <path d="M800,800L800,0L-0,0L0,800L800,800ZM769.901,30.099L769.901,769.901C643.519,769.901 156.481,769.901 30.099,769.901C30.099,769.901 30.099,30.099 30.099,30.099L769.901,30.099Z" style="fill:rgb(229,173,59);"/>
        <g transform="matrix(0.685927,0,0,0.831317,126.966,3.55271e-15)">
            <rect x="260.695" y="0" width="274.711" height="77.196" style="fill:rgb(229,173,59);"/>
        </g>
        <g id="guide" transform="matrix(1,0,0,1.22056,1.75676,-39.4524)">
            <rect x="82.193" y="95.569" width="632.101" height="428.927" style="fill:url(#_Linear3);stroke:rgb(255,214,55);stroke-width:4.8px;"/>
        </g>
        <g id="cloth" transform="matrix(0.726889,0,0,0.726889,107.619,49.3323)">
            <path d="M400,64.574L172.196,192.811C172.196,192.811 162.421,200.702 159.803,212.045C157.186,223.387 134.24,299.275 129.558,312.167C124.876,325.06 122.541,333.248 122.502,344.021C122.463,354.794 121.674,367.728 129.483,388.132C129.483,388.132 127.767,401.861 125.95,413.223C124.134,424.586 120.018,440.438 120.995,452.214C121.973,463.989 126.81,481.867 129.428,494.743C132.045,507.618 135.563,527.074 135.423,531.159C135.283,535.243 127.067,573.813 127.715,587.162C128.363,600.511 133.976,619.744 148.238,625.864C162.499,631.985 187.725,634.92 196.032,627.393C197.173,616.166 195.524,569.496 195.524,569.496L194.724,542.042C194.724,542.042 205.701,532.179 237.491,548.744C269.281,565.31 328.13,605.026 328.13,605.026L345.221,613.766C345.221,613.766 361.507,640.725 362.845,642.838C364.183,644.95 363.779,681.205 364.552,686.825C365.324,692.445 365.92,695.857 377.659,714.227C389.399,732.598 398.952,743.807 398.952,743.807C398.952,743.807 415.881,708.758 425.925,694.209C435.968,679.66 466.195,640.19 467.217,636.223C468.239,632.256 469.621,607.21 469.644,606.948C469.667,606.686 497.686,579.142 517.013,566.035C536.34,552.929 556.161,537.096 566.673,532.376C577.185,527.656 588.085,527.661 588.547,527.779C589.009,527.898 586.295,539.35 588.646,544.471C590.998,549.592 604.134,560.28 621.304,558.816C638.473,557.352 640.062,556.808 640.062,556.808C640.062,556.808 642.427,598.558 648.399,610.659C650.343,614.598 662.053,609.583 671.879,600.905C679.859,593.857 685.534,587.636 690.676,579.719C696.829,570.245 709.507,554.037 708.794,544.066C707.618,527.635 682.661,412.872 682.661,412.872C682.661,412.872 689.079,391.008 686.891,380.162C684.702,369.315 651.842,276.154 650.735,271.324C649.627,266.494 638.583,204.45 635.434,197.976C632.284,191.503 576.319,160.376 576.319,160.376L411.905,68.435L400,64.574Z" style="fill:url(#_Linear4);"/>
            <clipPath id="_clip5">
                <path d="M400,64.574L172.196,192.811C172.196,192.811 162.421,200.702 159.803,212.045C157.186,223.387 134.24,299.275 129.558,312.167C124.876,325.06 122.541,333.248 122.502,344.021C122.463,354.794 121.674,367.728 129.483,388.132C129.483,388.132 127.767,401.861 125.95,413.223C124.134,424.586 120.018,440.438 120.995,452.214C121.973,463.989 126.81,481.867 129.428,494.743C132.045,507.618 135.563,527.074 135.423,531.159C135.283,535.243 127.067,573.813 127.715,587.162C128.363,600.511 133.976,619.744 148.238,625.864C162.499,631.985 187.725,634.92 196.032,627.393C197.173,616.166 195.524,569.496 195.524,569.496L194.724,542.042C194.724,542.042 205.701,532.179 237.491,548.744C269.281,565.31 328.13,605.026 328.13,605.026L345.221,613.766C345.221,613.766 361.507,640.725 362.845,642.838C364.183,644.95 363.779,681.205 364.552,686.825C365.324,692.445 365.92,695.857 377.659,714.227C389.399,732.598 398.952,743.807 398.952,743.807C398.952,743.807 415.881,708.758 425.925,694.209C435.968,679.66 466.195,640.19 467.217,636.223C468.239,632.256 469.621,607.21 469.644,606.948C469.667,606.686 497.686,579.142 517.013,566.035C536.34,552.929 556.161,537.096 566.673,532.376C577.185,527.656 588.085,527.661 588.547,527.779C589.009,527.898 586.295,539.35 588.646,544.471C590.998,549.592 604.134,560.28 621.304,558.816C638.473,557.352 640.062,556.808 640.062,556.808C640.062,556.808 642.427,598.558 648.399,610.659C650.343,614.598 662.053,609.583 671.879,600.905C679.859,593.857 685.534,587.636 690.676,579.719C696.829,570.245 709.507,554.037 708.794,544.066C707.618,527.635 682.661,412.872 682.661,412.872C682.661,412.872 689.079,391.008 686.891,380.162C684.702,369.315 651.842,276.154 650.735,271.324C649.627,266.494 638.583,204.45 635.434,197.976C632.284,191.503 576.319,160.376 576.319,160.376L411.905,68.435L400,64.574Z"/>
            </clipPath>
            <g clip-path="url(#_clip5)">
                <path d="M121.113,373.732C121.113,373.732 145.07,291.566 154.382,275.349C150.812,295.203 127.799,390.573 127.799,390.573L121.113,373.732ZM124.173,498.19C124.173,498.19 156.618,356.915 158.739,355.161C160.859,353.406 138.682,508.691 137.949,513.376C137.216,518.061 131.277,535.043 131.277,535.043L124.173,498.19ZM145.789,626.047C145.789,626.047 158.143,484.096 158.575,477.465C159.007,470.834 161.369,458.97 163.041,459.919C164.712,460.868 160.651,633.312 160.435,634.749C160.219,636.186 145.789,626.047 145.789,626.047ZM186.616,235.404C186.616,235.404 189.351,277.398 189.723,284.767C190.095,292.135 194.583,337.713 194.583,337.713L201.225,309.022L196.801,413.809L192.68,472.539C192.68,472.539 182.686,363.716 183.598,357.244C184.509,350.771 186.616,235.404 186.616,235.404ZM206.418,538.632C206.418,538.632 224.384,427.223 226.306,421.489C228.228,415.755 230.268,431.819 230.24,466.281C230.213,500.743 227.161,542.889 243.817,552.296C260.474,561.704 212.316,549.118 212.316,549.118L206.418,538.632ZM387.237,344.998C387.237,344.998 375.302,368.823 372.223,380.713C369.145,392.602 343.256,568.464 342.318,571.587C341.381,574.709 338.479,608.05 331.96,606.317C325.44,604.585 338.532,618.11 338.532,618.11L346.208,615.715C346.208,615.715 342.802,594.11 350.528,558.774C358.253,523.438 387.237,344.998 387.237,344.998ZM395.136,400.793C395.136,400.793 397.57,524.575 397.121,542.339C396.672,560.102 394.994,662.844 395.21,671.022C395.425,679.2 403.261,733.919 400.333,744.617C397.405,755.316 367.007,711.213 367.007,711.213L364.074,686.929C364.074,686.929 379.479,672.005 380.018,671.286C380.557,670.566 383.419,660.249 384.761,647.23C386.103,634.211 389.294,524.304 389.294,524.304L395.136,400.793ZM430.958,341.613L430.191,329.467C430.191,329.467 442.373,342.738 445.08,355.141C447.788,367.545 450.752,452.542 450.752,452.542L430.958,341.613ZM613.157,243.197C613.157,243.197 601.219,293.167 599.777,299.019C598.336,304.871 597.601,348.631 597.601,348.631L593.445,401.77C593.445,401.77 585.597,479.072 582.031,492.67C578.466,506.267 568.572,534.873 563.752,540.272C558.932,545.671 588.181,528.558 588.181,528.558L601.772,383.466L613.157,243.197ZM629.485,264.604C629.485,264.604 649.672,398.849 650.429,415.574C651.008,428.37 669.257,526.802 673.415,539.598C677.156,551.113 685.467,589.349 685.467,589.349L649.463,622.142L642.149,587.685C642.149,587.685 656.844,574.445 657.227,565.783C657.61,557.122 639.37,452.424 639.565,444.489C639.76,436.553 627.599,282.432 627.786,279.843C627.973,277.254 629.485,264.604 629.485,264.604ZM199.609,228.408C199.609,228.408 205.076,233.87 223.439,245.402C241.802,256.934 284.363,278.249 284.202,278.237C284.04,278.226 206.673,229.474 199.609,228.408ZM294.191,284.697C294.191,284.697 296.042,287.988 319.267,298.255C324.237,300.452 293.047,279.032 294.191,284.697ZM362.646,323.384C362.646,323.384 365.555,325.756 369.836,327.79C374.118,329.824 387.326,334.371 387.326,334.371C387.326,334.371 368.747,323.434 367.589,322.776C366.431,322.118 362.646,323.384 362.646,323.384ZM460.829,303.957C460.829,303.957 492.386,284.518 496.871,281.855C501.355,279.193 518.117,268.371 519.722,268.681C521.328,268.991 520.182,271.909 513.786,275.695C507.39,279.48 496.336,286.171 495.541,286.489C494.745,286.808 479.794,297.181 477.427,297.814C475.06,298.447 460.829,303.957 460.829,303.957ZM537.249,260.688C537.249,260.688 542.041,256.786 544.329,255.273C546.618,253.76 550.817,252.565 550.817,252.565C550.817,252.565 547.465,258.052 543.664,260.001C539.864,261.95 536.502,263.306 537.249,260.688ZM561.796,247.59C561.796,247.59 564.505,245.012 569.427,242.345C574.35,239.678 586.748,233.347 588.092,232.489C589.437,231.631 594.753,229.018 594.753,229.018C594.753,229.018 589.271,234.873 584.972,236.988C580.672,239.103 573.099,244.137 573.099,244.137C573.099,244.137 563.181,249.898 561.796,247.59Z" style="fill:rgb(205,126,59);"/>
                <path d="M362.374,641.761C362.374,641.761 372.639,652.325 375.448,658.889C378.258,665.453 383.077,670.839 376.701,676.155C370.326,681.47 364.212,686.461 364.212,686.461L362.374,641.761ZM640.519,556.789C640.519,556.789 652.225,556.607 655.289,560.398C658.353,564.189 659.086,567.622 657.113,570.572C655.141,573.521 643.191,585.186 643.191,585.186L640.519,556.789Z" style="fill:rgb(97,61,45);"/>
                <path d="M430.833,341.039C430.833,341.039 439.958,437.849 440.111,461.152C440.263,484.454 447.595,551.617 449.969,575.878C452.342,600.139 451.346,632.051 445.34,645.364C439.334,658.678 414.879,705.747 409.916,721.935C404.954,738.124 481.828,643.085 481.828,643.085L546.497,544.997C546.497,544.997 483.66,581.439 470.324,597.525C468.868,585.683 462.907,537.075 456.897,494.888C451.973,460.321 446.679,430.06 446.641,427.916C446.558,423.153 430.833,341.039 430.833,341.039ZM159.135,347.401C159.135,347.401 159.284,407.658 157.349,431.234C155.413,454.811 143.98,524.707 141.319,539.382C138.658,554.057 137.363,606.097 147.462,627.982C157.562,649.866 121.009,612.703 121.009,612.703L132.093,545.606C142.507,484.363 150.669,417.242 159.135,347.401ZM380.807,385.871C380.807,385.871 368.823,477.994 365.388,497.232C361.953,516.469 347.075,599.091 347.577,619.269C348.079,639.447 343.529,611.502 343.529,611.502L364.486,475.893L380.807,385.871ZM243.201,551.487C243.201,551.487 279.038,570.173 291.708,576.834C304.378,583.495 325.771,597.357 330.289,601.18C334.807,605.003 338.528,613.399 338.528,613.399L243.201,551.487ZM403.888,61.661C404.224,61.799 404.577,61.961 404.946,62.15C413.178,66.347 635.287,189.637 635.287,189.637L651.692,223.225L700.804,363.422L688.51,405.924L672.076,347.913L657.611,299.769L691.058,454.092C691.058,454.092 714.732,544.565 713.086,558.811C711.439,573.056 679.144,597.014 679.144,597.014C679.144,597.014 697.496,548.107 697.157,538.497C696.819,528.888 656.461,331.447 656.347,330.83C656.232,330.212 636.022,217.827 633.503,213.23C630.983,208.632 619.708,205.791 603.691,216.448C587.673,227.105 467.708,292.894 467.708,292.894L421.821,315.23L520.537,256.399L563.735,232.183C563.735,232.183 605.934,207.425 607.955,199.199C609.977,190.972 522.626,137.448 522.092,137.025C521.607,136.64 418.834,78.697 399.76,68.115C371.16,84.292 203.223,179.378 196.981,185.113C190.157,191.384 187.511,197.685 196.981,207.835C206.451,217.984 235.455,235.718 235.455,235.718C235.455,235.718 188.936,216.805 184.143,215.247C179.35,213.689 175.489,212.023 172.088,217.817C168.687,223.611 159.418,300.15 157.411,310.448C155.404,320.745 131.664,409.565 129.309,421.333C126.953,433.1 121.43,469.753 121.43,469.753C121.43,469.753 119.391,451.934 121.43,430.614C123.469,409.293 129.309,383.999 129.309,383.999L150.682,294.806L165.007,226.295C165.007,226.295 142.615,289.207 141.896,289.734C141.178,290.261 124.907,343.517 121.43,366.389C117.953,389.261 121.43,306.138 121.43,306.138L150.682,205.458L172.088,170.741L307.954,92.299L403.888,54.674L403.888,61.661ZM628.273,268.903C628.273,268.903 624.491,324.116 627.748,388.589C631.006,453.061 633.712,503.183 634.523,510.98C635.334,518.776 640.986,557.351 640.986,557.351C640.986,557.351 655.704,556.453 656.931,562.208C658.157,567.963 639.324,449.539 638.017,435.169C629.426,340.742 628.273,268.903 628.273,268.903ZM603.766,353.493C603.766,353.493 597.079,519.071 596.532,519.71C595.984,520.35 595.547,551.817 595.547,551.817C595.547,551.817 585.987,547.354 587.247,537.196C588.508,527.039 603.766,353.493 603.766,353.493ZM202.909,306.007C202.909,306.007 205.281,337.039 205.641,354.757C206,372.476 194.187,470.583 194.187,470.583L200.465,321.709L202.909,306.007Z" style="fill:rgb(254,240,206);"/>
                <g id="lines">
                    <path d="M166.9,221.294C166.9,221.294 147.05,312.436 143.663,327.358C140.275,342.28 130.893,384.189 129.319,389.819M159.63,344.841C159.63,344.841 145.046,457.826 143.168,476.42C141.291,495.015 136.459,526.616 135.319,531.473M186.354,235.095C186.354,235.095 183.551,335.338 183.757,359.128C183.962,382.919 192.76,464.599 192.594,484.379C192.429,504.159 195.104,543.93 194.613,544.194M201.559,304.477C201.559,304.477 193.447,478.378 192.913,488.167" style="fill:none;stroke:black;stroke-width:2.5px;"/>
                    <path d="M387.715,343.267C387.715,343.267 357.529,518.126 354.986,531.823C352.443,545.519 344.232,595.779 343.891,604.315C343.55,612.85 346.227,613.56 346.846,616.527" style="fill:none;stroke:black;stroke-width:2.5px;"/>
                    <path d="M395.063,398.691C395.063,398.691 386.838,564.743 386.263,577.032C385.687,589.322 385.842,648.695 383.381,659.356C380.92,670.018 378.901,677.232 364.759,685.882" style="fill:none;stroke:black;stroke-width:2.5px;"/>
                    <path d="M431.215,339.053C431.215,339.053 454.011,471.236 456.111,487.207C458.211,503.178 470.254,594.216 469.68,609.475" style="fill:none;stroke:black;stroke-width:2.5px;"/>
                    <path d="M613.614,236.433C613.614,236.433 589.065,530.334 588.495,531.329" style="fill:none;stroke:black;stroke-width:2.5px;"/>
                    <path d="M598.284,270.504C598.284,270.504 598.357,402.408 598.517,418.55" style="fill:none;stroke:black;stroke-width:2.5px;"/>
                    <path d="M627.796,262.91C627.796,262.91 630.011,371.253 641.87,465.121C653.73,558.989 658.95,558.478 657.415,567.121C655.88,575.763 644.383,579.795 641.745,588.746" style="fill:none;stroke:black;stroke-width:2.5px;"/>
                    <path d="M649.723,262.453C649.723,262.453 670.635,375.783 684.373,421.413M173.823,197.452C173.823,197.452 173.45,201.474 179.952,204.884C186.454,208.294 202.787,218.068 202.787,218.068" style="fill:none;stroke:black;stroke-width:2.5px;"/>
                    <path d="M361.381,640.419C361.381,640.419 368.911,648.481 373.471,655.401C378.424,662.919 382.379,669.942 375.478,677.455" style="fill:none;stroke:black;stroke-width:2.5px;"/>
                    <path d="M638.503,557.141C638.503,557.141 642.919,555.107 648.752,556.714C654.585,558.321 658.415,561.967 657.718,566.328" style="fill:none;stroke:black;stroke-width:2.5px;"/>
                    <path d="M215.501,223.597L231.523,232.534" style="fill:none;stroke:black;stroke-width:2.5px;"/>
                    <path d="M242.547,238.634C242.547,238.634 341.804,294.638 348.222,297.519" style="fill:none;stroke:black;stroke-width:2.5px;"/>
                    <path d="M369.287,309.591C369.287,309.591 383.822,318.575 388.075,319.833" style="fill:none;stroke:black;stroke-width:2.5px;"/>
                    <path d="M401.294,323.985C401.294,323.985 408.411,322.113 422.81,314.788C437.209,307.463 507.065,262.918 507.065,262.918" style="fill:none;stroke:black;stroke-width:2.5px;"/>
                    <path d="M518.341,256.965L544.146,242.069" style="fill:none;stroke:black;stroke-width:2.5px;"/>
                    <path d="M561.142,233.383C561.142,233.383 619.297,201.288 620.744,200.148C621.629,199.451 626.552,197.941 624.905,194.552" style="fill:none;stroke:black;stroke-width:2.5px;"/>
                </g>
            </g>
            <path d="M400,64.574L172.196,192.811C172.196,192.811 162.421,200.702 159.803,212.045C157.186,223.387 134.24,299.275 129.558,312.167C124.876,325.06 122.541,333.248 122.502,344.021C122.463,354.794 121.674,367.728 129.483,388.132C129.483,388.132 127.767,401.861 125.95,413.223C124.134,424.586 120.018,440.438 120.995,452.214C121.973,463.989 126.81,481.867 129.428,494.743C132.045,507.618 135.563,527.074 135.423,531.159C135.283,535.243 127.067,573.813 127.715,587.162C128.363,600.511 133.976,619.744 148.238,625.864C162.499,631.985 187.725,634.92 196.032,627.393C197.173,616.166 195.524,569.496 195.524,569.496L194.724,542.042C194.724,542.042 205.701,532.179 237.491,548.744C269.281,565.31 328.13,605.026 328.13,605.026L345.221,613.766C345.221,613.766 361.507,640.725 362.845,642.838C364.183,644.95 363.779,681.205 364.552,686.825C365.324,692.445 365.92,695.857 377.659,714.227C389.399,732.598 398.952,743.807 398.952,743.807C398.952,743.807 415.881,708.758 425.925,694.209C435.968,679.66 466.195,640.19 467.217,636.223C468.239,632.256 469.621,607.21 469.644,606.948C469.667,606.686 497.686,579.142 517.013,566.035C536.34,552.929 556.161,537.096 566.673,532.376C577.185,527.656 588.085,527.661 588.547,527.779C589.009,527.898 586.295,539.35 588.646,544.471C590.998,549.592 604.134,560.28 621.304,558.816C638.473,557.352 640.062,556.808 640.062,556.808C640.062,556.808 642.427,598.558 648.399,610.659C650.343,614.598 662.053,609.583 671.879,600.905C679.859,593.857 685.534,587.636 690.676,579.719C696.829,570.245 709.507,554.037 708.794,544.066C707.618,527.635 682.661,412.872 682.661,412.872C682.661,412.872 689.079,391.008 686.891,380.162C684.702,369.315 651.842,276.154 650.735,271.324C649.627,266.494 638.583,204.45 635.434,197.976C632.284,191.503 576.319,160.376 576.319,160.376L411.905,68.435L400,64.574Z" style="fill:none;stroke:black;stroke-width:2.5px;"/>
        </g>
        <g transform="matrix(1,0,0,1,49.0114,-2.65748)">
            <path d="M304.687,17.407L304.687,24.145C301.4,21.395 297.998,20.019 294.482,20.019C290.609,20.019 287.345,21.411 284.692,24.194C282.023,26.961 280.688,30.347 280.688,34.351C280.688,38.306 282.023,41.642 284.692,44.36C287.361,47.078 290.633,48.437 294.507,48.437C296.509,48.437 298.209,48.112 299.609,47.461C300.39,47.135 301.2,46.696 302.038,46.143C302.877,45.589 303.76,44.922 304.687,44.141L304.687,51.001C301.432,52.84 298.014,53.76 294.433,53.76C289.046,53.76 284.448,51.88 280.639,48.12C276.847,44.328 274.951,39.754 274.951,34.399C274.951,29.598 276.538,25.317 279.712,21.558C283.618,16.951 288.672,14.648 294.873,14.648C298.258,14.648 301.53,15.568 304.687,17.407Z" style="fill:white;fill-rule:nonzero;"/>
            <path d="M317.554,15.381L317.554,47.729L328.637,47.729L328.637,53.076L311.865,53.076L311.865,15.381L317.554,15.381Z" style="fill:white;fill-rule:nonzero;"/>
            <path d="M330.615,34.058C330.615,28.752 332.56,24.194 336.45,20.386C340.324,16.577 344.979,14.673 350.415,14.673C355.786,14.673 360.392,16.593 364.233,20.435C368.091,24.276 370.019,28.89 370.019,34.277C370.019,39.697 368.082,44.295 364.209,48.071C360.319,51.864 355.623,53.76 350.122,53.76C345.255,53.76 340.885,52.075 337.012,48.706C332.747,44.979 330.615,40.096 330.615,34.058ZM336.352,34.131C336.352,38.297 337.752,41.724 340.552,44.409C343.335,47.095 346.549,48.437 350.195,48.437C354.15,48.437 357.487,47.07 360.205,44.336C362.923,41.569 364.282,38.2 364.282,34.228C364.282,30.208 362.939,26.839 360.254,24.121C357.584,21.387 354.28,20.019 350.342,20.019C346.419,20.019 343.107,21.387 340.405,24.121C337.703,26.823 336.352,30.159 336.352,34.131Z" style="fill:white;fill-rule:nonzero;"/>
            <path d="M386.23,20.727L386.23,53.076L380.542,53.076L380.542,20.727L371.875,20.727L371.875,15.381L394.873,15.381L394.873,20.727L386.23,20.727Z" style="fill:white;fill-rule:nonzero;"/>
            <path d="M405.639,30.127L421.899,30.127L421.899,15.381L427.588,15.381L427.588,53.076L421.899,53.076L421.899,35.474L405.639,35.474L405.639,53.076L399.951,53.076L399.951,15.381L405.639,15.381L405.639,30.127Z" style="fill:white;fill-rule:nonzero;"/>
        </g>
    </g>
    <defs>
        <linearGradient id="_Linear3" x1="0" y1="0" x2="1" y2="0" gradientUnits="userSpaceOnUse" gradientTransform="matrix(4.53316e-14,-606.541,632.523,3.1732e-14,398.243,611.015)"><stop offset="0" style="stop-color:rgb(231,208,115);stop-opacity:1"/><stop offset="0.44" style="stop-color:rgb(250,245,226);stop-opacity:1"/><stop offset="1" style="stop-color:white;stop-opacity:1"/></linearGradient>
        <linearGradient id="_Linear4" x1="0" y1="0" x2="1" y2="0" gradientUnits="userSpaceOnUse" gradientTransform="matrix(-138.876,528.684,-528.684,-138.876,539.753,57.9244)"><stop offset="0" style="stop-color:rgb(254,231,171);stop-opacity:1"/><stop offset="0.22" style="stop-color:rgb(254,227,157);stop-opacity:1"/><stop offset="0.42" style="stop-color:rgb(253,213,112);stop-opacity:1"/><stop offset="1" style="stop-color:rgb(246,190,90);stop-opacity:1"/></linearGradient>
    </defs>
</svg>
