<?xml version="1.0" encoding="UTF-8" standalone="no"?>
<!DOCTYPE svg PUBLIC "-//W3C//DTD SVG 1.1//EN" "http://www.w3.org/Graphics/SVG/1.1/DTD/svg11.dtd">
<svg width="100%" height="100%" viewBox="0 0 800 800" version="1.1" xmlns="http://www.w3.org/2000/svg" xmlns:xlink="http://www.w3.org/1999/xlink" xml:space="preserve" xmlns:serif="http://www.serif.com/" style="fill-rule:evenodd;clip-rule:evenodd;stroke-linecap:round;stroke-linejoin:round;stroke-miterlimit:1.5;">
    <g id="Dfinity-stone-card" serif:id="Dfinity stone card">
        <rect id="bg" x="-48.418" y="-9.957" width="931.967" height="871.066" style="fill:url(#_Linear1);"/>
        <g id="rectangles" transform="matrix(1,0,0,1,20.7283,64.1339)">
            <g opacity="0.5">
                <g transform="matrix(0.660629,0,0,1.04551,351.522,-81.058)">
                    <rect x="462.47" y="633.282" width="419.335" height="322.449" style="fill:none;"/>
                    <clipPath id="_clip2">
                        <rect x="462.47" y="633.282" width="419.335" height="322.449"/>
                    </clipPath>
                    <g clip-path="url(#_clip2)">
                        <g transform="matrix(1.51371,0,0,0.956468,-452.99,37.369)">
                            <path d="M604.78,633.282L877.032,634.306" style="fill:none;stroke:rgb(166,240,98);stroke-width:4px;stroke-dasharray:4.25,7.5,0,0;"/>
                        </g>
                        <g transform="matrix(1.51371,0,0,0.956468,-452.99,58.0423)">
                            <path d="M604.78,633.282L877.032,634.306" style="fill:none;stroke:rgb(166,240,98);stroke-width:4px;stroke-dasharray:4.25,7.5,0,0;"/>
                        </g>
                        <g transform="matrix(1.51371,0,0,0.956468,-452.99,68.3789)">
                            <path d="M604.78,633.282L877.032,634.306" style="fill:none;stroke:rgb(166,240,98);stroke-width:4px;stroke-dasharray:4.25,7.5,0,0;"/>
                        </g>
                        <g transform="matrix(1.51371,0,0,0.956468,-452.99,89.0522)">
                            <path d="M604.78,633.282L877.032,634.306" style="fill:none;stroke:rgb(166,240,98);stroke-width:4px;stroke-dasharray:4.25,7.5,0,0;"/>
                        </g>
                        <g transform="matrix(1.51371,0,0,0.956468,-452.99,99.3888)">
                            <path d="M604.78,633.282L877.032,634.306" style="fill:none;stroke:rgb(166,240,98);stroke-width:4px;stroke-dasharray:4.25,7.5,0,0;"/>
                        </g>
                        <g transform="matrix(1.51371,0,0,0.956468,-452.99,130.399)">
                            <path d="M604.78,633.282L877.032,634.306" style="fill:none;stroke:rgb(166,240,98);stroke-width:4px;stroke-dasharray:4.25,7.5,0,0;"/>
                        </g>
                        <g transform="matrix(1.51371,0,0,0.956468,-452.99,151.072)">
                            <path d="M604.78,633.282L877.032,634.306" style="fill:none;stroke:rgb(166,240,98);stroke-width:4px;stroke-dasharray:4.25,7.5,0,0;"/>
                        </g>
                        <g transform="matrix(1.51371,0,0,0.956468,-452.99,171.745)">
                            <path d="M604.78,633.282L877.032,634.306" style="fill:none;stroke:rgb(166,240,98);stroke-width:4px;stroke-dasharray:4.25,7.5,0,0;"/>
                        </g>
                    </g>
                    <rect x="462.47" y="633.282" width="419.335" height="322.449" style="fill:none;stroke:rgb(166,240,98);stroke-width:4.57px;stroke-dasharray:4.86,8.58,0,0;"/>
                </g>
                <g transform="matrix(0.192707,0,0,1.04551,466.744,2.40586)">
                    <rect x="462.47" y="633.282" width="419.335" height="322.449" style="fill:none;"/>
                    <clipPath id="_clip3">
                        <rect x="462.47" y="633.282" width="419.335" height="322.449"/>
                    </clipPath>
                    <g clip-path="url(#_clip3)">
                        <g transform="matrix(1.51371,0,0,0.956468,-452.99,37.369)">
                            <path d="M604.78,633.282L877.032,634.306" style="fill:none;stroke:rgb(237,30,121);stroke-width:5.43px;stroke-dasharray:5.77,10.18,0,0;"/>
                        </g>
                        <g transform="matrix(1.51371,0,0,0.956468,-452.99,58.0423)">
                            <path d="M604.78,633.282L877.032,634.306" style="fill:none;stroke:rgb(237,30,121);stroke-width:5.43px;stroke-dasharray:5.77,10.18,0,0;"/>
                        </g>
                        <g transform="matrix(1.51371,0,0,0.956468,-452.99,68.3789)">
                            <path d="M604.78,633.282L877.032,634.306" style="fill:none;stroke:rgb(237,30,121);stroke-width:5.43px;stroke-dasharray:5.77,10.18,0,0;"/>
                        </g>
                        <g transform="matrix(1.51371,0,0,0.956468,-452.99,89.0522)">
                            <path d="M604.78,633.282L877.032,634.306" style="fill:none;stroke:rgb(237,30,121);stroke-width:5.43px;stroke-dasharray:5.77,10.18,0,0;"/>
                        </g>
                    </g>
                    <rect x="462.47" y="633.282" width="419.335" height="322.449" style="fill:none;stroke:rgb(237,30,121);stroke-width:5.32px;stroke-dasharray:5.65,9.98,0,0;"/>
                </g>
            </g>
        </g>
        <g id="circles" opacity="0.5">
            <g transform="matrix(1,0,0,1,-118.853,-94.5905)">
                <circle cx="155.124" cy="124.814" r="124.814" style="fill:none;stroke:rgb(255,207,0);stroke-width:4px;stroke-dasharray:4.25,7.5,0,0;"/>
            </g>
            <g transform="matrix(0.928318,0,0,0.928318,-107.734,-85.6437)">
                <circle cx="155.124" cy="124.814" r="124.814" style="fill:none;stroke:rgb(255,207,0);stroke-width:4.31px;stroke-dasharray:4.58,8.08,0,0;"/>
            </g>
            <g transform="matrix(0.691272,0,0,0.691272,-70.9623,-56.0571)">
                <circle cx="155.124" cy="124.814" r="124.814" style="fill:none;stroke:rgb(255,108,0);stroke-width:5.79px;stroke-dasharray:6.15,10.85,0,0;"/>
            </g>
        </g>
        <g id="rarity-bars" serif:id="rarity bars">
            <g id="rarity-bars-fill" serif:id="rarity bars fill">
                <g transform="matrix(0.114833,0,0,0.114833,59.0756,653.445)">
                    <path d="M400,117.517L629.266,249.774L629.266,514.685L400.192,646.941L400.192,647.052L400.096,646.997L400,647.052L400,646.941L170.925,514.685L170.925,249.774L400,117.517Z" style="fill:rgb(139,57,219);"/>
                </g>
                <g transform="matrix(0.114833,0,0,0.114833,126.648,653.445)">
                    <path d="M400,117.517L629.266,249.774L629.266,514.685L400.192,646.941L400.192,647.052L400.096,646.997L400,647.052L400,646.941L170.925,514.685L170.925,249.774L400,117.517Z" style="fill:rgb(237,30,121);"/>
                </g>
                <g transform="matrix(0.114833,0,0,0.114833,194.22,653.445)">
                    <path d="M400,117.517L629.266,249.774L629.266,514.685L400.192,646.941L400.192,647.052L400.096,646.997L400,647.052L400,646.941L170.925,514.685L170.925,249.774L400,117.517Z" style="fill:rgb(241,90,36);"/>
                </g>
                <g transform="matrix(0.114833,0,0,0.114833,261.792,653.445)">
                    <path d="M400,117.517L629.266,249.774L629.266,514.685L400.192,646.941L400.192,647.052L400.096,646.997L400,647.052L400,646.941L170.925,514.685L170.925,249.774L400,117.517Z" style="fill:rgb(251,176,59);"/>
                </g>
                <g transform="matrix(0.114833,0,0,0.114833,329.364,653.445)">
                    <path d="M400,117.517L629.266,249.774L629.266,514.685L400.192,646.941L400.192,647.052L400.096,646.997L400,647.052L400,646.941L170.925,514.685L170.925,249.774L400,117.517Z" style="fill:rgb(41,171,226);"/>
                </g>
            </g>
            <g id="rarity-bars-stroke" serif:id="rarity bars stroke">
                <g transform="matrix(0.114833,0,0,0.114833,59.0756,653.445)">
                    <path d="M400,117.517L629.266,249.774L629.266,514.685L400.192,646.941L400.192,647.052L400.096,646.997L400,647.052L400,646.941L170.925,514.685L170.925,249.774L400,117.517Z" style="fill:none;stroke:white;stroke-width:34.83px;"/>
                </g>
                <g transform="matrix(0.114833,0,0,0.114833,126.648,653.445)">
                    <path d="M400,117.517L629.266,249.774L629.266,514.685L400.192,646.941L400.192,647.052L400.096,646.997L400,647.052L400,646.941L170.925,514.685L170.925,249.774L400,117.517Z" style="fill:none;stroke:white;stroke-width:34.83px;"/>
                </g>
                <g transform="matrix(0.114833,0,0,0.114833,194.22,653.445)">
                    <path d="M400,117.517L629.266,249.774L629.266,514.685L400.192,646.941L400.192,647.052L400.096,646.997L400,647.052L400,646.941L170.925,514.685L170.925,249.774L400,117.517Z" style="fill:none;stroke:white;stroke-width:34.83px;"/>
                </g>
                <g transform="matrix(0.114833,0,0,0.114833,261.792,653.445)">
                    <path d="M400,117.517L629.266,249.774L629.266,514.685L400.192,646.941L400.192,647.052L400.096,646.997L400,647.052L400,646.941L170.925,514.685L170.925,249.774L400,117.517Z" style="fill:none;stroke:white;stroke-width:34.83px;"/>
                </g>
                <g transform="matrix(0.114833,0,0,0.114833,329.364,653.445)">
                    <path d="M400,117.517L629.266,249.774L629.266,514.685L400.192,646.941L400.192,647.052L400.096,646.997L400,647.052L400,646.941L170.925,514.685L170.925,249.774L400,117.517Z" style="fill:none;stroke:white;stroke-width:34.83px;"/>
                </g>
            </g>
        </g>
        <g transform="matrix(0.720342,0,0,0.720342,23.1337,330.63)">
            <path d="M94.756,423.775L106.426,439.84L99.468,439.84L88.702,424.41L87.676,424.41L87.676,439.84L81.988,439.84L81.988,402.144L88.653,402.144C93.633,402.144 97.23,403.08 99.444,404.952C101.885,407.035 103.106,409.786 103.106,413.204C103.106,415.873 102.341,418.168 100.811,420.089C99.281,422.009 97.263,423.238 94.756,423.775ZM87.676,419.454L89.483,419.454C94.87,419.454 97.564,417.395 97.564,413.277C97.564,409.42 94.944,407.491 89.703,407.491L87.676,407.491L87.676,419.454Z" style="fill:white;fill-rule:nonzero;"/>
            <path d="M134.234,430.684L118.096,430.684L113.897,439.84L107.769,439.84L126.421,399.776L144.415,439.84L138.189,439.84L134.234,430.684ZM131.915,425.338L126.324,412.52L120.464,425.338L131.915,425.338Z" style="fill:white;fill-rule:nonzero;"/>
            <path d="M161.895,423.775L173.565,439.84L166.607,439.84L155.84,424.41L154.815,424.41L154.815,439.84L149.127,439.84L149.127,402.144L155.792,402.144C160.772,402.144 164.369,403.08 166.583,404.952C169.024,407.035 170.245,409.786 170.245,413.204C170.245,415.873 169.48,418.168 167.95,420.089C166.42,422.009 164.402,423.238 161.895,423.775ZM154.815,419.454L156.622,419.454C162.009,419.454 164.703,417.395 164.703,413.277C164.703,409.42 162.082,407.491 156.841,407.491L154.815,407.491L154.815,419.454Z" style="fill:white;fill-rule:nonzero;"/>
            <rect x="179.229" y="402.144" width="5.688" height="37.695" style="fill:white;fill-rule:nonzero;"/>
            <path d="M204.376,407.491L204.376,439.84L198.687,439.84L198.687,407.491L190.02,407.491L190.02,402.144L213.018,402.144L213.018,407.491L204.376,407.491Z" style="fill:white;fill-rule:nonzero;"/>
            <path d="M228.155,423.555L215.85,402.144L222.393,402.144L231.011,417.208L239.654,402.144L246.197,402.144L233.843,423.555L233.843,439.84L228.155,439.84L228.155,423.555Z" style="fill:white;fill-rule:nonzero;"/>
        </g>
        <path id="border" d="M800,801.235L800,-4.106L-0,-4.106L0,801.235L800,801.235ZM201.702,30.644L30.644,30.644C30.644,30.644 30.644,769.356 30.644,769.356C30.644,769.356 769.356,769.356 769.356,769.356L769.356,30.644L601.664,30.644L601.664,64.463L201.702,64.463L201.702,30.644Z" style="fill:url(#_Linear4);"/>
        <g id="guide" transform="matrix(1,0,0,1.22056,1.75676,-39.4524)">
            <rect x="82.193" y="95.569" width="632.101" height="428.927" style="fill:url(#_Linear5);stroke:rgb(255,204,79);stroke-width:4.8px;"/>
        </g>
        <g id="Dfinity-stone" serif:id="Dfinity stone" transform="matrix(0.808786,0,0,0.808786,76.7081,26.7135)">
            <path d="M400,117.517L629.266,249.774L629.266,514.685L400.192,646.941L400.192,647.052L400.096,646.997L400,647.052L400,646.941L170.925,514.685L170.925,249.774L400,117.517Z" style="fill:none;"/>
            <clipPath id="_clip6">
                <path d="M400,117.517L629.266,249.774L629.266,514.685L400.192,646.941L400.192,647.052L400.096,646.997L400,647.052L400,646.941L170.925,514.685L170.925,249.774L400,117.517Z"/>
            </clipPath>
            <g clip-path="url(#_clip6)">
                <g transform="matrix(-1,0,0,-1,799.152,763.752)">
                    <g id="v4" transform="matrix(-1.01186,0.584199,-0.508663,-0.88103,986.311,466.481)">
                        <path d="M228.211,250.022L284.589,361.8L172.811,361.8L228.211,250.022Z" style="fill:rgb(146,51,181);"/>
                        <clipPath id="_clip7">
                            <path d="M228.211,250.022L284.589,361.8L172.811,361.8L228.211,250.022Z"/>
                        </clipPath>
                        <g clip-path="url(#_clip7)">
                            <g transform="matrix(0.741208,0.491485,-0.427937,0.851276,265.937,-161.075)">
                                <path d="M218.102,408.238L225.603,482.497L179.57,441.101L168.853,513.924L164.513,377.014L218.102,408.238Z" style="fill:rgb(228,122,255);"/>
                            </g>
                        </g>
                        <path d="M228.211,250.022L284.589,361.8L172.811,361.8L228.211,250.022Z" style="fill:none;stroke:black;stroke-width:2.5px;"/>
                    </g>
                    <g id="v3" transform="matrix(-1.02655,0.592679,-0.51179,-0.886447,761.717,468.055)">
                        <path d="M228.211,250.022L284.589,361.8L172.811,361.8L228.211,250.022Z" style="fill:rgb(146,51,181);"/>
                        <clipPath id="_clip8">
                            <path d="M228.211,250.022L284.589,361.8L172.811,361.8L228.211,250.022Z"/>
                        </clipPath>
                        <g clip-path="url(#_clip8)">
                            <g transform="matrix(0.730602,0.488481,-0.421813,0.846074,97.3788,-268.468)">
                                <path d="M396.93,430.287L455.446,480.916L449.818,420.131L513.364,446.094L397.552,377.332L396.93,430.287Z" style="fill:rgb(228,122,255);"/>
                            </g>
                        </g>
                        <path d="M228.211,250.022L284.589,361.8L172.811,361.8L228.211,250.022Z" style="fill:none;stroke:black;stroke-width:2.5px;"/>
                    </g>
                    <g id="v2" transform="matrix(1.01186,-0.584199,0.508663,0.88103,41.1377,293.499)">
                        <path d="M228.211,250.022L284.589,361.8L172.811,361.8L228.211,250.022Z" style="fill:rgb(146,51,181);"/>
                        <clipPath id="_clip9">
                            <path d="M228.211,250.022L284.589,361.8L172.811,361.8L228.211,250.022Z"/>
                        </clipPath>
                        <g clip-path="url(#_clip9)">
                            <g transform="matrix(-0.741208,-0.491485,0.427937,-0.851276,360.608,772.868)">
                                <path d="M331.392,289.947L398.841,317.34L336.714,336.924L396.528,382.142L272.898,316.823L331.392,289.947Z" style="fill:rgb(228,122,255);"/>
                            </g>
                        </g>
                        <path d="M228.211,250.022L284.589,361.8L172.811,361.8L228.211,250.022Z" style="fill:none;stroke:black;stroke-width:2.5px;"/>
                    </g>
                    <g id="v1" transform="matrix(1.03172,-0.595664,0.508663,0.88103,37.1617,430.222)">
                        <path d="M228.211,250.022L284.589,361.8L172.811,361.8L228.211,250.022Z" style="fill:rgb(146,51,181);"/>
                        <clipPath id="_clip10">
                            <path d="M228.211,250.022L284.589,361.8L172.811,361.8L228.211,250.022Z"/>
                        </clipPath>
                        <g clip-path="url(#_clip10)">
                            <g transform="matrix(-0.726942,-0.491485,0.4197,-0.851276,413.94,658.434)">
                                <path d="M400.463,165.978L342.406,214.886L350.206,156.4L281.98,180.374L408.01,106.594L400.463,165.978Z" style="fill:rgb(228,122,255);"/>
                            </g>
                        </g>
                        <path d="M228.211,250.022L284.589,361.8L172.811,361.8L228.211,250.022Z" style="fill:none;stroke:black;stroke-width:2.5px;"/>
                    </g>
                    <g id="p5" transform="matrix(-1.01928,0.588484,-0.51338,-0.889201,760.986,601.112)">
                        <path d="M228.211,250.022L284.589,361.8L172.811,361.8L228.211,250.022Z" style="fill:rgb(254,56,143);"/>
                        <clipPath id="_clip11">
                            <path d="M228.211,250.022L284.589,361.8L172.811,361.8L228.211,250.022Z"/>
                        </clipPath>
                        <g clip-path="url(#_clip11)">
                            <g transform="matrix(0.73581,0.486969,-0.42482,0.843454,41.0101,-155.766)">
                                <path d="M400.403,294.854L456.043,349.122L441.166,283.236L513.532,316.005L401.314,250.084L400.403,294.854Z" style="fill:rgb(255,181,196);"/>
                            </g>
                        </g>
                        <path d="M228.211,250.022L284.589,361.8L172.811,361.8L228.211,250.022Z" style="fill:none;stroke:black;stroke-width:2.5px;"/>
                    </g>
                    <g id="P4" transform="matrix(-1.03246,0.596091,-0.51623,-0.894137,650.767,667.597)">
                        <path d="M228.211,250.022L284.589,361.8L172.811,361.8L228.211,250.022Z" style="fill:rgb(254,56,143);"/>
                        <clipPath id="_clip12">
                            <path d="M228.211,250.022L284.589,361.8L172.811,361.8L228.211,250.022Z"/>
                        </clipPath>
                        <g clip-path="url(#_clip12)">
                            <g transform="matrix(0.72642,0.48428,-0.419399,0.838798,-67.4628,-152.515)">
                                <path d="M513.237,272.341L570.292,212.881L552.971,285.124L627.632,251.791L511.843,319.2L513.237,272.341Z" style="fill:rgb(255,181,196);"/>
                            </g>
                        </g>
                        <path d="M228.211,250.022L284.589,361.8L172.811,361.8L228.211,250.022Z" style="fill:none;stroke:black;stroke-width:2.5px;"/>
                    </g>
                    <g id="p3" transform="matrix(1.03564,-0.59793,0.508663,0.88103,-192.917,166.733)">
                        <path d="M228.211,250.022L284.589,361.8L172.811,361.8L228.211,250.022Z" style="fill:rgb(254,56,143);"/>
                        <clipPath id="_clip13">
                            <path d="M228.211,250.022L284.589,361.8L172.811,361.8L228.211,250.022Z"/>
                        </clipPath>
                        <g clip-path="url(#_clip13)">
                            <g transform="matrix(-0.724186,-0.491485,0.418109,-0.851276,468.824,995.815)">
                                <path d="M599.806,398.77L570.623,480.107L623.111,428.374L629.925,512.451L632.672,378.555L599.806,398.77Z" style="fill:rgb(255,181,196);"/>
                            </g>
                        </g>
                        <path d="M228.211,250.022L284.589,361.8L172.811,361.8L228.211,250.022Z" style="fill:none;stroke:black;stroke-width:2.5px;"/>
                    </g>
                    <g id="p2" transform="matrix(1.01186,-0.584199,0.508663,0.88103,155.041,95.9621)">
                        <path d="M228.211,250.022L284.589,361.8L172.811,361.8L228.211,250.022Z" style="fill:rgb(254,56,143);"/>
                        <clipPath id="_clip14">
                            <path d="M228.211,250.022L284.589,361.8L172.811,361.8L228.211,250.022Z"/>
                        </clipPath>
                        <g clip-path="url(#_clip14)">
                            <g transform="matrix(-0.741208,-0.491485,0.427937,-0.851276,191.648,885.045)">
                                <path d="M287.173,488.742L230.027,546.446L245.448,480.155L171.867,513.696L286.11,448.014L287.173,488.742Z" style="fill:rgb(255,181,196);"/>
                            </g>
                        </g>
                        <path d="M228.211,250.022L284.589,361.8L172.811,361.8L228.211,250.022Z" style="fill:none;stroke:black;stroke-width:2.5px;"/>
                    </g>
                    <g id="p1" transform="matrix(1.01186,-0.584199,0.508663,0.88103,156.058,227.15)">
                        <path d="M228.211,250.022L284.589,361.8L172.811,361.8L228.211,250.022Z" style="fill:rgb(254,56,143);"/>
                        <clipPath id="_clip15">
                            <path d="M228.211,250.022L284.589,361.8L172.811,361.8L228.211,250.022Z"/>
                        </clipPath>
                        <g clip-path="url(#_clip15)">
                            <g transform="matrix(-0.741208,-0.491485,0.427937,-0.851276,247.035,772.868)">
                                <path d="M285.854,362.276L228.597,416.004L246.623,348.648L171.321,382.564L287.25,311.784L285.854,362.276Z" style="fill:rgb(255,181,196);"/>
                            </g>
                        </g>
                        <path d="M228.211,250.022L284.589,361.8L172.811,361.8L228.211,250.022Z" style="fill:none;stroke:black;stroke-width:2.5px;"/>
                    </g>
                    <g id="o5" transform="matrix(-1.04413,0.60283,-0.514451,-0.891056,994.782,597.616)">
                        <path d="M228.211,250.022L284.589,361.8L172.811,361.8L228.211,250.022Z" style="fill:rgb(241,90,37);"/>
                        <clipPath id="_clip16">
                            <path d="M228.211,250.022L284.589,361.8L172.811,361.8L228.211,250.022Z"/>
                        </clipPath>
                        <g clip-path="url(#_clip16)">
                            <g transform="matrix(0.718299,0.485955,-0.41471,0.841698,209.42,-44.7696)">
                                <path d="M215.564,274.894L230.119,349.063L180.742,305.15L171.131,383.394L160.614,237.537L215.564,274.894Z" style="fill:rgb(254,191,137);"/>
                            </g>
                        </g>
                        <path d="M228.211,250.022L284.589,361.8L172.811,361.8L228.211,250.022Z" style="fill:none;stroke:black;stroke-width:2.5px;"/>
                    </g>
                    <g id="o4" transform="matrix(-1.03816,0.599382,-0.515548,-0.892956,766.126,732.041)">
                        <path d="M228.7,250.022L284.589,361.8L172.811,361.8L228.7,250.022Z" style="fill:rgb(241,90,37);"/>
                        <clipPath id="_clip17">
                            <path d="M228.7,250.022L284.589,361.8L172.811,361.8L228.7,250.022Z"/>
                        </clipPath>
                        <g clip-path="url(#_clip17)">
                            <g transform="matrix(0.722432,0.484921,-0.417096,0.839907,-10.6328,-42.6495)">
                                <path d="M441.257,228.872L456.857,150.735L406.259,192.2L400.497,115.781L395.535,254.898L441.257,228.872Z" style="fill:rgb(254,191,137);"/>
                            </g>
                        </g>
                        <path d="M228.7,250.022L284.589,361.8L172.811,361.8L228.7,250.022Z" style="fill:none;stroke:black;stroke-width:2.5px;"/>
                    </g>
                    <g id="o3" transform="matrix(-1.01186,0.584199,-0.508794,-0.881257,871.438,401.606)">
                        <path d="M228.211,250.022L284.589,361.8L172.811,361.8L228.211,250.022Z" style="fill:rgb(241,90,37);"/>
                        <clipPath id="_clip18">
                            <path d="M228.211,250.022L284.589,361.8L172.811,361.8L228.211,250.022Z"/>
                        </clipPath>
                        <g clip-path="url(#_clip18)">
                            <g transform="matrix(0.741208,0.491358,-0.427937,0.851057,208.555,-272.689)">
                                <path d="M285.908,526.727L339.544,479.262L330.97,543.993L397.905,514.381L300.645,590.962L274.686,592.449L285.908,526.727Z" style="fill:rgb(254,191,137);"/>
                            </g>
                        </g>
                        <path d="M228.211,250.022L284.589,361.8L172.811,361.8L228.211,250.022Z" style="fill:none;stroke:black;stroke-width:2.5px;"/>
                    </g>
                    <g id="o2" transform="matrix(-1.01902,0.588332,-0.51179,-0.886447,645.415,535.202)">
                        <path d="M228.211,250.022L284.589,361.8L172.811,361.8L228.211,250.022Z" style="fill:rgb(241,90,37);"/>
                        <clipPath id="_clip19">
                            <path d="M228.211,250.022L284.589,361.8L172.811,361.8L228.211,250.022Z"/>
                        </clipPath>
                        <g clip-path="url(#_clip19)">
                            <g transform="matrix(0.736001,0.488481,-0.42493,0.846074,-16.0324,-268.468)">
                                <path d="M589.868,359.329L514.561,379.687L580.821,400.425L516.712,446.732L638.715,381.242L589.868,359.329Z" style="fill:rgb(254,191,137);"/>
                            </g>
                        </g>
                        <path d="M228.211,250.022L284.589,361.8L172.811,361.8L228.211,250.022Z" style="fill:none;stroke:black;stroke-width:2.5px;"/>
                    </g>
                    <g id="o1" transform="matrix(-1.03336,0.596613,-0.50951,-0.882498,762.07,332.154)">
                        <path d="M228.211,250.022L284.589,361.8L172.811,361.8L228.211,250.022Z" style="fill:rgb(241,90,37);"/>
                        <clipPath id="_clip20">
                            <path d="M228.211,250.022L284.589,361.8L172.811,361.8L228.211,250.022Z"/>
                        </clipPath>
                        <g clip-path="url(#_clip20)">
                            <g transform="matrix(0.725785,0.490667,-0.419032,0.849861,153.939,-384.994)">
                                <path d="M395.962,560.65L459.964,612.581L444.83,546.059L513.058,580.767L397.912,513.709L395.962,560.65Z" style="fill:rgb(254,191,137);"/>
                            </g>
                        </g>
                        <path d="M228.211,250.022L284.589,361.8L172.811,361.8L228.211,250.022Z" style="fill:none;stroke:black;stroke-width:2.5px;"/>
                    </g>
                    <g id="y5" transform="matrix(1.03816,-0.599382,0.508663,0.88103,-79.2877,100.531)">
                        <path d="M228.211,250.022L284.589,361.8L172.811,361.8L228.211,250.022Z" style="fill:rgb(255,204,79);"/>
                        <clipPath id="_clip21">
                            <path d="M228.211,250.022L284.589,361.8L172.811,361.8L228.211,250.022Z"/>
                        </clipPath>
                        <g clip-path="url(#_clip21)">
                            <g transform="matrix(-0.722432,-0.491485,0.417096,-0.851276,357.986,996.324)">
                                <path d="M468.075,475.876L456.582,547.241L505.7,505.45L515.946,585.21L516.377,447.146L468.075,475.876Z" style="fill:rgb(253,245,222);"/>
                            </g>
                        </g>
                        <path d="M228.211,250.022L284.589,361.8L172.811,361.8L228.211,250.022Z" style="fill:none;stroke:black;stroke-width:2.5px;"/>
                    </g>
                    <g id="y4" transform="matrix(1.03312,-0.596475,0.508663,0.88103,36.583,33.6333)">
                        <path d="M228.211,250.022L284.589,361.8L172.811,361.8L228.211,250.022Z" style="fill:rgb(255,204,79);"/>
                        <clipPath id="_clip22">
                            <path d="M228.211,250.022L284.589,361.8L172.811,361.8L228.211,250.022Z"/>
                        </clipPath>
                        <g clip-path="url(#_clip22)">
                            <g transform="matrix(-0.725953,-0.491485,0.419129,-0.851276,247.575,996.324)">
                                <path d="M400.675,589.867L342.529,546.442L351.086,607.209L283.784,579.944L404.052,659.039L400.675,589.867Z" style="fill:rgb(253,245,222);"/>
                            </g>
                        </g>
                        <path d="M228.211,250.022L284.589,361.8L172.811,361.8L228.211,250.022Z" style="fill:none;stroke:black;stroke-width:2.5px;"/>
                    </g>
                    <g id="y3" transform="matrix(1.01186,-0.584199,0.508663,0.88103,-188.007,295.087)">
                        <path d="M228.211,250.022L284.589,361.8L172.811,361.8L228.211,250.022Z" style="fill:rgb(255,204,79);"/>
                        <clipPath id="_clip23">
                            <path d="M228.211,250.022L284.589,361.8L172.811,361.8L228.211,250.022Z"/>
                        </clipPath>
                        <g clip-path="url(#_clip23)">
                            <g transform="matrix(-0.741208,-0.491485,0.427937,-0.851276,531.131,884.137)">
                                <path d="M579.266,279.166L572.711,348.754L623.101,312.598L629.285,384.042L635.376,240.392L579.266,279.166Z" style="fill:rgb(253,245,222);"/>
                            </g>
                        </g>
                        <path d="M228.211,250.022L284.589,361.8L172.811,361.8L228.211,250.022Z" style="fill:none;stroke:black;stroke-width:2.5px;"/>
                    </g>
                    <g id="y2" transform="matrix(1.01186,-0.584199,0.508663,0.88103,41.1377,162.193)">
                        <path d="M228.211,250.022L284.589,361.8L172.811,361.8L228.211,250.022Z" style="fill:rgb(255,204,79);"/>
                        <clipPath id="_clip24">
                            <path d="M228.211,250.022L284.589,361.8L172.811,361.8L228.211,250.022Z"/>
                        </clipPath>
                        <g clip-path="url(#_clip24)">
                            <g transform="matrix(-0.741208,-0.491485,0.427937,-0.851276,304.417,884.646)">
                                <path d="M353.214,488.15L343.449,415.018L391.566,454.169L400.096,385.871L404.839,527.307L353.214,488.15Z" style="fill:rgb(253,245,222);"/>
                            </g>
                        </g>
                        <path d="M228.211,250.022L284.589,361.8L172.811,361.8L228.211,250.022Z" style="fill:none;stroke:black;stroke-width:2.5px;"/>
                    </g>
                    <g id="y1" transform="matrix(1.01186,-0.584199,0.508663,0.88103,156.218,360.886)">
                        <path d="M228.211,250.022L284.589,361.8L172.811,361.8L228.211,250.022Z" style="fill:rgb(255,204,79);"/>
                        <clipPath id="_clip25">
                            <path d="M228.211,250.022L284.589,361.8L172.811,361.8L228.211,250.022Z"/>
                        </clipPath>
                        <g clip-path="url(#_clip25)">
                            <g transform="matrix(-0.741208,-0.491485,0.427937,-0.851276,304.147,658.942)">
                                <path d="M237.065,289.562L228.623,216.651L279.758,256.918L284.805,185.054L292.021,331.639L237.065,289.562Z" style="fill:rgb(253,245,222);"/>
                            </g>
                        </g>
                        <path d="M228.211,250.022L284.589,361.8L172.811,361.8L228.211,250.022Z" style="fill:none;stroke:black;stroke-width:2.5px;"/>
                    </g>
                    <g id="b5" transform="matrix(-1.04983,0.606118,-0.519021,-0.89897,883.836,666.086)">
                        <path d="M228.211,250.022L284.589,361.8L172.811,361.8L228.211,250.022Z" style="fill:rgb(41,170,225);"/>
                        <clipPath id="_clip26">
                            <path d="M228.211,250.022L284.589,361.8L172.811,361.8L228.211,250.022Z"/>
                        </clipPath>
                        <g clip-path="url(#_clip26)">
                            <g transform="matrix(0.714404,0.481676,-0.412461,0.834288,100.781,-40.6915)">
                                <path d="M368.728,230.287L284.969,244.28L358.789,266.912L283.434,315.793L404.429,251.938L368.728,230.287Z" style="fill:rgb(163,227,254);"/>
                            </g>
                        </g>
                        <path d="M228.211,250.022L284.589,361.8L172.811,361.8L228.211,250.022Z" style="fill:none;stroke:black;stroke-width:2.5px;"/>
                    </g>
                    <g id="b4" transform="matrix(-1.01571,0.586422,-0.511683,-0.886262,874.276,534.286)">
                        <path d="M228.211,250.022L284.589,361.8L172.811,361.8L228.211,250.022Z" style="fill:rgb(41,170,225);"/>
                        <clipPath id="_clip27">
                            <path d="M228.211,250.022L284.589,361.8L172.811,361.8L228.211,250.022Z"/>
                        </clipPath>
                        <g clip-path="url(#_clip27)">
                            <g transform="matrix(0.738398,0.488583,-0.426314,0.846251,153.296,-157.482)">
                                <path d="M286.085,405.61L345.759,350.239L321.748,420.991L411.92,373.031L283.057,458.791L286.085,405.61Z" style="fill:rgb(163,227,254);"/>
                            </g>
                        </g>
                        <path d="M228.211,250.022L284.589,361.8L172.811,361.8L228.211,250.022Z" style="fill:none;stroke:black;stroke-width:2.5px;"/>
                    </g>
                    <g id="b3" transform="matrix(-1.03845,0.599547,-0.508663,-0.88103,648.204,397.15)">
                        <path d="M228.211,250.022L284.589,361.8L172.811,361.8L228.211,250.022Z" style="fill:rgb(41,170,225);"/>
                        <clipPath id="_clip28">
                            <path d="M228.211,250.022L284.589,361.8L172.811,361.8L228.211,250.022Z"/>
                        </clipPath>
                        <g clip-path="url(#_clip28)">
                            <g transform="matrix(0.722233,0.491485,-0.416982,0.851276,43.8464,-386.269)">
                                <path d="M514.308,541.094L570.39,481.24L549.38,551.67L627.408,515.982L518.03,589.036L512.813,581.851L514.308,541.094Z" style="fill:rgb(163,227,254);"/>
                            </g>
                        </g>
                        <path d="M228.211,250.022L284.589,361.8L172.811,361.8L228.211,250.022Z" style="fill:none;stroke:black;stroke-width:2.5px;"/>
                    </g>
                    <g id="b2" transform="matrix(1.01186,-0.584199,0.508663,0.88103,-73.7826,228.542)">
                        <path d="M228.211,250.022L284.589,361.8L172.811,361.8L228.211,250.022Z" style="fill:rgb(41,170,225);"/>
                        <clipPath id="_clip29">
                            <path d="M228.211,250.022L284.589,361.8L172.811,361.8L228.211,250.022Z"/>
                        </clipPath>
                        <g clip-path="url(#_clip29)">
                            <g transform="matrix(-0.741208,-0.491485,0.427937,-0.851276,417.99,884.646)">
                                <path d="M474.905,339.143L452.452,411.731L509.667,365.146L513.52,448.272L520.896,343.9L516.678,312.193L474.905,339.143Z" style="fill:rgb(163,227,254);"/>
                            </g>
                        </g>
                        <path d="M228.211,250.022L284.589,361.8L172.811,361.8L228.211,250.022Z" style="fill:none;stroke:black;stroke-width:2.5px;"/>
                    </g>
                    <g id="b1" transform="matrix(1.01186,-0.584199,0.508663,0.88103,-73.0864,360.044)">
                        <path d="M228.211,250.022L284.589,361.8L172.811,361.8L228.211,250.022Z" style="fill:rgb(41,170,225);"/>
                        <clipPath id="_clip30">
                            <path d="M228.211,250.022L284.589,361.8L172.811,361.8L228.211,250.022Z"/>
                        </clipPath>
                        <g clip-path="url(#_clip30)">
                            <g transform="matrix(-0.741208,-0.491485,0.427937,-0.851276,473.749,772.359)">
                                <path d="M481.634,200.913L457.192,282.361L508.365,234.106L512.353,319.62L519.612,175.734L481.634,200.913Z" style="fill:rgb(163,227,254);"/>
                            </g>
                        </g>
                        <path d="M228.211,250.022L284.589,361.8L172.811,361.8L228.211,250.022Z" style="fill:none;stroke:black;stroke-width:2.5px;"/>
                    </g>
                </g>
            </g>
            <path d="M400,117.517L629.266,249.774L629.266,514.685L400.192,646.941L400.192,647.052L400.096,646.997L400,647.052L400,646.941L170.925,514.685L170.925,249.774L400,117.517Z" style="fill:none;stroke:black;stroke-width:2.5px;"/>
        </g>
        <g transform="matrix(1,0,0,1,49.0114,-2.65748)">
            <path d="M170.044,53.076L170.044,15.381L177.954,15.381C181.746,15.381 184.741,15.755 186.938,16.504C189.298,17.236 191.439,18.481 193.359,20.239C197.249,23.787 199.194,28.45 199.194,34.228C199.194,40.023 197.168,44.71 193.115,48.291C191.081,50.081 188.948,51.326 186.719,52.026C184.635,52.726 181.681,53.076 177.856,53.076L170.044,53.076ZM175.732,47.729L178.296,47.729C180.851,47.729 182.975,47.461 184.668,46.924C186.36,46.354 187.89,45.451 189.258,44.214C192.057,41.658 193.457,38.33 193.457,34.228C193.457,30.094 192.073,26.741 189.306,24.17C186.816,21.875 183.146,20.727 178.296,20.727L175.732,20.727L175.732,47.729Z" style="fill:white;fill-rule:nonzero;"/>
            <path d="M225.171,20.727L212.036,20.727L212.036,29.785L224.707,29.785L224.707,35.132L212.036,35.132L212.036,53.076L206.347,53.076L206.347,15.381L225.171,15.381L225.171,20.727Z" style="fill:white;fill-rule:nonzero;"/>
            <rect x="231.762" y="15.381" width="5.688" height="37.695" style="fill:white;fill-rule:nonzero;"/>
            <path d="M246.509,53.076L246.509,12.817L273.999,41.577L273.999,15.381L279.687,15.381L279.687,55.371L252.197,26.685L252.197,53.076L246.509,53.076Z" style="fill:white;fill-rule:nonzero;"/>
            <rect x="288.72" y="15.381" width="5.688" height="37.695" style="fill:white;fill-rule:nonzero;"/>
            <path d="M313.867,20.727L313.867,53.076L308.179,53.076L308.179,20.727L299.512,20.727L299.512,15.381L322.51,15.381L322.51,20.727L313.867,20.727Z" style="fill:white;fill-rule:nonzero;"/>
            <path d="M337.646,36.792L325.342,15.381L331.885,15.381L340.503,30.444L349.145,15.381L355.688,15.381L343.335,36.792L343.335,53.076L337.646,53.076L337.646,36.792Z" style="fill:white;fill-rule:nonzero;"/>
            <path d="M396.777,20.996L392.163,23.73C391.3,22.233 390.478,21.256 389.697,20.801C388.883,20.28 387.833,20.019 386.548,20.019C384.969,20.019 383.659,20.467 382.617,21.362C381.575,22.241 381.054,23.348 381.054,24.683C381.054,26.522 382.422,28.003 385.156,29.126L388.916,30.664C391.976,31.901 394.214,33.411 395.63,35.193C397.046,36.975 397.754,39.16 397.754,41.748C397.754,45.215 396.598,48.079 394.287,50.342C391.959,52.62 389.07,53.76 385.62,53.76C382.348,53.76 379.647,52.791 377.514,50.854C375.415,48.918 374.105,46.191 373.584,42.676L379.345,41.406C379.606,43.62 380.062,45.15 380.713,45.996C381.885,47.624 383.594,48.437 385.84,48.437C387.614,48.437 389.087,47.843 390.259,46.655C391.43,45.467 392.016,43.962 392.016,42.139C392.016,41.406 391.915,40.735 391.711,40.124C391.508,39.514 391.19,38.953 390.759,38.44C390.328,37.927 389.77,37.447 389.087,36.999C388.403,36.552 387.589,36.125 386.645,35.718L383.008,34.204C377.848,32.023 375.268,28.833 375.268,24.634C375.268,21.802 376.351,19.434 378.515,17.529C380.68,15.609 383.374,14.648 386.596,14.648C390.942,14.648 394.336,16.764 396.777,20.996Z" style="fill:white;fill-rule:nonzero;"/>
            <path d="M415.722,20.727L415.722,53.076L410.034,53.076L410.034,20.727L401.367,20.727L401.367,15.381L424.365,15.381L424.365,20.727L415.722,20.727Z" style="fill:white;fill-rule:nonzero;"/>
            <path d="M426.367,34.058C426.367,28.752 428.312,24.194 432.202,20.386C436.076,16.577 440.731,14.673 446.167,14.673C451.538,14.673 456.144,16.593 459.985,20.435C463.843,24.276 465.771,28.89 465.771,34.277C465.771,39.697 463.834,44.295 459.961,48.071C456.071,51.864 451.375,53.76 445.874,53.76C441.007,53.76 436.637,52.075 432.763,48.706C428.499,44.979 426.367,40.096 426.367,34.058ZM432.104,34.131C432.104,38.297 433.504,41.724 436.304,44.409C439.087,47.095 442.301,48.437 445.947,48.437C449.902,48.437 453.239,47.07 455.957,44.336C458.675,41.569 460.034,38.2 460.034,34.228C460.034,30.208 458.691,26.839 456.006,24.121C453.336,21.387 450.032,20.019 446.094,20.019C442.171,20.019 438.859,21.387 436.157,24.121C433.455,26.823 432.104,30.159 432.104,34.131Z" style="fill:white;fill-rule:nonzero;"/>
            <path d="M472.925,53.076L472.925,12.817L500.415,41.577L500.415,15.381L506.103,15.381L506.103,55.371L478.613,26.685L478.613,53.076L472.925,53.076Z" style="fill:white;fill-rule:nonzero;"/>
            <path d="M535.937,20.727L520.825,20.727L520.825,29.785L535.498,29.785L535.498,35.132L520.825,35.132L520.825,47.729L535.937,47.729L535.937,53.076L515.137,53.076L515.137,15.381L535.937,15.381L535.937,20.727Z" style="fill:white;fill-rule:nonzero;"/>
        </g>
    </g>
    <defs>
        <linearGradient id="_Linear1" x1="0" y1="0" x2="1" y2="0" gradientUnits="userSpaceOnUse" gradientTransform="matrix(6.69055e-14,-1092.65,1092.65,6.69055e-14,400,1092.65)"><stop offset="0" style="stop-color:rgb(7,30,41);stop-opacity:1"/><stop offset="1" style="stop-color:rgb(99,40,118);stop-opacity:1"/></linearGradient>
        <linearGradient id="_Linear4" x1="0" y1="0" x2="1" y2="0" gradientUnits="userSpaceOnUse" gradientTransform="matrix(763.783,-764.481,769.584,768.882,17.1548,782.607)"><stop offset="0" style="stop-color:rgb(87,39,133);stop-opacity:1"/><stop offset="0.25" style="stop-color:rgb(237,30,121);stop-opacity:1"/><stop offset="0.51" style="stop-color:rgb(41,171,226);stop-opacity:1"/><stop offset="0.76" style="stop-color:rgb(241,90,36);stop-opacity:1"/><stop offset="1" style="stop-color:rgb(251,176,59);stop-opacity:1"/></linearGradient>
        <linearGradient id="_Linear5" x1="0" y1="0" x2="1" y2="0" gradientUnits="userSpaceOnUse" gradientTransform="matrix(3.84208e-14,-514.074,627.459,3.14779e-14,398.243,604.548)"><stop offset="0" style="stop-color:rgb(207,133,255);stop-opacity:1"/><stop offset="0.45" style="stop-color:rgb(245,229,255);stop-opacity:1"/><stop offset="1" style="stop-color:white;stop-opacity:1"/></linearGradient>
    </defs>
</svg>
