<?xml version="1.0" encoding="UTF-8" standalone="no"?>
<!DOCTYPE svg PUBLIC "-//W3C//DTD SVG 1.1//EN" "http://www.w3.org/Graphics/SVG/1.1/DTD/svg11.dtd">
<svg width="100%" height="100%" viewBox="0 0 800 800" version="1.1" xmlns="http://www.w3.org/2000/svg" xmlns:xlink="http://www.w3.org/1999/xlink" xml:space="preserve" xmlns:serif="http://www.serif.com/" style="fill-rule:evenodd;clip-rule:evenodd;stroke-linecap:round;stroke-linejoin:round;stroke-miterlimit:1.5;">
    <g id="glass-card" serif:id="glass card">
        <rect id="bg" x="-48.418" y="-9.957" width="931.967" height="871.066" style="fill:rgb(0,66,79);"/>
        <g id="rectangles" transform="matrix(1,0,0,1,20.7283,64.1339)">
            <g opacity="0.5">
                <g transform="matrix(0.660629,0,0,1.04551,351.522,-81.058)">
                    <rect x="462.47" y="633.282" width="419.335" height="322.449" style="fill:none;"/>
                    <clipPath id="_clip1">
                        <rect x="462.47" y="633.282" width="419.335" height="322.449"/>
                    </clipPath>
                    <g clip-path="url(#_clip1)">
                        <g transform="matrix(1.51371,0,0,0.956468,-452.99,37.369)">
                            <path d="M604.78,633.282L877.032,634.306" style="fill:none;stroke:rgb(166,240,98);stroke-width:4px;stroke-dasharray:4.25,7.5,0,0;"/>
                        </g>
                        <g transform="matrix(1.51371,0,0,0.956468,-452.99,58.0423)">
                            <path d="M604.78,633.282L877.032,634.306" style="fill:none;stroke:rgb(166,240,98);stroke-width:4px;stroke-dasharray:4.25,7.5,0,0;"/>
                        </g>
                        <g transform="matrix(1.51371,0,0,0.956468,-452.99,68.3789)">
                            <path d="M604.78,633.282L877.032,634.306" style="fill:none;stroke:rgb(166,240,98);stroke-width:4px;stroke-dasharray:4.25,7.5,0,0;"/>
                        </g>
                        <g transform="matrix(1.51371,0,0,0.956468,-452.99,89.0522)">
                            <path d="M604.78,633.282L877.032,634.306" style="fill:none;stroke:rgb(166,240,98);stroke-width:4px;stroke-dasharray:4.25,7.5,0,0;"/>
                        </g>
                        <g transform="matrix(1.51371,0,0,0.956468,-452.99,99.3888)">
                            <path d="M604.78,633.282L877.032,634.306" style="fill:none;stroke:rgb(166,240,98);stroke-width:4px;stroke-dasharray:4.25,7.5,0,0;"/>
                        </g>
                        <g transform="matrix(1.51371,0,0,0.956468,-452.99,130.399)">
                            <path d="M604.78,633.282L877.032,634.306" style="fill:none;stroke:rgb(166,240,98);stroke-width:4px;stroke-dasharray:4.25,7.5,0,0;"/>
                        </g>
                        <g transform="matrix(1.51371,0,0,0.956468,-452.99,151.072)">
                            <path d="M604.78,633.282L877.032,634.306" style="fill:none;stroke:rgb(166,240,98);stroke-width:4px;stroke-dasharray:4.25,7.5,0,0;"/>
                        </g>
                        <g transform="matrix(1.51371,0,0,0.956468,-452.99,171.745)">
                            <path d="M604.78,633.282L877.032,634.306" style="fill:none;stroke:rgb(166,240,98);stroke-width:4px;stroke-dasharray:4.25,7.5,0,0;"/>
                        </g>
                    </g>
                    <rect x="462.47" y="633.282" width="419.335" height="322.449" style="fill:none;stroke:rgb(166,240,98);stroke-width:4.57px;stroke-dasharray:4.86,8.58,0,0;"/>
                </g>
                <g transform="matrix(0.192707,0,0,1.04551,466.744,2.40586)">
                    <rect x="462.47" y="633.282" width="419.335" height="322.449" style="fill:none;"/>
                    <clipPath id="_clip2">
                        <rect x="462.47" y="633.282" width="419.335" height="322.449"/>
                    </clipPath>
                    <g clip-path="url(#_clip2)">
                        <g transform="matrix(1.51371,0,0,0.956468,-452.99,37.369)">
                            <path d="M604.78,633.282L877.032,634.306" style="fill:none;stroke:rgb(237,30,121);stroke-width:5.43px;stroke-dasharray:5.77,10.18,0,0;"/>
                        </g>
                        <g transform="matrix(1.51371,0,0,0.956468,-452.99,58.0423)">
                            <path d="M604.78,633.282L877.032,634.306" style="fill:none;stroke:rgb(237,30,121);stroke-width:5.43px;stroke-dasharray:5.77,10.18,0,0;"/>
                        </g>
                        <g transform="matrix(1.51371,0,0,0.956468,-452.99,68.3789)">
                            <path d="M604.78,633.282L877.032,634.306" style="fill:none;stroke:rgb(237,30,121);stroke-width:5.43px;stroke-dasharray:5.77,10.18,0,0;"/>
                        </g>
                        <g transform="matrix(1.51371,0,0,0.956468,-452.99,89.0522)">
                            <path d="M604.78,633.282L877.032,634.306" style="fill:none;stroke:rgb(237,30,121);stroke-width:5.43px;stroke-dasharray:5.77,10.18,0,0;"/>
                        </g>
                    </g>
                    <rect x="462.47" y="633.282" width="419.335" height="322.449" style="fill:none;stroke:rgb(237,30,121);stroke-width:5.32px;stroke-dasharray:5.65,9.98,0,0;"/>
                </g>
            </g>
        </g>
        <g id="circles" opacity="0.5">
            <g transform="matrix(1,0,0,1,-118.853,-94.5905)">
                <circle cx="155.124" cy="124.814" r="124.814" style="fill:none;stroke:rgb(255,207,0);stroke-width:4px;stroke-dasharray:4.25,7.5,0,0;"/>
            </g>
            <g transform="matrix(0.928318,0,0,0.928318,-107.734,-85.6437)">
                <circle cx="155.124" cy="124.814" r="124.814" style="fill:none;stroke:rgb(255,207,0);stroke-width:4.31px;stroke-dasharray:4.58,8.08,0,0;"/>
            </g>
            <g transform="matrix(0.691272,0,0,0.691272,-70.9623,-56.0571)">
                <circle cx="155.124" cy="124.814" r="124.814" style="fill:none;stroke:rgb(255,108,0);stroke-width:5.79px;stroke-dasharray:6.15,10.85,0,0;"/>
            </g>
        </g>
        <g id="rarity-bars" serif:id="rarity bars">
            <g id="rarity-bars-fill" serif:id="rarity bars fill">
                <g transform="matrix(0.114833,0,0,0.114833,59.0756,653.445)">
                    <path d="M400,117.517L629.266,249.774L629.266,514.685L400.192,646.941L400.192,647.052L400.096,646.997L400,647.052L400,646.941L170.925,514.685L170.925,249.774L400,117.517Z" style="fill:rgb(139,57,219);"/>
                </g>
                <g transform="matrix(0.114833,0,0,0.114833,126.648,653.445)">
                    <path d="M400,117.517L629.266,249.774L629.266,514.685L400.192,646.941L400.192,647.052L400.096,646.997L400,647.052L400,646.941L170.925,514.685L170.925,249.774L400,117.517Z" style="fill:rgb(237,30,121);"/>
                </g>
                <g transform="matrix(0.114833,0,0,0.114833,194.22,653.445)">
                    <path d="M400,117.517L629.266,249.774L629.266,514.685L400.192,646.941L400.192,647.052L400.096,646.997L400,647.052L400,646.941L170.925,514.685L170.925,249.774L400,117.517Z" style="fill:rgb(241,90,36);"/>
                </g>
            </g>
            <g id="rarity-bars-stroke" serif:id="rarity bars stroke">
                <g transform="matrix(0.114833,0,0,0.114833,59.0756,653.445)">
                    <path d="M400,117.517L629.266,249.774L629.266,514.685L400.192,646.941L400.192,647.052L400.096,646.997L400,647.052L400,646.941L170.925,514.685L170.925,249.774L400,117.517Z" style="fill:none;stroke:white;stroke-width:34.83px;"/>
                </g>
                <g transform="matrix(0.114833,0,0,0.114833,126.648,653.445)">
                    <path d="M400,117.517L629.266,249.774L629.266,514.685L400.192,646.941L400.192,647.052L400.096,646.997L400,647.052L400,646.941L170.925,514.685L170.925,249.774L400,117.517Z" style="fill:none;stroke:white;stroke-width:34.83px;"/>
                </g>
                <g transform="matrix(0.114833,0,0,0.114833,194.22,653.445)">
                    <path d="M400,117.517L629.266,249.774L629.266,514.685L400.192,646.941L400.192,647.052L400.096,646.997L400,647.052L400,646.941L170.925,514.685L170.925,249.774L400,117.517Z" style="fill:none;stroke:white;stroke-width:34.83px;"/>
                </g>
                <g transform="matrix(0.114833,0,0,0.114833,261.792,653.445)">
                    <path d="M400,117.517L629.266,249.774L629.266,514.685L400.192,646.941L400.192,647.052L400.096,646.997L400,647.052L400,646.941L170.925,514.685L170.925,249.774L400,117.517Z" style="fill:none;stroke:white;stroke-width:34.83px;"/>
                </g>
                <g transform="matrix(0.114833,0,0,0.114833,329.364,653.445)">
                    <path d="M400,117.517L629.266,249.774L629.266,514.685L400.192,646.941L400.192,647.052L400.096,646.997L400,647.052L400,646.941L170.925,514.685L170.925,249.774L400,117.517Z" style="fill:none;stroke:white;stroke-width:34.83px;"/>
                </g>
            </g>
        </g>
        <g transform="matrix(0.720342,0,0,0.720342,23.1337,330.63)">
            <path d="M94.756,423.775L106.426,439.84L99.468,439.84L88.702,424.41L87.676,424.41L87.676,439.84L81.988,439.84L81.988,402.144L88.653,402.144C93.633,402.144 97.23,403.08 99.444,404.952C101.885,407.035 103.106,409.786 103.106,413.204C103.106,415.873 102.341,418.168 100.811,420.089C99.281,422.009 97.263,423.238 94.756,423.775ZM87.676,419.454L89.483,419.454C94.87,419.454 97.564,417.395 97.564,413.277C97.564,409.42 94.944,407.491 89.703,407.491L87.676,407.491L87.676,419.454Z" style="fill:white;fill-rule:nonzero;"/>
            <path d="M134.234,430.684L118.096,430.684L113.897,439.84L107.769,439.84L126.421,399.776L144.415,439.84L138.189,439.84L134.234,430.684ZM131.915,425.338L126.324,412.52L120.464,425.338L131.915,425.338Z" style="fill:white;fill-rule:nonzero;"/>
            <path d="M161.895,423.775L173.565,439.84L166.607,439.84L155.84,424.41L154.815,424.41L154.815,439.84L149.127,439.84L149.127,402.144L155.792,402.144C160.772,402.144 164.369,403.08 166.583,404.952C169.024,407.035 170.245,409.786 170.245,413.204C170.245,415.873 169.48,418.168 167.95,420.089C166.42,422.009 164.402,423.238 161.895,423.775ZM154.815,419.454L156.622,419.454C162.009,419.454 164.703,417.395 164.703,413.277C164.703,409.42 162.082,407.491 156.841,407.491L154.815,407.491L154.815,419.454Z" style="fill:white;fill-rule:nonzero;"/>
            <rect x="179.229" y="402.144" width="5.688" height="37.695" style="fill:white;fill-rule:nonzero;"/>
            <path d="M204.376,407.491L204.376,439.84L198.687,439.84L198.687,407.491L190.02,407.491L190.02,402.144L213.018,402.144L213.018,407.491L204.376,407.491Z" style="fill:white;fill-rule:nonzero;"/>
            <path d="M228.155,423.555L215.85,402.144L222.393,402.144L231.011,417.208L239.654,402.144L246.197,402.144L233.843,423.555L233.843,439.84L228.155,439.84L228.155,423.555Z" style="fill:white;fill-rule:nonzero;"/>
        </g>
        <path d="M800,800L800,0L-0,0L0,800L800,800ZM769.901,30.099L769.901,769.901C643.519,769.901 156.481,769.901 30.099,769.901C30.099,769.901 30.099,30.099 30.099,30.099L769.901,30.099Z" style="fill:rgb(99,166,179);"/>
        <g transform="matrix(0.709789,0,0,0.831317,117.468,3.55271e-15)">
            <rect x="260.695" y="0" width="274.711" height="77.196" style="fill:rgb(99,166,179);"/>
        </g>
        <g id="guide" transform="matrix(1,0,0,1.22056,1.75676,-39.4524)">
            <rect x="82.193" y="95.569" width="632.101" height="428.927" style="fill:url(#_Linear3);stroke:rgb(152,212,224);stroke-width:4.8px;"/>
        </g>
        <g id="glass" transform="matrix(0.808346,0,0,0.808346,76.7833,26.8926)">
            <path d="M170.925,514.397L400.441,382.285L629.516,514.541L400.096,647.107L170.925,514.397Z" style="fill:rgb(179,203,209);fill-opacity:0.85;stroke:black;stroke-opacity:0.85;stroke-width:2.5px;"/>
            <path d="M400.192,117.628L399.875,382.213L629.266,514.796L629.266,250.172L400.192,117.628Z" style="fill:rgb(179,203,209);fill-opacity:0.85;stroke:black;stroke-opacity:0.85;stroke-width:2.5px;"/>
            <clipPath id="_clip4">
                <path d="M170.925,249.973L170.925,514.796L399.923,382.185L400,117.517L170.925,249.973Z"/>
            </clipPath>
            <g clip-path="url(#_clip4)">
                <g opacity="0.85">
                    <path d="M170.925,249.973L170.925,514.796L399.923,382.185L400,117.517L170.925,249.973Z" style="fill:rgb(179,203,209);"/>
                    <clipPath id="_clip5">
                        <path d="M170.925,249.973L170.925,514.796L399.923,382.185L400,117.517L170.925,249.973Z"/>
                    </clipPath>
                    <g clip-path="url(#_clip5)">
                        <path d="M394.926,117.184L397.067,381.132L399.981,387.931L400.266,109.274L394.926,117.184Z" style="fill:white;"/>
                    </g>
                </g>
            </g>
            <path d="M170.925,249.973L170.925,514.796L399.923,382.185L400,117.517L170.925,249.973Z" style="fill:none;stroke:black;stroke-opacity:0.85;stroke-width:2.5px;"/>
            <g>
                <clipPath id="_clip6">
                    <path d="M400,647.052L400,382.318L629.266,249.774L629.266,514.685L400,647.052Z"/>
                </clipPath>
                <g clip-path="url(#_clip6)">
                    <g opacity="0.85">
                        <path d="M400,647.052L400,382.318L629.266,249.774L629.266,514.685L400,647.052Z" style="fill:rgb(223,237,240);"/>
                        <clipPath id="_clip7">
                            <path d="M400,647.052L400,382.318L629.266,249.774L629.266,514.685L400,647.052Z"/>
                        </clipPath>
                        <g clip-path="url(#_clip7)">
                            <path d="M620.324,519.665L478.931,591.28L635.226,239.765L629.324,223.711L376.886,374.152L392.772,672.408L620.324,519.665Z" style="fill:url(#_Linear8);"/>
                        </g>
                    </g>
                </g>
                <path d="M400,647.052L400,382.318L629.266,249.774L629.266,514.685L400,647.052Z" style="fill:none;stroke:black;stroke-opacity:0.85;stroke-width:2.5px;"/>
                <path d="M400,647.052L400,382.318L629.266,249.774L629.266,514.685L400,647.052Z" style="fill:none;"/>
                <clipPath id="_clip9">
                    <path d="M400,647.052L400,382.318L629.266,249.774L629.266,514.685L400,647.052Z"/>
                </clipPath>
                <g clip-path="url(#_clip9)">
                    <path d="M620.324,519.665L478.931,591.28L635.226,239.765L629.324,223.711L376.886,374.152L392.772,672.408L620.324,519.665Z" style="fill:url(#_Linear10);"/>
                </g>
                <path d="M400,647.052L400,382.318L629.266,249.774L629.266,514.685L400,647.052Z" style="fill:none;stroke:black;stroke-width:2.5px;"/>
            </g>
            <g>
                <g transform="matrix(-1,0,0,1,800.192,0)">
                    <clipPath id="_clip11">
                        <path d="M400,647.052L400,382.318L629.266,249.774L629.266,514.685L400,647.052Z"/>
                    </clipPath>
                    <g clip-path="url(#_clip11)">
                        <g opacity="0.85">
                            <path d="M400,647.052L400,382.318L629.266,249.774L629.266,514.685L400,647.052Z" style="fill:rgb(223,237,240);"/>
                            <clipPath id="_clip12">
                                <path d="M400,647.052L400,382.318L629.266,249.774L629.266,514.685L400,647.052Z"/>
                            </clipPath>
                            <g clip-path="url(#_clip12)">
                                <g transform="matrix(-1,0,0,1,800.192,0)">
                                    <path d="M293.331,317.448L169.796,516.324L162.221,250.459L163.76,231.242L293.331,317.448Z" style="fill:url(#_Linear13);"/>
                                </g>
                                <g transform="matrix(-1,0,0,1,800.192,0)">
                                    <path d="M163.711,512.064L397.274,381.125L401.438,380.607L165.473,516.32L163.711,512.064Z" style="fill:white;"/>
                                </g>
                            </g>
                        </g>
                    </g>
                    <path d="M400,647.052L400,382.318L629.266,249.774L629.266,514.685L400,647.052Z" style="fill:none;stroke:black;stroke-opacity:0.85;stroke-width:2.5px;"/>
                </g>
                <g transform="matrix(-1,0,0,1,800.192,0)">
                    <path d="M400,647.052L400,382.318L629.266,249.774L629.266,514.685L400,647.052Z" style="fill:none;"/>
                    <clipPath id="_clip14">
                        <path d="M400,647.052L400,382.318L629.266,249.774L629.266,514.685L400,647.052Z"/>
                    </clipPath>
                    <g clip-path="url(#_clip14)">
                        <g transform="matrix(-1,0,0,1,800.192,0)">
                            <path d="M293.331,317.448L169.796,516.324L162.221,250.459L163.76,231.242L293.331,317.448Z" style="fill:url(#_Linear15);"/>
                        </g>
                    </g>
                    <path d="M400,647.052L400,382.318L629.266,249.774L629.266,514.685L400,647.052Z" style="fill:none;stroke:black;stroke-width:2.5px;"/>
                </g>
            </g>
            <g>
                <clipPath id="_clip16">
                    <path d="M170.925,249.774L400,117.517L629.266,249.774L400,382.03L170.925,249.774Z"/>
                </clipPath>
                <g clip-path="url(#_clip16)">
                    <g opacity="0.85">
                        <path d="M170.925,249.774L400,117.517L629.266,249.774L400,382.03L170.925,249.774Z" style="fill:rgb(223,237,240);"/>
                        <clipPath id="_clip17">
                            <path d="M170.925,249.774L400,117.517L629.266,249.774L400,382.03L170.925,249.774Z"/>
                        </clipPath>
                        <g clip-path="url(#_clip17)">
                            <path d="M141.367,255.064L344.405,371.683L400.731,391.853L400.014,100.221L141.367,255.064Z" style="fill:url(#_Linear18);"/>
                        </g>
                    </g>
                </g>
                <path d="M170.925,249.774L400,117.517L629.266,249.774L400,382.03L170.925,249.774Z" style="fill:none;stroke:black;stroke-opacity:0.85;stroke-width:2.5px;"/>
                <path d="M170.925,249.774L400,117.517L629.266,249.774L400,382.03L170.925,249.774Z" style="fill:none;"/>
                <clipPath id="_clip19">
                    <path d="M170.925,249.774L400,117.517L629.266,249.774L400,382.03L170.925,249.774Z"/>
                </clipPath>
                <g clip-path="url(#_clip19)">
                    <path d="M141.367,255.064L344.405,371.683L400.731,391.853L400.014,100.221L141.367,255.064Z" style="fill:url(#_Linear20);"/>
                </g>
                <path d="M170.925,249.774L400,117.517L629.266,249.774L400,382.03L170.925,249.774Z" style="fill:none;stroke:black;stroke-width:2.5px;"/>
            </g>
            <g id="Edge-highlight" serif:id="Edge highlight">
                <path d="M395.04,381.044L396.687,643.811L398.576,645.532L398.546,382.668L395.04,381.044ZM401.801,638.569L625.154,513.7L628.533,513.412L401.415,644.661L401.801,638.569ZM172.672,514.133L179.603,511.582L374.626,628.443L388.587,638.633L172.672,514.133ZM172.44,252.216L172.442,252.176L174.279,253.238L178.212,255.426L178.21,255.512L384.87,375.035L178.099,260.225L172.479,498.409L171.988,251.964L172.44,252.216ZM402.535,120.618C402.166,120.989 179.148,250.284 177.113,251.61L173.599,249.676L400.04,118.976C400.04,118.976 402.216,119.941 402.53,120.435L627.191,249.788L625.614,250.574L399.082,123.912L399.203,380.443L397.07,378.856L395.852,124.536L402.535,120.618ZM397.979,123.295L397.78,123.412L398.324,123.488L397.979,123.295Z" style="fill:white;"/>
            </g>
        </g>
        <g transform="matrix(1,0,0,1,49.0114,-2.65748)">
            <path d="M295.251,33.447L310.827,33.447L310.827,34.692C310.827,37.524 310.494,40.031 309.826,42.212C309.175,44.23 308.077,46.118 306.531,47.876C303.031,51.815 298.58,53.784 293.176,53.784C287.903,53.784 283.386,51.88 279.626,48.071C275.866,44.246 273.987,39.657 273.987,34.302C273.987,28.833 275.899,24.194 279.724,20.386C283.549,16.561 288.204,14.648 293.689,14.648C296.635,14.648 299.385,15.251 301.941,16.455C304.382,17.659 306.783,19.613 309.143,22.314L305.09,26.196C301.998,22.078 298.23,20.019 293.786,20.019C289.799,20.019 286.454,21.395 283.752,24.145C281.05,26.847 279.7,30.233 279.7,34.302C279.7,38.501 281.205,41.96 284.216,44.678C287.032,47.2 290.084,48.462 293.371,48.462C296.171,48.462 298.686,47.518 300.915,45.63C303.145,43.726 304.39,41.447 304.651,38.794L295.251,38.794L295.251,33.447Z" style="fill:white;fill-rule:nonzero;"/>
            <path d="M323.669,15.381L323.669,47.729L334.753,47.729L334.753,53.076L317.981,53.076L317.981,15.381L323.669,15.381Z" style="fill:white;fill-rule:nonzero;"/>
            <path d="M364.392,43.921L348.254,43.921L344.055,53.076L337.927,53.076L356.579,13.013L374.573,53.076L368.347,53.076L364.392,43.921ZM362.073,38.574L356.482,25.757L350.622,38.574L362.073,38.574Z" style="fill:white;fill-rule:nonzero;"/>
            <path d="M400.598,20.996L395.984,23.73C395.121,22.233 394.299,21.256 393.518,20.801C392.704,20.28 391.654,20.019 390.368,20.019C388.79,20.019 387.479,20.467 386.438,21.362C385.396,22.241 384.875,23.348 384.875,24.683C384.875,26.522 386.242,28.003 388.977,29.126L392.737,30.664C395.797,31.901 398.034,33.411 399.45,35.193C400.866,36.975 401.575,39.16 401.575,41.748C401.575,45.215 400.419,48.079 398.108,50.342C395.78,52.62 392.891,53.76 389.441,53.76C386.169,53.76 383.467,52.791 381.335,50.854C379.236,48.918 377.925,46.191 377.405,42.676L383.166,41.406C383.427,43.62 383.882,45.15 384.533,45.996C385.705,47.624 387.414,48.437 389.66,48.437C391.435,48.437 392.908,47.843 394.079,46.655C395.251,45.467 395.837,43.962 395.837,42.139C395.837,41.406 395.735,40.735 395.532,40.124C395.329,39.514 395.011,38.953 394.58,38.44C394.149,37.927 393.591,37.447 392.908,36.999C392.224,36.552 391.41,36.125 390.466,35.718L386.828,34.204C381.669,32.023 379.089,28.833 379.089,24.634C379.089,21.802 380.172,19.434 382.336,17.529C384.501,15.609 387.195,14.648 390.417,14.648C394.763,14.648 398.157,16.764 400.598,20.996Z" style="fill:white;fill-rule:nonzero;"/>
            <path d="M429.748,20.996L425.134,23.73C424.271,22.233 423.45,21.256 422.668,20.801C421.854,20.28 420.805,20.019 419.519,20.019C417.94,20.019 416.63,20.467 415.588,21.362C414.547,22.241 414.026,23.348 414.026,24.683C414.026,26.522 415.393,28.003 418.127,29.126L421.887,30.664C424.947,31.901 427.185,33.411 428.601,35.193C430.017,36.975 430.725,39.16 430.725,41.748C430.725,45.215 429.569,48.079 427.258,50.342C424.931,52.62 422.042,53.76 418.591,53.76C415.32,53.76 412.618,52.791 410.486,50.854C408.386,48.918 407.076,46.191 406.555,42.676L412.317,41.406C412.577,43.62 413.033,45.15 413.684,45.996C414.856,47.624 416.565,48.437 418.811,48.437C420.585,48.437 422.058,47.843 423.23,46.655C424.402,45.467 424.988,43.962 424.988,42.139C424.988,41.406 424.886,40.735 424.682,40.124C424.479,39.514 424.162,38.953 423.73,38.44C423.299,37.927 422.741,37.447 422.058,36.999C421.374,36.552 420.561,36.125 419.616,35.718L415.979,34.204C410.819,32.023 408.24,28.833 408.24,24.634C408.24,21.802 409.322,19.434 411.487,17.529C413.651,15.609 416.345,14.648 419.568,14.648C423.913,14.648 427.307,16.764 429.748,20.996Z" style="fill:white;fill-rule:nonzero;"/>
        </g>
    </g>
    <defs>
        <linearGradient id="_Linear3" x1="0" y1="0" x2="1" y2="0" gradientUnits="userSpaceOnUse" gradientTransform="matrix(3.89688e-14,-610.267,636.408,3.73681e-14,398.243,614.74)"><stop offset="0" style="stop-color:rgb(138,234,254);stop-opacity:1"/><stop offset="0.44" style="stop-color:rgb(231,251,255);stop-opacity:1"/><stop offset="1" style="stop-color:white;stop-opacity:1"/></linearGradient>
        <linearGradient id="_Linear8" x1="0" y1="0" x2="1" y2="0" gradientUnits="userSpaceOnUse" gradientTransform="matrix(85.421,73.9736,-73.9736,85.421,452.995,507.419)"><stop offset="0" style="stop-color:white;stop-opacity:1"/><stop offset="1" style="stop-color:white;stop-opacity:0"/></linearGradient>
        <linearGradient id="_Linear10" x1="0" y1="0" x2="1" y2="0" gradientUnits="userSpaceOnUse" gradientTransform="matrix(51.2766,39.7287,-39.7287,51.2766,409.198,390.023)"><stop offset="0" style="stop-color:white;stop-opacity:1"/><stop offset="1" style="stop-color:white;stop-opacity:0"/></linearGradient>
        <linearGradient id="_Linear13" x1="0" y1="0" x2="1" y2="0" gradientUnits="userSpaceOnUse" gradientTransform="matrix(85.1421,-85.8718,85.8718,85.1421,201.463,376.566)"><stop offset="0" style="stop-color:white;stop-opacity:1"/><stop offset="1" style="stop-color:white;stop-opacity:0"/></linearGradient>
        <linearGradient id="_Linear15" x1="0" y1="0" x2="1" y2="0" gradientUnits="userSpaceOnUse" gradientTransform="matrix(106.967,-122.152,122.152,106.967,166.619,436.49)"><stop offset="0" style="stop-color:white;stop-opacity:1"/><stop offset="1" style="stop-color:white;stop-opacity:0"/></linearGradient>
        <linearGradient id="_Linear18" x1="0" y1="0" x2="1" y2="0" gradientUnits="userSpaceOnUse" gradientTransform="matrix(147.683,107.437,-107.437,147.683,276.091,221.131)"><stop offset="0" style="stop-color:white;stop-opacity:1"/><stop offset="1" style="stop-color:white;stop-opacity:0"/></linearGradient>
        <linearGradient id="_Linear20" x1="0" y1="0" x2="1" y2="0" gradientUnits="userSpaceOnUse" gradientTransform="matrix(63.1633,54.5592,-54.5592,63.1633,270.894,198.114)"><stop offset="0" style="stop-color:white;stop-opacity:1"/><stop offset="1" style="stop-color:white;stop-opacity:0"/></linearGradient>
    </defs>
</svg>
