<?xml version="1.0" encoding="UTF-8" standalone="no"?>
<!DOCTYPE svg PUBLIC "-//W3C//DTD SVG 1.1//EN" "http://www.w3.org/Graphics/SVG/1.1/DTD/svg11.dtd">
<svg width="100%" height="100%" viewBox="0 0 800 800" version="1.1" xmlns="http://www.w3.org/2000/svg" xmlns:xlink="http://www.w3.org/1999/xlink" xml:space="preserve" xmlns:serif="http://www.serif.com/" style="fill-rule:evenodd;clip-rule:evenodd;stroke-linecap:round;stroke-linejoin:round;stroke-miterlimit:1.5;">
    <g id="metal-card" serif:id="metal card">
        <rect id="bg" x="-48.418" y="-9.957" width="931.967" height="871.066" style="fill:rgb(51,51,51);"/>
        <g id="rectangles" transform="matrix(1,0,0,1,20.7283,64.1339)">
            <g opacity="0.5">
                <g transform="matrix(0.660629,0,0,1.04551,351.522,-81.058)">
                    <rect x="462.47" y="633.282" width="419.335" height="322.449" style="fill:none;"/>
                    <clipPath id="_clip1">
                        <rect x="462.47" y="633.282" width="419.335" height="322.449"/>
                    </clipPath>
                    <g clip-path="url(#_clip1)">
                        <g transform="matrix(1.51371,0,0,0.956468,-452.99,37.369)">
                            <path d="M604.78,633.282L877.032,634.306" style="fill:none;stroke:rgb(166,240,98);stroke-width:4px;stroke-dasharray:4.25,7.5,0,0;"/>
                        </g>
                        <g transform="matrix(1.51371,0,0,0.956468,-452.99,58.0423)">
                            <path d="M604.78,633.282L877.032,634.306" style="fill:none;stroke:rgb(166,240,98);stroke-width:4px;stroke-dasharray:4.25,7.5,0,0;"/>
                        </g>
                        <g transform="matrix(1.51371,0,0,0.956468,-452.99,68.3789)">
                            <path d="M604.78,633.282L877.032,634.306" style="fill:none;stroke:rgb(166,240,98);stroke-width:4px;stroke-dasharray:4.25,7.5,0,0;"/>
                        </g>
                        <g transform="matrix(1.51371,0,0,0.956468,-452.99,89.0522)">
                            <path d="M604.78,633.282L877.032,634.306" style="fill:none;stroke:rgb(166,240,98);stroke-width:4px;stroke-dasharray:4.25,7.5,0,0;"/>
                        </g>
                        <g transform="matrix(1.51371,0,0,0.956468,-452.99,99.3888)">
                            <path d="M604.78,633.282L877.032,634.306" style="fill:none;stroke:rgb(166,240,98);stroke-width:4px;stroke-dasharray:4.25,7.5,0,0;"/>
                        </g>
                        <g transform="matrix(1.51371,0,0,0.956468,-452.99,130.399)">
                            <path d="M604.78,633.282L877.032,634.306" style="fill:none;stroke:rgb(166,240,98);stroke-width:4px;stroke-dasharray:4.25,7.5,0,0;"/>
                        </g>
                        <g transform="matrix(1.51371,0,0,0.956468,-452.99,151.072)">
                            <path d="M604.78,633.282L877.032,634.306" style="fill:none;stroke:rgb(166,240,98);stroke-width:4px;stroke-dasharray:4.25,7.5,0,0;"/>
                        </g>
                        <g transform="matrix(1.51371,0,0,0.956468,-452.99,171.745)">
                            <path d="M604.78,633.282L877.032,634.306" style="fill:none;stroke:rgb(166,240,98);stroke-width:4px;stroke-dasharray:4.25,7.5,0,0;"/>
                        </g>
                    </g>
                    <rect x="462.47" y="633.282" width="419.335" height="322.449" style="fill:none;stroke:rgb(166,240,98);stroke-width:4.57px;stroke-dasharray:4.86,8.58,0,0;"/>
                </g>
                <g transform="matrix(0.192707,0,0,1.04551,466.744,2.40586)">
                    <rect x="462.47" y="633.282" width="419.335" height="322.449" style="fill:none;"/>
                    <clipPath id="_clip2">
                        <rect x="462.47" y="633.282" width="419.335" height="322.449"/>
                    </clipPath>
                    <g clip-path="url(#_clip2)">
                        <g transform="matrix(1.51371,0,0,0.956468,-452.99,37.369)">
                            <path d="M604.78,633.282L877.032,634.306" style="fill:none;stroke:rgb(237,30,121);stroke-width:5.43px;stroke-dasharray:5.77,10.18,0,0;"/>
                        </g>
                        <g transform="matrix(1.51371,0,0,0.956468,-452.99,58.0423)">
                            <path d="M604.78,633.282L877.032,634.306" style="fill:none;stroke:rgb(237,30,121);stroke-width:5.43px;stroke-dasharray:5.77,10.18,0,0;"/>
                        </g>
                        <g transform="matrix(1.51371,0,0,0.956468,-452.99,68.3789)">
                            <path d="M604.78,633.282L877.032,634.306" style="fill:none;stroke:rgb(237,30,121);stroke-width:5.43px;stroke-dasharray:5.77,10.18,0,0;"/>
                        </g>
                        <g transform="matrix(1.51371,0,0,0.956468,-452.99,89.0522)">
                            <path d="M604.78,633.282L877.032,634.306" style="fill:none;stroke:rgb(237,30,121);stroke-width:5.43px;stroke-dasharray:5.77,10.18,0,0;"/>
                        </g>
                    </g>
                    <rect x="462.47" y="633.282" width="419.335" height="322.449" style="fill:none;stroke:rgb(237,30,121);stroke-width:5.32px;stroke-dasharray:5.65,9.98,0,0;"/>
                </g>
            </g>
        </g>
        <g id="circles" opacity="0.5">
            <g transform="matrix(1,0,0,1,-118.853,-94.5905)">
                <circle cx="155.124" cy="124.814" r="124.814" style="fill:none;stroke:rgb(255,207,0);stroke-width:4px;stroke-dasharray:4.25,7.5,0,0;"/>
            </g>
            <g transform="matrix(0.928318,0,0,0.928318,-107.734,-85.6437)">
                <circle cx="155.124" cy="124.814" r="124.814" style="fill:none;stroke:rgb(255,207,0);stroke-width:4.31px;stroke-dasharray:4.58,8.08,0,0;"/>
            </g>
            <g transform="matrix(0.691272,0,0,0.691272,-70.9623,-56.0571)">
                <circle cx="155.124" cy="124.814" r="124.814" style="fill:none;stroke:rgb(255,108,0);stroke-width:5.79px;stroke-dasharray:6.15,10.85,0,0;"/>
            </g>
        </g>
        <g id="rarity-bars" serif:id="rarity bars">
            <g id="rarity-bars-fill" serif:id="rarity bars fill">
                <g transform="matrix(0.114833,0,0,0.114833,59.0756,653.445)">
                    <path d="M400,117.517L629.266,249.774L629.266,514.685L400.192,646.941L400.192,647.052L400.096,646.997L400,647.052L400,646.941L170.925,514.685L170.925,249.774L400,117.517Z" style="fill:rgb(139,57,219);"/>
                </g>
                <g transform="matrix(0.114833,0,0,0.114833,126.648,653.445)">
                    <path d="M400,117.517L629.266,249.774L629.266,514.685L400.192,646.941L400.192,647.052L400.096,646.997L400,647.052L400,646.941L170.925,514.685L170.925,249.774L400,117.517Z" style="fill:rgb(237,30,121);"/>
                </g>
                <g transform="matrix(0.114833,0,0,0.114833,194.22,653.445)">
                    <path d="M400,117.517L629.266,249.774L629.266,514.685L400.192,646.941L400.192,647.052L400.096,646.997L400,647.052L400,646.941L170.925,514.685L170.925,249.774L400,117.517Z" style="fill:rgb(241,90,36);"/>
                </g>
            </g>
            <g id="rarity-bars-stroke" serif:id="rarity bars stroke">
                <g transform="matrix(0.114833,0,0,0.114833,59.0756,653.445)">
                    <path d="M400,117.517L629.266,249.774L629.266,514.685L400.192,646.941L400.192,647.052L400.096,646.997L400,647.052L400,646.941L170.925,514.685L170.925,249.774L400,117.517Z" style="fill:none;stroke:white;stroke-width:34.83px;"/>
                </g>
                <g transform="matrix(0.114833,0,0,0.114833,126.648,653.445)">
                    <path d="M400,117.517L629.266,249.774L629.266,514.685L400.192,646.941L400.192,647.052L400.096,646.997L400,647.052L400,646.941L170.925,514.685L170.925,249.774L400,117.517Z" style="fill:none;stroke:white;stroke-width:34.83px;"/>
                </g>
                <g transform="matrix(0.114833,0,0,0.114833,194.22,653.445)">
                    <path d="M400,117.517L629.266,249.774L629.266,514.685L400.192,646.941L400.192,647.052L400.096,646.997L400,647.052L400,646.941L170.925,514.685L170.925,249.774L400,117.517Z" style="fill:none;stroke:white;stroke-width:34.83px;"/>
                </g>
                <g transform="matrix(0.114833,0,0,0.114833,261.792,653.445)">
                    <path d="M400,117.517L629.266,249.774L629.266,514.685L400.192,646.941L400.192,647.052L400.096,646.997L400,647.052L400,646.941L170.925,514.685L170.925,249.774L400,117.517Z" style="fill:none;stroke:white;stroke-width:34.83px;"/>
                </g>
                <g transform="matrix(0.114833,0,0,0.114833,329.364,653.445)">
                    <path d="M400,117.517L629.266,249.774L629.266,514.685L400.192,646.941L400.192,647.052L400.096,646.997L400,647.052L400,646.941L170.925,514.685L170.925,249.774L400,117.517Z" style="fill:none;stroke:white;stroke-width:34.83px;"/>
                </g>
            </g>
        </g>
        <g transform="matrix(0.720342,0,0,0.720342,23.1337,330.63)">
            <path d="M94.756,423.775L106.426,439.84L99.468,439.84L88.702,424.41L87.676,424.41L87.676,439.84L81.988,439.84L81.988,402.144L88.653,402.144C93.633,402.144 97.23,403.08 99.444,404.952C101.885,407.035 103.106,409.786 103.106,413.204C103.106,415.873 102.341,418.168 100.811,420.089C99.281,422.009 97.263,423.238 94.756,423.775ZM87.676,419.454L89.483,419.454C94.87,419.454 97.564,417.395 97.564,413.277C97.564,409.42 94.944,407.491 89.703,407.491L87.676,407.491L87.676,419.454Z" style="fill:white;fill-rule:nonzero;"/>
            <path d="M134.234,430.684L118.096,430.684L113.897,439.84L107.769,439.84L126.421,399.776L144.415,439.84L138.189,439.84L134.234,430.684ZM131.915,425.338L126.324,412.52L120.464,425.338L131.915,425.338Z" style="fill:white;fill-rule:nonzero;"/>
            <path d="M161.895,423.775L173.565,439.84L166.607,439.84L155.84,424.41L154.815,424.41L154.815,439.84L149.127,439.84L149.127,402.144L155.792,402.144C160.772,402.144 164.369,403.08 166.583,404.952C169.024,407.035 170.245,409.786 170.245,413.204C170.245,415.873 169.48,418.168 167.95,420.089C166.42,422.009 164.402,423.238 161.895,423.775ZM154.815,419.454L156.622,419.454C162.009,419.454 164.703,417.395 164.703,413.277C164.703,409.42 162.082,407.491 156.841,407.491L154.815,407.491L154.815,419.454Z" style="fill:white;fill-rule:nonzero;"/>
            <rect x="179.229" y="402.144" width="5.688" height="37.695" style="fill:white;fill-rule:nonzero;"/>
            <path d="M204.376,407.491L204.376,439.84L198.687,439.84L198.687,407.491L190.02,407.491L190.02,402.144L213.018,402.144L213.018,407.491L204.376,407.491Z" style="fill:white;fill-rule:nonzero;"/>
            <path d="M228.155,423.555L215.85,402.144L222.393,402.144L231.011,417.208L239.654,402.144L246.197,402.144L233.843,423.555L233.843,439.84L228.155,439.84L228.155,423.555Z" style="fill:white;fill-rule:nonzero;"/>
        </g>
        <path d="M800,800L800,0L-0,0L0,800L800,800ZM769.901,30.099L769.901,769.901C643.519,769.901 156.481,769.901 30.099,769.901C30.099,769.901 30.099,30.099 30.099,30.099L769.901,30.099Z" style="fill:rgb(139,139,139);"/>
        <g transform="matrix(0.689796,0,0,0.831317,125.426,3.55271e-15)">
            <rect x="260.695" y="0" width="274.711" height="77.196" style="fill:rgb(139,139,139);"/>
        </g>
        <g id="guide" transform="matrix(1,0,0,1.22056,1.75676,-39.4524)">
            <rect x="82.193" y="95.569" width="632.101" height="428.927" style="fill:url(#_Linear3);stroke:rgb(225,225,225);stroke-width:4.8px;"/>
        </g>
        <g id="metal" transform="matrix(0.808786,0,0,0.808786,76.7081,26.7135)">
            <path id="right" d="M400,647.052L400,382.318L629.266,249.774L629.266,514.685L400,647.052Z" style="fill:url(#_Linear4);"/>
            <clipPath id="_clip5">
                <path id="right1" serif:id="right" d="M400,647.052L400,382.318L629.266,249.774L629.266,514.685L400,647.052Z"/>
            </clipPath>
            <g clip-path="url(#_clip5)">
                <g>
                    <g style="filter:url(#_Effect6);">
                        <path d="M400.329,446.06C400.329,446.06 487.675,460.378 625.723,536.1C763.772,611.821 659.142,517.979 659.142,517.979C659.142,517.979 408.936,407.03 376.508,381.318C344.081,355.607 400.329,446.06 400.329,446.06Z" style="fill:url(#_Linear7);"/>
                    </g>
                </g>
                <path d="M422.323,368.553L625.073,256.184L628.819,450.403L639.991,236.294L422.323,368.553Z" style="fill:rgb(254,254,255);"/>
            </g>
            <path id="right2" serif:id="right" d="M400,647.052L400,382.318L629.266,249.774L629.266,514.685L400,647.052Z" style="fill:none;stroke:black;stroke-width:2.5px;"/>
            <g id="left" transform="matrix(-1,0,0,1,800.192,0)">
                <path d="M400,647.052L400,382.318L629.266,249.774L629.266,514.685L400,647.052Z" style="fill:url(#_Linear8);"/>
                <clipPath id="_clip9">
                    <path d="M400,647.052L400,382.318L629.266,249.774L629.266,514.685L400,647.052Z"/>
                </clipPath>
                <g clip-path="url(#_clip9)">
                    <g>
                        <g transform="matrix(-1,0,0,1,800.192,0)">
                            <g style="filter:url(#_Effect10);">
                                <path d="M396.86,422.076C397.096,396.455 397.269,376.522 397.269,376.522L409.551,376.563L409.183,413.957C449.281,391.397 423.123,455.705 423.123,455.705L408.68,465.008L407.288,606.377C407.288,606.377 400.86,661.585 398.84,654.535C396.821,647.486 395.326,535.622 395.633,532.591C395.761,531.321 396.069,503.703 396.384,472.04C373.191,483.342 283.611,527.808 250.451,556.244C307.963,590.18 377.274,631.641 385.879,639.355C395.769,648.221 303.603,600.228 239.696,566.519C223.765,580.112 215.77,565.166 211.996,551.871C193.482,542.057 181.228,535.514 181.228,535.514L161.723,514.693L171.507,509.97C171.507,509.97 188.414,519.802 212.759,534.076C234.821,521.475 347.103,457.016 396.86,422.076Z" style="fill:rgb(250,250,251);"/>
                            </g>
                        </g>
                    </g>
                </g>
                <path d="M400,647.052L400,382.318L629.266,249.774L629.266,514.685L400,647.052Z" style="fill:none;stroke:black;stroke-width:2.5px;"/>
            </g>
            <path id="top" d="M170.925,249.774L400,117.517L629.266,249.774L400,382.03L170.925,249.774Z" style="fill:url(#_Linear11);"/>
            <clipPath id="_clip12">
                <path id="top1" serif:id="top" d="M170.925,249.774L400,117.517L629.266,249.774L400,382.03L170.925,249.774Z"/>
            </clipPath>
            <g clip-path="url(#_clip12)">
                <g>
                    <g style="filter:url(#_Effect13);">
                        <path d="M301.969,170.953C301.969,170.953 297.208,292.135 306.318,333.908C315.428,375.682 329.574,348.983 329.574,348.983C329.574,348.983 313.533,335.616 307.718,159.049C301.903,-17.518 301.969,170.953 301.969,170.953Z" style="fill:url(#_Linear14);"/>
                    </g>
                </g>
                <path d="M305.325,323.474C305.325,323.474 389.059,371.173 400.088,380.715C411.117,390.257 340.279,355.608 340.279,355.608L305.325,323.474ZM173.467,252.987L400.069,122.472L614.572,241.076L392.018,100.97L237.392,196.936L162.502,244.714L173.467,252.987Z" style="fill:rgb(254,254,255);"/>
            </g>
            <path id="top2" serif:id="top" d="M170.925,249.774L400,117.517L629.266,249.774L400,382.03L170.925,249.774Z" style="fill:none;stroke:black;stroke-width:2.5px;"/>
        </g>
        <g transform="matrix(1,0,0,1,49.0114,-2.65748)">
            <path d="M276.599,53.076L284.533,12.549L297.473,41.846L310.876,12.549L318.005,53.076L312.17,53.076L308.533,30.322L297.375,54.81L286.535,30.298L282.483,53.076L276.599,53.076Z" style="fill:white;fill-rule:nonzero;"/>
            <path d="M346.789,20.727L331.677,20.727L331.677,29.785L346.35,29.785L346.35,35.132L331.677,35.132L331.677,47.729L346.789,47.729L346.789,53.076L325.989,53.076L325.989,15.381L346.789,15.381L346.789,20.727Z" style="fill:white;fill-rule:nonzero;"/>
            <path d="M364.66,20.727L364.66,53.076L358.972,53.076L358.972,20.727L350.305,20.727L350.305,15.381L373.303,15.381L373.303,20.727L364.66,20.727Z" style="fill:white;fill-rule:nonzero;"/>
            <path d="M398.474,43.921L382.336,43.921L378.137,53.076L372.009,53.076L390.661,13.013L408.655,53.076L402.429,53.076L398.474,43.921ZM396.155,38.574L390.564,25.757L384.704,38.574L396.155,38.574Z" style="fill:white;fill-rule:nonzero;"/>
            <path d="M419.055,15.381L419.055,47.729L430.139,47.729L430.139,53.076L413.366,53.076L413.366,15.381L419.055,15.381Z" style="fill:white;fill-rule:nonzero;"/>
        </g>
    </g>
    <defs>
        <linearGradient id="_Linear3" x1="0" y1="0" x2="1" y2="0" gradientUnits="userSpaceOnUse" gradientTransform="matrix(3.89688e-14,-610.267,636.408,3.73681e-14,398.243,614.74)"><stop offset="0" style="stop-color:rgb(106,104,105);stop-opacity:1"/><stop offset="0.44" style="stop-color:rgb(224,224,224);stop-opacity:1"/><stop offset="1" style="stop-color:white;stop-opacity:1"/></linearGradient>
        <linearGradient id="_Linear4" x1="0" y1="0" x2="1" y2="0" gradientUnits="userSpaceOnUse" gradientTransform="matrix(239.169,-409.542,409.542,239.169,390.881,661.255)"><stop offset="0" style="stop-color:rgb(110,108,109);stop-opacity:1"/><stop offset="0.25" style="stop-color:rgb(188,189,189);stop-opacity:1"/><stop offset="0.41" style="stop-color:rgb(209,210,210);stop-opacity:1"/><stop offset="0.58" style="stop-color:rgb(209,210,210);stop-opacity:1"/><stop offset="0.75" style="stop-color:rgb(154,156,156);stop-opacity:1"/><stop offset="1" style="stop-color:rgb(110,108,109);stop-opacity:1"/></linearGradient>
        <filter id="_Effect6" filterUnits="userSpaceOnUse" x="362.727" y="373.009" width="338.108" height="196.323">
            <feGaussianBlur in="SourceGraphic" stdDeviation="0.61821"/>
        </filter>
        <linearGradient id="_Linear7" x1="0" y1="0" x2="1" y2="0" gradientUnits="userSpaceOnUse" gradientTransform="matrix(-199.262,-87.0558,87.0558,-199.262,592.695,503.478)"><stop offset="0" style="stop-color:rgb(254,254,255);stop-opacity:1"/><stop offset="0.72" style="stop-color:rgb(254,254,255);stop-opacity:0.615686"/><stop offset="1" style="stop-color:rgb(254,254,255);stop-opacity:0"/></linearGradient>
        <linearGradient id="_Linear8" x1="0" y1="0" x2="1" y2="0" gradientUnits="userSpaceOnUse" gradientTransform="matrix(222.558,-389.857,-389.857,-222.558,401.569,648.777)"><stop offset="0" style="stop-color:rgb(104,102,103);stop-opacity:1"/><stop offset="0.21" style="stop-color:rgb(190,190,190);stop-opacity:1"/><stop offset="0.32" style="stop-color:rgb(219,219,220);stop-opacity:1"/><stop offset="0.46" style="stop-color:rgb(219,219,220);stop-opacity:1"/><stop offset="0.84" style="stop-color:rgb(104,102,103);stop-opacity:1"/><stop offset="0.86" style="stop-color:rgb(225,225,226);stop-opacity:1"/><stop offset="1" style="stop-color:rgb(137,140,140);stop-opacity:1"/></linearGradient>
        <filter id="_Effect10" filterUnits="userSpaceOnUse" x="160.24" y="375.038" width="272.75" height="281.603">
            <feGaussianBlur in="SourceGraphic" stdDeviation="0.247284"/>
        </filter>
        <linearGradient id="_Linear11" x1="0" y1="0" x2="1" y2="0" gradientUnits="userSpaceOnUse" gradientTransform="matrix(458.341,0,0,458.341,170.925,249.774)"><stop offset="0" style="stop-color:rgb(248,248,249);stop-opacity:1"/><stop offset="0.13" style="stop-color:rgb(179,178,179);stop-opacity:1"/><stop offset="0.15" style="stop-color:rgb(164,163,164);stop-opacity:1"/><stop offset="0.16" style="stop-color:rgb(117,117,117);stop-opacity:1"/><stop offset="0.19" style="stop-color:rgb(117,117,117);stop-opacity:1"/><stop offset="0.23" style="stop-color:rgb(162,161,162);stop-opacity:1"/><stop offset="0.27" style="stop-color:rgb(179,178,179);stop-opacity:1"/><stop offset="0.38" style="stop-color:rgb(181,181,182);stop-opacity:1"/><stop offset="0.56" style="stop-color:rgb(222,222,223);stop-opacity:1"/><stop offset="0.81" style="stop-color:rgb(235,235,236);stop-opacity:1"/><stop offset="1" style="stop-color:rgb(235,235,236);stop-opacity:1"/></linearGradient>
        <filter id="_Effect13" filterUnits="userSpaceOnUse" x="285.888" y="68.7094" width="58.5224" height="303.516">
            <feGaussianBlur in="SourceGraphic" stdDeviation="2.47284"/>
        </filter>
        <linearGradient id="_Linear14" x1="0" y1="0" x2="1" y2="0" gradientUnits="userSpaceOnUse" gradientTransform="matrix(-15.427,-175.03,175.03,-15.427,318.34,342.105)"><stop offset="0" style="stop-color:rgb(254,254,255);stop-opacity:1"/><stop offset="1" style="stop-color:rgb(254,254,255);stop-opacity:0.27451"/></linearGradient>
    </defs>
</svg>
