<svg viewBox="0 0 800 800" xmlns="http://www.w3.org/2000/svg">
  <g id="Punk-emotions" transform="matrix(0.388951,0,0,0.388951,2.34032,2.21244)">
    <g id="Crying">
      <g id="Tears">
        <g>
          <path d="M1185.71,927.011C1185.72,926.736 1184.52,927.825 1184.49,927.863C1183.45,929.339 1182.89,931.109 1182.35,932.812C1180.85,937.515 1180.6,942.123 1181.54,946.942C1184.32,961.103 1189.32,975.216 1194.78,988.549C1199.39,999.832 1207.53,1014.92 1204.56,1027.53C1198.64,1052.7 1175.81,1070.3 1181.98,1098.08C1185.05,1111.9 1195.59,1126.58 1193.3,1141.02C1189.95,1162.17 1172.08,1181.13 1173.13,1202.74C1173.8,1216.71 1184.25,1229.64 1189.63,1242.46C1191.36,1246.6 1195.2,1252.46 1194.52,1257.16C1192.73,1269.49 1191.35,1282.67 1188.77,1294.85C1186.61,1305.08 1182.9,1314.76 1181.55,1325.18C1178.32,1350.3 1180.69,1527.78 1184.95,1552.49C1186.43,1561.11 1185.24,1572.21 1188.11,1580.44C1188.38,1581.22 1297.3,1579.78 1299.87,1570.4C1300.26,1568.95 1298.24,1410.55 1300.96,1387.89C1302.64,1373.9 1296.58,1363.24 1296.69,1349C1296.86,1327.36 1302.77,1309.56 1302.64,1308.13C1301.85,1299.42 1301.4,1289.45 1301.04,1280.79C1300.75,1273.99 1298.69,1267.26 1299.66,1260.44C1301.74,1245.76 1307.52,1232.3 1306.51,1216.98C1305.46,1200.99 1294.15,1187.22 1294.68,1170.96C1295.26,1153.09 1304.51,1136.22 1304.44,1117.9C1304.36,1098.34 1291.07,1080.3 1294.22,1060.74C1296.72,1045.25 1309,1032.39 1313.54,1017.26C1317.11,1005.4 1311.5,993.209 1311.17,981.287C1310.8,967.56 1315.54,955.312 1318.31,942.075C1319.08,938.412 1323.59,922.435 1319.64,918.971C1318.33,917.822 1294.82,921.124 1290.77,920.754C1278.85,919.666 1267.54,918.159 1255.58,920.126C1243.35,922.137 1231.93,927.353 1219.63,929.087C1208.58,930.646 1197.48,928.385 1186.51,929.673" style="fill: rgb(182, 211, 219)" />
          <path d="M1187.61,1585.14C1187.06,1580.65 1185.67,1567.36 1185.24,1562.86C1183.98,1549.66 1178.04,1358.23 1178.6,1330.69C1179.09,1307.07 1193.7,1285.6 1192.3,1261.34C1191.66,1250.45 1187.79,1239.87 1183.11,1230.03C1178.14,1219.58 1171.41,1210.11 1171.76,1198.08C1172.05,1187.92 1177.55,1176.74 1182.52,1167.9C1189.18,1156.07 1192.54,1145.44 1191.76,1132.93C1190.62,1114.84 1175.33,1099.59 1177.3,1081.24C1180.05,1055.62 1205.88,1042.18 1203.33,1016.74C1201.47,998.262 1188.67,987.967 1182.65,958.089C1180.31,946.484 1181.57,933.04 1181.42,927.728" style="fill: none; stroke: rgb(1, 0, 0); stroke-width: 5.18px" />
          <path d="M1300.97,1578.8C1300.97,1569.86 1299.16,1560.94 1299.66,1551.94C1300.19,1542.44 1301.38,1390.13 1300.97,1380.53C1300.56,1371 1297.54,1362.08 1296.93,1352.68C1296.35,1343.83 1297.39,1334.84 1299.8,1326.31C1300.59,1323.52 1301.17,1320.58 1301.44,1317.69C1301.54,1316.68 1301.69,1315.68 1301.75,1314.67C1301.77,1314.18 1302.05,1312.83 1301.73,1313.2C1303.63,1294.37 1301.29,1285.11 1299.89,1276.48C1296.06,1252.76 1308.74,1234.45 1306.04,1210.57C1305.31,1204.13 1300.11,1196.54 1297.58,1190.68C1287.28,1166.77 1303.38,1148.46 1304.33,1121.09C1305.03,1100.73 1287.79,1082.94 1290.38,1064.38C1291.71,1054.82 1295.17,1049 1299.79,1040.53C1304.18,1032.48 1310.68,1024.65 1312.54,1015.49C1313.97,1008.44 1310.59,998.71 1309.19,991.828C1307.73,984.629 1307,976.657 1308.59,969.503C1312.41,952.253 1322.27,934.631 1318.2,916.557" style="fill: none; stroke: rgb(1, 0, 0); stroke-width: 5.18px" />
          <path d="M1200.92,982.918C1201.09,983.323 1200.55,982.122 1200.42,981.703C1200.18,980.884 1199.95,980.063 1199.67,979.257C1198.83,976.889 1197.86,974.604 1197.2,972.169C1195.24,964.891 1192.48,957.079 1192.47,949.447" style="fill: none; stroke: white; stroke-width: 3.85px" />
          <path d="M1198.02,1107.31C1198.2,1106.97 1197.2,1104.62 1197.1,1104.25C1196.25,1100.97 1195.37,1097.68 1194.73,1094.36C1193.65,1088.73 1193.53,1082.99 1195.04,1077.42C1195.76,1074.76 1198.29,1071.64 1198.38,1068.92" style="fill: none; stroke: white; stroke-width: 3.85px" />
          <path d="M1191.57,1219.9C1192.06,1220.25 1191.39,1218.69 1191.32,1218.08C1191.2,1217.02 1191.14,1215.95 1191.03,1214.89C1190.68,1211.54 1190.41,1208.18 1190.04,1204.84C1188.93,1194.95 1191.39,1186.44 1193.47,1176.98" style="fill: none; stroke: white; stroke-width: 3.85px" />
          <path d="M1192.13,1365.13C1193.69,1360.62 1191.46,1349.31 1191.48,1343.87C1191.52,1332.87 1194.26,1323.49 1196.26,1312.87" style="fill: none; stroke: white; stroke-width: 3.85px" />
          <g transform="matrix(1,0,0,1,-0.479255,162.174)">
            <path d="M1192.13,1365.13C1193.69,1360.62 1191.46,1349.31 1191.48,1343.87C1191.52,1332.87 1194.26,1323.49 1196.26,1312.87" style="fill: none; stroke: white; stroke-width: 3.85px" />
          </g>
          <path d="M1296.92,943.37C1297.68,943.024 1297.62,949.967 1297.57,950.328C1296.66,957.51 1293.51,963.91 1291.74,970.849C1287.7,986.69 1291.07,1004.2 1289.32,1020.39" style="fill: none; stroke: white; stroke-width: 3.85px" />
          <path d="M1279.66,1053.12C1280.41,1053.8 1278.38,1058.49 1278.15,1059.54C1276.9,1065.38 1276.7,1071.78 1277.86,1077.64C1280.68,1091.82 1288.58,1105.9 1288.91,1120.43C1289.33,1139.18 1281.45,1157.01 1282.71,1175.98" style="fill: none; stroke: white; stroke-width: 3.85px" />
          <path d="M1281.99,1186.06C1281.52,1187.01 1282.58,1191.43 1282.64,1192.6C1283.04,1201.34 1287.38,1208.43 1288.82,1216.84C1290.55,1226.99 1286.18,1236.21 1286.52,1246.13" style="fill: none; stroke: white; stroke-width: 3.85px" />
          <path d="M1286.11,1271.99C1286.3,1276.41 1284.39,1281.53 1284.92,1286.56C1286.22,1298.82 1290.42,1309.72 1287.24,1322.19" style="fill: none; stroke: white; stroke-width: 3.85px" />
          <g transform="matrix(1.15585,0,0,1,-198.525,144.38)">
            <path d="M1286.11,1271.99C1286.3,1276.41 1284.39,1281.53 1284.92,1286.56C1286.22,1298.82 1290.42,1309.72 1287.24,1322.19" style="fill: none; stroke: white; stroke-width: 3.85px" />
          </g>
        </g>
        <g transform="matrix(-1,0,0,1,2047.35,0)">
          <path d="M1185.71,927.011C1185.72,926.736 1184.52,927.825 1184.49,927.863C1183.45,929.339 1182.89,931.109 1182.35,932.812C1180.85,937.515 1180.6,942.123 1181.54,946.942C1184.32,961.103 1189.32,975.216 1194.78,988.549C1199.39,999.832 1207.53,1014.92 1204.56,1027.53C1198.64,1052.7 1175.81,1070.3 1181.98,1098.08C1185.05,1111.9 1195.59,1126.58 1193.3,1141.02C1189.95,1162.17 1172.08,1181.13 1173.13,1202.74C1173.8,1216.71 1184.25,1229.64 1189.63,1242.46C1191.36,1246.6 1195.2,1252.46 1194.52,1257.16C1192.73,1269.49 1191.35,1282.67 1188.77,1294.85C1186.61,1305.08 1182.9,1314.76 1181.55,1325.18C1178.32,1350.3 1178.97,1527.78 1183.22,1552.49C1184.7,1561.11 1183.51,1572.21 1186.38,1580.44C1186.65,1581.22 1280.08,1575.04 1289.61,1577.02C1298.86,1578.94 1289.45,1554.41 1288.69,1531.86C1288.11,1514.52 1294.55,1492.79 1293.85,1479.35C1292.53,1454.21 1290.31,1462.27 1291.27,1437.03C1292.05,1416.77 1293.88,1399.55 1297.31,1390.33C1302.22,1377.12 1296.58,1363.24 1296.69,1349C1296.86,1327.36 1302.77,1309.56 1302.64,1308.13C1301.85,1299.42 1301.4,1289.45 1301.04,1280.79C1300.75,1273.99 1298.69,1267.26 1299.66,1260.44C1301.74,1245.76 1307.52,1232.3 1306.51,1216.98C1305.46,1200.99 1294.15,1187.22 1294.68,1170.96C1295.26,1153.09 1304.51,1136.22 1304.44,1117.9C1304.36,1098.34 1291.07,1080.3 1294.22,1060.74C1296.72,1045.25 1309,1032.39 1313.54,1017.26C1317.11,1005.4 1311.5,993.209 1311.17,981.287C1310.8,967.56 1315.54,955.312 1318.31,942.075C1319.08,938.412 1323.59,922.435 1319.64,918.971C1318.33,917.822 1294.82,921.124 1290.77,920.754C1278.85,919.666 1267.54,918.159 1255.58,920.126C1243.35,922.137 1231.93,927.353 1219.63,929.087C1208.58,930.646 1197.48,928.385 1186.51,929.673" style="fill: rgb(182, 211, 219)" />
          <path d="M1184.19,1585.14C1183.64,1580.65 1182.26,1567.36 1181.83,1562.86C1180.57,1549.66 1178.04,1358.23 1178.6,1330.69C1179.09,1307.07 1193.7,1285.6 1192.3,1261.34C1191.66,1250.45 1187.79,1239.87 1183.11,1230.03C1178.14,1219.58 1171.41,1210.11 1171.76,1198.08C1172.05,1187.92 1177.55,1176.74 1182.52,1167.9C1189.18,1156.07 1192.54,1145.44 1191.76,1132.93C1190.62,1114.84 1175.33,1099.59 1177.3,1081.24C1180.05,1055.62 1205.88,1042.18 1203.33,1016.74C1201.47,998.262 1188.67,987.967 1182.65,958.089C1180.31,946.484 1181.57,933.04 1181.42,927.728" style="fill: none; stroke: rgb(1, 0, 0); stroke-width: 5.18px" />
          <path d="M1295.23,1575.7C1295.23,1566.76 1291.14,1544.11 1290.35,1535.13C1287.88,1507.07 1293.2,1510.49 1291.93,1481.52C1290.94,1458.62 1291.79,1446.35 1292.34,1424.87C1292.87,1404.05 1301.1,1383.41 1300.97,1380.53C1300.56,1371 1297.54,1362.08 1296.93,1352.68C1296.35,1343.83 1297.39,1334.84 1299.8,1326.31C1300.59,1323.52 1301.17,1320.58 1301.44,1317.69C1301.54,1316.68 1301.69,1315.68 1301.75,1314.67C1301.77,1314.18 1302.05,1312.83 1301.73,1313.2C1303.63,1294.37 1301.29,1285.11 1299.89,1276.48C1296.06,1252.76 1308.74,1234.45 1306.04,1210.57C1305.31,1204.13 1300.11,1196.54 1297.58,1190.68C1287.28,1166.77 1303.38,1148.46 1304.33,1121.09C1305.03,1100.73 1287.79,1082.94 1290.38,1064.38C1291.71,1054.82 1295.17,1049 1299.79,1040.53C1304.18,1032.48 1310.68,1024.65 1312.54,1015.49C1313.97,1008.44 1310.59,998.71 1309.19,991.828C1307.73,984.629 1307,976.657 1308.59,969.503C1312.41,952.253 1322.27,934.631 1318.2,916.557" style="fill: none; stroke: rgb(1, 0, 0); stroke-width: 5.18px" />
          <path d="M1200.92,982.918C1201.09,983.323 1200.55,982.122 1200.42,981.703C1200.18,980.884 1199.95,980.063 1199.67,979.257C1198.83,976.889 1197.86,974.604 1197.2,972.169C1195.24,964.891 1192.48,957.079 1192.47,949.447" style="fill: none; stroke: white; stroke-width: 3.85px" />
          <path d="M1198.02,1107.31C1198.2,1106.97 1197.2,1104.62 1197.1,1104.25C1196.25,1100.97 1195.37,1097.68 1194.73,1094.36C1193.65,1088.73 1193.53,1082.99 1195.04,1077.42C1195.76,1074.76 1198.29,1071.64 1198.38,1068.92" style="fill: none; stroke: white; stroke-width: 3.85px" />
          <path d="M1191.57,1219.9C1192.06,1220.25 1191.39,1218.69 1191.32,1218.08C1191.2,1217.02 1191.14,1215.95 1191.03,1214.89C1190.68,1211.54 1190.41,1208.18 1190.04,1204.84C1188.93,1194.95 1191.39,1186.44 1193.47,1176.98" style="fill: none; stroke: white; stroke-width: 3.85px" />
          <path d="M1192.13,1365.13C1193.69,1360.62 1191.46,1349.31 1191.48,1343.87C1191.52,1332.87 1194.26,1323.49 1196.26,1312.87" style="fill: none; stroke: white; stroke-width: 3.85px" />
          <g transform="matrix(1.16335,-0.0595091,0.0510864,0.998694,-261.6,264.185)">
            <path d="M1192.13,1365.13C1193.69,1360.62 1191.46,1349.31 1191.48,1343.87C1191.52,1332.87 1194.26,1323.49 1196.26,1312.87" style="fill: none; stroke: white; stroke-width: 3.85px" />
          </g>
          <path d="M1296.92,943.37C1297.68,943.024 1297.62,949.967 1297.57,950.328C1296.66,957.51 1293.51,963.91 1291.74,970.849C1287.7,986.69 1291.07,1004.2 1289.32,1020.39" style="fill: none; stroke: white; stroke-width: 3.85px" />
          <path d="M1279.66,1053.12C1280.41,1053.8 1278.38,1058.49 1278.15,1059.54C1276.9,1065.38 1276.7,1071.78 1277.86,1077.64C1280.68,1091.82 1288.58,1105.9 1288.91,1120.43C1289.33,1139.18 1281.45,1157.01 1282.71,1175.98" style="fill: none; stroke: white; stroke-width: 3.85px" />
          <path d="M1281.99,1186.06C1281.52,1187.01 1282.58,1191.43 1282.64,1192.6C1283.04,1201.34 1287.38,1208.43 1288.82,1216.84C1290.55,1226.99 1286.18,1236.21 1286.52,1246.13" style="fill: none; stroke: white; stroke-width: 3.85px" />
          <path d="M1286.11,1271.99C1286.3,1276.41 1284.39,1281.53 1284.92,1286.56C1286.22,1298.82 1290.42,1309.72 1287.24,1322.19" style="fill: none; stroke: white; stroke-width: 3.85px" />
          <g transform="matrix(0.456887,0,0,1.37683,693.514,-340.407)">
            <path d="M1286.11,1271.99C1286.3,1276.41 1284.39,1281.53 1284.92,1286.56C1286.22,1298.82 1290.42,1309.72 1287.24,1322.19" style="fill: none; stroke: white; stroke-width: 3.85px" />
          </g>
        </g>
      </g>
      <g id="Eyes">
        <path d="M1118.36,877.782C1118.36,877.782 1132.52,878.366 1134.4,880.03C1157.67,900.687 1238.64,938.679 1340.93,898.712C1344.25,897.415 1343.07,903.233 1341.45,904.268C1340.86,904.643 1229.32,999.23 1129.85,888.368C1126.96,885.15 1120.97,882.747 1118.58,880.727C1117,879.387 1118.36,877.782 1118.36,877.782Z" style="stroke: rgb(1, 0, 0); stroke-width: 3.85px" />
        <g transform="matrix(-1,0,0,1,2047.35,0)">
          <path d="M1118.36,877.782C1118.36,877.782 1132.52,878.366 1134.4,880.03C1157.67,900.687 1238.64,938.679 1340.93,898.712C1344.25,897.415 1343.07,903.233 1341.45,904.268C1340.86,904.643 1229.32,999.23 1129.85,888.368C1126.96,885.15 1120.97,882.747 1118.58,880.727C1117,879.387 1118.36,877.782 1118.36,877.782Z" style="stroke: rgb(1, 0, 0); stroke-width: 3.85px" />
        </g>
        <path d="M1159.64,843.313C1159.64,843.313 1168.8,841.643 1168.88,841.673C1183.76,846.881 1259.36,865.019 1286.64,864.158" style="fill: none; stroke: rgb(1, 0, 0); stroke-width: 5.4px" />
        <g transform="matrix(-1,0,0,1,2047.35,0)">
          <path d="M1159.64,843.313C1159.64,843.313 1168.8,841.643 1168.88,841.673C1183.76,846.881 1259.36,865.019 1286.64,864.158" style="fill: none; stroke: rgb(1, 0, 0); stroke-width: 5.4px" />
        </g>
      </g>
      <g id="Eyebrows">
        <path d="M1348.04,780.138C1348.73,779.559 1338.91,785.773 1318.34,789.682C1300.33,793.104 1282.89,793.931 1263.75,793.369C1234.96,792.524 1177.26,788.77 1135.34,776.558C1124.02,773.26 1107.44,770.178 1098.91,761.535C1095.18,757.766 1087.97,733.013 1092.74,716.565C1092.89,716.066 1130.55,732.295 1144.32,736.366C1181.25,747.285 1216.89,758.533 1254.64,766.796C1275.29,771.316 1296.53,772.858 1317.47,775.587C1325.34,776.612 1350.98,778.668 1348.04,780.138Z" style="fill: rgb(var(--color_eyebrows_r, 72), var(--color_eyebrows_g, 46), var(--color_eyebrows_b, 31))" />
        <clipPath id="_clip1_punk_crying_eyes">
          <path d="M1348.04,780.138C1348.73,779.559 1338.91,785.773 1318.34,789.682C1300.33,793.104 1282.89,793.931 1263.75,793.369C1234.96,792.524 1177.26,788.77 1135.34,776.558C1124.02,773.26 1107.44,770.178 1098.91,761.535C1095.18,757.766 1087.97,733.013 1092.74,716.565C1092.89,716.066 1130.55,732.295 1144.32,736.366C1181.25,747.285 1216.89,758.533 1254.64,766.796C1275.29,771.316 1296.53,772.858 1317.47,775.587C1325.34,776.612 1350.98,778.668 1348.04,780.138Z" />
        </clipPath>
        <g clip-path="url(#_clip1_punk_crying_eyes)">
          <path d="M1093.59,743.572C1093.59,743.572 1119.5,760.524 1197.52,774.906C1259.28,786.29 1290.01,790.421 1313.22,786.842C1291.88,794.501 1210.33,790.916 1195.98,787.781C1181.63,784.646 1134.6,779.06 1119.22,771.906C1103.83,764.752 1098.42,760.648 1096.53,754.228C1094.64,747.807 1093.74,743.084 1093.59,743.572Z" style="fill: rgb(calc(var(--color_eyebrows_r, 72) - 80), calc(var(--color_eyebrows_g, 46) - 13), calc(var(--color_eyebrows_b, 31) + 7))" />
          <path d="M1091.35,724.534C1091.35,724.534 1153.11,753.122 1205.98,763.703C1254.81,773.475 1289.92,779.888 1320.51,778.113C1309.99,773.204 1326.85,773.516 1295.98,772.446C1265.32,771.383 1159.11,744.73 1128.71,730.324C1099.08,716.282 1096.79,716.692 1094.12,719.479C1091.45,722.267 1091.35,724.534 1091.35,724.534Z" style="fill: rgb(calc(var(--color_eyebrows_r, 72) + 47), calc(var(--color_eyebrows_g, 46) + 81), calc(var(--color_eyebrows_b, 31) + 10))" />
        </g>
        <path d="M1348.04,780.138C1348.73,779.559 1338.91,785.773 1318.34,789.682C1300.33,793.104 1282.89,793.931 1263.75,793.369C1234.96,792.524 1177.26,788.77 1135.34,776.558C1124.02,773.26 1107.44,770.178 1098.91,761.535C1095.18,757.766 1087.97,733.013 1092.74,716.565C1092.89,716.066 1130.55,732.295 1144.32,736.366C1181.25,747.285 1216.89,758.533 1254.64,766.796C1275.29,771.316 1296.53,772.858 1317.47,775.587C1325.34,776.612 1350.98,778.668 1348.04,780.138Z" style="fill: none; stroke: black; stroke-width: 5.4px" />
        <g transform="matrix(-1,0,0,1,2047.35,0)">
          <path d="M1348.04,780.138C1348.73,779.559 1338.91,785.773 1318.34,789.682C1300.33,793.104 1282.89,793.931 1263.75,793.369C1234.96,792.524 1177.26,788.77 1135.34,776.558C1124.02,773.26 1107.44,770.178 1098.91,761.535C1095.18,757.766 1087.97,733.013 1092.74,716.565C1092.89,716.066 1130.55,732.295 1144.32,736.366C1181.25,747.285 1216.89,758.533 1254.64,766.796C1275.29,771.316 1296.53,772.858 1317.47,775.587C1325.34,776.612 1350.98,778.668 1348.04,780.138Z" style="fill: rgb(var(--color_eyebrows_r, 72), var(--color_eyebrows_g, 46), var(--color_eyebrows_b, 31))" />
          <clipPath id="_clip2_punk_crying_eyes">
            <path d="M1348.04,780.138C1348.73,779.559 1338.91,785.773 1318.34,789.682C1300.33,793.104 1282.89,793.931 1263.75,793.369C1234.96,792.524 1177.26,788.77 1135.34,776.558C1124.02,773.26 1107.44,770.178 1098.91,761.535C1095.18,757.766 1087.97,733.013 1092.74,716.565C1092.89,716.066 1130.55,732.295 1144.32,736.366C1181.25,747.285 1216.89,758.533 1254.64,766.796C1275.29,771.316 1296.53,772.858 1317.47,775.587C1325.34,776.612 1350.98,778.668 1348.04,780.138Z" />
          </clipPath>
          <g clip-path="url(#_clip2_punk_crying_eyes)">
            <path d="M1093.59,743.572C1093.59,743.572 1119.5,760.524 1197.52,774.906C1259.28,786.29 1290.01,790.421 1313.22,786.842C1291.88,794.501 1210.33,790.916 1195.98,787.781C1181.63,784.646 1134.6,779.06 1119.22,771.906C1103.83,764.752 1098.42,760.648 1096.53,754.228C1094.64,747.807 1093.74,743.084 1093.59,743.572Z" style="fill: rgb(calc(var(--color_eyebrows_r, 72) - 80), calc(var(--color_eyebrows_g, 46) - 13), calc(var(--color_eyebrows_b, 31) + 7))" />
            <path d="M1091.35,724.534C1091.35,724.534 1153.11,753.122 1205.98,763.703C1254.81,773.475 1289.92,779.888 1320.51,778.113C1309.99,773.204 1326.85,773.516 1295.98,772.446C1265.32,771.383 1159.11,744.73 1128.71,730.324C1099.08,716.282 1096.79,716.692 1094.12,719.479C1091.45,722.267 1091.35,724.534 1091.35,724.534Z" style="fill: rgb(calc(var(--color_eyebrows_r, 72) + 47), calc(var(--color_eyebrows_g, 46) + 81), calc(var(--color_eyebrows_b, 31) + 10))" />
          </g>
          <path d="M1348.04,780.138C1348.73,779.559 1338.91,785.773 1318.34,789.682C1300.33,793.104 1282.89,793.931 1263.75,793.369C1234.96,792.524 1177.26,788.77 1135.34,776.558C1124.02,773.26 1107.44,770.178 1098.91,761.535C1095.18,757.766 1087.97,733.013 1092.74,716.565C1092.89,716.066 1130.55,732.295 1144.32,736.366C1181.25,747.285 1216.89,758.533 1254.64,766.796C1275.29,771.316 1296.53,772.858 1317.47,775.587C1325.34,776.612 1350.98,778.668 1348.04,780.138Z" style="fill: none; stroke: black; stroke-width: 5.4px" />
        </g>
        <path d="M1100.06,763.603C1100.27,763.194 1100.4,762.856 1100.16,763.027L1100.06,763.603C1099.89,763.922 1099.69,764.284 1099.57,764.482C1099.06,765.348 1098.21,765.957 1097.29,766.327C1094.38,767.494 1091.14,767.404 1088.1,766.999C1083.55,766.393 1078.71,764.951 1074.41,763.395C1073.06,762.908 1070.52,760.853 1069.02,761.657C1066.46,763.036 1065.66,767.929 1064.66,770.359C1060.58,780.298 1061.35,797.609 1063.54,811.098C1066.52,829.446 1079.94,850.953 1083.91,851.37C1091.55,852.174 1096.78,845.77 1100.7,841.441C1110.44,830.68 1118.31,817.925 1128.9,807.936C1136.26,800.993 1144.46,796.773 1153.57,792.671C1157.08,791.087 1160.65,789.586 1164.05,787.752C1164.35,787.587 1167.14,786.289 1167.01,785.911C1166.77,785.205 1163.89,784.946 1163.29,784.769C1159.12,783.547 1154.82,782.906 1150.66,781.647C1133.43,776.431 1116.66,770.931 1099.93,764.304L1100.06,763.603ZM947.295,763.603C947.459,763.922 947.668,764.284 947.784,764.482C948.29,765.348 949.143,765.957 950.064,766.327C952.975,767.494 956.208,767.404 959.253,766.999C963.809,766.393 968.646,764.951 972.946,763.395C974.293,762.908 976.835,760.853 978.33,761.657C980.897,763.036 981.695,767.929 982.693,770.359C986.774,780.298 986.003,797.609 983.815,811.098C980.838,829.446 967.41,850.953 963.443,851.37C955.805,852.174 950.576,845.77 946.657,841.441C936.916,830.68 929.046,817.925 918.454,807.936C911.093,800.993 902.895,796.773 893.788,792.671C890.272,791.087 886.704,789.586 883.309,787.752C883.003,787.587 880.21,786.289 880.339,785.911C880.582,785.205 883.463,784.946 884.065,784.769C888.237,783.547 892.536,782.906 896.695,781.647C913.927,776.431 930.696,770.931 947.42,764.304L947.295,763.603C947.086,763.194 946.954,762.856 947.193,763.027L947.295,763.603Z" style="fill: rgb(56, 25, 57); fill-opacity: 0.5" />
        <path d="M1082.01,782.258C1080.6,779.691 1077.21,773.613 1075.94,770.969C1072.19,763.144 1068.46,755.428 1066.11,747.042C1061.08,729.03 1058.67,707.122 1061.91,688.595C1063.01,682.338 1065.54,676.467 1067.41,670.463" style="fill: none; stroke: black; stroke-width: 5.4px" />
        <g transform="matrix(-1,0,0,1,2047.35,0)">
          <path d="M1082.01,782.258C1080.6,779.691 1077.21,773.613 1075.94,770.969C1072.19,763.144 1068.46,755.428 1066.11,747.042C1061.08,729.03 1058.67,707.122 1061.91,688.595C1063.01,682.338 1065.54,676.467 1067.41,670.463" style="fill: none; stroke: black; stroke-width: 5.4px" />
        </g>
      </g>
    </g>
  </g>
   <!--Clip paths for tears -->
  <defs>
    <g transform="translate(.355 .347)">
    <clipPath id="Punk-head_svg__a"><path d="M244.907,362.497C239.15,342.443 235.569,320.129 230.527,299.795C228.864,293.091 220.764,258.707 221.913,211.105C222.702,178.416 235.124,144.65 268.065,118.793C283.529,106.655 299.348,96.485 317.48,89.232C317.17,89.362 337.446,81.431 344.568,79.466C354.71,76.668 364.907,75.208 375.297,73.948C383.415,72.962 391.496,72.942 399.683,72.941L400.126,72.941C408.312,72.942 416.394,72.962 424.512,73.948C434.901,75.208 445.215,76.277 455.24,79.466C464.161,82.304 482.636,89.89 482.326,89.76C500.458,97.013 512.893,106.399 528.358,118.537C561.298,144.394 575.193,172.901 576.877,210.265C578.968,256.655 569.664,294.293 568.002,300.996C562.941,321.404 560.396,342.599 554.587,362.716L554.172,362.752C553.897,365.581 553.572,368.404 553.163,371.217C551.017,385.978 546.697,405.322 544.163,420.021C542.103,431.967 540.149,438.963 538.352,450.948C536.372,464.148 532.732,480.315 525.81,491.849C516.571,507.244 505.706,519.436 493.598,532.066C479.489,546.785 465.565,561.314 448.929,573.197C441.082,578.802 436.989,583.293 427.527,585.636C419.446,587.638 406.072,588.144 401.132,588.181L398.75,588.164C393.81,588.126 379.659,587.638 371.577,585.636C362.115,583.293 358.022,578.802 350.175,573.197C333.539,561.314 319.615,546.785 305.506,532.066C293.398,519.436 279.544,505.454 271.973,489.569C266.185,477.426 262.671,464.249 260.691,451.05C258.893,439.065 257.001,431.967 254.941,420.021C252.407,405.322 248.087,385.978 245.941,371.217C245.52,368.32 245.188,365.411 244.907,362.497ZM554.587,362.716L554.584,362.726C554.593,362.72 554.605,362.717 554.616,362.714L554.587,362.716Z"/></clipPath>
    </g>
    <g>
    <clipPath id="_clip16_miss_head">
        <path
          d="M400,112.476C439.88,112.563 471.341,121.306 506.185,139.523C522.01,147.796 542.515,167.393 552.722,183.177C566.853,205.029 567.676,258.34 565.8,282.977C562.311,328.792 555.506,332.328 552.461,378.163C550.941,401.04 544.639,426.041 539.523,448.534C527.922,499.533 498.217,534.323 460.902,568.28C449.868,578.321 439.394,585.832 423.24,595.36C418.67,598.055 413.211,598.568 407.961,598.886C406.403,598.981 402.197,599.155 400,599.258L400,599.287L399.4,599.258C397.203,599.155 392.997,598.981 391.44,598.886C386.189,598.568 380.73,598.055 376.16,595.36C360.006,585.832 349.532,578.321 338.498,568.28C301.183,534.323 271.478,499.533 259.877,448.534C254.761,426.041 248.459,401.04 246.94,378.163C243.895,332.328 237.089,328.792 233.6,282.977C231.724,258.34 232.547,205.029 246.678,183.177C256.885,167.393 277.39,147.796 293.216,139.523C328.059,121.306 359.521,112.563 399.4,112.476L400,112.475L400,112.476Z" />
      </clipPath>
    </g>
  </defs>
</svg>