<svg viewBox="0 0 800 800" xmlns="http://www.w3.org/2000/svg">
  <g id="torso">
    <g id="torso-1">
      <path
        id="curves"
        d="M293.346,632.475C306.111,629.293 487.396,627.041 503.617,629.089C524.137,645.299 582.398,683.553 605.535,690.808C623.734,696.514 645.985,708.645 663.533,716.176C679.43,722.998 698.002,734.424 714.343,740.187C740.119,749.278 765.38,753.651 789.185,767.912C809.406,780.026 821.584,801.682 829.568,823.24C831.086,823.24 826.75,824.371 825.323,824.888C822.235,826.009 819.103,826.942 815.913,827.727C806.613,830.013 797.104,831.69 787.587,832.737C757.88,836.005 728.477,835.183 698.73,832.887C673.829,830.966 649.096,827.682 624.25,825.24C594.757,822.34 565.573,820.53 536.324,815.391C532.33,814.689 509.668,810.94 507.173,807.614C506.005,806.057 511.768,804.117 510.392,802.74C510.342,802.691 497.331,806.453 496.687,806.539C482.442,808.435 467.563,807.382 453.28,806.503C443.995,805.932 434.725,805.049 425.462,804.217C421.873,803.894 418.287,803.516 414.689,803.306C412.689,803.19 403.584,803.04 400,803.072L400,803.093C399.857,803.087 399.679,803.082 399.469,803.079C399.258,803.082 399.08,803.087 398.937,803.093L398.937,803.072C395.353,803.04 386.248,803.19 384.248,803.306C380.65,803.516 377.064,803.894 373.475,804.217C364.212,805.049 354.942,805.932 345.657,806.503C331.374,807.382 316.495,808.435 302.25,806.539C301.606,806.453 288.595,802.691 288.545,802.74C287.169,804.117 292.932,806.057 291.764,807.614C289.269,810.94 266.607,814.689 262.613,815.391C233.364,820.53 204.18,822.34 174.687,825.24C149.841,827.682 125.108,830.966 100.207,832.887C70.46,835.183 41.057,836.005 11.35,832.737C1.833,831.69 -7.676,830.013 -16.976,827.727C-20.166,826.942 -23.298,826.009 -26.386,824.888C-27.813,824.371 -32.149,823.24 -30.631,823.24C-22.647,801.682 -10.469,780.026 9.752,767.912C33.557,753.651 62.864,752.253 88.639,743.162C104.98,737.399 120.142,728.862 136.039,722.039C153.587,714.508 167.26,706.258 187.913,696.213C209.294,685.813 263.498,651.402 293.346,632.475Z"
        style="fill: var(--color_skin, rgb(240, 205, 177)); stroke: black; stroke-width: 2.13px"
      />
      <path
        d="M377.756,794.993C367.218,788.642 357.548,777.834 345.57,773.841C328.284,768.079 301.703,769.209 283.475,767.642C230.499,763.087 175.851,762.857 124.016,750.149"
        style="fill: none; stroke: black; stroke-width: 2.13px"
      />
      <g transform="matrix(-1,0,0,1,796.397,0)">
        <path
          d="M377.756,794.993C367.218,788.642 357.548,777.834 345.57,773.841C328.284,768.079 301.703,769.209 283.475,767.642C230.499,763.087 175.851,762.857 124.016,750.149"
          style="fill: none; stroke: black; stroke-width: 2.13px"
        />
      </g>
    </g>
  </g>
  <g id="necks">
    <g id="neck-1">
      <path
        d="M291.885,514.666C291.889,514.664 293.039,548.747 293.005,558.272C292.879,593.67 293.16,637.471 288.786,670.82C287.825,678.147 281.91,705.193 284.333,709.034C292.363,721.763 316.363,720.943 329.039,723.132C375.84,731.214 424.243,726.774 470.746,718.676C483.633,716.432 518.663,721.901 514.973,707.965C507.857,681.091 507.143,664.134 506.17,656.477C502,623.666 503.091,562.353 505.826,534.499C507.171,520.811 510.231,499.787 498.656,489.948C485.609,478.858 462.373,478.001 446.307,477.01C402.722,474.323 348.967,475.942 309.14,496.354"
        style="fill: var(--color_skin, rgb(240, 205, 177))"
      />
      <clipPath id="_clip1_punk_body">
        <path
          d="M291.885,514.666C291.889,514.664 293.039,548.747 293.005,558.272C292.879,593.67 293.16,637.471 288.786,670.82C287.825,678.147 281.91,705.193 284.333,709.034C292.363,721.763 316.363,720.943 329.039,723.132C375.84,731.214 424.243,726.774 470.746,718.676C483.633,716.432 518.663,721.901 514.973,707.965C507.857,681.091 507.143,664.134 506.17,656.477C502,623.666 503.091,562.353 505.826,534.499C507.171,520.811 510.231,499.787 498.656,489.948C485.609,478.858 462.373,478.001 446.307,477.01C402.722,474.323 348.967,475.942 309.14,496.354"
        />
      </clipPath>
      <g clip-path="url(#_clip1_punk_body)">
        <path
          d="M290.432,527.568C290.672,528.036 291.589,528.643 291.9,529.14C292.799,530.577 293.619,532.054 294.359,533.578C296.481,537.945 297.968,543.089 298.225,547.965C299.261,567.655 298.23,588.827 295.547,608.372C294.904,613.062 292.555,617.467 290.169,621.494C289.786,622.139 288.403,625.307 287.468,625.274C286.195,625.23 287.235,618.274 287.301,617.659C288.226,609.129 289.4,600.627 290.076,592.07C291.049,579.745 290.831,567.506 290.238,555.17C289.859,547.279 288.771,539.072 289.588,531.175L290.432,527.568C290.338,527.384 290.348,527.222 290.543,527.097L290.432,527.568ZM506.408,526.51C506.168,526.977 505.251,527.584 504.94,528.082C504.041,529.518 503.221,530.995 502.481,532.519C500.359,536.886 498.872,542.03 498.615,546.906C497.579,566.596 498.61,587.768 501.293,607.313C501.936,612.003 504.285,616.408 506.671,620.435C507.054,621.08 508.438,624.248 509.372,624.215C510.645,624.172 509.605,617.215 509.539,616.6C508.614,608.07 507.44,599.568 506.764,591.011C505.791,578.686 506.009,566.447 506.602,554.111C506.981,546.22 508.069,538.014 507.252,530.116L506.408,526.51C506.502,526.325 506.492,526.163 506.297,526.038L506.408,526.51Z"
          style="fill: rgb(252, 255, 216); fill-opacity: 0.6"
        />
      </g>
      <g transform="matrix(-1,0,0,1,798.883,0)">
        <path d="M290.588,516.997C292.035,518.867 294.709,553.499 294.709,564.516C294.709,593.234 296.339,664.877 286.421,693.899" style="fill: none; stroke: black; stroke-width: 2.1px" />
      </g>
      <path d="M290.588,516.997C292.035,518.867 293.571,557.953 293.571,568.97C293.571,597.688 293.544,668.722 283.626,697.744" style="fill: none; stroke: black; stroke-width: 2.1px" />
      <path
        d="M332.608,592.419C333.07,592.049 332.861,593.576 332.969,594.159C333.197,595.387 333.443,596.611 333.689,597.836C334.421,601.486 335.124,605.142 335.854,608.792C337.963,619.336 341.152,629.406 344.73,639.52C349.021,651.652 350.901,664.41 354.029,676.86C359.322,697.926 365.21,718.732 368.991,740.158"
        style="fill: none; stroke: black; stroke-width: 2.13px"
      />
      <g transform="matrix(-1,0,0,1,800.812,0)">
        <path
          d="M332.608,592.419C333.07,592.049 332.861,593.576 332.969,594.159C333.197,595.387 333.443,596.611 333.689,597.836C334.421,601.486 335.124,605.142 335.854,608.792C337.963,619.336 341.152,629.406 344.73,639.52C349.021,651.652 350.901,664.41 354.029,676.86C359.322,697.926 365.21,718.732 368.991,740.158"
          style="fill: none; stroke: black; stroke-width: 2.13px"
        />
      </g>
    </g>
  </g>

  <g id="heads">
    <g id="head-1">
      <path
        d="M291.484,516.215C291.223,516.71 292.965,519.446 293.178,519.873C295.01,523.551 296.742,527.301 298.433,531.045C305.491,546.67 311.849,562.736 320.547,577.565C332.957,598.722 347.928,619.134 370.407,630.348C407.093,648.649 446.614,625.414 467.405,594.269C480.375,574.841 491.366,552.103 500.329,530.528C502.445,525.435 505.159,520.401 506.716,515.1C507.286,513.156 508.415,509.913 505.402,509.735C501.149,509.485 496.066,512.837 492.506,514.676C484.209,518.963 476.136,523.677 467.766,527.825C445.463,538.88 419.258,547.99 394.093,547.472C371.77,547.013 351.478,537.05 331.692,527.677C321.461,522.831 310.824,516.667 299.519,514.776"
        style="fill: rgb(66, 31, 67); fill-opacity: 0.5"
      />
      <g id="head" transform="matrix(1,0,0,1,0.354844,0.347021)">
        <path
          d="M244.907,362.497C239.15,342.443 235.569,320.129 230.527,299.795C228.864,293.091 220.764,258.707 221.913,211.105C222.702,178.416 235.124,144.65 268.065,118.793C283.529,106.655 299.348,96.485 317.48,89.232C317.17,89.362 337.446,81.431 344.568,79.466C354.71,76.668 364.907,75.208 375.297,73.948C383.415,72.962 391.496,72.942 399.683,72.941L400.126,72.941C408.312,72.942 416.394,72.962 424.512,73.948C434.901,75.208 445.215,76.277 455.24,79.466C464.161,82.304 482.636,89.89 482.326,89.76C500.458,97.013 512.893,106.399 528.358,118.537C561.298,144.394 575.193,172.901 576.877,210.265C578.968,256.655 569.664,294.293 568.002,300.996C562.941,321.404 560.396,342.599 554.587,362.716L554.172,362.752C553.897,365.581 553.572,368.404 553.163,371.217C551.017,385.978 546.697,405.322 544.163,420.021C542.103,431.967 540.149,438.963 538.352,450.948C536.372,464.148 532.732,480.315 525.81,491.849C516.571,507.244 505.706,519.436 493.598,532.066C479.489,546.785 465.565,561.314 448.929,573.197C441.082,578.802 436.989,583.293 427.527,585.636C419.446,587.638 406.072,588.144 401.132,588.181L398.75,588.164C393.81,588.126 379.659,587.638 371.577,585.636C362.115,583.293 358.022,578.802 350.175,573.197C333.539,561.314 319.615,546.785 305.506,532.066C293.398,519.436 279.544,505.454 271.973,489.569C266.185,477.426 262.671,464.249 260.691,451.05C258.893,439.065 257.001,431.967 254.941,420.021C252.407,405.322 248.087,385.978 245.941,371.217C245.52,368.32 245.188,365.411 244.907,362.497ZM554.587,362.716L554.584,362.726C554.593,362.72 554.605,362.717 554.616,362.714L554.587,362.716Z"
          style="fill: var(--color_skin, rgb(240, 205, 177))"
        />
        <clipPath id="_clip9_punk_body">
          <path
            d="M244.907,362.497C239.15,342.443 235.569,320.129 230.527,299.795C228.864,293.091 220.764,258.707 221.913,211.105C222.702,178.416 235.124,144.65 268.065,118.793C283.529,106.655 299.348,96.485 317.48,89.232C317.17,89.362 337.446,81.431 344.568,79.466C354.71,76.668 364.907,75.208 375.297,73.948C383.415,72.962 391.496,72.942 399.683,72.941L400.126,72.941C408.312,72.942 416.394,72.962 424.512,73.948C434.901,75.208 445.215,76.277 455.24,79.466C464.161,82.304 482.636,89.89 482.326,89.76C500.458,97.013 512.893,106.399 528.358,118.537C561.298,144.394 575.193,172.901 576.877,210.265C578.968,256.655 569.664,294.293 568.002,300.996C562.941,321.404 560.396,342.599 554.587,362.716L554.172,362.752C553.897,365.581 553.572,368.404 553.163,371.217C551.017,385.978 546.697,405.322 544.163,420.021C542.103,431.967 540.149,438.963 538.352,450.948C536.372,464.148 532.732,480.315 525.81,491.849C516.571,507.244 505.706,519.436 493.598,532.066C479.489,546.785 465.565,561.314 448.929,573.197C441.082,578.802 436.989,583.293 427.527,585.636C419.446,587.638 406.072,588.144 401.132,588.181L398.75,588.164C393.81,588.126 379.659,587.638 371.577,585.636C362.115,583.293 358.022,578.802 350.175,573.197C333.539,561.314 319.615,546.785 305.506,532.066C293.398,519.436 279.544,505.454 271.973,489.569C266.185,477.426 262.671,464.249 260.691,451.05C258.893,439.065 257.001,431.967 254.941,420.021C252.407,405.322 248.087,385.978 245.941,371.217C245.52,368.32 245.188,365.411 244.907,362.497ZM554.587,362.716L554.584,362.726C554.593,362.72 554.605,362.717 554.616,362.714L554.587,362.716Z"
          />
        </clipPath>
        <g clip-path="url(#_clip9_punk_body)">
          <g transform="matrix(1,0,0,1,-0.354844,-0.347021)">
            <path
              d="M240.123,337.382L238.47,338.348C232.701,321.279 224.511,302.955 222.44,284.913C221.949,280.629 214.213,272.518 214.719,268.295C215.977,257.775 217.71,249.232 214.719,239.122C201.993,196.113 180.872,160.56 201.808,114.386C219.667,74.997 260.68,50.851 299.358,35.709C389.128,0.564 514.126,6.05 575.611,90.736C614.067,143.703 616.406,210.693 587.921,268.007C581.141,281.648 574.578,295.381 568.312,309.265C565.778,314.878 563.452,320.578 560.999,326.225C560.91,326.429 560.369,327.854 559.8,329.026C560.006,356.502 553.907,381.534 550.428,409.025C545.798,445.601 545.561,481.032 519.357,510.084C509.365,521.162 499.425,532.216 488.696,542.594C487.541,543.712 456.852,572.914 455.089,571.977C453.213,570.981 474.621,548.367 475.004,548.016C477.801,545.461 483.558,538.396 487.378,533.358C496.737,521.014 511.592,506.098 518.578,495.482C530.02,478.095 532.426,457.519 535.989,437.361C539.458,417.739 543.191,397.124 546.086,377.399C548.307,362.256 552.919,347.375 554.506,330.072C554.969,325.018 558.009,312.835 558.685,310.485C558.711,310.396 560.53,302.655 560.61,302.107L560.612,302.077C560.614,302.075 560.614,302.085 560.61,302.107L559.94,316.655C560.482,313.121 561.02,309.588 561.434,306.027C564.802,277.06 572.648,255.578 571.342,224.42C570.298,199.516 564.909,172.878 552.094,151.169C545.239,139.555 534.938,130.472 525.173,121.344C488.773,87.317 450.789,71.263 400.113,73.656C385.351,74.353 371.019,78.174 356.78,81.838C296.094,97.451 237.953,132.917 228.729,200.195C223.84,235.854 229.799,269.704 238.758,304.047C238.972,304.869 239.183,305.691 239.391,306.515L239.188,302.107C239.185,302.085 239.184,302.075 239.187,302.077L239.188,302.107C239.268,302.655 241.088,310.396 241.113,310.485C241.79,312.835 244.83,325.018 245.293,330.072C246.88,347.375 251.491,362.256 253.713,377.399C256.607,397.124 260.341,417.739 263.809,437.361C267.373,457.519 269.779,478.095 281.221,495.482C288.207,506.098 303.062,521.014 312.421,533.358C316.241,538.396 321.998,545.461 324.794,548.016C325.178,548.367 346.585,570.981 344.71,571.977C342.947,572.914 312.258,543.712 311.102,542.594C300.373,532.216 290.434,521.162 280.442,510.084C254.238,481.032 254,445.601 249.371,409.025C246.247,384.343 241.012,361.643 240.123,337.382Z"
              style="fill: rgb(252, 255, 216); fill-opacity: 0.6"
            />
          </g>
        </g>
        <path
          d="M244.907,362.497C239.15,342.443 235.569,320.129 230.527,299.795C228.864,293.091 220.764,258.707 221.913,211.105C222.702,178.416 235.124,144.65 268.065,118.793C283.529,106.655 299.348,96.485 317.48,89.232C317.17,89.362 337.446,81.431 344.568,79.466C354.71,76.668 364.907,75.208 375.297,73.948C383.415,72.962 391.496,72.942 399.683,72.941L400.126,72.941C408.312,72.942 416.394,72.962 424.512,73.948C434.901,75.208 445.215,76.277 455.24,79.466C464.161,82.304 482.636,89.89 482.326,89.76C500.458,97.013 512.893,106.399 528.358,118.537C561.298,144.394 575.193,172.901 576.877,210.265C578.968,256.655 569.664,294.293 568.002,300.996C562.941,321.404 560.396,342.599 554.587,362.716L554.172,362.752C553.897,365.581 553.572,368.404 553.163,371.217C551.017,385.978 546.697,405.322 544.163,420.021C542.103,431.967 540.149,438.963 538.352,450.948C536.372,464.148 532.732,480.315 525.81,491.849C516.571,507.244 505.706,519.436 493.598,532.066C479.489,546.785 465.565,561.314 448.929,573.197C441.082,578.802 436.989,583.293 427.527,585.636C419.446,587.638 406.072,588.144 401.132,588.181L398.75,588.164C393.81,588.126 379.659,587.638 371.577,585.636C362.115,583.293 358.022,578.802 350.175,573.197C333.539,561.314 319.615,546.785 305.506,532.066C293.398,519.436 279.544,505.454 271.973,489.569C266.185,477.426 262.671,464.249 260.691,451.05C258.893,439.065 257.001,431.967 254.941,420.021C252.407,405.322 248.087,385.978 245.941,371.217C245.52,368.32 245.188,365.411 244.907,362.497ZM554.587,362.716L554.584,362.726C554.593,362.72 554.605,362.717 554.616,362.714L554.587,362.716Z"
          style="fill: none; stroke: black; stroke-width: 2.13px"
        />
      </g>
    </g>
  </g>
</svg>