<svg
  width="100%"
  height="100%"
  viewBox="0 0 800 800"
  version="1.1"
  xmlns="http://www.w3.org/2000/svg"
  style="fill-rule: evenodd; clip-rule: evenodd; stroke-linecap: round; stroke-linejoin: round; stroke-miterlimit: 1.5"
>
  <g id="assassin-shirt" transform="matrix(0.997371,0,0,0.997371,1.05174,2.60804)">
    <path
      d="M294.497,626.912C225.777,645.697 160.401,673.644 93.624,698.852C63.14,710.359 18.403,720.179 -6.136,742.673C-25.53,760.451 -36.893,792.555 -48.34,815.557C-54.441,827.817 -92.078,902.343 -85.334,914.989C-82.55,920.207 -6.179,929.222 20.652,932.763C114.775,945.183 210.185,942.53 304.67,951.158C324.216,952.943 336.82,957.234 352.146,940.515C364.402,927.145 358.135,854.464 358.651,836.899C361.655,734.642 276.124,684.917 279.816,639.568L294.497,626.912Z"
      style="fill: rgb(231, 231, 231)"
    />
    <clipPath id="Assassin-cap_0">
      <path
        d="M294.497,626.912C225.777,645.697 160.401,673.644 93.624,698.852C63.14,710.359 18.403,720.179 -6.136,742.673C-25.53,760.451 -36.893,792.555 -48.34,815.557C-54.441,827.817 -92.078,902.343 -85.334,914.989C-82.55,920.207 -6.179,929.222 20.652,932.763C114.775,945.183 210.185,942.53 304.67,951.158C324.216,952.943 336.82,957.234 352.146,940.515C364.402,927.145 358.135,854.464 358.651,836.899C361.655,734.642 276.124,684.917 279.816,639.568L294.497,626.912Z"
      />
    </clipPath>
    <g clip-path="url(#Assassin-cap_0)">
      <path
        d="M39.745,813.533C39.81,813.515 36.837,800.077 36.656,799.268C34.238,788.473 26.117,766.396 30.446,755.43C32.468,750.305 42.271,747.001 46.682,744.774C62.528,736.776 116.977,711.169 132.581,702.636C135.344,701.124 150.463,695.474 151.088,692.095C151.225,691.358 150.033,691.047 149.536,690.96C138.848,689.094 86.583,712.133 76.413,714.724C65.814,717.424 19.231,727.686 12,734.314C8.884,737.171 23.473,776.782 25.069,781.426"
        style="fill: white"
      />
      <path
        d="M99.939,700.288C98.037,697.655 101.874,719.354 103.222,726.158C107.251,746.496 114.181,766.398 120.726,786.034C139.368,841.96 161.479,895.428 189.825,947.192C197.982,962.087 209.787,996.637 231.794,988.561C239.733,985.648 280.643,965.573 282.386,956.513C283.825,949.027 256.986,905.129 252.735,896.123C230.216,848.418 206.609,798.268 188.896,748.469C185.195,738.067 176.735,694.301 169.96,688.569C166.382,685.541 130.247,694.596 125.191,695.786L99.939,700.288Z"
        style="fill: rgb(96, 69, 60)"
      />
      <clipPath id="Assassin-cap_1">
        <path
          d="M99.939,700.288C98.037,697.655 101.874,719.354 103.222,726.158C107.251,746.496 114.181,766.398 120.726,786.034C139.368,841.96 161.479,895.428 189.825,947.192C197.982,962.087 209.787,996.637 231.794,988.561C239.733,985.648 280.643,965.573 282.386,956.513C283.825,949.027 256.986,905.129 252.735,896.123C230.216,848.418 206.609,798.268 188.896,748.469C185.195,738.067 176.735,694.301 169.96,688.569C166.382,685.541 130.247,694.596 125.191,695.786L99.939,700.288Z"
        />
      </clipPath>
      <g clip-path="url(#Assassin-cap_1)">
        <path
          d="M82.873,690.695C81.687,689.671 83.725,693.712 84.244,695.19C85.325,698.268 86.485,701.336 87.811,704.318C91.805,713.306 96.858,721.238 102.938,728.929C113.691,742.533 119.61,757.179 124.668,773.749C126.525,779.832 129.228,796.188 133.28,800.239C134.22,801.179 132.76,797.63 132.419,796.345C131.712,793.687 130.989,791.033 130.29,788.372C127.699,778.517 125.601,768.704 124.652,758.551C124.603,758.026 123.855,749.55 124.224,749.576C125.502,749.667 128.204,754.28 128.963,755.187C133.098,760.13 137.699,764.692 142.742,768.712C152.707,776.655 164.463,781.857 174.952,789.012C185.068,795.911 193.819,804.594 202.418,813.26C207.378,818.259 212.385,823.517 216.294,829.4C216.761,830.103 221.13,838.67 221.71,838.554C221.926,838.511 221.621,837.059 221.602,836.929C221.012,832.798 220.456,828.668 219.95,824.526C218.102,809.386 216.836,794.234 213.456,779.327C206.041,746.626 215.362,692.978 188.356,677.553C179.084,672.257 114.791,673.093 103.069,675.242"
          style="fill: rgb(75, 44, 59)"
        />
        <path
          d="M102.881,682.891C101.233,685.211 103.95,694.921 104.282,697.483C106.317,713.198 110.332,728.402 115.151,743.471C122.746,767.218 129.133,791.409 138.145,814.681C153.554,854.471 195.605,942.154 229.591,997.704"
          style="fill: none; stroke: black; stroke-width: 2.1px"
        />
        <path
          d="M151.852,666.62C150.933,665.763 152.224,669.106 152.484,670.335C153.028,672.906 153.591,675.47 154.192,678.029C156.03,685.852 158.204,693.591 160.651,701.244C168.018,724.279 176.565,746.938 185.021,769.589C195.256,797.003 205.54,826.309 218.46,852.514C235.782,887.644 259.482,943.938 283.335,980.356"
          style="fill: none; stroke: black; stroke-width: 2.1px"
        />
      </g>
      <path
        d="M99.939,700.288C98.037,697.655 101.874,719.354 103.222,726.158C107.251,746.496 114.181,766.398 120.726,786.034C139.368,841.96 161.479,895.428 189.825,947.192C197.982,962.087 209.787,996.637 231.794,988.561C239.733,985.648 280.643,965.573 282.386,956.513C283.825,949.027 256.986,905.129 252.735,896.123C230.216,848.418 206.609,798.268 188.896,748.469C185.195,738.067 176.735,694.301 169.96,688.569C166.382,685.541 130.247,694.596 125.191,695.786L99.939,700.288Z"
        style="fill: none; stroke: black; stroke-width: 2.1px"
      />
      <path
        d="M16.905,734.389C17.172,734.125 23.731,759.199 25.853,766.626C32.154,788.676 40.844,806.585 47.601,828.489C62.566,877.004 70.497,928.042 76.223,978.375C77.814,992.366 85.916,1021.08 78.186,1034.06C72.663,1043.33 22.675,1030.83 13.609,1029.24C-32.776,1021.1 -79.904,1014.64 -127.006,1013.06C-143.562,1012.51 -182.496,1020.36 -196.523,1013.85C-220.411,1002.75 -192.672,939.237 -186.239,924.171C-153.266,846.948 -109.344,772.728 -36.492,727.248"
        style="fill: rgb(165, 35, 59)"
      />
      <clipPath id="Assassin-cap_2">
        <path
          d="M16.905,734.389C17.172,734.125 23.731,759.199 25.853,766.626C32.154,788.676 40.844,806.585 47.601,828.489C62.566,877.004 70.497,928.042 76.223,978.375C77.814,992.366 85.916,1021.08 78.186,1034.06C72.663,1043.33 22.675,1030.83 13.609,1029.24C-32.776,1021.1 -79.904,1014.64 -127.006,1013.06C-143.562,1012.51 -182.496,1020.36 -196.523,1013.85C-220.411,1002.75 -192.672,939.237 -186.239,924.171C-153.266,846.948 -109.344,772.728 -36.492,727.248"
        />
      </clipPath>
      <g clip-path="url(#Assassin-cap_2)">
        <path
          d="M-119.286,814.134C-113.711,820.631 -88.282,837.494 -82.427,831.121C-62.88,809.844 -42.051,790.747 -18.709,773.721C-15.419,771.321 9.92,756.904 9.92,756.904C9.92,756.904 15.513,767.023 16.164,768.701C19.892,778.32 37.271,823.828 41.084,824.463C42.573,824.711 49.784,819.644 48.89,818.751C48.033,817.894 41.127,802.666 40.199,797.952C35.142,772.285 38.255,749.5 11.706,738.19L-119.286,814.134Z"
          style="fill: rgb(234, 80, 108)"
        />
      </g>
      <path
        d="M16.905,734.389C17.172,734.125 23.731,759.199 25.853,766.626C32.154,788.676 40.844,806.585 47.601,828.489C62.566,877.004 70.497,928.042 76.223,978.375C77.814,992.366 85.916,1021.08 78.186,1034.06C72.663,1043.33 22.675,1030.83 13.609,1029.24C-32.776,1021.1 -79.904,1014.64 -127.006,1013.06C-143.562,1012.51 -182.496,1020.36 -196.523,1013.85C-220.411,1002.75 -192.672,939.237 -186.239,924.171C-153.266,846.948 -109.344,772.728 -36.492,727.248"
        style="fill: none; stroke: black; stroke-width: 2.1px"
      />
      <path
        d="M8.14,736.438C8.256,735.668 8.667,737.902 8.914,738.64C9.429,740.183 9.967,741.717 10.501,743.254C12.136,747.955 13.777,752.655 15.387,757.365C20.232,771.53 24.905,785.741 29.672,799.931C35.863,818.366 40.508,837.567 45.234,856.435C52.932,887.17 59.688,919.187 64.921,943.737"
        style="fill: none; stroke: black; stroke-width: 2.1px"
      />
      <path
        d="M305.889,636.207C307.855,635.45 301.842,637.378 299.825,637.985C295.615,639.253 291.396,640.488 287.165,641.689C274.859,645.181 262.559,648.577 250.368,652.464C214.126,664.019 180.41,682.675 145.612,697.79C79.739,726.404 4.692,736.119 -52.053,782.996C-72.927,800.24 -92.054,819.189 -106.933,841.835C-111.518,848.815 -124.545,874.319 -130.788,877.027C-131.24,877.223 -131.732,877.207 -132.078,876.82C-136.35,872.035 -129.591,855.415 -127.971,850.7C-118.947,824.432 -101.681,799.938 -84.201,778.682C-12.204,691.135 114.16,669.748 216.576,635.976"
        style="fill: rgb(237, 72, 101)"
      />
      <clipPath id="Assassin-cap_3">
        <path
          d="M305.889,636.207C307.855,635.45 301.842,637.378 299.825,637.985C295.615,639.253 291.396,640.488 287.165,641.689C274.859,645.181 262.559,648.577 250.368,652.464C214.126,664.019 180.41,682.675 145.612,697.79C79.739,726.404 4.692,736.119 -52.053,782.996C-72.927,800.24 -92.054,819.189 -106.933,841.835C-111.518,848.815 -124.545,874.319 -130.788,877.027C-131.24,877.223 -131.732,877.207 -132.078,876.82C-136.35,872.035 -129.591,855.415 -127.971,850.7C-118.947,824.432 -101.681,799.938 -84.201,778.682C-12.204,691.135 114.16,669.748 216.576,635.976"
        />
      </clipPath>
      <g clip-path="url(#Assassin-cap_3)">
        <path
          d="M-176.602,940.374C-178.213,940.84 -175.082,937.381 -174.2,935.955C-172.298,932.879 -170.513,929.734 -168.591,926.669C-163.2,918.068 -157.598,909.569 -151.933,901.147C-134.797,875.673 -119.856,848.899 -100.262,825.127C-29.429,739.19 52.324,724.443 152.615,692.004C175.362,684.647 197.285,675.586 221.035,672.11C228.691,670.99 239.707,667.917 244.923,675.448C251.074,684.327 243.035,697.371 237.899,704.486C220.572,728.492 193.313,745.797 169.415,762.421C69.196,832.135 -34.752,892.383 -148.491,937.308"
          style="fill: rgb(109, 45, 74); fill-opacity: 0.7"
        />
      </g>
      <path
        d="M305.889,636.207C307.855,635.45 301.842,637.378 299.825,637.985C295.615,639.253 291.396,640.488 287.165,641.689C274.859,645.181 262.559,648.577 250.368,652.464C214.126,664.019 180.41,682.675 145.612,697.79C79.739,726.404 4.692,736.119 -52.053,782.996C-72.927,800.24 -92.054,819.189 -106.933,841.835C-111.518,848.815 -124.545,874.319 -130.788,877.027C-131.24,877.223 -131.732,877.207 -132.078,876.82C-136.35,872.035 -129.591,855.415 -127.971,850.7C-118.947,824.432 -101.681,799.938 -84.201,778.682C-12.204,691.135 114.16,669.748 216.576,635.976"
        style="fill: none; stroke: black; stroke-width: 2.1px"
      />
    </g>
    <path
      d="M294.497,626.912C225.777,645.697 160.401,673.644 93.624,698.852C63.14,710.359 18.403,720.179 -6.136,742.673C-25.53,760.451 -36.893,792.555 -48.34,815.557C-54.441,827.817 -92.078,902.343 -85.334,914.989C-82.55,920.207 -6.179,929.222 20.652,932.763C114.775,945.183 210.185,942.53 304.67,951.158C324.216,952.943 336.82,957.234 352.146,940.515C364.402,927.145 358.135,854.464 358.651,836.899C361.655,734.642 276.124,684.917 279.816,639.568L294.497,626.912Z"
      style="fill: none; stroke: black; stroke-width: 2.1px"
    />
    <g transform="matrix(-1,0,0,1,800.197,0)">
      <path
        d="M294.497,626.912C225.777,645.697 160.401,673.644 93.624,698.852C63.14,710.359 18.403,720.179 -6.136,742.673C-25.53,760.451 -36.893,792.555 -48.34,815.557C-54.441,827.817 -92.078,902.343 -85.334,914.989C-82.55,920.207 -6.179,929.222 20.652,932.763C114.775,945.183 210.185,942.53 304.67,951.158C324.216,952.943 336.82,957.234 352.146,940.515C364.402,927.145 358.135,854.464 358.651,836.899C361.655,734.642 276.124,684.917 279.816,639.568L294.497,626.912Z"
        style="fill: rgb(231, 231, 231)"
      />
      <clipPath id="Assassin-cap_4">
        <path
          d="M294.497,626.912C225.777,645.697 160.401,673.644 93.624,698.852C63.14,710.359 18.403,720.179 -6.136,742.673C-25.53,760.451 -36.893,792.555 -48.34,815.557C-54.441,827.817 -92.078,902.343 -85.334,914.989C-82.55,920.207 -6.179,929.222 20.652,932.763C114.775,945.183 210.185,942.53 304.67,951.158C324.216,952.943 336.82,957.234 352.146,940.515C364.402,927.145 358.135,854.464 358.651,836.899C361.655,734.642 276.124,684.917 279.816,639.568L294.497,626.912Z"
        />
      </clipPath>
      <g clip-path="url(#Assassin-cap_4)">
        <path
          d="M39.745,813.533C39.81,813.515 36.837,800.077 36.656,799.268C34.238,788.473 26.117,766.396 30.446,755.43C32.468,750.305 42.271,747.001 46.682,744.774C62.528,736.776 116.977,711.169 132.581,702.636C135.344,701.124 150.463,695.474 151.088,692.095C151.225,691.358 150.033,691.047 149.536,690.96C138.848,689.094 86.583,712.133 76.413,714.724C65.814,717.424 19.231,727.686 12,734.314C8.884,737.171 23.473,776.782 25.069,781.426"
          style="fill: white"
        />
        <path
          d="M99.939,700.288C98.037,697.655 101.874,719.354 103.222,726.158C107.251,746.496 114.181,766.398 120.726,786.034C139.368,841.96 161.479,895.428 189.825,947.192C197.982,962.087 209.787,996.637 231.794,988.561C239.733,985.648 280.643,965.573 282.386,956.513C283.825,949.027 256.986,905.129 252.735,896.123C230.216,848.418 206.609,798.268 188.896,748.469C185.195,738.067 176.735,694.301 169.96,688.569C166.382,685.541 130.247,694.596 125.191,695.786L99.939,700.288Z"
          style="fill: rgb(96, 69, 60)"
        />
        <clipPath id="Assassin-cap_5">
          <path
            d="M99.939,700.288C98.037,697.655 101.874,719.354 103.222,726.158C107.251,746.496 114.181,766.398 120.726,786.034C139.368,841.96 161.479,895.428 189.825,947.192C197.982,962.087 209.787,996.637 231.794,988.561C239.733,985.648 280.643,965.573 282.386,956.513C283.825,949.027 256.986,905.129 252.735,896.123C230.216,848.418 206.609,798.268 188.896,748.469C185.195,738.067 176.735,694.301 169.96,688.569C166.382,685.541 130.247,694.596 125.191,695.786L99.939,700.288Z"
          />
        </clipPath>
        <g clip-path="url(#Assassin-cap_5)">
          <path
            d="M82.873,690.695C81.687,689.671 83.725,693.712 84.244,695.19C85.325,698.268 86.485,701.336 87.811,704.318C91.805,713.306 96.858,721.238 102.938,728.929C113.691,742.533 119.61,757.179 124.668,773.749C126.525,779.832 129.228,796.188 133.28,800.239C134.22,801.179 132.76,797.63 132.419,796.345C131.712,793.687 130.989,791.033 130.29,788.372C127.699,778.517 125.601,768.704 124.652,758.551C124.603,758.026 123.855,749.55 124.224,749.576C125.502,749.667 128.204,754.28 128.963,755.187C133.098,760.13 137.699,764.692 142.742,768.712C152.707,776.655 164.463,781.857 174.952,789.012C185.068,795.911 193.819,804.594 202.418,813.26C207.378,818.259 212.385,823.517 216.294,829.4C216.761,830.103 221.13,838.67 221.71,838.554C221.926,838.511 221.621,837.059 221.602,836.929C221.012,832.798 220.456,828.668 219.95,824.526C218.102,809.386 216.836,794.234 213.456,779.327C206.041,746.626 215.362,692.978 188.356,677.553C179.084,672.257 114.791,673.093 103.069,675.242"
            style="fill: rgb(75, 44, 59)"
          />
          <path
            d="M102.881,682.891C101.233,685.211 103.95,694.921 104.282,697.483C106.317,713.198 110.332,728.402 115.151,743.471C122.746,767.218 129.133,791.409 138.145,814.681C153.554,854.471 195.605,942.154 229.591,997.704"
            style="fill: none; stroke: black; stroke-width: 2.1px"
          />
          <path
            d="M151.852,666.62C150.933,665.763 152.224,669.106 152.484,670.335C153.028,672.906 153.591,675.47 154.192,678.029C156.03,685.852 158.204,693.591 160.651,701.244C168.018,724.279 176.565,746.938 185.021,769.589C195.256,797.003 205.54,826.309 218.46,852.514C235.782,887.644 259.482,943.938 283.335,980.356"
            style="fill: none; stroke: black; stroke-width: 2.1px"
          />
        </g>
        <path
          d="M99.939,700.288C98.037,697.655 101.874,719.354 103.222,726.158C107.251,746.496 114.181,766.398 120.726,786.034C139.368,841.96 161.479,895.428 189.825,947.192C197.982,962.087 209.787,996.637 231.794,988.561C239.733,985.648 280.643,965.573 282.386,956.513C283.825,949.027 256.986,905.129 252.735,896.123C230.216,848.418 206.609,798.268 188.896,748.469C185.195,738.067 176.735,694.301 169.96,688.569C166.382,685.541 130.247,694.596 125.191,695.786L99.939,700.288Z"
          style="fill: none; stroke: black; stroke-width: 2.1px"
        />
        <path
          d="M16.905,734.389C17.172,734.125 23.731,759.199 25.853,766.626C32.154,788.676 40.844,806.585 47.601,828.489C62.566,877.004 70.497,928.042 76.223,978.375C77.814,992.366 85.916,1021.08 78.186,1034.06C72.663,1043.33 22.675,1030.83 13.609,1029.24C-32.776,1021.1 -79.904,1014.64 -127.006,1013.06C-143.562,1012.51 -182.496,1020.36 -196.523,1013.85C-220.411,1002.75 -192.672,939.237 -186.239,924.171C-153.266,846.948 -109.344,772.728 -36.492,727.248"
          style="fill: rgb(165, 35, 59)"
        />
        <clipPath id="Assassin-cap_6">
          <path
            d="M16.905,734.389C17.172,734.125 23.731,759.199 25.853,766.626C32.154,788.676 40.844,806.585 47.601,828.489C62.566,877.004 70.497,928.042 76.223,978.375C77.814,992.366 85.916,1021.08 78.186,1034.06C72.663,1043.33 22.675,1030.83 13.609,1029.24C-32.776,1021.1 -79.904,1014.64 -127.006,1013.06C-143.562,1012.51 -182.496,1020.36 -196.523,1013.85C-220.411,1002.75 -192.672,939.237 -186.239,924.171C-153.266,846.948 -109.344,772.728 -36.492,727.248"
          />
        </clipPath>
        <g clip-path="url(#Assassin-cap_6)">
          <path
            d="M-119.286,814.134C-113.711,820.631 -88.282,837.494 -82.427,831.121C-62.88,809.844 -42.051,790.747 -18.709,773.721C-15.419,771.321 9.92,756.904 9.92,756.904C9.92,756.904 15.513,767.023 16.164,768.701C19.892,778.32 37.271,823.828 41.084,824.463C42.573,824.711 49.784,819.644 48.89,818.751C48.033,817.894 41.127,802.666 40.199,797.952C35.142,772.285 38.255,749.5 11.706,738.19L-119.286,814.134Z"
            style="fill: rgb(234, 80, 108)"
          />
        </g>
        <path
          d="M16.905,734.389C17.172,734.125 23.731,759.199 25.853,766.626C32.154,788.676 40.844,806.585 47.601,828.489C62.566,877.004 70.497,928.042 76.223,978.375C77.814,992.366 85.916,1021.08 78.186,1034.06C72.663,1043.33 22.675,1030.83 13.609,1029.24C-32.776,1021.1 -79.904,1014.64 -127.006,1013.06C-143.562,1012.51 -182.496,1020.36 -196.523,1013.85C-220.411,1002.75 -192.672,939.237 -186.239,924.171C-153.266,846.948 -109.344,772.728 -36.492,727.248"
          style="fill: none; stroke: black; stroke-width: 2.1px"
        />
        <path
          d="M8.14,736.438C8.256,735.668 8.667,737.902 8.914,738.64C9.429,740.183 9.967,741.717 10.501,743.254C12.136,747.955 13.777,752.655 15.387,757.365C20.232,771.53 24.905,785.741 29.672,799.931C35.863,818.366 40.508,837.567 45.234,856.435C52.932,887.17 59.688,919.187 64.921,943.737"
          style="fill: none; stroke: black; stroke-width: 2.1px"
        />
        <path
          d="M305.889,636.207C307.855,635.45 301.842,637.378 299.825,637.985C295.615,639.253 291.396,640.488 287.165,641.689C274.859,645.181 262.559,648.577 250.368,652.464C214.126,664.019 180.41,682.675 145.612,697.79C79.739,726.404 4.692,736.119 -52.053,782.996C-72.927,800.24 -92.054,819.189 -106.933,841.835C-111.518,848.815 -124.545,874.319 -130.788,877.027C-131.24,877.223 -131.732,877.207 -132.078,876.82C-136.35,872.035 -129.591,855.415 -127.971,850.7C-118.947,824.432 -101.681,799.938 -84.201,778.682C-12.204,691.135 114.16,669.748 216.576,635.976"
          style="fill: rgb(237, 72, 101)"
        />
        <clipPath id="Assassin-cap_7">
          <path
            d="M305.889,636.207C307.855,635.45 301.842,637.378 299.825,637.985C295.615,639.253 291.396,640.488 287.165,641.689C274.859,645.181 262.559,648.577 250.368,652.464C214.126,664.019 180.41,682.675 145.612,697.79C79.739,726.404 4.692,736.119 -52.053,782.996C-72.927,800.24 -92.054,819.189 -106.933,841.835C-111.518,848.815 -124.545,874.319 -130.788,877.027C-131.24,877.223 -131.732,877.207 -132.078,876.82C-136.35,872.035 -129.591,855.415 -127.971,850.7C-118.947,824.432 -101.681,799.938 -84.201,778.682C-12.204,691.135 114.16,669.748 216.576,635.976"
          />
        </clipPath>
        <g clip-path="url(#Assassin-cap_7)">
          <path
            d="M-176.602,940.374C-178.213,940.84 -175.082,937.381 -174.2,935.955C-172.298,932.879 -170.513,929.734 -168.591,926.669C-163.2,918.068 -157.598,909.569 -151.933,901.147C-134.797,875.673 -119.856,848.899 -100.262,825.127C-29.429,739.19 52.324,724.443 152.615,692.004C175.362,684.647 197.285,675.586 221.035,672.11C228.691,670.99 239.707,667.917 244.923,675.448C251.074,684.327 243.035,697.371 237.899,704.486C220.572,728.492 193.313,745.797 169.415,762.421C69.196,832.135 -34.752,892.383 -148.491,937.308"
            style="fill: rgb(109, 45, 74); fill-opacity: 0.7"
          />
        </g>
        <path
          d="M305.889,636.207C307.855,635.45 301.842,637.378 299.825,637.985C295.615,639.253 291.396,640.488 287.165,641.689C274.859,645.181 262.559,648.577 250.368,652.464C214.126,664.019 180.41,682.675 145.612,697.79C79.739,726.404 4.692,736.119 -52.053,782.996C-72.927,800.24 -92.054,819.189 -106.933,841.835C-111.518,848.815 -124.545,874.319 -130.788,877.027C-131.24,877.223 -131.732,877.207 -132.078,876.82C-136.35,872.035 -129.591,855.415 -127.971,850.7C-118.947,824.432 -101.681,799.938 -84.201,778.682C-12.204,691.135 114.16,669.748 216.576,635.976"
          style="fill: none; stroke: black; stroke-width: 2.1px"
        />
      </g>
      <path
        d="M294.497,626.912C225.777,645.697 160.401,673.644 93.624,698.852C63.14,710.359 18.403,720.179 -6.136,742.673C-25.53,760.451 -36.893,792.555 -48.34,815.557C-54.441,827.817 -92.078,902.343 -85.334,914.989C-82.55,920.207 -6.179,929.222 20.652,932.763C114.775,945.183 210.185,942.53 304.67,951.158C324.216,952.943 336.82,957.234 352.146,940.515C364.402,927.145 358.135,854.464 358.651,836.899C361.655,734.642 276.124,684.917 279.816,639.568L294.497,626.912Z"
        style="fill: none; stroke: black; stroke-width: 2.1px"
      />
    </g>
  </g>
  <g id="assassin-collar" transform="matrix(0.990533,0,0,0.990533,3.78391,1.08813)">
    <path
      id="shadow1"
      d="M292.885,607.359C293.94,606.858 292.704,609.686 292.632,610.851C292.494,613.09 292.349,615.329 292.223,617.569C291.844,624.346 291.882,631.179 293.107,637.871C296.68,657.384 313.753,682.431 324.724,698.695C345.766,729.889 363.748,760.16 371.589,797.509C377.266,824.556 374.925,848.762 374.232,869.907C373.78,883.68 372.591,894.404 369.809,907.902C369.053,911.571 368.792,919.715 365.67,922.439C363.882,923.999 361.189,919.127 360.569,918.121C356.857,912.102 353.868,905.516 351.002,899.066C338.272,870.424 332.005,840.013 324.368,809.767C320.473,794.34 315.971,779.1 310.468,764.164C306.73,754.018 302.682,743.998 298.529,734.017C295.341,726.354 292.066,718.727 288.889,711.06C277.121,682.658 261.397,634.785 286.17,607.535L292.885,607.359ZM507.211,607.359C506.157,606.858 507.393,609.686 507.465,610.851C507.603,613.09 507.748,615.329 507.874,617.569C508.253,624.346 508.215,631.179 506.99,637.871C503.417,657.384 491.062,676.957 480.091,693.221C459.049,724.415 432.858,756.066 425.018,793.416C419.341,820.463 425.171,848.762 425.865,869.907C426.316,883.68 427.506,894.404 430.288,907.902C431.044,911.571 431.305,919.715 434.427,922.439C436.215,923.999 438.908,919.127 439.528,918.121C443.239,912.102 446.228,905.516 449.095,899.066C461.825,870.424 468.092,840.013 475.728,809.767C479.624,794.34 484.126,779.1 489.629,764.164C493.367,754.018 497.415,743.998 501.568,734.017C504.756,726.354 508.031,718.727 511.208,711.06C522.976,682.658 538.7,634.785 513.927,607.535L507.211,607.359Z"
      style="fill: rgb(56, 25, 57); fill-opacity: 0.5"
    />
    <g id="collar">
      <g transform="matrix(-1,0,0,1,798.8,0)">
        <path
          d="M280.908,658.174C284.689,663.042 286.531,671.551 289.302,677.108C296.497,691.536 304.36,705.589 312.339,719.593C346.6,779.73 368.233,797.056 376.537,868.529C378.483,885.28 377.362,902.802 379.281,919.556C379.444,920.975 382.048,933.92 380.277,934.628C379.057,935.116 320.626,929.426 317.563,914.916C311.526,886.319 261.29,842.527 243.578,816.25C220.782,782.43 233.659,749.989 257.185,678.569L280.908,658.174Z"
          style="fill: rgb(231, 231, 231)"
        />
        <clipPath id="Assassin-cap_9">
          <path
            d="M280.908,658.174C284.689,663.042 286.531,671.551 289.302,677.108C296.497,691.536 304.36,705.589 312.339,719.593C346.6,779.73 368.233,797.056 376.537,868.529C378.483,885.28 377.362,902.802 379.281,919.556C379.444,920.975 382.048,933.92 380.277,934.628C379.057,935.116 320.626,929.426 317.563,914.916C311.526,886.319 261.29,842.527 243.578,816.25C220.782,782.43 233.659,749.989 257.185,678.569L280.908,658.174Z"
          />
        </clipPath>
        <g clip-path="url(#Assassin-cap_9)">
          <g transform="matrix(-0.854447,0,0,0.854447,740.621,167.596)">
            <path
              d="M533.734,660.01C533.051,659.253 542.09,681.182 543.528,687.644C547.675,706.277 541.375,726.212 535.435,744.178C527.205,769.071 516.656,790.332 502.419,812.083C496.938,820.457 491.117,828.577 485.149,836.609C484.519,837.458 479.064,843.776 481.7,844.56C486.558,846.004 495.262,839.891 499.233,837.871C514.156,830.277 529.163,821.747 542.165,811.12C571.3,787.308 589.578,763.937 600.675,728.036C603.848,717.769 609.651,707.863 607.209,696.778C603.718,680.934 588.678,666.442 577.858,655.125"
              style="fill: rgb(165, 35, 59); stroke: black; stroke-width: 2.1px"
            />
          </g>
          <g transform="matrix(-0.854447,0,0,0.854447,740.621,167.596)">
            <path
              d="M622.443,691.318C587.972,719.183 585.29,748.643 556.114,781.531C546.198,792.707 535.726,803.394 525.387,814.174C521.423,818.306 517.315,822.412 513.667,826.831C513.171,827.432 510.067,830.954 511.97,831.525C514.95,832.419 519.827,829.661 522.402,828.51C532.295,824.091 541.522,818.09 549.942,811.302C580.287,786.837 593.431,760.703 610.428,727.62C617.865,713.144 633.801,707.044 622.443,691.318Z"
              style="fill: rgb(231, 231, 231); stroke: black; stroke-width: 2.1px"
            />
          </g>
          <g transform="matrix(-0.854447,0,0,0.854447,740.621,167.596)">
            <path
              d="M614.185,767.953C610.3,770.7 593.293,763.014 589.554,761.875C566.396,754.822 544.748,747.091 520.162,746.814C489.141,746.464 462.11,753.814 441.514,778.215C433.286,787.962 426.978,799.254 421.875,810.903C421.166,812.522 418.483,821.721 415.968,821.592C415.369,821.561 415.204,820.633 415.124,820.194C413.664,812.163 417.294,801.65 419.028,793.933C419.146,793.407 419.266,792.881 419.386,792.356C425.945,763.758 438.372,737.596 461.63,718.771C492.426,693.844 539.575,679.697 575.012,703.803C589.167,713.432 598.887,728.487 607.53,742.927"
              style="fill: rgb(76, 13, 78); fill-opacity: 0.5"
            />
          </g>
        </g>
        <path
          d="M280.908,658.174C284.689,663.042 286.531,671.551 289.302,677.108C296.497,691.536 304.36,705.589 312.339,719.593C346.6,779.73 368.233,797.056 376.537,868.529C378.483,885.28 377.362,902.802 379.281,919.556C379.444,920.975 382.048,933.92 380.277,934.628C379.057,935.116 320.626,929.426 317.563,914.916C311.526,886.319 261.29,842.527 243.578,816.25C220.782,782.43 233.659,749.989 257.185,678.569L280.908,658.174Z"
          style="fill: none; stroke: black; stroke-width: 2.1px"
        />
      </g>
      <g transform="matrix(1,0,0,1,-0.246501,0)">
        <path
          d="M280.908,658.174C284.689,663.042 286.531,671.551 289.302,677.108C296.497,691.536 304.36,705.589 312.339,719.593C346.6,779.73 368.233,797.056 376.537,868.529C378.483,885.28 377.362,902.802 379.281,919.556C379.444,920.975 382.048,933.92 380.277,934.628C379.057,935.116 320.626,929.426 317.563,914.916C311.526,886.319 261.29,842.527 243.578,816.25C220.782,782.43 233.659,749.989 257.185,678.569L280.908,658.174Z"
          style="fill: rgb(231, 231, 231)"
        />
        <clipPath id="Assassin-cap_10">
          <path
            d="M280.908,658.174C284.689,663.042 286.531,671.551 289.302,677.108C296.497,691.536 304.36,705.589 312.339,719.593C346.6,779.73 368.233,797.056 376.537,868.529C378.483,885.28 377.362,902.802 379.281,919.556C379.444,920.975 382.048,933.92 380.277,934.628C379.057,935.116 320.626,929.426 317.563,914.916C311.526,886.319 261.29,842.527 243.578,816.25C220.782,782.43 233.659,749.989 257.185,678.569L280.908,658.174Z"
          />
        </clipPath>
        <g clip-path="url(#Assassin-cap_10)">
          <g transform="matrix(-0.854447,0,0,0.854447,740.621,167.596)">
            <path
              d="M533.734,660.01C533.051,659.253 542.09,681.182 543.528,687.644C547.675,706.277 541.375,726.212 535.435,744.178C527.205,769.071 516.656,790.332 502.419,812.083C496.938,820.457 491.117,828.577 485.149,836.609C484.519,837.458 479.064,843.776 481.7,844.56C486.558,846.004 495.262,839.891 499.233,837.871C514.156,830.277 529.163,821.747 542.165,811.12C571.3,787.308 589.578,763.937 600.675,728.036C603.848,717.769 609.651,707.863 607.209,696.778C603.718,680.934 588.678,666.442 577.858,655.125"
              style="fill: rgb(165, 35, 59); stroke: black; stroke-width: 2.1px"
            />
          </g>
          <g transform="matrix(-0.854447,0,0,0.854447,740.621,167.596)">
            <path
              d="M622.443,691.318C587.972,719.183 585.29,748.643 556.114,781.531C546.198,792.707 535.726,803.394 525.387,814.174C521.423,818.306 517.315,822.412 513.667,826.831C513.171,827.432 510.067,830.954 511.97,831.525C514.95,832.419 519.827,829.661 522.402,828.51C532.295,824.091 541.522,818.09 549.942,811.302C580.287,786.837 593.431,760.703 610.428,727.62C617.865,713.144 633.801,707.044 622.443,691.318Z"
              style="fill: rgb(231, 231, 231); stroke: black; stroke-width: 2.1px"
            />
          </g>
          <g transform="matrix(-0.854447,0,0,0.854447,740.621,167.596)">
            <path
              d="M614.185,767.953C610.3,770.7 593.293,763.014 589.554,761.875C566.396,754.822 544.748,747.091 520.162,746.814C489.141,746.464 462.11,753.814 441.514,778.215C433.286,787.962 426.978,799.254 421.875,810.903C421.166,812.522 418.483,821.721 415.968,821.592C415.369,821.561 415.204,820.633 415.124,820.194C413.664,812.163 417.294,801.65 419.028,793.933C419.146,793.407 419.266,792.881 419.386,792.356C425.945,763.758 438.372,737.596 461.63,718.771C492.426,693.844 539.575,679.697 575.012,703.803C589.167,713.432 598.887,728.487 607.53,742.927"
              style="fill: rgb(76, 13, 78); fill-opacity: 0.5"
            />
          </g>
        </g>
        <path
          d="M280.908,658.174C284.689,663.042 286.531,671.551 289.302,677.108C296.497,691.536 304.36,705.589 312.339,719.593C346.6,779.73 368.233,797.056 376.537,868.529C378.483,885.28 377.362,902.802 379.281,919.556C379.444,920.975 382.048,933.92 380.277,934.628C379.057,935.116 320.626,929.426 317.563,914.916C311.526,886.319 261.29,842.527 243.578,816.25C220.782,782.43 233.659,749.989 257.185,678.569L280.908,658.174Z"
          style="fill: none; stroke: black; stroke-width: 2.1px"
        />
      </g>
      <path
        d="M293.103,604.868C293.103,604.868 266.006,609.898 250.473,639.285C234.939,668.672 231.64,707.449 227.196,727.206C222.752,746.964 208.067,803.089 202.633,811.867C197.198,820.644 193.267,828.004 193.267,828.004C193.267,828.004 217.496,824.198 226.938,815.287C236.38,806.377 245.384,794.345 254.937,788.329C264.49,782.314 274.754,775.339 292.195,775.526C309.635,775.712 325.821,777.709 341.259,787.677C356.697,797.646 365.289,816.789 365.289,816.789C365.289,816.789 364.123,776.697 352.766,754.114C340.89,730.499 330.189,711.629 324.119,702.938C318.049,694.248 291.072,667.253 288.697,657.133C286.322,647.014 282.58,630.083 293.103,604.868Z"
        style="fill: rgb(231, 231, 231)"
      />
      <clipPath id="Assassin-cap_11">
        <path
          d="M293.103,604.868C293.103,604.868 266.006,609.898 250.473,639.285C234.939,668.672 231.64,707.449 227.196,727.206C222.752,746.964 208.067,803.089 202.633,811.867C197.198,820.644 193.267,828.004 193.267,828.004C193.267,828.004 217.496,824.198 226.938,815.287C236.38,806.377 245.384,794.345 254.937,788.329C264.49,782.314 274.754,775.339 292.195,775.526C309.635,775.712 325.821,777.709 341.259,787.677C356.697,797.646 365.289,816.789 365.289,816.789C365.289,816.789 364.123,776.697 352.766,754.114C340.89,730.499 330.189,711.629 324.119,702.938C318.049,694.248 291.072,667.253 288.697,657.133C286.322,647.014 282.58,630.083 293.103,604.868Z"
        />
      </clipPath>
      <g clip-path="url(#Assassin-cap_11)">
        <path
          d="M212.024,736.163C213.819,727.509 225.282,713.082 230.03,705.409C237.192,693.835 246.229,666.747 260.288,662.856C270.679,659.98 278.139,670.796 281.854,678.65C286.234,687.91 289.997,697.244 295.435,705.989C304.964,721.311 316.594,736.324 320.412,754.348C320.75,755.944 321.074,757.552 321.35,759.16C322.43,765.433 320.636,766.014 314.364,766.014C312.422,766.014 310.481,766.093 308.542,766.191C304.156,766.412 299.805,767.001 295.48,767.747C280.276,770.368 265.25,775.523 253.919,786.361C249.826,790.276 246.601,794.998 243.429,799.661C242.704,800.726 240.039,803.579 240.405,805.041C240.708,806.253 244.356,804.388 244.836,804.175C249.645,802.037 254.173,799.287 258.93,797.034C270.935,791.347 283.346,787.844 296.688,787.619C313.36,787.338 330.129,791.457 344.065,800.748C346.229,802.191 356.222,808.948 359.02,804.55C360.133,802.801 358.619,799.847 357.977,798.204C355.744,792.491 352.378,787.263 350.113,781.521C346.195,771.592 343.854,761.107 339.76,751.23C334.193,737.797 326.631,725.028 320.258,711.96C309.091,689.063 295.973,667.927 294.53,641.808C293.934,631.014 295.696,620.635 297.372,610.027C297.977,606.205 299.441,599.719 296.644,596.396C292.904,591.954 285.704,593.43 280.966,594.746C267.657,598.443 255.483,606.73 245.774,616.395C238.361,623.775 232.275,632.485 227.259,641.643C218.407,657.806 213.824,675.68 210.312,693.638"
          style="fill: rgb(173, 144, 174)"
        />
        <path
          d="M241.609,658.712C240.261,658.002 240.85,661.664 240.516,663.151C239.85,666.122 239.176,669.095 238.581,672.082C236.794,681.052 235.488,690.129 234.631,699.235C231.771,729.624 224.975,760.95 217.039,790.389C215.928,794.508 210.534,818.119 205.662,818.119C191.906,818.119 198.134,791.831 199.365,784.889C205.164,752.183 215.539,717.94 228.61,687.318"
          style="fill: rgb(231, 231, 231)"
        />
      </g>
      <path
        d="M293.103,604.868C293.103,604.868 266.006,609.898 250.473,639.285C234.939,668.672 231.64,707.449 227.196,727.206C222.752,746.964 208.067,803.089 202.633,811.867C197.198,820.644 193.267,828.004 193.267,828.004C193.267,828.004 217.496,824.198 226.938,815.287C236.38,806.377 245.384,794.345 254.937,788.329C264.49,782.314 274.754,775.339 292.195,775.526C309.635,775.712 325.821,777.709 341.259,787.677C356.697,797.646 365.289,816.789 365.289,816.789C365.289,816.789 364.123,776.697 352.766,754.114C340.89,730.499 330.189,711.629 324.119,702.938C318.049,694.248 291.072,667.253 288.697,657.133C286.322,647.014 282.58,630.083 293.103,604.868Z"
        style="fill: none; stroke: black; stroke-width: 2.1px"
      />
      <g transform="matrix(-1,0,0,1,799.422,0)">
        <path
          d="M293.103,604.868C293.103,604.868 266.006,609.898 250.473,639.285C234.939,668.672 231.64,707.449 227.196,727.206C222.752,746.964 208.067,803.089 202.633,811.867C197.198,820.644 193.267,828.004 193.267,828.004C193.267,828.004 217.496,824.198 226.938,815.287C236.38,806.377 245.384,794.345 254.937,788.329C264.49,782.314 274.754,775.339 292.195,775.526C309.635,775.712 325.821,777.709 341.259,787.677C356.697,797.646 367.645,820.734 367.645,820.734C367.645,820.734 362.609,774.991 353.387,756.877C344.165,738.763 329.64,713.057 323.57,704.367C317.5,695.676 291.072,667.253 288.697,657.133C286.322,647.014 282.58,630.083 293.103,604.868Z"
          style="fill: rgb(231, 231, 231)"
        />
        <clipPath id="Assassin-cap_12">
          <path
            d="M293.103,604.868C293.103,604.868 266.006,609.898 250.473,639.285C234.939,668.672 231.64,707.449 227.196,727.206C222.752,746.964 208.067,803.089 202.633,811.867C197.198,820.644 193.267,828.004 193.267,828.004C193.267,828.004 217.496,824.198 226.938,815.287C236.38,806.377 245.384,794.345 254.937,788.329C264.49,782.314 274.754,775.339 292.195,775.526C309.635,775.712 325.821,777.709 341.259,787.677C356.697,797.646 367.645,820.734 367.645,820.734C367.645,820.734 362.609,774.991 353.387,756.877C344.165,738.763 329.64,713.057 323.57,704.367C317.5,695.676 291.072,667.253 288.697,657.133C286.322,647.014 282.58,630.083 293.103,604.868Z"
          />
        </clipPath>
        <g clip-path="url(#Assassin-cap_12)">
          <path
            d="M212.024,736.163C213.819,727.509 225.282,713.082 230.03,705.409C237.192,693.835 246.229,666.747 260.288,662.856C270.679,659.98 278.139,670.796 281.854,678.65C286.234,687.91 289.997,697.244 295.435,705.989C304.964,721.311 316.594,736.324 320.412,754.348C320.75,755.944 321.074,757.552 321.35,759.16C322.43,765.433 320.636,766.014 314.364,766.014C312.422,766.014 310.481,766.093 308.542,766.191C304.156,766.412 299.805,767.001 295.48,767.747C280.276,770.368 265.25,775.523 253.919,786.361C249.826,790.276 246.601,794.998 243.429,799.661C242.704,800.726 240.039,803.579 240.405,805.041C240.708,806.253 244.356,804.388 244.836,804.175C249.645,802.037 254.173,799.287 258.93,797.034C270.935,791.347 283.346,787.844 296.688,787.619C313.36,787.338 330.129,791.457 344.065,800.748C346.229,802.191 356.222,808.948 359.02,804.55C360.133,802.801 358.619,799.847 357.977,798.204C355.744,792.491 352.378,787.263 350.113,781.521C346.195,771.592 343.854,761.107 339.76,751.23C334.193,737.797 326.631,725.028 320.258,711.96C309.091,689.063 295.973,667.927 294.53,641.808C293.934,631.014 295.696,620.635 297.372,610.027C297.977,606.205 299.441,599.719 296.644,596.396C292.904,591.954 285.704,593.43 280.966,594.746C267.657,598.443 255.483,606.73 245.774,616.395C238.361,623.775 232.275,632.485 227.259,641.643C218.407,657.806 213.824,675.68 210.312,693.638"
            style="fill: rgb(173, 144, 174)"
          />
          <path
            d="M241.609,658.712C240.261,658.002 240.85,661.664 240.516,663.151C239.85,666.122 239.176,669.095 238.581,672.082C236.794,681.052 235.488,690.129 234.631,699.235C231.771,729.624 224.975,760.95 217.039,790.389C215.928,794.508 210.534,818.119 205.662,818.119C191.906,818.119 198.134,791.831 199.365,784.889C205.164,752.183 215.539,717.94 228.61,687.318"
            style="fill: rgb(231, 231, 231)"
          />
        </g>
        <path
          d="M293.103,604.868C293.103,604.868 266.006,609.898 250.473,639.285C234.939,668.672 231.64,707.449 227.196,727.206C222.752,746.964 208.067,803.089 202.633,811.867C197.198,820.644 193.267,828.004 193.267,828.004C193.267,828.004 217.496,824.198 226.938,815.287C236.38,806.377 245.384,794.345 254.937,788.329C264.49,782.314 274.754,775.339 292.195,775.526C309.635,775.712 325.821,777.709 341.259,787.677C356.697,797.646 367.645,820.734 367.645,820.734C367.645,820.734 362.609,774.991 353.387,756.877C344.165,738.763 329.64,713.057 323.57,704.367C317.5,695.676 291.072,667.253 288.697,657.133C286.322,647.014 282.58,630.083 293.103,604.868Z"
          style="fill: none; stroke: black; stroke-width: 2.1px"
        />
      </g>
    </g>
  </g>
</svg>
