<svg
  width="100%"
  height="100%"
  viewBox="0 0 800 800"
  xmlns="http://www.w3.org/2000/svg"
>
  <g id="hairstyles-back">
    <g id="hairstyle-7-back">
      <path
        d="M458.145,53.085C427.573,43.404 377.946,39.171 362.286,44.919C335.857,54.619 279.25,75.499 271.539,84.686C257.784,101.074 240.471,113.748 226.773,134.581C222.389,141.248 212.66,167.441 209.849,176.728C203.965,196.171 199.934,215.598 196.381,234.787C194.202,246.554 192.635,258.96 190.74,271.282C189.153,281.596 193.916,291.023 194.739,301.135C195.857,314.879 193.75,331.723 192.318,345.472C190.424,363.653 176.12,381.617 175.218,399.645C174.894,406.135 180.693,412.587 181.79,418.95C182.551,423.365 183.779,458.757 188.448,460.455C190.52,461.209 194.196,455.075 196.511,454.38C198.89,453.667 201.035,457.477 202.867,456.866C204.449,456.339 205.557,452.549 206.65,451.311C208.088,449.681 211.646,450.67 212.724,449.322C217.421,443.451 217.932,433.192 223.252,426.473C225.286,423.903 233.482,407.497 238.081,412.097C238.625,412.64 238.179,413.632 237.909,414.172C233.716,422.557 231.728,432.257 229.262,441.302C227.658,447.181 223.469,453.294 223.728,459.504C223.904,463.745 228.525,465.492 229.672,469.318C234.357,484.932 231.603,502.97 250.663,508.835C254.243,509.936 258.861,496.946 259.872,494.567C262.734,487.832 268.24,487.43 272.194,482.159C272.532,481.708 274.866,478.065 275.371,478.57C277.506,480.705 273.753,512.537 277.468,519.967C280.112,525.255 287.965,530.675 291.476,535.899C297.344,544.629 298.353,556.812 304.814,564.888C312.657,574.692 321.9,575.111 330.56,581.447C336.616,585.878 339.702,592.49 345.022,597.53C350.695,602.905 360.467,606.07 367.418,609.723C377.054,614.786 387.613,625.853 398.979,626.887C404.422,627.382 412.554,621.164 414.935,617.538C422.271,606.367 432.494,606.151 443.51,598.676C447.026,596.29 462.411,591.116 473.531,579.104C480.712,571.347 498.609,540.759 505.812,531.014C509.016,526.679 513.675,532.807 517.204,531.468C520.004,530.406 528.223,520.129 530.131,517.179C535.657,508.64 521.576,471.809 534.52,463.719C534.695,463.61 537.912,469.603 543.015,472.02C547.82,474.296 585.414,495.056 588.693,491.368C591.649,488.042 589.091,477.691 588.606,473.814C586.47,456.726 577.757,442.187 576.695,424.484C576.322,418.266 570.638,406.17 579.786,403.882C584.718,402.65 584.623,412.394 587.439,414.713C589.963,416.792 594.522,416.416 597.469,417.782C603.658,420.65 613.492,429.362 617.638,434.752C619.28,436.886 626.429,453.432 629.312,450.165C635.288,443.392 632.744,431.753 633.03,423.749C633.626,407.063 638.291,395.348 632.554,378.136C628.972,367.39 616.839,357.505 615.693,345.753C615.115,339.827 614.553,316.439 614.071,311.516C612.975,300.335 609.65,290.702 608.321,278.74C607.268,269.257 611.266,260.985 609.791,251.329C608.439,242.479 607.372,234.672 606.858,225.932C606.277,216.044 603.962,205.933 601.447,195.664C598.644,184.218 591.591,171.275 588.169,159.642C583.943,145.274 557.5,111.812 552.811,105.248C542.425,90.707 489.9,63.14 458.145,53.085Z"
        style="
          fill: rgb(
            var(--color_hairs_r, 183),
            var(--color_hairs_g, 55),
            var(--color_hairs_b, 88)
          );
        "
      />
      <clipPath id="_clip1_hair7">
        <path
          d="M458.145,53.085C427.573,43.404 377.946,39.171 362.286,44.919C335.857,54.619 279.25,75.499 271.539,84.686C257.784,101.074 240.471,113.748 226.773,134.581C222.389,141.248 212.66,167.441 209.849,176.728C203.965,196.171 199.934,215.598 196.381,234.787C194.202,246.554 192.635,258.96 190.74,271.282C189.153,281.596 193.916,291.023 194.739,301.135C195.857,314.879 193.75,331.723 192.318,345.472C190.424,363.653 176.12,381.617 175.218,399.645C174.894,406.135 180.693,412.587 181.79,418.95C182.551,423.365 183.779,458.757 188.448,460.455C190.52,461.209 194.196,455.075 196.511,454.38C198.89,453.667 201.035,457.477 202.867,456.866C204.449,456.339 205.557,452.549 206.65,451.311C208.088,449.681 211.646,450.67 212.724,449.322C217.421,443.451 217.932,433.192 223.252,426.473C225.286,423.903 233.482,407.497 238.081,412.097C238.625,412.64 238.179,413.632 237.909,414.172C233.716,422.557 231.728,432.257 229.262,441.302C227.658,447.181 223.469,453.294 223.728,459.504C223.904,463.745 228.525,465.492 229.672,469.318C234.357,484.932 231.603,502.97 250.663,508.835C254.243,509.936 258.861,496.946 259.872,494.567C262.734,487.832 268.24,487.43 272.194,482.159C272.532,481.708 274.866,478.065 275.371,478.57C277.506,480.705 273.753,512.537 277.468,519.967C280.112,525.255 287.965,530.675 291.476,535.899C297.344,544.629 298.353,556.812 304.814,564.888C312.657,574.692 321.9,575.111 330.56,581.447C336.616,585.878 339.702,592.49 345.022,597.53C350.695,602.905 360.467,606.07 367.418,609.723C377.054,614.786 387.613,625.853 398.979,626.887C404.422,627.382 412.554,621.164 414.935,617.538C422.271,606.367 432.494,606.151 443.51,598.676C447.026,596.29 462.411,591.116 473.531,579.104C480.712,571.347 498.609,540.759 505.812,531.014C509.016,526.679 513.675,532.807 517.204,531.468C520.004,530.406 528.223,520.129 530.131,517.179C535.657,508.64 521.576,471.809 534.52,463.719C534.695,463.61 537.912,469.603 543.015,472.02C547.82,474.296 585.414,495.056 588.693,491.368C591.649,488.042 589.091,477.691 588.606,473.814C586.47,456.726 577.757,442.187 576.695,424.484C576.322,418.266 570.638,406.17 579.786,403.882C584.718,402.65 584.623,412.394 587.439,414.713C589.963,416.792 594.522,416.416 597.469,417.782C603.658,420.65 613.492,429.362 617.638,434.752C619.28,436.886 626.429,453.432 629.312,450.165C635.288,443.392 632.744,431.753 633.03,423.749C633.626,407.063 638.291,395.348 632.554,378.136C628.972,367.39 616.839,357.505 615.693,345.753C615.115,339.827 614.553,316.439 614.071,311.516C612.975,300.335 609.65,290.702 608.321,278.74C607.268,269.257 611.266,260.985 609.791,251.329C608.439,242.479 607.372,234.672 606.858,225.932C606.277,216.044 603.962,205.933 601.447,195.664C598.644,184.218 591.591,171.275 588.169,159.642C583.943,145.274 557.5,111.812 552.811,105.248C542.425,90.707 489.9,63.14 458.145,53.085Z"
        />
      </clipPath>
      <g clip-path="url(#_clip1_hair7)">
        <g>
          <path
            d="M516.335,540.197C514.939,539.003 517.44,535.039 519.05,531.939C522.931,524.466 524.599,518.419 523.789,510.088C522.679,498.663 522.339,487.5 522.967,476C523.017,475.082 523.258,465.122 524.201,465.06C524.402,465.046 524.602,465.482 524.658,465.593C527.523,471.324 528.528,478.472 530.052,484.625C534.544,502.757 546.7,524.86 530.067,540.106L516.335,540.197ZM267.979,492.983C269.986,490.657 279.328,474.375 281.689,475.162C283.75,475.849 280.976,487.641 280.928,489.151C280.538,501.37 279.353,513.393 279.739,525.645C279.825,528.372 281.285,536.515 278.962,538.598C276.33,540.957 270.77,525.634 270.383,524.457C269.021,520.31 267.993,516.086 267.29,511.779L267.979,492.983ZM584.59,504.554C584.587,504.556 583.343,493.653 583.233,492.396C582.544,484.577 581.189,476.84 579.454,469.189C575.137,450.164 569.315,434.706 570.646,414.744C570.938,410.365 569.997,402.279 572.459,398.409C572.607,398.178 576.683,408.175 577.015,409.121C579.389,415.879 581.735,422.639 584.223,429.357C591.132,448.011 604.353,477.619 594.036,496.907L584.59,504.554ZM231.564,429.343C231.655,428.536 232.165,430.879 232.222,431.689C232.338,433.361 232.213,434.974 231.971,436.631C231.179,442.049 231.404,446.587 231.84,451.969C232.164,455.96 231.285,459.858 232.014,463.845C233.617,472.616 237.171,480.617 236.907,489.705C236.851,491.612 237.227,500.835 235.102,501.703C234.071,502.123 232.876,499.217 232.595,498.675C230.521,494.671 228.866,490.43 227.139,486.27C224.097,478.943 219.656,470.93 218.897,462.908C218.217,455.711 220.794,448.333 223.625,441.845L231.564,429.343ZM188.547,356.88C188.662,356.674 189.01,357.836 189.073,358.045C189.359,358.999 189.614,359.972 189.801,360.951C190.384,363.997 190.61,366.901 189.958,369.947C188.094,378.642 186.107,387.373 184.683,396.154C183.962,400.598 182.336,406.444 183.529,410.875C184.542,414.635 187.657,417.557 188.535,421.32C189.409,425.068 188.015,429.355 187.98,433.153C187.932,438.244 189.566,442.837 188.838,447.978C188.245,452.17 188.005,456.394 187.433,460.583C187.283,461.683 187.135,464.488 185.568,464.6C183.157,464.772 181.068,460.677 180.155,459.048C176.815,453.091 174.411,446.447 172.304,439.971C163.804,413.852 166.994,384.506 183.087,361.74L188.547,356.88ZM627.324,463.555C628.374,461.651 627.546,439.913 627.377,436.367C626.287,413.477 628.734,391.356 621.327,369.137C617.799,358.553 600.074,355.309 606.394,338.646C606.947,337.188 614.211,344.496 615.049,345.305C623.147,353.123 631.343,361.756 636.108,372.047C648.793,399.447 647.359,433.261 641.015,462.119L627.324,463.555Z"
            style="fill: rgb(235, 214, 197)"
          />
          <g>
            <path
              d="M185.052,383.777C185.016,383.825 186.871,384.262 187.107,384.315C188.441,384.613 189.662,385.173 190.961,385.523"
              style="
                fill: none;
                stroke: rgb(235, 214, 197);
                stroke-width: 4.05px;
              "
            />
            <path
              d="M181.963,396.237C181.87,395.557 183.237,396.75 183.868,397.021C185.057,397.531 186.301,397.943 187.515,398.392"
              style="
                fill: none;
                stroke: rgb(235, 214, 197);
                stroke-width: 4.05px;
              "
            />
            <path
              d="M234.408,440.961C234.36,440.918 236.105,440.75 236.282,440.749C237.629,440.741 238.943,441.068 240.223,441.465"
              style="
                fill: none;
                stroke: rgb(235, 214, 197);
                stroke-width: 4.05px;
              "
            />
            <path
              d="M229.068,453.427C228.312,453.295 230.578,453.109 231.345,453.081C232.869,453.025 234.397,453.104 235.904,453.337"
              style="
                fill: none;
                stroke: rgb(235, 214, 197);
                stroke-width: 4.05px;
              "
            />
            <path
              d="M613.054,372.844C612.808,373.168 613.545,372.188 613.851,371.921C614.412,371.43 614.998,370.962 615.596,370.518C617.42,369.165 619.417,367.951 621.478,366.996"
              style="
                fill: none;
                stroke: rgb(235, 214, 197);
                stroke-width: 4.05px;
              "
            />
            <path
              d="M619.343,383.093C619.835,381.552 624.267,380.084 625.593,379.452"
              style="
                fill: none;
                stroke: rgb(235, 214, 197);
                stroke-width: 4.05px;
              "
            />
          </g>
        </g>
        <g>
          <path
            d="M247.246,413.674C247.375,413.755 248.464,417.735 248.649,418.164C250.529,422.536 253.603,427.119 254.49,431.85C254.995,434.546 253.186,438.082 252.436,440.597C251.212,444.702 250.695,448.984 250.151,453.221C248.452,466.475 251.942,478.869 248.779,492.106C247.293,498.326 238.74,507.367 241.665,513.717C245.014,520.986 251.198,513.699 253.708,510.08C257.349,504.831 260.84,499.624 265.31,495.041C266.504,493.818 268.794,491.054 270.751,490.923C272.852,490.783 276.056,492.671 277.794,493.588C279.296,494.381 281.019,495.259 282.123,496.584C285.478,500.611 285.032,507.732 284.868,512.555C284.576,521.125 283.235,533.806 286.361,541.74C287.957,545.793 289.329,555.317 293.1,556.84C294.459,557.389 320.606,589.496 324.644,600.653C329.585,614.306 330.189,631.542 341.526,641.812C353.223,652.407 373.455,656.513 388.295,660.718C412.179,667.485 432.474,650.769 447.95,634.337C456.652,625.097 464.401,615.011 473.128,605.793C478.341,600.286 485.072,595.658 488.978,589.051C495.265,578.417 496.7,565.807 501.772,554.675C504.84,547.944 511.684,542.357 513.395,535.088C515.49,526.181 514.838,517.202 515.759,508.196C516.684,499.149 519.109,490.643 519.346,481.405C519.482,476.104 519.105,470.531 520.668,465.384C520.924,464.542 521.603,461.526 522.562,461.046C523.339,460.658 523.124,462.69 523.434,463.501C524.111,465.275 524.867,467.068 525.788,468.731C528.557,473.729 531.893,478.44 535.517,482.848C543.998,493.164 554.24,500.969 568.279,499.9C570.417,499.738 577.16,499.5 578.82,497.446C580.088,495.875 576.867,491.856 576.074,490.673C571.89,484.43 566.438,479.131 562.719,472.568C556.115,460.914 546.583,443.773 548.842,429.686C550.053,422.139 555.036,414.921 557.459,407.614C559.477,401.528 562.877,386.48 570.053,384.3C573.368,383.292 574.616,389.159 575.103,391.263C577.277,400.666 577.835,410.458 581.154,419.587C582.853,424.26 585.768,426.86 590.211,428.935C600.613,433.793 608.074,440.695 617.223,447.23C620.49,449.563 625.352,453.775 629.747,453.031C636.102,451.955 634.23,441.849 631.641,438.243C629.413,435.139 625.814,433.309 623.465,430.237C618.792,424.126 615.93,417.035 612.113,410.419C608.05,403.377 602.956,397.598 600.09,389.84C594.489,374.675 597.993,357.722 611.453,341.696C621.727,329.462 615.225,296.092 614.594,292.809C612.805,283.507 615.826,262.786 615.19,253.333C613.347,225.948 608.442,199.807 600.094,173.592C572.008,85.403 483.998,14.79 382.642,20.958C311.125,25.31 230.638,61.883 204.688,133.47C192.286,167.683 193.893,204.082 191.07,239.719C189.034,265.433 183.199,306.218 189.794,330.865C199.77,368.143 224.355,368.191 234.405,393.315L247.246,413.674ZM211.588,386.818C211.213,386.258 211.258,388.126 211.083,388.777C210.762,389.974 210.297,391.125 209.864,392.285C208.422,396.155 206.62,399.62 204.514,403.156C203.375,405.068 197.116,412.932 198.373,415.319C200.461,419.287 208.175,417.186 207.69,423.484C207.434,426.816 205.441,429.567 204.454,432.692C202.16,439.956 199.904,447.366 197.902,454.724C196.789,458.813 192.705,464.765 198.423,466.416C201.915,467.425 203.918,464.494 205.867,461.988C210.056,456.602 213.568,450.669 217.088,444.835C224.237,432.989 241.532,417.693 230.674,403.286C227.508,399.084 222.935,396.451 218.882,393.237L211.588,386.818Z"
            style="fill: rgb(90, 41, 73)"
          />
          <g>
            <path
              d="M254.312,493.003C254.41,493.605 253.268,492.373 252.72,492.106C251.621,491.57 250.498,491.12 249.356,490.685C245.892,489.367 242.428,488.003 238.84,487.052"
              style="fill: none; stroke: rgb(90, 41, 73); stroke-width: 4.05px"
            />
            <path
              d="M253.067,483.725C248.591,481.091 244.398,478.031 239.768,475.652"
              style="fill: none; stroke: rgb(90, 41, 73); stroke-width: 4.05px"
            />
            <path
              d="M253.061,467.646C251.619,467.766 249.46,466.678 248.086,466.311C244.304,465.301 240.165,464.181 236.226,464.775"
              style="fill: none; stroke: rgb(90, 41, 73); stroke-width: 4.05px"
            />
            <path
              d="M253.809,454.402C250.151,451.176 244.681,448.632 240.027,447.298"
              style="fill: none; stroke: rgb(90, 41, 73); stroke-width: 4.05px"
            />
            <path
              d="M256.098,440.955C252.83,439.076 248.243,438.32 244.527,438.016"
              style="fill: none; stroke: rgb(90, 41, 73); stroke-width: 4.05px"
            />
            <path
              d="M255.723,432.733C255.721,432.761 254.791,432.324 254.691,432.278C254.011,431.971 253.337,431.653 252.658,431.345C250.458,430.347 248.215,429.461 245.995,428.513"
              style="fill: none; stroke: rgb(90, 41, 73); stroke-width: 4.05px"
            />
            <path
              d="M202.657,447.394C203.204,447.456 201.733,446.798 201.257,446.524C200.325,445.986 199.379,445.475 198.419,444.987C195.295,443.398 192.163,442.137 188.79,441.214"
              style="fill: none; stroke: rgb(90, 41, 73); stroke-width: 4.05px"
            />
            <path
              d="M206.865,435.385C205.671,435.787 203.046,434.275 202.029,433.885C198.443,432.512 194.805,431.17 190.969,430.739"
              style="fill: none; stroke: rgb(90, 41, 73); stroke-width: 4.05px"
            />
            <path
              d="M210.215,427.144C209.562,426.377 205.932,426.105 204.969,425.847C200.312,424.601 195.732,423.407 191.034,422.385"
              style="fill: none; stroke: rgb(90, 41, 73); stroke-width: 4.05px"
            />
            <path
              d="M201.494,413.717C201.056,413.3 199.539,413.331 198.994,413.25C196.676,412.902 194.345,412.639 192.01,412.448"
              style="fill: none; stroke: rgb(90, 41, 73); stroke-width: 4.05px"
            />
            <path
              d="M208.736,401.488C208.777,402.077 207.642,401.044 207.088,400.843C205.914,400.416 204.743,399.979 203.556,399.59C200.063,398.445 196.589,397.524 192.981,396.85"
              style="fill: none; stroke: rgb(90, 41, 73); stroke-width: 4.05px"
            />
            <path
              d="M214.051,392.34C213.719,392.877 212.954,391.714 212.392,391.426C211.099,390.763 209.795,390.12 208.503,389.456C204.795,387.552 200.876,385.832 196.726,385.185"
              style="fill: none; stroke: rgb(90, 41, 73); stroke-width: 4.05px"
            />
            <path
              d="M288.559,517.098C285.987,516.646 283.69,514.876 280.935,515.01"
              style="fill: none; stroke: rgb(90, 41, 73); stroke-width: 4.05px"
            />
            <path
              d="M512.361,527.517C516.166,530.074 519.688,530.11 523.689,527.843"
              style="fill: none; stroke: rgb(90, 41, 73); stroke-width: 4.05px"
            />
            <path
              d="M512.833,520.815C512.86,520.95 514.549,520.725 514.657,520.71C516.816,520.417 518.952,520.143 521.055,519.553"
              style="fill: none; stroke: rgb(90, 41, 73); stroke-width: 4.05px"
            />
            <path
              d="M514.333,512.441C514.518,512.941 515.345,512.104 515.848,511.926C516.947,511.537 518.045,511.159 519.166,510.837"
              style="fill: none; stroke: rgb(90, 41, 73); stroke-width: 4.05px"
            />
            <path
              d="M574.257,487.96C575.432,486.143 580.74,484.872 582.616,483.34"
              style="fill: none; stroke: rgb(90, 41, 73); stroke-width: 4.05px"
            />
            <path
              d="M566.149,479.784C566.178,479.713 568.507,479.27 568.707,479.207C571.229,478.416 573.579,477.377 575.806,475.944"
              style="fill: none; stroke: rgb(90, 41, 73); stroke-width: 4.05px"
            />
            <path
              d="M554.518,460.848C554.53,460.76 557.303,459.356 557.662,459.144C560.667,457.371 563.533,455.431 566.496,453.601"
              style="fill: none; stroke: rgb(90, 41, 73); stroke-width: 4.05px"
            />
            <path
              d="M548.459,449.676C548.469,449.798 551.108,449.162 551.246,449.123C554.134,448.317 557.015,447.454 559.758,446.233"
              style="fill: none; stroke: rgb(90, 41, 73); stroke-width: 4.05px"
            />
            <path
              d="M545.402,436.763C544.922,435.779 547.471,436.043 548.492,435.648C550.432,434.898 552.327,434.104 554.198,433.195"
              style="fill: none; stroke: rgb(90, 41, 73); stroke-width: 4.05px"
            />
            <path
              d="M614.756,424.028C614.362,424.205 615.32,423.371 615.643,423.085C616.317,422.487 617.016,421.915 617.726,421.36C620.001,419.58 622.368,417.947 624.857,416.482"
              style="fill: none; stroke: rgb(90, 41, 73); stroke-width: 4.05px"
            />
            <path
              d="M608.121,412.862C607.196,412.37 609.627,411.402 610.427,410.723C611.921,409.455 613.468,408.245 615.047,407.083"
              style="fill: none; stroke: rgb(90, 41, 73); stroke-width: 4.05px"
            />
            <path
              d="M601.992,405.649C601.819,405.393 603.476,403.898 603.62,403.756C605.681,401.734 607.942,399.923 610.265,398.214"
              style="fill: none; stroke: rgb(90, 41, 73); stroke-width: 4.05px"
            />
            <path
              d="M596.704,395.325C598.997,391.619 604.87,388.373 608.41,386.06"
              style="fill: none; stroke: rgb(90, 41, 73); stroke-width: 4.05px"
            />
            <path
              d="M595.439,384.561C598.528,381.605 601.216,378.456 604.911,376.039"
              style="fill: none; stroke: rgb(90, 41, 73); stroke-width: 4.05px"
            />
          </g>
        </g>
      </g>
      <path
        d="M458.145,53.085C427.573,43.404 377.946,39.171 362.286,44.919C335.857,54.619 279.25,75.499 271.539,84.686C257.784,101.074 240.471,113.748 226.773,134.581C222.389,141.248 212.66,167.441 209.849,176.728C203.965,196.171 199.934,215.598 196.381,234.787C194.202,246.554 192.635,258.96 190.74,271.282C189.153,281.596 193.916,291.023 194.739,301.135C195.857,314.879 193.75,331.723 192.318,345.472C190.424,363.653 176.12,381.617 175.218,399.645C174.894,406.135 180.693,412.587 181.79,418.95C182.551,423.365 183.779,458.757 188.448,460.455C190.52,461.209 194.196,455.075 196.511,454.38C198.89,453.667 201.035,457.477 202.867,456.866C204.449,456.339 205.557,452.549 206.65,451.311C208.088,449.681 211.646,450.67 212.724,449.322C217.421,443.451 217.932,433.192 223.252,426.473C225.286,423.903 233.482,407.497 238.081,412.097C238.625,412.64 238.179,413.632 237.909,414.172C233.716,422.557 231.728,432.257 229.262,441.302C227.658,447.181 223.469,453.294 223.728,459.504C223.904,463.745 228.525,465.492 229.672,469.318C234.357,484.932 231.603,502.97 250.663,508.835C254.243,509.936 258.861,496.946 259.872,494.567C262.734,487.832 268.24,487.43 272.194,482.159C272.532,481.708 274.866,478.065 275.371,478.57C277.506,480.705 273.753,512.537 277.468,519.967C280.112,525.255 287.965,530.675 291.476,535.899C297.344,544.629 298.353,556.812 304.814,564.888C312.657,574.692 321.9,575.111 330.56,581.447C336.616,585.878 339.702,592.49 345.022,597.53C350.695,602.905 360.467,606.07 367.418,609.723C377.054,614.786 387.613,625.853 398.979,626.887C404.422,627.382 412.554,621.164 414.935,617.538C422.271,606.367 432.494,606.151 443.51,598.676C447.026,596.29 462.411,591.116 473.531,579.104C480.712,571.347 498.609,540.759 505.812,531.014C509.016,526.679 513.675,532.807 517.204,531.468C520.004,530.406 528.223,520.129 530.131,517.179C535.657,508.64 521.576,471.809 534.52,463.719C534.695,463.61 537.912,469.603 543.015,472.02C547.82,474.296 585.414,495.056 588.693,491.368C591.649,488.042 589.091,477.691 588.606,473.814C586.47,456.726 577.757,442.187 576.695,424.484C576.322,418.266 570.638,406.17 579.786,403.882C584.718,402.65 584.623,412.394 587.439,414.713C589.963,416.792 594.522,416.416 597.469,417.782C603.658,420.65 613.492,429.362 617.638,434.752C619.28,436.886 626.429,453.432 629.312,450.165C635.288,443.392 632.744,431.753 633.03,423.749C633.626,407.063 638.291,395.348 632.554,378.136C628.972,367.39 616.839,357.505 615.693,345.753C615.115,339.827 614.553,316.439 614.071,311.516C612.975,300.335 609.65,290.702 608.321,278.74C607.268,269.257 611.266,260.985 609.791,251.329C608.439,242.479 607.372,234.672 606.858,225.932C606.277,216.044 603.962,205.933 601.447,195.664C598.644,184.218 591.591,171.275 588.169,159.642C583.943,145.274 557.5,111.812 552.811,105.248C542.425,90.707 489.9,63.14 458.145,53.085Z"
        style="fill: none; stroke: black; stroke-width: 2.1px"
      />
    </g>
  </g>
</svg>
