<svg
  width="100%"
  height="100%"
  viewBox="0 0 800 800"
  xmlns="http://www.w3.org/2000/svg"
>
  <g transform="matrix(0.88685,0,0,0.88685,45.1133,13.2405)">
    <g id="hairstyles-front">
      <g id="hat-hair-3">
        <path
          d="M399.671,85.085C464.668,85.215 525.117,104.503 564.498,154.486C576.069,169.172 588.603,184.418 594.536,202.4C603.729,230.261 601.382,259.581 597.657,288.086C595.61,303.75 593.894,318.64 589.419,333.853C585.301,347.856 582.88,361.716 581.86,376.287C581.541,380.851 580.568,396.31 579.895,396.149C578.642,395.849 576.559,395.35 576.035,394.657C573.855,391.771 573.752,387.419 574.032,383.986C575.489,366.142 575.942,348.45 574.343,330.598C573.154,317.321 570.707,304.89 564.763,292.871C561.421,286.116 554.051,278.595 552.32,271.289C550.559,263.851 553.076,254.564 553.3,247.094C553.796,230.512 551.367,210.944 541.454,197.143C533.383,185.906 522.502,189.269 510.706,190.434C488.027,192.674 465.735,197.064 443.128,199.502C433.258,200.566 423.592,200.938 413.93,203.271C411.117,203.95 401.624,204.975 399.671,205.142C399.671,205.142 387.886,203.95 385.073,203.271C375.411,200.938 365.744,200.566 355.875,199.502C333.268,197.064 310.975,192.674 288.297,190.434C276.5,189.269 265.62,185.906 257.549,197.143C247.635,210.944 245.206,230.512 245.702,247.094C245.926,254.564 248.444,263.851 246.682,271.289C244.952,278.595 237.581,286.116 234.24,292.871C228.295,304.89 225.848,317.321 224.659,330.598C223.061,348.45 223.514,366.142 224.97,383.986C225.251,387.419 225.147,391.771 222.967,394.657C222.444,395.35 220.36,395.849 219.107,396.149C218.434,396.31 217.462,380.851 217.142,376.287C216.122,361.716 213.702,347.856 209.583,333.853C205.109,318.64 203.392,303.75 201.345,288.086C197.62,259.581 195.273,230.261 204.466,202.4C210.4,184.418 222.934,169.172 234.504,154.486C273.885,104.503 334.335,85.215 399.332,85.085L399.332,85.084L399.671,85.084L399.671,85.085Z"
          style="
            fill: rgb(
              var(--color_hairs_r, 98),
              var(--color_hairs_g, 86),
              var(--color_hairs_b, 34)
            );
          "
        />
        <clipPath id="_clip1_hair10">
          <path
            d="M399.671,85.085C464.668,85.215 525.117,104.503 564.498,154.486C576.069,169.172 588.603,184.418 594.536,202.4C603.729,230.261 601.382,259.581 597.657,288.086C595.61,303.75 593.894,318.64 589.419,333.853C585.301,347.856 582.88,361.716 581.86,376.287C581.541,380.851 580.568,396.31 579.895,396.149C578.642,395.849 576.559,395.35 576.035,394.657C573.855,391.771 573.752,387.419 574.032,383.986C575.489,366.142 575.942,348.45 574.343,330.598C573.154,317.321 570.707,304.89 564.763,292.871C561.421,286.116 554.051,278.595 552.32,271.289C550.559,263.851 553.076,254.564 553.3,247.094C553.796,230.512 551.367,210.944 541.454,197.143C533.383,185.906 522.502,189.269 510.706,190.434C488.027,192.674 465.735,197.064 443.128,199.502C433.258,200.566 423.592,200.938 413.93,203.271C411.117,203.95 401.624,204.975 399.671,205.142C399.671,205.142 387.886,203.95 385.073,203.271C375.411,200.938 365.744,200.566 355.875,199.502C333.268,197.064 310.975,192.674 288.297,190.434C276.5,189.269 265.62,185.906 257.549,197.143C247.635,210.944 245.206,230.512 245.702,247.094C245.926,254.564 248.444,263.851 246.682,271.289C244.952,278.595 237.581,286.116 234.24,292.871C228.295,304.89 225.848,317.321 224.659,330.598C223.061,348.45 223.514,366.142 224.97,383.986C225.251,387.419 225.147,391.771 222.967,394.657C222.444,395.35 220.36,395.849 219.107,396.149C218.434,396.31 217.462,380.851 217.142,376.287C216.122,361.716 213.702,347.856 209.583,333.853C205.109,318.64 203.392,303.75 201.345,288.086C197.62,259.581 195.273,230.261 204.466,202.4C210.4,184.418 222.934,169.172 234.504,154.486C273.885,104.503 334.335,85.215 399.332,85.085L399.332,85.084L399.671,85.084L399.671,85.085Z"
          />
        </clipPath>
        <g clip-path="url(#_clip1_hair10)">
          <path
            d="M224.843,361.586C224.677,361.574 224.652,352.423 224.636,351.835C224.333,341.067 223.766,330.229 224.403,319.464C225.182,306.309 228.04,293.747 234.07,281.997C236.966,276.353 242.171,267.515 241.579,261.113C239.539,239.045 236.293,206.135 258.442,189.02C274.213,176.833 311.23,187.047 329.421,189.837C352.139,193.322 375.996,197.873 399.033,198.374C418.2,198.79 438.887,194.285 458.009,192.51C480.98,190.377 506.99,180.897 530.088,184.24C559.541,188.503 559.582,230.963 558.057,252.898C557.629,259.041 557.16,264.948 558.382,271.057C559.604,277.169 565.718,284.112 568.532,289.892C573.986,301.095 573.392,315.153 572.358,327.244C571.121,341.694 566.35,357.79 553.437,365.941C527.087,382.575 487.751,379.744 458.147,379.501C389.555,378.938 322.168,372.998 254.036,366.155"
            style="
              fill: rgb(
                calc(var(--color_hairs_r, 98) - 32),
                calc(var(--color_hairs_g, 86) - 55),
                calc(var(--color_hairs_b, 34) + 33)
              );
              fill-opacity: 0.6;
            "
          />
          <path
            d="M399.29,56.306C401.098,56.055 404.819,56.794 405.708,56.853C413.676,57.384 421.564,58.652 429.435,59.968C464.462,65.826 499.45,80.178 528.337,100.725C543.527,111.53 556.821,124.721 567.781,139.805C593.104,174.656 608.068,216.621 607.433,259.957C607.063,285.169 599.354,308.78 594.109,333.18C588.975,357.067 586.323,381.314 583.692,405.572L577.633,405.579C576.667,405.032 577.066,395.841 576.995,394.693C576.214,382.198 577.754,369.539 579.576,357.174C586.991,306.86 600.162,258.933 584.85,208.373C572.496,167.584 539.403,141.537 505.039,118.99C490.835,109.671 476.689,105.661 460.276,100.96C446.592,97.041 433.989,97.791 420.188,95.439C415.178,94.585 403.43,94.511 399.671,94.314C394.185,94.027 383.458,94.491 378.448,95.345C364.647,97.697 354.101,97.088 338.303,100.96C321.721,105.024 307.744,109.671 293.54,118.99C259.176,141.537 226.083,167.584 213.73,208.373C198.417,258.933 211.588,306.86 219.003,357.174C220.825,369.539 222.365,382.198 221.584,394.693C221.513,395.841 221.912,405.032 220.947,405.579L214.887,405.572C212.257,381.314 209.605,357.067 204.47,333.18C199.225,308.78 191.516,285.169 191.147,259.957C190.512,216.621 205.475,174.656 230.798,139.805C241.759,124.721 255.052,111.53 270.242,100.725C299.129,80.178 334.117,65.826 369.144,59.968C377.015,58.652 384.903,57.384 392.871,56.853C393.76,56.794 397.481,56.055 399.29,56.306Z"
            style="fill: rgb(252, 255, 216); fill-opacity: 0.6"
          />
        </g>
        <path
          d="M399.671,85.085C464.668,85.215 525.117,104.503 564.498,154.486C576.069,169.172 588.603,184.418 594.536,202.4C603.729,230.261 601.382,259.581 597.657,288.086C595.61,303.75 593.894,318.64 589.419,333.853C585.301,347.856 582.88,361.716 581.86,376.287C581.541,380.851 580.568,396.31 579.895,396.149C578.642,395.849 576.559,395.35 576.035,394.657C573.855,391.771 573.752,387.419 574.032,383.986C575.489,366.142 575.942,348.45 574.343,330.598C573.154,317.321 570.707,304.89 564.763,292.871C561.421,286.116 554.051,278.595 552.32,271.289C550.559,263.851 553.076,254.564 553.3,247.094C553.796,230.512 551.367,210.944 541.454,197.143C533.383,185.906 522.502,189.269 510.706,190.434C488.027,192.674 465.735,197.064 443.128,199.502C433.258,200.566 423.592,200.938 413.93,203.271C411.117,203.95 401.624,204.975 399.671,205.142C399.671,205.142 387.886,203.95 385.073,203.271C375.411,200.938 365.744,200.566 355.875,199.502C333.268,197.064 310.975,192.674 288.297,190.434C276.5,189.269 265.62,185.906 257.549,197.143C247.635,210.944 245.206,230.512 245.702,247.094C245.926,254.564 248.444,263.851 246.682,271.289C244.952,278.595 237.581,286.116 234.24,292.871C228.295,304.89 225.848,317.321 224.659,330.598C223.061,348.45 223.514,366.142 224.97,383.986C225.251,387.419 225.147,391.771 222.967,394.657C222.444,395.35 220.36,395.849 219.107,396.149C218.434,396.31 217.462,380.851 217.142,376.287C216.122,361.716 213.702,347.856 209.583,333.853C205.109,318.64 203.392,303.75 201.345,288.086C197.62,259.581 195.273,230.261 204.466,202.4C210.4,184.418 222.934,169.172 234.504,154.486C273.885,104.503 334.335,85.215 399.332,85.085L399.332,85.084L399.671,85.084L399.671,85.085Z"
          style="fill: none; stroke: black; stroke-width: 2.1px"
        />
      </g>
    </g>
  </g>
</svg>
