<svg
  width="100%"
  height="100%"
  viewBox="0 0 800 800"
  xmlns="http://www.w3.org/2000/svg"
>
  <g id="hairstyles-back">
    <g id="hairstyle-4-back">
      <path
        d="M433.581,108.407C418.633,106.125 408.577,105.459 394.791,106.638C323.287,112.754 287.776,134.433 252.599,177.277C189.397,254.254 192.164,373.885 215.023,465.321C222.877,496.736 230.903,545.821 264.292,556.425C268.399,557.729 295.172,562.506 295.709,561.902C297.296,560.116 298.61,548.629 300.322,548.629C302.549,548.629 302.721,563.367 305.561,564.584C329.772,574.96 354.442,586.608 381.567,586.086C423.901,585.272 463.624,563.189 503.897,552.683C515.758,549.588 537.547,552.688 546.57,542.892C572.627,514.6 576.413,470.602 584.335,434.952C613.269,304.751 593.048,132.753 433.581,108.407Z"
        style="fill: rgb(139, 13, 86); stroke: black; stroke-width: 2.1px"
      />
    </g>
  </g>
</svg>
