<svg viewBox="0 0 800 800" xmlns="http://www.w3.org/2000/svg">
  <g id="face">
    <path
      d="M310.546,541.736C310.207,541.512 310.918,542.457 311.113,542.813C311.513,543.544 311.958,544.251 312.383,544.967C313.624,547.056 314.887,549.129 316.173,551.19C320.044,557.392 324.123,563.462 328.116,569.586C340.451,588.501 355.701,609.982 377.905,617.905C400.125,625.833 421.614,622.899 439.565,609.513C451.652,600.5 461.573,583.548 469.388,572.24C474.724,564.518 490.248,542.013 490.215,539.199C490.196,537.538 483.342,545.817 482.764,546.319C477.929,550.529 473.156,554.816 468.228,558.916C453.27,571.358 439.68,587.159 421.393,594.305C415.043,596.787 407.04,599.198 400.224,598.891C366.255,597.365 337.321,568.348 314.42,544.97"
      style="fill: rgb(66, 31, 67); fill-opacity: 0.5"
    />
    <path
      d="M400,112.476C439.88,112.563 471.341,121.306 506.185,139.523C522.01,147.796 542.515,167.393 552.722,183.177C566.853,205.029 567.676,258.34 565.8,282.977C562.311,328.792 555.506,332.328 552.461,378.163C550.941,401.04 544.639,426.041 539.523,448.534C527.922,499.533 498.217,534.323 460.902,568.28C449.868,578.321 439.394,585.832 423.24,595.36C418.67,598.055 413.211,598.568 407.961,598.886C406.403,598.981 402.197,599.155 400,599.258L400,599.287L399.4,599.258C397.203,599.155 392.997,598.981 391.44,598.886C386.189,598.568 380.73,598.055 376.16,595.36C360.006,585.832 349.532,578.321 338.498,568.28C301.183,534.323 271.478,499.533 259.877,448.534C254.761,426.041 248.459,401.04 246.94,378.163C243.895,332.328 237.089,328.792 233.6,282.977C231.724,258.34 232.547,205.029 246.678,183.177C256.885,167.393 277.39,147.796 293.216,139.523C328.059,121.306 359.521,112.563 399.4,112.476L400,112.475L400,112.476Z"
      style="fill: var(--color_skin, rgb(240, 205, 177))"
    />
    <clipPath id="_clip16_miss_head">
      <path
        d="M400,112.476C439.88,112.563 471.341,121.306 506.185,139.523C522.01,147.796 542.515,167.393 552.722,183.177C566.853,205.029 567.676,258.34 565.8,282.977C562.311,328.792 555.506,332.328 552.461,378.163C550.941,401.04 544.639,426.041 539.523,448.534C527.922,499.533 498.217,534.323 460.902,568.28C449.868,578.321 439.394,585.832 423.24,595.36C418.67,598.055 413.211,598.568 407.961,598.886C406.403,598.981 402.197,599.155 400,599.258L400,599.287L399.4,599.258C397.203,599.155 392.997,598.981 391.44,598.886C386.189,598.568 380.73,598.055 376.16,595.36C360.006,585.832 349.532,578.321 338.498,568.28C301.183,534.323 271.478,499.533 259.877,448.534C254.761,426.041 248.459,401.04 246.94,378.163C243.895,332.328 237.089,328.792 233.6,282.977C231.724,258.34 232.547,205.029 246.678,183.177C256.885,167.393 277.39,147.796 293.216,139.523C328.059,121.306 359.521,112.563 399.4,112.476L400,112.475L400,112.476Z"
      />
    </clipPath>
    <g clip-path="url(#_clip16_miss_head)">
      <path
        d="M234.125,313.798C232.788,295.991 220.053,192.264 241.728,157.364C261.485,125.553 283.997,95.809 304.121,94.008C376.664,87.514 474.735,78.267 481.837,84.41C512.348,110.801 569.198,157.838 570.905,176.952C574.252,214.426 577.921,259.425 576.199,275.074C567.297,355.987 545.436,471.194 519.774,511.136C511.663,523.76 502.793,536.015 493.196,547.555C492.333,548.593 461.935,570.357 460.154,569.573C459.47,569.272 482.752,543.191 486.09,537.911C494.396,524.773 508.776,507.752 514.971,493.445C533.947,449.618 541.146,406.978 547.112,361.812C549.27,345.472 550.851,328.764 551.467,312.308C551.67,306.897 552.556,302.127 552.624,296.712C552.648,294.805 554.159,286.739 554.101,284.832C554.09,284.464 554.605,257.992 554.083,239.325C553.656,224.086 550.508,212.611 545.051,196.676C542.674,189.737 529.128,173.417 507.083,156.332C494.883,146.876 479.45,142.865 468.622,138.491C464.007,136.627 441.247,129.328 417.916,128.079C404.097,127.338 368.602,127.737 337.987,138.076C320.52,143.974 286.748,155.839 269.088,179.295C260.557,190.626 254.146,193.168 249.167,216.163C244.207,239.069 247.339,281.566 247.138,287.989C247.138,287.989 247.136,294.158 247.16,296.065C247.228,301.48 247.378,306.897 247.58,312.308C248.197,328.764 249.778,345.472 251.936,361.812C257.901,406.978 267.339,455.018 286.819,496.761C294.665,513.572 306.946,526 315.252,539.138C318.59,544.418 346.43,574.728 341.659,571.873C339.989,570.873 306.715,548.593 305.852,547.555C296.255,536.015 287.385,523.76 279.274,511.136C245.184,458.077 231.635,379.033 232.425,317.164L234.125,313.798Z"
        style="fill: rgb(252, 255, 216); fill-opacity: 0.6"
      />
    </g>
    <path
      d="M400,112.476C439.88,112.563 471.341,121.306 506.185,139.523C522.01,147.796 542.515,167.393 552.722,183.177C566.853,205.029 567.676,258.34 565.8,282.977C562.311,328.792 555.506,332.328 552.461,378.163C550.941,401.04 544.639,426.041 539.523,448.534C527.922,499.533 498.217,534.323 460.902,568.28C449.868,578.321 439.394,585.832 423.24,595.36C418.67,598.055 413.211,598.568 407.961,598.886C406.403,598.981 402.197,599.155 400,599.258L400,599.287L399.4,599.258C397.203,599.155 392.997,598.981 391.44,598.886C386.189,598.568 380.73,598.055 376.16,595.36C360.006,585.832 349.532,578.321 338.498,568.28C301.183,534.323 271.478,499.533 259.877,448.534C254.761,426.041 248.459,401.04 246.94,378.163C243.895,332.328 237.089,328.792 233.6,282.977C231.724,258.34 232.547,205.029 246.678,183.177C256.885,167.393 277.39,147.796 293.216,139.523C328.059,121.306 359.521,112.563 399.4,112.476L400,112.475L400,112.476Z"
      style="fill: none; stroke: black; stroke-width: 2.1px"
    />
  </g>
</svg>
