<svg
  width="100%"
  height="100%"
  viewBox="0 0 800 800"
  version="1.1"
  xmlns="http://www.w3.org/2000/svg"
  style="fill-rule: evenodd; clip-rule: evenodd; stroke-linecap: round; stroke-linejoin: round; stroke-miterlimit: 1.5"
>
  <g id="assassin-shirt" transform="matrix(0.997371,0,0,0.997371,1.05174,2.60804)">
    <path
      d="M294.497,626.912C225.777,645.697 160.401,673.644 93.624,698.852C63.14,710.359 18.403,720.179 -6.136,742.673C-25.53,760.451 -36.893,792.555 -48.34,815.557C-54.441,827.817 -92.078,902.343 -85.334,914.989C-82.55,920.207 -6.179,929.222 20.652,932.763C114.775,945.183 210.185,942.53 304.67,951.158C324.216,952.943 336.82,957.234 352.146,940.515C364.402,927.145 358.135,854.464 358.651,836.899C361.655,734.642 276.124,684.917 279.816,639.568L294.497,626.912Z"
      style="fill: rgb(231, 231, 231)"
    />
    <clipPath id="Assassin-cap_0">
      <path
        d="M294.497,626.912C225.777,645.697 160.401,673.644 93.624,698.852C63.14,710.359 18.403,720.179 -6.136,742.673C-25.53,760.451 -36.893,792.555 -48.34,815.557C-54.441,827.817 -92.078,902.343 -85.334,914.989C-82.55,920.207 -6.179,929.222 20.652,932.763C114.775,945.183 210.185,942.53 304.67,951.158C324.216,952.943 336.82,957.234 352.146,940.515C364.402,927.145 358.135,854.464 358.651,836.899C361.655,734.642 276.124,684.917 279.816,639.568L294.497,626.912Z"
      />
    </clipPath>
    <g clip-path="url(#Assassin-cap_0)">
      <path
        d="M39.745,813.533C39.81,813.515 36.837,800.077 36.656,799.268C34.238,788.473 26.117,766.396 30.446,755.43C32.468,750.305 42.271,747.001 46.682,744.774C62.528,736.776 116.977,711.169 132.581,702.636C135.344,701.124 150.463,695.474 151.088,692.095C151.225,691.358 150.033,691.047 149.536,690.96C138.848,689.094 86.583,712.133 76.413,714.724C65.814,717.424 19.231,727.686 12,734.314C8.884,737.171 23.473,776.782 25.069,781.426"
        style="fill: white"
      />
      <path
        d="M99.939,700.288C98.037,697.655 101.874,719.354 103.222,726.158C107.251,746.496 114.181,766.398 120.726,786.034C139.368,841.96 161.479,895.428 189.825,947.192C197.982,962.087 209.787,996.637 231.794,988.561C239.733,985.648 280.643,965.573 282.386,956.513C283.825,949.027 256.986,905.129 252.735,896.123C230.216,848.418 206.609,798.268 188.896,748.469C185.195,738.067 176.735,694.301 169.96,688.569C166.382,685.541 130.247,694.596 125.191,695.786L99.939,700.288Z"
        style="fill: rgb(96, 69, 60)"
      />
      <clipPath id="Assassin-cap_1">
        <path
          d="M99.939,700.288C98.037,697.655 101.874,719.354 103.222,726.158C107.251,746.496 114.181,766.398 120.726,786.034C139.368,841.96 161.479,895.428 189.825,947.192C197.982,962.087 209.787,996.637 231.794,988.561C239.733,985.648 280.643,965.573 282.386,956.513C283.825,949.027 256.986,905.129 252.735,896.123C230.216,848.418 206.609,798.268 188.896,748.469C185.195,738.067 176.735,694.301 169.96,688.569C166.382,685.541 130.247,694.596 125.191,695.786L99.939,700.288Z"
        />
      </clipPath>
      <g clip-path="url(#Assassin-cap_1)">
        <path
          d="M82.873,690.695C81.687,689.671 83.725,693.712 84.244,695.19C85.325,698.268 86.485,701.336 87.811,704.318C91.805,713.306 96.858,721.238 102.938,728.929C113.691,742.533 119.61,757.179 124.668,773.749C126.525,779.832 129.228,796.188 133.28,800.239C134.22,801.179 132.76,797.63 132.419,796.345C131.712,793.687 130.989,791.033 130.29,788.372C127.699,778.517 125.601,768.704 124.652,758.551C124.603,758.026 123.855,749.55 124.224,749.576C125.502,749.667 128.204,754.28 128.963,755.187C133.098,760.13 137.699,764.692 142.742,768.712C152.707,776.655 164.463,781.857 174.952,789.012C185.068,795.911 193.819,804.594 202.418,813.26C207.378,818.259 212.385,823.517 216.294,829.4C216.761,830.103 221.13,838.67 221.71,838.554C221.926,838.511 221.621,837.059 221.602,836.929C221.012,832.798 220.456,828.668 219.95,824.526C218.102,809.386 216.836,794.234 213.456,779.327C206.041,746.626 215.362,692.978 188.356,677.553C179.084,672.257 114.791,673.093 103.069,675.242"
          style="fill: rgb(75, 44, 59)"
        />
        <path
          d="M102.881,682.891C101.233,685.211 103.95,694.921 104.282,697.483C106.317,713.198 110.332,728.402 115.151,743.471C122.746,767.218 129.133,791.409 138.145,814.681C153.554,854.471 195.605,942.154 229.591,997.704"
          style="fill: none; stroke: black; stroke-width: 2.1px"
        />
        <path
          d="M151.852,666.62C150.933,665.763 152.224,669.106 152.484,670.335C153.028,672.906 153.591,675.47 154.192,678.029C156.03,685.852 158.204,693.591 160.651,701.244C168.018,724.279 176.565,746.938 185.021,769.589C195.256,797.003 205.54,826.309 218.46,852.514C235.782,887.644 259.482,943.938 283.335,980.356"
          style="fill: none; stroke: black; stroke-width: 2.1px"
        />
      </g>
      <path
        d="M99.939,700.288C98.037,697.655 101.874,719.354 103.222,726.158C107.251,746.496 114.181,766.398 120.726,786.034C139.368,841.96 161.479,895.428 189.825,947.192C197.982,962.087 209.787,996.637 231.794,988.561C239.733,985.648 280.643,965.573 282.386,956.513C283.825,949.027 256.986,905.129 252.735,896.123C230.216,848.418 206.609,798.268 188.896,748.469C185.195,738.067 176.735,694.301 169.96,688.569C166.382,685.541 130.247,694.596 125.191,695.786L99.939,700.288Z"
        style="fill: none; stroke: black; stroke-width: 2.1px"
      />
      <path
        d="M16.905,734.389C17.172,734.125 23.731,759.199 25.853,766.626C32.154,788.676 40.844,806.585 47.601,828.489C62.566,877.004 70.497,928.042 76.223,978.375C77.814,992.366 85.916,1021.08 78.186,1034.06C72.663,1043.33 22.675,1030.83 13.609,1029.24C-32.776,1021.1 -79.904,1014.64 -127.006,1013.06C-143.562,1012.51 -182.496,1020.36 -196.523,1013.85C-220.411,1002.75 -192.672,939.237 -186.239,924.171C-153.266,846.948 -109.344,772.728 -36.492,727.248"
        style="fill: rgb(165, 35, 59)"
      />
      <clipPath id="Assassin-cap_2">
        <path
          d="M16.905,734.389C17.172,734.125 23.731,759.199 25.853,766.626C32.154,788.676 40.844,806.585 47.601,828.489C62.566,877.004 70.497,928.042 76.223,978.375C77.814,992.366 85.916,1021.08 78.186,1034.06C72.663,1043.33 22.675,1030.83 13.609,1029.24C-32.776,1021.1 -79.904,1014.64 -127.006,1013.06C-143.562,1012.51 -182.496,1020.36 -196.523,1013.85C-220.411,1002.75 -192.672,939.237 -186.239,924.171C-153.266,846.948 -109.344,772.728 -36.492,727.248"
        />
      </clipPath>
      <g clip-path="url(#Assassin-cap_2)">
        <path
          d="M-119.286,814.134C-113.711,820.631 -88.282,837.494 -82.427,831.121C-62.88,809.844 -42.051,790.747 -18.709,773.721C-15.419,771.321 9.92,756.904 9.92,756.904C9.92,756.904 15.513,767.023 16.164,768.701C19.892,778.32 37.271,823.828 41.084,824.463C42.573,824.711 49.784,819.644 48.89,818.751C48.033,817.894 41.127,802.666 40.199,797.952C35.142,772.285 38.255,749.5 11.706,738.19L-119.286,814.134Z"
          style="fill: rgb(234, 80, 108)"
        />
      </g>
      <path
        d="M16.905,734.389C17.172,734.125 23.731,759.199 25.853,766.626C32.154,788.676 40.844,806.585 47.601,828.489C62.566,877.004 70.497,928.042 76.223,978.375C77.814,992.366 85.916,1021.08 78.186,1034.06C72.663,1043.33 22.675,1030.83 13.609,1029.24C-32.776,1021.1 -79.904,1014.64 -127.006,1013.06C-143.562,1012.51 -182.496,1020.36 -196.523,1013.85C-220.411,1002.75 -192.672,939.237 -186.239,924.171C-153.266,846.948 -109.344,772.728 -36.492,727.248"
        style="fill: none; stroke: black; stroke-width: 2.1px"
      />
      <path
        d="M8.14,736.438C8.256,735.668 8.667,737.902 8.914,738.64C9.429,740.183 9.967,741.717 10.501,743.254C12.136,747.955 13.777,752.655 15.387,757.365C20.232,771.53 24.905,785.741 29.672,799.931C35.863,818.366 40.508,837.567 45.234,856.435C52.932,887.17 59.688,919.187 64.921,943.737"
        style="fill: none; stroke: black; stroke-width: 2.1px"
      />
      <path
        d="M305.889,636.207C307.855,635.45 301.842,637.378 299.825,637.985C295.615,639.253 291.396,640.488 287.165,641.689C274.859,645.181 262.559,648.577 250.368,652.464C214.126,664.019 180.41,682.675 145.612,697.79C79.739,726.404 4.692,736.119 -52.053,782.996C-72.927,800.24 -92.054,819.189 -106.933,841.835C-111.518,848.815 -124.545,874.319 -130.788,877.027C-131.24,877.223 -131.732,877.207 -132.078,876.82C-136.35,872.035 -129.591,855.415 -127.971,850.7C-118.947,824.432 -101.681,799.938 -84.201,778.682C-12.204,691.135 114.16,669.748 216.576,635.976"
        style="fill: rgb(237, 72, 101)"
      />
      <clipPath id="Assassin-cap_3">
        <path
          d="M305.889,636.207C307.855,635.45 301.842,637.378 299.825,637.985C295.615,639.253 291.396,640.488 287.165,641.689C274.859,645.181 262.559,648.577 250.368,652.464C214.126,664.019 180.41,682.675 145.612,697.79C79.739,726.404 4.692,736.119 -52.053,782.996C-72.927,800.24 -92.054,819.189 -106.933,841.835C-111.518,848.815 -124.545,874.319 -130.788,877.027C-131.24,877.223 -131.732,877.207 -132.078,876.82C-136.35,872.035 -129.591,855.415 -127.971,850.7C-118.947,824.432 -101.681,799.938 -84.201,778.682C-12.204,691.135 114.16,669.748 216.576,635.976"
        />
      </clipPath>
      <g clip-path="url(#Assassin-cap_3)">
        <path
          d="M-176.602,940.374C-178.213,940.84 -175.082,937.381 -174.2,935.955C-172.298,932.879 -170.513,929.734 -168.591,926.669C-163.2,918.068 -157.598,909.569 -151.933,901.147C-134.797,875.673 -119.856,848.899 -100.262,825.127C-29.429,739.19 52.324,724.443 152.615,692.004C175.362,684.647 197.285,675.586 221.035,672.11C228.691,670.99 239.707,667.917 244.923,675.448C251.074,684.327 243.035,697.371 237.899,704.486C220.572,728.492 193.313,745.797 169.415,762.421C69.196,832.135 -34.752,892.383 -148.491,937.308"
          style="fill: rgb(109, 45, 74); fill-opacity: 0.7"
        />
      </g>
      <path
        d="M305.889,636.207C307.855,635.45 301.842,637.378 299.825,637.985C295.615,639.253 291.396,640.488 287.165,641.689C274.859,645.181 262.559,648.577 250.368,652.464C214.126,664.019 180.41,682.675 145.612,697.79C79.739,726.404 4.692,736.119 -52.053,782.996C-72.927,800.24 -92.054,819.189 -106.933,841.835C-111.518,848.815 -124.545,874.319 -130.788,877.027C-131.24,877.223 -131.732,877.207 -132.078,876.82C-136.35,872.035 -129.591,855.415 -127.971,850.7C-118.947,824.432 -101.681,799.938 -84.201,778.682C-12.204,691.135 114.16,669.748 216.576,635.976"
        style="fill: none; stroke: black; stroke-width: 2.1px"
      />
    </g>
    <path
      d="M294.497,626.912C225.777,645.697 160.401,673.644 93.624,698.852C63.14,710.359 18.403,720.179 -6.136,742.673C-25.53,760.451 -36.893,792.555 -48.34,815.557C-54.441,827.817 -92.078,902.343 -85.334,914.989C-82.55,920.207 -6.179,929.222 20.652,932.763C114.775,945.183 210.185,942.53 304.67,951.158C324.216,952.943 336.82,957.234 352.146,940.515C364.402,927.145 358.135,854.464 358.651,836.899C361.655,734.642 276.124,684.917 279.816,639.568L294.497,626.912Z"
      style="fill: none; stroke: black; stroke-width: 2.1px"
    />
    <g transform="matrix(-1,0,0,1,800.197,0)">
      <path
        d="M294.497,626.912C225.777,645.697 160.401,673.644 93.624,698.852C63.14,710.359 18.403,720.179 -6.136,742.673C-25.53,760.451 -36.893,792.555 -48.34,815.557C-54.441,827.817 -92.078,902.343 -85.334,914.989C-82.55,920.207 -6.179,929.222 20.652,932.763C114.775,945.183 210.185,942.53 304.67,951.158C324.216,952.943 336.82,957.234 352.146,940.515C364.402,927.145 358.135,854.464 358.651,836.899C361.655,734.642 276.124,684.917 279.816,639.568L294.497,626.912Z"
        style="fill: rgb(231, 231, 231)"
      />
      <clipPath id="Assassin-cap_4">
        <path
          d="M294.497,626.912C225.777,645.697 160.401,673.644 93.624,698.852C63.14,710.359 18.403,720.179 -6.136,742.673C-25.53,760.451 -36.893,792.555 -48.34,815.557C-54.441,827.817 -92.078,902.343 -85.334,914.989C-82.55,920.207 -6.179,929.222 20.652,932.763C114.775,945.183 210.185,942.53 304.67,951.158C324.216,952.943 336.82,957.234 352.146,940.515C364.402,927.145 358.135,854.464 358.651,836.899C361.655,734.642 276.124,684.917 279.816,639.568L294.497,626.912Z"
        />
      </clipPath>
      <g clip-path="url(#Assassin-cap_4)">
        <path
          d="M39.745,813.533C39.81,813.515 36.837,800.077 36.656,799.268C34.238,788.473 26.117,766.396 30.446,755.43C32.468,750.305 42.271,747.001 46.682,744.774C62.528,736.776 116.977,711.169 132.581,702.636C135.344,701.124 150.463,695.474 151.088,692.095C151.225,691.358 150.033,691.047 149.536,690.96C138.848,689.094 86.583,712.133 76.413,714.724C65.814,717.424 19.231,727.686 12,734.314C8.884,737.171 23.473,776.782 25.069,781.426"
          style="fill: white"
        />
        <path
          d="M99.939,700.288C98.037,697.655 101.874,719.354 103.222,726.158C107.251,746.496 114.181,766.398 120.726,786.034C139.368,841.96 161.479,895.428 189.825,947.192C197.982,962.087 209.787,996.637 231.794,988.561C239.733,985.648 280.643,965.573 282.386,956.513C283.825,949.027 256.986,905.129 252.735,896.123C230.216,848.418 206.609,798.268 188.896,748.469C185.195,738.067 176.735,694.301 169.96,688.569C166.382,685.541 130.247,694.596 125.191,695.786L99.939,700.288Z"
          style="fill: rgb(96, 69, 60)"
        />
        <clipPath id="Assassin-cap_5">
          <path
            d="M99.939,700.288C98.037,697.655 101.874,719.354 103.222,726.158C107.251,746.496 114.181,766.398 120.726,786.034C139.368,841.96 161.479,895.428 189.825,947.192C197.982,962.087 209.787,996.637 231.794,988.561C239.733,985.648 280.643,965.573 282.386,956.513C283.825,949.027 256.986,905.129 252.735,896.123C230.216,848.418 206.609,798.268 188.896,748.469C185.195,738.067 176.735,694.301 169.96,688.569C166.382,685.541 130.247,694.596 125.191,695.786L99.939,700.288Z"
          />
        </clipPath>
        <g clip-path="url(#Assassin-cap_5)">
          <path
            d="M82.873,690.695C81.687,689.671 83.725,693.712 84.244,695.19C85.325,698.268 86.485,701.336 87.811,704.318C91.805,713.306 96.858,721.238 102.938,728.929C113.691,742.533 119.61,757.179 124.668,773.749C126.525,779.832 129.228,796.188 133.28,800.239C134.22,801.179 132.76,797.63 132.419,796.345C131.712,793.687 130.989,791.033 130.29,788.372C127.699,778.517 125.601,768.704 124.652,758.551C124.603,758.026 123.855,749.55 124.224,749.576C125.502,749.667 128.204,754.28 128.963,755.187C133.098,760.13 137.699,764.692 142.742,768.712C152.707,776.655 164.463,781.857 174.952,789.012C185.068,795.911 193.819,804.594 202.418,813.26C207.378,818.259 212.385,823.517 216.294,829.4C216.761,830.103 221.13,838.67 221.71,838.554C221.926,838.511 221.621,837.059 221.602,836.929C221.012,832.798 220.456,828.668 219.95,824.526C218.102,809.386 216.836,794.234 213.456,779.327C206.041,746.626 215.362,692.978 188.356,677.553C179.084,672.257 114.791,673.093 103.069,675.242"
            style="fill: rgb(75, 44, 59)"
          />
          <path
            d="M102.881,682.891C101.233,685.211 103.95,694.921 104.282,697.483C106.317,713.198 110.332,728.402 115.151,743.471C122.746,767.218 129.133,791.409 138.145,814.681C153.554,854.471 195.605,942.154 229.591,997.704"
            style="fill: none; stroke: black; stroke-width: 2.1px"
          />
          <path
            d="M151.852,666.62C150.933,665.763 152.224,669.106 152.484,670.335C153.028,672.906 153.591,675.47 154.192,678.029C156.03,685.852 158.204,693.591 160.651,701.244C168.018,724.279 176.565,746.938 185.021,769.589C195.256,797.003 205.54,826.309 218.46,852.514C235.782,887.644 259.482,943.938 283.335,980.356"
            style="fill: none; stroke: black; stroke-width: 2.1px"
          />
        </g>
        <path
          d="M99.939,700.288C98.037,697.655 101.874,719.354 103.222,726.158C107.251,746.496 114.181,766.398 120.726,786.034C139.368,841.96 161.479,895.428 189.825,947.192C197.982,962.087 209.787,996.637 231.794,988.561C239.733,985.648 280.643,965.573 282.386,956.513C283.825,949.027 256.986,905.129 252.735,896.123C230.216,848.418 206.609,798.268 188.896,748.469C185.195,738.067 176.735,694.301 169.96,688.569C166.382,685.541 130.247,694.596 125.191,695.786L99.939,700.288Z"
          style="fill: none; stroke: black; stroke-width: 2.1px"
        />
        <path
          d="M16.905,734.389C17.172,734.125 23.731,759.199 25.853,766.626C32.154,788.676 40.844,806.585 47.601,828.489C62.566,877.004 70.497,928.042 76.223,978.375C77.814,992.366 85.916,1021.08 78.186,1034.06C72.663,1043.33 22.675,1030.83 13.609,1029.24C-32.776,1021.1 -79.904,1014.64 -127.006,1013.06C-143.562,1012.51 -182.496,1020.36 -196.523,1013.85C-220.411,1002.75 -192.672,939.237 -186.239,924.171C-153.266,846.948 -109.344,772.728 -36.492,727.248"
          style="fill: rgb(165, 35, 59)"
        />
        <clipPath id="Assassin-cap_6">
          <path
            d="M16.905,734.389C17.172,734.125 23.731,759.199 25.853,766.626C32.154,788.676 40.844,806.585 47.601,828.489C62.566,877.004 70.497,928.042 76.223,978.375C77.814,992.366 85.916,1021.08 78.186,1034.06C72.663,1043.33 22.675,1030.83 13.609,1029.24C-32.776,1021.1 -79.904,1014.64 -127.006,1013.06C-143.562,1012.51 -182.496,1020.36 -196.523,1013.85C-220.411,1002.75 -192.672,939.237 -186.239,924.171C-153.266,846.948 -109.344,772.728 -36.492,727.248"
          />
        </clipPath>
        <g clip-path="url(#Assassin-cap_6)">
          <path
            d="M-119.286,814.134C-113.711,820.631 -88.282,837.494 -82.427,831.121C-62.88,809.844 -42.051,790.747 -18.709,773.721C-15.419,771.321 9.92,756.904 9.92,756.904C9.92,756.904 15.513,767.023 16.164,768.701C19.892,778.32 37.271,823.828 41.084,824.463C42.573,824.711 49.784,819.644 48.89,818.751C48.033,817.894 41.127,802.666 40.199,797.952C35.142,772.285 38.255,749.5 11.706,738.19L-119.286,814.134Z"
            style="fill: rgb(234, 80, 108)"
          />
        </g>
        <path
          d="M16.905,734.389C17.172,734.125 23.731,759.199 25.853,766.626C32.154,788.676 40.844,806.585 47.601,828.489C62.566,877.004 70.497,928.042 76.223,978.375C77.814,992.366 85.916,1021.08 78.186,1034.06C72.663,1043.33 22.675,1030.83 13.609,1029.24C-32.776,1021.1 -79.904,1014.64 -127.006,1013.06C-143.562,1012.51 -182.496,1020.36 -196.523,1013.85C-220.411,1002.75 -192.672,939.237 -186.239,924.171C-153.266,846.948 -109.344,772.728 -36.492,727.248"
          style="fill: none; stroke: black; stroke-width: 2.1px"
        />
        <path
          d="M8.14,736.438C8.256,735.668 8.667,737.902 8.914,738.64C9.429,740.183 9.967,741.717 10.501,743.254C12.136,747.955 13.777,752.655 15.387,757.365C20.232,771.53 24.905,785.741 29.672,799.931C35.863,818.366 40.508,837.567 45.234,856.435C52.932,887.17 59.688,919.187 64.921,943.737"
          style="fill: none; stroke: black; stroke-width: 2.1px"
        />
        <path
          d="M305.889,636.207C307.855,635.45 301.842,637.378 299.825,637.985C295.615,639.253 291.396,640.488 287.165,641.689C274.859,645.181 262.559,648.577 250.368,652.464C214.126,664.019 180.41,682.675 145.612,697.79C79.739,726.404 4.692,736.119 -52.053,782.996C-72.927,800.24 -92.054,819.189 -106.933,841.835C-111.518,848.815 -124.545,874.319 -130.788,877.027C-131.24,877.223 -131.732,877.207 -132.078,876.82C-136.35,872.035 -129.591,855.415 -127.971,850.7C-118.947,824.432 -101.681,799.938 -84.201,778.682C-12.204,691.135 114.16,669.748 216.576,635.976"
          style="fill: rgb(237, 72, 101)"
        />
        <clipPath id="Assassin-cap_7">
          <path
            d="M305.889,636.207C307.855,635.45 301.842,637.378 299.825,637.985C295.615,639.253 291.396,640.488 287.165,641.689C274.859,645.181 262.559,648.577 250.368,652.464C214.126,664.019 180.41,682.675 145.612,697.79C79.739,726.404 4.692,736.119 -52.053,782.996C-72.927,800.24 -92.054,819.189 -106.933,841.835C-111.518,848.815 -124.545,874.319 -130.788,877.027C-131.24,877.223 -131.732,877.207 -132.078,876.82C-136.35,872.035 -129.591,855.415 -127.971,850.7C-118.947,824.432 -101.681,799.938 -84.201,778.682C-12.204,691.135 114.16,669.748 216.576,635.976"
          />
        </clipPath>
        <g clip-path="url(#Assassin-cap_7)">
          <path
            d="M-176.602,940.374C-178.213,940.84 -175.082,937.381 -174.2,935.955C-172.298,932.879 -170.513,929.734 -168.591,926.669C-163.2,918.068 -157.598,909.569 -151.933,901.147C-134.797,875.673 -119.856,848.899 -100.262,825.127C-29.429,739.19 52.324,724.443 152.615,692.004C175.362,684.647 197.285,675.586 221.035,672.11C228.691,670.99 239.707,667.917 244.923,675.448C251.074,684.327 243.035,697.371 237.899,704.486C220.572,728.492 193.313,745.797 169.415,762.421C69.196,832.135 -34.752,892.383 -148.491,937.308"
            style="fill: rgb(109, 45, 74); fill-opacity: 0.7"
          />
        </g>
        <path
          d="M305.889,636.207C307.855,635.45 301.842,637.378 299.825,637.985C295.615,639.253 291.396,640.488 287.165,641.689C274.859,645.181 262.559,648.577 250.368,652.464C214.126,664.019 180.41,682.675 145.612,697.79C79.739,726.404 4.692,736.119 -52.053,782.996C-72.927,800.24 -92.054,819.189 -106.933,841.835C-111.518,848.815 -124.545,874.319 -130.788,877.027C-131.24,877.223 -131.732,877.207 -132.078,876.82C-136.35,872.035 -129.591,855.415 -127.971,850.7C-118.947,824.432 -101.681,799.938 -84.201,778.682C-12.204,691.135 114.16,669.748 216.576,635.976"
          style="fill: none; stroke: black; stroke-width: 2.1px"
        />
      </g>
      <path
        d="M294.497,626.912C225.777,645.697 160.401,673.644 93.624,698.852C63.14,710.359 18.403,720.179 -6.136,742.673C-25.53,760.451 -36.893,792.555 -48.34,815.557C-54.441,827.817 -92.078,902.343 -85.334,914.989C-82.55,920.207 -6.179,929.222 20.652,932.763C114.775,945.183 210.185,942.53 304.67,951.158C324.216,952.943 336.82,957.234 352.146,940.515C364.402,927.145 358.135,854.464 358.651,836.899C361.655,734.642 276.124,684.917 279.816,639.568L294.497,626.912Z"
        style="fill: none; stroke: black; stroke-width: 2.1px"
      />
    </g>
  </g>
  <g transform="matrix(1.01049,0,0,1.01049,-4.19221,-6.31731)">
    <g id="assassin-red-bits">
      <path
        d="M406.617,536.005C421.19,535.53 435.793,535.633 450.338,536.628C505.437,540.395 532.169,563.611 579.854,585.035C603.768,595.779 631.134,600.043 652.735,615.401C669.72,627.476 686.127,644.837 698.309,661.716C700.545,664.814 705.415,677.218 705.415,677.218C705.415,677.218 685.168,678.229 676.276,680.353C661.934,683.78 640.699,688.163 626.079,697.977C607.865,710.203 593.245,731.34 574.878,765.623C567.398,779.585 569.595,770.136 565.423,763.969C546.656,736.227 530.078,645.937 515.342,615.897C499.957,584.536 299.162,584.536 283.777,615.897C269.041,645.937 258.075,723.272 239.308,751.014C235.136,757.181 230.732,763.15 226.984,769.605C225.667,771.872 219.358,752.706 210.416,743.311C192.257,724.231 191.253,710.203 173.04,697.977C158.419,688.163 137.185,683.78 122.843,680.353C113.951,678.229 93.704,677.218 93.704,677.218C93.704,677.218 98.574,664.814 100.81,661.716C112.992,644.837 129.399,627.476 146.384,615.401C167.984,600.043 195.351,595.779 219.265,585.035C266.95,563.611 293.682,540.395 348.781,536.628C363.326,535.633 377.929,535.53 392.502,536.005C394.666,535.812 397.318,535.884 399.559,535.975C401.802,535.884 404.454,535.811 406.617,536.005Z"
        style="fill: rgb(165, 35, 59)"
      />
      <clipPath id="Assassin-cap_8">
        <path
          d="M406.617,536.005C421.19,535.53 435.793,535.633 450.338,536.628C505.437,540.395 532.169,563.611 579.854,585.035C603.768,595.779 631.134,600.043 652.735,615.401C669.72,627.476 686.127,644.837 698.309,661.716C700.545,664.814 705.415,677.218 705.415,677.218C705.415,677.218 685.168,678.229 676.276,680.353C661.934,683.78 640.699,688.163 626.079,697.977C607.865,710.203 593.245,731.34 574.878,765.623C567.398,779.585 569.595,770.136 565.423,763.969C546.656,736.227 530.078,645.937 515.342,615.897C499.957,584.536 299.162,584.536 283.777,615.897C269.041,645.937 258.075,723.272 239.308,751.014C235.136,757.181 230.732,763.15 226.984,769.605C225.667,771.872 219.358,752.706 210.416,743.311C192.257,724.231 191.253,710.203 173.04,697.977C158.419,688.163 137.185,683.78 122.843,680.353C113.951,678.229 93.704,677.218 93.704,677.218C93.704,677.218 98.574,664.814 100.81,661.716C112.992,644.837 129.399,627.476 146.384,615.401C167.984,600.043 195.351,595.779 219.265,585.035C266.95,563.611 293.682,540.395 348.781,536.628C363.326,535.633 377.929,535.53 392.502,536.005C394.666,535.812 397.318,535.884 399.559,535.975C401.802,535.884 404.454,535.811 406.617,536.005Z"
        />
      </clipPath>
      <g clip-path="url(#Assassin-cap_8)">
        <path
          d="M233.064,574.572C233.356,574.318 233.485,574.232 233.262,574.508L233.064,574.572C232.538,575.028 231.486,576.028 231.01,576.451C229.334,577.939 227.622,579.384 225.902,580.82C220.981,584.929 216.065,588.99 210.94,592.843C198.348,602.31 183.531,609.271 171.729,619.685C167.431,623.477 161.879,629.762 164.333,635.971C166.905,642.478 176.903,642.13 182.557,641.408C184.578,641.15 190.303,640.562 190.386,640.833C190.61,641.559 185.552,644.055 185.071,644.319C179.053,647.623 173.819,649.285 166.795,648.627C161.93,648.171 157.159,645.634 154.498,641.716C154.243,641.342 151.121,635.945 151.03,635.938C149.624,635.83 145.888,639.878 144.993,640.632C141.434,643.628 137.519,647.315 135.799,649.677C134.209,651.861 130.01,659.157 130.01,659.157C130.01,659.157 141.597,664.161 146.209,666.714C162.529,675.748 179.47,689.193 189.664,704.767C192.12,708.52 194.569,712.296 196.675,716.26C197.087,717.035 198.813,719.505 198.179,720.455C197.736,721.12 196.085,720.568 195.538,720.422C192.682,719.66 190,718.273 187.331,717.035C176.314,711.928 165.171,707.149 153.807,702.862C138.323,697.02 122.486,691.958 106.487,687.723C101.875,686.502 97.191,685.584 92.491,684.776C90.573,684.445 87.543,684.459 86.009,683.054C83.662,680.905 87.369,675.655 88.433,673.792C93.481,664.959 99.854,656.87 106.487,649.185C132.515,619.026 165.661,596.353 203.584,584.071L233.064,574.572ZM567.091,574.572C567.617,575.028 568.669,576.028 569.145,576.451C570.821,577.939 572.533,579.384 574.253,580.82C579.174,584.929 584.09,588.99 589.215,592.843C601.807,602.31 616.624,609.271 628.426,619.685C632.724,623.477 638.276,629.762 635.822,635.971C633.25,642.478 623.252,642.13 617.598,641.408C615.577,641.15 609.852,640.562 609.769,640.833C609.545,641.559 614.603,644.055 615.084,644.319C621.102,647.623 626.336,649.285 633.36,648.627C638.225,648.171 642.996,645.634 645.657,641.716C645.912,641.342 649.034,635.945 649.125,635.938C650.531,635.83 654.267,639.878 655.162,640.632C658.721,643.628 662.636,647.315 664.356,649.677C665.946,651.861 670.144,659.157 670.144,659.157C670.144,659.157 658.558,664.161 653.946,666.714C637.626,675.748 620.685,689.193 610.491,704.767C608.035,708.52 605.586,712.296 603.48,716.26C603.068,717.035 601.342,719.505 601.976,720.455C602.419,721.12 604.07,720.568 604.617,720.422C607.473,719.66 610.155,718.273 612.824,717.035C623.841,711.928 634.984,707.149 646.348,702.862C661.832,697.02 677.669,691.958 693.668,687.723C698.28,686.502 702.964,685.584 707.664,684.776C709.582,684.445 712.612,684.459 714.146,683.054C716.493,680.905 712.786,675.655 711.722,673.792C706.674,664.959 700.301,656.87 693.668,649.185C667.64,619.026 634.494,596.353 596.571,584.071L567.091,574.572C566.799,574.318 566.67,574.232 566.893,574.508L567.091,574.572Z"
          style="fill: rgb(234, 80, 108)"
        />
        <path
          d="M399.965,516.261C411.451,516.064 423.556,518.959 434.178,521.203C456.817,525.987 479.332,531.42 501.706,537.319C513.645,540.467 525.562,543.795 537.226,547.858C540.994,549.17 544.732,550.567 548.402,552.135C549.06,552.416 554.726,555.179 554.249,555.279L549.956,559.942C554.522,563.05 559.13,566.091 563.637,569.286C566.002,570.964 568.371,572.645 570.658,574.43C571.654,575.207 580.362,581.329 579.234,583.064C577.991,584.976 568.79,581.619 567.154,581.225C554.963,578.29 544.786,574.983 532.493,572.481C529.191,571.809 518.7,569.36 517.874,570.286C515.622,572.811 526.561,588.75 525.833,591.392C525.192,593.72 514.12,596.242 513.514,597.862C512.353,600.965 520.837,604.181 523.097,604.721C535.387,607.66 547.91,609.255 560.094,612.775C565.284,614.274 570.412,616.028 575.524,617.776C577.176,618.341 583.625,620.993 582.996,620.364C576.84,614.207 563.273,610.812 555.435,607.754C554.709,607.471 546.009,604.698 546.232,603.805C546.465,602.872 550.796,602.58 551.524,602.456C557.519,601.436 563.761,601.328 569.825,601.482C590.135,601.996 609.989,609.178 627.279,619.596C633.009,623.049 643.438,630.649 639.604,638.73C636.65,644.958 625.535,643.347 620.303,642.286C601.189,638.409 583.275,627.518 564.779,621.403C563.124,620.856 541.746,615.045 540.813,615.791C540.722,615.864 548.713,623.399 549.123,623.934C552.837,628.788 557.308,636.069 559.616,641.71C566.714,659.062 567.369,678.698 567.952,697.254C568.057,700.604 571.134,712.524 568.431,715.226C568.29,715.368 566.855,711.669 566.773,711.432C565.943,709.049 565.1,706.666 564.185,704.314C561.262,696.796 557.875,689.411 554.525,682.076C544.478,660.078 532.039,636.15 511.546,622.119C500.05,614.248 486.977,612.939 473.549,610.71C456.932,607.95 440.538,604.994 423.608,605.334C418.897,605.429 414.181,605.518 409.467,605.632C407.532,606.66 403.604,606.04 402.167,605.986C401.433,605.958 400.699,605.932 399.965,605.907C399.231,605.932 398.497,605.958 397.763,605.986C396.325,606.04 392.397,606.66 390.462,605.632C385.749,605.518 381.032,605.429 376.322,605.334C359.391,604.994 342.997,607.95 326.38,610.71C312.952,612.939 299.879,614.248 288.383,622.119C267.89,636.15 255.452,660.078 245.405,682.076C242.055,689.411 238.668,696.796 235.744,704.314C234.83,706.666 233.986,709.049 233.156,711.432C233.074,711.669 231.639,715.368 231.498,715.226C228.795,712.524 231.872,700.604 231.978,697.254C232.561,678.698 233.215,659.062 240.314,641.71C242.622,636.069 247.092,628.788 250.807,623.934C251.216,623.399 259.208,615.864 259.117,615.791C258.184,615.045 236.805,620.856 235.15,621.403C216.654,627.518 198.741,638.409 179.627,642.286C174.395,643.347 163.279,644.958 160.325,638.73C156.492,630.649 166.92,623.049 172.651,619.596C189.94,609.178 209.794,601.996 230.104,601.482C236.168,601.328 242.41,601.436 248.405,602.456C249.133,602.58 253.464,602.872 253.697,603.805C253.92,604.698 245.22,607.471 244.495,607.754C236.656,610.812 223.09,614.207 216.933,620.364C216.304,620.993 222.753,618.341 224.406,617.776C229.517,616.028 234.645,614.274 239.836,612.775C252.02,609.255 264.543,607.66 276.832,604.721C279.092,604.181 287.576,600.965 286.416,597.862C285.81,596.242 274.737,593.72 274.096,591.392C273.369,588.75 284.307,572.811 282.056,570.286C281.229,569.36 270.739,571.809 267.437,572.481C255.143,574.983 244.966,578.29 232.776,581.225C231.14,581.619 221.938,584.976 220.695,583.064C219.568,581.329 228.275,575.207 229.272,574.43C231.559,572.645 233.927,570.964 236.293,569.286C240.799,566.091 245.407,563.05 249.974,559.942L245.681,555.279C245.203,555.179 250.869,552.416 251.527,552.135C255.197,550.567 258.935,549.17 262.703,547.858C274.368,543.795 286.284,540.467 298.223,537.319C320.597,531.42 343.112,525.987 365.751,521.203C376.374,518.959 388.478,516.064 399.965,516.261Z"
          style="fill: rgb(93, 29, 66)"
        />
        <path
          d="M252.289,603.655C246.411,602.666 236.931,602.629 230.985,602.652C209.716,602.734 187.764,609.977 170.589,622.536C166.754,625.34 156.521,633.311 160.209,639.458C162.005,642.45 164.697,643.672 167.772,643.855C176.924,644.398 186.344,641.76 194.936,638.896C226.155,628.489 254.921,607.076 289.137,607.527"
          style="fill: none; stroke: black; stroke-width: 2.1px"
        />
        <g transform="matrix(-1,0,0,1,799.7,0)">
          <path
            d="M252.289,603.655C246.411,602.666 236.931,602.629 230.985,602.652C209.716,602.734 187.764,609.977 170.589,622.536C166.754,625.34 156.521,633.311 160.209,639.458C162.005,642.45 164.697,643.672 167.772,643.855C176.924,644.398 186.344,641.76 194.936,638.896C226.155,628.489 254.921,607.076 289.137,607.527"
            style="fill: none; stroke: black; stroke-width: 2.1px"
          />
        </g>
        <path
          d="M399.435,528.875C440.136,528.729 479.406,534.543 517.59,544.889L589.532,574.741L681.974,617.167L710.909,663.997L708.916,698.986L623.975,716.45L590.806,781.893L573.938,786.162C573.938,786.162 562.532,786.602 565.654,775.764C568.776,764.925 594.445,715.948 608.373,703.219C622.301,690.49 654.735,679.391 661.624,677.09C668.513,674.789 692.091,670.681 692.091,670.681C692.091,670.681 690.699,663.079 681.705,652.429C672.711,641.778 658.399,627.133 637.324,614.333C616.249,601.534 597.524,598.418 585.123,593.923C572.723,589.428 546.878,577.325 539.113,571.922C531.347,566.519 520.569,560.046 503.04,554.524C483.602,548.401 475.158,545.469 446.727,544.09C435.527,543.546 417.314,543.426 399.995,542.918C382.677,543.426 365.185,543.337 353.986,543.88C325.555,545.259 314.677,546.768 295.831,554.524C280.23,560.944 267.523,566.519 259.758,571.922C251.992,577.325 226.147,589.428 213.747,593.923C201.347,598.418 182.621,601.534 161.547,614.333C140.472,627.133 126.16,641.778 117.166,652.429C108.171,663.079 106.779,670.681 106.779,670.681C106.779,670.681 130.357,674.789 137.247,677.09C144.136,679.391 181.117,690.126 191.991,705.546C203.484,721.845 227.68,753.141 241.935,786.018C246.422,796.366 224.933,786.162 224.933,786.162L208.065,781.893L174.895,716.45L89.955,698.986L87.962,663.997L116.896,617.167L209.339,574.741L281.28,544.889C319.465,534.543 358.734,528.729 399.435,528.875Z"
          style="fill: rgb(231, 231, 231); stroke: black; stroke-width: 2.1px"
        />
      </g>
      <path
        d="M406.617,536.005C421.19,535.53 435.793,535.633 450.338,536.628C505.437,540.395 532.169,563.611 579.854,585.035C603.768,595.779 631.134,600.043 652.735,615.401C669.72,627.476 686.127,644.837 698.309,661.716C700.545,664.814 705.415,677.218 705.415,677.218C705.415,677.218 685.168,678.229 676.276,680.353C661.934,683.78 640.699,688.163 626.079,697.977C607.865,710.203 593.245,731.34 574.878,765.623C567.398,779.585 569.595,770.136 565.423,763.969C546.656,736.227 530.078,645.937 515.342,615.897C499.957,584.536 299.162,584.536 283.777,615.897C269.041,645.937 258.075,723.272 239.308,751.014C235.136,757.181 230.732,763.15 226.984,769.605C225.667,771.872 219.358,752.706 210.416,743.311C192.257,724.231 191.253,710.203 173.04,697.977C158.419,688.163 137.185,683.78 122.843,680.353C113.951,678.229 93.704,677.218 93.704,677.218C93.704,677.218 98.574,664.814 100.81,661.716C112.992,644.837 129.399,627.476 146.384,615.401C167.984,600.043 195.351,595.779 219.265,585.035C266.95,563.611 293.682,540.395 348.781,536.628C363.326,535.633 377.929,535.53 392.502,536.005C394.666,535.812 397.318,535.884 399.559,535.975C401.802,535.884 404.454,535.811 406.617,536.005Z"
        style="fill: none; stroke: black; stroke-width: 2.1px"
      />
    </g>
  </g>
  <g id="assassin-collar" transform="matrix(0.990533,0,0,0.990533,3.78391,1.08813)">
    <path
      id="shadow1"
      d="M292.885,607.359C293.94,606.858 292.704,609.686 292.632,610.851C292.494,613.09 292.349,615.329 292.223,617.569C291.844,624.346 291.882,631.179 293.107,637.871C296.68,657.384 313.753,682.431 324.724,698.695C345.766,729.889 363.748,760.16 371.589,797.509C377.266,824.556 374.925,848.762 374.232,869.907C373.78,883.68 372.591,894.404 369.809,907.902C369.053,911.571 368.792,919.715 365.67,922.439C363.882,923.999 361.189,919.127 360.569,918.121C356.857,912.102 353.868,905.516 351.002,899.066C338.272,870.424 332.005,840.013 324.368,809.767C320.473,794.34 315.971,779.1 310.468,764.164C306.73,754.018 302.682,743.998 298.529,734.017C295.341,726.354 292.066,718.727 288.889,711.06C277.121,682.658 261.397,634.785 286.17,607.535L292.885,607.359ZM507.211,607.359C506.157,606.858 507.393,609.686 507.465,610.851C507.603,613.09 507.748,615.329 507.874,617.569C508.253,624.346 508.215,631.179 506.99,637.871C503.417,657.384 491.062,676.957 480.091,693.221C459.049,724.415 432.858,756.066 425.018,793.416C419.341,820.463 425.171,848.762 425.865,869.907C426.316,883.68 427.506,894.404 430.288,907.902C431.044,911.571 431.305,919.715 434.427,922.439C436.215,923.999 438.908,919.127 439.528,918.121C443.239,912.102 446.228,905.516 449.095,899.066C461.825,870.424 468.092,840.013 475.728,809.767C479.624,794.34 484.126,779.1 489.629,764.164C493.367,754.018 497.415,743.998 501.568,734.017C504.756,726.354 508.031,718.727 511.208,711.06C522.976,682.658 538.7,634.785 513.927,607.535L507.211,607.359Z"
      style="fill: rgb(56, 25, 57); fill-opacity: 0.5"
    />
    <g id="collar">
      <g transform="matrix(-1,0,0,1,798.8,0)">
        <path
          d="M280.908,658.174C284.689,663.042 286.531,671.551 289.302,677.108C296.497,691.536 304.36,705.589 312.339,719.593C346.6,779.73 368.233,797.056 376.537,868.529C378.483,885.28 377.362,902.802 379.281,919.556C379.444,920.975 382.048,933.92 380.277,934.628C379.057,935.116 320.626,929.426 317.563,914.916C311.526,886.319 261.29,842.527 243.578,816.25C220.782,782.43 233.659,749.989 257.185,678.569L280.908,658.174Z"
          style="fill: rgb(231, 231, 231)"
        />
        <clipPath id="Assassin-cap_9">
          <path
            d="M280.908,658.174C284.689,663.042 286.531,671.551 289.302,677.108C296.497,691.536 304.36,705.589 312.339,719.593C346.6,779.73 368.233,797.056 376.537,868.529C378.483,885.28 377.362,902.802 379.281,919.556C379.444,920.975 382.048,933.92 380.277,934.628C379.057,935.116 320.626,929.426 317.563,914.916C311.526,886.319 261.29,842.527 243.578,816.25C220.782,782.43 233.659,749.989 257.185,678.569L280.908,658.174Z"
          />
        </clipPath>
        <g clip-path="url(#Assassin-cap_9)">
          <g transform="matrix(-0.854447,0,0,0.854447,740.621,167.596)">
            <path
              d="M533.734,660.01C533.051,659.253 542.09,681.182 543.528,687.644C547.675,706.277 541.375,726.212 535.435,744.178C527.205,769.071 516.656,790.332 502.419,812.083C496.938,820.457 491.117,828.577 485.149,836.609C484.519,837.458 479.064,843.776 481.7,844.56C486.558,846.004 495.262,839.891 499.233,837.871C514.156,830.277 529.163,821.747 542.165,811.12C571.3,787.308 589.578,763.937 600.675,728.036C603.848,717.769 609.651,707.863 607.209,696.778C603.718,680.934 588.678,666.442 577.858,655.125"
              style="fill: rgb(165, 35, 59); stroke: black; stroke-width: 2.1px"
            />
          </g>
          <g transform="matrix(-0.854447,0,0,0.854447,740.621,167.596)">
            <path
              d="M622.443,691.318C587.972,719.183 585.29,748.643 556.114,781.531C546.198,792.707 535.726,803.394 525.387,814.174C521.423,818.306 517.315,822.412 513.667,826.831C513.171,827.432 510.067,830.954 511.97,831.525C514.95,832.419 519.827,829.661 522.402,828.51C532.295,824.091 541.522,818.09 549.942,811.302C580.287,786.837 593.431,760.703 610.428,727.62C617.865,713.144 633.801,707.044 622.443,691.318Z"
              style="fill: rgb(231, 231, 231); stroke: black; stroke-width: 2.1px"
            />
          </g>
          <g transform="matrix(-0.854447,0,0,0.854447,740.621,167.596)">
            <path
              d="M614.185,767.953C610.3,770.7 593.293,763.014 589.554,761.875C566.396,754.822 544.748,747.091 520.162,746.814C489.141,746.464 462.11,753.814 441.514,778.215C433.286,787.962 426.978,799.254 421.875,810.903C421.166,812.522 418.483,821.721 415.968,821.592C415.369,821.561 415.204,820.633 415.124,820.194C413.664,812.163 417.294,801.65 419.028,793.933C419.146,793.407 419.266,792.881 419.386,792.356C425.945,763.758 438.372,737.596 461.63,718.771C492.426,693.844 539.575,679.697 575.012,703.803C589.167,713.432 598.887,728.487 607.53,742.927"
              style="fill: rgb(76, 13, 78); fill-opacity: 0.5"
            />
          </g>
        </g>
        <path
          d="M280.908,658.174C284.689,663.042 286.531,671.551 289.302,677.108C296.497,691.536 304.36,705.589 312.339,719.593C346.6,779.73 368.233,797.056 376.537,868.529C378.483,885.28 377.362,902.802 379.281,919.556C379.444,920.975 382.048,933.92 380.277,934.628C379.057,935.116 320.626,929.426 317.563,914.916C311.526,886.319 261.29,842.527 243.578,816.25C220.782,782.43 233.659,749.989 257.185,678.569L280.908,658.174Z"
          style="fill: none; stroke: black; stroke-width: 2.1px"
        />
      </g>
      <g transform="matrix(1,0,0,1,-0.246501,0)">
        <path
          d="M280.908,658.174C284.689,663.042 286.531,671.551 289.302,677.108C296.497,691.536 304.36,705.589 312.339,719.593C346.6,779.73 368.233,797.056 376.537,868.529C378.483,885.28 377.362,902.802 379.281,919.556C379.444,920.975 382.048,933.92 380.277,934.628C379.057,935.116 320.626,929.426 317.563,914.916C311.526,886.319 261.29,842.527 243.578,816.25C220.782,782.43 233.659,749.989 257.185,678.569L280.908,658.174Z"
          style="fill: rgb(231, 231, 231)"
        />
        <clipPath id="Assassin-cap_10">
          <path
            d="M280.908,658.174C284.689,663.042 286.531,671.551 289.302,677.108C296.497,691.536 304.36,705.589 312.339,719.593C346.6,779.73 368.233,797.056 376.537,868.529C378.483,885.28 377.362,902.802 379.281,919.556C379.444,920.975 382.048,933.92 380.277,934.628C379.057,935.116 320.626,929.426 317.563,914.916C311.526,886.319 261.29,842.527 243.578,816.25C220.782,782.43 233.659,749.989 257.185,678.569L280.908,658.174Z"
          />
        </clipPath>
        <g clip-path="url(#Assassin-cap_10)">
          <g transform="matrix(-0.854447,0,0,0.854447,740.621,167.596)">
            <path
              d="M533.734,660.01C533.051,659.253 542.09,681.182 543.528,687.644C547.675,706.277 541.375,726.212 535.435,744.178C527.205,769.071 516.656,790.332 502.419,812.083C496.938,820.457 491.117,828.577 485.149,836.609C484.519,837.458 479.064,843.776 481.7,844.56C486.558,846.004 495.262,839.891 499.233,837.871C514.156,830.277 529.163,821.747 542.165,811.12C571.3,787.308 589.578,763.937 600.675,728.036C603.848,717.769 609.651,707.863 607.209,696.778C603.718,680.934 588.678,666.442 577.858,655.125"
              style="fill: rgb(165, 35, 59); stroke: black; stroke-width: 2.1px"
            />
          </g>
          <g transform="matrix(-0.854447,0,0,0.854447,740.621,167.596)">
            <path
              d="M622.443,691.318C587.972,719.183 585.29,748.643 556.114,781.531C546.198,792.707 535.726,803.394 525.387,814.174C521.423,818.306 517.315,822.412 513.667,826.831C513.171,827.432 510.067,830.954 511.97,831.525C514.95,832.419 519.827,829.661 522.402,828.51C532.295,824.091 541.522,818.09 549.942,811.302C580.287,786.837 593.431,760.703 610.428,727.62C617.865,713.144 633.801,707.044 622.443,691.318Z"
              style="fill: rgb(231, 231, 231); stroke: black; stroke-width: 2.1px"
            />
          </g>
          <g transform="matrix(-0.854447,0,0,0.854447,740.621,167.596)">
            <path
              d="M614.185,767.953C610.3,770.7 593.293,763.014 589.554,761.875C566.396,754.822 544.748,747.091 520.162,746.814C489.141,746.464 462.11,753.814 441.514,778.215C433.286,787.962 426.978,799.254 421.875,810.903C421.166,812.522 418.483,821.721 415.968,821.592C415.369,821.561 415.204,820.633 415.124,820.194C413.664,812.163 417.294,801.65 419.028,793.933C419.146,793.407 419.266,792.881 419.386,792.356C425.945,763.758 438.372,737.596 461.63,718.771C492.426,693.844 539.575,679.697 575.012,703.803C589.167,713.432 598.887,728.487 607.53,742.927"
              style="fill: rgb(76, 13, 78); fill-opacity: 0.5"
            />
          </g>
        </g>
        <path
          d="M280.908,658.174C284.689,663.042 286.531,671.551 289.302,677.108C296.497,691.536 304.36,705.589 312.339,719.593C346.6,779.73 368.233,797.056 376.537,868.529C378.483,885.28 377.362,902.802 379.281,919.556C379.444,920.975 382.048,933.92 380.277,934.628C379.057,935.116 320.626,929.426 317.563,914.916C311.526,886.319 261.29,842.527 243.578,816.25C220.782,782.43 233.659,749.989 257.185,678.569L280.908,658.174Z"
          style="fill: none; stroke: black; stroke-width: 2.1px"
        />
      </g>
      <path
        d="M293.103,604.868C293.103,604.868 266.006,609.898 250.473,639.285C234.939,668.672 231.64,707.449 227.196,727.206C222.752,746.964 208.067,803.089 202.633,811.867C197.198,820.644 193.267,828.004 193.267,828.004C193.267,828.004 217.496,824.198 226.938,815.287C236.38,806.377 245.384,794.345 254.937,788.329C264.49,782.314 274.754,775.339 292.195,775.526C309.635,775.712 325.821,777.709 341.259,787.677C356.697,797.646 365.289,816.789 365.289,816.789C365.289,816.789 364.123,776.697 352.766,754.114C340.89,730.499 330.189,711.629 324.119,702.938C318.049,694.248 291.072,667.253 288.697,657.133C286.322,647.014 282.58,630.083 293.103,604.868Z"
        style="fill: rgb(231, 231, 231)"
      />
      <clipPath id="Assassin-cap_11">
        <path
          d="M293.103,604.868C293.103,604.868 266.006,609.898 250.473,639.285C234.939,668.672 231.64,707.449 227.196,727.206C222.752,746.964 208.067,803.089 202.633,811.867C197.198,820.644 193.267,828.004 193.267,828.004C193.267,828.004 217.496,824.198 226.938,815.287C236.38,806.377 245.384,794.345 254.937,788.329C264.49,782.314 274.754,775.339 292.195,775.526C309.635,775.712 325.821,777.709 341.259,787.677C356.697,797.646 365.289,816.789 365.289,816.789C365.289,816.789 364.123,776.697 352.766,754.114C340.89,730.499 330.189,711.629 324.119,702.938C318.049,694.248 291.072,667.253 288.697,657.133C286.322,647.014 282.58,630.083 293.103,604.868Z"
        />
      </clipPath>
      <g clip-path="url(#Assassin-cap_11)">
        <path
          d="M212.024,736.163C213.819,727.509 225.282,713.082 230.03,705.409C237.192,693.835 246.229,666.747 260.288,662.856C270.679,659.98 278.139,670.796 281.854,678.65C286.234,687.91 289.997,697.244 295.435,705.989C304.964,721.311 316.594,736.324 320.412,754.348C320.75,755.944 321.074,757.552 321.35,759.16C322.43,765.433 320.636,766.014 314.364,766.014C312.422,766.014 310.481,766.093 308.542,766.191C304.156,766.412 299.805,767.001 295.48,767.747C280.276,770.368 265.25,775.523 253.919,786.361C249.826,790.276 246.601,794.998 243.429,799.661C242.704,800.726 240.039,803.579 240.405,805.041C240.708,806.253 244.356,804.388 244.836,804.175C249.645,802.037 254.173,799.287 258.93,797.034C270.935,791.347 283.346,787.844 296.688,787.619C313.36,787.338 330.129,791.457 344.065,800.748C346.229,802.191 356.222,808.948 359.02,804.55C360.133,802.801 358.619,799.847 357.977,798.204C355.744,792.491 352.378,787.263 350.113,781.521C346.195,771.592 343.854,761.107 339.76,751.23C334.193,737.797 326.631,725.028 320.258,711.96C309.091,689.063 295.973,667.927 294.53,641.808C293.934,631.014 295.696,620.635 297.372,610.027C297.977,606.205 299.441,599.719 296.644,596.396C292.904,591.954 285.704,593.43 280.966,594.746C267.657,598.443 255.483,606.73 245.774,616.395C238.361,623.775 232.275,632.485 227.259,641.643C218.407,657.806 213.824,675.68 210.312,693.638"
          style="fill: rgb(173, 144, 174)"
        />
        <path
          d="M241.609,658.712C240.261,658.002 240.85,661.664 240.516,663.151C239.85,666.122 239.176,669.095 238.581,672.082C236.794,681.052 235.488,690.129 234.631,699.235C231.771,729.624 224.975,760.95 217.039,790.389C215.928,794.508 210.534,818.119 205.662,818.119C191.906,818.119 198.134,791.831 199.365,784.889C205.164,752.183 215.539,717.94 228.61,687.318"
          style="fill: rgb(231, 231, 231)"
        />
      </g>
      <path
        d="M293.103,604.868C293.103,604.868 266.006,609.898 250.473,639.285C234.939,668.672 231.64,707.449 227.196,727.206C222.752,746.964 208.067,803.089 202.633,811.867C197.198,820.644 193.267,828.004 193.267,828.004C193.267,828.004 217.496,824.198 226.938,815.287C236.38,806.377 245.384,794.345 254.937,788.329C264.49,782.314 274.754,775.339 292.195,775.526C309.635,775.712 325.821,777.709 341.259,787.677C356.697,797.646 365.289,816.789 365.289,816.789C365.289,816.789 364.123,776.697 352.766,754.114C340.89,730.499 330.189,711.629 324.119,702.938C318.049,694.248 291.072,667.253 288.697,657.133C286.322,647.014 282.58,630.083 293.103,604.868Z"
        style="fill: none; stroke: black; stroke-width: 2.1px"
      />
      <g transform="matrix(-1,0,0,1,799.422,0)">
        <path
          d="M293.103,604.868C293.103,604.868 266.006,609.898 250.473,639.285C234.939,668.672 231.64,707.449 227.196,727.206C222.752,746.964 208.067,803.089 202.633,811.867C197.198,820.644 193.267,828.004 193.267,828.004C193.267,828.004 217.496,824.198 226.938,815.287C236.38,806.377 245.384,794.345 254.937,788.329C264.49,782.314 274.754,775.339 292.195,775.526C309.635,775.712 325.821,777.709 341.259,787.677C356.697,797.646 367.645,820.734 367.645,820.734C367.645,820.734 362.609,774.991 353.387,756.877C344.165,738.763 329.64,713.057 323.57,704.367C317.5,695.676 291.072,667.253 288.697,657.133C286.322,647.014 282.58,630.083 293.103,604.868Z"
          style="fill: rgb(231, 231, 231)"
        />
        <clipPath id="Assassin-cap_12">
          <path
            d="M293.103,604.868C293.103,604.868 266.006,609.898 250.473,639.285C234.939,668.672 231.64,707.449 227.196,727.206C222.752,746.964 208.067,803.089 202.633,811.867C197.198,820.644 193.267,828.004 193.267,828.004C193.267,828.004 217.496,824.198 226.938,815.287C236.38,806.377 245.384,794.345 254.937,788.329C264.49,782.314 274.754,775.339 292.195,775.526C309.635,775.712 325.821,777.709 341.259,787.677C356.697,797.646 367.645,820.734 367.645,820.734C367.645,820.734 362.609,774.991 353.387,756.877C344.165,738.763 329.64,713.057 323.57,704.367C317.5,695.676 291.072,667.253 288.697,657.133C286.322,647.014 282.58,630.083 293.103,604.868Z"
          />
        </clipPath>
        <g clip-path="url(#Assassin-cap_12)">
          <path
            d="M212.024,736.163C213.819,727.509 225.282,713.082 230.03,705.409C237.192,693.835 246.229,666.747 260.288,662.856C270.679,659.98 278.139,670.796 281.854,678.65C286.234,687.91 289.997,697.244 295.435,705.989C304.964,721.311 316.594,736.324 320.412,754.348C320.75,755.944 321.074,757.552 321.35,759.16C322.43,765.433 320.636,766.014 314.364,766.014C312.422,766.014 310.481,766.093 308.542,766.191C304.156,766.412 299.805,767.001 295.48,767.747C280.276,770.368 265.25,775.523 253.919,786.361C249.826,790.276 246.601,794.998 243.429,799.661C242.704,800.726 240.039,803.579 240.405,805.041C240.708,806.253 244.356,804.388 244.836,804.175C249.645,802.037 254.173,799.287 258.93,797.034C270.935,791.347 283.346,787.844 296.688,787.619C313.36,787.338 330.129,791.457 344.065,800.748C346.229,802.191 356.222,808.948 359.02,804.55C360.133,802.801 358.619,799.847 357.977,798.204C355.744,792.491 352.378,787.263 350.113,781.521C346.195,771.592 343.854,761.107 339.76,751.23C334.193,737.797 326.631,725.028 320.258,711.96C309.091,689.063 295.973,667.927 294.53,641.808C293.934,631.014 295.696,620.635 297.372,610.027C297.977,606.205 299.441,599.719 296.644,596.396C292.904,591.954 285.704,593.43 280.966,594.746C267.657,598.443 255.483,606.73 245.774,616.395C238.361,623.775 232.275,632.485 227.259,641.643C218.407,657.806 213.824,675.68 210.312,693.638"
            style="fill: rgb(173, 144, 174)"
          />
          <path
            d="M241.609,658.712C240.261,658.002 240.85,661.664 240.516,663.151C239.85,666.122 239.176,669.095 238.581,672.082C236.794,681.052 235.488,690.129 234.631,699.235C231.771,729.624 224.975,760.95 217.039,790.389C215.928,794.508 210.534,818.119 205.662,818.119C191.906,818.119 198.134,791.831 199.365,784.889C205.164,752.183 215.539,717.94 228.61,687.318"
            style="fill: rgb(231, 231, 231)"
          />
        </g>
        <path
          d="M293.103,604.868C293.103,604.868 266.006,609.898 250.473,639.285C234.939,668.672 231.64,707.449 227.196,727.206C222.752,746.964 208.067,803.089 202.633,811.867C197.198,820.644 193.267,828.004 193.267,828.004C193.267,828.004 217.496,824.198 226.938,815.287C236.38,806.377 245.384,794.345 254.937,788.329C264.49,782.314 274.754,775.339 292.195,775.526C309.635,775.712 325.821,777.709 341.259,787.677C356.697,797.646 367.645,820.734 367.645,820.734C367.645,820.734 362.609,774.991 353.387,756.877C344.165,738.763 329.64,713.057 323.57,704.367C317.5,695.676 291.072,667.253 288.697,657.133C286.322,647.014 282.58,630.083 293.103,604.868Z"
          style="fill: none; stroke: black; stroke-width: 2.1px"
        />
      </g>
    </g>
  </g>
</svg>
