<svg
  width="100%"
  height="100%"
  viewBox="0 0 800 800"
  version="1.1"
  xmlns="http://www.w3.org/2000/svg"
  style="fill-rule: evenodd; clip-rule: evenodd; stroke-linecap: round; stroke-linejoin: round; stroke-miterlimit: 1.5"
>
  <g id="marshall-hat">
    <path
      id="Shadow"
      d="M400.086,297.407L580.637,267.417C580.637,267.417 467.849,367.957 400.086,365.123C332.322,367.957 220.857,267.965 220.857,267.965L400.086,297.407Z"
      style="fill: rgb(56, 25, 57); fill-opacity: 0.5"
    />
    <g id="marshall">
      <g id="hat">
        <path
          d="M407.128,207.961C450.005,208.219 575.762,209.17 590.61,211.524C608.546,214.368 674.915,217.92 674.915,217.92C674.915,217.92 708.949,195.614 717.784,189.09C726.618,182.567 734.236,173.495 738.299,172.836C742.361,172.176 761.468,186.758 760.731,196.942C759.994,207.126 754.218,231.213 726.25,242.941C698.281,254.67 581.245,266.733 581.514,266.841C581.782,266.949 426.51,305.149 416.065,307.33C412.057,308.167 408.382,308.639 405.255,308.895L405.252,309.042C405.252,309.042 403.306,309.221 400.007,309.161C396.709,309.221 394.762,309.042 394.762,309.042L394.76,308.895C391.632,308.639 387.958,308.167 383.949,307.33C373.504,305.149 218.232,266.949 218.501,266.841C218.77,266.733 101.734,254.67 73.765,242.941C45.796,231.213 40.021,207.126 39.284,196.942C38.547,186.758 57.653,172.176 61.716,172.836C65.778,173.495 73.396,182.567 82.231,189.09C91.066,195.614 125.099,217.92 125.099,217.92C125.099,217.92 191.469,214.368 209.405,211.524C224.253,209.17 350.01,208.219 392.887,207.961L392.885,207.884C393.56,207.887 394.234,207.89 394.909,207.893L405.106,207.893C405.78,207.89 406.455,207.887 407.129,207.884L407.128,207.961Z"
          style="fill: rgb(109, 75, 65)"
        />
        <clipPath id="Marshall-hat_0">
          <path
            d="M407.128,207.961C450.005,208.219 575.762,209.17 590.61,211.524C608.546,214.368 674.915,217.92 674.915,217.92C674.915,217.92 708.949,195.614 717.784,189.09C726.618,182.567 734.236,173.495 738.299,172.836C742.361,172.176 761.468,186.758 760.731,196.942C759.994,207.126 754.218,231.213 726.25,242.941C698.281,254.67 581.245,266.733 581.514,266.841C581.782,266.949 426.51,305.149 416.065,307.33C412.057,308.167 408.382,308.639 405.255,308.895L405.252,309.042C405.252,309.042 403.306,309.221 400.007,309.161C396.709,309.221 394.762,309.042 394.762,309.042L394.76,308.895C391.632,308.639 387.958,308.167 383.949,307.33C373.504,305.149 218.232,266.949 218.501,266.841C218.77,266.733 101.734,254.67 73.765,242.941C45.796,231.213 40.021,207.126 39.284,196.942C38.547,186.758 57.653,172.176 61.716,172.836C65.778,173.495 73.396,182.567 82.231,189.09C91.066,195.614 125.099,217.92 125.099,217.92C125.099,217.92 191.469,214.368 209.405,211.524C224.253,209.17 350.01,208.219 392.887,207.961L392.885,207.884C393.56,207.887 394.234,207.89 394.909,207.893L405.106,207.893C405.78,207.89 406.455,207.887 407.129,207.884L407.128,207.961Z"
          />
        </clipPath>
        <g clip-path="url(#Marshall-hat_0)">
          <path
            d="M271.311,235.134C244.26,232.373 217.042,228.521 189.358,221.628L126.195,218.285L106.142,206.558C106.142,206.558 74.967,193.935 70.428,190.599C65.889,187.263 64.324,185.918 60.894,191.943C57.722,197.512 51.464,205.844 63.954,225.501C76.444,245.159 108.509,257.979 108.509,257.979L35.616,231.551C35.616,231.551 30.794,196.32 33.564,188.719C36.334,181.118 52.843,160.997 55.583,160.217C58.323,159.438 79.61,154.817 82.674,157.872C85.738,160.928 192.085,194.216 192.085,194.216L271.311,235.134ZM529.3,235.134C556.351,232.373 583.569,228.521 611.253,221.628L674.416,218.285L694.469,206.558C694.469,206.558 725.644,193.935 730.183,190.599C734.722,187.263 736.287,185.918 739.717,191.943C742.889,197.512 749.147,205.844 736.657,225.501C724.167,245.159 692.102,257.979 692.102,257.979L764.995,231.551C764.995,231.551 769.817,196.32 767.047,188.719C764.277,181.118 747.768,160.997 745.028,160.217C742.288,159.438 721.001,154.817 717.937,157.872C714.873,160.928 608.526,194.216 608.526,194.216L529.3,235.134Z"
            style="fill: rgb(195, 184, 156)"
          />
          <path
            d="M400.375,239.641L553.133,230.84C553.133,230.84 437.666,268.519 425.128,270.921C420.612,271.786 413.909,273.056 410.483,273.524C407.163,273.977 392.857,273.969 390.126,273.654C385.166,273.081 380.137,271.786 375.621,270.921C363.083,268.519 247.616,230.84 247.616,230.84L400.375,239.641ZM146.885,229.492C146.885,229.492 204.258,255.674 213.122,258.678C221.987,261.682 235.005,266.794 235.005,266.794L193.552,267.104C193.552,267.104 387.588,314.255 394.076,315.51C400.564,316.766 468.457,302.487 468.457,302.487L605.154,262.835L568.599,266.037C568.599,266.037 627.957,242.538 629.445,241.258C630.934,239.977 546.811,264.498 541.938,265.293C537.065,266.088 446.607,290.416 441.235,292.203C435.864,293.99 408.75,302.239 400.669,301.629C392.588,301.02 385.152,301.316 357.444,290.908C329.288,280.332 244.612,261.471 244.612,261.471L146.885,229.492Z"
            style="fill: rgb(87, 53, 67)"
          />
          <path
            d="M125.596,217.637C124.629,217.339 127.368,218.616 128.253,219.108C130.14,220.157 132.029,221.205 133.916,222.254C139.36,225.278 144.715,228.48 150.197,231.432C166.709,240.323 185.748,244.902 203.57,250.436C257.748,267.257 314.024,276.103 367.995,293.564"
            style="fill: none; stroke: black; stroke-width: 2.1px"
          />
          <g transform="matrix(-1,0,0,1,800.238,0)">
            <path
              d="M125.596,217.637C124.629,217.339 127.368,218.616 128.253,219.108C130.14,220.157 132.029,221.205 133.916,222.254C139.36,225.278 144.715,228.48 150.197,231.432C166.709,240.323 185.748,244.902 203.57,250.436C257.748,267.257 314.024,276.103 367.995,293.564"
              style="fill: none; stroke: black; stroke-width: 2.1px"
            />
          </g>
        </g>
        <path
          d="M407.128,207.961C450.005,208.219 575.762,209.17 590.61,211.524C608.546,214.368 674.915,217.92 674.915,217.92C674.915,217.92 708.949,195.614 717.784,189.09C726.618,182.567 734.236,173.495 738.299,172.836C742.361,172.176 761.468,186.758 760.731,196.942C759.994,207.126 754.218,231.213 726.25,242.941C698.281,254.67 581.245,266.733 581.514,266.841C581.782,266.949 426.51,305.149 416.065,307.33C412.057,308.167 408.382,308.639 405.255,308.895L405.252,309.042C405.252,309.042 403.306,309.221 400.007,309.161C396.709,309.221 394.762,309.042 394.762,309.042L394.76,308.895C391.632,308.639 387.958,308.167 383.949,307.33C373.504,305.149 218.232,266.949 218.501,266.841C218.77,266.733 101.734,254.67 73.765,242.941C45.796,231.213 40.021,207.126 39.284,196.942C38.547,186.758 57.653,172.176 61.716,172.836C65.778,173.495 73.396,182.567 82.231,189.09C91.066,195.614 125.099,217.92 125.099,217.92C125.099,217.92 191.469,214.368 209.405,211.524C224.253,209.17 350.01,208.219 392.887,207.961L392.885,207.884C393.56,207.887 394.234,207.89 394.909,207.893L405.106,207.893C405.78,207.89 406.455,207.887 407.129,207.884L407.128,207.961Z"
          style="fill: none; stroke: black; stroke-width: 2.1px"
        />
        <path
          d="M400.034,36.289C550.543,34.856 589.803,68.023 587.055,77.758C584.296,87.537 584.093,107.433 585.737,127.112C587.382,146.792 589.014,221.952 589.014,221.952C589.014,221.952 578.672,226.394 525.989,235.937C480.914,244.103 417.577,244.672 400.183,244.197C382.79,244.672 319.155,244.103 274.08,235.937C221.397,226.394 211.055,221.952 211.055,221.952C211.055,221.952 212.687,146.792 214.332,127.112C215.976,107.433 215.773,87.537 213.014,77.758C210.266,68.023 249.526,34.856 400.034,36.289Z"
          style="fill: rgb(109, 75, 65)"
        />
        <clipPath id="Marshall-hat_1">
          <path
            d="M400.034,36.289C550.543,34.856 589.803,68.023 587.055,77.758C584.296,87.537 584.093,107.433 585.737,127.112C587.382,146.792 589.014,221.952 589.014,221.952C589.014,221.952 578.672,226.394 525.989,235.937C480.914,244.103 417.577,244.672 400.183,244.197C382.79,244.672 319.155,244.103 274.08,235.937C221.397,226.394 211.055,221.952 211.055,221.952C211.055,221.952 212.687,146.792 214.332,127.112C215.976,107.433 215.773,87.537 213.014,77.758C210.266,68.023 249.526,34.856 400.034,36.289Z"
          />
        </clipPath>
        <g clip-path="url(#Marshall-hat_1)">
          <path
            d="M411.611,23.049L528.899,27.721L609.813,66.145L604.768,188.984L579.541,206.354C579.541,206.354 574.061,193.427 573.239,191.766C573.604,188.593 565.583,91.468 564.487,80.889C563.956,75.767 521.795,64.29 492.047,60.993C474.625,59.062 425.837,55.295 400.046,54.639C374.255,55.295 325.467,59.062 308.044,60.993C278.296,64.29 236.136,75.767 235.605,80.889C234.509,91.468 226.487,188.593 226.853,191.766C226.031,193.427 220.551,206.354 220.551,206.354L195.324,188.984L190.279,66.145L271.192,27.721L388.481,23.049L388.561,22.131L400.046,22.589L411.53,22.131L411.611,23.049ZM226.853,191.766C226.869,191.908 226.902,191.862 226.953,191.614C226.965,191.554 226.929,191.611 226.853,191.766ZM573.239,191.766C573.223,191.908 573.19,191.862 573.139,191.614C573.126,191.554 573.162,191.611 573.239,191.766Z"
            style="fill: rgb(195, 184, 156)"
          />
          <path
            d="M211.786,189.363C211.786,189.363 381.831,190.707 400.548,190.063C419.264,189.419 587.557,190.224 587.557,190.224L597.157,193.134L599.759,224.341L555.041,242.219L403.192,258.138L302.779,249.165L209.342,227.335L205.289,200.099L211.786,189.363Z"
            style="fill: rgb(36, 28, 26)"
          />
          <clipPath id="Marshall-hat_2">
            <path
              d="M211.786,189.363C211.786,189.363 381.831,190.707 400.548,190.063C419.264,189.419 587.557,190.224 587.557,190.224L597.157,193.134L599.759,224.341L555.041,242.219L403.192,258.138L302.779,249.165L209.342,227.335L205.289,200.099L211.786,189.363Z"
            />
          </clipPath>
          <g clip-path="url(#Marshall-hat_2)">
            <path
              d="M211.423,185.348L297.533,189.95L226.222,193.819L225.899,221.665C225.899,221.665 271.609,235.529 305.202,239.829C338.795,244.129 326.076,251.112 326.076,251.112L222.542,234.43L200.238,224.499L211.423,185.348ZM588.494,185.348L502.384,189.95L573.694,193.819L574.017,221.665C574.017,221.665 528.307,235.529 494.714,239.829C461.121,244.129 473.841,251.112 473.841,251.112L577.374,234.43L599.678,224.499L588.494,185.348Z"
              style="fill: rgb(165, 165, 141)"
            />
          </g>
          <path
            d="M211.786,189.363C211.786,189.363 381.831,190.707 400.548,190.063C419.264,189.419 587.557,190.224 587.557,190.224L597.157,193.134L599.759,224.341L555.041,242.219L403.192,258.138L302.779,249.165L209.342,227.335L205.289,200.099L211.786,189.363Z"
            style="fill: none; stroke: black; stroke-width: 2.1px"
          />
        </g>
        <path
          d="M400.034,36.289C550.543,34.856 589.803,68.023 587.055,77.758C584.296,87.537 584.093,107.433 585.737,127.112C587.382,146.792 589.014,221.952 589.014,221.952C589.014,221.952 578.672,226.394 525.989,235.937C480.914,244.103 417.577,244.672 400.183,244.197C382.79,244.672 319.155,244.103 274.08,235.937C221.397,226.394 211.055,221.952 211.055,221.952C211.055,221.952 212.687,146.792 214.332,127.112C215.976,107.433 215.773,87.537 213.014,77.758C210.266,68.023 249.526,34.856 400.034,36.289Z"
          style="fill: none; stroke: black; stroke-width: 2.1px"
        />
      </g>
      <g id="marshall-star-badge">
        <path
          d="M399.706,130.017C404.807,130.017 414.447,130.976 415.354,131.265C416.725,131.702 415.029,147.939 438.79,149.19C438.871,159.64 438.74,203.217 434.031,212.689C423.588,233.698 399.769,235.945 399.769,235.945C399.769,235.945 373.949,232.837 366.071,212.689C362.219,202.837 361.231,159.64 361.313,149.19C385.074,147.939 383.377,131.702 384.748,131.265C385.655,130.976 394.703,130.017 399.706,130.017Z"
          style="fill: rgb(252, 189, 45)"
        />
        <clipPath id="Marshall-hat_3">
          <path
            d="M399.706,130.017C404.807,130.017 414.447,130.976 415.354,131.265C416.725,131.702 415.029,147.939 438.79,149.19C438.871,159.64 438.74,203.217 434.031,212.689C423.588,233.698 399.769,235.945 399.769,235.945C399.769,235.945 373.949,232.837 366.071,212.689C362.219,202.837 361.231,159.64 361.313,149.19C385.074,147.939 383.377,131.702 384.748,131.265C385.655,130.976 394.703,130.017 399.706,130.017Z"
          />
        </clipPath>
        <g clip-path="url(#Marshall-hat_3)">
          <path
            d="M361.422,160.289L361.613,149.273L371.502,147.672L361.422,160.289ZM362.191,167.04L374.077,146.717L382.141,140.384L362.593,171.414L362.191,167.04ZM393.484,136.087L396.658,130.881L404.761,130.635L400.151,136.189L393.484,136.087ZM418.641,149.165L421.202,144.01L430.639,148.49L426.068,154.101L418.641,149.165ZM430.026,154.477L432.958,148.924L436.738,149.534L432.238,155.391L430.026,154.477ZM404.791,229.935L400.671,235.794L403.438,235.553L407.351,229.338L404.791,229.935ZM398.774,231.028L395.931,235.168L389.517,233.03L391.868,229.027L398.774,231.028Z"
            style="fill: rgb(237, 237, 201)"
          />
          <g transform="matrix(0.79196,0,0,0.891877,83.2275,19.7845)">
            <path
              d="M399.706,130.017C404.807,130.017 412.638,130.84 413.545,131.129C414.916,131.565 417.829,150.787 441.59,152.038C441.672,162.489 441.909,202.86 437.201,212.333C426.757,233.342 399.629,236.771 399.629,236.771C399.629,236.771 370.467,232.155 362.589,212.007C358.737,202.155 358.966,162.36 359.048,151.91C382.809,150.659 384.999,131.646 386.37,131.21C387.277,130.921 394.703,130.017 399.706,130.017Z"
              style="fill: rgb(252, 189, 45)"
            />
            <clipPath id="Marshall-hat_4">
              <path
                d="M399.706,130.017C404.807,130.017 412.638,130.84 413.545,131.129C414.916,131.565 417.829,150.787 441.59,152.038C441.672,162.489 441.909,202.86 437.201,212.333C426.757,233.342 399.629,236.771 399.629,236.771C399.629,236.771 370.467,232.155 362.589,212.007C358.737,202.155 358.966,162.36 359.048,151.91C382.809,150.659 384.999,131.646 386.37,131.21C387.277,130.921 394.703,130.017 399.706,130.017Z"
              />
            </clipPath>
            <g clip-path="url(#Marshall-hat_4)">
              <g transform="matrix(1.26269,0,0,1.12123,-105.091,-22.1829)">
                <path
                  d="M373.276,168.933L381.275,155.991L386.936,151.948L377.439,168.096L373.276,168.933ZM413.079,159.817L416.151,155.132L423.735,158.704L418.57,168.802L413.079,159.817ZM422.969,168.914L427.542,159.69L427.943,163.331L423.567,169.904L422.969,168.914ZM394.996,224.429L395.893,222.782L402.446,221.021L399.879,225.739L394.996,224.429Z"
                  style="fill: rgb(237, 237, 201)"
                />
              </g>
              <g transform="matrix(1.26269,0,0,1.12123,-105.091,-22.1829)">
                <path
                  d="M381.694,223.622C381.694,223.622 394.463,229.514 397.031,230.372C399.6,231.23 402.357,230.747 402.895,230.542C403.432,230.337 416.166,225.244 417.153,224.143C418.14,223.042 416.234,221.321 416.234,221.321L400.397,213.452L386.247,220.307L381.248,222.338L381.694,223.622ZM388.751,223.645C388.751,223.645 398.535,218.924 399.662,218.595C400.789,218.266 411.299,223.815 411.299,223.815C411.299,223.815 407.164,225.758 404.15,226.638C401.135,227.518 398.266,227.066 395.174,226.302C392.081,225.539 388.751,223.645 388.751,223.645ZM432.167,191.98L431.776,195.17L426.48,200.83L428.224,210.251L423.217,200.824L432.167,191.98ZM368.235,192.839L368.969,195.555L373.497,200.517L372.402,209.641L376.543,200.61L368.235,192.839ZM367.272,172.019L367.548,155.264C367.548,155.264 376.57,153.896 380.096,150.973C383.622,148.049 389.178,137.946 389.239,137.288C389.301,136.631 401.416,135.757 401.416,135.757C401.416,135.757 410.589,136.135 410.858,136.743C411.127,137.351 416.164,149.558 422.571,152.74C428.978,155.922 432.972,155.472 432.972,155.472L433.289,172.212L429.64,172.031L429.748,157.915C429.748,157.915 418.83,155.354 415.432,152.182C412.254,149.215 407.713,141.115 407.59,140.859C407.466,140.604 393.641,140.678 392.698,141.055C391.755,141.433 388.799,148.263 385.147,151.776C380.379,156.362 370.529,158.123 370.529,158.123L370.691,172.339L367.272,172.019Z"
                  style="fill: rgb(145, 82, 90)"
                />
              </g>
            </g>
            <path
              d="M399.706,130.017C404.807,130.017 412.638,130.84 413.545,131.129C414.916,131.565 417.829,150.787 441.59,152.038C441.672,162.489 441.909,202.86 437.201,212.333C426.757,233.342 399.629,236.771 399.629,236.771C399.629,236.771 370.467,232.155 362.589,212.007C358.737,202.155 358.966,162.36 359.048,151.91C382.809,150.659 384.999,131.646 386.37,131.21C387.277,130.921 394.703,130.017 399.706,130.017Z"
              style="fill: none; stroke: black; stroke-width: 2.1px"
            />
          </g>
        </g>
        <path
          d="M399.706,130.017C404.807,130.017 414.447,130.976 415.354,131.265C416.725,131.702 415.029,147.939 438.79,149.19C438.871,159.64 438.74,203.217 434.031,212.689C423.588,233.698 399.769,235.945 399.769,235.945C399.769,235.945 373.949,232.837 366.071,212.689C362.219,202.837 361.231,159.64 361.313,149.19C385.074,147.939 383.377,131.702 384.748,131.265C385.655,130.976 394.703,130.017 399.706,130.017Z"
          style="fill: none; stroke: black; stroke-width: 2.1px"
        />
        <path
          d="M399.994,141.667L419.821,171.805L452.672,172.945L423.123,200.048L436.285,232.031L399.938,213.188L363.591,232.031L376.753,200.048L347.204,172.945L380.055,171.805L399.882,141.667L399.884,141.5L399.938,141.582L399.992,141.5L399.994,141.667Z"
          style="fill: rgb(252, 189, 45)"
        />
        <clipPath id="Marshall-hat_5">
          <path
            d="M399.994,141.667L419.821,171.805L452.672,172.945L423.123,200.048L436.285,232.031L399.938,213.188L363.591,232.031L376.753,200.048L347.204,172.945L380.055,171.805L399.882,141.667L399.884,141.5L399.938,141.582L399.992,141.5L399.994,141.667Z"
          />
        </clipPath>
        <g clip-path="url(#Marshall-hat_5)">
          <path
            d="M399.205,143.216L397.955,146.107L395.271,171.311L389.601,168.457L387.94,170.223L394.679,174.138L394.277,177.477L380.902,171.458L379.203,172.317L366.822,172.867L348.674,173.47L349.131,175.071L381.649,185.72L376.447,190.13L378.154,191.327L384.919,186.771L389.4,188.061L376.045,199.615L373.105,209.497L364.075,231.692L399.826,213.375L399.654,210.239L393.837,213.175L391.219,214.08L394.004,208.418L391.748,208.5L387.649,215.517L379.085,219.222L399.562,189.425L400.157,201.182L401.743,213.879L402.941,215.269L402.829,198.437L406.557,201.923L406.767,209.827L408.592,210.557L408.546,203.732L427.562,220.832L401.134,187.21L399.205,143.216ZM401.081,144.157L400.915,146.303L411.018,168.786L405.042,176.17L405.395,177.415L411.942,170.381L412.915,172.556L403.653,183.584L419.404,173.7L412.925,183.658L409.166,184.724L427.183,181.968L423.189,188.696L424.167,189.729L429.654,181.203L435.665,179.917L423.887,196.814L422.128,200.03L452.559,173.571L444.562,172.877L420.683,172.504L405.139,149.166L401.081,144.157Z"
            style="fill: rgb(237, 237, 201)"
          />
          <path
            d="M400.083,142.087C400.521,141.964 400.897,141.975 400.897,141.975L400.895,142.507C401.1,142.688 401.267,142.931 401.351,143.257C401.696,144.591 401.607,146.972 401.607,146.972L401.729,184.687L419.803,171.782L452.63,173.609L402.936,186.685L423.083,199.57L436.182,232.187L401.342,189.189L401.666,213.32L400.561,213.576L400.56,213.797L400.083,213.687L399.606,213.797L399.605,213.576L398.5,213.32L398.825,189.189L363.985,232.187L377.084,199.57L397.23,186.685L347.537,173.609L380.364,171.782L398.438,184.687L398.56,146.972C398.56,146.972 398.471,144.591 398.816,143.257C398.9,142.931 399.067,142.688 399.272,142.507L399.269,141.975C399.269,141.975 399.646,141.964 400.083,142.087Z"
            style="fill: rgb(145, 82, 90)"
          />
        </g>
        <path
          d="M399.994,141.667L419.821,171.805L452.672,172.945L423.123,200.048L436.285,232.031L399.938,213.188L363.591,232.031L376.753,200.048L347.204,172.945L380.055,171.805L399.882,141.667L399.884,141.5L399.938,141.582L399.992,141.5L399.994,141.667Z"
          style="fill: none; stroke: black; stroke-width: 2.1px"
        />
      </g>
    </g>
  </g>
</svg>
