<svg viewBox="0 0 800 800" xmlns="http://www.w3.org/2000/svg">
  <g transform="matrix(0.88685,0,0,0.88685,45.1133,13.2405)">
    <g id="hairstyles-front">
      <g id="hairstyle-10">
        <path
          d="M245.373,252.137C247.303,252.137 245.742,248.29 246.066,246.387C246.736,242.445 247.674,238.558 248.638,234.679C251.609,222.728 258.094,196.921 274.123,195.823C284.51,195.112 296.416,199.524 306.552,201.446C324.686,204.886 342.969,208.304 360.873,212.807C376.554,216.75 391.824,222.163 408.097,223.18C444.43,225.451 480.321,205.901 516.429,215.786C531.746,219.979 542.821,230.776 549.169,245.084C551.681,250.746 553.523,256.805 554.861,262.845C555.066,263.77 555.416,268.709 556.784,268.709C560.39,268.709 564.467,248.374 564.767,245.932C567.822,221.037 556.739,198.536 537.96,182.452C517.819,165.201 491.986,155.825 466.485,149.896C411.787,137.178 349.499,138.158 296.116,156.468C251.364,171.817 214.363,206.485 231.605,256.931"
          style="fill: rgb(66, 31, 67); fill-opacity: 0.5"
        />
        <path
          d="M213.23,348.228C212.981,347.718 212.725,347.21 212.466,346.705C210.007,341.931 206.528,337.893 203.016,333.872C200.635,331.145 197.218,329.146 195.751,325.723C193.487,320.439 195.332,314.555 194.083,309.099C192.89,303.894 189.884,299.388 189.282,293.992C188.706,288.832 190.827,283.536 189.048,278.568C187.122,273.191 184.926,268.069 184.727,262.258C184.576,257.837 186.333,253.147 185.643,248.804C184.973,244.58 182.079,240.796 180.565,236.847C178.405,231.213 177.015,224.124 176.633,218.101C176.205,211.339 178.799,204.276 182.154,198.521C183.983,195.384 186.704,192.448 187.818,188.949C189.638,183.236 187.197,177.08 189.499,171.356C192.159,164.739 198.549,160.05 204.767,156.998C206.668,156.065 208.636,155.336 210.642,154.692C210.484,154.571 211.046,154.662 211.227,154.58C211.605,154.41 211.933,154.135 212.194,153.816C213.035,152.788 213.523,151.508 213.873,150.242C215.826,143.189 219.902,138.077 224.467,132.667C224.386,132.579 226.483,130.236 226.638,130.064C229.151,127.268 231.71,124.708 235.499,123.861C241.391,122.544 247.852,122.732 253.859,122.81C255.581,122.832 257.303,122.876 259.018,123.035C259.681,123.096 260.644,123.423 261.228,122.959C262.771,121.732 263.666,118.858 264.555,117.188C266.91,112.767 269.031,108.025 271.987,103.964C275.278,99.445 279.56,95.756 283.522,91.851C287.685,87.749 291.769,83.399 296.463,79.895C299.535,77.602 302.814,75.694 306.236,74.063C305.951,73.579 309.606,72.029 309.834,71.935C314.272,70.091 318.958,68.692 323.601,67.48C342.796,62.471 363.259,58.41 382.808,55.114C404.733,51.418 427.069,54.373 448.712,58.514C486.657,65.775 522.528,77.618 554.327,99.993C565.013,107.512 575.066,115.955 584.347,125.154C590.535,131.287 596.124,139.451 604.071,143.415C613.009,147.874 623.292,150.379 633.098,151.984C634.41,152.199 645.031,153.032 645.031,153.032C645.031,153.032 640.487,156.452 639.812,156.853C635.572,159.378 631.215,161.917 626.583,163.66C626.212,163.799 620.854,164.451 620.868,164.507C620.995,165 625.471,165.078 625.817,165.027C629.817,164.431 633.857,163.874 637.781,162.886C638.145,162.795 643.009,161.463 643.009,161.463C643.009,161.463 636.89,165.353 636.594,165.524C632.203,168.057 627.501,170.067 622.581,171.308C621.619,171.551 617.817,171.743 617.504,173C617.288,173.868 618.325,174.936 618.74,175.606C621.496,180.069 626.933,176.992 631.3,175.741C632.497,175.398 640.751,172.817 640.751,172.817C640.751,172.817 636.791,176.233 636.504,176.446C632.427,179.484 625.843,182.62 623.758,186.142C622.936,187.532 626.824,193.362 627.227,194.94C628.556,200.151 628.475,205.525 629.703,210.726C630.608,214.563 632.828,218.392 632.639,222.411C632.485,225.672 630.121,229.107 629.652,232.312C628.908,237.405 630.011,242.267 630.118,247.585C630.226,253.02 632.915,261.453 632.168,266.679C631.808,269.197 629.214,264.975 628.447,271.252C627.543,278.646 625.185,281.567 623.529,288.918C622.249,294.607 624.135,305.703 622.22,311.311C621.492,313.441 619.322,309.727 619.037,310.766C617.886,314.957 620.864,323.612 619.249,327.65C618.899,328.525 611.87,327.732 610.964,327.765C606.287,327.934 601.924,330.059 598.219,332.834C594.076,335.938 590.975,340.988 587.75,344.977C587.504,345.281 586.765,346.437 585.969,347.321C583.891,356.827 582.553,366.393 581.86,376.287C581.541,380.851 580.568,396.31 579.895,396.149C578.642,395.849 576.559,395.35 576.035,394.657C573.855,391.771 573.752,387.419 574.032,383.986C575.489,366.142 575.942,348.45 574.343,330.598C573.154,317.321 570.707,304.89 564.763,292.871C561.421,286.116 554.051,278.595 552.32,271.289C550.559,263.851 553.076,254.564 553.3,247.094C553.796,230.512 554.128,208.461 541.454,197.143C535.691,191.996 529.242,191.264 514.645,189.658C509.091,189.047 497.324,188.521 488.07,189.877C473.886,191.954 456.809,198.027 443.128,199.502C433.258,200.566 424.606,201.835 413.93,203.271C411.062,203.656 401.624,204.975 399.671,205.142C399.671,205.142 387.886,203.95 385.073,203.271C375.411,200.938 365.744,200.566 355.875,199.502C344.88,198.316 333.981,195.232 322.007,193.042C315.259,191.808 299.946,191.585 288.297,190.434C276.5,189.269 265.62,185.906 257.549,197.143C247.635,210.944 245.206,230.512 245.702,247.094C245.926,254.564 248.444,263.851 246.682,271.289C244.952,278.595 237.581,286.116 234.24,292.871C228.295,304.89 225.848,317.321 224.659,330.598C223.061,348.45 223.514,366.142 224.97,383.986C225.251,387.419 225.147,391.771 222.967,394.657C222.444,395.35 220.36,395.849 219.107,396.149C218.434,396.31 217.462,380.851 217.142,376.287C216.472,366.708 215.196,357.436 213.23,348.228Z"
          style="fill: rgb(var(--color_hairs_r, 98), var(--color_hairs_g, 86), var(--color_hairs_b, 34))"
        />
        <clipPath id="_clip1_hair11">
          <path
            d="M213.23,348.228C212.981,347.718 212.725,347.21 212.466,346.705C210.007,341.931 206.528,337.893 203.016,333.872C200.635,331.145 197.218,329.146 195.751,325.723C193.487,320.439 195.332,314.555 194.083,309.099C192.89,303.894 189.884,299.388 189.282,293.992C188.706,288.832 190.827,283.536 189.048,278.568C187.122,273.191 184.926,268.069 184.727,262.258C184.576,257.837 186.333,253.147 185.643,248.804C184.973,244.58 182.079,240.796 180.565,236.847C178.405,231.213 177.015,224.124 176.633,218.101C176.205,211.339 178.799,204.276 182.154,198.521C183.983,195.384 186.704,192.448 187.818,188.949C189.638,183.236 187.197,177.08 189.499,171.356C192.159,164.739 198.549,160.05 204.767,156.998C206.668,156.065 208.636,155.336 210.642,154.692C210.484,154.571 211.046,154.662 211.227,154.58C211.605,154.41 211.933,154.135 212.194,153.816C213.035,152.788 213.523,151.508 213.873,150.242C215.826,143.189 219.902,138.077 224.467,132.667C224.386,132.579 226.483,130.236 226.638,130.064C229.151,127.268 231.71,124.708 235.499,123.861C241.391,122.544 247.852,122.732 253.859,122.81C255.581,122.832 257.303,122.876 259.018,123.035C259.681,123.096 260.644,123.423 261.228,122.959C262.771,121.732 263.666,118.858 264.555,117.188C266.91,112.767 269.031,108.025 271.987,103.964C275.278,99.445 279.56,95.756 283.522,91.851C287.685,87.749 291.769,83.399 296.463,79.895C299.535,77.602 302.814,75.694 306.236,74.063C305.951,73.579 309.606,72.029 309.834,71.935C314.272,70.091 318.958,68.692 323.601,67.48C342.796,62.471 363.259,58.41 382.808,55.114C404.733,51.418 427.069,54.373 448.712,58.514C486.657,65.775 522.528,77.618 554.327,99.993C565.013,107.512 575.066,115.955 584.347,125.154C590.535,131.287 596.124,139.451 604.071,143.415C613.009,147.874 623.292,150.379 633.098,151.984C634.41,152.199 645.031,153.032 645.031,153.032C645.031,153.032 640.487,156.452 639.812,156.853C635.572,159.378 631.215,161.917 626.583,163.66C626.212,163.799 620.854,164.451 620.868,164.507C620.995,165 625.471,165.078 625.817,165.027C629.817,164.431 633.857,163.874 637.781,162.886C638.145,162.795 643.009,161.463 643.009,161.463C643.009,161.463 636.89,165.353 636.594,165.524C632.203,168.057 627.501,170.067 622.581,171.308C621.619,171.551 617.817,171.743 617.504,173C617.288,173.868 618.325,174.936 618.74,175.606C621.496,180.069 626.933,176.992 631.3,175.741C632.497,175.398 640.751,172.817 640.751,172.817C640.751,172.817 636.791,176.233 636.504,176.446C632.427,179.484 625.843,182.62 623.758,186.142C622.936,187.532 626.824,193.362 627.227,194.94C628.556,200.151 628.475,205.525 629.703,210.726C630.608,214.563 632.828,218.392 632.639,222.411C632.485,225.672 630.121,229.107 629.652,232.312C628.908,237.405 630.011,242.267 630.118,247.585C630.226,253.02 632.915,261.453 632.168,266.679C631.808,269.197 629.214,264.975 628.447,271.252C627.543,278.646 625.185,281.567 623.529,288.918C622.249,294.607 624.135,305.703 622.22,311.311C621.492,313.441 619.322,309.727 619.037,310.766C617.886,314.957 620.864,323.612 619.249,327.65C618.899,328.525 611.87,327.732 610.964,327.765C606.287,327.934 601.924,330.059 598.219,332.834C594.076,335.938 590.975,340.988 587.75,344.977C587.504,345.281 586.765,346.437 585.969,347.321C583.891,356.827 582.553,366.393 581.86,376.287C581.541,380.851 580.568,396.31 579.895,396.149C578.642,395.849 576.559,395.35 576.035,394.657C573.855,391.771 573.752,387.419 574.032,383.986C575.489,366.142 575.942,348.45 574.343,330.598C573.154,317.321 570.707,304.89 564.763,292.871C561.421,286.116 554.051,278.595 552.32,271.289C550.559,263.851 553.076,254.564 553.3,247.094C553.796,230.512 554.128,208.461 541.454,197.143C535.691,191.996 529.242,191.264 514.645,189.658C509.091,189.047 497.324,188.521 488.07,189.877C473.886,191.954 456.809,198.027 443.128,199.502C433.258,200.566 424.606,201.835 413.93,203.271C411.062,203.656 401.624,204.975 399.671,205.142C399.671,205.142 387.886,203.95 385.073,203.271C375.411,200.938 365.744,200.566 355.875,199.502C344.88,198.316 333.981,195.232 322.007,193.042C315.259,191.808 299.946,191.585 288.297,190.434C276.5,189.269 265.62,185.906 257.549,197.143C247.635,210.944 245.206,230.512 245.702,247.094C245.926,254.564 248.444,263.851 246.682,271.289C244.952,278.595 237.581,286.116 234.24,292.871C228.295,304.89 225.848,317.321 224.659,330.598C223.061,348.45 223.514,366.142 224.97,383.986C225.251,387.419 225.147,391.771 222.967,394.657C222.444,395.35 220.36,395.849 219.107,396.149C218.434,396.31 217.462,380.851 217.142,376.287C216.472,366.708 215.196,357.436 213.23,348.228Z"
          />
        </clipPath>
        <g clip-path="url(#_clip1_hair11)">
          <path
            d="M621.142,186.54C621.071,186.577 621.452,188.434 621.471,188.598C621.748,190.993 622.026,193.396 622.207,195.8C622.693,202.233 624.48,208.037 626.77,214.024C628.131,217.582 629.764,222.678 626.745,226.017C626.445,226.349 624.704,223.553 624.541,223.313C622.637,220.525 620.656,217.811 618.544,215.175C618.422,215.023 616.749,212.826 616.555,213.038C616.364,213.246 616.997,214.552 617.078,214.75C617.773,216.449 618.632,218.084 619.459,219.721C621.329,223.418 624.252,227.158 625.253,231.219C625.677,232.942 625.369,234.687 625.46,236.433C625.496,237.122 626.664,240.045 626.355,240.524C626.164,240.82 623.633,239.409 623.419,239.296C620.865,237.953 618.282,236.675 615.658,235.477C615.479,235.395 613.375,234.22 613.271,234.326C613.253,234.345 615.661,236.236 615.812,236.356C617.611,237.772 619.472,239.13 621.14,240.702C622.983,242.441 625.045,244.468 626.126,246.807C626.793,248.25 626.62,249.84 626.903,251.371C627.23,253.138 628.001,254.794 628.262,256.577C628.846,260.56 626.712,264.597 626.132,268.509C626.043,269.104 626.045,272.228 625.513,272.56C625.171,272.772 624.396,271.96 624.192,271.78C622.981,270.714 621.884,269.521 620.742,268.384C620.605,268.248 619.398,266.904 619.155,267.291C618.858,267.764 619.613,268.998 619.794,269.4C620.654,271.311 621.563,273.222 621.979,275.291C622.653,278.636 620.427,280.921 619.705,284.039C619.396,285.374 619.7,286.766 619.717,288.115C619.74,289.904 619.48,291.682 619.49,293.469C619.493,293.944 619.993,296.214 619.438,296.432C618.89,296.647 618.222,295.774 617.886,295.458C616.577,294.226 615.227,293.039 613.873,291.858C613.671,291.682 612.271,290.332 612.117,290.891C611.779,292.124 613.333,293.729 613.974,294.627C616.091,297.587 619.441,300.245 620.381,303.888C621.251,307.261 616.965,308.065 615.968,310.718C615.521,311.905 615.4,313.264 615.4,314.524C615.401,314.827 615.637,315.659 615.342,315.873C614.926,316.174 613.698,314.308 613.478,314.028C611.757,311.838 609.997,309.677 608.241,307.516C607.742,306.9 607.26,306.269 606.718,305.688C606.696,305.664 606.165,305.063 606.078,305.199C605.859,305.544 606.211,306.135 606.334,306.458C606.754,307.555 607.244,308.612 607.769,309.663C608.806,311.735 609.836,313.842 611.109,315.782C612.512,317.918 614.213,319.96 614.96,322.446C615.4,323.908 615.366,325.452 615.343,326.964C615.338,327.283 615.414,328.182 615.079,328.392C614.496,328.755 612.98,326.451 612.665,326.066C610.323,323.198 608.081,320.246 605.702,317.409C604.992,316.562 604.263,315.733 603.563,314.878C603.333,314.597 603.094,314.319 602.875,314.029C602.875,314.029 602.565,313.55 602.543,313.67C602.445,314.188 603.261,314.89 603.524,315.277C604.561,316.803 605.56,318.373 606.479,319.973C607.493,321.739 608.439,323.546 609.238,325.42C609.709,326.525 609.904,327.885 610.733,328.8C611.666,329.83 613.229,330.254 614.541,330.512C617.989,331.191 624.278,332.051 626.672,328.763C628.576,326.147 628.781,322.507 629.042,319.401C629.408,315.067 629.912,310.745 630.414,306.426C631.278,298.976 632.076,291.525 633.916,284.237C635.389,278.403 637.081,272.638 638.337,266.749C639.417,261.687 639.689,256.304 640.358,251.161C642.247,236.649 643.444,221.586 640.453,207.139C638.827,199.287 636.149,190.192 628.383,186.386L621.142,186.54ZM197.963,328.062C197.985,328.371 197.942,327.443 197.965,327.135C198.008,326.539 198.101,325.951 198.208,325.364C198.527,323.618 198.957,321.886 199.429,320.176C200.529,316.188 202.042,312.323 203.565,308.481C204.073,307.201 204.571,305.918 205.107,304.65C205.284,304.231 205.47,303.813 205.668,303.403C205.772,303.185 206.204,302.739 205.962,302.739C205.547,302.739 204.165,305.556 203.969,305.879C202.008,309.117 199.919,312.32 198.366,315.782C198.26,316.018 196.794,319.808 196.658,319.774C196.409,319.712 196.664,318.022 196.68,317.857C196.882,315.66 197.154,313.467 197.413,311.277C198.345,303.397 198.211,299.251 199.927,291.515C200.783,287.659 203.706,280.29 203.559,280.208C203.467,280.158 200.381,285.35 199.824,286.715C198.251,290.57 197.066,294.043 195.808,298.014C195.396,299.315 195.014,300.623 194.734,301.959C194.705,302.097 194.44,303.956 194.341,303.947C194.108,303.926 193.779,302.096 193.727,301.899C193.133,299.651 192.474,297.394 192.181,295.083C191.188,287.262 195.741,279.707 198.948,272.949C199.963,270.81 200.911,268.632 201.877,266.47C202.05,266.082 202.919,264.753 202.715,264.3C202.646,264.146 200.055,267.141 199.905,267.332C197.627,270.237 195.307,273.138 193.209,276.177C193.046,276.412 190.53,281.28 190.106,280.855C188.987,279.737 190.368,273.485 190.53,272.184C191.413,265.092 193.946,258.159 196.504,251.546C197.288,249.519 199.063,247.542 200.003,245.581C200.087,245.407 201.439,242.668 201.36,242.647C200.688,242.468 198.483,245.641 198.149,246.06C194.885,250.14 192.648,253.97 190.798,258.813C190.258,260.225 189.678,262.322 189.221,263.763C189.06,264.268 188.871,266.237 188.827,266.147C187.842,264.179 188.886,259.638 189.056,257.585C189.996,246.167 196.046,237.628 203.762,229.544C206.502,226.672 209.295,223.847 212.093,221.032C213.041,220.078 213.986,219.122 214.926,218.161C215,218.087 216.239,216.76 216.211,216.746C215.896,216.588 214.417,217.875 214.186,218.04C212.097,219.53 210.037,221.056 207.985,222.595C201.285,227.619 195.701,233.638 190.782,240.386C189.409,242.27 188.14,244.228 186.804,246.137C186.398,246.717 185.691,247.915 184.875,247.963C184.147,248.006 183.526,246.772 183.223,246.27C182.811,245.588 182.562,243.318 182.555,243.306C182.08,242.514 180.707,242.129 180.35,241.059C180.095,240.295 180.965,238.997 181.203,238.312C181.895,236.317 182.232,234.203 182.665,232.141C185.903,216.713 198.313,207.08 211.628,199.922C216.175,197.477 220.89,195.299 225.673,193.363C227.23,192.732 228.818,192.182 230.427,191.7C230.967,191.538 231.512,191.392 232.052,191.232C232.103,191.218 232.94,190.928 232.858,190.877C232.234,190.493 230.452,191.094 229.826,191.209C226.782,191.768 223.753,192.388 220.789,193.288C209.363,196.757 198.048,202.833 189.747,211.558C186.805,214.651 184.07,218.103 182.062,221.882C181.388,223.152 180.779,224.452 180.191,225.764C180.098,225.973 179.295,227.843 179.22,227.446C178.826,225.363 179.255,222.789 179.339,220.689C179.884,207.065 186.756,197.605 195.374,187.568C199.416,182.859 203.841,177.856 209.015,174.347C214.415,170.685 221.627,169.634 227.909,168.4C229.819,168.025 231.73,167.836 233.676,167.95C234.33,167.988 234.983,168.061 235.633,168.143C235.699,168.152 236.627,168.258 236.607,168.199C236.436,167.687 234.24,167.166 233.813,167.001C230.868,165.864 227.863,164.809 224.692,164.56C210.765,163.467 200.301,175.118 191.875,184.4C191.322,185.01 190.764,185.614 190.188,186.204C188.623,187.807 183.56,193.563 181.385,189.369C180.726,188.097 181.749,186.215 182.31,185.094C184.23,181.253 187.418,178.798 190.667,176.162C197.576,170.558 203.79,163.661 211.874,159.739C216.316,157.584 220.943,155.871 225.557,154.127C226.877,153.627 229.946,153.301 230.973,152.337C231.187,152.137 229.533,151.994 229.455,151.989C228.434,151.926 227.412,151.882 226.39,151.84C223.295,151.713 220.172,151.933 217.113,152.407C216.73,152.467 212.458,153.414 212.458,153.157C212.458,152.613 213.508,152.019 213.859,151.756C215.292,150.681 216.697,149.555 217.947,148.268C219.984,146.171 221.455,143.42 223.842,141.689C226.917,139.458 231.489,139.805 235.056,140.247C238.024,140.616 240.833,141.453 243.661,142.387C243.977,142.491 247.651,144.102 247.732,143.994C247.792,143.914 245.684,142.551 245.579,142.48C243.144,140.864 240.734,139.225 238.184,137.793C235.615,136.35 232.825,135.132 229.92,134.569C214.811,131.642 198.637,143.232 189.572,154.028C187.327,156.702 185.316,159.58 183.524,162.575C181.139,166.562 179.114,170.736 177.451,175.074C164.333,209.299 171.375,249.004 179.096,283.645C181.197,293.072 183.458,302.471 186.645,311.599C188.352,316.488 190.176,321.63 193.274,325.845L197.963,328.062ZM614.447,173.347C614.434,173.344 614.794,173.879 614.858,173.964C615.142,174.339 615.433,174.711 615.734,175.072C616.358,175.819 619.094,178.962 620.356,177.866C620.814,177.469 619.951,176.427 619.737,176.127C618.733,174.718 617.827,173.3 616.146,172.689L614.447,173.347ZM454.395,172.621C454.089,173.067 455.371,172.155 455.865,171.935C456.853,171.495 457.849,171.07 458.85,170.663C461.794,169.465 464.768,168.334 467.774,167.301C477.005,164.129 486.76,161.045 496.347,159.185C509.43,156.647 522.888,155.679 536.149,157.059C540.707,157.533 545.241,158.172 549.769,158.868C551.452,159.127 553.127,159.432 554.81,159.689C554.907,159.704 556.387,159.959 556.396,159.79C556.421,159.329 551.847,158.525 551.494,158.446C545.808,157.182 540.102,156.009 534.323,155.256C510.352,152.136 486.858,155.038 465.275,166.298L454.395,172.621ZM318.054,103.184C315.942,104.024 313.804,104.804 311.725,105.704L311.998,105.555C312.046,104.909 313.253,104.094 313.713,103.68C315.604,101.975 317.663,100.479 319.709,98.97C328.402,92.56 337.848,87.393 347.956,83.593C355.567,80.732 363.266,77.795 371.188,75.908C380.273,73.743 389.716,73.007 399,72.232C424.227,70.127 450.065,71.554 474.397,78.931C481.083,80.958 487.71,83.19 494.351,85.358C500.117,87.241 506.087,89.06 511.171,92.474C513.668,94.151 515.976,96.069 518.371,97.883C518.542,98.012 520.524,99.399 520.476,99.518C520.462,99.553 517.988,98.409 517.855,98.35C516.018,97.536 514.177,96.731 512.333,95.931C507.118,93.67 501.798,91.663 496.462,89.706C480.213,83.748 463.558,79.046 446.369,76.78C435.692,75.372 424.927,74.404 414.15,74.829C405.07,75.187 396.052,76.631 387.084,78.007C376.003,79.707 364.906,81.547 354.318,85.35C347.099,87.943 339.952,91.155 333.229,94.855C329.972,96.648 326.949,98.827 323.684,100.607C326.957,99.244 330.272,98.098 333.607,97.197C340.978,95.206 348.528,93.943 356.064,92.773C357.197,92.597 362.531,90.979 363.556,91.793C363.59,91.821 362.766,92.061 362.716,92.073C362.112,92.214 361.504,92.338 360.897,92.469C359.1,92.858 357.303,93.249 355.508,93.653C350.171,94.856 344.821,96.375 339.675,98.233C323.94,103.914 309.5,112.685 297.713,124.648C289.648,132.834 282.336,142.227 276.508,152.135C274.563,155.443 272.853,158.873 271.343,162.4C270.832,163.594 270.321,164.79 269.851,166C269.627,166.579 268.735,168.157 269.198,167.744L269.05,168.288C269.003,151.505 277.384,136.192 289.413,124.126C297.842,115.672 307.648,108.377 318.054,103.184ZM298.766,162.143C298.515,162.604 298.393,162.956 298.507,163.084L298.766,162.143C299.507,160.779 301.375,158.457 301.603,158.14C305.42,152.817 309.972,148.372 314.539,143.725C320.901,137.25 327.228,130.893 334.507,125.422C348.777,114.696 364.74,108.089 381.991,103.816C389.969,101.84 398.016,100.242 406.141,99.005C408.846,98.593 411.55,98.181 414.257,97.786C414.553,97.743 418.491,96.943 418.469,96.918C417.358,95.697 411.307,96.692 409.889,96.743C401.048,97.062 392.288,98.206 383.637,100.054C370.622,102.833 358.115,107.252 345.935,112.574C334.84,117.422 323.858,123.204 315.616,132.284C308.128,140.533 303.947,150.51 299.235,160.437L298.766,162.143ZM417.413,150.567C419.215,150.298 421.583,148.654 423.318,147.995C427.89,146.256 432.549,144.707 437.264,143.406C454.869,138.548 472.825,134.472 490.774,131.104C496.482,130.033 502.277,129.216 508.084,128.964C508.528,128.945 513.45,129.138 513.554,128.816C513.561,128.796 510.908,128.565 510.775,128.558C509.035,128.464 507.295,128.378 505.554,128.302C500.149,128.064 494.74,127.959 489.333,128.209C466.351,129.273 441.283,136.082 421.202,147.45L417.413,150.567ZM356.2,149.68C355.86,149.889 355.645,150.08 355.638,150.231L356.2,149.68C357.453,148.91 360.399,147.894 360.86,147.693C366.6,145.182 372.431,142.887 378.273,140.625C392.021,135.299 405.621,129.249 419.786,125.092C430.526,121.941 441.531,120.307 452.531,118.382C459.817,117.107 467.123,115.827 474.513,115.353C476.215,115.244 477.917,115.142 479.617,115.023C479.747,115.014 481.165,115.01 481.192,114.854C481.211,114.746 479.68,114.605 479.588,114.596C477.626,114.404 475.658,114.308 473.688,114.253C465.409,114.021 457.057,114.096 448.846,115.277C416.744,119.896 384.495,128.911 357.903,148.011L356.2,149.68ZM261.55,124.051C261.296,127.882 260.002,138.984 260.311,142.814C260.336,143.121 260.478,146.097 260.82,146.125C261.242,146.16 261.685,142.972 261.736,142.705C262.452,138.953 263.248,135.211 264.288,131.535C266.978,122.024 271.433,113.099 277.219,105.097C293.301,82.856 319.95,71.749 346.355,67.866C346.795,67.801 350.407,67.024 350.692,67.521C350.841,67.782 348.587,68.866 348.445,68.946C345.667,70.509 343.022,72.286 340.398,74.093C333.708,78.7 327.449,83.993 321.127,89.09C318.973,90.827 316.826,92.587 314.759,94.429C314.108,95.009 313.459,95.593 312.83,96.198C312.769,96.256 311.789,97.253 311.883,97.282C312.97,97.616 317.073,94.327 317.934,93.802C323.617,90.337 329.389,86.975 335.275,83.865C354.2,73.866 373.982,69.208 394.976,66.101C430.903,60.784 467.152,64.231 501.05,77.368C514.633,82.633 528.407,87.305 542.152,92.127C545.397,93.266 548.673,94.77 552.05,95.466C552.995,95.66 555.58,96.086 555.357,94.385C554.492,87.786 542.507,81.498 537.855,78.359C518.609,65.372 497.595,55.087 475.356,48.344C426.935,33.662 373.3,34.627 325.127,50.027C315.479,53.112 306.005,56.942 297.198,61.976C290.876,65.59 284.913,69.877 279.493,74.742C273.055,80.521 266.908,87.456 263.384,95.454C257.003,109.936 256.986,106.494 259.534,121.784L261.55,124.051ZM577.489,119.976C578.754,121.304 581.852,124.599 582.883,126.119C583.616,127.199 584.833,128.553 585.485,129.684C587.468,133.123 589.878,137.389 593.979,138.769C594.622,138.986 595.819,139.644 596.511,139.377C597.654,138.935 594.567,135.498 594.271,135.138C591.089,131.263 587.275,127.915 583.804,124.301L577.489,119.976ZM219.524,132.634C219.712,132.663 219.917,132.702 220.041,132.708C220.663,132.738 221.285,132.79 221.905,132.844C223.762,133.003 225.819,133.659 227.673,133.509C229.489,133.361 230.658,131.866 231.911,130.728C233.617,129.18 235.697,127.947 238.085,128.223C241.503,128.617 244.947,130.444 247.876,132.154C248.851,132.723 249.804,133.319 250.737,133.956C250.842,134.027 252.185,135.029 252.241,134.773C252.354,134.252 251.564,133.367 251.301,132.99C250.359,131.64 249.295,130.372 248.491,128.93C248.123,128.27 247.75,127.522 248.155,126.796C249.134,125.039 251.399,124.106 253.189,123.471C253.472,123.37 255.3,122.962 255.292,122.558C255.284,122.106 253.512,122.092 253.272,122.077C250.832,121.922 248.368,121.937 245.926,122.016C239.767,122.217 232.994,122.752 227.863,126.531C226.177,127.773 224.104,129.674 223.742,131.866L219.524,132.634ZM219.524,132.634L219.117,132.708C218.998,132.567 219.242,132.59 219.524,132.634ZM432.731,84.928C432.471,84.963 432.229,85.016 432.009,85.094L432.731,84.928C434.551,84.686 437.205,85.389 438.777,85.536C444.332,86.057 449.863,86.695 455.402,87.368C465.623,88.61 475.898,89.661 485.943,92.005C498.81,95.007 511.23,99.766 523.277,105.132C531.629,108.852 539.832,112.91 548.126,116.758C550.185,117.713 552.234,118.689 554.303,119.621C554.692,119.796 555.967,120.601 556.428,120.42C556.486,120.397 555.283,119.547 555.193,119.49C554.341,118.953 553.48,118.431 552.612,117.922C549.957,116.365 547.28,114.845 544.589,113.35C536.373,108.785 527.945,104.538 519.436,100.546C493.52,88.388 464.873,82.112 436.203,84.132L432.731,84.928Z"
            style="fill: rgb(252, 255, 216); fill-opacity: 0.6"
          />
          <path
            d="M200.375,332.846C200.554,332.048 201.404,330.477 201.527,330.203C203.121,326.634 205.136,323.239 207.031,319.826C211.581,311.629 216.452,299.152 221.319,290.108C223.494,286.066 226.709,282.724 226.008,283.053C224.761,283.637 225.131,283.129 223.371,284.733C216.431,291.061 213.592,292.543 208.08,300.187C206.628,302.2 205.27,304.275 203.919,306.356C203.786,306.559 201.77,309.634 201.678,309.527C201.377,309.176 202.176,307.515 202.297,307.189C203.252,304.608 204.365,302.087 205.44,299.555C209.856,289.154 214.867,279.034 220.744,269.378C222.424,266.616 224.192,263.905 225.829,261.118C226.017,260.798 227.342,258.952 226.958,258.53C226.448,257.969 221.364,263.135 220.956,263.525C216.195,268.072 211.555,272.704 207.677,278.04C207.127,278.797 204.781,283.251 203.717,283.209C203.3,283.192 205.287,277.247 205.405,276.908C207.431,271.089 209.626,265.313 212.019,259.635C212.241,259.107 214.472,255.057 213.863,254.539C213.29,254.052 210.508,256.894 210.133,257.217C206.29,260.525 202.566,264.016 199.278,267.884C198.9,268.329 195.182,272.769 195.02,272.493C193.636,270.141 197.04,263.044 197.809,260.889C201.755,249.825 206.998,240.263 214.565,231.264C217.034,228.327 219.623,225.482 222.31,222.743C222.588,222.461 226.538,218.697 226.409,218.568C226.2,218.359 224.715,219.48 224.558,219.586C222.754,220.804 221.038,222.149 219.344,223.514C212.221,229.254 204.855,235.178 199.188,242.417C197.749,244.255 196.435,246.219 195.311,248.266C195.208,248.455 193.787,251.439 193.679,251.403C193.593,251.374 194.586,249.297 194.638,249.194C195.843,246.783 197.087,244.391 198.382,242.028C203.702,232.315 210.621,224.319 218.639,216.717C220.958,214.518 222.817,213.399 226.903,210.504C227.082,210.377 231.9,208.254 231.649,208.018C231.305,207.693 227.163,209.304 226.899,209.452C224.686,210.689 222.112,211.389 219.987,212.771C211.08,218.564 201.635,224.683 194.822,232.969C192.541,235.742 190.522,238.712 188.594,241.736C188.458,241.95 187.143,244.296 186.822,244.091C186.288,243.749 187.022,241.343 187.111,240.913C187.785,237.658 188.899,234.519 190.105,231.427C195.394,217.862 204.841,208.583 218.521,203.535C223.547,201.681 228.855,200.584 234.148,199.836C237.422,199.373 240.737,199.161 244.044,199.176C245.985,199.185 247.924,199.241 249.858,199.416C251.066,199.525 252.269,199.679 253.467,199.867C257.937,200.568 258.408,201.437 257.597,205.939C257.387,207.108 257.223,208.284 257.069,209.461C256.746,211.928 256.485,214.403 256.253,216.88C255.712,222.649 255.354,228.44 255.409,234.237C255.533,247.424 258.794,261.402 256.274,274.484C252.381,294.688 240.007,312.723 234.658,332.66C231.41,344.769 229.729,357.561 229.403,370.097C229.303,373.959 229.244,377.727 228.483,381.531C228.268,382.604 229.005,398.102 228.057,398.852C227.096,399.612 223.13,398.91 222.561,394.618C221.963,390.101 221.477,372.203 220.631,367.73C218.698,357.51 217.964,346.176 210.834,338.162C208.743,335.811 204.02,331.841 200.375,332.846C200.342,332.991 200.332,333.11 200.352,333.191L200.42,333.294C200.386,333.275 200.363,333.24 200.352,333.191L200.164,332.91C200.234,332.887 200.304,332.866 200.375,332.846ZM418.16,211.636C417.879,211.56 419.566,208.636 419.749,208.326C421.815,204.824 424.029,201.591 426.661,198.484C436.103,187.336 445.743,177.642 459.589,172.517C483.627,163.619 509.844,159.944 535.37,162.819C544.71,163.871 553.615,166.23 562.769,168.205C571.364,170.059 580.076,171.457 588.614,173.561C593.731,174.823 598.718,176.663 603.896,177.676C612.049,179.27 621.415,178.289 629.365,176.34C632.683,175.526 635.994,174.682 639.316,173.886C639.486,173.846 642.112,173.177 642.126,173.382C642.14,173.592 640.571,174.158 640.418,174.222C638.592,174.981 636.933,175.789 635.472,177.153C632.957,179.504 630.923,180.644 628.274,182.791C625.345,185.165 621.137,188.382 617.529,189.959C615.891,190.675 612.121,191.539 611.299,193.348C610.752,194.55 613.728,197.244 614.345,198.216C617.323,202.909 620.028,207.081 621.724,212.346C622.247,213.968 624.32,217.712 624.708,219.372C624.754,219.567 625.737,223.443 625.392,223.553C624.71,223.77 618.928,215.359 618.555,214.892C614.608,209.939 609.728,205.584 605.024,201.371C602.011,198.672 599.12,197.551 595.226,198.965C594.352,199.282 592.449,199.816 592.331,200.968C592.133,202.892 596.464,205.938 597.599,207.188C603.042,213.183 608.948,218.754 614.698,224.456C616.506,226.248 618.096,228.284 619.709,230.26C619.971,230.581 624.962,234.98 624.697,235.481C624.191,236.436 615.825,230.844 615.239,230.624C609.194,228.354 602.97,226.905 596.572,226.117C594.702,225.887 592.84,225.594 590.966,225.395C590.8,225.377 588.128,225.172 588.208,225.379C588.419,225.918 590.287,226.392 590.75,226.59C593.186,227.63 596.111,227.88 598.488,229.056C607.766,233.649 619.454,236.959 624.941,246.442C626.373,248.917 628.559,253.062 627.834,256.206C627.816,256.282 620.744,250.347 618.441,249.002C614.307,246.588 611.059,245.079 606.802,242.914C602.322,240.637 592.305,238.006 592.489,238.205C596.408,242.422 602.991,245.7 605.098,248.07C609.063,252.528 609.055,251.217 613.757,259.203C614.845,261.05 622.643,273.195 622.4,273.525C622.194,273.804 611.845,266.585 609.973,265.539C603.755,262.067 598.314,257.643 591.578,255.349C590.293,254.912 584.366,251.568 583.109,252.973C582.439,253.723 588.676,259.004 590.661,260.637C597.568,266.319 605.329,273.143 609.464,281.316C610.447,283.259 614.99,292.887 614.593,293.284C614.265,293.612 607.806,285.211 606.165,283.892C600.173,279.074 593.907,274.778 586.756,271.868C585.796,271.478 580.617,268.671 579.629,269.833C579.056,270.507 589.045,277.248 590.911,278.869C596.723,283.918 598.821,286.871 603.876,292.674C604.997,293.961 610.828,301.077 610.041,303.031C609.783,303.67 601.929,299.003 600.494,297.812C595.938,294.029 580.862,283.096 579.867,284.038C579.206,284.664 583.249,288.548 585.144,290.878C590.018,296.868 596.186,302.685 599.192,309.924C600.224,312.408 601.434,315.896 600.663,318.649C600.384,319.646 598.473,315.371 597.952,314.839C595.018,311.84 591.603,309.124 588.299,306.542C587.82,306.168 585.406,304.131 584.726,304.689C584.078,305.221 587.416,310.044 587.712,310.509C590.814,315.371 595.223,322.475 593.893,328.629C593.04,332.574 585.561,327.213 584.05,326.298C583.61,326.032 581.921,324.754 581.35,325.232C580.795,325.696 582.051,327.659 582.264,328.073C583.507,330.481 585.307,333.198 585.048,336.031C584.819,338.54 583.407,340.27 581.773,341.864C581.644,341.797 580.757,343.107 580.662,343.244C579.588,344.804 580.119,349.789 579.15,351.415C577.122,354.82 578.82,357.608 578.34,361.622C578.18,362.96 578.591,369.937 578.219,372.206C578.026,373.377 576.926,395.754 576.639,396.858C576.174,398.654 569.6,372.26 567.405,371.126C561.207,367.923 560.009,354.123 557.931,348.261C552.553,333.089 547.215,317.998 540.124,303.514C529.588,281.993 515.347,262.234 496.55,247.185C483.74,236.929 469.114,229.247 453.908,223.212L418.16,211.636ZM262.814,165.028C262.494,163.282 262.237,161.528 262.048,159.775C259.267,134.026 274.229,111.647 292.727,95.168C302.712,86.274 314.865,79.795 327.639,75.922C330.657,75.007 333.702,74.197 336.748,73.387C336.985,73.324 339.413,72.494 339.525,72.7C339.581,72.802 338.609,73.255 338.54,73.289C337.319,73.895 336.083,74.472 334.85,75.053C331.691,76.541 328.52,78.014 325.475,79.728C316.681,84.679 309.015,91.602 302.256,99.043C296.695,105.166 291.172,111.697 287.439,119.13C285.201,123.587 284.279,128.483 282.173,132.934C279.792,137.965 275.872,142.033 273.617,147.21C267.966,160.184 268.43,174.947 272.72,188.195L270.36,186.608C271.186,187.504 272.09,188.283 272.801,189.42C272.988,189.72 272.608,190.185 272.447,190.417C271.502,191.784 269.966,192.405 268.76,193.478C266.162,195.793 264.438,199.6 260.36,199.741C257.081,199.854 253.383,197.089 250.585,195.877C245.396,193.63 239.919,192.021 234.296,191.355C229.252,190.759 223.921,191.819 219.036,193.017C204.537,196.572 189.712,207.011 182.997,220.969L180.974,222.888C180.927,222.95 180.88,222.995 180.835,223.019L180.974,222.888C181.533,222.146 182.179,218.947 182.415,218.367C184.112,214.19 186.163,210.172 188.567,206.359C196.431,193.885 207.762,183.266 222.743,180.613C230.86,179.176 239.396,182.121 246.77,185.345C249.639,186.599 252.373,188.156 255.204,189.493C255.4,189.586 257.615,190.655 257.813,190.401C258.167,189.946 256.115,187.438 255.904,187.143C253.475,183.755 250.872,180.489 248.014,177.452C247.806,177.231 244.714,174.031 244.994,173.882C245.747,173.482 248.072,175.134 248.659,175.462C252.176,177.429 255.671,179.463 259.136,181.521C260.386,182.263 261.112,183.322 262.31,184.143C262.441,184.233 263.373,185.441 263.185,184.991C262.813,184.101 262.4,182.637 261.961,181.874C260.691,179.666 260.034,177.12 258.606,175.011C252.616,166.171 244.867,156.055 234.187,152.945C229.754,151.654 224.951,151.262 220.352,151.501C218.869,151.578 217.392,151.736 215.928,151.987C215.725,152.022 213.559,152.368 213.657,152.21C214.109,151.478 215.553,151.006 216.275,150.646C218.689,149.439 221.198,148.401 223.772,147.586C227.768,146.321 232.082,145.513 236.226,146.511C244.182,148.426 247.361,153.572 250.988,157.398C253.803,160.368 255.799,164.907 256.877,166.95C257.769,168.639 256.04,158.684 253.396,153.292C252.808,152.092 250.62,146.654 250.69,146.603C250.797,146.527 254.186,150.808 256.678,154.139C256.458,153.761 256.233,153.386 256.003,153.013C252.811,147.828 248.414,142.972 243.191,139.78L239.497,137.811C239.46,137.796 239.428,137.779 239.401,137.759L239.497,137.811C239.894,137.972 240.796,137.881 241.159,137.957C242.419,138.222 243.639,138.665 244.835,139.134C246.069,139.619 247.319,140.106 248.473,140.764C249.508,141.355 250.44,142.105 251.365,142.851C251.615,143.053 252.117,143.576 252.495,143.468C253.042,143.311 252.323,141.491 252.241,141.217C251.498,138.755 250.798,136.279 250.008,133.832C249.706,132.899 249.378,131.977 249.055,131.051C249.033,130.988 248.748,130.314 248.848,130.265C249.021,130.183 249.883,131.646 249.96,131.766C250.873,133.165 251.823,134.539 252.763,135.92C252.862,136.065 253.497,137.188 253.709,137.134C253.873,137.093 253.211,135.738 253.171,135.657C252.485,134.255 251.7,132.896 250.921,131.544C250.862,131.442 250.183,130.437 250.321,130.332C250.459,130.227 251.425,131.3 251.523,131.397C252.459,132.325 253.409,133.238 254.348,134.163C254.526,134.34 255.063,135.069 255.375,134.99C256.049,134.819 256.485,133.452 256.725,132.931C257.654,130.92 258.675,128.959 259.777,127.037C260.142,126.401 260.504,125.763 260.903,125.148C260.951,125.073 261.218,124.584 261.346,124.627C261.499,124.677 261.372,125.315 261.36,125.41C261.249,126.335 261.1,127.255 260.973,128.178C260.427,132.137 259.937,136.105 259.998,140.109C260.078,145.428 260.672,150.709 260.55,156.036C260.52,157.302 260.486,158.569 260.431,159.835C261.35,161.541 262.128,163.274 262.814,165.028ZM572.093,145.615C557.11,137.319 542.551,128.35 527.56,120.067C503.057,106.529 476.231,95.841 448.396,91.91L445.968,90.999C445.751,90.941 446.409,90.914 446.632,90.892C447.12,90.845 447.611,90.827 448.1,90.793C449.601,90.689 451.102,90.626 452.606,90.586C456.998,90.469 461.277,90.728 465.644,91.196C478.814,92.61 491.76,96.203 504.122,100.899C536.819,113.32 564.487,136.011 597.09,148.754C607.975,153.008 618.841,155.026 630.529,155.069C634.236,155.083 637.966,154.943 641.632,154.359C642.881,154.16 644.125,153.91 645.352,153.603C645.47,153.574 647.148,153.161 647.139,153.206C647.034,153.732 645.18,154.37 644.787,154.564C642.255,155.814 639.695,157.005 637.206,158.341C633.274,160.451 629.592,163.039 625.141,163.96C624.539,164.084 623.939,164.167 623.339,164.217C630.789,164.823 638.214,164.296 644.866,161.899C647.284,161.027 623.699,175.394 603.175,174.164C594.065,173.618 541.722,154.062 532.73,154.794C526.375,155.312 518.452,154.3 512.032,154.317C497.223,154.355 479.191,159.368 465.879,166.389C455.912,171.645 448.219,176.13 440.05,183.849C432.433,191.047 425.169,199.486 416.133,204.957C407.598,210.125 396.896,211.73 387.198,213.244C375.397,215.088 363.586,215.669 351.664,215.806C345.977,215.871 339.818,216.998 334.178,216.34C324.254,215.183 314.455,208.794 307.989,201.371C304.27,197.102 298.692,199.365 296.524,194.271L293.153,194.791L293.137,194.93C293.13,194.991 292.958,196.046 292.932,196.033C292.827,195.98 292.886,195.217 292.915,194.828L293.153,194.791C293.225,194.17 293.292,193.548 293.369,192.927C293.637,190.789 294.076,188.669 294.465,186.551C295.667,180 296.071,173.079 298.955,166.984C301.681,161.226 306.511,156.679 311.008,152.301C319.024,144.498 327.693,137.391 336.826,130.934C363.1,112.359 395.217,102.551 427.365,102.166C439.075,102.026 450.683,104.252 462.269,105.674C473.138,107.008 483.98,109.589 494.478,112.695C497.515,113.594 503.779,114.709 506.031,117.149C506.261,117.399 504.306,117.319 504.17,117.309C502.967,117.219 501.77,117.072 500.572,116.926C496.825,116.469 493.09,115.91 489.337,115.499C478.425,114.301 467.511,115.27 456.601,116.084C444.197,117.008 431.316,118.283 419.28,121.547C407.998,124.608 397.101,129.472 386.461,134.257C375.976,138.973 365.175,144.281 355.865,151.093C348.429,156.535 341.31,163.008 336.068,170.632C334.885,172.353 333.703,174.067 332.6,175.841C332.527,175.958 331.569,177.311 331.685,177.414C331.835,177.547 334.839,174.573 335.033,174.393C338.904,170.804 342.767,167.182 346.965,163.974C357.695,155.773 369.864,149.163 381.803,142.917C409.039,128.666 439.665,121.539 470.203,119.624C482.639,118.845 495.704,118.289 508.071,120.192C514.364,121.16 520.873,122.397 527.143,124.184C528.918,124.975 530.696,125.762 532.484,126.531C535.156,127.68 537.825,128.829 540.543,129.867C541.441,130.209 542.341,130.549 543.256,130.842C543.327,130.865 544.588,131.236 544.576,131.152C544.555,131.005 544.42,130.834 544.218,130.654C542.027,129.244 538.509,128.218 536.625,127.441C533.571,126.182 530.389,125.109 527.143,124.184C521.005,121.447 514.909,118.652 508.584,116.316C499.333,112.9 489.76,110.705 480.233,108.245C465.118,104.342 449.81,100.606 434.429,97.895C413.65,94.232 392.94,97.659 372.908,103.609C361.09,107.119 348.943,110.275 338.214,116.519C329.136,121.801 321.436,128.878 314.266,136.485C309.981,141.031 305.653,145.743 302.759,151.331C299.056,158.48 297.333,166.591 295.61,174.401C294.47,179.565 292.912,184.688 292.864,190.014C292.85,191.549 292.929,193.082 292.929,194.617C292.929,194.647 292.923,194.724 292.915,194.828L275.923,197.451C274.805,196.572 274.301,193.836 273.965,192.594C272.455,187.002 273.254,181.01 274.293,175.398C278.469,152.847 291.85,135.488 309.438,121.352C339.071,97.535 379.377,91.153 416.312,91.386C430.002,91.472 444.089,92.111 457.551,94.752C468.838,96.966 479.423,100.646 490.378,104.059C504.923,108.589 518.865,116.228 532.231,123.46C535.493,125.225 538.704,127.039 541.781,129.114C542.159,129.369 543.55,130.06 544.218,130.654C544.734,130.986 545.177,131.34 545.507,131.717C545.55,131.766 543.985,131.694 543.841,131.674C542.727,131.519 541.616,131.319 540.508,131.124C537.161,130.537 533.807,129.93 530.418,129.641C520.268,128.778 509.901,128.06 499.715,128.099C489.734,128.136 479.847,129.575 470.051,131.369C450.219,135.002 430.774,141.353 413.849,152.636C407.685,156.746 402.658,162.473 398.069,168.237C397.221,169.301 393.938,172.527 394.025,173.928C394.029,173.986 394.611,173.554 394.648,173.526C395.084,173.188 395.508,172.836 395.933,172.485C397.128,171.498 398.332,170.521 399.551,169.562C403.126,166.752 406.782,164.15 410.756,161.931C422.818,155.195 435.678,147.738 448.759,143.294C477.563,133.507 506.52,130.356 536.735,134.938C542.944,135.879 549.364,136.257 555.376,138.188C560.108,139.708 564.305,142.037 568.578,144.354C568.182,143.843 569.825,144.698 570.432,144.92C571,145.128 571.552,145.36 572.093,145.615ZM267.71,181.004C268.311,182.373 268.876,183.757 269.206,185.101C268.965,184.697 268.752,184.248 268.579,183.732C268.274,182.822 267.986,181.913 267.71,181.004ZM574.364,146.866C575.202,147.325 576.042,147.781 576.883,148.235C581.978,150.984 587,153.889 592.235,156.357C582.068,152.278 575.278,148.132 575.865,147.858C575.869,147.857 574.851,147.183 574.364,146.866ZM325.87,100.412L333.449,97.245C333.56,96.835 334.805,96.416 335.117,96.259C336.901,95.36 338.743,94.576 340.581,93.794C348.196,90.555 356.042,87.853 363.954,85.438C399.228,74.67 437.476,74.435 473.299,82.61C483.387,84.912 493.851,87.619 503.314,91.89C505.446,92.852 507.546,93.882 509.632,94.94C509.858,95.055 511.59,95.704 511.624,95.975C511.654,96.211 511.166,95.847 510.939,95.774C510.442,95.615 509.947,95.448 509.453,95.281C508.039,94.804 506.631,94.311 505.214,93.844C501.011,92.457 496.739,91.238 492.444,90.175C479.503,86.972 465.675,84.595 452.338,84.196C445.211,83.983 437.943,84.18 430.906,85.417C427.027,86.099 423.082,88.101 419.148,88.261C413.957,88.473 408.695,87.823 403.477,87.969C385.575,88.471 368.291,90.151 350.747,93.715C342.398,95.411 333.848,97.278 325.87,100.412L322.848,101.675C323.845,101.232 324.853,100.812 325.87,100.412Z"
            style="fill: rgb(calc(var(--color_hairs_r, 98) - 25), calc(var(--color_hairs_g, 86) - 41), calc(var(--color_hairs_b, 34) - 1))"
          />
          <g>
            <path
              d="M198.185,329.182C198.115,329.171 198.96,326.569 199.018,326.417C200.225,323.224 201.579,320.081 203.031,316.991C208.777,304.762 216.585,293.512 225.791,283.635"
              style="fill: none; stroke: black; stroke-width: 2.1px"
            />
            <path d="M208.369,326.874C216,310.426 232.586,285.991 245.811,273.406" style="fill: none; stroke: black; stroke-width: 2.1px" />
            <path
              d="M211.035,342.161C211.264,342.416 211.328,341.54 211.496,341.241C211.821,340.662 212.15,340.085 212.474,339.505C213.486,337.699 214.544,335.921 215.614,334.148C218.79,328.889 221.926,323.457 225.732,318.613"
              style="fill: none; stroke: black; stroke-width: 2.1px"
            />
            <path d="M215.28,353.873C215.103,353.716 217.145,350.504 217.285,350.269C219.534,346.492 221.631,342.448 224.315,338.959" style="fill: none; stroke: black; stroke-width: 2.1px" />
            <path d="M216.808,368.084C216.612,367.706 217.706,365.939 217.869,365.606C219.102,363.085 221.889,358.986 223.522,356.7" style="fill: none; stroke: black; stroke-width: 2.1px" />
            <path d="M245.084,251.618C245.255,252.14 241.268,255.853 240.89,256.279C236.688,261.016 232.599,265.874 228.757,270.908" style="fill: none; stroke: black; stroke-width: 2.1px" />
            <path
              d="M245.816,227.967C245.22,227.795 242.714,230.824 242.394,231.137C238.583,234.861 235.042,238.847 231.664,242.966C218.763,258.699 205.211,277.404 200.168,297.435"
              style="fill: none; stroke: black; stroke-width: 2.1px"
            />
            <path
              d="M237.063,227.369C235.957,228.15 234.874,228.962 233.804,229.792C228.441,233.956 223.364,238.599 218.668,243.498C211.708,250.76 205.993,259.046 200.224,267.25C195.807,273.532 190.883,279.866 189.091,287.481"
              style="fill: none; stroke: black; stroke-width: 2.1px"
            />
            <path
              d="M189.291,278.259C189.517,277.906 189.297,276.249 189.337,275.808C189.525,273.733 189.837,271.669 190.236,269.624C191.497,263.161 193.367,256.804 196.286,250.887C206.642,229.895 229.452,215.687 251.145,208.456"
              style="fill: none; stroke: black; stroke-width: 2.1px"
            />
            <path
              d="M185.431,251.888C186.423,251.059 187.44,247.027 188.166,245.763C190.822,241.137 193.971,236.75 197.437,232.701C210.569,217.36 232.035,203.93 252.988,203.93"
              style="fill: none; stroke: black; stroke-width: 2.1px"
            />
            <path
              d="M178.842,230.893C178.859,230.89 179.259,229.1 179.281,229.028C179.842,227.194 180.584,225.411 181.406,223.68C184.308,217.569 188.607,211.9 193.763,207.524C204.402,198.492 218.161,191.72 232.227,190.771C241.298,190.16 250.811,191.98 259.612,194.18"
              style="fill: none; stroke: black; stroke-width: 2.1px"
            />
            <path
              d="M186.515,191.555C186.131,191.827 187.059,190.789 187.342,190.413C187.963,189.59 188.58,188.762 189.216,187.95C191.059,185.596 193.033,183.343 195.06,181.146C201.197,174.494 208.533,167.286 217.588,164.95C232.264,161.166 245.332,173.347 255.306,182.396C258.28,185.094 261.286,188.839 264.899,190.732"
              style="fill: none; stroke: black; stroke-width: 2.1px"
            />
            <path
              d="M212.261,154.235C212.78,153.584 214.422,153.296 215.165,153.087C218.168,152.243 221.32,151.766 224.425,151.526C235.41,150.676 245.731,158.088 252.228,166.363C255.925,171.072 258.679,176.449 262.414,181.134"
              style="fill: none; stroke: black; stroke-width: 2.1px"
            />
            <path
              d="M223.493,134.04C227.896,132.734 234.932,136.015 238.716,137.768C252.847,144.316 258.758,157.417 263.931,171.113C266.109,176.88 267.829,183.704 271.593,188.722"
              style="fill: none; stroke: black; stroke-width: 2.1px"
            />
            <path
              d="M242.975,123.949C242.883,123.789 243.295,124.136 243.445,124.244C243.776,124.481 244.081,124.755 244.378,125.033C245.195,125.798 245.982,126.597 246.756,127.406C249.075,129.828 251.136,132.419 252.824,135.324C257.875,144.013 259.655,154.069 261.432,163.839"
              style="fill: none; stroke: black; stroke-width: 2.1px"
            />
            <path
              d="M263.459,119.941C262.148,122.286 261.68,125.422 261.134,128.003C259.276,136.777 260.137,145.444 261.093,154.244C261.508,158.07 261.184,162.131 262.008,165.898"
              style="fill: none; stroke: black; stroke-width: 2.1px"
            />
            <path
              d="M272.727,188.097C272.712,188.133 271.984,186.34 271.945,186.192C271.599,184.883 271.218,183.582 270.924,182.261C269.998,178.106 269.505,173.813 269.365,169.563C268.94,156.678 273.532,145.499 280.93,135.119C289.424,123.199 300.344,112.548 313.331,105.629C331.041,96.194 352.68,92.782 372.299,90.15C422.19,83.455 470.187,91.334 515.207,113.916C533.079,122.881 550.419,133.328 567.763,143.282C585.493,153.458 602.569,163.209 623.294,164.732"
              style="fill: none; stroke: black; stroke-width: 2.1px"
            />
            <path
              d="M293.888,190.594C293.562,190.89 293.68,189.733 293.665,189.293C293.631,188.328 293.65,187.356 293.682,186.392C293.774,183.588 294.136,180.786 294.607,178.023C295.959,170.095 298.093,162.102 301.474,154.785C311.872,132.283 333.259,116.604 355.961,108.097C375.394,100.815 396.259,96.189 417.086,96.396C431.828,96.543 446.619,99.788 460.94,103.01C492.592,110.132 522.813,121.758 552.437,134.864"
              style="fill: none; stroke: black; stroke-width: 2.1px"
            />
            <path
              d="M325.188,193.135C325.549,193.866 325.317,191.494 325.574,190.721C326.129,189.056 326.798,187.426 327.497,185.816C329.642,180.876 332.257,176.133 335.262,171.664C343.975,158.706 356.338,149.13 369.774,141.445C411.874,117.366 464.081,108.286 511.822,118.33"
              style="fill: none; stroke: black; stroke-width: 2.1px"
            />
            <path
              d="M380.122,202.441C379.859,202.381 380.865,198.874 380.923,198.681C382.212,194.386 383.783,190.163 385.715,186.114C393.02,170.808 405.558,157.587 420.152,149.067C445.604,134.209 474.987,128.118 504.185,128.024C520.636,127.972 536.624,129.337 552.235,134.878"
              style="fill: none; stroke: black; stroke-width: 2.1px"
            />
            <path
              d="M422.899,202.166C421.893,202.286 424.17,200.587 424.832,199.82C426.084,198.368 427.374,196.948 428.661,195.526C432.62,191.152 436.636,186.788 441.021,182.834C454.098,171.048 471.623,162.559 488.572,158.107C511.69,152.035 535.93,153.494 558.629,160.446C579.677,166.892 598.973,177.804 621.475,178.028"
              style="fill: none; stroke: black; stroke-width: 2.1px"
            />
            <path d="M617.811,172.821C617.807,172.784 610.829,173.625 610.368,173.662C605.503,174.05 600.68,173.772 595.861,173.098" style="fill: none; stroke: black; stroke-width: 2.1px" />
            <path d="M532.477,192.169C550.296,194.068 570.52,193.903 588.845,187.414" style="fill: none; stroke: black; stroke-width: 2.1px" />
            <path
              d="M539.362,195.552C539.375,195.527 540.276,195.98 540.322,195.999C541.031,196.295 541.735,196.601 542.444,196.897C544.435,197.729 546.489,198.409 548.52,199.136C554.886,201.416 561.357,203.188 568.164,203.319C581.901,203.585 595.191,199.282 607.628,193.849C613.538,191.268 619.566,188.75 624.922,185.103"
              style="fill: none; stroke: black; stroke-width: 2.1px"
            />
            <path
              d="M626.236,225.216C626.385,224.941 625.197,223.615 625.053,223.413C623.643,221.448 622.2,219.514 620.71,217.608C616.263,211.916 611.596,206.402 605.952,201.868C604.113,200.391 602.344,198.501 600.117,197.615"
              style="fill: none; stroke: black; stroke-width: 2.1px"
            />
            <path
              d="M550.633,211.491C550.359,211.979 553.381,214.494 553.662,214.749C557.431,218.158 561.683,220.382 566.658,221.432C579.667,224.178 592.773,226.311 605.195,231.268C612.968,234.37 620.654,238.837 625.771,245.618"
              style="fill: none; stroke: black; stroke-width: 2.1px"
            />
            <path
              d="M552.65,224.214C553.382,226.326 556.694,228.407 558.32,229.709C565.569,235.517 574.655,236.986 583.209,239.989C593.547,243.619 602.682,249.97 610.573,257.492C615.526,262.215 619.995,267.435 622.626,273.823"
              style="fill: none; stroke: black; stroke-width: 2.1px"
            />
            <path
              d="M553.278,245.778C553.528,245.583 553.608,246.322 553.774,246.593C554.127,247.17 554.473,247.752 554.843,248.319C555.886,249.92 557.025,251.464 558.227,252.95C561.849,257.427 566.388,260.859 571.271,263.861C579.776,269.09 589.565,272.028 597.855,277.564C604.888,282.261 610.397,289.174 614.89,296.249"
              style="fill: none; stroke: black; stroke-width: 2.1px"
            />
            <path
              d="M554.717,263.808C554.823,265.223 557.159,267.292 558.001,268.26C561.601,272.399 565.773,276.093 570.287,279.206C578.099,284.593 587.157,287.838 594.677,293.68C600.598,298.28 605.139,304.993 608.939,311.383"
              style="fill: none; stroke: black; stroke-width: 2.1px"
            />
            <path
              d="M565.819,287.973C565.72,288.284 567.611,289.634 567.792,289.79C570.075,291.746 572.431,293.617 574.804,295.461C584.293,302.836 593.928,308.848 600.324,319.292"
              style="fill: none; stroke: black; stroke-width: 2.1px"
            />
            <path
              d="M574.09,307.53C573.9,307.23 574.571,308.057 574.839,308.29C575.391,308.769 575.973,309.21 576.544,309.665C578.259,311.03 579.975,312.391 581.651,313.804C587.12,318.414 591.282,323.096 594.362,329.544"
              style="fill: none; stroke: black; stroke-width: 2.1px"
            />
            <path
              d="M572.612,317.568C572.432,317.344 572.957,318.029 573.142,318.249C573.484,318.657 573.824,319.066 574.168,319.471C575.277,320.777 576.378,322.092 577.443,323.434C580.596,327.409 583.708,331.366 586.33,335.717"
              style="fill: none; stroke: black; stroke-width: 2.1px"
            />
            <path
              d="M575.085,335.356C575.314,334.925 575.749,336.073 576.08,336.431C576.756,337.163 577.433,337.896 578.097,338.64C580.049,340.825 582.049,343.066 583.681,345.506"
              style="fill: none; stroke: black; stroke-width: 2.1px"
            />
            <path
              d="M575.701,349.62C575.402,349.66 576.114,350.06 576.333,350.268C576.741,350.657 577.142,351.054 577.549,351.446C578.769,352.622 579.963,353.812 581.133,355.036"
              style="fill: none; stroke: black; stroke-width: 2.1px"
            />
            <path d="M575.996,358.282C575.903,358.937 577.777,361.037 578.132,361.574" style="fill: none; stroke: black; stroke-width: 2.1px" />
            <path
              d="M420.042,88.125C420.843,88.41 425.584,86.343 426.569,86.119C432.286,84.818 438.128,84.165 443.979,83.899C460.424,83.149 477.221,86.236 493.073,90.354C515.747,96.244 534.827,108.136 555.014,119.552C571.175,128.692 588.404,136.299 605.402,143.628"
              style="fill: none; stroke: black; stroke-width: 2.1px"
            />
            <path
              d="M310.821,106.494C314.453,102.162 321.464,97.389 326.101,94.355C341.416,84.333 358.807,77.878 376.803,74.711C429.302,65.472 486.537,72.413 530.154,104.942"
              style="fill: none; stroke: black; stroke-width: 2.1px"
            />
          </g>
        </g>
        <path
          d="M213.23,348.228C212.981,347.718 212.725,347.21 212.466,346.705C210.007,341.931 206.528,337.893 203.016,333.872C200.635,331.145 197.218,329.146 195.751,325.723C193.487,320.439 195.332,314.555 194.083,309.099C192.89,303.894 189.884,299.388 189.282,293.992C188.706,288.832 190.827,283.536 189.048,278.568C187.122,273.191 184.926,268.069 184.727,262.258C184.576,257.837 186.333,253.147 185.643,248.804C184.973,244.58 182.079,240.796 180.565,236.847C178.405,231.213 177.015,224.124 176.633,218.101C176.205,211.339 178.799,204.276 182.154,198.521C183.983,195.384 186.704,192.448 187.818,188.949C189.638,183.236 187.197,177.08 189.499,171.356C192.159,164.739 198.549,160.05 204.767,156.998C206.668,156.065 208.636,155.336 210.642,154.692C210.484,154.571 211.046,154.662 211.227,154.58C211.605,154.41 211.933,154.135 212.194,153.816C213.035,152.788 213.523,151.508 213.873,150.242C215.826,143.189 219.902,138.077 224.467,132.667C224.386,132.579 226.483,130.236 226.638,130.064C229.151,127.268 231.71,124.708 235.499,123.861C241.391,122.544 247.852,122.732 253.859,122.81C255.581,122.832 257.303,122.876 259.018,123.035C259.681,123.096 260.644,123.423 261.228,122.959C262.771,121.732 263.666,118.858 264.555,117.188C266.91,112.767 269.031,108.025 271.987,103.964C275.278,99.445 279.56,95.756 283.522,91.851C287.685,87.749 291.769,83.399 296.463,79.895C299.535,77.602 302.814,75.694 306.236,74.063C305.951,73.579 309.606,72.029 309.834,71.935C314.272,70.091 318.958,68.692 323.601,67.48C342.796,62.471 363.259,58.41 382.808,55.114C404.733,51.418 427.069,54.373 448.712,58.514C486.657,65.775 522.528,77.618 554.327,99.993C565.013,107.512 575.066,115.955 584.347,125.154C590.535,131.287 596.124,139.451 604.071,143.415C613.009,147.874 623.292,150.379 633.098,151.984C634.41,152.199 645.031,153.032 645.031,153.032C645.031,153.032 640.487,156.452 639.812,156.853C635.572,159.378 631.215,161.917 626.583,163.66C626.212,163.799 620.854,164.451 620.868,164.507C620.995,165 625.471,165.078 625.817,165.027C629.817,164.431 633.857,163.874 637.781,162.886C638.145,162.795 643.009,161.463 643.009,161.463C643.009,161.463 636.89,165.353 636.594,165.524C632.203,168.057 627.501,170.067 622.581,171.308C621.619,171.551 617.817,171.743 617.504,173C617.288,173.868 618.325,174.936 618.74,175.606C621.496,180.069 626.933,176.992 631.3,175.741C632.497,175.398 640.751,172.817 640.751,172.817C640.751,172.817 636.791,176.233 636.504,176.446C632.427,179.484 625.843,182.62 623.758,186.142C622.936,187.532 626.824,193.362 627.227,194.94C628.556,200.151 628.475,205.525 629.703,210.726C630.608,214.563 632.828,218.392 632.639,222.411C632.485,225.672 630.121,229.107 629.652,232.312C628.908,237.405 630.011,242.267 630.118,247.585C630.226,253.02 632.915,261.453 632.168,266.679C631.808,269.197 629.214,264.975 628.447,271.252C627.543,278.646 625.185,281.567 623.529,288.918C622.249,294.607 624.135,305.703 622.22,311.311C621.492,313.441 619.322,309.727 619.037,310.766C617.886,314.957 620.864,323.612 619.249,327.65C618.899,328.525 611.87,327.732 610.964,327.765C606.287,327.934 601.924,330.059 598.219,332.834C594.076,335.938 590.975,340.988 587.75,344.977C587.504,345.281 586.765,346.437 585.969,347.321C583.891,356.827 582.553,366.393 581.86,376.287C581.541,380.851 580.568,396.31 579.895,396.149C578.642,395.849 576.559,395.35 576.035,394.657C573.855,391.771 573.752,387.419 574.032,383.986C575.489,366.142 575.942,348.45 574.343,330.598C573.154,317.321 570.707,304.89 564.763,292.871C561.421,286.116 554.051,278.595 552.32,271.289C550.559,263.851 553.076,254.564 553.3,247.094C553.796,230.512 554.128,208.461 541.454,197.143C535.691,191.996 529.242,191.264 514.645,189.658C509.091,189.047 497.324,188.521 488.07,189.877C473.886,191.954 456.809,198.027 443.128,199.502C433.258,200.566 424.606,201.835 413.93,203.271C411.062,203.656 401.624,204.975 399.671,205.142C399.671,205.142 387.886,203.95 385.073,203.271C375.411,200.938 365.744,200.566 355.875,199.502C344.88,198.316 333.981,195.232 322.007,193.042C315.259,191.808 299.946,191.585 288.297,190.434C276.5,189.269 265.62,185.906 257.549,197.143C247.635,210.944 245.206,230.512 245.702,247.094C245.926,254.564 248.444,263.851 246.682,271.289C244.952,278.595 237.581,286.116 234.24,292.871C228.295,304.89 225.848,317.321 224.659,330.598C223.061,348.45 223.514,366.142 224.97,383.986C225.251,387.419 225.147,391.771 222.967,394.657C222.444,395.35 220.36,395.849 219.107,396.149C218.434,396.31 217.462,380.851 217.142,376.287C216.472,366.708 215.196,357.436 213.23,348.228Z"
          style="fill: none; stroke: black; stroke-width: 2.1px"
        />
      </g>
    </g>
  </g>
</svg>