<svg
  width="100%"
  height="100%"
  viewBox="0 0 800 800"
  version="1.1"
  xmlns="http://www.w3.org/2000/svg"
  style="fill-rule: evenodd; clip-rule: evenodd; stroke-linecap: round; stroke-linejoin: round; stroke-miterlimit: 1.5"
>
  <g transform="matrix(1.00768,0,0,1.00768,-3.07374,-2.63658)">
    <g id="assassin-hoodie-back">
      <path
        d="M345.44,847.789C325.007,846.94 308.069,845.561 298.998,843.652C275.86,838.784 251.418,834.108 232.75,818.589L231.197,832.074C228.43,828.107 227.729,820.7 225.863,816.15C219.315,800.186 210.475,787.493 197.749,775.879C149.592,731.934 53.529,711.257 70.311,630.128C87.914,545.028 148.001,438.363 204.195,373.549C237.967,334.597 279.868,300.642 333.667,299.659C344.722,299.458 355.728,300.574 366.718,301.764C371.729,300.235 382.163,302.853 387.752,303.806C391.554,304.075 395.358,304.257 399.164,304.3C402.969,304.257 406.772,304.075 410.576,303.806C416.164,302.853 426.599,300.235 431.61,301.764C442.599,300.574 453.605,299.458 464.661,299.659C518.46,300.642 560.36,334.597 594.133,373.549C650.326,438.363 710.414,545.028 728.017,630.128C744.799,711.257 648.736,731.934 600.579,775.879C587.853,787.493 579.013,800.186 572.465,816.15C570.599,820.7 569.897,828.107 567.131,832.074L565.578,818.589C546.909,834.108 522.468,838.784 499.33,843.652C490,845.615 472.35,847.018 451.127,847.86C459.388,833.577 465.308,815.634 474.095,795.77C490.562,758.538 510.327,724.639 517.29,683.896C521.67,658.27 518.713,651.993 507.441,643.62C470.63,616.277 431.161,630.087 400.145,629.505C340.37,628.383 288.92,630.822 275.564,655.511C270.142,665.533 272.976,680.307 276.346,691.148C287.457,726.888 309.531,757.318 324.947,791.114C333.258,809.335 340.55,828.289 345.44,847.789Z"
        style="fill: rgb(76, 40, 76)"
      />
      <clipPath id="Assassin-hood_0">
        <path
          d="M345.44,847.789C325.007,846.94 308.069,845.561 298.998,843.652C275.86,838.784 251.418,834.108 232.75,818.589L231.197,832.074C228.43,828.107 227.729,820.7 225.863,816.15C219.315,800.186 210.475,787.493 197.749,775.879C149.592,731.934 53.529,711.257 70.311,630.128C87.914,545.028 148.001,438.363 204.195,373.549C237.967,334.597 279.868,300.642 333.667,299.659C344.722,299.458 355.728,300.574 366.718,301.764C371.729,300.235 382.163,302.853 387.752,303.806C391.554,304.075 395.358,304.257 399.164,304.3C402.969,304.257 406.772,304.075 410.576,303.806C416.164,302.853 426.599,300.235 431.61,301.764C442.599,300.574 453.605,299.458 464.661,299.659C518.46,300.642 560.36,334.597 594.133,373.549C650.326,438.363 710.414,545.028 728.017,630.128C744.799,711.257 648.736,731.934 600.579,775.879C587.853,787.493 579.013,800.186 572.465,816.15C570.599,820.7 569.897,828.107 567.131,832.074L565.578,818.589C546.909,834.108 522.468,838.784 499.33,843.652C490,845.615 472.35,847.018 451.127,847.86C459.388,833.577 465.308,815.634 474.095,795.77C490.562,758.538 510.327,724.639 517.29,683.896C521.67,658.27 518.713,651.993 507.441,643.62C470.63,616.277 431.161,630.087 400.145,629.505C340.37,628.383 288.92,630.822 275.564,655.511C270.142,665.533 272.976,680.307 276.346,691.148C287.457,726.888 309.531,757.318 324.947,791.114C333.258,809.335 340.55,828.289 345.44,847.789Z"
        />
      </clipPath>
      <g clip-path="url(#Assassin-hood_0)">
        <path
          d="M103.207,526.042C104.177,526.668 104.294,524.004 104.866,523.001C106.433,520.249 108.077,517.54 109.668,514.802C113.849,507.604 118.154,500.478 122.579,493.426C135.339,473.092 149.937,452.069 171.905,440.844C176.471,438.511 192.08,431.241 196.071,438.398C200.022,445.482 189.238,480.703 187.349,488.447C175.469,537.154 153.421,581.913 137.8,629.263C131.58,648.118 123.692,672.089 128.109,692.134C129.735,699.513 133.28,706.227 137.739,712.278C139.743,714.998 141.898,717.602 144.007,720.239C144.028,720.265 144.421,720.712 144.423,720.708C145.019,719.515 137.884,704.267 136.77,699.356C133.359,684.321 135.523,669.14 138.685,654.269C149.488,603.449 176.274,561.481 200.086,516.236C207.126,502.862 213.475,489.052 218.784,474.894C219.434,473.161 222.307,461.407 224.738,461.25C226.637,461.127 226.731,475.43 226.784,476.648C227.512,493.546 227.224,510.683 223.845,527.312C218.773,552.274 206.669,574.248 194.671,596.321C183.514,616.846 178.426,635.45 168.393,658.702C152.646,695.197 176.106,720.093 199.69,755.447C211.18,772.67 217.574,800.781 220.648,810.941C222.882,818.323 268.741,807.326 273.108,805.196C296.258,793.905 359.812,919.343 384.615,912.356C410.429,905.083 387.845,837.501 395.83,775.416C397.571,761.875 373.857,682.488 382.276,668.675C396.614,645.147 391.747,610.441 391.228,584.376C389.977,521.491 388.707,459.037 389.736,396.133C390.223,366.383 391.646,330.325 366.369,309.419C336.139,284.417 288.998,291.984 255.519,305.004C177.563,335.32 119.014,408.608 102.581,489.954L103.207,526.042ZM695.828,526.042C694.858,526.668 694.74,524.004 694.169,523.001C692.602,520.249 690.957,517.54 689.367,514.802C685.186,507.604 680.88,500.478 676.456,493.426C663.696,473.092 649.098,452.069 627.13,440.844C622.563,438.511 606.955,431.241 602.963,438.398C599.013,445.482 609.797,480.703 611.685,488.447C623.565,537.154 645.613,581.913 661.234,629.263C667.454,648.118 675.342,672.089 670.926,692.134C669.3,699.513 665.754,706.227 661.296,712.278C659.292,714.998 657.137,717.602 655.027,720.239C655.007,720.265 654.614,720.712 654.612,720.708C654.015,719.515 661.151,704.267 662.265,699.356C665.676,684.321 663.511,669.14 660.35,654.269C649.547,603.449 622.761,561.481 598.948,516.236C591.909,502.862 585.559,489.052 580.25,474.894C579.6,473.161 576.728,461.407 574.297,461.25C572.397,461.127 572.303,475.43 572.251,476.648C571.523,493.546 571.81,510.683 575.189,527.312C580.261,552.274 592.365,574.248 604.363,596.321C615.52,616.846 620.609,635.45 630.642,658.702C646.389,695.197 622.929,720.093 599.344,755.447C587.855,772.67 581.461,800.781 578.386,810.941C576.152,818.323 533.443,812.334 529.076,810.204C505.925,798.913 442.243,927.459 417.44,920.472C391.626,913.199 418.589,775.772 415.588,737.034C414.534,723.422 425.177,682.488 416.759,668.675C402.421,645.147 407.288,610.441 407.806,584.376C409.057,521.491 410.328,459.037 409.298,396.133C408.811,366.383 407.388,330.325 432.665,309.419C462.895,284.417 510.037,291.984 543.515,305.004C621.471,335.32 680.02,408.608 696.454,489.954L695.828,526.042Z"
          style="fill: rgb(55, 31, 55)"
        />
        <path
          d="M254.754,221.844C255.764,224.415 247.776,241.453 246.96,244.527C241.233,266.102 236.369,287.902 232.69,309.919C223.819,363.004 218.679,418.091 204.869,470.229C197.072,499.665 184.326,528.564 172.847,556.719C154.135,602.613 114.713,658.504 137.91,709.78"
          style="fill: none; stroke: black; stroke-width: 2.1px"
        />
        <g transform="matrix(-1,0,0,1,799.035,0)">
          <path
            d="M254.754,221.844C255.764,224.415 247.776,241.453 246.96,244.527C241.233,266.102 236.369,287.902 232.69,309.919C223.819,363.004 218.679,418.091 204.869,470.229C197.072,499.665 184.326,528.564 172.847,556.719C154.135,602.613 114.713,658.504 137.91,709.78"
            style="fill: none; stroke: black; stroke-width: 2.1px"
          />
        </g>
        <path d="M253.559,492.29C249.407,495.809 238.322,535.082 235.184,542.077C215.094,586.862 175.443,638.597 193.696,690.748" style="fill: none; stroke: black; stroke-width: 2.1px" />
        <g transform="matrix(-1,0,0,1,799.035,0)">
          <path d="M253.559,492.29C249.407,495.809 238.322,535.082 235.184,542.077C215.094,586.862 175.443,638.597 193.696,690.748" style="fill: none; stroke: black; stroke-width: 2.1px" />
        </g>
      </g>
    </g>
  </g>
</svg>
