<svg width="800px" height="800px" viewBox="0 0 800 800" version="1.1"
    xmlns="http://www.w3.org/2000/svg" style="fill-rule: evenodd; clip-rule: evenodd; stroke-linecap: round; stroke-linejoin: round; stroke-miterlimit: 1.5">
    <g id="normal-card">
        <rect id="bg" x="-48.418" y="-9.957" width="931.967" height="871.066" style="fill: rgb(6, 46, 66)" />
        <g id="rectangles" transform="matrix(1,0,0,1,49.4291,64.1339)">
            <g opacity="0.5">
                <g transform="matrix(0.660629,0,0,1.04551,351.522,-81.058)">
                    <rect x="462.47" y="633.282" width="419.335" height="322.449" style="fill: none" />
                    <clipPath id="normal-card_0">
                        <rect x="462.47" y="633.282" width="419.335" height="322.449" />
                    </clipPath>
                    <g clip-path="url(#normal-card_0)">
                        <g transform="matrix(1.51371,0,0,0.956468,-452.99,37.369)">
                            <path d="M604.78,633.282L877.032,634.306" style="fill: none; stroke: rgb(166, 240, 98); stroke-width: 4px; stroke-dasharray: 4.25, 7.5, 0, 0" />
                        </g>
                        <g transform="matrix(1.51371,0,0,0.956468,-452.99,58.0423)">
                            <path d="M604.78,633.282L877.032,634.306" style="fill: none; stroke: rgb(166, 240, 98); stroke-width: 4px; stroke-dasharray: 4.25, 7.5, 0, 0" />
                        </g>
                        <g transform="matrix(1.51371,0,0,0.956468,-452.99,68.3789)">
                            <path d="M604.78,633.282L877.032,634.306" style="fill: none; stroke: rgb(166, 240, 98); stroke-width: 4px; stroke-dasharray: 4.25, 7.5, 0, 0" />
                        </g>
                        <g transform="matrix(1.51371,0,0,0.956468,-452.99,89.0522)">
                            <path d="M604.78,633.282L877.032,634.306" style="fill: none; stroke: rgb(166, 240, 98); stroke-width: 4px; stroke-dasharray: 4.25, 7.5, 0, 0" />
                        </g>
                        <g transform="matrix(1.51371,0,0,0.956468,-452.99,99.3888)">
                            <path d="M604.78,633.282L877.032,634.306" style="fill: none; stroke: rgb(166, 240, 98); stroke-width: 4px; stroke-dasharray: 4.25, 7.5, 0, 0" />
                        </g>
                        <g transform="matrix(1.51371,0,0,0.956468,-452.99,130.399)">
                            <path d="M604.78,633.282L877.032,634.306" style="fill: none; stroke: rgb(166, 240, 98); stroke-width: 4px; stroke-dasharray: 4.25, 7.5, 0, 0" />
                        </g>
                        <g transform="matrix(1.51371,0,0,0.956468,-452.99,151.072)">
                            <path d="M604.78,633.282L877.032,634.306" style="fill: none; stroke: rgb(166, 240, 98); stroke-width: 4px; stroke-dasharray: 4.25, 7.5, 0, 0" />
                        </g>
                        <g transform="matrix(1.51371,0,0,0.956468,-452.99,171.745)">
                            <path d="M604.78,633.282L877.032,634.306" style="fill: none; stroke: rgb(166, 240, 98); stroke-width: 4px; stroke-dasharray: 4.25, 7.5, 0, 0" />
                        </g>
                    </g>
                    <rect x="462.47" y="633.282" width="419.335" height="322.449" style="fill: none; stroke: rgb(166, 240, 98); stroke-width: 4.57px; stroke-dasharray: 4.86, 8.58, 0, 0" />
                </g>
                <g transform="matrix(0.192707,0,0,1.04551,466.744,2.40586)">
                    <rect x="462.47" y="633.282" width="419.335" height="322.449" style="fill: none" />
                    <clipPath id="normal-card_1">
                        <rect x="462.47" y="633.282" width="419.335" height="322.449" />
                    </clipPath>
                    <g clip-path="url(#normal-card_1)">
                        <g transform="matrix(1.51371,0,0,0.956468,-452.99,37.369)">
                            <path d="M604.78,633.282L877.032,634.306" style="fill: none; stroke: rgb(237, 30, 121); stroke-width: 5.43px; stroke-dasharray: 5.77, 10.18, 0, 0" />
                        </g>
                        <g transform="matrix(1.51371,0,0,0.956468,-452.99,58.0423)">
                            <path d="M604.78,633.282L877.032,634.306" style="fill: none; stroke: rgb(237, 30, 121); stroke-width: 5.43px; stroke-dasharray: 5.77, 10.18, 0, 0" />
                        </g>
                        <g transform="matrix(1.51371,0,0,0.956468,-452.99,68.3789)">
                            <path d="M604.78,633.282L877.032,634.306" style="fill: none; stroke: rgb(237, 30, 121); stroke-width: 5.43px; stroke-dasharray: 5.77, 10.18, 0, 0" />
                        </g>
                        <g transform="matrix(1.51371,0,0,0.956468,-452.99,89.0522)">
                            <path d="M604.78,633.282L877.032,634.306" style="fill: none; stroke: rgb(237, 30, 121); stroke-width: 5.43px; stroke-dasharray: 5.77, 10.18, 0, 0" />
                        </g>
                    </g>
                    <rect x="462.47" y="633.282" width="419.335" height="322.449" style="fill: none; stroke: rgb(237, 30, 121); stroke-width: 5.32px; stroke-dasharray: 5.65, 9.98, 0, 0" />
                </g>
            </g>
        </g>
        <g id="circles" opacity="0.5">
            <g transform="matrix(1,0,0,1,-118.853,-94.5905)">
                <circle cx="155.124" cy="124.814" r="124.814" style="fill: none; stroke: rgb(255, 207, 0); stroke-width: 4px; stroke-dasharray: 4.25, 7.5, 0, 0" />
            </g>
            <g transform="matrix(0.928318,0,0,0.928318,-107.734,-85.6437)">
                <circle cx="155.124" cy="124.814" r="124.814" style="fill: none; stroke: rgb(255, 207, 0); stroke-width: 4.31px; stroke-dasharray: 4.58, 8.08, 0, 0" />
            </g>
            <g transform="matrix(0.691272,0,0,0.691272,-70.9623,-56.0571)">
                <circle cx="155.124" cy="124.814" r="124.814" style="fill: none; stroke: rgb(255, 108, 0); stroke-width: 5.79px; stroke-dasharray: 6.15, 10.85, 0, 0" />
            </g>
        </g>
        <g id="rarity-bars" transform="matrix(0.86723,0,0,0.86723,10.4494,88.5493)">
            <g id="rarity-bars-fill">
                <g transform="matrix(0.114833,0,0,0.114833,59.0756,653.445)">
                    <path d="M400,117.517L629.266,249.774L629.266,514.685L400.192,646.941L400.192,647.052L400.096,646.997L400,647.052L400,646.941L170.925,514.685L170.925,249.774L400,117.517Z" style="fill: rgb(139, 57, 219)" />
                </g>
                <g transform="matrix(0.114833,0,0,0.114833,126.648,653.445)">
                    <path d="M400,117.517L629.266,249.774L629.266,514.685L400.192,646.941L400.192,647.052L400.096,646.997L400,647.052L400,646.941L170.925,514.685L170.925,249.774L400,117.517Z" style="fill: rgb(237, 30, 121)" />
                </g>
                <g transform="matrix(0.114833,0,0,0.114833,194.22,653.445)">
                    <path d="M400,117.517L629.266,249.774L629.266,514.685L400.192,646.941L400.192,647.052L400.096,646.997L400,647.052L400,646.941L170.925,514.685L170.925,249.774L400,117.517Z" style="fill: rgb(241, 90, 36)" />
                </g>
                <g transform="matrix(0.114833,0,0,0.114833,261.792,653.445)">
                    <path d="M400,117.517L629.266,249.774L629.266,514.685L400.192,646.941L400.192,647.052L400.096,646.997L400,647.052L400,646.941L170.925,514.685L170.925,249.774L400,117.517Z" style="fill: rgb(251, 176, 59)" />
                </g>
                <g transform="matrix(0.114833,0,0,0.114833,329.364,653.445)">
                    <path d="M400,117.517L629.266,249.774L629.266,514.685L400.192,646.941L400.192,647.052L400.096,646.997L400,647.052L400,646.941L170.925,514.685L170.925,249.774L400,117.517Z" style="fill: rgb(41, 171, 226)" />
                </g>
            </g>
            <g id="rarity-bars-stroke">
                <g transform="matrix(0.114833,0,0,0.114833,59.0756,653.445)">
                    <path d="M400,117.517L629.266,249.774L629.266,514.685L400.192,646.941L400.192,647.052L400.096,646.997L400,647.052L400,646.941L170.925,514.685L170.925,249.774L400,117.517Z" style="fill: none; stroke: white; stroke-width: 34.83px" />
                </g>
                <g transform="matrix(0.114833,0,0,0.114833,126.648,653.445)">
                    <path d="M400,117.517L629.266,249.774L629.266,514.685L400.192,646.941L400.192,647.052L400.096,646.997L400,647.052L400,646.941L170.925,514.685L170.925,249.774L400,117.517Z" style="fill: none; stroke: white; stroke-width: 34.83px" />
                </g>
                <g transform="matrix(0.114833,0,0,0.114833,194.22,653.445)">
                    <path d="M400,117.517L629.266,249.774L629.266,514.685L400.192,646.941L400.192,647.052L400.096,646.997L400,647.052L400,646.941L170.925,514.685L170.925,249.774L400,117.517Z" style="fill: none; stroke: white; stroke-width: 34.83px" />
                </g>
                <g transform="matrix(0.114833,0,0,0.114833,261.792,653.445)">
                    <path d="M400,117.517L629.266,249.774L629.266,514.685L400.192,646.941L400.192,647.052L400.096,646.997L400,647.052L400,646.941L170.925,514.685L170.925,249.774L400,117.517Z" style="fill: none; stroke: white; stroke-width: 34.83px" />
                </g>
                <g transform="matrix(0.114833,0,0,0.114833,329.364,653.445)">
                    <path d="M400,117.517L629.266,249.774L629.266,514.685L400.192,646.941L400.192,647.052L400.096,646.997L400,647.052L400,646.941L170.925,514.685L170.925,249.774L400,117.517Z" style="fill: none; stroke: white; stroke-width: 34.83px" />
                </g>
            </g>
        </g>
        <g transform="matrix(0.720342,0,0,0.720342,23.1337,330.63)">
            <text x="77.471px" y="439.84px" style="font-family: 'Futura-Medium', 'Futura', sans-serif; font-weight: 500; font-size: 50px; fill: white">RARITY</text>
        </g>
        <g transform="matrix(0.911866,0,0,0.911866,252.534,309.097)">
            <text x="190.763px" y="439.84px" style="font-family: 'Futura-Medium', 'Futura', sans-serif; font-weight: 500; font-size: 50px; fill: white" id="wear_value"></text>
        </g>
        <g transform="matrix(0.720342,0,0,0.720342,340.614,330.63)">
            <text x="77.471px" y="439.84px" style="font-family: 'Futura-Medium', 'Futura', sans-serif; font-weight: 500; font-size: 50px; fill: white">WEAR</text>
        </g>
        <g transform="matrix(12.011,0,0,12.011,-6825.08,-7656.1)">
            <g id="misc">
                <g>
                    <text x="619.305px" y="696.149px" style="font-family: 'Futura-Medium', 'Futura', sans-serif; font-weight: 500; font-size: 3.075px; fill: white">$#</text>
                    <text x="623.101px" y="696.149px" style="font-family: 'Futura-Medium', 'Futura', sans-serif; font-weight: 500; font-size: 3.075px; fill: white">*</text>
                    <text x="624.664px" y="696.149px" style="font-family: 'Futura-Medium', 'Futura', sans-serif; font-weight: 500; font-size: 3.075px; fill: white">!</text>
                </g>
            </g>
        </g>
        <g transform="matrix(0.720342,0,0,0.720342,520.614,330.63)">
            <text x="124.102px" y="439.84px" style="font-family: 'Futura-Medium', 'Futura', sans-serif; font-weight: 500; font-size: 50px; fill: white">SLOT</text>
        </g>
        <g transform="matrix(1,0,0,1,-7.69409,0)">
            <path d="M82.194,602.738L733.196,602.258C733.979,602.258 734.615,601.621 734.614,600.838C734.614,600.055 733.977,599.42 733.194,599.42L82.192,599.9C81.409,599.901 80.773,600.537 80.774,601.321C80.775,602.104 81.411,602.739 82.194,602.738Z" style="fill: white" />
        </g>
        <g transform="matrix(1,0,0,1,120.441,145.046)">
            <text x="180.471px" y="439.84px" style="font-family: 'Futura-Medium', 'Futura', sans-serif; font-weight: 500; font-size: 50px; fill: white">SUNRISE</text>
        </g>
        <path id="border" d="M800,801.235L800,-4.106L-0,-4.106L0,801.235L800,801.235ZM260.875,30.644L30.644,30.644C30.644,30.644 30.644,769.356 30.644,769.356C30.644,769.356 769.356,769.356 769.356,769.356L769.356,30.644L539.125,30.644L539.125,61.806L260.875,61.806L260.875,30.644Z" style="fill: rgb(0, 153, 197)" />
        <g id="guide" transform="matrix(1,0,0,1.04284,1.75676,-22.4672)">
            <rect x="82.193" y="95.569" width="632.101" height="428.927" style="fill: url(#normal-card_Linear1)" />
            <rect x="82" y="95.569" width="632.101" height="428.927" style="fill: url(#sunrise-landscape)" />
        </g>
        <pattern id="sunrise-landscape" width="100%" height="100%">
            <g id="Rising-Sun">
                <rect x="-0" y="0" width="600" height="50" style="fill: none" />
                <clipPath id="red-sunrise_0">
                    <rect x="-0" y="0" width="800" height="800" />
                </clipPath>
                <g clip-path="url(#red-sunrise_0)">
                    <g id="sky" transform="matrix(0.628355,0,0,1.2628,87.2227,-775.546)">
                        <rect x="-138.811" y="614.146" width="1273.16" height="494.284" style="fill: url(#red-sunrise_Linear2)" />
                    </g>
                    <g id="sun" transform="matrix(8.01603,0,0,7.81984,-6867.43,-2913.58)">
                        <path d="M918.584,342.548C910.603,341.607 902.54,341.607 894.559,342.548L903.563,413.152C902.115,413.291 900.678,413.531 899.263,413.869L884.855,344.168C877.001,345.869 869.374,348.487 862.131,351.969L893.573,415.823C892.248,416.425 890.967,417.118 889.738,417.898L853.479,356.651C846.603,360.81 840.239,365.763 834.519,371.408L884.991,421.593C883.933,422.593 882.947,423.664 882.038,424.801L827.856,378.646C822.703,384.813 818.293,391.563 814.716,398.759L878.747,429.837C878.072,431.126 877.487,432.46 876.996,433.83L810.764,407.769C807.892,415.274 805.913,423.091 804.866,431.059L875.519,439.662C875.299,441.1 875.178,442.552 875.159,444.007L804.053,440.863C803.775,448.895 804.44,456.931 806.037,464.807L875.656,450.003C875.914,451.434 876.272,452.847 876.726,454.229L808.452,474.344C810.797,482.03 814.036,489.415 818.103,496.346L879.143,459.738C879.852,461.009 880.649,462.228 881.527,463.388L823.484,504.582C828.197,511.091 833.659,517.024 839.756,522.258L885.602,467.815C886.686,468.786 887.835,469.681 889.043,470.492L847.52,528.301C854.091,532.927 861.183,536.765 868.65,539.735L894.334,473.356C895.674,473.923 897.052,474.396 898.457,474.772L877.955,542.93C885.672,545.172 893.626,546.499 901.652,546.884L904.392,475.762C905.843,475.863 907.3,475.863 908.751,475.762L911.491,546.884C919.517,546.499 927.471,545.172 935.188,542.93L914.686,474.772C916.091,474.396 917.469,473.923 918.809,473.356L944.493,539.735C951.96,536.765 959.052,532.927 965.623,528.301L924.1,470.492C925.308,469.681 926.457,468.786 927.541,467.815L973.387,522.258C979.484,517.024 984.946,511.091 989.659,504.582L931.615,463.388C932.494,462.228 933.291,461.009 934,459.738L995.04,496.346C999.107,489.415 1002.35,482.03 1004.69,474.344L936.417,454.229C936.871,452.847 937.229,451.434 937.487,450.003L1007.11,464.807C1008.7,456.931 1009.37,448.895 1009.09,440.863L937.984,444.007C937.965,442.552 937.844,441.1 937.624,439.662L1008.28,431.059C1007.23,423.091 1005.25,415.274 1002.38,407.769L936.147,433.83C935.656,432.46 935.071,431.126 934.396,429.837L998.427,398.759C994.85,391.563 990.44,384.813 985.287,378.646L931.105,424.801C930.196,423.664 929.21,422.593 928.152,421.593L978.623,371.408C972.904,365.763 966.54,360.81 959.664,356.651L923.404,417.898C922.176,417.118 920.895,416.425 919.57,415.823L951.012,351.969C943.769,348.487 936.142,345.869 928.288,344.168L913.88,413.869C912.465,413.531 911.028,413.291 909.58,413.152L918.584,342.548Z" style="fill: url(#_Radial3)" />
                    </g>
                    <g id="ground" transform="matrix(0.628355,0,0,0.553467,87.2227,253.135)">
                        <rect x="-138.811" y="614.146" width="1273.16" height="494.284" style="fill: url(#red-sunrise_Linear4)" />
                    </g>
                </g>
            </g>
            <defs>
                <linearGradient id="red-sunrise_Linear2" x1="0" y1="0" x2="1" y2="0" gradientUnits="userSpaceOnUse" gradientTransform="matrix(2.17922e-14,355.894,-355.894,2.17922e-14,476.656,668.106)">
                    <stop offset="0" style="stop-color: rgb(255, 200, 114); stop-opacity: 1" />
                    <stop offset="1" style="stop-color: rgb(255, 102, 122); stop-opacity: 1" />
                </linearGradient>
                <radialGradient id="_Radial3" cx="0" cy="0" r="1" gradientUnits="userSpaceOnUse" gradientTransform="matrix(4.02028e-14,81.5548,-79.5588,4.12114e-14,906.571,444.363)">
                    <stop offset="0" style="stop-color: rgb(255, 32, 131); stop-opacity: 1" />
                    <stop offset="1" style="stop-color: rgb(255, 32, 131); stop-opacity: 0" />
                </radialGradient>
                <linearGradient id="red-sunrise_Linear4" x1="0" y1="0" x2="1" y2="0" gradientUnits="userSpaceOnUse" gradientTransform="matrix(7.22723e-14,1180.3,-1180.3,7.22723e-14,476.656,624.184)">
                    <stop offset="0" style="stop-color: rgb(255, 176, 122); stop-opacity: 1" />
                    <stop offset="0.08" style="stop-color: rgb(229, 182, 177); stop-opacity: 1" />
                    <stop offset="0.24" style="stop-color: rgb(168, 209, 208); stop-opacity: 1" />
                    <stop offset="0.67" style="stop-color: rgb(98, 180, 177); stop-opacity: 1" />
                    <stop offset="1" style="stop-color: rgb(61, 118, 116); stop-opacity: 1" />
                </linearGradient>
            </defs>
        </pattern>
        <g transform="matrix(1,0,0,1,7.6296,-2.65748)">
            <text x="263.72px" y="53.076px" style="font-family: 'Futura-Medium', 'Futura', sans-serif; font-weight: 500; font-size: 50px; fill: white">SEASON 0</text>
        </g>
    </g>
    <defs>
        <linearGradient id="normal-card_Linear1" x1="0" y1="0" x2="1" y2="0" gradientUnits="userSpaceOnUse" gradientTransform="matrix(3.89688e-14,-610.267,636.408,3.73681e-14,398.243,614.74)">
            <stop offset="0" style="stop-color: rgb(80, 225, 255); stop-opacity: 1" />
            <stop offset="0.44" style="stop-color: rgb(219, 249, 255); stop-opacity: 1" />
            <stop offset="1" style="stop-color: white; stop-opacity: 1" />
        </linearGradient>
    </defs>
</svg>