<svg viewBox="0 0 800 800" xmlns="http://www.w3.org/2000/svg">
  <g transform="matrix(0.88685,0,0,0.88685,45.1133,13.2405)">
    <g id="ears">
      <g id="ears-3">
        <g>
          <path
            d="M567.518,368.233C567.481,367.628 568.737,368.262 569.334,368.159C570.555,367.948 571.725,367.511 572.818,366.939C576.286,365.123 579.069,362.26 581.139,358.963C585.969,351.27 588.447,341.91 594.829,335.243C605.345,324.256 623.514,324.939 630.952,339.123C636.626,349.944 632.924,361.085 631.986,372.336C631.654,376.323 633.801,380.927 634.321,384.89C635.196,391.553 634.694,398.604 633.214,405.145C630.981,415.012 625.532,424.017 618.908,431.564C615.058,435.949 610.379,439.474 607.213,444.421C603.67,449.957 600.005,455.452 596.681,461.122C591.268,470.357 588.681,477.229 576.275,476.21C565.333,475.31 562.569,459.658 555.488,453.5"
            style="fill: var(--color_skin, rgb(240, 205, 177))"
          />
          <clipPath id="_clip12_business_ears">
            <path
              d="M567.518,368.233C567.481,367.628 568.737,368.262 569.334,368.159C570.555,367.948 571.725,367.511 572.818,366.939C576.286,365.123 579.069,362.26 581.139,358.963C585.969,351.27 588.447,341.91 594.829,335.243C605.345,324.256 623.514,324.939 630.952,339.123C636.626,349.944 632.924,361.085 631.986,372.336C631.654,376.323 633.801,380.927 634.321,384.89C635.196,391.553 634.694,398.604 633.214,405.145C630.981,415.012 625.532,424.017 618.908,431.564C615.058,435.949 610.379,439.474 607.213,444.421C603.67,449.957 600.005,455.452 596.681,461.122C591.268,470.357 588.681,477.229 576.275,476.21C565.333,475.31 562.569,459.658 555.488,453.5"
            />
          </clipPath>
          <g clip-path="url(#_clip12_business_ears)">
            <path
              d="M558.11,455.353C562.33,451.217 575.514,469.52 575.724,469.912C577.403,473.034 580.096,473.806 583.5,473.46C585.263,473.281 587.011,472.946 588.654,472.265C589.195,472.041 589.718,471.787 590.227,471.498C590.5,471.343 591.165,470.762 591.058,471.057C590.582,472.364 587.092,473.822 585.986,474.419C582.324,476.393 578.19,478.1 573.969,477.095C572.753,476.805 570.636,476.26 570.324,474.786C569.92,472.875 547.956,466.909 548.922,465.39C548.922,465.39 555.718,457.698 558.11,455.353ZM589.538,457.203C591.095,453.266 591.772,449.118 594.3,445.564C598.666,439.428 606.979,436.473 613.275,432.791C615.814,431.306 618.312,429.781 620.805,428.223C620.994,428.104 623.001,426.693 623.173,426.96C623.462,427.406 621.804,428.998 621.578,429.257C619.614,431.509 617.513,433.638 615.447,435.796C612.309,439.076 608.951,442.161 605.954,445.575C604.033,447.765 602.469,450.536 600.131,452.316C597.047,454.664 593.06,456.034 589.571,457.695L589.538,457.203ZM581.367,426.989C581.723,426.4 582.093,425.825 582.391,425.157C583.951,421.671 586.344,418.488 587.876,414.993C588.012,414.682 588.88,412.003 589.376,412.128C589.944,412.269 590.162,414.317 590.246,414.723C590.791,417.367 591.292,420.067 591.615,422.748C591.64,422.96 591.626,425.659 591.801,425.709C592.829,426.002 597.686,418.725 598.029,418.132C601.465,412.197 601.665,406.235 600.132,399.368C599.177,395.094 595.62,391.024 591.571,389.347C590.229,388.791 587.408,389.252 586.459,388.303C585.131,386.975 585.152,384.26 585.003,382.54C583.781,368.426 588.138,354.078 598.032,343.754C602.959,338.613 609.164,334.249 616.388,337.058C623.695,339.9 629.053,345.615 628.905,353.711C628.889,354.61 628.582,361.476 627.342,361.708C626.797,361.81 625.313,357.697 625.123,357.291C623.326,353.449 623.459,349.285 619.445,347.124C608.223,341.081 614.194,353.478 606.551,361.679C603.372,365.091 596.474,366.465 594.271,370.525C591.883,374.922 598.992,378.798 601.367,381.871C608.109,390.596 613.209,396.818 611.046,408.762C609.566,416.934 604.582,426.245 596.631,429.769C593.223,431.28 589.372,430.849 585.951,432.21C583.958,433.002 582.419,434.381 581.236,436.155C581.075,436.397 579.648,439.014 579.288,438.794C577.726,437.839 579.094,430.358 579.391,428.916L579.641,428.814C579.647,428.55 579.658,428.338 579.658,428.286C579.658,426.145 579.565,424.006 579.601,421.864C579.617,420.928 579.631,419.991 579.646,419.055C579.656,418.421 579.678,417.788 579.702,417.154C579.812,414.182 581.828,416.579 584.323,415.111C585.06,414.678 587.566,411.542 588.194,411.542L586.816,414.797C585.88,416.932 585.001,419.088 584.037,421.211C583.159,423.142 582.266,425.067 581.367,426.989Z"
              style="fill: rgb(66, 31, 67); fill-opacity: 0.5"
            />
            <path
              d="M582.703,435.81C582.173,435.398 583.971,436.281 584.634,436.383C585.981,436.59 587.389,436.629 588.744,436.502C591.149,436.276 599.126,432.226 597.299,428.457C596.674,427.169 593.344,428.347 592.432,428.571C588.299,429.586 582.964,431.494 580.783,435.493L582.703,435.81ZM627.927,418.079C627.213,417.986 628.348,416.697 628.464,415.987C628.702,414.529 628.815,413.05 628.851,411.574C628.96,407.077 628.537,402.723 627.403,398.365C625.045,389.298 620.231,381.094 618.008,372C616.872,367.351 616.258,361.734 618.319,357.246C619.618,354.416 622.537,352.515 625.115,355.093C627.627,357.605 628.976,361.524 630.241,364.748C633.543,373.156 635.679,381.9 635.465,390.985C635.276,398.991 633.614,407.034 630.356,414.364L627.927,418.079ZM588.307,410.621C588.494,410.514 588.655,410.372 588.777,410.196L588.258,410.966C588.272,410.851 588.289,410.736 588.307,410.621ZM588.307,410.621C587.402,411.137 585.878,410.836 585.082,409.573C583.007,406.282 583.486,400.937 583.638,397.205C583.657,396.741 583.543,392.823 584.151,392.794C585.508,392.729 586.88,396.576 587.684,397.023C588.91,397.706 589.111,401.801 589.371,403.433C589.749,405.801 588.675,408.255 588.307,410.621ZM588.19,343.682C588.151,343.732 588.143,343.792 588.181,343.867L588.19,343.682C588.345,343.483 589.006,343.446 589.287,343.261C589.965,342.814 590.631,342.351 591.307,341.902C593.358,340.538 595.42,339.185 597.444,337.782C605.15,332.438 617.499,328.701 625.159,336.256C631.013,342.029 632.729,352.051 633.717,359.807C634.046,362.387 634.315,364.979 634.409,367.579C634.429,368.13 634.517,371.688 634.719,371.359C636.683,368.154 637.123,363.223 637.605,359.615C639.61,344.587 634.922,324.466 617.259,322.086C606.065,320.578 585.547,326.66 588.285,341.568L588.19,343.682Z"
              style="fill: rgb(252, 255, 216); fill-opacity: 0.6"
            />
          </g>
          <path
            d="M567.518,368.233C567.481,367.628 568.737,368.262 569.334,368.159C570.555,367.948 571.725,367.511 572.818,366.939C576.286,365.123 579.069,362.26 581.139,358.963C585.969,351.27 588.447,341.91 594.829,335.243C605.345,324.256 623.514,324.939 630.952,339.123C636.626,349.944 632.924,361.085 631.986,372.336C631.654,376.323 633.801,380.927 634.321,384.89C635.196,391.553 634.694,398.604 633.214,405.145C630.981,415.012 625.532,424.017 618.908,431.564C615.058,435.949 610.379,439.474 607.213,444.421C603.67,449.957 600.005,455.452 596.681,461.122C591.268,470.357 588.681,477.229 576.275,476.21C565.333,475.31 562.569,459.658 555.488,453.5"
            style="fill: none; stroke: black; stroke-width: 2.37px"
          />
          <path
            d="M591.831,399.486C591.82,398.74 590.169,396.923 589.794,396.277C588.329,393.749 586.923,391.124 586.066,388.32C582.982,378.235 584.641,366.395 589.166,357.032C592.664,349.796 598.751,342.214 606.084,338.603C614.572,334.423 623.863,338.576 627.045,347.214"
            style="fill: none; stroke: black; stroke-width: 2.37px"
          />
          <path
            d="M618.025,342.772C617.974,343.24 619.09,344.673 619.32,345.095C620.576,347.399 621.919,349.655 623.162,351.967C627.124,359.342 629.552,365.414 631.431,373.402"
            style="fill: none; stroke: black; stroke-width: 2.37px"
          />
          <path
            d="M590.49,365.464C590.37,365.352 591.468,365.006 591.623,364.957C592.448,364.698 593.26,364.398 594.077,364.114C596.503,363.27 599.11,362.58 601.233,361.085C606.348,357.484 610.354,347.974 607.529,341.853"
            style="fill: none; stroke: black; stroke-width: 2.37px"
          />
          <path
            d="M587.609,381.876C587.442,381.527 588.208,382.367 588.524,382.589C589.211,383.071 589.892,383.56 590.582,384.037C592.682,385.494 594.758,387.016 596.724,388.65C602.505,393.454 607.702,401.406 607.535,409.21C607.382,416.33 602.546,425.432 595.993,428.594C592.847,430.112 589.277,429.68 586.083,430.949C582.888,432.218 580.721,435.906 579.443,438.92"
            style="fill: none; stroke: black; stroke-width: 2.37px"
          />
          <path
            d="M589.885,457.22C590.244,457.121 591.146,455.604 591.424,455.288C592.842,453.681 594.384,452.175 595.953,450.717C600.925,446.098 606.699,442.566 611.777,438.123"
            style="fill: none; stroke: black; stroke-width: 2.37px"
          />
          <path
            d="M585.018,393.496C585.029,393.487 586.52,395.787 586.604,395.927C588.106,398.433 589.335,401.332 589.396,404.291C589.581,413.366 582.686,420.557 580.352,428.961"
            style="fill: none; stroke: black; stroke-width: 2.37px"
          />
        </g>
        <g transform="matrix(-1,0,0,1,798.881,0)">
          <path
            d="M567.518,368.233C567.481,367.628 568.737,368.262 569.334,368.159C570.555,367.948 571.725,367.511 572.818,366.939C576.286,365.123 579.069,362.26 581.139,358.963C585.969,351.27 588.447,341.91 594.829,335.243C605.345,324.256 623.514,324.939 630.952,339.123C636.626,349.944 632.924,361.085 631.986,372.336C631.654,376.323 633.801,380.927 634.321,384.89C635.196,391.553 634.694,398.604 633.214,405.145C630.981,415.012 625.532,424.017 618.908,431.564C615.058,435.949 610.379,439.474 607.213,444.421C603.67,449.957 600.005,455.452 596.681,461.122C591.268,470.357 588.681,477.229 576.275,476.21C565.333,475.31 562.569,459.658 555.488,453.5"
            style="fill: var(--color_skin, rgb(240, 205, 177))"
          />
          <clipPath id="_clip13_business_ears">
            <path
              d="M567.518,368.233C567.481,367.628 568.737,368.262 569.334,368.159C570.555,367.948 571.725,367.511 572.818,366.939C576.286,365.123 579.069,362.26 581.139,358.963C585.969,351.27 588.447,341.91 594.829,335.243C605.345,324.256 623.514,324.939 630.952,339.123C636.626,349.944 632.924,361.085 631.986,372.336C631.654,376.323 633.801,380.927 634.321,384.89C635.196,391.553 634.694,398.604 633.214,405.145C630.981,415.012 625.532,424.017 618.908,431.564C615.058,435.949 610.379,439.474 607.213,444.421C603.67,449.957 600.005,455.452 596.681,461.122C591.268,470.357 588.681,477.229 576.275,476.21C565.333,475.31 562.569,459.658 555.488,453.5"
            />
          </clipPath>
          <g clip-path="url(#_clip13_business_ears)">
            <g transform="matrix(-1,0,0,1,798.881,0)">
              <path
                d="M234.753,455.633C232.07,457.656 223.368,469.52 223.157,469.912C221.479,473.034 218.786,473.806 215.381,473.46C213.618,473.281 211.87,472.946 210.227,472.265C209.686,472.041 209.163,471.787 208.654,471.498C208.382,471.343 207.717,470.762 207.824,471.057C208.299,472.364 211.789,473.822 212.895,474.419C216.557,476.393 220.691,478.1 224.912,477.095C226.128,476.805 228.245,476.26 228.557,474.786C228.962,472.875 250.206,454.837 249.239,453.318C249.239,453.318 244.818,448.044 234.753,455.633ZM209.343,457.203C207.786,453.266 207.11,449.118 204.581,445.564C200.216,439.428 191.902,436.473 185.606,432.791C183.068,431.306 180.57,429.781 178.076,428.223C177.887,428.104 175.881,426.693 175.708,426.96C175.419,427.406 177.077,428.998 177.303,429.257C179.267,431.509 181.369,433.638 183.434,435.796C186.573,439.076 189.93,442.161 192.927,445.575C194.848,447.765 196.413,450.536 198.75,452.316C201.835,454.664 205.821,456.034 209.31,457.695L209.343,457.203ZM219.643,429.71C220.082,432.118 220.961,437.958 219.593,438.794C219.233,439.014 217.806,436.397 217.645,436.155C216.463,434.381 214.923,433.002 212.93,432.21C209.509,430.849 205.659,431.28 202.25,429.769C194.299,426.245 189.315,416.934 187.835,408.762C185.672,396.818 190.773,390.596 197.515,381.871C199.889,378.798 206.998,374.922 204.611,370.525C202.407,366.465 195.509,365.091 192.33,361.679C184.687,353.478 190.658,341.081 179.437,347.124C175.422,349.285 175.555,353.449 173.758,357.291C173.568,357.697 172.085,361.81 171.54,361.708C170.3,361.476 169.992,354.61 169.976,353.711C169.829,345.615 175.186,339.9 182.493,337.058C189.717,334.249 195.922,338.613 200.849,343.754C210.743,354.078 215.1,368.426 213.878,382.54C213.73,384.26 213.75,386.975 212.422,388.303C211.473,389.252 208.652,388.791 207.31,389.347C203.261,391.024 199.704,395.094 198.749,399.368C197.216,406.235 197.416,412.197 200.852,418.132C201.196,418.725 206.052,426.002 207.08,425.709C207.255,425.659 207.241,422.96 207.266,422.748C207.589,420.067 208.091,417.367 208.636,414.723C208.719,414.317 208.938,412.269 209.505,412.128C210.002,412.003 211.484,414.554 211.621,414.865C213.152,418.359 214.362,420.668 215.921,424.154C216.449,425.334 217.767,427.225 218.267,428.418L219.242,428.815C219.108,428.474 219.002,428.174 218.956,428.076C217.886,425.794 216.821,423.506 215.778,421.211C214.813,419.088 213.934,416.932 212.998,414.797L211.621,411.542C212.248,411.542 214.755,414.678 215.491,415.111C217.986,416.579 220.002,414.182 220.113,417.154C220.136,417.788 220.158,418.421 220.169,419.055C220.184,419.991 220.197,420.928 220.213,421.864C220.249,424.006 220.157,426.145 220.157,428.286C220.157,428.445 220.255,430.159 220.027,430.14C219.912,430.131 219.777,429.956 219.643,429.71Z"
                style="fill: rgb(66, 31, 67); fill-opacity: 0.5"
              />
            </g>
            <g transform="matrix(-1,0,0,1,798.881,0)">
              <path
                d="M216.178,435.81C216.708,435.398 214.911,436.281 214.247,436.383C212.901,436.59 211.492,436.629 210.137,436.502C207.732,436.276 199.755,432.226 201.583,428.457C202.207,427.169 205.537,428.347 206.449,428.571C210.582,429.586 215.917,431.494 218.098,435.493L216.178,435.81ZM170.954,418.079C171.668,417.986 170.534,416.697 170.418,415.987C170.179,414.529 170.066,413.05 170.031,411.574C169.921,407.077 170.345,402.723 171.478,398.365C173.836,389.298 178.65,381.094 180.873,372C182.009,367.351 182.624,361.734 180.562,357.246C179.263,354.416 176.344,352.515 173.766,355.093C171.254,357.605 169.906,361.524 168.64,364.748C165.339,373.156 163.202,381.9 163.416,390.985C163.605,398.991 165.267,407.034 168.525,414.364L170.954,418.079ZM210.575,410.621C210.387,410.514 210.227,410.372 210.104,410.196L210.623,410.966C210.609,410.851 210.593,410.736 210.575,410.621ZM210.575,410.621C211.479,411.137 213.003,410.836 213.8,409.573C215.874,406.282 215.395,400.937 215.243,397.205C215.224,396.741 215.338,392.823 214.73,392.794C213.373,392.729 212.002,396.576 211.197,397.023C209.971,397.706 209.771,401.801 209.51,403.433C209.132,405.801 210.206,408.255 210.575,410.621ZM210.692,343.682C210.536,343.483 209.875,343.446 209.594,343.261C208.917,342.814 208.25,342.351 207.574,341.902C205.523,340.538 203.462,339.185 201.438,337.782C193.731,332.438 181.382,328.701 173.722,336.256C167.869,342.029 166.152,352.051 165.164,359.807C164.835,362.387 164.566,364.979 164.472,367.579C164.453,368.13 164.364,371.688 164.162,371.359C162.198,368.154 161.758,363.223 161.277,359.615C159.271,344.587 163.96,324.466 181.622,322.086C192.816,320.578 213.334,326.66 210.596,341.568L210.692,343.682C210.731,343.732 210.738,343.792 210.7,343.867L210.692,343.682Z"
                style="fill: rgb(252, 255, 216); fill-opacity: 0.6"
              />
            </g>
          </g>
          <path
            d="M567.518,368.233C567.481,367.628 568.737,368.262 569.334,368.159C570.555,367.948 571.725,367.511 572.818,366.939C576.286,365.123 579.069,362.26 581.139,358.963C585.969,351.27 588.447,341.91 594.829,335.243C605.345,324.256 623.514,324.939 630.952,339.123C636.626,349.944 632.924,361.085 631.986,372.336C631.654,376.323 633.801,380.927 634.321,384.89C635.196,391.553 634.694,398.604 633.214,405.145C630.981,415.012 625.532,424.017 618.908,431.564C615.058,435.949 610.379,439.474 607.213,444.421C603.67,449.957 600.005,455.452 596.681,461.122C591.268,470.357 588.681,477.229 576.275,476.21C565.333,475.31 562.569,459.658 555.488,453.5"
            style="fill: none; stroke: black; stroke-width: 2.37px"
          />
          <path
            d="M591.831,399.486C591.82,398.74 590.169,396.923 589.794,396.277C588.329,393.749 586.923,391.124 586.066,388.32C582.982,378.235 584.641,366.395 589.166,357.032C592.664,349.796 598.751,342.214 606.084,338.603C614.572,334.423 623.863,338.576 627.045,347.214"
            style="fill: none; stroke: black; stroke-width: 2.37px"
          />
          <path
            d="M618.025,342.772C617.974,343.24 619.09,344.673 619.32,345.095C620.576,347.399 621.919,349.655 623.162,351.967C627.124,359.342 629.552,365.414 631.431,373.402"
            style="fill: none; stroke: black; stroke-width: 2.37px"
          />
          <path
            d="M590.49,365.464C590.37,365.352 591.468,365.006 591.623,364.957C592.448,364.698 593.26,364.398 594.077,364.114C596.503,363.27 599.11,362.58 601.233,361.085C606.348,357.484 610.354,347.974 607.529,341.853"
            style="fill: none; stroke: black; stroke-width: 2.37px"
          />
          <path
            d="M587.609,381.876C587.442,381.527 588.208,382.367 588.524,382.589C589.211,383.071 589.892,383.56 590.582,384.037C592.682,385.494 594.758,387.016 596.724,388.65C602.505,393.454 607.702,401.406 607.535,409.21C607.382,416.33 602.546,425.432 595.993,428.594C592.847,430.112 589.277,429.68 586.083,430.949C582.888,432.218 580.721,435.906 579.443,438.92"
            style="fill: none; stroke: black; stroke-width: 2.37px"
          />
          <path
            d="M589.885,457.22C590.244,457.121 591.146,455.604 591.424,455.288C592.842,453.681 594.384,452.175 595.953,450.717C600.925,446.098 606.699,442.566 611.777,438.123"
            style="fill: none; stroke: black; stroke-width: 2.37px"
          />
          <path
            d="M585.018,393.496C585.029,393.487 586.52,395.787 586.604,395.927C588.106,398.433 589.335,401.332 589.396,404.291C589.581,413.366 582.686,420.557 580.352,428.961"
            style="fill: none; stroke: black; stroke-width: 2.37px"
          />
        </g>
      </g>
    </g>
  </g>
</svg>
