<svg width="100%" height="100%" viewBox="0 0 800 800" version="1.1"
    xmlns="http://www.w3.org/2000/svg" style="fill-rule:evenodd;clip-rule:evenodd;stroke-linecap:round;stroke-linejoin:round;stroke-miterlimit:1.5;">
    <style>
    :root {
        --color_hairs_r : 120;
        --color_hairs_g : 120;
        --color_hairs_b : 120;
    }
    </style>
    <g id="hairstyles-back">
        <g id="afro-hair-hat-back">
            <path d="M112.11,265.724C115.312,260.659 150.749,248.178 201.751,256.708C225.454,260.672 255.903,209.89 280.991,198.23C359.089,161.932 425.657,133.489 520.182,197.313C557.343,222.404 574.853,259.783 597.679,261.942C680.716,269.794 738.542,273.404 739.353,275.915C741.456,282.43 751.079,287.04 750.883,294.115C750.556,305.901 733.741,305.633 734.774,328.03C734.923,331.242 731.457,335.274 734.074,336.836C739.915,340.325 744.768,343.648 742.2,350.962C741.712,352.353 745.169,354.227 745.417,355.63C746.066,359.311 746.49,360.184 746.455,363.615C746.432,365.845 737.952,367.783 737.439,368.88C734.884,374.342 736.792,378.154 735.278,380.823C734.492,382.209 737.62,384.758 736.994,386.397C736.193,388.494 731.971,392.567 730.308,394.339C727.965,396.835 724.494,397.704 721.413,398.089C719.61,398.314 717.725,399.545 716.431,398.67C714.786,397.557 713.812,393.697 713.994,391.744C714.115,390.444 710.648,392.555 710.321,391.638C709.613,389.646 710.463,387.464 707.833,387.973C705.245,388.473 699.656,391.185 699.414,396.481C699.266,399.711 695.771,397.209 696.556,400.817C696.85,402.168 701.304,405.089 701.1,406.413C700.773,408.536 696.905,411.089 695.91,411.852C694.174,413.181 697.271,415.085 696.101,416.429C694.524,418.24 691.977,419.456 691.537,421.136C690.955,423.359 694.876,423.712 693.843,425.455C692.272,428.108 689.329,427.825 688.176,429.275C686.214,431.743 684.209,429.372 683.541,430.684C682.489,432.75 683.107,437.502 683.231,438.727C683.507,441.455 680.636,444.707 678.65,446.176C677.095,447.326 673.906,445.27 666.535,447.831C664.231,448.632 663.673,451.078 662.802,450.654C660.84,449.699 660.745,446.463 660.528,441.975C660.467,440.723 656.719,442.579 656.072,441.733C654.102,439.16 654.853,438.26 654.201,437.249C653.326,435.894 649.532,438.395 648.286,437.539C646.732,436.471 646.187,435.167 644.192,435.036C641.542,434.862 636.096,438.149 632.512,440.355C627.236,443.604 635.14,449.123 631.655,450.108C625.506,451.846 626.508,456.613 625.387,458.748C624.859,459.754 629.079,462.575 629.093,463.543C629.136,466.414 629.203,467.278 628.922,468.446C628.58,469.87 631.352,471.839 631.65,473.152C632.546,477.101 632.182,481.18 631.854,483.051C631.34,485.989 635.335,483.104 635.462,485.052C635.622,487.5 631.915,492.294 631.086,494.485C629.873,497.69 629.014,499.814 627.191,501.63C625.075,503.737 619.286,505.203 616.423,507.137C612.969,509.471 614.517,512.428 606.269,511.054C604.088,510.691 600.818,509.475 598.927,510.304C597.204,511.059 598.754,513.622 597.118,514.287C595.542,514.928 595.073,513.484 593.608,514.097C591.687,514.9 591.66,518.178 589.958,518.789C588.422,519.341 587.484,515.988 586.199,516.468C581.719,518.143 584.365,519.763 582.78,520.183C578.882,521.218 579.676,518.894 578.79,519.291C575.621,520.708 576.781,523.012 576.025,523.538C573.002,525.638 572.027,522.583 570.104,527.147C568.588,530.746 568.609,535.425 566.855,537.355C565.002,539.394 557.54,539.165 557.449,541.481C552.244,544.114 546.78,546.14 542.792,546.27C539.012,546.394 535.845,543.621 532.004,544.697C527.948,545.833 524.29,549.705 519.975,549.832C512.624,550.048 512.043,528.982 496.764,532.709C485.197,535.53 472.642,579.521 463.582,586.315C460.599,588.553 449.31,592.36 444.808,594.655C437.048,598.612 429.045,602.575 422.093,607.789C418.289,610.642 412.385,612.056 408.187,614.071C407.565,614.369 393.307,616.124 392.788,616.028C392.788,616.028 375.608,609.903 371.805,607.051C364.853,601.837 356.261,598.956 348.501,595C343.999,592.704 334.839,588.553 331.856,586.315C322.796,579.521 315.277,535.53 303.71,532.709C288.432,528.982 287.851,550.048 280.5,549.832C276.185,549.705 272.526,545.833 268.47,544.697C264.629,543.621 261.462,546.394 257.683,546.27C253.694,546.14 248.23,544.114 243.025,541.481C242.934,539.165 235.472,539.394 233.619,537.355C231.865,535.425 231.886,530.746 230.37,527.147C228.447,522.583 227.472,525.638 224.449,523.538C223.693,523.012 224.854,520.708 221.684,519.291C220.798,518.894 221.593,521.218 217.694,520.183C216.109,519.763 218.755,518.143 214.275,516.468C212.99,515.988 212.052,519.341 210.517,518.789C208.815,518.178 208.787,514.9 206.866,514.097C205.401,513.484 204.933,514.928 203.356,514.287C201.72,513.622 203.27,511.059 201.548,510.304C199.656,509.475 196.386,510.691 194.205,511.054C185.957,512.428 187.506,509.471 184.051,507.137C181.188,505.203 175.399,503.737 173.283,501.63C171.46,499.814 170.601,497.69 169.388,494.485C168.559,492.294 164.852,487.5 165.012,485.052C165.139,483.104 169.134,485.989 168.62,483.051C168.292,481.18 167.928,477.101 168.825,473.152C169.123,471.839 171.895,469.87 171.552,468.446C171.271,467.278 171.338,466.414 171.381,463.543C171.395,462.575 175.615,459.754 175.087,458.748C173.966,456.613 174.968,451.846 168.819,450.108C165.334,449.123 173.238,443.604 167.962,440.355C164.379,438.149 158.933,434.862 156.282,435.036C154.287,435.167 153.742,436.471 152.188,437.539C150.942,438.395 147.148,435.894 146.273,437.249C145.621,438.26 146.372,439.16 144.402,441.733C143.755,442.579 140.007,440.723 139.946,441.975C139.729,446.463 139.634,449.699 137.672,450.654C136.802,451.078 136.243,448.632 133.939,447.831C126.568,445.27 123.379,447.326 121.825,446.176C119.839,444.707 116.967,441.455 117.243,438.727C117.367,437.502 117.986,432.75 116.933,430.684C116.265,429.372 114.26,431.743 112.298,429.275C111.145,427.825 108.202,428.108 106.631,425.455C105.599,423.712 109.519,423.359 108.937,421.136C108.497,419.456 105.95,418.24 104.373,416.429C103.204,415.085 106.3,413.181 104.564,411.852C103.569,411.089 99.701,408.536 99.374,406.413C99.17,405.089 103.624,402.168 103.918,400.817C104.704,397.209 101.208,399.711 101.06,396.481C100.818,391.185 95.229,388.473 92.641,387.973C90.011,387.464 90.861,389.646 90.153,391.638C89.827,392.555 86.359,390.444 86.48,391.744C86.663,393.697 85.688,397.557 84.044,398.67C82.75,399.545 80.865,398.314 79.062,398.089C75.981,397.704 72.509,396.835 70.166,394.339C68.503,392.567 64.281,388.494 63.48,386.397C62.855,384.758 65.982,382.209 65.196,380.823C63.682,378.154 65.59,374.342 63.036,368.88C62.522,367.783 54.042,365.845 54.019,363.615C53.985,360.184 54.408,359.311 55.057,355.63C55.305,354.227 58.762,352.353 58.274,350.962C55.706,343.648 60.559,340.325 66.4,336.836C69.017,335.274 65.552,331.242 65.7,328.03C66.733,305.633 49.919,305.901 49.591,294.115C49.395,287.04 107.49,273.031 112.11,265.724Z" style="fill: rgb(var(--color_hairs_r, 183), var(--color_hairs_g, 55), var(--color_hairs_b, 88))"/>
            <clipPath id="_clip1_hair_8_hat">
                <path d="M112.11,265.724C115.312,260.659 150.749,248.178 201.751,256.708C225.454,260.672 255.903,209.89 280.991,198.23C359.089,161.932 425.657,133.489 520.182,197.313C557.343,222.404 574.853,259.783 597.679,261.942C680.716,269.794 738.542,273.404 739.353,275.915C741.456,282.43 751.079,287.04 750.883,294.115C750.556,305.901 733.741,305.633 734.774,328.03C734.923,331.242 731.457,335.274 734.074,336.836C739.915,340.325 744.768,343.648 742.2,350.962C741.712,352.353 745.169,354.227 745.417,355.63C746.066,359.311 746.49,360.184 746.455,363.615C746.432,365.845 737.952,367.783 737.439,368.88C734.884,374.342 736.792,378.154 735.278,380.823C734.492,382.209 737.62,384.758 736.994,386.397C736.193,388.494 731.971,392.567 730.308,394.339C727.965,396.835 724.494,397.704 721.413,398.089C719.61,398.314 717.725,399.545 716.431,398.67C714.786,397.557 713.812,393.697 713.994,391.744C714.115,390.444 710.648,392.555 710.321,391.638C709.613,389.646 710.463,387.464 707.833,387.973C705.245,388.473 699.656,391.185 699.414,396.481C699.266,399.711 695.771,397.209 696.556,400.817C696.85,402.168 701.304,405.089 701.1,406.413C700.773,408.536 696.905,411.089 695.91,411.852C694.174,413.181 697.271,415.085 696.101,416.429C694.524,418.24 691.977,419.456 691.537,421.136C690.955,423.359 694.876,423.712 693.843,425.455C692.272,428.108 689.329,427.825 688.176,429.275C686.214,431.743 684.209,429.372 683.541,430.684C682.489,432.75 683.107,437.502 683.231,438.727C683.507,441.455 680.636,444.707 678.65,446.176C677.095,447.326 673.906,445.27 666.535,447.831C664.231,448.632 663.673,451.078 662.802,450.654C660.84,449.699 660.745,446.463 660.528,441.975C660.467,440.723 656.719,442.579 656.072,441.733C654.102,439.16 654.853,438.26 654.201,437.249C653.326,435.894 649.532,438.395 648.286,437.539C646.732,436.471 646.187,435.167 644.192,435.036C641.542,434.862 636.096,438.149 632.512,440.355C627.236,443.604 635.14,449.123 631.655,450.108C625.506,451.846 626.508,456.613 625.387,458.748C624.859,459.754 629.079,462.575 629.093,463.543C629.136,466.414 629.203,467.278 628.922,468.446C628.58,469.87 631.352,471.839 631.65,473.152C632.546,477.101 632.182,481.18 631.854,483.051C631.34,485.989 635.335,483.104 635.462,485.052C635.622,487.5 631.915,492.294 631.086,494.485C629.873,497.69 629.014,499.814 627.191,501.63C625.075,503.737 619.286,505.203 616.423,507.137C612.969,509.471 614.517,512.428 606.269,511.054C604.088,510.691 600.818,509.475 598.927,510.304C597.204,511.059 598.754,513.622 597.118,514.287C595.542,514.928 595.073,513.484 593.608,514.097C591.687,514.9 591.66,518.178 589.958,518.789C588.422,519.341 587.484,515.988 586.199,516.468C581.719,518.143 584.365,519.763 582.78,520.183C578.882,521.218 579.676,518.894 578.79,519.291C575.621,520.708 576.781,523.012 576.025,523.538C573.002,525.638 572.027,522.583 570.104,527.147C568.588,530.746 568.609,535.425 566.855,537.355C565.002,539.394 557.54,539.165 557.449,541.481C552.244,544.114 546.78,546.14 542.792,546.27C539.012,546.394 535.845,543.621 532.004,544.697C527.948,545.833 524.29,549.705 519.975,549.832C512.624,550.048 512.043,528.982 496.764,532.709C485.197,535.53 472.642,579.521 463.582,586.315C460.599,588.553 449.31,592.36 444.808,594.655C437.048,598.612 429.045,602.575 422.093,607.789C418.289,610.642 412.385,612.056 408.187,614.071C407.565,614.369 393.307,616.124 392.788,616.028C392.788,616.028 375.608,609.903 371.805,607.051C364.853,601.837 356.261,598.956 348.501,595C343.999,592.704 334.839,588.553 331.856,586.315C322.796,579.521 315.277,535.53 303.71,532.709C288.432,528.982 287.851,550.048 280.5,549.832C276.185,549.705 272.526,545.833 268.47,544.697C264.629,543.621 261.462,546.394 257.683,546.27C253.694,546.14 248.23,544.114 243.025,541.481C242.934,539.165 235.472,539.394 233.619,537.355C231.865,535.425 231.886,530.746 230.37,527.147C228.447,522.583 227.472,525.638 224.449,523.538C223.693,523.012 224.854,520.708 221.684,519.291C220.798,518.894 221.593,521.218 217.694,520.183C216.109,519.763 218.755,518.143 214.275,516.468C212.99,515.988 212.052,519.341 210.517,518.789C208.815,518.178 208.787,514.9 206.866,514.097C205.401,513.484 204.933,514.928 203.356,514.287C201.72,513.622 203.27,511.059 201.548,510.304C199.656,509.475 196.386,510.691 194.205,511.054C185.957,512.428 187.506,509.471 184.051,507.137C181.188,505.203 175.399,503.737 173.283,501.63C171.46,499.814 170.601,497.69 169.388,494.485C168.559,492.294 164.852,487.5 165.012,485.052C165.139,483.104 169.134,485.989 168.62,483.051C168.292,481.18 167.928,477.101 168.825,473.152C169.123,471.839 171.895,469.87 171.552,468.446C171.271,467.278 171.338,466.414 171.381,463.543C171.395,462.575 175.615,459.754 175.087,458.748C173.966,456.613 174.968,451.846 168.819,450.108C165.334,449.123 173.238,443.604 167.962,440.355C164.379,438.149 158.933,434.862 156.282,435.036C154.287,435.167 153.742,436.471 152.188,437.539C150.942,438.395 147.148,435.894 146.273,437.249C145.621,438.26 146.372,439.16 144.402,441.733C143.755,442.579 140.007,440.723 139.946,441.975C139.729,446.463 139.634,449.699 137.672,450.654C136.802,451.078 136.243,448.632 133.939,447.831C126.568,445.27 123.379,447.326 121.825,446.176C119.839,444.707 116.967,441.455 117.243,438.727C117.367,437.502 117.986,432.75 116.933,430.684C116.265,429.372 114.26,431.743 112.298,429.275C111.145,427.825 108.202,428.108 106.631,425.455C105.599,423.712 109.519,423.359 108.937,421.136C108.497,419.456 105.95,418.24 104.373,416.429C103.204,415.085 106.3,413.181 104.564,411.852C103.569,411.089 99.701,408.536 99.374,406.413C99.17,405.089 103.624,402.168 103.918,400.817C104.704,397.209 101.208,399.711 101.06,396.481C100.818,391.185 95.229,388.473 92.641,387.973C90.011,387.464 90.861,389.646 90.153,391.638C89.827,392.555 86.359,390.444 86.48,391.744C86.663,393.697 85.688,397.557 84.044,398.67C82.75,399.545 80.865,398.314 79.062,398.089C75.981,397.704 72.509,396.835 70.166,394.339C68.503,392.567 64.281,388.494 63.48,386.397C62.855,384.758 65.982,382.209 65.196,380.823C63.682,378.154 65.59,374.342 63.036,368.88C62.522,367.783 54.042,365.845 54.019,363.615C53.985,360.184 54.408,359.311 55.057,355.63C55.305,354.227 58.762,352.353 58.274,350.962C55.706,343.648 60.559,340.325 66.4,336.836C69.017,335.274 65.552,331.242 65.7,328.03C66.733,305.633 49.919,305.901 49.591,294.115C49.395,287.04 107.49,273.031 112.11,265.724Z"/>
            </clipPath>
            <g clip-path="url(#_clip1_hair_8_hat)">
                <path d="M399.806,28.222C402.944,28.026 412.43,29.115 413.412,30.15C416.333,30.75 419.264,31.443 422.219,32.173C461.888,41.975 457.258,29.239 482.26,37.724C501.706,44.323 521.004,55.21 531.381,60.666C545.645,68.164 548.567,82.704 569.791,92.282C600.435,106.112 603.608,117.572 622.928,138.326C631.823,147.882 649.106,151.881 653.668,163.422C659.794,178.921 667.521,195.474 679.787,206.605C697.117,222.329 736.962,241.394 737.606,267.365C737.763,273.697 739.959,275.314 745.19,286.173C748.062,292.135 745.577,296.863 739.571,303.292C733.033,310.292 724.201,313.725 721.429,323.889C719,332.796 720.665,337.62 724.556,340.56C729.152,344.032 736.324,345.162 735.882,351.414C735.032,363.432 727.171,377.762 722.196,388.504C721.414,390.191 718.025,399.468 715.402,399.377C707.869,399.115 710.42,380.748 698.282,389.52C680.138,402.631 691.732,414.817 682.753,426.63C677.229,433.897 665.341,450.312 656.362,453.005C650.895,454.645 646.113,444.821 641.329,443.081C629.049,438.617 617.297,456.587 617.13,466.907C617.074,470.428 618.585,473.324 621.183,475.626C621.711,476.094 625.743,478.286 625.045,479.031C620.967,483.381 615.589,486.6 611.437,490.987C609.468,493.067 608.611,496.65 606.369,498.354C604.426,499.831 601.522,499.47 599.481,501.011C595.366,504.118 592.985,508.923 588.016,511.159C586.153,511.997 583.948,509.776 581.776,510.734C581.108,511.029 577.727,514.929 577.456,514.82C575.157,513.901 572.71,507.996 568.525,511.817C566.443,513.718 569.729,518.461 567.956,521.351C564.034,527.742 556.129,530.902 552.07,537.515C546.997,545.784 550.455,553.771 541.119,560.11C532.475,565.979 519.994,561.951 510.364,567.199C502.671,571.391 496.755,578.154 489.02,582.303C480.54,586.85 471.085,588.626 463.233,594.493C450.64,603.901 440.709,616.439 425.992,622.859C423.108,624.117 420.158,625.117 417.16,625.921L417.221,629.91C413.175,628.764 407.931,629.46 403.752,629.143C402.436,629.043 401.12,628.934 399.806,628.811C398.492,628.934 397.177,629.043 395.861,629.143C391.681,629.46 386.438,628.764 382.391,629.91L382.453,625.921C379.455,625.117 376.504,624.117 373.621,622.859C358.904,616.439 348.973,603.901 336.38,594.493C328.528,588.626 319.073,586.85 310.593,582.303C302.858,578.154 296.942,571.391 289.249,567.199C279.619,561.951 267.137,565.979 258.494,560.11C249.158,553.771 252.616,545.784 247.542,537.515C243.484,530.902 235.579,527.742 231.657,521.351C229.884,518.461 233.17,513.718 231.088,511.817C226.903,507.996 224.455,513.901 222.157,514.82C221.886,514.929 218.505,511.029 217.837,510.734C215.664,509.776 213.459,511.997 211.596,511.159C206.628,508.923 204.247,504.118 200.132,501.011C198.091,499.47 195.187,499.831 193.244,498.354C191.001,496.65 190.145,493.067 188.176,490.987C184.024,486.6 178.646,483.381 174.568,479.031C173.87,478.286 177.902,476.094 178.43,475.626C181.028,473.324 182.539,470.428 182.482,466.907C182.316,456.587 170.564,438.617 158.283,443.081C153.5,444.821 148.718,454.645 143.251,453.005C134.271,450.312 122.383,433.897 116.86,426.63C107.881,414.817 119.474,402.631 101.33,389.52C89.192,380.748 91.743,399.115 84.211,399.377C81.587,399.468 78.198,390.191 77.417,388.504C72.442,377.762 64.581,363.432 63.731,351.414C63.272,344.921 71.275,344.239 75.938,340.494C79.566,337.58 80.502,332.39 78.184,323.889C75.411,313.725 66.58,310.292 60.041,303.292C54.036,296.863 51.551,292.135 54.423,286.173C59.654,275.314 61.849,273.697 62.006,267.365C62.65,241.394 102.496,222.329 119.826,206.605C132.092,195.474 139.819,178.921 145.945,163.422C150.507,151.881 167.79,147.882 176.685,138.326C196.004,117.572 199.178,106.112 229.822,92.282C251.045,82.704 253.968,68.164 268.231,60.666C278.609,55.21 297.907,44.323 317.353,37.724C342.355,29.239 337.725,41.975 377.394,32.173C380.349,31.443 383.28,30.75 386.201,30.15C387.183,29.115 396.669,28.026 399.806,28.222Z" style="fill: rgb(calc(var(--color_hairs_r, 183) - 93), calc(var(--color_hairs_g, 55) - 14), calc(var(--color_hairs_b, 88) - 15))"/>
                <path d="M629.698,460.502C629.77,459.395 628.442,462.353 628.031,463.385C627.231,465.397 626.335,467.592 626.407,469.793C626.577,474.976 630.354,483.594 628.069,488.045C624.45,495.092 621.712,501.965 614.065,505.657C610.556,507.351 607.186,508.541 604.143,511.116C603.748,511.45 601.186,513.427 602.268,514.118C606.247,516.66 617.964,512.335 621.696,510.985C640.747,504.094 655.614,480.673 636.981,464.429L629.698,460.502ZM170.361,456.756C170.359,456.426 171.904,459.102 172.031,459.618C172.62,462.015 172.877,464.424 172.764,466.888C172.596,470.556 173.221,474.351 172.839,477.984C172.453,481.651 170.922,485.224 172.379,488.887C173.102,490.705 174.71,491.482 175.762,493.014C180.856,500.436 185.514,504.641 193.661,508.321C195.044,508.945 197.226,511.555 195.099,512.697C190.685,515.067 182.442,511.918 178.151,510.694C171.651,508.84 164.72,506.372 159.896,501.42C150.17,491.436 150.56,473.061 160.405,463.213L170.361,456.756ZM96.635,394.32C96.635,394.306 99.94,396.168 100.35,396.418C102.252,397.575 107.382,400.163 107.174,402.884C107.046,404.561 105.026,406.017 105.649,407.759C106.243,409.421 108.466,409.655 109.118,411.139C109.803,412.698 108.648,414.575 109.439,416.281C110.151,417.816 111.846,418.352 112.581,419.807C113.484,421.596 112.464,423.537 112.926,425.424C114.221,430.706 116.94,430.663 114.289,436.547C113.756,437.73 113.075,439.053 111.95,439.783C108.096,442.283 103.732,436.376 101.807,433.867C95.705,425.913 91.656,415.434 93.485,405.352L96.635,394.32ZM698.96,399.671C698.609,399.359 697.867,400.099 697.528,400.328C693.625,402.973 695.163,405.502 694.432,409.339C694.387,409.576 694.317,409.823 694.183,410.027C693.416,411.196 691.549,411.019 690.896,412.045C689.13,414.82 688.518,422.82 688.285,426.369C688.16,428.278 686.234,430.729 687.525,432.505C689.995,435.9 698.658,430.264 700.592,428.683C707.459,423.069 711.135,411.952 706.407,403.868L698.96,399.671ZM737.46,372.465C736.924,371.143 741.249,366.207 741.749,365.013C742.935,362.179 742.115,355.606 741.832,352.398C741.369,347.154 735.454,342.7 736.832,336.875L740.799,337.029C750.407,336.719 754.206,348.226 756.536,355.614C757.65,359.146 758.873,363.77 755.966,366.805C754.012,368.846 751.233,369.842 748.62,370.733C747.977,370.953 745.927,371.705 743.749,372.305C748.136,375.716 746.078,388.528 744.205,391.917L737.351,398.141C737.989,397.377 734.075,391.363 733.691,390.612C730.993,385.336 730.852,375.788 737.46,372.465ZM63.75,333.791C63.747,333.649 63.762,333.61 63.805,333.745L63.75,333.791C63.759,334.24 63.937,335.717 63.931,335.99C63.895,337.629 63.952,339.379 63.407,340.948C61.656,345.991 60.043,350.034 58.986,355.344C57.328,363.669 64.368,369.097 66.98,376.322C67.864,378.77 67.374,381.338 67.182,383.861C66.939,387.048 68.52,393.301 63.71,394C57.638,394.883 53.42,384.546 51.144,380.537C48.495,375.869 44.892,370.923 43.929,365.535C42.196,355.841 48.013,343.785 57.044,339.444L63.75,333.791Z" style="fill: rgb(235, 214, 197)"/>
            </g>
            <path d="M112.11,265.724C115.312,260.659 150.749,248.178 201.751,256.708C225.454,260.672 255.903,209.89 280.991,198.23C359.089,161.932 425.657,133.489 520.182,197.313C557.343,222.404 574.853,259.783 597.679,261.942C680.716,269.794 738.542,273.404 739.353,275.915C741.456,282.43 751.079,287.04 750.883,294.115C750.556,305.901 733.741,305.633 734.774,328.03C734.923,331.242 731.457,335.274 734.074,336.836C739.915,340.325 744.768,343.648 742.2,350.962C741.712,352.353 745.169,354.227 745.417,355.63C746.066,359.311 746.49,360.184 746.455,363.615C746.432,365.845 737.952,367.783 737.439,368.88C734.884,374.342 736.792,378.154 735.278,380.823C734.492,382.209 737.62,384.758 736.994,386.397C736.193,388.494 731.971,392.567 730.308,394.339C727.965,396.835 724.494,397.704 721.413,398.089C719.61,398.314 717.725,399.545 716.431,398.67C714.786,397.557 713.812,393.697 713.994,391.744C714.115,390.444 710.648,392.555 710.321,391.638C709.613,389.646 710.463,387.464 707.833,387.973C705.245,388.473 699.656,391.185 699.414,396.481C699.266,399.711 695.771,397.209 696.556,400.817C696.85,402.168 701.304,405.089 701.1,406.413C700.773,408.536 696.905,411.089 695.91,411.852C694.174,413.181 697.271,415.085 696.101,416.429C694.524,418.24 691.977,419.456 691.537,421.136C690.955,423.359 694.876,423.712 693.843,425.455C692.272,428.108 689.329,427.825 688.176,429.275C686.214,431.743 684.209,429.372 683.541,430.684C682.489,432.75 683.107,437.502 683.231,438.727C683.507,441.455 680.636,444.707 678.65,446.176C677.095,447.326 673.906,445.27 666.535,447.831C664.231,448.632 663.673,451.078 662.802,450.654C660.84,449.699 660.745,446.463 660.528,441.975C660.467,440.723 656.719,442.579 656.072,441.733C654.102,439.16 654.853,438.26 654.201,437.249C653.326,435.894 649.532,438.395 648.286,437.539C646.732,436.471 646.187,435.167 644.192,435.036C641.542,434.862 636.096,438.149 632.512,440.355C627.236,443.604 635.14,449.123 631.655,450.108C625.506,451.846 626.508,456.613 625.387,458.748C624.859,459.754 629.079,462.575 629.093,463.543C629.136,466.414 629.203,467.278 628.922,468.446C628.58,469.87 631.352,471.839 631.65,473.152C632.546,477.101 632.182,481.18 631.854,483.051C631.34,485.989 635.335,483.104 635.462,485.052C635.622,487.5 631.915,492.294 631.086,494.485C629.873,497.69 629.014,499.814 627.191,501.63C625.075,503.737 619.286,505.203 616.423,507.137C612.969,509.471 614.517,512.428 606.269,511.054C604.088,510.691 600.818,509.475 598.927,510.304C597.204,511.059 598.754,513.622 597.118,514.287C595.542,514.928 595.073,513.484 593.608,514.097C591.687,514.9 591.66,518.178 589.958,518.789C588.422,519.341 587.484,515.988 586.199,516.468C581.719,518.143 584.365,519.763 582.78,520.183C578.882,521.218 579.676,518.894 578.79,519.291C575.621,520.708 576.781,523.012 576.025,523.538C573.002,525.638 572.027,522.583 570.104,527.147C568.588,530.746 568.609,535.425 566.855,537.355C565.002,539.394 557.54,539.165 557.449,541.481C552.244,544.114 546.78,546.14 542.792,546.27C539.012,546.394 535.845,543.621 532.004,544.697C527.948,545.833 524.29,549.705 519.975,549.832C512.624,550.048 512.043,528.982 496.764,532.709C485.197,535.53 472.642,579.521 463.582,586.315C460.599,588.553 449.31,592.36 444.808,594.655C437.048,598.612 429.045,602.575 422.093,607.789C418.289,610.642 412.385,612.056 408.187,614.071C407.565,614.369 393.307,616.124 392.788,616.028C392.788,616.028 375.608,609.903 371.805,607.051C364.853,601.837 356.261,598.956 348.501,595C343.999,592.704 334.839,588.553 331.856,586.315C322.796,579.521 315.277,535.53 303.71,532.709C288.432,528.982 287.851,550.048 280.5,549.832C276.185,549.705 272.526,545.833 268.47,544.697C264.629,543.621 261.462,546.394 257.683,546.27C253.694,546.14 248.23,544.114 243.025,541.481C242.934,539.165 235.472,539.394 233.619,537.355C231.865,535.425 231.886,530.746 230.37,527.147C228.447,522.583 227.472,525.638 224.449,523.538C223.693,523.012 224.854,520.708 221.684,519.291C220.798,518.894 221.593,521.218 217.694,520.183C216.109,519.763 218.755,518.143 214.275,516.468C212.99,515.988 212.052,519.341 210.517,518.789C208.815,518.178 208.787,514.9 206.866,514.097C205.401,513.484 204.933,514.928 203.356,514.287C201.72,513.622 203.27,511.059 201.548,510.304C199.656,509.475 196.386,510.691 194.205,511.054C185.957,512.428 187.506,509.471 184.051,507.137C181.188,505.203 175.399,503.737 173.283,501.63C171.46,499.814 170.601,497.69 169.388,494.485C168.559,492.294 164.852,487.5 165.012,485.052C165.139,483.104 169.134,485.989 168.62,483.051C168.292,481.18 167.928,477.101 168.825,473.152C169.123,471.839 171.895,469.87 171.552,468.446C171.271,467.278 171.338,466.414 171.381,463.543C171.395,462.575 175.615,459.754 175.087,458.748C173.966,456.613 174.968,451.846 168.819,450.108C165.334,449.123 173.238,443.604 167.962,440.355C164.379,438.149 158.933,434.862 156.282,435.036C154.287,435.167 153.742,436.471 152.188,437.539C150.942,438.395 147.148,435.894 146.273,437.249C145.621,438.26 146.372,439.16 144.402,441.733C143.755,442.579 140.007,440.723 139.946,441.975C139.729,446.463 139.634,449.699 137.672,450.654C136.802,451.078 136.243,448.632 133.939,447.831C126.568,445.27 123.379,447.326 121.825,446.176C119.839,444.707 116.967,441.455 117.243,438.727C117.367,437.502 117.986,432.75 116.933,430.684C116.265,429.372 114.26,431.743 112.298,429.275C111.145,427.825 108.202,428.108 106.631,425.455C105.599,423.712 109.519,423.359 108.937,421.136C108.497,419.456 105.95,418.24 104.373,416.429C103.204,415.085 106.3,413.181 104.564,411.852C103.569,411.089 99.701,408.536 99.374,406.413C99.17,405.089 103.624,402.168 103.918,400.817C104.704,397.209 101.208,399.711 101.06,396.481C100.818,391.185 95.229,388.473 92.641,387.973C90.011,387.464 90.861,389.646 90.153,391.638C89.827,392.555 86.359,390.444 86.48,391.744C86.663,393.697 85.688,397.557 84.044,398.67C82.75,399.545 80.865,398.314 79.062,398.089C75.981,397.704 72.509,396.835 70.166,394.339C68.503,392.567 64.281,388.494 63.48,386.397C62.855,384.758 65.982,382.209 65.196,380.823C63.682,378.154 65.59,374.342 63.036,368.88C62.522,367.783 54.042,365.845 54.019,363.615C53.985,360.184 54.408,359.311 55.057,355.63C55.305,354.227 58.762,352.353 58.274,350.962C55.706,343.648 60.559,340.325 66.4,336.836C69.017,335.274 65.552,331.242 65.7,328.03C66.733,305.633 49.919,305.901 49.591,294.115C49.395,287.04 107.49,273.031 112.11,265.724Z" style="fill:none;stroke:black;stroke-width:2.1px;"/>
        </g>
    </g>
    <g transform="matrix(1,0,0,1,0,-0.0142307)">
        <g id="hairstyles-front">
            <g id="afro-hair-hat-front">
                <g transform="matrix(1,0,0,1,0,0.0142307)">
                    <path d="M239.135,323.475C242.813,328.017 248.351,316.31 251.723,316.604C262.612,317.552 260.152,314.457 264.268,313.114C267.671,312.003 268.208,311.662 270.711,310.428C274.079,308.767 273.241,307.852 276.738,305.974C278.691,304.925 280.593,301.795 282.511,301.212C286.646,299.953 291.167,302.358 295.91,299.986C300.246,297.819 300.296,293 303.169,290.538C308.273,286.163 319.152,283.073 325.557,280.845C329.518,279.467 334.08,283.599 338.573,281.687C341.827,280.302 343.096,276.396 343.29,273.111C343.322,272.559 342.627,271.633 343.152,271.458C346.643,270.294 349.959,272.691 353.396,269.788C356.369,267.278 355.16,264.332 356.352,261.948C358.005,258.642 365.619,252.761 367.255,247.308C368.572,242.919 360.038,237.496 368.45,235.042C371.326,234.204 377.722,237.279 380.578,237.891C387.773,239.433 396.139,239.799 403.594,239.254C411.043,238.709 418.282,236.73 425.599,235.364C427.085,235.087 432.318,233.42 433.73,234.675C434.841,235.662 433.781,240.066 434.006,241.566C434.286,243.432 436.716,245.112 436.716,246.681C436.716,248.884 434.622,250.993 435.828,253.204C438.106,257.38 443.951,258.687 446.211,262.561C447.488,264.75 444.732,267.89 447.803,269.543C450.92,271.222 456.597,268.64 459.059,270.723C461.433,272.732 459.06,278.307 463.193,281.136C464.49,282.023 473.066,279.435 471.907,277.889C470.827,276.45 471.188,280.528 471.861,281.335C473.53,283.338 476.84,284.009 479.288,284.352C483.628,284.958 497.13,282.692 497.419,282.82C498.403,283.258 495.672,290.672 499.379,292.896C505.817,296.759 513.392,297.466 520.174,299.849C522.313,300.6 523.468,305.829 526.039,307.306C529.843,309.492 534.742,309.409 538.765,311.073C540.613,311.838 544.397,315.095 546.712,316.418C549.229,324.798 557.158,321.012 562.595,319.483C577.603,315.262 560.39,298.428 557.584,288.998C549.001,260.163 547.736,228.147 524.161,206.436C507.015,190.646 483.475,183.354 461.835,176.032C387.406,150.849 289.061,159.278 243.009,231.985C233.851,246.444 228.518,262.847 224.701,279.425" style="fill:rgb(56,25,57);fill-opacity:0.5;"/>
                </g>
                <g transform="matrix(1,0,0,1,0,0.0142307)">
                    <path d="M37.541,312.19C40.585,311.678 44.195,311.221 44.642,308.538C45.296,304.612 34.217,298.048 34.217,292.479C34.217,291.584 44.216,289.001 46.091,287.061C48.359,284.715 45.6,283.032 49.714,278.269C51.394,276.324 56.089,275.611 58.055,273.999C60.119,272.307 55.327,270.921 57.604,270.326C61.164,269.394 65.9,264.689 67.849,262.741C71.401,259.188 64.552,251.203 67.103,249.775C70.714,247.753 78.996,253.701 83.561,252.608C96.308,249.556 107.616,236.551 121.605,238.55C123.575,238.831 125.285,240.914 127.222,241.755C128.365,242.251 129.444,240.793 130.557,241.124C131.927,241.532 132.226,244.062 133.239,245.097C133.404,245.266 134.98,243.38 135.867,244.387C137.007,245.68 137.51,249.905 137.707,249.872C138.447,249.749 141.825,242.65 143.892,241.599C149.834,238.58 153.613,242.337 158.935,240.918C162.736,239.905 165.257,235.941 169.738,235.122C176.298,233.923 195.983,243.243 196.36,241.386C198.009,233.28 205.617,228.832 205.678,229.726C205.877,232.658 204.844,244.271 211.583,250.608C213.637,252.539 214.282,253.525 214.24,253.874L214.098,254.02C214.179,254.006 214.23,253.959 214.24,253.874L218.736,249.245C238.554,232.73 257.807,211.847 277.921,194.814C290.869,183.849 318.264,171.09 335.773,166.675C348.897,163.366 380.356,153.276 399.949,157.114C419.542,153.276 452.979,161.169 466.103,164.478C483.612,168.893 502.545,179.74 520.072,192.929C541.132,208.776 560.134,232.73 579.952,249.245L584.447,253.874C584.457,253.959 584.508,254.006 584.589,254.02L584.447,253.874C584.405,253.525 585.051,252.539 587.104,250.608C593.843,244.271 592.811,232.658 593.01,229.726C593.07,228.832 600.678,233.28 602.327,241.386C602.442,241.95 605.325,239.821 608.325,239.459C611.233,239.109 614.206,240.552 617.7,239.448C620.188,238.661 622.855,237.843 624.602,236.075C626.205,234.453 626.934,231.827 628.196,232.057C630.204,232.424 629.665,234.781 631.345,236.542C633.413,238.71 638.979,236.86 640.98,237.7C646.762,240.128 648.853,238.58 654.795,241.599C656.863,242.65 660.241,249.749 660.981,249.872C661.331,249.93 663.998,245.176 664.376,244.79C666.498,242.62 669.069,240.58 672.259,240.838C674.948,241.056 674.108,236.713 676.865,236.282C678.884,235.965 679.249,240.192 681.173,240.455C686.117,241.131 688.105,239.015 693.073,241.151C699.538,243.93 708.961,251.132 715.126,252.608C719.692,253.701 727.974,247.753 731.585,249.775C734.136,251.203 727.286,259.188 730.839,262.741C736.475,268.377 743.712,272.177 748.974,278.269C753.087,283.032 750.328,284.715 752.596,287.061C754.471,289.001 764.47,291.584 764.47,292.479C764.47,298.048 753.391,304.612 754.045,308.538C754.58,311.748 759.642,311.772 762.847,312.516C759.376,316.591 755.516,320.004 750.216,321.55C746.907,322.515 741.004,320.933 738.191,322.808C736.928,323.65 735.119,333.945 732.749,336.413C731.394,337.825 729.37,342.215 728.498,340.463L623.802,339.959C616.617,335.087 610.509,328.995 607.656,328.747C598.567,327.958 601.786,333.326 594.99,331.415C592.694,330.769 588.363,330.117 586.307,329.372C581.462,327.617 576.111,320.162 575.039,320.162C571.49,320.162 569.152,328.261 566.709,327.489C564.516,326.797 560.649,328.924 559.196,325.41C558.066,322.676 559.605,317.868 558.647,315.997C557.1,312.976 555.368,315.307 554.311,312.818C552.903,309.502 551.254,309.472 550.825,307.826C550.356,306.025 554.748,303.305 553.825,301.804C553.253,300.874 552.573,300.018 551.757,299.255C551.236,298.77 546.351,302.576 544.655,305.439C543.457,307.462 545.615,308.416 544.262,309.688C542.908,310.96 540.982,308.659 540.479,308.404C538.634,307.468 538.748,299.158 536.776,298.454C534.741,297.727 533.572,303.752 532.005,301.677C529.77,298.716 525.472,298.703 525.603,298.059C527.235,290.002 520.782,296.41 519.794,294.084C518.887,291.95 520.766,289.029 519.72,287.82C517.791,285.591 515.8,288.167 515.128,286.264C513.77,282.422 517.592,281.292 516.584,277.685C514.726,271.04 513.596,267.59 510.473,266.896C505.18,265.719 499.21,281.373 492.812,279.496C489.914,278.646 488.845,276.638 487.697,276.035C486.149,275.22 480.465,275.32 481.336,271.109C481.986,267.968 482.494,263.593 480.342,265.971C478.235,268.3 472.677,279.291 462.797,279.031C461.049,278.985 469.19,269.965 466.084,266.859C463.272,264.047 452.092,268.968 449.826,267.011C447.56,265.055 453.523,255.859 452.488,255.12C450.871,253.965 446.692,256.238 443.966,255.226C441.534,254.322 435.811,254.645 435.443,252.076C435.17,250.17 439.47,248.974 439.081,247.099C438.909,246.271 434.45,246.246 434.474,245.471C434.554,242.781 436.46,240.624 438.101,238.913C440.244,236.68 441.938,234.553 441.969,234.063C442.089,232.139 437.142,232.879 436.185,230.539C435.508,228.886 438.761,226.54 439.199,224.691C439.934,221.587 444.158,219.834 444.158,219.834C444.158,219.834 449.944,227.687 456.651,221.919C457.818,220.915 462.46,216.017 461.57,214.608C459.526,211.373 449.672,209.937 446.2,209.842C436.778,209.583 438.395,214.431 427.322,215.875C425.42,216.123 427.406,211.762 422.577,212.661C418.223,213.472 409.597,220.757 405.792,220.928C402.918,221.058 401.918,219.604 400.622,219.979C400.511,220.011 400.415,219.99 400.331,219.923C400.248,219.99 400.152,220.011 400.041,219.979C398.745,219.604 397.745,221.058 394.871,220.928C391.066,220.757 382.44,213.472 378.086,212.661C373.256,211.762 375.242,216.123 373.341,215.875C362.268,214.431 363.884,209.583 354.463,209.842C350.991,209.937 341.137,211.373 339.093,214.608C338.203,216.017 342.845,220.915 344.012,221.919C350.719,227.687 356.505,219.834 356.505,219.834C356.505,219.834 360.729,221.587 361.464,224.691C361.902,226.54 365.155,228.886 364.478,230.539C363.52,232.879 358.574,232.139 358.694,234.063C358.724,234.553 360.419,236.68 362.562,238.913C364.203,240.624 366.109,242.781 366.189,245.471C366.212,246.246 361.754,246.271 361.582,247.099C361.193,248.974 365.493,250.17 365.22,252.076C364.852,254.645 359.129,254.322 356.697,255.226C353.971,256.238 349.792,253.965 348.175,255.12C347.14,255.859 353.103,265.055 350.837,267.011C348.571,268.968 337.39,264.047 334.579,266.859C331.473,269.965 339.614,278.985 337.866,279.031C327.986,279.291 322.428,268.3 320.321,265.971C318.169,263.593 318.677,267.968 319.327,271.109C320.198,275.32 314.514,275.22 312.965,276.035C311.818,276.638 310.749,278.646 307.851,279.496C301.453,281.373 295.483,265.719 290.19,266.896C287.067,267.59 285.937,271.04 284.079,277.685C283.071,281.292 286.893,282.422 285.535,286.264C284.863,288.167 282.872,285.591 280.943,287.82C279.897,289.029 281.776,291.95 280.869,294.084C279.881,296.41 273.428,290.002 275.06,298.059C275.191,298.703 270.893,298.716 268.658,301.677C267.091,303.752 265.922,297.727 263.887,298.454C261.915,299.158 262.029,307.468 260.184,308.404C259.681,308.659 257.755,310.96 256.401,309.688C255.047,308.416 257.206,307.462 256.008,305.439C254.312,302.576 249.427,298.77 248.906,299.255C248.089,300.018 247.41,300.874 246.838,301.804C245.915,303.305 250.307,306.025 249.838,307.826C249.409,309.472 247.76,309.502 246.352,312.818C245.295,315.307 243.562,312.976 242.016,315.997C241.058,317.868 242.597,322.676 241.467,325.41C240.014,328.924 236.147,326.797 233.954,327.489C231.511,328.261 229.173,320.162 225.624,320.162C224.552,320.162 219.201,327.617 214.356,329.372C212.3,330.117 207.969,330.769 205.673,331.415C198.877,333.326 202.096,327.958 193.007,328.747C190.408,328.973 185.053,335.416 179.039,340.457L72.165,340.463C71.293,342.215 69.269,337.825 67.914,336.413C65.544,333.945 63.735,323.65 62.472,322.808C59.659,320.933 53.756,322.515 50.447,321.55C45.007,319.964 41.084,316.41 37.541,312.19Z" style="fill: rgb(var(--color_hairs_r, 183), var(--color_hairs_g, 55), var(--color_hairs_b, 88))"/>
                    <clipPath id="_clip2_hair_8_hat">
                        <path d="M37.541,312.19C40.585,311.678 44.195,311.221 44.642,308.538C45.296,304.612 34.217,298.048 34.217,292.479C34.217,291.584 44.216,289.001 46.091,287.061C48.359,284.715 45.6,283.032 49.714,278.269C51.394,276.324 56.089,275.611 58.055,273.999C60.119,272.307 55.327,270.921 57.604,270.326C61.164,269.394 65.9,264.689 67.849,262.741C71.401,259.188 64.552,251.203 67.103,249.775C70.714,247.753 78.996,253.701 83.561,252.608C96.308,249.556 107.616,236.551 121.605,238.55C123.575,238.831 125.285,240.914 127.222,241.755C128.365,242.251 129.444,240.793 130.557,241.124C131.927,241.532 132.226,244.062 133.239,245.097C133.404,245.266 134.98,243.38 135.867,244.387C137.007,245.68 137.51,249.905 137.707,249.872C138.447,249.749 141.825,242.65 143.892,241.599C149.834,238.58 153.613,242.337 158.935,240.918C162.736,239.905 165.257,235.941 169.738,235.122C176.298,233.923 195.983,243.243 196.36,241.386C198.009,233.28 205.617,228.832 205.678,229.726C205.877,232.658 204.844,244.271 211.583,250.608C213.637,252.539 214.282,253.525 214.24,253.874L214.098,254.02C214.179,254.006 214.23,253.959 214.24,253.874L218.736,249.245C238.554,232.73 257.807,211.847 277.921,194.814C290.869,183.849 318.264,171.09 335.773,166.675C348.897,163.366 380.356,153.276 399.949,157.114C419.542,153.276 452.979,161.169 466.103,164.478C483.612,168.893 502.545,179.74 520.072,192.929C541.132,208.776 560.134,232.73 579.952,249.245L584.447,253.874C584.457,253.959 584.508,254.006 584.589,254.02L584.447,253.874C584.405,253.525 585.051,252.539 587.104,250.608C593.843,244.271 592.811,232.658 593.01,229.726C593.07,228.832 600.678,233.28 602.327,241.386C602.442,241.95 605.325,239.821 608.325,239.459C611.233,239.109 614.206,240.552 617.7,239.448C620.188,238.661 622.855,237.843 624.602,236.075C626.205,234.453 626.934,231.827 628.196,232.057C630.204,232.424 629.665,234.781 631.345,236.542C633.413,238.71 638.979,236.86 640.98,237.7C646.762,240.128 648.853,238.58 654.795,241.599C656.863,242.65 660.241,249.749 660.981,249.872C661.331,249.93 663.998,245.176 664.376,244.79C666.498,242.62 669.069,240.58 672.259,240.838C674.948,241.056 674.108,236.713 676.865,236.282C678.884,235.965 679.249,240.192 681.173,240.455C686.117,241.131 688.105,239.015 693.073,241.151C699.538,243.93 708.961,251.132 715.126,252.608C719.692,253.701 727.974,247.753 731.585,249.775C734.136,251.203 727.286,259.188 730.839,262.741C736.475,268.377 743.712,272.177 748.974,278.269C753.087,283.032 750.328,284.715 752.596,287.061C754.471,289.001 764.47,291.584 764.47,292.479C764.47,298.048 753.391,304.612 754.045,308.538C754.58,311.748 759.642,311.772 762.847,312.516C759.376,316.591 755.516,320.004 750.216,321.55C746.907,322.515 741.004,320.933 738.191,322.808C736.928,323.65 735.119,333.945 732.749,336.413C731.394,337.825 729.37,342.215 728.498,340.463L623.802,339.959C616.617,335.087 610.509,328.995 607.656,328.747C598.567,327.958 601.786,333.326 594.99,331.415C592.694,330.769 588.363,330.117 586.307,329.372C581.462,327.617 576.111,320.162 575.039,320.162C571.49,320.162 569.152,328.261 566.709,327.489C564.516,326.797 560.649,328.924 559.196,325.41C558.066,322.676 559.605,317.868 558.647,315.997C557.1,312.976 555.368,315.307 554.311,312.818C552.903,309.502 551.254,309.472 550.825,307.826C550.356,306.025 554.748,303.305 553.825,301.804C553.253,300.874 552.573,300.018 551.757,299.255C551.236,298.77 546.351,302.576 544.655,305.439C543.457,307.462 545.615,308.416 544.262,309.688C542.908,310.96 540.982,308.659 540.479,308.404C538.634,307.468 538.748,299.158 536.776,298.454C534.741,297.727 533.572,303.752 532.005,301.677C529.77,298.716 525.472,298.703 525.603,298.059C527.235,290.002 520.782,296.41 519.794,294.084C518.887,291.95 520.766,289.029 519.72,287.82C517.791,285.591 515.8,288.167 515.128,286.264C513.77,282.422 517.592,281.292 516.584,277.685C514.726,271.04 513.596,267.59 510.473,266.896C505.18,265.719 499.21,281.373 492.812,279.496C489.914,278.646 488.845,276.638 487.697,276.035C486.149,275.22 480.465,275.32 481.336,271.109C481.986,267.968 482.494,263.593 480.342,265.971C478.235,268.3 472.677,279.291 462.797,279.031C461.049,278.985 469.19,269.965 466.084,266.859C463.272,264.047 452.092,268.968 449.826,267.011C447.56,265.055 453.523,255.859 452.488,255.12C450.871,253.965 446.692,256.238 443.966,255.226C441.534,254.322 435.811,254.645 435.443,252.076C435.17,250.17 439.47,248.974 439.081,247.099C438.909,246.271 434.45,246.246 434.474,245.471C434.554,242.781 436.46,240.624 438.101,238.913C440.244,236.68 441.938,234.553 441.969,234.063C442.089,232.139 437.142,232.879 436.185,230.539C435.508,228.886 438.761,226.54 439.199,224.691C439.934,221.587 444.158,219.834 444.158,219.834C444.158,219.834 449.944,227.687 456.651,221.919C457.818,220.915 462.46,216.017 461.57,214.608C459.526,211.373 449.672,209.937 446.2,209.842C436.778,209.583 438.395,214.431 427.322,215.875C425.42,216.123 427.406,211.762 422.577,212.661C418.223,213.472 409.597,220.757 405.792,220.928C402.918,221.058 401.918,219.604 400.622,219.979C400.511,220.011 400.415,219.99 400.331,219.923C400.248,219.99 400.152,220.011 400.041,219.979C398.745,219.604 397.745,221.058 394.871,220.928C391.066,220.757 382.44,213.472 378.086,212.661C373.256,211.762 375.242,216.123 373.341,215.875C362.268,214.431 363.884,209.583 354.463,209.842C350.991,209.937 341.137,211.373 339.093,214.608C338.203,216.017 342.845,220.915 344.012,221.919C350.719,227.687 356.505,219.834 356.505,219.834C356.505,219.834 360.729,221.587 361.464,224.691C361.902,226.54 365.155,228.886 364.478,230.539C363.52,232.879 358.574,232.139 358.694,234.063C358.724,234.553 360.419,236.68 362.562,238.913C364.203,240.624 366.109,242.781 366.189,245.471C366.212,246.246 361.754,246.271 361.582,247.099C361.193,248.974 365.493,250.17 365.22,252.076C364.852,254.645 359.129,254.322 356.697,255.226C353.971,256.238 349.792,253.965 348.175,255.12C347.14,255.859 353.103,265.055 350.837,267.011C348.571,268.968 337.39,264.047 334.579,266.859C331.473,269.965 339.614,278.985 337.866,279.031C327.986,279.291 322.428,268.3 320.321,265.971C318.169,263.593 318.677,267.968 319.327,271.109C320.198,275.32 314.514,275.22 312.965,276.035C311.818,276.638 310.749,278.646 307.851,279.496C301.453,281.373 295.483,265.719 290.19,266.896C287.067,267.59 285.937,271.04 284.079,277.685C283.071,281.292 286.893,282.422 285.535,286.264C284.863,288.167 282.872,285.591 280.943,287.82C279.897,289.029 281.776,291.95 280.869,294.084C279.881,296.41 273.428,290.002 275.06,298.059C275.191,298.703 270.893,298.716 268.658,301.677C267.091,303.752 265.922,297.727 263.887,298.454C261.915,299.158 262.029,307.468 260.184,308.404C259.681,308.659 257.755,310.96 256.401,309.688C255.047,308.416 257.206,307.462 256.008,305.439C254.312,302.576 249.427,298.77 248.906,299.255C248.089,300.018 247.41,300.874 246.838,301.804C245.915,303.305 250.307,306.025 249.838,307.826C249.409,309.472 247.76,309.502 246.352,312.818C245.295,315.307 243.562,312.976 242.016,315.997C241.058,317.868 242.597,322.676 241.467,325.41C240.014,328.924 236.147,326.797 233.954,327.489C231.511,328.261 229.173,320.162 225.624,320.162C224.552,320.162 219.201,327.617 214.356,329.372C212.3,330.117 207.969,330.769 205.673,331.415C198.877,333.326 202.096,327.958 193.007,328.747C190.408,328.973 185.053,335.416 179.039,340.457L72.165,340.463C71.293,342.215 69.269,337.825 67.914,336.413C65.544,333.945 63.735,323.65 62.472,322.808C59.659,320.933 53.756,322.515 50.447,321.55C45.007,319.964 41.084,316.41 37.541,312.19Z"/>
                    </clipPath>
                    <g clip-path="url(#_clip2_hair_8_hat)">
                        <g transform="matrix(1,0,0,1,0,-0.0142307)">
                            <path d="M553.13,318.534C559.505,323.165 559.636,316.85 565.082,315.98C567.287,315.628 566.225,322.575 569.957,319.666C571.659,318.34 573.701,316.807 574.176,314.573C574.264,314.16 574.133,310.481 574.3,310.447C579.962,309.309 585.859,317.093 591.847,317.072C595.208,317.06 598.66,316.065 601.153,313.738C602.642,312.348 604.037,309.213 606.207,308.776C609.782,308.058 613.862,312.481 617.248,313.251C619.356,313.731 619.737,311.428 621.587,311.459C622.81,311.48 624.203,312.943 625.399,312.278C626.997,311.387 626.248,306.853 626.248,306.853C626.248,306.853 630.146,308.239 632.017,307.711C634.481,307.015 632.38,304.442 633.899,303.508C635.63,302.444 639.274,303.564 640.495,301.418C641.78,299.159 633.42,293.711 640.021,292.668C642.228,292.319 645.435,294.194 647.429,294.836C652.735,296.544 660.842,299.624 666.574,298.657C670.895,297.928 670.27,294.383 668.396,291.785C668.095,291.368 666.501,289.024 667.429,288.521C668.701,287.831 673.457,289.316 674.929,289.385C679.062,289.578 683.35,290.196 687.478,289.833C689.462,289.658 691.84,288.279 693.787,288.52C696.208,288.82 689.064,295.726 690.833,297.094C691.765,297.815 694.583,297.546 695.763,297.744C697.888,298.099 699.92,299.56 702.009,299.702C704.357,299.862 706.717,298.487 709.121,298.361C711.081,298.258 713.981,298.95 715.735,297.851C718.656,296.022 714.329,285.507 712.882,283.273C712.384,282.505 710.431,277.858 711.832,277.111C712.439,276.788 714.371,278.062 714.902,278.268C717.838,279.408 720.832,280.007 723.952,280.394C725.448,280.579 727.506,281.061 728.89,280.199C729.853,279.599 730.17,277.368 731.598,277.682C735.754,278.594 739.993,282.129 743.862,283.884C748.16,285.834 753.432,286.292 758.118,286.704C760.397,286.904 762.864,286.284 764.848,285.173C767.855,283.49 765.389,280.755 767.521,279.338C769.219,278.209 771.471,278 773.401,277.491C774.328,277.246 776.618,275.665 776.087,276.463C774.299,279.151 775.525,282.77 773.396,285.406C772.097,287.014 770.269,288.194 768.58,289.344C767.413,290.139 766.214,290.925 765.054,291.76C767.26,292.625 759.082,298.347 758.334,299.064C754.732,302.52 757.808,306.905 755.783,310.704C754.065,313.925 748.066,315.762 745.443,318.559C741.263,323.018 732.143,328.213 728.439,330.309C724.325,332.636 724.197,335.334 723.825,338.052C723.168,342.855 732.507,343.073 728.312,344.544C723.664,346.174 721.045,348.049 716.456,349.934C712.723,351.467 709.473,354.612 705.452,355.277C699.726,356.224 693.94,354.19 688.229,355.055C684.299,355.651 681.449,357.889 677.938,359.455C675.691,360.458 673.054,360.603 670.891,361.756C668.529,363.016 667.278,365.072 664.306,365.443C656.769,366.385 648.538,362.026 641.192,360.841C632.987,359.518 624.672,360.594 616.479,359.33C610.075,358.342 604.252,355.549 597.966,354.237C582.205,350.948 562.202,361.516 550.726,345.246C548.826,342.552 547.65,339.628 546.615,336.523L553.13,318.534ZM247.243,318.534C240.869,323.165 240.738,316.85 235.292,315.98C233.086,315.628 234.149,322.575 230.416,319.666C228.715,318.34 226.673,316.807 226.198,314.573C226.11,314.16 226.241,310.481 226.074,310.447C220.412,309.309 214.515,317.093 208.526,317.072C205.166,317.06 201.713,316.065 199.221,313.738C197.732,312.348 196.336,309.213 194.167,308.776C190.591,308.058 186.511,312.481 183.126,313.251C181.018,313.731 180.637,311.428 178.786,311.459C177.564,311.48 176.17,312.943 174.975,312.278C173.376,311.387 174.126,306.853 174.126,306.853C174.126,306.853 170.228,308.239 168.356,307.711C165.893,307.015 167.993,304.442 166.475,303.508C164.744,302.444 161.1,303.564 159.879,301.418C158.594,299.159 166.954,293.711 160.352,292.668C158.146,292.319 154.939,294.194 152.945,294.836C147.638,296.544 139.532,299.624 133.799,298.657C129.479,297.928 130.104,294.383 131.978,291.785C132.278,291.368 133.873,289.024 132.944,288.521C131.672,287.831 126.917,289.316 125.444,289.385C121.311,289.578 117.023,290.196 112.896,289.833C110.912,289.658 108.534,288.279 106.587,288.52C104.165,288.82 111.31,295.726 109.541,297.094C108.608,297.815 105.791,297.546 104.611,297.744C102.486,298.099 100.454,299.56 98.365,299.702C96.017,299.862 93.657,298.487 91.253,298.361C89.292,298.258 86.392,298.95 84.638,297.851C81.718,296.022 86.045,285.507 87.492,283.273C87.99,282.505 89.943,277.858 88.542,277.111C87.935,276.788 86.002,278.062 85.472,278.268C82.535,279.408 79.542,280.007 76.421,280.394C74.926,280.579 72.868,281.061 71.484,280.199C70.521,279.599 70.204,277.368 68.776,277.682C64.62,278.594 60.381,282.129 56.512,283.884C52.214,285.834 46.942,286.292 42.256,286.704C39.977,286.904 37.509,286.284 35.526,285.173C32.519,283.49 34.985,280.755 32.853,279.338C31.155,278.209 28.903,278 26.973,277.491C26.046,277.246 23.756,275.665 24.287,276.463C26.075,279.151 24.849,282.77 26.978,285.406C28.277,287.014 30.105,288.194 31.794,289.344C32.961,290.139 34.16,290.925 35.32,291.76C33.113,292.625 41.292,298.347 42.04,299.064C45.642,302.52 41.135,308.137 44.591,310.704C53.198,317.094 62.789,318.124 65.857,320.424C69.345,323.038 68.11,324.615 71.881,331.921C74.05,336.122 76.177,335.334 76.549,338.052C77.206,342.855 67.867,343.073 72.062,344.544C76.71,346.174 80.241,347.189 84.829,349.074C88.563,350.607 90.901,354.612 94.921,355.277C100.648,356.224 106.433,354.19 112.144,355.055C116.075,355.651 118.925,357.889 122.436,359.455C124.683,360.458 127.32,360.603 129.483,361.756C131.845,363.016 133.096,365.072 136.068,365.443C143.605,366.385 151.835,362.026 159.182,360.841C167.387,359.518 175.702,360.594 183.895,359.33C190.299,358.342 196.122,355.549 202.408,354.237C218.169,350.948 238.171,361.516 249.648,345.246C251.548,342.552 252.724,339.628 253.759,336.523L247.243,318.534ZM237.227,265.986C238.872,269.854 236.23,273.872 236.041,277.733C235.959,279.411 237.208,280.805 237.003,282.467C236.738,284.618 235.237,286.411 236.355,288.631C237.323,290.553 239.382,291.248 240.727,292.811C243.784,296.361 247.102,300.817 249.728,304.703C251.499,307.324 253.022,311.704 255.791,313.412C259.528,315.717 263.417,312.283 264.576,308.772L265.227,306.152C264.31,306.388 264.257,304.507 263.602,303.824C262.065,302.223 260.354,300.738 258.552,299.444C256.824,298.202 255.112,296.959 254.259,294.936C253.728,293.677 253.803,291.61 252.94,290.559C251.992,289.404 249.542,290.442 248.697,289.288C247.806,288.07 249.173,285.974 248.126,284.732C245.917,282.112 243.204,283.158 242,279.053C241.01,275.675 240.584,272.353 238.994,269.149C238.457,268.066 237.85,267.023 237.227,265.986C237.025,265.51 236.758,265.037 236.414,264.566C236.097,264.133 236.937,265.502 237.213,265.962L237.227,265.986ZM563.146,265.986C561.502,269.854 564.144,273.872 564.333,277.733C564.415,279.411 563.166,280.805 563.37,282.467C563.635,284.618 565.136,286.411 564.019,288.631C563.051,290.553 560.992,291.248 559.646,292.811C556.589,296.361 553.272,300.817 550.646,304.703C548.874,307.324 547.352,311.704 544.583,313.412C540.846,315.717 536.957,312.283 535.798,308.772L535.147,306.152C536.064,306.388 536.116,304.507 536.772,303.824C538.309,302.223 540.019,300.738 541.821,299.444C543.55,298.202 545.262,296.959 546.115,294.936C546.646,293.677 546.571,291.61 547.434,290.559C548.381,289.404 550.832,290.442 551.677,289.288C552.568,288.07 551.2,285.974 552.248,284.732C554.457,282.112 557.17,283.158 558.374,279.053C559.364,275.675 559.789,272.353 561.379,269.149C561.917,268.066 562.524,267.023 563.146,265.986C563.349,265.51 563.616,265.037 563.96,264.566C564.277,264.133 563.437,265.502 563.161,265.962L563.146,265.986ZM276.435,299.046C276.429,299.341 275.273,297.935 275.223,297.861C274.577,296.912 273.945,295.945 273.347,294.965C271.64,292.166 270.042,288.754 270.174,285.387C270.204,284.603 270.241,282.538 271.186,282.164C272.459,281.661 273.372,285.62 273.685,286.199C275.531,289.614 278.151,292.326 280.384,295.447C281.442,296.926 282.123,298.532 280.044,299.299L276.435,299.046ZM523.939,299.046C523.945,299.341 525.101,297.935 525.151,297.861C525.797,296.912 526.429,295.945 527.027,294.965C528.734,292.166 530.332,288.754 530.2,285.387C530.169,284.603 530.133,282.538 529.188,282.164C527.915,281.661 527.002,285.62 526.689,286.199C524.843,289.614 522.223,292.326 519.99,295.447C518.932,296.926 518.251,298.532 520.33,299.299L523.939,299.046ZM319.651,273.176C319.437,273.463 318.548,270.81 318.394,270.44C317.543,268.39 316.715,266.052 315.188,264.394C313.898,262.994 311.827,262.195 311.047,260.352C310.185,258.314 311.151,255.742 309.932,253.82C308.539,251.623 305.777,251.09 305.08,248.295C304.658,246.605 304.472,244.89 303.978,243.21C303.936,243.066 303.378,241.71 303.611,241.628C304.041,241.477 305.254,242.643 305.576,242.858C307.798,244.337 309.077,246.705 311.272,248.162C314.734,250.462 319.474,252.058 321.942,255.551C323.558,257.837 323.517,260.53 324.214,263.144C324.987,266.042 326.577,268.927 328.087,271.501C329.409,273.755 330.994,275.801 332.551,277.894C332.901,278.364 334.137,279.684 333.778,280.365C333.376,281.131 331.258,280.096 330.789,279.909C328.06,278.822 325.514,277.269 323.268,275.38L319.651,273.176ZM480.723,273.176C480.937,273.463 481.826,270.81 481.98,270.44C482.831,268.39 483.659,266.052 485.186,264.394C486.476,262.994 488.547,262.195 489.327,260.352C490.189,258.314 489.223,255.742 490.442,253.82C491.835,251.623 494.596,251.09 495.294,248.295C495.715,246.605 495.902,244.89 496.395,243.21C496.438,243.066 496.996,241.71 496.763,241.628C496.333,241.477 495.12,242.643 494.797,242.858C492.575,244.337 491.296,246.705 489.102,248.162C485.64,250.462 480.9,252.058 478.432,255.551C476.816,257.837 476.857,260.53 476.16,263.144C475.387,266.042 473.797,268.927 472.287,271.501C470.964,273.755 469.38,275.801 467.823,277.894C467.473,278.364 466.237,279.684 466.595,280.365C466.998,281.131 469.116,280.096 469.585,279.909C472.314,278.822 474.86,277.269 477.106,275.38L480.723,273.176ZM514.501,273.011C516.058,272.273 517.94,264.448 518.761,262.567C518.974,262.077 520.797,256.351 520.613,256.418C519.088,256.976 517.397,261.169 515.87,262.307C511.843,265.309 507.307,265.693 504.318,270.188C503.982,270.693 501.8,273.616 502.445,274.265C503.185,275.009 508.074,273.998 509.165,273.966L514.501,273.011ZM285.873,273.011C284.316,272.273 282.433,264.448 281.613,262.567C281.4,262.077 279.577,256.351 279.76,256.418C281.285,256.976 282.977,261.169 284.504,262.307C288.53,265.309 293.067,265.693 296.056,270.188C296.392,270.693 298.574,273.616 297.928,274.265C297.189,275.009 292.3,273.998 291.209,273.966L285.873,273.011ZM465.099,266.69C465.547,267.221 466.592,265.28 466.738,264.942C467.497,263.186 467.379,261.597 467.57,259.762C467.615,259.33 467.924,258.394 467.693,257.98C467.535,257.696 466.702,258.265 466.56,258.347C465.411,259.01 464.294,259.633 463.022,260.03C458.724,261.374 455.114,262.732 451.175,265.036C450.404,265.487 447.802,266.673 447.649,267.709C447.546,268.405 449.945,268.345 450.31,268.375C453.437,268.633 456.494,268.637 459.621,268.373L465.099,266.69ZM335.274,266.69C334.827,267.221 333.781,265.28 333.635,264.942C332.877,263.186 332.995,261.597 332.804,259.762C332.758,259.33 332.45,258.394 332.68,257.98C332.838,257.696 333.672,258.265 333.814,258.347C334.963,259.01 336.08,259.633 337.352,260.03C341.65,261.374 345.26,262.732 349.198,265.036C349.97,265.487 352.571,266.673 352.725,267.709C352.827,268.405 350.429,268.345 350.063,268.375C346.937,268.633 343.88,268.637 340.752,268.373L335.274,266.69ZM348.494,256.71C348.006,256.75 346.877,255.462 346.55,255.171C344.678,253.506 342.802,251.681 341.669,249.411C341.567,249.206 340.548,246.306 341.391,246.272C341.706,246.259 342.82,247.159 343.21,247.285C345.653,248.081 347.996,249.446 350.425,250.123C354.657,251.303 361.73,247.921 365.286,251.202C366.551,252.37 364.392,254.02 363.522,254.508C360.579,256.158 356.747,256.649 353.434,256.393L348.494,256.71ZM451.88,256.71C452.368,256.75 453.497,255.462 453.824,255.171C455.695,253.506 457.571,251.681 458.704,249.411C458.807,249.206 459.826,246.306 458.983,246.272C458.667,246.259 457.553,247.159 457.164,247.285C454.72,248.081 452.378,249.446 449.948,250.123C445.717,251.303 438.644,247.921 435.088,251.202C433.823,252.37 435.982,254.02 436.852,254.508C439.795,256.158 443.627,256.649 446.94,256.393L451.88,256.71ZM359.574,235.713C359.578,235.986 359.056,235.537 358.79,235.474C358.222,235.34 357.657,235.315 357.076,235.365C354.455,235.59 351.929,235.288 349.907,233.422C349.654,233.189 348.169,231.778 348.437,231.339C348.458,231.305 349.324,231.473 349.396,231.478C350.475,231.553 351.553,231.556 352.626,231.408C355.659,230.989 358.502,229.525 361.64,229.364C365.751,229.153 363.79,231.706 361.489,233.199L359.574,235.713ZM440.8,235.713C440.795,235.986 441.318,235.537 441.584,235.474C442.152,235.34 442.717,235.315 443.298,235.365C445.918,235.59 448.444,235.288 450.467,233.422C450.719,233.189 452.204,231.778 451.937,231.339C451.916,231.305 451.05,231.473 450.978,231.478C449.899,231.553 448.821,231.556 447.748,231.408C444.715,230.989 441.872,229.525 438.734,229.364C434.623,229.153 436.584,231.706 438.885,233.199L440.8,235.713ZM339.121,214.631C339.898,213.916 337.884,212.913 337.371,211.99C336.302,210.064 335.283,207.949 334.519,205.881C332.48,200.362 333.164,194.701 335.753,189.415C341.026,178.649 356.056,171.099 368.079,176.185C377.2,180.044 387.245,191.041 391.251,199.994C393.723,205.521 395.456,211.317 397.734,216.916C398.197,218.053 398.959,222.074 400.151,222.671C401.032,223.111 402.37,219.59 402.478,219.181C403.675,214.631 404.339,209.912 405.927,205.466C409.25,196.16 417.987,187.779 425.589,181.849C433.191,175.92 448.768,170.5 457.803,176.954C461.442,179.553 462.722,182.831 464.974,186.532C466.901,189.697 468.522,192.495 468.848,196.302C469.315,201.748 468.127,213.987 461.667,216.086C455.377,218.13 447.903,215.556 441.216,217.401C429.188,220.719 418.297,227.343 405.471,227.343C387.529,227.343 370.795,217.285 352.755,216.501L339.121,214.631ZM396.831,121.378C395.793,123.432 394.242,125.974 393.984,126.805C392.794,130.647 391.245,133.786 389.972,137.447C389.784,137.988 389.285,141.406 388.733,141.535C388.026,141.701 385.062,138.824 384.129,138.5C378.607,136.583 374.748,134.264 368.752,134.067L368.182,135.079C368.162,135.068 369.448,136.186 369.735,136.419C370.88,137.348 372.038,138.258 373.167,139.206C376.454,141.961 379.93,144.623 382.93,147.697C388.214,153.111 392.997,159.162 397.08,165.54C398.395,167.594 399.278,170.198 400.019,172.515C400.26,173.27 399.784,174.755 400.574,174.828C400.636,174.834 401.423,172.445 401.478,172.304C402.476,169.736 403.591,167.182 404.949,164.783C408.461,158.577 413.459,152.054 418.625,147.134C421.964,143.954 425.725,140.754 429.615,138.264C430.988,137.385 432.427,136.637 433.852,135.85C434.23,135.642 435.086,135.312 435.636,135.112C435.76,135.084 435.881,135.048 435.997,135.003C436.311,134.88 436.067,134.957 435.636,135.112C433.648,135.565 430.722,133.926 428.844,133.701C426.592,133.43 423.755,135.027 421.765,135.898C419.286,136.984 416.969,138.28 414.438,139.268C413.318,139.705 411.851,142.021 411.26,140.975C410.577,139.764 415.966,134.206 416.935,133.342C417.14,133.16 419.508,131.263 419.425,131.209C417.564,129.994 410.583,135.215 409.205,136.348C408.802,136.68 407.206,138.554 406.587,138.347C405.635,138.028 404.465,135.273 403.738,134.497C400.878,131.442 397.798,132.055 396.955,126.601C396.688,124.872 396.572,123.114 396.831,121.378C397.461,120.131 397.901,119.065 397.747,118.67C397.427,117.849 397.009,120.295 396.864,121.165C396.852,121.236 396.841,121.307 396.831,121.378Z" style="fill:rgb(90,41,73);"/>
                        </g>
                        <path d="M209.278,224.445C209.278,224.445 202.106,233.077 201.593,234.643C200.056,239.338 200.019,244.817 198.024,245.555C194.297,246.936 180.753,243.233 176.721,242.657C170.119,241.714 166.851,245.403 160.691,246.219C154.718,247.011 149.334,243.939 143.434,243.585C142.158,243.508 138.4,249.923 136.738,250.728C135.212,251.466 135.536,247.126 134.248,247.922C133.34,248.483 133.338,249.281 132.594,249.294C131.361,249.316 131.176,245.876 130.133,245.769C117.119,244.424 117.724,244.032 102.127,250.879C100.012,251.808 87.47,254.336 86.679,256.155C85.993,257.733 102.177,259.454 102.012,259.839C99.375,265.994 79.415,259.71 75.978,261.519C74.387,262.356 75.116,268.134 73.635,269.808C68.621,275.476 59.033,274.059 55.674,282.853C54.76,285.245 55.528,287.688 57.028,289.639C57.215,289.882 59.78,292.496 59.663,292.599C56.923,294.996 43.735,289.092 41.735,294.59C40.029,299.283 59.319,307.578 62.737,308.284C63.566,308.455 69.239,308.147 69.618,308.602C69.703,308.704 66.337,309.961 66.11,310.038C64.625,310.545 55.997,312.277 56.222,314.169C56.618,317.497 65.568,319.107 67.742,321.443C68.332,322.076 68.88,346.078 67.526,347.328C66.316,348.445 57.006,343.132 55.863,342.615C42.337,336.496 30.793,326.745 24.336,313.14C16.318,296.244 17.591,277.749 24.106,260.598C41.676,214.343 88.681,192.794 134.826,184.839C156.901,181.033 192.838,176.765 207.788,199.19C212.118,205.685 207.618,216.975 209.278,224.445ZM591.108,224.445C591.108,224.445 596.005,236.337 596.986,237.661C598.955,240.319 599.605,244.761 601.6,245.5C605.328,246.881 619.633,243.233 623.665,242.657C630.267,241.714 633.633,242.05 639.793,242.866C645.766,243.658 652.883,241.757 658.235,247.457C660.966,250.366 661.028,246.18 663.975,246.233C665.378,246.258 661.341,250.439 662.315,249.742C670.216,244.084 682.838,244.109 698.259,250.879C700.374,251.808 712.916,254.336 713.707,256.155C714.393,257.733 698.209,259.454 698.374,259.839C701.011,265.994 720.971,259.71 724.408,261.519C725.999,262.356 725.27,268.134 726.751,269.808C731.765,275.476 741.353,274.059 744.712,282.853C745.626,285.245 744.858,287.688 743.358,289.639C743.171,289.882 740.606,292.496 740.723,292.599C743.463,294.996 756.651,289.092 758.651,294.59C760.357,299.283 741.067,307.578 737.649,308.284C736.819,308.455 731.147,308.147 730.768,308.602C730.683,308.704 734.049,309.961 734.276,310.038C735.761,310.545 744.389,312.277 744.164,314.169C743.768,317.497 734.818,319.107 732.644,321.443C732.054,322.076 731.506,346.078 732.86,347.328C734.07,348.445 743.38,343.132 744.523,342.615C758.049,336.496 769.593,326.745 776.05,313.14C784.068,296.244 782.795,277.749 776.28,260.598C758.71,214.343 711.705,192.794 665.56,184.839C643.485,181.033 607.548,176.765 592.598,199.19C588.268,205.685 592.768,216.975 591.108,224.445Z" style="fill:rgb(235,214,197);"/>
                    </g>
                </g>
                <g>
                    <path d="M339.092,215.97C338.695,215.883 337.489,212.835 337.317,212.477C335.373,208.446 333.998,204.009 333.709,199.521C332.821,185.763 345.208,174.931 358.304,175.132C376.202,175.407 387.046,190.55 393.369,205.409C394.746,208.644 396.159,211.937 397.036,215.348C397.322,216.46 397.462,219.529 398.314,220.381" style="fill:none;stroke:black;stroke-width:2.1px;"/>
                    <path d="M401.934,220.14C402.847,217.074 402.834,213.018 404.035,209.656C409.208,195.173 420.865,181.005 435.964,176.41C440.061,175.163 444.134,174.447 448.429,174.837C470.203,176.817 472.553,202.093 461.631,216.655" style="fill:none;stroke:black;stroke-width:2.1px;"/>
                    <path d="M336.162,188.606C335.194,187.784 338.68,187.984 339.941,188.128C342.426,188.41 344.896,189.879 346.705,191.549C352.543,196.938 352.193,203.39 355.395,209.794" style="fill:none;stroke:black;stroke-width:2.1px;"/>
                    <path d="M345.372,178.5C345.901,178.39 351.179,181.029 352.052,181.492C360.472,185.957 365.175,196.138 367.397,205.026C367.874,206.931 367.846,213.771 369.265,215.191" style="fill:none;stroke:black;stroke-width:2.1px;"/>
                    <path d="M363.505,176.603C363.537,175.952 368.377,178.463 368.548,178.573C372.601,181.174 375.699,185.225 378.053,189.357C381.066,194.642 382.351,200.598 383.028,206.579C383.253,208.568 383.349,210.587 383.46,212.586C383.516,213.587 382.546,215.594 383.549,215.594" style="fill:none;stroke:black;stroke-width:2.1px;"/>
                    <path d="M418.439,214.795C418.418,215.379 418.263,213.639 418.21,213.057C418.102,211.867 418.083,210.674 418.083,209.479C418.083,205.846 418.635,202.254 419.528,198.735C422.292,187.831 429.653,179.469 439.906,175.368" style="fill:none;stroke:black;stroke-width:2.1px;"/>
                    <path d="M434.421,213.589C434.289,214.098 434.308,212.544 434.284,212.019C434.239,210.998 434.275,209.979 434.322,208.958C434.468,205.785 434.981,202.62 435.836,199.56C438.092,191.491 444.286,183.683 452.017,180.264C453.898,179.432 458.009,177.755 460.176,178.838" style="fill:none;stroke:black;stroke-width:2.1px;"/>
                    <path d="M444.348,209.381C443.626,209.847 445.092,206.24 445.175,206.048C446.086,203.953 447.178,201.942 448.537,200.101C452.864,194.241 459.737,189.298 467.224,189.298" style="fill:none;stroke:black;stroke-width:2.1px;"/>
                    <path d="M320.057,266.711C320.659,266.711 319.357,265.728 319.072,265.197C318.514,264.162 318.03,263.118 317.627,262.012C316.771,259.668 316.523,256.124 314.845,254.197C312.905,251.97 309.902,251.34 308.307,248.594" style="fill:none;stroke:black;stroke-width:2.1px;"/>
                    <path d="M479.365,268.117C482.511,259.35 486.318,252.347 492.734,245.684" style="fill:none;stroke:black;stroke-width:2.1px;"/>
                    <path d="M249.725,300.664C249.612,298.191 244.234,294.864 242.71,293.145C239.791,289.852 239.864,286.577 238.817,282.538" style="fill:none;stroke:black;stroke-width:2.1px;"/>
                    <path d="M532.444,301.148C534.528,298.492 533.399,292.843 534.198,289.695C535.465,284.703 539.444,280.742 540.991,275.716" style="fill:none;stroke:black;stroke-width:2.1px;"/>
                </g>
                <g transform="matrix(1,0,0,1,0,0.0142307)">
                    <path d="M615.526,358.387C615.509,358.396 613.84,349.319 613.761,348.689C613.096,343.402 610.812,334.225 615.884,330.365C622.408,325.402 634.141,325.973 641.832,324.878C661.432,322.087 680.988,318.93 700.538,315.82C704.853,315.133 722.444,308.382 725.438,315.062C728.146,321.101 722.06,328.663 722.06,334.667C722.06,339.866 729.389,347.117 723.646,351.033C718.794,354.341 710.359,353.693 704.854,354.176C692.327,355.276 679.871,356.691 667.504,359.015C653.589,361.631 630.409,371.771 616.849,364.489L615.526,358.387ZM71.22,308.101C70.265,313.122 70.538,316.774 73.969,321.634C75.971,324.47 80.686,328.004 80.251,331.914C79.584,337.92 75.3,341.644 72.34,346.748C71.622,347.986 69.059,351.754 70.808,353.099C73.9,355.478 95.029,351.298 99.306,350.982C123.921,349.166 148.029,354.699 172.752,350.69C177.199,349.969 188.37,345.818 183.045,339.073C178.435,333.233 169.802,331.096 162.974,329.588C156.231,328.098 149.503,326.554 142.777,324.991C130.747,322.196 119.161,317.921 107.231,314.754L71.22,308.101Z" style="fill: rgb(calc(var(--color_hairs_r, 183) - 93), calc(var(--color_hairs_g, 55) - 14), calc(var(--color_hairs_b, 88) - 15))"/>
                </g>
                <g id="lines">
                    <path d="M642.117,338.672C645.398,338.172 648.595,339.346 651.98,338.218C655.092,337.181 657.361,334.518 660.613,333.762C666.822,332.318 671.735,333.598 677.253,329.46" style="fill:none;stroke:black;stroke-width:2.1px;"/>
                    <path d="M702.458,323.648C703.354,324.751 713.794,320.195 714.863,318.821" style="fill:none;stroke:black;stroke-width:2.1px;"/>
                    <path d="M110.093,323.97C110.239,324.913 108.196,323.767 107.248,323.66C104.449,323.345 102.058,322.458 99.696,320.92" style="fill:none;stroke:black;stroke-width:2.1px;"/>
                    <path d="M167.62,337.242C166.727,338.638 159.966,337.454 158.959,337.133C156.018,336.194 153.864,333.683 150.993,332.771C148.412,331.952 145.417,332.736 142.738,332.131C139.646,331.433 136.95,329.521 133.924,328.572" style="fill:none;stroke:black;stroke-width:2.1px;"/>
                    <g transform="matrix(1,0,0,1,0,-17.8937)">
                        <path d="M623.003,357.051C613.786,354.656 611.602,346.998 607.656,346.655C598.567,345.866 601.786,351.234 594.99,349.323C592.694,348.677 588.363,348.025 586.307,347.28C581.462,345.525 576.111,338.07 575.039,338.07C571.49,338.07 569.152,346.169 566.709,345.397C564.516,344.705 560.649,346.832 559.196,343.318C558.066,340.584 559.605,335.776 558.647,333.905C557.1,330.884 555.368,333.214 554.311,330.726C552.903,327.41 551.254,327.38 550.825,325.734C550.356,323.933 554.748,321.213 553.825,319.712C553.253,318.782 552.573,317.926 551.757,317.163C551.236,316.678 546.351,320.484 544.655,323.347C543.457,325.37 545.615,326.324 544.262,327.596C542.908,328.868 540.982,326.567 540.479,326.312C538.634,325.376 538.748,317.066 536.776,316.362C534.741,315.635 533.572,321.66 532.005,319.585C529.77,316.624 525.472,316.611 525.603,315.967C527.235,307.91 520.782,314.318 519.794,311.992C518.887,309.858 520.766,306.937 519.72,305.728C517.791,303.499 515.8,306.075 515.128,304.172C513.77,300.33 517.592,299.199 516.584,295.593C514.726,288.948 513.596,285.497 510.473,284.804C505.18,283.627 499.21,299.281 492.812,297.404C489.914,296.553 488.845,294.546 487.697,293.942C486.149,293.128 480.465,293.228 481.336,289.016C481.986,285.876 482.494,281.501 480.342,283.879C478.235,286.208 472.677,297.199 462.797,296.939C461.049,296.893 469.19,287.873 466.084,284.767C463.272,281.955 452.092,286.876 449.826,284.919C447.56,282.963 453.523,273.767 452.488,273.028C450.871,271.873 446.692,274.146 443.966,273.134C441.534,272.23 435.811,272.553 435.443,269.983C435.17,268.078 439.47,266.882 439.081,265.006C438.909,264.179 434.45,264.153 434.474,263.379C434.554,260.689 436.46,258.532 438.101,256.821C440.244,254.588 441.938,252.461 441.969,251.971C442.089,250.046 437.142,250.787 436.185,248.447C435.508,246.794 438.761,244.448 439.199,242.599C439.934,239.495 444.158,237.742 444.158,237.742C444.158,237.742 449.944,245.595 456.651,239.827C457.818,238.823 462.46,233.925 461.57,232.516C459.526,229.281 449.672,227.845 446.2,227.75C436.778,227.491 438.395,232.338 427.322,233.783C425.42,234.031 427.406,229.67 422.577,230.569C418.223,231.38 409.597,238.664 405.792,238.836C402.918,238.966 401.918,237.512 400.622,237.887C400.511,237.919 400.415,237.898 400.331,237.831C400.248,237.898 400.152,237.919 400.041,237.887C398.745,237.512 397.745,238.966 394.871,238.836C391.066,238.664 382.44,231.38 378.086,230.569C373.256,229.67 375.242,234.031 373.341,233.783C362.268,232.338 363.884,227.491 354.463,227.75C350.991,227.845 341.137,229.281 339.093,232.516C338.203,233.925 342.845,238.823 344.012,239.827C350.719,245.595 356.505,237.742 356.505,237.742C356.505,237.742 360.729,239.495 361.464,242.599C361.902,244.448 365.155,246.794 364.478,248.447C363.52,250.787 358.574,250.046 358.694,251.971C358.724,252.461 360.419,254.588 362.562,256.821C364.203,258.532 366.109,260.689 366.189,263.379C366.212,264.153 361.754,264.179 361.582,265.006C361.193,266.882 365.493,268.078 365.22,269.983C364.852,272.553 359.129,272.23 356.697,273.134C353.971,274.146 349.792,271.873 348.175,273.028C347.14,273.767 353.103,282.963 350.837,284.919C348.571,286.876 337.39,281.955 334.579,284.767C331.473,287.873 339.614,296.893 337.866,296.939C327.986,297.199 322.428,286.208 320.321,283.879C318.169,281.501 318.677,285.876 319.327,289.016C320.198,293.228 314.514,293.128 312.965,293.942C311.818,294.546 310.749,296.553 307.851,297.404C301.453,299.281 295.483,283.627 290.19,284.804C287.067,285.497 285.937,288.948 284.079,295.593C283.071,299.199 286.893,300.33 285.535,304.172C284.863,306.075 282.872,303.499 280.943,305.728C279.897,306.937 281.776,309.858 280.869,311.992C279.881,314.318 273.428,307.91 275.06,315.967C275.191,316.611 270.893,316.624 268.658,319.585C267.091,321.66 265.922,315.635 263.887,316.362C261.915,317.066 262.029,325.376 260.184,326.312C259.681,326.567 257.755,328.868 256.401,327.596C255.047,326.324 257.206,325.37 256.008,323.347C254.312,320.484 249.427,316.678 248.906,317.163C248.089,317.926 247.41,318.782 246.838,319.712C245.915,321.213 250.307,323.933 249.838,325.734C249.409,327.38 247.76,327.41 246.352,330.726C245.295,333.214 243.562,330.884 242.016,333.905C241.058,335.776 242.597,340.584 241.467,343.318C240.014,346.832 236.147,344.705 233.954,345.397C231.511,346.169 229.173,338.07 225.624,338.07C224.552,338.07 219.201,345.525 214.356,347.28C212.3,348.025 207.969,348.677 205.673,349.323C198.877,351.234 202.096,345.866 193.007,346.655C189.061,346.998 186.877,354.656 177.66,357.051" style="fill:none;stroke:black;stroke-width:2.1px;"/>
                    </g>
                    <g transform="matrix(1,0,0,1,0,0.0142307)">
                        <path d="M623.802,339.959C616.617,335.087 610.509,328.995 607.656,328.747C598.567,327.958 601.786,333.326 594.99,331.415C592.694,330.769 588.363,330.117 586.307,329.372C581.462,327.617 576.111,320.162 575.039,320.162C571.49,320.162 569.152,328.261 566.709,327.489C564.516,326.797 560.649,328.924 559.196,325.41C558.066,322.676 559.605,317.868 558.647,315.997C557.1,312.976 555.368,315.307 554.311,312.818C552.903,309.502 551.254,309.472 550.825,307.826C550.356,306.025 554.748,303.305 553.825,301.804C553.253,300.874 552.573,300.018 551.757,299.255C551.236,298.77 546.351,302.576 544.655,305.439C543.457,307.462 545.615,308.416 544.262,309.688C542.908,310.96 540.982,308.659 540.479,308.404C538.634,307.468 538.748,299.158 536.776,298.454C534.741,297.727 533.572,303.752 532.005,301.677C529.77,298.716 525.472,298.703 525.603,298.059C527.235,290.002 520.782,296.41 519.794,294.084C518.887,291.95 520.766,289.029 519.72,287.82C517.791,285.591 515.8,288.167 515.128,286.264C513.77,282.422 517.592,281.292 516.584,277.685C514.726,271.04 513.596,267.59 510.473,266.896C505.18,265.719 499.21,281.373 492.812,279.496C489.914,278.646 488.845,276.638 487.697,276.035C486.149,275.22 480.465,275.32 481.336,271.109C481.986,267.968 482.494,263.593 480.342,265.971C478.235,268.3 472.677,279.291 462.797,279.031C461.049,278.985 469.19,269.965 466.084,266.859C463.272,264.047 452.092,268.968 449.826,267.011C447.56,265.055 453.523,255.859 452.488,255.12C450.871,253.965 446.692,256.238 443.966,255.226C441.534,254.322 435.811,254.645 435.443,252.076C435.17,250.17 439.47,248.974 439.081,247.099C438.909,246.271 434.45,246.246 434.474,245.471C434.554,242.781 436.46,240.624 438.101,238.913C440.244,236.68 441.938,234.553 441.969,234.063C442.089,232.139 437.142,232.879 436.185,230.539C435.508,228.886 438.761,226.54 439.199,224.691C439.934,221.587 444.158,219.834 444.158,219.834C444.158,219.834 449.944,227.687 456.651,221.919C457.818,220.915 462.46,216.017 461.57,214.608C459.526,211.373 449.672,209.937 446.2,209.842C436.778,209.583 438.395,214.431 427.322,215.875C425.42,216.123 427.406,211.762 422.577,212.661C418.223,213.472 409.597,220.757 405.792,220.928C402.918,221.058 401.918,219.604 400.622,219.979C400.511,220.011 400.415,219.99 400.331,219.923C400.248,219.99 400.152,220.011 400.041,219.979C398.745,219.604 397.745,221.058 394.871,220.928C391.066,220.757 382.44,213.472 378.086,212.661C373.256,211.762 375.242,216.123 373.341,215.875C362.268,214.431 363.884,209.583 354.463,209.842C350.991,209.937 341.137,211.373 339.093,214.608C338.203,216.017 342.845,220.915 344.012,221.919C350.719,227.687 356.505,219.834 356.505,219.834C356.505,219.834 360.729,221.587 361.464,224.691C361.902,226.54 365.155,228.886 364.478,230.539C363.52,232.879 358.574,232.139 358.694,234.063C358.724,234.553 360.419,236.68 362.562,238.913C364.203,240.624 366.109,242.781 366.189,245.471C366.212,246.246 361.754,246.271 361.582,247.099C361.193,248.974 365.493,250.17 365.22,252.076C364.852,254.645 359.129,254.322 356.697,255.226C353.971,256.238 349.792,253.965 348.175,255.12C347.14,255.859 353.103,265.055 350.837,267.011C348.571,268.968 337.39,264.047 334.579,266.859C331.473,269.965 339.614,278.985 337.866,279.031C327.986,279.291 322.428,268.3 320.321,265.971C318.169,263.593 318.677,267.968 319.327,271.109C320.198,275.32 314.514,275.22 312.965,276.035C311.818,276.638 310.749,278.646 307.851,279.496C301.453,281.373 295.483,265.719 290.19,266.896C287.067,267.59 285.937,271.04 284.079,277.685C283.071,281.292 286.893,282.422 285.535,286.264C284.863,288.167 282.872,285.591 280.943,287.82C279.897,289.029 281.776,291.95 280.869,294.084C279.881,296.41 273.428,290.002 275.06,298.059C275.191,298.703 270.893,298.716 268.658,301.677C267.091,303.752 265.922,297.727 263.887,298.454C261.915,299.158 262.029,307.468 260.184,308.404C259.681,308.659 257.755,310.96 256.401,309.688C255.047,308.416 257.206,307.462 256.008,305.439C254.312,302.576 249.427,298.77 248.906,299.255C248.089,300.018 247.41,300.874 246.838,301.804C245.915,303.305 250.307,306.025 249.838,307.826C249.409,309.472 247.76,309.502 246.352,312.818C245.295,315.307 243.562,312.976 242.016,315.997C241.058,317.868 242.597,322.676 241.467,325.41C240.014,328.924 236.147,326.797 233.954,327.489C231.511,328.261 229.173,320.162 225.624,320.162C224.552,320.162 219.201,327.617 214.356,329.372C212.3,330.117 207.969,330.769 205.673,331.415C198.877,333.326 202.096,327.958 193.007,328.747C190.408,328.973 185.053,335.416 179.039,340.457" style="fill:none;stroke:black;stroke-width:2.1px;"/>
                    </g>
                    <g transform="matrix(1,0,0,1,0,0.0142307)">
                        <path d="M67.914,336.413C65.544,333.945 63.735,323.65 62.472,322.808C59.659,320.933 53.756,322.515 50.447,321.55C45.007,319.964 41.084,316.41 37.541,312.19C40.585,311.678 44.195,311.221 44.642,308.538C45.296,304.612 34.217,298.048 34.217,292.479C34.217,291.584 44.216,289.001 46.091,287.061C48.359,284.715 45.6,283.032 49.714,278.269C51.931,275.702 56.382,275.85 59.033,273.788C60.583,272.583 55.744,270.496 55.744,270.496C55.744,270.496 61.45,268.439 62.899,267.776C64.925,266.847 66.757,263.832 67.849,262.741C71.401,259.188 66.414,248.03 66.414,248.03C66.414,248.03 78.996,253.701 83.561,252.608C96.308,249.556 107.616,236.551 121.605,238.55C123.887,238.876 123.036,239.377 127.203,241.975C128.224,242.613 129.401,240.274 130.698,240.603C132.036,240.942 132.269,246.552 133.096,245.721C134.217,244.596 136.21,243.335 136.21,243.335C136.21,243.335 137.477,249.91 137.707,249.872C138.447,249.749 141.825,242.65 143.892,241.599C149.834,238.58 153.613,242.337 158.935,240.918C162.736,239.905 165.257,235.941 169.738,235.122C176.298,233.923 195.983,243.243 196.36,241.386C198.009,233.28 205.617,228.832 205.678,229.726C205.877,232.658 204.844,244.271 211.583,250.608C213.637,252.539 214.282,253.525 214.24,253.874L214.098,254.02C214.179,254.006 214.23,253.959 214.24,253.874L218.736,249.245C238.554,232.73 256.852,213.459 278.51,195.984C292.58,184.633 314.329,171.779 331.838,167.365C344.962,164.055 380.459,154.212 400.052,158.05C419.645,154.212 453.845,162.963 466.97,166.272C484.478,170.687 505.438,182.185 520.381,194.242C540.893,210.792 560.134,232.73 579.952,249.245L584.447,253.874C584.457,253.959 584.508,254.006 584.589,254.02L584.447,253.874C584.405,253.525 585.051,252.539 587.104,250.608C593.843,244.271 592.811,232.658 593.01,229.726C593.07,228.832 600.678,233.28 602.327,241.386C602.56,242.531 607.292,237.881 612.036,239.642C613,240 617.834,240.388 620.388,238.107C621.193,237.389 622.493,235.56 624.621,236.623C625.407,237.015 627.329,228.697 628.301,231.602C629.201,234.295 631.341,237.19 632.2,237.454C634.636,238.204 636.896,237.398 638.639,237.438C644.627,237.574 643.057,239.376 645.151,239.614C650.624,240.235 652.313,239.517 654.795,241.599C656.572,243.09 660.241,249.749 660.981,249.872C661.331,249.93 663.998,245.176 664.376,244.79C666.545,242.572 669.104,241.298 672.283,240.537C676.684,239.483 674.575,232.518 677.707,236.291C678.668,237.447 679.42,240.516 680.852,240.613C683.232,240.774 687.176,239.274 689.477,239.929C698.809,242.587 705.988,250.42 715.126,252.608C719.692,253.701 732.614,248.479 732.614,248.479C732.614,248.479 726.595,259.666 730.839,262.741C737.294,267.418 743.712,272.177 748.974,278.269C753.087,283.032 750.328,284.715 752.596,287.061C754.471,289.001 764.47,291.584 764.47,292.479C764.47,298.048 753.391,304.612 754.045,308.538C754.58,311.748 759.642,311.772 762.847,312.516C759.376,316.591 755.516,320.004 750.216,321.55C746.907,322.515 741.004,320.933 738.191,322.808C736.928,323.65 735.119,333.945 732.749,336.413" style="fill:none;stroke:black;stroke-width:2.1px;"/>
                    </g>
                </g>
            </g>
        </g>
    </g>
</svg>