<?xml version="1.0" encoding="UTF-8" standalone="no"?>
<!DOCTYPE svg PUBLIC "-//W3C//DTD SVG 1.1//EN" "http://www.w3.org/Graphics/SVG/1.1/DTD/svg11.dtd">
<svg
  width="100%"
  height="100%"
  viewBox="0 0 800 800"
  version="1.1"
  xmlns="http://www.w3.org/2000/svg"
  
  
  
  style="fill-rule: evenodd; clip-rule: evenodd; stroke-linecap: round; stroke-linejoin: round; stroke-miterlimit: 1.5"
>
  <g id="legendary-card" >
    <rect id="bg" x="-48.418" y="-9.957" width="931.967" height="871.066" style="fill: url(#Punk-glassesPunk-glassesPunk-glassesPunk-glasses_Linear1)" />
    <g id="rarity-bars"  transform="matrix(0.86723,0,0,0.86723,10.4494,88.5493)">
      <g id="rarity-bars-fill" >
        <g transform="matrix(0.114833,0,0,0.114833,59.0756,653.445)">
          <path
            d="M400,117.517L629.266,249.774L629.266,514.685L400.192,646.941L400.192,647.052L400.096,646.997L400,647.052L400,646.941L170.925,514.685L170.925,249.774L400,117.517Z"
            style="fill: rgb(139, 57, 219)"
          />
        </g>
        <g transform="matrix(0.114833,0,0,0.114833,126.648,653.445)">
          <path
            d="M400,117.517L629.266,249.774L629.266,514.685L400.192,646.941L400.192,647.052L400.096,646.997L400,647.052L400,646.941L170.925,514.685L170.925,249.774L400,117.517Z"
            style="fill: rgb(237, 30, 121)"
          />
        </g>
        <g transform="matrix(0.114833,0,0,0.114833,194.22,653.445)">
          <path
            d="M400,117.517L629.266,249.774L629.266,514.685L400.192,646.941L400.192,647.052L400.096,646.997L400,647.052L400,646.941L170.925,514.685L170.925,249.774L400,117.517Z"
            style="fill: rgb(241, 90, 36)"
          />
        </g>
        <g transform="matrix(0.114833,0,0,0.114833,261.792,653.445)">
          <path
            d="M400,117.517L629.266,249.774L629.266,514.685L400.192,646.941L400.192,647.052L400.096,646.997L400,647.052L400,646.941L170.925,514.685L170.925,249.774L400,117.517Z"
            style="fill: rgb(251, 176, 59)"
          />
        </g>
        <g transform="matrix(0.114833,0,0,0.114833,329.364,653.445)">
          <path
            d="M400,117.517L629.266,249.774L629.266,514.685L400.192,646.941L400.192,647.052L400.096,646.997L400,647.052L400,646.941L170.925,514.685L170.925,249.774L400,117.517Z"
            style="fill: rgb(41, 171, 226)"
          />
        </g>
      </g>
      <g id="rarity-bars-stroke" >
        <g transform="matrix(0.114833,0,0,0.114833,59.0756,653.445)">
          <path
            d="M400,117.517L629.266,249.774L629.266,514.685L400.192,646.941L400.192,647.052L400.096,646.997L400,647.052L400,646.941L170.925,514.685L170.925,249.774L400,117.517Z"
            style="fill: none; stroke: white; stroke-width: 34.83px"
          />
        </g>
        <g transform="matrix(0.114833,0,0,0.114833,126.648,653.445)">
          <path
            d="M400,117.517L629.266,249.774L629.266,514.685L400.192,646.941L400.192,647.052L400.096,646.997L400,647.052L400,646.941L170.925,514.685L170.925,249.774L400,117.517Z"
            style="fill: none; stroke: white; stroke-width: 34.83px"
          />
        </g>
        <g transform="matrix(0.114833,0,0,0.114833,194.22,653.445)">
          <path
            d="M400,117.517L629.266,249.774L629.266,514.685L400.192,646.941L400.192,647.052L400.096,646.997L400,647.052L400,646.941L170.925,514.685L170.925,249.774L400,117.517Z"
            style="fill: none; stroke: white; stroke-width: 34.83px"
          />
        </g>
        <g transform="matrix(0.114833,0,0,0.114833,261.792,653.445)">
          <path
            d="M400,117.517L629.266,249.774L629.266,514.685L400.192,646.941L400.192,647.052L400.096,646.997L400,647.052L400,646.941L170.925,514.685L170.925,249.774L400,117.517Z"
            style="fill: none; stroke: white; stroke-width: 34.83px"
          />
        </g>
        <g transform="matrix(0.114833,0,0,0.114833,329.364,653.445)">
          <path
            d="M400,117.517L629.266,249.774L629.266,514.685L400.192,646.941L400.192,647.052L400.096,646.997L400,647.052L400,646.941L170.925,514.685L170.925,249.774L400,117.517Z"
            style="fill: none; stroke: white; stroke-width: 34.83px"
          />
        </g>
      </g>
    </g>
    <g transform="matrix(0.720342,0,0,0.720342,23.1337,330.63)">
      <text x="77.471px" y="439.84px" style="font-family: 'Futura-Medium', 'Futura', sans-serif; font-weight: 500; font-size: 50px; fill: white">
        RARIT
        <tspan x="216.021px " y="439.84px ">Y</tspan>
      </text>
    </g>
    <g id="eye" transform="matrix(1,0,0,1,-155.551,0)">
      <g transform="matrix(0.88044,0,0,0.88044,68.5829,70.2432)">
        <path
          d="M634.355,700.111C653.954,688.642 678.218,688.642 697.818,700.111C704.234,703.866 709.059,706.69 709.059,706.69C709.059,706.69 704.234,709.513 697.818,713.268C678.218,724.738 653.954,724.738 634.355,713.268C627.938,709.513 623.113,706.69 623.113,706.69C623.113,706.69 627.938,703.866 634.355,700.111Z"
          style="fill: white"
        />
      </g>
      <circle cx="655.032" cy="692.441" r="13.365" style="fill: rgb(6, 46, 66)" />
    </g>
    <g transform="matrix(0.720342,0,0,0.720342,366.834,330.63)">
      <text x="124.102px" y="439.84px" style="font-family: 'Futura-Medium', 'Futura', sans-serif; font-weight: 500; font-size: 50px; fill: white">
        SL
        <tspan x="173.882px 217.217px " y="439.84px 439.84px ">OT</tspan>
      </text>
    </g>
    <g transform="matrix(1,0,0,1,-7.69409,0)">
      <path
        d="M82.194,602.738L733.196,602.258C733.979,602.258 734.615,601.621 734.614,600.838C734.614,600.055 733.977,599.42 733.194,599.42L82.192,599.9C81.409,599.901 80.773,600.537 80.774,601.321C80.775,602.104 81.411,602.739 82.194,602.738Z"
        style="fill: white"
      />
      <clipPath id="Punk-glasses_0">
        <path
          d="M82.194,602.738L733.196,602.258C733.979,602.258 734.615,601.621 734.614,600.838C734.614,600.055 733.977,599.42 733.194,599.42L82.192,599.9C81.409,599.901 80.773,600.537 80.774,601.321C80.775,602.104 81.411,602.739 82.194,602.738Z"
        />
      </clipPath>
      <g clip-path="url(#Punk-glasses_0)">
        <g transform="matrix(1.00436,0,0,2.42829,-1.77732,-904.509)">
          <rect x="82.193" y="587.181" width="651.002" height="46.101" style="fill: url(#Punk-glassesPunk-glassesPunk-glassesPunk-glasses_Linear3)" />
        </g>
      </g>
    </g>
    <g transform="matrix(1,0,0,1,120.441,145.046)">
      <clipPath id="Punk-glasses_1">
        <path
          d="M89.874,420.137L79.498,402.144L85.967,402.144L93.169,414.913L100.738,402.144L107.256,402.144L96.392,420.137L107.793,439.84L101.421,439.84L93.072,425.411L84.478,439.84L78.033,439.84L89.874,420.137ZM118.56,424.532L118.56,439.84L112.872,439.84L112.872,402.144L119.317,402.144C122.474,402.144 124.859,402.364 126.47,402.803C128.098,403.243 129.53,404.073 130.767,405.294C132.932,407.409 134.014,410.079 134.014,413.301C134.014,416.752 132.859,419.486 130.547,421.505C128.236,423.523 125.119,424.532 121.197,424.532L118.56,424.532ZM118.56,419.258L120.684,419.258C125.909,419.258 128.521,417.248 128.521,413.228C128.521,409.338 125.827,407.393 120.44,407.393L118.56,407.393L118.56,419.258ZM145.562,402.144L145.562,434.493L156.646,434.493L156.646,439.84L139.874,439.84L139.874,402.144L145.562,402.144ZM158.624,420.821C158.624,415.515 160.569,410.958 164.459,407.149C168.332,403.34 172.987,401.436 178.423,401.436C183.794,401.436 188.401,403.357 192.242,407.198C196.099,411.039 198.028,415.653 198.028,421.041C198.028,426.461 196.091,431.059 192.217,434.835C188.327,438.627 183.632,440.523 178.13,440.523C173.264,440.523 168.894,438.839 165.02,435.469C160.756,431.742 158.624,426.859 158.624,420.821ZM164.361,420.894C164.361,425.061 165.761,428.487 168.56,431.173C171.343,433.858 174.558,435.201 178.204,435.201C182.159,435.201 185.495,433.834 188.213,431.099C190.932,428.332 192.291,424.963 192.291,420.992C192.291,416.972 190.948,413.603 188.262,410.884C185.593,408.15 182.289,406.783 178.35,406.783C174.428,406.783 171.115,408.15 168.414,410.884C165.712,413.586 164.361,416.923 164.361,420.894ZM217.95,423.775L229.62,439.84L222.662,439.84L211.895,424.41L210.87,424.41L210.87,439.84L205.181,439.84L205.181,402.144L211.846,402.144C216.827,402.144 220.424,403.08 222.637,404.952C225.079,407.035 226.299,409.786 226.299,413.204C226.299,415.873 225.534,418.168 224.004,420.089C222.474,422.009 220.456,423.238 217.95,423.775ZM210.87,419.454L212.676,419.454C218.064,419.454 220.757,417.395 220.757,413.277C220.757,409.42 218.137,407.491 212.896,407.491L210.87,407.491L210.87,419.454ZM256.085,407.491L240.972,407.491L240.972,416.548L255.645,416.548L255.645,421.895L240.972,421.895L240.972,434.493L256.085,434.493L256.085,439.84L235.284,439.84L235.284,402.144L256.085,402.144L256.085,407.491ZM276.324,423.775L287.994,439.84L281.036,439.84L270.269,424.41L269.244,424.41L269.244,439.84L263.555,439.84L263.555,402.144L270.22,402.144C275.201,402.144 278.798,403.08 281.011,404.952C283.453,407.035 284.673,409.786 284.673,413.204C284.673,415.873 283.908,418.168 282.378,420.089C280.849,422.009 278.83,423.238 276.324,423.775ZM269.244,419.454L271.05,419.454C276.438,419.454 279.131,417.395 279.131,413.277C279.131,409.42 276.511,407.491 271.27,407.491L269.244,407.491L269.244,419.454ZM314.776,416.89L331.036,416.89L331.036,402.144L336.724,402.144L336.724,439.84L331.036,439.84L331.036,422.237L314.776,422.237L314.776,439.84L309.087,439.84L309.087,402.144L314.776,402.144L314.776,416.89ZM366.558,407.491L351.446,407.491L351.446,416.548L366.119,416.548L366.119,421.895L351.446,421.895L351.446,434.493L366.558,434.493L366.558,439.84L345.757,439.84L345.757,402.144L366.558,402.144L366.558,407.491ZM379.717,402.144L379.717,434.493L390.801,434.493L390.801,439.84L374.029,439.84L374.029,402.144L379.717,402.144ZM394.878,439.84L402.813,399.312L415.752,428.609L429.156,399.312L436.285,439.84L430.45,439.84L426.812,417.086L415.655,441.573L404.815,417.061L400.762,439.84L394.878,439.84ZM465.069,407.491L449.957,407.491L449.957,416.548L464.629,416.548L464.629,421.895L449.957,421.895L449.957,434.493L465.069,434.493L465.069,439.84L444.268,439.84L444.268,402.144L465.069,402.144L465.069,407.491ZM482.94,407.491L482.94,439.84L477.252,439.84L477.252,407.491L468.585,407.491L468.585,402.144L491.583,402.144L491.583,407.491L482.94,407.491Z"
          clip-rule="nonzero"
        />
      </clipPath>
      <g>
        <text x="77.471px" y="439.84px" style="font-family: 'Futura-Medium', 'Futura', sans-serif; font-weight: 500; font-size: 50px; fill: white">
          <tspan x="80.457px 108.461px " y="439.84px 439.84px ">PUNK GLASSES</tspan>
        </text>
      </g>
    </g>
    <g id="rectangles" transform="matrix(1,0,0,1,0.177165,15.0591)">
      <g opacity="0.51">
        <g transform="matrix(0.660629,0,0,1.04551,351.522,-34.4635)">
          <rect x="462.47" y="633.282" width="419.335" height="322.449" style="fill: none" />
          <clipPath id="Punk-glasses_2">
            <rect x="462.47" y="633.282" width="419.335" height="322.449" />
          </clipPath>
          <g clip-path="url(#Punk-glasses_1)">
            <g transform="matrix(1.51371,0,0,0.956468,-452.99,37.369)">
              <path d="M604.78,633.282L877.032,634.306" style="fill: none; stroke: rgb(166, 240, 98); stroke-width: 4px; stroke-dasharray: 4.25, 7.5, 0, 0" />
            </g>
            <g transform="matrix(1.51371,0,0,0.956468,-452.99,58.0423)">
              <path d="M604.78,633.282L877.032,634.306" style="fill: none; stroke: rgb(166, 240, 98); stroke-width: 4px; stroke-dasharray: 4.25, 7.5, 0, 0" />
            </g>
            <g transform="matrix(1.51371,0,0,0.956468,-452.99,68.3789)">
              <path d="M604.78,633.282L877.032,634.306" style="fill: none; stroke: rgb(166, 240, 98); stroke-width: 4px; stroke-dasharray: 4.25, 7.5, 0, 0" />
            </g>
            <g transform="matrix(1.51371,0,0,0.956468,-452.99,89.0522)">
              <path d="M604.78,633.282L877.032,634.306" style="fill: none; stroke: rgb(166, 240, 98); stroke-width: 4px; stroke-dasharray: 4.25, 7.5, 0, 0" />
            </g>
            <g transform="matrix(1.51371,0,0,0.956468,-452.99,99.3888)">
              <path d="M604.78,633.282L877.032,634.306" style="fill: none; stroke: rgb(166, 240, 98); stroke-width: 4px; stroke-dasharray: 4.25, 7.5, 0, 0" />
            </g>
            <g transform="matrix(1.51371,0,0,0.956468,-452.99,130.399)">
              <path d="M604.78,633.282L877.032,634.306" style="fill: none; stroke: rgb(166, 240, 98); stroke-width: 4px; stroke-dasharray: 4.25, 7.5, 0, 0" />
            </g>
            <g transform="matrix(1.51371,0,0,0.956468,-452.99,151.072)">
              <path d="M604.78,633.282L877.032,634.306" style="fill: none; stroke: rgb(166, 240, 98); stroke-width: 4px; stroke-dasharray: 4.25, 7.5, 0, 0" />
            </g>
            <g transform="matrix(1.51371,0,0,0.956468,-452.99,171.745)">
              <path d="M604.78,633.282L877.032,634.306" style="fill: none; stroke: rgb(166, 240, 98); stroke-width: 4px; stroke-dasharray: 4.25, 7.5, 0, 0" />
            </g>
          </g>
          <rect x="462.47" y="633.282" width="419.335" height="322.449" style="fill: none; stroke: rgb(166, 240, 98); stroke-width: 4.57px; stroke-dasharray: 4.86, 8.58, 0, 0" />
        </g>
        <g transform="matrix(0.192707,0,0,1.04551,466.744,2.40586)">
          <rect x="462.47" y="633.282" width="419.335" height="322.449" style="fill: none" />
          <clipPath id="Punk-glasses_3">
            <rect x="462.47" y="633.282" width="419.335" height="322.449" />
          </clipPath>
          <g clip-path="url(#Punk-glasses_2)">
            <g transform="matrix(1.51371,0,0,0.956468,-452.99,37.369)">
              <path d="M604.78,633.282L877.032,634.306" style="fill: none; stroke: rgb(237, 30, 121); stroke-width: 5.43px; stroke-dasharray: 5.77, 10.18, 0, 0" />
            </g>
            <g transform="matrix(1.51371,0,0,0.956468,-452.99,58.0423)">
              <path d="M604.78,633.282L877.032,634.306" style="fill: none; stroke: rgb(237, 30, 121); stroke-width: 5.43px; stroke-dasharray: 5.77, 10.18, 0, 0" />
            </g>
            <g transform="matrix(1.51371,0,0,0.956468,-452.99,68.3789)">
              <path d="M604.78,633.282L877.032,634.306" style="fill: none; stroke: rgb(237, 30, 121); stroke-width: 5.43px; stroke-dasharray: 5.77, 10.18, 0, 0" />
            </g>
            <g transform="matrix(1.51371,0,0,0.956468,-452.99,89.0522)">
              <path d="M604.78,633.282L877.032,634.306" style="fill: none; stroke: rgb(237, 30, 121); stroke-width: 5.43px; stroke-dasharray: 5.77, 10.18, 0, 0" />
            </g>
            <g transform="matrix(1.51371,0,0,0.956468,-452.99,99.3888)">
              <path d="M604.78,633.282L877.032,634.306" style="fill: none; stroke: rgb(237, 30, 121); stroke-width: 5.43px; stroke-dasharray: 5.77, 10.18, 0, 0" />
            </g>
            <g transform="matrix(1.51371,0,0,0.956468,-452.99,130.399)">
              <path d="M604.78,633.282L877.032,634.306" style="fill: none; stroke: rgb(237, 30, 121); stroke-width: 5.43px; stroke-dasharray: 5.77, 10.18, 0, 0" />
            </g>
          </g>
          <rect x="462.47" y="633.282" width="419.335" height="322.449" style="fill: none; stroke: rgb(237, 30, 121); stroke-width: 5.32px; stroke-dasharray: 5.65, 9.98, 0, 0" />
        </g>
      </g>
    </g>
    <g id="circles" opacity="0.5">
      <g transform="matrix(1,0,0,1,-118.853,-94.5905)">
        <circle cx="155.124" cy="124.814" r="124.814" style="fill: none; stroke: rgb(255, 207, 0); stroke-width: 4px; stroke-dasharray: 4.25, 7.5, 0, 0" />
      </g>
      <g transform="matrix(0.928318,0,0,0.928318,-107.734,-85.6437)">
        <circle cx="155.124" cy="124.814" r="124.814" style="fill: none; stroke: rgb(255, 207, 0); stroke-width: 4.31px; stroke-dasharray: 4.58, 8.08, 0, 0" />
      </g>
      <g transform="matrix(0.691272,0,0,0.691272,-70.9623,-56.0571)">
        <circle cx="155.124" cy="124.814" r="124.814" style="fill: none; stroke: rgb(255, 108, 0); stroke-width: 5.79px; stroke-dasharray: 6.15, 10.85, 0, 0" />
      </g>
    </g>
    <g id="pipes">
      <g id="p3">
        <g transform="matrix(-1,0,0,-1.23406,809.786,653.865)">
          <path
            d="M739.743,143.584C742.2,143.904 763.807,143.335 766.285,143.374C774.101,143.496 781.589,141.726 788.792,138.73C809.321,130.19 826.172,112.989 841.732,97.688C893.829,46.459 943.376,-14.345 1023.83,-2.678C1039.04,-0.471 1077.35,3.66 1084.33,20.769C1093.6,43.478 1018.75,47.744 1004.3,57C986.6,68.337 927.803,111.666 914.354,121.391C871.096,152.672 839.941,199.123 786.168,200.915C778.512,201.17 740.594,200.706 740.594,200.706C740.594,200.706 739.274,153.317 739.743,143.584Z"
            style="fill: rgb(255, 184, 104); fill-opacity: 0.8; stroke: rgb(162, 85, 67); stroke-opacity: 0.8; stroke-width: 3.56px"
          />
        </g>
        <g transform="matrix(1,0,0,1,-666.673,275.846)">
          <path
            d="M754.975,116.711C754.975,113.161 752.092,110.278 748.542,110.278L717.18,110.278C713.629,110.278 710.747,113.161 710.747,116.711L710.747,215.627C710.747,219.178 713.629,222.06 717.18,222.06L748.542,222.06C752.092,222.06 754.975,219.178 754.975,215.627L754.975,116.711Z"
            style="fill: rgb(92, 231, 255); stroke: rgb(79, 173, 255); stroke-width: 4px"
          />
        </g>
      </g>
      <g id="p2">
        <g transform="matrix(1,0,0,1.23406,0,89.0184)">
          <path
            d="M739.743,143.584C742.2,143.904 763.807,143.335 766.285,143.374C774.101,143.496 781.589,141.726 788.792,138.73C809.321,130.19 826.172,112.989 841.732,97.688C893.829,46.459 943.376,-14.345 1023.83,-2.678C1039.04,-0.471 1077.35,3.66 1084.33,20.769C1093.6,43.478 1018.75,47.744 1004.3,57C986.6,68.337 927.803,111.666 914.354,121.391C871.096,152.672 839.941,199.123 786.168,200.915C778.512,201.17 740.594,200.706 740.594,200.706C740.594,200.706 739.274,153.317 739.743,143.584Z"
            style="fill: rgb(92, 231, 255); fill-opacity: 0.8; stroke: rgb(79, 173, 255); stroke-opacity: 0.8; stroke-width: 3.56px"
          />
        </g>
        <g transform="matrix(1,0,0,1,0,135.354)">
          <path
            d="M754.975,116.711C754.975,113.161 752.092,110.278 748.542,110.278L717.18,110.278C713.629,110.278 710.747,113.161 710.747,116.711L710.747,215.627C710.747,219.178 713.629,222.06 717.18,222.06L748.542,222.06C752.092,222.06 754.975,219.178 754.975,215.627L754.975,116.711Z"
            style="fill: rgb(255, 184, 104); stroke: rgb(203, 100, 74); stroke-width: 4px"
          />
        </g>
      </g>
      <g id="p1">
        <g transform="matrix(1,0,0,1.23406,0,-47.9304)">
          <path
            d="M739.743,143.584C742.2,143.904 763.807,143.335 766.285,143.374C774.101,143.496 781.589,141.726 788.792,138.73C809.321,130.19 826.172,112.989 841.732,97.688C893.829,46.459 943.376,-14.345 1023.83,-2.678C1039.04,-0.471 1077.35,3.66 1084.33,20.769C1093.6,43.478 1018.75,47.744 1004.3,57C986.6,68.337 927.803,111.666 914.354,121.391C871.096,152.672 839.941,199.123 786.168,200.915C778.512,201.17 740.594,200.706 740.594,200.706C740.594,200.706 739.274,153.317 739.743,143.584Z"
            style="fill: rgb(248, 126, 224); fill-opacity: 0.8; stroke: rgb(225, 82, 197); stroke-opacity: 0.8; stroke-width: 3.56px"
          />
        </g>
        <path
          d="M754.975,116.711C754.975,113.161 752.092,110.278 748.542,110.278L717.18,110.278C713.629,110.278 710.747,113.161 710.747,116.711L710.747,215.627C710.747,219.178 713.629,222.06 717.18,222.06L748.542,222.06C752.092,222.06 754.975,219.178 754.975,215.627L754.975,116.711Z"
          style="fill: rgb(166, 240, 98); stroke: rgb(83, 134, 75); stroke-width: 4px"
        />
      </g>
    </g>
    <path
      id="border"
      d="M800,801.235L800,-4.106L-0,-4.106L0,801.235L800,801.235ZM260.875,30.644L30.644,30.644C30.644,30.644 30.644,769.356 30.644,769.356C30.644,769.356 769.356,769.356 769.356,769.356L769.356,30.644L539.125,30.644L539.125,61.806L260.875,61.806L260.875,30.644Z"
      style="fill: url(#Punk-glassesPunk-glassesPunk-glassesPunk-glasses_Linear8)"
    />
    <g id="guide" transform="matrix(1,0,0,1.04284,1.75676,-22.4672)">
      <rect x="82.193" y="95.569" width="632.101" height="428.927" style="fill: url(#Punk-glassesPunk-glassesPunk-glassesPunk-glasses_Linear9); stroke: rgb(251, 219, 59); stroke-width: 4.8px" />
    </g>
    <g transform="translate(10,-50)">
      <g id="accessories-front" >
        <g>
          <g id="main-glasses" >
            <path
              id="cast-shadow"
              
              d="M240.749,370.394C240.749,370.394 252.992,399.53 272.915,416.368C286.546,427.888 297.232,438.445 311.509,439.217C322.771,439.826 354.861,413.645 356.811,407.573C358.76,401.5 358.119,388.178 358.119,388.178L326.24,412.425L304.881,424.988L280.748,407.623L240.749,370.394ZM558.24,370.394C558.24,370.394 545.997,399.53 526.074,416.368C512.443,427.888 501.757,438.445 487.48,439.217C476.218,439.826 444.128,413.645 442.178,407.573C440.229,401.5 440.87,388.178 440.87,388.178L472.75,412.425L494.108,424.988L518.241,407.623L558.24,370.394Z"
              style="fill: rgb(56, 25, 57); fill-opacity: 0.5"
            />
            <path
              d="M386.919,338.589L385.618,330.126C391.308,330.345 397.007,330.196 402.856,330.226C406.084,330.243 411.735,329.813 414.7,331.624C415.62,332.186 415.922,336.088 416.055,336.977C416.626,340.796 419.035,348.333 415.444,351.596C414.702,352.271 412.734,350.925 412.04,350.629C408.972,349.319 405.888,348.816 402.562,348.622C398.341,348.376 393.704,348.944 389.618,350.038C389.159,350.161 385.579,351.747 385.315,351.532C384.824,351.132 385.36,348.92 385.422,348.425C385.835,345.134 386.531,341.879 386.919,338.589Z"
              style="fill: rgb(217, 66, 62)"
            />
            <path
              d="M384.799,338.625C384.407,341.814 383.739,344.972 383.338,348.164C383.278,348.641 382.917,350.45 383.053,351.399C383.172,352.24 383.569,352.819 383.989,353.16C384.269,353.388 384.845,353.748 385.759,353.628C386.584,353.521 389.722,352.184 390.161,352.066C394.037,351.029 398.436,350.485 402.44,350.718C405.518,350.898 408.375,351.347 411.215,352.56C411.775,352.799 413.074,353.586 414.084,353.797C415.219,354.034 416.184,353.762 416.857,353.15C418.71,351.466 419.452,348.946 419.475,346.158C419.503,342.801 418.487,339.039 418.132,336.667C418.033,336.001 417.829,333.758 417.387,332.264C417.021,331.028 416.364,330.18 415.794,329.832C414.375,328.964 412.454,328.48 410.397,328.266C407.747,327.989 404.859,328.137 402.867,328.126C397.042,328.096 391.365,328.246 385.698,328.027C385.072,328.003 384.468,328.26 384.05,328.728C383.633,329.196 383.447,329.825 383.542,330.445L384.8,338.623L384.799,338.625ZM386.919,338.589L385.618,330.126C391.308,330.345 397.007,330.196 402.856,330.226C406.084,330.243 411.735,329.813 414.7,331.624C415.62,332.186 415.922,336.088 416.055,336.977C416.626,340.796 419.035,348.333 415.444,351.596C414.702,352.271 412.734,350.925 412.04,350.629C408.972,349.319 405.888,348.816 402.562,348.622C398.341,348.376 393.704,348.944 389.618,350.038C389.159,350.161 385.579,351.747 385.315,351.532C384.824,351.132 385.36,348.92 385.422,348.425C385.835,345.134 386.531,341.879 386.919,338.589Z"
            />
            <path d="M397.051,333.494C397.051,333.494 399.83,332.916 403.277,333.622" style="fill: none; stroke: rgb(252, 255, 216); stroke-width: 3.4px" />
            <g>
              <path
                d="M415.981,343.394C414.359,342.652 415.297,331.212 415.375,329.933C416.277,315.114 421.492,302.163 434.465,294.036C447.058,286.146 460.005,282.608 473.295,290.606C477.225,292.97 483.209,301.751 487.762,301.986C494.405,302.33 504.044,294.275 510.423,292.266C528.39,286.608 548.034,294.629 554.561,312.47C568.41,350.323 544.986,381.21 517.174,404.873C510.583,410.481 497.048,424.755 487.217,424.448C481.737,424.276 474.546,416.601 470.435,413.646C454.596,402.258 437.248,389.467 426.607,372.82"
                style="fill: rgb(145, 116, 157); fill-opacity: 0.76"
              />
              <g transform="matrix(0.676832,0,0,0.733809,135.131,78.0192)">
                <path
                  d="M523.234,291.44C492.582,267.783 450.86,273.167 427.816,292.903C401.859,315.133 397.095,359.469 422.944,403.929C438.551,432.296 477.611,461.365 510.772,480.299C518.408,484.658 528.06,484.658 535.695,480.299C568.851,461.368 607.906,432.304 623.538,403.903C649.371,359.452 644.604,315.128 618.651,292.902C595.607,273.167 553.885,267.783 523.234,291.44ZM523.234,325.886C543.061,291.924 582.714,291.924 602.542,308.905C622.369,325.886 622.369,359.847 602.542,393.808C588.663,419.279 552.974,444.75 523.234,461.731C493.493,444.75 457.805,419.279 443.926,393.808C424.099,359.847 424.099,325.886 443.926,308.905C463.753,291.924 503.407,291.924 523.234,325.886Z"
                  style="fill: rgb(217, 66, 62)"
                />
                <clipPath id="Punk-glasses_4">
                  <path
                    d="M523.234,291.44C492.582,267.783 450.86,273.167 427.816,292.903C401.859,315.133 397.095,359.469 422.944,403.929C438.551,432.296 477.611,461.365 510.772,480.299C518.408,484.658 528.06,484.658 535.695,480.299C568.851,461.368 607.906,432.304 623.538,403.903C649.371,359.452 644.604,315.128 618.651,292.902C595.607,273.167 553.885,267.783 523.234,291.44ZM523.234,325.886C543.061,291.924 582.714,291.924 602.542,308.905C622.369,325.886 622.369,359.847 602.542,393.808C588.663,419.279 552.974,444.75 523.234,461.731C493.493,444.75 457.805,419.279 443.926,393.808C424.099,359.847 424.099,325.886 443.926,308.905C463.753,291.924 503.407,291.924 523.234,325.886Z"
                  />
                </clipPath>
                <g clip-path="url(#Punk-glasses_3)">
                  <g transform="matrix(1.47747,0,0,1.36275,-197.369,-106.381)">
                    <path d="M535.363,288.989C535.363,288.989 549.286,292.503 556.627,307.621" style="fill: none; stroke: rgb(252, 255, 216); stroke-opacity: 0.8; stroke-width: 3.65px" />
                  </g>
                </g>
                <path
                  d="M523.234,291.44C492.582,267.783 450.86,273.167 427.816,292.903C401.859,315.133 397.095,359.469 422.944,403.929C438.551,432.296 477.611,461.365 510.772,480.299C518.408,484.658 528.06,484.658 535.695,480.299C568.851,461.368 607.906,432.304 623.538,403.903C649.371,359.452 644.604,315.128 618.651,292.902C595.607,273.167 553.885,267.783 523.234,291.44ZM523.234,325.886C543.061,291.924 582.714,291.924 602.542,308.905C622.369,325.886 622.369,359.847 602.542,393.808C588.663,419.279 552.974,444.75 523.234,461.731C493.493,444.75 457.805,419.279 443.926,393.808C424.099,359.847 424.099,325.886 443.926,308.905C463.753,291.924 503.407,291.924 523.234,325.886Z"
                  style="fill: none; stroke: black; stroke-width: 2.97px; stroke-linecap: butt; stroke-miterlimit: 2"
                />
              </g>
              <g transform="matrix(0.706847,0,0,0.694433,131.41,112.764)">
                <circle cx="468.545" cy="390.077" r="6.204" style="fill: rgb(252, 255, 216); fill-opacity: 0.8" />
              </g>
              <g transform="matrix(0.999345,-0.0361845,0.0361845,0.999345,-12.2184,16.3568)">
                <path d="M439.333,319.103C439.333,319.103 432.76,342.597 453.235,372.371" style="fill: none; stroke: rgb(252, 255, 216); stroke-opacity: 0.8; stroke-width: 7.1px" />
              </g>
            </g>
            <g>
              <g transform="matrix(-1,0,0,1,798.658,0)">
                <path
                  d="M415.981,343.394C414.359,342.652 415.297,331.212 415.375,329.933C416.277,315.114 421.492,302.163 434.465,294.036C447.058,286.146 460.005,282.608 473.295,290.606C477.225,292.97 483.209,301.751 487.762,301.986C494.405,302.33 504.044,294.275 510.423,292.266C528.39,286.608 548.034,294.629 554.561,312.47C568.41,350.323 544.986,381.21 517.174,404.873C510.583,410.481 497.048,424.755 487.217,424.448C481.737,424.276 474.546,416.601 470.435,413.646C454.596,402.258 437.248,389.467 426.607,372.82"
                  style="fill: rgb(145, 116, 157); fill-opacity: 0.76"
                />
              </g>
              <g transform="matrix(0.706847,0,0,0.694433,-47.5268,112.764)">
                <circle cx="468.545" cy="390.077" r="6.204" style="fill: rgb(252, 255, 216); fill-opacity: 0.8" />
              </g>
              <g transform="matrix(0.999345,-0.0361845,0.0361845,0.999345,-191.155,16.3568)">
                <path d="M439.333,319.103C439.333,319.103 432.76,342.597 453.235,372.371" style="fill: none; stroke: rgb(252, 255, 216); stroke-opacity: 0.8; stroke-width: 7.1px" />
              </g>
              <g transform="matrix(-0.676832,0,0,0.733809,664.831,78.0192)">
                <path
                  d="M523.234,291.44C553.885,267.783 595.607,273.167 618.651,292.902C644.609,315.133 649.373,359.469 623.523,403.929C607.916,432.296 568.856,461.365 535.695,480.299C528.06,484.658 518.408,484.658 510.772,480.299C477.616,461.368 438.561,432.304 422.929,403.903C397.097,359.452 401.864,315.128 427.816,292.903C450.86,273.167 492.582,267.783 523.234,291.44ZM523.234,325.886C543.061,291.924 582.714,291.924 602.542,308.905C622.369,325.886 622.369,359.847 602.542,393.808C588.663,419.279 552.974,444.75 523.234,461.731C493.493,444.75 457.805,419.279 443.926,393.808C424.099,359.847 424.099,325.886 443.926,308.905C463.753,291.924 503.407,291.924 523.234,325.886Z"
                  style="fill: rgb(217, 66, 62)"
                />
                <clipPath id="Punk-glasses_5">
                  <path
                    d="M523.234,291.44C553.885,267.783 595.607,273.167 618.651,292.902C644.609,315.133 649.373,359.469 623.523,403.929C607.916,432.296 568.856,461.365 535.695,480.299C528.06,484.658 518.408,484.658 510.772,480.299C477.616,461.368 438.561,432.304 422.929,403.903C397.097,359.452 401.864,315.128 427.816,292.903C450.86,273.167 492.582,267.783 523.234,291.44ZM523.234,325.886C543.061,291.924 582.714,291.924 602.542,308.905C622.369,325.886 622.369,359.847 602.542,393.808C588.663,419.279 552.974,444.75 523.234,461.731C493.493,444.75 457.805,419.279 443.926,393.808C424.099,359.847 424.099,325.886 443.926,308.905C463.753,291.924 503.407,291.924 523.234,325.886Z"
                  />
                </clipPath>
                <g clip-path="url(#Punk-glasses_4)">
                  <g transform="matrix(-1.47747,0,0,1.36275,1243.57,-106.381)">
                    <path d="M535.363,288.989C535.363,288.989 549.286,292.503 556.627,307.621" style="fill: none; stroke: rgb(252, 255, 216); stroke-opacity: 0.8; stroke-width: 3.65px" />
                  </g>
                </g>
                <path
                  d="M523.234,291.44C553.885,267.783 595.607,273.167 618.651,292.902C644.609,315.133 649.373,359.469 623.523,403.929C607.916,432.296 568.856,461.365 535.695,480.299C528.06,484.658 518.408,484.658 510.772,480.299C477.616,461.368 438.561,432.304 422.929,403.903C397.097,359.452 401.864,315.128 427.816,292.903C450.86,273.167 492.582,267.783 523.234,291.44ZM523.234,325.886C543.061,291.924 582.714,291.924 602.542,308.905C622.369,325.886 622.369,359.847 602.542,393.808C588.663,419.279 552.974,444.75 523.234,461.731C493.493,444.75 457.805,419.279 443.926,393.808C424.099,359.847 424.099,325.886 443.926,308.905C463.753,291.924 503.407,291.924 523.234,325.886Z"
                  style="fill: none; stroke: black; stroke-width: 2.97px; stroke-linecap: butt; stroke-miterlimit: 2"
                />
              </g>
            </g>
          </g>
          <g id="clown-nose"  transform="matrix(1.46289,0,0,1.46289,-185.188,-203.857)">
            <path
              id="Cast-shadow"
              
              d="M361.604,443.444C364.444,452.534 363.516,463.122 386.387,480.019C404.132,493.129 422.865,477.498 432.297,459.466C435.942,452.498 439.453,442.032 435.198,434.633C431.03,427.386 420.734,425.288 413.164,424.501C405.217,423.674 397.25,423.932 389.342,424.989"
              style="fill: rgb(56, 25, 57); fill-opacity: 0.5"
            />
            <g id="main-nose" >
              <g transform="matrix(0.683577,0,0,0.683577,126.591,139.352)">
                <path
                  d="M366.935,407.793C366.541,407.826 366.619,405.406 366.625,405.226C366.83,398.192 366.781,394.007 371.007,388.443C373.711,384.884 381.94,372.477 385.307,362.711C387.62,356.004 388.173,351.996 393.747,351.412C402.861,350.458 407.302,350.554 411.406,353.251C412.114,353.716 416.023,368.161 424.361,381.843C426.33,385.073 429.759,391.144 427.354,394.837C425.105,398.29 416.088,398.25 412.56,398.909L366.935,407.793Z"
                  style="fill: rgb(4, 244, 46)"
                />
                <clipPath id="Punk-glasses_6">
                  <path
                    d="M366.935,407.793C366.541,407.826 366.619,405.406 366.625,405.226C366.83,398.192 366.781,394.007 371.007,388.443C373.711,384.884 381.94,372.477 385.307,362.711C387.62,356.004 388.173,351.996 393.747,351.412C402.861,350.458 407.302,350.554 411.406,353.251C412.114,353.716 416.023,368.161 424.361,381.843C426.33,385.073 429.759,391.144 427.354,394.837C425.105,398.29 416.088,398.25 412.56,398.909L366.935,407.793Z"
                  />
                </clipPath>
                <g clip-path="url(#Punk-glasses_5)">
                  <g transform="matrix(0.779593,0,0,0.837749,86.3664,59.7265)">
                    <path
                      d="M381.126,381.062C381.488,381.062 383.342,375.983 383.504,375.59C385.673,370.326 387.453,364.861 390.033,359.778C390.798,358.269 392.572,355.29 394.738,356.33C397.221,357.521 396.167,363.294 395.931,365.302C395.513,368.853 395.593,374.501 392.945,377.293C390.689,379.673 386.061,380.408 383.023,381.297"
                      style="fill: rgb(252, 255, 216); fill-opacity: 0.9"
                    />
                  </g>
                </g>
                <path
                  d="M367.107,409.886C367.184,409.88 367.261,409.869 367.336,409.855L412.951,400.973C415.09,400.574 419.217,400.422 422.668,399.617C425.557,398.944 427.975,397.732 429.114,395.983C430.375,394.046 430.527,391.624 429.953,389.127C429.244,386.046 427.429,382.841 426.155,380.75C419.575,369.953 415.801,358.67 414.193,354.356C413.794,353.287 413.481,352.572 413.292,352.267C413.032,351.847 412.75,351.621 412.56,351.496C408.132,348.586 403.361,348.294 393.528,349.324C389.264,349.77 387.278,351.754 385.756,355.144C384.939,356.964 384.272,359.272 383.322,362.027C380.031,371.572 371.977,383.694 369.335,387.173C364.797,393.147 364.746,397.613 364.526,405.165C364.521,405.32 364.486,406.871 364.635,407.713C364.74,408.301 364.959,408.736 365.143,408.985C365.692,409.725 366.399,409.944 367.107,409.886ZM366.935,407.793C366.541,407.826 366.619,405.406 366.625,405.226C366.83,398.192 366.781,394.007 371.007,388.443C373.711,384.884 381.94,372.477 385.307,362.711C387.62,356.004 388.173,351.996 393.747,351.412C402.861,350.458 407.302,350.554 411.406,353.251C412.114,353.716 416.023,368.161 424.361,381.843C426.33,385.073 429.759,391.144 427.354,394.837C425.105,398.29 416.088,398.25 412.56,398.909L366.935,407.793Z"
                />
              </g>
              <g transform="matrix(1,0,0,1,-2.32981,-10.0827)">
                <circle cx="402.398" cy="444.465" r="38.465" style="fill: rgb(4, 244, 46)" />
                <clipPath id="Punk-glasses_7">
                  <circle cx="402.398" cy="444.465" r="38.465" />
                </clipPath>
                <g clip-path="url(#Punk-glasses_6)">
                  <g transform="matrix(1,0,0,1,2.32981,10.0827)">
                    <path
                      d="M392.452,475.412C393.149,474.862 390.897,474.555 390.113,474.138C388.386,473.22 386.65,472.344 384.979,471.323C380.123,468.355 376.589,463.575 372.114,460.025C364.239,453.776 363.976,436.528 368.062,424.448C371.44,414.459 378.737,408.791 378.737,408.791C378.737,408.791 377.75,418.5 382.135,419.854C388.233,421.737 392.294,420.384 394.479,415.203C397.959,406.951 388.854,402.178 388.854,402.178C388.854,402.178 401.137,398.542 409.958,401.013C421.242,404.174 430.267,412.454 436.119,422.418C438.142,425.862 439.729,429.486 441.067,433.244C441.245,433.743 442.986,439.012 443.345,438.72C446.274,436.34 440.195,423.816 439.181,421.607C431.754,405.43 418.129,392.344 400.089,389.377C343.766,380.113 330.702,470.732 386.33,478.194"
                      style="fill: rgb(252, 255, 216); fill-opacity: 0.9"
                    />
                  </g>
                  <g transform="matrix(1,0,0,1,2.32981,10.0827)">
                    <path
                      d="M393.785,467.785C393.805,467.941 395.112,467.908 395.244,467.913C399.459,468.059 408.575,467.293 412.275,465.06C419.321,460.805 419.286,455.141 423.698,448.82C426.299,445.095 427.75,444.783 429.799,440.735C433.192,434.031 432.419,431.21 432.929,427.448C433.103,426.166 432.976,421.985 432.976,421.985C432.976,421.985 436.514,427.884 434.649,440.491C432.601,454.329 422.25,466.733 404.819,469.005C401.686,469.414 393.785,467.785 393.785,467.785Z"
                    />
                  </g>
                </g>
                <circle cx="402.398" cy="444.465" r="38.465" style="fill: none; stroke: black; stroke-width: 1.44px" />
              </g>
            </g>
          </g>
        </g>
      </g>
    </g>
    <defs>
      <linearGradient id="Punk-glassesPunk-glassesPunk-glassesPunk-glasses_Linear1" x1="0" y1="0" x2="1" y2="0" gradientUnits="userSpaceOnUse" gradientTransform="matrix(6.69055e-14,-1092.65,1092.65,6.69055e-14,400,1092.65)">
        <stop offset="0" style="stop-color: rgb(7, 30, 41); stop-opacity: 1" />
        <stop offset="1" style="stop-color: rgb(99, 40, 118); stop-opacity: 1" />
      </linearGradient>
      <linearGradient id="Punk-glassesPunk-glassesPunk-glassesPunk-glasses_Linear3" x1="0" y1="0" x2="1" y2="0" gradientUnits="userSpaceOnUse" gradientTransform="matrix(401.647,4.68177e-14,-2.92239e-13,401.647,210.808,610.231)">
        <stop offset="0" style="stop-color: rgb(251, 219, 59); stop-opacity: 1" />
        <stop offset="0.31" style="stop-color: rgb(255, 53, 142); stop-opacity: 1" />
        <stop offset="0.5" style="stop-color: rgb(178, 101, 255); stop-opacity: 1" />
        <stop offset="0.83" style="stop-color: rgb(41, 171, 226); stop-opacity: 1" />
        <stop offset="1" style="stop-color: rgb(41, 171, 226); stop-opacity: 1" />
      </linearGradient>
      <linearGradient id="Punk-glassesPunk-glassesPunk-glassesPunk-glasses_Linear5" x1="0" y1="0" x2="1" y2="0" gradientUnits="userSpaceOnUse" gradientTransform="matrix(401.647,4.68177e-14,-2.92239e-13,401.647,210.808,610.231)">
        <stop offset="0" style="stop-color: rgb(251, 219, 59); stop-opacity: 1" />
        <stop offset="0.31" style="stop-color: rgb(255, 53, 142); stop-opacity: 1" />
        <stop offset="0.5" style="stop-color: rgb(178, 101, 255); stop-opacity: 1" />
        <stop offset="0.83" style="stop-color: rgb(41, 171, 226); stop-opacity: 1" />
        <stop offset="1" style="stop-color: rgb(41, 171, 226); stop-opacity: 1" />
      </linearGradient>
      <linearGradient id="Punk-glassesPunk-glassesPunk-glassesPunk-glasses_Linear8" x1="0" y1="0" x2="1" y2="0" gradientUnits="userSpaceOnUse" gradientTransform="matrix(763.783,-764.481,769.584,768.882,17.1548,782.607)">
        <stop offset="0" style="stop-color: rgb(87, 39, 133); stop-opacity: 1" />
        <stop offset="0.25" style="stop-color: rgb(237, 30, 121); stop-opacity: 1" />
        <stop offset="0.51" style="stop-color: rgb(41, 171, 226); stop-opacity: 1" />
        <stop offset="0.76" style="stop-color: rgb(241, 90, 36); stop-opacity: 1" />
        <stop offset="1" style="stop-color: rgb(251, 176, 59); stop-opacity: 1" />
      </linearGradient>
      <linearGradient id="Punk-glassesPunk-glassesPunk-glassesPunk-glasses_Linear9" x1="0" y1="0" x2="1" y2="0" gradientUnits="userSpaceOnUse" gradientTransform="matrix(3.89688e-14,-610.267,636.408,3.73681e-14,398.243,614.74)">
        <stop offset="0" style="stop-color: rgb(80, 225, 255); stop-opacity: 1" />
        <stop offset="0.44" style="stop-color: rgb(219, 249, 255); stop-opacity: 1" />
        <stop offset="1" style="stop-color: white; stop-opacity: 1" />
      </linearGradient>
    </defs>
  </g>
</svg>
