<svg width="100%" height="100%" viewBox="0 0 800 800" version="1.1" xmlns="http://www.w3.org/2000/svg" style="fill-rule: evenodd; clip-rule: evenodd; stroke-linejoin: round; stroke-miterlimit: 1.5">
  <g transform="matrix(1,0,0,1,1.04681,-120.203)">
    <g id="accessories-middle">
      <g id="Cronic-tshirt">
        <path
          id="tshirt"
          d="M-21.371,808.216C1.217,789.932 53.61,758.088 78.351,744.23C99.324,732.483 122.339,717.575 142.638,707.589C161.675,698.224 217.377,670.918 228.72,666.957C233.008,665.459 250.223,653.822 252.813,658.941C254.609,662.493 266.997,690.021 268.897,692.964C276.925,705.403 281.278,718.418 294.397,726.678C314.749,739.492 340.955,739.321 363.581,744.946C387.368,750.86 407.026,762.486 432.238,762.944C466.402,763.565 502.406,743.092 523.8,717.419C530.902,708.898 550.677,663.666 553.661,662.852C555.404,662.377 564.332,666.773 568.532,669.674C576.538,675.203 583.387,677.522 592.402,681.044C631.958,696.495 659.394,713.602 695.533,730.447C707.161,735.866 724.393,744.904 735.69,751.021C759.727,764.038 783.339,780.198 797.902,793.242C818.558,811.743 816.71,821.937 821.405,844.515C824.095,857.453 831.493,960.446 822.528,962.215C771.317,972.317 4.615,980.049 -26.418,957.911C-45.818,944.073 -44.359,843.967 -33.459,831.237L-21.371,808.216Z"
          style="fill: rgb(201, 100, 133)"
        />
        <clipPath id="Cronic-tshirt_0">
          <path
            id="tshirt1"
            d="M-21.371,808.216C1.217,789.932 53.61,758.088 78.351,744.23C99.324,732.483 122.339,717.575 142.638,707.589C161.675,698.224 217.377,670.918 228.72,666.957C233.008,665.459 250.223,653.822 252.813,658.941C254.609,662.493 266.997,690.021 268.897,692.964C276.925,705.403 281.278,718.418 294.397,726.678C314.749,739.492 340.955,739.321 363.581,744.946C387.368,750.86 407.026,762.486 432.238,762.944C466.402,763.565 502.406,743.092 523.8,717.419C530.902,708.898 550.677,663.666 553.661,662.852C555.404,662.377 564.332,666.773 568.532,669.674C576.538,675.203 583.387,677.522 592.402,681.044C631.958,696.495 659.394,713.602 695.533,730.447C707.161,735.866 724.393,744.904 735.69,751.021C759.727,764.038 783.339,780.198 797.902,793.242C818.558,811.743 816.71,821.937 821.405,844.515C824.095,857.453 831.493,960.446 822.528,962.215C771.317,972.317 4.615,980.049 -26.418,957.911C-45.818,944.073 -44.359,843.967 -33.459,831.237L-21.371,808.216Z"
          />
        </clipPath>
        <g clip-path="url(#Cronic-tshirt_0)">
          <g id="inner-design-2" transform="matrix(0.167564,-0.0967434,0.0967434,0.167564,221.79,902.292)">
            <g>
              <g transform="matrix(-0.840579,-0.485308,0.471455,-0.816584,579.574,801.36)">
                <path d="M402.577,45.577L397.114,611.114" style="fill: none; stroke: rgb(202, 197, 60); stroke-width: 34.43px" />
              </g>
              <g transform="matrix(0.659657,-0.111653,0.111653,0.659657,136.811,178.29)">
                <path
                  d="M501.127,119.232C514.685,118.682 526.683,110.294 531.855,97.75C543.742,68.921 544.417,48.276 541.429,32.635C537.191,10.457 524.206,-2.485 515.06,-15.628C500.349,-36.767 495.253,-44.786 493.828,-46.564C490.281,-50.985 487.17,-53.098 485.418,-54.245C476.18,-60.29 468.028,-60.39 462.238,-59.708C450.657,-58.343 440.79,-52.7 434.793,-39.911C434.228,-38.708 432.422,-34.367 431.89,-28.067C428.176,-15.084 421.042,16.051 425.394,51.518C427.935,72.225 435.996,86.212 445.137,96.039C468.068,120.688 501.127,119.232 501.127,119.232ZM499.718,84.499C499.718,84.499 464.639,85.922 459.898,47.284C455.214,9.11 466.673,-22.922 466.673,-22.922C465.667,-27.814 464.647,-27.212 486.526,4.228C497.789,20.413 520.473,34.162 499.718,84.499Z"
                  style="fill: rgb(202, 197, 60)"
                />
              </g>
              <g transform="matrix(-0.258943,-0.616897,-0.616897,0.258943,683.287,479.281)">
                <path
                  d="M531.855,97.75C526.683,110.294 514.685,118.682 501.127,119.232C501.127,119.232 468.068,120.688 445.137,96.039C435.996,86.212 427.935,72.225 425.394,51.518C421.044,16.066 428.17,-15.057 431.897,-28.107C432.42,-34.362 434.228,-38.708 434.793,-39.911C440.79,-52.7 450.657,-58.343 462.238,-59.708C468.028,-60.39 476.18,-60.29 485.418,-54.245C487.17,-53.098 490.281,-50.985 493.828,-46.564C495.253,-44.786 500.349,-36.767 515.06,-15.628C524.206,-2.485 537.191,10.457 541.429,32.635C544.417,48.276 543.742,68.921 531.855,97.75ZM499.718,84.499C499.718,84.499 464.639,85.922 459.898,47.284C455.214,9.11 466.673,-22.922 466.673,-22.922C465.667,-27.814 464.647,-27.212 486.526,4.228C497.789,20.413 520.473,34.162 499.718,84.499Z"
                  style="fill: rgb(202, 197, 60)"
                />
              </g>
            </g>
            <g transform="matrix(0.5,0.866025,-0.866025,0.5,491.036,-178.611)">
              <g transform="matrix(-0.840579,-0.485308,0.471455,-0.816584,579.574,801.36)">
                <path d="M402.577,45.577L397.114,611.114" style="fill: none; stroke: rgb(202, 197, 60); stroke-width: 34.43px" />
              </g>
              <g transform="matrix(0.552806,-0.0935678,0.0935678,0.552806,193.129,181.162)">
                <path
                  d="M501.399,125.946C517.577,125.29 531.895,115.28 538.067,100.311C550.647,69.801 551.192,47.928 548.029,31.374C543.576,8.074 530.184,-5.658 520.575,-19.466C505.685,-40.863 500.512,-48.969 499.069,-50.768C494.866,-56.008 491.174,-58.508 489.097,-59.867C478.08,-67.077 468.357,-67.195 461.452,-66.381C447.635,-64.753 435.864,-58.02 428.709,-42.764C428.059,-41.377 425.958,-36.446 425.254,-29.273C421.349,-15.417 414.303,16.3 418.725,52.336C421.482,74.806 430.299,89.953 440.218,100.615C465.272,127.548 501.399,125.946 501.399,125.946ZM499.718,84.499C499.718,84.499 464.639,85.922 459.898,47.284C455.214,9.11 466.673,-22.922 466.673,-22.922C465.667,-27.814 464.647,-27.212 486.526,4.228C497.789,20.413 520.473,34.162 499.718,84.499Z"
                  style="fill: rgb(202, 197, 60)"
                />
              </g>
              <g transform="matrix(-0.216999,-0.516972,-0.516972,0.216999,651.088,433.399)">
                <path
                  d="M538.067,100.311C531.895,115.28 517.577,125.29 501.399,125.946C501.399,125.946 465.272,127.548 440.218,100.615C430.299,89.953 421.482,74.806 418.725,52.336C414.303,16.302 421.348,-15.412 425.271,-29.358C425.958,-36.448 428.059,-41.378 428.709,-42.764C435.864,-58.02 447.635,-64.753 461.452,-66.381C468.357,-67.195 478.08,-67.077 489.097,-59.867C491.174,-58.508 494.866,-56.008 499.069,-50.768C500.512,-48.969 505.685,-40.863 520.575,-19.466C530.184,-5.658 543.576,8.074 548.029,31.374C551.192,47.928 550.647,69.801 538.067,100.311ZM499.718,84.499C499.718,84.499 464.639,85.922 459.898,47.284C455.214,9.11 466.673,-22.922 466.673,-22.922C465.667,-27.814 464.647,-27.212 486.526,4.228C497.789,20.413 520.473,34.162 499.718,84.499Z"
                  style="fill: rgb(202, 197, 60)"
                />
              </g>
            </g>
            <g transform="matrix(-0.5,0.866025,-0.866025,-0.5,891.235,157.333)">
              <g transform="matrix(-0.665785,0.112691,-0.112691,-0.665785,665.555,496.316)">
                <path
                  d="M501.114,118.913C514.547,118.368 526.435,110.057 531.559,97.628C543.413,68.879 544.095,48.293 541.115,32.695C536.887,10.57 523.921,-2.333 514.797,-15.445C500.095,-36.572 495.003,-44.587 493.578,-46.363C490.063,-50.745 486.98,-52.84 485.243,-53.977C476.09,-59.967 468.013,-60.066 462.276,-59.39C450.8,-58.038 441.024,-52.446 435.082,-39.776C434.522,-38.581 432.73,-34.267 432.207,-28.008C428.505,-15.081 421.362,16.032 425.712,51.479C428.242,72.102 436.268,86.034 445.372,95.821C468.201,120.361 501.114,118.913 501.114,118.913ZM499.718,84.499C499.718,84.499 464.639,85.922 459.898,47.284C455.214,9.11 466.673,-22.922 466.673,-22.922C465.667,-27.814 464.647,-27.212 486.526,4.228C497.789,20.413 520.473,34.162 499.718,84.499Z"
                  style="fill: rgb(202, 197, 60)"
                />
              </g>
              <g transform="matrix(0.261348,0.622628,0.622628,-0.261348,114.001,192.529)">
                <path
                  d="M513.048,116.256L513.047,116.256C509.325,117.821 505.294,118.743 501.114,118.913C501.114,118.913 468.201,120.361 445.372,95.821C436.268,86.034 428.242,72.102 425.712,51.479C421.363,16.035 428.503,-15.075 432.218,-28.068C432.728,-34.263 434.522,-38.581 435.082,-39.776C441.024,-52.446 450.8,-58.038 462.276,-59.39C468.013,-60.066 476.09,-59.967 485.243,-53.977C486.98,-52.84 490.063,-50.745 493.578,-46.363C495.003,-44.587 500.095,-36.572 514.797,-15.445C523.921,-2.333 536.887,10.57 541.115,32.695C544.095,48.293 543.413,68.879 531.559,97.628C528.029,106.189 521.291,112.796 513.048,116.256ZM499.718,84.499C499.718,84.499 464.639,85.922 459.898,47.284C455.214,9.11 466.673,-22.922 466.673,-22.922C465.667,-27.814 464.647,-27.212 486.526,4.228C497.789,20.413 520.473,34.162 499.718,84.499Z"
                  style="fill: rgb(202, 197, 60)"
                />
              </g>
              <g transform="matrix(-0.840579,-0.485308,0.471455,-0.816584,579.574,801.36)">
                <path d="M402.577,45.577L397.114,611.114" style="fill: none; stroke: rgb(202, 197, 60); stroke-width: 34.43px" />
              </g>
            </g>
          </g>
          <g transform="matrix(0.123474,0,0,0.127187,56.1635,681.634)">
            <path
              d="M454.504,84.174C454.706,70.02 449.056,56.377 438.817,46.298C428.578,36.219 414.606,30.544 400.024,30.543C400.008,30.877 399.992,30.877 399.976,30.877C385.486,30.878 371.601,36.517 361.426,46.532C351.251,56.548 345.635,70.104 345.834,84.17C346.187,132.986 347.148,200.887 347.148,200.887C322.322,208.667 299.52,221.831 280.37,239.441C280.37,239.441 223.962,205.8 182.215,180.904C169.633,173.398 154.444,171.194 140.15,174.798C125.857,178.403 113.694,187.506 106.466,200.008C106.735,200.166 106.73,200.175 106.724,200.184C91.484,226.55 100.945,259.912 127.937,274.991C170.207,298.967 227.518,330.983 227.518,330.983C221.843,356.373 221.843,382.702 227.518,408.092C227.518,408.092 170.207,440.108 127.775,463.812C100.625,478.975 91.107,512.53 106.436,539.048C106.73,538.9 106.735,538.909 106.74,538.918C113.927,551.348 126.019,560.399 140.23,563.984C154.441,567.568 169.543,565.378 182.053,557.917C223.962,533.275 280.37,499.634 280.37,499.634C299.52,517.244 322.322,530.409 347.148,538.189C347.148,538.189 346.187,606.089 345.496,654.901C345.294,669.056 350.944,682.698 361.183,692.777C371.422,702.857 385.394,708.531 399.976,708.533C399.992,708.199 400.008,708.199 400.024,708.199C414.514,708.197 428.399,702.559 438.574,692.543C448.749,682.528 454.365,668.972 454.166,654.906C453.813,606.089 452.852,538.189 452.852,538.189C477.678,530.409 500.48,517.244 519.63,499.634C519.63,499.634 576.038,533.275 617.785,558.172C630.367,565.677 645.556,567.882 659.85,564.277C674.143,560.672 686.306,551.569 693.534,539.067C693.265,538.909 693.27,538.9 693.276,538.891C708.516,512.526 699.055,479.164 672.063,464.085C629.793,440.108 572.482,408.092 572.482,408.092C578.157,382.702 578.157,356.373 572.482,330.983C572.482,330.983 629.793,298.967 672.225,275.264C699.375,260.101 708.893,226.545 693.564,200.027C693.27,200.175 693.265,200.166 693.26,200.157C686.073,187.728 673.981,178.677 659.77,175.092C645.559,171.507 630.457,173.698 617.947,181.159C576.038,205.8 519.63,239.441 519.63,239.441C500.48,221.831 477.678,208.667 452.852,200.887C452.852,200.887 453.813,132.986 454.504,84.174Z"
              style="fill: rgb(202, 197, 60)"
            />
          </g>
          <g transform="matrix(1,0,0,1,-8.58706,79.4902)">
            <path
              d="M749.913,669.479L760.161,680.357L774.705,683.792L770.408,698.106L774.705,712.42L760.161,715.855L749.913,726.734L739.666,715.855L725.121,712.42L729.418,698.106L725.121,683.792L739.666,680.357L749.913,669.479Z"
              style="fill: rgb(202, 197, 60)"
            />
          </g>
          <g id="inner-design-21" transform="matrix(-0.161183,1.97393e-17,-1.97393e-17,-0.161183,242.885,868.788)">
            <g transform="matrix(-1,0,0,1,809.745,0)">
              <path d="M222.684,335.705L139.513,254.593" style="fill: none; stroke: rgb(2, 179, 125); stroke-width: 31.85px" />
            </g>
            <g transform="matrix(-1,0,0,1,809.745,0)">
              <path d="M222.684,335.705L139.513,423.469" style="fill: none; stroke: rgb(2, 179, 125); stroke-width: 31.85px" />
            </g>
            <g transform="matrix(2.13979e-16,-1,0.963675,2.22045e-16,79.7858,735.898)">
              <path d="M400,15.261L400,649.307" style="fill: none; stroke: rgb(2, 179, 125); stroke-width: 31.85px" />
            </g>
            <path d="M222.684,335.705L139.513,254.593" style="fill: none; stroke: rgb(2, 179, 125); stroke-width: 31.85px" />
            <path d="M222.684,335.705L139.513,423.469" style="fill: none; stroke: rgb(2, 179, 125); stroke-width: 31.85px" />
            <g transform="matrix(-6.245e-17,-1,-1,6.245e-17,739.031,740.577)">
              <path d="M222.684,335.705L139.513,254.593" style="fill: none; stroke: rgb(2, 179, 125); stroke-width: 31.85px" />
            </g>
            <g transform="matrix(-6.245e-17,-1,-1,6.245e-17,739.031,740.577)">
              <path d="M222.684,335.705L139.513,423.469" style="fill: none; stroke: rgb(2, 179, 125); stroke-width: 31.85px" />
            </g>
            <g transform="matrix(1,0,0,0.987147,0,7.88489)">
              <path d="M400,15.261L400,649.307" style="fill: none; stroke: rgb(2, 179, 125); stroke-width: 31.85px" />
            </g>
            <g transform="matrix(6.245e-17,1,-1,6.245e-17,739.031,-69.1676)">
              <path d="M222.684,335.705L139.513,254.593" style="fill: none; stroke: rgb(2, 179, 125); stroke-width: 31.85px" />
            </g>
            <g transform="matrix(6.245e-17,1,-1,6.245e-17,739.031,-69.1676)">
              <path d="M222.684,335.705L139.513,423.469" style="fill: none; stroke: rgb(2, 179, 125); stroke-width: 31.85px" />
            </g>
            <g transform="matrix(1,0,0,1,8.86945,361.015)">
              <path
                d="M578.191,106.605C547.649,106.605 522.852,131.401 522.852,161.944C522.852,192.486 547.649,217.283 578.191,217.283C608.734,217.283 633.53,192.486 633.53,161.944C633.53,131.401 608.734,106.605 578.191,106.605ZM578.191,138.455C591.155,138.455 601.68,148.98 601.68,161.944C601.68,174.908 591.155,185.433 578.191,185.433C565.227,185.433 554.702,174.908 554.702,161.944C554.702,148.98 565.227,138.455 578.191,138.455Z"
                style="fill: rgb(2, 179, 125)"
              />
            </g>
            <g transform="matrix(0.665952,-0.665952,0.665952,0.665952,-87.8597,380.8)">
              <path d="M400,86.373L400,578.195" style="fill: none; stroke: rgb(2, 179, 125); stroke-width: 31.85px" />
            </g>
            <g transform="matrix(1,0,0,1,-355.507,-13.4928)">
              <path
                d="M578.191,106.605C547.649,106.605 522.852,131.401 522.852,161.944C522.852,192.486 547.649,217.283 578.191,217.283C608.734,217.283 633.53,192.486 633.53,161.944C633.53,131.401 608.734,106.605 578.191,106.605ZM578.191,138.455C591.155,138.455 601.68,148.98 601.68,161.944C601.68,174.908 591.155,185.433 578.191,185.433C565.227,185.433 554.702,174.908 554.702,161.944C554.702,148.98 565.227,138.455 578.191,138.455Z"
                style="fill: rgb(2, 179, 125)"
              />
            </g>
            <g transform="matrix(1,0,0,1,-355.507,361.015)">
              <path
                d="M578.191,106.605C547.649,106.605 522.852,131.401 522.852,161.944C522.852,192.486 547.649,217.283 578.191,217.283C608.734,217.283 633.53,192.486 633.53,161.944C633.53,131.401 608.734,106.605 578.191,106.605ZM578.191,138.455C591.155,138.455 601.68,148.98 601.68,161.944C601.68,174.908 591.155,185.433 578.191,185.433C565.227,185.433 554.702,174.908 554.702,161.944C554.702,148.98 565.227,138.455 578.191,138.455Z"
                style="fill: rgb(2, 179, 125)"
              />
            </g>
            <g transform="matrix(-0.68633,-0.68633,0.666738,-0.666738,452.985,831.977)">
              <path d="M400,86.373L400,578.195" style="fill: none; stroke: rgb(2, 179, 125); stroke-width: 31.85px" />
            </g>
            <g transform="matrix(1,0,0,1,8.86945,-13.4928)">
              <path
                d="M578.191,106.605C547.649,106.605 522.852,131.401 522.852,161.944C522.852,192.486 547.649,217.283 578.191,217.283C608.734,217.283 633.53,192.486 633.53,161.944C633.53,131.401 608.734,106.605 578.191,106.605ZM578.191,138.455C591.155,138.455 601.68,148.98 601.68,161.944C601.68,174.908 591.155,185.433 578.191,185.433C565.227,185.433 554.702,174.908 554.702,161.944C554.702,148.98 565.227,138.455 578.191,138.455Z"
                style="fill: rgb(2, 179, 125)"
              />
            </g>
          </g>
          <g transform="matrix(0.0758255,0,0,0.0758255,496.982,733.884)">
            <path
              d="M454.481,85.796C454.69,71.217 449.046,57.163 438.811,46.779C428.575,36.394 414.604,30.547 400.024,30.546C400.008,30.877 399.992,30.877 399.976,30.877C385.483,30.878 371.596,36.689 361.421,47.01C351.246,57.331 345.633,71.3 345.838,85.791C346.208,134.476 347.148,200.887 347.148,200.887C322.322,208.667 299.52,221.831 280.37,239.441C280.37,239.441 223.326,205.421 181.513,180.485C168.992,173.014 153.998,170.875 139.888,174.547C125.777,178.219 113.728,187.395 106.437,200.021C106.715,200.2 106.707,200.214 106.699,200.228C99.454,212.78 97.543,227.712 101.393,241.685C105.244,255.657 114.535,267.502 127.187,274.57C169.534,298.592 227.518,330.983 227.518,330.983C221.843,356.373 221.843,382.702 227.518,408.092C227.518,408.092 169.534,440.484 127.032,464.227C114.302,471.335 104.952,483.25 101.077,497.306C97.202,511.362 99.124,526.385 106.413,539.013C106.707,538.861 106.715,538.875 106.723,538.889C113.971,551.439 125.947,560.561 139.973,564.212C153.998,567.864 168.902,565.74 181.35,558.317C223.326,533.654 280.37,499.634 280.37,499.634C299.52,517.244 322.322,530.409 347.148,538.189C347.148,538.189 346.208,604.6 345.519,653.279C345.31,667.858 350.954,681.913 361.189,692.297C371.425,702.681 385.396,708.528 399.976,708.529C399.992,708.199 400.008,708.199 400.024,708.199C414.517,708.197 428.404,702.386 438.579,692.065C448.754,681.745 454.367,667.776 454.162,653.284C453.792,604.6 452.852,538.189 452.852,538.189C477.678,530.409 500.48,517.244 519.63,499.634C519.63,499.634 576.674,533.654 618.487,558.59C631.008,566.061 646.002,568.2 660.112,564.528C674.223,560.856 686.272,551.68 693.563,539.054C693.285,538.875 693.293,538.861 693.301,538.848C700.546,526.296 702.457,511.363 698.607,497.391C694.756,483.419 685.465,471.573 672.813,464.505C630.466,440.484 572.482,408.092 572.482,408.092C578.157,382.702 578.157,356.373 572.482,330.983C572.482,330.983 630.466,298.592 672.968,274.849C685.698,267.741 695.048,255.825 698.923,241.769C702.798,227.713 700.876,212.69 693.587,200.062C693.293,200.214 693.285,200.2 693.277,200.187C686.029,187.636 674.053,178.515 660.027,174.863C646.002,171.212 631.098,173.335 618.65,180.759C576.674,205.421 519.63,239.441 519.63,239.441C500.48,221.831 477.678,208.667 452.852,200.887C452.852,200.887 453.792,134.476 454.481,85.796Z"
              style="fill: rgb(2, 179, 125)"
            />
          </g>
          <g transform="matrix(0.0758255,0,0,0.0758255,777.009,818.524)">
            <path
              d="M454.481,85.796C454.69,71.217 449.046,57.163 438.811,46.779C428.575,36.394 414.604,30.547 400.024,30.546C400.008,30.877 399.992,30.877 399.976,30.877C385.483,30.878 371.596,36.689 361.421,47.01C351.246,57.331 345.633,71.3 345.838,85.791C346.208,134.476 347.148,200.887 347.148,200.887C322.322,208.667 299.52,221.831 280.37,239.441C280.37,239.441 223.326,205.421 181.513,180.485C168.992,173.014 153.998,170.875 139.888,174.547C125.777,178.219 113.728,187.395 106.437,200.021C106.715,200.2 106.707,200.214 106.699,200.228C99.454,212.78 97.543,227.712 101.393,241.685C105.244,255.657 114.535,267.502 127.187,274.57C169.534,298.592 227.518,330.983 227.518,330.983C221.843,356.373 221.843,382.702 227.518,408.092C227.518,408.092 169.534,440.484 127.032,464.227C114.302,471.335 104.952,483.25 101.077,497.306C97.202,511.362 99.124,526.385 106.413,539.013C106.707,538.861 106.715,538.875 106.723,538.889C113.971,551.439 125.947,560.561 139.973,564.212C153.998,567.864 168.902,565.74 181.35,558.317C223.326,533.654 280.37,499.634 280.37,499.634C299.52,517.244 322.322,530.409 347.148,538.189C347.148,538.189 346.208,604.6 345.519,653.279C345.31,667.858 350.954,681.913 361.189,692.297C371.425,702.681 385.396,708.528 399.976,708.529C399.992,708.199 400.008,708.199 400.024,708.199C414.517,708.197 428.404,702.386 438.579,692.065C448.754,681.745 454.367,667.776 454.162,653.284C453.792,604.6 452.852,538.189 452.852,538.189C477.678,530.409 500.48,517.244 519.63,499.634C519.63,499.634 576.674,533.654 618.487,558.59C631.008,566.061 646.002,568.2 660.112,564.528C674.223,560.856 686.272,551.68 693.563,539.054C693.285,538.875 693.293,538.861 693.301,538.848C700.546,526.296 702.457,511.363 698.607,497.391C694.756,483.419 685.465,471.573 672.813,464.505C630.466,440.484 572.482,408.092 572.482,408.092C578.157,382.702 578.157,356.373 572.482,330.983C572.482,330.983 630.466,298.592 672.968,274.849C685.698,267.741 695.048,255.825 698.923,241.769C702.798,227.713 700.876,212.69 693.587,200.062C693.293,200.214 693.285,200.2 693.277,200.187C686.029,187.636 674.053,178.515 660.027,174.863C646.002,171.212 631.098,173.335 618.65,180.759C576.674,205.421 519.63,239.441 519.63,239.441C500.48,221.831 477.678,208.667 452.852,200.887C452.852,200.887 453.792,134.476 454.481,85.796Z"
              style="fill: rgb(2, 179, 125)"
            />
          </g>
          <g id="inner-design-4" transform="matrix(-0.172909,2.11753e-17,-2.11753e-17,-0.172909,123.779,958.745)">
            <g transform="matrix(0.665952,-0.665952,0.665952,0.665952,-87.8597,380.8)">
              <path d="M400,86.373L400,578.195" style="fill: none; stroke: rgb(74, 98, 166); stroke-width: 34.99px" />
            </g>
            <g transform="matrix(-0.68633,-0.68633,0.666738,-0.666738,452.985,831.977)">
              <path d="M400,86.373L400,578.195" style="fill: none; stroke: rgb(74, 98, 166); stroke-width: 34.44px" />
            </g>
            <g transform="matrix(-0.970617,6.93889e-18,6.38378e-16,-0.942911,788.247,649.213)">
              <path d="M400,86.373L400,578.195" style="fill: none; stroke: rgb(74, 98, 166); stroke-width: 34.44px" />
            </g>
            <g transform="matrix(-1.36002e-15,-0.970617,0.942911,-6.80012e-16,86.6856,724.145)">
              <path d="M400,86.373L400,578.195" style="fill: none; stroke: rgb(74, 98, 166); stroke-width: 34.44px" />
            </g>
            <g transform="matrix(-1.2356,-1.51317e-16,1.87782e-16,-1.53336,784.53,1644.57)">
              <path d="M311.366,643.402L343.454,680.713L311.366,718.023L279.277,680.713L311.366,643.402Z" style="fill: none; stroke: rgb(74, 98, 166); stroke-width: 23.66px" />
            </g>
            <g transform="matrix(-0.873702,0.873702,-1.08425,-1.08425,1597.22,989.229)">
              <path d="M311.366,643.402L343.454,680.713L311.366,718.023L279.277,680.713L311.366,643.402Z" style="fill: none; stroke: rgb(74, 98, 166); stroke-width: 23.66px" />
            </g>
            <g transform="matrix(-3.33067e-16,1.2356,-1.53336,-7.77156e-16,1708.48,-48.8254)">
              <path d="M311.366,643.402L343.454,680.713L311.366,718.023L279.277,680.713L311.366,643.402Z" style="fill: none; stroke: rgb(74, 98, 166); stroke-width: 23.66px" />
            </g>
            <g transform="matrix(0.873702,0.873702,-1.08425,1.08425,1053.14,-861.514)">
              <path d="M311.366,643.402L343.454,680.713L311.366,718.023L279.277,680.713L311.366,643.402Z" style="fill: none; stroke: rgb(74, 98, 166); stroke-width: 23.66px" />
            </g>
            <g transform="matrix(0.873702,-0.873702,1.08425,1.08425,-797.606,-317.433)">
              <path d="M311.366,643.402L343.454,680.713L311.366,718.023L279.277,680.713L311.366,643.402Z" style="fill: none; stroke: rgb(74, 98, 166); stroke-width: 23.66px" />
            </g>
            <g transform="matrix(9.99201e-16,-1.2356,1.53336,1.55431e-15,-908.867,720.622)">
              <path d="M311.366,643.402L343.454,680.713L311.366,718.023L279.277,680.713L311.366,643.402Z" style="fill: none; stroke: rgb(74, 98, 166); stroke-width: 23.66px" />
            </g>
            <g transform="matrix(-0.873702,-0.873702,1.08425,-1.08425,-253.525,1533.31)">
              <path d="M311.366,643.402L343.454,680.713L311.366,718.023L279.277,680.713L311.366,643.402Z" style="fill: none; stroke: rgb(74, 98, 166); stroke-width: 23.66px" />
            </g>
          </g>
          <g id="inner-design-22" transform="matrix(0.20833,-0.12028,0.12028,0.20833,512.335,728.019)">
            <g>
              <g transform="matrix(-0.659657,0.111653,-0.111653,-0.659657,662.968,494.995)">
                <path
                  d="M501.103,118.644C514.431,118.103 526.226,109.857 531.311,97.525C543.137,68.844 543.824,48.307 540.85,32.746C536.631,10.665 523.682,-2.206 514.576,-15.292C499.881,-36.408 494.792,-44.42 493.368,-46.195C489.879,-50.544 486.819,-52.624 485.096,-53.752C476.014,-59.695 467.999,-59.794 462.307,-59.123C450.921,-57.781 441.222,-52.233 435.326,-39.661C434.769,-38.475 432.989,-34.185 432.472,-27.961C428.776,-15.058 421.633,16.027 425.979,51.446C428.501,71.999 436.496,85.885 445.569,95.638C468.313,120.087 501.103,118.644 501.103,118.644ZM499.718,84.499C499.718,84.499 464.639,85.922 459.898,47.284C455.214,9.11 466.673,-22.922 466.673,-22.922C465.667,-27.814 464.647,-27.212 486.526,4.228C497.789,20.413 520.473,34.162 499.718,84.499Z"
                  style="fill: rgb(74, 98, 166)"
                />
              </g>
              <g transform="matrix(0.258943,0.616897,0.616897,-0.258943,116.491,194.004)">
                <path
                  d="M531.311,97.525C526.226,109.857 514.431,118.103 501.103,118.644C501.103,118.644 468.313,120.087 445.569,95.638C436.496,85.885 428.501,71.999 425.979,51.446C421.634,16.038 428.772,-15.039 432.479,-28.003C432.988,-34.182 434.769,-38.474 435.326,-39.661C441.222,-52.233 450.921,-57.781 462.307,-59.123C467.999,-59.794 476.014,-59.695 485.096,-53.752C486.819,-52.624 489.879,-50.544 493.368,-46.195C494.792,-44.42 499.881,-36.408 514.576,-15.292C523.682,-2.206 536.631,10.665 540.85,32.746C543.824,48.307 543.137,68.844 531.311,97.525ZM499.718,84.499C499.718,84.499 464.639,85.922 459.898,47.284C455.214,9.11 466.673,-22.922 466.673,-22.922C465.667,-27.814 464.647,-27.212 486.526,4.228C497.789,20.413 520.473,34.162 499.718,84.499Z"
                  style="fill: rgb(74, 98, 166)"
                />
              </g>
              <g transform="matrix(-0.840579,-0.485308,0.471455,-0.816584,579.574,801.36)">
                <path d="M402.577,45.577L397.114,611.114" style="fill: none; stroke: rgb(74, 98, 166); stroke-width: 34.43px" />
              </g>
              <g transform="matrix(0.659657,-0.111653,0.111653,0.659657,136.811,178.29)">
                <path
                  d="M501.103,118.644C514.431,118.103 526.226,109.857 531.311,97.525C543.137,68.844 543.824,48.307 540.85,32.746C536.631,10.665 523.682,-2.206 514.576,-15.292C499.881,-36.408 494.792,-44.42 493.368,-46.195C489.879,-50.544 486.819,-52.624 485.096,-53.752C476.014,-59.695 467.999,-59.794 462.307,-59.123C450.921,-57.781 441.222,-52.233 435.326,-39.661C434.769,-38.475 432.989,-34.185 432.472,-27.961C428.776,-15.058 421.633,16.027 425.979,51.446C428.501,71.999 436.496,85.885 445.569,95.638C468.313,120.087 501.103,118.644 501.103,118.644ZM499.718,84.499C499.718,84.499 464.639,85.922 459.898,47.284C455.214,9.11 466.673,-22.922 466.673,-22.922C465.667,-27.814 464.647,-27.212 486.526,4.228C497.789,20.413 520.473,34.162 499.718,84.499Z"
                  style="fill: rgb(74, 98, 166)"
                />
              </g>
              <g transform="matrix(-0.258943,-0.616897,-0.616897,0.258943,683.287,479.281)">
                <path
                  d="M531.311,97.525C526.226,109.857 514.431,118.103 501.103,118.644C501.103,118.644 468.313,120.087 445.569,95.638C436.496,85.885 428.501,71.999 425.979,51.446C421.634,16.038 428.772,-15.039 432.479,-28.003C432.988,-34.182 434.769,-38.474 435.326,-39.661C441.222,-52.233 450.921,-57.781 462.307,-59.123C467.999,-59.794 476.014,-59.695 485.096,-53.752C486.819,-52.624 489.879,-50.544 493.368,-46.195C494.792,-44.42 499.881,-36.408 514.576,-15.292C523.682,-2.206 536.631,10.665 540.85,32.746C543.824,48.307 543.137,68.844 531.311,97.525ZM499.718,84.499C499.718,84.499 464.639,85.922 459.898,47.284C455.214,9.11 466.673,-22.922 466.673,-22.922C465.667,-27.814 464.647,-27.212 486.526,4.228C497.789,20.413 520.473,34.162 499.718,84.499Z"
                  style="fill: rgb(74, 98, 166)"
                />
              </g>
            </g>
            <g transform="matrix(0.5,0.866025,-0.866025,0.5,491.036,-178.611)">
              <g transform="matrix(-0.552806,0.0935678,-0.0935678,-0.552806,608.341,492.094)">
                <path
                  d="M501.371,125.244C517.275,124.599 531.35,114.759 537.417,100.043C549.925,69.709 550.483,47.964 547.338,31.506C542.909,8.323 529.559,-5.326 519.998,-19.065C505.127,-40.434 499.962,-48.531 498.521,-50.328C494.386,-55.482 490.755,-57.942 488.713,-59.279C477.881,-66.367 468.323,-66.483 461.534,-65.683C447.951,-64.083 436.379,-57.464 429.345,-42.466C428.705,-41.099 426.638,-36.238 425.95,-29.168C422.053,-15.336 415.011,16.3 419.423,52.25C422.157,74.536 430.895,89.562 440.732,100.137C465.565,126.831 501.371,125.244 501.371,125.244ZM499.718,84.499C499.718,84.499 464.639,85.922 459.898,47.284C455.214,9.11 466.673,-22.922 466.673,-22.922C465.667,-27.814 464.647,-27.212 486.526,4.228C497.789,20.413 520.473,34.162 499.718,84.499Z"
                  style="fill: rgb(74, 98, 166)"
                />
              </g>
              <g transform="matrix(0.216999,0.516972,0.516972,-0.216999,150.383,239.858)">
                <path
                  d="M537.417,100.043C531.35,114.759 517.275,124.599 501.371,125.244C501.371,125.244 465.565,126.831 440.732,100.137C430.895,89.562 422.157,74.536 419.423,52.25C415.01,16.294 422.055,-15.346 425.959,-29.21C426.635,-36.232 428.704,-41.099 429.345,-42.466C436.379,-57.464 447.951,-64.083 461.534,-65.683C468.323,-66.483 477.881,-66.367 488.713,-59.279C490.755,-57.942 494.386,-55.482 498.521,-50.328C499.962,-48.531 505.127,-40.434 519.998,-19.065C529.559,-5.326 542.909,8.323 547.338,31.506C550.483,47.964 549.925,69.709 537.417,100.043ZM499.718,84.499C499.718,84.499 464.639,85.922 459.898,47.284C455.214,9.11 466.673,-22.922 466.673,-22.922C465.667,-27.814 464.647,-27.212 486.526,4.228C497.789,20.413 520.473,34.162 499.718,84.499Z"
                  style="fill: rgb(74, 98, 166)"
                />
              </g>
              <g transform="matrix(-0.840579,-0.485308,0.471455,-0.816584,579.574,801.36)">
                <path d="M402.577,45.577L397.114,611.114" style="fill: none; stroke: rgb(74, 98, 166); stroke-width: 34.43px" />
              </g>
              <g transform="matrix(0.552806,-0.0935678,0.0935678,0.552806,193.129,181.162)">
                <path
                  d="M501.371,125.244C517.275,124.599 531.35,114.759 537.417,100.043C549.925,69.709 550.483,47.964 547.338,31.506C542.909,8.323 529.559,-5.326 519.998,-19.065C505.127,-40.434 499.962,-48.531 498.521,-50.328C494.386,-55.482 490.755,-57.942 488.713,-59.279C477.881,-66.367 468.323,-66.483 461.534,-65.683C447.951,-64.083 436.379,-57.464 429.345,-42.466C428.705,-41.099 426.638,-36.238 425.95,-29.168C422.053,-15.336 415.011,16.3 419.423,52.25C422.157,74.536 430.895,89.562 440.732,100.137C465.565,126.831 501.371,125.244 501.371,125.244ZM499.718,84.499C499.718,84.499 464.639,85.922 459.898,47.284C455.214,9.11 466.673,-22.922 466.673,-22.922C465.667,-27.814 464.647,-27.212 486.526,4.228C497.789,20.413 520.473,34.162 499.718,84.499Z"
                  style="fill: rgb(74, 98, 166)"
                />
              </g>
              <g transform="matrix(-0.216999,-0.516972,-0.516972,0.216999,651.088,433.399)">
                <path
                  d="M537.417,100.043C531.35,114.759 517.275,124.599 501.371,125.244C501.371,125.244 465.565,126.831 440.732,100.137C430.895,89.562 422.157,74.536 419.423,52.25C415.01,16.294 422.055,-15.346 425.959,-29.21C426.635,-36.232 428.704,-41.099 429.345,-42.466C436.379,-57.464 447.951,-64.083 461.534,-65.683C468.323,-66.483 477.881,-66.367 488.713,-59.279C490.755,-57.942 494.386,-55.482 498.521,-50.328C499.962,-48.531 505.127,-40.434 519.998,-19.065C529.559,-5.326 542.909,8.323 547.338,31.506C550.483,47.964 549.925,69.709 537.417,100.043ZM499.718,84.499C499.718,84.499 464.639,85.922 459.898,47.284C455.214,9.11 466.673,-22.922 466.673,-22.922C465.667,-27.814 464.647,-27.212 486.526,4.228C497.789,20.413 520.473,34.162 499.718,84.499Z"
                  style="fill: rgb(74, 98, 166)"
                />
              </g>
            </g>
            <g transform="matrix(-0.5,0.866025,-0.866025,-0.5,891.235,157.333)">
              <g transform="matrix(-0.665785,0.112691,-0.112691,-0.665785,665.555,496.316)">
                <path
                  d="M501.081,118.089C514.192,117.557 525.795,109.445 530.797,97.314C542.566,68.771 543.264,48.336 540.305,32.85C536.104,10.862 523.188,-1.944 514.12,-14.974C499.44,-36.07 494.358,-44.074 492.935,-45.847C489.5,-50.129 486.488,-52.176 484.791,-53.287C475.857,-59.134 467.972,-59.231 462.372,-58.571C451.171,-57.252 441.629,-51.793 435.829,-39.426C435.279,-38.254 433.523,-34.012 433.021,-27.859C429.341,-15.033 422.189,16.005 426.53,51.378C429.034,71.786 436.967,85.575 445.975,95.259C468.544,119.52 501.081,118.089 501.081,118.089ZM499.718,84.499C499.718,84.499 464.639,85.922 459.898,47.284C455.214,9.11 466.673,-22.922 466.673,-22.922C465.667,-27.814 464.647,-27.212 486.526,4.228C497.789,20.413 520.473,34.162 499.718,84.499Z"
                  style="fill: rgb(74, 98, 166)"
                />
              </g>
              <g transform="matrix(0.261348,0.622628,0.622628,-0.261348,114.001,192.529)">
                <path
                  d="M512.729,115.496L512.728,115.496C509.095,117.024 505.161,117.924 501.081,118.089C501.081,118.089 468.544,119.52 445.975,95.259C436.967,85.575 429.034,71.786 426.53,51.378C422.19,16.011 429.339,-15.023 433.029,-27.906C433.523,-34.012 435.279,-38.254 435.829,-39.426C441.629,-51.793 451.171,-57.252 462.372,-58.571C467.972,-59.231 475.857,-59.134 484.791,-53.287C486.488,-52.176 489.5,-50.129 492.935,-45.847C494.358,-44.074 499.44,-36.07 514.12,-14.974C523.188,-1.944 536.104,10.862 540.305,32.85C543.264,48.336 542.566,68.771 530.797,97.314C527.352,105.67 520.774,112.119 512.729,115.496ZM499.718,84.499C499.718,84.499 464.639,85.922 459.898,47.284C455.214,9.11 466.673,-22.922 466.673,-22.922C465.667,-27.814 464.647,-27.212 486.526,4.228C497.789,20.413 520.473,34.162 499.718,84.499Z"
                  style="fill: rgb(74, 98, 166)"
                />
              </g>
              <g transform="matrix(-0.840579,-0.485308,0.471455,-0.816584,579.574,801.36)">
                <path d="M402.577,45.577L397.114,611.114" style="fill: none; stroke: rgb(74, 98, 166); stroke-width: 34.43px" />
              </g>
              <g transform="matrix(0.665785,-0.112691,0.112691,0.665785,135.837,176.403)">
                <path
                  d="M501.081,118.089C514.192,117.557 525.795,109.445 530.797,97.314C542.566,68.771 543.264,48.336 540.305,32.85C536.104,10.862 523.188,-1.944 514.12,-14.974C499.44,-36.07 494.358,-44.074 492.935,-45.847C489.5,-50.129 486.488,-52.176 484.791,-53.287C475.857,-59.134 467.972,-59.231 462.372,-58.571C451.171,-57.252 441.629,-51.793 435.829,-39.426C435.279,-38.254 433.523,-34.012 433.021,-27.859C429.341,-15.033 422.189,16.005 426.53,51.378C429.034,71.786 436.967,85.575 445.975,95.259C468.544,119.52 501.081,118.089 501.081,118.089ZM508.045,51.95C509.441,26.842 494.859,16.202 486.526,4.228C464.647,-27.212 465.667,-27.814 466.673,-22.922C466.673,-22.922 455.214,9.11 459.898,47.284C464.639,85.922 499.718,84.499 499.718,84.499C503.462,75.418 505.792,67.528 507.018,60.593L532.864,90.109C535.721,73.233 525.441,56.904 508.988,52.184L508.045,51.95Z"
                  style="fill: rgb(74, 98, 166)"
                />
              </g>
              <g transform="matrix(-0.261348,-0.622628,-0.622628,0.261348,687.39,480.19)">
                <path
                  d="M530.797,97.314C525.795,109.445 514.192,117.557 501.081,118.089C501.081,118.089 468.544,119.52 445.975,95.259C436.967,85.575 429.034,71.786 426.53,51.378C422.19,16.011 429.339,-15.023 433.029,-27.906C433.523,-34.012 435.279,-38.254 435.829,-39.426C441.629,-51.793 451.171,-57.252 462.372,-58.571C467.972,-59.231 475.857,-59.134 484.791,-53.287C486.488,-52.176 489.5,-50.129 492.935,-45.847C494.358,-44.074 499.44,-36.07 514.12,-14.974C523.188,-1.944 536.104,10.862 540.305,32.85C543.264,48.336 542.566,68.771 530.797,97.314ZM499.718,84.499C499.718,84.499 464.639,85.922 459.898,47.284C455.214,9.11 466.673,-22.922 466.673,-22.922C465.667,-27.814 464.647,-27.212 486.526,4.228C497.789,20.413 520.473,34.162 499.718,84.499Z"
                  style="fill: rgb(74, 98, 166)"
                />
              </g>
            </g>
          </g>
          <g transform="matrix(0.866025,0.5,-0.5,0.866025,425.534,25.0429)">
            <path d="M402.823,711.959L418.233,720.856L418.233,738.65L402.823,747.546L387.414,738.65L387.414,720.856L402.823,711.959Z" style="fill: rgb(74, 98, 166)" />
          </g>
          <g id="inner-design-1" transform="matrix(-0.220691,2.70269e-17,-2.70269e-17,-0.220691,612.659,957.842)">
            <g transform="matrix(-1,0,0,1,809.745,0)">
              <path d="M222.684,335.705L139.513,254.593" style="fill: none; stroke: rgb(91, 189, 178); stroke-width: 31.85px" />
            </g>
            <g transform="matrix(-1,0,0,1,809.745,0)">
              <path d="M222.684,335.705L139.513,423.469" style="fill: none; stroke: rgb(91, 189, 178); stroke-width: 31.85px" />
            </g>
            <g transform="matrix(2.13979e-16,-1,0.963675,2.22045e-16,79.7858,735.898)">
              <path d="M400,15.261L400,649.307" style="fill: none; stroke: rgb(91, 189, 178); stroke-width: 31.85px" />
            </g>
            <path d="M222.684,335.705L139.513,254.593" style="fill: none; stroke: rgb(91, 189, 178); stroke-width: 31.85px" />
            <path d="M222.684,335.705L139.513,423.469" style="fill: none; stroke: rgb(91, 189, 178); stroke-width: 31.85px" />
            <g transform="matrix(-6.245e-17,-1,-1,6.245e-17,739.031,740.577)">
              <path d="M222.684,335.705L139.513,254.593" style="fill: none; stroke: rgb(91, 189, 178); stroke-width: 31.85px" />
            </g>
            <g transform="matrix(-6.245e-17,-1,-1,6.245e-17,739.031,740.577)">
              <path d="M222.684,335.705L139.513,423.469" style="fill: none; stroke: rgb(91, 189, 178); stroke-width: 31.85px" />
            </g>
            <g transform="matrix(1,0,0,0.987147,0,7.88489)">
              <path d="M400,15.261L400,649.307" style="fill: none; stroke: rgb(91, 189, 178); stroke-width: 31.85px" />
            </g>
            <g transform="matrix(6.245e-17,1,-1,6.245e-17,739.031,-69.1676)">
              <path d="M222.684,335.705L139.513,254.593" style="fill: none; stroke: rgb(91, 189, 178); stroke-width: 31.85px" />
            </g>
            <g transform="matrix(6.245e-17,1,-1,6.245e-17,739.031,-69.1676)">
              <path d="M222.684,335.705L139.513,423.469" style="fill: none; stroke: rgb(91, 189, 178); stroke-width: 31.85px" />
            </g>
            <g transform="matrix(1,0,0,1,8.86945,361.015)">
              <path
                d="M578.191,106.605C547.649,106.605 522.852,131.401 522.852,161.944C522.852,192.486 547.649,217.283 578.191,217.283C608.734,217.283 633.53,192.486 633.53,161.944C633.53,131.401 608.734,106.605 578.191,106.605ZM578.191,138.455C591.155,138.455 601.68,148.98 601.68,161.944C601.68,174.908 591.155,185.433 578.191,185.433C565.227,185.433 554.702,174.908 554.702,161.944C554.702,148.98 565.227,138.455 578.191,138.455Z"
                style="fill: rgb(91, 189, 178)"
              />
            </g>
            <g transform="matrix(0.665952,-0.665952,0.665952,0.665952,-87.8597,380.8)">
              <path d="M400,86.373L400,578.195" style="fill: none; stroke: rgb(91, 189, 178); stroke-width: 31.85px" />
            </g>
            <g transform="matrix(1,0,0,1,-355.507,-13.4928)">
              <path
                d="M578.191,106.605C547.649,106.605 522.852,131.401 522.852,161.944C522.852,192.486 547.649,217.283 578.191,217.283C608.734,217.283 633.53,192.486 633.53,161.944C633.53,131.401 608.734,106.605 578.191,106.605ZM578.191,138.455C591.155,138.455 601.68,148.98 601.68,161.944C601.68,174.908 591.155,185.433 578.191,185.433C565.227,185.433 554.702,174.908 554.702,161.944C554.702,148.98 565.227,138.455 578.191,138.455Z"
                style="fill: rgb(91, 189, 178)"
              />
            </g>
            <g transform="matrix(1,0,0,1,-355.507,361.015)">
              <path
                d="M578.191,106.605C547.649,106.605 522.852,131.401 522.852,161.944C522.852,192.486 547.649,217.283 578.191,217.283C608.734,217.283 633.53,192.486 633.53,161.944C633.53,131.401 608.734,106.605 578.191,106.605ZM578.191,138.455C591.155,138.455 601.68,148.98 601.68,161.944C601.68,174.908 591.155,185.433 578.191,185.433C565.227,185.433 554.702,174.908 554.702,161.944C554.702,148.98 565.227,138.455 578.191,138.455Z"
                style="fill: rgb(91, 189, 178)"
              />
            </g>
            <g transform="matrix(-0.68633,-0.68633,0.666738,-0.666738,452.985,831.977)">
              <path d="M400,86.373L400,578.195" style="fill: none; stroke: rgb(91, 189, 178); stroke-width: 31.85px" />
            </g>
            <g transform="matrix(1,0,0,1,8.86945,-13.4928)">
              <path
                d="M578.191,106.605C547.649,106.605 522.852,131.401 522.852,161.944C522.852,192.486 547.649,217.283 578.191,217.283C608.734,217.283 633.53,192.486 633.53,161.944C633.53,131.401 608.734,106.605 578.191,106.605ZM578.191,138.455C591.155,138.455 601.68,148.98 601.68,161.944C601.68,174.908 591.155,185.433 578.191,185.433C565.227,185.433 554.702,174.908 554.702,161.944C554.702,148.98 565.227,138.455 578.191,138.455Z"
                style="fill: rgb(91, 189, 178)"
              />
            </g>
          </g>
          <g id="inner-design-3" transform="matrix(0.286456,0.136839,-0.136839,0.286456,233.866,472.206)">
            <g transform="matrix(1.58372,0,0,1.41276,-50.488,-89.272)">
              <path
                d="M151.913,439.598L222.909,581.591L80.916,581.591L151.913,439.598ZM151.913,456.497L210.328,573.328C210.328,573.328 93.497,573.328 93.497,573.328L151.913,456.497Z"
                style="fill: rgb(91, 189, 178)"
              />
            </g>
            <g transform="matrix(1.58372,1.03658e-17,-9.78027e-18,-1.41439,-50.488,1416.15)">
              <path
                d="M151.913,439.598L222.909,581.591L80.916,581.591L151.913,439.598ZM151.913,456.501L93.496,573.334C93.496,573.334 210.329,573.334 210.329,573.334L151.913,456.501Z"
                style="fill: rgb(91, 189, 178)"
              />
            </g>
            <g transform="matrix(1,0,0,1,-1.04681,120.203)">
              <path d="M87.493,607.027L295.212,479.157" style="fill: none; stroke: rgb(91, 189, 178); stroke-width: 11.98px; stroke-linejoin: miter" />
            </g>
            <g transform="matrix(1,0,0,1,-1.04681,120.203)">
              <path d="M87.493,479.157L295.212,607.027" style="fill: none; stroke: rgb(91, 189, 178); stroke-width: 11.98px; stroke-linejoin: miter" />
            </g>
            <g transform="matrix(1,0,0,0.907198,-1.04681,171.52)">
              <path d="M191.146,411.572L191.146,674.18" style="fill: none; stroke: rgb(91, 189, 178); stroke-width: 11.98px; stroke-linejoin: miter" />
            </g>
            <g transform="matrix(1,0,0,1,-12.454,120.858)">
              <path
                d="M202.553,375.126C215.92,375.126 226.772,385.979 226.772,399.345C226.772,412.712 215.92,423.564 202.553,423.564C189.186,423.564 178.334,412.712 178.334,399.345C178.334,385.979 189.186,375.126 202.553,375.126ZM202.553,387.102C209.31,387.102 214.796,392.588 214.796,399.345C214.796,406.102 209.31,411.588 202.553,411.588C195.796,411.588 190.31,406.102 190.31,399.345C190.31,392.588 195.796,387.102 202.553,387.102Z"
                style="fill: rgb(91, 189, 178)"
              />
            </g>
            <g transform="matrix(0.527141,0.849778,-0.849778,0.527141,545.993,205.79)">
              <path
                d="M202.553,375.126C215.92,375.126 226.772,385.979 226.772,399.345C226.772,412.712 215.92,423.564 202.553,423.564C189.186,423.564 178.334,412.712 178.334,399.345C178.334,385.979 189.186,375.126 202.553,375.126ZM202.553,387.102C209.31,387.103 214.796,392.588 214.796,399.345C214.796,406.102 209.31,411.588 202.553,411.588C195.796,411.588 190.31,406.102 190.31,399.345C190.31,392.588 195.796,387.103 202.553,387.102L202.553,387.102Z"
                style="fill: rgb(91, 189, 178)"
              />
            </g>
            <g transform="matrix(-0.509417,0.86052,-0.86052,-0.509417,760.24,766.886)">
              <path
                d="M202.553,375.126C215.92,375.126 226.772,385.979 226.772,399.345C226.772,412.712 215.92,423.564 202.553,423.564C189.186,423.564 178.334,412.712 178.334,399.345C178.334,385.979 189.186,375.126 202.553,375.126ZM202.553,387.102C209.31,387.102 214.796,392.588 214.796,399.345C214.796,406.102 209.31,411.588 202.553,411.588C195.796,411.588 190.31,406.102 190.31,399.345C190.31,392.588 195.796,387.102 202.553,387.102Z"
                style="fill: rgb(91, 189, 178)"
              />
            </g>
            <g transform="matrix(-1,6.38378e-16,-6.38378e-16,-1,392.652,1206.7)">
              <path
                d="M202.553,375.126C215.92,375.126 226.772,385.979 226.772,399.345C226.772,412.712 215.92,423.564 202.553,423.564C189.186,423.564 178.334,412.712 178.334,399.345C178.334,385.979 189.186,375.126 202.553,375.126ZM202.553,387.102C209.31,387.102 214.796,392.588 214.796,399.345C214.796,406.102 209.31,411.588 202.553,411.588C195.796,411.588 190.31,406.102 190.31,399.345C190.31,392.588 195.796,387.102 202.553,387.102Z"
                style="fill: rgb(91, 189, 178)"
              />
            </g>
            <g transform="matrix(-0.544639,-0.838671,0.838671,-0.544639,-159.087,1128.66)">
              <path
                d="M202.553,375.126C215.92,375.126 226.772,385.979 226.772,399.345C226.772,412.712 215.92,423.564 202.553,423.564C189.186,423.564 178.334,412.712 178.334,399.345C178.334,385.979 189.186,375.126 202.553,375.126ZM202.553,387.102C209.31,387.103 214.796,392.588 214.796,399.345C214.796,406.102 209.31,411.588 202.553,411.588C195.796,411.588 190.31,406.102 190.31,399.345C190.31,392.588 195.796,387.103 202.553,387.102L202.553,387.102Z"
                style="fill: rgb(91, 189, 178)"
              />
            </g>
            <g transform="matrix(0.516907,-0.856042,0.856042,0.516907,-381.045,555.396)">
              <path
                d="M202.553,375.126C215.92,375.126 226.772,385.979 226.772,399.345C226.772,412.712 215.92,423.564 202.553,423.564C189.186,423.564 178.334,412.712 178.334,399.345C178.334,385.979 189.186,375.126 202.553,375.126ZM202.553,387.102C209.31,387.102 214.796,392.588 214.796,399.345C214.796,406.102 209.31,411.588 202.553,411.588C195.796,411.588 190.31,406.102 190.31,399.345C190.31,392.588 195.796,387.102 202.553,387.102Z"
                style="fill: rgb(91, 189, 178)"
              />
            </g>
          </g>
          <g transform="matrix(0.757639,0,0,0.757639,47.4978,306.685)">
            <circle cx="195.979" cy="801.07" r="20.609" style="fill: rgb(91, 189, 178)" />
          </g>
          <g id="inner-design-41" transform="matrix(-0.111855,1.36982e-17,-1.36982e-17,-0.111855,384.414,833.705)">
            <g transform="matrix(0.665952,-0.665952,0.665952,0.665952,-87.8597,380.8)">
              <path d="M400,86.373L400,578.195" style="fill: none; stroke: rgb(182, 25, 23); stroke-width: 39.39px" />
            </g>
            <g transform="matrix(-0.68633,-0.68633,0.666738,-0.666738,452.985,831.977)">
              <path d="M400,86.373L400,578.195" style="fill: none; stroke: rgb(182, 25, 23); stroke-width: 38.77px" />
            </g>
            <g transform="matrix(-0.970617,6.93889e-18,6.38378e-16,-0.942911,788.247,649.213)">
              <path d="M400,86.373L400,578.195" style="fill: none; stroke: rgb(182, 25, 23); stroke-width: 38.77px" />
            </g>
            <g transform="matrix(-1.36002e-15,-0.970617,0.942911,-6.80012e-16,86.6856,724.145)">
              <path d="M400,86.373L400,578.195" style="fill: none; stroke: rgb(182, 25, 23); stroke-width: 38.77px" />
            </g>
            <g transform="matrix(-1.2356,-1.51317e-16,1.87782e-16,-1.53336,784.53,1644.57)">
              <path d="M311.366,643.402L343.454,680.713L311.366,718.023L279.277,680.713L311.366,643.402Z" style="fill: none; stroke: rgb(182, 25, 23); stroke-width: 26.64px" />
            </g>
            <g transform="matrix(-0.873702,0.873702,-1.08425,-1.08425,1597.22,989.229)">
              <path d="M311.366,643.402L343.454,680.713L311.366,718.023L279.277,680.713L311.366,643.402Z" style="fill: none; stroke: rgb(182, 25, 23); stroke-width: 26.64px" />
            </g>
            <g transform="matrix(-3.33067e-16,1.2356,-1.53336,-7.77156e-16,1708.48,-48.8254)">
              <path d="M311.366,643.402L343.454,680.713L311.366,718.023L279.277,680.713L311.366,643.402Z" style="fill: none; stroke: rgb(182, 25, 23); stroke-width: 26.64px" />
            </g>
            <g transform="matrix(0.873702,0.873702,-1.08425,1.08425,1053.14,-861.514)">
              <path d="M311.366,643.402L343.454,680.713L311.366,718.023L279.277,680.713L311.366,643.402Z" style="fill: none; stroke: rgb(182, 25, 23); stroke-width: 26.64px" />
            </g>
            <g transform="matrix(1.2356,7.77156e-16,-8.88178e-16,1.53336,15.083,-972.775)">
              <path d="M311.366,643.402L343.454,680.713L311.366,718.023L279.277,680.713L311.366,643.402Z" style="fill: none; stroke: rgb(182, 25, 23); stroke-width: 26.64px" />
            </g>
            <g transform="matrix(0.873702,-0.873702,1.08425,1.08425,-797.606,-317.433)">
              <path d="M311.366,643.402L343.454,680.713L311.366,718.023L279.277,680.713L311.366,643.402Z" style="fill: none; stroke: rgb(182, 25, 23); stroke-width: 26.64px" />
            </g>
            <g transform="matrix(9.99201e-16,-1.2356,1.53336,1.55431e-15,-908.867,720.622)">
              <path d="M311.366,643.402L343.454,680.713L311.366,718.023L279.277,680.713L311.366,643.402Z" style="fill: none; stroke: rgb(182, 25, 23); stroke-width: 26.64px" />
            </g>
            <g transform="matrix(-0.873702,-0.873702,1.08425,-1.08425,-253.525,1533.31)">
              <path d="M311.366,643.402L343.454,680.713L311.366,718.023L279.277,680.713L311.366,643.402Z" style="fill: none; stroke: rgb(182, 25, 23); stroke-width: 26.64px" />
            </g>
          </g>
          <g id="inner-design-31" transform="matrix(0.376143,0.179682,-0.179682,0.376143,749.806,631.22)">
            <g transform="matrix(1.58372,0,0,1.41276,-50.488,-89.272)">
              <path
                d="M151.913,439.598L222.909,581.591L80.916,581.591L151.913,439.598ZM151.913,456.497L210.328,573.328C210.328,573.328 93.497,573.328 93.497,573.328L151.913,456.497Z"
                style="fill: rgb(182, 25, 23)"
              />
            </g>
            <g transform="matrix(1.58372,1.03658e-17,-9.78027e-18,-1.41439,-50.488,1416.15)">
              <path
                d="M151.913,439.598L222.909,581.591L80.916,581.591L151.913,439.598ZM151.913,456.501L93.496,573.334C93.496,573.334 210.329,573.334 210.329,573.334L151.913,456.501Z"
                style="fill: rgb(182, 25, 23)"
              />
            </g>
            <g transform="matrix(1,0,0,1,-1.04681,120.203)">
              <path d="M87.493,607.027L295.212,479.157" style="fill: none; stroke: rgb(182, 25, 23); stroke-width: 11.98px; stroke-linejoin: miter" />
            </g>
            <g transform="matrix(1,0,0,1,-1.04681,120.203)">
              <path d="M87.493,479.157L295.212,607.027" style="fill: none; stroke: rgb(182, 25, 23); stroke-width: 11.98px; stroke-linejoin: miter" />
            </g>
            <g transform="matrix(1,0,0,0.907198,-1.04681,171.52)">
              <path d="M191.146,411.572L191.146,674.18" style="fill: none; stroke: rgb(182, 25, 23); stroke-width: 11.98px; stroke-linejoin: miter" />
            </g>
            <g transform="matrix(1,0,0,1,-12.454,120.858)">
              <path
                d="M202.553,375.126C215.92,375.126 226.772,385.979 226.772,399.345C226.772,412.712 215.92,423.564 202.553,423.564C189.186,423.564 178.334,412.712 178.334,399.345C178.334,385.979 189.186,375.126 202.553,375.126ZM202.553,387.102C209.31,387.102 214.796,392.588 214.796,399.345C214.796,406.102 209.31,411.588 202.553,411.588C195.796,411.588 190.31,406.102 190.31,399.345C190.31,392.588 195.796,387.102 202.553,387.102Z"
                style="fill: rgb(182, 25, 23)"
              />
            </g>
            <g transform="matrix(0.527141,0.849778,-0.849778,0.527141,545.993,205.79)">
              <path
                d="M202.553,375.126C215.92,375.126 226.772,385.979 226.772,399.345C226.772,412.712 215.92,423.564 202.553,423.564C189.186,423.564 178.334,412.712 178.334,399.345C178.334,385.979 189.186,375.126 202.553,375.126ZM190.326,398.716L190.374,398.094C190.98,392.13 195.875,387.426 201.923,387.118L202.553,387.102C209.31,387.102 214.796,392.588 214.796,399.345C214.796,406.102 209.31,411.588 202.553,411.588C195.796,411.588 190.31,406.102 190.31,399.345C190.31,399.134 190.316,398.924 190.326,398.716Z"
                style="fill: rgb(182, 25, 23)"
              />
            </g>
            <g transform="matrix(-0.544639,-0.838671,0.838671,-0.544639,-159.087,1128.66)">
              <path
                d="M202.553,375.126C215.92,375.126 226.772,385.979 226.772,399.345C226.772,412.712 215.92,423.564 202.553,423.564C189.186,423.564 178.334,412.712 178.334,399.345C178.334,385.979 189.186,375.126 202.553,375.126ZM202.553,387.102C209.31,387.102 214.796,392.588 214.796,399.345C214.796,406.102 209.31,411.588 202.553,411.588C195.796,411.588 190.31,406.102 190.31,399.345C190.31,392.588 195.796,387.102 202.553,387.102Z"
                style="fill: rgb(182, 25, 23)"
              />
            </g>
            <g transform="matrix(0.516907,-0.856042,0.856042,0.516907,-381.045,555.396)">
              <path
                d="M202.553,375.126C215.92,375.126 226.772,385.979 226.772,399.345C226.772,412.712 215.92,423.564 202.553,423.564C189.186,423.564 178.334,412.712 178.334,399.345C178.334,385.979 189.186,375.126 202.553,375.126ZM202.553,387.102C209.31,387.102 214.796,392.588 214.796,399.345C214.796,406.102 209.31,411.588 202.553,411.588C195.796,411.588 190.31,406.102 190.31,399.345C190.31,392.588 195.796,387.102 202.553,387.102Z"
                style="fill: rgb(182, 25, 23)"
              />
            </g>
          </g>
          <g transform="matrix(0.968571,-0.248737,0.248737,0.968571,-182.737,159.153)">
            <path
              d="M88.157,671.259C91.929,662.523 99.471,662.523 103.243,665.952C107.014,669.381 107.014,676.24 103.243,683.099C100.603,688.243 93.814,693.387 88.157,696.816C82.5,693.387 75.712,688.243 73.072,683.099C69.301,676.24 69.301,669.381 73.072,665.952C76.844,662.523 84.386,662.523 88.157,671.259Z"
              style="fill: rgb(182, 25, 23)"
            />
          </g>
          <g transform="matrix(1,0,0,1,-1.04681,120.203)">
            <path
              d="M542.529,543.212C543.646,543.773 545.535,545.189 546.544,545.672C549.643,547.157 552.786,548.548 555.899,550.003C560.77,552.28 565.663,554.441 570.58,556.55C570.208,558.309 569.777,560.075 569.212,561.769C567.016,568.359 563.811,575.269 559.982,581.093C556.83,585.888 553.776,590.245 550.922,595.226C547.784,600.704 544.185,606.964 540.791,612.319C538.638,615.715 537.972,618.776 535.711,622.101C534.93,623.25 534.12,624.378 533.332,625.521C532.963,626.057 531.596,627.142 532.247,627.142C532.796,627.142 534.755,623.735 535.059,623.319C538.127,619.136 541.248,614.992 544.335,610.823C554.229,597.464 563.055,584.546 569.992,569.401C571.396,566.336 573.729,562.312 574.922,558.397C577.901,559.655 580.889,560.901 583.887,562.148C612.477,574.039 643.3,589.595 670.953,603.535C697.504,616.919 721.859,629.412 747.302,644.808C752.312,647.839 770.681,659.291 774.05,663.356C774.696,664.136 767.542,684.354 766.322,688.61C766.124,689.302 759.354,717.015 760.082,717.37C760.739,717.689 783.508,668.31 789.079,671.711C800.004,678.38 803.956,692.728 813.284,701.458C827.646,714.899 845.042,724.376 859.45,737.811C867.314,745.145 874.32,752.884 881.745,760.613C881.888,760.762 882.029,760.911 882.172,761.059C882.931,761.852 893.135,772.342 893.722,771.176C896.135,766.386 887.341,752.165 885.342,748.212C873.822,725.429 858.661,703.133 839.782,685.83C823.263,670.691 804.366,658.183 786.049,645.369C718.365,598.016 643.569,559.937 564.143,536.544L542.529,543.212ZM269.316,517.176C269.426,516.723 269.553,516.559 269.727,516.982L269.316,517.176C269.102,518.061 268.958,520.054 268.675,520.904C267.813,523.493 266.362,525.901 264.971,528.233C260.276,536.108 255.302,541.481 247.305,545.972C243.587,548.06 239.778,550.004 235.903,551.843C236.345,553.786 236.807,555.725 237.239,557.671C238.797,564.676 242.024,571.296 244.765,577.908C250.04,590.635 253.392,603.67 259.731,615.972C261.411,619.234 263.024,622.504 264.879,625.672C265.149,626.133 266.923,628.387 266.712,628.917C266.692,628.965 266.04,628.181 265.997,628.124C265.517,627.478 265.065,626.81 264.603,626.151C263.355,624.37 262.115,622.585 260.905,620.778C257.052,615.028 253.585,609.12 250.772,602.791C244.806,589.365 240.429,575.26 235.171,561.552C234.464,559.71 232.878,556.729 231.781,553.751C212.367,562.524 191.562,569.054 172.418,578.068C138.616,593.984 107.76,614.475 75.632,633.365C68.695,637.444 42.526,649.446 38.794,656.517C36.877,660.15 45.474,698.362 45.711,700.309C48.572,723.823 29.185,666.195 28.328,666.332C14.159,668.61 -8.638,694.748 -17.259,704.935C-30.921,721.077 -59.43,750.574 -70.484,765.013C-81.932,779.969 -84.066,721.848 -24.181,676.448C17.759,644.653 68.005,614.682 114.324,590.128L269.316,517.176ZM542.529,543.212L541.694,543.469C541.483,542.847 541.873,542.882 542.529,543.212Z"
              style="fill: rgb(252, 255, 216); fill-opacity: 0.6"
            />
          </g>
          <g>
            <path
              d="M216.169,633.779C216.148,633.794 236.204,687.631 238.703,693.462C248.316,715.892 254.922,744.528 277.224,757.91C294.941,768.54 314.097,767.032 333.174,772.893C349.804,778.001 364.88,787.305 382.098,790.684C445.468,803.122 506.032,785.973 543.036,731.947C550.51,721.034 574.271,686.797 574.271,672.035L552.873,649.368L216.169,633.779ZM408.857,782.743C408.68,784.391 408.624,788.31 407.702,789.21L408.857,782.743C408.872,782.599 408.888,782.473 408.906,782.368C409.933,776.279 410.69,770.082 412.189,764.085L408.857,782.743ZM444.49,787.988C444.72,787.914 444.336,782.824 444.324,782.509C444.111,776.789 444,771.071 443.561,765.364L444.49,787.988ZM376.675,785.082C376.66,785.17 376.657,785.189 376.674,785.085L376.675,785.082C376.712,784.873 376.818,784.278 376.883,784.035C377.069,783.34 377.251,782.644 377.431,781.948C378.001,779.745 378.605,777.551 379.193,775.352C380.921,768.895 382.469,761.971 385.199,755.828L376.675,785.082ZM478.374,778.374C478.826,777.1 477.635,773.997 477.398,772.731C476.489,767.872 475.916,762.644 474.066,758.019L478.374,778.374ZM348.628,774.343C348.104,775.301 349.235,772.244 349.56,771.202C350.211,769.114 350.858,767.023 351.524,764.94C353.515,758.713 355.362,752.382 357.733,746.284L348.628,774.343ZM320.335,761.425C319.842,763.453 319.307,765.836 318.3,767.114L320.335,761.425C320.527,760.635 320.713,759.899 320.917,759.303C322.96,753.353 324.915,747.221 327.474,741.464L320.335,761.425ZM506.238,762.688C504.882,759.958 503.637,757.07 502.462,754.148C501.287,751.226 500.182,748.27 499.108,745.406L506.238,762.688ZM296.396,748.828L302.327,735.143C300.173,739.605 298.301,744.232 296.396,748.828L293.87,754.657C292.944,756.345 290.957,759.599 291.261,760.676L293.87,754.657C294.036,754.354 294.168,754.101 294.246,753.921C294.978,752.234 295.689,750.533 296.396,748.828ZM268.486,742.275C268.317,741.261 271.577,738.266 272.155,737.57C275.934,733.011 279.708,728.438 283.803,724.156L268.486,742.275ZM528.151,738.015L531.604,741.828C530.399,740.623 529.265,739.331 528.151,738.015L520.274,729.317C520.473,729.202 522.819,731.842 523.139,732.185C524.879,734.045 526.493,736.056 528.151,738.015ZM536.231,706.899C535.923,707.135 538.492,709.442 539.002,709.935C542.093,712.92 545.626,715.24 548.893,717.963L536.231,706.899ZM250.217,710.299C252.748,708.511 255.446,706.902 258.18,705.348C260.915,703.795 263.684,702.297 266.357,700.732L250.217,710.299ZM545.688,685.578C546.153,685.69 547.251,685.946 547.704,686.111C549.169,686.644 550.617,687.239 552.051,687.852C555.858,689.479 559.26,691.87 562.943,693.692L564.243,694.303C563.805,694.108 563.372,693.904 562.943,693.692L545.688,685.578C545.459,685.522 545.384,685.502 545.619,685.545L545.688,685.578Z"
              style="fill: none; stroke: black; stroke-width: 2.13px; stroke-linecap: round"
            />
            <path
              d="M239.126,685.22C237.435,686.439 242.682,683.044 244.438,681.921C247.994,679.645 251.468,677.184 255.087,675.012"
              style="fill: none; stroke: black; stroke-width: 2.1px; stroke-linecap: round"
            />
            <path
              d="M35.025,757.268C34.636,757.403 36.166,764.429 36.307,765.251C39.804,785.555 62.073,917.24 69.428,936.545"
              style="fill: none; stroke: black; stroke-width: 2.1px; stroke-linecap: round"
            />
            <path d="M780.806,764.531C775.659,769.057 732.445,927.865 729.965,934.632" style="fill: none; stroke: black; stroke-width: 2.1px; stroke-linecap: round" />
          </g>
        </g>
        <path
          id="tshirt2"
          d="M-21.371,808.216C1.217,789.932 53.61,758.088 78.351,744.23C99.324,732.483 122.339,717.575 142.638,707.589C161.675,698.224 217.377,670.918 228.72,666.957C233.008,665.459 250.223,653.822 252.813,658.941C254.609,662.493 266.997,690.021 268.897,692.964C276.925,705.403 281.278,718.418 294.397,726.678C314.749,739.492 340.955,739.321 363.581,744.946C387.368,750.86 407.026,762.486 432.238,762.944C466.402,763.565 502.406,743.092 523.8,717.419C530.902,708.898 550.677,663.666 553.661,662.852C555.404,662.377 564.332,666.773 568.532,669.674C576.538,675.203 583.387,677.522 592.402,681.044C631.958,696.495 659.394,713.602 695.533,730.447C707.161,735.866 724.393,744.904 735.69,751.021C759.727,764.038 783.339,780.198 797.902,793.242C818.558,811.743 816.71,821.937 821.405,844.515C824.095,857.453 831.493,960.446 822.528,962.215C771.317,972.317 4.615,980.049 -26.418,957.911C-45.818,944.073 -44.359,843.967 -33.459,831.237L-21.371,808.216Z"
          style="fill: none; stroke: black; stroke-width: 2.13px; stroke-linecap: round"
        />
        <g transform="matrix(1,0,0,1,-1.04681,120.203)">
          <path
            d="M746.425,837.808C746.438,837.459 747.313,835.368 747.632,834.546C748.465,832.407 749.308,830.272 750.126,828.126C752.729,821.297 755.326,814.461 757.707,807.55C765.757,784.187 774.354,760.543 780.881,736.708C781.187,735.593 783.355,729.433 781.732,728.536C781.196,728.24 780.463,729.019 780.15,729.32C773.178,736.028 769.11,747.013 764.896,755.497C758.181,769.017 722.552,834.872 728.448,849.613L746.425,837.808ZM746.425,837.808L746.602,837.692C746.473,837.873 746.422,837.895 746.425,837.808ZM72.45,812.098C71.611,811.137 63.384,793.085 61.934,789.965C52.983,770.714 44.263,751.257 33.635,732.855C32.964,731.691 23.499,716.054 22.381,717.321C18.649,721.551 27.879,743.738 29.264,748.242C37.79,775.975 51.885,815.289 73.964,835.528L72.45,812.098ZM101.458,828.374C101.187,828.411 101.009,823.266 101.007,823.07C100.911,812.214 102.445,801.268 103.44,790.474C104.632,777.549 107.726,733.891 110.85,733.28C112.314,732.993 112.703,737.671 112.803,738.409C115.141,755.63 114.837,773.249 116.843,790.55C118.261,802.784 121.707,815.559 120.47,827.928L101.458,828.374ZM729.359,816.86C729.246,815.879 729.73,811.507 729.729,809.75C729.727,805.605 729.532,801.465 729.285,797.328C728.258,780.139 728.718,761.967 724.98,745.093C724.827,744.403 724.042,739.682 722.681,740.057C717.07,741.6 716.056,811.819 717.153,825.908L729.359,816.86ZM729.359,816.86L729.663,816.635C729.485,817.143 729.394,817.16 729.359,816.86ZM72.45,812.098L72.424,811.702C72.545,812.093 72.546,812.209 72.45,812.098Z"
            style="fill: rgb(56, 25, 57); fill-opacity: 0.5"
          />
        </g>
        <g transform="matrix(1,0,0,1,-1.04681,120.203)">
          <path
            d="M228.494,555.789C229.494,555.636 226.595,556.497 225.685,556.941C224.176,557.678 222.655,558.391 221.144,559.123C216.327,561.455 211.481,563.727 206.652,566.032C192.183,572.939 177.654,579.706 163.339,586.933C131.775,602.868 101.258,621.065 70.362,638.257C59.506,644.299 50.526,650.65 39.09,655.551"
            style="fill: none; stroke: black; stroke-width: 2.1px; stroke-linecap: round"
          />
        </g>
        <g transform="matrix(-1,0,0,1,806.744,125.873)">
          <path
            d="M228.494,555.789C229.494,555.636 226.595,556.497 225.685,556.941C224.176,557.678 222.655,558.391 221.144,559.123C216.327,561.455 211.481,563.727 206.652,566.032C192.183,572.939 177.654,579.706 163.339,586.933C131.775,602.868 98.495,619.578 67.599,636.77C56.743,642.811 46.326,652.331 34.89,657.232"
            style="fill: none; stroke: black; stroke-width: 2.1px; stroke-linecap: round"
          />
        </g>
      </g>
    </g>
  </g>
</svg>
