<svg width="100%" height="100%" viewBox="0 0 800 800" version="1.1" xmlns="http://www.w3.org/2000/svg" style="fill-rule:evenodd;clip-rule:evenodd;stroke-linecap:round;stroke-linejoin:round;stroke-miterlimit:1.5;">
    <g id="materials-card">
        <rect id="bg" x="-48.418" y="-9.957" width="931.967" height="871.066" style="fill:rgb(47,47,47);"/>
        <g id="rectangles" transform="matrix(1,0,0,1,49.4291,64.1339)">
            <g opacity="0.5">
                <g transform="matrix(0.660629,0,0,1.04551,351.522,-81.058)">
                    <rect x="462.47" y="633.282" width="419.335" height="322.449" style="fill:none;"/>
                    <clipPath id="material-card_0">
                        <rect x="462.47" y="633.282" width="419.335" height="322.449"/>
                    </clipPath>
                    <g clip-path="url(#material-card_0)">
                        <g transform="matrix(1.51371,0,0,0.956468,-452.99,37.369)">
                            <path d="M604.78,633.282L877.032,634.306" style="fill:none;stroke:rgb(166,240,98);stroke-width:4px;stroke-dasharray:4.25,7.5,0,0;"/>
                        </g>
                        <g transform="matrix(1.51371,0,0,0.956468,-452.99,58.0423)">
                            <path d="M604.78,633.282L877.032,634.306" style="fill:none;stroke:rgb(166,240,98);stroke-width:4px;stroke-dasharray:4.25,7.5,0,0;"/>
                        </g>
                        <g transform="matrix(1.51371,0,0,0.956468,-452.99,68.3789)">
                            <path d="M604.78,633.282L877.032,634.306" style="fill:none;stroke:rgb(166,240,98);stroke-width:4px;stroke-dasharray:4.25,7.5,0,0;"/>
                        </g>
                        <g transform="matrix(1.51371,0,0,0.956468,-452.99,89.0522)">
                            <path d="M604.78,633.282L877.032,634.306" style="fill:none;stroke:rgb(166,240,98);stroke-width:4px;stroke-dasharray:4.25,7.5,0,0;"/>
                        </g>
                        <g transform="matrix(1.51371,0,0,0.956468,-452.99,99.3888)">
                            <path d="M604.78,633.282L877.032,634.306" style="fill:none;stroke:rgb(166,240,98);stroke-width:4px;stroke-dasharray:4.25,7.5,0,0;"/>
                        </g>
                        <g transform="matrix(1.51371,0,0,0.956468,-452.99,130.399)">
                            <path d="M604.78,633.282L877.032,634.306" style="fill:none;stroke:rgb(166,240,98);stroke-width:4px;stroke-dasharray:4.25,7.5,0,0;"/>
                        </g>
                        <g transform="matrix(1.51371,0,0,0.956468,-452.99,151.072)">
                            <path d="M604.78,633.282L877.032,634.306" style="fill:none;stroke:rgb(166,240,98);stroke-width:4px;stroke-dasharray:4.25,7.5,0,0;"/>
                        </g>
                        <g transform="matrix(1.51371,0,0,0.956468,-452.99,171.745)">
                            <path d="M604.78,633.282L877.032,634.306" style="fill:none;stroke:rgb(166,240,98);stroke-width:4px;stroke-dasharray:4.25,7.5,0,0;"/>
                        </g>
                    </g>
                    <rect x="462.47" y="633.282" width="419.335" height="322.449" style="fill:none;stroke:rgb(166,240,98);stroke-width:4.57px;stroke-dasharray:4.86,8.58,0,0;"/>
                </g>
                <g transform="matrix(0.192707,0,0,1.04551,466.744,2.40586)">
                    <rect x="462.47" y="633.282" width="419.335" height="322.449" style="fill:none;"/>
                    <clipPath id="material-card_1">
                        <rect x="462.47" y="633.282" width="419.335" height="322.449"/>
                    </clipPath>
                    <g clip-path="url(#material-card_1)">
                        <g transform="matrix(1.51371,0,0,0.956468,-452.99,37.369)">
                            <path d="M604.78,633.282L877.032,634.306" style="fill:none;stroke:rgb(237,30,121);stroke-width:5.43px;stroke-dasharray:5.77,10.18,0,0;"/>
                        </g>
                        <g transform="matrix(1.51371,0,0,0.956468,-452.99,58.0423)">
                            <path d="M604.78,633.282L877.032,634.306" style="fill:none;stroke:rgb(237,30,121);stroke-width:5.43px;stroke-dasharray:5.77,10.18,0,0;"/>
                        </g>
                        <g transform="matrix(1.51371,0,0,0.956468,-452.99,68.3789)">
                            <path d="M604.78,633.282L877.032,634.306" style="fill:none;stroke:rgb(237,30,121);stroke-width:5.43px;stroke-dasharray:5.77,10.18,0,0;"/>
                        </g>
                        <g transform="matrix(1.51371,0,0,0.956468,-452.99,89.0522)">
                            <path d="M604.78,633.282L877.032,634.306" style="fill:none;stroke:rgb(237,30,121);stroke-width:5.43px;stroke-dasharray:5.77,10.18,0,0;"/>
                        </g>
                    </g>
                    <rect x="462.47" y="633.282" width="419.335" height="322.449" style="fill:none;stroke:rgb(237,30,121);stroke-width:5.32px;stroke-dasharray:5.65,9.98,0,0;"/>
                </g>
            </g>
        </g>
        <g id="circles" opacity="0.5">
            <g transform="matrix(1,0,0,1,-118.853,-94.5905)">
                <circle cx="155.124" cy="124.814" r="124.814" style="fill:none;stroke:rgb(255,207,0);stroke-width:4px;stroke-dasharray:4.25,7.5,0,0;"/>
            </g>
            <g transform="matrix(0.928318,0,0,0.928318,-107.734,-85.6437)">
                <circle cx="155.124" cy="124.814" r="124.814" style="fill:none;stroke:rgb(255,207,0);stroke-width:4.31px;stroke-dasharray:4.58,8.08,0,0;"/>
            </g>
            <g transform="matrix(0.691272,0,0,0.691272,-70.9623,-56.0571)">
                <circle cx="155.124" cy="124.814" r="124.814" style="fill:none;stroke:rgb(255,108,0);stroke-width:5.79px;stroke-dasharray:6.15,10.85,0,0;"/>
            </g>
        </g>
        <g transform="matrix(0.911866,0,0,0.911866,121.585,329.506)">
            <text x="179.62px" y="439.84px" style="font-family:'Futura-Medium', 'Futura', sans-serif;font-weight:500;font-size:118.438px;fill:white;"> 1%</text>
        </g>
        <g transform="matrix(0.720342,0,0,0.720342,14.7358,384.665)">
            <text x="77.471px" y="439.84px" style="font-family:'Futura-Medium', 'Futura', sans-serif;font-weight:500;font-size:50px;fill:white;">RARITY</text>
        </g>
        <g transform="matrix(1,0,0,1,-7.69409,0)">
            <path d="M82.194,602.738L733.196,602.258C733.979,602.258 734.615,601.621 734.614,600.838C734.614,600.055 733.977,599.42 733.194,599.42L82.192,599.9C81.409,599.901 80.773,600.537 80.774,601.321C80.775,602.104 81.411,602.739 82.194,602.738Z" style="fill:white;"/>
        </g>
        <g transform="matrix(1,0,0,1,120.441,145.046)">
            <text x="91.79px" y="439.84px" style="font-family:'Futura-Medium', 'Futura', sans-serif;font-weight:500;font-size:50px;fill:white;">DFINITY STONE</text>
        </g>
        <path id="border" d="M800,801.235L800,-4.106L-0,-4.106L0,801.235L800,801.235ZM260.875,30.644L30.644,30.644C30.644,30.644 30.644,769.356 30.644,769.356C30.644,769.356 769.356,769.356 769.356,769.356L769.356,30.644L539.125,30.644L539.125,61.806L260.875,61.806L260.875,30.644Z" style="fill:rgb(18,18,18);"/>
        <g id="guide" transform="matrix(1,0,0,1.04284,1.75676,-22.4672)">
            <rect x="82.193" y="95.569" width="632.101" height="428.927" style="fill:url(#material-cardmaterial-cardmaterial-card_Linear3);stroke:rgb(94,94,94);stroke-width:4.8px;"/>
        </g>
        <g id="Dfinity-stone" transform="matrix(0.754285,0,0,0.754285,98.5139,10.8753)">
            <path d="M400,117.517L629.266,249.774L629.266,514.685L400.192,646.941L400.192,647.052L400.096,646.997L400,647.052L400,646.941L170.925,514.685L170.925,249.774L400,117.517Z" style="fill:none;"/>
            <clipPath id="material-card_2">
                <path d="M400,117.517L629.266,249.774L629.266,514.685L400.192,646.941L400.192,647.052L400.096,646.997L400,647.052L400,646.941L170.925,514.685L170.925,249.774L400,117.517Z"/>
            </clipPath>
            <g clip-path="url(#material-card_2)">
                <g transform="matrix(-1,0,0,-1,799.152,763.752)">
                    <g id="v4" transform="matrix(-1.01186,0.584199,-0.508663,-0.88103,986.311,466.481)">
                        <path d="M228.211,250.022L284.589,361.8L172.811,361.8L228.211,250.022Z" style="fill:rgb(146,51,181);"/>
                        <clipPath id="material-card_3">
                            <path d="M228.211,250.022L284.589,361.8L172.811,361.8L228.211,250.022Z"/>
                        </clipPath>
                        <g clip-path="url(#material-card_3)">
                            <g transform="matrix(0.741208,0.491485,-0.427937,0.851276,265.937,-161.075)">
                                <path d="M218.102,408.238L225.603,482.497L179.57,441.101L168.853,513.924L164.513,377.014L218.102,408.238Z" style="fill:rgb(228,122,255);"/>
                            </g>
                        </g>
                        <path d="M228.211,250.022L284.589,361.8L172.811,361.8L228.211,250.022Z" style="fill:none;stroke:black;stroke-width:2.5px;"/>
                    </g>
                    <g id="v3" transform="matrix(-1.02655,0.592679,-0.51179,-0.886447,761.717,468.055)">
                        <path d="M228.211,250.022L284.589,361.8L172.811,361.8L228.211,250.022Z" style="fill:rgb(146,51,181);"/>
                        <clipPath id="material-card_4">
                            <path d="M228.211,250.022L284.589,361.8L172.811,361.8L228.211,250.022Z"/>
                        </clipPath>
                        <g clip-path="url(#material-card_4)">
                            <g transform="matrix(0.730602,0.488481,-0.421813,0.846074,97.3788,-268.468)">
                                <path d="M396.93,430.287L455.446,480.916L449.818,420.131L513.364,446.094L397.552,377.332L396.93,430.287Z" style="fill:rgb(228,122,255);"/>
                            </g>
                        </g>
                        <path d="M228.211,250.022L284.589,361.8L172.811,361.8L228.211,250.022Z" style="fill:none;stroke:black;stroke-width:2.5px;"/>
                    </g>
                    <g id="v2" transform="matrix(1.01186,-0.584199,0.508663,0.88103,41.1377,293.499)">
                        <path d="M228.211,250.022L284.589,361.8L172.811,361.8L228.211,250.022Z" style="fill:rgb(146,51,181);"/>
                        <clipPath id="material-card_5">
                            <path d="M228.211,250.022L284.589,361.8L172.811,361.8L228.211,250.022Z"/>
                        </clipPath>
                        <g clip-path="url(#material-card_5)">
                            <g transform="matrix(-0.741208,-0.491485,0.427937,-0.851276,360.608,772.868)">
                                <path d="M331.392,289.947L398.841,317.34L336.714,336.924L396.528,382.142L272.898,316.823L331.392,289.947Z" style="fill:rgb(228,122,255);"/>
                            </g>
                        </g>
                        <path d="M228.211,250.022L284.589,361.8L172.811,361.8L228.211,250.022Z" style="fill:none;stroke:black;stroke-width:2.5px;"/>
                    </g>
                    <g id="v1" transform="matrix(1.03172,-0.595664,0.508663,0.88103,37.1617,430.222)">
                        <path d="M228.211,250.022L284.589,361.8L172.811,361.8L228.211,250.022Z" style="fill:rgb(146,51,181);"/>
                        <clipPath id="material-card_6">
                            <path d="M228.211,250.022L284.589,361.8L172.811,361.8L228.211,250.022Z"/>
                        </clipPath>
                        <g clip-path="url(#material-card_6)">
                            <g transform="matrix(-0.726942,-0.491485,0.4197,-0.851276,413.94,658.434)">
                                <path d="M400.463,165.978L342.406,214.886L350.206,156.4L281.98,180.374L408.01,106.594L400.463,165.978Z" style="fill:rgb(228,122,255);"/>
                            </g>
                        </g>
                        <path d="M228.211,250.022L284.589,361.8L172.811,361.8L228.211,250.022Z" style="fill:none;stroke:black;stroke-width:2.5px;"/>
                    </g>
                    <g id="p5" transform="matrix(-1.01928,0.588484,-0.51338,-0.889201,760.986,601.112)">
                        <path d="M228.211,250.022L284.589,361.8L172.811,361.8L228.211,250.022Z" style="fill:rgb(254,56,143);"/>
                        <clipPath id="material-card_7">
                            <path d="M228.211,250.022L284.589,361.8L172.811,361.8L228.211,250.022Z"/>
                        </clipPath>
                        <g clip-path="url(#material-card_7)">
                            <g transform="matrix(0.73581,0.486969,-0.42482,0.843454,41.0101,-155.766)">
                                <path d="M400.403,294.854L456.043,349.122L441.166,283.236L513.532,316.005L401.314,250.084L400.403,294.854Z" style="fill:rgb(255,181,196);"/>
                            </g>
                        </g>
                        <path d="M228.211,250.022L284.589,361.8L172.811,361.8L228.211,250.022Z" style="fill:none;stroke:black;stroke-width:2.5px;"/>
                    </g>
                    <g id="P4" transform="matrix(-1.03246,0.596091,-0.51623,-0.894137,650.767,667.597)">
                        <path d="M228.211,250.022L284.589,361.8L172.811,361.8L228.211,250.022Z" style="fill:rgb(254,56,143);"/>
                        <clipPath id="material-card_8">
                            <path d="M228.211,250.022L284.589,361.8L172.811,361.8L228.211,250.022Z"/>
                        </clipPath>
                        <g clip-path="url(#material-card_8)">
                            <g transform="matrix(0.72642,0.48428,-0.419399,0.838798,-67.4628,-152.515)">
                                <path d="M513.237,272.341L570.292,212.881L552.971,285.124L627.632,251.791L511.843,319.2L513.237,272.341Z" style="fill:rgb(255,181,196);"/>
                            </g>
                        </g>
                        <path d="M228.211,250.022L284.589,361.8L172.811,361.8L228.211,250.022Z" style="fill:none;stroke:black;stroke-width:2.5px;"/>
                    </g>
                    <g id="p3" transform="matrix(1.03564,-0.59793,0.508663,0.88103,-192.917,166.733)">
                        <path d="M228.211,250.022L284.589,361.8L172.811,361.8L228.211,250.022Z" style="fill:rgb(254,56,143);"/>
                        <clipPath id="material-card_9">
                            <path d="M228.211,250.022L284.589,361.8L172.811,361.8L228.211,250.022Z"/>
                        </clipPath>
                        <g clip-path="url(#material-card_9)">
                            <g transform="matrix(-0.724186,-0.491485,0.418109,-0.851276,468.824,995.815)">
                                <path d="M599.806,398.77L570.623,480.107L623.111,428.374L629.925,512.451L632.672,378.555L599.806,398.77Z" style="fill:rgb(255,181,196);"/>
                            </g>
                        </g>
                        <path d="M228.211,250.022L284.589,361.8L172.811,361.8L228.211,250.022Z" style="fill:none;stroke:black;stroke-width:2.5px;"/>
                    </g>
                    <g id="p2" transform="matrix(1.01186,-0.584199,0.508663,0.88103,155.041,95.9621)">
                        <path d="M228.211,250.022L284.589,361.8L172.811,361.8L228.211,250.022Z" style="fill:rgb(254,56,143);"/>
                        <clipPath id="material-card_10">
                            <path d="M228.211,250.022L284.589,361.8L172.811,361.8L228.211,250.022Z"/>
                        </clipPath>
                        <g clip-path="url(#material-card_10)">
                            <g transform="matrix(-0.741208,-0.491485,0.427937,-0.851276,191.648,885.045)">
                                <path d="M287.173,488.742L230.027,546.446L245.448,480.155L171.867,513.696L286.11,448.014L287.173,488.742Z" style="fill:rgb(255,181,196);"/>
                            </g>
                        </g>
                        <path d="M228.211,250.022L284.589,361.8L172.811,361.8L228.211,250.022Z" style="fill:none;stroke:black;stroke-width:2.5px;"/>
                    </g>
                    <g id="p1" transform="matrix(1.01186,-0.584199,0.508663,0.88103,156.058,227.15)">
                        <path d="M228.211,250.022L284.589,361.8L172.811,361.8L228.211,250.022Z" style="fill:rgb(254,56,143);"/>
                        <clipPath id="material-card_11">
                            <path d="M228.211,250.022L284.589,361.8L172.811,361.8L228.211,250.022Z"/>
                        </clipPath>
                        <g clip-path="url(#material-card_11)">
                            <g transform="matrix(-0.741208,-0.491485,0.427937,-0.851276,247.035,772.868)">
                                <path d="M285.854,362.276L228.597,416.004L246.623,348.648L171.321,382.564L287.25,311.784L285.854,362.276Z" style="fill:rgb(255,181,196);"/>
                            </g>
                        </g>
                        <path d="M228.211,250.022L284.589,361.8L172.811,361.8L228.211,250.022Z" style="fill:none;stroke:black;stroke-width:2.5px;"/>
                    </g>
                    <g id="o5" transform="matrix(-1.04413,0.60283,-0.514451,-0.891056,994.782,597.616)">
                        <path d="M228.211,250.022L284.589,361.8L172.811,361.8L228.211,250.022Z" style="fill:rgb(241,90,37);"/>
                        <clipPath id="material-card_12">
                            <path d="M228.211,250.022L284.589,361.8L172.811,361.8L228.211,250.022Z"/>
                        </clipPath>
                        <g clip-path="url(#material-card_12)">
                            <g transform="matrix(0.718299,0.485955,-0.41471,0.841698,209.42,-44.7696)">
                                <path d="M215.564,274.894L230.119,349.063L180.742,305.15L171.131,383.394L160.614,237.537L215.564,274.894Z" style="fill:rgb(254,191,137);"/>
                            </g>
                        </g>
                        <path d="M228.211,250.022L284.589,361.8L172.811,361.8L228.211,250.022Z" style="fill:none;stroke:black;stroke-width:2.5px;"/>
                    </g>
                    <g id="o4" transform="matrix(-1.03816,0.599382,-0.515548,-0.892956,766.126,732.041)">
                        <path d="M228.7,250.022L284.589,361.8L172.811,361.8L228.7,250.022Z" style="fill:rgb(241,90,37);"/>
                        <clipPath id="material-card_13">
                            <path d="M228.7,250.022L284.589,361.8L172.811,361.8L228.7,250.022Z"/>
                        </clipPath>
                        <g clip-path="url(#material-card_13)">
                            <g transform="matrix(0.722432,0.484921,-0.417096,0.839907,-10.6328,-42.6495)">
                                <path d="M441.257,228.872L456.857,150.735L406.259,192.2L400.497,115.781L395.535,254.898L441.257,228.872Z" style="fill:rgb(254,191,137);"/>
                            </g>
                        </g>
                        <path d="M228.7,250.022L284.589,361.8L172.811,361.8L228.7,250.022Z" style="fill:none;stroke:black;stroke-width:2.5px;"/>
                    </g>
                    <g id="o3" transform="matrix(-1.01186,0.584199,-0.508794,-0.881257,871.438,401.606)">
                        <path d="M228.211,250.022L284.589,361.8L172.811,361.8L228.211,250.022Z" style="fill:rgb(241,90,37);"/>
                        <clipPath id="material-card_14">
                            <path d="M228.211,250.022L284.589,361.8L172.811,361.8L228.211,250.022Z"/>
                        </clipPath>
                        <g clip-path="url(#material-card_14)">
                            <g transform="matrix(0.741208,0.491358,-0.427937,0.851057,208.555,-272.689)">
                                <path d="M285.908,526.727L339.544,479.262L330.97,543.993L397.905,514.381L300.645,590.962L274.686,592.449L285.908,526.727Z" style="fill:rgb(254,191,137);"/>
                            </g>
                        </g>
                        <path d="M228.211,250.022L284.589,361.8L172.811,361.8L228.211,250.022Z" style="fill:none;stroke:black;stroke-width:2.5px;"/>
                    </g>
                    <g id="o2" transform="matrix(-1.01902,0.588332,-0.51179,-0.886447,645.415,535.202)">
                        <path d="M228.211,250.022L284.589,361.8L172.811,361.8L228.211,250.022Z" style="fill:rgb(241,90,37);"/>
                        <clipPath id="material-card_15">
                            <path d="M228.211,250.022L284.589,361.8L172.811,361.8L228.211,250.022Z"/>
                        </clipPath>
                        <g clip-path="url(#material-card_15)">
                            <g transform="matrix(0.736001,0.488481,-0.42493,0.846074,-16.0324,-268.468)">
                                <path d="M589.868,359.329L514.561,379.687L580.821,400.425L516.712,446.732L638.715,381.242L589.868,359.329Z" style="fill:rgb(254,191,137);"/>
                            </g>
                        </g>
                        <path d="M228.211,250.022L284.589,361.8L172.811,361.8L228.211,250.022Z" style="fill:none;stroke:black;stroke-width:2.5px;"/>
                    </g>
                    <g id="o1" transform="matrix(-1.03336,0.596613,-0.50951,-0.882498,762.07,332.154)">
                        <path d="M228.211,250.022L284.589,361.8L172.811,361.8L228.211,250.022Z" style="fill:rgb(241,90,37);"/>
                        <clipPath id="material-card_16">
                            <path d="M228.211,250.022L284.589,361.8L172.811,361.8L228.211,250.022Z"/>
                        </clipPath>
                        <g clip-path="url(#material-card_16)">
                            <g transform="matrix(0.725785,0.490667,-0.419032,0.849861,153.939,-384.994)">
                                <path d="M395.962,560.65L459.964,612.581L444.83,546.059L513.058,580.767L397.912,513.709L395.962,560.65Z" style="fill:rgb(254,191,137);"/>
                            </g>
                        </g>
                        <path d="M228.211,250.022L284.589,361.8L172.811,361.8L228.211,250.022Z" style="fill:none;stroke:black;stroke-width:2.5px;"/>
                    </g>
                    <g id="y5" transform="matrix(1.03816,-0.599382,0.508663,0.88103,-79.2877,100.531)">
                        <path d="M228.211,250.022L284.589,361.8L172.811,361.8L228.211,250.022Z" style="fill:rgb(255,204,79);"/>
                        <clipPath id="material-card_17">
                            <path d="M228.211,250.022L284.589,361.8L172.811,361.8L228.211,250.022Z"/>
                        </clipPath>
                        <g clip-path="url(#material-card_17)">
                            <g transform="matrix(-0.722432,-0.491485,0.417096,-0.851276,357.986,996.324)">
                                <path d="M468.075,475.876L456.582,547.241L505.7,505.45L515.946,585.21L516.377,447.146L468.075,475.876Z" style="fill:rgb(253,245,222);"/>
                            </g>
                        </g>
                        <path d="M228.211,250.022L284.589,361.8L172.811,361.8L228.211,250.022Z" style="fill:none;stroke:black;stroke-width:2.5px;"/>
                    </g>
                    <g id="y4" transform="matrix(1.03312,-0.596475,0.508663,0.88103,36.583,33.6333)">
                        <path d="M228.211,250.022L284.589,361.8L172.811,361.8L228.211,250.022Z" style="fill:rgb(255,204,79);"/>
                        <clipPath id="material-card_18">
                            <path d="M228.211,250.022L284.589,361.8L172.811,361.8L228.211,250.022Z"/>
                        </clipPath>
                        <g clip-path="url(#material-card_18)">
                            <g transform="matrix(-0.725953,-0.491485,0.419129,-0.851276,247.575,996.324)">
                                <path d="M400.675,589.867L342.529,546.442L351.086,607.209L283.784,579.944L404.052,659.039L400.675,589.867Z" style="fill:rgb(253,245,222);"/>
                            </g>
                        </g>
                        <path d="M228.211,250.022L284.589,361.8L172.811,361.8L228.211,250.022Z" style="fill:none;stroke:black;stroke-width:2.5px;"/>
                    </g>
                    <g id="y3" transform="matrix(1.01186,-0.584199,0.508663,0.88103,-188.007,295.087)">
                        <path d="M228.211,250.022L284.589,361.8L172.811,361.8L228.211,250.022Z" style="fill:rgb(255,204,79);"/>
                        <clipPath id="material-card_19">
                            <path d="M228.211,250.022L284.589,361.8L172.811,361.8L228.211,250.022Z"/>
                        </clipPath>
                        <g clip-path="url(#material-card_19)">
                            <g transform="matrix(-0.741208,-0.491485,0.427937,-0.851276,531.131,884.137)">
                                <path d="M579.266,279.166L572.711,348.754L623.101,312.598L629.285,384.042L635.376,240.392L579.266,279.166Z" style="fill:rgb(253,245,222);"/>
                            </g>
                        </g>
                        <path d="M228.211,250.022L284.589,361.8L172.811,361.8L228.211,250.022Z" style="fill:none;stroke:black;stroke-width:2.5px;"/>
                    </g>
                    <g id="y2" transform="matrix(1.01186,-0.584199,0.508663,0.88103,41.1377,162.193)">
                        <path d="M228.211,250.022L284.589,361.8L172.811,361.8L228.211,250.022Z" style="fill:rgb(255,204,79);"/>
                        <clipPath id="material-card_20">
                            <path d="M228.211,250.022L284.589,361.8L172.811,361.8L228.211,250.022Z"/>
                        </clipPath>
                        <g clip-path="url(#material-card_20)">
                            <g transform="matrix(-0.741208,-0.491485,0.427937,-0.851276,304.417,884.646)">
                                <path d="M353.214,488.15L343.449,415.018L391.566,454.169L400.096,385.871L404.839,527.307L353.214,488.15Z" style="fill:rgb(253,245,222);"/>
                            </g>
                        </g>
                        <path d="M228.211,250.022L284.589,361.8L172.811,361.8L228.211,250.022Z" style="fill:none;stroke:black;stroke-width:2.5px;"/>
                    </g>
                    <g id="y1" transform="matrix(1.01186,-0.584199,0.508663,0.88103,156.218,360.886)">
                        <path d="M228.211,250.022L284.589,361.8L172.811,361.8L228.211,250.022Z" style="fill:rgb(255,204,79);"/>
                        <clipPath id="material-card_21">
                            <path d="M228.211,250.022L284.589,361.8L172.811,361.8L228.211,250.022Z"/>
                        </clipPath>
                        <g clip-path="url(#material-card_21)">
                            <g transform="matrix(-0.741208,-0.491485,0.427937,-0.851276,304.147,658.942)">
                                <path d="M237.065,289.562L228.623,216.651L279.758,256.918L284.805,185.054L292.021,331.639L237.065,289.562Z" style="fill:rgb(253,245,222);"/>
                            </g>
                        </g>
                        <path d="M228.211,250.022L284.589,361.8L172.811,361.8L228.211,250.022Z" style="fill:none;stroke:black;stroke-width:2.5px;"/>
                    </g>
                    <g id="b5" transform="matrix(-1.04983,0.606118,-0.519021,-0.89897,883.836,666.086)">
                        <path d="M228.211,250.022L284.589,361.8L172.811,361.8L228.211,250.022Z" style="fill:rgb(41,170,225);"/>
                        <clipPath id="material-card_22">
                            <path d="M228.211,250.022L284.589,361.8L172.811,361.8L228.211,250.022Z"/>
                        </clipPath>
                        <g clip-path="url(#material-card_22)">
                            <g transform="matrix(0.714404,0.481676,-0.412461,0.834288,100.781,-40.6915)">
                                <path d="M368.728,230.287L284.969,244.28L358.789,266.912L283.434,315.793L404.429,251.938L368.728,230.287Z" style="fill:rgb(163,227,254);"/>
                            </g>
                        </g>
                        <path d="M228.211,250.022L284.589,361.8L172.811,361.8L228.211,250.022Z" style="fill:none;stroke:black;stroke-width:2.5px;"/>
                    </g>
                    <g id="b4" transform="matrix(-1.01571,0.586422,-0.511683,-0.886262,874.276,534.286)">
                        <path d="M228.211,250.022L284.589,361.8L172.811,361.8L228.211,250.022Z" style="fill:rgb(41,170,225);"/>
                        <clipPath id="material-card_23">
                            <path d="M228.211,250.022L284.589,361.8L172.811,361.8L228.211,250.022Z"/>
                        </clipPath>
                        <g clip-path="url(#material-card_23)">
                            <g transform="matrix(0.738398,0.488583,-0.426314,0.846251,153.296,-157.482)">
                                <path d="M286.085,405.61L345.759,350.239L321.748,420.991L411.92,373.031L283.057,458.791L286.085,405.61Z" style="fill:rgb(163,227,254);"/>
                            </g>
                        </g>
                        <path d="M228.211,250.022L284.589,361.8L172.811,361.8L228.211,250.022Z" style="fill:none;stroke:black;stroke-width:2.5px;"/>
                    </g>
                    <g id="b3" transform="matrix(-1.03845,0.599547,-0.508663,-0.88103,648.204,397.15)">
                        <path d="M228.211,250.022L284.589,361.8L172.811,361.8L228.211,250.022Z" style="fill:rgb(41,170,225);"/>
                        <clipPath id="material-card_24">
                            <path d="M228.211,250.022L284.589,361.8L172.811,361.8L228.211,250.022Z"/>
                        </clipPath>
                        <g clip-path="url(#material-card_24)">
                            <g transform="matrix(0.722233,0.491485,-0.416982,0.851276,43.8464,-386.269)">
                                <path d="M514.308,541.094L570.39,481.24L549.38,551.67L627.408,515.982L518.03,589.036L512.813,581.851L514.308,541.094Z" style="fill:rgb(163,227,254);"/>
                            </g>
                        </g>
                        <path d="M228.211,250.022L284.589,361.8L172.811,361.8L228.211,250.022Z" style="fill:none;stroke:black;stroke-width:2.5px;"/>
                    </g>
                    <g id="b2" transform="matrix(1.01186,-0.584199,0.508663,0.88103,-73.7826,228.542)">
                        <path d="M228.211,250.022L284.589,361.8L172.811,361.8L228.211,250.022Z" style="fill:rgb(41,170,225);"/>
                        <clipPath id="material-card_25">
                            <path d="M228.211,250.022L284.589,361.8L172.811,361.8L228.211,250.022Z"/>
                        </clipPath>
                        <g clip-path="url(#material-card_25)">
                            <g transform="matrix(-0.741208,-0.491485,0.427937,-0.851276,417.99,884.646)">
                                <path d="M474.905,339.143L452.452,411.731L509.667,365.146L513.52,448.272L520.896,343.9L516.678,312.193L474.905,339.143Z" style="fill:rgb(163,227,254);"/>
                            </g>
                        </g>
                        <path d="M228.211,250.022L284.589,361.8L172.811,361.8L228.211,250.022Z" style="fill:none;stroke:black;stroke-width:2.5px;"/>
                    </g>
                    <g id="b1" transform="matrix(1.01186,-0.584199,0.508663,0.88103,-73.0864,360.044)">
                        <path d="M228.211,250.022L284.589,361.8L172.811,361.8L228.211,250.022Z" style="fill:rgb(41,170,225);"/>
                        <clipPath id="material-card_26">
                            <path d="M228.211,250.022L284.589,361.8L172.811,361.8L228.211,250.022Z"/>
                        </clipPath>
                        <g clip-path="url(#material-card_26)">
                            <g transform="matrix(-0.741208,-0.491485,0.427937,-0.851276,473.749,772.359)">
                                <path d="M481.634,200.913L457.192,282.361L508.365,234.106L512.353,319.62L519.612,175.734L481.634,200.913Z" style="fill:rgb(163,227,254);"/>
                            </g>
                        </g>
                        <path d="M228.211,250.022L284.589,361.8L172.811,361.8L228.211,250.022Z" style="fill:none;stroke:black;stroke-width:2.5px;"/>
                    </g>
                </g>
            </g>
            <path d="M400,117.517L629.266,249.774L629.266,514.685L400.192,646.941L400.192,647.052L400.096,646.997L400,647.052L400,646.941L170.925,514.685L170.925,249.774L400,117.517Z" style="fill:none;stroke:black;stroke-width:2.5px;"/>
        </g>
        <g id="material-text" transform="matrix(1,0,0,1,15.3933,-2.65748)">
            <path d="M266.919,53.076L274.853,12.549L287.793,41.846L301.196,12.549L308.325,53.076L302.49,53.076L298.852,30.322L287.695,54.81L276.855,30.298L272.803,53.076L266.919,53.076Z" style="fill:white;fill-rule:nonzero;"/>
            <path d="M338.452,43.921L322.314,43.921L318.115,53.076L311.987,53.076L330.639,13.013L348.633,53.076L342.407,53.076L338.452,43.921ZM336.133,38.574L330.542,25.757L324.682,38.574L336.133,38.574Z" style="fill:white;fill-rule:nonzero;"/>
            <path d="M361.645,20.727L361.645,53.076L355.957,53.076L355.957,20.727L347.29,20.727L347.29,15.381L370.288,15.381L370.288,20.727L361.645,20.727Z" style="fill:white;fill-rule:nonzero;"/>
            <path d="M396.167,20.727L381.054,20.727L381.054,29.785L395.727,29.785L395.727,35.132L381.054,35.132L381.054,47.729L396.167,47.729L396.167,53.076L375.366,53.076L375.366,15.381L396.167,15.381L396.167,20.727Z" style="fill:white;fill-rule:nonzero;"/>
            <path d="M416.406,37.012L428.076,53.076L421.118,53.076L410.351,37.646L409.326,37.646L409.326,53.076L403.637,53.076L403.637,15.381L410.303,15.381C415.283,15.381 418.88,16.317 421.094,18.188C423.535,20.272 424.756,23.022 424.756,26.44C424.756,29.11 423.991,31.405 422.461,33.325C420.931,35.246 418.913,36.475 416.406,37.012ZM409.326,32.69L411.133,32.69C416.52,32.69 419.214,30.631 419.214,26.514C419.214,22.656 416.593,20.727 411.352,20.727L409.326,20.727L409.326,32.69Z" style="fill:white;fill-rule:nonzero;"/>
            <rect x="433.74" y="15.381" width="5.688" height="37.695" style="fill:white;fill-rule:nonzero;"/>
            <path d="M470.63,43.921L454.492,43.921L450.293,53.076L444.165,53.076L462.817,13.013L480.81,53.076L474.585,53.076L470.63,43.921ZM468.31,38.574L462.72,25.757L456.86,38.574L468.31,38.574Z" style="fill:white;fill-rule:nonzero;"/>
            <path d="M491.211,15.381L491.211,47.729L502.295,47.729L502.295,53.076L485.522,53.076L485.522,15.381L491.211,15.381Z" style="fill:white;fill-rule:nonzero;"/>
        </g>
    </g>
    <defs>
        <linearGradient id="material-cardmaterial-cardmaterial-card_Linear3" x1="0" y1="0" x2="1" y2="0" gradientUnits="userSpaceOnUse" gradientTransform="matrix(3.89688e-14,-610.267,636.408,3.73681e-14,398.243,614.74)"><stop offset="0" style="stop-color:rgb(122,122,122);stop-opacity:1"/><stop offset="0.44" style="stop-color:rgb(227,227,227);stop-opacity:1"/><stop offset="1" style="stop-color:white;stop-opacity:1"/></linearGradient>
    </defs>
</svg>
