<svg
  width="800px"
  height="800px"
  viewBox="0 0 800 800"
  version="1.1"
  xmlns="http://www.w3.org/2000/svg"
  style="fill-rule: evenodd; clip-rule: evenodd; stroke-linecap: round; stroke-linejoin: round; stroke-miterlimit: 1.5"
>
  <g id="normal-card">
    <rect id="bg" x="-48.418" y="-9.957" width="931.967" height="871.066" style="fill: rgb(6, 46, 66)" />
    <g id="rectangles" transform="matrix(1,0,0,1,49.4291,64.1339)">
      <g opacity="0.5">
        <g transform="matrix(0.660629,0,0,1.04551,351.522,-81.058)">
          <rect x="462.47" y="633.282" width="419.335" height="322.449" style="fill: none" />
          <clipPath id="normal-card_0">
            <rect x="462.47" y="633.282" width="419.335" height="322.449" />
          </clipPath>
          <g clip-path="url(#normal-card_0)">
            <g transform="matrix(1.51371,0,0,0.956468,-452.99,37.369)">
              <path d="M604.78,633.282L877.032,634.306" style="fill: none; stroke: rgb(166, 240, 98); stroke-width: 4px; stroke-dasharray: 4.25, 7.5, 0, 0" />
            </g>
            <g transform="matrix(1.51371,0,0,0.956468,-452.99,58.0423)">
              <path d="M604.78,633.282L877.032,634.306" style="fill: none; stroke: rgb(166, 240, 98); stroke-width: 4px; stroke-dasharray: 4.25, 7.5, 0, 0" />
            </g>
            <g transform="matrix(1.51371,0,0,0.956468,-452.99,68.3789)">
              <path d="M604.78,633.282L877.032,634.306" style="fill: none; stroke: rgb(166, 240, 98); stroke-width: 4px; stroke-dasharray: 4.25, 7.5, 0, 0" />
            </g>
            <g transform="matrix(1.51371,0,0,0.956468,-452.99,89.0522)">
              <path d="M604.78,633.282L877.032,634.306" style="fill: none; stroke: rgb(166, 240, 98); stroke-width: 4px; stroke-dasharray: 4.25, 7.5, 0, 0" />
            </g>
            <g transform="matrix(1.51371,0,0,0.956468,-452.99,99.3888)">
              <path d="M604.78,633.282L877.032,634.306" style="fill: none; stroke: rgb(166, 240, 98); stroke-width: 4px; stroke-dasharray: 4.25, 7.5, 0, 0" />
            </g>
            <g transform="matrix(1.51371,0,0,0.956468,-452.99,130.399)">
              <path d="M604.78,633.282L877.032,634.306" style="fill: none; stroke: rgb(166, 240, 98); stroke-width: 4px; stroke-dasharray: 4.25, 7.5, 0, 0" />
            </g>
            <g transform="matrix(1.51371,0,0,0.956468,-452.99,151.072)">
              <path d="M604.78,633.282L877.032,634.306" style="fill: none; stroke: rgb(166, 240, 98); stroke-width: 4px; stroke-dasharray: 4.25, 7.5, 0, 0" />
            </g>
            <g transform="matrix(1.51371,0,0,0.956468,-452.99,171.745)">
              <path d="M604.78,633.282L877.032,634.306" style="fill: none; stroke: rgb(166, 240, 98); stroke-width: 4px; stroke-dasharray: 4.25, 7.5, 0, 0" />
            </g>
          </g>
          <rect x="462.47" y="633.282" width="419.335" height="322.449" style="fill: none; stroke: rgb(166, 240, 98); stroke-width: 4.57px; stroke-dasharray: 4.86, 8.58, 0, 0" />
        </g>
        <g transform="matrix(0.192707,0,0,1.04551,466.744,2.40586)">
          <rect x="462.47" y="633.282" width="419.335" height="322.449" style="fill: none" />
          <clipPath id="normal-card_1">
            <rect x="462.47" y="633.282" width="419.335" height="322.449" />
          </clipPath>
          <g clip-path="url(#normal-card_1)">
            <g transform="matrix(1.51371,0,0,0.956468,-452.99,37.369)">
              <path d="M604.78,633.282L877.032,634.306" style="fill: none; stroke: rgb(237, 30, 121); stroke-width: 5.43px; stroke-dasharray: 5.77, 10.18, 0, 0" />
            </g>
            <g transform="matrix(1.51371,0,0,0.956468,-452.99,58.0423)">
              <path d="M604.78,633.282L877.032,634.306" style="fill: none; stroke: rgb(237, 30, 121); stroke-width: 5.43px; stroke-dasharray: 5.77, 10.18, 0, 0" />
            </g>
            <g transform="matrix(1.51371,0,0,0.956468,-452.99,68.3789)">
              <path d="M604.78,633.282L877.032,634.306" style="fill: none; stroke: rgb(237, 30, 121); stroke-width: 5.43px; stroke-dasharray: 5.77, 10.18, 0, 0" />
            </g>
            <g transform="matrix(1.51371,0,0,0.956468,-452.99,89.0522)">
              <path d="M604.78,633.282L877.032,634.306" style="fill: none; stroke: rgb(237, 30, 121); stroke-width: 5.43px; stroke-dasharray: 5.77, 10.18, 0, 0" />
            </g>
          </g>
          <rect x="462.47" y="633.282" width="419.335" height="322.449" style="fill: none; stroke: rgb(237, 30, 121); stroke-width: 5.32px; stroke-dasharray: 5.65, 9.98, 0, 0" />
        </g>
      </g>
    </g>
    <g id="circles" opacity="0.5">
      <g transform="matrix(1,0,0,1,-118.853,-94.5905)">
        <circle cx="155.124" cy="124.814" r="124.814" style="fill: none; stroke: rgb(255, 207, 0); stroke-width: 4px; stroke-dasharray: 4.25, 7.5, 0, 0" />
      </g>
      <g transform="matrix(0.928318,0,0,0.928318,-107.734,-85.6437)">
        <circle cx="155.124" cy="124.814" r="124.814" style="fill: none; stroke: rgb(255, 207, 0); stroke-width: 4.31px; stroke-dasharray: 4.58, 8.08, 0, 0" />
      </g>
      <g transform="matrix(0.691272,0,0,0.691272,-70.9623,-56.0571)">
        <circle cx="155.124" cy="124.814" r="124.814" style="fill: none; stroke: rgb(255, 108, 0); stroke-width: 5.79px; stroke-dasharray: 6.15, 10.85, 0, 0" />
      </g>
    </g>
    <g id="rarity-bars" transform="matrix(0.86723,0,0,0.86723,10.4494,88.5493)">
      <g id="rarity-bars-fill">
        <g transform="matrix(0.114833,0,0,0.114833,59.0756,653.445)">
          <path
            d="M400,117.517L629.266,249.774L629.266,514.685L400.192,646.941L400.192,647.052L400.096,646.997L400,647.052L400,646.941L170.925,514.685L170.925,249.774L400,117.517Z"
            style="fill: rgb(139, 57, 219)"
          />
        </g>
        <g transform="matrix(0.114833,0,0,0.114833,126.648,653.445)">
          <path
            d="M400,117.517L629.266,249.774L629.266,514.685L400.192,646.941L400.192,647.052L400.096,646.997L400,647.052L400,646.941L170.925,514.685L170.925,249.774L400,117.517Z"
            style="fill: rgb(237, 30, 121)"
          />
        </g>
        <g transform="matrix(0.114833,0,0,0.114833,194.22,653.445)">
          <path
            d="M400,117.517L629.266,249.774L629.266,514.685L400.192,646.941L400.192,647.052L400.096,646.997L400,647.052L400,646.941L170.925,514.685L170.925,249.774L400,117.517Z"
            style="fill: rgb(241, 90, 36)"
          />
        </g>
        <g transform="matrix(0.114833,0,0,0.114833,261.792,653.445)">
          <path
            d="M400,117.517L629.266,249.774L629.266,514.685L400.192,646.941L400.192,647.052L400.096,646.997L400,647.052L400,646.941L170.925,514.685L170.925,249.774L400,117.517Z"
            style="fill: rgb(251, 176, 59)"
          />
        </g>
        <g transform="matrix(0.114833,0,0,0.114833,329.364,653.445)">
          <path
            d="M400,117.517L629.266,249.774L629.266,514.685L400.192,646.941L400.192,647.052L400.096,646.997L400,647.052L400,646.941L170.925,514.685L170.925,249.774L400,117.517Z"
            style="fill: rgb(41, 171, 226)"
          />
        </g>
      </g>
      <g id="rarity-bars-stroke">
        <g transform="matrix(0.114833,0,0,0.114833,59.0756,653.445)">
          <path
            d="M400,117.517L629.266,249.774L629.266,514.685L400.192,646.941L400.192,647.052L400.096,646.997L400,647.052L400,646.941L170.925,514.685L170.925,249.774L400,117.517Z"
            style="fill: none; stroke: white; stroke-width: 34.83px"
          />
        </g>
        <g transform="matrix(0.114833,0,0,0.114833,126.648,653.445)">
          <path
            d="M400,117.517L629.266,249.774L629.266,514.685L400.192,646.941L400.192,647.052L400.096,646.997L400,647.052L400,646.941L170.925,514.685L170.925,249.774L400,117.517Z"
            style="fill: none; stroke: white; stroke-width: 34.83px"
          />
        </g>
        <g transform="matrix(0.114833,0,0,0.114833,194.22,653.445)">
          <path
            d="M400,117.517L629.266,249.774L629.266,514.685L400.192,646.941L400.192,647.052L400.096,646.997L400,647.052L400,646.941L170.925,514.685L170.925,249.774L400,117.517Z"
            style="fill: none; stroke: white; stroke-width: 34.83px"
          />
        </g>
        <g transform="matrix(0.114833,0,0,0.114833,261.792,653.445)">
          <path
            d="M400,117.517L629.266,249.774L629.266,514.685L400.192,646.941L400.192,647.052L400.096,646.997L400,647.052L400,646.941L170.925,514.685L170.925,249.774L400,117.517Z"
            style="fill: none; stroke: white; stroke-width: 34.83px"
          />
        </g>
        <g transform="matrix(0.114833,0,0,0.114833,329.364,653.445)">
          <path
            d="M400,117.517L629.266,249.774L629.266,514.685L400.192,646.941L400.192,647.052L400.096,646.997L400,647.052L400,646.941L170.925,514.685L170.925,249.774L400,117.517Z"
            style="fill: none; stroke: white; stroke-width: 34.83px"
          />
        </g>
      </g>
    </g>
    <g transform="matrix(0.720342,0,0,0.720342,23.1337,330.63)">
      <text x="77.471px" y="439.84px" style="font-family: 'Futura-Medium', 'Futura', sans-serif; font-weight: 500; font-size: 50px; fill: white">RARITY</text>
    </g>
    <g transform="matrix(0.911866,0,0,0.911866,252.534,309.097)">
      <text x="190.763px" y="439.84px" style="font-family: 'Futura-Medium', 'Futura', sans-serif; font-weight: 500; font-size: 50px; fill: white" id="wear_value"></text>
    </g>
    <g transform="matrix(0.720342,0,0,0.720342,340.614,330.63)">
      <text x="77.471px" y="439.84px" style="font-family: 'Futura-Medium', 'Futura', sans-serif; font-weight: 500; font-size: 50px; fill: white">WEAR</text>
    </g>
    <g transform="matrix(0.12628,0,0,0.12628,605.263,647.2)">
      <g id="face">
        <path
          d="M242.443,340.748C239.366,324.107 235.815,312.06 233.6,282.977C231.724,258.34 232.547,205.029 246.678,183.177C256.885,167.393 277.39,147.796 293.216,139.523C328.059,121.306 359.521,112.563 399.4,112.476L400,112.475L400,112.476C439.88,112.563 471.341,121.306 506.185,139.523C522.01,147.796 542.515,167.393 552.722,183.177C566.853,205.029 567.676,258.34 565.8,282.977C563.66,311.08 560.272,323.275 557.269,339.086C559.529,333.346 562.212,328.072 567.983,324.162C574.687,319.621 586.281,319.368 591.059,327.169C595.049,333.683 596.09,339.464 596.221,346.832C596.376,355.493 587.445,399.939 581.655,411.912C577.788,419.91 563.307,452.43 547.771,448.494C544.36,447.63 542.548,444.628 541.249,441.016C540.665,443.546 540.087,446.055 539.523,448.534C527.922,499.533 498.217,534.323 460.902,568.28C449.868,578.321 439.394,585.832 423.24,595.36C418.67,598.055 413.211,598.568 407.961,598.886C406.403,598.981 402.197,599.155 400,599.258L400,599.287L399.4,599.258C397.203,599.155 392.997,598.981 391.44,598.886C386.189,598.568 380.73,598.055 376.16,595.36C360.006,585.832 349.532,578.321 338.498,568.28C301.183,534.323 271.478,499.533 259.877,448.534C259.271,445.871 258.649,443.172 258.021,440.449C256.707,444.31 254.889,447.585 251.3,448.494C235.765,452.43 220.094,421.057 215.586,411.7C209.814,399.719 202.695,355.493 202.85,346.832C202.981,339.464 204.022,333.683 208.012,327.169C212.79,319.368 224.384,319.621 231.088,324.162C237.412,328.446 240.028,334.369 242.443,340.748Z"
          style="fill: white"
        />
      </g>
    </g>
    <g id="eye" transform="matrix(1,0,0,1,-1.77165,0)">
      <g transform="matrix(0.88044,0,0,0.88044,68.5829,70.2432)">
        <path
          d="M634.355,700.111C653.954,688.642 678.218,688.642 697.818,700.111C704.234,703.866 709.059,706.69 709.059,706.69C709.059,706.69 704.234,709.513 697.818,713.268C678.218,724.738 653.954,724.738 634.355,713.268C627.938,709.513 623.113,706.69 623.113,706.69C623.113,706.69 627.938,703.866 634.355,700.111Z"
          style="fill: white"
        />
      </g>
      <circle cx="655.032" cy="692.441" r="13.365" style="fill: rgb(6, 46, 66)" />
    </g>
    <g transform="matrix(1,0,0,1,11.3386,0)">
      <g id="clothing">
        <path
          d="M643.088,685.842C646.783,685.778 648.661,683.2 649.092,679.318C650.012,671.056 649.138,666.716 649.138,666.716L653.408,666.766C653.408,666.766 651.456,677.988 655.595,682.825C658.992,686.794 662.073,686.445 662.073,686.445L662.462,712.698L623.892,712.698L624.28,686.445C624.28,686.445 626.476,686.794 629.873,682.825C634.012,677.988 632.06,666.766 632.06,666.766L636.417,666.616C636.417,666.616 635.514,670.986 636.433,679.248C636.865,683.129 638.73,685.919 643.088,685.842Z"
          style="fill: white"
        />
      </g>
    </g>
    <g transform="matrix(12.011,0,0,12.011,-6825.08,-7656.1)">
      <g id="misc">
        <g>
          <text x="619.305px" y="696.149px" style="font-family: 'Futura-Medium', 'Futura', sans-serif; font-weight: 500; font-size: 3.075px; fill: white">$#</text>
          <text x="623.101px" y="696.149px" style="font-family: 'Futura-Medium', 'Futura', sans-serif; font-weight: 500; font-size: 3.075px; fill: white">*</text>
          <text x="624.664px" y="696.149px" style="font-family: 'Futura-Medium', 'Futura', sans-serif; font-weight: 500; font-size: 3.075px; fill: white">!</text>
        </g>
      </g>
    </g>
    <g id="hat" transform="matrix(1.10125,0,0,1.10125,158.833,-78.5692)">
      <g transform="matrix(1,0,0,1,-51.9094,-2.83465)">
        <path d="M474.461,710.793C485.268,715.724 523.434,714.96 530.456,710.765" style="fill: none; stroke: white; stroke-width: 3px; stroke-linecap: butt" />
      </g>
      <g transform="matrix(1,0,0,0.58812,-0.101996,292.708)">
        <rect x="433.636" y="663.946" width="33.608" height="46.716" style="fill: white" />
      </g>
    </g>
    <g transform="matrix(0.720342,0,0,0.720342,520.614,330.63)">
      <text x="124.102px" y="439.84px" style="font-family: 'Futura-Medium', 'Futura', sans-serif; font-weight: 500; font-size: 50px; fill: white">SLOT</text>
    </g>
    <g transform="matrix(1,0,0,1,-7.69409,0)">
      <path
        d="M82.194,602.738L733.196,602.258C733.979,602.258 734.615,601.621 734.614,600.838C734.614,600.055 733.977,599.42 733.194,599.42L82.192,599.9C81.409,599.901 80.773,600.537 80.774,601.321C80.775,602.104 81.411,602.739 82.194,602.738Z"
        style="fill: white"
      />
    </g>
    <g transform="matrix(1,0,0,1,120.441,145.046)">
      <text x="77.471px" y="439.84px" style="font-family: 'Futura-Medium', 'Futura', sans-serif; font-weight: 500; font-size: 50px; fill: white">DFINITY SHADES</text>
    </g>
    <path
      id="border"
      d="M800,801.235L800,-4.106L-0,-4.106L0,801.235L800,801.235ZM260.875,30.644L30.644,30.644C30.644,30.644 30.644,769.356 30.644,769.356C30.644,769.356 769.356,769.356 769.356,769.356L769.356,30.644L539.125,30.644L539.125,61.806L260.875,61.806L260.875,30.644Z"
      style="fill: rgb(0, 153, 197)"
    />
    <g id="guide" transform="matrix(1,0,0,1.04284,1.75676,-22.4672)">
      <rect x="82.193" y="95.569" width="632.101" height="428.927" style="fill: url(#normal-card_Linear1)" />
    </g>
    <g transform="matrix(1.74288,0,0,1.74288,-297.157,-266.611)">
      <!-- INSERT HERE -->
    </g>
    <g transform="matrix(1,0,0,1,7.6296,-2.65748)">
      <text x="263.72px" y="53.076px" style="font-family: 'Futura-Medium', 'Futura', sans-serif; font-weight: 500; font-size: 50px; fill: white">SEASON 0</text>
    </g>
  </g>
  <defs>
    <linearGradient id="normal-card_Linear1" x1="0" y1="0" x2="1" y2="0" gradientUnits="userSpaceOnUse" gradientTransform="matrix(3.89688e-14,-610.267,636.408,3.73681e-14,398.243,614.74)">
      <stop offset="0" style="stop-color: rgb(80, 225, 255); stop-opacity: 1" />
      <stop offset="0.44" style="stop-color: rgb(219, 249, 255); stop-opacity: 1" />
      <stop offset="1" style="stop-color: white; stop-opacity: 1" />
    </linearGradient>
  </defs>
</svg>
