<svg
  width="100%"
  height="100%"
  viewBox="0 0 800 800"
  version="1.1"
  xmlns="http://www.w3.org/2000/svg"
  style="fill-rule: evenodd; clip-rule: evenodd; stroke-linecap: round; stroke-linejoin: round; stroke-miterlimit: 1.5"
>
  <g id="normal-card">
    <rect id="bg" x="-48.418" y="-9.957" width="931.967" height="871.066" style="fill: rgb(6, 46, 66)" />
    <g id="rectangles" transform="matrix(1,0,0,1,49.4291,64.1339)">
      <g opacity="0.5">
        <g transform="matrix(0.660629,0,0,1.04551,351.522,-81.058)">
          <rect x="462.47" y="633.282" width="419.335" height="322.449" style="fill: none" />
          <clipPath id="normal-card_0">
            <rect x="462.47" y="633.282" width="419.335" height="322.449" />
          </clipPath>
          <g clip-path="url(#normal-card_0)">
            <g transform="matrix(1.51371,0,0,0.956468,-452.99,37.369)">
              <path d="M604.78,633.282L877.032,634.306" style="fill: none; stroke: rgb(166, 240, 98); stroke-width: 4px; stroke-dasharray: 4.25, 7.5, 0, 0" />
            </g>
            <g transform="matrix(1.51371,0,0,0.956468,-452.99,58.0423)">
              <path d="M604.78,633.282L877.032,634.306" style="fill: none; stroke: rgb(166, 240, 98); stroke-width: 4px; stroke-dasharray: 4.25, 7.5, 0, 0" />
            </g>
            <g transform="matrix(1.51371,0,0,0.956468,-452.99,68.3789)">
              <path d="M604.78,633.282L877.032,634.306" style="fill: none; stroke: rgb(166, 240, 98); stroke-width: 4px; stroke-dasharray: 4.25, 7.5, 0, 0" />
            </g>
            <g transform="matrix(1.51371,0,0,0.956468,-452.99,89.0522)">
              <path d="M604.78,633.282L877.032,634.306" style="fill: none; stroke: rgb(166, 240, 98); stroke-width: 4px; stroke-dasharray: 4.25, 7.5, 0, 0" />
            </g>
            <g transform="matrix(1.51371,0,0,0.956468,-452.99,99.3888)">
              <path d="M604.78,633.282L877.032,634.306" style="fill: none; stroke: rgb(166, 240, 98); stroke-width: 4px; stroke-dasharray: 4.25, 7.5, 0, 0" />
            </g>
            <g transform="matrix(1.51371,0,0,0.956468,-452.99,130.399)">
              <path d="M604.78,633.282L877.032,634.306" style="fill: none; stroke: rgb(166, 240, 98); stroke-width: 4px; stroke-dasharray: 4.25, 7.5, 0, 0" />
            </g>
            <g transform="matrix(1.51371,0,0,0.956468,-452.99,151.072)">
              <path d="M604.78,633.282L877.032,634.306" style="fill: none; stroke: rgb(166, 240, 98); stroke-width: 4px; stroke-dasharray: 4.25, 7.5, 0, 0" />
            </g>
            <g transform="matrix(1.51371,0,0,0.956468,-452.99,171.745)">
              <path d="M604.78,633.282L877.032,634.306" style="fill: none; stroke: rgb(166, 240, 98); stroke-width: 4px; stroke-dasharray: 4.25, 7.5, 0, 0" />
            </g>
          </g>
          <rect x="462.47" y="633.282" width="419.335" height="322.449" style="fill: none; stroke: rgb(166, 240, 98); stroke-width: 4.57px; stroke-dasharray: 4.86, 8.58, 0, 0" />
        </g>
        <g transform="matrix(0.192707,0,0,1.04551,466.744,2.40586)">
          <rect x="462.47" y="633.282" width="419.335" height="322.449" style="fill: none" />
          <clipPath id="normal-card_1">
            <rect x="462.47" y="633.282" width="419.335" height="322.449" />
          </clipPath>
          <g clip-path="url(#normal-card_1)">
            <g transform="matrix(1.51371,0,0,0.956468,-452.99,37.369)">
              <path d="M604.78,633.282L877.032,634.306" style="fill: none; stroke: rgb(237, 30, 121); stroke-width: 5.43px; stroke-dasharray: 5.77, 10.18, 0, 0" />
            </g>
            <g transform="matrix(1.51371,0,0,0.956468,-452.99,58.0423)">
              <path d="M604.78,633.282L877.032,634.306" style="fill: none; stroke: rgb(237, 30, 121); stroke-width: 5.43px; stroke-dasharray: 5.77, 10.18, 0, 0" />
            </g>
            <g transform="matrix(1.51371,0,0,0.956468,-452.99,68.3789)">
              <path d="M604.78,633.282L877.032,634.306" style="fill: none; stroke: rgb(237, 30, 121); stroke-width: 5.43px; stroke-dasharray: 5.77, 10.18, 0, 0" />
            </g>
            <g transform="matrix(1.51371,0,0,0.956468,-452.99,89.0522)">
              <path d="M604.78,633.282L877.032,634.306" style="fill: none; stroke: rgb(237, 30, 121); stroke-width: 5.43px; stroke-dasharray: 5.77, 10.18, 0, 0" />
            </g>
          </g>
          <rect x="462.47" y="633.282" width="419.335" height="322.449" style="fill: none; stroke: rgb(237, 30, 121); stroke-width: 5.32px; stroke-dasharray: 5.65, 9.98, 0, 0" />
        </g>
      </g>
    </g>
    <g id="circles" opacity="0.5">
      <g transform="matrix(1,0,0,1,-118.853,-94.5905)">
        <circle cx="155.124" cy="124.814" r="124.814" style="fill: none; stroke: rgb(255, 207, 0); stroke-width: 4px; stroke-dasharray: 4.25, 7.5, 0, 0" />
      </g>
      <g transform="matrix(0.928318,0,0,0.928318,-107.734,-85.6437)">
        <circle cx="155.124" cy="124.814" r="124.814" style="fill: none; stroke: rgb(255, 207, 0); stroke-width: 4.31px; stroke-dasharray: 4.58, 8.08, 0, 0" />
      </g>
      <g transform="matrix(0.691272,0,0,0.691272,-70.9623,-56.0571)">
        <circle cx="155.124" cy="124.814" r="124.814" style="fill: none; stroke: rgb(255, 108, 0); stroke-width: 5.79px; stroke-dasharray: 6.15, 10.85, 0, 0" />
      </g>
    </g>
    <g id="rarity-bars" transform="matrix(0.86723,0,0,0.86723,10.4494,88.5493)">
      <g id="rarity-bars-fill">
        <g transform="matrix(0.114833,0,0,0.114833,59.0756,653.445)">
          <path
            d="M400,117.517L629.266,249.774L629.266,514.685L400.192,646.941L400.192,647.052L400.096,646.997L400,647.052L400,646.941L170.925,514.685L170.925,249.774L400,117.517Z"
            style="fill: rgb(139, 57, 219)"
          />
        </g>
        <g transform="matrix(0.114833,0,0,0.114833,126.648,653.445)">
          <path
            d="M400,117.517L629.266,249.774L629.266,514.685L400.192,646.941L400.192,647.052L400.096,646.997L400,647.052L400,646.941L170.925,514.685L170.925,249.774L400,117.517Z"
            style="fill: rgb(237, 30, 121)"
          />
        </g>
        <g transform="matrix(0.114833,0,0,0.114833,194.22,653.445)">
          <path
            d="M400,117.517L629.266,249.774L629.266,514.685L400.192,646.941L400.192,647.052L400.096,646.997L400,647.052L400,646.941L170.925,514.685L170.925,249.774L400,117.517Z"
            style="fill: rgb(241, 90, 36)"
          />
        </g>
        <g transform="matrix(0.114833,0,0,0.114833,261.792,653.445)">
          <path
            d="M400,117.517L629.266,249.774L629.266,514.685L400.192,646.941L400.192,647.052L400.096,646.997L400,647.052L400,646.941L170.925,514.685L170.925,249.774L400,117.517Z"
            style="fill: rgb(251, 176, 59)"
          />
        </g>
        <g transform="matrix(0.114833,0,0,0.114833,329.364,653.445)">
          <path
            d="M400,117.517L629.266,249.774L629.266,514.685L400.192,646.941L400.192,647.052L400.096,646.997L400,647.052L400,646.941L170.925,514.685L170.925,249.774L400,117.517Z"
            style="fill: rgb(41, 171, 226)"
          />
        </g>
      </g>
      <g id="rarity-bars-stroke">
        <g transform="matrix(0.114833,0,0,0.114833,59.0756,653.445)">
          <path
            d="M400,117.517L629.266,249.774L629.266,514.685L400.192,646.941L400.192,647.052L400.096,646.997L400,647.052L400,646.941L170.925,514.685L170.925,249.774L400,117.517Z"
            style="fill: none; stroke: white; stroke-width: 34.83px"
          />
        </g>
        <g transform="matrix(0.114833,0,0,0.114833,126.648,653.445)">
          <path
            d="M400,117.517L629.266,249.774L629.266,514.685L400.192,646.941L400.192,647.052L400.096,646.997L400,647.052L400,646.941L170.925,514.685L170.925,249.774L400,117.517Z"
            style="fill: none; stroke: white; stroke-width: 34.83px"
          />
        </g>
        <g transform="matrix(0.114833,0,0,0.114833,194.22,653.445)">
          <path
            d="M400,117.517L629.266,249.774L629.266,514.685L400.192,646.941L400.192,647.052L400.096,646.997L400,647.052L400,646.941L170.925,514.685L170.925,249.774L400,117.517Z"
            style="fill: none; stroke: white; stroke-width: 34.83px"
          />
        </g>
        <g transform="matrix(0.114833,0,0,0.114833,261.792,653.445)">
          <path
            d="M400,117.517L629.266,249.774L629.266,514.685L400.192,646.941L400.192,647.052L400.096,646.997L400,647.052L400,646.941L170.925,514.685L170.925,249.774L400,117.517Z"
            style="fill: none; stroke: white; stroke-width: 34.83px"
          />
        </g>
        <g transform="matrix(0.114833,0,0,0.114833,329.364,653.445)">
          <path
            d="M400,117.517L629.266,249.774L629.266,514.685L400.192,646.941L400.192,647.052L400.096,646.997L400,647.052L400,646.941L170.925,514.685L170.925,249.774L400,117.517Z"
            style="fill: none; stroke: white; stroke-width: 34.83px"
          />
        </g>
      </g>
    </g>
    <g transform="matrix(0.720342,0,0,0.720342,23.1337,330.63)">
      <text x="77.471px" y="439.84px" style="font-family: 'Futura-Medium', 'Futura', sans-serif; font-weight: 500; font-size: 50px; fill: white">
        RARIT
        <tspan x="216.021px " y="439.84px ">Y</tspan>
      </text>
    </g>
    <g transform="matrix(0.911866,0,0,0.911866,252.534,309.097)">
      <text x="190.763px" y="439.84px" style="font-family: 'Futura-Medium', 'Futura', sans-serif; font-weight: 500; font-size: 50px; fill: white" id="wear_value"></text>
    </g>
    <g transform="matrix(0.720342,0,0,0.720342,340.614,330.63)">
      <text x="77.471px" y="439.84px" style="font-family: 'Futura-Medium', 'Futura', sans-serif; font-weight: 500; font-size: 50px; fill: white">WEAR</text>
    </g>
    <g transform="matrix(0.12628,0,0,0.12628,605.263,647.2)">
      <g id="face">
        <path
          d="M242.443,340.748C239.366,324.107 235.815,312.06 233.6,282.977C231.724,258.34 232.547,205.029 246.678,183.177C256.885,167.393 277.39,147.796 293.216,139.523C328.059,121.306 359.521,112.563 399.4,112.476L400,112.475L400,112.476C439.88,112.563 471.341,121.306 506.185,139.523C522.01,147.796 542.515,167.393 552.722,183.177C566.853,205.029 567.676,258.34 565.8,282.977C563.66,311.08 560.272,323.275 557.269,339.086C559.529,333.346 562.212,328.072 567.983,324.162C574.687,319.621 586.281,319.368 591.059,327.169C595.049,333.683 596.09,339.464 596.221,346.832C596.376,355.493 587.445,399.939 581.655,411.912C577.788,419.91 563.307,452.43 547.771,448.494C544.36,447.63 542.548,444.628 541.249,441.016C540.665,443.546 540.087,446.055 539.523,448.534C527.922,499.533 498.217,534.323 460.902,568.28C449.868,578.321 439.394,585.832 423.24,595.36C418.67,598.055 413.211,598.568 407.961,598.886C406.403,598.981 402.197,599.155 400,599.258L400,599.287L399.4,599.258C397.203,599.155 392.997,598.981 391.44,598.886C386.189,598.568 380.73,598.055 376.16,595.36C360.006,585.832 349.532,578.321 338.498,568.28C301.183,534.323 271.478,499.533 259.877,448.534C259.271,445.871 258.649,443.172 258.021,440.449C256.707,444.31 254.889,447.585 251.3,448.494C235.765,452.43 220.094,421.057 215.586,411.7C209.814,399.719 202.695,355.493 202.85,346.832C202.981,339.464 204.022,333.683 208.012,327.169C212.79,319.368 224.384,319.621 231.088,324.162C237.412,328.446 240.028,334.369 242.443,340.748Z"
          style="fill: white"
        />
      </g>
    </g>
    <g id="eye" transform="matrix(1,0,0,1,-1.77165,0)">
      <g transform="matrix(0.88044,0,0,0.88044,68.5829,70.2432)">
        <path
          d="M634.355,700.111C653.954,688.642 678.218,688.642 697.818,700.111C704.234,703.866 709.059,706.69 709.059,706.69C709.059,706.69 704.234,709.513 697.818,713.268C678.218,724.738 653.954,724.738 634.355,713.268C627.938,709.513 623.113,706.69 623.113,706.69C623.113,706.69 627.938,703.866 634.355,700.111Z"
          style="fill: white"
        />
      </g>
      <circle cx="655.032" cy="692.441" r="13.365" style="fill: rgb(6, 46, 66)" />
    </g>
    <g transform="matrix(1,0,0,1,11.3386,0)">
      <g id="clothing">
        <path
          d="M643.088,685.842C646.783,685.778 648.661,683.2 649.092,679.318C650.012,671.056 649.138,666.716 649.138,666.716L653.408,666.766C653.408,666.766 651.456,677.988 655.595,682.825C658.992,686.794 662.073,686.445 662.073,686.445L662.462,712.698L623.892,712.698L624.28,686.445C624.28,686.445 626.476,686.794 629.873,682.825C634.012,677.988 632.06,666.766 632.06,666.766L636.417,666.616C636.417,666.616 635.514,670.986 636.433,679.248C636.865,683.129 638.73,685.919 643.088,685.842Z"
          style="fill: white"
        />
      </g>
    </g>
    <g transform="matrix(12.011,0,0,12.011,-6825.08,-7656.1)">
      <g id="misc">
        <g>
          <text x="619.305px" y="696.149px" style="font-family: 'Futura-Medium', 'Futura', sans-serif; font-weight: 500; font-size: 3.075px; fill: white">$#</text>
          <text x="623.101px" y="696.149px" style="font-family: 'Futura-Medium', 'Futura', sans-serif; font-weight: 500; font-size: 3.075px; fill: white">*</text>
          <text x="624.664px" y="696.149px" style="font-family: 'Futura-Medium', 'Futura', sans-serif; font-weight: 500; font-size: 3.075px; fill: white">!</text>
        </g>
      </g>
    </g>
    <g id="hat" transform="matrix(1.10125,0,0,1.10125,158.833,-78.5692)">
      <g transform="matrix(1,0,0,1,-51.9094,-2.83465)">
        <path d="M474.461,710.793C485.268,715.724 523.434,714.96 530.456,710.765" style="fill: none; stroke: white; stroke-width: 3px; stroke-linecap: butt" />
      </g>
      <g transform="matrix(1,0,0,0.58812,-0.101996,292.708)">
        <rect x="433.636" y="663.946" width="33.608" height="46.716" style="fill: white" />
      </g>
    </g>
    <g transform="matrix(0.720342,0,0,0.720342,520.614,330.63)">
      <text x="124.102px" y="439.84px" style="font-family: 'Futura-Medium', 'Futura', sans-serif; font-weight: 500; font-size: 50px; fill: white">
        SL
        <tspan x="173.882px 217.217px " y="439.84px 439.84px ">OT</tspan>
      </text>
    </g>
    <g transform="matrix(1,0,0,1,-7.69409,0)">
      <path
        d="M82.194,602.738L733.196,602.258C733.979,602.258 734.615,601.621 734.614,600.838C734.614,600.055 733.977,599.42 733.194,599.42L82.192,599.9C81.409,599.901 80.773,600.537 80.774,601.321C80.775,602.104 81.411,602.739 82.194,602.738Z"
        style="fill: white"
      />
    </g>
    <g transform="matrix(1,0,0,1,120.441,145.046)">
      <text x="77.471px" y="439.84px" style="font-family: 'Futura-Medium', 'Futura', sans-serif; font-weight: 500; font-size: 50px; fill: white">
        DFINIT
        <tspan x="237.457px 267.461px " y="439.84px 439.84px ">Y</tspan>
        SHADES
      </text>
    </g>
    <path
      id="border"
      d="M800,801.235L800,-4.106L-0,-4.106L0,801.235L800,801.235ZM260.875,30.644L30.644,30.644C30.644,30.644 30.644,769.356 30.644,769.356C30.644,769.356 769.356,769.356 769.356,769.356L769.356,30.644L539.125,30.644L539.125,61.806L260.875,61.806L260.875,30.644Z"
      style="fill: rgb(0, 153, 197)"
    />
    <g id="guide" transform="matrix(1,0,0,1.04284,1.75676,-22.4672)">
      <rect x="82.193" y="95.569" width="632.101" height="428.927" style="fill: url(#normal-card_Linear3); stroke: rgb(0, 153, 197); stroke-width: 4.8px" />
    </g>
    <g transform="matrix(1.74288,0,0,1.74288,-297.157,-266.611)">
      <g id="goggles">
        <path
          d="M252.236,299.657C253.447,293.507 255.56,287.986 261.924,281.806C266.674,277.195 274.293,275.112 280.525,273.595C296.44,269.721 313.442,269.89 329.66,271.352C340.196,272.301 350.281,274.123 359.83,278.836C364.098,280.942 368.401,283.327 370.851,287.569C373.935,292.908 373.913,299.63 373.855,305.642C373.721,319.538 368.341,339.206 357.817,348.727C352.387,353.64 344.804,355.69 337.871,357.354C319.279,361.816 294.87,362.831 278.173,352.35C263.261,342.989 256.168,331.092 252.343,311.851C252.343,311.851 251.722,302.268 252.236,299.657Z"
          style="fill: rgb(103, 38, 132)"
        />
        <clipPath id="normal-card_2">
          <path
            d="M252.236,299.657C253.447,293.507 255.56,287.986 261.924,281.806C266.674,277.195 274.293,275.112 280.525,273.595C296.44,269.721 313.442,269.89 329.66,271.352C340.196,272.301 350.281,274.123 359.83,278.836C364.098,280.942 368.401,283.327 370.851,287.569C373.935,292.908 373.913,299.63 373.855,305.642C373.721,319.538 368.341,339.206 357.817,348.727C352.387,353.64 344.804,355.69 337.871,357.354C319.279,361.816 294.87,362.831 278.173,352.35C263.261,342.989 256.168,331.092 252.343,311.851C252.343,311.851 251.722,302.268 252.236,299.657Z"
          />
        </clipPath>
        <g clip-path="url(#normal-card_2)">
          <path
            d="M277.549,355.959C273.568,354.238 269.902,349.87 266.826,346.933C254.275,334.948 246.893,318.821 248.285,301.341C248.875,293.936 251.633,283.322 258.428,279.012C262.503,276.427 269.565,275.613 271.945,279.365C276.791,287.004 291.771,279.069 298.488,281.861C314.495,288.513 314.174,304.556 328.494,314.139C330.837,315.707 343.466,318.947 346.007,320.213C349.61,322.007 355.148,318.834 358.761,320.627C364.075,323.262 366.79,324.957 366.911,325.474C368.124,330.684 365.205,337.466 364.842,340.015C363.942,346.341 363.531,347.002 359.838,351.191C345.799,367.113 327.717,367.287 308.049,364.429C297.854,362.948 287.549,360.882 277.959,357.028"
            style="fill: rgb(250, 176, 59)"
          />
          <path
            d="M260.588,328.844C264.098,334.582 267.091,340.269 272.078,344.956C285.352,357.433 306.336,360.519 323.796,359.979C333.097,359.691 343.722,359.012 352.271,354.984C352.899,354.688 353.519,354.376 354.114,354.017C355.07,353.439 360.819,349.21 359.537,347.216C359.329,346.893 356.649,347.963 356.41,348.024C354.347,348.558 352.364,349.614 350.233,349.678C342.376,349.916 339.638,351.107 334.448,350.156C321.437,347.772 311.504,338.102 298.722,335.245C286.024,332.407 271.816,335.81 260.588,328.844Z"
            style="fill: rgb(41, 170, 225)"
          />
          <path
            d="M270.575,277.409C271.127,277.516 268.25,279.666 267.261,281.119C265.282,284.026 264.189,284.951 266.537,288.223C270.5,293.744 277.77,298.585 283.276,302.36C283.624,302.599 289.045,306.098 289.045,306.098C289.045,306.098 283.254,305.214 281.266,304.826C276.386,303.873 271.846,301.797 267.754,298.988C266.346,298.021 264.974,296.997 263.608,295.973C263.482,295.878 261.638,294.454 261.614,294.495C261.228,295.144 264.189,301.021 267.239,304.812C272.001,310.729 289.329,315.675 294.36,316.793C310.002,320.27 317.73,326.013 329.609,331.707C335.396,334.48 340.73,338.64 348.374,338.719C356.193,338.8 361.036,336.196 366.926,325.396C367.232,324.836 362.685,323.689 360.987,323.006C355.134,320.65 341.343,318.837 335.505,316.469C320.188,310.257 315.606,298.633 300.082,293.031C294.368,290.97 294.498,287.414 288.969,285.762C284.679,284.481 288.585,280.54 287.065,276.531"
            style="fill: rgb(241, 90, 37)"
          />
          <path
            d="M296.827,276.537L290.2,276.016C288.643,276.081 288.046,276.248 287.281,276.345C286.077,276.499 285.236,276.778 284.084,277.68C281.778,279.485 277.905,282.179 279.087,286.525C279.345,287.474 279.802,288.357 280.33,289.182C281.796,291.474 284.13,293.097 286.284,294.691C288.116,296.046 289.872,297.5 291.707,298.851C297.092,302.816 302.921,305.705 308.558,309.191C314.415,312.813 320.011,317.022 325.441,321.245C331.134,325.673 336.915,330.846 344.059,332.728C353.018,335.089 362.772,330.162 366.742,325.049C367.243,324.404 361.969,321.06 360.368,320.099C358.506,318.983 354.207,319.367 349.872,318.851C346.5,318.45 343.203,317.2 340.393,316.238C338.565,315.611 330.602,313.092 330.728,313.06C332.284,312.67 338.143,311.822 339.439,310.876C343.17,308.153 347.687,306.782 345.385,301.423C343.05,295.988 335.9,294.997 331.019,292.321C323.706,288.311 318.93,285.527 310.763,280.278C306.387,277.465 302.014,277.143 296.827,276.537Z"
            style="fill: rgb(237, 30, 121)"
          />
          <path
            d="M279.656,273.707C279.65,273.685 280.307,273.604 280.355,273.598C280.871,273.54 281.39,273.494 281.907,273.442C283.432,273.29 284.959,273.164 286.485,273.029C290.93,272.635 295.374,272.264 299.829,272.003C312.778,271.245 326.108,272.701 338.82,275.129C346.309,276.56 353.717,278.022 360.427,281.844C365.186,284.554 369.098,289.273 370.925,294.498C371.712,296.747 372.031,299.234 372.473,301.569C372.951,304.098 373.263,306.664 373.571,309.218C373.676,310.09 373.749,310.966 373.837,311.84C373.851,311.98 374.054,313.18 374.108,313.099C374.459,312.571 374.391,311.592 374.448,310.996C374.632,309.063 374.668,307.135 374.57,305.195C374.132,296.544 372.09,288.429 365.604,282.283C359.473,276.474 351.526,272.977 343.503,270.65C328.729,266.366 312.977,266.097 297.816,268.238"
            style="fill: rgb(237, 30, 121)"
          />
        </g>
        <g transform="matrix(-1,0,0,1,800.009,0)">
          <path
            d="M252.236,299.657C253.447,293.507 255.56,287.986 261.924,281.806C266.674,277.195 274.293,275.112 280.525,273.595C296.44,269.721 313.442,269.89 329.66,271.352C340.196,272.301 350.281,274.123 359.83,278.836C364.098,280.942 368.401,283.327 370.851,287.569C373.935,292.908 373.913,299.63 373.855,305.642C373.721,319.538 368.341,339.206 357.817,348.727C352.387,353.64 344.804,355.69 337.871,357.354C319.279,361.816 294.87,362.831 278.173,352.35C263.261,342.989 256.168,331.092 252.343,311.851C252.343,311.851 251.722,302.268 252.236,299.657Z"
            style="fill: rgb(250, 176, 59)"
          />
          <clipPath id="normal-card_3">
            <path
              d="M252.236,299.657C253.447,293.507 255.56,287.986 261.924,281.806C266.674,277.195 274.293,275.112 280.525,273.595C296.44,269.721 313.442,269.89 329.66,271.352C340.196,272.301 350.281,274.123 359.83,278.836C364.098,280.942 368.401,283.327 370.851,287.569C373.935,292.908 373.913,299.63 373.855,305.642C373.721,319.538 368.341,339.206 357.817,348.727C352.387,353.64 344.804,355.69 337.871,357.354C319.279,361.816 294.87,362.831 278.173,352.35C263.261,342.989 256.168,331.092 252.343,311.851C252.343,311.851 251.722,302.268 252.236,299.657Z"
            />
          </clipPath>
          <g clip-path="url(#normal-card_3)">
            <g transform="matrix(-1,0,0,1,800.009,0)">
              <path
                d="M426.414,312.647C427.131,314.297 427.181,316.728 427.685,318.505C429.14,323.636 430.854,328.714 433.54,333.342C436.445,338.346 439.899,342.957 444.421,346.611C457.152,356.896 475.879,357.92 491.522,358.98C501.932,359.685 513.064,359.334 522.612,354.674C524.663,353.673 531.161,350.457 530.801,347.355C530.524,344.959 523.771,342.227 521.975,341.254C516.193,338.122 510.035,335.649 503.545,334.476C499.005,333.655 496.138,333.468 491.662,332.328C488.497,331.522 479.269,326.805 479.032,327.052C478.566,327.54 482.399,331.149 483.719,332.414C487.72,336.247 489.07,336.811 496.47,339.541C497.915,340.073 501.764,340.753 503.098,341.52C503.74,341.889 501.58,343.274 499.452,344.071C498.598,344.391 497.787,344.699 495.644,345.104C491.72,345.845 486.183,345.813 482.244,345.158C476.365,344.179 469.15,335.649 463.63,333.277C458.209,330.946 456.695,329.675 451.432,328.034C444.543,325.886 438.569,323.301 432.768,318.955L426.414,312.647Z"
                style="fill: rgb(41, 170, 225)"
              />
            </g>
            <g transform="matrix(-1,0,0,1,800.009,0)">
              <path
                d="M430.42,279.797C429.234,280.44 429.743,288.009 429.753,289.14C429.851,299.999 432.939,305.95 442.257,311.073C449.154,314.866 460.197,317.785 468.052,318.399C472.775,318.769 477.497,318.062 482.213,318.728C491.02,319.971 499.491,323.697 508.08,325.941C516.103,328.038 526.791,332.872 535.013,329.911C539.644,328.244 548.033,320.351 544.535,314.71C540.351,307.962 530,303.276 523.476,299.517C507.223,290.155 489.431,283.846 471.011,280.403C461.248,278.579 450.77,277.259 441.249,280.778"
                style="fill: rgb(241, 90, 36)"
              />
            </g>
            <g transform="matrix(-1,0,0,1,800.009,0)">
              <path
                d="M440.319,273.786C439.044,274.627 438.652,279.15 438.405,280.485C436.79,289.197 442.157,297.121 449.325,301.597C455.729,305.596 463.875,306.229 471.053,308.151C477.127,309.778 483.45,310.795 489.327,313.082C494.421,315.064 499.079,318.048 504.177,319.995C507.301,321.189 510.695,321.642 513.955,322.317C519.261,323.415 525.004,325.386 530.423,323.911C534.969,322.674 538.421,318.493 540.828,314.627C541.238,313.968 541.28,311.969 541.627,311.606C542.721,310.464 544.831,312.276 546.007,312.293C547.161,312.311 548.058,310.637 548.49,309.787C548.842,309.094 549.111,308.359 549.319,307.612C550.663,302.794 549.899,297.449 548.728,292.684C542.626,267.856 513.434,256.941 490.403,255.574C478.235,254.852 466.058,256.701 454.592,260.808C448.457,263.006 442.054,265.995 437.703,271.022C437.084,271.738 436.517,272.491 435.984,273.273C435.54,273.924 435.135,274.597 434.716,275.265C434.242,276.022 430.499,280.362 431.06,281.927C431.335,282.696 436.046,281.699 436.743,281.716C437.753,281.742 440.024,282.833 438.564,283.964"
                style="fill: rgb(237, 30, 121)"
              />
            </g>
            <g transform="matrix(-1,0,0,1,800.009,0)">
              <path
                d="M426.723,287.374C426.573,287.271 427.047,287.209 427.203,287.116C427.556,286.907 427.921,286.717 428.289,286.533C429.381,285.987 430.492,285.483 431.624,285.025C435.057,283.635 438.623,282.698 442.323,282.325C449.289,281.623 457.304,281.165 464.106,283.088C467.636,284.085 470.946,286.049 474.115,287.845C480.701,291.579 487.477,294.608 494.804,296.603C497.183,297.251 499.578,297.844 501.966,298.457C503.064,298.739 504.548,299.019 505.282,299.973C507.477,302.827 506.197,306.378 504.026,308.815C503.211,309.729 502.271,310.508 501.304,311.254C501.198,311.336 499.866,312.287 499.934,312.351C500.728,313.096 503.439,313.274 504.481,313.564C506.961,314.253 509.315,314.798 511.902,314.449C517.122,313.743 521.572,311.123 527.002,311.782C532.78,312.483 538.62,314.967 542.548,319.337C543.854,320.791 544.956,322.455 545.744,324.245C546.024,324.883 546.264,325.541 546.487,326.201C546.509,326.266 546.86,327.197 546.94,327.053C547.349,326.303 547.166,324.702 547.245,323.872C547.504,321.184 547.71,318.488 547.777,315.788C547.866,312.19 547.177,308.649 546.561,305.118C544.765,294.814 540.883,284.479 530.877,279.485C524.728,276.416 517.818,275.326 511.093,274.329C503.087,273.143 494.849,272.315 486.742,272.548C479.104,272.767 471.488,273.919 463.87,274.453C453.869,275.153 442.843,275.75 434.131,281.201"
                style="fill: rgb(103, 38, 132)"
              />
            </g>
          </g>
        </g>
        <path
          d="M401.822,282.933C405.128,282.985 408.059,283.07 411.417,283.565C413.807,283.917 415.2,284.048 415.997,283.766C418.897,282.739 422.616,280.369 425.145,278.617C430.833,274.675 438.028,271.564 444.483,269.119C468.303,260.097 495.532,261.753 520.107,265.485C532.779,267.41 545.192,270.225 557.736,272.778C560.595,273.359 563.469,273.926 566.354,274.369C566.501,274.392 568.94,274.719 568.936,274.772L569.3,275C570.428,279.076 572.771,288.924 570.181,292.542C569.023,294.16 565.735,294.957 564.091,296.113C560.74,298.469 557.179,300.204 556.428,304.676C553.469,322.284 545.484,340.985 532.397,353.376C527.164,358.331 513.276,364.012 502.558,364.823C485.433,366.119 467.542,366.962 451.102,360.982C438.138,356.266 429.679,346.069 425.002,333.343C422.808,327.37 421.988,319.88 418.223,314.631C414.957,310.076 407.513,308.113 402.471,307.545C402.284,307.523 401.21,307.474 400.005,307.401C398.8,307.474 397.725,307.523 397.538,307.545C392.496,308.113 385.053,310.076 381.786,314.631C378.021,319.88 377.202,327.37 375.007,333.343C370.33,346.069 361.871,356.266 348.907,360.982C332.467,366.962 314.576,366.119 297.451,364.823C286.733,364.012 272.846,358.331 267.612,353.376C254.526,340.985 246.541,322.284 243.582,304.676C242.83,300.204 239.269,298.469 235.918,296.113C234.274,294.957 230.987,294.16 229.828,292.542C227.238,288.924 229.581,279.076 230.709,275L231.073,274.772C231.07,274.719 233.508,274.392 233.656,274.369C236.54,273.926 239.415,273.359 242.274,272.778C254.817,270.225 267.231,267.41 279.903,265.485C304.477,261.753 333.989,260.097 357.81,269.119C364.264,271.564 369.789,274.675 375.477,278.617C378.006,280.369 381.112,282.739 384.013,283.766C384.809,284.048 386.202,283.917 388.592,283.565C391.95,283.07 394.881,282.985 398.187,282.933C398.709,282.886 399.391,282.88 400.005,282.888C400.618,282.881 401.3,282.886 401.822,282.933ZM252.236,299.657C253.447,293.507 255.56,287.986 261.924,281.806C266.674,277.195 274.293,275.112 280.525,273.595C296.44,269.721 313.442,269.89 329.66,271.352C340.196,272.301 350.281,274.123 359.83,278.836C364.098,280.942 368.401,283.327 370.851,287.569C373.935,292.908 373.913,299.63 373.855,305.642C373.721,319.538 368.341,339.206 357.817,348.727C352.387,353.64 344.804,355.69 337.871,357.354C319.279,361.816 294.87,362.831 278.173,352.35C263.261,342.989 256.168,331.092 252.343,311.851C252.343,311.851 251.722,302.268 252.236,299.657ZM547.773,299.657C546.562,293.507 544.449,287.986 538.085,281.806C533.336,277.195 525.717,275.112 519.485,273.595C503.569,269.721 486.568,269.89 470.35,271.352C459.813,272.301 449.729,274.123 440.179,278.836C435.911,280.942 431.608,283.327 429.158,287.569C426.074,292.908 426.096,299.63 426.154,305.642C426.288,319.538 431.668,339.206 442.192,348.727C447.622,353.64 455.205,355.69 462.138,357.354C480.73,361.816 505.139,362.831 521.836,352.35C536.748,342.989 543.841,331.092 547.666,311.851C547.666,311.851 548.287,302.268 547.773,299.657Z"
          style="fill: rgb(151, 102, 68)"
        />
        <clipPath id="normal-card_4">
          <path
            d="M401.822,282.933C405.128,282.985 408.059,283.07 411.417,283.565C413.807,283.917 415.2,284.048 415.997,283.766C418.897,282.739 422.616,280.369 425.145,278.617C430.833,274.675 438.028,271.564 444.483,269.119C468.303,260.097 495.532,261.753 520.107,265.485C532.779,267.41 545.192,270.225 557.736,272.778C560.595,273.359 563.469,273.926 566.354,274.369C566.501,274.392 568.94,274.719 568.936,274.772L569.3,275C570.428,279.076 572.771,288.924 570.181,292.542C569.023,294.16 565.735,294.957 564.091,296.113C560.74,298.469 557.179,300.204 556.428,304.676C553.469,322.284 545.484,340.985 532.397,353.376C527.164,358.331 513.276,364.012 502.558,364.823C485.433,366.119 467.542,366.962 451.102,360.982C438.138,356.266 429.679,346.069 425.002,333.343C422.808,327.37 421.988,319.88 418.223,314.631C414.957,310.076 407.513,308.113 402.471,307.545C402.284,307.523 401.21,307.474 400.005,307.401C398.8,307.474 397.725,307.523 397.538,307.545C392.496,308.113 385.053,310.076 381.786,314.631C378.021,319.88 377.202,327.37 375.007,333.343C370.33,346.069 361.871,356.266 348.907,360.982C332.467,366.962 314.576,366.119 297.451,364.823C286.733,364.012 272.846,358.331 267.612,353.376C254.526,340.985 246.541,322.284 243.582,304.676C242.83,300.204 239.269,298.469 235.918,296.113C234.274,294.957 230.987,294.16 229.828,292.542C227.238,288.924 229.581,279.076 230.709,275L231.073,274.772C231.07,274.719 233.508,274.392 233.656,274.369C236.54,273.926 239.415,273.359 242.274,272.778C254.817,270.225 267.231,267.41 279.903,265.485C304.477,261.753 333.989,260.097 357.81,269.119C364.264,271.564 369.789,274.675 375.477,278.617C378.006,280.369 381.112,282.739 384.013,283.766C384.809,284.048 386.202,283.917 388.592,283.565C391.95,283.07 394.881,282.985 398.187,282.933C398.709,282.886 399.391,282.88 400.005,282.888C400.618,282.881 401.3,282.886 401.822,282.933ZM252.236,299.657C253.447,293.507 255.56,287.986 261.924,281.806C266.674,277.195 274.293,275.112 280.525,273.595C296.44,269.721 313.442,269.89 329.66,271.352C340.196,272.301 350.281,274.123 359.83,278.836C364.098,280.942 368.401,283.327 370.851,287.569C373.935,292.908 373.913,299.63 373.855,305.642C373.721,319.538 368.341,339.206 357.817,348.727C352.387,353.64 344.804,355.69 337.871,357.354C319.279,361.816 294.87,362.831 278.173,352.35C263.261,342.989 256.168,331.092 252.343,311.851C252.343,311.851 251.722,302.268 252.236,299.657ZM547.773,299.657C546.562,293.507 544.449,287.986 538.085,281.806C533.336,277.195 525.717,275.112 519.485,273.595C503.569,269.721 486.568,269.89 470.35,271.352C459.813,272.301 449.729,274.123 440.179,278.836C435.911,280.942 431.608,283.327 429.158,287.569C426.074,292.908 426.096,299.63 426.154,305.642C426.288,319.538 431.668,339.206 442.192,348.727C447.622,353.64 455.205,355.69 462.138,357.354C480.73,361.816 505.139,362.831 521.836,352.35C536.748,342.989 543.841,331.092 547.666,311.851C547.666,311.851 548.287,302.268 547.773,299.657Z"
          />
        </clipPath>
        <g clip-path="url(#normal-card_4)">
          <g>
            <path
              d="M370.936,311.5C370.674,311.164 371.79,311.497 372.216,311.484C373.142,311.455 374.068,311.415 374.994,311.37C377.634,311.24 380.284,311.003 382.908,310.685"
              style="fill: none; stroke: rgb(192, 156, 111); stroke-width: 1.1px"
            />
            <path
              d="M373.238,307.953C373.412,307.655 375.706,307.694 376.04,307.656C378.821,307.339 381.679,307.049 384.397,306.364C397.886,302.968 411.874,306.222 425.564,305.077"
              style="fill: none; stroke: rgb(192, 156, 111); stroke-width: 1.1px"
            />
            <path
              d="M372.475,301.883C372.484,301.834 374.52,301.663 375.513,301.578C378.804,301.297 382.012,300.758 385.273,300.248C392.642,299.095 399.65,300.525 407.016,300.552C413.855,300.578 420.547,299.267 427.355,298.932"
              style="fill: none; stroke: rgb(192, 156, 111); stroke-width: 1.1px"
            />
            <path
              d="M372.162,297.643C371.666,297.25 373.425,297.557 374.058,297.541C375.371,297.508 376.685,297.471 377.998,297.441C381.991,297.348 385.953,297.077 389.902,296.451C396.407,295.419 402.859,293.401 409.474,293.279C415.21,293.173 420.906,294.674 426.623,295.01"
              style="fill: none; stroke: rgb(192, 156, 111); stroke-width: 1.1px"
            />
            <path
              d="M372.246,292.652C372.581,292.143 375.215,292.343 375.776,292.294C379.285,291.988 382.77,291.583 386.264,291.14C393.855,290.176 401.222,290.885 408.813,290.557C415.848,290.252 422.9,288.823 429.72,287.155"
              style="fill: none; stroke: rgb(192, 156, 111); stroke-width: 1.1px"
            />
            <path
              d="M366.424,283.175C366.225,283.384 367.001,283.15 367.288,283.163C367.897,283.189 368.504,283.257 369.108,283.332C370.872,283.554 372.627,283.819 374.382,284.102C379.765,284.972 384.916,286.293 390.405,286.508C406.686,287.143 422.571,282.153 438.774,281.407"
              style="fill: none; stroke: rgb(192, 156, 111); stroke-width: 1.1px"
            />
            <path
              d="M425.073,277.586C425.095,277.625 426.753,277.225 426.86,277.206C428.865,276.856 430.87,276.523 432.887,276.245C441.62,275.039 450.141,273.468 458.803,271.846C471.709,269.43 484.818,271.792 497.821,271.892C507.257,271.965 516.414,270.064 525.801,269.852C536.648,269.607 547.477,271.146 558.317,271.445"
              style="fill: none; stroke: rgb(192, 156, 111); stroke-width: 1.1px"
            />
            <path
              d="M442.457,269.005C445.283,268.052 448.755,268.015 451.689,267.722C458.96,266.996 466.231,266.906 473.527,266.728C480.675,266.555 487.792,265.784 494.947,265.681C508.353,265.488 521.863,266.104 535.268,266.419"
              style="fill: none; stroke: rgb(192, 156, 111); stroke-width: 1.1px"
            />
            <path
              d="M520.795,274.931C520.219,274.77 521.965,274.678 522.559,274.612C523.737,274.482 524.921,274.388 526.105,274.32C529.647,274.116 533.178,274.063 536.724,274.142C547.229,274.375 557.688,275.099 568.203,274.668"
              style="fill: none; stroke: rgb(192, 156, 111); stroke-width: 1.1px"
            />
            <path
              d="M531.877,279.522C531.833,279.444 536.702,278.87 537.016,278.854C540.459,278.677 543.883,278.905 547.297,279.344C556.329,280.507 564.996,277.359 574.046,278.281"
              style="fill: none; stroke: rgb(192, 156, 111); stroke-width: 1.1px"
            />
            <path
              d="M538.431,283.367C542.284,282.866 546.692,284.226 550.577,284.333C557.414,284.521 564.054,283.572 570.918,284.394"
              style="fill: none; stroke: rgb(192, 156, 111); stroke-width: 1.1px"
            />
            <path
              d="M541.44,293.685C544.403,293.847 548.953,290.955 551.729,290.054C557.766,288.095 563.924,287.07 570.269,286.956"
              style="fill: none; stroke: rgb(192, 156, 111); stroke-width: 1.1px"
            />
            <path
              d="M544.222,297.613C543.857,297.575 544.899,297.331 545.235,297.185C545.886,296.9 546.538,296.62 547.193,296.344C549.172,295.509 551.201,294.783 553.245,294.124C559.461,292.122 566.02,291.357 572.539,291.55"
              style="fill: none; stroke: rgb(192, 156, 111); stroke-width: 1.1px"
            />
            <path
              d="M544.983,301.101C544.973,301.06 549.159,300.063 549.4,300.007C554.149,298.894 558.957,298.136 563.841,298.073"
              style="fill: none; stroke: rgb(192, 156, 111); stroke-width: 1.1px"
            />
            <path
              d="M547.137,309.162C546.867,309.377 547.779,308.9 548.113,308.815C548.831,308.633 549.557,308.482 550.282,308.334C552.537,307.876 554.834,307.468 557.128,307.274"
              style="fill: none; stroke: rgb(192, 156, 111); stroke-width: 1.1px"
            />
            <path
              d="M544.856,316.335C544.511,316.152 545.637,316.33 546.025,316.295C546.817,316.224 547.607,316.125 548.4,316.053C550.713,315.842 553.018,315.558 555.329,315.336"
              style="fill: none; stroke: rgb(192, 156, 111); stroke-width: 1.1px"
            />
            <path
              d="M541.451,326.582C541.315,326.953 542.225,326.426 542.614,326.36C543.351,326.236 544.087,326.106 544.824,325.988C547.016,325.64 549.204,325.272 551.405,324.983"
              style="fill: none; stroke: rgb(192, 156, 111); stroke-width: 1.1px"
            />
            <path
              d="M535.825,334.859C535.516,334.465 536.814,334.697 537.31,334.629C538.311,334.492 539.313,334.355 540.317,334.24C543.284,333.902 546.265,333.5 549.244,333.3"
              style="fill: none; stroke: rgb(192, 156, 111); stroke-width: 1.1px"
            />
            <path
              d="M533.322,340.273C533.344,340.37 535.847,340.229 536.002,340.223C538.955,340.121 541.91,340.063 544.863,339.947"
              style="fill: none; stroke: rgb(192, 156, 111); stroke-width: 1.1px"
            />
            <path
              d="M528.696,346.039C529.434,345.492 531.585,345.525 532.463,345.389C535.775,344.877 539.094,344.387 542.417,343.952"
              style="fill: none; stroke: rgb(192, 156, 111); stroke-width: 1.1px"
            />
            <path
              d="M517.929,353.279C519.552,353.614 521.992,352.945 523.63,352.817C528.113,352.465 532.594,352.071 537.081,351.788"
              style="fill: none; stroke: rgb(192, 156, 111); stroke-width: 1.1px"
            />
            <path
              d="M451.634,361.66C453.112,361.972 455.513,361.11 457.009,360.946C461.364,360.468 465.713,359.947 470.104,360.019C478.325,360.155 486.503,361.157 494.734,361.173C506.327,361.195 517.88,360.157 529.49,360.272"
              style="fill: none; stroke: rgb(192, 156, 111); stroke-width: 1.1px"
            />
            <path d="M437.774,355.225C441.337,353.6 448.065,354.405 451.869,354.359" style="fill: none; stroke: rgb(192, 156, 111); stroke-width: 1.1px" />
            <path
              d="M433.093,350.3C432.711,350.194 433.885,350.287 434.282,350.29C435.051,350.297 435.821,350.324 436.59,350.322C438.893,350.318 441.187,350.26 443.487,350.14"
              style="fill: none; stroke: rgb(192, 156, 111); stroke-width: 1.1px"
            />
            <path d="M429.291,345.439C433.479,346.609 439.537,346.015 443.825,345.912" style="fill: none; stroke: rgb(192, 156, 111); stroke-width: 1.1px" />
            <path
              d="M424.905,342.551C424.986,342.377 428.576,343.019 428.845,343.049C433.158,343.543 437.495,344.039 441.844,343.983"
              style="fill: none; stroke: rgb(192, 156, 111); stroke-width: 1.1px"
            />
            <path
              d="M423.947,336.298C423.561,336.333 424.722,336.238 425.11,336.232C425.958,336.22 426.806,336.183 427.654,336.157C430.062,336.08 432.467,335.946 434.871,335.792"
              style="fill: none; stroke: rgb(192, 156, 111); stroke-width: 1.1px"
            />
            <path
              d="M420.623,330.413C420.324,329.962 421.705,330.398 422.246,330.407C423.327,330.424 424.408,330.444 425.489,330.457C428.761,330.495 432.038,330.624 435.31,330.507"
              style="fill: none; stroke: rgb(192, 156, 111); stroke-width: 1.1px"
            />
            <path
              d="M419.084,324.374C418.708,324.647 420.014,324.423 420.478,324.451C421.385,324.506 422.291,324.584 423.199,324.636C426.052,324.799 428.906,324.895 431.765,324.923"
              style="fill: none; stroke: rgb(192, 156, 111); stroke-width: 1.1px"
            />
            <path
              d="M417.611,320.791C417.219,320.771 418.372,320.597 418.755,320.51C419.551,320.328 420.332,320.086 421.12,319.871C423.533,319.213 425.936,318.519 428.358,317.895"
              style="fill: none; stroke: rgb(192, 156, 111); stroke-width: 1.1px"
            />
            <path
              d="M416.153,315.571C416.245,315.263 418.474,314.999 418.747,314.944C421.562,314.378 424.425,313.992 427.287,313.768"
              style="fill: none; stroke: rgb(192, 156, 111); stroke-width: 1.1px"
            />
            <path
              d="M412.7,310.006C412.222,309.959 413.654,310.132 414.133,310.173C415.171,310.262 416.21,310.34 417.25,310.404C420.25,310.59 423.235,310.742 426.242,310.639"
              style="fill: none; stroke: rgb(192, 156, 111); stroke-width: 1.1px"
            />
            <path
              d="M246.747,323.919C246.661,324.224 247.361,323.75 247.674,323.703C248.312,323.609 248.946,323.498 249.58,323.383C251.462,323.04 253.376,322.811 255.289,322.765"
              style="fill: none; stroke: rgb(192, 156, 111); stroke-width: 1.1px"
            />
            <path d="M249.013,331.149C252.077,330.107 256.22,330.479 259.379,330.63" style="fill: none; stroke: rgb(192, 156, 111); stroke-width: 1.1px" />
            <path
              d="M252.43,335.579C252.447,335.62 254.981,335.236 255.151,335.216C258.051,334.872 261.006,334.724 263.927,334.779"
              style="fill: none; stroke: rgb(192, 156, 111); stroke-width: 1.1px"
            />
            <path
              d="M256.14,340.787C255.947,340.41 256.974,340.636 257.394,340.579C258.26,340.461 259.122,340.315 259.99,340.213C262.55,339.911 265.142,339.747 267.72,339.778"
              style="fill: none; stroke: rgb(192, 156, 111); stroke-width: 1.1px"
            />
            <path d="M260.075,346.596C260.151,346.364 262.67,346.413 262.927,346.396C266.013,346.2 269.13,346.18 272.213,346.44" style="fill: none; stroke: rgb(192, 156, 111); stroke-width: 1.1px" />
            <path
              d="M261.338,350.811C261.91,351.128 264.881,350.131 265.555,350.035C269.101,349.529 272.629,349.162 276.213,349.369"
              style="fill: none; stroke: rgb(192, 156, 111); stroke-width: 1.1px"
            />
            <path
              d="M268.134,355.484C267.818,355.941 269.218,355.222 269.771,355.165C270.935,355.043 272.097,354.9 273.263,354.8C276.831,354.495 280.424,354.366 284.003,354.542"
              style="fill: none; stroke: rgb(192, 156, 111); stroke-width: 1.1px"
            />
            <path
              d="M278.045,360.31C277.466,360.04 279.289,360.016 279.919,359.909C281.276,359.679 282.65,359.526 284.021,359.416C288.026,359.093 292.203,358.936 296.213,359.297"
              style="fill: none; stroke: rgb(192, 156, 111); stroke-width: 1.1px"
            />
            <path
              d="M300.288,365.641C302.994,364.474 306.619,364.344 309.484,363.683C314.551,362.513 319.776,360.878 324.995,360.586C330.11,360.299 335.292,361.131 340.411,361.242C345.909,361.361 351.444,360.77 356.89,360.063"
              style="fill: none; stroke: rgb(192, 156, 111); stroke-width: 1.1px"
            />
            <path
              d="M343.105,355.62C343.097,355.603 345.259,355.263 345.393,355.248C346.971,355.073 348.556,354.953 350.137,354.81C354.847,354.386 359.539,354.155 364.215,353.401"
              style="fill: none; stroke: rgb(192, 156, 111); stroke-width: 1.1px"
            />
            <path d="M359.138,348.219C362.744,347.587 366.181,345.987 369.684,344.973" style="fill: none; stroke: rgb(192, 156, 111); stroke-width: 1.1px" />
            <path
              d="M363.108,341.706C363.1,341.688 364.126,341.525 364.208,341.513C364.959,341.41 365.714,341.344 366.468,341.268C368.731,341.039 371.005,340.854 373.244,340.437"
              style="fill: none; stroke: rgb(192, 156, 111); stroke-width: 1.1px"
            />
            <path d="M368.564,331.886C368.792,331.5 370.392,331.28 370.786,331.174C373.008,330.572 375.244,330.03 377.49,329.526" style="fill: none; stroke: rgb(192, 156, 111); stroke-width: 1.1px" />
            <path
              d="M370.474,326.23C370.481,326.122 372.595,325.996 372.74,325.982C375.37,325.72 378.001,325.473 380.626,325.165"
              style="fill: none; stroke: rgb(192, 156, 111); stroke-width: 1.1px"
            />
            <path d="M372.138,319.977C373.945,319.155 376.329,318.993 378.258,318.658" style="fill: none; stroke: rgb(192, 156, 111); stroke-width: 1.1px" />
            <path
              d="M372.47,315.114C372.63,315.348 374.509,315.095 374.761,315.084C377.271,314.979 379.775,314.741 382.273,314.478"
              style="fill: none; stroke: rgb(192, 156, 111); stroke-width: 1.1px"
            />
            <path
              d="M230.13,277.389C229.683,277.004 231.309,277.409 231.899,277.405C233.062,277.399 234.208,277.344 235.365,277.214C238.856,276.819 242.32,276.099 245.803,275.613C256.371,274.139 266.824,272.378 277.458,271.343C291.332,269.992 305.512,267.362 319.484,267.826C337.391,268.42 355.087,273.362 372.767,275.929"
              style="fill: none; stroke: rgb(192, 156, 111); stroke-width: 1.1px"
            />
            <path
              d="M229.383,281.158C231.314,280.865 233.436,281.134 235.424,280.817C240.541,280 245.519,278.47 250.631,277.615C258.014,276.38 265.674,275.876 273.136,275.23"
              style="fill: none; stroke: rgb(192, 156, 111); stroke-width: 1.1px"
            />
            <path
              d="M229.165,286.061C228.807,286.153 229.893,285.919 230.26,285.872C231.07,285.768 231.88,285.662 232.689,285.553C235.069,285.234 237.48,284.995 239.881,284.947C247.233,284.802 254.064,285.797 261.398,284.329"
              style="fill: none; stroke: rgb(192, 156, 111); stroke-width: 1.1px"
            />
            <path
              d="M230.81,293.388C230.955,292.813 231.991,293.568 232.583,293.54C233.83,293.481 235.091,293.33 236.327,293.162C242.634,292.305 248.178,291.293 254.625,291.295"
              style="fill: none; stroke: rgb(192, 156, 111); stroke-width: 1.1px"
            />
            <path
              d="M236.521,297.467C236.258,296.888 237.791,297.529 238.426,297.522C239.707,297.508 241.002,297.417 242.278,297.309C246.237,296.974 250.243,296.514 254.22,296.707"
              style="fill: none; stroke: rgb(192, 156, 111); stroke-width: 1.1px"
            />
            <path
              d="M239.742,300.608C239.859,300.782 242.116,300.309 242.348,300.284C245.124,299.981 247.872,299.896 250.663,299.973"
              style="fill: none; stroke: rgb(192, 156, 111); stroke-width: 1.1px"
            />
            <path
              d="M242.899,308.396C242.861,308.36 243.737,308.335 243.915,308.328C244.612,308.302 245.311,308.319 246.008,308.348C248.166,308.439 250.321,308.606 252.472,308.803"
              style="fill: none; stroke: rgb(192, 156, 111); stroke-width: 1.1px"
            />
            <path d="M244.526,317.195C247.416,316.722 250.703,316.873 253.624,316.905" style="fill: none; stroke: rgb(192, 156, 111); stroke-width: 1.1px" />
          </g>
          <path
            d="M228.043,291.855C228.229,291.987 229.184,292.328 229.566,292.474C230.787,292.939 232.042,293.315 233.298,293.67C236.469,294.565 240.345,292.798 242.761,295.352C244.655,297.354 245.039,302.909 245.224,305.438C245.687,311.739 247.297,318.027 248.573,324.236C248.906,325.858 251.41,331.481 250.703,332.836C250.553,333.124 248.742,330.89 248.647,330.765C246.607,328.094 244.702,325.288 242.897,322.455C238.343,315.307 233.862,307.862 230.914,299.889L228.043,291.855C228.01,291.831 228.001,291.814 228.026,291.806L228.043,291.855ZM571.966,291.855C571.78,291.987 570.825,292.328 570.443,292.474C569.222,292.939 567.968,293.315 566.711,293.67C563.54,294.565 559.664,292.798 557.248,295.352C555.354,297.354 554.971,302.909 554.785,305.438C554.322,311.739 552.712,318.027 551.437,324.236C551.104,325.858 548.599,331.481 549.306,332.836C549.456,333.124 551.268,330.89 551.363,330.765C553.403,328.094 555.307,325.288 557.113,322.455C561.667,315.307 566.147,307.862 569.095,299.889L571.966,291.855C571.999,291.831 572.008,291.814 571.983,291.806L571.966,291.855ZM400.005,301.299L400.009,301.298C403.075,300.969 411.327,301.786 412.074,301.116C413.237,300.074 413.245,298.048 413.407,295.055C413.639,290.767 413.901,286.456 414.331,281.94L417.482,282.654C417.559,285.936 416.623,289.353 416.546,292.666C416.407,298.715 417.306,304.638 418.256,310.594C418.619,312.869 419.053,315.13 419.47,317.397C419.558,317.877 420.097,319.453 419.646,319.867C419.114,320.356 417.482,319.291 417.019,319.058C414.409,317.745 411.891,316.259 409.257,314.989C407.499,314.14 405.677,313.457 403.787,312.966C402.382,312.601 401.103,312.551 400.005,312.476C398.907,312.551 397.628,312.601 396.222,312.966C394.332,313.457 392.51,314.14 390.752,314.989C388.118,316.259 385.601,317.745 382.991,319.058C382.528,319.291 380.895,320.356 380.363,319.867C379.912,319.453 380.451,317.877 380.539,317.397C380.956,315.13 381.39,312.869 381.753,310.594C382.703,304.638 383.603,298.715 383.463,292.666C383.387,289.353 382.45,285.936 382.527,282.654L385.679,281.94C386.108,286.456 386.371,290.767 386.602,295.055C386.764,298.048 386.772,300.074 387.935,301.116C388.682,301.786 396.934,300.969 400,301.298L400.005,301.299Z"
            style="fill: rgb(47, 19, 48); fill-opacity: 0.5"
          />
        </g>
        <path
          d="M401.822,282.933C405.128,282.985 408.059,283.07 411.417,283.565C413.807,283.917 415.2,284.048 415.997,283.766C418.897,282.739 422.616,280.369 425.145,278.617C430.833,274.675 438.028,271.564 444.483,269.119C468.303,260.097 495.532,261.753 520.107,265.485C532.779,267.41 545.192,270.225 557.736,272.778C560.595,273.359 563.469,273.926 566.354,274.369C566.501,274.392 568.94,274.719 568.936,274.772L569.3,275C570.428,279.076 572.771,288.924 570.181,292.542C569.023,294.16 565.735,294.957 564.091,296.113C560.74,298.469 557.179,300.204 556.428,304.676C553.469,322.284 545.484,340.985 532.397,353.376C527.164,358.331 513.276,364.012 502.558,364.823C485.433,366.119 467.542,366.962 451.102,360.982C438.138,356.266 429.679,346.069 425.002,333.343C422.808,327.37 421.988,319.88 418.223,314.631C414.957,310.076 407.513,308.113 402.471,307.545C402.284,307.523 401.21,307.474 400.005,307.401C398.8,307.474 397.725,307.523 397.538,307.545C392.496,308.113 385.053,310.076 381.786,314.631C378.021,319.88 377.202,327.37 375.007,333.343C370.33,346.069 361.871,356.266 348.907,360.982C332.467,366.962 314.576,366.119 297.451,364.823C286.733,364.012 272.846,358.331 267.612,353.376C254.526,340.985 246.541,322.284 243.582,304.676C242.83,300.204 239.269,298.469 235.918,296.113C234.274,294.957 230.987,294.16 229.828,292.542C227.238,288.924 229.581,279.076 230.709,275L231.073,274.772C231.07,274.719 233.508,274.392 233.656,274.369C236.54,273.926 239.415,273.359 242.274,272.778C254.817,270.225 267.231,267.41 279.903,265.485C304.477,261.753 333.989,260.097 357.81,269.119C364.264,271.564 369.789,274.675 375.477,278.617C378.006,280.369 381.112,282.739 384.013,283.766C384.809,284.048 386.202,283.917 388.592,283.565C391.95,283.07 394.881,282.985 398.187,282.933C398.709,282.886 399.391,282.88 400.005,282.888C400.618,282.881 401.3,282.886 401.822,282.933ZM252.236,299.657C253.447,293.507 255.56,287.986 261.924,281.806C266.674,277.195 274.293,275.112 280.525,273.595C296.44,269.721 313.442,269.89 329.66,271.352C340.196,272.301 350.281,274.123 359.83,278.836C364.098,280.942 368.401,283.327 370.851,287.569C373.935,292.908 373.913,299.63 373.855,305.642C373.721,319.538 368.341,339.206 357.817,348.727C352.387,353.64 344.804,355.69 337.871,357.354C319.279,361.816 294.87,362.831 278.173,352.35C263.261,342.989 256.168,331.092 252.343,311.851C252.343,311.851 251.722,302.268 252.236,299.657ZM547.773,299.657C546.562,293.507 544.449,287.986 538.085,281.806C533.336,277.195 525.717,275.112 519.485,273.595C503.569,269.721 486.568,269.89 470.35,271.352C459.813,272.301 449.729,274.123 440.179,278.836C435.911,280.942 431.608,283.327 429.158,287.569C426.074,292.908 426.096,299.63 426.154,305.642C426.288,319.538 431.668,339.206 442.192,348.727C447.622,353.64 455.205,355.69 462.138,357.354C480.73,361.816 505.139,362.831 521.836,352.35C536.748,342.989 543.841,331.092 547.666,311.851C547.666,311.851 548.287,302.268 547.773,299.657Z"
          style="fill: none; stroke: black; stroke-width: 2.1px"
        />
        <circle cx="241.607" cy="281.892" r="1.888" style="fill: rgb(253, 238, 198)" />
        <g transform="matrix(-1,0,0,1,800.009,0)">
          <circle cx="241.607" cy="281.892" r="1.888" style="fill: rgb(253, 238, 198)" />
        </g>
      </g>
    </g>
    <g transform="matrix(1,0,0,1,7.6296,-2.65748)">
      <text x="263.72px" y="53.076px" style="font-family: 'Futura-Medium', 'Futura', sans-serif; font-weight: 500; font-size: 50px; fill: white">SEASON 0</text>
    </g>
  </g>
  <defs>
    <linearGradient id="normal-card_Linear3" x1="0" y1="0" x2="1" y2="0" gradientUnits="userSpaceOnUse" gradientTransform="matrix(3.89688e-14,-610.267,636.408,3.73681e-14,398.243,614.74)">
      <stop offset="0" style="stop-color: rgb(80, 225, 255); stop-opacity: 1" />
      <stop offset="0.44" style="stop-color: rgb(219, 249, 255); stop-opacity: 1" />
      <stop offset="1" style="stop-color: white; stop-opacity: 1" />
    </linearGradient>
  </defs>
</svg>
