<svg width="800px" height="800px" viewBox="0 0 800 800" version="2.0"
    xmlns="http://www.w3.org/2000/svg" style="fill-rule: evenodd; clip-rule: evenodd; stroke-linecap: round; stroke-linejoin: round; stroke-miterlimit: 1.5">
    <g id="normal-card">
        <rect id="bg" x="-48.418" y="-9.957" width="931.967" height="871.066" style="fill: rgb(6, 46, 66)" />
        <g id="rectangles" transform="matrix(1,0,0,1,49.4291,64.1339)">
            <g opacity="0.5">
                <g transform="matrix(0.660629,0,0,1.04551,351.522,-81.058)">
                    <rect x="462.47" y="633.282" width="419.335" height="322.449" style="fill: none" />
                    <clipPath id="_clip1_card_template">
                        <rect x="462.47" y="633.282" width="419.335" height="322.449" />
                    </clipPath>
                    <g clip-path="url(#_clip1_card_template)">
                        <g transform="matrix(1.51371,0,0,0.956468,-452.99,37.369)">
                            <path d="M604.78,633.282L877.032,634.306" style="fill: none; stroke: rgb(166, 240, 98); stroke-width: 4px; stroke-dasharray: 4.25, 7.5, 0, 0" />
                        </g>
                        <g transform="matrix(1.51371,0,0,0.956468,-452.99,58.0423)">
                            <path d="M604.78,633.282L877.032,634.306" style="fill: none; stroke: rgb(166, 240, 98); stroke-width: 4px; stroke-dasharray: 4.25, 7.5, 0, 0" />
                        </g>
                        <g transform="matrix(1.51371,0,0,0.956468,-452.99,68.3789)">
                            <path d="M604.78,633.282L877.032,634.306" style="fill: none; stroke: rgb(166, 240, 98); stroke-width: 4px; stroke-dasharray: 4.25, 7.5, 0, 0" />
                        </g>
                        <g transform="matrix(1.51371,0,0,0.956468,-452.99,89.0522)">
                            <path d="M604.78,633.282L877.032,634.306" style="fill: none; stroke: rgb(166, 240, 98); stroke-width: 4px; stroke-dasharray: 4.25, 7.5, 0, 0" />
                        </g>
                        <g transform="matrix(1.51371,0,0,0.956468,-452.99,99.3888)">
                            <path d="M604.78,633.282L877.032,634.306" style="fill: none; stroke: rgb(166, 240, 98); stroke-width: 4px; stroke-dasharray: 4.25, 7.5, 0, 0" />
                        </g>
                        <g transform="matrix(1.51371,0,0,0.956468,-452.99,130.399)">
                            <path d="M604.78,633.282L877.032,634.306" style="fill: none; stroke: rgb(166, 240, 98); stroke-width: 4px; stroke-dasharray: 4.25, 7.5, 0, 0" />
                        </g>
                        <g transform="matrix(1.51371,0,0,0.956468,-452.99,151.072)">
                            <path d="M604.78,633.282L877.032,634.306" style="fill: none; stroke: rgb(166, 240, 98); stroke-width: 4px; stroke-dasharray: 4.25, 7.5, 0, 0" />
                        </g>
                        <g transform="matrix(1.51371,0,0,0.956468,-452.99,171.745)">
                            <path d="M604.78,633.282L877.032,634.306" style="fill: none; stroke: rgb(166, 240, 98); stroke-width: 4px; stroke-dasharray: 4.25, 7.5, 0, 0" />
                        </g>
                    </g>
                    <rect x="462.47" y="633.282" width="419.335" height="322.449" style="fill: none; stroke: rgb(166, 240, 98); stroke-width: 4.57px; stroke-dasharray: 4.86, 8.58, 0, 0" />
                </g>
                <g transform="matrix(0.192707,0,0,1.04551,466.744,2.40586)">
                    <rect x="462.47" y="633.282" width="419.335" height="322.449" style="fill: none" />
                    <clipPath id="_clip2_card_template">
                        <rect x="462.47" y="633.282" width="419.335" height="322.449" />
                    </clipPath>
                    <g clip-path="url(#_clip2_card_template)">
                        <g transform="matrix(1.51371,0,0,0.956468,-452.99,37.369)">
                            <path d="M604.78,633.282L877.032,634.306" style="fill: none; stroke: rgb(237, 30, 121); stroke-width: 5.43px; stroke-dasharray: 5.77, 10.18, 0, 0" />
                        </g>
                        <g transform="matrix(1.51371,0,0,0.956468,-452.99,58.0423)">
                            <path d="M604.78,633.282L877.032,634.306" style="fill: none; stroke: rgb(237, 30, 121); stroke-width: 5.43px; stroke-dasharray: 5.77, 10.18, 0, 0" />
                        </g>
                        <g transform="matrix(1.51371,0,0,0.956468,-452.99,68.3789)">
                            <path d="M604.78,633.282L877.032,634.306" style="fill: none; stroke: rgb(237, 30, 121); stroke-width: 5.43px; stroke-dasharray: 5.77, 10.18, 0, 0" />
                        </g>
                        <g transform="matrix(1.51371,0,0,0.956468,-452.99,89.0522)">
                            <path d="M604.78,633.282L877.032,634.306" style="fill: none; stroke: rgb(237, 30, 121); stroke-width: 5.43px; stroke-dasharray: 5.77, 10.18, 0, 0" />
                        </g>
                    </g>
                    <rect x="462.47" y="633.282" width="419.335" height="322.449" style="fill: none; stroke: rgb(237, 30, 121); stroke-width: 5.32px; stroke-dasharray: 5.65, 9.98, 0, 0" />
                </g>
            </g>
        </g>
        <g id="circles" opacity="0.5">
            <g transform="matrix(1,0,0,1,-118.853,-94.5905)">
                <circle cx="155.124" cy="124.814" r="124.814" style="fill: none; stroke: rgb(255, 207, 0); stroke-width: 4px; stroke-dasharray: 4.25, 7.5, 0, 0" />
            </g>
            <g transform="matrix(0.928318,0,0,0.928318,-107.734,-85.6437)">
                <circle cx="155.124" cy="124.814" r="124.814" style="fill: none; stroke: rgb(255, 207, 0); stroke-width: 4.31px; stroke-dasharray: 4.58, 8.08, 0, 0" />
            </g>
            <g transform="matrix(0.691272,0,0,0.691272,-70.9623,-56.0571)">
                <circle cx="155.124" cy="124.814" r="124.814" style="fill: none; stroke: rgb(255, 108, 0); stroke-width: 5.79px; stroke-dasharray: 6.15, 10.85, 0, 0" />
            </g>
        </g>
        <g id="rarity-bars" transform="matrix(0.86723,0,0,0.86723,10.4494,88.5493)">
            <g id="rarity-bars-fill">
                <g transform="matrix(0.114833,0,0,0.114833,59.0756,653.445)">
                    <path d="M400,117.517L629.266,249.774L629.266,514.685L400.192,646.941L400.192,647.052L400.096,646.997L400,647.052L400,646.941L170.925,514.685L170.925,249.774L400,117.517Z" style="fill: rgb(139, 57, 219)" />
                </g>
                <g transform="matrix(0.114833,0,0,0.114833,126.648,653.445)">
                    <path d="M400,117.517L629.266,249.774L629.266,514.685L400.192,646.941L400.192,647.052L400.096,646.997L400,647.052L400,646.941L170.925,514.685L170.925,249.774L400,117.517Z" style="fill: rgb(237, 30, 121)" />
                </g>
                <g transform="matrix(0.114833,0,0,0.114833,194.22,653.445)">
                    <path d="M400,117.517L629.266,249.774L629.266,514.685L400.192,646.941L400.192,647.052L400.096,646.997L400,647.052L400,646.941L170.925,514.685L170.925,249.774L400,117.517Z" style="fill: rgb(241, 90, 36)" />
                </g>
                <!-- <g transform="matrix(0.114833,0,0,0.114833,261.792,653.445)">
              <path d="M400,117.517L629.266,249.774L629.266,514.685L400.192,646.941L400.192,647.052L400.096,646.997L400,647.052L400,646.941L170.925,514.685L170.925,249.774L400,117.517Z" style="fill: rgb(251, 176, 59)" />
            </g> -->
                <!-- <g transform="matrix(0.114833,0,0,0.114833,329.364,653.445)">
                  <path d="M400,117.517L629.266,249.774L629.266,514.685L400.192,646.941L400.192,647.052L400.096,646.997L400,647.052L400,646.941L170.925,514.685L170.925,249.774L400,117.517Z" style="fill: rgb(41, 171, 226)" />
                </g> -->
            </g>
            <g id="rarity-bars-stroke">
                <g transform="matrix(0.114833,0,0,0.114833,59.0756,653.445)">
                    <path d="M400,117.517L629.266,249.774L629.266,514.685L400.192,646.941L400.192,647.052L400.096,646.997L400,647.052L400,646.941L170.925,514.685L170.925,249.774L400,117.517Z" style="fill: none; stroke: white; stroke-width: 34.83px" />
                </g>
                <g transform="matrix(0.114833,0,0,0.114833,126.648,653.445)">
                    <path d="M400,117.517L629.266,249.774L629.266,514.685L400.192,646.941L400.192,647.052L400.096,646.997L400,647.052L400,646.941L170.925,514.685L170.925,249.774L400,117.517Z" style="fill: none; stroke: white; stroke-width: 34.83px" />
                </g>
                <g transform="matrix(0.114833,0,0,0.114833,194.22,653.445)">
                    <path d="M400,117.517L629.266,249.774L629.266,514.685L400.192,646.941L400.192,647.052L400.096,646.997L400,647.052L400,646.941L170.925,514.685L170.925,249.774L400,117.517Z" style="fill: none; stroke: white; stroke-width: 34.83px" />
                </g>
                <g transform="matrix(0.114833,0,0,0.114833,261.792,653.445)">
                    <path d="M400,117.517L629.266,249.774L629.266,514.685L400.192,646.941L400.192,647.052L400.096,646.997L400,647.052L400,646.941L170.925,514.685L170.925,249.774L400,117.517Z" style="fill: none; stroke: white; stroke-width: 34.83px" />
                </g>
                <g transform="matrix(0.114833,0,0,0.114833,329.364,653.445)">
                    <path d="M400,117.517L629.266,249.774L629.266,514.685L400.192,646.941L400.192,647.052L400.096,646.997L400,647.052L400,646.941L170.925,514.685L170.925,249.774L400,117.517Z" style="fill: none; stroke: white; stroke-width: 34.83px" />
                </g>
            </g>
        </g>
        <g transform="matrix(0.720342,0,0,0.720342,23.1337,330.63)">
            <text x="77.471px" y="439.84px" style="font-family: 'Futura-Medium', 'Futura', sans-serif; font-weight: 500; font-size: 50px; fill: white">RARITY</text>
        </g>

        <g transform="matrix(0.911866,0,0,0.911866,252.534,309.097)">
            <text x="190.763px" y="439.84px" style="font-family: 'Futura-Medium', 'Futura', sans-serif; font-weight: 500; font-size: 50px; fill: white" id="wear_value"></text>
        </g>
        <g transform="matrix(0.720342,0,0,0.720342,340.614,330.63)">
            <text x="77.471px" y="439.84px" style="font-family: 'Futura-Medium', 'Futura', sans-serif; font-weight: 500; font-size: 50px; fill: white">WEAR</text>
        </g>
        <g transform="matrix(1,0,0,1,11.3386,0)">
            <g id="clothing">
                <path d="M643.088,685.842C646.783,685.778 648.661,683.2 649.092,679.318C650.012,671.056 649.138,666.716 649.138,666.716L653.408,666.766C653.408,666.766 651.456,677.988 655.595,682.825C658.992,686.794 662.073,686.445 662.073,686.445L662.462,712.698L623.892,712.698L624.28,686.445C624.28,686.445 626.476,686.794 629.873,682.825C634.012,677.988 632.06,666.766 632.06,666.766L636.417,666.616C636.417,666.616 635.514,670.986 636.433,679.248C636.865,683.129 638.73,685.919 643.088,685.842Z" style="fill: white" />
            </g>
        </g>

        <g transform="matrix(0.720342,0,0,0.720342,520.614,330.63)">
            <text x="124.102px" y="439.84px" style="font-family: 'Futura-Medium', 'Futura', sans-serif; font-weight: 500; font-size: 50px; fill: white">SLOT</text>
        </g>
        <g transform="matrix(1,0,0,1,-7.69409,0)">
            <path d="M82.194,602.738L733.196,602.258C733.979,602.258 734.615,601.621 734.614,600.838C734.614,600.055 733.977,599.42 733.194,599.42L82.192,599.9C81.409,599.901 80.773,600.537 80.774,601.321C80.775,602.104 81.411,602.739 82.194,602.738Z" style="fill: white" />
        </g>
        <g transform="matrix(1,0,0,1,120.441,145.046)">
            <text x="140.471px" y="439.84px" style="font-family: 'Futura-Medium', 'Futura', sans-serif; font-weight: 500; font-size: 50px; fill: white">SUPER SUIT</text>
        </g>
        <path id="border" d="M800,801.235L800,-4.106L-0,-4.106L0,801.235L800,801.235ZM260.875,30.644L30.644,30.644C30.644,30.644 30.644,769.356 30.644,769.356C30.644,769.356 769.356,769.356 769.356,769.356L769.356,30.644L539.125,30.644L539.125,61.806L260.875,61.806L260.875,30.644Z" style="fill: rgb(0, 153, 197)" />
        <g id="guide" transform="matrix(1,0,0,1.04284,1.75676,-22.4672)">
            <rect x="82.193" y="95.569" width="632.101" height="428.927" style="fill: url(#_Linear3_card_template); stroke: rgb(0, 153, 197); stroke-width: 4.8px" />
            <rect x="82.193" y="95.569" width="632.101" height="428.927" style="fill: url(#super-suit)"/>
        </g>
        <pattern id="super-suit" viewBox="0,0,800,800" width="100%" height="100%">
            <g id="accessories-front">
                <g id="Dfinity-suit">
                    <g id="Suit">
                        <path d="M400.778,699.202C406.927,698.143 444.626,689.046 469.121,682.038C495.418,674.515 563.396,660.386 563.396,660.386L601.168,566.125C601.168,566.125 573.024,553.149 631.027,579.765C689.031,606.381 770.258,654.979 785.125,667.476C799.992,679.973 848.397,774.418 839.02,946.503C838.124,962.953 -40.35,958.948 -42.247,947.897C-48.024,914.248 -47.055,761.555 -16.546,705.937C-9.388,692.889 1.565,679.973 16.432,667.476C31.299,654.979 112.526,606.381 170.529,579.765C228.533,553.149 200.388,566.125 200.388,566.125L238.161,660.386C238.161,660.386 306.139,674.515 332.435,682.038C356.931,689.046 394.63,698.143 400.778,699.202Z" style="fill: rgb(44, 140, 203)" />
                        <clipPath id="Super-suit_0">
                            <path d="M400.778,699.202C406.927,698.143 444.626,689.046 469.121,682.038C495.418,674.515 563.396,660.386 563.396,660.386L601.168,566.125C601.168,566.125 573.024,553.149 631.027,579.765C689.031,606.381 770.258,654.979 785.125,667.476C799.992,679.973 848.397,774.418 839.02,946.503C838.124,962.953 -40.35,958.948 -42.247,947.897C-48.024,914.248 -47.055,761.555 -16.546,705.937C-9.388,692.889 1.565,679.973 16.432,667.476C31.299,654.979 112.526,606.381 170.529,579.765C228.533,553.149 200.388,566.125 200.388,566.125L238.161,660.386C238.161,660.386 306.139,674.515 332.435,682.038C356.931,689.046 394.63,698.143 400.778,699.202Z" />
                        </clipPath>
                        <g clip-path="url(#Super-suit_0)">
                            <g id="dots">
                                <g transform="matrix(1,0,0,1,2.78819,-60.8596)">
                                    <path d="M-146.642,766.985C-116.552,755.091 -66.814,758.236 -35.025,756.656C45.214,752.666 125.472,749.343 205.826,749.552C458.533,750.211 711.194,756.484 963.911,756.484C977.356,756.484 988.271,745.569 988.271,732.124C988.271,718.679 977.356,707.764 963.911,707.764C711.236,707.764 458.618,701.491 205.953,700.832C124.75,700.621 43.643,703.964 -37.444,707.996C-73.699,709.798 -130.234,708.111 -164.551,721.675C-177.055,726.617 -183.193,740.781 -178.251,753.284C-173.309,765.788 -159.146,771.927 -146.642,766.985Z" style="fill: rgb(68, 112, 182)" />
                                </g>
                                <g transform="matrix(1,0,0,1,0.998933,-13.934)">
                                    <path d="M-146.642,766.985C-116.552,755.091 -66.814,758.236 -35.025,756.656C45.214,752.666 125.472,749.343 205.826,749.552C458.533,750.211 711.194,756.484 963.911,756.484C977.356,756.484 988.271,745.569 988.271,732.124C988.271,718.679 977.356,707.764 963.911,707.764C711.236,707.764 458.618,701.491 205.953,700.832C124.75,700.621 43.643,703.964 -37.444,707.996C-73.699,709.798 -130.234,708.111 -164.551,721.675C-177.055,726.617 -183.193,740.781 -178.251,753.284C-173.309,765.788 -159.146,771.927 -146.642,766.985Z" style="fill: rgb(68, 112, 182)" />
                                </g>
                                <g transform="matrix(1,0,0,1,-0.790327,32.9916)">
                                    <path d="M-146.642,766.985C-116.552,755.091 -66.814,758.236 -35.025,756.656C45.214,752.666 125.472,749.343 205.826,749.552C458.533,750.211 711.194,756.484 963.911,756.484C977.356,756.484 988.271,745.569 988.271,732.124C988.271,718.679 977.356,707.764 963.911,707.764C711.236,707.764 458.618,701.491 205.953,700.832C124.75,700.621 43.643,703.964 -37.444,707.996C-73.699,709.798 -130.234,708.111 -164.551,721.675C-177.055,726.617 -183.193,740.781 -178.251,753.284C-173.309,765.788 -159.146,771.927 -146.642,766.985Z" style="fill: rgb(68, 112, 182)" />
                                </g>
                                <g transform="matrix(1,0,0,1,-2.57959,79.9173)">
                                    <path d="M-146.642,766.985C-116.552,755.091 -66.814,758.236 -35.025,756.656C45.214,752.666 125.472,749.343 205.826,749.552C458.533,750.211 711.194,756.484 963.911,756.484C977.356,756.484 988.271,745.569 988.271,732.124C988.271,718.679 977.356,707.764 963.911,707.764C711.236,707.764 458.618,701.491 205.953,700.832C124.75,700.621 43.643,703.964 -37.444,707.996C-73.699,709.798 -130.234,708.111 -164.551,721.675C-177.055,726.617 -183.193,740.781 -178.251,753.284C-173.309,765.788 -159.146,771.927 -146.642,766.985Z" style="fill: rgb(68, 112, 182)" />
                                </g>
                            </g>
                            <path d="M-74.243,865.922C-17.014,725.293 37.63,673.746 125.003,629.909C156.49,614.111 189.308,601.554 221.957,588.428C228.933,585.623 251.129,581.104 250.661,571.18C250.376,565.127 247.462,558.803 244.996,553.373C219.844,497.96 150.984,541.662 115.597,562.641C106.374,568.109 97.233,573.716 88.13,579.381C2.722,632.531 -68.757,684.691 -87.833,787.948C-91.962,810.296 -92.528,832.921 -91.701,855.575L-74.243,865.922Z" style="fill: url(#Super-suit_Linear2)" />
                            <clipPath id="Super-suit_1">
                                <path d="M-74.243,865.922C-17.014,725.293 37.63,673.746 125.003,629.909C156.49,614.111 189.308,601.554 221.957,588.428C228.933,585.623 251.129,581.104 250.661,571.18C250.376,565.127 247.462,558.803 244.996,553.373C219.844,497.96 150.984,541.662 115.597,562.641C106.374,568.109 97.233,573.716 88.13,579.381C2.722,632.531 -68.757,684.691 -87.833,787.948C-91.962,810.296 -92.528,832.921 -91.701,855.575L-74.243,865.922Z" />
                            </clipPath>
                            <g clip-path="url(#Super-suit_1)">
                                <path d="M-38.114,708.241C-38.01,706.723 -32.42,703.731 -31.367,702.973C-24.176,697.791 -16.554,693.103 -8.744,688.917C25.892,670.354 62.645,656.752 100.545,646.54C111.413,643.612 122.321,640.833 133.154,637.778C135.332,637.164 143.154,635.861 143.127,632.55C143.097,628.915 135.381,626.793 132.909,625.973C121.043,622.037 108.081,621.001 95.702,619.952C75.478,618.237 53.106,614.773 33.208,620.279C10.337,626.607 -5.146,644.933 -18.349,663.524L-38.114,708.241Z" style="fill: rgb(56, 25, 57); fill-opacity: 0.5" />
                            </g>
                            <path d="M-74.243,865.922C-17.014,725.293 37.63,673.746 125.003,629.909C156.49,614.111 189.308,601.554 221.957,588.428C228.933,585.623 251.129,581.104 250.661,571.18C250.376,565.127 247.462,558.803 244.996,553.373C219.844,497.96 150.984,541.662 115.597,562.641C106.374,568.109 97.233,573.716 88.13,579.381C2.722,632.531 -68.757,684.691 -87.833,787.948C-91.962,810.296 -92.528,832.921 -91.701,855.575L-74.243,865.922Z" style="fill: none; stroke: black; stroke-width: 2.1px" />
                            <g transform="matrix(-1,0,0,1,800.158,0)">
                                <path d="M-74.243,865.922C-17.014,725.293 37.63,673.746 125.003,629.909C156.49,614.111 189.308,601.554 221.957,588.428C228.933,585.623 251.129,581.104 250.661,571.18C250.376,565.127 247.462,558.803 244.996,553.373C219.844,497.96 150.984,541.662 115.597,562.641C106.374,568.109 97.233,573.716 88.13,579.381C2.722,632.531 -68.757,684.691 -87.833,787.948C-91.962,810.296 -92.528,832.921 -91.701,855.575L-74.243,865.922Z" style="fill: url(#Super-suit_Linear4)" />
                                <clipPath id="Super-suit_2">
                                    <path d="M-74.243,865.922C-17.014,725.293 37.63,673.746 125.003,629.909C156.49,614.111 189.308,601.554 221.957,588.428C228.933,585.623 251.129,581.104 250.661,571.18C250.376,565.127 247.462,558.803 244.996,553.373C219.844,497.96 150.984,541.662 115.597,562.641C106.374,568.109 97.233,573.716 88.13,579.381C2.722,632.531 -68.757,684.691 -87.833,787.948C-91.962,810.296 -92.528,832.921 -91.701,855.575L-74.243,865.922Z" />
                                </clipPath>
                                <g clip-path="url(#Super-suit_2)">
                                    <path d="M-38.114,708.241C-38.01,706.723 -32.42,703.731 -31.367,702.973C-24.176,697.791 -16.554,693.103 -8.744,688.917C25.892,670.354 62.645,656.752 100.545,646.54C111.413,643.612 122.321,640.833 133.154,637.778C135.332,637.164 143.154,635.861 143.127,632.55C143.097,628.915 135.381,626.793 132.909,625.973C121.043,622.037 108.081,621.001 95.702,619.952C75.478,618.237 53.106,614.773 33.208,620.279C10.337,626.607 -5.146,644.933 -18.349,663.524L-38.114,708.241Z" style="fill: rgb(56, 25, 57); fill-opacity: 0.5" />
                                </g>
                                <path d="M-74.243,865.922C-17.014,725.293 37.63,673.746 125.003,629.909C156.49,614.111 189.308,601.554 221.957,588.428C228.933,585.623 251.129,581.104 250.661,571.18C250.376,565.127 247.462,558.803 244.996,553.373C219.844,497.96 150.984,541.662 115.597,562.641C106.374,568.109 97.233,573.716 88.13,579.381C2.722,632.531 -68.757,684.691 -87.833,787.948C-91.962,810.296 -92.528,832.921 -91.701,855.575L-74.243,865.922Z" style="fill: none; stroke: black; stroke-width: 2.1px" />
                            </g>
                            <path d="M105.156,724.919C105.186,723.813 103.969,726.792 103.49,727.789C102.5,729.846 101.517,731.908 100.593,733.996C97.877,740.133 95.612,746.516 93.81,752.982C88.335,772.637 85.013,791.848 85.932,812.306" style="fill: none; stroke: black; stroke-width: 2.1px" />
                            <g transform="matrix(-1,0,0,1,799.854,0)">
                                <path d="M105.156,724.919C105.186,723.813 103.969,726.792 103.49,727.789C102.5,729.846 101.517,731.908 100.593,733.996C97.877,740.133 95.612,746.516 93.81,752.982C88.335,772.637 85.013,791.848 85.932,812.306" style="fill: none; stroke: black; stroke-width: 2.1px" />
                            </g>
                        </g>
                        <path d="M400.778,699.202C406.927,698.143 444.626,689.046 469.121,682.038C495.418,674.515 563.396,660.386 563.396,660.386L601.168,566.125C601.168,566.125 573.024,553.149 631.027,579.765C689.031,606.381 770.258,654.979 785.125,667.476C799.992,679.973 848.397,774.418 839.02,946.503C838.124,962.953 -40.35,958.948 -42.247,947.897C-48.024,914.248 -47.055,761.555 -16.546,705.937C-9.388,692.889 1.565,679.973 16.432,667.476C31.299,654.979 112.526,606.381 170.529,579.765C228.533,553.149 200.388,566.125 200.388,566.125L238.161,660.386C238.161,660.386 306.139,674.515 332.435,682.038C356.931,689.046 394.63,698.143 400.778,699.202Z" style="fill: none; stroke: black; stroke-width: 2.1px" />
                        <path d="M397.354,848.524C399.086,850.46 400.062,851.555 400.062,851.555C390.303,863.368 376.921,878.303 361.726,892.017C329.524,921.208 298.995,936.008 271.114,936.008C204.061,936.008 149.694,881.154 149.694,813.674C149.694,803.898 153.077,779.425 154.2,776.68C169.234,721.625 216.22,692.145 271.253,691.882C317.675,691.882 367.302,727.803 399.365,776.335C399.365,776.335 420.9,748.685 435.621,735.399C467.823,706.207 503.225,691.615 531.102,692.102C607.878,693.444 649.593,746.736 649.732,814.217C649.732,823.993 648.478,833.497 646.387,842.594C646.29,843.004 646.007,844.038 645.469,845.543C631.513,897.339 584.31,935.471 528.452,935.737C482.031,935.737 435.052,891.338 400.201,851.284C400.201,851.419 400.062,851.419 400.062,851.555C400.062,851.555 397.866,849.092 394.217,845.018L397.354,848.524ZM274.558,738.683C221.903,734.222 196.015,779.135 195.594,815.162C195.119,855.757 231.105,887.4 271.253,887.4C281.848,887.4 300.667,881.833 329.245,856.036C344.719,842.051 357.962,826.572 367.302,815.167C367.441,815.167 351.159,791.305 330.388,771.618C324.744,766.31 295.379,740.447 274.558,738.683ZM525.935,887.293C526.726,887.365 527.468,887.4 528.173,887.4C568.321,886.993 603.729,854.903 603.729,814.713C603.729,774.116 571.581,739.409 531.433,739.409C520.699,739.409 498.759,745.785 470.181,771.854C454.776,785.778 441.581,801.182 432.249,812.571L432.264,812.587C432.264,812.587 451.78,834.99 472.412,854.678C478.225,860.145 500.109,877.544 525.935,887.293ZM385.202,834.974L386.849,836.806L385.202,834.974L383.991,833.628L385.202,834.974ZM368.283,816.248C370.141,818.295 371.978,820.322 373.774,822.305C371.976,820.318 370.14,818.293 368.283,816.248Z" style="fill: rgb(177, 218, 236); fill-rule: nonzero; stroke: black; stroke-width: 2.1px; stroke-miterlimit: 2" />
                    </g>
                    <g id="cape">
                        <path d="M541.202,664.041C542.24,663.281 542.741,658.179 543.066,657.012C544.945,650.249 546.903,643.511 549.12,636.85C557.353,612.118 566.41,587.445 577.305,563.76C580.743,556.288 584.421,548.925 588.392,541.721C589.141,540.362 591.195,535.359 593.182,535.18C594.539,535.058 596.304,536.74 597.354,537.393C600.415,539.299 603.576,541.11 606.965,542.373C613.729,544.894 621.037,544.838 628.141,545.341C631.866,545.604 637.063,545.764 640.233,548.097C641.82,549.266 636.286,552.715 636.207,554.159C636.107,555.98 642.043,557.395 643.155,557.726C653.97,560.941 665.141,559.526 676.089,561.718C678.098,562.121 682.425,562.817 683.925,564.477C684.56,565.18 682.199,567.282 683.066,567.436C684.839,567.75 687.73,566.375 689.471,566.044C695.397,564.916 702.717,562.957 708.67,564.894C716.663,567.495 719.645,577.039 726.657,580.916C729.212,582.329 732.513,582.668 735.275,583.506C740.587,585.116 745.899,587.066 750.7,589.882C758.937,594.713 766.687,600.757 774.411,606.359C777.621,608.687 780.802,611.917 784.373,613.681C788.561,615.749 793.892,614.553 797.987,616.578C811.423,623.222 811.563,639.774 811.793,652.525C811.879,657.274 811.959,662.107 811.432,666.834C810.885,671.733 811.005,686.17 805.702,688.779C803.447,689.888 802.911,687.163 801.697,685.739C797.667,681.008 792.003,674.212 786.529,669.387C769.096,654.019 762.543,652.492 762.543,652.492C762.543,652.492 751.545,650.624 743.733,649.818C729.12,648.312 714.438,647.87 699.788,646.887C682.323,645.714 664.758,644.145 647.241,645.108C632.428,645.922 617.916,648.919 603.35,651.531C583.73,655.048 564.337,658.727 545.198,664.322L541.202,664.041Z" style="fill: url(#Super-suit_Linear6)" />
                        <clipPath id="Super-suit_3">
                            <path d="M541.202,664.041C542.24,663.281 542.741,658.179 543.066,657.012C544.945,650.249 546.903,643.511 549.12,636.85C557.353,612.118 566.41,587.445 577.305,563.76C580.743,556.288 584.421,548.925 588.392,541.721C589.141,540.362 591.195,535.359 593.182,535.18C594.539,535.058 596.304,536.74 597.354,537.393C600.415,539.299 603.576,541.11 606.965,542.373C613.729,544.894 621.037,544.838 628.141,545.341C631.866,545.604 637.063,545.764 640.233,548.097C641.82,549.266 636.286,552.715 636.207,554.159C636.107,555.98 642.043,557.395 643.155,557.726C653.97,560.941 665.141,559.526 676.089,561.718C678.098,562.121 682.425,562.817 683.925,564.477C684.56,565.18 682.199,567.282 683.066,567.436C684.839,567.75 687.73,566.375 689.471,566.044C695.397,564.916 702.717,562.957 708.67,564.894C716.663,567.495 719.645,577.039 726.657,580.916C729.212,582.329 732.513,582.668 735.275,583.506C740.587,585.116 745.899,587.066 750.7,589.882C758.937,594.713 766.687,600.757 774.411,606.359C777.621,608.687 780.802,611.917 784.373,613.681C788.561,615.749 793.892,614.553 797.987,616.578C811.423,623.222 811.563,639.774 811.793,652.525C811.879,657.274 811.959,662.107 811.432,666.834C810.885,671.733 811.005,686.17 805.702,688.779C803.447,689.888 802.911,687.163 801.697,685.739C797.667,681.008 792.003,674.212 786.529,669.387C769.096,654.019 762.543,652.492 762.543,652.492C762.543,652.492 751.545,650.624 743.733,649.818C729.12,648.312 714.438,647.87 699.788,646.887C682.323,645.714 664.758,644.145 647.241,645.108C632.428,645.922 617.916,648.919 603.35,651.531C583.73,655.048 564.337,658.727 545.198,664.322L541.202,664.041Z" />
                        </clipPath>
                        <g clip-path="url(#Super-suit_3)">
                            <path d="M747.469,656.498C747.037,656.565 748.22,656.051 748.603,655.841C749.419,655.395 750.239,654.972 751.11,654.641C753.821,653.613 756.693,653.103 759.548,652.665C767.69,651.415 776.118,653.378 784.101,654.96C806.018,659.305 824.768,670.376 841.872,684.706C849.054,690.724 859.399,698.949 854.961,709.57C848.899,724.076 830.57,720.593 819.026,716.269C808.378,712.279 798.249,706.568 789.94,698.739C776.751,686.313 766.366,669.928 751.111,659.771" style="fill: rgb(79, 22, 99)" />
                            <g id="lines">
                                <path d="M584.102,605.286C584.205,605.427 582.371,607.988 582.249,608.195C580.218,611.624 578.312,615.123 576.49,618.667C569.015,633.206 561.88,647.982 555.807,663.165" style="fill: none; stroke: black; stroke-width: 2.1px" />
                                <path d="M636.918,552.939C636.085,552.884 632.961,558.13 632.531,558.719C627.753,565.265 623.164,571.949 618.621,578.66C600.419,605.544 580.056,632.634 566.904,662.479" style="fill: none; stroke: black; stroke-width: 2.1px" />
                                <path d="M682.709,566.303C682.632,566.199 677.344,570.274 677.071,570.49C670.913,575.356 665.119,580.713 659.443,586.127C635.721,608.753 611.9,632.917 591.843,658.863" style="fill: none; stroke: black; stroke-width: 2.1px" />
                                <path d="M686.2,567.022C684.774,567.231 681.567,571.735 680.609,572.711C675.075,578.346 669.621,584.066 664.169,589.78C643.163,611.795 621.381,633.839 602.673,657.868" style="fill: none; stroke: black; stroke-width: 2.1px" />
                                <path d="M725.613,580.062C714.508,584.064 703.499,588.809 693.448,595.063" style="fill: none; stroke: black; stroke-width: 2.1px" />
                                <path d="M623.637,648.882C623.744,647.957 625.863,646.562 626.456,646.034C629.576,643.261 632.891,640.691 636.277,638.253C647.577,630.118 660.257,621.816 673.456,617.031C676.863,615.796 680.672,617.883 683.756,619.196C684.056,619.324 687.277,620.515 686.939,620.965C685.843,622.427 682.594,623.299 681.029,624.029C676.034,626.358 671.004,628.613 666.007,630.938C660.56,633.473 655.092,636.015 649.53,638.29" style="fill: none; stroke: black; stroke-width: 2.1px" />
                                <path d="M636.821,646.88C636.585,646.475 637.704,646.564 638.148,646.415C639.01,646.128 639.88,645.865 640.747,645.593C643.238,644.81 645.731,644.035 648.225,643.261C655.789,640.915 663.376,638.67 671.013,636.573C694.838,630.029 719.205,624.576 743.537,620.282C757.03,617.902 770.924,616.721 784.257,613.537" style="fill: none; stroke: black; stroke-width: 2.1px" />
                                <path d="M779.643,632.629C776.875,631.764 772.448,632.598 769.58,632.581C761.967,632.539 754.359,632.504 746.746,632.591C721.789,632.877 695.55,632.785 670.867,637.104" style="fill: none; stroke: black; stroke-width: 2.1px" />
                                <path d="M759.597,651.448C759.598,651.413 764.099,651.737 764.331,651.756C769.866,652.217 775.387,653.003 780.839,654.052C804.9,658.682 822.927,669.346 840.434,686.66" style="fill: none; stroke: black; stroke-width: 2.1px" />
                            </g>
                        </g>
                        <path d="M541.202,664.041C542.24,663.281 542.741,658.179 543.066,657.012C544.945,650.249 546.903,643.511 549.12,636.85C557.353,612.118 566.41,587.445 577.305,563.76C580.743,556.288 584.421,548.925 588.392,541.721C589.141,540.362 591.195,535.359 593.182,535.18C594.539,535.058 596.304,536.74 597.354,537.393C600.415,539.299 603.576,541.11 606.965,542.373C613.729,544.894 621.037,544.838 628.141,545.341C631.866,545.604 637.063,545.764 640.233,548.097C641.82,549.266 636.286,552.715 636.207,554.159C636.107,555.98 642.043,557.395 643.155,557.726C653.97,560.941 665.141,559.526 676.089,561.718C678.098,562.121 682.425,562.817 683.925,564.477C684.56,565.18 682.199,567.282 683.066,567.436C684.839,567.75 687.73,566.375 689.471,566.044C695.397,564.916 702.717,562.957 708.67,564.894C716.663,567.495 719.645,577.039 726.657,580.916C729.212,582.329 732.513,582.668 735.275,583.506C740.587,585.116 745.899,587.066 750.7,589.882C758.937,594.713 766.687,600.757 774.411,606.359C777.621,608.687 780.802,611.917 784.373,613.681C788.561,615.749 793.892,614.553 797.987,616.578C811.423,623.222 811.563,639.774 811.793,652.525C811.879,657.274 811.959,662.107 811.432,666.834C810.885,671.733 811.005,686.17 805.702,688.779C803.447,689.888 802.911,687.163 801.697,685.739C797.667,681.008 792.003,674.212 786.529,669.387C769.096,654.019 762.543,652.492 762.543,652.492C762.543,652.492 751.545,650.624 743.733,649.818C729.12,648.312 714.438,647.87 699.788,646.887C682.323,645.714 664.758,644.145 647.241,645.108C632.428,645.922 617.916,648.919 603.35,651.531C583.73,655.048 564.337,658.727 545.198,664.322L541.202,664.041Z" style="fill: none; stroke: black; stroke-width: 2.1px" />
                        <g transform="matrix(-1,0,0,1,800.125,0)">
                            <path d="M541.202,664.041C542.24,663.281 542.741,658.179 543.066,657.012C544.945,650.249 546.903,643.511 549.12,636.85C557.353,612.118 566.41,587.445 577.305,563.76C580.743,556.288 584.421,548.925 588.392,541.721C589.141,540.362 591.195,535.359 593.182,535.18C594.539,535.058 596.304,536.74 597.354,537.393C600.415,539.299 603.576,541.11 606.965,542.373C613.729,544.894 621.037,544.838 628.141,545.341C631.866,545.604 637.063,545.764 640.233,548.097C641.82,549.266 636.286,552.715 636.207,554.159C636.107,555.98 642.043,557.395 643.155,557.726C653.97,560.941 665.141,559.526 676.089,561.718C678.098,562.121 682.425,562.817 683.925,564.477C684.56,565.18 682.199,567.282 683.066,567.436C684.839,567.75 687.73,566.375 689.471,566.044C695.397,564.916 702.717,562.957 708.67,564.894C716.663,567.495 719.645,577.039 726.657,580.916C729.212,582.329 732.513,582.668 735.275,583.506C740.587,585.116 745.899,587.066 750.7,589.882C758.937,594.713 766.687,600.757 774.411,606.359C777.621,608.687 780.802,611.917 784.373,613.681C788.561,615.749 793.892,614.553 797.987,616.578C811.423,623.222 811.563,639.774 811.793,652.525C811.879,657.274 811.959,662.107 811.432,666.834C810.885,671.733 811.005,686.17 805.702,688.779C803.447,689.888 802.911,687.163 801.697,685.739C797.667,681.008 792.003,674.212 786.529,669.387C769.096,654.019 762.543,652.492 762.543,652.492C762.543,652.492 751.545,650.624 743.733,649.818C729.12,648.312 714.438,647.87 699.788,646.887C682.323,645.714 664.758,644.145 647.241,645.108C632.428,645.922 617.916,648.919 603.35,651.531C583.73,655.048 564.337,658.727 545.198,664.322L541.202,664.041Z" style="fill: url(#Super-suit_Linear8)" />
                            <clipPath id="Super-suit_4">
                                <path d="M541.202,664.041C542.24,663.281 542.741,658.179 543.066,657.012C544.945,650.249 546.903,643.511 549.12,636.85C557.353,612.118 566.41,587.445 577.305,563.76C580.743,556.288 584.421,548.925 588.392,541.721C589.141,540.362 591.195,535.359 593.182,535.18C594.539,535.058 596.304,536.74 597.354,537.393C600.415,539.299 603.576,541.11 606.965,542.373C613.729,544.894 621.037,544.838 628.141,545.341C631.866,545.604 637.063,545.764 640.233,548.097C641.82,549.266 636.286,552.715 636.207,554.159C636.107,555.98 642.043,557.395 643.155,557.726C653.97,560.941 665.141,559.526 676.089,561.718C678.098,562.121 682.425,562.817 683.925,564.477C684.56,565.18 682.199,567.282 683.066,567.436C684.839,567.75 687.73,566.375 689.471,566.044C695.397,564.916 702.717,562.957 708.67,564.894C716.663,567.495 719.645,577.039 726.657,580.916C729.212,582.329 732.513,582.668 735.275,583.506C740.587,585.116 745.899,587.066 750.7,589.882C758.937,594.713 766.687,600.757 774.411,606.359C777.621,608.687 780.802,611.917 784.373,613.681C788.561,615.749 793.892,614.553 797.987,616.578C811.423,623.222 811.563,639.774 811.793,652.525C811.879,657.274 811.959,662.107 811.432,666.834C810.885,671.733 811.005,686.17 805.702,688.779C803.447,689.888 802.911,687.163 801.697,685.739C797.667,681.008 792.003,674.212 786.529,669.387C769.096,654.019 762.543,652.492 762.543,652.492C762.543,652.492 751.545,650.624 743.733,649.818C729.12,648.312 714.438,647.87 699.788,646.887C682.323,645.714 664.758,644.145 647.241,645.108C632.428,645.922 617.916,648.919 603.35,651.531C583.73,655.048 564.337,658.727 545.198,664.322L541.202,664.041Z" />
                            </clipPath>
                            <g clip-path="url(#Super-suit_4)">
                                <path d="M747.469,656.498C747.037,656.565 748.22,656.051 748.603,655.841C749.419,655.395 750.239,654.972 751.11,654.641C753.821,653.613 756.693,653.103 759.548,652.665C767.69,651.415 776.118,653.378 784.101,654.96C806.018,659.305 824.768,670.376 841.872,684.706C849.054,690.724 859.399,698.949 854.961,709.57C848.899,724.076 830.57,720.593 819.026,716.269C808.378,712.279 798.249,706.568 789.94,698.739C776.751,686.313 766.366,669.928 751.111,659.771" style="fill: rgb(79, 22, 99)" />
                                <g id="lines1">
                                    <path d="M584.102,605.286C584.205,605.427 582.371,607.988 582.249,608.195C580.218,611.624 578.312,615.123 576.49,618.667C569.015,633.206 561.88,647.982 555.807,663.165" style="fill: none; stroke: black; stroke-width: 2.1px" />
                                    <path d="M636.918,552.939C636.085,552.884 632.961,558.13 632.531,558.719C627.753,565.265 623.164,571.949 618.621,578.66C600.419,605.544 580.056,632.634 566.904,662.479" style="fill: none; stroke: black; stroke-width: 2.1px" />
                                    <path d="M682.709,566.303C682.632,566.199 677.344,570.274 677.071,570.49C670.913,575.356 665.119,580.713 659.443,586.127C635.721,608.753 611.9,632.917 591.843,658.863" style="fill: none; stroke: black; stroke-width: 2.1px" />
                                    <path d="M686.2,567.022C684.774,567.231 681.567,571.735 680.609,572.711C675.075,578.346 669.621,584.066 664.169,589.78C643.163,611.795 621.381,633.839 602.673,657.868" style="fill: none; stroke: black; stroke-width: 2.1px" />
                                    <path d="M725.613,580.062C714.508,584.064 703.499,588.809 693.448,595.063" style="fill: none; stroke: black; stroke-width: 2.1px" />
                                    <path d="M623.637,648.882C623.744,647.957 625.863,646.562 626.456,646.034C629.576,643.261 632.891,640.691 636.277,638.253C647.577,630.118 660.257,621.816 673.456,617.031C676.863,615.796 680.672,617.883 683.756,619.196C684.056,619.324 687.277,620.515 686.939,620.965C685.843,622.427 682.594,623.299 681.029,624.029C676.034,626.358 671.004,628.613 666.007,630.938C660.56,633.473 655.092,636.015 649.53,638.29" style="fill: none; stroke: black; stroke-width: 2.1px" />
                                    <path d="M636.821,646.88C636.585,646.475 637.704,646.564 638.148,646.415C639.01,646.128 639.88,645.865 640.747,645.593C643.238,644.81 645.731,644.035 648.225,643.261C655.789,640.915 663.376,638.67 671.013,636.573C694.838,630.029 719.205,624.576 743.537,620.282C757.03,617.902 770.924,616.721 784.257,613.537" style="fill: none; stroke: black; stroke-width: 2.1px" />
                                    <path d="M779.643,632.629C776.875,631.764 772.448,632.598 769.58,632.581C761.967,632.539 754.359,632.504 746.746,632.591C721.789,632.877 695.55,632.785 670.867,637.104" style="fill: none; stroke: black; stroke-width: 2.1px" />
                                    <path d="M759.597,651.448C759.598,651.413 764.099,651.737 764.331,651.756C769.866,652.217 775.387,653.003 780.839,654.052C804.9,658.682 822.927,669.346 840.434,686.66" style="fill: none; stroke: black; stroke-width: 2.1px" />
                                </g>
                            </g>
                            <path d="M541.202,664.041C542.24,663.281 542.741,658.179 543.066,657.012C544.945,650.249 546.903,643.511 549.12,636.85C557.353,612.118 566.41,587.445 577.305,563.76C580.743,556.288 584.421,548.925 588.392,541.721C589.141,540.362 591.195,535.359 593.182,535.18C594.539,535.058 596.304,536.74 597.354,537.393C600.415,539.299 603.576,541.11 606.965,542.373C613.729,544.894 621.037,544.838 628.141,545.341C631.866,545.604 637.063,545.764 640.233,548.097C641.82,549.266 636.286,552.715 636.207,554.159C636.107,555.98 642.043,557.395 643.155,557.726C653.97,560.941 665.141,559.526 676.089,561.718C678.098,562.121 682.425,562.817 683.925,564.477C684.56,565.18 682.199,567.282 683.066,567.436C684.839,567.75 687.73,566.375 689.471,566.044C695.397,564.916 702.717,562.957 708.67,564.894C716.663,567.495 719.645,577.039 726.657,580.916C729.212,582.329 732.513,582.668 735.275,583.506C740.587,585.116 745.899,587.066 750.7,589.882C758.937,594.713 766.687,600.757 774.411,606.359C777.621,608.687 780.802,611.917 784.373,613.681C788.561,615.749 793.892,614.553 797.987,616.578C811.423,623.222 811.563,639.774 811.793,652.525C811.879,657.274 811.959,662.107 811.432,666.834C810.885,671.733 811.005,686.17 805.702,688.779C803.447,689.888 802.911,687.163 801.697,685.739C797.667,681.008 792.003,674.212 786.529,669.387C769.096,654.019 762.543,652.492 762.543,652.492C762.543,652.492 751.545,650.624 743.733,649.818C729.12,648.312 714.438,647.87 699.788,646.887C682.323,645.714 664.758,644.145 647.241,645.108C632.428,645.922 617.916,648.919 603.35,651.531C583.73,655.048 564.337,658.727 545.198,664.322L541.202,664.041Z" style="fill: none; stroke: black; stroke-width: 2.1px" />
                        </g>
                    </g>
                </g>
            </g>
            <defs>
                <linearGradient id="Super-suit_Linear2" x1="0" y1="0" x2="1" y2="0" gradientUnits="userSpaceOnUse" gradientTransform="matrix(81.1751,-140.327,140.327,81.1751,-7.92881,760.159)">
                    <stop offset="0" style="stop-color: rgb(251, 176, 59); stop-opacity: 1" />
                    <stop offset="1" style="stop-color: rgb(236, 128, 9); stop-opacity: 1" />
                </linearGradient>
                <linearGradient id="Super-suit_Linear4" x1="0" y1="0" x2="1" y2="0" gradientUnits="userSpaceOnUse" gradientTransform="matrix(81.1751,-140.327,140.327,81.1751,-7.92881,760.159)">
                    <stop offset="0" style="stop-color: rgb(251, 176, 59); stop-opacity: 1" />
                    <stop offset="1" style="stop-color: rgb(236, 128, 9); stop-opacity: 1" />
                </linearGradient>
                <linearGradient id="Super-suit_Linear6" x1="0" y1="0" x2="1" y2="0" gradientUnits="userSpaceOnUse" gradientTransform="matrix(-17.142,109.164,-109.164,-17.142,650.687,555.67)">
                    <stop offset="0" style="stop-color: rgb(238, 33, 123); stop-opacity: 1" />
                    <stop offset="1" style="stop-color: rgb(179, 38, 163); stop-opacity: 1" />
                </linearGradient>
                <linearGradient id="Super-suit_Linear8" x1="0" y1="0" x2="1" y2="0" gradientUnits="userSpaceOnUse" gradientTransform="matrix(-17.142,109.164,-109.164,-17.142,650.687,555.67)">
                    <stop offset="0" style="stop-color: rgb(238, 33, 123); stop-opacity: 1" />
                    <stop offset="1" style="stop-color: rgb(179, 38, 163); stop-opacity: 1" />
                </linearGradient>
            </defs>
        </pattern>
        <g transform="matrix(1,0,0,1,7.6296,-2.65748)">
            <text x="263.72px" y="53.076px" style="font-family: 'Futura-Medium', 'Futura', sans-serif; font-weight: 500; font-size: 50px; fill: white">SEASON 0</text>
        </g>
    </g>
    <defs>
        <linearGradient id="_Linear3_card_template" x1="0" y1="0" x2="1" y2="0" gradientUnits="userSpaceOnUse" gradientTransform="matrix(3.89688e-14,-610.267,636.408,3.73681e-14,398.243,614.74)">
            <stop offset="0" style="stop-color: rgb(80, 225, 255); stop-opacity: 1" />
            <stop offset="0.44" style="stop-color: rgb(219, 249, 255); stop-opacity: 1" />
            <stop offset="1" style="stop-color: white; stop-opacity: 1" />
        </linearGradient>
        <g id="heli-cap">
            <path id="Shadow" d="M404.234,215.129C428.898,218.296 500.585,226.535 542.136,238.146C592.982,252.354 584.265,253.34 584.265,253.34L550.569,247.259L542.493,305.294C542.493,305.294 541.37,323.811 530.272,331.323C519.173,338.835 479.09,333.357 447.17,329.124C424.063,326.059 407.352,325.468 399.884,325.376C392.417,325.468 375.705,326.059 352.598,329.124C320.678,333.357 280.595,338.835 269.497,331.323C258.398,323.811 257.275,305.294 257.275,305.294L249.199,247.259L215.503,253.34C215.503,253.34 207.131,252.297 257.976,238.089C299.527,226.479 370.87,218.296 395.534,215.129L395.534,214.041C395.534,214.041 397.081,214.225 399.884,214.577C402.687,214.225 404.234,214.041 404.234,214.041L404.234,215.129Z" style="fill: rgb(56, 25, 57); fill-opacity: 0.5" />
            <g id="fan-bit">
                <path d="M395.662,27.087C395.662,27.087 305.36,21.898 297.195,21.931C289.03,21.964 217.675,23.635 219.953,27.087C222.232,30.54 246.78,39.059 264.821,40.14C282.862,41.221 395.662,31.814 395.662,31.814L395.662,27.087Z" style="fill: rgb(255, 223, 92)" />
                <clipPath id="_clip1_helicap">
                    <path d="M395.662,27.087C395.662,27.087 305.36,21.898 297.195,21.931C289.03,21.964 217.675,23.635 219.953,27.087C222.232,30.54 246.78,39.059 264.821,40.14C282.862,41.221 395.662,31.814 395.662,31.814L395.662,27.087Z" />
                </clipPath>
                <g clip-path="url(#_clip1_helicap)">
                    <path d="M225.045,30.993C224.466,30.556 226.493,31.072 227.216,31.134C228.615,31.253 230.015,31.49 231.402,31.711C235.56,32.373 239.679,33.266 243.832,33.951C256.481,36.039 268.516,36.65 281.321,35.92C311.507,34.198 341.744,31.992 371.953,30.788C378.744,30.517 385.563,29.762 392.361,29.793C393.154,29.796 398.369,29.49 398.481,30.879C398.643,32.871 390.787,34.056 389.713,34.297C379.34,36.621 368.638,37.688 358.071,38.674C335.223,40.808 312.31,42.38 289.381,43.297C269.861,44.077 249.889,44.568 231.024,38.676" style="fill: rgb(160, 127, 79)" />
                    <path d="M221.982,34.549C221.357,34.464 223.132,34.023 223.728,33.816C224.969,33.385 226.236,33.022 227.503,32.675C231.207,31.658 234.941,30.706 238.7,29.914C250.216,27.49 261.202,27.44 272.971,27.087C304.553,26.141 336.842,27.518 368.406,28.034C376.092,28.159 383.776,28.339 391.464,28.358C393.343,28.363 395.23,28.409 397.107,28.295C397.365,28.279 398.648,28.328 398.721,27.932C398.808,27.454 397.199,26.951 396.934,26.847C394.602,25.938 392.138,25.344 389.71,24.758C378.824,22.128 367.743,20.21 356.698,18.389C320.376,12.401 283.559,9.397 247.002,15.239C236.346,16.943 224.953,18.817 215.008,23.192C211.62,24.682 204.696,29.027 210.51,32.198" style="fill: rgb(254, 239, 171)" />
                </g>
                <path d="M395.662,27.087C395.662,27.087 305.36,21.898 297.195,21.931C289.03,21.964 217.675,23.635 219.953,27.087C222.232,30.54 246.78,39.059 264.821,40.14C282.862,41.221 395.662,31.814 395.662,31.814L395.662,27.087Z" style="fill: none; stroke: black; stroke-width: 2.1px" />
                <g transform="matrix(-1,0,0,1,800.877,0)">
                    <path d="M395.662,27.087C395.662,27.087 305.36,21.898 297.195,21.931C289.03,21.964 217.675,23.635 219.953,27.087C222.232,30.54 246.78,39.059 264.821,40.14C282.862,41.221 395.662,31.814 395.662,31.814L395.662,27.087Z" style="fill: rgb(255, 223, 92)" />
                    <clipPath id="_clip2_helicap">
                        <path d="M395.662,27.087C395.662,27.087 305.36,21.898 297.195,21.931C289.03,21.964 217.675,23.635 219.953,27.087C222.232,30.54 246.78,39.059 264.821,40.14C282.862,41.221 395.662,31.814 395.662,31.814L395.662,27.087Z" />
                    </clipPath>
                    <g clip-path="url(#_clip2_helicap)">
                        <path d="M225.045,30.993C224.466,30.556 226.493,31.072 227.216,31.134C228.615,31.253 230.015,31.49 231.402,31.711C235.56,32.373 239.679,33.266 243.832,33.951C256.481,36.039 268.516,36.65 281.321,35.92C311.507,34.198 341.744,31.992 371.953,30.788C378.744,30.517 385.563,29.762 392.361,29.793C393.154,29.796 398.369,29.49 398.481,30.879C398.643,32.871 390.787,34.056 389.713,34.297C379.34,36.621 368.638,37.688 358.071,38.674C335.223,40.808 312.31,42.38 289.381,43.297C269.861,44.077 249.889,44.568 231.024,38.676" style="fill: rgb(160, 127, 79)" />
                        <path d="M221.982,34.549C221.357,34.464 223.132,34.023 223.728,33.816C224.969,33.385 226.236,33.022 227.503,32.675C231.207,31.658 234.941,30.706 238.7,29.914C250.216,27.49 261.202,27.44 272.971,27.087C304.553,26.141 336.842,27.518 368.406,28.034C376.092,28.159 383.776,28.339 391.464,28.358C393.343,28.363 395.23,28.409 397.107,28.295C397.365,28.279 398.648,28.328 398.721,27.932C398.808,27.454 397.199,26.951 396.934,26.847C394.602,25.938 392.138,25.344 389.71,24.758C378.824,22.128 367.743,20.21 356.698,18.389C320.376,12.401 283.559,9.397 247.002,15.239C236.346,16.943 224.953,18.817 215.008,23.192C211.62,24.682 204.696,29.027 210.51,32.198" style="fill: rgb(254, 239, 171)" />
                    </g>
                    <path d="M395.662,27.087C395.662,27.087 305.36,21.898 297.195,21.931C289.03,21.964 217.675,23.635 219.953,27.087C222.232,30.54 246.78,39.059 264.821,40.14C282.862,41.221 395.662,31.814 395.662,31.814L395.662,27.087Z" style="fill: none; stroke: black; stroke-width: 2.1px" />
                </g>
                <path d="M395.662,36.495L395.751,21.86C395.751,21.86 396.109,18.084 399.915,17.68C399.926,17.679 399.937,17.679 399.948,17.68C399.959,17.679 399.971,17.679 399.982,17.68C403.788,18.084 404.145,21.86 404.145,21.86L404.234,36.495L395.662,36.495Z" style="fill: rgb(255, 223, 92)" />
                <clipPath id="_clip3_helicap">
                    <path d="M395.662,36.495L395.751,21.86C395.751,21.86 396.109,18.084 399.915,17.68C399.926,17.679 399.937,17.679 399.948,17.68C399.959,17.679 399.971,17.679 399.982,17.68C403.788,18.084 404.145,21.86 404.145,21.86L404.234,36.495L395.662,36.495Z" />
                </clipPath>
                <g clip-path="url(#_clip3_helicap)">
                    <path d="M396.408,29.617C396.622,29.65 396.458,29.188 396.499,28.976C396.586,28.528 396.7,28.084 396.829,27.647C397.214,26.343 397.757,24.643 399.011,23.909C400.932,22.783 402.315,25.251 402.895,26.692C403,26.952 403.771,29.292 403.827,29.257C404.439,28.867 404.137,25.96 404.128,25.393C404.091,23.044 404.028,20.205 402.607,18.211C400.488,15.235 397.048,17.454 396.012,20.143C395.592,21.235 395.43,22.372 395.383,23.535C395.31,25.354 395.397,27.164 395.535,28.977" style="fill: rgb(254, 239, 171)" />
                    <path d="M397.685,37.145C397.749,37.229 397.921,36.235 397.982,35.601C398.159,33.772 398.137,29.726 398.588,28.438C398.797,27.841 399.356,26.99 400.104,27.024C400.945,27.062 401.459,28.117 401.604,28.989C401.909,30.833 402.046,33.45 402.211,35.31C402.242,35.657 402.318,36.883 402.038,37.169C401.738,37.475 401.072,37.264 400.699,37.246" style="fill: rgb(160, 127, 79)" />
                </g>
                <path d="M395.662,36.495L395.751,21.86C395.751,21.86 396.109,18.084 399.915,17.68C399.926,17.679 399.937,17.679 399.948,17.68C399.959,17.679 399.971,17.679 399.982,17.68C403.788,18.084 404.145,21.86 404.145,21.86L404.234,36.495L395.662,36.495Z" style="fill: none; stroke: black; stroke-width: 2.1px" />
            </g>
            <g id="Cap">
                <g transform="matrix(1,0,0,1.17244,0.492122,-13.9146)">
                    <ellipse cx="399.645" cy="49.941" rx="13.8" ry="6.946" style="fill: rgb(235, 65, 81)" />
                    <clipPath id="_clip4">
                        <ellipse cx="399.645" cy="49.941" rx="13.8" ry="6.946" />
                    </clipPath>
                    <g clip-path="url(#_clip4)">
                        <g transform="matrix(1,0,0,0.85292,-0.492122,11.868)">
                            <path d="M401.096,36.072C401.204,36.209 400.782,36.223 400.629,36.306C400.317,36.474 400.014,36.659 399.719,36.855C398.851,37.433 397.984,38.08 397.247,38.82C396.394,39.676 395.756,40.729 395.141,41.761C394.702,42.5 394.314,43.34 393.452,43.653C391.461,44.376 388.942,43.894 386.882,43.762C386.382,43.73 384.99,43.751 384.867,43.052C384.762,42.453 385.534,41.728 385.889,41.348C387.186,39.958 388.811,38.787 390.491,37.908C392.195,37.015 394.026,36.518 395.915,36.2L401.096,36.072ZM400.846,37.102C400.704,37.107 401.084,37.26 401.196,37.348C401.422,37.524 401.643,37.71 401.856,37.901C402.508,38.488 403.129,39.093 403.652,39.801C404.274,40.64 404.859,41.926 405.729,42.523C406.892,43.323 409.006,43.103 410.336,43.246C410.947,43.312 412.812,43.875 413.279,43.263C413.926,42.417 412.056,40.88 411.571,40.433C409.234,38.282 406.484,36.91 403.337,36.446L400.846,37.102Z" style="fill: rgb(245, 180, 162)" />
                        </g>
                    </g>
                    <ellipse cx="399.645" cy="49.941" rx="13.8" ry="6.946" style="fill: none; stroke: black; stroke-width: 1.93px" />
                </g>
                <path d="M397.676,42.89C398.239,42.681 401.591,42.681 402.153,42.89C501.816,49.249 562.727,112.371 575.583,128.609C598.099,165.571 588.808,253.34 588.808,253.34L550.413,240.154C501.393,225.168 450.081,213.936 399.915,213.936C349.748,213.936 298.436,225.168 249.416,240.154L211.021,253.34C211.021,253.34 201.73,165.571 224.246,128.609C237.102,112.371 298.013,49.249 397.676,42.89Z" style="fill: url(#_Linear5)" />
                <clipPath id="_clip6">
                    <path d="M397.676,42.89C398.239,42.681 401.591,42.681 402.153,42.89C501.816,49.249 562.727,112.371 575.583,128.609C598.099,165.571 588.808,253.34 588.808,253.34L550.413,240.154C501.393,225.168 450.081,213.936 399.915,213.936C349.748,213.936 298.436,225.168 249.416,240.154L211.021,253.34C211.021,253.34 201.73,165.571 224.246,128.609C237.102,112.371 298.013,49.249 397.676,42.89Z" />
                </clipPath>
                <g clip-path="url(#_clip6)">
                    <path d="M249.199,239.63C249.199,239.63 253.866,164.607 268.912,136.528C283.959,108.45 312.705,85.883 333.536,71.098C354.368,56.313 390.641,43.187 390.777,43.294C390.913,43.4 396.586,42.578 396.586,42.578C396.586,42.578 374.576,62.921 364.35,92.142C354.124,121.362 346.116,161.226 347.318,218.647C340.968,218.814 275.527,230.905 267.561,234.361C259.596,237.818 249.199,239.63 249.199,239.63ZM551.074,239.63C551.074,239.63 546.408,164.607 531.361,136.528C516.315,108.45 487.569,85.883 466.737,71.098C445.905,56.313 409.632,43.187 409.496,43.294C409.361,43.4 403.687,42.578 403.687,42.578C403.687,42.578 425.697,62.921 435.923,92.142C446.149,121.362 454.157,161.226 452.955,218.647C459.305,218.814 524.746,230.905 532.712,234.361C540.678,237.818 551.074,239.63 551.074,239.63Z" style="fill: url(#_Linear7)" />
                    <path d="M386.51,40.023C386.149,40.084 385.678,40.219 385.621,40.231C382.237,40.915 378.883,41.767 375.538,42.617C363.669,45.633 355.109,49.217 343.932,54.254C303.045,72.682 247.542,103.044 231.39,146.585C222.965,169.296 223.688,209.652 225.073,237.051C225.43,244.108 227.418,247.931 226.532,254.956C225.78,260.918 213.933,261.098 210.297,258.578C204.079,254.269 201.397,245.103 200.242,238.083C197.333,220.407 199.714,201.275 201.542,183.602C203.778,161.983 208.463,138.497 220.356,119.889C230.231,104.439 245.732,92.839 260.744,82.753C294.17,60.297 333.806,42.68 374.377,39.606L386.51,40.023ZM413.666,40.023C414.027,40.084 414.499,40.219 414.555,40.231C417.94,40.915 421.293,41.767 424.639,42.617C436.507,45.633 445.067,49.217 456.244,54.254C497.131,72.682 552.634,103.044 568.786,146.585C577.211,169.296 576.488,209.652 575.104,237.051C574.747,244.108 572.758,247.931 573.644,254.956C574.396,260.918 586.243,261.098 589.88,258.578C596.098,254.269 598.779,245.103 599.934,238.083C602.844,220.407 600.463,201.275 598.635,183.602C596.398,161.983 591.713,138.497 579.82,119.889C569.946,104.439 554.444,92.839 539.432,82.753C506.007,60.297 466.371,42.68 425.8,39.606L413.666,40.023ZM386.51,40.023L386.927,40.038C386.903,39.978 386.727,39.987 386.51,40.023ZM413.666,40.023L413.25,40.038C413.273,39.978 413.45,39.987 413.666,40.023Z" style="fill: rgb(245, 180, 162)" />
                    <path d="M249.586,240.272C249.586,240.272 250.164,154.307 278.814,120.051C307.465,85.795 350.156,54.702 391.1,43.408" style="fill: none; stroke: black; stroke-width: 2.1px" />
                    <g transform="matrix(-1,0,0,1,799.538,0)">
                        <path d="M249.586,240.272C249.586,240.272 250.164,154.307 278.814,120.051C307.465,85.795 350.442,54.751 391.387,43.457" style="fill: none; stroke: black; stroke-width: 2.1px" />
                    </g>
                    <path d="M347.158,217.127C347.158,217.127 347.667,120.455 367.04,84.844C386.412,49.233 394.933,43.753 394.933,43.753" style="fill: none; stroke: black; stroke-width: 2.1px" />
                    <g transform="matrix(-1,0,0,1,799.538,0)">
                        <path d="M347.158,217.127C347.158,217.127 347.667,120.455 367.04,84.844C386.412,49.233 394.933,43.753 394.933,43.753" style="fill: none; stroke: black; stroke-width: 2.1px" />
                    </g>
                </g>
                <path d="M397.676,42.89C398.239,42.681 401.591,42.681 402.153,42.89C501.816,49.249 562.727,112.371 575.583,128.609C598.099,165.571 588.808,253.34 588.808,253.34L550.413,240.154C501.393,225.168 450.081,213.936 399.915,213.936C349.748,213.936 298.436,225.168 249.416,240.154L211.021,253.34C211.021,253.34 201.73,165.571 224.246,128.609C237.102,112.371 298.013,49.249 397.676,42.89Z" style="fill: none; stroke: black; stroke-width: 2.1px" />
                <path d="M400.347,214.257L401.046,214.208C401.046,214.208 449.984,210.469 544.124,238.299C546.339,238.954 551.328,240.087 551.328,240.087C551.328,240.087 551.171,297.659 547.632,301.641C544.093,305.623 528.746,308.238 501.077,299.129C475.591,290.739 428.873,277.289 406.043,275.531L406.052,275.716C406.052,275.716 403.087,275.432 400.347,275.357C397.607,275.432 394.642,275.716 394.642,275.716L394.651,275.531C371.821,277.289 325.102,290.739 299.616,299.129C271.947,308.238 256.601,305.623 253.062,301.641C249.522,297.659 249.366,240.087 249.366,240.087C249.366,240.087 254.355,238.954 256.57,238.299C350.709,210.469 399.648,214.208 399.648,214.208L400.347,214.257Z" style="fill: url(#_Linear8)" />
                <clipPath id="_clip9">
                    <path d="M400.347,214.257L401.046,214.208C401.046,214.208 449.984,210.469 544.124,238.299C546.339,238.954 551.328,240.087 551.328,240.087C551.328,240.087 551.171,297.659 547.632,301.641C544.093,305.623 528.746,308.238 501.077,299.129C475.591,290.739 428.873,277.289 406.043,275.531L406.052,275.716C406.052,275.716 403.087,275.432 400.347,275.357C397.607,275.432 394.642,275.716 394.642,275.716L394.651,275.531C371.821,277.289 325.102,290.739 299.616,299.129C271.947,308.238 256.601,305.623 253.062,301.641C249.522,297.659 249.366,240.087 249.366,240.087C249.366,240.087 254.355,238.954 256.57,238.299C350.709,210.469 399.648,214.208 399.648,214.208L400.347,214.257Z" />
                </clipPath>
                <g clip-path="url(#_clip9)">
                    <path d="M251.594,304.731C251.855,304.832 251.343,304.231 251.219,303.98C250.987,303.508 250.764,303.037 250.575,302.546C250.178,301.512 248.566,297.054 250.267,296.409C250.947,296.151 251.987,297.086 252.485,297.443C254.046,298.559 255.536,299.132 257.393,299.572C262.424,300.766 267.816,300.083 272.82,299.104C280.741,297.554 288.173,294.644 295.884,292.343C309.5,288.281 323.323,284.314 337.073,280.731C358.304,275.198 380.747,268.911 402.879,269.112C413.132,269.206 423.378,271.42 433.364,273.556C447.757,276.636 462.055,280.229 476.212,284.264C492.078,288.786 507.505,294.936 523.521,298.915C526.586,299.676 536.917,300.668 544.665,299.083C547.082,298.589 549.341,294.044 550.722,294.862C552.363,295.833 552.898,302.364 552.859,304.112C552.755,308.734 528.869,308.393 526.293,308.154C525.101,308.044 523.911,307.919 522.722,307.782C521.31,307.618 519.899,307.44 518.49,307.25C516.83,307.027 515.17,306.794 513.513,306.547C511.62,306.266 509.729,305.973 507.84,305.669C472.977,300.059 438.366,292.599 402.918,291.939C380.65,291.524 358.558,294.166 336.816,298.89C319.525,302.647 302.576,307.914 285.225,311.392C273.857,313.671 251.512,316.991 247.271,301.573" style="fill: rgb(136, 47, 70)" />
                    <path d="M304.06,221.428C304.196,221.397 304.296,221.385 304.356,221.393L304.06,221.428C301.643,221.973 287.912,228.319 284.128,230.433C275.725,235.129 262.331,240.137 258.778,247.358C256.559,251.869 256.411,257.63 256.193,262.592C256.007,266.843 256.49,272.054 256.819,276.295C257.425,284.097 256.806,291.928 265.149,294.62C268.762,295.785 274.938,295.658 278.728,295.876C280.053,295.953 286.575,295.818 286.575,295.875C286.575,296.105 271.974,299.379 267.78,299.819C263.539,300.264 258.059,300.249 254.244,298C244.208,292.081 243.503,272.492 242.848,262.664C242.333,254.936 241.625,246.108 245.124,238.937C247.754,233.545 252.778,229.873 257.849,226.955L304.06,221.428ZM496.238,221.428C498.655,221.973 512.386,228.319 516.17,230.433C524.573,235.129 537.967,240.137 541.52,247.358C543.739,251.869 543.887,257.63 544.105,262.592C544.291,266.843 543.808,272.054 543.479,276.295C542.874,284.097 543.492,291.928 535.149,294.62C531.536,295.785 525.36,295.658 521.57,295.876C520.245,295.953 513.723,295.818 513.723,295.875C513.723,296.105 528.324,299.379 532.519,299.819C536.759,300.264 542.239,300.249 546.054,298C556.09,292.081 556.795,272.492 557.45,262.664C557.966,254.936 558.673,246.108 555.174,238.937C552.544,233.545 547.521,229.873 542.449,226.955L496.238,221.428C496.102,221.397 496.003,221.385 495.942,221.393L496.238,221.428Z" style="fill: rgb(245, 180, 162)" />
                    <path d="M251.677,295.591C251.677,295.591 256.821,304.1 277.718,297.961C298.615,291.823 371.118,268.698 399.043,268.92C426.969,269.142 476.724,284.555 501.938,292.832C527.152,301.109 544.899,301.572 548.436,295.121" style="fill: none; stroke: black; stroke-width: 2.1px" />
                </g>
                <path d="M400.347,214.257L401.046,214.208C401.046,214.208 449.984,210.469 544.124,238.299C546.339,238.954 551.328,240.087 551.328,240.087C551.328,240.087 551.171,297.659 547.632,301.641C544.093,305.623 528.746,308.238 501.077,299.129C475.591,290.739 428.873,277.289 406.043,275.531L406.052,275.716C406.052,275.716 403.087,275.432 400.347,275.357C397.607,275.432 394.642,275.716 394.642,275.716L394.651,275.531C371.821,277.289 325.102,290.739 299.616,299.129C271.947,308.238 256.601,305.623 253.062,301.641C249.522,297.659 249.366,240.087 249.366,240.087C249.366,240.087 254.355,238.954 256.57,238.299C350.709,210.469 399.648,214.208 399.648,214.208L400.347,214.257Z" style="fill: none; stroke: black; stroke-width: 2.1px" />
            </g>
        </g>
        <linearGradient id="_Linear5" x1="0" y1="0" x2="1" y2="0" gradientUnits="userSpaceOnUse" gradientTransform="matrix(0.676239,212.321,-212.321,0.676239,399.671,115.988)">
            <stop offset="0" style="stop-color: rgb(236, 65, 81); stop-opacity: 1" />
            <stop offset="0.5" style="stop-color: rgb(220, 55, 76); stop-opacity: 1" />
            <stop offset="1" style="stop-color: rgb(172, 27, 60); stop-opacity: 1" />
        </linearGradient>
        <linearGradient id="_Linear7" x1="0" y1="0" x2="1" y2="0" gradientUnits="userSpaceOnUse" gradientTransform="matrix(0.676239,174.104,-174.104,0.676239,399.671,95.0041)">
            <stop offset="0" style="stop-color: rgb(245, 249, 251); stop-opacity: 1" />
            <stop offset="0.59" style="stop-color: rgb(226, 236, 243); stop-opacity: 1" />
            <stop offset="0.81" style="stop-color: rgb(183, 208, 225); stop-opacity: 1" />
            <stop offset="1" style="stop-color: rgb(140, 180, 206); stop-opacity: 1" />
        </linearGradient>
        <linearGradient id="_Linear8" x1="0" y1="0" x2="1" y2="0" gradientUnits="userSpaceOnUse" gradientTransform="matrix(6.8912e-15,-112.542,112.542,6.8912e-15,399.671,269.108)">
            <stop offset="0" style="stop-color: rgb(236, 65, 81); stop-opacity: 1" />
            <stop offset="0.46" style="stop-color: rgb(227, 63, 84); stop-opacity: 1" />
            <stop offset="1" style="stop-color: rgb(203, 57, 90); stop-opacity: 1" />
        </linearGradient>
    </defs>
</svg>