<svg
  width="100%"
  height="100%"
  viewBox="0 0 800 800"
  version="1.1"
  xmlns="http://www.w3.org/2000/svg"
  style="fill-rule: evenodd; clip-rule: evenodd; stroke-linecap: round; stroke-linejoin: round; stroke-miterlimit: 1.5"
>
  <g id="accessories">
    <g id="fan-cap-shirt">
      <path
        id="white-red"
        d="M399.976,668.975C416.806,665.197 433.366,660.626 449.383,654.132C495.699,635.353 542.163,602.66 565.081,556.823L571.961,554.228C575.976,553.794 587.572,557.6 591.545,557.516C601.201,557.312 609.608,566.255 613.859,568.053C638.45,578.453 645.824,582.356 669.935,594.952C687.437,604.094 703.189,611.844 720.495,621.348C730.753,626.981 742.32,632.273 752.343,638.318C758.065,641.769 769.408,648.408 775.218,651.712C788.407,659.212 794.45,668.298 794.45,668.298C794.45,668.298 800.524,714.312 794.183,732.49C791.02,741.555 796.651,747.024 781.922,770.376C773.161,784.266 780.445,790.616 775.182,806.17C768.7,825.325 760.707,832.614 756.447,852.414C755.168,858.363 737.794,858.41 732.717,862.569C722.623,870.839 680.058,867.169 667.827,867.199C610.274,867.341 552.696,867.711 495.148,866.775C469.849,866.364 444.543,865.879 419.234,865.811C412.9,866.875 405.589,866.044 399.976,865.868C394.364,866.044 387.052,866.875 380.718,865.811C355.409,865.879 330.103,866.364 304.804,866.775C247.256,867.711 189.678,867.341 132.125,867.199C119.893,867.169 77.329,870.839 67.235,862.569C62.158,858.41 40.29,866.884 39.011,860.935C34.751,841.135 34.246,832.177 27.764,813.023C22.501,797.469 22.389,777.236 16.689,761.836C13.357,752.832 13.222,731.982 10.06,722.916C3.719,704.739 5.502,668.298 5.502,668.298C5.502,668.298 11.544,659.212 24.734,651.712C30.543,648.408 41.886,641.769 47.609,638.318C57.632,632.273 69.199,626.981 79.456,621.348C96.763,611.844 112.515,604.094 130.017,594.952C154.128,582.356 161.502,578.453 186.093,568.053C190.344,566.255 198.751,557.312 208.407,557.516C212.38,557.6 223.976,553.794 227.99,554.228L234.871,556.823C257.789,602.66 304.253,635.353 350.568,654.132C366.586,660.626 383.146,665.197 399.976,668.975Z"
        style="fill: url(#Helicap-tshirt_Linear1)"
      />
      <clipPath id="Helicap-tshirt_0">
        <path
          id="white-red1"
          d="M399.976,668.975C416.806,665.197 433.366,660.626 449.383,654.132C495.699,635.353 542.163,602.66 565.081,556.823L571.961,554.228C575.976,553.794 587.572,557.6 591.545,557.516C601.201,557.312 609.608,566.255 613.859,568.053C638.45,578.453 645.824,582.356 669.935,594.952C687.437,604.094 703.189,611.844 720.495,621.348C730.753,626.981 742.32,632.273 752.343,638.318C758.065,641.769 769.408,648.408 775.218,651.712C788.407,659.212 794.45,668.298 794.45,668.298C794.45,668.298 800.524,714.312 794.183,732.49C791.02,741.555 796.651,747.024 781.922,770.376C773.161,784.266 780.445,790.616 775.182,806.17C768.7,825.325 760.707,832.614 756.447,852.414C755.168,858.363 737.794,858.41 732.717,862.569C722.623,870.839 680.058,867.169 667.827,867.199C610.274,867.341 552.696,867.711 495.148,866.775C469.849,866.364 444.543,865.879 419.234,865.811C412.9,866.875 405.589,866.044 399.976,865.868C394.364,866.044 387.052,866.875 380.718,865.811C355.409,865.879 330.103,866.364 304.804,866.775C247.256,867.711 189.678,867.341 132.125,867.199C119.893,867.169 77.329,870.839 67.235,862.569C62.158,858.41 40.29,866.884 39.011,860.935C34.751,841.135 34.246,832.177 27.764,813.023C22.501,797.469 22.389,777.236 16.689,761.836C13.357,752.832 13.222,731.982 10.06,722.916C3.719,704.739 5.502,668.298 5.502,668.298C5.502,668.298 11.544,659.212 24.734,651.712C30.543,648.408 41.886,641.769 47.609,638.318C57.632,632.273 69.199,626.981 79.456,621.348C96.763,611.844 112.515,604.094 130.017,594.952C154.128,582.356 161.502,578.453 186.093,568.053C190.344,566.255 198.751,557.312 208.407,557.516C212.38,557.6 223.976,553.794 227.99,554.228L234.871,556.823C257.789,602.66 304.253,635.353 350.568,654.132C366.586,660.626 383.146,665.197 399.976,668.975Z"
        />
      </clipPath>
      <g clip-path="url(#Helicap-tshirt_0)">
        <path
          id="red"
          d="M85.493,617.253C84.303,618.217 85.059,626.168 85.029,627.705C84.814,638.663 84.769,649.622 85.562,660.56C87.367,685.468 93.588,709.904 97.224,734.571C100.123,754.232 100.952,774.028 102.675,793.806C107.357,847.562 117.555,946.557 109.309,952.329C103.703,956.253 93.723,951.322 88.04,949.782C54.165,940.601 44.652,811.269 33.013,780.019C25.611,760.144 18.074,740.307 11.39,720.175C-0.715,683.719 -3.352,662.242 32.514,640.324C43.35,633.702 54.907,628.071 66.452,622.805L85.493,617.253ZM714.577,617.253C715.767,618.217 715.011,626.168 715.042,627.705C715.256,638.663 715.301,649.622 714.508,660.56C712.703,685.468 706.483,709.904 702.846,734.571C699.947,754.232 699.118,774.028 697.396,793.806C692.714,847.562 682.515,946.557 690.762,952.329C696.368,956.253 706.347,951.322 712.03,949.782C745.905,940.601 755.418,811.269 767.057,780.019C774.459,760.144 781.996,740.307 788.681,720.175C800.785,683.719 803.423,662.242 767.556,640.324C756.72,633.702 745.164,628.071 733.619,622.805L714.577,617.253ZM225.303,576.305C226.866,577.086 226.167,592.537 226.222,594.165C226.87,613.428 228.225,632.618 229.1,651.868C231.035,694.447 231.685,737.033 235.202,779.52C236.156,791.054 243.449,907.324 238.618,916.6C235.862,921.893 230.313,917.825 225.27,917.75C214.501,917.591 183.527,920.998 174.574,916.413C170.898,914.53 172.123,903.284 171.858,899.935C170.414,881.706 167.334,780.151 166.945,761.874C166.02,718.394 160.779,675.417 158.702,632.021C157.916,615.601 158.934,591.514 159.023,575.935C159.037,573.514 173.204,569.762 175.29,568.758C189.136,562.096 208.322,547.196 224.115,556.123L225.303,576.305ZM574.768,576.305C573.204,577.086 573.903,592.537 573.848,594.165C573.201,613.428 571.846,632.618 570.971,651.868C569.035,694.447 568.385,737.033 564.869,779.52C563.914,791.054 556.621,907.324 561.452,916.6C564.209,921.893 569.757,917.825 574.801,917.75C585.57,917.591 616.544,920.998 625.496,916.413C629.172,914.53 627.948,903.284 628.213,899.935C629.657,881.706 632.736,780.151 633.125,761.874C634.05,718.394 639.291,675.417 641.369,632.021C642.155,615.601 641.136,591.514 641.047,575.935C641.033,573.514 626.867,569.762 624.78,568.758C610.935,562.096 591.748,547.196 575.956,556.123L574.768,576.305ZM288.157,637.377C288.027,637.172 288.098,637.421 288.127,637.602C288.635,640.753 288.777,643.957 288.976,647.139C289.383,653.674 289.838,660.248 289.911,666.795C290.136,687.036 290.708,707.259 291.987,727.466C294.253,763.281 294.735,799.117 295.452,834.982C295.533,839.045 295.247,910.141 297.164,911.953C300.44,915.051 308.712,913.147 312.618,912.919C323.514,912.284 334.343,910.335 345.271,910.335C349.581,910.335 355.888,913.194 359.971,912.174C363.496,911.292 360.238,859.128 360.029,856.875C358.475,840.109 359.331,823.574 359.656,806.803C360.261,775.665 359.483,744.521 360.588,713.393C360.959,702.955 365.031,683.368 358.699,674.25C348.078,658.956 321.172,652.018 305.39,643.521L288.157,637.377ZM511.914,637.377C512.044,637.172 511.972,637.421 511.943,637.602C511.435,640.753 511.293,643.957 511.095,647.139C510.687,653.674 510.232,660.248 510.16,666.795C509.935,687.036 509.363,707.259 508.084,727.466C505.817,763.281 505.336,799.117 504.619,834.982C504.537,839.045 504.823,910.141 502.906,911.953C499.63,915.051 491.359,913.147 487.453,912.919C476.556,912.284 465.727,910.335 454.8,910.335C450.489,910.335 444.182,913.194 440.1,912.174C436.575,911.292 439.832,859.128 440.041,856.875C441.596,840.109 440.74,823.574 440.414,806.803C439.809,775.665 440.587,744.521 439.482,713.393C439.111,702.955 435.04,683.368 441.371,674.25C451.993,658.956 478.899,652.018 494.68,643.521L511.914,637.377Z"
          style="fill: url(#Helicap-tshirt_Linear3)"
        />
        <clipPath id="Helicap-tshirt_1">
          <path
            id="red1"
            d="M85.493,617.253C84.303,618.217 85.059,626.168 85.029,627.705C84.814,638.663 84.769,649.622 85.562,660.56C87.367,685.468 93.588,709.904 97.224,734.571C100.123,754.232 100.952,774.028 102.675,793.806C107.357,847.562 117.555,946.557 109.309,952.329C103.703,956.253 93.723,951.322 88.04,949.782C54.165,940.601 44.652,811.269 33.013,780.019C25.611,760.144 18.074,740.307 11.39,720.175C-0.715,683.719 -3.352,662.242 32.514,640.324C43.35,633.702 54.907,628.071 66.452,622.805L85.493,617.253ZM714.577,617.253C715.767,618.217 715.011,626.168 715.042,627.705C715.256,638.663 715.301,649.622 714.508,660.56C712.703,685.468 706.483,709.904 702.846,734.571C699.947,754.232 699.118,774.028 697.396,793.806C692.714,847.562 682.515,946.557 690.762,952.329C696.368,956.253 706.347,951.322 712.03,949.782C745.905,940.601 755.418,811.269 767.057,780.019C774.459,760.144 781.996,740.307 788.681,720.175C800.785,683.719 803.423,662.242 767.556,640.324C756.72,633.702 745.164,628.071 733.619,622.805L714.577,617.253ZM225.303,576.305C226.866,577.086 226.167,592.537 226.222,594.165C226.87,613.428 228.225,632.618 229.1,651.868C231.035,694.447 231.685,737.033 235.202,779.52C236.156,791.054 243.449,907.324 238.618,916.6C235.862,921.893 230.313,917.825 225.27,917.75C214.501,917.591 183.527,920.998 174.574,916.413C170.898,914.53 172.123,903.284 171.858,899.935C170.414,881.706 167.334,780.151 166.945,761.874C166.02,718.394 160.779,675.417 158.702,632.021C157.916,615.601 158.934,591.514 159.023,575.935C159.037,573.514 173.204,569.762 175.29,568.758C189.136,562.096 208.322,547.196 224.115,556.123L225.303,576.305ZM574.768,576.305C573.204,577.086 573.903,592.537 573.848,594.165C573.201,613.428 571.846,632.618 570.971,651.868C569.035,694.447 568.385,737.033 564.869,779.52C563.914,791.054 556.621,907.324 561.452,916.6C564.209,921.893 569.757,917.825 574.801,917.75C585.57,917.591 616.544,920.998 625.496,916.413C629.172,914.53 627.948,903.284 628.213,899.935C629.657,881.706 632.736,780.151 633.125,761.874C634.05,718.394 639.291,675.417 641.369,632.021C642.155,615.601 641.136,591.514 641.047,575.935C641.033,573.514 626.867,569.762 624.78,568.758C610.935,562.096 591.748,547.196 575.956,556.123L574.768,576.305ZM288.157,637.377C288.027,637.172 288.098,637.421 288.127,637.602C288.635,640.753 288.777,643.957 288.976,647.139C289.383,653.674 289.838,660.248 289.911,666.795C290.136,687.036 290.708,707.259 291.987,727.466C294.253,763.281 294.735,799.117 295.452,834.982C295.533,839.045 295.247,910.141 297.164,911.953C300.44,915.051 308.712,913.147 312.618,912.919C323.514,912.284 334.343,910.335 345.271,910.335C349.581,910.335 355.888,913.194 359.971,912.174C363.496,911.292 360.238,859.128 360.029,856.875C358.475,840.109 359.331,823.574 359.656,806.803C360.261,775.665 359.483,744.521 360.588,713.393C360.959,702.955 365.031,683.368 358.699,674.25C348.078,658.956 321.172,652.018 305.39,643.521L288.157,637.377ZM511.914,637.377C512.044,637.172 511.972,637.421 511.943,637.602C511.435,640.753 511.293,643.957 511.095,647.139C510.687,653.674 510.232,660.248 510.16,666.795C509.935,687.036 509.363,707.259 508.084,727.466C505.817,763.281 505.336,799.117 504.619,834.982C504.537,839.045 504.823,910.141 502.906,911.953C499.63,915.051 491.359,913.147 487.453,912.919C476.556,912.284 465.727,910.335 454.8,910.335C450.489,910.335 444.182,913.194 440.1,912.174C436.575,911.292 439.832,859.128 440.041,856.875C441.596,840.109 440.74,823.574 440.414,806.803C439.809,775.665 440.587,744.521 439.482,713.393C439.111,702.955 435.04,683.368 441.371,674.25C451.993,658.956 478.899,652.018 494.68,643.521L511.914,637.377Z"
          />
        </clipPath>
        <g clip-path="url(#Helicap-tshirt_1)">
          <path
            d="M18.184,830.007C18.19,830.053 18.199,830.076 18.213,830.073L18.184,830.007C18.095,829.35 18.734,823.971 18.842,823.058C19.405,818.323 20.093,813.606 20.837,808.895C23.113,794.476 25.534,780.072 27.459,765.601C30.026,746.301 26.92,725.442 23.445,706.335C21.383,694.989 16.687,683.418 25.448,674.657C44.863,655.243 72.436,644.185 96.634,632.205C126.024,617.654 153.932,601.667 183.933,588.518C194.75,583.777 205.584,579.059 216.453,574.438C219.234,573.255 227.094,571.423 228.719,568.61C231.534,563.737 224.346,549.801 221.325,546.262C214.63,538.417 199.429,540.193 190.574,541.187C160.984,544.506 133.683,556.908 107.296,569.995C61.937,592.492 -22.495,625.854 -29.112,684.002C-31.841,707.992 -24.146,732.55 -15.671,754.675L18.184,830.007ZM781.21,830.007C781.298,829.35 780.659,823.971 780.551,823.058C779.988,818.323 779.3,813.606 778.556,808.895C776.28,794.476 773.859,780.072 771.935,765.601C769.368,746.301 772.474,725.442 775.948,706.335C778.011,694.989 782.706,683.418 773.945,674.657C754.531,655.243 726.957,644.185 702.76,632.205C673.37,617.654 645.462,601.667 615.461,588.518C604.643,583.777 593.809,579.059 582.94,574.438C580.16,573.255 572.3,571.423 570.674,568.61C567.859,563.737 575.048,549.801 578.068,546.262C584.764,538.417 599.964,540.193 608.82,541.187C638.409,544.506 665.711,556.908 692.098,569.995C737.457,592.492 821.888,625.854 828.505,684.002C831.235,707.992 823.539,732.55 815.064,754.675L781.21,830.007C781.204,830.053 781.194,830.076 781.18,830.073L781.21,830.007Z"
            style="fill: rgb(252, 255, 216); fill-opacity: 0.6"
          />
        </g>
        <path
          id="red2"
          d="M85.493,617.253C84.303,618.217 85.059,626.168 85.029,627.705C84.814,638.663 84.769,649.622 85.562,660.56C87.367,685.468 93.588,709.904 97.224,734.571C100.123,754.232 100.952,774.028 102.675,793.806C107.357,847.562 117.555,946.557 109.309,952.329C103.703,956.253 93.723,951.322 88.04,949.782C54.165,940.601 44.652,811.269 33.013,780.019C25.611,760.144 18.074,740.307 11.39,720.175C-0.715,683.719 -3.352,662.242 32.514,640.324C43.35,633.702 54.907,628.071 66.452,622.805L85.493,617.253ZM714.577,617.253C715.767,618.217 715.011,626.168 715.042,627.705C715.256,638.663 715.301,649.622 714.508,660.56C712.703,685.468 706.483,709.904 702.846,734.571C699.947,754.232 699.118,774.028 697.396,793.806C692.714,847.562 682.515,946.557 690.762,952.329C696.368,956.253 706.347,951.322 712.03,949.782C745.905,940.601 755.418,811.269 767.057,780.019C774.459,760.144 781.996,740.307 788.681,720.175C800.785,683.719 803.423,662.242 767.556,640.324C756.72,633.702 745.164,628.071 733.619,622.805L714.577,617.253ZM225.303,576.305C226.866,577.086 226.167,592.537 226.222,594.165C226.87,613.428 228.225,632.618 229.1,651.868C231.035,694.447 231.685,737.033 235.202,779.52C236.156,791.054 243.449,907.324 238.618,916.6C235.862,921.893 230.313,917.825 225.27,917.75C214.501,917.591 183.527,920.998 174.574,916.413C170.898,914.53 172.123,903.284 171.858,899.935C170.414,881.706 167.334,780.151 166.945,761.874C166.02,718.394 160.779,675.417 158.702,632.021C157.916,615.601 158.934,591.514 159.023,575.935C159.037,573.514 173.204,569.762 175.29,568.758C189.136,562.096 208.322,547.196 224.115,556.123L225.303,576.305ZM574.768,576.305C573.204,577.086 573.903,592.537 573.848,594.165C573.201,613.428 571.846,632.618 570.971,651.868C569.035,694.447 568.385,737.033 564.869,779.52C563.914,791.054 556.621,907.324 561.452,916.6C564.209,921.893 569.757,917.825 574.801,917.75C585.57,917.591 616.544,920.998 625.496,916.413C629.172,914.53 627.948,903.284 628.213,899.935C629.657,881.706 632.736,780.151 633.125,761.874C634.05,718.394 639.291,675.417 641.369,632.021C642.155,615.601 641.136,591.514 641.047,575.935C641.033,573.514 626.867,569.762 624.78,568.758C610.935,562.096 591.748,547.196 575.956,556.123L574.768,576.305ZM288.157,637.377C288.027,637.172 288.098,637.421 288.127,637.602C288.635,640.753 288.777,643.957 288.976,647.139C289.383,653.674 289.838,660.248 289.911,666.795C290.136,687.036 290.708,707.259 291.987,727.466C294.253,763.281 294.735,799.117 295.452,834.982C295.533,839.045 295.247,910.141 297.164,911.953C300.44,915.051 308.712,913.147 312.618,912.919C323.514,912.284 334.343,910.335 345.271,910.335C349.581,910.335 355.888,913.194 359.971,912.174C363.496,911.292 360.238,859.128 360.029,856.875C358.475,840.109 359.331,823.574 359.656,806.803C360.261,775.665 359.483,744.521 360.588,713.393C360.959,702.955 365.031,683.368 358.699,674.25C348.078,658.956 321.172,652.018 305.39,643.521L288.157,637.377ZM511.914,637.377C512.044,637.172 511.972,637.421 511.943,637.602C511.435,640.753 511.293,643.957 511.095,647.139C510.687,653.674 510.232,660.248 510.16,666.795C509.935,687.036 509.363,707.259 508.084,727.466C505.817,763.281 505.336,799.117 504.619,834.982C504.537,839.045 504.823,910.141 502.906,911.953C499.63,915.051 491.359,913.147 487.453,912.919C476.556,912.284 465.727,910.335 454.8,910.335C450.489,910.335 444.182,913.194 440.1,912.174C436.575,911.292 439.832,859.128 440.041,856.875C441.596,840.109 440.74,823.574 440.414,806.803C439.809,775.665 440.587,744.521 439.482,713.393C439.111,702.955 435.04,683.368 441.371,674.25C451.993,658.956 478.899,652.018 494.68,643.521L511.914,637.377Z"
          style="fill: none; stroke: black; stroke-width: 2.1px"
        />
      </g>
      <path
        id="white-red2"
        d="M399.976,668.975C416.806,665.197 433.366,660.626 449.383,654.132C495.699,635.353 542.163,602.66 565.081,556.823L571.961,554.228C575.976,553.794 587.572,557.6 591.545,557.516C601.201,557.312 609.608,566.255 613.859,568.053C638.45,578.453 645.824,582.356 669.935,594.952C687.437,604.094 703.189,611.844 720.495,621.348C730.753,626.981 742.32,632.273 752.343,638.318C758.065,641.769 769.408,648.408 775.218,651.712C788.407,659.212 794.45,668.298 794.45,668.298C794.45,668.298 800.524,714.312 794.183,732.49C791.02,741.555 796.651,747.024 781.922,770.376C773.161,784.266 780.445,790.616 775.182,806.17C768.7,825.325 760.707,832.614 756.447,852.414C755.168,858.363 737.794,858.41 732.717,862.569C722.623,870.839 680.058,867.169 667.827,867.199C610.274,867.341 552.696,867.711 495.148,866.775C469.849,866.364 444.543,865.879 419.234,865.811C412.9,866.875 405.589,866.044 399.976,865.868C394.364,866.044 387.052,866.875 380.718,865.811C355.409,865.879 330.103,866.364 304.804,866.775C247.256,867.711 189.678,867.341 132.125,867.199C119.893,867.169 77.329,870.839 67.235,862.569C62.158,858.41 40.29,866.884 39.011,860.935C34.751,841.135 34.246,832.177 27.764,813.023C22.501,797.469 22.389,777.236 16.689,761.836C13.357,752.832 13.222,731.982 10.06,722.916C3.719,704.739 5.502,668.298 5.502,668.298C5.502,668.298 11.544,659.212 24.734,651.712C30.543,648.408 41.886,641.769 47.609,638.318C57.632,632.273 69.199,626.981 79.456,621.348C96.763,611.844 112.515,604.094 130.017,594.952C154.128,582.356 161.502,578.453 186.093,568.053C190.344,566.255 198.751,557.312 208.407,557.516C212.38,557.6 223.976,553.794 227.99,554.228L234.871,556.823C257.789,602.66 304.253,635.353 350.568,654.132C366.586,660.626 383.146,665.197 399.976,668.975Z"
        style="fill: none; stroke: black; stroke-width: 2.1px"
      />
      <path
        id="dark"
        d="M78.979,895.425C73.364,888.497 66.999,851.702 62.841,837.372C51.666,798.864 37.609,754.625 23.38,717.145C18.457,704.176 13.898,692.817 9.988,679.439C9.675,678.366 6.279,667.13 5.679,668.042C1.949,673.71 -7.251,685.885 -8.608,688.618C-21.87,715.312 -27.046,734.641 -30.108,759.628C-38.246,826.04 -53.343,895.144 -53.343,895.144C-53.343,895.144 34.167,896.254 50.077,897.394L78.979,895.425ZM720.693,895.425C726.308,888.497 732.673,851.702 736.831,837.372C748.006,798.864 762.063,754.625 776.292,717.145C781.215,704.176 785.774,692.817 789.684,679.439C789.997,678.366 793.393,667.13 793.993,668.042C797.723,673.71 806.923,685.885 808.28,688.618C821.542,715.312 826.718,734.641 829.78,759.628C837.918,826.04 853.015,895.144 853.015,895.144C853.015,895.144 765.505,896.254 749.595,897.394L720.693,895.425ZM399.96,648.48C408.587,648.201 418.414,646.976 423.698,646.167C445.199,642.875 464.962,635.555 484.157,625.42C505.79,613.998 523.839,599.924 537.398,579.382C543.481,570.168 549.299,560.747 554.872,551.217C556.186,548.97 558.346,541.856 560.778,540.616C562.567,539.704 566.787,544.365 568.011,545.27C573.884,549.616 581.482,549.666 587.992,552.585C588.855,552.972 592.889,554.054 592.443,555.577C587.561,572.228 575.203,588.696 565.21,602.445C552.84,619.465 537.932,636.25 521.724,649.502C486.724,678.116 452.838,689.822 407.865,692.897L392.055,692.897C347.082,689.822 313.196,678.116 278.196,649.502C261.987,636.25 247.08,619.465 234.71,602.445C224.716,588.696 212.359,572.228 207.477,555.577C207.03,554.054 211.065,552.972 211.928,552.585C218.438,549.666 226.036,549.616 231.909,545.27C233.132,544.365 237.352,539.704 239.142,540.616C241.574,541.856 243.734,548.97 245.048,551.217C250.621,560.747 256.439,570.168 262.521,579.382C276.081,599.924 294.13,613.998 315.762,625.42C334.958,635.555 354.721,642.875 376.222,646.167C381.506,646.976 391.333,648.201 399.96,648.48Z"
        style="fill: rgb(63, 63, 63)"
      />
      <clipPath id="Helicap-tshirt_2">
        <path
          id="dark1"
          d="M78.979,895.425C73.364,888.497 66.999,851.702 62.841,837.372C51.666,798.864 37.609,754.625 23.38,717.145C18.457,704.176 13.898,692.817 9.988,679.439C9.675,678.366 6.279,667.13 5.679,668.042C1.949,673.71 -7.251,685.885 -8.608,688.618C-21.87,715.312 -27.046,734.641 -30.108,759.628C-38.246,826.04 -53.343,895.144 -53.343,895.144C-53.343,895.144 34.167,896.254 50.077,897.394L78.979,895.425ZM720.693,895.425C726.308,888.497 732.673,851.702 736.831,837.372C748.006,798.864 762.063,754.625 776.292,717.145C781.215,704.176 785.774,692.817 789.684,679.439C789.997,678.366 793.393,667.13 793.993,668.042C797.723,673.71 806.923,685.885 808.28,688.618C821.542,715.312 826.718,734.641 829.78,759.628C837.918,826.04 853.015,895.144 853.015,895.144C853.015,895.144 765.505,896.254 749.595,897.394L720.693,895.425ZM399.96,648.48C408.587,648.201 418.414,646.976 423.698,646.167C445.199,642.875 464.962,635.555 484.157,625.42C505.79,613.998 523.839,599.924 537.398,579.382C543.481,570.168 549.299,560.747 554.872,551.217C556.186,548.97 558.346,541.856 560.778,540.616C562.567,539.704 566.787,544.365 568.011,545.27C573.884,549.616 581.482,549.666 587.992,552.585C588.855,552.972 592.889,554.054 592.443,555.577C587.561,572.228 575.203,588.696 565.21,602.445C552.84,619.465 537.932,636.25 521.724,649.502C486.724,678.116 452.838,689.822 407.865,692.897L392.055,692.897C347.082,689.822 313.196,678.116 278.196,649.502C261.987,636.25 247.08,619.465 234.71,602.445C224.716,588.696 212.359,572.228 207.477,555.577C207.03,554.054 211.065,552.972 211.928,552.585C218.438,549.666 226.036,549.616 231.909,545.27C233.132,544.365 237.352,539.704 239.142,540.616C241.574,541.856 243.734,548.97 245.048,551.217C250.621,560.747 256.439,570.168 262.521,579.382C276.081,599.924 294.13,613.998 315.762,625.42C334.958,635.555 354.721,642.875 376.222,646.167C381.506,646.976 391.333,648.201 399.96,648.48Z"
        />
      </clipPath>
      <g clip-path="url(#Helicap-tshirt_2)">
        <path
          d="M751.765,775.929C751.358,776.473 751.157,776.85 751.637,776.708L751.765,775.929C752.248,775.283 753.021,774.404 753.296,773.877C754.402,771.753 755.493,769.622 756.559,767.477C759.708,761.139 762.679,754.749 765.543,748.279C771.608,734.579 776.14,722.213 782.757,708.771C783.742,706.77 787.836,696.558 790.052,695.713C790.429,695.568 795.723,706.705 796.016,707.382C796.089,707.549 806.353,727.934 811.351,738.784C812.034,740.267 814.952,749.656 817.436,748.194C824.026,744.314 825.135,728.95 825.439,722.529C826.44,701.347 818.351,686.291 806.501,669.353C802.427,663.53 798.208,655.561 791.763,651.982C783.134,647.192 778.243,661.818 776.206,667.428C768.084,689.806 762.656,713.625 758.191,736.972L751.765,775.929ZM48.093,775.929C48.5,776.473 48.701,776.85 48.221,776.708L48.093,775.929C47.61,775.283 46.837,774.404 46.563,773.877C45.456,771.753 44.365,769.622 43.299,767.477C40.15,761.139 37.18,754.749 34.315,748.279C28.25,734.579 23.718,722.213 17.101,708.771C16.116,706.77 12.022,696.558 9.806,695.713C9.429,695.568 4.136,706.705 3.842,707.382C3.769,707.549 -6.495,727.934 -11.493,738.784C-12.176,740.267 -15.094,749.656 -17.578,748.194C-24.168,744.314 -25.277,728.95 -25.581,722.529C-26.582,701.347 -18.493,686.291 -6.643,669.353C-2.569,663.53 1.65,655.561 8.095,651.982C16.724,647.192 21.615,661.818 23.652,667.428C31.774,689.806 37.202,713.625 41.667,736.972L48.093,775.929ZM566.129,534.369L565.944,534.367C564.711,534.363 563.482,534.472 562.259,534.726C554.23,536.392 548.396,543.929 543.436,549.863C533.281,562.01 523.468,574.509 514.249,587.38L506.438,607.413C506.691,606.827 508.508,605.971 508.97,605.635C511.261,603.971 513.555,602.312 515.812,600.601C522.984,595.163 529.925,589.45 535.683,582.489C540.979,576.087 545.998,569.456 551.301,563.053C552.121,562.063 555.231,556.852 556.956,557.443C559.272,558.237 561.343,559.8 563.714,560.59C564.075,560.71 566.087,561.019 566.29,561.426C566.486,561.818 563.936,565.219 563.721,565.584C561.095,570.052 558.593,574.592 555.986,579.07C554.329,581.916 552.718,584.771 551.154,587.669C550.636,588.627 550.087,589.568 549.565,590.523C549.519,590.608 548.814,592.071 548.908,592.071C549.248,592.071 550.137,590.693 550.328,590.465C551.819,588.685 553.3,586.901 554.744,585.082C560.242,578.16 564.943,570.567 570.445,563.689C570.839,563.197 572.255,564.151 572.616,564.329C573.516,564.772 579.511,566.902 579.653,567.896C579.882,569.502 577.253,572.851 576.557,574.162C573.456,580.001 570.28,585.779 566.734,591.363C551.619,615.161 533.445,637.882 510.775,654.837C502.717,660.864 494.389,666.546 486.056,672.182C483.248,674.081 480.432,675.971 477.636,677.888C476.664,678.554 475.701,679.232 474.747,679.924C474.683,679.971 473.485,680.879 473.595,680.946C474.001,681.19 475.533,680.226 475.855,680.065C478.052,678.967 480.177,677.717 482.286,676.461C491.766,670.811 501.061,664.749 510.135,658.472C541.073,637.071 568.014,610.496 589.572,579.61C594.57,572.449 599.301,565.039 603.47,557.361C604.863,554.796 607.406,550.917 606.181,547.844C605.307,545.653 602.558,544.819 600.519,544.181C595.518,542.614 590.446,541.278 585.448,539.696C579.363,537.77 572.719,534.456 566.129,534.369ZM234.099,534.368C235.269,534.374 236.437,534.485 237.599,534.726C245.628,536.392 251.462,543.929 256.422,549.863C266.578,562.01 276.39,574.509 285.609,587.38L293.42,607.413C293.167,606.827 291.35,605.971 290.888,605.635C288.597,603.971 286.303,602.312 284.046,600.601C276.874,595.163 269.933,589.45 264.175,582.489C258.879,576.087 253.861,569.456 248.557,563.053C247.737,562.063 244.627,556.852 242.902,557.443C240.586,558.237 238.515,559.8 236.144,560.59C235.783,560.71 233.771,561.019 233.568,561.426C233.372,561.818 235.922,565.219 236.137,565.584C238.763,570.052 241.265,574.592 243.872,579.07C245.529,581.916 247.14,584.771 248.704,587.669C249.222,588.627 249.771,589.568 250.293,590.523C250.34,590.608 251.044,592.071 250.95,592.071C250.61,592.071 249.721,590.693 249.53,590.465C248.039,588.685 246.558,586.901 245.114,585.082C239.616,578.16 234.915,570.567 229.413,563.689C229.019,563.197 227.603,564.151 227.243,564.329C226.342,564.772 220.347,566.902 220.205,567.896C219.976,569.502 222.605,572.851 223.301,574.162C226.402,580.001 229.578,585.779 233.124,591.363C248.239,615.161 266.413,637.882 289.083,654.837C297.141,660.864 305.469,666.546 313.802,672.182C316.61,674.081 319.426,675.971 322.222,677.888C323.194,678.554 324.157,679.232 325.111,679.924C325.175,679.971 326.373,680.879 326.263,680.946C325.857,681.19 324.325,680.226 324.004,680.065C321.806,678.967 319.681,677.717 317.572,676.461C308.092,670.811 298.797,664.749 289.723,658.472C258.785,637.071 231.844,610.496 210.286,579.61C205.288,572.449 200.557,565.039 196.388,557.361C194.995,554.796 192.452,550.917 193.677,547.844C194.551,545.653 197.3,544.819 199.339,544.181C204.34,542.614 209.412,541.278 214.41,539.696C220.552,537.752 227.265,534.393 233.914,534.367L234.099,534.368Z"
          style="fill: rgb(252, 255, 216); fill-opacity: 0.6"
        />
      </g>
      <path
        id="dark2"
        d="M78.979,895.425C73.364,888.497 66.999,851.702 62.841,837.372C51.666,798.864 37.609,754.625 23.38,717.145C18.457,704.176 13.898,692.817 9.988,679.439C9.675,678.366 6.279,667.13 5.679,668.042C1.949,673.71 -7.251,685.885 -8.608,688.618C-21.87,715.312 -27.046,734.641 -30.108,759.628C-38.246,826.04 -53.343,895.144 -53.343,895.144C-53.343,895.144 34.167,896.254 50.077,897.394L78.979,895.425ZM720.693,895.425C726.308,888.497 732.673,851.702 736.831,837.372C748.006,798.864 762.063,754.625 776.292,717.145C781.215,704.176 785.774,692.817 789.684,679.439C789.997,678.366 793.393,667.13 793.993,668.042C797.723,673.71 806.923,685.885 808.28,688.618C821.542,715.312 826.718,734.641 829.78,759.628C837.918,826.04 853.015,895.144 853.015,895.144C853.015,895.144 765.505,896.254 749.595,897.394L720.693,895.425ZM399.96,648.48C408.587,648.201 418.414,646.976 423.698,646.167C445.199,642.875 464.962,635.555 484.157,625.42C505.79,613.998 523.839,599.924 537.398,579.382C543.481,570.168 549.299,560.747 554.872,551.217C556.186,548.97 558.346,541.856 560.778,540.616C562.567,539.704 566.787,544.365 568.011,545.27C573.884,549.616 581.482,549.666 587.992,552.585C588.855,552.972 592.889,554.054 592.443,555.577C587.561,572.228 575.203,588.696 565.21,602.445C552.84,619.465 537.932,636.25 521.724,649.502C486.724,678.116 452.838,689.822 407.865,692.897L392.055,692.897C347.082,689.822 313.196,678.116 278.196,649.502C261.987,636.25 247.08,619.465 234.71,602.445C224.716,588.696 212.359,572.228 207.477,555.577C207.03,554.054 211.065,552.972 211.928,552.585C218.438,549.666 226.036,549.616 231.909,545.27C233.132,544.365 237.352,539.704 239.142,540.616C241.574,541.856 243.734,548.97 245.048,551.217C250.621,560.747 256.439,570.168 262.521,579.382C276.081,599.924 294.13,613.998 315.762,625.42C334.958,635.555 354.721,642.875 376.222,646.167C381.506,646.976 391.333,648.201 399.96,648.48Z"
        style="fill: none; stroke: black; stroke-width: 2.1px"
      />
    </g>
  </g>
  <defs>
    <linearGradient id="Helicap-tshirt_Linear1" x1="0" y1="0" x2="1" y2="0.00245245" gradientUnits="userSpaceOnUse" gradientTransform="matrix(-0.897855,318.921,-525.283,-3.60072,399.782,560.048)">
      <stop offset="0" style="stop-color: rgb(245, 249, 251); stop-opacity: 1" />
      <stop offset="0.53" style="stop-color: rgb(221, 233, 241); stop-opacity: 1" />
      <stop offset="1" style="stop-color: rgb(140, 180, 206); stop-opacity: 1" />
    </linearGradient>
    <linearGradient id="Helicap-tshirt_Linear3" x1="0" y1="0" x2="1" y2="0" gradientUnits="userSpaceOnUse" gradientTransform="matrix(-1.68008,328.079,-342.313,-1.75297,399.966,655.878)">
      <stop offset="0" style="stop-color: rgb(236, 65, 81); stop-opacity: 1" />
      <stop offset="1" style="stop-color: rgb(172, 27, 60); stop-opacity: 1" />
    </linearGradient>
  </defs>
</svg>
