<svg width="800px" height="800px" viewBox="0 0 800 800" version="2.0" xmlns="http://www.w3.org/2000/svg" style="fill-rule: evenodd; clip-rule: evenodd; stroke-linecap: round; stroke-linejoin: round; stroke-miterlimit: 1.5"><g id="normal-card"><rect id="bg" x="-48.418" y="-9.957" width="931.967" height="871.066" style="fill: rgb(6, 46, 66)" /><g id="rectangles" transform="matrix(1,0,0,1,49.4291,64.1339)"><g opacity="0.5"><g transform="matrix(0.660629,0,0,1.04551,351.522,-81.058)"><rect x="462.47" y="633.282" width="419.335" height="322.449" style="fill: none" /><clipPath id="_clip1_card_template"><rect x="462.47" y="633.282" width="419.335" height="322.449" /></clipPath><g clip-path="url(#_clip1_card_template)"><g transform="matrix(1.51371,0,0,0.956468,-452.99,37.369)"><path d="M604.78,633.282L877.032,634.306" style="fill: none; stroke: rgb(166, 240, 98); stroke-width: 4px; stroke-dasharray: 4.25, 7.5, 0, 0" /></g><g transform="matrix(1.51371,0,0,0.956468,-452.99,58.0423)"><path d="M604.78,633.282L877.032,634.306" style="fill: none; stroke: rgb(166, 240, 98); stroke-width: 4px; stroke-dasharray: 4.25, 7.5, 0, 0" /></g><g transform="matrix(1.51371,0,0,0.956468,-452.99,68.3789)"><path d="M604.78,633.282L877.032,634.306" style="fill: none; stroke: rgb(166, 240, 98); stroke-width: 4px; stroke-dasharray: 4.25, 7.5, 0, 0" /></g><g transform="matrix(1.51371,0,0,0.956468,-452.99,89.0522)"><path d="M604.78,633.282L877.032,634.306" style="fill: none; stroke: rgb(166, 240, 98); stroke-width: 4px; stroke-dasharray: 4.25, 7.5, 0, 0" /></g><g transform="matrix(1.51371,0,0,0.956468,-452.99,99.3888)"><path d="M604.78,633.282L877.032,634.306" style="fill: none; stroke: rgb(166, 240, 98); stroke-width: 4px; stroke-dasharray: 4.25, 7.5, 0, 0" /></g><g transform="matrix(1.51371,0,0,0.956468,-452.99,130.399)"><path d="M604.78,633.282L877.032,634.306" style="fill: none; stroke: rgb(166, 240, 98); stroke-width: 4px; stroke-dasharray: 4.25, 7.5, 0, 0" /></g><g transform="matrix(1.51371,0,0,0.956468,-452.99,151.072)"><path d="M604.78,633.282L877.032,634.306" style="fill: none; stroke: rgb(166, 240, 98); stroke-width: 4px; stroke-dasharray: 4.25, 7.5, 0, 0" /></g><g transform="matrix(1.51371,0,0,0.956468,-452.99,171.745)"><path d="M604.78,633.282L877.032,634.306" style="fill: none; stroke: rgb(166, 240, 98); stroke-width: 4px; stroke-dasharray: 4.25, 7.5, 0, 0" /></g></g><rect x="462.47" y="633.282" width="419.335" height="322.449" style="fill: none; stroke: rgb(166, 240, 98); stroke-width: 4.57px; stroke-dasharray: 4.86, 8.58, 0, 0" /></g><g transform="matrix(0.192707,0,0,1.04551,466.744,2.40586)"><rect x="462.47" y="633.282" width="419.335" height="322.449" style="fill: none" /><clipPath id="_clip2_card_template"><rect x="462.47" y="633.282" width="419.335" height="322.449" /></clipPath><g clip-path="url(#_clip2_card_template)"><g transform="matrix(1.51371,0,0,0.956468,-452.99,37.369)"><path d="M604.78,633.282L877.032,634.306" style="fill: none; stroke: rgb(237, 30, 121); stroke-width: 5.43px; stroke-dasharray: 5.77, 10.18, 0, 0" /></g><g transform="matrix(1.51371,0,0,0.956468,-452.99,58.0423)"><path d="M604.78,633.282L877.032,634.306" style="fill: none; stroke: rgb(237, 30, 121); stroke-width: 5.43px; stroke-dasharray: 5.77, 10.18, 0, 0" /></g><g transform="matrix(1.51371,0,0,0.956468,-452.99,68.3789)"><path d="M604.78,633.282L877.032,634.306" style="fill: none; stroke: rgb(237, 30, 121); stroke-width: 5.43px; stroke-dasharray: 5.77, 10.18, 0, 0" /></g><g transform="matrix(1.51371,0,0,0.956468,-452.99,89.0522)"><path d="M604.78,633.282L877.032,634.306" style="fill: none; stroke: rgb(237, 30, 121); stroke-width: 5.43px; stroke-dasharray: 5.77, 10.18, 0, 0" /></g></g><rect x="462.47" y="633.282" width="419.335" height="322.449" style="fill: none; stroke: rgb(237, 30, 121); stroke-width: 5.32px; stroke-dasharray: 5.65, 9.98, 0, 0" /></g></g></g><g id="circles" opacity="0.5"><g transform="matrix(1,0,0,1,-118.853,-94.5905)"><circle cx="155.124" cy="124.814" r="124.814" style="fill: none; stroke: rgb(255, 207, 0); stroke-width: 4px; stroke-dasharray: 4.25, 7.5, 0, 0" /></g><g transform="matrix(0.928318,0,0,0.928318,-107.734,-85.6437)"><circle cx="155.124" cy="124.814" r="124.814" style="fill: none; stroke: rgb(255, 207, 0); stroke-width: 4.31px; stroke-dasharray: 4.58, 8.08, 0, 0" /></g><g transform="matrix(0.691272,0,0,0.691272,-70.9623,-56.0571)"><circle cx="155.124" cy="124.814" r="124.814" style="fill: none; stroke: rgb(255, 108, 0); stroke-width: 5.79px; stroke-dasharray: 6.15, 10.85, 0, 0" /></g></g><g id="rarity-bars" transform="matrix(0.86723,0,0,0.86723,10.4494,88.5493)"><g id="rarity-bars-fill"><g transform="matrix(0.114833,0,0,0.114833,59.0756,653.445)"><path d="M400,117.517L629.266,249.774L629.266,514.685L400.192,646.941L400.192,647.052L400.096,646.997L400,647.052L400,646.941L170.925,514.685L170.925,249.774L400,117.517Z" style="fill: rgb(139, 57, 219)" /></g><g transform="matrix(0.114833,0,0,0.114833,126.648,653.445)"><path d="M400,117.517L629.266,249.774L629.266,514.685L400.192,646.941L400.192,647.052L400.096,646.997L400,647.052L400,646.941L170.925,514.685L170.925,249.774L400,117.517Z" style="fill: rgb(237, 30, 121)" /></g><g transform="matrix(0.114833,0,0,0.114833,194.22,653.445)"><path d="M400,117.517L629.266,249.774L629.266,514.685L400.192,646.941L400.192,647.052L400.096,646.997L400,647.052L400,646.941L170.925,514.685L170.925,249.774L400,117.517Z" style="fill: rgb(241, 90, 36)" /></g><g transform="matrix(0.114833,0,0,0.114833,261.792,653.445)"><path d="M400,117.517L629.266,249.774L629.266,514.685L400.192,646.941L400.192,647.052L400.096,646.997L400,647.052L400,646.941L170.925,514.685L170.925,249.774L400,117.517Z" style="fill: rgb(251, 176, 59)" /></g><g transform="matrix(0.114833,0,0,0.114833,329.364,653.445)"><path d="M400,117.517L629.266,249.774L629.266,514.685L400.192,646.941L400.192,647.052L400.096,646.997L400,647.052L400,646.941L170.925,514.685L170.925,249.774L400,117.517Z" style="fill: rgb(41, 171, 226)" /></g></g><g id="rarity-bars-stroke"><g transform="matrix(0.114833,0,0,0.114833,59.0756,653.445)"><path d="M400,117.517L629.266,249.774L629.266,514.685L400.192,646.941L400.192,647.052L400.096,646.997L400,647.052L400,646.941L170.925,514.685L170.925,249.774L400,117.517Z" style="fill: none; stroke: white; stroke-width: 34.83px" /></g><g transform="matrix(0.114833,0,0,0.114833,126.648,653.445)"><path d="M400,117.517L629.266,249.774L629.266,514.685L400.192,646.941L400.192,647.052L400.096,646.997L400,647.052L400,646.941L170.925,514.685L170.925,249.774L400,117.517Z" style="fill: none; stroke: white; stroke-width: 34.83px" /></g><g transform="matrix(0.114833,0,0,0.114833,194.22,653.445)"><path d="M400,117.517L629.266,249.774L629.266,514.685L400.192,646.941L400.192,647.052L400.096,646.997L400,647.052L400,646.941L170.925,514.685L170.925,249.774L400,117.517Z" style="fill: none; stroke: white; stroke-width: 34.83px" /></g><g transform="matrix(0.114833,0,0,0.114833,261.792,653.445)"><path d="M400,117.517L629.266,249.774L629.266,514.685L400.192,646.941L400.192,647.052L400.096,646.997L400,647.052L400,646.941L170.925,514.685L170.925,249.774L400,117.517Z" style="fill: none; stroke: white; stroke-width: 34.83px" /></g><g transform="matrix(0.114833,0,0,0.114833,329.364,653.445)"><path d="M400,117.517L629.266,249.774L629.266,514.685L400.192,646.941L400.192,647.052L400.096,646.997L400,647.052L400,646.941L170.925,514.685L170.925,249.774L400,117.517Z" style="fill: none; stroke: white; stroke-width: 34.83px" /></g></g></g><g transform="matrix(0.720342,0,0,0.720342,23.1337,330.63)"><text x="77.471px" y="439.84px" style="font-family: 'Futura-Medium', 'Futura', sans-serif; font-weight: 500; font-size: 50px; fill: white">RARITY</text></g><g transform="matrix(0.911866,0,0,0.911866,252.534,309.097)"><text x="190.763px" y="439.84px" style="font-family: 'Futura-Medium', 'Futura', sans-serif; font-weight: 500; font-size: 50px; fill: white" id="wear_value"></text></g><g transform="matrix(0.720342,0,0,0.720342,340.614,330.63)"><text x="77.471px" y="439.84px" style="font-family: 'Futura-Medium', 'Futura', sans-serif; font-weight: 500; font-size: 50px; fill: white">WEAR</text></g><g id="hat" transform="matrix(1.10125,0,0,1.10125,158.833,-78.5692)"><g transform="matrix(1,0,0,1,-51.9094,-2.83465)"><path d="M474.461,710.793C485.268,715.724 523.434,714.96 530.456,710.765" style="fill: none; stroke: white; stroke-width: 3px; stroke-linecap: butt" /></g><g transform="matrix(1,0,0,0.58812,-0.101996,292.708)"><rect x="433.636" y="663.946" width="33.608" height="46.716" style="fill: white" /></g></g><g transform="matrix(0.720342,0,0,0.720342,520.614,330.63)"><text x="124.102px" y="439.84px" style="font-family: 'Futura-Medium', 'Futura', sans-serif; font-weight: 500; font-size: 50px; fill: white">SLOT</text></g><g transform="matrix(1,0,0,1,-7.69409,0)"><path d="M82.194,602.738L733.196,602.258C733.979,602.258 734.615,601.621 734.614,600.838C734.614,600.055 733.977,599.42 733.194,599.42L82.192,599.9C81.409,599.901 80.773,600.537 80.774,601.321C80.775,602.104 81.411,602.739 82.194,602.738Z" style="fill: white" /></g><g transform="matrix(1,0,0,1,120.441,145.046)"><text x="110.471px" y="439.84px" style="font-family: 'Futura-Medium', 'Futura', sans-serif; font-weight: 500; font-size: 50px; fill: white">ASTRO HELMET</text></g><path id="border" d="M800,801.235L800,-4.106L-0,-4.106L0,801.235L800,801.235ZM260.875,30.644L30.644,30.644C30.644,30.644 30.644,769.356 30.644,769.356C30.644,769.356 769.356,769.356 769.356,769.356L769.356,30.644L539.125,30.644L539.125,61.806L260.875,61.806L260.875,30.644Z" style="fill: rgb(0, 153, 197)" /><g id="guide" transform="matrix(1,0,0,1.04284,1.75676,-22.4672)"><rect x="82.193" y="95.569" width="632.101" height="428.927" style="fill: url(#_Linear3_card_template); stroke: rgb(0, 153, 197); stroke-width: 4.8px" /><rect x="82.193" y="95.569" width="632.101" height="428.927" style="fill: url(#astro-helmet)"/></g><pattern id="astro-helmet" viewBox="0,-100,800,800" width="100%" height="100%"><g transform="matrix(0.999162,0,0,0.999162,0.335328,0.904153)"><g id="accessories-back"><g id="astro-suit-back"><path d="M180.259,584.2C176.57,582.294 160.99,539.498 159.048,533.673C139.148,473.972 122.816,406.741 120.745,344.195C113.971,139.636 232.338,-15.74 450.189,13.967C485.299,18.755 521.946,25.555 553.654,42.094C586.872,59.42 609.505,90.929 627.922,122.567C691.154,231.188 682.496,306.971 665.128,423.584C659.994,458.053 652.65,524.348 631.933,550.603C614.242,573.023 547.052,583.724 520.903,589.756C417.868,613.521 290.783,637.728 192.034,584.961" style="fill: rgb(41, 38, 57)" /><clipPath id="_clip1"><path d="M180.259,584.2C176.57,582.294 160.99,539.498 159.048,533.673C139.148,473.972 122.816,406.741 120.745,344.195C113.971,139.636 232.338,-15.74 450.189,13.967C485.299,18.755 521.946,25.555 553.654,42.094C586.872,59.42 609.505,90.929 627.922,122.567C691.154,231.188 682.496,306.971 665.128,423.584C659.994,458.053 652.65,524.348 631.933,550.603C614.242,573.023 547.052,583.724 520.903,589.756C417.868,613.521 290.783,637.728 192.034,584.961" /></clipPath><g clip-path="url(#_clip1)"><path d="M158.622,597.591C150.081,589.997 143.436,576.512 138.697,566.311C134.503,557.283 131.151,547.773 129.408,537.948C119.268,480.774 187.097,471.526 226.436,469.366C302.406,465.195 385.443,463.602 461.427,465.242C509.226,466.274 558.577,465.312 605.412,476.837C626.057,481.917 653.193,485.417 667.629,502.303C702.777,543.416 630.336,605.512 601.093,624.118C591.554,630.188 581.646,635.69 571.439,640.554C530.382,660.119 484.895,668.737 439.896,672.822" style="fill: rgb(26, 25, 33)" /></g></g></g></g><g id="astro-suit-front" transform="matrix(0.999162,0,0,0.999162,0.335328,0.904153)"><g id="helmet"><g id="cushion"><path d="M116.784,278.44C116.784,278.44 146.954,265.669 164.681,264.653C182.408,263.636 194.395,264.398 202.639,277.941C210.882,291.484 218.569,333.89 221.228,349.926C223.888,365.962 227.65,412.604 228.272,437C228.894,461.397 227.15,479.477 227.15,479.477L145.104,475.663C145.104,475.663 127.734,390.818 124.965,362.589C122.195,334.359 116.784,278.44 116.784,278.44Z" style="fill: rgb(73, 69, 92)" /><clipPath id="_clip2"><path d="M116.784,278.44C116.784,278.44 146.954,265.669 164.681,264.653C182.408,263.636 194.395,264.398 202.639,277.941C210.882,291.484 218.569,333.89 221.228,349.926C223.888,365.962 227.65,412.604 228.272,437C228.894,461.397 227.15,479.477 227.15,479.477L145.104,475.663C145.104,475.663 127.734,390.818 124.965,362.589C122.195,334.359 116.784,278.44 116.784,278.44Z" /></clipPath><g clip-path="url(#_clip2)"><path d="M217.205,483.857C210.772,482.313 170.738,484.3 163.084,485.275C153.051,486.555 140.898,475.204 131.295,470.74C122.437,466.622 118.631,456.981 116.227,448.131C111.247,429.796 108.742,410.528 106.741,391.675C105.798,382.793 105.12,373.882 104.705,364.96C102.961,327.471 101.33,272.963 139.272,251.515C146.931,247.185 155.386,244.521 163.988,242.82C174.257,240.789 184.63,240.348 195.058,241.119L213.77,263.684C214.192,264.102 212.582,263.619 211.988,263.641C210.691,263.689 209.396,263.842 208.106,263.974C204.247,264.37 200.404,264.878 196.586,265.562C184.73,267.687 172.752,271.536 162.987,278.776C161.705,279.726 154.581,284.021 154.833,286.163C154.93,286.993 157.823,287.859 158.421,288.185C161.452,289.835 163.988,292.097 166.135,294.792C172.01,302.169 175.843,312.978 178.774,321.772C189.168,352.953 195.622,384.05 198.93,416.432C200.051,427.399 200.152,438.829 199.317,449.808C199.159,451.873 198.984,453.936 198.786,455.997C205.044,456.285 212.473,457.356 217.918,460.188C224.204,463.458 225.127,464.068 228.848,467.004C229.09,467.194 232.341,469.636 232.019,469.913C231.511,470.35 220.882,484.739 217.205,483.857Z" style="fill: rgb(48, 44, 61)" /><path d="M180.486,283.677C184.003,281.366 188.147,279.344 191.792,277.241C192.726,276.702 194.17,275.576 195.802,275.02C197.968,274.281 190.025,266.969 191.864,265.038C193.205,263.629 200.299,269.751 200.998,270.532C204.972,274.97 207.755,280.66 210.165,286.052C220.704,309.628 225.753,335.673 230.052,360.986C233.695,382.438 237.38,404.164 238.103,425.948C238.476,437.17 238.4,449.084 236.385,460.185C235.981,462.408 234.69,469.278 231.799,470.182C229.808,470.804 227.093,468.562 225.563,467.581C223.709,466.391 220.16,466.114 219.159,464.025C218.298,462.229 219.621,457.871 219.854,456.028C220.389,451.798 220.59,447.542 220.558,443.28C220.399,422.468 217.702,401.834 215.558,381.17C214.22,368.275 213.836,355.312 212.485,342.421C211.027,328.517 209.069,314.462 205.929,300.827C204.614,295.115 203.192,287.55 198.677,283.247C193.275,278.1 182.414,286.307 177.523,288.827C176.581,289.312 171.629,292.557 170.703,291.864C169.886,291.253 175.908,286.523 176.37,286.147" style="fill: rgb(148, 125, 155)" /><path d="M120.582,291.59C120.897,290.956 131.901,294.815 132.623,295.076C147.096,300.314 153.713,310.156 159.049,324.216C175.738,368.189 171.61,418.669 175.564,464.805" style="fill: none; stroke: black; stroke-width: 2.1px" /><path d="M154.222,305.377C153.8,304.931 162.384,297.949 162.872,297.556C163.144,297.337 163.418,297.12 163.691,296.902C173.408,289.169 185.114,278.785 197.138,274.777" style="fill: none; stroke: black; stroke-width: 2.1px" /></g><path d="M116.784,278.44C116.784,278.44 146.954,265.669 164.681,264.653C182.408,263.636 194.395,264.398 202.639,277.941C210.882,291.484 218.569,333.89 221.228,349.926C223.888,365.962 227.65,412.604 228.272,437C228.894,461.397 227.15,479.477 227.15,479.477L145.104,475.663C145.104,475.663 127.734,390.818 124.965,362.589C122.195,334.359 116.784,278.44 116.784,278.44Z" style="fill: none; stroke: black; stroke-width: 2.1px" /><g transform="matrix(-1,0,0,1,799.574,0)"><path d="M116.784,278.44C116.784,278.44 146.954,265.669 164.681,264.653C182.408,263.636 194.395,264.398 202.639,277.941C210.882,291.484 218.569,333.89 221.228,349.926C223.888,365.962 227.65,412.604 228.272,437C228.894,461.397 227.15,479.477 227.15,479.477L145.104,475.663C145.104,475.663 127.734,390.818 124.965,362.589C122.195,334.359 116.784,278.44 116.784,278.44Z" style="fill: rgb(73, 69, 92)" /><clipPath id="_clip3"><path d="M116.784,278.44C116.784,278.44 146.954,265.669 164.681,264.653C182.408,263.636 194.395,264.398 202.639,277.941C210.882,291.484 218.569,333.89 221.228,349.926C223.888,365.962 227.65,412.604 228.272,437C228.894,461.397 227.15,479.477 227.15,479.477L145.104,475.663C145.104,475.663 127.734,390.818 124.965,362.589C122.195,334.359 116.784,278.44 116.784,278.44Z" /></clipPath><g clip-path="url(#_clip3)"><path d="M217.205,483.857C210.772,482.313 170.738,484.3 163.084,485.275C153.051,486.555 140.898,475.204 131.295,470.74C122.437,466.622 118.631,456.981 116.227,448.131C111.247,429.796 108.742,410.528 106.741,391.675C105.798,382.793 105.12,373.882 104.705,364.96C102.961,327.471 101.33,272.963 139.272,251.515C146.931,247.185 155.386,244.521 163.988,242.82C174.257,240.789 184.63,240.348 195.058,241.119L213.77,263.684C214.192,264.102 212.582,263.619 211.988,263.641C210.691,263.689 209.396,263.842 208.106,263.974C204.247,264.37 200.404,264.878 196.586,265.562C184.73,267.687 172.752,271.536 162.987,278.776C161.705,279.726 154.581,284.021 154.833,286.163C154.93,286.993 157.823,287.859 158.421,288.185C161.452,289.835 163.988,292.097 166.135,294.792C172.01,302.169 175.843,312.978 178.774,321.772C189.168,352.953 195.622,384.05 198.93,416.432C200.051,427.399 200.152,438.829 199.317,449.808C199.159,451.873 198.984,453.936 198.786,455.997C205.044,456.285 212.473,457.356 217.918,460.188C224.204,463.458 225.127,464.068 228.848,467.004C229.09,467.194 232.341,469.636 232.019,469.913C231.511,470.35 220.882,484.739 217.205,483.857Z" style="fill: rgb(48, 44, 61)" /><path d="M180.486,283.677C184.003,281.366 188.147,279.344 191.792,277.241C192.726,276.702 194.17,275.576 195.802,275.02C197.968,274.281 190.025,266.969 191.864,265.038C193.205,263.629 200.299,269.751 200.998,270.532C204.972,274.97 207.755,280.66 210.165,286.052C220.704,309.628 225.753,335.673 230.052,360.986C233.695,382.438 237.38,404.164 238.103,425.948C238.476,437.17 238.4,449.084 236.385,460.185C235.981,462.408 234.69,469.278 231.799,470.182C229.808,470.804 227.093,468.562 225.563,467.581C223.709,466.391 220.16,466.114 219.159,464.025C218.298,462.229 219.621,457.871 219.854,456.028C220.389,451.798 220.59,447.542 220.558,443.28C220.399,422.468 217.702,401.834 215.558,381.17C214.22,368.275 213.836,355.312 212.485,342.421C211.027,328.517 209.069,314.462 205.929,300.827C204.614,295.115 203.192,287.55 198.677,283.247C193.275,278.1 182.414,286.307 177.523,288.827C176.581,289.312 171.629,292.557 170.703,291.864C169.886,291.253 175.908,286.523 176.37,286.147" style="fill: rgb(148, 125, 155)" /><path d="M120.582,291.59C120.897,290.956 131.901,294.815 132.623,295.076C147.096,300.314 153.713,310.156 159.049,324.216C175.738,368.189 171.61,418.669 175.564,464.805" style="fill: none; stroke: black; stroke-width: 2.1px" /><path d="M154.222,305.377C153.8,304.931 162.384,297.949 162.872,297.556C163.144,297.337 163.418,297.12 163.691,296.902C173.408,289.169 185.114,278.785 197.138,274.777" style="fill: none; stroke: black; stroke-width: 2.1px" /></g><path d="M116.784,278.44C116.784,278.44 146.954,265.669 164.681,264.653C182.408,263.636 194.395,264.398 202.639,277.941C210.882,291.484 218.569,333.89 221.228,349.926C223.888,365.962 227.65,412.604 228.272,437C228.894,461.397 227.15,479.477 227.15,479.477L145.104,475.663C145.104,475.663 127.734,390.818 124.965,362.589C122.195,334.359 116.784,278.44 116.784,278.44Z" style="fill: none; stroke: black; stroke-width: 2.1px" /></g><path d="M142.504,463.622C142.504,463.622 194.643,454.998 214.447,461.398C234.252,467.799 250.994,480.539 264.038,506.534C277.083,532.528 286.471,589.73 286.471,589.73C286.471,589.73 204.517,564.953 185.571,553.41C166.624,541.867 155.164,527.687 155.164,527.687L142.504,463.622Z" style="fill: rgb(73, 69, 92)" /><clipPath id="_clip4"><path d="M142.504,463.622C142.504,463.622 194.643,454.998 214.447,461.398C234.252,467.799 250.994,480.539 264.038,506.534C277.083,532.528 286.471,589.73 286.471,589.73C286.471,589.73 204.517,564.953 185.571,553.41C166.624,541.867 155.164,527.687 155.164,527.687L142.504,463.622Z" /></clipPath><g clip-path="url(#_clip4)"><path d="M264.386,490.978C264.175,490.037 261.599,488.725 260.927,488.252C257.175,485.615 253.281,483.166 249.355,480.797C233.072,470.97 213.811,463.808 194.534,465.831C187.994,466.518 181.363,468.065 175.588,471.328C175.037,471.64 170.687,473.68 170.734,474.685C170.78,475.649 176.905,479.329 177.653,479.961C184.496,485.752 191.156,491.799 197.212,498.416C211.854,514.416 223.75,532.081 231.958,552.176C234.449,558.272 238.701,565.924 239.163,572.595C239.419,576.296 231.299,573.116 229.864,572.642C219.191,569.116 208.814,564.559 198.441,560.253C172.121,549.329 141.568,537.781 128.813,510.052C125.428,502.692 123.887,494.699 122.965,486.697C122.099,479.172 119.039,459.065 123.997,452.499C127.942,447.276 146.823,446.55 152.635,446.086C181.957,443.747 211.803,448.211 237.807,462.404" style="fill: rgb(48, 44, 61)" /><path d="M205.469,449.449C204.93,450.054 206.983,450.032 207.708,450.394C209.203,451.14 210.642,452.002 212.051,452.899C216.134,455.5 219.818,458.747 223.506,461.878C234.751,471.428 246.512,483.786 252.486,497.444C257.685,509.329 260.78,521.933 265.594,533.945C268.752,541.827 273.308,548.889 276.718,556.6C279.639,563.208 280.826,570.538 282.666,577.476C282.823,578.066 284.252,584.635 284.971,584.465C285.482,584.345 285.248,581.038 285.244,580.675C285.2,575.917 284.619,571.177 283.981,566.468C281.278,546.53 277.543,526.382 270.085,507.617C261.246,485.378 245.014,469.053 224.72,457.202" style="fill: rgb(148, 125, 155)" /><path d="M142.812,484.26C142.797,484.28 144.128,484.778 144.201,484.806C145.101,485.15 145.993,485.504 146.875,485.895C149.608,487.105 152.299,488.44 154.985,489.753C162.693,493.523 170.115,498.278 176.965,503.43C197.18,518.633 208.903,539.805 218.669,562.675" style="fill: none; stroke: black; stroke-width: 2.1px" /></g><path d="M142.504,463.622C142.504,463.622 194.643,454.998 214.447,461.398C234.252,467.799 250.994,480.539 264.038,506.534C277.083,532.528 286.471,589.73 286.471,589.73C286.471,589.73 204.517,564.953 185.571,553.41C166.624,541.867 155.164,527.687 155.164,527.687L142.504,463.622Z" style="fill: none; stroke: black; stroke-width: 2.1px" /><g transform="matrix(-1,0,0,1,799.574,0)"><path d="M142.504,463.622C142.504,463.622 194.643,454.998 214.447,461.398C234.252,467.799 250.994,480.539 264.038,506.534C277.083,532.528 286.471,589.73 286.471,589.73C286.471,589.73 204.517,564.953 185.571,553.41C166.624,541.867 155.164,527.687 155.164,527.687L142.504,463.622Z" style="fill: rgb(73, 69, 92)" /><clipPath id="_clip5"><path d="M142.504,463.622C142.504,463.622 194.643,454.998 214.447,461.398C234.252,467.799 250.994,480.539 264.038,506.534C277.083,532.528 286.471,589.73 286.471,589.73C286.471,589.73 204.517,564.953 185.571,553.41C166.624,541.867 155.164,527.687 155.164,527.687L142.504,463.622Z" /></clipPath><g clip-path="url(#_clip5)"><path d="M264.386,490.978C264.175,490.037 261.599,488.725 260.927,488.252C257.175,485.615 253.281,483.166 249.355,480.797C233.072,470.97 213.811,463.808 194.534,465.831C187.994,466.518 181.363,468.065 175.588,471.328C175.037,471.64 170.687,473.68 170.734,474.685C170.78,475.649 176.905,479.329 177.653,479.961C184.496,485.752 191.156,491.799 197.212,498.416C211.854,514.416 223.75,532.081 231.958,552.176C234.449,558.272 238.701,565.924 239.163,572.595C239.419,576.296 231.299,573.116 229.864,572.642C219.191,569.116 208.814,564.559 198.441,560.253C172.121,549.329 141.568,537.781 128.813,510.052C125.428,502.692 123.887,494.699 122.965,486.697C122.099,479.172 119.039,459.065 123.997,452.499C127.942,447.276 146.823,446.55 152.635,446.086C181.957,443.747 211.803,448.211 237.807,462.404" style="fill: rgb(48, 44, 61)" /><path d="M205.469,449.449C204.93,450.054 206.983,450.032 207.708,450.394C209.203,451.14 210.642,452.002 212.051,452.899C216.134,455.5 219.818,458.747 223.506,461.878C234.751,471.428 246.512,483.786 252.486,497.444C257.685,509.329 260.78,521.933 265.594,533.945C268.752,541.827 273.308,548.889 276.718,556.6C279.639,563.208 280.826,570.538 282.666,577.476C282.823,578.066 284.252,584.635 284.971,584.465C285.482,584.345 285.248,581.038 285.244,580.675C285.2,575.917 284.619,571.177 283.981,566.468C281.278,546.53 277.543,526.382 270.085,507.617C261.246,485.378 245.014,469.053 224.72,457.202" style="fill: rgb(148, 125, 155)" /><path d="M142.812,484.26C142.797,484.28 144.128,484.778 144.201,484.806C145.101,485.15 145.993,485.504 146.875,485.895C149.608,487.105 152.299,488.44 154.985,489.753C162.693,493.523 170.115,498.278 176.965,503.43C197.18,518.633 208.903,539.805 218.669,562.675" style="fill: none; stroke: black; stroke-width: 2.1px" /></g><path d="M142.504,463.622C142.504,463.622 194.643,454.998 214.447,461.398C234.252,467.799 250.994,480.539 264.038,506.534C277.083,532.528 286.471,589.73 286.471,589.73C286.471,589.73 204.517,564.953 185.571,553.41C166.624,541.867 155.164,527.687 155.164,527.687L142.504,463.622Z" style="fill: none; stroke: black; stroke-width: 2.1px" /></g></g><path id="shadow" d="M125.253,345.229C138.225,307.599 182.534,284.414 216.187,270.465C319.31,227.724 446.903,227.368 551.448,260.204C594.526,273.734 637.684,291.693 671.995,329.977C682.051,341.197 686.381,308.055 678.124,282.516C646.438,184.507 601.181,61.784 500.085,20.774C312.636,-55.267 120.845,110.44 108.319,309.818" style="fill: rgb(56, 25, 57); fill-opacity: 0.5" /><path d="M400.174,16.652C408.351,16.426 419.578,16.82 434.175,18.796C469.907,23.633 556.254,42.823 591.924,91.047C627.595,139.271 652.508,187.053 664.702,231.131C676.895,275.209 675.93,333.741 675.93,333.741L673.482,349.329C673.482,349.329 664.379,340.776 663.206,337.536C662.033,334.296 657.935,268.344 653.277,246.764C648.62,225.184 630.805,162.992 589.325,114.338C547.845,65.683 505.39,43.853 447.491,35.184C436.941,33.604 419.153,31.924 417.01,31.64C410.414,31.134 404.836,30.909 400.174,30.858C395.513,30.909 389.934,31.133 383.337,31.64C381.194,31.924 363.406,33.604 352.856,35.184C294.957,43.853 252.502,65.683 211.022,114.338C169.542,162.992 151.727,225.184 147.07,246.764C142.413,268.344 138.314,334.296 137.142,337.536C135.969,340.776 126.866,349.329 126.866,349.329L124.418,333.741C124.418,333.741 123.452,275.209 135.646,231.131C147.839,187.053 172.752,139.271 208.423,91.047C244.094,42.823 330.44,23.633 366.173,18.796C380.77,16.82 391.997,16.426 400.174,16.652Z" style="fill: url(#_Linear6)" /><clipPath id="_clip7"><path d="M400.174,16.652C408.351,16.426 419.578,16.82 434.175,18.796C469.907,23.633 556.254,42.823 591.924,91.047C627.595,139.271 652.508,187.053 664.702,231.131C676.895,275.209 675.93,333.741 675.93,333.741L673.482,349.329C673.482,349.329 664.379,340.776 663.206,337.536C662.033,334.296 657.935,268.344 653.277,246.764C648.62,225.184 630.805,162.992 589.325,114.338C547.845,65.683 505.39,43.853 447.491,35.184C436.941,33.604 419.153,31.924 417.01,31.64C410.414,31.134 404.836,30.909 400.174,30.858C395.513,30.909 389.934,31.133 383.337,31.64C381.194,31.924 363.406,33.604 352.856,35.184C294.957,43.853 252.502,65.683 211.022,114.338C169.542,162.992 151.727,225.184 147.07,246.764C142.413,268.344 138.314,334.296 137.142,337.536C135.969,340.776 126.866,349.329 126.866,349.329L124.418,333.741C124.418,333.741 123.452,275.209 135.646,231.131C147.839,187.053 172.752,139.271 208.423,91.047C244.094,42.823 330.44,23.633 366.173,18.796C380.77,16.82 391.997,16.426 400.174,16.652Z" /></clipPath><g clip-path="url(#_clip7)"><path d="M123.334,364.392C123.582,364.193 123.505,361.718 123.534,361.374C123.798,358.235 124.337,355.114 124.827,352.004C126.368,342.233 129.381,332.787 131.264,323.101C131.733,320.692 132.021,318.21 132.243,315.766C132.287,315.279 132.09,313.564 132.441,313.162C132.553,313.034 135.135,316.547 135.288,316.768C137.663,320.213 139.831,323.73 142.007,327.303C142.631,328.327 144.342,330.022 145.268,328.216C147.239,324.373 143.929,319.145 141.974,316.062C137.346,308.763 134.311,300.16 131.706,291.974C131.051,289.917 130.47,287.838 129.829,285.777C129.721,285.428 129.365,283.852 128.762,283.974C127.967,284.136 127.667,286.593 127.552,287.165C126.82,290.802 126.433,294.528 125.998,298.21C125.504,302.396 125.033,306.589 124.617,310.784C123.957,317.435 123.766,324.087 123.354,330.751L123.334,364.392ZM641.912,176.291C641.785,175.479 642.118,177.924 642.161,178.745C642.248,180.385 642.322,182.032 642.341,183.674C642.399,188.618 642.469,193.528 642.179,198.469C641.822,204.533 640.976,210.735 641.654,216.796C642.626,225.492 645.985,233.957 648.615,242.251C648.729,242.608 650.604,248.796 650.734,248.748C651.214,248.57 650.779,244.612 650.762,244.184C650.567,239.197 650.422,234.242 650.545,229.252C650.608,226.685 649.398,216.643 649.632,216.948C652.992,221.327 655.656,233.081 655.656,233.081C659.737,245.624 663.192,260.546 666.007,277.904L668.452,298.327L671.446,305.591L672.143,299.41L671.122,277.27C671.122,277.27 664.505,215.744 650.965,188.976L641.912,176.291ZM131.763,265.429C132.862,259.589 135.085,253.677 136.764,247.959C139.586,238.345 142.243,228.992 146.759,220.019C148.243,217.07 149.639,214.068 151.028,211.073C151.379,210.316 151.961,208.006 152.732,207.549C152.946,207.422 153.802,210.078 153.864,210.264C154.691,212.727 155.481,215.203 156.301,217.669C156.481,218.212 156.899,220.57 157.717,219.451C162.223,213.285 156.709,205.69 154.585,199.824C153.787,197.62 152.996,195.397 152.356,193.141C152.14,192.376 151.928,191.611 151.732,190.841C151.716,190.778 151.478,189.695 151.376,189.754C149.695,190.718 148.528,197.808 147.985,199.484C145.064,208.516 141.636,217.352 138.59,226.338L131.763,265.429ZM154.13,183.432C153.784,183.476 154.386,184.08 154.508,184.406C154.767,185.098 155.019,185.791 155.261,186.489C155.947,188.476 156.614,190.471 157.252,192.473C158.306,195.781 159.279,199.113 160.312,202.427C160.452,202.877 161.027,205.541 161.892,205.166C163.295,204.557 163.825,200.524 164.218,199.245C166.623,191.423 165.435,187.607 163.123,179.854C162.834,178.884 161.651,172.241 160.411,172.078C159.04,171.899 157.403,176.278 157.006,177.131L154.13,183.432ZM539.183,54.897C538.734,54.627 539.55,61.326 539.698,62.202C540.473,66.793 540.744,72.826 543.959,76.455C544.597,77.174 546.796,79.662 548.006,79.115C548.929,78.698 544.725,73.781 544.522,73.169C542.303,66.496 541.198,57.792 539.429,51.341L539.183,54.897ZM452.063,23.696C467.697,32.223 489.805,34.568 504.402,44.666C508.661,47.612 506.767,54.373 510.957,57.745C515.204,61.164 520.795,62.83 525.627,65.248C526.898,65.884 529.793,68.109 531.409,67.771C532.587,67.525 531.392,63.259 531.266,62.657C530.126,57.198 529.723,51.326 525.948,46.929C515.465,34.72 495.176,29.283 480.243,25.597L452.063,23.696ZM282.353,43.993C281.848,43.71 282.439,45.148 282.527,45.721C282.695,46.824 282.959,47.91 283.217,48.996C283.698,51.024 284.76,61.107 289.042,58.751C294.359,55.827 289.828,47.982 290.42,42.909C290.635,41.075 292.31,36.871 291.303,35.163C290.57,33.92 287.822,34.918 286.816,35.19L282.353,43.993Z" style="fill: white" /></g><path d="M400.174,16.652C408.351,16.426 419.578,16.82 434.175,18.796C469.907,23.633 556.254,42.823 591.924,91.047C627.595,139.271 652.508,187.053 664.702,231.131C676.895,275.209 675.93,333.741 675.93,333.741L673.482,349.329C673.482,349.329 664.379,340.776 663.206,337.536C662.033,334.296 657.935,268.344 653.277,246.764C648.62,225.184 630.805,162.992 589.325,114.338C547.845,65.683 505.39,43.853 447.491,35.184C436.941,33.604 419.153,31.924 417.01,31.64C410.414,31.134 404.836,30.909 400.174,30.858C395.513,30.909 389.934,31.133 383.337,31.64C381.194,31.924 363.406,33.604 352.856,35.184C294.957,43.853 252.502,65.683 211.022,114.338C169.542,162.992 151.727,225.184 147.07,246.764C142.413,268.344 138.314,334.296 137.142,337.536C135.969,340.776 126.866,349.329 126.866,349.329L124.418,333.741C124.418,333.741 123.452,275.209 135.646,231.131C147.839,187.053 172.752,139.271 208.423,91.047C244.094,42.823 330.44,23.633 366.173,18.796C380.77,16.82 391.997,16.426 400.174,16.652Z" style="fill: none; stroke: black; stroke-width: 2.1px" /><g id="side-lights"><path d="M668.678,147.311C668.678,147.311 705.052,155.787 709.495,158.331C713.938,160.874 727.519,181.254 730.14,185.435C732.761,189.616 742.363,213.334 737.18,276.128C733.778,307.381 730.273,316.474 727.956,319.94C725.639,323.405 701.914,324.041 686.688,319.399C671.462,314.757 681.492,223.604 675.841,195.927C670.19,168.25 668.678,147.311 668.678,147.311Z" style="fill: rgb(41, 170, 225)" /><clipPath id="_clip8"><path d="M668.678,147.311C668.678,147.311 705.052,155.787 709.495,158.331C713.938,160.874 727.519,181.254 730.14,185.435C732.761,189.616 742.363,213.334 737.18,276.128C733.778,307.381 730.273,316.474 727.956,319.94C725.639,323.405 701.914,324.041 686.688,319.399C671.462,314.757 681.492,223.604 675.841,195.927C670.19,168.25 668.678,147.311 668.678,147.311Z" /></clipPath><g clip-path="url(#_clip8)"><path d="M638.864,143.384C638.377,143.431 639.801,143.67 640.275,143.792C641.319,144.062 642.357,144.358 643.391,144.66C646.353,145.528 649.322,146.381 652.278,147.267C661.047,149.897 669.589,153.086 678.242,156.047C689.169,159.788 699.497,164.1 708.54,171.472C713.295,175.348 716.734,181.87 721.966,184.92C725.532,186.999 730.274,187.918 734.193,189.135C735.154,189.434 737.643,190.534 738.354,189.26C739.538,187.136 737.056,183.13 736.098,181.403C732.163,174.312 726.724,168.052 720.76,162.604C702.332,145.773 680.488,140.357 656.277,138.088C649.961,137.496 640.494,134.422 634.436,137.263" style="fill: rgb(141, 241, 254)" /><path d="M652.927,173.71C653.748,175.011 660.621,175.105 662.009,175.295C671.288,176.565 678.011,177.281 687.349,177.968C701.112,178.979 716.165,179.669 729.043,184.723C741.4,189.573 749.63,200.97 755.23,216.881C763.808,241.253 762.12,270.676 756.57,295.465C753.896,307.409 750.021,319.569 741.522,328.723C730.707,340.371 715.45,342.181 700.342,341.242C671.38,339.44 644.361,329.243 630.255,302.27C619.72,282.125 617.548,258.188 617.567,235.82" style="fill: rgb(251, 176, 59)" /><clipPath id="_clip9"><path d="M652.927,173.71C653.748,175.011 660.621,175.105 662.009,175.295C671.288,176.565 678.011,177.281 687.349,177.968C701.112,178.979 716.165,179.669 729.043,184.723C741.4,189.573 749.63,200.97 755.23,216.881C763.808,241.253 762.12,270.676 756.57,295.465C753.896,307.409 750.021,319.569 741.522,328.723C730.707,340.371 715.45,342.181 700.342,341.242C671.38,339.44 644.361,329.243 630.255,302.27C619.72,282.125 617.548,258.188 617.567,235.82" /></clipPath><g clip-path="url(#_clip9)"><path d="M657.317,177.056C666.952,179.192 676.998,180.157 686.741,181.931C693.21,183.109 699.638,184.907 705.967,186.673C710.017,187.804 714.075,188.961 717.976,190.543C719.916,191.329 722.191,192.182 723.578,193.832C725.803,196.477 726.25,200.66 726.814,203.924C728.056,211.104 728.851,218.372 729.285,225.645C730.465,245.438 729.466,265.165 727.529,284.874C726.85,291.784 726.118,298.864 724.202,305.56C723.24,308.921 721.653,312.164 719.023,314.598C716.856,316.602 702.653,320.698 695.347,323.029C692.392,323.972 719.649,343.773 740.881,340.609C749.53,339.32 752.265,223.973 741.36,172.695C739.32,163.102 652.797,175.817 649.751,171.875" style="fill: rgb(250, 233, 171)" /></g><path d="M652.927,173.71C653.748,175.011 660.621,175.105 662.009,175.295C671.288,176.565 678.011,177.281 687.349,177.968C701.112,178.979 716.165,179.669 729.043,184.723C741.4,189.573 749.63,200.97 755.23,216.881C763.808,241.253 762.12,270.676 756.57,295.465C753.896,307.409 750.021,319.569 741.522,328.723C730.707,340.371 715.45,342.181 700.342,341.242C671.38,339.44 644.361,329.243 630.255,302.27C619.72,282.125 617.548,258.188 617.567,235.82" style="fill: none; stroke: black; stroke-width: 2.1px" /><g transform="matrix(0.993845,0,0,0.946315,15.1025,12.0637)"><ellipse cx="700.174" cy="208.763" rx="11.084" ry="15.982" style="fill: white; stroke: black; stroke-width: 2.05px" /></g><g transform="matrix(1.01306,0.0160516,-0.0159021,1.00363,5.38965,52.3803)"><ellipse cx="700.174" cy="208.763" rx="11.084" ry="15.982" style="fill: white; stroke: black; stroke-width: 2.05px" /></g></g><path d="M668.678,147.311C668.678,147.311 705.052,155.787 709.495,158.331C713.938,160.874 727.519,181.254 730.14,185.435C732.761,189.616 742.363,213.334 737.18,276.128C733.778,307.381 730.273,316.474 727.956,319.94C725.639,323.405 701.914,324.041 686.688,319.399C671.462,314.757 681.492,223.604 675.841,195.927C670.19,168.25 668.678,147.311 668.678,147.311Z" style="fill: none; stroke: black; stroke-width: 2.1px" /><g transform="matrix(-1,0,0,1,800.223,0)"><path d="M668.678,147.311C668.678,147.311 705.052,155.787 709.495,158.331C713.938,160.874 727.519,181.254 730.14,185.435C732.761,189.616 742.363,213.334 737.18,276.128C733.778,307.381 730.273,316.474 727.956,319.94C725.639,323.405 701.914,324.041 686.688,319.399C671.462,314.757 681.492,223.604 675.841,195.927C670.19,168.25 668.678,147.311 668.678,147.311Z" style="fill: rgb(41, 170, 225)" /><clipPath id="_clip10"><path d="M668.678,147.311C668.678,147.311 705.052,155.787 709.495,158.331C713.938,160.874 727.519,181.254 730.14,185.435C732.761,189.616 742.363,213.334 737.18,276.128C733.778,307.381 730.273,316.474 727.956,319.94C725.639,323.405 701.914,324.041 686.688,319.399C671.462,314.757 681.492,223.604 675.841,195.927C670.19,168.25 668.678,147.311 668.678,147.311Z" /></clipPath><g clip-path="url(#_clip10)"><path d="M638.864,143.384C638.377,143.431 639.801,143.67 640.275,143.792C641.319,144.062 642.357,144.358 643.391,144.66C646.353,145.528 649.322,146.381 652.278,147.267C661.047,149.897 669.589,153.086 678.242,156.047C689.169,159.788 699.497,164.1 708.54,171.472C713.295,175.348 716.734,181.87 721.966,184.92C725.532,186.999 730.274,187.918 734.193,189.135C735.154,189.434 737.643,190.534 738.354,189.26C739.538,187.136 737.056,183.13 736.098,181.403C732.163,174.312 726.724,168.052 720.76,162.604C702.332,145.773 680.488,140.357 656.277,138.088C649.961,137.496 640.494,134.422 634.436,137.263" style="fill: rgb(141, 241, 254)" /><path d="M652.927,173.71C653.748,175.011 660.621,175.105 662.009,175.295C671.288,176.565 678.011,177.281 687.349,177.968C701.112,178.979 716.165,179.669 729.043,184.723C741.4,189.573 749.63,200.97 755.23,216.881C763.808,241.253 762.12,270.676 756.57,295.465C753.896,307.409 750.021,319.569 741.522,328.723C730.707,340.371 715.45,342.181 700.342,341.242C671.38,339.44 644.361,329.243 630.255,302.27C619.72,282.125 617.548,258.188 617.567,235.82" style="fill: rgb(251, 176, 59)" /><clipPath id="_clip11"><path d="M652.927,173.71C653.748,175.011 660.621,175.105 662.009,175.295C671.288,176.565 678.011,177.281 687.349,177.968C701.112,178.979 716.165,179.669 729.043,184.723C741.4,189.573 749.63,200.97 755.23,216.881C763.808,241.253 762.12,270.676 756.57,295.465C753.896,307.409 750.021,319.569 741.522,328.723C730.707,340.371 715.45,342.181 700.342,341.242C671.38,339.44 644.361,329.243 630.255,302.27C619.72,282.125 617.548,258.188 617.567,235.82" /></clipPath><g clip-path="url(#_clip11)"><path d="M657.317,177.056C666.952,179.192 676.998,180.157 686.741,181.931C693.21,183.109 699.638,184.907 705.967,186.673C710.017,187.804 714.075,188.961 717.976,190.543C719.916,191.329 722.191,192.182 723.578,193.832C725.803,196.477 726.25,200.66 726.814,203.924C728.056,211.104 728.851,218.372 729.285,225.645C730.465,245.438 729.466,265.165 727.529,284.874C726.85,291.784 726.118,298.864 724.202,305.56C723.24,308.921 721.653,312.164 719.023,314.598C716.856,316.602 702.653,320.698 695.347,323.029C692.392,323.972 719.649,343.773 740.881,340.609C749.53,339.32 752.265,223.973 741.36,172.695C739.32,163.102 652.797,175.817 649.751,171.875" style="fill: rgb(250, 233, 171)" /></g><path d="M652.927,173.71C653.748,175.011 660.621,175.105 662.009,175.295C671.288,176.565 678.011,177.281 687.349,177.968C701.112,178.979 716.165,179.669 729.043,184.723C741.4,189.573 749.63,200.97 755.23,216.881C763.808,241.253 762.12,270.676 756.57,295.465C753.896,307.409 750.021,319.569 741.522,328.723C730.707,340.371 715.45,342.181 700.342,341.242C671.38,339.44 644.361,329.243 630.255,302.27C619.72,282.125 617.548,258.188 617.567,235.82" style="fill: none; stroke: black; stroke-width: 2.1px" /><g transform="matrix(0.993845,0,0,0.946315,15.1025,12.0637)"><ellipse cx="700.174" cy="208.763" rx="11.084" ry="15.982" style="fill: white; stroke: black; stroke-width: 2.05px" /></g><g transform="matrix(1.01306,0.0160516,-0.0159021,1.00363,5.38965,52.3803)"><ellipse cx="700.174" cy="208.763" rx="11.084" ry="15.982" style="fill: white; stroke: black; stroke-width: 2.05px" /></g></g><path d="M668.678,147.311C668.678,147.311 705.052,155.787 709.495,158.331C713.938,160.874 727.519,181.254 730.14,185.435C732.761,189.616 742.363,213.334 737.18,276.128C733.778,307.381 730.273,316.474 727.956,319.94C725.639,323.405 701.914,324.041 686.688,319.399C671.462,314.757 681.492,223.604 675.841,195.927C670.19,168.25 668.678,147.311 668.678,147.311Z" style="fill: none; stroke: black; stroke-width: 2.1px" /></g></g><path d="M400.157,-21.314C404.712,-21.406 407.346,-21.372 407.346,-21.372L407.347,-21.102C416.718,-20.741 429.837,-19.917 444.16,-18.057C466.194,-15.196 524.413,-7.518 579.868,35.514C635.323,78.546 675.923,134.217 686.985,216.31C698.048,298.404 684.476,398.749 674.837,436.741C665.198,474.733 642.799,533.553 642.799,533.553L630.415,564.345L618.767,567.876C632.424,537.898 651.659,482.83 664.039,405.838C683.886,282.407 656.53,195.626 610.811,128.803C565.288,62.265 510.307,41.801 470.943,31.648C446.477,25.337 418.127,23.561 400.157,23.428C382.188,23.561 353.835,25.328 329.371,31.648C290.046,41.806 235.865,62.827 189.503,128.803C142.829,195.224 115.765,282.257 136.276,405.838C149.043,482.766 167.891,537.898 181.548,567.876L169.9,564.345L157.516,533.553C157.516,533.553 135.116,474.733 125.478,436.741C115.839,398.749 102.267,298.404 113.329,216.31C124.392,134.217 164.992,78.546 220.447,35.514C275.902,-7.518 334.121,-15.196 356.155,-18.057C370.478,-19.917 383.597,-20.741 392.968,-21.102L392.969,-21.372C392.969,-21.372 395.602,-21.406 400.157,-21.314Z" style="fill: rgb(207, 225, 237)" /><clipPath id="_clip12"><path d="M400.157,-21.314C404.712,-21.406 407.346,-21.372 407.346,-21.372L407.347,-21.102C416.718,-20.741 429.837,-19.917 444.16,-18.057C466.194,-15.196 524.413,-7.518 579.868,35.514C635.323,78.546 675.923,134.217 686.985,216.31C698.048,298.404 684.476,398.749 674.837,436.741C665.198,474.733 642.799,533.553 642.799,533.553L630.415,564.345L618.767,567.876C632.424,537.898 651.659,482.83 664.039,405.838C683.886,282.407 656.53,195.626 610.811,128.803C565.288,62.265 510.307,41.801 470.943,31.648C446.477,25.337 418.127,23.561 400.157,23.428C382.188,23.561 353.835,25.328 329.371,31.648C290.046,41.806 235.865,62.827 189.503,128.803C142.829,195.224 115.765,282.257 136.276,405.838C149.043,482.766 167.891,537.898 181.548,567.876L169.9,564.345L157.516,533.553C157.516,533.553 135.116,474.733 125.478,436.741C115.839,398.749 102.267,298.404 113.329,216.31C124.392,134.217 164.992,78.546 220.447,35.514C275.902,-7.518 334.121,-15.196 356.155,-18.057C370.478,-19.917 383.597,-20.741 392.968,-21.102L392.969,-21.372C392.969,-21.372 395.602,-21.406 400.157,-21.314Z" /></clipPath><g clip-path="url(#_clip12)"><path d="M343.461,6.686C357.717,2.332 406.644,2.183 407.549,2.153C430.038,1.397 449.119,5.535 471.102,10.396C476.184,11.52 490.408,16.706 490.408,16.706C490.408,16.706 491.842,25.351 498.728,27.645C507.986,30.729 510.411,24.69 512.717,25.93C563.542,53.288 599.064,85.493 624.637,127.327C678.982,216.229 685.471,337.604 664.976,435.133C658.644,465.264 648.033,500.986 638.82,530.303C637.658,534.002 611.259,614.134 608.243,593.437C606.993,584.86 616.427,528.917 614.811,521.585C609.701,498.408 605.337,475.073 600.179,451.904C582.29,371.541 559.505,291.185 522.513,217.343C503.336,179.064 480.31,143.073 453.646,109.602C438.561,90.666 420.757,71.727 405.922,51.363C402.883,67.975 397.884,83.114 389.855,102.161C386.225,110.773 382.469,119.329 378.625,127.847C373.269,139.712 367.788,151.52 362.25,163.302C322.277,248.337 281.752,333.192 246.355,420.271C234.5,449.435 206.519,508.797 204.804,541.152C203.501,565.743 214.926,590.79 219.53,614.633L196.428,600.573C190.983,595.854 187.88,585.464 184.661,579.191C175.174,560.703 166.263,541.394 159.909,521.588C135.137,444.372 120.692,358.327 120.328,277.228C120.198,248.178 122.045,217.802 129.353,189.569C131.835,179.979 134.063,170.125 137.696,160.889C139.217,157.022 144.622,147.79 144.622,147.79C144.622,147.79 140.374,168.009 146.816,166.68C158.864,164.195 169.936,144.923 167.627,133.287C167.182,131.041 165.78,128.363 163.568,127.445C163.043,127.227 159.574,127.272 159.713,126.814C163.462,114.408 189.579,89.907 199.325,81.688C241.523,46.095 290.905,22.738 343.461,6.686Z" style="fill: rgb(111, 125, 160)" /><path d="M151.989,523.792C152.03,523.747 152.021,523.704 152.007,523.642C149.956,514.328 145.854,505.211 142.913,496.16C134.112,469.08 129.085,441.362 124.948,413.244C111.675,323.035 99.4,222.697 144.623,138.862C183.061,67.606 267.582,10.31 347.875,-3.291C370.591,-7.139 387.795,-10.248 410.703,-9.258C427.161,-8.547 449.526,-5.992 465.701,-2.151C529.406,12.979 602.009,64.814 641.77,115.928C693.951,183.009 692.379,303.687 679.337,383.837C674.747,412.046 671.587,440.56 664.265,468.226C661.738,477.772 658.851,487.219 656.318,496.762C656.022,497.878 652.372,512.319 653.6,512.149C656.069,511.808 665.971,487.565 667.023,484.966C679.711,453.612 689.191,420.954 698.201,388.391C729.947,273.662 760.314,123.798 671.742,25.522C607.781,-45.446 503.961,-72.662 412.119,-76.789C371.696,-78.606 331.033,-77.791 292.421,-64.352C233.181,-43.732 175.415,2.632 139.38,53.541C45.543,186.109 51.708,366.391 133.161,502.863" style="fill: white" /></g><path d="M400.157,-21.314C404.712,-21.406 407.346,-21.372 407.346,-21.372L407.347,-21.102C416.718,-20.741 429.837,-19.917 444.16,-18.057C466.194,-15.196 524.413,-7.518 579.868,35.514C635.323,78.546 675.923,134.217 686.985,216.31C698.048,298.404 684.476,398.749 674.837,436.741C665.198,474.733 642.799,533.553 642.799,533.553L630.415,564.345L618.767,567.876C632.424,537.898 651.659,482.83 664.039,405.838C683.886,282.407 656.53,195.626 610.811,128.803C565.288,62.265 510.307,41.801 470.943,31.648C446.477,25.337 418.127,23.561 400.157,23.428C382.188,23.561 353.835,25.328 329.371,31.648C290.046,41.806 235.865,62.827 189.503,128.803C142.829,195.224 115.765,282.257 136.276,405.838C149.043,482.766 167.891,537.898 181.548,567.876L169.9,564.345L157.516,533.553C157.516,533.553 135.116,474.733 125.478,436.741C115.839,398.749 102.267,298.404 113.329,216.31C124.392,134.217 164.992,78.546 220.447,35.514C275.902,-7.518 334.121,-15.196 356.155,-18.057C370.478,-19.917 383.597,-20.741 392.968,-21.102L392.969,-21.372C392.969,-21.372 395.602,-21.406 400.157,-21.314Z" style="fill: none; stroke: black; stroke-width: 2.1px" /></g></g><defs><linearGradient id="_Linear6" x1="0" y1="0" x2="1" y2="0" gradientUnits="userSpaceOnUse" gradientTransform="matrix(-538.2,58.6485,-58.6485,-538.2,669.329,279.52)"><stop offset="0" style="stop-color: rgb(237, 30, 121); stop-opacity: 1" /><stop offset="0.16" style="stop-color: rgb(11, 183, 255); stop-opacity: 1" /><stop offset="0.44" style="stop-color: rgb(251, 176, 59); stop-opacity: 1" /><stop offset="0.67" style="stop-color: rgb(241, 90, 36); stop-opacity: 1" /><stop offset="0.87" style="stop-color: rgb(145, 58, 231); stop-opacity: 1" /><stop offset="1" style="stop-color: rgb(251, 176, 59); stop-opacity: 1" /></linearGradient></defs></pattern><g transform="matrix(1,0,0,1,7.6296,-2.65748)"><text x="263.72px" y="53.076px" style="font-family: 'Futura-Medium', 'Futura', sans-serif; font-weight: 500; font-size: 50px; fill: white">SEASON 0</text></g></g><defs><linearGradient id="_Linear3_card_template" x1="0" y1="0" x2="1" y2="0" gradientUnits="userSpaceOnUse" gradientTransform="matrix(3.89688e-14,-610.267,636.408,3.73681e-14,398.243,614.74)"><stop offset="0" style="stop-color: rgb(80, 225, 255); stop-opacity: 1" /><stop offset="0.44" style="stop-color: rgb(219, 249, 255); stop-opacity: 1" /><stop offset="1" style="stop-color: white; stop-opacity: 1" /></linearGradient><g id="heli-cap"><path id="Shadow" d="M404.234,215.129C428.898,218.296 500.585,226.535 542.136,238.146C592.982,252.354 584.265,253.34 584.265,253.34L550.569,247.259L542.493,305.294C542.493,305.294 541.37,323.811 530.272,331.323C519.173,338.835 479.09,333.357 447.17,329.124C424.063,326.059 407.352,325.468 399.884,325.376C392.417,325.468 375.705,326.059 352.598,329.124C320.678,333.357 280.595,338.835 269.497,331.323C258.398,323.811 257.275,305.294 257.275,305.294L249.199,247.259L215.503,253.34C215.503,253.34 207.131,252.297 257.976,238.089C299.527,226.479 370.87,218.296 395.534,215.129L395.534,214.041C395.534,214.041 397.081,214.225 399.884,214.577C402.687,214.225 404.234,214.041 404.234,214.041L404.234,215.129Z" style="fill: rgb(56, 25, 57); fill-opacity: 0.5" /><g id="fan-bit"><path d="M395.662,27.087C395.662,27.087 305.36,21.898 297.195,21.931C289.03,21.964 217.675,23.635 219.953,27.087C222.232,30.54 246.78,39.059 264.821,40.14C282.862,41.221 395.662,31.814 395.662,31.814L395.662,27.087Z" style="fill: rgb(255, 223, 92)" /><clipPath id="_clip1_helicap"><path d="M395.662,27.087C395.662,27.087 305.36,21.898 297.195,21.931C289.03,21.964 217.675,23.635 219.953,27.087C222.232,30.54 246.78,39.059 264.821,40.14C282.862,41.221 395.662,31.814 395.662,31.814L395.662,27.087Z" /></clipPath><g clip-path="url(#_clip1_helicap)"><path d="M225.045,30.993C224.466,30.556 226.493,31.072 227.216,31.134C228.615,31.253 230.015,31.49 231.402,31.711C235.56,32.373 239.679,33.266 243.832,33.951C256.481,36.039 268.516,36.65 281.321,35.92C311.507,34.198 341.744,31.992 371.953,30.788C378.744,30.517 385.563,29.762 392.361,29.793C393.154,29.796 398.369,29.49 398.481,30.879C398.643,32.871 390.787,34.056 389.713,34.297C379.34,36.621 368.638,37.688 358.071,38.674C335.223,40.808 312.31,42.38 289.381,43.297C269.861,44.077 249.889,44.568 231.024,38.676" style="fill: rgb(160, 127, 79)" /><path d="M221.982,34.549C221.357,34.464 223.132,34.023 223.728,33.816C224.969,33.385 226.236,33.022 227.503,32.675C231.207,31.658 234.941,30.706 238.7,29.914C250.216,27.49 261.202,27.44 272.971,27.087C304.553,26.141 336.842,27.518 368.406,28.034C376.092,28.159 383.776,28.339 391.464,28.358C393.343,28.363 395.23,28.409 397.107,28.295C397.365,28.279 398.648,28.328 398.721,27.932C398.808,27.454 397.199,26.951 396.934,26.847C394.602,25.938 392.138,25.344 389.71,24.758C378.824,22.128 367.743,20.21 356.698,18.389C320.376,12.401 283.559,9.397 247.002,15.239C236.346,16.943 224.953,18.817 215.008,23.192C211.62,24.682 204.696,29.027 210.51,32.198" style="fill: rgb(254, 239, 171)" /></g><path d="M395.662,27.087C395.662,27.087 305.36,21.898 297.195,21.931C289.03,21.964 217.675,23.635 219.953,27.087C222.232,30.54 246.78,39.059 264.821,40.14C282.862,41.221 395.662,31.814 395.662,31.814L395.662,27.087Z" style="fill: none; stroke: black; stroke-width: 2.1px" /><g transform="matrix(-1,0,0,1,800.877,0)"><path d="M395.662,27.087C395.662,27.087 305.36,21.898 297.195,21.931C289.03,21.964 217.675,23.635 219.953,27.087C222.232,30.54 246.78,39.059 264.821,40.14C282.862,41.221 395.662,31.814 395.662,31.814L395.662,27.087Z" style="fill: rgb(255, 223, 92)" /><clipPath id="_clip2_helicap"><path d="M395.662,27.087C395.662,27.087 305.36,21.898 297.195,21.931C289.03,21.964 217.675,23.635 219.953,27.087C222.232,30.54 246.78,39.059 264.821,40.14C282.862,41.221 395.662,31.814 395.662,31.814L395.662,27.087Z" /></clipPath><g clip-path="url(#_clip2_helicap)"><path d="M225.045,30.993C224.466,30.556 226.493,31.072 227.216,31.134C228.615,31.253 230.015,31.49 231.402,31.711C235.56,32.373 239.679,33.266 243.832,33.951C256.481,36.039 268.516,36.65 281.321,35.92C311.507,34.198 341.744,31.992 371.953,30.788C378.744,30.517 385.563,29.762 392.361,29.793C393.154,29.796 398.369,29.49 398.481,30.879C398.643,32.871 390.787,34.056 389.713,34.297C379.34,36.621 368.638,37.688 358.071,38.674C335.223,40.808 312.31,42.38 289.381,43.297C269.861,44.077 249.889,44.568 231.024,38.676" style="fill: rgb(160, 127, 79)" /><path d="M221.982,34.549C221.357,34.464 223.132,34.023 223.728,33.816C224.969,33.385 226.236,33.022 227.503,32.675C231.207,31.658 234.941,30.706 238.7,29.914C250.216,27.49 261.202,27.44 272.971,27.087C304.553,26.141 336.842,27.518 368.406,28.034C376.092,28.159 383.776,28.339 391.464,28.358C393.343,28.363 395.23,28.409 397.107,28.295C397.365,28.279 398.648,28.328 398.721,27.932C398.808,27.454 397.199,26.951 396.934,26.847C394.602,25.938 392.138,25.344 389.71,24.758C378.824,22.128 367.743,20.21 356.698,18.389C320.376,12.401 283.559,9.397 247.002,15.239C236.346,16.943 224.953,18.817 215.008,23.192C211.62,24.682 204.696,29.027 210.51,32.198" style="fill: rgb(254, 239, 171)" /></g><path d="M395.662,27.087C395.662,27.087 305.36,21.898 297.195,21.931C289.03,21.964 217.675,23.635 219.953,27.087C222.232,30.54 246.78,39.059 264.821,40.14C282.862,41.221 395.662,31.814 395.662,31.814L395.662,27.087Z" style="fill: none; stroke: black; stroke-width: 2.1px" /></g><path d="M395.662,36.495L395.751,21.86C395.751,21.86 396.109,18.084 399.915,17.68C399.926,17.679 399.937,17.679 399.948,17.68C399.959,17.679 399.971,17.679 399.982,17.68C403.788,18.084 404.145,21.86 404.145,21.86L404.234,36.495L395.662,36.495Z" style="fill: rgb(255, 223, 92)" /><clipPath id="_clip3_helicap"><path d="M395.662,36.495L395.751,21.86C395.751,21.86 396.109,18.084 399.915,17.68C399.926,17.679 399.937,17.679 399.948,17.68C399.959,17.679 399.971,17.679 399.982,17.68C403.788,18.084 404.145,21.86 404.145,21.86L404.234,36.495L395.662,36.495Z" /></clipPath><g clip-path="url(#_clip3_helicap)"><path d="M396.408,29.617C396.622,29.65 396.458,29.188 396.499,28.976C396.586,28.528 396.7,28.084 396.829,27.647C397.214,26.343 397.757,24.643 399.011,23.909C400.932,22.783 402.315,25.251 402.895,26.692C403,26.952 403.771,29.292 403.827,29.257C404.439,28.867 404.137,25.96 404.128,25.393C404.091,23.044 404.028,20.205 402.607,18.211C400.488,15.235 397.048,17.454 396.012,20.143C395.592,21.235 395.43,22.372 395.383,23.535C395.31,25.354 395.397,27.164 395.535,28.977" style="fill: rgb(254, 239, 171)" /><path d="M397.685,37.145C397.749,37.229 397.921,36.235 397.982,35.601C398.159,33.772 398.137,29.726 398.588,28.438C398.797,27.841 399.356,26.99 400.104,27.024C400.945,27.062 401.459,28.117 401.604,28.989C401.909,30.833 402.046,33.45 402.211,35.31C402.242,35.657 402.318,36.883 402.038,37.169C401.738,37.475 401.072,37.264 400.699,37.246" style="fill: rgb(160, 127, 79)" /></g><path d="M395.662,36.495L395.751,21.86C395.751,21.86 396.109,18.084 399.915,17.68C399.926,17.679 399.937,17.679 399.948,17.68C399.959,17.679 399.971,17.679 399.982,17.68C403.788,18.084 404.145,21.86 404.145,21.86L404.234,36.495L395.662,36.495Z" style="fill: none; stroke: black; stroke-width: 2.1px" /></g><g id="Cap"><g transform="matrix(1,0,0,1.17244,0.492122,-13.9146)"><ellipse cx="399.645" cy="49.941" rx="13.8" ry="6.946" style="fill: rgb(235, 65, 81)" /><clipPath id="_clip4"><ellipse cx="399.645" cy="49.941" rx="13.8" ry="6.946" /></clipPath><g clip-path="url(#_clip4)"><g transform="matrix(1,0,0,0.85292,-0.492122,11.868)"><path d="M401.096,36.072C401.204,36.209 400.782,36.223 400.629,36.306C400.317,36.474 400.014,36.659 399.719,36.855C398.851,37.433 397.984,38.08 397.247,38.82C396.394,39.676 395.756,40.729 395.141,41.761C394.702,42.5 394.314,43.34 393.452,43.653C391.461,44.376 388.942,43.894 386.882,43.762C386.382,43.73 384.99,43.751 384.867,43.052C384.762,42.453 385.534,41.728 385.889,41.348C387.186,39.958 388.811,38.787 390.491,37.908C392.195,37.015 394.026,36.518 395.915,36.2L401.096,36.072ZM400.846,37.102C400.704,37.107 401.084,37.26 401.196,37.348C401.422,37.524 401.643,37.71 401.856,37.901C402.508,38.488 403.129,39.093 403.652,39.801C404.274,40.64 404.859,41.926 405.729,42.523C406.892,43.323 409.006,43.103 410.336,43.246C410.947,43.312 412.812,43.875 413.279,43.263C413.926,42.417 412.056,40.88 411.571,40.433C409.234,38.282 406.484,36.91 403.337,36.446L400.846,37.102Z" style="fill: rgb(245, 180, 162)" /></g></g><ellipse cx="399.645" cy="49.941" rx="13.8" ry="6.946" style="fill: none; stroke: black; stroke-width: 1.93px" /></g><path d="M397.676,42.89C398.239,42.681 401.591,42.681 402.153,42.89C501.816,49.249 562.727,112.371 575.583,128.609C598.099,165.571 588.808,253.34 588.808,253.34L550.413,240.154C501.393,225.168 450.081,213.936 399.915,213.936C349.748,213.936 298.436,225.168 249.416,240.154L211.021,253.34C211.021,253.34 201.73,165.571 224.246,128.609C237.102,112.371 298.013,49.249 397.676,42.89Z" style="fill: url(#_Linear5)" /><clipPath id="_clip6"><path d="M397.676,42.89C398.239,42.681 401.591,42.681 402.153,42.89C501.816,49.249 562.727,112.371 575.583,128.609C598.099,165.571 588.808,253.34 588.808,253.34L550.413,240.154C501.393,225.168 450.081,213.936 399.915,213.936C349.748,213.936 298.436,225.168 249.416,240.154L211.021,253.34C211.021,253.34 201.73,165.571 224.246,128.609C237.102,112.371 298.013,49.249 397.676,42.89Z" /></clipPath><g clip-path="url(#_clip6)"><path d="M249.199,239.63C249.199,239.63 253.866,164.607 268.912,136.528C283.959,108.45 312.705,85.883 333.536,71.098C354.368,56.313 390.641,43.187 390.777,43.294C390.913,43.4 396.586,42.578 396.586,42.578C396.586,42.578 374.576,62.921 364.35,92.142C354.124,121.362 346.116,161.226 347.318,218.647C340.968,218.814 275.527,230.905 267.561,234.361C259.596,237.818 249.199,239.63 249.199,239.63ZM551.074,239.63C551.074,239.63 546.408,164.607 531.361,136.528C516.315,108.45 487.569,85.883 466.737,71.098C445.905,56.313 409.632,43.187 409.496,43.294C409.361,43.4 403.687,42.578 403.687,42.578C403.687,42.578 425.697,62.921 435.923,92.142C446.149,121.362 454.157,161.226 452.955,218.647C459.305,218.814 524.746,230.905 532.712,234.361C540.678,237.818 551.074,239.63 551.074,239.63Z" style="fill: url(#_Linear7)" /><path d="M386.51,40.023C386.149,40.084 385.678,40.219 385.621,40.231C382.237,40.915 378.883,41.767 375.538,42.617C363.669,45.633 355.109,49.217 343.932,54.254C303.045,72.682 247.542,103.044 231.39,146.585C222.965,169.296 223.688,209.652 225.073,237.051C225.43,244.108 227.418,247.931 226.532,254.956C225.78,260.918 213.933,261.098 210.297,258.578C204.079,254.269 201.397,245.103 200.242,238.083C197.333,220.407 199.714,201.275 201.542,183.602C203.778,161.983 208.463,138.497 220.356,119.889C230.231,104.439 245.732,92.839 260.744,82.753C294.17,60.297 333.806,42.68 374.377,39.606L386.51,40.023ZM413.666,40.023C414.027,40.084 414.499,40.219 414.555,40.231C417.94,40.915 421.293,41.767 424.639,42.617C436.507,45.633 445.067,49.217 456.244,54.254C497.131,72.682 552.634,103.044 568.786,146.585C577.211,169.296 576.488,209.652 575.104,237.051C574.747,244.108 572.758,247.931 573.644,254.956C574.396,260.918 586.243,261.098 589.88,258.578C596.098,254.269 598.779,245.103 599.934,238.083C602.844,220.407 600.463,201.275 598.635,183.602C596.398,161.983 591.713,138.497 579.82,119.889C569.946,104.439 554.444,92.839 539.432,82.753C506.007,60.297 466.371,42.68 425.8,39.606L413.666,40.023ZM386.51,40.023L386.927,40.038C386.903,39.978 386.727,39.987 386.51,40.023ZM413.666,40.023L413.25,40.038C413.273,39.978 413.45,39.987 413.666,40.023Z" style="fill: rgb(245, 180, 162)" /><path d="M249.586,240.272C249.586,240.272 250.164,154.307 278.814,120.051C307.465,85.795 350.156,54.702 391.1,43.408" style="fill: none; stroke: black; stroke-width: 2.1px" /><g transform="matrix(-1,0,0,1,799.538,0)"><path d="M249.586,240.272C249.586,240.272 250.164,154.307 278.814,120.051C307.465,85.795 350.442,54.751 391.387,43.457" style="fill: none; stroke: black; stroke-width: 2.1px" /></g><path d="M347.158,217.127C347.158,217.127 347.667,120.455 367.04,84.844C386.412,49.233 394.933,43.753 394.933,43.753" style="fill: none; stroke: black; stroke-width: 2.1px" /><g transform="matrix(-1,0,0,1,799.538,0)"><path d="M347.158,217.127C347.158,217.127 347.667,120.455 367.04,84.844C386.412,49.233 394.933,43.753 394.933,43.753" style="fill: none; stroke: black; stroke-width: 2.1px" /></g></g><path d="M397.676,42.89C398.239,42.681 401.591,42.681 402.153,42.89C501.816,49.249 562.727,112.371 575.583,128.609C598.099,165.571 588.808,253.34 588.808,253.34L550.413,240.154C501.393,225.168 450.081,213.936 399.915,213.936C349.748,213.936 298.436,225.168 249.416,240.154L211.021,253.34C211.021,253.34 201.73,165.571 224.246,128.609C237.102,112.371 298.013,49.249 397.676,42.89Z" style="fill: none; stroke: black; stroke-width: 2.1px" /><path d="M400.347,214.257L401.046,214.208C401.046,214.208 449.984,210.469 544.124,238.299C546.339,238.954 551.328,240.087 551.328,240.087C551.328,240.087 551.171,297.659 547.632,301.641C544.093,305.623 528.746,308.238 501.077,299.129C475.591,290.739 428.873,277.289 406.043,275.531L406.052,275.716C406.052,275.716 403.087,275.432 400.347,275.357C397.607,275.432 394.642,275.716 394.642,275.716L394.651,275.531C371.821,277.289 325.102,290.739 299.616,299.129C271.947,308.238 256.601,305.623 253.062,301.641C249.522,297.659 249.366,240.087 249.366,240.087C249.366,240.087 254.355,238.954 256.57,238.299C350.709,210.469 399.648,214.208 399.648,214.208L400.347,214.257Z" style="fill: url(#_Linear8)" /><clipPath id="_clip9"><path d="M400.347,214.257L401.046,214.208C401.046,214.208 449.984,210.469 544.124,238.299C546.339,238.954 551.328,240.087 551.328,240.087C551.328,240.087 551.171,297.659 547.632,301.641C544.093,305.623 528.746,308.238 501.077,299.129C475.591,290.739 428.873,277.289 406.043,275.531L406.052,275.716C406.052,275.716 403.087,275.432 400.347,275.357C397.607,275.432 394.642,275.716 394.642,275.716L394.651,275.531C371.821,277.289 325.102,290.739 299.616,299.129C271.947,308.238 256.601,305.623 253.062,301.641C249.522,297.659 249.366,240.087 249.366,240.087C249.366,240.087 254.355,238.954 256.57,238.299C350.709,210.469 399.648,214.208 399.648,214.208L400.347,214.257Z" /></clipPath><g clip-path="url(#_clip9)"><path d="M251.594,304.731C251.855,304.832 251.343,304.231 251.219,303.98C250.987,303.508 250.764,303.037 250.575,302.546C250.178,301.512 248.566,297.054 250.267,296.409C250.947,296.151 251.987,297.086 252.485,297.443C254.046,298.559 255.536,299.132 257.393,299.572C262.424,300.766 267.816,300.083 272.82,299.104C280.741,297.554 288.173,294.644 295.884,292.343C309.5,288.281 323.323,284.314 337.073,280.731C358.304,275.198 380.747,268.911 402.879,269.112C413.132,269.206 423.378,271.42 433.364,273.556C447.757,276.636 462.055,280.229 476.212,284.264C492.078,288.786 507.505,294.936 523.521,298.915C526.586,299.676 536.917,300.668 544.665,299.083C547.082,298.589 549.341,294.044 550.722,294.862C552.363,295.833 552.898,302.364 552.859,304.112C552.755,308.734 528.869,308.393 526.293,308.154C525.101,308.044 523.911,307.919 522.722,307.782C521.31,307.618 519.899,307.44 518.49,307.25C516.83,307.027 515.17,306.794 513.513,306.547C511.62,306.266 509.729,305.973 507.84,305.669C472.977,300.059 438.366,292.599 402.918,291.939C380.65,291.524 358.558,294.166 336.816,298.89C319.525,302.647 302.576,307.914 285.225,311.392C273.857,313.671 251.512,316.991 247.271,301.573" style="fill: rgb(136, 47, 70)" /><path d="M304.06,221.428C304.196,221.397 304.296,221.385 304.356,221.393L304.06,221.428C301.643,221.973 287.912,228.319 284.128,230.433C275.725,235.129 262.331,240.137 258.778,247.358C256.559,251.869 256.411,257.63 256.193,262.592C256.007,266.843 256.49,272.054 256.819,276.295C257.425,284.097 256.806,291.928 265.149,294.62C268.762,295.785 274.938,295.658 278.728,295.876C280.053,295.953 286.575,295.818 286.575,295.875C286.575,296.105 271.974,299.379 267.78,299.819C263.539,300.264 258.059,300.249 254.244,298C244.208,292.081 243.503,272.492 242.848,262.664C242.333,254.936 241.625,246.108 245.124,238.937C247.754,233.545 252.778,229.873 257.849,226.955L304.06,221.428ZM496.238,221.428C498.655,221.973 512.386,228.319 516.17,230.433C524.573,235.129 537.967,240.137 541.52,247.358C543.739,251.869 543.887,257.63 544.105,262.592C544.291,266.843 543.808,272.054 543.479,276.295C542.874,284.097 543.492,291.928 535.149,294.62C531.536,295.785 525.36,295.658 521.57,295.876C520.245,295.953 513.723,295.818 513.723,295.875C513.723,296.105 528.324,299.379 532.519,299.819C536.759,300.264 542.239,300.249 546.054,298C556.09,292.081 556.795,272.492 557.45,262.664C557.966,254.936 558.673,246.108 555.174,238.937C552.544,233.545 547.521,229.873 542.449,226.955L496.238,221.428C496.102,221.397 496.003,221.385 495.942,221.393L496.238,221.428Z" style="fill: rgb(245, 180, 162)" /><path d="M251.677,295.591C251.677,295.591 256.821,304.1 277.718,297.961C298.615,291.823 371.118,268.698 399.043,268.92C426.969,269.142 476.724,284.555 501.938,292.832C527.152,301.109 544.899,301.572 548.436,295.121" style="fill: none; stroke: black; stroke-width: 2.1px" /></g><path d="M400.347,214.257L401.046,214.208C401.046,214.208 449.984,210.469 544.124,238.299C546.339,238.954 551.328,240.087 551.328,240.087C551.328,240.087 551.171,297.659 547.632,301.641C544.093,305.623 528.746,308.238 501.077,299.129C475.591,290.739 428.873,277.289 406.043,275.531L406.052,275.716C406.052,275.716 403.087,275.432 400.347,275.357C397.607,275.432 394.642,275.716 394.642,275.716L394.651,275.531C371.821,277.289 325.102,290.739 299.616,299.129C271.947,308.238 256.601,305.623 253.062,301.641C249.522,297.659 249.366,240.087 249.366,240.087C249.366,240.087 254.355,238.954 256.57,238.299C350.709,210.469 399.648,214.208 399.648,214.208L400.347,214.257Z" style="fill: none; stroke: black; stroke-width: 2.1px" /></g></g><linearGradient id="_Linear5" x1="0" y1="0" x2="1" y2="0" gradientUnits="userSpaceOnUse" gradientTransform="matrix(0.676239,212.321,-212.321,0.676239,399.671,115.988)"><stop offset="0" style="stop-color: rgb(236, 65, 81); stop-opacity: 1" /><stop offset="0.5" style="stop-color: rgb(220, 55, 76); stop-opacity: 1" /><stop offset="1" style="stop-color: rgb(172, 27, 60); stop-opacity: 1" /></linearGradient><linearGradient id="_Linear7" x1="0" y1="0" x2="1" y2="0" gradientUnits="userSpaceOnUse" gradientTransform="matrix(0.676239,174.104,-174.104,0.676239,399.671,95.0041)"><stop offset="0" style="stop-color: rgb(245, 249, 251); stop-opacity: 1" /><stop offset="0.59" style="stop-color: rgb(226, 236, 243); stop-opacity: 1" /><stop offset="0.81" style="stop-color: rgb(183, 208, 225); stop-opacity: 1" /><stop offset="1" style="stop-color: rgb(140, 180, 206); stop-opacity: 1" /></linearGradient><linearGradient id="_Linear8" x1="0" y1="0" x2="1" y2="0" gradientUnits="userSpaceOnUse" gradientTransform="matrix(6.8912e-15,-112.542,112.542,6.8912e-15,399.671,269.108)"><stop offset="0" style="stop-color: rgb(236, 65, 81); stop-opacity: 1" /><stop offset="0.46" style="stop-color: rgb(227, 63, 84); stop-opacity: 1" /><stop offset="1" style="stop-color: rgb(203, 57, 90); stop-opacity: 1" /></linearGradient></defs></svg>