<svg width="800px" height="800px" viewBox="0 0 800 800" version="2.0" xmlns="http://www.w3.org/2000/svg" style="fill-rule: evenodd; clip-rule: evenodd; stroke-linecap: round; stroke-linejoin: round; stroke-miterlimit: 1.5"><g id="normal-card"><rect id="bg" x="-48.418" y="-9.957" width="931.967" height="871.066" style="fill: rgb(6, 46, 66)" /><g id="rectangles" transform="matrix(1,0,0,1,49.4291,64.1339)"><g opacity="0.5"><g transform="matrix(0.660629,0,0,1.04551,351.522,-81.058)"><rect x="462.47" y="633.282" width="419.335" height="322.449" style="fill: none" /><clipPath id="_clip1_card_template"><rect x="462.47" y="633.282" width="419.335" height="322.449" /></clipPath><g clip-path="url(#_clip1_card_template)"><g transform="matrix(1.51371,0,0,0.956468,-452.99,37.369)"><path d="M604.78,633.282L877.032,634.306" style="fill: none; stroke: rgb(166, 240, 98); stroke-width: 4px; stroke-dasharray: 4.25, 7.5, 0, 0" /></g><g transform="matrix(1.51371,0,0,0.956468,-452.99,58.0423)"><path d="M604.78,633.282L877.032,634.306" style="fill: none; stroke: rgb(166, 240, 98); stroke-width: 4px; stroke-dasharray: 4.25, 7.5, 0, 0" /></g><g transform="matrix(1.51371,0,0,0.956468,-452.99,68.3789)"><path d="M604.78,633.282L877.032,634.306" style="fill: none; stroke: rgb(166, 240, 98); stroke-width: 4px; stroke-dasharray: 4.25, 7.5, 0, 0" /></g><g transform="matrix(1.51371,0,0,0.956468,-452.99,89.0522)"><path d="M604.78,633.282L877.032,634.306" style="fill: none; stroke: rgb(166, 240, 98); stroke-width: 4px; stroke-dasharray: 4.25, 7.5, 0, 0" /></g><g transform="matrix(1.51371,0,0,0.956468,-452.99,99.3888)"><path d="M604.78,633.282L877.032,634.306" style="fill: none; stroke: rgb(166, 240, 98); stroke-width: 4px; stroke-dasharray: 4.25, 7.5, 0, 0" /></g><g transform="matrix(1.51371,0,0,0.956468,-452.99,130.399)"><path d="M604.78,633.282L877.032,634.306" style="fill: none; stroke: rgb(166, 240, 98); stroke-width: 4px; stroke-dasharray: 4.25, 7.5, 0, 0" /></g><g transform="matrix(1.51371,0,0,0.956468,-452.99,151.072)"><path d="M604.78,633.282L877.032,634.306" style="fill: none; stroke: rgb(166, 240, 98); stroke-width: 4px; stroke-dasharray: 4.25, 7.5, 0, 0" /></g><g transform="matrix(1.51371,0,0,0.956468,-452.99,171.745)"><path d="M604.78,633.282L877.032,634.306" style="fill: none; stroke: rgb(166, 240, 98); stroke-width: 4px; stroke-dasharray: 4.25, 7.5, 0, 0" /></g></g><rect x="462.47" y="633.282" width="419.335" height="322.449" style="fill: none; stroke: rgb(166, 240, 98); stroke-width: 4.57px; stroke-dasharray: 4.86, 8.58, 0, 0" /></g><g transform="matrix(0.192707,0,0,1.04551,466.744,2.40586)"><rect x="462.47" y="633.282" width="419.335" height="322.449" style="fill: none" /><clipPath id="_clip2_card_template"><rect x="462.47" y="633.282" width="419.335" height="322.449" /></clipPath><g clip-path="url(#_clip2_card_template)"><g transform="matrix(1.51371,0,0,0.956468,-452.99,37.369)"><path d="M604.78,633.282L877.032,634.306" style="fill: none; stroke: rgb(237, 30, 121); stroke-width: 5.43px; stroke-dasharray: 5.77, 10.18, 0, 0" /></g><g transform="matrix(1.51371,0,0,0.956468,-452.99,58.0423)"><path d="M604.78,633.282L877.032,634.306" style="fill: none; stroke: rgb(237, 30, 121); stroke-width: 5.43px; stroke-dasharray: 5.77, 10.18, 0, 0" /></g><g transform="matrix(1.51371,0,0,0.956468,-452.99,68.3789)"><path d="M604.78,633.282L877.032,634.306" style="fill: none; stroke: rgb(237, 30, 121); stroke-width: 5.43px; stroke-dasharray: 5.77, 10.18, 0, 0" /></g><g transform="matrix(1.51371,0,0,0.956468,-452.99,89.0522)"><path d="M604.78,633.282L877.032,634.306" style="fill: none; stroke: rgb(237, 30, 121); stroke-width: 5.43px; stroke-dasharray: 5.77, 10.18, 0, 0" /></g></g><rect x="462.47" y="633.282" width="419.335" height="322.449" style="fill: none; stroke: rgb(237, 30, 121); stroke-width: 5.32px; stroke-dasharray: 5.65, 9.98, 0, 0" /></g></g></g><g id="circles" opacity="0.5"><g transform="matrix(1,0,0,1,-118.853,-94.5905)"><circle cx="155.124" cy="124.814" r="124.814" style="fill: none; stroke: rgb(255, 207, 0); stroke-width: 4px; stroke-dasharray: 4.25, 7.5, 0, 0" /></g><g transform="matrix(0.928318,0,0,0.928318,-107.734,-85.6437)"><circle cx="155.124" cy="124.814" r="124.814" style="fill: none; stroke: rgb(255, 207, 0); stroke-width: 4.31px; stroke-dasharray: 4.58, 8.08, 0, 0" /></g><g transform="matrix(0.691272,0,0,0.691272,-70.9623,-56.0571)"><circle cx="155.124" cy="124.814" r="124.814" style="fill: none; stroke: rgb(255, 108, 0); stroke-width: 5.79px; stroke-dasharray: 6.15, 10.85, 0, 0" /></g></g><g id="rarity-bars" transform="matrix(0.86723,0,0,0.86723,10.4494,88.5493)"><g id="rarity-bars-fill"><g transform="matrix(0.114833,0,0,0.114833,59.0756,653.445)"><path d="M400,117.517L629.266,249.774L629.266,514.685L400.192,646.941L400.192,647.052L400.096,646.997L400,647.052L400,646.941L170.925,514.685L170.925,249.774L400,117.517Z" style="fill: rgb(139, 57, 219)" /></g><g transform="matrix(0.114833,0,0,0.114833,126.648,653.445)"><path d="M400,117.517L629.266,249.774L629.266,514.685L400.192,646.941L400.192,647.052L400.096,646.997L400,647.052L400,646.941L170.925,514.685L170.925,249.774L400,117.517Z" style="fill: rgb(237, 30, 121)" /></g><g transform="matrix(0.114833,0,0,0.114833,194.22,653.445)"><path d="M400,117.517L629.266,249.774L629.266,514.685L400.192,646.941L400.192,647.052L400.096,646.997L400,647.052L400,646.941L170.925,514.685L170.925,249.774L400,117.517Z" style="fill: rgb(241, 90, 36)" /></g><g transform="matrix(0.114833,0,0,0.114833,261.792,653.445)"><path d="M400,117.517L629.266,249.774L629.266,514.685L400.192,646.941L400.192,647.052L400.096,646.997L400,647.052L400,646.941L170.925,514.685L170.925,249.774L400,117.517Z" style="fill: rgb(251, 176, 59)" /></g><g transform="matrix(0.114833,0,0,0.114833,329.364,653.445)"><path d="M400,117.517L629.266,249.774L629.266,514.685L400.192,646.941L400.192,647.052L400.096,646.997L400,647.052L400,646.941L170.925,514.685L170.925,249.774L400,117.517Z" style="fill: rgb(41, 171, 226)" /></g></g><g id="rarity-bars-stroke"><g transform="matrix(0.114833,0,0,0.114833,59.0756,653.445)"><path d="M400,117.517L629.266,249.774L629.266,514.685L400.192,646.941L400.192,647.052L400.096,646.997L400,647.052L400,646.941L170.925,514.685L170.925,249.774L400,117.517Z" style="fill: none; stroke: white; stroke-width: 34.83px" /></g><g transform="matrix(0.114833,0,0,0.114833,126.648,653.445)"><path d="M400,117.517L629.266,249.774L629.266,514.685L400.192,646.941L400.192,647.052L400.096,646.997L400,647.052L400,646.941L170.925,514.685L170.925,249.774L400,117.517Z" style="fill: none; stroke: white; stroke-width: 34.83px" /></g><g transform="matrix(0.114833,0,0,0.114833,194.22,653.445)"><path d="M400,117.517L629.266,249.774L629.266,514.685L400.192,646.941L400.192,647.052L400.096,646.997L400,647.052L400,646.941L170.925,514.685L170.925,249.774L400,117.517Z" style="fill: none; stroke: white; stroke-width: 34.83px" /></g><g transform="matrix(0.114833,0,0,0.114833,261.792,653.445)"><path d="M400,117.517L629.266,249.774L629.266,514.685L400.192,646.941L400.192,647.052L400.096,646.997L400,647.052L400,646.941L170.925,514.685L170.925,249.774L400,117.517Z" style="fill: none; stroke: white; stroke-width: 34.83px" /></g><g transform="matrix(0.114833,0,0,0.114833,329.364,653.445)"><path d="M400,117.517L629.266,249.774L629.266,514.685L400.192,646.941L400.192,647.052L400.096,646.997L400,647.052L400,646.941L170.925,514.685L170.925,249.774L400,117.517Z" style="fill: none; stroke: white; stroke-width: 34.83px" /></g></g></g><g transform="matrix(0.720342,0,0,0.720342,23.1337,330.63)"><text x="77.471px" y="439.84px" style="font-family: 'Futura-Medium', 'Futura', sans-serif; font-weight: 500; font-size: 50px; fill: white">RARITY</text></g><g transform="matrix(0.911866,0,0,0.911866,252.534,309.097)"><text x="190.763px" y="439.84px" style="font-family: 'Futura-Medium', 'Futura', sans-serif; font-weight: 500; font-size: 50px; fill: white" id="wear_value"></text></g><g transform="matrix(0.720342,0,0,0.720342,340.614,330.63)"><text x="77.471px" y="439.84px" style="font-family: 'Futura-Medium', 'Futura', sans-serif; font-weight: 500; font-size: 50px; fill: white">WEAR</text></g><g transform="matrix(1,0,0,1,11.3386,0)"><g id="clothing"><path d="M643.088,685.842C646.783,685.778 648.661,683.2 649.092,679.318C650.012,671.056 649.138,666.716 649.138,666.716L653.408,666.766C653.408,666.766 651.456,677.988 655.595,682.825C658.992,686.794 662.073,686.445 662.073,686.445L662.462,712.698L623.892,712.698L624.28,686.445C624.28,686.445 626.476,686.794 629.873,682.825C634.012,677.988 632.06,666.766 632.06,666.766L636.417,666.616C636.417,666.616 635.514,670.986 636.433,679.248C636.865,683.129 638.73,685.919 643.088,685.842Z" style="fill: white" /></g></g><g transform="matrix(0.720342,0,0,0.720342,520.614,330.63)"><text x="124.102px" y="439.84px" style="font-family: 'Futura-Medium', 'Futura', sans-serif; font-weight: 500; font-size: 50px; fill: white">SLOT</text></g><g transform="matrix(1,0,0,1,-7.69409,0)"><path d="M82.194,602.738L733.196,602.258C733.979,602.258 734.615,601.621 734.614,600.838C734.614,600.055 733.977,599.42 733.194,599.42L82.192,599.9C81.409,599.901 80.773,600.537 80.774,601.321C80.775,602.104 81.411,602.739 82.194,602.738Z" style="fill: white" /></g><g transform="matrix(1,0,0,1,120.441,145.046)"><text x="140.471px" y="439.84px" style="font-family: 'Futura-Medium', 'Futura', sans-serif; font-weight: 500; font-size: 50px; fill: white">MAGIC CAPE</text></g><path id="border" d="M800,801.235L800,-4.106L-0,-4.106L0,801.235L800,801.235ZM260.875,30.644L30.644,30.644C30.644,30.644 30.644,769.356 30.644,769.356C30.644,769.356 769.356,769.356 769.356,769.356L769.356,30.644L539.125,30.644L539.125,61.806L260.875,61.806L260.875,30.644Z" style="fill: rgb(0, 153, 197)" /><g id="guide" transform="matrix(1,0,0,1.04284,1.75676,-22.4672)"><rect x="82.193" y="95.569" width="632.101" height="428.927" style="fill: url(#_Linear3_card_template); stroke: rgb(0, 153, 197); stroke-width: 4.8px" /><rect x="82.193" y="95.569" width="632.101" height="428.927" style="fill: url(#magic-cap)"/></g><pattern id="magic-cap" viewBox="0,0,800,800" width="100%" height="100%"><g id="robe-top" transform="matrix(1.04686,0,0,1.04686,-20.1818,-31.131)"><path id="shadow" d="M297.272,618.702C298.364,618.369 297.309,620.985 297.316,622.127C297.328,624.384 297.341,626.642 297.341,628.899C297.341,635.593 297.028,642.288 296.472,648.957C294.735,669.804 292.956,689.527 293.913,712.956C295.203,744.537 313.622,765.062 325.043,793.712C327.219,799.172 331.195,814.805 332.4,825.669C334.426,843.942 338.86,901.782 337.2,903.35C333.75,906.608 317.787,881.949 316.941,831.47C316.632,813.069 290.962,791.539 281.506,775.825C255.991,733.424 246.053,668.665 283.127,628.811L297.272,618.702ZM503.117,615.208C502.025,614.875 503.08,617.491 503.073,618.633C503.06,620.89 503.048,623.148 503.048,625.405C503.048,632.1 503.361,638.794 503.917,645.463C505.654,666.31 509.481,690.444 505.331,713.363C499.699,744.464 484.82,766.033 473.171,794.59C470.315,801.592 468.16,820.105 466.963,826.768C460.644,861.93 463.751,883.925 462.944,900.823C462.717,905.563 483.555,863.413 484.78,838.836C485.695,820.456 509.837,789.914 519.293,774.2C544.808,731.8 554.746,667.041 517.672,627.186L503.117,615.208Z" style="fill: rgb(56, 25, 57); fill-opacity: 0.5" /><g transform="matrix(-1,0,0,1,798.96,0)"><path d="M295.231,611.916C295.231,611.916 271.056,618.138 260.529,624.275C250.002,630.412 239.26,640.62 239.26,640.62C239.26,640.62 227.179,646.652 222.225,648.318C217.27,649.984 203.192,667.078 203.192,667.078C203.192,667.078 187.377,670.568 181.571,673.436C175.765,676.304 172.315,685.31 172.315,685.31C172.315,685.31 126.611,694.467 123.313,708.595C122.007,714.192 119.368,719.944 109.717,723.328C100.749,726.472 89.799,723.549 88.285,734.897C87.241,742.724 62.508,746.074 38.356,751.626C29.883,753.574 21.678,754.858 16.443,769.215C7.469,793.825 -7.165,900.494 -7.165,900.494L324.228,887.681C324.228,887.681 316.923,790.796 304.395,761.999C301.655,755.701 277.82,725.752 275.203,716.797C272.586,707.841 267.518,696.452 272.99,667.288C278.461,638.124 277.987,643.851 277.987,643.851C277.987,643.851 294.795,632.07 294.456,631.703C294.402,631.644 295.231,611.916 295.231,611.916Z" style="fill: rgb(97, 69, 109)" /><clipPath id="_clip1"><path d="M295.231,611.916C295.231,611.916 271.056,618.138 260.529,624.275C250.002,630.412 239.26,640.62 239.26,640.62C239.26,640.62 227.179,646.652 222.225,648.318C217.27,649.984 203.192,667.078 203.192,667.078C203.192,667.078 187.377,670.568 181.571,673.436C175.765,676.304 172.315,685.31 172.315,685.31C172.315,685.31 126.611,694.467 123.313,708.595C122.007,714.192 119.368,719.944 109.717,723.328C100.749,726.472 89.799,723.549 88.285,734.897C87.241,742.724 62.508,746.074 38.356,751.626C29.883,753.574 21.678,754.858 16.443,769.215C7.469,793.825 -7.165,900.494 -7.165,900.494L324.228,887.681C324.228,887.681 316.923,790.796 304.395,761.999C301.655,755.701 277.82,725.752 275.203,716.797C272.586,707.841 267.518,696.452 272.99,667.288C278.461,638.124 277.987,643.851 277.987,643.851C277.987,643.851 294.795,632.07 294.456,631.703C294.402,631.644 295.231,611.916 295.231,611.916Z" /></clipPath><g clip-path="url(#_clip1)"><g transform="matrix(-0.834408,0,0,0.834408,732.403,189.091)"><path d="M696.785,613.776C695.972,612.582 699.207,615.353 700.402,616.164C702.864,617.834 705.326,619.505 707.774,621.194C714.939,626.137 723.832,636.381 724.519,645.279C724.745,648.212 745.088,643.902 756.894,652.302C761.566,655.626 763.17,655.103 763.624,665.09C763.975,672.778 782.197,667.042 789.567,670.275C796.345,673.249 795.7,675.43 793.462,690.977C793.2,692.795 818.545,680.606 825.2,690.095C825.573,690.627 828.47,693.57 824.637,715.254C824.479,716.144 828.923,718.094 835.632,712.287C842.738,706.135 855.09,702.156 854.01,717.708C853.883,719.543 856.022,720.648 858.462,732.222C861.782,747.973 865.732,779.366 867.87,823.942C868.2,830.839 879.775,850.477 882.901,815.864C885.72,784.657 879.794,696.405 880.005,696.338C892.801,692.277 817.744,667.555 811.102,658.87C795.345,638.269 751.675,606.147 727.876,594.16C713.203,586.77 633.387,549.733 635.039,572.581C654.299,581.059 665.162,589.82 667.618,604.699L696.785,613.776Z" style="fill: rgb(214, 152, 193)" /></g><path d="M201.779,669.567C201.779,669.567 202.319,668.659 203.407,667.07C206.89,661.987 210.041,658.989 214.487,654.718C214.777,654.439 219.385,650.119 219.678,650.759C220.091,651.66 217.748,654.507 217.34,655.168C214.913,659.098 212.841,663.188 211.575,667.647C207.919,680.526 213.2,695.491 219.35,706.811C220.812,709.501 222.408,712.131 224.214,714.605C224.558,715.077 225.405,716.822 225.998,717C226.013,717.005 225.653,715.506 225.618,715.391C225.315,714.401 224.998,713.415 224.702,712.423C223.757,709.262 222.879,706.07 222.192,702.842C219.67,690.996 220.077,678.854 220.646,666.824C220.782,663.955 220.92,661.025 221.521,658.207C221.558,658.037 222.07,655.698 222.378,655.775C223.08,655.951 224.395,662.079 224.687,662.78C227.492,669.513 231.915,675.494 235.419,681.865C244.064,697.583 252.948,714.036 258.652,731.076C263.332,745.055 265.659,759.944 269.258,774.233C271.575,783.429 286.851,847.534 289.074,856.754C289.517,858.59 292.058,864.544 289.652,865.907C287.019,867.398 282.595,864.653 280.118,863.818C278.106,863.14 274.158,862.939 272.555,861.394C270.574,859.483 257.325,799.211 256.545,796.721C254.171,789.149 251.408,781.733 248.274,774.441C245.134,767.134 241.366,759.796 236.462,753.502C229.861,745.03 221.795,737.767 215.515,729.036C215.366,728.829 215.218,728.62 215.07,728.411C221.388,739.992 228.266,752.158 231.064,756.68C238.161,768.152 245.435,788.583 247.456,801.815C248.382,807.887 258.94,869.058 252.278,873.5C245.497,878.021 230.618,875.734 223.063,876.075C213.901,876.489 204.744,876.959 195.572,877.054C180.401,877.211 165.24,877.307 150.09,878.21C119.7,880.021 89.99,887.341 59.732,889.16C49.736,889.76 29.058,892.149 28.485,879.923C25.726,821.041 12.882,784.23 35.022,830.549C36.274,833.169 27.223,792.392 27.408,790.36C27.848,785.519 38.673,793.128 45.033,800.142C46.263,801.498 51.302,808.044 53.818,806.516C55.777,805.327 54.374,800.651 54.02,799.035C52.421,791.751 58.403,791.125 56.079,784.036C55.914,783.533 53.005,775.58 53.448,775.453C54.314,775.206 56.899,779.414 57.284,779.919C61.257,785.138 65.151,790.423 69.054,795.695C69.429,796.203 72.928,801.459 73.813,800.84C74.834,800.125 71.779,794.406 71.458,793.67C68.686,787.321 65.238,781.356 61.909,775.294C61.449,774.457 58.871,770.412 59.969,769.44C60.967,768.558 65.593,772.139 66.356,772.627C71.484,775.908 77.584,777.069 82.069,781.18C88.568,787.138 98.949,793.545 94.767,787.7C71.888,755.72 81.389,751.344 87.546,753.575C95.004,756.278 100.501,774.862 103.008,774.061C118.693,769.05 105.182,740.995 116.659,742.042C130.389,743.295 130.813,771.741 133.721,767.156C134.905,765.289 128.447,728.607 131.097,728.417C133.983,728.211 137.355,733.066 138.927,734.889C145.642,742.679 151.494,751.199 156.538,760.154C157.203,761.334 161.666,771.543 163.561,771.097C163.74,771.055 163.842,770.871 163.898,770.712C165.425,766.36 163.558,758.868 163.628,754.269C163.867,738.664 168.695,724.43 170.792,709.142C170.938,708.072 171.278,695.678 172.7,695.678C173.635,695.678 178.935,708.973 181.332,713.13C184.89,719.302 190.043,723.895 194.184,729.623C202.795,741.531 210.485,750.042 216.502,763.496L216.639,763.809L216.665,763.868C219.188,769.749 220.693,778.965 223.149,784.751C223.288,785.078 225.062,790.005 225.425,789.932C225.512,789.915 224.527,786.007 224.452,785.724C223.272,781.247 221.91,776.802 220.231,772.486C219.109,769.6 217.915,766.728 216.665,763.868C216.613,763.746 216.56,763.625 216.506,763.505L216.502,763.496C209.728,748.053 201.365,732.943 194.098,717.884C189.384,708.113 184.476,696.591 188.764,685.829C190.389,681.751 193.224,678.223 196.385,675.22C197.577,674.088 201.763,669.611 201.779,669.567ZM272.871,757.438C273.594,761.2 275.25,764.877 276.073,768.652C277.787,776.512 278.817,784.526 280.002,792.477C280.44,795.415 292.599,863.169 295.137,865.163C297.199,866.784 301.013,864.981 303.27,864.634C303.804,864.552 305.96,864.606 305.843,863.67C305.257,858.979 289.354,793.771 287.707,789.357C283.867,779.069 280.345,768.543 274.848,759.014L272.871,757.438ZM202.957,702.432L203.123,705.422C203.677,706.677 204.523,708.423 205.583,710.521C204.568,707.87 203.687,705.165 202.957,702.432ZM236.111,632.433C236.013,638.535 234.372,644.227 235.239,650.441C236.224,657.495 238.112,664.49 241.008,671.007C241.228,671.502 243.28,676.842 243.968,676.67C244.616,676.508 244.164,669.793 244.174,669.23C244.31,661.541 245.209,653.734 247.397,646.342C249.549,639.068 253.271,632.222 257.764,626.132C258.197,625.546 262.495,620.742 261.981,620.057C261.511,619.429 258.038,621.3 257.595,621.509C252.851,623.748 248.38,626.533 243.893,629.236L236.111,632.433Z" style="fill: rgb(54, 30, 66)" /><path d="M21.274,749.989C21.084,749.91 21.197,749.904 21.39,750.283C23.289,754.018 25.482,757.436 27.94,760.836C32.828,767.598 37.562,774.461 41.935,781.57C55.428,803.506 65.841,826.753 73.11,851.466" style="fill: none; stroke: black; stroke-width: 2.1px" /><path d="M202.088,670.161C202.719,670.217 201.926,671.418 201.85,672.048C201.693,673.347 201.542,674.646 201.428,675.95C201.082,679.931 200.866,683.916 201.016,687.913C201.436,699.133 205.022,710.27 210.136,720.202C218.347,736.151 232.332,746.725 242.144,761.359C252.894,777.393 258.44,797.067 264.484,815.196" style="fill: none; stroke: black; stroke-width: 2.1px" /><g transform="matrix(-0.834408,0,0,0.834408,732.403,189.091)"><path d="M771.889,675.155C771.809,674.866 776.608,675.381 777.083,675.508C782.141,676.854 782.081,682.208 781.416,686.652C779.787,697.541 769.108,709.056 763.069,717.85C741.297,749.553 716.886,778.939 692.296,808.472" style="fill: none; stroke: black; stroke-width: 2.1px" /></g><path d="M175.308,688.916C175.594,688.62 175.325,689.743 175.395,690.149C175.55,691.05 175.738,691.945 175.937,692.837C176.493,695.331 177.278,697.761 178.176,700.151C180.977,707.602 184.672,714.72 189.069,721.351C194.325,729.279 200.801,736.323 205.84,744.401C214.233,757.854 220.242,772.9 224.59,788.118" style="fill: none; stroke: black; stroke-width: 2.1px" /><path d="M298.397,609.736C298.232,609.591 296.112,611.298 295.933,611.434C293.288,613.457 290.993,615.786 288.781,618.266C283.599,624.075 278.984,630.917 277.667,638.734C277.052,642.389 274.986,653.541 281.915,650.292C282.858,649.85 283.779,649.332 284.658,648.774C286.097,647.861 287.458,646.809 288.784,645.741C290.818,644.103 292.734,642.274 294.353,640.22C297.502,636.224 298.171,631.449 298.603,626.527" style="fill: rgb(42, 29, 49); stroke: black; stroke-width: 2.1px" /></g><path d="M295.231,611.916C295.231,611.916 271.056,618.138 260.529,624.275C250.002,630.412 239.26,640.62 239.26,640.62C239.26,640.62 227.179,646.652 222.225,648.318C217.27,649.984 203.192,667.078 203.192,667.078C203.192,667.078 187.377,670.568 181.571,673.436C175.765,676.304 172.315,685.31 172.315,685.31C172.315,685.31 126.611,694.467 123.313,708.595C122.007,714.192 119.368,719.944 109.717,723.328C100.749,726.472 89.799,723.549 88.285,734.897C87.241,742.724 62.508,746.074 38.356,751.626C29.883,753.574 21.678,754.858 16.443,769.215C7.469,793.825 -7.165,900.494 -7.165,900.494L324.228,887.681C324.228,887.681 316.923,790.796 304.395,761.999C301.655,755.701 277.82,725.752 275.203,716.797C272.586,707.841 267.518,696.452 272.99,667.288C278.461,638.124 277.987,643.851 277.987,643.851C277.987,643.851 294.795,632.07 294.456,631.703C294.402,631.644 295.231,611.916 295.231,611.916Z" style="fill: none; stroke: black; stroke-width: 2.1px" /></g><g transform="matrix(1,0,0,1,1.16026,0)"><path d="M295.231,611.916C295.231,611.916 271.056,618.138 260.529,624.275C250.002,630.412 239.26,640.62 239.26,640.62C239.26,640.62 227.179,646.652 222.225,648.318C217.27,649.984 203.192,667.078 203.192,667.078C203.192,667.078 187.377,670.568 181.571,673.436C175.765,676.304 172.315,685.31 172.315,685.31C172.315,685.31 126.611,694.467 123.313,708.595C122.007,714.192 119.368,719.944 109.717,723.328C100.749,726.472 89.799,723.549 88.285,734.897C87.241,742.724 62.508,746.074 38.356,751.626C29.883,753.574 21.678,754.858 16.443,769.215C7.469,793.825 -7.165,900.494 -7.165,900.494L324.228,887.681C324.228,887.681 316.923,790.796 304.395,761.999C301.655,755.701 277.82,725.752 275.203,716.797C272.586,707.841 267.518,696.452 272.99,667.288C278.461,638.124 277.987,643.851 277.987,643.851C277.987,643.851 294.795,632.07 294.456,631.703C294.402,631.644 295.231,611.916 295.231,611.916Z" style="fill: rgb(97, 69, 109)" /><clipPath id="_clip2"><path d="M295.231,611.916C295.231,611.916 271.056,618.138 260.529,624.275C250.002,630.412 239.26,640.62 239.26,640.62C239.26,640.62 227.179,646.652 222.225,648.318C217.27,649.984 203.192,667.078 203.192,667.078C203.192,667.078 187.377,670.568 181.571,673.436C175.765,676.304 172.315,685.31 172.315,685.31C172.315,685.31 126.611,694.467 123.313,708.595C122.007,714.192 119.368,719.944 109.717,723.328C100.749,726.472 89.799,723.549 88.285,734.897C87.241,742.724 62.508,746.074 38.356,751.626C29.883,753.574 21.678,754.858 16.443,769.215C7.469,793.825 -7.165,900.494 -7.165,900.494L324.228,887.681C324.228,887.681 316.923,790.796 304.395,761.999C301.655,755.701 277.82,725.752 275.203,716.797C272.586,707.841 267.518,696.452 272.99,667.288C278.461,638.124 277.987,643.851 277.987,643.851C277.987,643.851 294.795,632.07 294.456,631.703C294.402,631.644 295.231,611.916 295.231,611.916Z" /></clipPath><g clip-path="url(#_clip2)"><g transform="matrix(-0.834408,0,0,0.834408,732.403,189.091)"><path d="M696.785,613.776C695.972,612.582 699.207,615.353 700.402,616.164C702.864,617.834 705.326,619.505 707.774,621.194C714.939,626.137 723.832,636.381 724.519,645.279C724.745,648.212 745.088,643.902 756.894,652.302C761.566,655.626 763.17,655.103 763.624,665.09C763.975,672.778 782.197,667.042 789.567,670.275C796.345,673.249 795.7,675.43 793.462,690.977C793.2,692.795 818.545,680.606 825.2,690.095C825.573,690.627 828.47,693.57 824.637,715.254C824.479,716.144 828.923,718.094 835.632,712.287C842.738,706.135 855.09,702.156 854.01,717.708C853.883,719.543 856.022,720.648 858.462,732.222C861.782,747.973 865.732,779.366 867.87,823.942C868.2,830.839 879.775,850.477 882.901,815.864C885.72,784.657 879.794,696.405 880.005,696.338C892.801,692.277 817.744,667.555 811.102,658.87C795.345,638.269 751.675,606.147 727.876,594.16C713.203,586.77 633.387,549.733 635.039,572.581C654.299,581.059 665.162,589.82 667.618,604.699L696.785,613.776Z" style="fill: rgb(214, 152, 193)" /></g><path d="M201.779,669.567C201.779,669.567 202.319,668.659 203.407,667.07C206.89,661.987 210.041,658.989 214.487,654.718C214.777,654.439 219.385,650.119 219.678,650.759C220.091,651.66 217.748,654.507 217.34,655.168C214.913,659.098 212.841,663.188 211.575,667.647C207.919,680.526 213.2,695.491 219.35,706.811C220.812,709.501 222.408,712.131 224.214,714.605C224.558,715.077 225.405,716.822 225.998,717C226.013,717.005 225.653,715.506 225.618,715.391C225.315,714.401 224.998,713.415 224.702,712.423C223.757,709.262 222.879,706.07 222.192,702.842C219.67,690.996 220.077,678.854 220.646,666.824C220.782,663.955 220.92,661.025 221.521,658.207C221.558,658.037 222.07,655.698 222.378,655.775C223.08,655.951 224.395,662.079 224.687,662.78C227.492,669.513 231.915,675.494 235.419,681.865C244.064,697.583 252.948,714.036 258.652,731.076C263.332,745.055 265.659,759.944 269.258,774.233C271.575,783.429 286.851,847.534 289.074,856.754C289.517,858.59 292.058,864.544 289.652,865.907C287.019,867.398 282.595,864.653 280.118,863.818C278.106,863.14 274.158,862.939 272.555,861.394C270.574,859.483 257.325,799.211 256.545,796.721C254.171,789.149 251.408,781.733 248.274,774.441C245.134,767.134 241.366,759.796 236.462,753.502C229.861,745.03 221.795,737.767 215.515,729.036C215.366,728.829 215.218,728.62 215.07,728.411C221.388,739.992 228.266,752.158 231.064,756.68C238.161,768.152 245.435,788.583 247.456,801.815C248.382,807.887 258.94,869.058 252.278,873.5C245.497,878.021 230.618,875.734 223.063,876.075C213.901,876.489 204.744,876.959 195.572,877.054C180.401,877.211 165.24,877.307 150.09,878.21C119.7,880.021 89.99,887.341 59.732,889.16C49.736,889.76 29.058,892.149 28.485,879.923C25.726,821.041 12.882,784.23 35.022,830.549C36.274,833.169 27.223,792.392 27.408,790.36C27.848,785.519 38.673,793.128 45.033,800.142C46.263,801.498 51.302,808.044 53.818,806.516C55.777,805.327 54.374,800.651 54.02,799.035C52.421,791.751 58.403,791.125 56.079,784.036C55.914,783.533 53.005,775.58 53.448,775.453C54.314,775.206 56.899,779.414 57.284,779.919C61.257,785.138 65.151,790.423 69.054,795.695C69.429,796.203 72.928,801.459 73.813,800.84C74.834,800.125 71.779,794.406 71.458,793.67C68.686,787.321 65.238,781.356 61.909,775.294C61.449,774.457 58.871,770.412 59.969,769.44C60.967,768.558 65.593,772.139 66.356,772.627C71.484,775.908 77.584,777.069 82.069,781.18C88.568,787.138 98.949,793.545 94.767,787.7C71.888,755.72 81.389,751.344 87.546,753.575C95.004,756.278 100.501,774.862 103.008,774.061C118.693,769.05 105.182,740.995 116.659,742.042C130.389,743.295 130.813,771.741 133.721,767.156C134.905,765.289 128.447,728.607 131.097,728.417C133.983,728.211 137.355,733.066 138.927,734.889C145.642,742.679 151.494,751.199 156.538,760.154C157.203,761.334 161.666,771.543 163.561,771.097C163.74,771.055 163.842,770.871 163.898,770.712C165.425,766.36 163.558,758.868 163.628,754.269C163.867,738.664 168.695,724.43 170.792,709.142C170.938,708.072 171.278,695.678 172.7,695.678C173.635,695.678 178.935,708.973 181.332,713.13C184.89,719.302 190.043,723.895 194.184,729.623C202.795,741.531 210.485,750.042 216.502,763.496L216.639,763.809L216.665,763.868C219.188,769.749 220.693,778.965 223.149,784.751C223.288,785.078 225.062,790.005 225.425,789.932C225.512,789.915 224.527,786.007 224.452,785.724C223.272,781.247 221.91,776.802 220.231,772.486C219.109,769.6 217.915,766.728 216.665,763.868C216.613,763.746 216.56,763.625 216.506,763.505L216.502,763.496C209.728,748.053 201.365,732.943 194.098,717.884C189.384,708.113 184.476,696.591 188.764,685.829C190.389,681.751 193.224,678.223 196.385,675.22C197.577,674.088 201.763,669.611 201.779,669.567ZM272.871,757.438C273.594,761.2 275.25,764.877 276.073,768.652C277.787,776.512 278.817,784.526 280.002,792.477C280.44,795.415 292.599,863.169 295.137,865.163C297.199,866.784 301.013,864.981 303.27,864.634C303.804,864.552 305.96,864.606 305.843,863.67C305.257,858.979 289.354,793.771 287.707,789.357C283.867,779.069 280.345,768.543 274.848,759.014L272.871,757.438ZM202.957,702.432L203.123,705.422C203.677,706.677 204.523,708.423 205.583,710.521C204.568,707.87 203.687,705.165 202.957,702.432ZM236.111,632.433C236.013,638.535 234.372,644.227 235.239,650.441C236.224,657.495 238.112,664.49 241.008,671.007C241.228,671.502 243.28,676.842 243.968,676.67C244.616,676.508 244.164,669.793 244.174,669.23C244.31,661.541 245.209,653.734 247.397,646.342C249.549,639.068 253.271,632.222 257.764,626.132C258.197,625.546 262.495,620.742 261.981,620.057C261.511,619.429 258.038,621.3 257.595,621.509C252.851,623.748 248.38,626.533 243.893,629.236L236.111,632.433Z" style="fill: rgb(54, 30, 66)" /><path d="M21.274,749.989C21.084,749.91 21.197,749.904 21.39,750.283C23.289,754.018 25.482,757.436 27.94,760.836C32.828,767.598 37.562,774.461 41.935,781.57C55.428,803.506 65.841,826.753 73.11,851.466" style="fill: none; stroke: black; stroke-width: 2.1px" /><path d="M202.088,670.161C202.719,670.217 201.926,671.418 201.85,672.048C201.693,673.347 201.542,674.646 201.428,675.95C201.082,679.931 200.866,683.916 201.016,687.913C201.436,699.133 205.022,710.27 210.136,720.202C218.347,736.151 232.332,746.725 242.144,761.359C252.894,777.393 258.44,797.067 264.484,815.196" style="fill: none; stroke: black; stroke-width: 2.1px" /><g transform="matrix(-0.834408,0,0,0.834408,732.403,189.091)"><path d="M771.889,675.155C771.809,674.866 776.608,675.381 777.083,675.508C782.141,676.854 782.081,682.208 781.416,686.652C779.787,697.541 769.108,709.056 763.069,717.85C741.297,749.553 716.886,778.939 692.296,808.472" style="fill: none; stroke: black; stroke-width: 2.1px" /></g><path d="M175.308,688.916C175.594,688.62 175.325,689.743 175.395,690.149C175.55,691.05 175.738,691.945 175.937,692.837C176.493,695.331 177.278,697.761 178.176,700.151C180.977,707.602 184.672,714.72 189.069,721.351C194.325,729.279 200.801,736.323 205.84,744.401C214.233,757.854 220.242,772.9 224.59,788.118" style="fill: none; stroke: black; stroke-width: 2.1px" /><path d="M298.397,609.736C298.232,609.591 296.112,611.298 295.933,611.434C293.288,613.457 290.993,615.786 288.781,618.266C283.599,624.075 278.984,630.917 277.667,638.734C277.052,642.389 274.986,653.541 281.915,650.292C282.858,649.85 283.779,649.332 284.658,648.774C286.097,647.861 287.458,646.809 288.784,645.741C290.818,644.103 292.734,642.274 294.353,640.22C297.502,636.224 298.171,631.449 298.603,626.527" style="fill: rgb(42, 29, 49); stroke: black; stroke-width: 2.1px" /></g><path d="M295.231,611.916C295.231,611.916 271.056,618.138 260.529,624.275C250.002,630.412 239.26,640.62 239.26,640.62C239.26,640.62 227.179,646.652 222.225,648.318C217.27,649.984 203.192,667.078 203.192,667.078C203.192,667.078 187.377,670.568 181.571,673.436C175.765,676.304 172.315,685.31 172.315,685.31C172.315,685.31 126.611,694.467 123.313,708.595C122.007,714.192 119.368,719.944 109.717,723.328C100.749,726.472 89.799,723.549 88.285,734.897C87.241,742.724 62.508,746.074 38.356,751.626C29.883,753.574 21.678,754.858 16.443,769.215C7.469,793.825 -7.165,900.494 -7.165,900.494L324.228,887.681C324.228,887.681 316.923,790.796 304.395,761.999C301.655,755.701 277.82,725.752 275.203,716.797C272.586,707.841 267.518,696.452 272.99,667.288C278.461,638.124 277.987,643.851 277.987,643.851C277.987,643.851 294.795,632.07 294.456,631.703C294.402,631.644 295.231,611.916 295.231,611.916Z" style="fill: none; stroke: black; stroke-width: 2.1px" /></g></g></pattern><g transform="matrix(1,0,0,1,7.6296,-2.65748)"><text x="263.72px" y="53.076px" style="font-family: 'Futura-Medium', 'Futura', sans-serif; font-weight: 500; font-size: 50px; fill: white">SEASON 0</text></g></g><defs><linearGradient id="_Linear3_card_template" x1="0" y1="0" x2="1" y2="0" gradientUnits="userSpaceOnUse" gradientTransform="matrix(3.89688e-14,-610.267,636.408,3.73681e-14,398.243,614.74)"><stop offset="0" style="stop-color: rgb(80, 225, 255); stop-opacity: 1" /><stop offset="0.44" style="stop-color: rgb(219, 249, 255); stop-opacity: 1" /><stop offset="1" style="stop-color: white; stop-opacity: 1" /></linearGradient><g id="heli-cap"><path id="Shadow" d="M404.234,215.129C428.898,218.296 500.585,226.535 542.136,238.146C592.982,252.354 584.265,253.34 584.265,253.34L550.569,247.259L542.493,305.294C542.493,305.294 541.37,323.811 530.272,331.323C519.173,338.835 479.09,333.357 447.17,329.124C424.063,326.059 407.352,325.468 399.884,325.376C392.417,325.468 375.705,326.059 352.598,329.124C320.678,333.357 280.595,338.835 269.497,331.323C258.398,323.811 257.275,305.294 257.275,305.294L249.199,247.259L215.503,253.34C215.503,253.34 207.131,252.297 257.976,238.089C299.527,226.479 370.87,218.296 395.534,215.129L395.534,214.041C395.534,214.041 397.081,214.225 399.884,214.577C402.687,214.225 404.234,214.041 404.234,214.041L404.234,215.129Z" style="fill: rgb(56, 25, 57); fill-opacity: 0.5" /><g id="fan-bit"><path d="M395.662,27.087C395.662,27.087 305.36,21.898 297.195,21.931C289.03,21.964 217.675,23.635 219.953,27.087C222.232,30.54 246.78,39.059 264.821,40.14C282.862,41.221 395.662,31.814 395.662,31.814L395.662,27.087Z" style="fill: rgb(255, 223, 92)" /><clipPath id="_clip1_helicap"><path d="M395.662,27.087C395.662,27.087 305.36,21.898 297.195,21.931C289.03,21.964 217.675,23.635 219.953,27.087C222.232,30.54 246.78,39.059 264.821,40.14C282.862,41.221 395.662,31.814 395.662,31.814L395.662,27.087Z" /></clipPath><g clip-path="url(#_clip1_helicap)"><path d="M225.045,30.993C224.466,30.556 226.493,31.072 227.216,31.134C228.615,31.253 230.015,31.49 231.402,31.711C235.56,32.373 239.679,33.266 243.832,33.951C256.481,36.039 268.516,36.65 281.321,35.92C311.507,34.198 341.744,31.992 371.953,30.788C378.744,30.517 385.563,29.762 392.361,29.793C393.154,29.796 398.369,29.49 398.481,30.879C398.643,32.871 390.787,34.056 389.713,34.297C379.34,36.621 368.638,37.688 358.071,38.674C335.223,40.808 312.31,42.38 289.381,43.297C269.861,44.077 249.889,44.568 231.024,38.676" style="fill: rgb(160, 127, 79)" /><path d="M221.982,34.549C221.357,34.464 223.132,34.023 223.728,33.816C224.969,33.385 226.236,33.022 227.503,32.675C231.207,31.658 234.941,30.706 238.7,29.914C250.216,27.49 261.202,27.44 272.971,27.087C304.553,26.141 336.842,27.518 368.406,28.034C376.092,28.159 383.776,28.339 391.464,28.358C393.343,28.363 395.23,28.409 397.107,28.295C397.365,28.279 398.648,28.328 398.721,27.932C398.808,27.454 397.199,26.951 396.934,26.847C394.602,25.938 392.138,25.344 389.71,24.758C378.824,22.128 367.743,20.21 356.698,18.389C320.376,12.401 283.559,9.397 247.002,15.239C236.346,16.943 224.953,18.817 215.008,23.192C211.62,24.682 204.696,29.027 210.51,32.198" style="fill: rgb(254, 239, 171)" /></g><path d="M395.662,27.087C395.662,27.087 305.36,21.898 297.195,21.931C289.03,21.964 217.675,23.635 219.953,27.087C222.232,30.54 246.78,39.059 264.821,40.14C282.862,41.221 395.662,31.814 395.662,31.814L395.662,27.087Z" style="fill: none; stroke: black; stroke-width: 2.1px" /><g transform="matrix(-1,0,0,1,800.877,0)"><path d="M395.662,27.087C395.662,27.087 305.36,21.898 297.195,21.931C289.03,21.964 217.675,23.635 219.953,27.087C222.232,30.54 246.78,39.059 264.821,40.14C282.862,41.221 395.662,31.814 395.662,31.814L395.662,27.087Z" style="fill: rgb(255, 223, 92)" /><clipPath id="_clip2_helicap"><path d="M395.662,27.087C395.662,27.087 305.36,21.898 297.195,21.931C289.03,21.964 217.675,23.635 219.953,27.087C222.232,30.54 246.78,39.059 264.821,40.14C282.862,41.221 395.662,31.814 395.662,31.814L395.662,27.087Z" /></clipPath><g clip-path="url(#_clip2_helicap)"><path d="M225.045,30.993C224.466,30.556 226.493,31.072 227.216,31.134C228.615,31.253 230.015,31.49 231.402,31.711C235.56,32.373 239.679,33.266 243.832,33.951C256.481,36.039 268.516,36.65 281.321,35.92C311.507,34.198 341.744,31.992 371.953,30.788C378.744,30.517 385.563,29.762 392.361,29.793C393.154,29.796 398.369,29.49 398.481,30.879C398.643,32.871 390.787,34.056 389.713,34.297C379.34,36.621 368.638,37.688 358.071,38.674C335.223,40.808 312.31,42.38 289.381,43.297C269.861,44.077 249.889,44.568 231.024,38.676" style="fill: rgb(160, 127, 79)" /><path d="M221.982,34.549C221.357,34.464 223.132,34.023 223.728,33.816C224.969,33.385 226.236,33.022 227.503,32.675C231.207,31.658 234.941,30.706 238.7,29.914C250.216,27.49 261.202,27.44 272.971,27.087C304.553,26.141 336.842,27.518 368.406,28.034C376.092,28.159 383.776,28.339 391.464,28.358C393.343,28.363 395.23,28.409 397.107,28.295C397.365,28.279 398.648,28.328 398.721,27.932C398.808,27.454 397.199,26.951 396.934,26.847C394.602,25.938 392.138,25.344 389.71,24.758C378.824,22.128 367.743,20.21 356.698,18.389C320.376,12.401 283.559,9.397 247.002,15.239C236.346,16.943 224.953,18.817 215.008,23.192C211.62,24.682 204.696,29.027 210.51,32.198" style="fill: rgb(254, 239, 171)" /></g><path d="M395.662,27.087C395.662,27.087 305.36,21.898 297.195,21.931C289.03,21.964 217.675,23.635 219.953,27.087C222.232,30.54 246.78,39.059 264.821,40.14C282.862,41.221 395.662,31.814 395.662,31.814L395.662,27.087Z" style="fill: none; stroke: black; stroke-width: 2.1px" /></g><path d="M395.662,36.495L395.751,21.86C395.751,21.86 396.109,18.084 399.915,17.68C399.926,17.679 399.937,17.679 399.948,17.68C399.959,17.679 399.971,17.679 399.982,17.68C403.788,18.084 404.145,21.86 404.145,21.86L404.234,36.495L395.662,36.495Z" style="fill: rgb(255, 223, 92)" /><clipPath id="_clip3_helicap"><path d="M395.662,36.495L395.751,21.86C395.751,21.86 396.109,18.084 399.915,17.68C399.926,17.679 399.937,17.679 399.948,17.68C399.959,17.679 399.971,17.679 399.982,17.68C403.788,18.084 404.145,21.86 404.145,21.86L404.234,36.495L395.662,36.495Z" /></clipPath><g clip-path="url(#_clip3_helicap)"><path d="M396.408,29.617C396.622,29.65 396.458,29.188 396.499,28.976C396.586,28.528 396.7,28.084 396.829,27.647C397.214,26.343 397.757,24.643 399.011,23.909C400.932,22.783 402.315,25.251 402.895,26.692C403,26.952 403.771,29.292 403.827,29.257C404.439,28.867 404.137,25.96 404.128,25.393C404.091,23.044 404.028,20.205 402.607,18.211C400.488,15.235 397.048,17.454 396.012,20.143C395.592,21.235 395.43,22.372 395.383,23.535C395.31,25.354 395.397,27.164 395.535,28.977" style="fill: rgb(254, 239, 171)" /><path d="M397.685,37.145C397.749,37.229 397.921,36.235 397.982,35.601C398.159,33.772 398.137,29.726 398.588,28.438C398.797,27.841 399.356,26.99 400.104,27.024C400.945,27.062 401.459,28.117 401.604,28.989C401.909,30.833 402.046,33.45 402.211,35.31C402.242,35.657 402.318,36.883 402.038,37.169C401.738,37.475 401.072,37.264 400.699,37.246" style="fill: rgb(160, 127, 79)" /></g><path d="M395.662,36.495L395.751,21.86C395.751,21.86 396.109,18.084 399.915,17.68C399.926,17.679 399.937,17.679 399.948,17.68C399.959,17.679 399.971,17.679 399.982,17.68C403.788,18.084 404.145,21.86 404.145,21.86L404.234,36.495L395.662,36.495Z" style="fill: none; stroke: black; stroke-width: 2.1px" /></g><g id="Cap"><g transform="matrix(1,0,0,1.17244,0.492122,-13.9146)"><ellipse cx="399.645" cy="49.941" rx="13.8" ry="6.946" style="fill: rgb(235, 65, 81)" /><clipPath id="_clip4"><ellipse cx="399.645" cy="49.941" rx="13.8" ry="6.946" /></clipPath><g clip-path="url(#_clip4)"><g transform="matrix(1,0,0,0.85292,-0.492122,11.868)"><path d="M401.096,36.072C401.204,36.209 400.782,36.223 400.629,36.306C400.317,36.474 400.014,36.659 399.719,36.855C398.851,37.433 397.984,38.08 397.247,38.82C396.394,39.676 395.756,40.729 395.141,41.761C394.702,42.5 394.314,43.34 393.452,43.653C391.461,44.376 388.942,43.894 386.882,43.762C386.382,43.73 384.99,43.751 384.867,43.052C384.762,42.453 385.534,41.728 385.889,41.348C387.186,39.958 388.811,38.787 390.491,37.908C392.195,37.015 394.026,36.518 395.915,36.2L401.096,36.072ZM400.846,37.102C400.704,37.107 401.084,37.26 401.196,37.348C401.422,37.524 401.643,37.71 401.856,37.901C402.508,38.488 403.129,39.093 403.652,39.801C404.274,40.64 404.859,41.926 405.729,42.523C406.892,43.323 409.006,43.103 410.336,43.246C410.947,43.312 412.812,43.875 413.279,43.263C413.926,42.417 412.056,40.88 411.571,40.433C409.234,38.282 406.484,36.91 403.337,36.446L400.846,37.102Z" style="fill: rgb(245, 180, 162)" /></g></g><ellipse cx="399.645" cy="49.941" rx="13.8" ry="6.946" style="fill: none; stroke: black; stroke-width: 1.93px" /></g><path d="M397.676,42.89C398.239,42.681 401.591,42.681 402.153,42.89C501.816,49.249 562.727,112.371 575.583,128.609C598.099,165.571 588.808,253.34 588.808,253.34L550.413,240.154C501.393,225.168 450.081,213.936 399.915,213.936C349.748,213.936 298.436,225.168 249.416,240.154L211.021,253.34C211.021,253.34 201.73,165.571 224.246,128.609C237.102,112.371 298.013,49.249 397.676,42.89Z" style="fill: url(#_Linear5)" /><clipPath id="_clip6"><path d="M397.676,42.89C398.239,42.681 401.591,42.681 402.153,42.89C501.816,49.249 562.727,112.371 575.583,128.609C598.099,165.571 588.808,253.34 588.808,253.34L550.413,240.154C501.393,225.168 450.081,213.936 399.915,213.936C349.748,213.936 298.436,225.168 249.416,240.154L211.021,253.34C211.021,253.34 201.73,165.571 224.246,128.609C237.102,112.371 298.013,49.249 397.676,42.89Z" /></clipPath><g clip-path="url(#_clip6)"><path d="M249.199,239.63C249.199,239.63 253.866,164.607 268.912,136.528C283.959,108.45 312.705,85.883 333.536,71.098C354.368,56.313 390.641,43.187 390.777,43.294C390.913,43.4 396.586,42.578 396.586,42.578C396.586,42.578 374.576,62.921 364.35,92.142C354.124,121.362 346.116,161.226 347.318,218.647C340.968,218.814 275.527,230.905 267.561,234.361C259.596,237.818 249.199,239.63 249.199,239.63ZM551.074,239.63C551.074,239.63 546.408,164.607 531.361,136.528C516.315,108.45 487.569,85.883 466.737,71.098C445.905,56.313 409.632,43.187 409.496,43.294C409.361,43.4 403.687,42.578 403.687,42.578C403.687,42.578 425.697,62.921 435.923,92.142C446.149,121.362 454.157,161.226 452.955,218.647C459.305,218.814 524.746,230.905 532.712,234.361C540.678,237.818 551.074,239.63 551.074,239.63Z" style="fill: url(#_Linear7)" /><path d="M386.51,40.023C386.149,40.084 385.678,40.219 385.621,40.231C382.237,40.915 378.883,41.767 375.538,42.617C363.669,45.633 355.109,49.217 343.932,54.254C303.045,72.682 247.542,103.044 231.39,146.585C222.965,169.296 223.688,209.652 225.073,237.051C225.43,244.108 227.418,247.931 226.532,254.956C225.78,260.918 213.933,261.098 210.297,258.578C204.079,254.269 201.397,245.103 200.242,238.083C197.333,220.407 199.714,201.275 201.542,183.602C203.778,161.983 208.463,138.497 220.356,119.889C230.231,104.439 245.732,92.839 260.744,82.753C294.17,60.297 333.806,42.68 374.377,39.606L386.51,40.023ZM413.666,40.023C414.027,40.084 414.499,40.219 414.555,40.231C417.94,40.915 421.293,41.767 424.639,42.617C436.507,45.633 445.067,49.217 456.244,54.254C497.131,72.682 552.634,103.044 568.786,146.585C577.211,169.296 576.488,209.652 575.104,237.051C574.747,244.108 572.758,247.931 573.644,254.956C574.396,260.918 586.243,261.098 589.88,258.578C596.098,254.269 598.779,245.103 599.934,238.083C602.844,220.407 600.463,201.275 598.635,183.602C596.398,161.983 591.713,138.497 579.82,119.889C569.946,104.439 554.444,92.839 539.432,82.753C506.007,60.297 466.371,42.68 425.8,39.606L413.666,40.023ZM386.51,40.023L386.927,40.038C386.903,39.978 386.727,39.987 386.51,40.023ZM413.666,40.023L413.25,40.038C413.273,39.978 413.45,39.987 413.666,40.023Z" style="fill: rgb(245, 180, 162)" /><path d="M249.586,240.272C249.586,240.272 250.164,154.307 278.814,120.051C307.465,85.795 350.156,54.702 391.1,43.408" style="fill: none; stroke: black; stroke-width: 2.1px" /><g transform="matrix(-1,0,0,1,799.538,0)"><path d="M249.586,240.272C249.586,240.272 250.164,154.307 278.814,120.051C307.465,85.795 350.442,54.751 391.387,43.457" style="fill: none; stroke: black; stroke-width: 2.1px" /></g><path d="M347.158,217.127C347.158,217.127 347.667,120.455 367.04,84.844C386.412,49.233 394.933,43.753 394.933,43.753" style="fill: none; stroke: black; stroke-width: 2.1px" /><g transform="matrix(-1,0,0,1,799.538,0)"><path d="M347.158,217.127C347.158,217.127 347.667,120.455 367.04,84.844C386.412,49.233 394.933,43.753 394.933,43.753" style="fill: none; stroke: black; stroke-width: 2.1px" /></g></g><path d="M397.676,42.89C398.239,42.681 401.591,42.681 402.153,42.89C501.816,49.249 562.727,112.371 575.583,128.609C598.099,165.571 588.808,253.34 588.808,253.34L550.413,240.154C501.393,225.168 450.081,213.936 399.915,213.936C349.748,213.936 298.436,225.168 249.416,240.154L211.021,253.34C211.021,253.34 201.73,165.571 224.246,128.609C237.102,112.371 298.013,49.249 397.676,42.89Z" style="fill: none; stroke: black; stroke-width: 2.1px" /><path d="M400.347,214.257L401.046,214.208C401.046,214.208 449.984,210.469 544.124,238.299C546.339,238.954 551.328,240.087 551.328,240.087C551.328,240.087 551.171,297.659 547.632,301.641C544.093,305.623 528.746,308.238 501.077,299.129C475.591,290.739 428.873,277.289 406.043,275.531L406.052,275.716C406.052,275.716 403.087,275.432 400.347,275.357C397.607,275.432 394.642,275.716 394.642,275.716L394.651,275.531C371.821,277.289 325.102,290.739 299.616,299.129C271.947,308.238 256.601,305.623 253.062,301.641C249.522,297.659 249.366,240.087 249.366,240.087C249.366,240.087 254.355,238.954 256.57,238.299C350.709,210.469 399.648,214.208 399.648,214.208L400.347,214.257Z" style="fill: url(#_Linear8)" /><clipPath id="_clip9"><path d="M400.347,214.257L401.046,214.208C401.046,214.208 449.984,210.469 544.124,238.299C546.339,238.954 551.328,240.087 551.328,240.087C551.328,240.087 551.171,297.659 547.632,301.641C544.093,305.623 528.746,308.238 501.077,299.129C475.591,290.739 428.873,277.289 406.043,275.531L406.052,275.716C406.052,275.716 403.087,275.432 400.347,275.357C397.607,275.432 394.642,275.716 394.642,275.716L394.651,275.531C371.821,277.289 325.102,290.739 299.616,299.129C271.947,308.238 256.601,305.623 253.062,301.641C249.522,297.659 249.366,240.087 249.366,240.087C249.366,240.087 254.355,238.954 256.57,238.299C350.709,210.469 399.648,214.208 399.648,214.208L400.347,214.257Z" /></clipPath><g clip-path="url(#_clip9)"><path d="M251.594,304.731C251.855,304.832 251.343,304.231 251.219,303.98C250.987,303.508 250.764,303.037 250.575,302.546C250.178,301.512 248.566,297.054 250.267,296.409C250.947,296.151 251.987,297.086 252.485,297.443C254.046,298.559 255.536,299.132 257.393,299.572C262.424,300.766 267.816,300.083 272.82,299.104C280.741,297.554 288.173,294.644 295.884,292.343C309.5,288.281 323.323,284.314 337.073,280.731C358.304,275.198 380.747,268.911 402.879,269.112C413.132,269.206 423.378,271.42 433.364,273.556C447.757,276.636 462.055,280.229 476.212,284.264C492.078,288.786 507.505,294.936 523.521,298.915C526.586,299.676 536.917,300.668 544.665,299.083C547.082,298.589 549.341,294.044 550.722,294.862C552.363,295.833 552.898,302.364 552.859,304.112C552.755,308.734 528.869,308.393 526.293,308.154C525.101,308.044 523.911,307.919 522.722,307.782C521.31,307.618 519.899,307.44 518.49,307.25C516.83,307.027 515.17,306.794 513.513,306.547C511.62,306.266 509.729,305.973 507.84,305.669C472.977,300.059 438.366,292.599 402.918,291.939C380.65,291.524 358.558,294.166 336.816,298.89C319.525,302.647 302.576,307.914 285.225,311.392C273.857,313.671 251.512,316.991 247.271,301.573" style="fill: rgb(136, 47, 70)" /><path d="M304.06,221.428C304.196,221.397 304.296,221.385 304.356,221.393L304.06,221.428C301.643,221.973 287.912,228.319 284.128,230.433C275.725,235.129 262.331,240.137 258.778,247.358C256.559,251.869 256.411,257.63 256.193,262.592C256.007,266.843 256.49,272.054 256.819,276.295C257.425,284.097 256.806,291.928 265.149,294.62C268.762,295.785 274.938,295.658 278.728,295.876C280.053,295.953 286.575,295.818 286.575,295.875C286.575,296.105 271.974,299.379 267.78,299.819C263.539,300.264 258.059,300.249 254.244,298C244.208,292.081 243.503,272.492 242.848,262.664C242.333,254.936 241.625,246.108 245.124,238.937C247.754,233.545 252.778,229.873 257.849,226.955L304.06,221.428ZM496.238,221.428C498.655,221.973 512.386,228.319 516.17,230.433C524.573,235.129 537.967,240.137 541.52,247.358C543.739,251.869 543.887,257.63 544.105,262.592C544.291,266.843 543.808,272.054 543.479,276.295C542.874,284.097 543.492,291.928 535.149,294.62C531.536,295.785 525.36,295.658 521.57,295.876C520.245,295.953 513.723,295.818 513.723,295.875C513.723,296.105 528.324,299.379 532.519,299.819C536.759,300.264 542.239,300.249 546.054,298C556.09,292.081 556.795,272.492 557.45,262.664C557.966,254.936 558.673,246.108 555.174,238.937C552.544,233.545 547.521,229.873 542.449,226.955L496.238,221.428C496.102,221.397 496.003,221.385 495.942,221.393L496.238,221.428Z" style="fill: rgb(245, 180, 162)" /><path d="M251.677,295.591C251.677,295.591 256.821,304.1 277.718,297.961C298.615,291.823 371.118,268.698 399.043,268.92C426.969,269.142 476.724,284.555 501.938,292.832C527.152,301.109 544.899,301.572 548.436,295.121" style="fill: none; stroke: black; stroke-width: 2.1px" /></g><path d="M400.347,214.257L401.046,214.208C401.046,214.208 449.984,210.469 544.124,238.299C546.339,238.954 551.328,240.087 551.328,240.087C551.328,240.087 551.171,297.659 547.632,301.641C544.093,305.623 528.746,308.238 501.077,299.129C475.591,290.739 428.873,277.289 406.043,275.531L406.052,275.716C406.052,275.716 403.087,275.432 400.347,275.357C397.607,275.432 394.642,275.716 394.642,275.716L394.651,275.531C371.821,277.289 325.102,290.739 299.616,299.129C271.947,308.238 256.601,305.623 253.062,301.641C249.522,297.659 249.366,240.087 249.366,240.087C249.366,240.087 254.355,238.954 256.57,238.299C350.709,210.469 399.648,214.208 399.648,214.208L400.347,214.257Z" style="fill: none; stroke: black; stroke-width: 2.1px" /></g></g><linearGradient id="_Linear5" x1="0" y1="0" x2="1" y2="0" gradientUnits="userSpaceOnUse" gradientTransform="matrix(0.676239,212.321,-212.321,0.676239,399.671,115.988)"><stop offset="0" style="stop-color: rgb(236, 65, 81); stop-opacity: 1" /><stop offset="0.5" style="stop-color: rgb(220, 55, 76); stop-opacity: 1" /><stop offset="1" style="stop-color: rgb(172, 27, 60); stop-opacity: 1" /></linearGradient><linearGradient id="_Linear7" x1="0" y1="0" x2="1" y2="0" gradientUnits="userSpaceOnUse" gradientTransform="matrix(0.676239,174.104,-174.104,0.676239,399.671,95.0041)"><stop offset="0" style="stop-color: rgb(245, 249, 251); stop-opacity: 1" /><stop offset="0.59" style="stop-color: rgb(226, 236, 243); stop-opacity: 1" /><stop offset="0.81" style="stop-color: rgb(183, 208, 225); stop-opacity: 1" /><stop offset="1" style="stop-color: rgb(140, 180, 206); stop-opacity: 1" /></linearGradient><linearGradient id="_Linear8" x1="0" y1="0" x2="1" y2="0" gradientUnits="userSpaceOnUse" gradientTransform="matrix(6.8912e-15,-112.542,112.542,6.8912e-15,399.671,269.108)"><stop offset="0" style="stop-color: rgb(236, 65, 81); stop-opacity: 1" /><stop offset="0.46" style="stop-color: rgb(227, 63, 84); stop-opacity: 1" /><stop offset="1" style="stop-color: rgb(203, 57, 90); stop-opacity: 1" /></linearGradient></defs></svg>