<svg version="1.1" id="Logo" xmlns="http://www.w3.org/2000/svg" viewBox="0 0 1200 400" xml:space="preserve">
	<g>
		<g>
			<g>
				<linearGradient id="SVGID_1_" gradientUnits="userSpaceOnUse" x1="200.6935" y1="239.7638" x2="200.6935" y2="564.005" gradientTransform="matrix(1 0 0 -1 0 602)">
					<stop offset="0" style="stop-color:#001D37"/>
					<stop offset="0.2048" style="stop-color:#002537"/>
					<stop offset="0.5267" style="stop-color:#003C37"/>
					<stop offset="0.9235" style="stop-color:#006037"/>
					<stop offset="1" style="stop-color:#006837"/>
				</linearGradient>
				<path class="st0" fill="url(#SVGID_1_)" d="M191.9,39.1c-2.2,0.7-5.1,2-7.1,3.1c-1.8,1.1-34.5,33.4-72.9,72c-78,78-73.3,72.4-73.3,86.2
				s-4.5,8,73.7,86.4c79.1,79.1,74.6,75.3,88.5,75.3c14.7,0,9.8,4,88.5-74.6c55.3-55.3,69.7-70.2,71.3-74c1.8-4,2.2-6.2,2.2-13.4
				s-0.4-9.8-2.2-13.4c-1.8-3.8-16.3-18.9-71.3-74c-62.2-62.2-69.7-69.5-74.9-72C207.7,37.8,197.9,37.1,191.9,39.1z"/>

				<linearGradient id="SVGID_00000032627298072131830170000006504364722110665119_" gradientUnits="userSpaceOnUse" x1="200.7058" y1="572" x2="200.7058" y2="232" gradientTransform="matrix(1 0 0 -1 0 602)">
					<stop offset="0" style="stop-color:#001D37"/>
					<stop offset="0.2048" style="stop-color:#002537"/>
					<stop offset="0.5267" style="stop-color:#003C37"/>
					<stop offset="0.9235" style="stop-color:#006037"/>
					<stop offset="1" style="stop-color:#006837"/>
				</linearGradient>
				<path style="fill:url(#SVGID_00000032627298072131830170000006504364722110665119_);" d="M199.9,38c4.9,0,10.2,1.1,14.3,3.1
				c5.1,2.5,12.7,9.8,74.9,72c55,55,69.7,70.2,71.3,74c1.8,3.8,2.2,6.2,2.2,13.4c0,7.4-0.4,9.6-2.2,13.4s-16,18.7-71.3,74
				c-71.3,71.3-73.7,74.6-84.7,74.6c-1.1,0-2.5,0-3.8,0c-1.3,0-2.5,0-3.3,0c-10.2,0-12.9-3.3-84.9-75.3
				c-78.2-78.7-73.7-72.9-73.7-86.7s-4.7-8.2,73.3-86.2c38.3-38.5,71.1-70.9,72.9-72c1.8-1.1,4.9-2.7,7.1-3.1
				C194.1,38.2,197,38,199.9,38 M199.9,30c-3.8,0-7.4,0.4-10.2,1.6c-3.8,1.1-7.8,3.3-8.9,4h-0.2h-0.2c-3.8,2.5-59.3,58.2-74,72.9
				l-13.8,13.8c-29.9,30.1-45,45.2-52.6,54.1c-8.5,10-9.4,14.5-9.1,22.1c0,0.7,0,1.3,0,2s0,1.3,0,2c-0.2,7.4,0.7,11.8,8.7,21.2
				c7.1,8.5,21.2,22.5,49,50.4c5.6,5.6,11.8,11.8,18.5,18.5l11.6,11.6c31,31,46.6,46.6,56.4,55c9.8,8.5,14.9,10.9,22.7,10.9
				c0.4,0,1.1,0,1.6,0s1.1,0,1.8,0s1.3,0,2,0c0.7,0,1.1,0,1.8,0c8,0,13.1-2.5,22.7-10.7s24.5-23.2,54.1-53l13.1-13.1
				c64.4-64.4,70.9-71.7,72.9-76.2c2.5-5.3,2.9-8.9,2.9-16.7c0-8-0.4-11.8-3.1-16.9c-2.2-4.7-8.9-12.3-72.9-76.2
				c-66.2-66.2-70.6-70.4-77.1-73.5C212.6,31.3,206.2,30,199.9,30L199.9,30z"/>
				<path class="st2" opacity="0.1" fill="#FFFFFF" d="M349.2,177.9l-11.4-11.4l-25.6,25.6h-92.7l53.3-53.5c11.1,4.7,24.1-0.2,28.7-11.4c0.2-0.4,0.4-0.9,0.4-1.3
				c-3.3-3.3-7.1-7.1-10.9-10.9c1.3,3.6,0.4,7.6-2.2,10.5c-3.8,4-10,3.8-14,0c-1.8-1.8-2.7-4.5-2.7-6.9c-0.2-2.7,0.9-5.1,2.7-7.1
				c2.9-2.9,7.1-3.6,10.7-2.2c-4-4-7.8-7.8-11.4-11.4c-5.6,2-10.2,6-12.7,11.8c-2.5,5.6-2.5,11.8,0,17.4l-53.3,53.3v-88L233.6,67
				l-11.4-11.4L208,69.9V41.4h-15.4v28.3l-14.3-14.3L167,66.8l25.8,25.6v88.7l-53.3-53.5c4.7-11.1-0.2-24.1-11.1-28.7
				c-0.2,0-0.4-0.2-0.7-0.2c-3.3,3.3-6.9,6.9-10.5,10.5c3.3-0.9,6.9,0,9.4,2.7c3.8,4,3.8,10.2-0.2,14c-4,3.8-10,3.8-13.8,0
				c-2.7-2.7-3.6-6.2-2.7-9.4c-3.8,3.8-7.4,7.4-10.7,10.7c2,5.1,6,9.4,11.4,11.8c5.6,2.5,11.8,2.5,17.4,0l53.5,53.5H89l-25.6-25.6
				l-11.1,11.4l14.3,14.3H39.1c-0.7,2.5-0.4,4.7-0.4,8c0,3.1-0.2,5.3,0.4,7.8h27.4l-14.3,14.3l11.1,11.4L89,208h92.7l-53.3,53.5
				c-11.1-4.7-24.1,0.2-28.7,11.4c-0.2,0.2-0.2,0.4-0.2,0.9c3.3,3.3,6.9,6.9,10.5,10.5c-1.1-3.3-0.2-7.1,2.5-9.8
				c1.8-1.8,4.5-2.9,7.1-2.9c5.6,0,10,4.5,10,10c0,2.7-0.9,5.3-2.9,7.1c-2.7,2.7-6.5,3.6-10,2.5c4,4,7.6,7.6,11.1,11.1
				c5.3-2,9.8-6,12-11.6c2.5-5.6,2.5-11.8,0-17.4l53.5-53.5v88.7l-25.4,25.4l11.4,11.4l14.3-14.3v28.3h15.8V331l14.3,14.3l11.4-11.4
				l-26.1-25.6v-89.1l53.3,53.3c-4.9,10.9,0,24.1,11.1,28.7c0.7,0.2,1.1,0.4,1.8,0.7c3.8-3.8,7.6-7.6,11.8-11.8
				c-1.3,0.7-2.9,1.1-4.7,1.1c-5.6,0-10-4.5-10-10c0-5.6,4.5-10,10-10s10,4.5,10,10c0,1.8-0.4,3.3-1.1,4.7
				c4.2-4.2,8.2-8.2,11.8-11.8c-2-5.6-6-10.5-11.8-12.9c-5.6-2.7-11.8-2.7-17.6,0l-53.3-53.5h92.7l25.4,25.4l11.4-11.4l-14.3-14.3
				H363c0.2-1.8,0.2-4,0.2-7.4c0-3.8,0-6-0.4-8h-27.4L349.2,177.9z"/>
				<g>
					<g>
						<g>

							<linearGradient id="SVGID_00000175282120157342080540000014864819228809247363_" gradientUnits="userSpaceOnUse" x1="200.6089" y1="481.3185" x2="200.6089" y2="322.6815" gradientTransform="matrix(1 0 0 -1 0 602)">
								<stop offset="0" style="stop-color:#39B54A"/>
								<stop offset="1" style="stop-color:#D9E021"/>
							</linearGradient>

							<path id="SVGID_00000111168901724193085610000003731207404949685684_" style="fill:url(#SVGID_00000175282120157342080540000014864819228809247363_);" d="
							M200.6,124.7c41.7,0,75.3,33.6,75.3,75.3s-33.6,75.3-75.3,75.3s-75.3-33.6-75.3-75.3S159.2,124.7,200.6,124.7 M200.6,120.7
							c-43.7,0-79.3,35.6-79.3,79.3s35.6,79.3,79.3,79.3s79.3-35.6,79.3-79.3S244.5,120.7,200.6,120.7L200.6,120.7z"/>
						</g>
					</g>
				</g>
				<g>
					<g>
						<g>
							<linearGradient id="SVGID_00000145778042268540693350000016332868867080637837_" gradientUnits="userSpaceOnUse" x1="200.6089" y1="304.9032" x2="200.6089" y2="455.5192" gradientTransform="matrix(1 0 0 -1 0 602)">
								<stop offset="0" style="stop-color:#39B54A"/>
								<stop offset="1" style="stop-color:#D9E021"/>
							</linearGradient>
							<circle id="SVGID_00000132800620935544219160000018157359996180826006_" style="fill:url(#SVGID_00000145778042268540693350000016332868867080637837_);" cx="200.6" cy="200.2" r="75.3"/>
						</g>
					</g>
				</g>
				<path class="st5" fill="#EDF790" d="M146,171.7c-2.2,0-4-1.8-4-4c0-0.7,0.2-1.3,0.7-2c9.6-16.3,25.6-27.9,44.1-31.6c2.2-0.7,4.5,0.9,4.7,2.9
				c0.7,2.2-0.9,4.5-2.9,4.7h-0.4c-16.3,3.6-30.3,13.6-38.8,28.1C148.7,171.3,147.6,171.7,146,171.7z"/>
			</g>
			<g>
				<path class="st6" d="M215.1,224.1c-2,0-3.8,1.6-3.8,3.6c0,6.2-5.6,8.9-10.7,8.9s-10.7-2.9-10.7-8.9c0-2-1.6-3.6-3.8-3.6
				c-2,0-3.8,1.6-3.8,3.6c0,10.7,8.9,16.3,17.8,16.3s17.8-5.6,18-16.3C218.7,225.6,217.1,224.1,215.1,224.1z"/>
				<path class="st7" fill="#FFFFFF" d="M176.1,201.6c-2.7,5.6-8.2,9.4-14.7,9.4c-8.9,0-16-7.1-16-16c0-2.5,0.4-4.9,1.3-6.7l-12.5-5.8
				c-6.9,14.9-0.4,32.8,14.5,39.7c14.9,6.9,32.8,0.4,39.7-14.5L176.1,201.6z"/>
				<path class="st6" d="M161.4,210.9c6.5,0,12-3.8,14.7-9.4l-29.2-13.8c-0.9,2.2-1.3,4.2-1.3,6.7
				C145.1,203.8,152.5,210.9,161.4,210.9z"/>
				<path class="st7" fill="#FFFFFF" d="M225.3,201.6c2.7,5.6,8.2,9.4,14.7,9.4c8.9,0,16-7.1,16-16c0-2.5-0.4-4.9-1.3-6.7l12.5-5.8
				c6.9,14.9,0.4,32.8-14.5,39.7c-14.9,6.9-32.8,0.4-39.7-14.5L225.3,201.6z"/>
				<path class="st6" d="M240,210.9c-6.5,0-12-3.8-14.7-9.4l29.2-13.8c0.9,2.2,1.3,4.2,1.3,6.7C256.3,203.8,249,210.9,240,210.9z"/>
			</g>
		</g>
		<g>
			<path class="st8" fill="#11171D" d="M1165.5,209l-62.2,0.3l-0.8,17.2h-1.1v-42.1h1.6l0.5,14l61.7,0.3l4-88.1l-132.9,2.6v1.1l-58.5,1.9l-0.3-3.4
			l-71.7,0.5l0.3,10.3l-5-10.1l-56.9-0.5V110L688,111.6l0.3,3.4l-133.7-4v-0.8l-15.1,0.3l0,0l0,0l-117.5,2.4l-1.3,173.6l132.9,1.3
			v-1.6h64.6l-1.9-40.5l10.3,6.1V290H706v-4.8l122.8,1.1v0.5l83.4,0.5l-0.8-6.4l3.7,6.1l71.7,0.5v-0.8l56.9,1.1v-1.3l123.9,1.3
			L1165.5,209z M488.1,226.2h-1.1v-42.1h1.6l0.5,14l51.1,0.3V209h-51.4L488.1,226.2z M625.8,170.9l-6.4,4.8h-9.5v-7.1l15.9,1.1
			V170.9z M697,209.5l1.3,13.8l-12.2-10.9L697,209.5z M772.1,214l-10.1,0.3l1.9-34.4l9.5,0.5L772.1,214z"/>
			<g>

				<linearGradient id="SVGID_00000042001504362112041370000017465812186959476119_" gradientUnits="userSpaceOnUse" x1="487.9765" y1="319.7963" x2="487.9765" y2="484.1549" gradientTransform="matrix(1 0 0 -1 0 602)">
					<stop offset="0" style="stop-color:#39B54A"/>
					<stop offset="1" style="stop-color:#D9E021"/>
				</linearGradient>
				<polygon style="fill:url(#SVGID_00000042001504362112041370000017465812186959476119_);" points="496.1,176.4 496.8,190.5 
				543.4,190.7 546.9,118.2 430.1,120.6 429.1,278.6 545.8,279.9 543.7,216.9 496.6,216.9 495.5,233.9 479.4,234.4 479.4,176.7 			
				"/>

				<linearGradient id="SVGID_00000049198736774385840320000013459229604645526432_" gradientUnits="userSpaceOnUse" x1="692.1971" y1="317.419" x2="692.1971" y2="484.5459" gradientTransform="matrix(1 0 0 -1 0 602)">
					<stop offset="0" style="stop-color:#39B54A"/>
					<stop offset="1" style="stop-color:#D9E021"/>
				</linearGradient>
				<path style="fill:url(#SVGID_00000049198736774385840320000013459229604645526432_);" d="M697.5,123l-149.8-4.5l1.1,159.9h61.7
				l-2.1-46.6l26.7,15.4v34.9h63.8v-47.9l-28.3-25.4l28.1-7.9l1.1-53.7L711,277.3l122.8,1.1l2.9-160.7L697,119L697.5,123z
				 M633.7,174.9l-11.6,8.5h-19.9V160l31.5,2.4V174.9z M756.5,171.4l25.1,1.6l-1.9,48.4l-25.9,0.8L756.5,171.4z"/>

				<linearGradient id="SVGID_00000140709417361227865290000004459155040160521390_" gradientUnits="userSpaceOnUse" x1="908.4619" y1="319.8289" x2="908.4619" y2="481.9901" gradientTransform="matrix(1 0 0 -1 0 602)">
					<stop offset="0" style="stop-color:#39B54A"/>
					<stop offset="1" style="stop-color:#D9E021"/>
				</linearGradient>
				<path style="fill:url(#SVGID_00000140709417361227865290000004459155040160521390_);" d="M914.6,120.9l1.3,37.9l-18.8-37.6
				l-54.5-0.5l-5,158.6l66.4,0.5l-5.3-44.7c2.1,4.8,4.5,9.5,6.6,14c6.4,13.8,11.4,24.6,13.5,28.1l1.6,2.6l59,0.5l-8.5-159.4
				L914.6,120.9z"/>

				<linearGradient id="SVGID_00000013189307901744852430000013808581248228066962_" gradientUnits="userSpaceOnUse" x1="1010.7708" y1="319.6928" x2="1010.7708" y2="480.8481" gradientTransform="matrix(1 0 0 -1 0 602)">
					<stop offset="0" style="stop-color:#39B54A"/>
					<stop offset="1" style="stop-color:#D9E021"/>
				</linearGradient>
				<polygon style="fill:url(#SVGID_00000013189307901744852430000013808581248228066962_);" points="979.4,278.9 1036.6,279.9 
				1042.1,121.6 980.5,123.5 			"/>

				<linearGradient id="SVGID_00000061454958770209976590000012526550677083823797_" gradientUnits="userSpaceOnUse" x1="1102.359" y1="319.7963" x2="1102.359" y2="484.1549" gradientTransform="matrix(1 0 0 -1 0 602)">
					<stop offset="0" style="stop-color:#39B54A"/>
					<stop offset="1" style="stop-color:#D9E021"/>
				</linearGradient>
				<polygon style="fill:url(#SVGID_00000061454958770209976590000012526550677083823797_);" points="1111,216.9 1109.9,233.9 
				1093.8,234.4 1093.8,176.7 1110.7,176.4 1111.2,190.5 1158.1,190.7 1161.3,118.2 1044.5,120.6 1043.5,278.6 1160.2,279.9 
				1158.1,216.9 			"/>
			</g>

			<linearGradient id="SVGID_00000102531066238825799480000017256952503124775297_" gradientUnits="userSpaceOnUse" x1="795.1678" y1="479.0294" x2="795.1678" y2="325.154" gradientTransform="matrix(1 0 0 -1 0 602)">
				<stop offset="0" style="stop-color:#39B54A"/>
				<stop offset="1" style="stop-color:#D9E021"/>
			</linearGradient>
			<path style="fill:url(#SVGID_00000102531066238825799480000017256952503124775297_);" d="M474.1,171.4v68.3l26.5-1.1l0.8-16.7
			h37.1l1.9,52.4l-106.1-1.1l1.1-148l106.1-2.1l-2.6,62.2h-36.8l-0.5-14H474.1z M693.5,197.1l-33.4,9.5l33.6,30.2v40.5h-53.7v-32.8
			L602.5,223l2.4,50.6h-51.1L553,124.3l141.6,4.2L693.5,197.1z M639,157.6l-41.8-3.2v34.1h26.7l15.1-11.1
			C639,177.5,639,157.6,639,157.6z M702.8,124.3l128.9-1.3l-2.9,150.4l-113-1.1L702.8,124.3z M748.3,227.8l36.5-1.1l2.1-58.5
			l-35.5-2.1L748.3,227.8z M920.1,125.9l1.9,56.4l-28.1-55.9l-46.1-0.5l-4.5,148l55.3,0.3l-8.2-69.9c10.3,19.6,29.1,62.7,33.1,69.9
			l50.6,0.3l-7.9-149L920.1,125.9z M984.7,273.9l47.1,0.8l5-147.7l-51.1,1.9L984.7,273.9z M1116,222.2l-0.8,16.7l-26.5,1.1v-68.3
			l27.3-0.3l0.5,14h36.8l2.9-61.9l-106.1,2.1l-1.1,148l106.1,1.1l-1.9-52.4L1116,222.2z"/>
		</g>
	</g>
</svg>
