<svg id="svg" version="1.1"
    xmlns="http://www.w3.org/2000/svg"
    xmlns:xlink="http://www.w3.org/1999/xlink" width="400" height="81.11888111888112" viewBox="0, 0, 400,81.11888111888112">
    <g id="svgg">
        <path id="path0" d="M361.750 4.909 C 360.833 5.021,359.671 5.244,359.167 5.404 C 358.662 5.564,357.762 5.847,357.167 6.033 C 353.357 7.220,349.433 9.984,347.020 13.181 C 346.031 14.489,344.500 17.399,344.500 17.967 C 344.500 18.129,344.342 18.709,344.149 19.256 C 343.682 20.579,343.594 24.353,344.016 25.005 C 344.163 25.232,344.335 25.817,344.399 26.307 C 344.463 26.796,344.662 27.470,344.841 27.804 C 345.020 28.138,345.167 28.542,345.167 28.702 C 345.167 28.862,345.401 29.425,345.686 29.955 C 348.196 34.601,352.273 37.853,359.333 40.838 C 370.236 45.449,373.362 49.136,368.621 51.795 C 365.926 53.306,359.436 53.026,356.776 51.282 C 356.539 51.127,356.296 51.000,356.236 51.000 C 355.838 51.000,353.877 49.549,352.807 48.463 C 352.104 47.750,351.391 47.167,351.222 47.167 C 350.736 47.167,341.488 56.326,341.495 56.800 C 341.498 57.011,341.749 57.424,342.052 57.717 C 342.356 58.010,342.926 58.679,343.318 59.203 C 344.753 61.118,347.632 63.397,350.083 64.557 C 350.633 64.817,351.225 65.105,351.399 65.198 C 351.820 65.422,353.420 65.984,354.250 66.199 C 354.617 66.294,355.174 66.481,355.488 66.614 C 355.802 66.747,356.439 66.896,356.904 66.945 C 357.369 66.994,358.474 67.176,359.360 67.350 C 361.446 67.761,366.009 67.788,367.750 67.402 C 368.392 67.259,369.406 67.083,370.005 67.011 C 370.603 66.939,371.316 66.766,371.588 66.626 C 371.860 66.487,372.395 66.321,372.776 66.258 C 373.157 66.194,373.607 66.038,373.776 65.910 C 373.945 65.782,374.189 65.675,374.318 65.672 C 374.714 65.663,377.854 64.031,379.000 63.239 C 381.217 61.706,384.489 58.056,384.923 56.630 C 384.987 56.421,385.136 56.137,385.254 56.000 C 385.372 55.862,385.557 55.419,385.665 55.015 C 385.772 54.611,385.958 54.123,386.078 53.932 C 386.197 53.740,386.346 53.171,386.407 52.667 C 386.469 52.163,386.647 51.563,386.802 51.333 C 387.248 50.673,387.167 46.073,386.684 44.680 C 386.491 44.122,386.333 43.550,386.333 43.409 C 386.333 41.796,382.140 36.273,379.607 34.551 C 379.229 34.294,378.544 33.802,378.085 33.459 C 377.626 33.116,377.181 32.834,377.096 32.834 C 377.012 32.834,376.825 32.727,376.680 32.598 C 376.050 32.034,370.675 29.514,368.417 28.724 C 368.050 28.596,367.600 28.422,367.417 28.338 C 367.233 28.253,366.558 27.984,365.917 27.738 C 359.247 25.189,357.999 22.191,362.701 20.017 C 364.681 19.102,370.081 19.514,371.236 20.669 C 371.326 20.760,371.508 20.833,371.641 20.833 C 371.993 20.833,373.498 21.870,374.577 22.856 L 375.513 23.712 375.950 23.314 C 376.190 23.096,377.443 21.896,378.735 20.649 C 382.902 16.625,383.679 15.920,384.184 15.705 C 386.242 14.827,381.409 9.242,376.617 6.960 C 374.917 6.151,373.638 5.667,373.200 5.667 C 372.992 5.667,372.544 5.549,372.203 5.406 C 370.659 4.755,365.137 4.493,361.750 4.909 M224.000 4.956 C 223.771 4.999,223.528 5.120,223.461 5.225 C 223.394 5.330,223.337 19.226,223.336 36.103 L 223.333 66.790 223.958 66.893 C 224.778 67.028,238.803 67.031,239.479 66.896 L 240.000 66.792 239.993 53.771 C 239.988 46.072,239.920 40.443,239.825 40.000 C 238.891 35.642,238.543 35.374,255.912 52.358 C 257.473 53.884,259.093 55.459,259.512 55.858 C 259.930 56.257,262.218 58.465,264.595 60.764 C 272.422 68.336,271.177 67.473,274.292 67.488 L 276.667 67.500 276.667 36.673 C 276.667 5.994,276.665 5.844,276.333 5.666 C 275.936 5.454,260.540 5.504,260.208 5.718 C 260.044 5.824,260.000 8.844,260.000 19.895 C 260.000 36.338,260.148 35.148,258.318 33.409 C 257.647 32.772,257.010 32.175,256.902 32.083 C 256.795 31.992,255.572 30.812,254.184 29.461 C 252.796 28.111,250.556 25.936,249.205 24.628 C 247.854 23.320,244.236 19.811,241.166 16.830 C 238.095 13.849,234.646 10.511,233.500 9.412 C 228.221 4.350,229.054 4.871,226.250 4.876 C 225.242 4.877,224.229 4.914,224.000 4.956 M109.611 5.778 C 109.550 5.839,109.500 19.601,109.500 36.361 L 109.500 66.833 117.833 66.833 L 126.167 66.833 126.167 59.369 C 126.167 52.332,126.148 51.851,125.833 50.957 C 125.096 48.858,124.923 48.936,130.619 48.814 C 134.302 48.735,135.641 48.648,136.383 48.439 C 136.915 48.289,137.552 48.167,137.800 48.167 C 139.308 48.170,144.450 45.974,146.333 44.523 C 146.654 44.276,147.111 43.951,147.348 43.801 C 148.751 42.913,151.679 39.609,152.767 37.687 C 153.949 35.598,154.141 35.216,154.153 34.936 C 154.161 34.764,154.309 34.389,154.482 34.103 C 154.656 33.817,154.851 33.246,154.915 32.833 C 154.979 32.421,155.136 31.920,155.262 31.720 C 155.389 31.520,155.537 31.033,155.591 30.637 C 155.645 30.241,155.803 29.598,155.942 29.209 C 156.706 27.061,155.761 21.646,154.012 18.151 C 151.548 13.228,145.719 8.101,141.417 7.073 C 141.142 7.007,140.709 6.848,140.454 6.720 C 140.200 6.592,139.562 6.410,139.038 6.315 C 138.513 6.220,137.762 6.036,137.369 5.905 C 136.614 5.653,109.858 5.531,109.611 5.778 M162.156 6.111 C 161.905 6.770,162.019 46.536,162.273 46.849 C 162.377 46.978,162.515 47.421,162.581 47.833 C 162.646 48.246,162.797 48.739,162.917 48.928 C 163.037 49.118,163.189 49.718,163.256 50.262 C 163.322 50.805,163.517 51.528,163.688 51.868 C 163.860 52.208,164.000 52.607,164.000 52.754 C 164.000 53.012,164.689 54.656,165.011 55.167 C 165.098 55.304,165.260 55.604,165.371 55.833 C 167.237 59.677,171.716 63.915,175.945 65.839 C 176.571 66.124,177.392 66.502,177.768 66.678 C 178.145 66.855,178.580 67.000,178.735 67.000 C 178.890 67.000,179.244 67.118,179.522 67.262 C 179.800 67.405,180.490 67.594,181.056 67.680 C 181.621 67.767,182.383 67.943,182.750 68.071 C 184.280 68.605,191.341 68.518,193.750 67.935 C 196.045 67.379,198.759 66.461,199.500 65.991 C 199.637 65.904,199.938 65.758,200.167 65.666 C 200.396 65.575,200.696 65.429,200.833 65.341 C 200.971 65.253,201.488 64.946,201.983 64.659 C 205.843 62.415,211.500 55.679,211.500 53.325 C 211.500 53.217,211.641 52.856,211.813 52.523 C 211.986 52.189,212.206 51.542,212.303 51.083 C 212.399 50.625,212.689 49.538,212.947 48.667 L 213.417 47.083 213.417 26.417 L 213.417 5.750 205.261 5.707 C 198.847 5.673,197.077 5.708,196.972 5.873 C 196.898 5.989,196.837 14.891,196.836 25.656 C 196.833 47.583,196.895 46.407,195.622 48.652 C 192.359 54.410,183.265 54.384,180.025 48.609 C 178.990 46.763,179.000 46.995,179.000 25.614 C 179.000 12.627,178.944 6.206,178.827 5.989 C 178.660 5.677,178.392 5.667,170.490 5.667 L 162.325 5.667 162.156 6.111 M287.219 5.873 C 287.070 6.104,286.935 65.853,287.082 66.460 L 287.174 66.836 295.379 66.793 L 303.583 66.750 303.634 57.417 C 303.679 49.170,303.651 47.875,303.394 46.290 C 303.164 44.874,303.146 44.454,303.307 44.293 C 303.559 44.041,304.283 44.399,304.567 44.917 C 304.668 45.100,304.791 45.288,304.842 45.333 C 304.892 45.379,308.076 50.142,311.917 55.917 C 315.758 61.692,319.017 66.508,319.159 66.620 C 319.474 66.868,338.421 66.929,338.574 66.682 C 338.625 66.599,338.142 65.755,337.500 64.807 C 336.859 63.859,334.951 61.021,333.262 58.500 C 328.949 52.063,321.098 40.382,319.846 38.536 C 319.268 37.684,318.541 36.794,318.231 36.558 C 317.218 35.785,317.259 35.666,320.112 31.250 C 320.644 30.425,321.167 29.553,321.274 29.312 C 321.380 29.071,321.554 28.820,321.660 28.754 C 321.767 28.688,321.926 28.473,322.014 28.275 C 322.101 28.078,322.378 27.600,322.628 27.213 C 322.879 26.826,323.533 25.791,324.083 24.913 C 324.633 24.035,325.288 23.001,325.539 22.617 C 325.790 22.232,326.047 21.804,326.111 21.667 C 326.175 21.529,326.353 21.229,326.506 21.000 C 327.173 20.001,328.331 18.187,328.771 17.448 C 329.035 17.006,329.438 16.354,329.667 15.997 C 329.896 15.641,330.421 14.811,330.833 14.153 C 331.246 13.494,331.696 12.783,331.833 12.573 C 331.971 12.363,332.421 11.655,332.833 11.000 C 333.246 10.345,333.712 9.609,333.870 9.363 C 334.028 9.118,334.312 8.654,334.501 8.333 C 334.689 8.012,335.052 7.412,335.307 7.000 C 336.224 5.515,337.179 5.658,326.719 5.707 L 317.448 5.750 314.707 10.167 C 313.199 12.596,311.842 14.794,311.691 15.052 C 311.364 15.610,310.391 17.155,309.390 18.703 C 308.992 19.319,308.667 19.857,308.667 19.900 C 308.667 19.942,308.385 20.415,308.042 20.951 C 307.698 21.487,307.322 22.073,307.207 22.254 C 307.092 22.435,306.792 22.902,306.541 23.292 C 306.289 23.682,305.858 24.381,305.583 24.845 C 304.599 26.508,304.152 27.052,303.944 26.844 C 303.802 26.703,303.727 23.820,303.667 16.200 L 303.583 5.750 295.469 5.707 C 289.090 5.673,287.326 5.708,287.219 5.873 M133.932 20.582 C 134.382 20.718,134.938 20.831,135.167 20.832 C 136.539 20.838,139.008 22.763,139.875 24.502 C 141.249 27.258,139.481 31.414,136.225 33.083 L 135.250 33.583 130.907 33.639 C 127.403 33.684,126.528 33.651,126.376 33.469 C 126.249 33.315,126.171 31.583,126.133 28.080 C 126.085 23.559,126.042 22.854,125.790 22.417 C 125.312 21.586,125.417 20.910,126.083 20.532 C 126.614 20.231,132.907 20.271,133.932 20.582 " stroke="none" fill="#f70707" fill-rule="evenodd"></path>
        <path id="path1" d="M363.250 3.014 C 362.883 3.093,361.775 3.270,360.787 3.408 C 359.799 3.547,358.849 3.736,358.675 3.829 C 358.501 3.922,357.959 4.081,357.471 4.182 C 356.983 4.284,356.417 4.472,356.214 4.600 C 356.011 4.728,355.729 4.833,355.586 4.833 C 355.353 4.833,353.973 5.455,353.333 5.847 C 353.196 5.932,352.916 6.073,352.710 6.162 C 348.534 7.969,344.168 13.284,342.645 18.415 C 342.061 20.382,342.054 29.166,342.635 30.734 C 342.836 31.276,343.000 31.826,343.000 31.956 C 343.000 33.550,346.457 38.201,349.395 40.559 C 351.357 42.134,356.817 45.333,357.543 45.333 C 357.596 45.333,358.377 45.675,359.278 46.093 C 367.333 49.830,368.436 50.792,364.960 51.054 C 363.144 51.191,360.202 50.946,359.537 50.603 C 359.251 50.455,358.898 50.333,358.754 50.333 C 357.314 50.333,354.038 47.725,352.281 45.180 C 351.517 44.073,352.330 43.436,343.793 51.831 C 339.012 56.533,339.202 56.245,339.844 57.783 C 340.039 58.251,340.032 58.355,339.783 58.630 C 339.332 59.128,339.452 59.817,340.249 61.301 C 342.421 65.346,346.628 68.682,352.167 70.750 C 353.120 71.107,355.006 71.639,356.083 71.856 C 356.542 71.948,357.606 72.168,358.448 72.345 C 360.706 72.819,367.049 72.815,368.845 72.337 C 369.526 72.156,370.346 72.003,370.667 71.997 C 370.988 71.990,371.550 71.872,371.917 71.733 C 372.283 71.593,372.984 71.380,373.473 71.258 C 373.963 71.136,374.446 70.954,374.548 70.852 C 374.650 70.750,374.853 70.667,374.998 70.667 C 375.393 70.667,378.654 68.980,379.938 68.111 C 382.565 66.335,385.414 63.301,386.460 61.167 C 386.572 60.938,386.734 60.637,386.820 60.500 C 387.114 60.030,387.706 58.647,387.842 58.115 C 387.917 57.822,388.092 57.246,388.232 56.833 C 389.639 52.678,388.971 44.538,386.898 40.574 C 385.442 37.792,383.318 35.316,380.667 33.312 C 379.163 32.176,376.812 30.667,376.545 30.667 C 376.277 30.667,375.833 30.077,375.833 29.721 C 375.833 29.382,377.018 28.184,383.301 22.172 C 386.938 18.691,386.911 18.726,386.580 17.934 C 386.276 17.208,386.270 16.347,386.566 15.957 C 387.456 14.785,383.752 9.531,380.414 7.232 C 379.310 6.472,376.195 4.838,375.833 4.829 C 375.696 4.826,375.445 4.718,375.276 4.590 C 375.107 4.462,374.657 4.305,374.276 4.242 C 373.895 4.178,373.224 3.985,372.785 3.813 C 372.347 3.641,371.737 3.500,371.431 3.500 C 371.124 3.500,370.021 3.351,368.978 3.168 C 367.022 2.826,364.453 2.757,363.250 3.014 M221.929 3.595 C 221.620 3.904,221.523 71.181,221.830 71.667 C 222.029 71.981,240.761 72.139,241.337 71.831 C 241.661 71.658,241.667 71.438,241.667 58.504 C 241.667 50.129,241.726 45.316,241.829 45.252 C 242.158 45.049,242.888 45.660,246.601 49.250 C 248.687 51.267,250.624 53.133,250.905 53.398 C 251.187 53.662,252.542 54.975,253.917 56.315 C 257.715 60.018,266.684 68.727,268.750 70.717 C 270.917 72.806,270.647 72.726,275.218 72.639 C 277.626 72.594,278.209 72.537,278.337 72.333 C 278.565 71.973,278.555 4.581,278.327 4.156 C 278.057 3.651,258.776 3.651,258.506 4.156 C 258.391 4.370,258.333 8.815,258.333 17.411 C 258.333 28.570,258.300 30.357,258.091 30.437 C 257.683 30.593,257.931 30.816,250.577 23.674 C 243.753 17.048,241.748 15.103,239.325 12.765 C 237.909 11.398,235.887 9.445,234.833 8.425 C 233.779 7.405,232.155 5.842,231.225 4.952 L 229.533 3.333 225.861 3.333 C 222.746 3.333,222.151 3.373,221.929 3.595 M10.542 3.944 C 10.378 4.010,10.333 6.044,10.333 13.328 L 10.333 22.628 10.708 22.728 C 10.915 22.784,13.545 22.830,16.553 22.831 C 20.000 22.832,22.141 22.897,22.344 23.006 C 22.659 23.174,22.667 23.516,22.667 37.927 L 22.667 52.675 22.239 52.837 C 21.994 52.931,19.523 53.001,16.447 53.002 C 13.497 53.004,10.914 53.050,10.707 53.105 L 10.331 53.206 10.374 62.477 L 10.417 71.747 10.917 71.854 C 11.597 71.999,50.143 71.996,50.667 71.851 L 51.083 71.735 51.126 62.451 C 51.150 57.345,51.150 53.151,51.126 53.132 C 51.103 53.113,48.433 53.057,45.195 53.007 C 39.615 52.921,39.294 52.900,39.070 52.593 C 38.785 52.204,38.714 23.614,38.996 23.167 C 39.131 22.954,40.015 22.910,44.943 22.869 C 48.789 22.837,50.804 22.760,50.949 22.640 C 51.177 22.451,51.289 4.679,51.066 4.097 C 50.967 3.839,11.174 3.689,10.542 3.944 M55.663 4.261 C 55.350 5.083,55.450 71.426,55.764 71.740 C 56.156 72.132,101.755 72.059,102.004 71.667 C 102.255 71.269,102.219 41.119,101.967 40.867 C 101.679 40.579,86.655 40.579,86.367 40.867 C 86.219 41.014,86.167 42.534,86.167 46.668 C 86.167 51.241,86.123 52.329,85.930 52.593 C 85.595 53.052,72.385 53.194,71.934 52.743 C 71.477 52.287,71.531 23.251,71.989 23.006 C 72.568 22.696,85.345 22.777,85.796 23.093 C 86.166 23.352,86.167 23.358,86.169 28.884 C 86.171 32.079,86.239 34.522,86.330 34.667 C 86.467 34.883,87.522 34.917,94.167 34.917 C 100.811 34.917,101.867 34.883,102.004 34.667 C 102.230 34.309,102.221 4.579,101.994 4.156 C 101.825 3.839,101.390 3.833,78.823 3.833 L 55.825 3.833 55.663 4.261 M108.125 4.009 C 107.644 4.296,107.675 71.570,108.156 71.827 C 108.659 72.097,127.019 72.063,127.382 71.792 C 127.636 71.602,127.666 70.798,127.706 62.889 C 127.730 58.107,127.812 54.132,127.888 54.055 C 127.965 53.979,129.877 53.874,132.138 53.821 C 135.118 53.752,136.525 53.653,137.250 53.460 C 137.800 53.313,138.625 53.119,139.083 53.028 C 145.670 51.723,152.143 46.603,155.505 40.040 C 155.961 39.151,156.336 38.310,156.339 38.170 C 156.342 38.031,156.490 37.617,156.667 37.250 C 156.844 36.883,156.991 36.422,156.994 36.226 C 156.997 36.029,157.152 35.378,157.337 34.778 C 157.726 33.519,157.920 28.065,157.682 25.083 C 157.443 22.087,156.374 18.779,154.807 16.191 C 154.455 15.609,154.167 15.095,154.167 15.048 C 154.167 13.933,148.098 8.391,145.500 7.134 C 145.271 7.024,144.896 6.809,144.667 6.658 C 144.438 6.508,144.100 6.341,143.917 6.289 C 143.733 6.237,142.852 5.888,141.958 5.514 C 141.063 5.140,140.142 4.833,139.911 4.833 C 139.679 4.833,139.210 4.716,138.870 4.573 C 137.469 3.984,109.038 3.462,108.125 4.009 M160.673 4.156 C 160.374 4.714,160.439 50.029,160.740 51.187 C 160.873 51.694,161.030 52.516,161.090 53.013 C 161.449 55.983,163.744 60.838,166.243 63.912 C 168.970 67.265,175.886 71.938,178.221 72.006 C 178.329 72.009,178.717 72.156,179.083 72.333 C 179.450 72.510,179.975 72.659,180.250 72.663 C 180.525 72.667,181.237 72.833,181.833 73.031 C 183.489 73.580,192.358 73.578,193.980 73.028 C 194.565 72.829,195.240 72.665,195.480 72.663 C 195.720 72.661,196.244 72.511,196.643 72.330 C 197.043 72.148,197.493 71.999,197.643 71.998 C 197.794 71.998,198.292 71.812,198.750 71.587 C 199.208 71.362,199.660 71.175,199.755 71.172 C 200.094 71.162,202.625 69.772,204.083 68.796 C 206.836 66.953,209.404 64.331,211.310 61.417 C 211.927 60.473,213.667 56.955,213.667 56.651 C 213.667 56.541,213.810 56.031,213.985 55.517 C 214.160 55.004,214.479 53.871,214.693 53.000 L 215.083 51.417 215.083 27.786 C 215.083 6.962,215.054 4.136,214.833 3.997 C 214.389 3.716,195.795 3.786,195.407 4.070 C 195.090 4.301,195.081 4.765,194.995 25.362 C 194.946 36.942,194.841 46.604,194.761 46.833 C 192.812 52.423,183.833 52.799,181.225 47.399 L 180.750 46.417 180.703 25.344 C 180.670 10.411,180.604 4.208,180.475 4.053 C 180.132 3.640,160.895 3.740,160.673 4.156 M285.762 4.095 C 285.308 4.549,285.368 71.584,285.822 71.827 C 286.412 72.143,304.752 72.058,305.071 71.738 C 305.303 71.507,305.333 70.460,305.333 62.748 C 305.333 56.764,305.389 53.985,305.511 53.910 C 305.824 53.717,306.326 54.347,308.771 58.000 C 310.089 59.971,311.571 62.183,312.063 62.917 C 312.555 63.650,314.021 65.862,315.321 67.833 C 316.621 69.804,317.839 71.548,318.028 71.708 C 318.374 72.003,342.397 72.179,343.458 71.895 C 344.046 71.737,343.926 71.415,342.478 69.264 C 341.733 68.156,339.239 64.451,336.937 61.030 C 334.634 57.608,332.487 54.409,332.167 53.921 C 331.846 53.432,330.632 51.618,329.468 49.891 C 328.305 48.163,326.451 45.400,325.348 43.750 C 324.245 42.100,323.186 40.525,322.995 40.250 C 320.705 36.966,320.731 37.096,321.991 35.167 C 322.261 34.754,322.725 34.007,323.023 33.506 C 323.321 33.006,323.869 32.137,324.241 31.576 C 324.613 31.015,325.179 30.129,325.500 29.608 C 325.821 29.087,326.458 28.066,326.917 27.338 C 327.375 26.610,328.045 25.543,328.406 24.966 C 328.981 24.045,329.628 23.024,330.760 21.250 C 331.271 20.449,331.400 20.239,331.692 19.730 C 331.843 19.466,332.368 18.635,332.859 17.883 C 333.349 17.131,334.012 16.082,334.333 15.552 C 334.654 15.022,335.160 14.223,335.458 13.777 C 335.756 13.331,336.000 12.934,336.000 12.895 C 336.000 12.855,336.326 12.319,336.725 11.703 C 337.124 11.087,337.743 10.113,338.100 9.537 C 338.458 8.962,339.296 7.650,339.963 6.621 C 340.793 5.340,341.161 4.619,341.129 4.333 L 341.083 3.917 329.026 3.874 L 316.969 3.831 316.472 4.363 C 316.199 4.656,315.829 5.162,315.650 5.489 C 315.470 5.816,315.178 6.308,315.000 6.583 C 314.822 6.858,314.505 7.374,314.296 7.730 C 313.830 8.525,313.609 8.885,313.033 9.787 C 312.383 10.804,308.475 17.075,308.094 17.712 C 306.673 20.084,305.925 21.058,305.606 20.952 C 305.470 20.907,305.393 18.545,305.333 12.522 C 305.262 5.327,305.215 4.132,305.000 3.996 C 304.521 3.694,286.069 3.789,285.762 4.095 M369.583 4.907 C 370.683 5.038,371.862 5.262,372.203 5.406 C 372.544 5.549,372.992 5.667,373.200 5.667 C 374.010 5.667,377.176 7.116,379.117 8.375 C 381.816 10.126,385.280 14.422,384.715 15.317 C 384.604 15.492,384.602 15.742,384.708 16.047 C 385.052 17.033,384.810 17.318,378.686 23.167 C 375.330 26.372,375.425 26.330,374.279 25.102 C 373.103 23.842,372.380 23.387,369.750 22.250 C 368.091 21.532,363.785 21.624,362.452 22.405 C 359.457 24.160,360.416 25.636,365.917 27.738 C 366.558 27.984,367.233 28.253,367.417 28.338 C 367.600 28.422,368.050 28.596,368.417 28.724 C 370.675 29.514,376.050 32.034,376.680 32.598 C 376.825 32.727,377.012 32.834,377.096 32.834 C 377.181 32.834,377.626 33.116,378.085 33.459 C 378.544 33.802,379.229 34.294,379.607 34.551 C 382.140 36.273,386.333 41.796,386.333 43.409 C 386.333 43.550,386.478 44.097,386.654 44.624 C 387.875 48.277,387.027 55.753,384.984 59.335 C 381.942 64.670,375.484 68.571,368.167 69.494 C 367.387 69.592,366.300 69.753,365.750 69.852 C 364.650 70.050,361.596 69.941,360.670 69.671 C 360.351 69.578,359.489 69.457,358.754 69.404 C 358.018 69.350,356.929 69.172,356.333 69.009 C 355.738 68.845,354.950 68.632,354.583 68.535 C 353.690 68.299,352.364 67.852,351.750 67.579 C 348.179 65.992,346.574 64.981,344.563 63.048 C 342.240 60.815,341.658 59.786,341.569 57.750 L 341.511 56.417 346.213 51.792 C 348.941 49.108,351.044 47.167,351.222 47.167 C 351.391 47.167,352.104 47.750,352.807 48.463 C 353.877 49.549,355.838 51.000,356.236 51.000 C 356.296 51.000,356.539 51.127,356.776 51.282 C 360.070 53.441,367.657 53.234,369.824 50.927 C 370.582 50.119,369.290 48.444,366.569 46.708 C 366.102 46.410,365.640 46.167,365.541 46.167 C 365.442 46.167,365.336 46.107,365.306 46.035 C 365.228 45.851,359.022 42.833,358.722 42.833 C 358.611 42.833,356.925 42.057,356.500 41.810 C 356.363 41.730,356.063 41.582,355.833 41.481 C 355.604 41.380,355.304 41.230,355.167 41.148 C 355.029 41.065,354.729 40.907,354.500 40.795 C 353.966 40.536,350.952 38.595,350.486 38.210 C 346.934 35.277,345.179 32.656,344.159 28.760 C 343.626 26.725,343.610 20.678,344.134 19.256 C 344.335 18.709,344.500 18.129,344.500 17.967 C 344.500 17.399,346.031 14.489,347.020 13.181 C 349.433 9.984,353.357 7.220,357.167 6.033 C 357.762 5.847,358.662 5.564,359.167 5.404 C 361.332 4.717,366.075 4.490,369.583 4.907 M228.535 4.978 C 228.783 5.036,229.533 5.608,230.201 6.249 C 230.870 6.890,232.354 8.313,233.500 9.412 C 234.646 10.511,238.095 13.849,241.166 16.830 C 244.236 19.811,247.854 23.320,249.205 24.628 C 250.556 25.936,252.796 28.111,254.184 29.461 C 255.572 30.812,256.795 31.992,256.902 32.083 C 257.010 32.175,257.647 32.772,258.318 33.409 C 260.148 35.148,260.000 36.338,260.000 19.895 C 260.000 8.844,260.044 5.824,260.208 5.718 C 260.540 5.504,275.936 5.454,276.333 5.666 C 276.797 5.915,276.869 68.774,276.405 69.238 C 276.104 69.539,271.839 69.626,271.136 69.346 C 270.666 69.159,269.877 68.409,260.075 58.841 C 258.145 56.958,254.658 53.579,252.325 51.333 C 249.992 49.087,247.039 46.237,245.763 45.000 C 243.265 42.578,242.905 42.234,241.414 40.837 L 240.439 39.923 240.225 40.420 C 240.058 40.810,240.012 43.865,240.012 54.647 C 240.011 67.299,239.989 68.403,239.730 68.689 C 239.463 68.984,239.050 69.000,231.650 69.000 L 223.852 69.000 223.593 68.630 C 223.314 68.231,223.184 5.659,223.461 5.225 C 223.679 4.884,227.361 4.704,228.535 4.978 M137.369 5.905 C 137.762 6.036,138.513 6.220,139.038 6.315 C 139.562 6.410,140.200 6.592,140.454 6.720 C 140.709 6.848,141.142 7.007,141.417 7.073 C 142.752 7.392,145.999 9.196,147.923 10.688 C 158.177 18.640,159.141 34.695,149.918 43.918 C 148.583 45.253,148.014 45.708,145.929 47.107 C 145.094 47.668,142.649 48.926,141.942 49.159 C 141.590 49.275,141.102 49.474,140.859 49.601 C 140.616 49.727,140.264 49.832,140.078 49.832 C 139.891 49.833,139.312 49.983,138.790 50.167 C 138.268 50.350,137.521 50.503,137.129 50.506 C 136.737 50.509,135.817 50.620,135.083 50.753 C 134.193 50.913,132.547 50.995,130.131 50.997 C 126.742 51.000,126.501 51.020,126.341 51.318 C 126.232 51.522,126.168 54.632,126.164 59.977 L 126.156 68.318 125.722 68.659 C 125.113 69.138,110.329 69.199,109.805 68.724 C 109.493 68.442,109.301 6.087,109.611 5.778 C 109.858 5.531,136.614 5.653,137.369 5.905 M178.827 5.989 C 178.944 6.206,179.000 12.627,179.000 25.614 C 179.000 46.995,178.990 46.763,180.025 48.609 C 183.265 54.384,192.359 54.410,195.622 48.652 C 196.895 46.407,196.833 47.583,196.836 25.656 C 196.837 14.891,196.898 5.989,196.972 5.873 C 197.077 5.708,198.847 5.673,205.261 5.707 L 213.417 5.750 213.466 27.250 C 213.520 51.113,213.567 49.907,212.426 54.000 C 212.285 54.504,212.100 55.067,212.014 55.250 C 211.927 55.433,211.649 56.071,211.396 56.667 C 211.142 57.262,210.799 57.929,210.634 58.147 C 210.469 58.366,210.333 58.607,210.333 58.683 C 210.333 58.759,210.106 59.143,209.827 59.536 C 209.549 59.929,209.125 60.548,208.885 60.913 C 208.230 61.907,205.583 64.496,204.167 65.528 C 202.460 66.771,199.737 68.291,198.508 68.686 C 198.183 68.791,197.839 68.938,197.743 69.013 C 197.648 69.088,197.198 69.231,196.743 69.331 C 196.289 69.430,195.692 69.613,195.417 69.736 C 195.142 69.859,194.467 70.008,193.917 70.067 C 193.367 70.126,192.548 70.285,192.099 70.420 C 190.956 70.764,184.550 70.759,183.583 70.414 C 183.217 70.283,182.467 70.126,181.917 70.065 C 181.367 70.004,180.558 69.815,180.119 69.644 C 179.680 69.473,179.173 69.333,178.993 69.333 C 178.813 69.333,178.386 69.183,178.044 69.000 C 177.701 68.817,177.341 68.667,177.242 68.667 C 177.143 68.667,176.317 68.287,175.406 67.824 C 171.408 65.789,169.029 63.772,166.236 60.047 C 165.099 58.530,163.683 55.519,163.078 53.333 C 162.150 49.977,162.119 49.172,162.047 27.077 C 162.003 13.227,162.037 6.425,162.153 6.119 L 162.325 5.667 170.490 5.667 C 178.392 5.667,178.660 5.677,178.827 5.989 M303.667 16.200 C 303.727 23.820,303.802 26.703,303.944 26.844 C 304.152 27.052,304.599 26.508,305.583 24.845 C 305.858 24.381,306.289 23.682,306.541 23.292 C 306.792 22.902,307.092 22.435,307.207 22.254 C 307.322 22.073,307.698 21.487,308.042 20.951 C 308.385 20.415,308.667 19.942,308.667 19.900 C 308.667 19.857,308.992 19.319,309.390 18.703 C 310.391 17.155,311.364 15.610,311.691 15.052 C 311.842 14.794,313.199 12.596,314.707 10.167 L 317.448 5.750 327.395 5.707 C 339.246 5.656,338.266 5.311,336.000 8.734 C 335.570 9.384,335.092 10.142,334.939 10.417 C 334.786 10.692,334.291 11.479,333.838 12.167 C 333.385 12.854,332.746 13.867,332.417 14.417 C 332.087 14.967,331.615 15.732,331.367 16.117 C 330.936 16.788,329.720 18.718,329.289 19.417 C 329.176 19.600,328.834 20.114,328.530 20.558 C 328.226 21.002,327.926 21.490,327.864 21.641 C 327.801 21.793,327.456 22.367,327.096 22.917 C 326.736 23.467,326.276 24.179,326.074 24.500 C 325.871 24.821,325.416 25.533,325.062 26.083 C 324.708 26.633,324.380 27.165,324.334 27.266 C 324.288 27.366,323.762 28.213,323.167 29.147 C 321.582 31.634,320.822 32.839,320.167 33.910 C 319.846 34.434,319.378 35.175,319.128 35.556 C 318.499 36.514,318.522 36.612,319.784 38.454 C 320.875 40.046,327.116 49.328,333.262 58.500 C 334.951 61.021,336.858 63.859,337.500 64.807 C 338.142 65.755,338.667 66.570,338.667 66.618 C 338.667 66.666,338.892 66.962,339.167 67.275 C 339.724 67.911,339.795 68.347,339.405 68.738 C 339.088 69.055,319.955 69.142,319.067 68.831 C 318.672 68.693,317.264 66.681,311.427 57.914 C 307.491 52.003,304.182 47.167,304.074 47.167 C 303.704 47.167,303.655 48.541,303.673 58.478 L 303.691 68.410 303.327 68.705 C 302.828 69.110,287.955 69.164,287.407 68.763 C 287.072 68.519,286.873 6.763,287.204 5.957 C 287.317 5.682,287.828 5.666,295.454 5.707 L 303.583 5.750 303.667 16.200 M48.967 6.033 C 49.114 6.181,49.167 7.659,49.167 11.648 C 49.167 15.159,49.236 17.398,49.363 18.015 C 49.535 18.845,49.524 19.022,49.278 19.398 L 48.995 19.829 43.137 19.873 L 37.280 19.917 37.069 20.500 C 36.905 20.954,36.856 24.761,36.846 37.699 L 36.833 54.314 37.204 54.574 C 37.521 54.796,38.377 54.833,43.194 54.833 C 47.507 54.833,48.845 54.882,48.948 55.042 C 49.023 55.156,49.131 57.875,49.189 61.083 C 49.247 64.292,49.348 67.228,49.413 67.609 C 49.512 68.187,49.474 68.359,49.183 68.651 L 48.833 69.000 30.865 69.000 C 10.925 69.000,12.236 69.078,12.305 67.895 C 12.326 67.540,12.397 64.550,12.463 61.250 C 12.529 57.950,12.644 55.156,12.718 55.042 C 12.822 54.882,14.160 54.833,18.473 54.833 C 23.289 54.833,24.145 54.796,24.463 54.574 L 24.833 54.314 24.814 37.616 C 24.803 28.431,24.746 20.692,24.687 20.417 L 24.580 19.917 18.610 19.833 C 11.933 19.740,11.993 19.752,12.260 18.583 C 12.322 18.308,12.403 15.496,12.438 12.333 C 12.474 9.171,12.541 6.415,12.588 6.208 L 12.673 5.833 30.720 5.833 C 44.534 5.833,48.814 5.880,48.967 6.033 M99.994 6.234 C 100.247 6.900,100.254 31.610,100.001 31.915 C 99.823 32.130,98.983 32.167,94.183 32.167 C 87.546 32.167,87.733 32.211,87.920 30.689 C 88.080 29.381,88.084 21.036,87.925 20.374 L 87.795 19.830 78.774 19.874 L 69.753 19.917 69.646 20.417 C 69.380 21.664,69.490 54.300,69.762 54.571 C 70.171 54.981,87.409 54.968,87.862 54.558 C 88.146 54.301,88.167 53.894,88.167 48.636 C 88.167 43.415,88.189 42.981,88.458 42.870 C 89.092 42.609,99.833 42.731,100.004 43.000 C 100.099 43.151,100.163 47.798,100.165 54.750 C 100.167 61.075,100.215 66.741,100.272 67.342 C 100.447 69.188,102.864 69.000,78.999 69.000 C 65.782 69.000,58.031 68.940,57.758 68.836 C 57.106 68.589,56.906 67.889,57.280 67.168 C 57.569 66.610,57.585 65.203,57.628 36.342 C 57.662 12.577,57.716 6.072,57.878 5.969 C 57.991 5.897,67.479 5.837,78.962 5.836 L 99.842 5.833 99.994 6.234 M126.272 23.042 C 126.034 23.927,126.158 33.285,126.410 33.494 C 126.590 33.644,127.762 33.681,130.951 33.640 L 135.250 33.583 136.250 33.083 C 141.511 30.453,140.770 24.809,134.917 22.932 C 134.251 22.719,133.310 22.665,130.228 22.666 L 126.372 22.667 126.272 23.042 M368.417 24.843 C 371.198 25.671,373.667 27.371,373.667 28.459 C 373.667 28.914,372.937 28.898,372.006 28.422 C 371.773 28.303,370.571 27.817,369.333 27.341 C 368.096 26.865,366.806 26.331,366.467 26.155 C 366.128 25.978,365.738 25.833,365.601 25.833 C 365.178 25.833,364.432 25.084,364.550 24.776 C 364.711 24.358,366.917 24.396,368.417 24.843 M134.025 25.739 C 138.441 26.527,139.232 29.671,135.500 31.598 C 134.274 32.231,128.341 32.357,127.904 31.760 C 127.585 31.324,127.560 26.367,127.875 25.963 C 128.264 25.462,131.760 25.335,134.025 25.739 " stroke="none" fill="#2b5779" fill-rule="evenodd"></path>
        <path id="path2" d="M0.000 40.500 L 0.000 81.000 200.000 81.000 L 400.000 81.000 400.000 40.500 L 400.000 0.000 200.000 0.000 L 0.000 0.000 0.000 40.500 M371.250 3.069 C 378.578 4.550,383.972 8.315,386.504 13.717 C 387.134 15.062,387.359 16.167,387.003 16.167 C 386.693 16.167,386.631 16.977,386.901 17.518 C 387.361 18.440,387.251 18.914,386.373 19.791 C 385.729 20.435,380.380 25.584,377.036 28.782 C 376.090 29.686,376.156 29.923,377.585 30.746 C 383.593 34.206,387.399 38.900,388.826 44.611 C 389.335 46.646,389.334 54.290,388.825 56.260 C 386.679 64.565,380.342 70.212,370.701 72.413 C 367.508 73.141,360.969 73.281,357.917 72.686 C 350.439 71.228,344.424 67.959,341.166 63.581 C 339.452 61.277,338.807 59.582,339.274 58.604 C 339.528 58.071,339.528 57.980,339.274 57.345 C 338.808 56.180,338.858 56.083,340.958 54.027 C 342.035 52.974,344.765 50.286,347.024 48.056 C 351.622 43.515,351.639 43.505,352.448 44.683 C 354.611 47.832,356.890 49.509,360.088 50.305 C 363.296 51.103,366.748 50.919,365.911 49.994 C 365.591 49.640,359.939 46.785,357.833 45.914 C 351.023 43.096,346.012 39.018,343.604 34.333 C 342.035 31.283,341.750 29.781,341.750 24.583 C 341.750 19.084,342.149 17.296,344.188 13.667 C 348.082 6.736,356.935 2.342,366.500 2.593 C 368.515 2.646,369.785 2.773,371.250 3.069 M229.936 3.198 C 230.419 3.564,231.843 4.926,237.083 10.030 C 238.642 11.548,240.142 12.993,240.417 13.241 C 240.692 13.489,241.968 14.718,243.253 15.971 C 255.093 27.521,257.356 29.667,257.694 29.667 C 257.988 29.667,258.000 29.173,258.000 16.754 L 258.000 3.841 258.393 3.583 C 258.977 3.201,278.426 3.281,278.670 3.667 C 278.923 4.066,278.886 72.380,278.633 72.633 C 278.489 72.778,277.323 72.833,274.425 72.831 L 270.417 72.829 269.667 72.153 C 269.254 71.781,267.904 70.491,266.667 69.286 C 263.362 66.068,258.754 61.594,255.997 58.925 C 254.666 57.637,252.303 55.350,250.747 53.843 C 241.995 45.369,242.355 45.697,242.162 46.002 C 242.068 46.151,242.004 51.319,242.003 58.987 C 242.000 70.603,241.976 71.751,241.724 72.029 C 241.273 72.527,221.998 72.498,221.499 71.999 C 221.063 71.563,221.044 3.633,221.479 3.109 C 221.881 2.624,229.281 2.702,229.936 3.198 M51.220 3.542 C 51.482 3.734,51.500 4.477,51.460 13.417 L 51.417 23.083 45.500 23.167 C 42.246 23.212,39.490 23.311,39.375 23.385 C 39.070 23.582,39.070 51.642,39.375 52.045 C 39.560 52.289,40.218 52.325,45.286 52.368 C 50.098 52.409,51.028 52.456,51.239 52.668 C 51.590 53.018,51.652 71.803,51.303 72.018 C 51.184 72.092,50.711 72.198,50.251 72.252 C 48.970 72.405,10.380 72.269,10.222 72.111 C 9.974 71.862,10.049 52.884,10.300 52.633 C 10.466 52.467,11.882 52.397,16.383 52.333 L 22.250 52.250 22.293 37.811 L 22.335 23.373 21.959 23.272 C 21.752 23.217,19.021 23.170,15.888 23.169 L 10.193 23.167 10.085 22.125 C 9.933 20.663,10.054 3.795,10.218 3.542 C 10.416 3.236,50.804 3.236,51.220 3.542 M102.178 3.506 C 102.684 3.777,102.684 34.890,102.178 35.161 C 101.596 35.472,86.489 35.391,86.037 35.074 C 85.667 34.814,85.667 34.814,85.667 29.163 C 85.667 23.746,85.653 23.505,85.344 23.339 C 84.904 23.104,72.763 23.104,72.322 23.339 C 71.816 23.610,71.816 52.057,72.322 52.327 C 72.906 52.640,85.086 52.557,85.405 52.238 C 85.632 52.010,85.667 51.249,85.667 46.417 C 85.667 41.585,85.701 40.823,85.929 40.595 C 86.296 40.228,102.010 40.194,102.314 40.560 C 102.451 40.725,102.490 45.009,102.459 56.427 L 102.417 72.068 102.000 72.184 C 101.023 72.456,55.930 72.349,55.537 72.074 L 55.167 71.814 55.167 37.833 L 55.167 3.852 55.537 3.593 C 55.992 3.274,101.585 3.189,102.178 3.506 M137.167 3.801 C 141.776 4.657,147.369 7.124,149.333 9.168 C 149.379 9.216,149.936 9.704,150.571 10.252 C 152.771 12.153,155.139 15.476,156.443 18.491 C 158.949 24.287,158.865 33.766,156.258 39.430 C 151.908 48.879,143.216 54.152,131.970 54.163 C 129.214 54.166,128.649 54.208,128.429 54.429 C 128.197 54.660,128.167 55.684,128.167 63.179 C 128.167 71.477,128.159 71.674,127.829 72.004 C 127.395 72.439,108.132 72.455,107.609 72.021 C 107.243 71.717,107.176 4.002,107.542 3.705 C 107.949 3.375,108.560 3.362,121.833 3.403 C 134.730 3.443,135.324 3.458,137.167 3.801 M180.778 3.555 C 180.854 3.632,180.954 13.232,181.000 24.889 L 181.083 46.083 181.534 47.045 C 184.112 52.547,193.015 51.910,194.474 46.119 C 194.615 45.559,194.667 39.777,194.667 24.613 C 194.667 5.526,194.689 3.856,194.942 3.645 C 195.351 3.306,214.815 3.306,215.224 3.645 C 215.610 3.966,215.649 49.668,215.266 52.000 C 214.336 57.651,211.897 62.315,207.806 66.264 C 205.221 68.759,203.041 70.181,199.250 71.843 C 192.674 74.727,182.844 74.674,176.167 71.717 C 167.835 68.029,162.581 61.728,160.627 53.083 L 160.250 51.417 160.250 27.588 L 160.250 3.760 160.667 3.547 C 161.149 3.301,180.531 3.309,180.778 3.555 M305.167 3.549 L 305.583 3.760 305.667 11.838 C 305.735 18.424,305.791 19.917,305.973 19.917 C 306.095 19.917,307.389 18.004,308.848 15.667 C 310.307 13.329,311.736 11.049,312.023 10.600 C 312.310 10.152,312.629 9.627,312.731 9.434 C 312.834 9.241,313.186 8.671,313.515 8.167 C 313.844 7.662,314.460 6.688,314.884 6.000 C 316.137 3.967,316.494 3.543,317.040 3.434 C 317.940 3.254,340.942 3.320,341.426 3.504 C 342.187 3.793,341.678 4.865,338.421 9.833 C 337.654 11.004,333.962 16.860,333.417 17.772 C 333.019 18.437,328.109 26.260,325.586 30.250 C 322.421 35.253,321.500 36.783,321.500 37.033 C 321.500 37.287,321.875 37.860,328.136 47.167 C 330.202 50.237,333.654 55.375,335.807 58.583 C 337.961 61.792,340.798 66.012,342.111 67.963 C 344.727 71.846,344.658 71.704,344.130 72.074 C 343.463 72.541,318.371 72.459,317.773 71.988 C 317.531 71.798,316.311 70.092,315.061 68.196 C 313.811 66.301,311.917 63.457,310.853 61.877 C 309.788 60.297,308.841 58.872,308.748 58.710 C 308.026 57.451,306.107 54.825,305.948 54.879 C 305.799 54.928,305.739 57.056,305.707 63.386 L 305.664 71.828 305.272 72.084 C 304.719 72.447,285.716 72.387,285.276 72.021 C 284.910 71.717,284.843 4.002,285.208 3.705 C 285.598 3.389,286.084 3.372,295.417 3.355 C 302.637 3.342,304.844 3.386,305.167 3.549 M335.967 6.562 C 335.583 7.260,334.999 8.238,334.704 8.678 C 334.546 8.913,334.252 9.363,334.052 9.678 C 333.851 9.992,333.607 10.341,333.510 10.451 C 333.413 10.562,333.332 10.712,333.330 10.785 C 333.327 10.917,332.553 12.132,332.084 12.742 C 331.946 12.921,331.833 13.153,331.833 13.258 C 331.833 13.363,331.683 13.584,331.500 13.750 C 331.317 13.916,331.167 14.118,331.167 14.199 C 331.167 14.280,331.028 14.550,330.860 14.798 C 329.885 16.232,329.167 17.357,329.167 17.451 C 329.167 17.550,328.703 18.275,326.973 20.880 C 326.621 21.410,326.333 21.892,326.333 21.951 C 326.333 22.046,325.356 23.581,324.475 24.868 C 324.306 25.117,324.167 25.363,324.167 25.417 C 324.167 25.470,324.027 25.717,323.855 25.965 C 323.428 26.585,322.040 28.767,321.333 29.929 C 321.012 30.457,320.431 31.370,320.042 31.957 C 319.652 32.545,319.333 33.061,319.333 33.104 C 319.333 33.148,319.033 33.635,318.667 34.187 C 318.023 35.155,317.843 35.667,318.144 35.667 C 318.223 35.667,318.497 35.348,318.753 34.958 C 319.009 34.569,319.357 34.047,319.526 33.798 C 319.695 33.550,319.833 33.303,319.833 33.250 C 319.833 33.197,319.972 32.950,320.142 32.702 C 320.312 32.453,320.811 31.688,321.250 31.000 C 321.689 30.313,322.188 29.547,322.358 29.298 C 322.528 29.050,322.667 28.780,322.667 28.699 C 322.667 28.618,322.817 28.416,323.000 28.250 C 323.183 28.084,323.333 27.884,323.333 27.806 C 323.333 27.728,323.735 27.046,324.226 26.290 C 324.717 25.535,325.244 24.692,325.396 24.417 C 325.548 24.142,326.046 23.354,326.503 22.667 C 326.960 21.979,327.385 21.304,327.448 21.167 C 327.510 21.029,327.687 20.729,327.842 20.500 C 328.773 19.120,329.667 17.653,329.667 17.505 C 329.667 17.411,329.733 17.333,329.814 17.333 C 329.896 17.333,330.082 17.081,330.228 16.773 C 330.374 16.465,330.608 16.118,330.747 16.003 C 330.886 15.887,331.000 15.716,331.000 15.623 C 331.000 15.530,331.337 14.942,331.750 14.316 C 332.162 13.690,332.500 13.100,332.500 13.005 C 332.500 12.911,332.566 12.833,332.648 12.833 C 332.729 12.833,332.915 12.581,333.061 12.273 C 333.208 11.965,333.441 11.618,333.580 11.503 C 333.719 11.387,333.833 11.223,333.833 11.138 C 333.833 11.053,334.133 10.532,334.500 9.980 C 334.867 9.428,335.167 8.942,335.167 8.900 C 335.167 8.857,335.504 8.310,335.917 7.684 C 336.329 7.058,336.667 6.460,336.667 6.356 C 336.667 6.017,336.190 6.157,335.967 6.562 M383.083 16.869 C 382.214 17.735,378.968 20.880,377.145 22.625 C 375.441 24.255,375.581 24.231,374.355 23.103 C 373.325 22.156,371.637 21.000,371.284 21.000 C 371.169 21.000,370.921 20.893,370.735 20.762 C 368.311 19.065,362.398 19.587,360.885 21.632 C 360.287 22.442,360.396 23.237,361.022 22.626 C 363.823 19.896,371.251 20.921,374.557 24.493 C 375.416 25.422,375.507 25.388,377.619 23.370 C 384.178 17.100,384.167 17.111,384.167 16.631 C 384.167 16.007,383.888 16.068,383.083 16.869 M12.667 18.333 C 12.146 19.307,12.299 19.333,18.433 19.333 C 24.186 19.333,24.667 19.282,24.667 18.667 C 24.667 18.051,24.186 18.000,18.433 18.000 C 13.016 18.000,12.840 18.010,12.667 18.333 M37.292 18.179 C 36.902 18.407,36.921 18.946,37.327 19.163 C 37.541 19.278,39.592 19.323,43.285 19.294 L 48.917 19.250 48.917 18.667 L 48.917 18.083 43.250 18.046 C 39.606 18.021,37.479 18.069,37.292 18.179 M69.929 18.262 C 69.615 18.575,69.595 18.862,69.867 19.133 C 70.079 19.345,87.028 19.440,87.570 19.232 C 87.880 19.113,87.919 18.486,87.633 18.200 C 87.292 17.858,70.273 17.918,69.929 18.262 M126.398 20.830 C 125.916 21.025,125.731 21.677,126.059 22.025 C 126.073 22.039,128.146 22.098,130.667 22.156 L 135.250 22.262 136.382 22.813 C 137.005 23.116,137.961 23.778,138.507 24.283 C 139.423 25.132,139.500 25.171,139.500 24.793 C 139.500 23.901,137.826 22.207,136.250 21.504 C 134.744 20.831,127.603 20.343,126.398 20.830 M365.500 25.137 C 365.500 25.346,372.281 28.167,372.786 28.167 C 373.639 28.167,371.771 26.571,370.083 25.858 C 368.507 25.192,365.500 24.718,365.500 25.137 M128.367 26.200 C 128.229 26.337,128.167 27.163,128.167 28.833 C 128.167 31.888,127.926 31.667,131.257 31.667 C 136.800 31.667,139.469 29.167,136.223 27.017 C 134.786 26.065,129.093 25.473,128.367 26.200 M88.232 30.405 C 87.848 31.405,88.160 31.464,94.021 31.483 C 99.890 31.503,100.037 31.485,99.967 30.769 L 99.917 30.250 94.121 30.206 C 89.175 30.169,88.311 30.198,88.232 30.405 M345.373 30.625 C 345.479 30.847,345.787 31.571,345.987 32.067 C 347.456 35.703,352.169 39.283,360.156 42.830 C 364.939 44.954,367.970 46.683,369.333 48.065 C 370.322 49.067,370.677 48.762,369.905 47.575 C 369.077 46.303,366.789 44.736,363.222 43.000 C 361.168 42.000,360.406 41.644,358.583 40.832 C 352.716 38.220,348.908 35.478,346.731 32.298 C 346.467 31.911,346.119 31.461,345.958 31.297 C 345.798 31.134,345.667 30.887,345.667 30.750 C 345.667 30.613,345.587 30.500,345.490 30.500 C 345.393 30.500,345.340 30.556,345.373 30.625 M153.667 36.904 C 153.667 37.034,153.479 37.364,153.250 37.636 C 153.021 37.909,152.833 38.185,152.833 38.250 C 152.833 38.315,152.646 38.604,152.418 38.893 C 152.190 39.181,151.871 39.596,151.710 39.816 C 148.566 44.097,143.707 47.098,137.500 48.593 C 136.497 48.834,135.252 48.912,131.202 48.989 C 126.139 49.084,125.838 49.122,125.838 49.667 C 125.838 50.535,134.649 50.590,138.083 49.742 C 144.724 48.104,150.537 43.809,153.077 38.667 C 153.326 38.162,153.635 37.551,153.765 37.308 C 154.044 36.783,154.056 36.667,153.833 36.667 C 153.742 36.667,153.667 36.773,153.667 36.904 M239.926 38.118 C 239.845 38.330,240.294 38.862,241.700 40.219 C 242.736 41.218,244.638 43.058,245.927 44.309 C 247.216 45.560,250.441 48.683,253.094 51.249 C 261.626 59.503,262.546 60.393,264.833 62.618 C 266.071 63.822,267.541 65.244,268.101 65.778 C 268.661 66.313,269.650 67.258,270.298 67.880 L 271.477 69.009 273.864 68.963 L 276.250 68.917 276.250 68.417 L 276.250 67.917 273.917 67.833 C 271.000 67.729,272.185 68.584,264.245 60.852 C 262.775 59.421,259.400 56.150,256.745 53.584 C 254.089 51.017,250.829 47.858,249.500 46.564 C 248.171 45.270,246.671 43.819,246.167 43.338 C 245.662 42.858,244.183 41.423,242.878 40.149 C 240.513 37.840,240.133 37.579,239.926 38.118 M303.667 45.011 C 303.667 45.254,303.994 45.863,304.288 46.167 C 304.506 46.392,307.666 51.101,308.090 51.832 C 308.185 51.997,308.370 52.260,308.500 52.417 C 308.630 52.574,308.815 52.836,308.910 53.000 C 309.065 53.265,310.192 54.964,313.819 60.395 C 314.423 61.299,314.995 62.172,315.090 62.335 C 315.185 62.498,315.370 62.760,315.500 62.917 C 315.630 63.074,315.815 63.336,315.910 63.499 C 316.005 63.663,316.579 64.536,317.184 65.440 C 317.790 66.344,318.383 67.271,318.503 67.500 C 318.947 68.349,318.611 68.322,329.115 68.328 C 339.531 68.334,339.538 68.333,338.822 67.571 L 338.442 67.167 328.979 67.167 C 319.081 67.167,318.956 67.158,318.495 66.422 C 318.360 66.207,317.731 65.255,317.096 64.307 C 316.104 62.826,311.570 56.026,310.833 54.915 C 310.696 54.708,310.152 53.902,309.625 53.125 C 309.098 52.349,308.667 51.634,308.667 51.537 C 308.667 51.440,308.602 51.336,308.523 51.306 C 308.444 51.275,307.428 49.806,306.266 48.042 C 304.420 45.241,303.667 44.363,303.667 45.011 M164.834 56.188 C 164.834 56.314,164.984 56.662,165.167 56.962 C 165.350 57.262,165.500 57.586,165.500 57.682 C 165.500 57.777,165.909 58.469,166.410 59.219 C 176.185 73.874,200.057 73.685,209.548 58.879 C 209.797 58.491,210.000 58.107,210.000 58.026 C 210.000 57.945,210.138 57.699,210.307 57.481 C 210.693 56.981,210.884 56.289,210.612 56.379 C 210.505 56.414,210.341 56.587,210.248 56.763 C 208.998 59.136,205.686 62.602,202.968 64.382 C 201.970 65.036,199.689 66.333,199.538 66.333 C 199.483 66.333,199.134 66.474,198.761 66.647 C 189.260 71.043,176.573 68.742,169.065 61.262 C 167.439 59.643,166.767 58.831,166.069 57.644 C 165.969 57.474,165.762 57.198,165.610 57.030 C 165.458 56.861,165.333 56.645,165.333 56.549 C 165.333 56.453,165.221 56.281,165.083 56.167 C 164.882 55.999,164.833 56.003,164.834 56.188 M385.087 57.167 C 385.014 57.396,384.796 57.776,384.602 58.012 C 384.408 58.248,384.067 58.698,383.843 59.012 C 375.520 70.708,352.744 70.907,343.007 59.369 C 342.003 58.179,341.857 58.140,342.307 59.185 C 343.166 61.175,345.735 63.699,348.583 65.352 C 349.899 66.116,351.754 67.000,352.039 67.000 C 352.164 67.000,352.338 67.066,352.425 67.146 C 352.512 67.226,353.333 67.517,354.250 67.793 C 366.682 71.525,379.981 67.537,384.685 58.667 C 385.087 57.908,385.356 57.153,385.292 56.965 C 385.251 56.843,385.161 56.931,385.087 57.167 M12.966 67.113 C 12.632 67.201,12.449 67.672,12.597 68.060 C 12.756 68.472,48.907 68.482,49.066 68.070 C 49.217 67.675,49.192 67.549,48.905 67.262 C 48.654 67.011,13.900 66.868,12.966 67.113 M57.656 67.430 C 56.946 68.285,56.034 68.250,78.851 68.250 L 99.917 68.250 99.917 67.750 L 99.917 67.250 78.896 67.208 C 59.866 67.169,57.854 67.190,57.656 67.430 M109.897 67.407 C 109.563 68.278,109.283 68.246,117.699 68.293 C 125.422 68.336,125.477 68.334,125.585 67.994 C 125.848 67.166,125.851 67.167,117.641 67.167 C 111.131 67.167,109.976 67.203,109.897 67.407 M223.757 67.477 C 223.475 68.366,223.224 68.340,231.643 68.293 L 239.417 68.250 239.473 67.852 C 239.566 67.190,239.349 67.172,231.470 67.169 C 224.193 67.167,223.851 67.180,223.757 67.477 M287.564 67.407 C 287.230 68.278,286.959 68.246,295.272 68.293 C 303.565 68.340,303.614 68.335,303.172 67.511 C 302.930 67.058,287.737 66.957,287.564 67.407 " stroke="none" fill="#faf9fa" fill-rule="evenodd"></path>
        <path id="path3" d="M362.583 2.661 C 356.492 3.392,350.158 6.389,346.830 10.113 C 344.257 12.994,342.740 15.896,341.969 19.417 C 341.821 20.094,341.750 21.760,341.750 24.583 C 341.750 29.781,342.035 31.283,343.604 34.333 C 346.012 39.018,351.023 43.096,357.833 45.914 C 359.939 46.785,365.591 49.640,365.911 49.994 C 366.748 50.919,363.296 51.103,360.088 50.305 C 356.890 49.509,354.611 47.832,352.448 44.683 C 351.639 43.505,351.622 43.515,347.024 48.056 C 344.765 50.286,342.035 52.974,340.958 54.027 C 338.858 56.083,338.808 56.180,339.274 57.345 C 339.528 57.980,339.528 58.071,339.274 58.604 C 338.903 59.382,338.920 59.535,339.527 60.810 C 342.344 66.730,348.822 70.913,357.917 72.686 C 370.852 75.208,384.383 68.859,388.150 58.500 C 389.694 54.252,389.652 46.244,388.064 42.167 C 386.299 37.635,382.660 33.669,377.585 30.746 C 376.156 29.923,376.090 29.686,377.036 28.782 C 380.380 25.584,385.729 20.435,386.373 19.791 C 387.251 18.914,387.361 18.440,386.901 17.518 C 386.631 16.977,386.693 16.167,387.003 16.167 C 387.628 16.167,386.472 13.188,385.101 11.267 C 380.783 5.215,371.346 1.608,362.583 2.661 M221.479 3.109 C 221.044 3.633,221.063 71.563,221.499 71.999 C 221.998 72.498,241.273 72.527,241.724 72.029 C 241.976 71.751,242.000 70.603,242.003 58.987 C 242.004 51.319,242.068 46.151,242.162 46.002 C 242.355 45.697,241.995 45.369,250.747 53.843 C 252.303 55.350,254.666 57.637,255.997 58.925 C 258.754 61.594,263.362 66.068,266.667 69.286 C 267.904 70.491,269.254 71.781,269.667 72.153 L 270.417 72.829 274.425 72.831 C 277.323 72.833,278.489 72.778,278.633 72.633 C 278.886 72.380,278.923 4.066,278.670 3.667 C 278.426 3.281,258.977 3.201,258.393 3.583 L 258.000 3.841 258.000 16.754 C 258.000 29.173,257.988 29.667,257.694 29.667 C 257.356 29.667,255.093 27.521,243.253 15.971 C 241.968 14.718,240.692 13.489,240.417 13.241 C 240.142 12.993,238.642 11.548,237.083 10.030 C 231.843 4.926,230.419 3.564,229.936 3.198 C 229.281 2.702,221.881 2.624,221.479 3.109 M368.978 3.168 C 370.021 3.351,371.124 3.500,371.431 3.500 C 371.737 3.500,372.347 3.641,372.785 3.813 C 373.224 3.985,373.895 4.178,374.276 4.242 C 374.657 4.305,375.107 4.462,375.276 4.590 C 375.445 4.718,375.696 4.826,375.833 4.829 C 376.195 4.838,379.310 6.472,380.414 7.232 C 383.752 9.531,387.456 14.785,386.566 15.957 C 386.270 16.347,386.276 17.208,386.580 17.934 C 386.911 18.726,386.938 18.691,383.301 22.172 C 377.018 28.184,375.833 29.382,375.833 29.721 C 375.833 30.077,376.277 30.667,376.545 30.667 C 377.172 30.667,381.584 33.877,383.179 35.493 C 387.309 39.682,388.887 43.809,388.882 50.417 C 388.879 53.626,388.692 55.474,388.232 56.833 C 388.092 57.246,387.917 57.822,387.842 58.115 C 387.706 58.647,387.114 60.030,386.820 60.500 C 386.734 60.637,386.572 60.938,386.460 61.167 C 385.414 63.301,382.565 66.335,379.938 68.111 C 378.654 68.980,375.393 70.667,374.998 70.667 C 374.853 70.667,374.650 70.750,374.548 70.852 C 374.446 70.954,373.963 71.136,373.473 71.258 C 372.984 71.380,372.283 71.593,371.917 71.733 C 371.550 71.872,370.988 71.990,370.667 71.997 C 370.346 72.003,369.526 72.156,368.845 72.337 C 367.049 72.815,360.706 72.819,358.448 72.345 C 357.606 72.168,356.542 71.948,356.083 71.856 C 351.658 70.964,347.211 68.809,344.024 66.010 C 341.080 63.423,338.892 59.615,339.783 58.630 C 340.032 58.355,340.039 58.251,339.844 57.783 C 339.202 56.245,339.012 56.533,343.793 51.831 C 352.330 43.436,351.517 44.073,352.281 45.180 C 354.038 47.725,357.314 50.333,358.754 50.333 C 358.898 50.333,359.251 50.455,359.537 50.603 C 360.202 50.946,363.144 51.191,364.960 51.054 C 368.436 50.792,367.333 49.830,359.278 46.093 C 358.377 45.675,357.596 45.333,357.543 45.333 C 356.817 45.333,351.357 42.134,349.395 40.559 C 346.457 38.201,343.000 33.550,343.000 31.956 C 343.000 31.826,342.836 31.276,342.635 30.734 C 342.054 29.166,342.061 20.382,342.645 18.415 C 344.168 13.284,348.534 7.969,352.710 6.162 C 352.916 6.073,353.196 5.932,353.333 5.847 C 353.973 5.455,355.353 4.833,355.586 4.833 C 355.729 4.833,356.011 4.728,356.214 4.600 C 356.417 4.472,356.983 4.284,357.471 4.182 C 357.959 4.081,358.501 3.922,358.675 3.829 C 358.849 3.736,359.799 3.547,360.787 3.408 C 361.775 3.270,362.883 3.093,363.250 3.014 C 364.453 2.757,367.022 2.826,368.978 3.168 M10.218 3.542 C 10.054 3.795,9.933 20.663,10.085 22.125 L 10.193 23.167 15.888 23.169 C 19.021 23.170,21.752 23.217,21.959 23.272 L 22.335 23.373 22.293 37.811 L 22.250 52.250 16.383 52.333 C 11.882 52.397,10.466 52.467,10.300 52.633 C 10.049 52.884,9.974 71.862,10.222 72.111 C 10.380 72.269,48.970 72.405,50.251 72.252 C 50.711 72.198,51.184 72.092,51.303 72.018 C 51.652 71.803,51.590 53.018,51.239 52.668 C 51.028 52.456,50.098 52.409,45.286 52.368 C 40.218 52.325,39.560 52.289,39.375 52.045 C 39.070 51.642,39.070 23.582,39.375 23.385 C 39.490 23.311,42.246 23.212,45.500 23.167 L 51.417 23.083 51.460 13.417 C 51.500 4.477,51.482 3.734,51.220 3.542 C 50.997 3.378,46.616 3.333,30.645 3.333 C 14.594 3.333,10.325 3.377,10.218 3.542 M55.537 3.593 L 55.167 3.852 55.167 37.833 L 55.167 71.814 55.537 72.074 C 55.930 72.349,101.023 72.456,102.000 72.184 L 102.417 72.068 102.459 56.427 C 102.490 45.009,102.451 40.725,102.314 40.560 C 102.010 40.194,86.296 40.228,85.929 40.595 C 85.701 40.823,85.667 41.585,85.667 46.417 C 85.667 51.249,85.632 52.010,85.405 52.238 C 85.086 52.557,72.906 52.640,72.322 52.327 C 71.816 52.057,71.816 23.610,72.322 23.339 C 72.763 23.104,84.904 23.104,85.344 23.339 C 85.653 23.505,85.667 23.746,85.667 29.163 C 85.667 34.814,85.667 34.814,86.037 35.074 C 86.489 35.391,101.596 35.472,102.178 35.161 C 102.684 34.890,102.684 3.777,102.178 3.506 C 101.585 3.189,55.992 3.274,55.537 3.593 M108.083 3.449 C 107.900 3.497,107.656 3.612,107.542 3.705 C 107.176 4.002,107.243 71.717,107.609 72.021 C 108.132 72.455,127.395 72.439,127.829 72.004 C 128.159 71.674,128.167 71.477,128.167 63.179 C 128.167 55.684,128.197 54.660,128.429 54.429 C 128.649 54.208,129.214 54.166,131.970 54.163 C 143.216 54.152,151.908 48.879,156.258 39.430 C 158.865 33.766,158.949 24.287,156.443 18.491 C 155.139 15.476,152.771 12.153,150.571 10.252 C 149.936 9.704,149.379 9.216,149.333 9.168 C 147.369 7.124,141.776 4.657,137.167 3.801 C 135.310 3.456,109.260 3.140,108.083 3.449 M160.667 3.547 L 160.250 3.760 160.250 27.588 L 160.250 51.417 160.627 53.083 C 162.581 61.728,167.835 68.029,176.167 71.717 C 182.844 74.674,192.674 74.727,199.250 71.843 C 203.041 70.181,205.221 68.759,207.806 66.264 C 211.897 62.315,214.336 57.651,215.266 52.000 C 215.649 49.668,215.610 3.966,215.224 3.645 C 214.815 3.306,195.351 3.306,194.942 3.645 C 194.689 3.856,194.667 5.526,194.667 24.613 C 194.667 39.777,194.615 45.559,194.474 46.119 C 193.015 51.910,184.112 52.547,181.534 47.045 L 181.083 46.083 181.000 24.889 C 180.954 13.232,180.854 3.632,180.778 3.555 C 180.531 3.309,161.149 3.301,160.667 3.547 M231.225 4.952 C 232.155 5.842,233.779 7.405,234.833 8.425 C 235.887 9.445,237.909 11.398,239.325 12.765 C 241.748 15.103,243.753 17.048,250.577 23.674 C 257.931 30.816,257.683 30.593,258.091 30.437 C 258.300 30.357,258.333 28.570,258.333 17.411 C 258.333 8.815,258.391 4.370,258.506 4.156 C 258.776 3.651,278.057 3.651,278.327 4.156 C 278.555 4.581,278.565 71.973,278.337 72.333 C 278.209 72.537,277.626 72.594,275.218 72.639 C 270.647 72.726,270.917 72.806,268.750 70.717 C 266.684 68.727,257.715 60.018,253.917 56.315 C 252.542 54.975,251.187 53.662,250.905 53.398 C 250.624 53.133,248.687 51.267,246.601 49.250 C 242.888 45.660,242.158 45.049,241.829 45.252 C 241.726 45.316,241.667 50.129,241.667 58.504 C 241.667 71.438,241.661 71.658,241.337 71.831 C 240.761 72.139,222.029 71.981,221.830 71.667 C 221.523 71.181,221.620 3.904,221.929 3.595 C 222.151 3.373,222.746 3.333,225.861 3.333 L 229.533 3.333 231.225 4.952 M285.750 3.454 C 285.567 3.499,285.323 3.612,285.208 3.705 C 284.843 4.002,284.910 71.717,285.276 72.021 C 285.716 72.387,304.719 72.447,305.272 72.084 L 305.664 71.828 305.707 63.386 C 305.739 57.056,305.799 54.928,305.948 54.879 C 306.107 54.825,308.026 57.451,308.748 58.710 C 308.841 58.872,309.788 60.297,310.853 61.877 C 311.917 63.457,313.811 66.301,315.061 68.196 C 316.311 70.092,317.531 71.798,317.773 71.988 C 318.371 72.459,343.463 72.541,344.130 72.074 C 344.658 71.704,344.727 71.846,342.111 67.963 C 340.798 66.012,337.961 61.792,335.807 58.583 C 333.654 55.375,330.202 50.237,328.136 47.167 C 321.875 37.860,321.500 37.287,321.500 37.033 C 321.500 36.783,322.421 35.253,325.586 30.250 C 328.109 26.260,333.019 18.437,333.417 17.772 C 333.962 16.860,337.654 11.004,338.421 9.833 C 341.678 4.865,342.187 3.793,341.426 3.504 C 340.942 3.320,317.940 3.254,317.040 3.434 C 316.494 3.543,316.137 3.967,314.884 6.000 C 314.460 6.688,313.844 7.662,313.515 8.167 C 313.186 8.671,312.834 9.241,312.731 9.434 C 312.629 9.627,312.310 10.152,312.023 10.600 C 311.736 11.049,310.307 13.329,308.848 15.667 C 307.389 18.004,306.095 19.917,305.973 19.917 C 305.791 19.917,305.735 18.424,305.667 11.838 L 305.583 3.760 305.167 3.549 C 304.753 3.340,286.576 3.251,285.750 3.454 M51.066 4.097 C 51.289 4.679,51.177 22.451,50.949 22.640 C 50.804 22.760,48.789 22.837,44.943 22.869 C 40.015 22.910,39.131 22.954,38.996 23.167 C 38.714 23.614,38.785 52.204,39.070 52.593 C 39.294 52.900,39.615 52.921,45.195 53.007 C 48.433 53.057,51.103 53.113,51.126 53.132 C 51.150 53.151,51.150 57.345,51.126 62.451 L 51.083 71.735 50.667 71.851 C 50.143 71.996,11.597 71.999,10.917 71.854 L 10.417 71.747 10.374 62.477 L 10.331 53.206 10.707 53.105 C 10.914 53.050,13.497 53.004,16.447 53.002 C 19.523 53.001,21.994 52.931,22.239 52.837 L 22.667 52.675 22.667 37.927 C 22.667 23.516,22.659 23.174,22.344 23.006 C 22.141 22.897,20.000 22.832,16.553 22.831 C 13.545 22.830,10.915 22.784,10.708 22.728 L 10.333 22.628 10.333 13.328 C 10.333 6.044,10.378 4.010,10.542 3.944 C 11.174 3.689,50.967 3.839,51.066 4.097 M101.994 4.156 C 102.221 4.579,102.230 34.309,102.004 34.667 C 101.867 34.883,100.811 34.917,94.167 34.917 C 87.522 34.917,86.467 34.883,86.330 34.667 C 86.239 34.522,86.171 32.079,86.169 28.884 C 86.167 23.358,86.166 23.352,85.796 23.093 C 85.345 22.777,72.568 22.696,71.989 23.006 C 71.531 23.251,71.477 52.287,71.934 52.743 C 72.385 53.194,85.595 53.052,85.930 52.593 C 86.123 52.329,86.167 51.241,86.167 46.668 C 86.167 42.534,86.219 41.014,86.367 40.867 C 86.655 40.579,101.679 40.579,101.967 40.867 C 102.219 41.119,102.255 71.269,102.004 71.667 C 101.755 72.059,56.156 72.132,55.764 71.740 C 55.450 71.426,55.350 5.083,55.663 4.261 L 55.825 3.833 78.823 3.833 C 101.390 3.833,101.825 3.839,101.994 4.156 M136.667 4.134 C 137.537 4.232,138.529 4.430,138.870 4.573 C 139.210 4.716,139.679 4.833,139.911 4.833 C 140.142 4.833,141.063 5.140,141.958 5.514 C 142.852 5.888,143.733 6.237,143.917 6.289 C 144.100 6.341,144.438 6.508,144.667 6.658 C 144.896 6.809,145.271 7.024,145.500 7.134 C 148.098 8.391,154.167 13.933,154.167 15.048 C 154.167 15.095,154.455 15.609,154.807 16.191 C 156.374 18.779,157.443 22.087,157.682 25.083 C 157.920 28.065,157.726 33.519,157.337 34.778 C 157.152 35.378,156.997 36.029,156.994 36.226 C 156.991 36.422,156.844 36.883,156.667 37.250 C 156.490 37.617,156.342 38.031,156.339 38.170 C 156.317 39.165,153.524 43.647,151.745 45.542 C 148.206 49.312,143.350 52.183,139.083 53.028 C 138.625 53.119,137.800 53.313,137.250 53.460 C 136.525 53.653,135.118 53.752,132.138 53.821 C 129.877 53.874,127.965 53.979,127.888 54.055 C 127.812 54.132,127.730 58.107,127.706 62.889 C 127.666 70.798,127.636 71.602,127.382 71.792 C 127.019 72.063,108.659 72.097,108.156 71.827 C 107.675 71.570,107.644 4.296,108.125 4.009 C 108.519 3.773,134.479 3.887,136.667 4.134 M180.475 4.053 C 180.604 4.208,180.670 10.411,180.703 25.344 L 180.750 46.417 181.225 47.399 C 183.833 52.799,192.812 52.423,194.761 46.833 C 194.841 46.604,194.946 36.942,194.995 25.362 C 195.081 4.765,195.090 4.301,195.407 4.070 C 195.795 3.786,214.389 3.716,214.833 3.997 C 215.054 4.136,215.083 6.962,215.083 27.786 L 215.083 51.417 214.693 53.000 C 214.479 53.871,214.160 55.004,213.985 55.517 C 213.810 56.031,213.667 56.541,213.667 56.651 C 213.667 56.955,211.927 60.473,211.310 61.417 C 209.404 64.331,206.836 66.953,204.083 68.796 C 202.625 69.772,200.094 71.162,199.755 71.172 C 199.660 71.175,199.208 71.362,198.750 71.587 C 198.292 71.812,197.794 71.998,197.643 71.998 C 197.493 71.999,197.043 72.148,196.643 72.330 C 196.244 72.511,195.720 72.661,195.480 72.663 C 195.240 72.665,194.565 72.829,193.980 73.028 C 192.358 73.578,183.489 73.580,181.833 73.031 C 181.237 72.833,180.525 72.667,180.250 72.663 C 179.975 72.659,179.450 72.510,179.083 72.333 C 178.717 72.156,178.329 72.009,178.221 72.006 C 177.513 71.985,173.622 70.105,171.917 68.960 C 166.751 65.489,163.650 61.339,161.612 55.167 C 161.385 54.479,161.150 53.510,161.090 53.013 C 161.030 52.516,160.873 51.694,160.740 51.187 C 160.439 50.029,160.374 4.714,160.673 4.156 C 160.895 3.740,180.132 3.640,180.475 4.053 M305.000 3.996 C 305.215 4.132,305.262 5.327,305.333 12.522 C 305.393 18.545,305.470 20.907,305.606 20.952 C 305.925 21.058,306.673 20.084,308.094 17.712 C 308.475 17.075,312.383 10.804,313.033 9.787 C 313.609 8.885,313.830 8.525,314.296 7.730 C 314.505 7.374,314.822 6.858,315.000 6.583 C 315.178 6.308,315.470 5.816,315.650 5.489 C 315.829 5.162,316.199 4.656,316.472 4.363 L 316.969 3.831 329.026 3.874 L 341.083 3.917 341.129 4.333 C 341.161 4.619,340.793 5.340,339.963 6.621 C 339.296 7.650,338.458 8.962,338.100 9.537 C 337.743 10.113,337.124 11.087,336.725 11.703 C 336.326 12.319,336.000 12.855,336.000 12.895 C 336.000 12.934,335.756 13.331,335.458 13.777 C 335.160 14.223,334.654 15.022,334.333 15.552 C 334.012 16.082,333.349 17.131,332.859 17.883 C 332.368 18.635,331.843 19.466,331.692 19.730 C 331.400 20.239,331.271 20.449,330.760 21.250 C 329.628 23.024,328.981 24.045,328.406 24.966 C 328.045 25.543,327.375 26.610,326.917 27.338 C 326.458 28.066,325.821 29.087,325.500 29.608 C 325.179 30.129,324.613 31.015,324.241 31.576 C 323.869 32.137,323.321 33.006,323.023 33.506 C 322.725 34.007,322.261 34.754,321.991 35.167 C 320.731 37.096,320.705 36.966,322.995 40.250 C 323.186 40.525,324.245 42.100,325.348 43.750 C 326.451 45.400,328.305 48.163,329.468 49.891 C 330.632 51.618,331.846 53.432,332.167 53.921 C 332.487 54.409,334.634 57.608,336.937 61.030 C 339.239 64.451,341.733 68.156,342.478 69.264 C 343.926 71.415,344.046 71.737,343.458 71.895 C 342.397 72.179,318.374 72.003,318.028 71.708 C 317.839 71.548,316.621 69.804,315.321 67.833 C 314.021 65.862,312.555 63.650,312.063 62.917 C 311.571 62.183,310.089 59.971,308.771 58.000 C 306.326 54.347,305.824 53.717,305.511 53.910 C 305.389 53.985,305.333 56.764,305.333 62.748 C 305.333 70.460,305.303 71.507,305.071 71.738 C 304.752 72.058,286.412 72.143,285.822 71.827 C 285.368 71.584,285.308 4.549,285.762 4.095 C 286.069 3.789,304.521 3.694,305.000 3.996 M335.582 6.542 C 335.333 7.023,335.034 7.529,334.918 7.667 C 334.802 7.804,334.583 8.142,334.432 8.417 C 334.280 8.692,334.028 9.118,333.870 9.363 C 333.712 9.609,333.246 10.345,332.833 11.000 C 332.421 11.655,331.971 12.363,331.833 12.573 C 331.696 12.783,331.246 13.494,330.833 14.153 C 330.421 14.811,329.896 15.641,329.667 15.997 C 329.438 16.354,329.035 17.006,328.771 17.448 C 328.331 18.187,327.173 20.001,326.506 21.000 C 326.353 21.229,326.175 21.529,326.111 21.667 C 326.047 21.804,325.790 22.232,325.539 22.617 C 325.288 23.001,324.633 24.035,324.083 24.913 C 323.533 25.791,322.879 26.826,322.628 27.213 C 322.378 27.600,322.101 28.078,322.014 28.275 C 321.926 28.473,321.767 28.688,321.660 28.754 C 321.554 28.820,321.380 29.071,321.274 29.312 C 321.167 29.553,320.644 30.425,320.112 31.250 C 317.837 34.772,317.667 35.076,317.667 35.609 C 317.667 36.013,317.789 36.231,318.167 36.500 C 318.631 36.831,318.667 36.834,318.670 36.553 C 318.671 36.386,318.878 35.938,319.128 35.556 C 319.378 35.175,319.846 34.434,320.167 33.910 C 320.822 32.839,321.582 31.634,323.167 29.147 C 323.762 28.213,324.288 27.366,324.334 27.266 C 324.380 27.165,324.708 26.633,325.062 26.083 C 325.416 25.533,325.871 24.821,326.074 24.500 C 326.276 24.179,326.736 23.467,327.096 22.917 C 327.456 22.367,327.801 21.793,327.864 21.641 C 327.926 21.490,328.226 21.002,328.530 20.558 C 328.834 20.114,329.176 19.600,329.289 19.417 C 329.720 18.718,330.936 16.788,331.367 16.117 C 331.615 15.732,332.087 14.967,332.417 14.417 C 332.746 13.867,333.385 12.854,333.838 12.167 C 334.291 11.479,334.786 10.692,334.939 10.417 C 335.092 10.142,335.570 9.384,336.000 8.734 C 337.746 6.096,337.843 5.667,336.689 5.667 C 336.069 5.667,336.012 5.712,335.582 6.542 M336.667 6.356 C 336.667 6.460,336.329 7.058,335.917 7.684 C 335.504 8.310,335.167 8.857,335.167 8.900 C 335.167 8.942,334.867 9.428,334.500 9.980 C 334.133 10.532,333.833 11.053,333.833 11.138 C 333.833 11.223,333.719 11.387,333.580 11.503 C 333.441 11.618,333.208 11.965,333.061 12.273 C 332.915 12.581,332.729 12.833,332.648 12.833 C 332.566 12.833,332.500 12.911,332.500 13.005 C 332.500 13.100,332.162 13.690,331.750 14.316 C 331.337 14.942,331.000 15.530,331.000 15.623 C 331.000 15.716,330.886 15.887,330.747 16.003 C 330.608 16.118,330.374 16.465,330.228 16.773 C 330.082 17.081,329.896 17.333,329.814 17.333 C 329.733 17.333,329.667 17.411,329.667 17.505 C 329.667 17.653,328.773 19.120,327.842 20.500 C 327.687 20.729,327.510 21.029,327.448 21.167 C 327.385 21.304,326.960 21.979,326.503 22.667 C 326.046 23.354,325.548 24.142,325.396 24.417 C 325.244 24.692,324.717 25.535,324.226 26.290 C 323.735 27.046,323.333 27.728,323.333 27.806 C 323.333 27.884,323.183 28.084,323.000 28.250 C 322.817 28.416,322.667 28.618,322.667 28.699 C 322.667 28.780,322.528 29.050,322.358 29.298 C 322.188 29.547,321.689 30.313,321.250 31.000 C 320.811 31.688,320.312 32.453,320.142 32.702 C 319.972 32.950,319.833 33.197,319.833 33.250 C 319.833 33.303,319.695 33.550,319.526 33.798 C 319.357 34.047,319.009 34.569,318.753 34.958 C 318.497 35.348,318.223 35.667,318.144 35.667 C 317.843 35.667,318.023 35.155,318.667 34.187 C 319.033 33.635,319.333 33.148,319.333 33.104 C 319.333 33.061,319.652 32.545,320.042 31.957 C 320.431 31.370,321.012 30.457,321.333 29.929 C 322.040 28.767,323.428 26.585,323.855 25.965 C 324.027 25.717,324.167 25.470,324.167 25.417 C 324.167 25.363,324.306 25.117,324.475 24.868 C 325.356 23.581,326.333 22.046,326.333 21.951 C 326.333 21.892,326.621 21.410,326.973 20.880 C 328.703 18.275,329.167 17.550,329.167 17.451 C 329.167 17.357,329.885 16.232,330.860 14.798 C 331.028 14.550,331.167 14.280,331.167 14.199 C 331.167 14.118,331.317 13.916,331.500 13.750 C 331.683 13.584,331.833 13.363,331.833 13.258 C 331.833 13.153,331.946 12.921,332.084 12.742 C 332.553 12.132,333.327 10.917,333.330 10.785 C 333.332 10.712,333.413 10.562,333.510 10.451 C 333.607 10.341,333.851 9.992,334.052 9.678 C 334.252 9.363,334.546 8.913,334.704 8.678 C 334.999 8.238,335.583 7.260,335.967 6.562 C 336.190 6.157,336.667 6.017,336.667 6.356 M383.038 16.542 C 382.521 17.023,381.125 18.354,379.937 19.500 C 377.381 21.965,376.531 22.778,375.947 23.314 L 375.513 23.712 374.577 22.856 C 373.498 21.870,371.993 20.833,371.641 20.833 C 371.508 20.833,371.326 20.760,371.236 20.669 C 370.081 19.514,364.681 19.102,362.701 20.017 C 360.313 21.121,359.222 23.002,360.245 24.250 C 360.630 24.720,360.655 24.728,360.661 24.381 C 360.695 22.265,366.589 20.883,369.750 22.250 C 372.380 23.387,373.103 23.842,374.279 25.102 C 375.425 26.330,375.331 26.372,378.683 23.167 C 384.846 17.274,384.963 17.138,384.747 16.155 C 384.588 15.429,384.123 15.534,383.038 16.542 M384.167 16.631 C 384.167 17.011,383.740 17.506,381.827 19.340 C 374.831 26.049,375.535 25.550,374.557 24.493 C 371.251 20.921,363.823 19.896,361.022 22.626 C 360.396 23.237,360.287 22.442,360.885 21.632 C 362.398 19.587,368.311 19.065,370.735 20.762 C 370.921 20.893,371.169 21.000,371.284 21.000 C 371.637 21.000,373.325 22.156,374.355 23.103 C 375.581 24.231,375.441 24.255,377.145 22.625 C 378.968 20.880,382.214 17.735,383.083 16.869 C 383.888 16.068,384.167 16.007,384.167 16.631 M12.272 18.208 C 12.100 18.848,12.154 19.154,12.500 19.500 C 12.962 19.962,24.390 20.028,24.566 19.570 C 24.746 19.100,24.681 18.980,24.344 19.161 C 23.652 19.531,12.872 19.383,12.667 19.000 C 12.546 18.774,12.542 18.566,12.655 18.355 C 12.815 18.057,12.745 17.833,12.492 17.833 C 12.426 17.833,12.327 18.002,12.272 18.208 M48.902 18.542 L 48.917 19.250 43.211 19.294 C 37.684 19.336,37.494 19.327,37.169 19.002 C 36.792 18.625,36.739 18.777,37.027 19.409 L 37.220 19.833 43.101 19.833 L 48.981 19.833 49.241 19.463 C 49.639 18.894,49.543 17.833,49.093 17.833 C 48.961 17.833,48.893 18.085,48.902 18.542 M69.669 19.188 C 69.677 19.841,69.623 19.838,78.842 19.793 C 86.601 19.756,87.752 19.718,87.794 19.500 C 87.836 19.280,86.784 19.255,78.985 19.296 C 72.503 19.330,70.066 19.291,69.897 19.151 C 69.720 19.003,69.667 19.012,69.669 19.188 M126.083 20.532 C 125.434 20.901,125.316 21.560,125.751 22.394 C 125.888 22.657,126.008 23.032,126.018 23.227 C 126.033 23.538,126.059 23.525,126.217 23.125 L 126.398 22.667 130.241 22.666 C 134.299 22.665,134.756 22.730,136.500 23.554 C 137.691 24.116,139.001 25.565,139.583 26.964 C 140.148 28.321,140.287 28.218,140.317 26.419 C 140.355 24.104,137.349 20.842,135.167 20.832 C 134.938 20.831,134.382 20.718,133.932 20.582 C 132.907 20.271,126.614 20.231,126.083 20.532 M133.667 20.904 C 136.224 21.236,137.833 22.082,139.017 23.717 C 139.954 25.009,139.652 25.344,138.507 24.283 C 137.961 23.778,137.005 23.116,136.382 22.813 L 135.250 22.262 130.667 22.156 C 128.146 22.098,126.073 22.039,126.059 22.025 C 125.731 21.677,125.916 21.025,126.398 20.830 C 126.954 20.605,131.739 20.655,133.667 20.904 M364.550 24.776 C 364.432 25.084,365.178 25.833,365.601 25.833 C 365.738 25.833,366.128 25.978,366.467 26.155 C 366.806 26.331,368.096 26.865,369.333 27.341 C 370.571 27.817,371.773 28.303,372.006 28.422 C 373.633 29.254,374.191 28.642,373.019 27.312 C 371.378 25.447,365.023 23.544,364.550 24.776 M343.837 26.171 C 343.849 30.441,346.173 34.648,350.486 38.210 C 350.952 38.595,353.966 40.536,354.500 40.795 C 354.729 40.907,355.029 41.065,355.167 41.148 C 355.304 41.230,355.604 41.380,355.833 41.481 C 356.063 41.582,356.363 41.730,356.500 41.810 C 356.925 42.057,358.611 42.833,358.722 42.833 C 359.022 42.833,365.228 45.851,365.306 46.035 C 365.336 46.107,365.442 46.167,365.541 46.167 C 366.215 46.167,369.037 48.434,369.804 49.592 C 370.255 50.272,370.308 50.304,370.542 50.037 C 372.285 48.051,367.921 44.470,359.333 40.838 C 352.273 37.853,348.196 34.601,345.686 29.955 C 345.401 29.425,345.167 28.862,345.167 28.702 C 345.167 28.542,345.020 28.138,344.841 27.804 C 344.662 27.470,344.464 26.796,344.400 26.307 C 344.184 24.630,343.833 24.546,343.837 26.171 M368.167 25.255 C 370.576 25.812,374.312 28.167,372.786 28.167 C 372.281 28.167,365.500 25.346,365.500 25.137 C 365.500 24.917,366.991 24.984,368.167 25.255 M128.417 25.617 C 127.745 25.774,127.667 26.112,127.667 28.833 C 127.667 32.360,127.353 32.085,131.362 32.077 C 137.568 32.065,140.236 28.859,136.070 26.418 C 134.829 25.691,130.180 25.204,128.417 25.617 M134.602 26.246 C 138.269 27.335,138.427 30.126,134.889 31.343 C 133.755 31.733,128.729 31.829,128.367 31.467 C 128.229 31.329,128.167 30.504,128.167 28.833 C 128.167 27.163,128.229 26.337,128.367 26.200 C 128.672 25.894,133.539 25.931,134.602 26.246 M155.890 29.333 C 155.784 29.654,155.651 30.241,155.594 30.637 C 155.538 31.033,155.389 31.520,155.262 31.720 C 155.136 31.920,154.979 32.421,154.915 32.833 C 154.851 33.246,154.656 33.817,154.482 34.103 C 154.309 34.389,154.161 34.764,154.153 34.936 C 154.141 35.216,153.949 35.598,152.767 37.687 C 151.679 39.609,148.751 42.913,147.348 43.801 C 147.111 43.951,146.654 44.276,146.333 44.523 C 144.450 45.974,139.308 48.170,137.800 48.167 C 137.552 48.167,136.915 48.290,136.383 48.440 C 135.630 48.653,134.426 48.727,130.917 48.779 C 125.010 48.865,125.148 48.812,125.764 50.772 C 126.050 51.681,126.072 51.705,126.302 51.360 C 126.534 51.010,126.638 51.000,130.145 50.997 C 132.549 50.995,134.194 50.913,135.083 50.753 C 135.817 50.620,136.737 50.509,137.129 50.506 C 137.521 50.503,138.268 50.350,138.790 50.167 C 139.312 49.983,139.891 49.833,140.078 49.832 C 140.264 49.832,140.616 49.727,140.859 49.601 C 141.102 49.474,141.590 49.275,141.942 49.159 C 142.649 48.926,145.094 47.668,145.929 47.107 C 148.014 45.708,148.583 45.253,149.918 43.918 C 152.510 41.326,154.390 38.183,155.300 34.917 C 155.818 33.059,156.202 30.661,156.140 29.667 L 156.083 28.750 155.890 29.333 M87.833 30.810 C 87.833 32.200,87.675 32.167,94.178 32.167 C 99.395 32.167,99.801 32.146,100.058 31.862 C 100.395 31.489,100.454 29.932,100.127 30.041 C 100.001 30.083,99.940 30.339,99.971 30.699 C 100.040 31.496,99.985 31.503,94.021 31.483 C 88.319 31.464,88.253 31.455,88.241 30.669 C 88.236 30.359,88.142 30.075,88.033 30.039 C 87.896 29.993,87.833 30.234,87.833 30.810 M345.667 30.750 C 345.667 30.887,345.798 31.134,345.958 31.297 C 346.119 31.461,346.467 31.911,346.731 32.298 C 348.908 35.478,352.716 38.220,358.583 40.832 C 365.513 43.917,368.798 45.874,369.905 47.575 C 370.677 48.762,370.322 49.067,369.333 48.065 C 367.970 46.683,364.939 44.954,360.156 42.830 C 352.169 39.283,347.456 35.703,345.987 32.067 C 345.787 31.571,345.479 30.847,345.373 30.625 C 345.340 30.556,345.393 30.500,345.490 30.500 C 345.587 30.500,345.667 30.613,345.667 30.750 M154.000 36.766 C 154.000 36.821,153.894 37.064,153.765 37.308 C 153.635 37.551,153.326 38.162,153.077 38.667 C 150.537 43.809,144.724 48.104,138.083 49.742 C 134.649 50.590,125.838 50.535,125.838 49.667 C 125.838 49.122,126.139 49.084,131.202 48.989 C 136.554 48.888,136.899 48.845,140.167 47.868 C 143.379 46.908,146.942 44.785,149.476 42.321 C 150.064 41.750,151.345 40.313,151.710 39.816 C 151.871 39.596,152.190 39.181,152.418 38.893 C 152.646 38.604,152.833 38.315,152.833 38.250 C 152.833 38.185,153.021 37.909,153.250 37.636 C 153.479 37.364,153.667 37.034,153.667 36.904 C 153.667 36.773,153.742 36.667,153.833 36.667 C 153.925 36.667,154.000 36.711,154.000 36.766 M239.601 37.597 C 239.455 37.978,239.477 38.623,239.659 39.314 C 239.747 39.645,239.866 40.142,239.924 40.417 L 240.030 40.917 240.234 40.420 L 240.439 39.923 241.414 40.837 C 242.905 42.234,243.265 42.578,245.763 45.000 C 247.039 46.237,249.992 49.087,252.325 51.333 C 254.658 53.579,258.145 56.958,260.075 58.841 C 269.877 68.409,270.666 69.159,271.136 69.346 C 271.348 69.431,272.561 69.500,273.832 69.500 C 276.506 69.500,276.667 69.428,276.667 68.238 L 276.667 67.500 274.292 67.488 C 271.177 67.473,272.422 68.336,264.595 60.764 C 262.218 58.465,259.930 56.257,259.512 55.858 C 259.093 55.459,257.473 53.884,255.912 52.358 C 241.391 38.159,239.902 36.812,239.601 37.597 M242.878 40.149 C 244.183 41.423,245.662 42.858,246.167 43.338 C 246.671 43.819,248.171 45.270,249.500 46.564 C 250.829 47.858,254.089 51.017,256.745 53.584 C 259.400 56.150,262.775 59.421,264.245 60.852 C 272.185 68.584,271.000 67.729,273.917 67.833 L 276.250 67.917 276.250 68.417 L 276.250 68.917 273.864 68.963 L 271.477 69.009 270.298 67.880 C 269.650 67.258,268.661 66.313,268.101 65.778 C 267.541 65.244,266.071 63.822,264.833 62.618 C 262.546 60.393,261.626 59.503,253.094 51.249 C 250.441 48.683,247.216 45.560,245.927 44.309 C 244.638 43.058,242.736 41.218,241.700 40.219 C 240.294 38.862,239.845 38.330,239.926 38.118 C 240.133 37.579,240.513 37.840,242.878 40.149 M303.221 44.433 C 303.126 44.681,303.606 47.829,303.763 47.985 C 303.802 48.024,303.833 47.856,303.833 47.611 C 303.833 46.615,304.561 47.602,311.427 57.914 C 317.264 66.681,318.672 68.693,319.067 68.831 C 319.955 69.142,339.088 69.055,339.405 68.738 C 339.789 68.354,339.726 67.905,339.208 67.329 L 338.750 66.820 329.083 66.823 C 321.692 66.825,319.356 66.778,319.159 66.621 C 319.017 66.509,315.757 61.692,311.915 55.917 C 308.074 50.142,304.871 45.392,304.798 45.361 C 304.726 45.331,304.667 45.205,304.667 45.082 C 304.667 44.503,303.410 43.940,303.221 44.433 M306.266 48.042 C 307.428 49.806,308.444 51.275,308.523 51.306 C 308.602 51.336,308.667 51.440,308.667 51.537 C 308.667 51.634,309.098 52.349,309.625 53.125 C 310.152 53.902,310.696 54.708,310.833 54.915 C 311.570 56.026,316.104 62.826,317.096 64.307 C 317.731 65.255,318.360 66.207,318.495 66.422 C 318.956 67.158,319.081 67.167,328.979 67.167 L 338.442 67.167 338.822 67.571 C 339.538 68.333,339.531 68.334,329.115 68.328 C 318.611 68.322,318.947 68.349,318.503 67.500 C 318.383 67.271,317.790 66.344,317.184 65.440 C 316.579 64.536,316.005 63.663,315.910 63.499 C 315.815 63.336,315.630 63.074,315.500 62.917 C 315.370 62.760,315.185 62.498,315.090 62.335 C 314.995 62.172,314.423 61.299,313.819 60.395 C 310.192 54.964,309.065 53.265,308.910 53.000 C 308.815 52.836,308.630 52.574,308.500 52.417 C 308.370 52.260,308.185 51.997,308.090 51.832 C 307.666 51.101,304.506 46.392,304.288 46.167 C 303.994 45.863,303.667 45.254,303.667 45.011 C 303.667 44.363,304.420 45.241,306.266 48.042 M162.172 47.198 C 162.183 48.030,162.839 52.468,163.078 53.333 C 163.522 54.936,164.420 57.059,165.286 58.547 C 167.055 61.589,170.201 64.814,173.167 66.625 C 174.079 67.182,177.042 68.667,177.242 68.667 C 177.341 68.667,177.701 68.817,178.044 69.000 C 178.386 69.183,178.813 69.333,178.993 69.333 C 179.173 69.333,179.680 69.473,180.119 69.644 C 180.558 69.815,181.367 70.004,181.917 70.065 C 182.467 70.126,183.217 70.283,183.583 70.414 C 184.550 70.759,190.956 70.764,192.099 70.420 C 192.548 70.285,193.367 70.126,193.917 70.067 C 194.467 70.008,195.142 69.859,195.417 69.736 C 195.692 69.613,196.289 69.430,196.743 69.331 C 197.198 69.231,197.648 69.088,197.743 69.013 C 197.839 68.938,198.183 68.791,198.508 68.686 C 199.737 68.291,202.460 66.771,204.167 65.528 C 205.583 64.496,208.230 61.907,208.885 60.913 C 209.125 60.548,209.549 59.929,209.827 59.536 C 210.106 59.143,210.333 58.759,210.333 58.683 C 210.333 58.607,210.469 58.366,210.634 58.147 C 210.799 57.929,211.142 57.262,211.396 56.667 C 211.649 56.071,211.927 55.433,212.014 55.250 C 212.618 53.966,213.509 49.548,213.484 47.955 L 213.468 46.917 213.216 47.750 C 212.336 50.661,212.165 51.289,212.166 51.621 C 212.166 51.825,212.017 52.238,211.834 52.538 C 211.651 52.838,211.501 53.182,211.501 53.302 C 211.494 55.686,205.864 62.403,201.983 64.659 C 201.488 64.946,200.971 65.253,200.833 65.341 C 200.696 65.429,200.396 65.575,200.167 65.666 C 199.938 65.758,199.637 65.904,199.500 65.991 C 198.759 66.461,196.045 67.379,193.750 67.935 C 191.341 68.518,184.280 68.605,182.750 68.071 C 182.383 67.943,181.621 67.767,181.056 67.680 C 180.490 67.594,179.800 67.405,179.522 67.262 C 179.244 67.118,178.890 67.000,178.735 67.000 C 178.580 67.000,178.145 66.855,177.768 66.678 C 177.392 66.502,176.571 66.124,175.945 65.839 C 171.716 63.915,167.237 59.677,165.371 55.833 C 165.260 55.604,165.098 55.304,165.011 55.167 C 164.689 54.656,164.000 53.012,164.000 52.754 C 164.000 52.607,163.860 52.208,163.688 51.868 C 163.517 51.528,163.322 50.805,163.256 50.262 C 163.189 49.718,163.036 49.118,162.914 48.928 C 162.792 48.739,162.641 48.226,162.577 47.790 C 162.456 46.960,162.163 46.532,162.172 47.198 M386.718 51.430 C 386.609 51.620,386.469 52.182,386.407 52.680 C 386.345 53.177,386.197 53.740,386.078 53.932 C 385.958 54.123,385.772 54.611,385.665 55.015 C 385.557 55.419,385.372 55.862,385.254 56.000 C 385.136 56.137,384.987 56.421,384.923 56.630 C 384.489 58.056,381.217 61.706,379.000 63.239 C 377.854 64.031,374.714 65.663,374.318 65.672 C 374.189 65.675,373.945 65.782,373.776 65.910 C 373.607 66.038,373.157 66.194,372.776 66.258 C 372.395 66.321,371.860 66.487,371.588 66.626 C 371.316 66.766,370.603 66.939,370.005 67.011 C 369.406 67.083,368.392 67.259,367.750 67.402 C 366.009 67.788,361.446 67.761,359.360 67.350 C 358.474 67.176,357.369 66.994,356.904 66.945 C 356.439 66.896,355.802 66.747,355.488 66.614 C 355.174 66.481,354.617 66.294,354.250 66.199 C 353.420 65.984,351.820 65.422,351.399 65.198 C 351.225 65.105,350.633 64.817,350.083 64.557 C 347.507 63.337,344.731 61.099,343.087 58.915 C 342.042 57.526,341.745 57.333,341.591 57.944 C 341.305 59.084,342.502 61.128,344.629 63.130 C 346.624 65.008,348.249 66.023,351.750 67.579 C 352.364 67.852,353.690 68.299,354.583 68.535 C 354.950 68.632,355.738 68.845,356.333 69.009 C 356.929 69.172,358.018 69.350,358.754 69.404 C 359.489 69.457,360.351 69.578,360.670 69.671 C 361.596 69.941,364.650 70.050,365.750 69.852 C 366.300 69.753,367.387 69.592,368.167 69.494 C 374.596 68.683,380.106 65.732,383.868 61.083 C 384.308 60.539,385.833 57.929,385.833 57.719 C 385.833 57.648,385.977 57.213,386.153 56.753 C 386.955 54.653,387.429 50.191,386.718 51.430 M165.333 56.549 C 165.333 56.645,165.458 56.861,165.610 57.030 C 165.762 57.198,165.969 57.474,166.069 57.644 C 169.571 63.596,177.400 68.045,185.484 68.678 C 190.197 69.047,195.242 68.275,198.761 66.647 C 199.134 66.474,199.483 66.333,199.538 66.333 C 199.689 66.333,201.970 65.036,202.968 64.382 C 205.686 62.602,208.998 59.136,210.248 56.763 C 210.341 56.587,210.505 56.414,210.612 56.379 C 210.884 56.289,210.693 56.981,210.307 57.481 C 210.138 57.699,210.000 57.945,210.000 58.026 C 210.000 58.107,209.797 58.491,209.548 58.879 C 200.057 73.685,176.185 73.874,166.410 59.219 C 165.909 58.469,165.500 57.777,165.500 57.682 C 165.500 57.586,165.350 57.262,165.167 56.962 C 164.756 56.288,164.711 55.857,165.083 56.167 C 165.221 56.281,165.333 56.453,165.333 56.549 M385.091 57.798 C 380.925 67.202,367.151 71.666,354.250 67.793 C 353.333 67.517,352.512 67.226,352.425 67.146 C 352.338 67.066,352.164 67.000,352.039 67.000 C 351.754 67.000,349.899 66.116,348.583 65.352 C 345.735 63.699,343.166 61.175,342.307 59.185 C 341.857 58.140,342.003 58.179,343.007 59.369 C 352.744 70.907,375.520 70.708,383.843 59.012 C 384.067 58.698,384.408 58.248,384.602 58.012 C 384.796 57.776,385.014 57.396,385.087 57.167 C 385.161 56.931,385.251 56.843,385.292 56.965 C 385.332 57.083,385.242 57.458,385.091 57.798 M295.386 66.793 C 286.156 66.842,286.820 66.738,287.075 68.096 C 287.245 69.003,287.219 69.000,295.369 69.000 C 304.105 69.000,304.251 68.968,303.709 67.167 L 303.583 66.750 295.386 66.793 M109.500 67.639 C 109.500 69.076,109.042 69.000,117.699 69.000 C 126.435 69.000,126.238 69.033,126.134 67.606 L 126.083 66.917 117.792 66.873 L 109.500 66.830 109.500 67.639 M223.333 67.588 C 223.333 67.957,223.450 68.426,223.593 68.630 L 223.852 69.000 231.650 69.000 C 240.654 69.000,240.139 69.103,240.026 67.333 L 240.000 66.917 231.667 66.917 L 223.333 66.917 223.333 67.588 M12.249 67.337 C 12.090 67.837,12.317 68.646,12.669 68.835 C 13.381 69.216,48.790 69.043,49.176 68.657 C 49.679 68.154,49.575 67.106,49.015 67.027 C 48.640 66.974,48.631 66.988,48.890 67.247 C 49.192 67.549,49.218 67.672,49.066 68.070 C 48.895 68.514,12.732 68.468,12.591 68.023 C 12.460 67.611,12.631 67.203,12.973 67.112 C 13.131 67.070,13.058 67.030,12.803 67.019 C 12.490 67.006,12.324 67.101,12.249 67.337 M57.153 67.380 C 56.913 67.906,57.214 68.629,57.758 68.836 C 58.574 69.147,99.758 69.051,100.071 68.738 C 100.498 68.311,100.429 67.000,99.980 67.000 C 99.690 67.000,99.662 67.044,99.826 67.241 C 99.936 67.373,100.001 67.655,99.971 67.866 L 99.917 68.250 78.896 68.292 C 56.061 68.338,57.080 68.377,57.635 67.489 C 57.894 67.075,57.885 67.000,57.580 67.000 C 57.440 67.000,57.248 67.171,57.153 67.380 M125.493 67.409 C 125.604 67.542,125.645 67.805,125.585 67.994 C 125.477 68.334,125.422 68.336,117.699 68.293 C 109.283 68.246,109.563 68.278,109.897 67.407 C 110.036 67.045,125.193 67.047,125.493 67.409 M239.306 67.313 C 239.429 67.391,239.504 67.633,239.473 67.852 L 239.417 68.250 231.643 68.293 C 223.224 68.340,223.475 68.366,223.757 67.477 C 223.864 67.140,238.786 66.983,239.306 67.313 M303.172 67.511 C 303.614 68.335,303.565 68.340,295.272 68.293 C 286.959 68.246,287.230 68.278,287.564 67.407 C 287.737 66.957,302.930 67.058,303.172 67.511 " stroke="none" fill="#a2939c" fill-rule="evenodd"></path>
        <path id="path4" d="M12.586 6.208 C 12.368 7.150,12.416 17.830,12.639 17.915 C 12.761 17.962,15.433 18.000,18.577 18.000 C 25.002 18.000,24.675 17.932,24.686 19.275 C 24.690 19.719,24.727 27.771,24.768 37.167 L 24.844 54.250 24.487 54.542 C 24.162 54.807,23.614 54.833,18.491 54.833 C 14.164 54.833,12.822 54.882,12.718 55.042 C 12.644 55.156,12.546 57.894,12.500 61.125 L 12.417 67.000 30.833 67.000 L 49.250 67.000 49.167 61.125 C 49.121 57.894,49.023 55.156,48.948 55.042 C 48.845 54.882,47.507 54.833,43.194 54.833 C 38.377 54.833,37.521 54.796,37.204 54.574 L 36.833 54.314 36.846 37.699 C 36.856 24.673,36.905 20.957,37.071 20.500 C 37.250 20.010,37.243 19.831,37.033 19.385 C 36.805 18.905,36.808 18.813,37.061 18.427 L 37.341 18.000 42.962 17.998 C 46.054 17.996,48.733 17.955,48.917 17.906 C 49.305 17.802,49.359 6.516,48.973 6.051 C 48.827 5.874,45.395 5.833,30.733 5.833 L 12.673 5.833 12.586 6.208 M57.875 5.944 C 57.709 6.011,57.665 12.145,57.659 35.806 C 57.655 52.183,57.592 65.896,57.517 66.279 C 57.397 66.903,57.419 66.984,57.733 67.068 C 58.206 67.195,99.317 67.189,99.792 67.062 L 100.167 66.961 100.164 55.106 C 100.163 47.928,100.099 43.151,100.004 43.000 C 99.833 42.731,89.092 42.609,88.458 42.870 C 88.189 42.981,88.167 43.415,88.167 48.636 C 88.167 53.894,88.146 54.301,87.862 54.558 C 87.405 54.971,70.171 54.980,69.758 54.568 C 69.516 54.325,69.471 40.021,69.647 19.275 C 69.659 17.906,68.979 18.000,78.858 18.000 L 87.675 18.000 87.827 18.401 C 87.911 18.621,87.922 19.015,87.851 19.276 C 87.780 19.539,87.801 20.009,87.898 20.333 C 87.998 20.665,88.089 22.894,88.110 25.500 L 88.146 30.083 94.115 30.083 L 100.083 30.083 100.126 18.389 C 100.153 11.031,100.108 6.535,100.005 6.264 L 99.842 5.833 78.962 5.846 C 67.479 5.854,57.990 5.897,57.875 5.944 " stroke="none" fill="#51b3e7" fill-rule="evenodd"></path>
    </g>
</svg>