<svg width="100%" height="100%" viewBox="0 0 800 800" version="1.1" xmlns="http://www.w3.org/2000/svg">
    <g id="accessories-front">
        <g id="Boring-mask">
            <path d="M400.309,384.153C411.566,384.153 425.029,389.542 434.082,392.698C458.347,401.156 481.601,413.412 507.674,415.19C516.539,415.794 528.81,416.054 537.07,411.994C542.041,409.551 543.196,396.689 544.678,391.959C550.936,371.995 551.63,351.723 559.587,332.193L561.912,327.794C562.582,326.771 561.303,334.526 560.79,337.466C559.506,344.823 558.231,350.369 557.174,357.694C553.964,379.932 548.551,400.392 543.995,422.373C543.641,424.076 543.255,426.173 542.958,427.888C542.743,429.132 541.983,434.939 542.986,432.25C544.028,429.452 545.416,424.765 546.481,422.366C547.124,420.916 547.584,416.517 548.109,418.073C548.666,419.724 548.301,425.304 548.195,426.912C547.642,435.278 546.9,443.021 545.025,451.185C536.672,487.563 517.219,517.134 490.525,543.006C470.469,562.445 449.692,579.921 424.595,592.577C418.243,595.781 408.404,598.732 400.309,598.732C392.213,598.732 382.374,595.781 376.022,592.577C350.925,579.921 330.148,562.445 310.092,543.006C283.398,517.134 263.945,487.563 255.592,451.185C253.717,443.021 252.205,434.816 251.651,426.451C251.545,424.842 251.511,420.459 251.708,418.727C251.94,416.681 252.995,421.519 253.639,422.968C254.703,425.368 255.923,429.605 257.115,432.343C257.378,432.948 256.893,429.382 256.678,428.138C256.381,426.423 255.841,424.759 255.572,423.04C252.319,402.261 247.6,381.661 242.553,358.086C241.004,350.849 239.978,342.481 238.718,335.19C238.293,332.729 238.785,331.294 238.347,328.836C238.133,327.631 240.642,332.961 240.642,332.961C247.278,353.218 249.339,372.016 255.596,391.98C257.079,396.71 257.847,409.579 262.818,412.022C271.079,416.083 284.078,415.794 292.943,415.19C319.016,413.412 342.27,401.156 366.535,392.698C375.589,389.542 389.051,384.153 400.309,384.153Z" style="fill:rgb(90,145,255);"/>
            <clipPath id="_clip1_boring_mask">
                <path d="M400.309,384.153C411.566,384.153 425.029,389.542 434.082,392.698C458.347,401.156 481.601,413.412 507.674,415.19C516.539,415.794 528.81,416.054 537.07,411.994C542.041,409.551 543.196,396.689 544.678,391.959C550.936,371.995 551.63,351.723 559.587,332.193L561.912,327.794C562.582,326.771 561.303,334.526 560.79,337.466C559.506,344.823 558.231,350.369 557.174,357.694C553.964,379.932 548.551,400.392 543.995,422.373C543.641,424.076 543.255,426.173 542.958,427.888C542.743,429.132 541.983,434.939 542.986,432.25C544.028,429.452 545.416,424.765 546.481,422.366C547.124,420.916 547.584,416.517 548.109,418.073C548.666,419.724 548.301,425.304 548.195,426.912C547.642,435.278 546.9,443.021 545.025,451.185C536.672,487.563 517.219,517.134 490.525,543.006C470.469,562.445 449.692,579.921 424.595,592.577C418.243,595.781 408.404,598.732 400.309,598.732C392.213,598.732 382.374,595.781 376.022,592.577C350.925,579.921 330.148,562.445 310.092,543.006C283.398,517.134 263.945,487.563 255.592,451.185C253.717,443.021 252.205,434.816 251.651,426.451C251.545,424.842 251.511,420.459 251.708,418.727C251.94,416.681 252.995,421.519 253.639,422.968C254.703,425.368 255.923,429.605 257.115,432.343C257.378,432.948 256.893,429.382 256.678,428.138C256.381,426.423 255.841,424.759 255.572,423.04C252.319,402.261 247.6,381.661 242.553,358.086C241.004,350.849 239.978,342.481 238.718,335.19C238.293,332.729 238.785,331.294 238.347,328.836C238.133,327.631 240.642,332.961 240.642,332.961C247.278,353.218 249.339,372.016 255.596,391.98C257.079,396.71 257.847,409.579 262.818,412.022C271.079,416.083 284.078,415.794 292.943,415.19C319.016,413.412 342.27,401.156 366.535,392.698C375.589,389.542 389.051,384.153 400.309,384.153Z"/>
            </clipPath>
            <g clip-path="url(#_clip1_boring_mask)">
                <path d="M341.337,569.754C340.839,569.939 351.828,572.718 354.781,573.504C363.65,575.864 373.836,580.398 382.888,581.975C401.169,585.16 417.505,582.842 436.672,576.677C442.31,574.863 448.006,573.065 453.468,570.782C455.729,569.837 462.103,567.148 462.164,567.452C462.403,568.649 457.233,571.326 456.476,571.794C449.658,576.009 442.084,578.851 434.545,581.493C422.075,585.862 408.781,589.566 395.425,588.633C385.067,587.909 371.781,583.66 361.976,580.588C351.137,577.193 347.321,573.758 338.259,570.074L341.337,569.754ZM293.687,516.306C296.587,518.574 305.813,521.952 308.178,522.982C315.825,526.311 323.468,529.669 331.22,532.747C364.872,546.111 398.019,556.129 433.977,546.681C449.642,542.565 465.319,536.693 479.754,529.28C483.056,527.584 486.371,525.926 489.767,524.427C490.176,524.246 505.196,517.777 505.648,518.228C505.785,518.365 483.232,530.495 479.855,532.185C471.95,536.141 465.675,538.759 457.502,542.17C448.845,545.782 437.949,550.968 428.878,553.233C417.154,556.16 409.212,558.246 396.986,557.642C386.384,557.119 370.199,553.187 360.342,549.536C339.335,541.756 315.804,529.603 296.294,518.711L293.687,516.306C293.449,516.12 293.254,515.941 293.108,515.772L293.687,516.306ZM273.902,482.16C273.064,481.899 275.61,482.565 276.471,482.737C278.18,483.079 279.899,483.388 281.615,483.7C286.857,484.652 292.135,485.491 297.423,486.146C313.207,488.102 328.926,490.42 344.736,492.183C358.431,493.71 372.284,495.418 386.067,495.763C409.45,496.349 432.787,494.455 456.071,492.611C468.368,491.637 480.562,490.131 492.803,488.626C496.788,488.136 500.768,487.59 504.749,487.066C506.063,486.894 525.028,484.435 525.726,484.368C532.228,483.749 516.416,487.975 502.364,491.061C488.669,494.069 472.872,496.945 459.795,498.52C445.177,500.281 413.89,505.332 381.871,503.168C365.345,502.051 340.186,496.987 323.942,493.944C305.53,490.495 286.46,488.288 268.738,481.988L273.902,482.16ZM306.262,450.652C305.276,450.741 304.299,450.882 303.335,451.087C302.833,451.193 299.842,451.595 298.447,452.125L296.033,452.58C296.346,452.654 296.677,452.743 296.922,452.732C297.2,452.72 297.478,452.708 297.757,452.697C297.963,452.951 299.479,452.993 299.615,453.001C301.727,453.128 303.85,453.119 305.965,453.17C311.506,453.301 317.116,453.377 322.566,454.498L339.096,454.73C339.095,454.6 335.355,454.12 332.671,453.78C330.818,453.546 329.661,452.954 324.74,452.319C323.547,452.165 322.332,451.983 321.103,451.795C324.741,451.629 328.377,451.413 332.004,451.079C350.659,449.363 369.548,447.396 388.283,447.059C410.935,446.652 433.701,448.222 456.269,450.003C462.8,450.519 469.276,451.308 475.771,451.948C473.266,452.233 470.864,452.529 468.888,452.9C467.287,453.201 459.108,453.79 459.287,454.977C459.39,455.658 469.529,455.011 470.13,454.97C476.308,454.539 482.48,454.065 488.67,453.852C491.676,453.749 494.683,453.675 497.69,453.602C498.168,453.591 500.219,453.796 500.552,453.334C500.651,453.197 500.107,453.035 499.902,452.979C499.905,452.974 499.907,452.969 499.908,452.964C499.941,452.764 497.662,452.401 497.509,452.372C494.853,451.857 492.195,451.354 489.538,450.84C478.324,448.67 468.415,445.58 457.171,443.555C440.393,440.532 421.997,438.277 404.889,437.907C372.156,437.201 340.605,443.757 308.786,450.176L306.262,450.652ZM296.033,452.58L295.068,452.762C295.116,452.392 295.556,452.468 296.033,452.58ZM266.069,430.005C266.071,429.944 267.235,430.061 267.304,430.066C268.774,430.185 270.247,430.277 271.717,430.4C275.524,430.716 279.349,430.897 283.167,430.949C294.375,431.104 305.495,429.451 317.454,427.059C335.609,423.428 350.618,419.12 366.626,413.469C370.696,412.033 383.251,407.164 383.646,407.533C383.735,407.616 380.318,409.385 380.114,409.481C377.6,410.668 375.095,411.88 372.554,413.008C364.883,416.415 357.095,419.396 349.126,422.031C340.05,425.032 330.994,427.863 321.576,429.596C307.325,432.218 292.271,433.826 277.811,432.356L266.069,430.005ZM535.655,430.005C535.653,429.944 534.489,430.061 534.421,430.066C532.95,430.185 531.478,430.277 530.007,430.4C526.201,430.716 522.376,430.897 518.557,430.949C507.35,431.104 496.23,429.451 484.27,427.059C466.116,423.428 451.106,419.12 435.098,413.469C431.029,412.033 418.474,407.164 418.079,407.533C417.99,407.616 421.406,409.385 421.611,409.481C424.125,410.668 426.63,411.88 429.17,413.008C436.842,416.415 444.63,419.396 452.598,422.031C461.674,425.032 470.73,427.863 480.149,429.596C494.4,432.218 509.454,433.826 523.914,432.356L535.655,430.005Z" style="fill:rgb(56,25,57);fill-opacity:0.5;"/>
                <g id="Strokes">
                    <path d="M260.762,422.824C260.342,423.03 270.099,425.276 273.027,425.615C281.383,426.582 290.205,426.101 298.524,424.887C324.828,421.048 349.749,411.114 370.965,402.037C381.733,397.429 392.888,394.314 404.697,395.537C418.336,396.95 431.638,403.565 444.293,408.466C474.372,420.113 510.062,433.59 541.908,420.097" style="fill:none;stroke:black;stroke-width:2.1px;"/>
                    <path d="M262.277,428.689C262.648,428.055 263.651,429.213 264.352,429.434C265.733,429.868 267.162,430.215 268.573,430.534C272.875,431.505 277.289,431.919 281.682,432.186C295.243,433.01 309.139,431.712 322.51,429.449C336.242,427.125 349.451,422.708 362.337,417.403C376.082,411.745 387.254,404.009 402.589,405.436C421.506,407.197 442.432,419.541 460.297,425.23C486.753,433.655 513.89,436.31 539.459,428.22" style="fill:none;stroke:black;stroke-width:2.1px;"/>
                    <path d="M265.704,454.939C264.719,454.55 267.786,455.357 268.843,455.416C271.076,455.54 273.298,455.587 275.532,455.471C282.261,455.122 288.931,453.865 295.562,452.741C315.732,449.322 335.791,445.377 355.937,441.856C389.269,436.03 424.018,437.225 457.176,443.766C477.62,447.8 497.577,453.314 518.451,454.736C524.64,455.158 531.956,456.341 538.153,455.318" style="fill:none;stroke:black;stroke-width:2.1px;"/>
                    <path d="M293.738,453.118C294.459,452.643 297.068,453.232 297.861,453.269C301.698,453.446 305.537,453.585 309.376,453.728C323.07,454.235 336.752,453.915 350.448,454.084C388.216,454.552 425.978,454.72 463.749,454.686C477.243,454.674 490.868,453.102 504.346,453.557" style="fill:none;stroke:black;stroke-width:2.1px;"/>
                    <path d="M269.598,481.664C271.157,481.269 275.019,482.895 276.686,483.171C282.826,484.191 288.964,485.08 295.15,485.784C318.864,488.482 342.438,492.432 366.206,494.679C388.534,496.79 410.693,495.82 433.052,494.731C466.33,493.111 500.025,489.814 532.529,482.197" style="fill:none;stroke:black;stroke-width:2.1px;"/>
                    <path d="M281.396,509.827C280.302,510.09 283.382,510.884 284.352,511.454C286.202,512.541 288.101,513.558 289.99,514.576C295.733,517.674 301.591,520.573 307.466,523.41C325.024,531.89 343.142,539.051 361.734,544.919C422.045,563.955 466.759,534.8 519.306,510.713" style="fill:none;stroke:black;stroke-width:2.1px;"/>
                    <path d="M336.547,566.848C336.605,566.765 341.369,569.271 341.648,569.399C345.021,570.951 348.481,572.343 351.957,573.645C362.209,577.484 373.151,580.235 383.916,582.188C412.279,587.332 440.229,577.086 465.731,565.576" style="fill:none;stroke:black;stroke-width:2.1px;"/>
                </g>
                <path id="Pink" d="M400.188,355.743C402.535,353.979 405.07,352.451 407.444,351.055C422.018,342.488 437.837,335.96 453.381,329.4C473.896,320.743 494.974,312.955 516.588,307.521C528.429,304.545 541.632,301.47 553.825,304.168C570.021,307.752 577.915,321.217 578.147,337.103C578.458,358.467 571.627,383.385 561.511,402.352L556.838,406.673C558.654,412.186 557.031,420.545 556.669,426.142C555.561,443.297 553.343,460.97 548.293,477.443C545.885,485.302 541.919,497.514 531.973,498.135C524.657,498.593 530.214,486.603 530.932,483.908C535.043,468.494 535.837,451.72 537.652,435.908C538.142,431.638 538.806,427.383 539.175,423.1C539.25,422.221 539.921,419.393 538.873,418.836C536.893,417.784 531.738,420.247 529.608,420.489C522.076,421.346 514.089,421.282 506.564,420.45C476.714,417.151 450.909,405.775 419.001,395.004C412.805,392.913 408.451,391.203 402.151,390.905C401.543,390.88 400.888,390.86 400.188,390.86C399.488,390.861 398.834,390.88 398.225,390.905C391.925,391.203 387.571,392.913 381.375,395.004C349.467,405.775 323.662,417.151 293.812,420.45C286.288,421.282 278.3,421.346 270.768,420.489C268.638,420.247 263.483,417.784 261.503,418.836C260.456,419.393 261.126,422.221 261.201,423.1C261.57,427.383 262.235,431.638 262.725,435.908C264.539,451.72 265.333,468.494 269.444,483.908C270.162,486.603 275.719,498.593 268.404,498.135C258.458,497.514 254.492,485.302 252.083,477.443C247.034,460.97 244.815,443.297 243.707,426.142C243.345,420.545 241.722,412.186 243.538,406.673L238.865,402.352C228.749,383.385 221.918,358.467 222.229,337.103C222.461,321.217 230.355,307.752 246.551,304.168C258.744,301.47 271.947,304.545 283.788,307.521C305.402,312.955 326.48,320.743 346.995,329.4C362.539,335.96 378.358,342.488 392.932,351.055C395.307,352.451 397.841,353.979 400.188,355.743Z" style="fill:white;"/>
                <clipPath id="_clip2_boring_mask">
                    <path id="Pink1" d="M400.188,355.743C402.535,353.979 405.07,352.451 407.444,351.055C422.018,342.488 437.837,335.96 453.381,329.4C473.896,320.743 494.974,312.955 516.588,307.521C528.429,304.545 541.632,301.47 553.825,304.168C570.021,307.752 577.915,321.217 578.147,337.103C578.458,358.467 571.627,383.385 561.511,402.352L556.838,406.673C558.654,412.186 557.031,420.545 556.669,426.142C555.561,443.297 553.343,460.97 548.293,477.443C545.885,485.302 541.919,497.514 531.973,498.135C524.657,498.593 530.214,486.603 530.932,483.908C535.043,468.494 535.837,451.72 537.652,435.908C538.142,431.638 538.806,427.383 539.175,423.1C539.25,422.221 539.921,419.393 538.873,418.836C536.893,417.784 531.738,420.247 529.608,420.489C522.076,421.346 514.089,421.282 506.564,420.45C476.714,417.151 450.909,405.775 419.001,395.004C412.805,392.913 408.451,391.203 402.151,390.905C401.543,390.88 400.888,390.86 400.188,390.86C399.488,390.861 398.834,390.88 398.225,390.905C391.925,391.203 387.571,392.913 381.375,395.004C349.467,405.775 323.662,417.151 293.812,420.45C286.288,421.282 278.3,421.346 270.768,420.489C268.638,420.247 263.483,417.784 261.503,418.836C260.456,419.393 261.126,422.221 261.201,423.1C261.57,427.383 262.235,431.638 262.725,435.908C264.539,451.72 265.333,468.494 269.444,483.908C270.162,486.603 275.719,498.593 268.404,498.135C258.458,497.514 254.492,485.302 252.083,477.443C247.034,460.97 244.815,443.297 243.707,426.142C243.345,420.545 241.722,412.186 243.538,406.673L238.865,402.352C228.749,383.385 221.918,358.467 222.229,337.103C222.461,321.217 230.355,307.752 246.551,304.168C258.744,301.47 271.947,304.545 283.788,307.521C305.402,312.955 326.48,320.743 346.995,329.4C362.539,335.96 378.358,342.488 392.932,351.055C395.307,352.451 397.841,353.979 400.188,355.743Z"/>
                </clipPath>
                <g clip-path="url(#_clip2_boring_mask)">
                    <path d="M257.058,430.017C256.905,430.1 257.441,432.499 257.47,432.681C257.969,435.747 258.505,438.807 259.004,441.873C261.025,454.319 261.312,467.014 264.617,479.244" style="fill:none;stroke:black;stroke-width:2.1px;"/>
                    <path d="M542.739,433.059C543.034,433.718 542.278,435.801 542.161,436.493C541.627,439.641 541.298,442.849 540.935,446.021C539.412,459.304 537.624,469.454 534.381,482.427" style="fill:none;stroke:black;stroke-width:2.1px;"/>
                </g>
                <path id="Pink2" d="M400.188,355.743C402.535,353.979 405.07,352.451 407.444,351.055C422.018,342.488 437.837,335.96 453.381,329.4C473.896,320.743 494.974,312.955 516.588,307.521C528.429,304.545 541.632,301.47 553.825,304.168C570.021,307.752 577.915,321.217 578.147,337.103C578.458,358.467 571.627,383.385 561.511,402.352L556.838,406.673C558.654,412.186 557.031,420.545 556.669,426.142C555.561,443.297 553.343,460.97 548.293,477.443C545.885,485.302 541.919,497.514 531.973,498.135C524.657,498.593 530.214,486.603 530.932,483.908C535.043,468.494 535.837,451.72 537.652,435.908C538.142,431.638 538.806,427.383 539.175,423.1C539.25,422.221 539.921,419.393 538.873,418.836C536.893,417.784 531.738,420.247 529.608,420.489C522.076,421.346 514.089,421.282 506.564,420.45C476.714,417.151 450.909,405.775 419.001,395.004C412.805,392.913 408.451,391.203 402.151,390.905C401.543,390.88 400.888,390.86 400.188,390.86C399.488,390.861 398.834,390.88 398.225,390.905C391.925,391.203 387.571,392.913 381.375,395.004C349.467,405.775 323.662,417.151 293.812,420.45C286.288,421.282 278.3,421.346 270.768,420.489C268.638,420.247 263.483,417.784 261.503,418.836C260.456,419.393 261.126,422.221 261.201,423.1C261.57,427.383 262.235,431.638 262.725,435.908C264.539,451.72 265.333,468.494 269.444,483.908C270.162,486.603 275.719,498.593 268.404,498.135C258.458,497.514 254.492,485.302 252.083,477.443C247.034,460.97 244.815,443.297 243.707,426.142C243.345,420.545 241.722,412.186 243.538,406.673L238.865,402.352C228.749,383.385 221.918,358.467 222.229,337.103C222.461,321.217 230.355,307.752 246.551,304.168C258.744,301.47 271.947,304.545 283.788,307.521C305.402,312.955 326.48,320.743 346.995,329.4C362.539,335.96 378.358,342.488 392.932,351.055C395.307,352.451 397.841,353.979 400.188,355.743Z" style="fill:none;stroke:black;stroke-width:2.1px;"/>
            </g>
            <path d="M400.309,384.153C411.566,384.153 425.029,389.542 434.082,392.698C458.347,401.156 481.601,413.412 507.674,415.19C516.539,415.794 528.81,416.054 537.07,411.994C542.041,409.551 543.196,396.689 544.678,391.959C550.936,371.995 551.63,351.723 559.587,332.193L561.912,327.794C562.582,326.771 561.303,334.526 560.79,337.466C559.506,344.823 558.231,350.369 557.174,357.694C553.964,379.932 548.551,400.392 543.995,422.373C543.641,424.076 543.255,426.173 542.958,427.888C542.743,429.132 541.983,434.939 542.986,432.25C544.028,429.452 545.416,424.765 546.481,422.366C547.124,420.916 547.584,416.517 548.109,418.073C548.666,419.724 548.301,425.304 548.195,426.912C547.642,435.278 546.9,443.021 545.025,451.185C536.672,487.563 517.219,517.134 490.525,543.006C470.469,562.445 449.692,579.921 424.595,592.577C418.243,595.781 408.404,598.732 400.309,598.732C392.213,598.732 382.374,595.781 376.022,592.577C350.925,579.921 330.148,562.445 310.092,543.006C283.398,517.134 263.945,487.563 255.592,451.185C253.717,443.021 252.205,434.816 251.651,426.451C251.545,424.842 251.511,420.459 251.708,418.727C251.94,416.681 252.995,421.519 253.639,422.968C254.703,425.368 255.923,429.605 257.115,432.343C257.378,432.948 256.893,429.382 256.678,428.138C256.381,426.423 255.841,424.759 255.572,423.04C252.319,402.261 247.6,381.661 242.553,358.086C241.004,350.849 239.978,342.481 238.718,335.19C238.293,332.729 238.785,331.294 238.347,328.836C238.133,327.631 240.642,332.961 240.642,332.961C247.278,353.218 249.339,372.016 255.596,391.98C257.079,396.71 257.847,409.579 262.818,412.022C271.079,416.083 284.078,415.794 292.943,415.19C319.016,413.412 342.27,401.156 366.535,392.698C375.589,389.542 389.051,384.153 400.309,384.153Z" style="fill:none;stroke:black;stroke-width:2.1px;"/>
        </g>
    </g>
</svg>