<svg viewBox="0 0 800 800" xmlns="http://www.w3.org/2000/svg">
  <g id="Punk-emotions" transform="matrix(0.388951,0,0,0.388951,2.34032,2.21244)">
    <g id="Disgusted">
      <g id="Eyebrows">
        <path
          d="M1085.22,900.466C1091.44,894.685 1108.07,883.426 1113.7,878.01C1120.58,871.396 1127.35,863.995 1132.76,856.116C1140.04,845.507 1147.55,832.795 1158.39,825.363C1161.41,823.295 1165.16,822.836 1168.65,821.975C1176.44,820.051 1184.09,819.309 1192.03,818.374C1197.52,817.726 1218.12,811.18 1223.58,809.286C1228.26,807.667 1238.01,802.911 1242.52,800.894C1242.87,800.74 1209.02,802.89 1198.42,804.209C1183.52,806.064 1169.23,811.131 1154.24,812.829C1144.49,813.934 1134.89,816.144 1125.15,817.182C1121.22,817.601 1117.78,816.206 1114.01,816.441C1110.18,816.68 1105.99,819.418 1103.18,821.851C1098.11,826.244 1095.65,832.998 1092.62,838.796C1084.82,853.771 1079.03,881.733 1085.22,900.466ZM968.349,900.466C962.128,894.685 945.503,883.426 939.869,878.01C932.987,871.396 926.222,863.995 920.815,856.116C913.534,845.507 906.019,832.795 895.18,825.363C892.164,823.295 888.413,822.836 884.923,821.975C877.128,820.051 869.478,819.309 861.545,818.374C856.054,817.726 835.454,811.18 829.988,809.286C825.316,807.667 815.56,802.911 811.048,800.894C810.703,800.74 844.55,802.89 855.148,804.209C870.056,806.064 884.347,811.131 899.334,812.829C909.081,813.934 918.679,816.144 928.416,817.182C932.352,817.601 935.793,816.206 939.561,816.441C943.388,816.68 947.587,819.418 950.393,821.851C955.459,826.244 957.926,832.998 960.949,838.796C968.756,853.771 974.546,881.733 968.349,900.466Z"
          style="fill: rgb(56, 25, 57); fill-opacity: 0.5"
        />
        <path
          d="M1103.39,785.909C1170.13,777.408 1275.18,757.355 1299.43,760.422C1322.38,763.323 1366.85,786.675 1369.68,790.301C1372.76,794.242 1297.18,795.22 1270.53,797.004C1253.94,798.114 1230.5,802.54 1192.02,808.358C1183.27,809.68 1160.95,815.774 1144.74,818.38C1131.95,820.435 1122.48,818.587 1121.68,818.435C1109.66,816.15 1100.87,786.23 1103.39,785.909Z"
          style="fill: rgb(var(--color_eyebrows_r, 72), var(--color_eyebrows_g, 46), var(--color_eyebrows_b, 31))"
        />
        <clipPath id="_clip1_punk_disgusted_eyes">
          <path
            d="M1103.39,785.909C1170.13,777.408 1275.18,757.355 1299.43,760.422C1322.38,763.323 1366.85,786.675 1369.68,790.301C1372.76,794.242 1297.18,795.22 1270.53,797.004C1253.94,798.114 1230.5,802.54 1192.02,808.358C1183.27,809.68 1160.95,815.774 1144.74,818.38C1131.95,820.435 1122.48,818.587 1121.68,818.435C1109.66,816.15 1100.87,786.23 1103.39,785.909Z"
          />
        </clipPath>
        <g clip-path="url(#_clip1_punk_disgusted_eyes">
          <path
            d="M1105,794.639C1105,794.639 1174.79,781.927 1181.17,781.022C1202.91,777.938 1210.43,776.569 1231.75,774.463C1253.07,772.357 1308.87,765.096 1321.23,767.413C1331.74,769.383 1305.75,758.848 1305.17,758.465C1304.59,758.081 1116.94,783.065 1115.2,783.272C1114.31,783.377 1106.08,784.051 1103.72,786.909C1101.43,789.68 1105,794.639 1105,794.639Z"
            style="fill: rgb(calc(var(--color_eyebrows_r, 72) + 46), calc(var(--color_eyebrows_g, 46) + 75), calc(var(--color_eyebrows_b, 31) + 16))"
          />
          <path
            d="M1108.17,800.659C1108.17,800.659 1118.63,807.227 1164.89,800.816C1215.67,793.778 1342.21,776.967 1352.13,781.337C1371.96,790.066 1366.29,792.239 1367.25,792.087C1367.78,792.003 1313.01,792.826 1254.87,798.762C1207.49,803.6 1161.55,815.069 1133.12,819.718C1112.87,823.029 1108.17,800.659 1108.17,800.659Z"
            style="fill: rgb(calc(var(--color_eyebrows_r, 72) - 80), calc(var(--color_eyebrows_g, 46) - 13), calc(var(--color_eyebrows_b, 31) + 7))"
          />
        </g>
        <path
          d="M1103.39,785.909C1170.13,777.408 1275.18,757.355 1299.43,760.422C1322.38,763.323 1366.85,786.675 1369.68,790.301C1372.76,794.242 1297.18,795.22 1270.53,797.004C1253.94,798.114 1230.5,802.54 1192.02,808.358C1183.27,809.68 1160.95,815.774 1144.74,818.38C1131.95,820.435 1122.48,818.587 1121.68,818.435C1109.66,816.15 1100.87,786.23 1103.39,785.909Z"
          style="fill: none; stroke: rgb(5, 0, 0); stroke-width: 5.4px"
        />
        <g transform="matrix(-1,0,0,1,2053.57,0)">
          <path
            d="M1103.39,785.909C1170.13,777.408 1275.18,757.355 1299.43,760.422C1322.38,763.323 1366.85,786.675 1369.68,790.301C1372.76,794.242 1297.18,795.22 1270.53,797.004C1253.94,798.114 1230.5,802.54 1192.02,808.358C1183.27,809.68 1160.95,815.774 1144.74,818.38C1131.95,820.435 1122.48,818.587 1121.68,818.435C1109.66,816.15 1100.87,786.23 1103.39,785.909Z"
            style="fill: rgb(var(--color_eyebrows_r, 72), var(--color_eyebrows_g, 46), var(--color_eyebrows_b, 31))"
          />
          <clipPath id="_clip2_punk_disgusted_eyes">
            <path
              d="M1103.39,785.909C1170.13,777.408 1275.18,757.355 1299.43,760.422C1322.38,763.323 1366.85,786.675 1369.68,790.301C1372.76,794.242 1297.18,795.22 1270.53,797.004C1253.94,798.114 1230.5,802.54 1192.02,808.358C1183.27,809.68 1160.95,815.774 1144.74,818.38C1131.95,820.435 1122.48,818.587 1121.68,818.435C1109.66,816.15 1100.87,786.23 1103.39,785.909Z"
            />
          </clipPath>
          <g clip-path="url(#_clip2_punk_disgusted_eyes)">
            <path
              d="M1105,794.639C1105,794.639 1174.79,781.927 1181.17,781.022C1202.91,777.938 1210.43,776.569 1231.75,774.463C1253.07,772.357 1308.87,765.096 1321.23,767.413C1331.74,769.383 1305.75,758.848 1305.17,758.465C1304.59,758.081 1116.94,783.065 1115.2,783.272C1114.31,783.377 1106.08,784.051 1103.72,786.909C1101.43,789.68 1105,794.639 1105,794.639Z"
              style="fill: rgb(calc(var(--color_eyebrows_r, 72) + 46), calc(var(--color_eyebrows_g, 46) + 75), calc(var(--color_eyebrows_b, 31) + 16))"
            />
            <path
              d="M1108.17,800.659C1108.17,800.659 1118.63,807.227 1164.89,800.816C1215.67,793.778 1342.21,776.967 1352.13,781.337C1371.96,790.066 1366.29,792.239 1367.25,792.087C1367.78,792.003 1313.01,792.826 1254.87,798.762C1207.49,803.6 1161.55,815.069 1133.12,819.718C1112.87,823.029 1108.17,800.659 1108.17,800.659Z"
              style="fill: rgb(calc(var(--color_eyebrows_r, 72) - 80), calc(var(--color_eyebrows_g, 46) - 13), calc(var(--color_eyebrows_b, 31) + 7))"
            />
          </g>
          <path
            d="M1103.39,785.909C1170.13,777.408 1275.18,757.355 1299.43,760.422C1322.38,763.323 1366.85,786.675 1369.68,790.301C1372.76,794.242 1297.18,795.22 1270.53,797.004C1253.94,798.114 1230.5,802.54 1192.02,808.358C1183.27,809.68 1160.95,815.774 1144.74,818.38C1131.95,820.435 1122.48,818.587 1121.68,818.435C1109.66,816.15 1100.87,786.23 1103.39,785.909Z"
            style="fill: none; stroke: rgb(5, 0, 0); stroke-width: 5.4px"
          />
        </g>
        <path
          d="M1077.46,809.285C1077.43,809.287 1075.92,806.752 1075.82,806.595C1073.93,803.628 1072.12,800.604 1070.4,797.539C1068.29,793.788 1065.3,790.114 1064.06,785.94C1062.78,781.587 1063.53,776.076 1063.54,771.587C1063.55,764.531 1062.92,757.358 1063.24,750.322"
          style="fill: none; stroke: black; stroke-width: 5.29px"
        />
        <g transform="matrix(-1,0,0,1,2053.57,0)">
          <path
            d="M1077.46,809.285C1077.43,809.287 1075.92,806.752 1075.82,806.595C1073.93,803.628 1072.12,800.604 1070.4,797.539C1068.29,793.788 1065.3,790.114 1064.06,785.94C1062.78,781.587 1063.53,776.076 1063.54,771.587C1063.55,764.531 1062.92,757.358 1063.24,750.322"
            style="fill: none; stroke: black; stroke-width: 5.29px"
          />
        </g>
      </g>
      <g id="Eyes">
        <path
          d="M1140.65,874.084C1140.97,873.998 1140.09,874.494 1139.96,874.801C1139.63,875.586 1139.46,876.456 1139.31,877.289C1138.85,879.789 1138.82,882.478 1139.6,884.928C1141.76,891.727 1149.14,897.507 1155.97,898.798C1165.97,900.687 1176.8,900.621 1186.96,901.161C1215.77,902.694 1244.7,901.5 1273.51,903.349C1285.13,904.095 1297.2,906.771 1308.88,905.72C1313.9,905.267 1318.51,903.654 1323.29,902.184C1325.73,901.435 1328.35,901.102 1330.65,899.974C1335.44,897.635 1338.89,892.632 1343.48,889.774C1348.22,886.818 1353.06,884.007 1357.82,881.087C1358.73,880.531 1362.33,879.011 1362.26,877.638C1362.2,876.663 1360.12,875.979 1359.44,875.668C1356.22,874.188 1352.88,872.925 1349.61,871.547C1336.05,865.836 1324.17,857.065 1310.13,852.354C1298.17,848.34 1285.75,846.391 1273.17,845.895C1263.38,845.51 1253.55,845.687 1243.76,845.642C1228.91,845.576 1213.95,845.445 1199.14,846.613C1191.8,847.192 1184.3,847.641 1177.21,849.796C1169.99,851.988 1163.35,855.894 1157.12,860.071C1150.55,864.475 1142.11,870.114 1138.71,877.665C1138.29,878.596 1138.5,879.524 1138.21,880.464"
          style="fill: white"
        />
        <clipPath id="_clip3_punk_disgusted_eyes">
          <path
            d="M1140.65,874.084C1140.97,873.998 1140.09,874.494 1139.96,874.801C1139.63,875.586 1139.46,876.456 1139.31,877.289C1138.85,879.789 1138.82,882.478 1139.6,884.928C1141.76,891.727 1149.14,897.507 1155.97,898.798C1165.97,900.687 1176.8,900.621 1186.96,901.161C1215.77,902.694 1244.7,901.5 1273.51,903.349C1285.13,904.095 1297.2,906.771 1308.88,905.72C1313.9,905.267 1318.51,903.654 1323.29,902.184C1325.73,901.435 1328.35,901.102 1330.65,899.974C1335.44,897.635 1338.89,892.632 1343.48,889.774C1348.22,886.818 1353.06,884.007 1357.82,881.087C1358.73,880.531 1362.33,879.011 1362.26,877.638C1362.2,876.663 1360.12,875.979 1359.44,875.668C1356.22,874.188 1352.88,872.925 1349.61,871.547C1336.05,865.836 1324.17,857.065 1310.13,852.354C1298.17,848.34 1285.75,846.391 1273.17,845.895C1263.38,845.51 1253.55,845.687 1243.76,845.642C1228.91,845.576 1213.95,845.445 1199.14,846.613C1191.8,847.192 1184.3,847.641 1177.21,849.796C1169.99,851.988 1163.35,855.894 1157.12,860.071C1150.55,864.475 1142.11,870.114 1138.71,877.665C1138.29,878.596 1138.5,879.524 1138.21,880.464"
          />
        </clipPath>
        <g clip-path="url(#_clip3_punk_disgusted_eyes)">
          <path
            d="M1139.6,875.784C1138.82,876.271 1137.29,883.417 1138.62,884.119C1140.3,885.004 1144.1,883.373 1145.65,882.888C1158.12,878.994 1170.36,873.418 1183.36,871.559C1188.02,870.892 1292.32,872.986 1296.36,873.059C1298.46,873.097 1311.06,874.832 1324.57,877.758C1336.6,880.364 1346.72,885.977 1347.72,885.643C1348.98,885.223 1353.81,880.544 1354.81,879.72C1355.55,879.102 1346.92,872.976 1343.81,871.66C1329.84,865.74 1320.07,855.045 1305.78,849.926C1294.91,846.027 1279.46,847.519 1267.95,846.071C1248.79,843.658 1229.13,846.034 1210.04,848.124C1202.25,848.977 1194.47,849.987 1186.66,850.678C1181.31,851.152 1175.71,851.163 1170.54,852.81C1164.19,854.833 1159.38,859.503 1154.33,863.615C1148.61,868.269 1144.18,869.963 1139.6,875.784Z"
            style="fill: rgb(56, 25, 57); fill-opacity: 0.5"
          />
          <g transform="matrix(1.03321,0,0,1.03321,263.987,-219.045)">
            <circle cx="941.272" cy="1053.91" r="59.067" style="fill: rgb(var(--color_eyes_r, 99), var(--color_eyes_g, 65), var(--color_eyes_b, 28))" />
            <clipPath id="_clip4_punk_disgusted_eyes">
              <circle cx="941.272" cy="1053.91" r="59.067" />
            </clipPath>
            <g clip-path="url(#_clip4_punk_disgusted_eyes)">
              <g transform="matrix(1.71444,0,0,1.71444,-865.48,-414.276)">
                <circle cx="1053.34" cy="859.838" r="14.982" style="fill: rgb(calc(var(--color_eyes_r, 99) + 44), calc(var(--color_eyes_g, 65) + 80), calc(var(--color_eyes_b, 28) + 9))" />
              </g>
              <g transform="matrix(0.967859,0,0,0.967859,-255.503,212.005)">
                <path
                  d="M1229.7,845.317C1223.57,845.67 1179.13,847.067 1178.87,847.591C1176.39,852.649 1176.64,863.839 1174.87,869.19C1174.75,869.552 1172.92,874.606 1173.47,874.873C1173.79,875.023 1174.87,874.456 1175.2,874.372C1176.7,873.984 1178.23,873.975 1179.77,873.801C1185.74,873.126 1191.69,872.487 1197.7,872.268C1210.54,871.8 1255.15,872.026 1258.87,871.767C1271.46,870.889 1279.45,871.532 1289.68,872.412C1292.07,872.618 1294.48,872.788 1296.87,872.944C1297.65,872.995 1299,873.184 1299.16,872.116C1299.51,869.87 1298.17,867.024 1297.76,864.835C1297.06,861.035 1297.62,852.163 1295.1,849.068C1291.82,845.048 1235.11,845.006 1229.7,845.317Z"
                  style="fill: rgb(calc(var(--color_eyes_r, 99) - 80), calc(var(--color_eyes_g, 65) - 14), calc(var(--color_eyes_b, 28) + 8))"
                />
              </g>
              <g transform="matrix(1.3662,0,0,1.3662,-498.634,-117.005)">
                <circle cx="1053.34" cy="859.838" r="14.982" />
              </g>
              <g transform="matrix(0.906865,0,0,0.878451,36.9989,217.968)">
                <circle cx="1036.23" cy="945.855" r="12.183" style="fill: white" />
              </g>
            </g>
            <circle cx="941.272" cy="1053.91" r="59.067" style="fill: none; stroke: black; stroke-width: 5.23px" />
          </g>
        </g>
        <g transform="matrix(-1,0,0,1,2053.57,0)">
          <path
            d="M1140.65,874.084C1140.97,873.998 1140.09,874.494 1139.96,874.801C1139.63,875.586 1139.46,876.456 1139.31,877.289C1138.85,879.789 1138.82,882.478 1139.6,884.928C1141.76,891.727 1149.14,897.507 1155.97,898.798C1165.97,900.687 1176.8,900.621 1186.96,901.161C1215.77,902.694 1244.7,901.5 1273.51,903.349C1285.13,904.095 1297.2,906.771 1308.88,905.72C1313.9,905.267 1318.51,903.654 1323.29,902.184C1325.73,901.435 1328.35,901.102 1330.65,899.974C1335.44,897.635 1338.89,892.632 1343.48,889.774C1348.22,886.818 1353.06,884.007 1357.82,881.087C1358.73,880.531 1362.33,879.011 1362.26,877.638C1362.2,876.663 1360.12,875.979 1359.44,875.668C1356.22,874.188 1352.88,872.925 1349.61,871.547C1336.05,865.836 1324.17,857.065 1310.13,852.354C1298.17,848.34 1285.75,846.391 1273.17,845.895C1263.38,845.51 1253.55,845.687 1243.76,845.642C1228.91,845.576 1213.95,845.445 1199.14,846.613C1191.8,847.192 1184.3,847.641 1177.21,849.796C1169.99,851.988 1163.35,855.894 1157.12,860.071C1150.55,864.475 1142.11,870.114 1138.71,877.665C1138.29,878.596 1138.5,879.524 1138.21,880.464"
            style="fill: white"
          />
          <clipPath id="_clip5_punk_disgusted_eyes">
            <path
              d="M1140.65,874.084C1140.97,873.998 1140.09,874.494 1139.96,874.801C1139.63,875.586 1139.46,876.456 1139.31,877.289C1138.85,879.789 1138.82,882.478 1139.6,884.928C1141.76,891.727 1149.14,897.507 1155.97,898.798C1165.97,900.687 1176.8,900.621 1186.96,901.161C1215.77,902.694 1244.7,901.5 1273.51,903.349C1285.13,904.095 1297.2,906.771 1308.88,905.72C1313.9,905.267 1318.51,903.654 1323.29,902.184C1325.73,901.435 1328.35,901.102 1330.65,899.974C1335.44,897.635 1338.89,892.632 1343.48,889.774C1348.22,886.818 1353.06,884.007 1357.82,881.087C1358.73,880.531 1362.33,879.011 1362.26,877.638C1362.2,876.663 1360.12,875.979 1359.44,875.668C1356.22,874.188 1352.88,872.925 1349.61,871.547C1336.05,865.836 1324.17,857.065 1310.13,852.354C1298.17,848.34 1285.75,846.391 1273.17,845.895C1263.38,845.51 1253.55,845.687 1243.76,845.642C1228.91,845.576 1213.95,845.445 1199.14,846.613C1191.8,847.192 1184.3,847.641 1177.21,849.796C1169.99,851.988 1163.35,855.894 1157.12,860.071C1150.55,864.475 1142.11,870.114 1138.71,877.665C1138.29,878.596 1138.5,879.524 1138.21,880.464"
            />
          </clipPath>
          <g clip-path="url(#_clip5_punk_disgusted_eyes)">
            <path
              d="M1139.6,875.784C1138.82,876.271 1137.29,883.417 1138.62,884.119C1140.3,885.004 1144.1,883.373 1145.65,882.888C1158.12,878.994 1170.36,873.418 1183.36,871.559C1188.02,870.892 1292.32,872.986 1296.36,873.059C1298.46,873.097 1311.06,874.832 1324.57,877.758C1336.6,880.364 1346.72,885.977 1347.72,885.643C1348.98,885.223 1353.81,880.544 1354.81,879.72C1355.55,879.102 1346.92,872.976 1343.81,871.66C1329.84,865.74 1320.07,855.045 1305.78,849.926C1294.91,846.027 1279.46,847.519 1267.95,846.071C1248.79,843.658 1229.13,846.034 1210.04,848.124C1202.25,848.977 1194.47,849.987 1186.66,850.678C1181.31,851.152 1175.71,851.163 1170.54,852.81C1164.19,854.833 1159.38,859.503 1154.33,863.615C1148.61,868.269 1144.18,869.963 1139.6,875.784Z"
              style="fill: rgb(56, 25, 57); fill-opacity: 0.5"
            />
            <g transform="matrix(1.03321,0,0,1.03321,263.987,-219.045)">
              <circle cx="941.272" cy="1053.91" r="59.067" style="fill: rgb(var(--color_eyes_r, 99), var(--color_eyes_g, 65), var(--color_eyes_b, 28))" />
              <clipPath id="_clip6_punk_disgusted_eyes">
                <circle cx="941.272" cy="1053.91" r="59.067" />
              </clipPath>
              <g clip-path="url(#_clip6_punk_disgusted_eyes)">
                <g transform="matrix(1.71444,0,0,1.71444,-865.48,-414.276)">
                  <circle cx="1053.34" cy="859.838" r="14.982" style="fill: rgb(calc(var(--color_eyes_r, 99) + 44), calc(var(--color_eyes_g, 65) + 80), calc(var(--color_eyes_b, 28) + 9))" />
                </g>
                <g transform="matrix(0.967859,0,0,0.967859,-255.503,212.005)">
                  <path
                    d="M1229.7,845.317C1223.57,845.67 1179.13,847.067 1178.87,847.591C1176.39,852.649 1176.64,863.839 1174.87,869.19C1174.75,869.552 1172.92,874.606 1173.47,874.873C1173.79,875.023 1174.87,874.456 1175.2,874.372C1176.7,873.984 1178.23,873.975 1179.77,873.801C1185.74,873.126 1191.69,872.487 1197.7,872.268C1210.54,871.8 1255.15,872.026 1258.87,871.767C1271.46,870.889 1279.45,871.532 1289.68,872.412C1292.07,872.618 1294.48,872.788 1296.87,872.944C1297.65,872.995 1299,873.184 1299.16,872.116C1299.51,869.87 1298.17,867.024 1297.76,864.835C1297.06,861.035 1297.62,852.163 1295.1,849.068C1291.82,845.048 1235.11,845.006 1229.7,845.317Z"
                    style="fill: rgb(calc(var(--color_eyes_r, 99) - 80), calc(var(--color_eyes_g, 65) - 14), calc(var(--color_eyes_b, 28) + 8))"
                  />
                </g>
                <g transform="matrix(1.3662,0,0,1.3662,-498.634,-117.005)">
                  <circle cx="1053.34" cy="859.838" r="14.982" />
                </g>
                <g transform="matrix(0.906865,0,0,0.878451,-35.7423,217.968)">
                  <circle cx="1036.23" cy="945.855" r="12.183" style="fill: white" />
                </g>
              </g>
              <circle cx="941.272" cy="1053.91" r="59.067" style="fill: none; stroke: black; stroke-width: 5.23px" />
            </g>
          </g>
        </g>
        <path
          d="M1146.14,857.865C1152.28,855.471 1159.59,850.961 1160.73,850.508C1161.88,850.054 1135.3,874.167 1135.16,876.76C1134.99,880.089 1135.56,882.225 1139.2,880.582C1142.84,878.939 1166.56,856.034 1182.48,851.72C1196.79,847.842 1290.57,847.085 1295.99,850.577C1303.82,855.615 1351.24,877.861 1350.78,880.152C1341.14,887.169 1330.6,895 1329.82,898.065C1329.19,900.54 1330.22,903.13 1333.23,901.994C1337.16,900.506 1369.16,879.743 1370.12,877.973C1370.84,876.617 1372.59,875.051 1370.2,873.23C1365.97,870 1319.24,838.788 1306.41,838.273C1287.75,837.525 1188.1,838.664 1169.31,843.251C1159.42,845.664 1151.02,850.66 1145.1,853.779C1142.84,854.97 1144.08,858.666 1146.14,857.865Z"
        />
        <g transform="matrix(-1,0,0,1,2053.57,0)">
          <path
            d="M1146.14,857.865C1152.28,855.471 1159.59,850.961 1160.73,850.508C1161.88,850.054 1135.3,874.167 1135.16,876.76C1134.99,880.089 1135.56,882.225 1139.2,880.582C1142.84,878.939 1166.56,856.034 1182.48,851.72C1196.79,847.842 1290.57,847.085 1295.99,850.577C1303.82,855.615 1351.24,877.861 1350.78,880.152C1341.14,887.169 1330.6,895 1329.82,898.065C1329.19,900.54 1330.22,903.13 1333.23,901.994C1337.16,900.506 1369.16,879.743 1370.12,877.973C1370.84,876.617 1372.59,875.051 1370.2,873.23C1365.97,870 1319.24,838.788 1306.41,838.273C1287.75,837.525 1188.1,838.664 1169.31,843.251C1159.42,845.664 1151.02,850.66 1145.1,853.779C1142.84,854.97 1144.08,858.666 1146.14,857.865Z"
          />
        </g>
        <path
          d="M1225.54,927.161C1222.63,927.776 1218.75,926.611 1215.76,926.627C1210.39,926.656 1205.21,927.675 1199.94,928.566C1198.7,928.774 1192.97,928.761 1192.16,929.808C1192.05,929.944 1202.1,937.682 1202.19,937.779C1203.7,939.406 1190.92,934.95 1187.65,934.279C1178.1,932.314 1169.23,928.943 1159.89,926.311C1156.78,925.434 1147.16,924.384 1143.97,923.925C1142.89,923.771 1156.89,921.275 1160.8,920.874C1164.62,920.484 1168.46,920.25 1172.3,920.157C1178.84,920 1185.38,920.059 1191.91,920.379C1201.84,920.866 1212.4,921.158 1221.98,924.114L1225.54,927.161ZM828.032,927.161C830.943,927.776 834.827,926.611 837.814,926.627C843.182,926.656 848.365,927.675 853.634,928.566C854.867,928.774 860.602,928.761 861.414,929.808C861.52,929.944 851.47,937.682 851.381,937.779C849.873,939.406 862.652,934.95 865.917,934.279C875.472,932.314 884.347,928.943 893.683,926.311C896.793,925.434 906.408,924.384 909.606,923.925C910.683,923.771 896.684,921.275 892.77,920.874C888.949,920.484 885.113,920.25 881.274,920.157C874.737,920 868.196,920.059 861.665,920.379C851.736,920.866 841.167,921.158 831.597,924.114L828.032,927.161Z"
          style="fill: rgb(56, 25, 57); fill-opacity: 0.5"
        />
        <path
          d="M1228.93,926.442C1227.88,926.777 1224.14,924.576 1223.14,924.232C1218.41,922.61 1213.64,921.383 1208.66,920.835C1190.67,918.853 1172.09,918.257 1154.1,920.517C1150.11,921.017 1137.87,922.796 1138.18,923.35C1138.41,923.762 1155.87,925.918 1174.59,929.845C1188.53,932.769 1200.13,938.113 1202.67,939.193"
          style="fill: none; stroke: black; stroke-width: 5.4px"
        />
        <g transform="matrix(-1,0,0,1,2053.57,0)">
          <path
            d="M1228.93,926.442C1227.88,926.777 1224.14,924.576 1223.14,924.232C1218.41,922.61 1213.64,921.383 1208.66,920.835C1190.67,918.853 1172.09,918.257 1154.1,920.517C1150.11,921.017 1137.87,922.796 1138.18,923.35C1138.41,923.762 1155.87,925.918 1174.59,929.845C1188.53,932.769 1200.13,938.113 1202.67,939.193"
            style="fill: none; stroke: black; stroke-width: 5.4px"
          />
        </g>
        <path
          d="M1160.96,899.119C1160.96,899.119 1263.4,895.263 1311.19,903.276C1319.65,904.695 1314.49,910.679 1313.78,910.604C1280.07,907.028 1256.89,902.895 1162.41,904.701C1157.62,904.793 1160.96,899.119 1160.96,899.119Z"
        />
        <g transform="matrix(-1,0,0,1,2054.93,0)">
          <path
            d="M1160.96,899.119C1160.96,899.119 1263.4,895.263 1311.19,903.276C1319.65,904.695 1314.49,910.679 1313.78,910.604C1280.07,907.028 1256.89,902.895 1162.41,904.701C1157.62,904.793 1160.96,899.119 1160.96,899.119Z"
          />
        </g>
        <path
          d="M1102.66,952.54C1102.81,952.736 1102.45,952.086 1102.33,951.865C1102.06,951.361 1101.79,950.859 1101.52,950.351C1100.81,948.969 1100.16,947.555 1099.47,946.16C1097.44,942.009 1095.64,937.713 1093.98,933.404C1088.97,920.461 1085.57,906.214 1083.9,892.477C1081.77,874.945 1083.62,858.334 1091.71,842.496C1095,836.05 1098.52,829.49 1102.61,823.508C1102.87,823.124 1106.9,818.641 1106.32,817.946"
          style="fill: none; stroke: black; stroke-width: 5.4px"
        />
        <g transform="matrix(-1,0,0,1,2053.57,0)">
          <path
            d="M1102.66,952.54C1102.81,952.736 1102.45,952.086 1102.33,951.865C1102.06,951.361 1101.79,950.859 1101.52,950.351C1100.81,948.969 1100.16,947.555 1099.47,946.16C1097.44,942.009 1095.64,937.713 1093.98,933.404C1088.97,920.461 1085.57,906.214 1083.9,892.477C1081.77,874.945 1083.62,858.334 1091.71,842.496C1095,836.05 1098.52,829.49 1102.61,823.508C1102.87,823.124 1106.9,818.641 1106.32,817.946"
            style="fill: none; stroke: black; stroke-width: 5.4px"
          />
        </g>
        <path
          d="M1134.39,840.193C1139.28,836.515 1156.37,823.666 1157.46,823.26C1159.84,822.376 1177.83,820.772 1183.86,820.192C1208.97,817.778 1234.33,817.317 1259.57,817.375C1285.71,817.434 1312.7,818.383 1337.09,828.979"
          style="fill: none; stroke: black; stroke-width: 5.4px"
        />
        <g transform="matrix(-1,0,0,1,2053.57,0)">
          <path
            d="M1134.39,840.193C1139.28,836.515 1156.37,823.666 1157.46,823.26C1159.84,822.376 1177.83,820.772 1183.86,820.192C1208.97,817.778 1234.33,817.317 1259.57,817.375C1285.71,817.434 1312.7,818.383 1337.09,828.979"
            style="fill: none; stroke: black; stroke-width: 5.4px"
          />
        </g>
      </g>
    </g>
  </g>
</svg>