<svg width="100%" height="100%" viewBox="0 0 800 800" version="1.1"
    xmlns="http://www.w3.org/2000/svg" style="fill-rule:evenodd;clip-rule:evenodd;stroke-linecap:round;stroke-linejoin:round;stroke-miterlimit:1.5;">
    <g id="hairstyles-back">
        <g id="buns-hair-hat-back">
            <g>
                <path d="M283.716,564.487C289.715,559.601 299.957,559.198 306.789,562.158C309.48,563.325 311.978,564.836 314.245,566.699C314.443,566.86 317.468,569.59 317.499,569.559C317.87,569.188 316.633,566.408 316.506,566.024C315.35,562.51 313.887,559.105 310.517,557.374C303.634,553.84 292.07,556.119 286.248,561.109L283.716,564.487Z" style="fill: rgb(var(--color_hairs_r, 38), var(--color_hairs_g, 183), var(--color_hairs_b, 200))"/>
                <clipPath id="_clip1_hair_5_hat">
                    <path d="M283.716,564.487C289.715,559.601 299.957,559.198 306.789,562.158C309.48,563.325 311.978,564.836 314.245,566.699C314.443,566.86 317.468,569.59 317.499,569.559C317.87,569.188 316.633,566.408 316.506,566.024C315.35,562.51 313.887,559.105 310.517,557.374C303.634,553.84 292.07,556.119 286.248,561.109L283.716,564.487Z"/>
                </clipPath>
                <g clip-path="url(#_clip1_hair_5_hat)">
                    <path d="M298.967,553.724C298.822,553.565 299.756,554.655 299.999,554.862C300.881,555.618 301.887,556.198 302.767,556.94C305.078,558.89 305.788,562.271 308.196,564.01C308.566,564.277 318.693,569.126 319.034,568.688C322.208,564.603 322.193,560.224 322.008,559.858C320.23,556.339 305.922,553.279 301.594,552.447" style="fill: rgb(calc(var(--color_hairs_r, 38) + 53), calc(var(--color_hairs_g, 183) - 90), calc(var(--color_hairs_b, 200) - 30))"/>
                </g>
                <path d="M283.716,564.487C289.715,559.601 299.957,559.198 306.789,562.158C309.48,563.325 311.978,564.836 314.245,566.699C314.443,566.86 317.468,569.59 317.499,569.559C317.87,569.188 316.633,566.408 316.506,566.024C315.35,562.51 313.887,559.105 310.517,557.374C303.634,553.84 292.07,556.119 286.248,561.109L283.716,564.487Z" style="fill:none;stroke:black;stroke-width:2.1px;"/>
                <path d="M287.318,547.856C293.809,546.07 300.282,546.504 305.525,551.31" style="fill:none;stroke:black;stroke-width:2.1px;"/>
                <path d="M290.794,576.812C290.586,577.041 291.097,576.268 291.292,576.028C291.675,575.555 292.107,575.13 292.547,574.713C293.783,573.541 295.093,572.434 296.501,571.476C300.869,568.503 305.711,567.191 310.923,566.843" style="fill:none;stroke:black;stroke-width:2.1px;"/>
                <path d="M306.416,581.111C308.608,579.032 309.597,575.018 311.713,572.6" style="fill:none;stroke:black;stroke-width:2.1px;"/>
            </g>
            <g transform="matrix(-1,0,0,1,799.355,0)">
                <path d="M283.716,564.487C289.715,559.601 299.957,559.198 306.789,562.158C309.48,563.325 311.978,564.836 314.245,566.699C314.443,566.86 317.468,569.59 317.499,569.559C317.87,569.188 316.633,566.408 316.506,566.024C315.35,562.51 313.887,559.105 310.517,557.374C303.634,553.84 292.07,556.119 286.248,561.109L283.716,564.487Z" style="fill: rgb(var(--color_hairs_r, 38), var(--color_hairs_g, 183), var(--color_hairs_b, 200))"/>
                <clipPath id="_clip2_hair_5_hat">
                    <path d="M283.716,564.487C289.715,559.601 299.957,559.198 306.789,562.158C309.48,563.325 311.978,564.836 314.245,566.699C314.443,566.86 317.468,569.59 317.499,569.559C317.87,569.188 316.633,566.408 316.506,566.024C315.35,562.51 313.887,559.105 310.517,557.374C303.634,553.84 292.07,556.119 286.248,561.109L283.716,564.487Z"/>
                </clipPath>
                <g clip-path="url(#_clip2_hair_5_hat)">
                    <g transform="matrix(-1,0,0,1,799.355,0)">
                        <path d="M503.538,547.979C503.68,547.585 501.438,549.576 501.186,549.857C499.737,551.466 498.339,553.27 497.289,555.166C495.365,558.642 494.02,563.641 491.058,566.343C489.277,567.968 486.746,568.989 484.545,569.877C483.37,570.351 479.181,572.431 477.956,571.268C476.772,570.143 480.623,565.631 481.176,564.851C485.623,558.568 490.897,551.863 497.753,548.103" style="fill: rgb(calc(var(--color_hairs_r, 38) + 53), calc(var(--color_hairs_g, 183) - 90), calc(var(--color_hairs_b, 200) - 30))"/>
                    </g>
                </g>
                <path d="M283.716,564.487C289.715,559.601 299.957,559.198 306.789,562.158C309.48,563.325 311.978,564.836 314.245,566.699C314.443,566.86 317.468,569.59 317.499,569.559C317.87,569.188 316.633,566.408 316.506,566.024C315.35,562.51 313.887,559.105 310.517,557.374C303.634,553.84 292.07,556.119 286.248,561.109L283.716,564.487Z" style="fill:none;stroke:black;stroke-width:2.1px;"/>
                <path d="M287.318,547.856C293.809,546.07 300.282,546.504 305.525,551.31" style="fill:none;stroke:black;stroke-width:2.1px;"/>
                <path d="M290.794,576.812C290.586,577.041 291.097,576.268 291.292,576.028C291.675,575.555 292.107,575.13 292.547,574.713C293.783,573.541 295.093,572.434 296.501,571.476C300.869,568.503 305.711,567.191 310.923,566.843" style="fill:none;stroke:black;stroke-width:2.1px;"/>
                <path d="M306.416,581.111C308.608,579.032 309.597,575.018 311.713,572.6" style="fill:none;stroke:black;stroke-width:2.1px;"/>
            </g>
            <path d="M400.102,90.305C400.199,90.347 405.516,87.744 407.556,86.998C413.415,84.854 420.119,83.469 426.275,82.367C443.504,79.284 461.075,82.261 477.974,87.449C493.613,92.25 509.972,99.344 522.847,107.35C549.574,123.97 568.167,145.538 579.567,176.765C587.254,197.819 587.061,225.745 583.892,248.566C580.549,272.633 586.523,333.291 586.478,360.091C586.411,399.673 593.399,750.415 582.675,775.488C573.408,797.153 520.766,783.707 512.84,791.607C493.666,810.72 454.151,784.298 441.465,803.27C435.454,812.259 413.956,823.012 402.24,827.894L402.24,828.559C401.931,828.467 401.621,828.366 401.311,828.254C401,828.366 400.691,828.467 400.382,828.559L400.381,827.894C388.666,823.012 369.761,819.028 363.75,810.039C351.064,791.067 312.589,807.335 294.986,794.763C285.88,788.26 238.535,811.928 229.269,790.262C218.544,765.189 226.414,404.415 221.569,354.145C218.998,327.468 218.809,272.633 215.466,248.566C212.297,225.745 214.923,194.026 222.609,172.971C239.502,126.701 270.793,99.392 320.39,85.406C337.403,80.609 354.708,80.621 372.777,82.463C378.999,83.097 386.988,84.939 392.847,87.083C394.887,87.829 398.11,89.452 400.102,90.305Z" style="fill: rgb(var(--color_hairs_r, 38), var(--color_hairs_g, 183), var(--color_hairs_b, 200))"/>
            <clipPath id="_clip3_hair_5_hat">
                <path d="M400.102,90.305C400.199,90.347 405.516,87.744 407.556,86.998C413.415,84.854 420.119,83.469 426.275,82.367C443.504,79.284 461.075,82.261 477.974,87.449C493.613,92.25 509.972,99.344 522.847,107.35C549.574,123.97 568.167,145.538 579.567,176.765C587.254,197.819 587.061,225.745 583.892,248.566C580.549,272.633 586.523,333.291 586.478,360.091C586.411,399.673 593.399,750.415 582.675,775.488C573.408,797.153 520.766,783.707 512.84,791.607C493.666,810.72 454.151,784.298 441.465,803.27C435.454,812.259 413.956,823.012 402.24,827.894L402.24,828.559C401.931,828.467 401.621,828.366 401.311,828.254C401,828.366 400.691,828.467 400.382,828.559L400.381,827.894C388.666,823.012 369.761,819.028 363.75,810.039C351.064,791.067 312.589,807.335 294.986,794.763C285.88,788.26 238.535,811.928 229.269,790.262C218.544,765.189 226.414,404.415 221.569,354.145C218.998,327.468 218.809,272.633 215.466,248.566C212.297,225.745 214.923,194.026 222.609,172.971C239.502,126.701 270.793,99.392 320.39,85.406C337.403,80.609 354.708,80.621 372.777,82.463C378.999,83.097 386.988,84.939 392.847,87.083C394.887,87.829 398.11,89.452 400.102,90.305Z"/>
            </clipPath>
            <g clip-path="url(#_clip3_hair_5_hat)">
                <path d="M248.054,204.859C249.793,206.373 247.912,394.549 248.023,396.68C248.825,411.983 249.198,427.313 249.149,442.637C248.988,492.229 252.941,542.106 254.978,591.672C255.479,603.863 262.315,808.627 263.147,820.801C263.538,826.518 263.517,833.609 268.198,837.714C276.035,844.588 290.989,843.813 300.586,844.205C326.481,845.263 352.456,846 378.372,845.715C419.555,845.262 461.844,842.724 502.417,835.245C514.881,832.947 536.249,831.542 545.861,821.626C555.106,812.088 547.407,589.097 547.746,576.549C548.45,550.505 548.168,524.442 548.864,498.388C549.565,472.146 551.305,445.916 550.392,419.654C549.689,399.448 559.654,202.016 537.581,193.694C518.171,186.375 486.7,185.909 466.289,185.847C423.372,185.717 380.479,190.312 337.854,194.86L248.054,204.859ZM235.081,507.781C235.645,507.058 235.263,503.828 235.315,502.941C235.606,497.981 235.804,493.017 236.074,488.056C236.337,483.209 236.669,478.37 237.038,473.53C237.315,469.908 237.64,466.29 237.967,462.673C238.812,453.348 243.186,440.808 240.51,431.401C239.851,429.087 238.113,423.704 235.308,423.106C233.164,422.649 232.696,426.277 232.669,427.624C232.554,433.215 233.213,438.883 233.567,444.459C233.889,449.525 234.142,454.599 234.348,459.671C234.723,468.888 234.928,478.104 234.762,487.328L235.081,507.781ZM562.759,434.309C562.823,434.352 561.757,440.107 561.698,440.597C560.843,447.695 560.116,454.821 559.443,461.938C559.09,465.672 558.702,469.402 558.361,473.137C558.329,473.488 557.61,479.368 557.227,479.156C556.466,478.733 556.59,475.76 556.543,475.077C556.251,470.801 556.097,466.51 555.89,462.229C555.217,448.319 554.68,434.375 554.18,420.457C554.095,418.083 553.266,402.591 557.82,409.823L562.759,434.309Z" style="fill: rgb(var(--color_hairs_r, 38), var(--color_hairs_g, 183), var(--color_hairs_b, 200))"/>
                <path d="M581.818,255.787C581.935,255.895 581.375,259.641 581.24,260.297C580.623,263.276 580.077,266.301 579.634,269.31C578.34,278.113 579.101,287.237 578.657,296.113C577.316,322.926 579.043,349.937 579.043,376.771C579.043,471.665 580.119,576.371 580.856,671.292C581.054,696.788 582.432,712.84 584.239,738.286C584.527,742.35 585.035,760.969 592.024,760.969C600.744,760.969 607.489,740.296 609.868,734.454C622.169,704.245 628.64,671.51 634.035,639.459C643.394,583.85 649.745,524.237 646.842,467.828C644.486,422.05 634.216,377.592 624.326,333.011C618.54,306.933 613.621,280.485 605.914,254.882L581.818,255.787ZM557.026,546.21C553.763,534.839 558.011,510.165 558.542,498.137C558.794,492.419 560.806,473.008 560.806,473.008C560.806,473.008 562.116,521.673 562.588,532.088C564.51,574.479 566.449,609.401 569.105,654.632C570.01,670.033 570.195,728.575 569.748,744.029C569.376,756.869 565.401,764.254 559.043,762.135L557.026,546.21ZM241.647,542.413C242.143,542.941 241.674,540.964 241.657,540.24C241.623,538.853 241.566,537.467 241.521,536.08C241.39,532.036 241.372,527.987 241.334,523.942C241.194,508.913 241.008,493.888 240.912,478.859C240.891,475.426 240.764,465.69 241.23,465.733C242.36,465.836 244.849,493.592 245.638,503.051C248.371,535.849 257.095,737.565 259.896,770.356C260.612,778.733 261.488,787.178 261.529,795.592C261.54,797.761 262.069,802.894 259.749,804.274C257.498,805.612 254.971,800.647 254.241,799.305C250.246,791.949 248.062,783.5 245.923,775.463L241.647,542.413ZM217.217,253.566C218.159,252.456 217.9,256.396 218.249,257.809C218.95,260.651 219.548,263.514 220.135,266.38C221.939,275.19 222.943,284.082 223.628,293.045C224.557,305.224 227.051,317.161 228.169,329.292C229.442,343.117 229.124,357.344 229.641,371.215C230.444,392.768 229.367,414.217 229.119,435.761C228.617,479.495 228.481,523.352 229.298,567.081C229.578,582.041 234.762,755.813 234.462,770.804C234.381,774.871 235.558,784.557 229.547,784.737C219.021,785.052 209.769,775.316 204.234,767.578C188.986,746.258 181.624,560.378 178.457,534.963C169.795,465.477 164.042,385.854 172.835,316.364C176.528,287.174 183.786,250.592 214.024,237.831L217.217,253.566ZM581.818,255.787L581.805,255.787C581.81,255.783 581.814,255.783 581.818,255.787Z" style="fill: rgb(var(--color_hairs_r, 38), var(--color_hairs_g, 183), var(--color_hairs_b, 200))"/>
                <g>
                    <path d="M208.689,295.093C208.232,294.734 209.253,296.11 209.538,296.616C210.097,297.608 210.667,298.601 211.269,299.567C213.155,302.597 214.998,305.793 217.283,308.548C221.923,314.14 227.132,321.635 234.479,323.825C237.687,324.781 240.946,324.235 244.191,324.087" style="fill:none;stroke:black;stroke-width:2.1px;"/>
                    <path d="M193.58,253.248C193.461,254.154 194.662,255.994 195.007,256.762C196.509,260.101 198.286,263.277 200.161,266.416C207.409,278.552 217.731,291.536 230.568,298.112" style="fill:none;stroke:black;stroke-width:2.1px;"/>
                    <path d="M201.106,250.497C200.679,250.471 201.509,251.249 201.711,251.626C202.078,252.31 202.472,252.981 202.865,253.651C204.149,255.844 205.528,257.955 207.13,259.93C211.621,265.469 217.575,270.835 223.978,274.114" style="fill:none;stroke:black;stroke-width:2.1px;"/>
                    <path d="M212.971,242.64C212.688,242.227 213.502,243.489 213.753,243.923C214.295,244.856 214.86,245.78 215.477,246.665C216.635,248.328 220.352,254.388 222.886,254.272" style="fill:none;stroke:black;stroke-width:2.1px;"/>
                    <path d="M577.491,252.747C581.688,251.788 586.21,246.131 588.74,242.589" style="fill:none;stroke:black;stroke-width:2.1px;"/>
                    <path d="M576.716,274.43C576.592,274.322 579.641,272.132 579.786,272.026C581.742,270.597 583.645,269.108 585.504,267.554C591.077,262.897 595.204,257.003 599.433,251.189" style="fill:none;stroke:black;stroke-width:2.1px;"/>
                    <path d="M569.18,299.107C573.033,296.709 577.298,293.644 579.981,291.068C591.054,280.439 598.801,268.031 605.997,254.667" style="fill:none;stroke:black;stroke-width:2.1px;"/>
                    <path d="M556.221,324.647C556.199,324.61 557.768,324.492 557.908,324.485C559.094,324.427 560.298,324.271 561.469,324.076C565.055,323.479 568.131,321.977 571.102,319.92C579.687,313.976 585.938,304.285 591.325,295.531" style="fill:none;stroke:black;stroke-width:2.1px;"/>
                    <path d="M234.02,435.09C233.909,435.145 234.129,438.791 234.127,438.997C234.085,446.462 234.07,453.926 234.051,461.39C233.983,487.485 233.703,513.618 234.768,539.699" style="fill:none;stroke:black;stroke-width:2.1px;"/>
                    <path d="M525.809,519.436C525.987,519.363 526.004,526.345 526.029,528.022C526.119,533.818 526.176,539.615 526.23,545.411C526.386,562.313 526.625,579.212 526.715,596.115C526.983,646.657 527.028,697.281 526.255,747.817" style="fill:none;stroke:black;stroke-width:2.1px;"/>
                    <path d="M501.829,577.87C501.762,582.114 502.032,594.869 501.962,599.114C501.744,612.368 501.591,625.624 501.477,638.88C501.14,678.065 502.527,717.158 503.662,756.318" style="fill:none;stroke:black;stroke-width:2.1px;"/>
                    <path d="M281.348,525.924C281.348,525.924 281.237,538.639 281.228,541.675C281.184,556.259 281.188,570.842 281.308,585.426C281.766,641.157 284.24,696.677 289.548,752.164" style="fill:none;stroke:black;stroke-width:2.1px;"/>
                    <path d="M262.263,584.606C262.263,584.606 262.822,620.448 262.837,627.574C262.915,663.701 262.496,699.894 263.632,736.008" style="fill:none;stroke:black;stroke-width:2.1px;"/>
                    <path d="M570.126,443.842C569.043,442.779 570.259,446.874 570.313,448.39C570.414,451.226 570.574,454.059 570.716,456.893C571.149,465.509 571.52,474.128 571.864,482.748C572.905,508.841 573.417,534.905 573.417,561.016" style="fill:none;stroke:black;stroke-width:2.1px;"/>
                </g>
            </g>
            <path d="M400.102,90.305C400.199,90.347 405.516,87.744 407.556,86.998C413.415,84.854 420.119,83.469 426.275,82.367C443.504,79.284 461.075,82.261 477.974,87.449C493.613,92.25 509.972,99.344 522.847,107.35C549.574,123.97 568.167,145.538 579.567,176.765C587.254,197.819 587.061,225.745 583.892,248.566C580.549,272.633 586.523,333.291 586.478,360.091C586.411,399.673 593.399,750.415 582.675,775.488C573.408,797.153 520.766,783.707 512.84,791.607C493.666,810.72 454.151,784.298 441.465,803.27C435.454,812.259 413.956,823.012 402.24,827.894L402.24,828.559C401.931,828.467 401.621,828.366 401.311,828.254C401,828.366 400.691,828.467 400.382,828.559L400.381,827.894C388.666,823.012 369.761,819.028 363.75,810.039C351.064,791.067 312.589,807.335 294.986,794.763C285.88,788.26 238.535,811.928 229.269,790.262C218.544,765.189 226.414,404.415 221.569,354.145C218.998,327.468 218.809,272.633 215.466,248.566C212.297,225.745 214.923,194.026 222.609,172.971C239.502,126.701 270.793,99.392 320.39,85.406C337.403,80.609 354.708,80.621 372.777,82.463C378.999,83.097 386.988,84.939 392.847,87.083C394.887,87.829 398.11,89.452 400.102,90.305Z" style="fill:none;stroke:black;stroke-width:2.1px;"/>
        </g>
    </g>
    <g id="buns-hair-hat-middle">
        <path d="M247.129,379.282C247.196,379.289 247.236,381.043 247.243,381.146C247.393,383.398 247.565,385.658 247.823,387.9C248.898,397.273 248.729,406.441 248.238,415.853C247.586,428.358 248.591,440.656 248.881,453.163C249.299,471.128 249.899,489.146 252.944,506.888C254.119,513.73 255.463,520.545 256.615,527.39C256.818,528.599 257.705,534.684 257.705,534.684C257.705,534.684 258.341,527.45 258.497,525.39C258.966,519.214 259.53,513.055 259.776,506.864C260.523,488.049 260.627,469.187 258.27,450.496C256.112,433.39 251.367,414.806 249.08,398.976" style="fill: rgb(var(--color_hairs_r, 38), var(--color_hairs_g, 183), var(--color_hairs_b, 200))"/>
        <clipPath id="_clip4_hair_5_hat">
            <path d="M247.129,379.282C247.196,379.289 247.236,381.043 247.243,381.146C247.393,383.398 247.565,385.658 247.823,387.9C248.898,397.273 248.729,406.441 248.238,415.853C247.586,428.358 248.591,440.656 248.881,453.163C249.299,471.128 249.899,489.146 252.944,506.888C254.119,513.73 255.463,520.545 256.615,527.39C256.818,528.599 257.705,534.684 257.705,534.684C257.705,534.684 258.341,527.45 258.497,525.39C258.966,519.214 259.53,513.055 259.776,506.864C260.523,488.049 260.627,469.187 258.27,450.496C256.112,433.39 251.367,414.806 249.08,398.976"/>
        </clipPath>
        <g clip-path="url(#_clip4_hair_5_hat)">
            <g transform="matrix(-1,0,0,1,799.147,0)">
                <path d="M549.724,402.004C550.298,403.607 549.531,406.622 549.394,408.253C549,412.97 548.495,417.665 547.848,422.353C546.613,431.29 546.865,440.253 546.058,449.204C545.54,454.954 544.184,460.627 543.225,466.314C541.941,473.923 541.024,481.584 539.869,489.213C539.443,492.027 539.088,494.854 538.751,497.68C538.73,497.849 538.452,500.425 538.174,500.317C537.112,499.901 537.553,493.479 537.544,492.643C537.46,484.972 537.724,477.264 538.398,469.622C539.041,462.341 539.955,455.065 541.157,447.855C543.014,436.712 545.558,425.691 547.434,414.55" style="fill: rgb(var(--color_hairs_r, 38), var(--color_hairs_g, 183), var(--color_hairs_b, 200))"/>
            </g>
            <path d="M249.006,398.142C248.995,396.281 249.453,401.014 249.533,401.491C250.035,404.475 250.545,407.458 251.085,410.435C252.74,419.568 252.357,428.559 252.719,437.781C253.709,463.046 254.201,488.335 256.032,513.546C256.479,519.703 256.472,525.87 256.607,532.038C256.62,532.633 257.155,537.877 256.424,538.053C255.406,538.297 253.299,531.43 253.102,530.86C250.372,522.968 248.184,514.783 246.658,506.573C243.872,491.583 243.895,476.034 243.509,460.836C243.05,442.757 242.443,423.286 245.928,405.425" style="fill: rgb(var(--color_hairs_r, 38), var(--color_hairs_g, 183), var(--color_hairs_b, 200))"/>
        </g>
        <path d="M247.129,379.282C247.196,379.289 247.236,381.043 247.243,381.146C247.393,383.398 247.565,385.658 247.823,387.9C248.898,397.273 248.729,406.441 248.238,415.853C247.586,428.358 248.591,440.656 248.881,453.163C249.299,471.128 249.899,489.146 252.944,506.888C254.119,513.73 255.463,520.545 256.615,527.39C256.818,528.599 257.705,534.684 257.705,534.684C257.705,534.684 258.341,527.45 258.497,525.39C258.966,519.214 259.53,513.055 259.776,506.864C260.523,488.049 260.627,469.187 258.27,450.496C256.112,433.39 251.367,414.806 249.08,398.976" style="fill:none;stroke:black;stroke-width:2.1px;"/>
        <g transform="matrix(-1,0,0,1,799.82,0)">
            <path d="M247.129,379.282C247.196,379.289 247.236,381.043 247.243,381.146C247.393,383.398 247.565,385.658 247.823,387.9C248.898,397.273 248.729,406.441 248.238,415.853C247.586,428.358 248.591,440.656 248.881,453.163C249.299,471.128 249.899,489.146 252.944,506.888C254.119,513.73 255.463,520.545 256.615,527.39C256.818,528.599 257.705,534.684 257.705,534.684C257.705,534.684 258.341,527.45 258.497,525.39C258.966,519.214 259.53,513.055 259.776,506.864C260.523,488.049 260.627,469.187 258.27,450.496C256.112,433.39 251.367,414.806 249.08,398.976" style="fill: rgb(var(--color_hairs_r, 38), var(--color_hairs_g, 183), var(--color_hairs_b, 200))"/>
            <clipPath id="_clip5_hair_5_hat">
                <path d="M247.129,379.282C247.196,379.289 247.236,381.043 247.243,381.146C247.393,383.398 247.565,385.658 247.823,387.9C248.898,397.273 248.729,406.441 248.238,415.853C247.586,428.358 248.591,440.656 248.881,453.163C249.299,471.128 249.899,489.146 252.944,506.888C254.119,513.73 255.463,520.545 256.615,527.39C256.818,528.599 257.705,534.684 257.705,534.684C257.705,534.684 258.341,527.45 258.497,525.39C258.966,519.214 259.53,513.055 259.776,506.864C260.523,488.049 260.627,469.187 258.27,450.496C256.112,433.39 251.367,414.806 249.08,398.976"/>
            </clipPath>
            <g clip-path="url(#_clip5_hair_5_hat)">
                <g transform="matrix(-1,0,0,1,799.82,0)">
                    <path d="M549.724,402.004C550.298,403.607 549.531,406.622 549.394,408.253C549,412.97 548.495,417.665 547.848,422.353C546.613,431.29 546.865,440.253 546.058,449.204C545.54,454.954 544.184,460.627 543.225,466.314C541.941,473.923 541.024,481.584 539.869,489.213C539.443,492.027 539.088,494.854 538.751,497.68C538.73,497.849 538.452,500.425 538.174,500.317C537.112,499.901 537.553,493.479 537.544,492.643C537.46,484.972 537.724,477.264 538.398,469.622C539.041,462.341 539.955,455.065 541.157,447.855C543.014,436.712 545.558,425.691 547.434,414.55" style="fill: rgb(var(--color_hairs_r, 38), var(--color_hairs_g, 183), var(--color_hairs_b, 200))"/>
                </g>
                <g transform="matrix(-1,0,0,1,799.82,0)">
                    <path d="M542.408,550.993C541.633,550.534 542.046,543.679 541.939,542.557C540.995,532.644 542.888,522.636 543.963,512.807C547.318,482.128 546.268,451.302 547.191,420.539C547.415,413.069 548.04,405.454 549.368,398.099C549.711,396.196 549.997,391.908 552.038,390.866C555.056,389.325 557.023,399.397 557.333,400.692C560.078,412.15 561.389,423.881 562.071,435.627C562.821,448.56 562.745,461.502 561.819,474.425C560.265,496.113 556.181,517.946 550.67,538.968" style="fill: rgb(var(--color_hairs_r, 38), var(--color_hairs_g, 183), var(--color_hairs_b, 200))"/>
                </g>
            </g>
            <path d="M247.129,379.282C247.196,379.289 247.236,381.043 247.243,381.146C247.393,383.398 247.565,385.658 247.823,387.9C248.898,397.273 248.729,406.441 248.238,415.853C247.586,428.358 248.591,440.656 248.881,453.163C249.299,471.128 249.899,489.146 252.944,506.888C254.119,513.73 255.463,520.545 256.615,527.39C256.818,528.599 257.705,534.684 257.705,534.684C257.705,534.684 258.341,527.45 258.497,525.39C258.966,519.214 259.53,513.055 259.776,506.864C260.523,488.049 260.627,469.187 258.27,450.496C256.112,433.39 251.367,414.806 249.08,398.976" style="fill:none;stroke:black;stroke-width:2.1px;"/>
        </g>
        <path d="M256.937,437.117C263.439,460.015 263.907,484.014 264.797,507.604" style="fill:none;stroke:black;stroke-width:2.1px;"/>
        <g transform="matrix(-1,0,0,1,799.82,0)">
            <path d="M256.937,437.117C263.439,460.015 263.907,484.014 264.797,507.604" style="fill:none;stroke:black;stroke-width:2.1px;"/>
        </g>
    </g>
    <g id="hairstyles-front">
        <g id="buns-hair-front">
            <path d="M242.984,311.576C242.052,311.289 243.567,313.44 243.916,314.351C244.65,316.27 245.489,318.143 246.398,319.985C248.854,324.961 251.518,331.372 255.529,335.384C256.327,336.181 255.182,333.155 255.045,332.036C254.781,329.886 254.653,327.737 254.526,325.576C254.269,321.215 260.146,314.932 264.559,314.235C270.857,313.241 276.686,323.434 280.68,326.974C281.538,327.734 285.507,331.904 287.027,330.953C287.975,330.361 287.275,325.95 287.275,325.08C287.275,319.89 287.619,314.691 288.549,309.579C288.801,308.19 289.123,305.174 290.927,304.957C298.655,304.03 302.995,318.346 307.747,322.555C308.19,322.947 313.804,328.199 314.409,327.594C314.971,327.033 312.777,320.546 312.617,319.804C310.93,311.992 308.666,299.251 308.799,291.242C308.815,290.236 307.56,297.813 319.017,309.579C327.303,318.089 332.171,318.584 342.363,323.592C345.532,325.149 358.525,328.935 358.644,328.841C359.281,328.331 358.94,318.159 358.792,317.414C357.573,311.268 356.125,305.158 355.557,298.904C355.471,297.966 354.456,293.837 355.061,293.03C355.86,291.964 360.142,301.291 361.78,303.596C364.333,307.19 372.784,316.576 372.784,317.385C372.784,317.903 370.88,306.42 370.595,303.323C369.747,294.084 369.202,284.784 364.587,276.515C359.097,266.68 355.772,256.359 354.429,245.142C354.246,243.607 352.556,236.453 353.742,235.12C354.017,234.81 356.773,237.14 357.022,237.318C358.776,238.571 360.549,239.738 362.411,240.824C363.307,241.347 365.128,242.346 365.128,242.346C365.128,242.346 363.22,240.894 362.332,240.091C360.328,238.278 357.377,235.014 358.522,232.053C361.679,223.882 371.152,221.12 378.881,219.551C397.223,215.83 420.175,215.318 437.986,221.795C443.217,223.697 444.394,229.322 442.18,234.038C441.286,235.942 440.178,237.736 438.979,239.46C438.336,240.383 435.948,241.949 437.04,242.222C439.045,242.723 445.516,235.367 446.802,234.06C447.112,233.746 448.756,231.31 449.203,231.366C449.469,231.399 447.934,240.397 447.839,240.925C445.986,251.284 442.412,261.521 439.756,271.713C436.709,283.409 431.494,294.853 429.329,306.761C429.185,307.551 427.433,317.177 427.942,317.347C428.118,317.405 428.648,316.464 428.72,316.366C430.658,313.708 433.096,308.289 435.43,305.98C442.026,299.455 448.979,289.454 455.931,283.382C456.988,282.458 464.055,272.187 465.411,272.187C466.682,272.187 462.449,287.011 461.841,288.126C460.585,290.428 459.452,292.791 458.357,295.172C454.24,304.127 449.961,312.972 445.81,321.89C445.505,322.545 441.886,329.764 442.383,330.074C442.86,330.372 445.101,328.865 445.517,328.665C448.894,327.039 452.466,325.82 456.046,324.731C468.126,321.054 477.931,317.194 486.112,307.043C490.128,302.06 494.424,292.312 495.803,287.043C496.137,285.765 492.898,297.331 492.545,299.89C491.135,310.114 486.883,330.095 486.883,330.095C486.883,330.095 493.795,324.832 495.26,323.57C499.942,319.536 503.992,313.296 508.695,309.278C509.471,308.615 511.463,307.14 511.763,311.052C512.206,316.827 513.164,322.811 512.852,327.729C512.826,328.135 512.299,332.34 512.502,332.442C513.331,332.856 518.365,326.052 518.894,325.463C523.311,320.551 527.954,315.817 532.625,311.146C534.186,309.585 536.594,306.237 538.871,305.701C541.958,304.975 539.414,313.816 539.671,315.101C540.369,318.593 545.779,317.783 546.279,322.381C546.482,324.249 545.414,328.675 545.251,330.543C545.172,331.452 546.074,332.768 546.987,332.768C547.837,332.768 550.203,328.264 550.617,327.65C554.293,322.208 559.019,315.665 559.117,308.847C559.222,301.544 554.645,294.309 551.327,288.126C545.923,278.054 540.801,267.835 535.41,257.756C519.759,228.5 502.707,198.873 470.6,185.461C453.948,178.505 435.289,175.627 417.323,175.428C404.762,175.289 392.225,176.463 379.85,178.573C317.671,189.178 237.842,227.739 237.842,300.831" style="fill:rgb(56,25,57);fill-opacity:0.5;"/>
            <path d="M215.373,224.943C216.065,183.975 223.409,171.097 233.374,152.927C245.756,130.347 280.89,80.904 362.995,82.831C383.511,83.313 399.685,90.774 399.685,90.774C399.685,90.774 407.474,86.778 423.404,84.396C432.243,83.074 439.294,81.248 447.677,82.48C514.989,92.373 566.714,129.765 579.94,180.688C581.499,186.694 584.709,204.723 584.904,212.562C585.326,229.565 583.579,246.398 580.075,262.801C574.791,287.538 565.399,309.811 559.696,333.043C557.775,340.87 556.897,343.991 555.861,351.987C555.534,354.508 554.257,372.036 553.274,371.053C552.151,369.93 552.689,362.396 552.666,360.925C552.526,351.7 552.792,344.353 552.792,336.213C552.792,334.816 552.622,326.651 552.622,326.651L550.395,330.3C550.395,330.3 545.68,334.987 542.485,336.485C542.202,336.617 543.581,333.052 544.685,331.125C547.673,325.905 549.29,322.795 550.817,317.997C552.244,313.513 548.646,308.858 546.478,305.356C545.767,304.207 546.419,301.555 545.068,301.555C544.972,301.555 544.059,304.689 543.993,304.873C543.221,307.012 542.117,309.143 540.89,311.052C536.881,317.289 532.186,323.098 527.886,329.133C527.558,329.594 522.493,334.858 522.492,334.858C521.972,334.467 523.206,328.96 523.225,328.126C523.425,319.522 522.069,310.868 521.277,302.321C521.218,301.686 520.61,292.648 520.391,292.675C519.39,292.8 515.684,299.573 515.082,300.562C510.227,308.539 502.765,315.159 496.579,322.098C495.05,323.812 489.621,328.185 489.621,328.185C489.621,328.185 493.272,317.832 493.885,315.78C497.334,304.244 499.358,293.25 500.634,280.367C501.198,274.674 501.507,269.361 500.482,263.727C500.43,263.437 499.446,258.569 499.126,258.649C498.694,258.757 498.845,268.659 498.776,269.463C498.207,276.131 495.393,282.222 492.463,288.148C483.343,306.59 471.733,314.33 453.283,319.709C446.637,321.647 440.79,327.118 437.641,327.118C437.058,327.118 443.956,315.802 445.674,312.409C451.684,300.543 456.572,289.31 460.223,276.475C461.422,272.259 462.729,268.085 463.514,263.767C463.805,262.165 464.037,260.563 464.212,258.944C464.221,258.869 464.349,257.47 464.32,257.48C462.205,258.185 459.823,268.338 458.208,270.551C449.703,282.205 437.908,289.536 429.941,302.036C428.813,303.806 424.564,312.892 421.911,315.593C421.886,315.618 422.952,310.045 423.053,309.655C424.663,303.414 425.669,298.133 428.016,292.159C431.222,283.997 435.124,275.944 438.32,267.776C443.316,255.009 448.692,241.856 452.096,228.504C453.373,223.495 454.393,218.242 454.393,213.056L454.393,208.475C454.233,208.475 453.781,210.149 453.734,210.275C452.03,214.865 449.33,219.088 446.776,223.239C445.051,226.042 442.878,228.549 440.61,230.922C439.349,232.243 438.025,233.547 436.593,234.684C436.157,235.031 429.839,239.243 429.702,238.969C429.489,238.542 434.882,233.65 435.358,233.125C438.878,229.241 446.333,219.639 446.333,213.943C446.333,213.705 438.874,212.126 438.461,212.035C428.983,209.944 419.569,208.905 409.848,208.905C407.318,208.905 404.793,208.919 402.268,209.042L402.288,209.86C403.179,210.225 401.395,209.688 399.858,209.342C398.322,209.688 396.538,210.225 397.429,209.86L397.449,209.042C394.924,208.919 392.399,208.905 389.869,208.905C380.148,208.905 370.734,209.944 361.256,212.035C360.842,212.126 353.384,213.705 353.384,213.943C353.384,219.639 360.839,229.241 364.359,233.125C364.835,233.65 370.228,238.542 370.015,238.969C369.878,239.243 363.56,235.031 363.123,234.684C361.692,233.547 360.368,232.243 359.107,230.922C356.839,228.549 354.666,226.042 352.941,223.239C350.387,219.088 347.687,214.865 345.983,210.275C345.936,210.149 345.484,208.475 345.324,208.475L345.324,213.056C345.324,218.242 346.344,223.495 347.621,228.504C351.025,241.856 356.401,255.009 361.397,267.776C364.593,275.944 368.495,283.997 371.701,292.159C374.048,298.133 375.054,303.414 376.664,309.655C376.765,310.045 377.831,315.618 377.806,315.593C375.153,312.892 370.904,303.806 369.776,302.036C361.809,289.536 350.014,282.205 341.509,270.551C339.894,268.338 337.511,258.185 335.397,257.48C335.368,257.47 335.496,258.869 335.505,258.944C335.679,260.563 335.912,262.165 336.203,263.767C336.988,268.085 338.295,272.259 339.494,276.475C343.145,289.31 348.033,300.543 354.042,312.409C355.761,315.802 362.659,327.118 362.076,327.118C358.927,327.118 353.08,321.647 346.434,319.709C327.984,314.33 316.374,306.59 307.254,288.148C304.324,282.222 301.51,276.131 300.941,269.463C300.872,268.659 301.023,258.757 300.591,258.649C300.271,258.569 299.287,263.437 299.235,263.727C298.21,269.361 298.519,274.674 299.083,280.367C300.359,293.25 302.383,304.244 305.832,315.78C306.445,317.832 310.096,328.185 310.096,328.185C310.096,328.185 304.667,323.812 303.138,322.098C296.952,315.159 289.49,308.539 284.634,300.562C284.032,299.573 280.327,292.8 279.326,292.675C279.107,292.648 278.498,301.686 278.44,302.321C277.648,310.868 276.292,319.522 276.492,328.126C276.511,328.96 277.745,334.467 277.225,334.858C277.224,334.858 272.159,329.594 271.831,329.133C267.53,323.098 262.836,317.289 258.827,311.052C257.6,309.143 256.496,307.012 255.724,304.873C255.658,304.689 254.745,301.555 254.649,301.555C253.298,301.555 253.95,304.207 253.239,305.356C251.071,308.858 247.473,313.513 248.9,317.997C250.427,322.795 252.044,325.905 255.032,331.125C256.136,333.052 257.515,336.617 257.232,336.485C254.037,334.987 249.322,330.3 249.322,330.3L247.095,326.651C247.095,326.651 246.925,334.816 246.925,336.213C246.925,344.353 247.191,351.7 247.051,360.925C247.028,362.396 247.565,369.93 246.443,371.053C245.46,372.036 244.183,354.508 243.856,351.987C242.819,343.991 241.942,340.87 240.02,333.043C234.318,309.811 226.674,288.018 219.005,264.597C216.432,256.741 215.044,244.409 215.373,224.943Z" style="fill: rgb(var(--color_hairs_r, 38), var(--color_hairs_g, 183), var(--color_hairs_b, 200))"/>
            <clipPath id="_clip6_hair_5_hat">
                <path d="M215.373,224.943C216.065,183.975 223.409,171.097 233.374,152.927C245.756,130.347 280.89,80.904 362.995,82.831C383.511,83.313 399.685,90.774 399.685,90.774C399.685,90.774 407.474,86.778 423.404,84.396C432.243,83.074 439.294,81.248 447.677,82.48C514.989,92.373 566.714,129.765 579.94,180.688C581.499,186.694 584.709,204.723 584.904,212.562C585.326,229.565 583.579,246.398 580.075,262.801C574.791,287.538 565.399,309.811 559.696,333.043C557.775,340.87 556.897,343.991 555.861,351.987C555.534,354.508 554.257,372.036 553.274,371.053C552.151,369.93 552.689,362.396 552.666,360.925C552.526,351.7 552.792,344.353 552.792,336.213C552.792,334.816 552.622,326.651 552.622,326.651L550.395,330.3C550.395,330.3 545.68,334.987 542.485,336.485C542.202,336.617 543.581,333.052 544.685,331.125C547.673,325.905 549.29,322.795 550.817,317.997C552.244,313.513 548.646,308.858 546.478,305.356C545.767,304.207 546.419,301.555 545.068,301.555C544.972,301.555 544.059,304.689 543.993,304.873C543.221,307.012 542.117,309.143 540.89,311.052C536.881,317.289 532.186,323.098 527.886,329.133C527.558,329.594 522.493,334.858 522.492,334.858C521.972,334.467 523.206,328.96 523.225,328.126C523.425,319.522 522.069,310.868 521.277,302.321C521.218,301.686 520.61,292.648 520.391,292.675C519.39,292.8 515.684,299.573 515.082,300.562C510.227,308.539 502.765,315.159 496.579,322.098C495.05,323.812 489.621,328.185 489.621,328.185C489.621,328.185 493.272,317.832 493.885,315.78C497.334,304.244 499.358,293.25 500.634,280.367C501.198,274.674 501.507,269.361 500.482,263.727C500.43,263.437 499.446,258.569 499.126,258.649C498.694,258.757 498.845,268.659 498.776,269.463C498.207,276.131 495.393,282.222 492.463,288.148C483.343,306.59 471.733,314.33 453.283,319.709C446.637,321.647 440.79,327.118 437.641,327.118C437.058,327.118 443.956,315.802 445.674,312.409C451.684,300.543 456.572,289.31 460.223,276.475C461.422,272.259 462.729,268.085 463.514,263.767C463.805,262.165 464.037,260.563 464.212,258.944C464.221,258.869 464.349,257.47 464.32,257.48C462.205,258.185 459.823,268.338 458.208,270.551C449.703,282.205 437.908,289.536 429.941,302.036C428.813,303.806 424.564,312.892 421.911,315.593C421.886,315.618 422.952,310.045 423.053,309.655C424.663,303.414 425.669,298.133 428.016,292.159C431.222,283.997 435.124,275.944 438.32,267.776C443.316,255.009 448.692,241.856 452.096,228.504C453.373,223.495 454.393,218.242 454.393,213.056L454.393,208.475C454.233,208.475 453.781,210.149 453.734,210.275C452.03,214.865 449.33,219.088 446.776,223.239C445.051,226.042 442.878,228.549 440.61,230.922C439.349,232.243 438.025,233.547 436.593,234.684C436.157,235.031 429.839,239.243 429.702,238.969C429.489,238.542 434.882,233.65 435.358,233.125C438.878,229.241 446.333,219.639 446.333,213.943C446.333,213.705 438.874,212.126 438.461,212.035C428.983,209.944 419.569,208.905 409.848,208.905C407.318,208.905 404.793,208.919 402.268,209.042L402.288,209.86C403.179,210.225 401.395,209.688 399.858,209.342C398.322,209.688 396.538,210.225 397.429,209.86L397.449,209.042C394.924,208.919 392.399,208.905 389.869,208.905C380.148,208.905 370.734,209.944 361.256,212.035C360.842,212.126 353.384,213.705 353.384,213.943C353.384,219.639 360.839,229.241 364.359,233.125C364.835,233.65 370.228,238.542 370.015,238.969C369.878,239.243 363.56,235.031 363.123,234.684C361.692,233.547 360.368,232.243 359.107,230.922C356.839,228.549 354.666,226.042 352.941,223.239C350.387,219.088 347.687,214.865 345.983,210.275C345.936,210.149 345.484,208.475 345.324,208.475L345.324,213.056C345.324,218.242 346.344,223.495 347.621,228.504C351.025,241.856 356.401,255.009 361.397,267.776C364.593,275.944 368.495,283.997 371.701,292.159C374.048,298.133 375.054,303.414 376.664,309.655C376.765,310.045 377.831,315.618 377.806,315.593C375.153,312.892 370.904,303.806 369.776,302.036C361.809,289.536 350.014,282.205 341.509,270.551C339.894,268.338 337.511,258.185 335.397,257.48C335.368,257.47 335.496,258.869 335.505,258.944C335.679,260.563 335.912,262.165 336.203,263.767C336.988,268.085 338.295,272.259 339.494,276.475C343.145,289.31 348.033,300.543 354.042,312.409C355.761,315.802 362.659,327.118 362.076,327.118C358.927,327.118 353.08,321.647 346.434,319.709C327.984,314.33 316.374,306.59 307.254,288.148C304.324,282.222 301.51,276.131 300.941,269.463C300.872,268.659 301.023,258.757 300.591,258.649C300.271,258.569 299.287,263.437 299.235,263.727C298.21,269.361 298.519,274.674 299.083,280.367C300.359,293.25 302.383,304.244 305.832,315.78C306.445,317.832 310.096,328.185 310.096,328.185C310.096,328.185 304.667,323.812 303.138,322.098C296.952,315.159 289.49,308.539 284.634,300.562C284.032,299.573 280.327,292.8 279.326,292.675C279.107,292.648 278.498,301.686 278.44,302.321C277.648,310.868 276.292,319.522 276.492,328.126C276.511,328.96 277.745,334.467 277.225,334.858C277.224,334.858 272.159,329.594 271.831,329.133C267.53,323.098 262.836,317.289 258.827,311.052C257.6,309.143 256.496,307.012 255.724,304.873C255.658,304.689 254.745,301.555 254.649,301.555C253.298,301.555 253.95,304.207 253.239,305.356C251.071,308.858 247.473,313.513 248.9,317.997C250.427,322.795 252.044,325.905 255.032,331.125C256.136,333.052 257.515,336.617 257.232,336.485C254.037,334.987 249.322,330.3 249.322,330.3L247.095,326.651C247.095,326.651 246.925,334.816 246.925,336.213C246.925,344.353 247.191,351.7 247.051,360.925C247.028,362.396 247.565,369.93 246.443,371.053C245.46,372.036 244.183,354.508 243.856,351.987C242.819,343.991 241.942,340.87 240.02,333.043C234.318,309.811 226.674,288.018 219.005,264.597C216.432,256.741 215.044,244.409 215.373,224.943Z"/>
            </clipPath>
            <g clip-path="url(#_clip6_hair_5_hat)">
                <path d="M223.261,244.474C222.9,241.443 221.676,232.396 218.559,230.238C217.846,229.744 217.83,229.055 216.999,229.401C214.48,230.451 223.826,310.913 227.152,318.04C228.268,320.431 221.988,323.14 223.355,325.402C223.815,326.162 224.337,326.901 224.87,327.611C225.126,327.952 226.186,328.655 225.789,328.5L209.199,331.62C200.071,328.017 193.397,320.343 187.943,312.479C177.634,297.612 169.865,281.186 166.326,263.356C164.915,256.249 164.107,249.038 163.977,241.792C163.809,232.451 164.448,223.097 165.688,213.841C170.262,179.697 183.991,146.111 207.413,120.57C234.166,91.397 272.765,73.457 310.728,64.167C329.652,59.536 349.112,57.974 368.491,60.182C377.915,61.255 388.453,63.447 396.463,68.843C398.056,69.916 399.2,71.17 400.012,72.552C400.824,71.17 401.968,69.916 403.561,68.843C411.571,63.447 422.109,61.255 431.533,60.182C450.912,57.974 470.372,59.536 489.296,64.167C527.26,73.457 565.858,91.397 592.611,120.57C616.033,146.111 629.762,179.697 634.336,213.841C635.576,223.097 636.215,232.451 636.047,241.792C635.917,249.038 635.109,256.249 633.698,263.356C630.159,281.186 622.39,297.612 612.081,312.479C606.627,320.343 599.953,328.017 590.825,331.62L574.235,328.5C573.838,328.655 574.898,327.952 575.154,327.611C575.687,326.901 576.209,326.162 576.669,325.402C578.036,323.14 579.975,321.021 580.261,318.398C581.588,306.223 583.02,228.098 582.307,228.592C578.821,231.005 576.861,243.683 576.668,245.276C576.671,245.938 576.668,246.496 576.653,246.496L577.245,249.918C577.093,250.514 576.852,258.9 575.347,258.524C574.725,258.368 573.723,249.455 573.542,248.598C571.816,240.397 569.58,228.9 564.114,222.238C563.09,220.99 559.324,215.642 557.244,216.776C555.304,217.834 554.517,222.7 554.437,224.494C554.114,231.776 554.412,238.856 554.663,246.128C554.747,248.558 554.753,250.999 555.138,253.407C555.308,254.471 553.278,248.549 552.336,246.401C548.9,238.566 545.663,228.872 539.833,222.369C538.067,220.399 537.893,222.581 536.081,222.761C531.381,223.226 530.321,220.787 528.893,220.651C527.299,220.499 528.294,223.216 525.04,222.037C523.446,221.46 519.56,216.889 519.023,216.889C518.074,216.889 515.681,224.422 515.504,225.219C513.605,233.765 513.292,241.677 513.105,250.438C513.051,252.995 512.737,262.072 512.737,262.072C512.737,262.072 509.835,252.356 508.95,248.74C506.404,238.344 503.964,227.901 500.686,217.703C499.921,215.324 497.339,204.903 493.787,204.903C492.528,204.903 492.432,209.591 492.338,210.329C491.544,216.583 491.768,222.942 491.768,229.232C491.768,229.722 491.611,236.386 491.59,236.38C490.767,236.144 489.886,228.377 489.691,227.51C488.117,220.541 485.962,210.208 479.574,205.817C474.241,202.151 473.908,203.869 466.073,203.837C462.537,203.822 462.788,200.981 461.965,202.191C461.322,203.137 461.577,208.029 461.182,210.27C460.968,211.485 461.176,214.74 460.303,213.867C458.154,211.718 459.17,195.847 454.889,193.706C454.876,193.699 454.922,204.786 454.129,204.653C453.831,204.604 453.575,201.228 453.524,200.937C452.863,197.179 451.802,193.476 450.365,189.942C448.652,185.727 441.582,173.18 441.861,172.157C442.1,171.279 447.896,174.48 454.497,181.892C457.681,185.466 459.525,189.187 464.958,188.969C466.354,188.914 466.45,186.925 468.354,187.401C471.572,188.206 474.808,192.506 478.227,192.418C488.461,192.156 485.067,184.231 484.846,176.635C484.791,174.726 483.131,168.035 483.208,168.035C484.426,168.035 489.536,174.418 490.23,175.299C495.563,182.063 501.163,188.989 508.067,194.118C511.88,196.95 511.045,192.261 514.601,193.48C517.553,194.492 520.641,199.467 523.851,199.298C526.567,199.155 523.19,192.551 527.71,194.359C531.012,195.68 534.293,197.772 536.805,200.284C537.095,200.574 540.067,204.489 540.237,204.416C540.937,204.116 541.005,198.838 541.08,198.147C541.934,190.241 538.656,184.322 534.917,177.546C533.859,175.627 532.805,173.684 531.628,171.835C531.031,170.896 528.602,169.334 529.693,169.116C531.397,168.775 535.567,173.347 536.615,174.269C543.3,180.148 549.469,186.459 555.245,193.231C557.238,195.568 559.384,197.817 561.075,200.391C561.882,201.619 563.964,205.357 563.734,203.905C562.866,198.404 558.462,191.949 555.696,187.259C546.57,171.784 533.222,157.457 517.7,148.218C512.74,145.265 507.57,143.308 502.027,141.759C501.122,141.506 497.795,140.016 496.779,140.524C496.726,140.55 498.119,142.608 498.192,142.721C499.121,144.159 500.055,145.596 500.971,147.043C504.03,151.877 506.679,157.014 508.582,162.419C508.774,162.965 510.57,166.776 510.208,167.228C510.163,167.285 509.84,166.77 509.828,166.753C508.991,165.459 508.128,164.181 507.264,162.906C505.161,159.803 502.881,156.828 500.365,154.048C493.227,146.163 484.448,140.104 474.896,135.501C461.453,129.024 444.029,127.15 429.931,133.103C425.164,135.116 419.902,137.03 415.587,139.907C414.107,140.893 412.554,141.76 411.099,142.792C410.396,143.291 408.493,144.959 408.95,144.229C417.356,130.779 450.229,118.758 465.48,121.55C474.052,123.12 479.839,129.638 488.263,129.169C493.95,128.852 503.593,126.477 511.358,128.827C531.574,134.944 554.196,164.903 562.345,183.376C565.173,189.785 567.596,196.431 569.597,203.211C570.03,203.621 570.734,204.351 570.813,204.424C571.157,204.748 575.858,209.061 576.329,208.186C578.517,204.123 578.056,200.1 577.801,195.64C577.718,194.179 577.232,193.36 577.227,189.624C577.226,189.526 579.686,192.373 579.784,192.373C580.43,192.373 577.195,181.171 575.706,177.133C573.038,169.9 571.156,168.119 567.05,161.436C559.812,149.653 552.346,137.967 541.604,129.07C525.59,115.808 510.692,99.469 488.957,97.248C480.012,96.334 465.203,96.745 456.216,97.527C455.346,97.602 463.711,94.521 468.242,93.564C478.793,91.336 488.888,90.407 495.837,90.371C496.332,90.368 487.97,87.942 485.385,87.421C477.489,85.83 468.702,83.017 460.684,82.378C445.043,81.13 434.443,82.342 416.41,87.509C411.872,88.809 407.343,92.497 402.962,94.249C402.696,94.356 401.612,95.274 400.625,95.634C400.449,95.75 400.24,95.79 400.012,95.775C399.784,95.79 399.575,95.75 399.399,95.634C398.412,95.274 397.328,94.356 397.062,94.249C392.681,92.497 388.152,88.809 383.614,87.509C365.581,82.342 354.68,81.311 339.039,82.559C331.021,83.198 322.536,85.83 314.639,87.421C312.054,87.942 303.692,90.368 304.187,90.371C311.136,90.407 321.231,91.336 331.782,93.564C336.313,94.521 344.678,97.602 343.808,97.527C334.821,96.745 320.012,96.334 311.067,97.248C289.332,99.469 272.889,114.093 256.875,127.355C246.133,136.251 236.669,153.693 229.431,165.476C225.325,172.16 218.812,195.217 220.665,192.453C221.201,191.655 223.519,186.667 224.165,186.667C224.263,186.667 223.278,193.429 223.195,194.889C222.94,199.349 221.507,204.123 223.695,208.186C224.166,209.061 228.867,204.748 229.211,204.424C229.282,204.358 229.858,203.761 230.289,203.344C232.297,196.518 234.733,189.827 237.579,183.376C245.729,164.903 268.351,134.944 288.566,128.827C296.332,126.477 305.975,128.852 311.662,129.169C320.085,129.638 325.872,123.12 334.444,121.55C349.695,118.758 382.569,130.779 390.975,144.229C391.431,144.959 389.528,143.291 388.825,142.792C387.371,141.76 385.818,140.893 384.337,139.907C380.023,137.03 374.761,135.116 369.994,133.103C355.895,127.15 338.472,129.024 325.029,135.501C315.477,140.104 306.698,146.163 299.56,154.048C297.043,156.828 294.764,159.803 292.661,162.906C291.797,164.181 290.933,165.459 290.096,166.753C290.085,166.77 289.762,167.285 289.716,167.228C289.355,166.776 291.151,162.965 291.343,162.419C293.246,157.014 295.894,151.877 298.954,147.043C299.87,145.596 300.804,144.159 301.732,142.721C301.805,142.608 303.198,140.55 303.145,140.524C302.129,140.016 298.802,141.506 297.897,141.759C292.355,143.308 287.185,145.265 282.224,148.218C266.702,157.457 253.355,171.784 244.229,187.259C241.463,191.949 237.059,198.404 236.19,203.905C235.961,205.357 238.043,201.619 238.85,200.391C240.541,197.817 242.687,195.568 244.68,193.231C250.456,186.459 256.625,180.148 263.309,174.269C264.358,173.347 268.528,168.775 270.232,169.116C271.323,169.334 268.894,170.896 268.296,171.835C267.119,173.684 266.066,175.627 265.007,177.546C261.269,184.322 257.99,190.241 258.845,198.147C258.92,198.838 258.987,204.116 259.688,204.416C259.857,204.489 262.83,200.574 263.119,200.284C265.632,197.772 268.912,195.68 272.215,194.359C276.735,192.551 273.357,199.155 276.074,199.298C279.284,199.467 282.371,194.492 285.323,193.48C288.88,192.261 288.045,196.95 291.858,194.118C298.761,188.989 304.362,182.063 309.694,175.299C310.389,174.418 315.499,168.035 316.717,168.035C316.794,168.035 315.134,174.726 315.078,176.635C314.858,184.231 311.464,192.156 321.697,192.418C325.117,192.506 328.353,188.206 331.571,187.401C333.474,186.925 333.57,188.914 334.967,188.969C340.4,189.187 342.244,185.466 345.427,181.892C352.029,174.48 357.825,171.279 358.064,172.157C358.343,173.18 351.273,185.727 349.559,189.942C348.123,193.476 347.061,197.179 346.401,200.937C346.35,201.228 346.094,204.604 345.795,204.653C345.003,204.786 345.049,193.699 345.036,193.706C340.754,195.847 341.771,211.718 339.621,213.867C338.748,214.74 338.957,211.485 338.743,210.27C338.347,208.029 338.602,203.137 337.96,202.191C337.137,200.981 337.387,203.822 333.851,203.837C326.017,203.869 325.683,202.151 320.35,205.817C313.962,210.208 311.808,220.541 310.234,227.51C310.038,228.377 309.158,236.144 308.334,236.38C308.313,236.386 308.156,229.722 308.156,229.232C308.156,222.942 308.38,216.583 307.586,210.329C307.492,209.591 307.396,204.903 306.138,204.903C302.585,204.903 300.003,215.324 299.239,217.703C295.961,227.901 293.521,238.344 290.975,248.74C290.09,252.356 287.187,262.072 287.187,262.072C287.187,262.072 286.874,252.995 286.819,250.438C286.633,241.677 286.32,233.765 284.421,225.219C284.244,224.422 281.85,216.889 280.901,216.889C280.365,216.889 276.479,221.46 274.885,222.037C271.631,223.216 272.625,220.499 271.032,220.651C269.604,220.787 268.543,223.226 263.844,222.761C262.032,222.581 261.857,220.399 260.092,222.369C254.262,228.872 251.024,238.566 247.589,246.401C246.647,248.549 244.616,254.471 244.787,253.407C245.172,250.999 245.178,248.558 245.262,246.128C245.512,238.856 245.811,231.776 245.487,224.494C245.407,222.7 244.62,217.834 242.68,216.776C240.601,215.642 236.835,220.99 235.81,222.238C230.344,228.9 228.109,240.397 226.383,248.598C226.202,249.455 225.2,258.368 224.578,258.524C223.073,258.9 222.832,250.514 222.679,249.918L223.272,246.496C223.25,246.496 223.253,245.413 223.261,244.474ZM251.174,244.947C251.153,244.481 251.197,244.126 251.514,244.261L251.174,244.947C251.194,245.386 251.27,245.924 251.23,246.245C251.08,247.433 250.934,248.621 250.79,249.809C250.325,253.647 250.281,257.349 250.315,261.195C250.46,277.473 256.406,293.324 262.583,308.073C264.321,312.221 266.067,316.363 267.744,320.537C268.275,321.857 268.842,323.163 269.392,324.475C269.691,325.187 271.014,326.696 270.244,326.63C269.444,326.561 267.739,323.576 267.308,323C264.527,319.286 261.954,315.447 259.566,311.47C252.217,299.233 249.2,284.842 247.545,270.781C246.781,264.286 245.965,257.221 248.22,250.922L251.174,244.947ZM548.75,244.947C548.771,244.481 548.728,244.126 548.411,244.261L548.75,244.947C548.731,245.386 548.654,245.924 548.695,246.245C548.845,247.433 548.99,248.621 549.134,249.809C549.599,253.647 549.643,257.349 549.609,261.195C549.464,277.473 543.519,293.324 537.341,308.073C535.604,312.221 533.857,316.363 532.18,320.537C531.65,321.857 531.082,323.163 530.532,324.475C530.234,325.187 528.911,326.696 529.68,326.63C530.48,326.561 532.186,323.576 532.617,323C535.398,319.286 537.97,315.447 540.358,311.47C547.707,299.233 550.724,284.842 552.379,270.781C553.144,264.286 553.96,257.221 551.705,250.922L548.75,244.947ZM575.768,263.709C575.268,263.023 575.181,265.304 574.973,266.126C574.588,267.651 574.158,269.168 573.736,270.683C572.436,275.346 570.94,279.976 569.472,284.588C566.678,293.367 563.555,302.028 560.748,310.801C559.815,313.715 558.777,316.584 557.77,319.473C557.45,320.392 557.112,321.304 556.802,322.227C556.767,322.332 556.298,323.746 556.343,323.747C556.736,323.758 557.808,321.274 557.955,321.004C559.548,318.082 561.105,315.142 562.643,312.191C569.025,299.94 574.326,285.597 575.54,271.704L575.768,263.709ZM224.156,263.709C224.656,263.023 224.743,265.304 224.951,266.126C225.336,267.651 225.766,269.168 226.188,270.683C227.488,275.346 228.984,279.976 230.453,284.588C233.247,293.367 236.369,302.028 239.177,310.801C240.11,313.715 241.147,316.584 242.154,319.473C242.474,320.392 242.812,321.304 243.123,322.227C243.158,322.332 243.627,323.746 243.582,323.747C243.189,323.758 242.117,321.274 241.97,321.004C240.376,318.082 238.819,315.142 237.282,312.191C230.899,299.94 225.598,285.597 224.385,271.704L224.156,263.709ZM498.755,237.573L498.747,237.38C498.742,237.257 498.706,236.31 498.636,236.429L498.755,237.573C498.783,238.262 498.803,238.951 498.808,239.641C498.826,241.863 498.73,244.068 498.459,246.274C497.653,252.828 495.686,259.242 493.704,265.519C490.033,277.147 485.885,289.649 478.862,299.744C476.295,303.433 473.541,307.095 470.573,310.473C470.229,310.864 465.992,315.397 466.142,315.569C466.506,315.986 469.997,313.448 470.339,313.23C474.721,310.439 479.213,307.701 482.851,303.943C496.403,289.944 502.092,270.051 500.135,250.85L498.755,237.573ZM301.17,237.573L301.178,237.38C301.183,237.257 301.218,236.31 301.288,236.429L301.17,237.573C301.141,238.262 301.122,238.951 301.116,239.641C301.099,241.863 301.195,244.068 301.466,246.274C302.272,252.828 304.239,259.242 306.221,265.519C309.892,277.147 314.04,289.649 321.063,299.744C323.63,303.433 326.384,307.095 329.351,310.473C329.696,310.864 333.932,315.397 333.783,315.569C333.418,315.986 329.928,313.448 329.585,313.23C325.204,310.439 320.711,307.701 317.074,303.943C303.521,289.944 297.832,270.051 299.789,250.85L301.17,237.573ZM523.217,251.78C523.278,252.534 523.09,253.913 523.078,254.239C522.97,257.138 522.996,260.02 522.539,262.895C520.688,274.548 519.599,285.849 514.102,296.502C512.303,299.987 510.399,303.406 508.504,306.839C508.285,307.236 505.588,312.282 505.683,312.313C506.099,312.449 507.782,310.124 507.994,309.886C510.37,307.211 512.72,304.485 514.85,301.608C523.556,289.845 527.493,271.661 524.746,257.261L523.217,251.78C523.199,251.561 523.16,251.394 523.089,251.322L523.217,251.78ZM276.708,251.78C276.646,252.534 276.835,253.913 276.847,254.239C276.954,257.138 276.929,260.02 277.386,262.895C279.237,274.548 280.326,285.849 285.823,296.502C287.621,299.987 289.525,303.406 291.42,306.839C291.64,307.236 294.337,312.282 294.242,312.313C293.825,312.449 292.143,310.124 291.931,309.886C289.554,307.211 287.204,304.485 285.075,301.608C276.369,289.845 272.432,271.661 275.179,257.261L276.708,251.78C276.726,251.561 276.765,251.394 276.836,251.322L276.708,251.78Z" style="fill : rgb(calc(var(--color_hairs_r, 38) + 142), calc(var(--color_hairs_g, 183) + 61), calc(var(--color_hairs_b, 200) + 53))"/>
                <path d="M359.648,220.614C358.955,220.999 356.873,218.761 356.536,218.359C354.004,215.345 351.854,211.61 351.431,207.676C350.424,198.317 356.293,188.29 363.708,182.876C374.377,175.086 389.318,181.094 395.741,191.605C397.55,194.565 399.081,197.634 400.226,200.911C400.335,201.223 400.901,204.144 401.097,204.177C401.293,204.209 401.567,202.82 401.597,202.696C401.973,201.146 402.187,199.563 402.522,198.005C403.267,194.546 405.739,191.26 408.03,188.666C410.195,186.215 412.404,184.252 415.257,182.642C417.861,181.172 420.733,179.973 423.687,179.447C434.929,177.445 443.462,186.475 447.23,196.122C449.19,201.138 449.037,205.427 448.651,210.675C448.507,212.63 448.378,215.644 446.534,216.803C444.481,218.092 441.147,217.872 438.844,218.016C432.605,218.406 426.353,218.476 420.106,218.658C403.912,219.13 387.401,221.605 371.208,220.449" style="fill: rgb(var(--color_hairs_r, 38), var(--color_hairs_g, 183), var(--color_hairs_b, 200))"/>
                <path d="M399.679,95.958L392.759,91.619C388.621,89.352 384.67,87.514 380.854,86.858C382.402,87.852 383.188,89.153 386.62,92.071C391.678,96.37 394.593,101.476 396.369,108.245C397.659,113.163 396.543,115.439 396.543,115.439C396.543,115.439 392.606,115.315 391.611,114.778C386.705,112.13 381.777,109.393 376.653,107.179C373.998,106.032 371.321,104.956 368.586,104.011C367.627,103.68 366.674,103.342 365.742,102.939C365.646,102.898 364.426,102.282 364.46,102.257C364.654,102.112 365.891,102.943 366.041,103.029C367.698,103.976 369.274,105.13 370.676,106.424C376.632,111.922 382.415,117.836 387.141,124.363C388.437,126.152 390.152,129.389 391.385,131.222C391.48,131.362 390.123,131.248 388.151,131.245C384.783,131.239 378.62,130.72 378.361,130.979C377.992,131.348 380.249,131.932 380.743,132.102C381.764,132.454 382.697,133.004 383.581,133.617C386.157,135.404 393.088,144.932 392.737,144.54C387.829,139.053 381.898,135.086 382.724,135.995C393.003,147.316 394.725,155.068 396.384,162.037C396.614,163.002 397.757,166.971 397.625,168.339C397.621,168.387 396.373,167.06 396.252,166.96C394.942,165.874 393.524,164.939 391.989,164.199C387.728,162.147 382.916,162.315 378.203,162.315C377.721,162.315 381.594,163.03 382.501,163.431C385.23,164.639 387.407,165.456 389.677,167.385C393.589,170.71 395.841,175.097 398.462,179.404C398.668,179.743 399.727,184.218 400.042,184.218C400.047,184.218 401.712,179.719 402.235,178.673C403.837,175.469 405.767,171.894 408.347,169.405C410.721,167.115 413.563,165.79 416.463,164.217C417.389,163.715 421.562,162.611 421.551,162.589C421.41,162.308 417.693,162.318 417.391,162.331C413.787,162.49 409.845,162.233 406.687,164.292C405.633,164.979 404.388,165.831 403.6,166.804C403.454,166.985 402.259,168.696 402.366,168.145C403.965,159.92 406.453,148.756 412.044,142.216C414.334,139.537 417.043,137.322 419.732,135.066C420.027,134.819 423.654,131.469 423.637,131.455C423.367,131.24 420.988,132.834 420.721,132.982C418.28,134.341 415.874,135.785 413.624,137.444C413.258,137.714 411.786,139.306 411.325,139.306C410.893,139.306 413.027,137.013 413.577,136.456C415.152,134.857 416.932,133.467 418.804,132.234C418.937,132.147 421.524,130.511 421.523,130.509C421.396,130.319 419.325,130.75 419.122,130.773C416.597,131.057 414.061,131.199 411.529,131.402C411.337,131.417 408.986,131.849 408.912,131.725C408.759,131.471 411.717,126.043 412.751,124.384C417.321,117.047 423.817,112.037 430.7,106.843C432.579,105.425 434.246,104.048 436.224,102.778C436.405,102.662 438.111,101.742 438.003,101.46C437.882,101.147 436.313,101.614 436.11,101.658C433.99,102.119 431.894,102.656 429.817,103.287C423.416,105.231 417.035,107.705 411.277,111.143C409.081,112.454 406.995,113.901 405.049,115.563C404.941,115.655 403.405,116.3 403.294,116.226C403.039,116.056 403.409,109.476 403.884,107.44C405.278,101.455 408.985,97.514 412.702,92.663C414.122,90.81 416.696,89.355 418.616,88.029C420.381,86.81 421.199,86.736 421.347,86.657C423.735,85.38 417.135,87.203 416.97,87.276C414.147,88.515 410.718,89.467 408.037,90.999C405.525,92.434 402.041,94.291 399.679,95.958Z" style="fill: rgb(var(--color_hairs_r, 38), var(--color_hairs_g, 183), var(--color_hairs_b, 200))"/>
                <path d="M242.869,322.749C242.569,322.697 242.396,327.215 242.396,327.442C242.396,332.35 243.098,337.294 243.636,342.166C244.53,350.272 245.224,358.402 246.342,366.481C246.618,368.483 246.548,373.81 248.048,375.36C248.244,375.562 249.199,369.928 249.241,369.481C249.584,365.885 249.777,362.275 249.994,358.67C250.568,349.158 252.618,332.919 245.302,324.79L242.869,322.749ZM557.164,322.749C557.464,322.697 557.638,327.215 557.638,327.442C557.638,332.35 556.936,337.294 556.398,342.166C555.504,350.272 554.81,358.402 553.692,366.481C553.415,368.483 553.486,373.81 551.986,375.36C551.79,375.562 550.835,369.928 550.793,369.481C550.45,365.885 550.257,362.275 550.039,358.67C549.466,349.158 547.416,332.919 554.732,324.79L557.164,322.749ZM252.58,240.598C252.586,240.52 251.974,241.326 251.913,241.414C251.445,242.078 250.956,242.726 250.501,243.399C249.256,245.237 248.088,247.129 246.988,249.058C243.667,254.883 242.503,261.963 241.289,268.467C237.921,286.52 238.855,303.985 247.608,320.357C249.849,324.548 252.733,327.495 256.053,330.815C256.866,331.628 258.257,333.767 259.339,334.161C259.399,334.183 259.14,333.389 259.126,333.348C258.923,332.77 258.718,332.192 258.533,331.608C257.947,329.767 257.485,327.893 257.06,326.009C255.772,320.305 255.152,314.457 254.493,308.653C252.255,288.915 241.774,269.741 249.641,249.811L252.58,240.598ZM547.453,240.598C547.447,240.52 548.06,241.326 548.121,241.414C548.588,242.078 549.077,242.726 549.533,243.399C550.777,245.237 551.946,247.129 553.046,249.058C556.366,254.883 557.531,261.963 558.744,268.467C562.112,286.52 561.179,303.985 552.426,320.357C550.185,324.548 547.301,327.495 543.981,330.815C543.168,331.628 541.777,333.767 540.695,334.161C540.635,334.183 540.894,333.389 540.908,333.348C541.111,332.77 541.315,332.192 541.501,331.608C542.087,329.767 542.549,327.893 542.974,326.009C544.262,320.305 544.882,314.457 545.54,308.653C547.779,288.915 558.26,269.741 550.393,249.811L547.453,240.598ZM274.768,262.746C274.57,264.277 273.942,266.472 273.866,267.169C273.315,272.27 272.969,277.405 272.672,282.527C271.938,295.169 273.975,307.121 276.575,319.444C277.388,323.296 277.514,329.1 279.486,332.551C279.493,332.563 279.691,330.783 279.695,330.527C279.715,329.207 279.696,327.885 279.682,326.565C279.637,322.316 279.617,318.067 279.617,313.818C279.617,307.803 280.296,301.608 279.48,295.62C278.623,289.34 276.166,283.445 275.178,277.188L274.768,262.746C274.849,262.12 274.858,261.604 274.728,261.348L274.768,262.746ZM525.266,262.746C525.464,264.277 526.092,266.472 526.168,267.169C526.719,272.27 527.065,277.405 527.362,282.527C528.096,295.169 526.059,307.121 523.459,319.444C522.646,323.296 522.52,329.1 520.548,332.551C520.541,332.563 520.343,330.783 520.339,330.527C520.319,329.207 520.338,327.885 520.352,326.565C520.397,322.316 520.417,318.067 520.417,313.818C520.417,307.803 519.738,301.608 520.554,295.62C521.411,289.34 523.868,283.445 524.856,277.188L525.266,262.746C525.185,262.12 525.176,261.604 525.306,261.348L525.266,262.746ZM301.611,232.226C301.567,231.917 301.342,232.791 301.241,233.087C301.058,233.625 300.86,234.158 300.676,234.696C300.082,236.434 299.565,238.195 299.028,239.95C297.395,245.289 296.142,250.702 295.19,256.203C292.282,273.022 294.572,288.534 300.138,304.595C301.837,309.499 304.367,314.144 306.776,318.726C307.578,320.252 308.399,321.766 309.23,323.276C309.312,323.424 310.595,325.677 310.673,325.599C311.094,325.178 309.675,321.737 309.537,321.278C308.075,316.418 306.603,311.559 305.405,306.625C301.315,289.782 298.521,270.683 299.511,253.187L301.611,232.226ZM498.423,232.226C498.467,231.917 498.692,232.791 498.792,233.087C498.976,233.625 499.173,234.158 499.357,234.696C499.951,236.434 500.468,238.195 501.005,239.95C502.639,245.289 503.892,250.702 504.843,256.203C507.752,273.022 505.461,288.534 499.896,304.595C498.196,309.499 495.666,314.144 493.258,318.726C492.456,320.252 491.635,321.766 490.804,323.276C490.722,323.424 489.439,325.677 489.361,325.599C488.94,325.178 490.359,321.737 490.497,321.278C491.959,316.418 493.43,311.559 494.629,306.625C498.718,289.782 501.513,270.683 500.522,253.187L498.423,232.226ZM325.916,222.588C325.718,222.588 325.71,226.927 325.705,227.131C325.555,232.322 325.471,237.571 325.992,242.744C327.926,261.958 334.77,284.019 345.299,300.398C348.36,305.16 351.628,309.955 355.122,314.405C356.28,315.879 357.479,317.32 358.68,318.759C359.116,319.281 359.553,319.802 360.011,320.306C360.252,320.571 360.698,321.444 360.749,321.089C360.925,319.856 357.834,315.987 357.289,314.927C354.494,309.493 351.976,303.947 349.574,298.329C344.88,287.349 341.44,276.196 337.551,264.962C334.539,256.259 330.69,248.063 329.268,238.9L325.916,222.588ZM474.118,222.588C474.316,222.588 474.323,226.927 474.329,227.131C474.479,232.322 474.563,237.571 474.042,242.744C472.108,261.958 465.264,284.019 454.735,300.398C451.674,305.16 448.406,309.955 444.911,314.405C443.754,315.879 442.555,317.32 441.354,318.759C440.918,319.281 440.48,319.802 440.023,320.306C439.782,320.571 439.336,321.444 439.285,321.089C439.109,319.856 442.2,315.987 442.744,314.927C445.54,309.493 448.058,303.947 450.459,298.329C455.154,287.349 458.594,276.196 462.482,264.962C465.495,256.259 469.343,248.063 470.765,238.9L474.118,222.588ZM347.289,185.323C346.456,186.037 346.023,188.119 345.645,189.098C344.203,192.835 343.067,196.583 342.257,200.514C340.995,206.643 340.188,212.729 340.828,218.985C342.142,231.835 348.391,242.76 353.895,254.153C356.629,259.813 359.662,265.27 362.746,270.745C362.967,271.137 365.339,275.869 365.611,275.778C365.751,275.731 365.003,273.907 364.972,273.826C364.094,271.534 363.205,269.247 362.315,266.96C360.074,261.198 357.919,255.4 355.821,249.584C349.851,233.042 344.052,213.818 344.973,195.86L347.289,185.323ZM452.744,185.323C453.577,186.037 454.011,188.119 454.389,189.098C455.831,192.835 456.967,196.583 457.776,200.514C459.038,206.643 459.846,212.729 459.206,218.985C457.892,231.835 451.643,242.76 446.139,254.153C443.404,259.813 440.372,265.27 437.288,270.745C437.067,271.137 434.695,275.869 434.422,275.778C434.282,275.731 435.031,273.907 435.062,273.826C435.94,271.534 436.829,269.247 437.719,266.96C439.96,261.198 442.114,255.4 444.213,249.584C450.183,233.042 455.982,213.818 455.061,195.86L452.744,185.323Z" style="fill: rgb(var(--color_hairs_r, 38), var(--color_hairs_g, 183), var(--color_hairs_b, 200))"/>
                <g>
                    <path d="M208.689,295.093C208.232,294.734 209.253,296.11 209.538,296.616C210.097,297.608 210.667,298.601 211.269,299.567C213.155,302.597 214.998,305.793 217.283,308.548C221.923,314.14 227.132,321.635 234.479,323.825" style="fill:none;stroke:black;stroke-width:2.1px;"/>
                    <path d="M193.58,253.248C193.461,254.154 194.662,255.994 195.007,256.762C196.509,260.101 198.286,263.277 200.161,266.416C207.409,278.552 217.731,291.536 230.568,298.112" style="fill:none;stroke:black;stroke-width:2.1px;"/>
                    <path d="M201.106,250.497C200.679,250.471 201.509,251.249 201.711,251.626C202.078,252.31 202.472,252.981 202.865,253.651C204.149,255.844 205.528,257.955 207.13,259.93C211.621,265.469 217.575,270.835 223.978,274.114" style="fill:none;stroke:black;stroke-width:2.1px;"/>
                    <path d="M212.971,242.64C212.688,242.227 213.502,243.489 213.753,243.923C214.295,244.856 214.86,245.78 215.477,246.665C216.635,248.328 220.352,254.388 222.886,254.272" style="fill:none;stroke:black;stroke-width:2.1px;"/>
                    <path d="M577.491,252.747C581.688,251.788 586.21,246.131 588.74,242.589" style="fill:none;stroke:black;stroke-width:2.1px;"/>
                    <path d="M576.716,274.43C576.592,274.322 579.641,272.132 579.786,272.026C581.742,270.597 583.645,269.108 585.504,267.554C591.077,262.897 595.204,257.003 599.433,251.189" style="fill:none;stroke:black;stroke-width:2.1px;"/>
                    <path d="M569.18,299.107C573.033,296.709 577.298,293.644 579.981,291.068C591.054,280.439 598.801,268.031 605.997,254.667" style="fill:none;stroke:black;stroke-width:2.1px;"/>
                    <path d="M562.191,323.883C565.777,323.286 568.131,321.977 571.102,319.92C579.687,313.976 585.938,304.285 591.325,295.531" style="fill:none;stroke:black;stroke-width:2.1px;"/>
                </g>
            </g>
            <g>
                <g>
                    <path d="M400.615,209.051C397.768,208.881 392.72,208.905 389.869,208.905C380.148,208.905 370.734,209.944 361.256,212.035C360.842,212.126 353.384,213.705 353.384,213.943C353.384,219.639 360.839,229.241 364.359,233.125C364.835,233.65 370.228,238.542 370.015,238.969C369.878,239.243 363.56,235.031 363.123,234.684C361.692,233.547 360.368,232.243 359.107,230.922C356.839,228.549 354.666,226.042 352.941,223.239C350.387,219.088 347.687,214.865 345.983,210.275C345.936,210.149 345.484,208.475 345.324,208.475L345.324,213.056C345.324,218.242 346.344,223.495 347.621,228.504C351.025,241.856 356.401,255.009 361.397,267.776C364.593,275.944 368.495,283.997 371.701,292.159C374.048,298.133 375.054,303.414 376.664,309.655C376.765,310.045 377.831,315.618 377.806,315.593C375.153,312.892 370.904,303.806 369.776,302.036C361.809,289.536 350.014,282.205 341.509,270.551C339.894,268.338 333.369,254.841 333.369,254.841C333.369,254.841 338.295,272.259 339.494,276.475C343.145,289.31 348.033,300.543 354.042,312.409C355.761,315.802 362.659,327.118 362.076,327.118C358.927,327.118 353.08,321.647 346.434,319.709C327.984,314.33 316.374,306.59 307.254,288.148C304.324,282.222 301.63,276.119 300.941,269.463C300.341,263.676 300.295,257.994 299.864,257.886C299.543,257.806 298.519,274.674 299.083,280.367C300.359,293.25 302.383,304.244 305.832,315.78C306.445,317.832 310.096,328.185 310.096,328.185C310.096,328.185 304.667,323.812 303.138,322.098C296.952,315.159 289.49,308.539 284.634,300.562C284.032,299.573 280.327,292.8 279.326,292.675C279.107,292.648 278.498,301.686 278.44,302.321C277.648,310.868 276.292,319.522 276.492,328.126C276.511,328.96 277.745,334.467 277.225,334.858C277.224,334.858 272.159,329.594 271.831,329.133C267.53,323.098 262.836,317.289 258.827,311.052C257.6,309.143 256.496,307.012 255.724,304.873C255.658,304.689 254.649,301.555 254.649,301.555C254.649,301.555 253.95,304.207 253.239,305.356C251.071,308.858 247.473,313.513 248.9,317.997C250.427,322.795 257.515,336.617 257.232,336.485C254.037,334.987 246.693,326.561 246.693,326.561C246.693,326.561 246.925,334.816 246.925,336.213C246.925,344.353 247.191,351.7 247.051,360.925C247.028,362.396 247.565,369.93 246.443,371.053C245.46,372.036 244.183,354.508 243.856,351.987C242.819,343.991 232.705,304.948 230.784,297.121" style="fill:none;stroke:black;stroke-width:2.1px;"/>
                    <path d="M356.964,172.984C356.531,173.75 354.994,174.545 354.331,175.147C352.715,176.614 351.368,178.279 350.219,180.135C344.567,189.266 344.062,199.579 345.649,209.896" style="fill:none;stroke:black;stroke-width:2.1px;"/>
                    <path d="M353.119,214.275C352.988,214.402 352.22,210.81 352.12,209.8C351.829,206.86 351.946,203.851 352.438,200.941C353.977,191.829 360.102,182.169 369.443,179.732C373.711,178.618 380.537,179.325 384.378,181.606C394.019,187.333 398.84,194.405 399.375,208.835" style="fill:none;stroke:black;stroke-width:2.1px;"/>
                    <path d="M312.666,131.152C312.111,132.154 310.01,133.338 309.156,134.161C306.298,136.92 303.349,139.799 301.083,143.08C292.783,155.096 286.933,170.297 284.205,184.619" style="fill:none;stroke:black;stroke-width:2.1px;"/>
                    <path d="M301.608,231.383C301.915,231.285 301.513,232.019 301.457,232.336C301.334,233.032 301.217,233.727 301.129,234.429C300.857,236.577 300.65,238.732 300.399,240.882C299.669,247.15 299.698,253.486 299.845,259.784" style="fill:none;stroke:black;stroke-width:2.1px;"/>
                    <path d="M326.033,221.887C326.107,221.898 326.285,224.49 326.299,224.625C326.637,227.792 327.022,230.97 327.583,234.107C329.111,242.651 330.986,251.054 334.686,258.917" style="fill:none;stroke:black;stroke-width:2.1px;"/>
                    <path d="M253.189,240.01C252.454,241.847 250.709,245.338 249.801,248.1C248.06,253.399 247.03,258.661 246.054,264.109C242.88,281.83 241.474,300.406 248.27,317.396" style="fill:none;stroke:black;stroke-width:2.1px;"/>
                    <path d="M253.991,300.921C253.591,300.557 253.495,298.328 253.355,297.801C252.551,294.786 251.708,291.769 251.031,288.723C248.416,276.953 246.239,264.761 248.642,252.749" style="fill:none;stroke:black;stroke-width:2.1px;"/>
                    <path d="M280.212,293.054C279.485,293.327 279.715,291.582 279.465,290.847C278.572,288.229 277.864,285.563 277.108,282.902C274.095,272.288 273.299,260.728 276.844,250.095" style="fill:none;stroke:black;stroke-width:2.1px;"/>
                    <path d="M246.573,326.441C235.528,314.351 226.302,286.553 224.415,272.867C222.673,260.233 223.139,248.378 223.758,238.918C224.925,221.103 233.437,177.134 260.267,149.96C268.674,141.446 278.375,131.231 290.386,128.07C298.173,126.021 311.418,131.352 311.418,131.352C311.418,131.352 327.04,122.259 334.91,121.116C349.352,119.02 357.366,122.433 368.938,127.134C376.688,130.283 384.767,133.676 393.677,145.599" style="fill:none;stroke:black;stroke-width:2.1px;"/>
                </g>
                <g transform="matrix(-1,0,0,1,800.234,0)">
                    <path d="M399.232,208.99C396.385,208.82 392.72,208.905 389.869,208.905C380.148,208.905 370.734,209.944 361.256,212.035C360.842,212.126 353.384,213.705 353.384,213.943C353.384,219.639 360.839,229.241 364.359,233.125C364.835,233.65 370.228,238.542 370.015,238.969C369.878,239.243 363.56,235.031 363.123,234.684C361.692,233.547 360.368,232.243 359.107,230.922C356.839,228.549 354.666,226.042 352.941,223.239C350.387,219.088 347.687,214.865 345.983,210.275C345.936,210.149 345.484,208.475 345.324,208.475L345.324,213.056C345.324,218.242 346.344,223.495 347.621,228.504C351.025,241.856 356.401,255.009 361.397,267.776C364.593,275.944 368.495,283.997 371.701,292.159C374.048,298.133 375.054,303.414 376.664,309.655C376.765,310.045 377.831,315.618 377.806,315.593C375.153,312.892 370.904,303.806 369.776,302.036C361.809,289.536 350.014,282.205 341.509,270.551C339.894,268.338 333.369,254.841 333.369,254.841C333.369,254.841 338.295,272.259 339.494,276.475C343.145,289.31 348.033,300.543 354.042,312.409C355.761,315.802 362.659,327.118 362.076,327.118C358.927,327.118 353.08,321.647 346.434,319.709C327.984,314.33 316.374,306.59 307.254,288.148C304.324,282.222 301.63,276.119 300.941,269.463C300.341,263.676 300.295,257.994 299.864,257.886C299.543,257.806 298.519,274.674 299.083,280.367C300.359,293.25 302.383,304.244 305.832,315.78C306.445,317.832 310.096,328.185 310.096,328.185C310.096,328.185 304.667,323.812 303.138,322.098C296.952,315.159 289.49,308.539 284.634,300.562C284.032,299.573 280.327,292.8 279.326,292.675C279.107,292.648 278.498,301.686 278.44,302.321C277.648,310.868 276.292,319.522 276.492,328.126C276.511,328.96 277.745,334.467 277.225,334.858C277.224,334.858 272.159,329.594 271.831,329.133C267.53,323.098 262.836,317.289 258.827,311.052C257.6,309.143 256.496,307.012 255.724,304.873C255.658,304.689 254.649,301.555 254.649,301.555C254.649,301.555 253.95,304.207 253.239,305.356C251.071,308.858 247.473,313.513 248.9,317.997C250.427,322.795 257.515,336.617 257.232,336.485C254.037,334.987 246.693,326.561 246.693,326.561C246.693,326.561 246.925,334.816 246.925,336.213C246.925,344.353 247.191,351.7 247.051,360.925C247.028,362.396 247.565,369.93 246.443,371.053C245.46,372.036 244.183,354.508 243.856,351.987C242.819,343.991 238.19,320.033 231.433,300.837" style="fill:none;stroke:black;stroke-width:2.1px;"/>
                    <path d="M356.964,172.984C356.531,173.75 354.994,174.545 354.331,175.147C352.715,176.614 351.368,178.279 350.219,180.135C344.567,189.266 344.062,199.579 345.649,209.896" style="fill:none;stroke:black;stroke-width:2.1px;"/>
                    <path d="M353.119,214.275C352.988,214.402 352.22,210.81 352.12,209.8C351.829,206.86 351.946,203.851 352.438,200.941C353.977,191.829 360.102,182.169 369.443,179.732C373.711,178.618 380.537,179.325 384.378,181.606C394.019,187.333 398.711,194.165 399.246,208.595" style="fill:none;stroke:black;stroke-width:2.1px;"/>
                    <path d="M312.666,131.152C312.111,132.154 310.01,133.338 309.156,134.161C306.298,136.92 303.349,139.799 301.083,143.08C292.783,155.096 286.933,170.297 284.205,184.619" style="fill:none;stroke:black;stroke-width:2.1px;"/>
                    <path d="M301.608,231.383C301.915,231.285 301.513,232.019 301.457,232.336C301.334,233.032 301.217,233.727 301.129,234.429C300.857,236.577 300.65,238.732 300.399,240.882C299.669,247.15 299.698,253.486 299.845,259.784" style="fill:none;stroke:black;stroke-width:2.1px;"/>
                    <path d="M326.033,221.887C326.107,221.898 326.285,224.49 326.299,224.625C326.637,227.792 327.022,230.97 327.583,234.107C329.111,242.651 330.986,251.054 334.686,258.917" style="fill:none;stroke:black;stroke-width:2.1px;"/>
                    <path d="M253.189,240.01C252.454,241.847 250.709,245.338 249.801,248.1C248.06,253.399 247.03,258.661 246.054,264.109C242.88,281.83 241.474,300.406 248.27,317.396" style="fill:none;stroke:black;stroke-width:2.1px;"/>
                    <path d="M253.991,300.921C253.591,300.557 253.495,298.328 253.355,297.801C252.551,294.786 251.708,291.769 251.031,288.723C248.416,276.953 246.239,264.761 248.642,252.749" style="fill:none;stroke:black;stroke-width:2.1px;"/>
                    <path d="M280.212,293.054C279.485,293.327 279.715,291.582 279.465,290.847C278.572,288.229 277.864,285.563 277.108,282.902C274.095,272.288 273.299,260.728 276.844,250.095" style="fill:none;stroke:black;stroke-width:2.1px;"/>
                    <path d="M246.573,326.441C235.528,314.351 226.302,286.553 224.415,272.867C222.673,260.233 223.139,248.378 223.758,238.918C224.925,221.103 233.437,177.134 260.267,149.96C268.674,141.446 278.375,131.231 290.386,128.07C298.173,126.021 311.418,131.352 311.418,131.352C311.418,131.352 327.04,122.259 334.91,121.116C349.352,119.02 357.366,122.433 368.938,127.134C376.688,130.283 384.767,133.676 393.677,145.599" style="fill:none;stroke:black;stroke-width:2.1px;"/>
                </g>
                <g>
                    <path d="M398.993,120.24C399.751,120.874 400.378,118.828 401.109,118.163C402.48,116.916 404.037,115.768 405.582,114.747C410.658,111.39 416.1,108.786 421.761,106.581C439.392,99.714 461.724,94.729 480.776,98.301" style="fill:none;stroke:black;stroke-width:2.1px;"/>
                    <path d="M318.165,98.302C318.411,98.676 324.029,97.707 324.499,97.681C330.919,97.335 337.476,97.678 343.86,98.423C363.745,100.744 382.795,108.493 399.048,120.092" style="fill:none;stroke:black;stroke-width:2.1px;"/>
                    <path d="M359.14,81.845C359.308,81.51 367.6,81.981 370.346,82.376C380.54,83.84 390.997,86.087 399.496,91.187" style="fill:none;stroke:black;stroke-width:2.1px;"/>
                    <path d="M442.867,81.281C442.867,81.281 432.528,81.982 428.524,82.605C415.238,84.674 407.705,85.813 399.953,90.838" style="fill:none;stroke:black;stroke-width:2.1px;"/>
                    <path d="M399.587,90.734C399.45,90.553 400.065,208.313 400.065,208.313" style="fill:none;stroke:black;stroke-width:2.1px;"/>
                    <path d="M353.854,201.347C353.761,200.942 354.692,201.386 355.091,201.504C356.489,201.916 357.854,202.397 359.174,203.021C362.588,204.632 365.42,207.206 367.493,210.369" style="fill:none;stroke:black;stroke-width:2.1px;"/>
                    <path d="M357.908,189.146C369.664,188.01 377.13,198.833 381.259,208.448" style="fill:none;stroke:black;stroke-width:2.1px;"/>
                    <path d="M364.995,182.024C364.944,182.058 365.491,182.143 365.531,182.144C365.858,182.15 366.184,182.147 366.511,182.152C367.593,182.17 368.692,182.219 369.768,182.33C372.769,182.641 375.493,184.042 377.93,185.751C385.255,190.886 391.411,200.175 393.939,208.682" style="fill:none;stroke:black;stroke-width:2.1px;"/>
                    <path d="M406.268,208.583C406.842,207.799 407.137,205.936 407.523,204.949C408.471,202.523 409.592,200.132 410.924,197.891C416.448,188.598 425.581,182.333 436.477,182.333" style="fill:none;stroke:black;stroke-width:2.1px;"/>
                    <path d="M418.776,208.872C418.777,208.872 419.128,207.75 419.148,207.692C419.415,206.905 419.718,206.131 420.036,205.363C420.998,203.037 422.333,200.796 423.847,198.789C428.438,192.703 434.849,188.887 442.531,188.887" style="fill:none;stroke:black;stroke-width:2.1px;"/>
                    <path d="M431.907,210.534C431.918,210.561 432.256,210.071 432.293,210.021C432.573,209.642 432.866,209.274 433.167,208.912C434.06,207.838 435.014,206.836 436.094,205.947C439.286,203.323 443.364,201.407 447.559,201.407" style="fill:none;stroke:black;stroke-width:2.1px;"/>
                    <path d="M245.456,302.574C246.274,302.151 247.304,302.598 248.218,302.483C250.21,302.231 251.762,301.908 253.444,300.831" style="fill:none;stroke:black;stroke-width:2.1px;"/>
                    <path d="M244.728,280.828C245.182,280.335 247.505,280.015 248.344,279.554" style="fill:none;stroke:black;stroke-width:2.1px;"/>
                    <path d="M546.919,301.424C546.525,300.519 548.82,301.963 549.791,302.142C551.664,302.487 553.6,303.265 555.67,302.48" style="fill:none;stroke:black;stroke-width:2.1px;"/>
                    <path d="M551.938,280.416C552.856,279.99 554.614,280.395 555.658,280.245" style="fill:none;stroke:black;stroke-width:2.1px;"/>
                </g>
            </g>
        </g>
    </g>
</svg>