<svg viewBox="0 0 800 800"
  xmlns="http://www.w3.org/2000/svg">
  <g id="hairstyles-back">
    <g id="hairstyle-5-back">
      <g>
        <path d="M283.716,564.487C289.715,559.601 299.957,559.198 306.789,562.158C309.48,563.325 311.978,564.836 314.245,566.699C314.443,566.86 317.468,569.59 317.499,569.559C317.87,569.188 316.633,566.408 316.506,566.024C315.35,562.51 313.887,559.105 310.517,557.374C303.634,553.84 292.07,556.119 286.248,561.109L283.716,564.487Z" style="fill: rgb(var(--color_hairs_r, 38), var(--color_hairs_g, 183), var(--color_hairs_b, 200))" />
        <clipPath id="_clip1_hair5">
          <path d="M283.716,564.487C289.715,559.601 299.957,559.198 306.789,562.158C309.48,563.325 311.978,564.836 314.245,566.699C314.443,566.86 317.468,569.59 317.499,569.559C317.87,569.188 316.633,566.408 316.506,566.024C315.35,562.51 313.887,559.105 310.517,557.374C303.634,553.84 292.07,556.119 286.248,561.109L283.716,564.487Z" />
        </clipPath>
        <g clip-path="url(#_clip1_hair5)">
          <path d="M298.967,553.724C298.822,553.565 299.756,554.655 299.999,554.862C300.881,555.618 301.887,556.198 302.767,556.94C305.078,558.89 305.788,562.271 308.196,564.01C308.566,564.277 318.693,569.126 319.034,568.688C322.208,564.603 322.193,560.224 322.008,559.858C320.23,556.339 305.922,553.279 301.594,552.447" style="fill: rgb(calc(var(--color_hairs_r, 38) + 53), calc(var(--color_hairs_g, 183) - 90), calc(var(--color_hairs_b, 200) - 30))" />
        </g>
        <path d="M283.716,564.487C289.715,559.601 299.957,559.198 306.789,562.158C309.48,563.325 311.978,564.836 314.245,566.699C314.443,566.86 317.468,569.59 317.499,569.559C317.87,569.188 316.633,566.408 316.506,566.024C315.35,562.51 313.887,559.105 310.517,557.374C303.634,553.84 292.07,556.119 286.248,561.109L283.716,564.487Z" style="fill: none; stroke: black; stroke-width: 2.1px" />
        <path d="M287.318,547.856C293.809,546.07 300.282,546.504 305.525,551.31" style="fill: none; stroke: black; stroke-width: 2.1px" />
        <path d="M290.794,576.812C290.586,577.041 291.097,576.268 291.292,576.028C291.675,575.555 292.107,575.13 292.547,574.713C293.783,573.541 295.093,572.434 296.501,571.476C300.869,568.503 305.711,567.191 310.923,566.843" style="fill: none; stroke: black; stroke-width: 2.1px" />
        <path d="M306.416,581.111C308.608,579.032 309.597,575.018 311.713,572.6" style="fill: none; stroke: black; stroke-width: 2.1px" />
      </g>
      <g transform="matrix(-1,0,0,1,799.355,0)">
        <path d="M283.716,564.487C289.715,559.601 299.957,559.198 306.789,562.158C309.48,563.325 311.978,564.836 314.245,566.699C314.443,566.86 317.468,569.59 317.499,569.559C317.87,569.188 316.633,566.408 316.506,566.024C315.35,562.51 313.887,559.105 310.517,557.374C303.634,553.84 292.07,556.119 286.248,561.109L283.716,564.487Z" style="fill: rgb(var(--color_hairs_r, 38), var(--color_hairs_g, 183), var(--color_hairs_b, 200))" />
        <clipPath id="_clip2_hair5">
          <path d="M283.716,564.487C289.715,559.601 299.957,559.198 306.789,562.158C309.48,563.325 311.978,564.836 314.245,566.699C314.443,566.86 317.468,569.59 317.499,569.559C317.87,569.188 316.633,566.408 316.506,566.024C315.35,562.51 313.887,559.105 310.517,557.374C303.634,553.84 292.07,556.119 286.248,561.109L283.716,564.487Z" />
        </clipPath>
        <g clip-path="url(#_clip2_hair5)">
          <g transform="matrix(-1,0,0,1,799.355,0)">
            <path d="M503.538,547.979C503.68,547.585 501.438,549.576 501.186,549.857C499.737,551.466 498.339,553.27 497.289,555.166C495.365,558.642 494.02,563.641 491.058,566.343C489.277,567.968 486.746,568.989 484.545,569.877C483.37,570.351 479.181,572.431 477.956,571.268C476.772,570.143 480.623,565.631 481.176,564.851C485.623,558.568 490.897,551.863 497.753,548.103" style="fill: rgb(calc(var(--color_hairs_r, 38) + 53), calc(var(--color_hairs_g, 183) - 90), calc(var(--color_hairs_b, 200) - 30))" />
          </g>
        </g>
        <path d="M283.716,564.487C289.715,559.601 299.957,559.198 306.789,562.158C309.48,563.325 311.978,564.836 314.245,566.699C314.443,566.86 317.468,569.59 317.499,569.559C317.87,569.188 316.633,566.408 316.506,566.024C315.35,562.51 313.887,559.105 310.517,557.374C303.634,553.84 292.07,556.119 286.248,561.109L283.716,564.487Z" style="fill: none; stroke: black; stroke-width: 2.1px" />
        <path d="M287.318,547.856C293.809,546.07 300.282,546.504 305.525,551.31" style="fill: none; stroke: black; stroke-width: 2.1px" />
        <path d="M290.794,576.812C290.586,577.041 291.097,576.268 291.292,576.028C291.675,575.555 292.107,575.13 292.547,574.713C293.783,573.541 295.093,572.434 296.501,571.476C300.869,568.503 305.711,567.191 310.923,566.843" style="fill: none; stroke: black; stroke-width: 2.1px" />
        <path d="M306.416,581.111C308.608,579.032 309.597,575.018 311.713,572.6" style="fill: none; stroke: black; stroke-width: 2.1px" />
      </g>
      <g transform="matrix(1.02239,0,0,1.05274,-2.87569,-14.5073)">
        <ellipse cx="217.409" cy="174.016" rx="85.181" ry="90.328" style="fill: rgb(var(--color_hairs_r, 38), var(--color_hairs_g, 183), var(--color_hairs_b, 200))" />
        <clipPath id="_clip3_hair5">
          <ellipse cx="217.409" cy="174.016" rx="85.181" ry="90.328" />
        </clipPath>
        <g clip-path="url(#_clip3_hair5)">
          <g transform="matrix(0.978096,0,0,0.949902,2.8127,13.7805)">
            <path d="M188.815,235.037C188.899,234.651 186.91,232.948 186.678,232.698C184.578,230.436 182.424,228.146 180.797,225.509C177.125,219.558 173.211,213.201 170.385,206.821C168.619,202.833 166.778,197.991 166.41,193.568C166.273,191.925 169.314,190.293 170.349,189.325C174.203,185.723 178.33,183.588 182.811,180.818C184.309,179.892 188.557,178.523 187.919,175.97C187.611,174.741 183.181,176.614 182.484,176.863C178.01,178.461 173.736,180.509 169.441,182.525C168.846,182.804 165.23,184.995 164.646,184.801C164.249,184.668 164.471,180.643 164.458,180.263C164.325,176.301 164.461,172.002 164.743,168.043C164.813,167.064 164.798,164.589 165.446,163.747C168.152,160.229 174.209,157.879 177.896,155.398C178.328,155.107 181.831,153.231 181.917,152.537C182.328,149.22 173.252,153.48 171.199,154.656C169.661,155.536 166.021,157.17 166.062,157.008C171.747,134.267 189.787,111.698 212.665,104.792C221.594,102.096 229.683,100.159 239.708,101.319C241.781,101.559 247.656,102.204 247.656,102.316C247.656,102.691 241.603,109.084 239.852,111.2C234.079,118.177 228.939,126.082 224.983,133.916C217.865,148.008 212.255,163.286 207.416,178.267C205.963,182.765 205.636,187.433 204.37,191.987C203.869,193.788 203.647,196.638 202.676,198.256C200.777,201.42 198.931,198.751 197.156,201.998C192.901,209.781 189.916,224.605 189.332,233.365" style="fill: rgb(var(--color_hairs_r, 38), var(--color_hairs_g, 183), var(--color_hairs_b, 200))" />
          </g>
          <g transform="matrix(0.978096,0,0,0.949902,2.8127,13.7805)">
            <path d="M122.127,156.804C122.166,156.715 122.193,156.653 122.198,156.643C122.593,155.806 123.005,154.978 123.423,154.154C124.778,151.481 126.194,148.838 127.602,146.194C130.585,140.59 133.565,134.986 136.691,129.46C136.965,128.974 138.999,124.379 139.673,124.379C139.686,124.379 139.047,126.572 139.006,126.71C138.55,128.242 138.236,129.781 138.097,131.373C137.576,137.373 137.044,143.406 136.843,149.427C136.823,150.029 137.028,155.19 137.028,155.19C137.028,155.19 139.618,150.2 140.525,148.896C144.11,143.743 147.313,138.97 152.193,134.977C152.55,134.684 154.111,133.006 156.98,131.344C157.239,131.194 152.082,137.273 149.482,145.508C146.308,155.561 143.384,165.406 141.321,175.719C140.782,178.415 140.134,184.003 140.79,186.628C140.998,187.457 141.823,185.264 142.374,184.61C143.411,183.38 144.472,182.171 145.533,180.961C149.027,176.976 152.573,172.843 156.569,169.346C156.993,168.975 159.817,166.366 160.484,166.588C160.549,166.61 159.465,168.266 159.407,168.349C158.708,169.353 157.999,170.351 157.277,171.339C155.176,174.216 152.808,176.401 150.901,179.408C148.24,183.605 145.219,187.652 143.246,192.228C142.711,193.47 140.925,195.78 141.02,197.199C141.096,198.345 142.877,201.658 143.44,202.607C144.806,204.908 146.499,207.151 147.944,209.32C148.027,209.444 149.912,207.065 150.034,206.917C151.393,205.267 152.812,203.673 154.295,202.134C158.927,197.323 164.304,191.788 170.148,188.463C171.033,187.96 173.553,186.301 174.591,186.531C174.661,186.547 171.393,189.022 171.205,189.242C169.511,191.226 167.169,193.113 165.532,195.146C160.452,201.456 155.419,208.222 152.389,215.804C151.5,218.028 158.186,225.394 160.814,228.628C167.933,237.39 176.643,243.324 187.043,247.622C190.607,249.096 195.398,249.147 198.674,250.999C199.42,251.42 199.069,253.634 199.108,254.318C199.277,257.252 200.604,262.346 197.685,264.35C194.234,266.72 188.141,266.258 184.245,266.103C171.018,265.575 157.864,259.627 149.062,249.704C141.425,241.095 136.357,230.543 132.366,219.842C125.248,200.753 119.2,177.824 122.127,156.804ZM122.282,155.753C122.228,156.102 122.176,156.452 122.127,156.804C122.055,156.97 121.944,157.233 121.861,157.454L121.761,157.856C121.719,157.862 121.775,157.68 121.861,157.454L122.282,155.753C122.9,151.739 123.853,147.797 125.196,143.969L122.282,155.753ZM126.236,125.075C126.216,125.088 126.206,125.096 126.209,125.1L126.236,125.075C126.616,124.83 130.82,123.071 131.25,122.927C132.967,122.35 134.925,121.54 136.736,121.376C140.055,121.074 143.037,122.449 145.652,119.71C154.288,110.663 162.373,102.129 173.645,96.225C175.932,95.027 178.109,93.642 180.315,92.305C180.498,92.194 182.259,90.935 182.462,91.037C182.575,91.094 182.244,93.088 182.233,93.237C182.064,95.435 182.095,97.605 182.286,99.8C183.106,109.226 183.693,118.653 184.296,128.099C184.707,134.538 186.91,140.963 188.131,147.291C188.547,149.449 189.061,151.562 189.552,153.701C189.795,154.76 190.308,156.872 190.308,156.872C190.308,156.872 190.147,155.329 190.079,154.557C189.946,153.041 189.883,151.524 189.85,150.003C189.751,145.413 189.296,140.941 189.195,136.349C188.941,124.788 188.435,113.157 188.032,101.603C187.943,99.048 188.492,88.437 188.492,88.437C188.492,88.437 192.005,87.545 193.181,87.209C194.107,86.945 199.207,85.309 199.843,86.01C200.422,86.646 200.05,88.68 200.05,89.471C200.05,92.636 200.014,95.794 200.286,98.952C201.362,111.429 202.068,124.398 204.496,136.709C205.195,140.252 205.863,143.86 206.926,147.314C207.084,147.829 207.496,150.169 208.072,150.416C208.105,150.43 208.071,148.441 208.064,148.315C207.985,146.861 207.914,145.406 207.858,143.952C207.695,139.714 207.735,135.47 207.575,131.231C207.148,119.912 205.924,108.111 208.033,96.904C208.641,93.679 210.011,87.557 212.27,84.786C213.266,83.565 222.783,84.028 226.125,84.367C235.189,85.287 243.682,87.441 251.651,92.061C254.706,93.832 258.452,96.262 261.194,98.527C261.999,99.191 263.58,100.77 264.509,100.969C265.419,101.164 267.788,98.314 268.367,97.814C270.88,95.642 279.729,90.421 278.834,86.415C278.018,82.758 273.378,79.303 270.774,76.994C261.684,68.937 250.403,63.19 238.579,60.438C210.028,53.794 180.356,64.626 158.037,82.495C147.266,91.119 136.747,102.686 134.765,116.891L126.236,125.075Z" style="fill: rgb(calc(var(--color_hairs_r, 38) + 142), calc(var(--color_hairs_g, 183) + 61), calc(var(--color_hairs_b, 200) + 53))" />
          </g>
          <g transform="matrix(0.978096,0,0,0.949902,2.8127,13.7805)">
            <path d="M201.865,75.685C201.389,74.388 200.859,78.274 200.594,79.63C200.037,82.485 200.122,85.519 199.984,88.419C199.57,97.113 200.025,105.878 200.849,114.531C203.374,141.051 210.902,164.62 220.169,189.333" style="fill: none; stroke: black; stroke-width: 2.1px" />
          </g>
          <g transform="matrix(0.978096,0,0,0.949902,2.8127,13.7805)">
            <path d="M182.578,83.197C182.137,83.257 182.431,89.727 182.431,90.251C182.431,98.161 182.155,106.138 182.673,114.035C184.97,149.069 193.323,181.945 209.739,213.08" style="fill: none; stroke: black; stroke-width: 2.1px" />
          </g>
          <g transform="matrix(0.978096,0,0,0.949902,2.8127,13.7805)">
            <path d="M177.024,85.771C177.144,85.226 176.996,86.887 176.936,87.441C176.837,88.365 176.714,89.287 176.619,90.212C176.293,93.361 176.23,96.463 176.339,99.625C176.669,109.195 176.854,118.529 177.992,128.065C181.355,156.229 188.367,184.236 202.133,209.188" style="fill: none; stroke: black; stroke-width: 2.1px" />
          </g>
          <g transform="matrix(0.978096,0,0,0.949902,2.8127,13.7805)">
            <path d="M135.304,192.764C135.304,192.764 141.96,183.723 143.829,181.574C151.612,172.624 161.046,165.564 170.857,159.023C173.487,157.27 177.277,154.826 181.446,152.745" style="fill: none; stroke: black; stroke-width: 2.1px" />
          </g>
          <g transform="matrix(0.978096,0,0,0.949902,2.8127,13.7805)">
            <path d="M188.265,176.781C175.125,184.476 167.926,189.674 158.329,198.707C153.132,203.597 147.784,210.546 144.773,215.307" style="fill: none; stroke: black; stroke-width: 2.1px" />
          </g>
        </g>
        <ellipse cx="217.409" cy="174.016" rx="85.181" ry="90.328" style="fill: none; stroke: black; stroke-width: 2.1px" />
      </g>
      <g transform="matrix(-1.02239,0,0,1.05274,802.565,-14.5073)">
        <ellipse cx="217.409" cy="174.016" rx="85.181" ry="90.328" style="fill: rgb(var(--color_hairs_r, 38), var(--color_hairs_g, 183), var(--color_hairs_b, 200))" />
        <clipPath id="_clip4_hair5">
          <ellipse cx="217.409" cy="174.016" rx="85.181" ry="90.328" />
        </clipPath>
        <g clip-path="url(#_clip4_hair5)">
          <g transform="matrix(0.978096,0,0,0.949902,2.8127,13.7805)">
            <path d="M188.815,235.037C188.899,234.651 186.91,232.948 186.678,232.698C184.578,230.436 182.424,228.146 180.797,225.509C177.125,219.558 173.211,213.201 170.385,206.821C168.619,202.833 166.778,197.991 166.41,193.568C166.273,191.925 169.314,190.293 170.349,189.325C174.203,185.723 178.33,183.588 182.811,180.818C184.309,179.892 188.557,178.523 187.919,175.97C187.611,174.741 183.181,176.614 182.484,176.863C178.01,178.461 173.736,180.509 169.441,182.525C168.846,182.804 165.23,184.995 164.646,184.801C164.249,184.668 164.471,180.643 164.458,180.263C164.325,176.301 164.461,172.002 164.743,168.043C164.813,167.064 164.798,164.589 165.446,163.747C168.152,160.229 174.209,157.879 177.896,155.398C178.328,155.107 181.831,153.231 181.917,152.537C182.328,149.22 173.252,153.48 171.199,154.656C169.661,155.536 166.021,157.17 166.062,157.008C171.747,134.267 189.787,111.698 212.665,104.792C221.594,102.096 229.683,100.159 239.708,101.319C241.781,101.559 247.656,102.204 247.656,102.316C247.656,102.691 241.603,109.084 239.852,111.2C234.079,118.177 228.939,126.082 224.983,133.916C217.865,148.008 212.255,163.286 207.416,178.267C205.963,182.765 205.636,187.433 204.37,191.987C203.869,193.788 203.647,196.638 202.676,198.256C200.777,201.42 198.931,198.751 197.156,201.998C192.901,209.781 189.916,224.605 189.332,233.365" style="fill: rgb(var(--color_hairs_r, 38), var(--color_hairs_g, 183), var(--color_hairs_b, 200))" />
          </g>
          <g transform="matrix(0.978096,0,0,0.949902,2.8127,13.7805)">
            <path d="M122.127,156.804C122.166,156.715 122.193,156.653 122.198,156.643C122.593,155.806 123.005,154.978 123.423,154.154C124.778,151.481 126.194,148.838 127.602,146.194C130.585,140.59 133.565,134.986 136.691,129.46C136.965,128.974 138.999,124.379 139.673,124.379C139.686,124.379 139.047,126.572 139.006,126.71C138.55,128.242 138.236,129.781 138.097,131.373C137.576,137.373 137.044,143.406 136.843,149.427C136.823,150.029 137.028,155.19 137.028,155.19C137.028,155.19 139.618,150.2 140.525,148.896C144.11,143.743 147.313,138.97 152.193,134.977C152.55,134.684 154.111,133.006 156.98,131.344C157.239,131.194 152.082,137.273 149.482,145.508C146.308,155.561 143.384,165.406 141.321,175.719C140.782,178.415 140.134,184.003 140.79,186.628C140.998,187.457 141.823,185.264 142.374,184.61C143.411,183.38 144.472,182.171 145.533,180.961C149.027,176.976 152.573,172.843 156.569,169.346C156.993,168.975 159.817,166.366 160.484,166.588C160.549,166.61 159.465,168.266 159.407,168.349C158.708,169.353 157.999,170.351 157.277,171.339C155.176,174.216 152.808,176.401 150.901,179.408C148.24,183.605 145.219,187.652 143.246,192.228C142.711,193.47 140.925,195.78 141.02,197.199C141.096,198.345 142.877,201.658 143.44,202.607C144.806,204.908 146.499,207.151 147.944,209.32C148.027,209.444 149.912,207.065 150.034,206.917C151.393,205.267 152.812,203.673 154.295,202.134C158.927,197.323 164.304,191.788 170.148,188.463C171.033,187.96 173.553,186.301 174.591,186.531C174.661,186.547 171.393,189.022 171.205,189.242C169.511,191.226 167.169,193.113 165.532,195.146C160.452,201.456 155.419,208.222 152.389,215.804C151.5,218.028 158.186,225.394 160.814,228.628C167.933,237.39 176.643,243.324 187.043,247.622C190.607,249.096 195.398,249.147 198.674,250.999C199.42,251.42 199.069,253.634 199.108,254.318C199.277,257.252 200.604,262.346 197.685,264.35C194.234,266.72 188.141,266.258 184.245,266.103C171.018,265.575 157.864,259.627 149.062,249.704C141.425,241.095 136.357,230.543 132.366,219.842C125.248,200.753 119.2,177.824 122.127,156.804ZM122.282,155.753C122.228,156.102 122.176,156.452 122.127,156.804C122.055,156.97 121.944,157.233 121.861,157.454L121.761,157.856C121.719,157.862 121.775,157.68 121.861,157.454L122.282,155.753C122.9,151.739 123.853,147.797 125.196,143.969L122.282,155.753ZM126.236,125.075C126.216,125.088 126.206,125.096 126.209,125.1L126.236,125.075C126.616,124.83 130.82,123.071 131.25,122.927C132.967,122.35 134.925,121.54 136.736,121.376C140.055,121.074 143.037,122.449 145.652,119.71C154.288,110.663 162.373,102.129 173.645,96.225C175.932,95.027 178.109,93.642 180.315,92.305C180.498,92.194 182.259,90.935 182.462,91.037C182.575,91.094 182.244,93.088 182.233,93.237C182.064,95.435 182.095,97.605 182.286,99.8C183.106,109.226 183.693,118.653 184.296,128.099C184.707,134.538 186.91,140.963 188.131,147.291C188.547,149.449 189.061,151.562 189.552,153.701C189.795,154.76 190.308,156.872 190.308,156.872C190.308,156.872 190.147,155.329 190.079,154.557C189.946,153.041 189.883,151.524 189.85,150.003C189.751,145.413 189.296,140.941 189.195,136.349C188.941,124.788 188.435,113.157 188.032,101.603C187.943,99.048 188.492,88.437 188.492,88.437C188.492,88.437 192.005,87.545 193.181,87.209C194.107,86.945 199.207,85.309 199.843,86.01C200.422,86.646 200.05,88.68 200.05,89.471C200.05,92.636 200.014,95.794 200.286,98.952C201.362,111.429 202.068,124.398 204.496,136.709C205.195,140.252 205.863,143.86 206.926,147.314C207.084,147.829 207.496,150.169 208.072,150.416C208.105,150.43 208.071,148.441 208.064,148.315C207.985,146.861 207.914,145.406 207.858,143.952C207.695,139.714 207.735,135.47 207.575,131.231C207.148,119.912 205.924,108.111 208.033,96.904C208.641,93.679 210.011,87.557 212.27,84.786C213.266,83.565 222.783,84.028 226.125,84.367C235.189,85.287 243.682,87.441 251.651,92.061C254.706,93.832 258.452,96.262 261.194,98.527C261.999,99.191 263.58,100.77 264.509,100.969C265.419,101.164 267.788,98.314 268.367,97.814C270.88,95.642 279.729,90.421 278.834,86.415C278.018,82.758 273.378,79.303 270.774,76.994C261.684,68.937 250.403,63.19 238.579,60.438C210.028,53.794 180.356,64.626 158.037,82.495C147.266,91.119 136.747,102.686 134.765,116.891L126.236,125.075Z" style="fill: rgb(calc(var(--color_hairs_r, 38) + 142), calc(var(--color_hairs_g, 183) + 61), calc(var(--color_hairs_b, 200) + 53))" />
          </g>
          <g transform="matrix(0.978096,0,0,0.949902,2.8127,13.7805)">
            <path d="M201.865,75.685C201.389,74.388 200.859,78.274 200.594,79.63C200.037,82.485 200.122,85.519 199.984,88.419C199.57,97.113 200.025,105.878 200.849,114.531C203.374,141.051 210.902,164.62 220.169,189.333" style="fill: none; stroke: black; stroke-width: 2.1px" />
          </g>
          <g transform="matrix(0.978096,0,0,0.949902,2.8127,13.7805)">
            <path d="M182.578,83.197C182.137,83.257 182.431,89.727 182.431,90.251C182.431,98.161 182.155,106.138 182.673,114.035C184.97,149.069 193.323,181.945 209.739,213.08" style="fill: none; stroke: black; stroke-width: 2.1px" />
          </g>
          <g transform="matrix(0.978096,0,0,0.949902,2.8127,13.7805)">
            <path d="M177.024,85.771C177.144,85.226 176.996,86.887 176.936,87.441C176.837,88.365 176.714,89.287 176.619,90.212C176.293,93.361 176.23,96.463 176.339,99.625C176.669,109.195 176.854,118.529 177.992,128.065C181.355,156.229 188.367,184.236 202.133,209.188" style="fill: none; stroke: black; stroke-width: 2.1px" />
          </g>
          <g transform="matrix(0.978096,0,0,0.949902,2.8127,13.7805)">
            <path d="M135.304,192.764C135.304,192.764 141.96,183.723 143.829,181.574C151.612,172.624 161.046,165.564 170.857,159.023C173.487,157.27 177.277,154.826 181.446,152.745" style="fill: none; stroke: black; stroke-width: 2.1px" />
          </g>
          <g transform="matrix(0.978096,0,0,0.949902,2.8127,13.7805)">
            <path d="M188.265,176.781C175.125,184.476 167.926,189.674 158.329,198.707C153.132,203.597 147.784,210.546 144.773,215.307" style="fill: none; stroke: black; stroke-width: 2.1px" />
          </g>
        </g>
        <ellipse cx="217.409" cy="174.016" rx="85.181" ry="90.328" style="fill: none; stroke: black; stroke-width: 2.1px" />
      </g>
      <path d="M399.565,80.338C399.663,80.38 405.008,77.862 407.047,77.116C412.907,74.972 418.862,72.966 425.018,71.865C442.247,68.782 463.141,67.026 480.36,71.019C535.038,83.697 573.919,126.007 592.81,177.75C601.406,201.295 609.228,231.423 605.683,256.943C601.945,283.857 589.062,309.164 579.871,334.339C569.802,361.921 527.472,469.159 516.748,494.233C507.481,515.898 497.954,540.832 494.222,551.381C480.688,589.629 442.735,627.168 430.049,646.14C424.038,655.128 412.324,672.712 400.609,677.594L400.608,678.26C400.299,678.168 399.99,678.066 399.679,677.955C399.368,678.066 399.059,678.168 398.75,678.26L398.749,677.594C387.034,672.712 375.32,655.128 369.309,646.14C356.623,627.168 318.67,589.629 305.136,551.381C301.404,540.832 291.877,515.898 282.61,494.233C271.886,469.159 229.556,361.921 219.487,334.339C210.296,309.164 197.413,283.857 193.675,256.943C190.131,231.423 197.952,201.295 206.548,177.75C225.439,126.007 264.32,83.697 318.998,71.019C336.218,67.026 357.111,68.782 374.34,71.865C380.496,72.966 386.451,74.972 392.311,77.116C394.35,77.862 397.573,79.484 399.565,80.338Z" style="fill: rgb(var(--color_hairs_r, 38), var(--color_hairs_g, 183), var(--color_hairs_b, 200))" />
      <clipPath id="_clip5_hair5">
        <path d="M399.565,80.338C399.663,80.38 405.008,77.862 407.047,77.116C412.907,74.972 418.862,72.966 425.018,71.865C442.247,68.782 463.141,67.026 480.36,71.019C535.038,83.697 573.919,126.007 592.81,177.75C601.406,201.295 609.228,231.423 605.683,256.943C601.945,283.857 589.062,309.164 579.871,334.339C569.802,361.921 527.472,469.159 516.748,494.233C507.481,515.898 497.954,540.832 494.222,551.381C480.688,589.629 442.735,627.168 430.049,646.14C424.038,655.128 412.324,672.712 400.609,677.594L400.608,678.26C400.299,678.168 399.99,678.066 399.679,677.955C399.368,678.066 399.059,678.168 398.75,678.26L398.749,677.594C387.034,672.712 375.32,655.128 369.309,646.14C356.623,627.168 318.67,589.629 305.136,551.381C301.404,540.832 291.877,515.898 282.61,494.233C271.886,469.159 229.556,361.921 219.487,334.339C210.296,309.164 197.413,283.857 193.675,256.943C190.131,231.423 197.952,201.295 206.548,177.75C225.439,126.007 264.32,83.697 318.998,71.019C336.218,67.026 357.111,68.782 374.34,71.865C380.496,72.966 386.451,74.972 392.311,77.116C394.35,77.862 397.573,79.484 399.565,80.338Z" />
      </clipPath>
      <g clip-path="url(#_clip5_hair5)">
        <path d="M236.808,317.205C231.52,316.808 227.201,315.266 223.26,312.916C222.016,312.174 220.81,311.345 219.65,310.477C219.238,310.168 218.841,309.838 218.439,309.516C218.266,309.377 217.973,308.883 217.919,309.098C217.865,309.315 218.726,310.161 218.852,310.316C219.834,311.524 220.778,312.759 221.741,313.982C225.122,318.281 229.536,321.717 233.323,325.941C234.077,326.781 237.713,330.91 238.92,330.186L236.808,317.205ZM562.685,317.205C567.973,316.808 572.292,315.266 576.233,312.916C577.477,312.174 578.683,311.345 579.843,310.477C580.255,310.168 580.652,309.838 581.054,309.516C581.227,309.377 581.52,308.883 581.574,309.098C581.628,309.315 580.767,310.161 580.641,310.316C579.659,311.524 578.714,312.759 577.752,313.982C574.37,318.281 570.064,321.478 565.681,325.08C564.628,325.946 561.671,330.09 560.465,329.366L562.685,317.205Z" style="fill: rgb(var(--color_hairs_r, 38), var(--color_hairs_g, 183), var(--color_hairs_b, 200))" />
        <path d="M502.665,513.963C502.627,513.929 502.031,515.254 502.004,515.314C501.586,516.244 501.171,517.176 500.778,518.117C498.94,522.529 497.785,527.162 496.751,531.816C494.278,542.944 489.186,554.314 488.554,565.692C488.521,566.296 489.051,564.59 489.301,564.039C489.696,563.169 490.099,562.303 490.495,561.434C491.676,558.842 492.787,556.217 493.916,553.602C497.958,544.24 502.444,535.071 506.351,525.65C507.044,523.978 511.064,515.953 506.287,517.026L502.665,513.963ZM301.305,526.437C300.8,527.141 302.923,531.975 303.194,532.896C305.344,540.206 306.319,547.485 307.89,554.949C308.015,555.542 310.093,563.111 309.797,563.229C309.335,563.414 304.687,554.737 304.371,554.175C299.516,545.544 294.472,536.649 292.343,526.871C292.09,525.71 289.792,517.051 292.593,517.751L301.305,526.437ZM400.012,72.552C400.824,71.17 401.968,69.916 403.561,68.843C411.571,63.447 422.109,61.255 431.533,60.182C450.912,57.974 470.372,59.536 489.296,64.167C527.26,73.457 565.858,91.397 592.611,120.57C616.033,146.111 629.762,179.697 634.336,213.841C635.576,223.097 636.215,232.451 636.047,241.792C635.917,249.038 635.109,256.249 633.698,263.356C630.159,281.186 622.39,297.612 612.081,312.479C606.627,320.343 599.953,328.017 590.825,331.62L574.235,328.5C573.838,328.655 574.898,327.952 575.154,327.611C575.687,326.901 576.209,326.162 576.669,325.402C578.036,323.14 579.145,320.789 580.261,318.398C583.587,311.271 585.73,304.104 587.998,296.59C595.36,272.202 610.738,245.582 599.115,219.654C598.504,218.292 595.561,215.217 595.462,215.909C594.833,220.313 595.996,226.863 596.16,231.557C596.197,232.59 596.764,235.679 595.99,236.563C595.668,236.932 593.623,233.616 593.461,233.385C592,231.309 589.72,227.42 587.201,226.371C586.37,226.025 585.313,228.356 584.501,228.645C583.653,228.948 582.178,229.744 581.465,230.238C577.628,232.894 576.66,245.996 576.637,245.451C576.596,244.462 575.38,234.338 574.936,231.143C573.934,223.926 572.416,216.845 570.749,209.759C570.557,208.942 568.632,203.565 569.261,202.936C569.317,202.88 570.701,204.319 570.813,204.424C571.157,204.748 575.858,209.061 576.329,208.186C578.517,204.123 578.348,198.405 578.093,193.945C578.009,192.484 577.862,191.022 577.721,189.566C577.711,189.468 577.389,187.281 577.487,187.281C578.133,187.281 579.418,189.543 579.74,189.97C581.745,192.626 583.863,195.148 586.255,197.463C586.533,197.731 588.162,199.868 588.561,199.801C589.143,199.704 589.325,197.074 589.422,196.645C590.125,193.551 591.986,191.743 592.217,188.153C592.506,183.686 590.366,178.37 588.152,174.679C584.131,167.977 580.76,160.307 576.654,153.624C569.416,141.841 560.586,130.252 549.844,121.356C533.83,108.094 510.692,99.469 488.957,97.248C480.012,96.334 465.203,96.745 456.216,97.527C455.346,97.602 463.711,94.521 468.242,93.564C478.793,91.336 488.888,90.407 495.837,90.371C496.332,90.368 487.97,87.942 485.385,87.421C477.489,85.83 469.306,84.261 461.288,83.621C445.647,82.374 434.443,82.342 416.41,87.509C411.872,88.809 407.343,92.497 402.962,94.249C402.696,94.356 401.612,95.274 400.625,95.634C400.449,95.75 400.24,95.79 400.012,95.775C399.784,95.79 399.575,95.75 399.399,95.634C398.412,95.274 397.328,94.356 397.062,94.249C392.681,92.497 388.152,88.809 383.614,87.509C365.581,82.342 354.377,82.374 338.736,83.621C330.718,84.261 322.536,85.83 314.639,87.421C312.054,87.942 303.692,90.368 304.187,90.371C311.136,90.407 321.231,91.336 331.782,93.564C336.313,94.521 344.678,97.602 343.808,97.527C334.821,96.745 320.012,96.334 311.067,97.248C289.332,99.469 266.194,108.094 250.18,121.356C239.438,130.252 230.608,141.841 223.37,153.624C219.264,160.307 215.894,167.977 211.872,174.679C209.658,178.37 207.519,183.686 207.807,188.153C208.038,191.743 209.899,193.551 210.602,196.645C210.699,197.074 210.881,199.704 211.463,199.801C211.862,199.868 213.491,197.731 213.769,197.463C216.161,195.148 218.279,192.626 220.284,189.97C220.606,189.543 221.891,187.281 222.537,187.281C222.635,187.281 222.313,189.468 222.303,189.566C222.162,191.022 222.015,192.484 221.931,193.945C221.676,198.405 221.507,204.123 223.695,208.186C224.166,209.061 228.867,204.748 229.211,204.424C229.323,204.319 230.707,202.88 230.763,202.936C231.392,203.565 229.467,208.942 229.275,209.759C227.608,216.845 226.09,223.926 225.088,231.143C224.644,234.338 223.428,244.462 223.387,245.451C223.364,245.996 222.396,232.894 218.559,230.238C217.846,229.744 216.371,228.948 215.523,228.645C214.711,228.356 213.654,226.025 212.823,226.371C210.304,227.42 208.024,231.309 206.563,233.385C206.401,233.616 204.356,236.932 204.034,236.563C203.26,235.679 203.828,232.59 203.864,231.557C204.028,226.863 205.191,220.313 204.562,215.909C204.463,215.217 201.52,218.292 200.909,219.654C189.286,245.582 204.664,272.202 212.026,296.59C214.294,304.104 216.437,311.271 219.763,318.398C220.879,320.789 221.988,323.14 223.355,325.402C223.815,326.162 224.337,326.901 224.87,327.611C225.126,327.952 226.186,328.655 225.789,328.5L209.199,331.62C200.071,328.017 193.397,320.343 187.943,312.479C177.634,297.612 169.865,281.186 166.326,263.356C164.915,256.249 164.107,249.038 163.977,241.792C163.809,232.451 164.448,223.097 165.688,213.841C170.262,179.697 183.991,146.111 207.413,120.57C234.166,91.397 272.765,73.457 310.728,64.167C329.652,59.536 349.112,57.974 368.491,60.182C377.915,61.255 388.453,63.447 396.463,68.843C398.056,69.916 399.2,71.17 400.012,72.552Z" style="fill: rgb(calc(var(--color_hairs_r, 38) + 142), calc(var(--color_hairs_g, 183) + 61), calc(var(--color_hairs_b, 200) + 53))" />
      </g>
      <path d="M399.565,80.338C399.663,80.38 405.008,77.862 407.047,77.116C412.907,74.972 418.862,72.966 425.018,71.865C442.247,68.782 463.141,67.026 480.36,71.019C535.038,83.697 573.919,126.007 592.81,177.75C601.406,201.295 609.228,231.423 605.683,256.943C601.945,283.857 589.062,309.164 579.871,334.339C569.802,361.921 527.472,469.159 516.748,494.233C507.481,515.898 497.954,540.832 494.222,551.381C480.688,589.629 442.735,627.168 430.049,646.14C424.038,655.128 412.324,672.712 400.609,677.594L400.608,678.26C400.299,678.168 399.99,678.066 399.679,677.955C399.368,678.066 399.059,678.168 398.75,678.26L398.749,677.594C387.034,672.712 375.32,655.128 369.309,646.14C356.623,627.168 318.67,589.629 305.136,551.381C301.404,540.832 291.877,515.898 282.61,494.233C271.886,469.159 229.556,361.921 219.487,334.339C210.296,309.164 197.413,283.857 193.675,256.943C190.131,231.423 197.952,201.295 206.548,177.75C225.439,126.007 264.32,83.697 318.998,71.019C336.218,67.026 357.111,68.782 374.34,71.865C380.496,72.966 386.451,74.972 392.311,77.116C394.35,77.862 397.573,79.484 399.565,80.338Z" style="fill: none; stroke: black; stroke-width: 2.1px" />
      <g>
        <path d="M208.689,295.093C208.232,294.734 209.253,296.11 209.538,296.616C210.097,297.608 210.667,298.601 211.269,299.567C213.155,302.597 214.998,305.793 217.283,308.548C221.923,314.14 227.132,321.635 234.479,323.825C237.687,324.781 240.946,324.235 244.191,324.087" style="fill: none; stroke: black; stroke-width: 2.1px" />
        <path d="M193.58,253.248C193.461,254.154 194.662,255.994 195.007,256.762C196.509,260.101 198.286,263.277 200.161,266.416C207.409,278.552 217.731,291.536 230.568,298.112" style="fill: none; stroke: black; stroke-width: 2.1px" />
        <path d="M201.106,250.497C200.679,250.471 201.509,251.249 201.711,251.626C202.078,252.31 202.472,252.981 202.865,253.651C204.149,255.844 205.528,257.955 207.13,259.93C211.621,265.469 217.575,270.835 223.978,274.114" style="fill: none; stroke: black; stroke-width: 2.1px" />
        <path d="M212.971,242.64C212.688,242.227 213.502,243.489 213.753,243.923C214.295,244.856 214.86,245.78 215.477,246.665C216.635,248.328 220.352,254.388 222.886,254.272" style="fill: none; stroke: black; stroke-width: 2.1px" />
        <path d="M577.491,252.747C581.688,251.788 586.21,246.131 588.74,242.589" style="fill: none; stroke: black; stroke-width: 2.1px" />
        <path d="M576.716,274.43C576.592,274.322 579.641,272.132 579.786,272.026C581.742,270.597 583.645,269.108 585.504,267.554C591.077,262.897 595.204,257.003 599.433,251.189" style="fill: none; stroke: black; stroke-width: 2.1px" />
        <path d="M569.18,299.107C573.033,296.709 577.298,293.644 579.981,291.068C591.054,280.439 598.801,268.031 605.997,254.667" style="fill: none; stroke: black; stroke-width: 2.1px" />
        <path d="M556.221,324.647C556.199,324.61 557.768,324.492 557.908,324.485C559.094,324.427 560.298,324.271 561.469,324.076C565.055,323.479 568.131,321.977 571.102,319.92C579.687,313.976 585.938,304.285 591.325,295.531" style="fill: none; stroke: black; stroke-width: 2.1px" />
      </g>
    </g>
  </g>
  <g id="hairstyles-front">
    <g id="hairstyle5-mid">
      <path d="M247.129,379.282C247.196,379.289 247.236,381.043 247.243,381.146C247.393,383.398 247.565,385.658 247.823,387.9C248.898,397.273 248.729,406.441 248.238,415.853C247.586,428.358 248.591,440.656 248.881,453.163C249.299,471.128 249.899,489.146 252.944,506.888C254.119,513.73 255.463,520.545 256.615,527.39C256.818,528.599 257.705,534.684 257.705,534.684C257.705,534.684 258.341,527.45 258.497,525.39C258.966,519.214 259.53,513.055 259.776,506.864C260.523,488.049 260.627,469.187 258.27,450.496C256.112,433.39 251.367,414.806 249.08,398.976" style="fill: rgb(var(--color_hairs_r, 38), var(--color_hairs_g, 183), var(--color_hairs_b, 200))" />
      <clipPath id="_clip6_hair5">
        <path d="M247.129,379.282C247.196,379.289 247.236,381.043 247.243,381.146C247.393,383.398 247.565,385.658 247.823,387.9C248.898,397.273 248.729,406.441 248.238,415.853C247.586,428.358 248.591,440.656 248.881,453.163C249.299,471.128 249.899,489.146 252.944,506.888C254.119,513.73 255.463,520.545 256.615,527.39C256.818,528.599 257.705,534.684 257.705,534.684C257.705,534.684 258.341,527.45 258.497,525.39C258.966,519.214 259.53,513.055 259.776,506.864C260.523,488.049 260.627,469.187 258.27,450.496C256.112,433.39 251.367,414.806 249.08,398.976" />
      </clipPath>
      <g clip-path="url(#_clip6_hair5)">
        <g transform="matrix(-1,0,0,1,799.147,0)">
          <path d="M549.724,402.004C550.298,403.607 549.531,406.622 549.394,408.253C549,412.97 548.495,417.665 547.848,422.353C546.613,431.29 546.865,440.253 546.058,449.204C545.54,454.954 544.184,460.627 543.225,466.314C541.941,473.923 541.024,481.584 539.869,489.213C539.443,492.027 539.088,494.854 538.751,497.68C538.73,497.849 538.452,500.425 538.174,500.317C537.112,499.901 537.553,493.479 537.544,492.643C537.46,484.972 537.724,477.264 538.398,469.622C539.041,462.341 539.955,455.065 541.157,447.855C543.014,436.712 545.558,425.691 547.434,414.55" style="fill: rgb(var(--color_hairs_r, 38), var(--color_hairs_g, 183), var(--color_hairs_b, 200))" />
        </g>
        <path d="M249.006,398.142C248.995,396.281 249.453,401.014 249.533,401.491C250.035,404.475 250.545,407.458 251.085,410.435C252.74,419.568 252.357,428.559 252.719,437.781C253.709,463.046 254.201,488.335 256.032,513.546C256.479,519.703 256.472,525.87 256.607,532.038C256.62,532.633 257.155,537.877 256.424,538.053C255.406,538.297 253.299,531.43 253.102,530.86C250.372,522.968 248.184,514.783 246.658,506.573C243.872,491.583 243.895,476.034 243.509,460.836C243.05,442.757 242.443,423.286 245.928,405.425" style="fill: rgb(calc(var(--color_hairs_r, 38) + 142), calc(var(--color_hairs_g, 183) + 61), calc(var(--color_hairs_b, 200) + 53))" />
      </g>
      <path d="M247.129,379.282C247.196,379.289 247.236,381.043 247.243,381.146C247.393,383.398 247.565,385.658 247.823,387.9C248.898,397.273 248.729,406.441 248.238,415.853C247.586,428.358 248.591,440.656 248.881,453.163C249.299,471.128 249.899,489.146 252.944,506.888C254.119,513.73 255.463,520.545 256.615,527.39C256.818,528.599 257.705,534.684 257.705,534.684C257.705,534.684 258.341,527.45 258.497,525.39C258.966,519.214 259.53,513.055 259.776,506.864C260.523,488.049 260.627,469.187 258.27,450.496C256.112,433.39 251.367,414.806 249.08,398.976" style="fill: none; stroke: black; stroke-width: 2.1px" />
      <g transform="matrix(-1,0,0,1,799.82,0)">
        <path d="M247.129,379.282C247.196,379.289 247.236,381.043 247.243,381.146C247.393,383.398 247.565,385.658 247.823,387.9C248.898,397.273 248.729,406.441 248.238,415.853C247.586,428.358 248.591,440.656 248.881,453.163C249.299,471.128 249.899,489.146 252.944,506.888C254.119,513.73 255.463,520.545 256.615,527.39C256.818,528.599 257.705,534.684 257.705,534.684C257.705,534.684 258.341,527.45 258.497,525.39C258.966,519.214 259.53,513.055 259.776,506.864C260.523,488.049 260.627,469.187 258.27,450.496C256.112,433.39 251.367,414.806 249.08,398.976" style="fill: rgb(var(--color_hairs_r, 38), var(--color_hairs_g, 183), var(--color_hairs_b, 200))" />
        <clipPath id="_clip7_hair5">
          <path d="M247.129,379.282C247.196,379.289 247.236,381.043 247.243,381.146C247.393,383.398 247.565,385.658 247.823,387.9C248.898,397.273 248.729,406.441 248.238,415.853C247.586,428.358 248.591,440.656 248.881,453.163C249.299,471.128 249.899,489.146 252.944,506.888C254.119,513.73 255.463,520.545 256.615,527.39C256.818,528.599 257.705,534.684 257.705,534.684C257.705,534.684 258.341,527.45 258.497,525.39C258.966,519.214 259.53,513.055 259.776,506.864C260.523,488.049 260.627,469.187 258.27,450.496C256.112,433.39 251.367,414.806 249.08,398.976" />
        </clipPath>
        <g clip-path="url(#_clip7_hair5)">
          <g transform="matrix(-1,0,0,1,799.82,0)">
            <path d="M549.724,402.004C550.298,403.607 549.531,406.622 549.394,408.253C549,412.97 548.495,417.665 547.848,422.353C546.613,431.29 546.865,440.253 546.058,449.204C545.54,454.954 544.184,460.627 543.225,466.314C541.941,473.923 541.024,481.584 539.869,489.213C539.443,492.027 539.088,494.854 538.751,497.68C538.73,497.849 538.452,500.425 538.174,500.317C537.112,499.901 537.553,493.479 537.544,492.643C537.46,484.972 537.724,477.264 538.398,469.622C539.041,462.341 539.955,455.065 541.157,447.855C543.014,436.712 545.558,425.691 547.434,414.55" style="fill: rgb(var(--color_hairs_r, 38), var(--color_hairs_g, 183), var(--color_hairs_b, 200))" />
          </g>
        </g>
        <path d="M247.129,379.282C247.196,379.289 247.236,381.043 247.243,381.146C247.393,383.398 247.565,385.658 247.823,387.9C248.898,397.273 248.729,406.441 248.238,415.853C247.586,428.358 248.591,440.656 248.881,453.163C249.299,471.128 249.899,489.146 252.944,506.888C254.119,513.73 255.463,520.545 256.615,527.39C256.818,528.599 257.705,534.684 257.705,534.684C257.705,534.684 258.341,527.45 258.497,525.39C258.966,519.214 259.53,513.055 259.776,506.864C260.523,488.049 260.627,469.187 258.27,450.496C256.112,433.39 251.367,414.806 249.08,398.976" style="fill: none; stroke: black; stroke-width: 2.1px" />
      </g>
      <path d="M256.937,437.117C263.439,460.015 263.907,484.014 264.797,507.604" style="fill: none; stroke: black; stroke-width: 2.1px" />
      <g transform="matrix(-1,0,0,1,799.82,0)">
        <path d="M256.937,437.117C263.439,460.015 263.907,484.014 264.797,507.604" style="fill: none; stroke: black; stroke-width: 2.1px" />
      </g>
    </g>
    <g id="hairstyle-8-front">
      <path d="M242.984,311.576C242.052,311.289 243.567,313.44 243.916,314.351C244.65,316.27 245.489,318.143 246.398,319.985C248.854,324.961 251.518,331.372 255.529,335.384C256.327,336.181 255.182,333.155 255.045,332.036C254.781,329.886 254.653,327.737 254.526,325.576C254.269,321.215 260.146,314.932 264.559,314.235C270.857,313.241 276.686,323.434 280.68,326.974C281.538,327.734 285.507,331.904 287.027,330.953C287.975,330.361 287.275,325.95 287.275,325.08C287.275,319.89 287.619,314.691 288.549,309.579C288.801,308.19 289.123,305.174 290.927,304.957C298.655,304.03 302.995,318.346 307.747,322.555C308.19,322.947 313.804,328.199 314.409,327.594C314.971,327.033 312.777,320.546 312.617,319.804C310.93,311.992 308.666,299.251 308.799,291.242C308.815,290.236 307.56,297.813 319.017,309.579C327.303,318.089 332.171,318.584 342.363,323.592C345.532,325.149 358.525,328.935 358.644,328.841C359.281,328.331 358.94,318.159 358.792,317.414C357.573,311.268 356.125,305.158 355.557,298.904C355.471,297.966 354.456,293.837 355.061,293.03C355.86,291.964 360.142,301.291 361.78,303.596C364.333,307.19 372.784,316.576 372.784,317.385C372.784,317.903 370.88,306.42 370.595,303.323C369.747,294.084 369.202,284.784 364.587,276.515C359.097,266.68 355.772,256.359 354.429,245.142C354.246,243.607 352.556,236.453 353.742,235.12C354.017,234.81 356.773,237.14 357.022,237.318C358.776,238.571 360.549,239.738 362.411,240.824C363.307,241.347 365.128,242.346 365.128,242.346C365.128,242.346 363.22,240.894 362.332,240.091C360.328,238.278 357.377,235.014 358.522,232.053C361.679,223.882 371.152,221.12 378.881,219.551C397.223,215.83 420.175,215.318 437.986,221.795C443.217,223.697 444.394,229.322 442.18,234.038C441.286,235.942 440.178,237.736 438.979,239.46C438.336,240.383 435.948,241.949 437.04,242.222C439.045,242.723 445.516,235.367 446.802,234.06C447.112,233.746 448.756,231.31 449.203,231.366C449.469,231.399 447.934,240.397 447.839,240.925C445.986,251.284 442.412,261.521 439.756,271.713C436.709,283.409 431.494,294.853 429.329,306.761C429.185,307.551 427.433,317.177 427.942,317.347C428.118,317.405 428.648,316.464 428.72,316.366C430.658,313.708 433.096,308.289 435.43,305.98C442.026,299.455 448.979,289.454 455.931,283.382C456.988,282.458 464.055,272.187 465.411,272.187C466.682,272.187 462.449,287.011 461.841,288.126C460.585,290.428 459.452,292.791 458.357,295.172C454.24,304.127 449.961,312.972 445.81,321.89C445.505,322.545 441.886,329.764 442.383,330.074C442.86,330.372 445.101,328.865 445.517,328.665C448.894,327.039 452.466,325.82 456.046,324.731C468.126,321.054 477.931,317.194 486.112,307.043C490.128,302.06 494.424,292.312 495.803,287.043C496.137,285.765 492.898,297.331 492.545,299.89C491.135,310.114 486.883,330.095 486.883,330.095C486.883,330.095 493.795,324.832 495.26,323.57C499.942,319.536 503.992,313.296 508.695,309.278C509.471,308.615 511.463,307.14 511.763,311.052C512.206,316.827 513.164,322.811 512.852,327.729C512.826,328.135 512.299,332.34 512.502,332.442C513.331,332.856 518.365,326.052 518.894,325.463C523.311,320.551 527.954,315.817 532.625,311.146C534.186,309.585 536.594,306.237 538.871,305.701C541.958,304.975 539.414,313.816 539.671,315.101C540.369,318.593 545.779,317.783 546.279,322.381C546.482,324.249 545.414,328.675 545.251,330.543C545.172,331.452 546.074,332.768 546.987,332.768C547.837,332.768 550.203,328.264 550.617,327.65C554.293,322.208 559.019,315.665 559.117,308.847C559.222,301.544 554.645,294.309 551.327,288.126C545.923,278.054 540.801,267.835 535.41,257.756C519.759,228.5 502.707,198.873 470.6,185.461C453.948,178.505 435.289,175.627 417.323,175.428C404.762,175.289 392.225,176.463 379.85,178.573C317.671,189.178 237.842,227.739 237.842,300.831" style="fill: rgb(56, 25, 57); fill-opacity: 0.5" />
      <path d="M215.827,224.804C216.519,183.836 223.409,171.097 233.374,152.927C245.756,130.347 281.447,71.436 363.552,73.363C384.068,73.844 399.25,84.604 399.25,84.604C399.25,84.604 405.452,78.005 421.382,75.622C430.22,74.3 437.438,73.22 445.821,74.452C513.134,84.345 566.714,129.765 579.94,180.688C581.499,186.694 584.709,204.723 584.904,212.562C585.326,229.565 583.579,246.398 580.075,262.801C574.791,287.538 565.399,309.811 559.696,333.043C557.775,340.87 556.897,343.991 555.861,351.987C555.534,354.508 554.257,372.036 553.274,371.053C552.151,369.93 552.689,362.396 552.666,360.925C552.526,351.7 552.792,344.353 552.792,336.213C552.792,334.816 552.622,326.651 552.622,326.651L550.395,330.3C550.395,330.3 545.68,334.987 542.485,336.485C542.202,336.617 543.581,333.052 544.685,331.125C547.673,325.905 549.29,322.795 550.817,317.997C552.244,313.513 548.646,308.858 546.478,305.356C545.767,304.207 546.419,301.555 545.068,301.555C544.972,301.555 544.059,304.689 543.993,304.873C543.221,307.012 542.117,309.143 540.89,311.052C536.881,317.289 532.186,323.098 527.886,329.133C527.558,329.594 522.493,334.858 522.492,334.858C521.972,334.467 523.206,328.96 523.225,328.126C523.425,319.522 522.069,310.868 521.277,302.321C521.218,301.686 520.61,292.648 520.391,292.675C519.39,292.8 515.684,299.573 515.082,300.562C510.227,308.539 502.765,315.159 496.579,322.098C495.05,323.812 489.621,328.185 489.621,328.185C489.621,328.185 493.272,317.832 493.885,315.78C497.334,304.244 499.358,293.25 500.634,280.367C501.198,274.674 501.507,269.361 500.482,263.727C500.43,263.437 499.446,258.569 499.126,258.649C498.694,258.757 498.845,268.659 498.776,269.463C498.207,276.131 495.393,282.222 492.463,288.148C483.343,306.59 471.733,314.33 453.283,319.709C446.637,321.647 440.79,327.118 437.641,327.118C437.058,327.118 443.956,315.802 445.674,312.409C451.684,300.543 456.572,289.31 460.223,276.475C461.422,272.259 462.729,268.085 463.514,263.767C463.805,262.165 464.037,260.563 464.212,258.944C464.221,258.869 464.349,257.47 464.32,257.48C462.205,258.185 459.823,268.338 458.208,270.551C449.703,282.205 437.908,289.536 429.941,302.036C428.813,303.806 424.564,312.892 421.911,315.593C421.886,315.618 422.952,310.045 423.053,309.655C424.663,303.414 425.669,298.133 428.016,292.159C431.222,283.997 435.124,275.944 438.32,267.776C443.316,255.009 448.692,241.856 452.096,228.504C453.373,223.495 454.393,218.242 454.393,213.056L454.393,208.475C454.233,208.475 453.781,210.149 453.734,210.275C452.03,214.865 449.33,219.088 446.776,223.239C445.051,226.042 442.878,228.549 440.61,230.922C439.349,232.243 438.025,233.547 436.593,234.684C436.157,235.031 429.839,239.243 429.702,238.969C429.489,238.542 434.882,233.65 435.358,233.125C438.878,229.241 446.333,219.639 446.333,213.943C446.333,213.705 438.874,212.126 438.461,212.035C428.983,209.944 419.569,208.905 409.848,208.905C407.318,208.905 404.793,208.919 402.268,209.042L402.288,209.86C403.179,210.225 401.395,209.688 399.858,209.342C398.322,209.688 396.538,210.225 397.429,209.86L397.449,209.042C394.924,208.919 392.399,208.905 389.869,208.905C380.148,208.905 370.734,209.944 361.256,212.035C360.842,212.126 353.384,213.705 353.384,213.943C353.384,219.639 360.839,229.241 364.359,233.125C364.835,233.65 370.228,238.542 370.015,238.969C369.878,239.243 363.56,235.031 363.123,234.684C361.692,233.547 360.368,232.243 359.107,230.922C356.839,228.549 354.666,226.042 352.941,223.239C350.387,219.088 347.687,214.865 345.983,210.275C345.936,210.149 345.484,208.475 345.324,208.475L345.324,213.056C345.324,218.242 346.344,223.495 347.621,228.504C351.025,241.856 356.401,255.009 361.397,267.776C364.593,275.944 368.495,283.997 371.701,292.159C374.048,298.133 375.054,303.414 376.664,309.655C376.765,310.045 377.831,315.618 377.806,315.593C375.153,312.892 370.904,303.806 369.776,302.036C361.809,289.536 350.014,282.205 341.509,270.551C339.894,268.338 337.511,258.185 335.397,257.48C335.368,257.47 335.496,258.869 335.505,258.944C335.679,260.563 335.912,262.165 336.203,263.767C336.988,268.085 338.295,272.259 339.494,276.475C343.145,289.31 348.033,300.543 354.042,312.409C355.761,315.802 362.659,327.118 362.076,327.118C358.927,327.118 353.08,321.647 346.434,319.709C327.984,314.33 316.374,306.59 307.254,288.148C304.324,282.222 301.51,276.131 300.941,269.463C300.872,268.659 301.023,258.757 300.591,258.649C300.271,258.569 299.287,263.437 299.235,263.727C298.21,269.361 298.519,274.674 299.083,280.367C300.359,293.25 302.383,304.244 305.832,315.78C306.445,317.832 310.096,328.185 310.096,328.185C310.096,328.185 304.667,323.812 303.138,322.098C296.952,315.159 289.49,308.539 284.634,300.562C284.032,299.573 280.327,292.8 279.326,292.675C279.107,292.648 278.498,301.686 278.44,302.321C277.648,310.868 276.292,319.522 276.492,328.126C276.511,328.96 277.745,334.467 277.225,334.858C277.224,334.858 272.159,329.594 271.831,329.133C267.53,323.098 262.836,317.289 258.827,311.052C257.6,309.143 256.496,307.012 255.724,304.873C255.658,304.689 254.745,301.555 254.649,301.555C253.298,301.555 253.95,304.207 253.239,305.356C251.071,308.858 247.473,313.513 248.9,317.997C250.427,322.795 252.044,325.905 255.032,331.125C256.136,333.052 257.515,336.617 257.232,336.485C254.037,334.987 249.322,330.3 249.322,330.3L247.095,326.651C247.095,326.651 246.925,334.816 246.925,336.213C246.925,344.353 247.191,351.7 247.051,360.925C247.028,362.396 247.565,369.93 246.443,371.053C245.46,372.036 244.183,354.508 243.856,351.987C242.819,343.991 241.942,340.87 240.02,333.043C234.318,309.811 225.231,288.365 220.732,264.528C219.199,256.405 215.498,244.27 215.827,224.804Z" style="fill: rgb(var(--color_hairs_r, 38), var(--color_hairs_g, 183), var(--color_hairs_b, 200))" />
      <clipPath id="_clip8_hair5">
        <path d="M215.827,224.804C216.519,183.836 223.409,171.097 233.374,152.927C245.756,130.347 281.447,71.436 363.552,73.363C384.068,73.844 399.25,84.604 399.25,84.604C399.25,84.604 405.452,78.005 421.382,75.622C430.22,74.3 437.438,73.22 445.821,74.452C513.134,84.345 566.714,129.765 579.94,180.688C581.499,186.694 584.709,204.723 584.904,212.562C585.326,229.565 583.579,246.398 580.075,262.801C574.791,287.538 565.399,309.811 559.696,333.043C557.775,340.87 556.897,343.991 555.861,351.987C555.534,354.508 554.257,372.036 553.274,371.053C552.151,369.93 552.689,362.396 552.666,360.925C552.526,351.7 552.792,344.353 552.792,336.213C552.792,334.816 552.622,326.651 552.622,326.651L550.395,330.3C550.395,330.3 545.68,334.987 542.485,336.485C542.202,336.617 543.581,333.052 544.685,331.125C547.673,325.905 549.29,322.795 550.817,317.997C552.244,313.513 548.646,308.858 546.478,305.356C545.767,304.207 546.419,301.555 545.068,301.555C544.972,301.555 544.059,304.689 543.993,304.873C543.221,307.012 542.117,309.143 540.89,311.052C536.881,317.289 532.186,323.098 527.886,329.133C527.558,329.594 522.493,334.858 522.492,334.858C521.972,334.467 523.206,328.96 523.225,328.126C523.425,319.522 522.069,310.868 521.277,302.321C521.218,301.686 520.61,292.648 520.391,292.675C519.39,292.8 515.684,299.573 515.082,300.562C510.227,308.539 502.765,315.159 496.579,322.098C495.05,323.812 489.621,328.185 489.621,328.185C489.621,328.185 493.272,317.832 493.885,315.78C497.334,304.244 499.358,293.25 500.634,280.367C501.198,274.674 501.507,269.361 500.482,263.727C500.43,263.437 499.446,258.569 499.126,258.649C498.694,258.757 498.845,268.659 498.776,269.463C498.207,276.131 495.393,282.222 492.463,288.148C483.343,306.59 471.733,314.33 453.283,319.709C446.637,321.647 440.79,327.118 437.641,327.118C437.058,327.118 443.956,315.802 445.674,312.409C451.684,300.543 456.572,289.31 460.223,276.475C461.422,272.259 462.729,268.085 463.514,263.767C463.805,262.165 464.037,260.563 464.212,258.944C464.221,258.869 464.349,257.47 464.32,257.48C462.205,258.185 459.823,268.338 458.208,270.551C449.703,282.205 437.908,289.536 429.941,302.036C428.813,303.806 424.564,312.892 421.911,315.593C421.886,315.618 422.952,310.045 423.053,309.655C424.663,303.414 425.669,298.133 428.016,292.159C431.222,283.997 435.124,275.944 438.32,267.776C443.316,255.009 448.692,241.856 452.096,228.504C453.373,223.495 454.393,218.242 454.393,213.056L454.393,208.475C454.233,208.475 453.781,210.149 453.734,210.275C452.03,214.865 449.33,219.088 446.776,223.239C445.051,226.042 442.878,228.549 440.61,230.922C439.349,232.243 438.025,233.547 436.593,234.684C436.157,235.031 429.839,239.243 429.702,238.969C429.489,238.542 434.882,233.65 435.358,233.125C438.878,229.241 446.333,219.639 446.333,213.943C446.333,213.705 438.874,212.126 438.461,212.035C428.983,209.944 419.569,208.905 409.848,208.905C407.318,208.905 404.793,208.919 402.268,209.042L402.288,209.86C403.179,210.225 401.395,209.688 399.858,209.342C398.322,209.688 396.538,210.225 397.429,209.86L397.449,209.042C394.924,208.919 392.399,208.905 389.869,208.905C380.148,208.905 370.734,209.944 361.256,212.035C360.842,212.126 353.384,213.705 353.384,213.943C353.384,219.639 360.839,229.241 364.359,233.125C364.835,233.65 370.228,238.542 370.015,238.969C369.878,239.243 363.56,235.031 363.123,234.684C361.692,233.547 360.368,232.243 359.107,230.922C356.839,228.549 354.666,226.042 352.941,223.239C350.387,219.088 347.687,214.865 345.983,210.275C345.936,210.149 345.484,208.475 345.324,208.475L345.324,213.056C345.324,218.242 346.344,223.495 347.621,228.504C351.025,241.856 356.401,255.009 361.397,267.776C364.593,275.944 368.495,283.997 371.701,292.159C374.048,298.133 375.054,303.414 376.664,309.655C376.765,310.045 377.831,315.618 377.806,315.593C375.153,312.892 370.904,303.806 369.776,302.036C361.809,289.536 350.014,282.205 341.509,270.551C339.894,268.338 337.511,258.185 335.397,257.48C335.368,257.47 335.496,258.869 335.505,258.944C335.679,260.563 335.912,262.165 336.203,263.767C336.988,268.085 338.295,272.259 339.494,276.475C343.145,289.31 348.033,300.543 354.042,312.409C355.761,315.802 362.659,327.118 362.076,327.118C358.927,327.118 353.08,321.647 346.434,319.709C327.984,314.33 316.374,306.59 307.254,288.148C304.324,282.222 301.51,276.131 300.941,269.463C300.872,268.659 301.023,258.757 300.591,258.649C300.271,258.569 299.287,263.437 299.235,263.727C298.21,269.361 298.519,274.674 299.083,280.367C300.359,293.25 302.383,304.244 305.832,315.78C306.445,317.832 310.096,328.185 310.096,328.185C310.096,328.185 304.667,323.812 303.138,322.098C296.952,315.159 289.49,308.539 284.634,300.562C284.032,299.573 280.327,292.8 279.326,292.675C279.107,292.648 278.498,301.686 278.44,302.321C277.648,310.868 276.292,319.522 276.492,328.126C276.511,328.96 277.745,334.467 277.225,334.858C277.224,334.858 272.159,329.594 271.831,329.133C267.53,323.098 262.836,317.289 258.827,311.052C257.6,309.143 256.496,307.012 255.724,304.873C255.658,304.689 254.745,301.555 254.649,301.555C253.298,301.555 253.95,304.207 253.239,305.356C251.071,308.858 247.473,313.513 248.9,317.997C250.427,322.795 252.044,325.905 255.032,331.125C256.136,333.052 257.515,336.617 257.232,336.485C254.037,334.987 249.322,330.3 249.322,330.3L247.095,326.651C247.095,326.651 246.925,334.816 246.925,336.213C246.925,344.353 247.191,351.7 247.051,360.925C247.028,362.396 247.565,369.93 246.443,371.053C245.46,372.036 244.183,354.508 243.856,351.987C242.819,343.991 241.942,340.87 240.02,333.043C234.318,309.811 225.231,288.365 220.732,264.528C219.199,256.405 215.498,244.27 215.827,224.804Z" />
      </clipPath>
      <g clip-path="url(#_clip8_hair5)">
        <path d="M223.261,244.474C222.9,241.443 221.676,232.396 218.559,230.238C217.846,229.744 216.371,228.948 215.523,228.645C214.711,228.356 213.654,226.025 212.823,226.371C210.304,227.42 208.024,231.309 206.563,233.385C206.401,233.616 204.356,236.932 204.034,236.563C203.26,235.679 203.828,232.59 203.864,231.557C204.028,226.863 205.191,220.313 204.562,215.909C204.463,215.217 201.52,218.292 200.909,219.654C189.286,245.582 204.664,272.202 212.026,296.59C214.294,304.104 216.437,311.271 219.763,318.398C220.879,320.789 221.988,323.14 223.355,325.402C223.815,326.162 224.337,326.901 224.87,327.611C225.126,327.952 226.186,328.655 225.789,328.5L209.199,331.62C200.071,328.017 193.397,320.343 187.943,312.479C177.634,297.612 169.865,281.186 166.326,263.356C164.915,256.249 164.107,249.038 163.977,241.792C163.809,232.451 164.448,223.097 165.688,213.841C170.262,179.697 183.991,146.111 207.413,120.57C234.166,91.397 272.765,73.457 310.728,64.167C329.652,59.536 349.112,57.974 368.491,60.182C377.915,61.255 388.453,63.447 396.463,68.843C398.056,69.916 399.2,71.17 400.012,72.552C400.824,71.17 401.968,69.916 403.561,68.843C411.571,63.447 422.109,61.255 431.533,60.182C450.912,57.974 470.372,59.536 489.296,64.167C527.26,73.457 565.858,91.397 592.611,120.57C616.033,146.111 629.762,179.697 634.336,213.841C635.576,223.097 636.215,232.451 636.047,241.792C635.917,249.038 635.109,256.249 633.698,263.356C630.159,281.186 622.39,297.612 612.081,312.479C606.627,320.343 599.953,328.017 590.825,331.62L574.235,328.5C573.838,328.655 574.898,327.952 575.154,327.611C575.687,326.901 576.209,326.162 576.669,325.402C578.036,323.14 579.145,320.789 580.261,318.398C583.587,311.271 585.73,304.104 587.998,296.59C595.36,272.202 610.738,245.582 599.115,219.654C598.504,218.292 595.561,215.217 595.462,215.909C594.833,220.313 595.996,226.863 596.16,231.557C596.197,232.59 596.764,235.679 595.99,236.563C595.668,236.932 593.623,233.616 593.461,233.385C592,231.309 589.72,227.42 587.201,226.371C586.37,226.025 585.313,228.356 584.501,228.645C583.653,228.948 582.178,229.744 581.465,230.238C577.979,232.651 576.861,243.683 576.668,245.276C576.671,245.938 576.668,246.496 576.653,246.496L577.245,249.918C577.093,250.514 576.852,258.9 575.347,258.524C574.725,258.368 573.723,249.455 573.542,248.598C571.816,240.397 569.58,228.9 564.114,222.238C563.09,220.99 559.324,215.642 557.244,216.776C555.304,217.834 554.517,222.7 554.437,224.494C554.114,231.776 554.412,238.856 554.663,246.128C554.747,248.558 554.753,250.999 555.138,253.407C555.308,254.471 553.278,248.549 552.336,246.401C548.9,238.566 545.663,228.872 539.833,222.369C538.067,220.399 537.893,222.581 536.081,222.761C531.381,223.226 530.321,220.787 528.893,220.651C527.299,220.499 528.294,223.216 525.04,222.037C523.446,221.46 519.56,216.889 519.023,216.889C518.074,216.889 515.681,224.422 515.504,225.219C513.605,233.765 513.292,241.677 513.105,250.438C513.051,252.995 512.737,262.072 512.737,262.072C512.737,262.072 509.835,252.356 508.95,248.74C506.404,238.344 503.964,227.901 500.686,217.703C499.921,215.324 497.339,204.903 493.787,204.903C492.528,204.903 492.432,209.591 492.338,210.329C491.544,216.583 491.768,222.942 491.768,229.232C491.768,229.722 491.611,236.386 491.59,236.38C490.767,236.144 489.886,228.377 489.691,227.51C488.117,220.541 485.962,210.208 479.574,205.817C474.241,202.151 473.908,203.869 466.073,203.837C462.537,203.822 462.788,200.981 461.965,202.191C461.322,203.137 461.577,208.029 461.182,210.27C460.968,211.485 461.176,214.74 460.303,213.867C458.154,211.718 459.17,195.847 454.889,193.706C454.876,193.699 454.922,204.786 454.129,204.653C453.831,204.604 453.575,201.228 453.524,200.937C452.863,197.179 451.802,193.476 450.365,189.942C448.652,185.727 441.582,173.18 441.861,172.157C442.1,171.279 447.896,174.48 454.497,181.892C457.681,185.466 459.525,189.187 464.958,188.969C466.354,188.914 466.45,186.925 468.354,187.401C471.572,188.206 474.808,192.506 478.227,192.418C488.461,192.156 485.067,184.231 484.846,176.635C484.791,174.726 483.131,168.035 483.208,168.035C484.426,168.035 489.536,174.418 490.23,175.299C495.563,182.063 501.163,188.989 508.067,194.118C511.88,196.95 511.045,192.261 514.601,193.48C517.553,194.492 520.641,199.467 523.851,199.298C526.567,199.155 523.19,192.551 527.71,194.359C531.012,195.68 534.293,197.772 536.805,200.284C537.095,200.574 540.067,204.489 540.237,204.416C540.937,204.116 541.005,198.838 541.08,198.147C541.934,190.241 538.656,184.322 534.917,177.546C533.859,175.627 532.805,173.684 531.628,171.835C531.031,170.896 528.602,169.334 529.693,169.116C531.397,168.775 535.567,173.347 536.615,174.269C543.3,180.148 549.469,186.459 555.245,193.231C557.238,195.568 559.384,197.817 561.075,200.391C561.882,201.619 563.964,205.357 563.734,203.905C562.866,198.404 558.462,191.949 555.696,187.259C546.57,171.784 533.222,157.457 517.7,148.218C512.74,145.265 507.57,143.308 502.027,141.759C501.122,141.506 497.795,140.016 496.779,140.524C496.726,140.55 498.119,142.608 498.192,142.721C499.121,144.159 500.055,145.596 500.971,147.043C504.03,151.877 506.679,157.014 508.582,162.419C508.774,162.965 510.57,166.776 510.208,167.228C510.163,167.285 509.84,166.77 509.828,166.753C508.991,165.459 508.128,164.181 507.264,162.906C505.161,159.803 502.881,156.828 500.365,154.048C493.227,146.163 484.448,140.104 474.896,135.501C461.453,129.024 444.029,127.15 429.931,133.103C425.164,135.116 419.902,137.03 415.587,139.907C414.107,140.893 412.554,141.76 411.099,142.792C410.396,143.291 408.493,144.959 408.95,144.229C417.356,130.779 450.229,118.758 465.48,121.55C474.052,123.12 479.839,129.638 488.263,129.169C493.95,128.852 503.593,126.477 511.358,128.827C531.574,134.944 554.196,164.903 562.345,183.376C565.173,189.785 567.596,196.431 569.597,203.211C570.03,203.621 570.734,204.351 570.813,204.424C571.157,204.748 575.858,209.061 576.329,208.186C578.517,204.123 578.348,198.405 578.093,193.945C578.009,192.484 577.862,191.022 577.721,189.566C577.711,189.468 577.389,187.281 577.487,187.281C578.133,187.281 579.418,189.543 579.74,189.97C581.745,192.626 583.863,195.148 586.255,197.463C586.533,197.731 588.162,199.868 588.561,199.801C589.143,199.704 589.325,197.074 589.422,196.645C590.125,193.551 591.986,191.743 592.217,188.153C592.506,183.686 590.366,178.37 588.152,174.679C584.131,167.977 580.76,160.307 576.654,153.624C569.416,141.841 560.586,130.252 549.844,121.356C533.83,108.094 510.692,99.469 488.957,97.248C480.012,96.334 465.203,96.745 456.216,97.527C455.346,97.602 463.711,94.521 468.242,93.564C478.793,91.336 488.888,90.407 495.837,90.371C496.332,90.368 487.97,87.942 485.385,87.421C477.489,85.83 469.306,84.261 461.288,83.621C445.647,82.374 434.443,82.342 416.41,87.509C411.872,88.809 407.343,92.497 402.962,94.249C402.696,94.356 401.612,95.274 400.625,95.634C400.449,95.75 400.24,95.79 400.012,95.775C399.784,95.79 399.575,95.75 399.399,95.634C398.412,95.274 397.328,94.356 397.062,94.249C392.681,92.497 388.152,88.809 383.614,87.509C365.581,82.342 354.377,82.374 338.736,83.621C330.718,84.261 322.536,85.83 314.639,87.421C312.054,87.942 303.692,90.368 304.187,90.371C311.136,90.407 321.231,91.336 331.782,93.564C336.313,94.521 344.678,97.602 343.808,97.527C334.821,96.745 320.012,96.334 311.067,97.248C289.332,99.469 266.194,108.094 250.18,121.356C239.438,130.252 230.608,141.841 223.37,153.624C219.264,160.307 215.894,167.977 211.872,174.679C209.658,178.37 207.519,183.686 207.807,188.153C208.038,191.743 209.899,193.551 210.602,196.645C210.699,197.074 210.881,199.704 211.463,199.801C211.862,199.868 213.491,197.731 213.769,197.463C216.161,195.148 218.279,192.626 220.284,189.97C220.606,189.543 221.891,187.281 222.537,187.281C222.635,187.281 222.313,189.468 222.303,189.566C222.162,191.022 222.015,192.484 221.931,193.945C221.676,198.405 221.507,204.123 223.695,208.186C224.166,209.061 228.867,204.748 229.211,204.424C229.282,204.358 229.858,203.761 230.289,203.344C232.297,196.518 234.733,189.827 237.579,183.376C245.729,164.903 268.351,134.944 288.566,128.827C296.332,126.477 305.975,128.852 311.662,129.169C320.085,129.638 325.872,123.12 334.444,121.55C349.695,118.758 382.569,130.779 390.975,144.229C391.431,144.959 389.528,143.291 388.825,142.792C387.371,141.76 385.818,140.893 384.337,139.907C380.023,137.03 374.761,135.116 369.994,133.103C355.895,127.15 338.472,129.024 325.029,135.501C315.477,140.104 306.698,146.163 299.56,154.048C297.043,156.828 294.764,159.803 292.661,162.906C291.797,164.181 290.933,165.459 290.096,166.753C290.085,166.77 289.762,167.285 289.716,167.228C289.355,166.776 291.151,162.965 291.343,162.419C293.246,157.014 295.894,151.877 298.954,147.043C299.87,145.596 300.804,144.159 301.732,142.721C301.805,142.608 303.198,140.55 303.145,140.524C302.129,140.016 298.802,141.506 297.897,141.759C292.355,143.308 287.185,145.265 282.224,148.218C266.702,157.457 253.355,171.784 244.229,187.259C241.463,191.949 237.059,198.404 236.19,203.905C235.961,205.357 238.043,201.619 238.85,200.391C240.541,197.817 242.687,195.568 244.68,193.231C250.456,186.459 256.625,180.148 263.309,174.269C264.358,173.347 268.528,168.775 270.232,169.116C271.323,169.334 268.894,170.896 268.296,171.835C267.119,173.684 266.066,175.627 265.007,177.546C261.269,184.322 257.99,190.241 258.845,198.147C258.92,198.838 258.987,204.116 259.688,204.416C259.857,204.489 262.83,200.574 263.119,200.284C265.632,197.772 268.912,195.68 272.215,194.359C276.735,192.551 273.357,199.155 276.074,199.298C279.284,199.467 282.371,194.492 285.323,193.48C288.88,192.261 288.045,196.95 291.858,194.118C298.761,188.989 304.362,182.063 309.694,175.299C310.389,174.418 315.499,168.035 316.717,168.035C316.794,168.035 315.134,174.726 315.078,176.635C314.858,184.231 311.464,192.156 321.697,192.418C325.117,192.506 328.353,188.206 331.571,187.401C333.474,186.925 333.57,188.914 334.967,188.969C340.4,189.187 342.244,185.466 345.427,181.892C352.029,174.48 357.825,171.279 358.064,172.157C358.343,173.18 351.273,185.727 349.559,189.942C348.123,193.476 347.061,197.179 346.401,200.937C346.35,201.228 346.094,204.604 345.795,204.653C345.003,204.786 345.049,193.699 345.036,193.706C340.754,195.847 341.771,211.718 339.621,213.867C338.748,214.74 338.957,211.485 338.743,210.27C338.347,208.029 338.602,203.137 337.96,202.191C337.137,200.981 337.387,203.822 333.851,203.837C326.017,203.869 325.683,202.151 320.35,205.817C313.962,210.208 311.808,220.541 310.234,227.51C310.038,228.377 309.158,236.144 308.334,236.38C308.313,236.386 308.156,229.722 308.156,229.232C308.156,222.942 308.38,216.583 307.586,210.329C307.492,209.591 307.396,204.903 306.138,204.903C302.585,204.903 300.003,215.324 299.239,217.703C295.961,227.901 293.521,238.344 290.975,248.74C290.09,252.356 287.187,262.072 287.187,262.072C287.187,262.072 286.874,252.995 286.819,250.438C286.633,241.677 286.32,233.765 284.421,225.219C284.244,224.422 281.85,216.889 280.901,216.889C280.365,216.889 276.479,221.46 274.885,222.037C271.631,223.216 272.625,220.499 271.032,220.651C269.604,220.787 268.543,223.226 263.844,222.761C262.032,222.581 261.857,220.399 260.092,222.369C254.262,228.872 251.024,238.566 247.589,246.401C246.647,248.549 244.616,254.471 244.787,253.407C245.172,250.999 245.178,248.558 245.262,246.128C245.512,238.856 245.811,231.776 245.487,224.494C245.407,222.7 244.62,217.834 242.68,216.776C240.601,215.642 236.835,220.99 235.81,222.238C230.344,228.9 228.109,240.397 226.383,248.598C226.202,249.455 225.2,258.368 224.578,258.524C223.073,258.9 222.832,250.514 222.679,249.918L223.272,246.496C223.25,246.496 223.253,245.413 223.261,244.474ZM251.174,244.947C251.153,244.481 251.197,244.126 251.514,244.261L251.174,244.947C251.194,245.386 251.27,245.924 251.23,246.245C251.08,247.433 250.934,248.621 250.79,249.809C250.325,253.647 250.281,257.349 250.315,261.195C250.46,277.473 256.406,293.324 262.583,308.073C264.321,312.221 266.067,316.363 267.744,320.537C268.275,321.857 268.842,323.163 269.392,324.475C269.691,325.187 271.014,326.696 270.244,326.63C269.444,326.561 267.739,323.576 267.308,323C264.527,319.286 261.954,315.447 259.566,311.47C252.217,299.233 249.2,284.842 247.545,270.781C246.781,264.286 245.965,257.221 248.22,250.922L251.174,244.947ZM548.75,244.947C548.771,244.481 548.728,244.126 548.411,244.261L548.75,244.947C548.731,245.386 548.654,245.924 548.695,246.245C548.845,247.433 548.99,248.621 549.134,249.809C549.599,253.647 549.643,257.349 549.609,261.195C549.464,277.473 543.519,293.324 537.341,308.073C535.604,312.221 533.857,316.363 532.18,320.537C531.65,321.857 531.082,323.163 530.532,324.475C530.234,325.187 528.911,326.696 529.68,326.63C530.48,326.561 532.186,323.576 532.617,323C535.398,319.286 537.97,315.447 540.358,311.47C547.707,299.233 550.724,284.842 552.379,270.781C553.144,264.286 553.96,257.221 551.705,250.922L548.75,244.947ZM575.768,263.709C575.268,263.023 575.181,265.304 574.973,266.126C574.588,267.651 574.158,269.168 573.736,270.683C572.436,275.346 570.94,279.976 569.472,284.588C566.678,293.367 563.555,302.028 560.748,310.801C559.815,313.715 558.777,316.584 557.77,319.473C557.45,320.392 557.112,321.304 556.802,322.227C556.767,322.332 556.298,323.746 556.343,323.747C556.736,323.758 557.808,321.274 557.955,321.004C559.548,318.082 561.105,315.142 562.643,312.191C569.025,299.94 574.326,285.597 575.54,271.704L575.768,263.709ZM224.156,263.709C224.656,263.023 224.743,265.304 224.951,266.126C225.336,267.651 225.766,269.168 226.188,270.683C227.488,275.346 228.984,279.976 230.453,284.588C233.247,293.367 236.369,302.028 239.177,310.801C240.11,313.715 241.147,316.584 242.154,319.473C242.474,320.392 242.812,321.304 243.123,322.227C243.158,322.332 243.627,323.746 243.582,323.747C243.189,323.758 242.117,321.274 241.97,321.004C240.376,318.082 238.819,315.142 237.282,312.191C230.899,299.94 225.598,285.597 224.385,271.704L224.156,263.709ZM498.755,237.573L498.747,237.38C498.742,237.257 498.706,236.31 498.636,236.429L498.755,237.573C498.783,238.262 498.803,238.951 498.808,239.641C498.826,241.863 498.73,244.068 498.459,246.274C497.653,252.828 495.686,259.242 493.704,265.519C490.033,277.147 485.885,289.649 478.862,299.744C476.295,303.433 473.541,307.095 470.573,310.473C470.229,310.864 465.992,315.397 466.142,315.569C466.506,315.986 469.997,313.448 470.339,313.23C474.721,310.439 479.213,307.701 482.851,303.943C496.403,289.944 502.092,270.051 500.135,250.85L498.755,237.573ZM301.17,237.573L301.178,237.38C301.183,237.257 301.218,236.31 301.288,236.429L301.17,237.573C301.141,238.262 301.122,238.951 301.116,239.641C301.099,241.863 301.195,244.068 301.466,246.274C302.272,252.828 304.239,259.242 306.221,265.519C309.892,277.147 314.04,289.649 321.063,299.744C323.63,303.433 326.384,307.095 329.351,310.473C329.696,310.864 333.932,315.397 333.783,315.569C333.418,315.986 329.928,313.448 329.585,313.23C325.204,310.439 320.711,307.701 317.074,303.943C303.521,289.944 297.832,270.051 299.789,250.85L301.17,237.573ZM523.217,251.78C523.278,252.534 523.09,253.913 523.078,254.239C522.97,257.138 522.996,260.02 522.539,262.895C520.688,274.548 519.599,285.849 514.102,296.502C512.303,299.987 510.399,303.406 508.504,306.839C508.285,307.236 505.588,312.282 505.683,312.313C506.099,312.449 507.782,310.124 507.994,309.886C510.37,307.211 512.72,304.485 514.85,301.608C523.556,289.845 527.493,271.661 524.746,257.261L523.217,251.78C523.199,251.561 523.16,251.394 523.089,251.322L523.217,251.78ZM276.708,251.78C276.646,252.534 276.835,253.913 276.847,254.239C276.954,257.138 276.929,260.02 277.386,262.895C279.237,274.548 280.326,285.849 285.823,296.502C287.621,299.987 289.525,303.406 291.42,306.839C291.64,307.236 294.337,312.282 294.242,312.313C293.825,312.449 292.143,310.124 291.931,309.886C289.554,307.211 287.204,304.485 285.075,301.608C276.369,289.845 272.432,271.661 275.179,257.261L276.708,251.78C276.726,251.561 276.765,251.394 276.836,251.322L276.708,251.78Z" style="fill: rgb(calc(var(--color_hairs_r, 38) + 142), calc(var(--color_hairs_g, 183) + 61), calc(var(--color_hairs_b, 200) + 53))" />
        <path d="M359.648,220.614C358.955,220.999 356.873,218.761 356.536,218.359C354.004,215.345 351.854,211.61 351.431,207.676C350.424,198.317 356.293,188.29 363.708,182.876C374.377,175.086 389.318,181.094 395.741,191.605C397.55,194.565 399.081,197.634 400.226,200.911C400.335,201.223 400.901,204.144 401.097,204.177C401.293,204.209 401.567,202.82 401.597,202.696C401.973,201.146 402.187,199.563 402.522,198.005C403.267,194.546 405.739,191.26 408.03,188.666C410.195,186.215 412.404,184.252 415.257,182.642C417.861,181.172 420.733,179.973 423.687,179.447C434.929,177.445 443.462,186.475 447.23,196.122C449.19,201.138 449.037,205.427 448.651,210.675C448.507,212.63 448.378,215.644 446.534,216.803C444.481,218.092 441.147,217.872 438.844,218.016C432.605,218.406 426.353,218.476 420.106,218.658C403.912,219.13 387.401,221.605 371.208,220.449" style="fill: rgb(var(--color_hairs_r, 38), var(--color_hairs_g, 183), var(--color_hairs_b, 200))" />
        <g>
          <path d="M208.689,295.093C208.232,294.734 209.253,296.11 209.538,296.616C210.097,297.608 210.667,298.601 211.269,299.567C213.155,302.597 214.998,305.793 217.283,308.548C221.923,314.14 227.132,321.635 234.479,323.825" style="fill: none; stroke: black; stroke-width: 2.1px" />
          <path d="M193.58,253.248C193.461,254.154 194.662,255.994 195.007,256.762C196.509,260.101 198.286,263.277 200.161,266.416C207.409,278.552 217.731,291.536 230.568,298.112" style="fill: none; stroke: black; stroke-width: 2.1px" />
          <path d="M201.106,250.497C200.679,250.471 201.509,251.249 201.711,251.626C202.078,252.31 202.472,252.981 202.865,253.651C204.149,255.844 205.528,257.955 207.13,259.93C211.621,265.469 217.575,270.835 223.978,274.114" style="fill: none; stroke: black; stroke-width: 2.1px" />
          <path d="M212.971,242.64C212.688,242.227 213.502,243.489 213.753,243.923C214.295,244.856 214.86,245.78 215.477,246.665C216.635,248.328 220.352,254.388 222.886,254.272" style="fill: none; stroke: black; stroke-width: 2.1px" />
          <path d="M577.491,252.747C581.688,251.788 586.21,246.131 588.74,242.589" style="fill: none; stroke: black; stroke-width: 2.1px" />
          <path d="M576.716,274.43C576.592,274.322 579.641,272.132 579.786,272.026C581.742,270.597 583.645,269.108 585.504,267.554C591.077,262.897 595.204,257.003 599.433,251.189" style="fill: none; stroke: black; stroke-width: 2.1px" />
          <path d="M569.18,299.107C573.033,296.709 577.298,293.644 579.981,291.068C591.054,280.439 598.801,268.031 605.997,254.667" style="fill: none; stroke: black; stroke-width: 2.1px" />
          <path d="M562.191,323.883C565.777,323.286 568.131,321.977 571.102,319.92C579.687,313.976 585.938,304.285 591.325,295.531" style="fill: none; stroke: black; stroke-width: 2.1px" />
        </g>
      </g>
      <g>
        <g>
          <path d="M400.615,209.051C397.768,208.881 392.72,208.905 389.869,208.905C380.148,208.905 370.734,209.944 361.256,212.035C360.842,212.126 353.384,213.705 353.384,213.943C353.384,219.639 360.839,229.241 364.359,233.125C364.835,233.65 370.228,238.542 370.015,238.969C369.878,239.243 363.56,235.031 363.123,234.684C361.692,233.547 360.368,232.243 359.107,230.922C356.839,228.549 354.666,226.042 352.941,223.239C350.387,219.088 347.687,214.865 345.983,210.275C345.936,210.149 345.484,208.475 345.324,208.475L345.324,213.056C345.324,218.242 346.344,223.495 347.621,228.504C351.025,241.856 356.401,255.009 361.397,267.776C364.593,275.944 368.495,283.997 371.701,292.159C374.048,298.133 375.054,303.414 376.664,309.655C376.765,310.045 377.831,315.618 377.806,315.593C375.153,312.892 370.904,303.806 369.776,302.036C361.809,289.536 350.014,282.205 341.509,270.551C339.894,268.338 333.369,254.841 333.369,254.841C333.369,254.841 338.295,272.259 339.494,276.475C343.145,289.31 348.033,300.543 354.042,312.409C355.761,315.802 362.659,327.118 362.076,327.118C358.927,327.118 353.08,321.647 346.434,319.709C327.984,314.33 316.374,306.59 307.254,288.148C304.324,282.222 301.63,276.119 300.941,269.463C300.341,263.676 300.295,257.994 299.864,257.886C299.543,257.806 298.519,274.674 299.083,280.367C300.359,293.25 302.383,304.244 305.832,315.78C306.445,317.832 310.096,328.185 310.096,328.185C310.096,328.185 304.667,323.812 303.138,322.098C296.952,315.159 289.49,308.539 284.634,300.562C284.032,299.573 280.327,292.8 279.326,292.675C279.107,292.648 278.498,301.686 278.44,302.321C277.648,310.868 276.292,319.522 276.492,328.126C276.511,328.96 277.745,334.467 277.225,334.858C277.224,334.858 272.159,329.594 271.831,329.133C267.53,323.098 262.836,317.289 258.827,311.052C257.6,309.143 256.496,307.012 255.724,304.873C255.658,304.689 254.649,301.555 254.649,301.555C254.649,301.555 253.95,304.207 253.239,305.356C251.071,308.858 247.473,313.513 248.9,317.997C250.427,322.795 257.515,336.617 257.232,336.485C254.037,334.987 246.693,326.561 246.693,326.561C246.693,326.561 246.925,334.816 246.925,336.213C246.925,344.353 247.191,351.7 247.051,360.925C247.028,362.396 247.565,369.93 246.443,371.053C245.46,372.036 244.183,354.508 243.856,351.987C242.819,343.991 232.705,304.948 230.784,297.121" style="fill: none; stroke: black; stroke-width: 2.1px" />
          <path d="M356.964,172.984C356.531,173.75 354.994,174.545 354.331,175.147C352.715,176.614 351.368,178.279 350.219,180.135C344.567,189.266 344.062,199.579 345.649,209.896" style="fill: none; stroke: black; stroke-width: 2.1px" />
          <path d="M353.119,214.275C352.988,214.402 352.22,210.81 352.12,209.8C351.829,206.86 351.946,203.851 352.438,200.941C353.977,191.829 360.102,182.169 369.443,179.732C373.711,178.618 380.537,179.325 384.378,181.606C394.019,187.333 398.84,194.405 399.375,208.835" style="fill: none; stroke: black; stroke-width: 2.1px" />
          <path d="M312.666,131.152C312.111,132.154 310.01,133.338 309.156,134.161C306.298,136.92 303.349,139.799 301.083,143.08C292.783,155.096 286.933,170.297 284.205,184.619" style="fill: none; stroke: black; stroke-width: 2.1px" />
          <path d="M301.608,231.383C301.915,231.285 301.513,232.019 301.457,232.336C301.334,233.032 301.217,233.727 301.129,234.429C300.857,236.577 300.65,238.732 300.399,240.882C299.669,247.15 299.698,253.486 299.845,259.784" style="fill: none; stroke: black; stroke-width: 2.1px" />
          <path d="M326.033,221.887C326.107,221.898 326.285,224.49 326.299,224.625C326.637,227.792 327.022,230.97 327.583,234.107C329.111,242.651 330.986,251.054 334.686,258.917" style="fill: none; stroke: black; stroke-width: 2.1px" />
          <path d="M253.189,240.01C252.454,241.847 250.709,245.338 249.801,248.1C248.06,253.399 247.03,258.661 246.054,264.109C242.88,281.83 241.474,300.406 248.27,317.396" style="fill: none; stroke: black; stroke-width: 2.1px" />
          <path d="M253.991,300.921C253.591,300.557 253.495,298.328 253.355,297.801C252.551,294.786 251.708,291.769 251.031,288.723C248.416,276.953 246.239,264.761 248.642,252.749" style="fill: none; stroke: black; stroke-width: 2.1px" />
          <path d="M280.212,293.054C279.485,293.327 279.715,291.582 279.465,290.847C278.572,288.229 277.864,285.563 277.108,282.902C274.095,272.288 273.299,260.728 276.844,250.095" style="fill: none; stroke: black; stroke-width: 2.1px" />
          <path d="M246.573,326.441C235.528,314.351 226.302,286.553 224.415,272.867C222.673,260.233 223.139,248.378 223.758,238.918C224.925,221.103 233.437,177.134 260.267,149.96C268.674,141.446 278.375,131.231 290.386,128.07C298.173,126.021 311.418,131.352 311.418,131.352C311.418,131.352 327.04,122.259 334.91,121.116C349.352,119.02 357.366,122.433 368.938,127.134C376.688,130.283 384.767,133.676 393.677,145.599" style="fill: none; stroke: black; stroke-width: 2.1px" />
        </g>
        <g transform="matrix(-1,0,0,1,800.234,0)">
          <path d="M399.232,208.99C396.385,208.82 392.72,208.905 389.869,208.905C380.148,208.905 370.734,209.944 361.256,212.035C360.842,212.126 353.384,213.705 353.384,213.943C353.384,219.639 360.839,229.241 364.359,233.125C364.835,233.65 370.228,238.542 370.015,238.969C369.878,239.243 363.56,235.031 363.123,234.684C361.692,233.547 360.368,232.243 359.107,230.922C356.839,228.549 354.666,226.042 352.941,223.239C350.387,219.088 347.687,214.865 345.983,210.275C345.936,210.149 345.484,208.475 345.324,208.475L345.324,213.056C345.324,218.242 346.344,223.495 347.621,228.504C351.025,241.856 356.401,255.009 361.397,267.776C364.593,275.944 368.495,283.997 371.701,292.159C374.048,298.133 375.054,303.414 376.664,309.655C376.765,310.045 377.831,315.618 377.806,315.593C375.153,312.892 370.904,303.806 369.776,302.036C361.809,289.536 350.014,282.205 341.509,270.551C339.894,268.338 333.369,254.841 333.369,254.841C333.369,254.841 338.295,272.259 339.494,276.475C343.145,289.31 348.033,300.543 354.042,312.409C355.761,315.802 362.659,327.118 362.076,327.118C358.927,327.118 353.08,321.647 346.434,319.709C327.984,314.33 316.374,306.59 307.254,288.148C304.324,282.222 301.63,276.119 300.941,269.463C300.341,263.676 300.295,257.994 299.864,257.886C299.543,257.806 298.519,274.674 299.083,280.367C300.359,293.25 302.383,304.244 305.832,315.78C306.445,317.832 310.096,328.185 310.096,328.185C310.096,328.185 304.667,323.812 303.138,322.098C296.952,315.159 289.49,308.539 284.634,300.562C284.032,299.573 280.327,292.8 279.326,292.675C279.107,292.648 278.498,301.686 278.44,302.321C277.648,310.868 276.292,319.522 276.492,328.126C276.511,328.96 277.745,334.467 277.225,334.858C277.224,334.858 272.159,329.594 271.831,329.133C267.53,323.098 262.836,317.289 258.827,311.052C257.6,309.143 256.496,307.012 255.724,304.873C255.658,304.689 254.649,301.555 254.649,301.555C254.649,301.555 253.95,304.207 253.239,305.356C251.071,308.858 247.473,313.513 248.9,317.997C250.427,322.795 257.515,336.617 257.232,336.485C254.037,334.987 246.693,326.561 246.693,326.561C246.693,326.561 246.925,334.816 246.925,336.213C246.925,344.353 247.191,351.7 247.051,360.925C247.028,362.396 247.565,369.93 246.443,371.053C245.46,372.036 244.183,354.508 243.856,351.987C242.819,343.991 238.19,320.033 231.433,300.837" style="fill: none; stroke: black; stroke-width: 2.1px" />
          <path d="M356.964,172.984C356.531,173.75 354.994,174.545 354.331,175.147C352.715,176.614 351.368,178.279 350.219,180.135C344.567,189.266 344.062,199.579 345.649,209.896" style="fill: none; stroke: black; stroke-width: 2.1px" />
          <path d="M353.119,214.275C352.988,214.402 352.22,210.81 352.12,209.8C351.829,206.86 351.946,203.851 352.438,200.941C353.977,191.829 360.102,182.169 369.443,179.732C373.711,178.618 380.537,179.325 384.378,181.606C394.019,187.333 398.711,194.165 399.246,208.595" style="fill: none; stroke: black; stroke-width: 2.1px" />
          <path d="M312.666,131.152C312.111,132.154 310.01,133.338 309.156,134.161C306.298,136.92 303.349,139.799 301.083,143.08C292.783,155.096 286.933,170.297 284.205,184.619" style="fill: none; stroke: black; stroke-width: 2.1px" />
          <path d="M301.608,231.383C301.915,231.285 301.513,232.019 301.457,232.336C301.334,233.032 301.217,233.727 301.129,234.429C300.857,236.577 300.65,238.732 300.399,240.882C299.669,247.15 299.698,253.486 299.845,259.784" style="fill: none; stroke: black; stroke-width: 2.1px" />
          <path d="M326.033,221.887C326.107,221.898 326.285,224.49 326.299,224.625C326.637,227.792 327.022,230.97 327.583,234.107C329.111,242.651 330.986,251.054 334.686,258.917" style="fill: none; stroke: black; stroke-width: 2.1px" />
          <path d="M253.189,240.01C252.454,241.847 250.709,245.338 249.801,248.1C248.06,253.399 247.03,258.661 246.054,264.109C242.88,281.83 241.474,300.406 248.27,317.396" style="fill: none; stroke: black; stroke-width: 2.1px" />
          <path d="M253.991,300.921C253.591,300.557 253.495,298.328 253.355,297.801C252.551,294.786 251.708,291.769 251.031,288.723C248.416,276.953 246.239,264.761 248.642,252.749" style="fill: none; stroke: black; stroke-width: 2.1px" />
          <path d="M280.212,293.054C279.485,293.327 279.715,291.582 279.465,290.847C278.572,288.229 277.864,285.563 277.108,282.902C274.095,272.288 273.299,260.728 276.844,250.095" style="fill: none; stroke: black; stroke-width: 2.1px" />
          <path d="M246.573,326.441C235.528,314.351 226.302,286.553 224.415,272.867C222.673,260.233 223.139,248.378 223.758,238.918C224.925,221.103 233.437,177.134 260.267,149.96C268.674,141.446 278.375,131.231 290.386,128.07C298.173,126.021 311.418,131.352 311.418,131.352C311.418,131.352 327.04,122.259 334.91,121.116C349.352,119.02 357.366,122.433 368.938,127.134C376.688,130.283 384.767,133.676 393.677,145.599" style="fill: none; stroke: black; stroke-width: 2.1px" />
        </g>
        <g>
          <path d="M398.993,120.24C399.751,120.874 400.378,118.828 401.109,118.163C402.48,116.916 404.037,115.768 405.582,114.747C410.658,111.39 416.1,108.786 421.761,106.581C439.392,99.714 461.724,94.729 480.776,98.301" style="fill: none; stroke: black; stroke-width: 2.1px" />
          <path d="M318.165,98.302C318.411,98.676 324.029,97.707 324.499,97.681C330.919,97.335 337.476,97.678 343.86,98.423C363.745,100.744 382.795,108.493 399.048,120.092" style="fill: none; stroke: black; stroke-width: 2.1px" />
          <path d="M359.782,83.337C359.95,83.002 361.984,82.973 362.282,82.944C365.061,82.68 367.918,83.106 370.636,83.657C380.675,85.693 391.897,89.984 399.725,96.843" style="fill: none; stroke: black; stroke-width: 2.1px" />
          <path d="M440.112,82.991C439.727,82.716 437.92,83.132 437.497,83.165C434.979,83.361 432.444,83.473 429.938,83.786C419.696,85.068 406.762,89.497 399.447,97.167" style="fill: none; stroke: black; stroke-width: 2.1px" />
          <path d="M399.129,81.186C398.992,81.004 400.065,208.313 400.065,208.313" style="fill: none; stroke: black; stroke-width: 2.1px" />
          <path d="M353.854,201.347C353.761,200.942 354.692,201.386 355.091,201.504C356.489,201.916 357.854,202.397 359.174,203.021C362.588,204.632 365.42,207.206 367.493,210.369" style="fill: none; stroke: black; stroke-width: 2.1px" />
          <path d="M357.908,189.146C369.664,188.01 377.13,198.833 381.259,208.448" style="fill: none; stroke: black; stroke-width: 2.1px" />
          <path d="M364.995,182.024C364.944,182.058 365.491,182.143 365.531,182.144C365.858,182.15 366.184,182.147 366.511,182.152C367.593,182.17 368.692,182.219 369.768,182.33C372.769,182.641 375.493,184.042 377.93,185.751C385.255,190.886 391.411,200.175 393.939,208.682" style="fill: none; stroke: black; stroke-width: 2.1px" />
          <path d="M406.268,208.583C406.842,207.799 407.137,205.936 407.523,204.949C408.471,202.523 409.592,200.132 410.924,197.891C416.448,188.598 425.581,182.333 436.477,182.333" style="fill: none; stroke: black; stroke-width: 2.1px" />
          <path d="M418.776,208.872C418.777,208.872 419.128,207.75 419.148,207.692C419.415,206.905 419.718,206.131 420.036,205.363C420.998,203.037 422.333,200.796 423.847,198.789C428.438,192.703 434.849,188.887 442.531,188.887" style="fill: none; stroke: black; stroke-width: 2.1px" />
          <path d="M431.907,210.534C431.918,210.561 432.256,210.071 432.293,210.021C432.573,209.642 432.866,209.274 433.167,208.912C434.06,207.838 435.014,206.836 436.094,205.947C439.286,203.323 443.364,201.407 447.559,201.407" style="fill: none; stroke: black; stroke-width: 2.1px" />
          <path d="M245.456,302.574C246.274,302.151 247.304,302.598 248.218,302.483C250.21,302.231 251.762,301.908 253.444,300.831" style="fill: none; stroke: black; stroke-width: 2.1px" />
          <path d="M244.728,280.828C245.182,280.335 247.505,280.015 248.344,279.554" style="fill: none; stroke: black; stroke-width: 2.1px" />
          <path d="M546.919,301.424C546.525,300.519 548.82,301.963 549.791,302.142C551.664,302.487 553.6,303.265 555.67,302.48" style="fill: none; stroke: black; stroke-width: 2.1px" />
          <path d="M551.938,280.416C552.856,279.99 554.614,280.395 555.658,280.245" style="fill: none; stroke: black; stroke-width: 2.1px" />
        </g>
      </g>
    </g>
  </g>
</svg>