<svg
  width="100%"
  height="100%"
  viewBox="0 0 800 800"
  version="1.1"
  xmlns="http://www.w3.org/2000/svg"
>
  <g id="lab-glasses">
    <path
      id="shadow"
      d="M399.844,376.924C403.499,376.961 407.782,377.726 410.991,378.665C424.812,382.712 436.763,398.07 450.74,402.66C470.491,409.146 492.573,409.059 513.94,406.593C523.082,405.537 537.677,404.187 544.213,396.953L548.092,398.609C548.532,398.233 547.259,399.417 546.874,399.849C546.12,400.694 545.475,401.615 544.749,402.474C542.514,405.119 540.021,407.459 537.255,409.549C529.069,415.737 518.883,417.577 508.847,418.305C487.028,419.886 463.995,419.983 443.538,410.989C435.067,407.265 427.39,401.159 419.645,396.2C415.555,393.582 411.71,390.584 407.084,388.999C405.846,388.575 402.119,387.302 399.665,387.351C397.211,387.4 394.395,388.34 392.36,389.294C387.932,391.369 384.761,393.195 380.671,395.813C372.926,400.772 364.965,407.582 356.494,411.306C336.037,420.299 313.075,419.886 291.256,418.305C281.22,417.577 271.034,415.737 262.847,409.549C260.082,407.459 257.589,405.119 255.354,402.474C254.628,401.615 250.847,398.476 251.287,398.853L254.222,394.937C257.92,398.642 271.844,405.688 280.989,406.724C301.469,409.044 325.104,408.077 344.503,405.25C359.061,403.129 374.737,382.654 389.063,378.443C392.27,377.5 396.215,376.887 399.844,376.924Z"
      style="fill: rgb(56, 25, 57); fill-opacity: 0.5"
    />
    <g id="glasses">
      <path
        d="M559.626,284.905C559.626,284.905 568.235,351.837 544.224,396.308C556.817,387.243 560.415,377.395 562.404,369.707C564.394,362.019 569.507,317.525 568.982,306.958C568.457,296.391 568.277,293.902 566.227,289.841C564.177,285.78 559.626,284.905 559.626,284.905Z"
        style="fill: rgb(75, 122, 140); stroke: black; stroke-width: 2.1px"
      />
      <g transform="matrix(-1,0,0,1,800.284,0)">
        <path
          d="M559.771,285.084C559.771,285.084 568.965,350.64 544.954,395.11C557.547,386.045 559.672,375.652 561.661,367.964C563.65,360.276 569.561,318.034 568.949,305.607C568.429,295.039 567.474,293.695 565.424,289.634C563.374,285.573 559.771,285.084 559.771,285.084Z"
          style="fill: rgb(75, 122, 140); stroke: black; stroke-width: 2.1px"
        />
      </g>
      <path
        d="M400.245,358.328C410.468,358.237 416.013,365.533 421.223,371.255C426.556,377.112 441.078,393.214 441.078,393.214C428.127,385.496 415.983,367.982 400.072,367.343C381.534,369.901 376.789,384.065 359.411,393.214C359.411,393.214 373.933,377.112 379.266,371.255C384.476,365.533 390.021,358.237 400.245,358.328Z"
        style="fill: rgb(75, 122, 140); stroke: black; stroke-width: 2.1px"
      />
      <path
        d="M236.867,276.117C236.867,276.117 241.171,273.787 263.126,271.387C285.081,268.988 389.812,265.547 405.227,265.278C416.795,265.077 477.797,267.58 491.29,267.638C504.783,267.697 555.46,272.014 565.132,277.247C576.945,283.639 574.559,316.08 572.372,337.475C569.997,360.708 566.992,377.707 559.79,388.942C552.588,400.177 532.957,407.683 513.967,410.331C476.745,415.522 452.508,410.311 438.717,401.11C426.688,393.084 416.719,384.235 408.343,381.876C399.967,379.517 395.608,380.312 385.277,385.232C372.227,391.447 359.296,405.279 349.859,407.905C326.143,414.503 297.769,412.809 282.161,409.439C266.552,406.068 253.416,400.582 246.178,393.238C236.986,383.913 232.99,373.309 229.087,343.166C225.183,313.022 227.603,290.069 229.238,286.077C230.872,282.084 236.867,276.117 236.867,276.117Z"
        style="fill: url(#Lab-glasses_Linear1)"
      />
      <path
        d="M331.567,277.368L270.255,403.448L296.068,408.19L354.868,275.748L331.567,277.368ZM446.975,276.12L395.743,370.288L413.477,373.168L477.565,274.674L446.975,276.12ZM422.564,379.684L466.886,318.391L427.954,387.35L422.564,379.684ZM543.377,281.136L455.375,402.747L474.366,407.949L562.719,283.654L543.377,281.136Z"
        style="fill: url(#Lab-glasses_Linear2)"
      />
      <path
        d="M400.5,265.16C401.987,265.157 552.944,266.254 566.461,277.735C581.533,290.536 572.235,342.426 570.32,356.312C568.404,370.199 563.966,398.195 533.252,406.449C502.538,414.703 460.326,416.895 437.595,400C414.864,383.105 408.604,380.626 399.795,380.529C389.808,380.419 386.136,383.105 363.405,400C340.674,416.895 298.462,414.703 267.748,406.449C237.034,398.195 232.596,370.199 230.68,356.312C228.765,342.426 219.467,290.536 234.539,277.735C248.056,266.254 399.013,265.157 400.5,265.16ZM400.031,367.197C407.106,367.197 414.379,370.899 421.728,377.821C434.526,389.876 454.111,407.043 489.11,406C525.158,404.926 532.544,402.885 546.604,394.246C551.841,391.028 555.557,386.091 559.985,375.871C565.019,364.251 575.289,293.194 563.017,286.453C544.395,276.225 401.452,276.893 400.5,276.882C399.548,276.893 256.605,276.225 237.983,286.453C225.711,293.194 235.981,364.251 241.015,375.871C245.443,386.091 249.159,391.028 254.396,394.246C268.456,402.885 275.842,404.926 311.89,406C346.889,407.043 366.474,389.876 379.272,377.821C386.621,370.899 392.955,367.197 400.031,367.197Z"
        style="fill: rgb(198, 232, 243); fill-opacity: 0.7; stroke: black; stroke-opacity: 0.7; stroke-width: 2.1px"
      />
    </g>
  </g>
  <defs>
    <linearGradient id="Lab-glasses_Linear1" x1="0" y1="0" x2="1" y2="0" gradientUnits="userSpaceOnUse" gradientTransform="matrix(-1.08668,-89.3786,89.3786,-1.08668,398.441,342.671)">
      <stop offset="0" style="stop-color: rgb(198, 231, 244); stop-opacity: 0.6" />
      <stop offset="1" style="stop-color: rgb(81, 182, 221); stop-opacity: 0.6" />
    </linearGradient>
    <linearGradient id="Lab-glasses_Linear2" x1="0" y1="0" x2="1" y2="0" gradientUnits="userSpaceOnUse" gradientTransform="matrix(-8.308,101.87,-101.87,-8.308,404.202,312.116)">
      <stop offset="0" style="stop-color: white; stop-opacity: 1" />
      <stop offset="1" style="stop-color: white; stop-opacity: 0" />
    </linearGradient>
  </defs>
</svg>
