<svg width="800px" height="800px" viewBox="0 0 800 800" version="2.0" xmlns="http://www.w3.org/2000/svg" style="fill-rule: evenodd; clip-rule: evenodd; stroke-linecap: round; stroke-linejoin: round; stroke-miterlimit: 1.5">
  <g id="normal-card">
    <rect id="bg" x="-48.418" y="-9.957" width="931.967" height="871.066" style="fill: rgb(6, 46, 66)" />
    <g id="rectangles" transform="matrix(1,0,0,1,49.4291,64.1339)">
      <g opacity="0.5">
        <g transform="matrix(0.660629,0,0,1.04551,351.522,-81.058)">
          <rect x="462.47" y="633.282" width="419.335" height="322.449" style="fill: none" />
          <clipPath id="_clip1_card_template">
            <rect x="462.47" y="633.282" width="419.335" height="322.449" />
          </clipPath>
          <g clip-path="url(#_clip1_card_template)">
            <g transform="matrix(1.51371,0,0,0.956468,-452.99,37.369)">
              <path d="M604.78,633.282L877.032,634.306" style="fill: none; stroke: rgb(166, 240, 98); stroke-width: 4px; stroke-dasharray: 4.25, 7.5, 0, 0" />
            </g>
            <g transform="matrix(1.51371,0,0,0.956468,-452.99,58.0423)">
              <path d="M604.78,633.282L877.032,634.306" style="fill: none; stroke: rgb(166, 240, 98); stroke-width: 4px; stroke-dasharray: 4.25, 7.5, 0, 0" />
            </g>
            <g transform="matrix(1.51371,0,0,0.956468,-452.99,68.3789)">
              <path d="M604.78,633.282L877.032,634.306" style="fill: none; stroke: rgb(166, 240, 98); stroke-width: 4px; stroke-dasharray: 4.25, 7.5, 0, 0" />
            </g>
            <g transform="matrix(1.51371,0,0,0.956468,-452.99,89.0522)">
              <path d="M604.78,633.282L877.032,634.306" style="fill: none; stroke: rgb(166, 240, 98); stroke-width: 4px; stroke-dasharray: 4.25, 7.5, 0, 0" />
            </g>
            <g transform="matrix(1.51371,0,0,0.956468,-452.99,99.3888)">
              <path d="M604.78,633.282L877.032,634.306" style="fill: none; stroke: rgb(166, 240, 98); stroke-width: 4px; stroke-dasharray: 4.25, 7.5, 0, 0" />
            </g>
            <g transform="matrix(1.51371,0,0,0.956468,-452.99,130.399)">
              <path d="M604.78,633.282L877.032,634.306" style="fill: none; stroke: rgb(166, 240, 98); stroke-width: 4px; stroke-dasharray: 4.25, 7.5, 0, 0" />
            </g>
            <g transform="matrix(1.51371,0,0,0.956468,-452.99,151.072)">
              <path d="M604.78,633.282L877.032,634.306" style="fill: none; stroke: rgb(166, 240, 98); stroke-width: 4px; stroke-dasharray: 4.25, 7.5, 0, 0" />
            </g>
            <g transform="matrix(1.51371,0,0,0.956468,-452.99,171.745)">
              <path d="M604.78,633.282L877.032,634.306" style="fill: none; stroke: rgb(166, 240, 98); stroke-width: 4px; stroke-dasharray: 4.25, 7.5, 0, 0" />
            </g>
          </g>
          <rect x="462.47" y="633.282" width="419.335" height="322.449" style="fill: none; stroke: rgb(166, 240, 98); stroke-width: 4.57px; stroke-dasharray: 4.86, 8.58, 0, 0" />
        </g>
        <g transform="matrix(0.192707,0,0,1.04551,466.744,2.40586)">
          <rect x="462.47" y="633.282" width="419.335" height="322.449" style="fill: none" />
          <clipPath id="_clip2_card_template">
            <rect x="462.47" y="633.282" width="419.335" height="322.449" />
          </clipPath>
          <g clip-path="url(#_clip2_card_template)">
            <g transform="matrix(1.51371,0,0,0.956468,-452.99,37.369)">
              <path d="M604.78,633.282L877.032,634.306" style="fill: none; stroke: rgb(237, 30, 121); stroke-width: 5.43px; stroke-dasharray: 5.77, 10.18, 0, 0" />
            </g>
            <g transform="matrix(1.51371,0,0,0.956468,-452.99,58.0423)">
              <path d="M604.78,633.282L877.032,634.306" style="fill: none; stroke: rgb(237, 30, 121); stroke-width: 5.43px; stroke-dasharray: 5.77, 10.18, 0, 0" />
            </g>
            <g transform="matrix(1.51371,0,0,0.956468,-452.99,68.3789)">
              <path d="M604.78,633.282L877.032,634.306" style="fill: none; stroke: rgb(237, 30, 121); stroke-width: 5.43px; stroke-dasharray: 5.77, 10.18, 0, 0" />
            </g>
            <g transform="matrix(1.51371,0,0,0.956468,-452.99,89.0522)">
              <path d="M604.78,633.282L877.032,634.306" style="fill: none; stroke: rgb(237, 30, 121); stroke-width: 5.43px; stroke-dasharray: 5.77, 10.18, 0, 0" />
            </g>
          </g>
          <rect x="462.47" y="633.282" width="419.335" height="322.449" style="fill: none; stroke: rgb(237, 30, 121); stroke-width: 5.32px; stroke-dasharray: 5.65, 9.98, 0, 0" />
        </g>
      </g>
    </g>
    <g id="circles" opacity="0.5">
      <g transform="matrix(1,0,0,1,-118.853,-94.5905)">
        <circle cx="155.124" cy="124.814" r="124.814" style="fill: none; stroke: rgb(255, 207, 0); stroke-width: 4px; stroke-dasharray: 4.25, 7.5, 0, 0" />
      </g>
      <g transform="matrix(0.928318,0,0,0.928318,-107.734,-85.6437)">
        <circle cx="155.124" cy="124.814" r="124.814" style="fill: none; stroke: rgb(255, 207, 0); stroke-width: 4.31px; stroke-dasharray: 4.58, 8.08, 0, 0" />
      </g>
      <g transform="matrix(0.691272,0,0,0.691272,-70.9623,-56.0571)">
        <circle cx="155.124" cy="124.814" r="124.814" style="fill: none; stroke: rgb(255, 108, 0); stroke-width: 5.79px; stroke-dasharray: 6.15, 10.85, 0, 0" />
      </g>
    </g>
    <g id="rarity-bars" transform="matrix(0.86723,0,0,0.86723,10.4494,88.5493)">
      <g id="rarity-bars-fill">
        <g transform="matrix(0.114833,0,0,0.114833,59.0756,653.445)">
          <path d="M400,117.517L629.266,249.774L629.266,514.685L400.192,646.941L400.192,647.052L400.096,646.997L400,647.052L400,646.941L170.925,514.685L170.925,249.774L400,117.517Z" style="fill: rgb(139, 57, 219)" />
        </g>
        <g transform="matrix(0.114833,0,0,0.114833,126.648,653.445)">
          <path d="M400,117.517L629.266,249.774L629.266,514.685L400.192,646.941L400.192,647.052L400.096,646.997L400,647.052L400,646.941L170.925,514.685L170.925,249.774L400,117.517Z" style="fill: rgb(237, 30, 121)" />
        </g>
        <g transform="matrix(0.114833,0,0,0.114833,194.22,653.445)">
          <path d="M400,117.517L629.266,249.774L629.266,514.685L400.192,646.941L400.192,647.052L400.096,646.997L400,647.052L400,646.941L170.925,514.685L170.925,249.774L400,117.517Z" style="fill: rgb(241, 90, 36)" />
        </g>
        <g transform="matrix(0.114833,0,0,0.114833,261.792,653.445)">
          <path d="M400,117.517L629.266,249.774L629.266,514.685L400.192,646.941L400.192,647.052L400.096,646.997L400,647.052L400,646.941L170.925,514.685L170.925,249.774L400,117.517Z" style="fill: rgb(251, 176, 59)" />
        </g>
        <g transform="matrix(0.114833,0,0,0.114833,329.364,653.445)">
          <path d="M400,117.517L629.266,249.774L629.266,514.685L400.192,646.941L400.192,647.052L400.096,646.997L400,647.052L400,646.941L170.925,514.685L170.925,249.774L400,117.517Z" style="fill: rgb(41, 171, 226)" />
        </g>
      </g>
      <g id="rarity-bars-stroke">
        <g transform="matrix(0.114833,0,0,0.114833,59.0756,653.445)">
          <path d="M400,117.517L629.266,249.774L629.266,514.685L400.192,646.941L400.192,647.052L400.096,646.997L400,647.052L400,646.941L170.925,514.685L170.925,249.774L400,117.517Z" style="fill: none; stroke: white; stroke-width: 34.83px" />
        </g>
        <g transform="matrix(0.114833,0,0,0.114833,126.648,653.445)">
          <path d="M400,117.517L629.266,249.774L629.266,514.685L400.192,646.941L400.192,647.052L400.096,646.997L400,647.052L400,646.941L170.925,514.685L170.925,249.774L400,117.517Z" style="fill: none; stroke: white; stroke-width: 34.83px" />
        </g>
        <g transform="matrix(0.114833,0,0,0.114833,194.22,653.445)">
          <path d="M400,117.517L629.266,249.774L629.266,514.685L400.192,646.941L400.192,647.052L400.096,646.997L400,647.052L400,646.941L170.925,514.685L170.925,249.774L400,117.517Z" style="fill: none; stroke: white; stroke-width: 34.83px" />
        </g>
        <g transform="matrix(0.114833,0,0,0.114833,261.792,653.445)">
          <path d="M400,117.517L629.266,249.774L629.266,514.685L400.192,646.941L400.192,647.052L400.096,646.997L400,647.052L400,646.941L170.925,514.685L170.925,249.774L400,117.517Z" style="fill: none; stroke: white; stroke-width: 34.83px" />
        </g>
        <g transform="matrix(0.114833,0,0,0.114833,329.364,653.445)">
          <path d="M400,117.517L629.266,249.774L629.266,514.685L400.192,646.941L400.192,647.052L400.096,646.997L400,647.052L400,646.941L170.925,514.685L170.925,249.774L400,117.517Z" style="fill: none; stroke: white; stroke-width: 34.83px" />
        </g>
      </g>
    </g>
    <g transform="matrix(0.720342,0,0,0.720342,23.1337,330.63)">
      <text x="77.471px" y="439.84px" style="font-family: 'Futura-Medium', 'Futura', sans-serif; font-weight: 500; font-size: 50px; fill: white">RARITY</text>
    </g>

    <g transform="matrix(0.911866,0,0,0.911866,252.534,309.097)">
      <text x="190.763px" y="439.84px" style="font-family: 'Futura-Medium', 'Futura', sans-serif; font-weight: 500; font-size: 50px; fill: white" id="wear_value"></text>
    </g>
    <g transform="matrix(0.720342,0,0,0.720342,340.614,330.63)">
      <text x="77.471px" y="439.84px" style="font-family: 'Futura-Medium', 'Futura', sans-serif; font-weight: 500; font-size: 50px; fill: white">WEAR</text>
    </g>
    <g id="hat" transform="matrix(1.10125,0,0,1.10125,158.833,-78.5692)">
      <g transform="matrix(1,0,0,1,-51.9094,-2.83465)">
        <path d="M474.461,710.793C485.268,715.724 523.434,714.96 530.456,710.765" style="fill: none; stroke: white; stroke-width: 3px; stroke-linecap: butt" />
      </g>
      <g transform="matrix(1,0,0,0.58812,-0.101996,292.708)">
        <rect x="433.636" y="663.946" width="33.608" height="46.716" style="fill: white" />
      </g>
    </g>
    <g transform="matrix(0.720342,0,0,0.720342,520.614,330.63)">
      <text x="124.102px" y="439.84px" style="font-family: 'Futura-Medium', 'Futura', sans-serif; font-weight: 500; font-size: 50px; fill: white">SLOT</text>
    </g>
    <g transform="matrix(1,0,0,1,-7.69409,0)">
      <path d="M82.194,602.738L733.196,602.258C733.979,602.258 734.615,601.621 734.614,600.838C734.614,600.055 733.977,599.42 733.194,599.42L82.192,599.9C81.409,599.901 80.773,600.537 80.774,601.321C80.775,602.104 81.411,602.739 82.194,602.738Z" style="fill: white" />
    </g>
    <g transform="matrix(1,0,0,1,120.441,145.046)">
      <text x="110.471px" y="439.84px" style="font-family: 'Futura-Medium', 'Futura', sans-serif; font-weight: 500; font-size: 50px; fill: white">MAGIC HOOD</text>
    </g>
    <path
      id="border"
      d="M800,801.235L800,-4.106L-0,-4.106L0,801.235L800,801.235ZM260.875,30.644L30.644,30.644C30.644,30.644 30.644,769.356 30.644,769.356C30.644,769.356 769.356,769.356 769.356,769.356L769.356,30.644L539.125,30.644L539.125,61.806L260.875,61.806L260.875,30.644Z"
      style="fill: rgb(0, 153, 197)"
    />
    <g id="guide" transform="matrix(1,0,0,1.04284,1.75676,-22.4672)">
      <rect x="82.193" y="95.569" width="632.101" height="428.927" style="fill: url(#_Linear3_card_template); stroke: rgb(0, 153, 197); stroke-width: 4.8px" />
      <rect x="82.193" y="95.569" width="632.101" height="428.927" style="fill: url(#magic-hood)"/>
    </g>
    <pattern id="magic-hood" viewBox="0,0,800,800" width="100%" height="100%">
      <g id="robe-head-cover" transform="matrix(0.983499,0,0,0.979056,6.6007,7.05054)">
        <path
          id="shadow1"
          d="M400.214,344.056C414.974,338.133 435.811,337.989 448.786,337.016C510.247,332.411 569.554,342.779 590.842,408.016C603.32,446.258 601.87,489.279 597.788,528.834L574.672,534.569C572.285,536.96 573.033,528.003 571.893,524.822C569.414,517.907 566.105,514.156 562.29,507.873C550.684,488.757 536.517,469.094 516.929,457.944C488.973,442.03 461.66,445.172 431.396,448.909C426.341,449.533 410.608,452.791 400.214,452.791C389.82,452.791 374.086,449.533 369.032,448.909C338.767,445.172 311.455,442.03 283.499,457.944C263.91,469.094 249.743,488.757 238.137,507.873C234.322,514.156 231.013,517.907 228.534,524.822C227.394,528.003 228.142,536.96 225.755,534.569L202.639,528.834C198.558,489.279 197.107,446.258 209.586,408.016C230.874,342.779 290.18,332.411 351.641,337.016C364.617,337.989 385.453,338.133 400.214,344.056Z"
          style="fill: rgb(56, 25, 57); fill-opacity: 0.5"
        />
        <path
          d="M391.487,22.829C396.708,22.299 402.391,22.299 408.537,22.829C428.732,24.396 463.921,29.665 497.565,47.067C548.805,73.569 572.364,95.426 583.178,125.101C593.993,154.775 629.756,365.28 674.416,494.804C719.076,624.328 715.568,652.435 712.368,671.144C698.621,751.533 655.684,860.703 655.684,860.703L626.717,886.081C626.717,886.081 587.011,664.426 582.85,644.232C578.69,624.038 573.405,551.477 572.921,514.008C572.437,476.539 573.64,419.296 562.74,401.494C551.839,383.692 535.31,366.627 483.824,376.415C439.716,384.8 427.773,391.27 406.623,393.309C406.094,393.737 393.929,393.737 393.4,393.309C372.25,391.27 360.307,384.8 316.199,376.415C264.713,366.627 248.184,383.692 237.284,401.494C226.383,419.296 227.586,476.539 227.102,514.008C226.618,551.477 221.334,624.038 217.173,644.232C213.012,664.426 167.762,904.817 167.762,904.817L125.917,824.048C125.917,824.048 80.983,702.749 86.371,662.529C87.473,654.299 80.948,624.328 125.608,494.804C170.267,365.28 206.031,154.775 216.845,125.101C227.659,95.426 251.218,73.569 302.458,47.067C336.103,29.665 371.291,24.396 391.487,22.829Z"
          style="fill: rgb(97, 69, 109)"
        />
        <clipPath id="_clip3">
          <path
            d="M391.487,22.829C396.708,22.299 402.391,22.299 408.537,22.829C428.732,24.396 463.921,29.665 497.565,47.067C548.805,73.569 572.364,95.426 583.178,125.101C593.993,154.775 629.756,365.28 674.416,494.804C719.076,624.328 715.568,652.435 712.368,671.144C698.621,751.533 655.684,860.703 655.684,860.703L626.717,886.081C626.717,886.081 587.011,664.426 582.85,644.232C578.69,624.038 573.405,551.477 572.921,514.008C572.437,476.539 573.64,419.296 562.74,401.494C551.839,383.692 535.31,366.627 483.824,376.415C439.716,384.8 427.773,391.27 406.623,393.309C406.094,393.737 393.929,393.737 393.4,393.309C372.25,391.27 360.307,384.8 316.199,376.415C264.713,366.627 248.184,383.692 237.284,401.494C226.383,419.296 227.586,476.539 227.102,514.008C226.618,551.477 221.334,624.038 217.173,644.232C213.012,664.426 167.762,904.817 167.762,904.817L125.917,824.048C125.917,824.048 80.983,702.749 86.371,662.529C87.473,654.299 80.948,624.328 125.608,494.804C170.267,365.28 206.031,154.775 216.845,125.101C227.659,95.426 251.218,73.569 302.458,47.067C336.103,29.665 371.291,24.396 391.487,22.829Z"
          />
        </clipPath>
        <g clip-path="url(#_clip3)">
          <path
            d="M141.765,848.216C141.584,847.945 144.112,839.424 144.365,838.078C146.317,827.721 155.084,783.883 156.483,773.441C162.284,730.151 170.346,686.858 176.895,643.674C178.795,631.137 182.212,592.77 183.472,592.295C183.699,592.209 182.465,614.498 182.041,620.128C180.809,636.521 180.877,663.02 178.604,679.319C171.287,731.787 162.058,796.819 149.879,843.205L141.765,848.216ZM655.361,843.246C655.542,842.975 653.014,834.454 652.76,833.109C650.809,822.751 644.298,783.883 642.898,773.441C637.098,730.151 629.035,686.858 622.487,643.674C620.586,631.137 617.169,592.77 615.909,592.295C615.682,592.209 616.917,614.498 617.34,620.128C618.573,636.521 618.505,663.02 620.778,679.319C623.686,700.172 625.614,717.404 627.647,733.511C630.728,757.931 639.908,810.285 647.247,838.235L655.361,843.246ZM409.071,12.79L591.84,49.205L808.725,745.796L809.528,768.376C809.528,768.376 797.063,757.864 793.088,755.92C789.113,753.976 779.222,749.882 773.869,746.413C768.515,742.943 751.992,726.408 749.316,722.865C746.64,719.322 741.194,716.549 741.419,717.231C741.645,717.913 747.447,746.104 747.447,746.104C747.447,746.104 740.02,729.46 737.437,723.767C734.853,718.075 730.865,704.812 726.927,695.826C722.988,686.839 714.685,678.946 714.685,678.946C714.685,678.946 713.025,694.248 712.356,701.562C711.687,708.876 694.523,774.359 694.523,774.359C694.523,774.359 704.328,699.471 702.963,684.05C701.597,668.63 666.552,562.533 653.702,528.722C640.852,494.912 595.001,327.517 583.923,284.184C572.844,240.852 568.109,174.478 564.254,147.984C560.398,121.49 550.996,104.56 540.284,92.642C529.571,80.724 492.812,62.022 463.034,49.554C441.162,40.397 413.066,38.707 399.691,38.455C386.316,38.707 358.219,40.397 336.347,49.554C306.569,62.022 269.81,80.724 259.098,92.642C248.385,104.56 238.983,121.49 235.128,147.984C231.272,174.478 226.537,240.852 215.459,284.184C204.381,327.517 158.53,494.912 145.679,528.722C132.829,562.533 97.784,668.63 96.419,684.05C95.053,699.471 104.858,774.359 104.858,774.359C104.858,774.359 87.695,708.876 87.026,701.562C86.356,694.248 84.697,678.946 84.697,678.946C84.697,678.946 76.393,686.839 72.455,695.826C68.516,704.812 64.529,718.075 61.945,723.767C59.361,729.46 51.934,746.104 51.934,746.104C51.934,746.104 57.737,717.913 57.962,717.231C58.187,716.549 52.741,719.322 50.065,722.865C47.389,726.408 30.866,742.943 25.513,746.413C20.159,749.882 10.269,753.976 6.294,755.92C2.319,757.864 -10.146,768.376 -10.146,768.376L-9.344,745.796L207.542,49.205L390.311,12.79L390.07,9.005L399.691,10.921L409.311,9.005L409.071,12.79ZM221.295,405.308C221.031,405.232 221.41,403.234 221.436,403.019C222.247,396.338 223.286,389.69 224.676,383.102C229.86,358.533 236.442,334.273 241.999,309.789C249.069,278.643 253.972,247.174 257.679,215.464C258.095,211.904 261.121,184.133 262.952,183.035C263.828,182.509 263.768,210.591 262.678,219.924C259.874,243.93 258.55,268.079 256.931,292.183C255.88,307.832 254.137,323.374 251.558,338.847C250.759,343.643 251.016,361.227 251.016,361.227C251.016,361.227 273.645,361.012 278.033,362.266C278.165,362.303 278.631,362.413 278.631,362.614C278.631,364.796 262.235,370.501 260.403,371.392C244.235,379.258 232.789,388.637 224.294,404.32L221.295,405.308ZM578.086,405.308C578.35,405.232 577.972,403.234 577.946,403.019C577.134,396.338 576.095,389.69 574.705,383.102C569.521,358.533 562.94,334.273 557.382,309.789C550.312,278.643 545.409,247.174 541.703,215.464C541.287,211.904 538.26,184.133 536.429,183.035C535.553,182.509 535.613,210.591 536.703,219.924C539.507,243.93 540.831,268.079 542.45,292.183C543.501,307.832 545.245,323.374 547.823,338.847C548.623,343.643 548.365,361.227 548.365,361.227C548.365,361.227 525.736,361.012 521.348,362.266C521.217,362.303 520.75,362.413 520.75,362.614C520.75,364.796 537.147,370.501 538.979,371.392C555.147,379.258 566.592,388.637 575.087,404.32L578.086,405.308Z"
            style="fill: rgb(214, 152, 193)"
          />
          <path
            d="M119.378,806.353C119.201,805.096 119.033,803.838 118.873,802.578C118.117,796.621 117.625,790.657 117.27,784.664C116.224,766.959 115.297,749.32 117.27,731.639C123.647,674.516 143.219,618.173 164.936,565.336C169.457,554.335 173.939,543.315 178.076,532.163C178.461,531.123 184.281,515.103 184.917,515.421C186.981,516.454 184.737,529.819 184.615,531.629C183.473,548.657 182.765,565.676 182.005,582.723C179.366,641.91 167.291,696.883 159.542,754.998C157.481,770.457 158.949,811.49 149.375,822.395C140.786,832.179 123.32,833.544 111.385,835.475C75.975,841.202 37.506,841.041 2.001,836.173L-56.098,824.659C-55.472,824.157 -53.685,822.7 -52.969,822.065C-51.008,820.327 -48.968,818.694 -46.936,817.041C-40.592,811.884 -34.146,806.862 -27.665,801.88C-10.909,788.998 7.442,778.407 24.102,765.329C26.206,763.678 37.028,752.406 40.034,753.844C42.263,754.91 46.917,776.863 47.625,780.399C47.667,780.609 48.127,783.63 48.331,783.63C48.478,783.63 48.205,780.741 48.193,780.597C47.957,777.802 47.812,774.991 47.702,772.188C47.397,764.381 47.503,756.56 48.926,748.863C49.058,748.147 51.556,737.951 52.346,738.498C54.289,739.843 52.898,750.767 52.932,752.853C53.137,765.335 56.83,775.876 62.143,787.034C64.325,791.616 66.632,796.138 68.838,800.708C69.904,802.915 70.748,809.444 72.009,807.342C72.465,806.582 69.991,785.591 70.01,782.932C70.156,761.929 71.274,738.985 76.024,718.499C76.633,715.875 83.419,693.994 86.544,693.426C86.599,693.416 90.181,710.183 90.422,711.098C93.563,723.033 97.128,734.86 100.313,746.787C104.757,763.427 109.943,779.706 115.452,796.021C115.776,796.98 118.007,802.155 119.378,806.353C119.528,807.421 119.684,808.489 119.847,809.557C119.963,810.32 119.688,812.386 120.234,811.84C120.774,811.3 120.25,809.025 119.378,806.353ZM681.075,806.353C681.251,805.096 681.42,803.838 681.58,802.578C682.335,796.621 682.828,790.657 683.182,784.664C684.229,766.959 685.156,749.32 683.182,731.639C676.806,674.516 657.234,618.173 635.517,565.336C630.995,554.335 626.514,543.315 622.377,532.163C621.991,531.123 616.171,515.103 615.536,515.421C613.471,516.454 615.716,529.819 615.837,531.629C616.98,548.657 617.688,565.676 618.448,582.723C621.087,641.91 633.162,696.883 640.911,754.998C642.972,770.457 641.504,811.49 651.078,822.395C659.667,832.179 677.132,833.544 689.067,835.475C724.478,841.202 762.946,841.041 798.451,836.173L856.551,824.659C855.925,824.157 854.137,822.7 853.422,822.065C851.461,820.327 849.421,818.694 847.388,817.041C841.044,811.884 834.599,806.862 828.117,801.88C811.362,788.998 793.011,778.407 776.351,765.329C774.247,763.678 763.424,752.406 760.419,753.844C758.19,754.91 753.535,776.863 752.828,780.399C752.786,780.609 752.325,783.63 752.121,783.63C751.974,783.63 752.247,780.741 752.259,780.597C752.496,777.802 752.641,774.991 752.75,772.188C753.055,764.381 752.95,756.56 751.527,748.863C751.394,748.147 748.896,737.951 748.106,738.498C746.163,739.843 747.555,750.767 747.52,752.853C747.316,765.335 743.623,775.876 738.309,787.034C736.127,791.616 733.821,796.138 731.615,800.708C730.549,802.915 729.705,809.444 728.444,807.342C727.987,806.582 730.461,785.591 730.443,782.932C730.297,761.929 729.179,738.985 724.429,718.499C723.82,715.875 717.033,693.994 713.908,693.426C713.853,693.416 710.271,710.183 710.031,711.098C706.89,723.033 703.325,734.86 700.139,746.787C695.695,763.427 690.509,779.706 685,796.021C684.676,796.98 682.445,802.155 681.075,806.353C680.924,807.421 680.768,808.489 680.606,809.557C680.49,810.32 680.764,812.386 680.218,811.84C679.679,811.3 680.202,809.025 681.075,806.353ZM-56.098,824.659C-56.36,824.87 -56.419,824.912 -56.11,824.657L-56.098,824.659ZM856.551,824.659L856.562,824.657C856.871,824.912 856.813,824.87 856.551,824.659ZM238.378,326.445C238.187,326.993 238.265,314.503 238.223,311.064C238.097,300.78 239.481,290.196 239.99,279.919C241.535,248.772 242.299,216.24 250.391,186.011C252.277,178.963 254.531,171.952 257.8,165.412C258.105,164.802 260.264,159.662 261.182,159.815C262.274,159.997 261.698,167.763 261.698,168.515C261.698,177.993 260.902,186.919 259.834,196.349C257.434,217.544 252.517,245.716 249.404,269.882C247.352,285.809 244.77,298.467 241.651,314.21L238.378,326.445ZM562.074,326.445C562.266,326.993 562.187,314.503 562.229,311.064C562.355,300.78 560.972,290.196 560.462,279.919C558.918,248.772 558.153,216.24 550.062,186.011C548.175,178.963 545.922,171.952 542.652,165.412C542.347,164.802 540.189,159.662 539.27,159.815C538.178,159.997 538.754,167.763 538.754,168.515C538.754,177.993 539.551,186.919 540.618,196.349C543.019,217.544 547.936,245.716 551.049,269.882C553.101,285.809 555.682,298.467 558.801,314.21L562.074,326.445Z"
            style="fill: rgb(54, 30, 66)"
          />
          <g id="lines">
            <path d="M260.932,182.604C262.551,186.514 260.178,194.673 259.706,198.653C258.09,212.288 256.135,225.859 254.028,239.427C245.832,292.213 235.01,345.266 222.476,397.195" style="fill: none; stroke: black; stroke-width: 2.1px" />
            <path
              d="M84.338,665.324C84.924,665.132 84.428,666.554 84.462,667.17C84.527,668.352 84.611,669.534 84.683,670.717C84.899,674.241 85.191,677.761 85.453,681.282C86.241,691.866 87.755,702.313 89.798,712.723C95.817,743.407 107.481,771.785 116.546,801.553"
              style="fill: none; stroke: black; stroke-width: 2.1px"
            />
            <path d="M61.041,700.381C61.525,700.829 60.53,704.642 60.448,705.176C59.63,710.458 58.411,715.644 57.149,720.834C54.793,730.52 51.536,739.964 49.789,749.8C47.758,761.231 47.51,772.866 47.672,784.444" style="fill: none; stroke: black; stroke-width: 2.1px" />
            <path d="M182.364,587.803C182.364,587.803 181.513,600.318 181.163,604.459C179.931,619.046 178.173,633.688 176.124,648.185C172.758,671.995 167.233,695.377 163.595,719.132C159.267,747.394 152.449,828.097 149.001,856.486" style="fill: none; stroke: black; stroke-width: 2.1px" />
            <g transform="matrix(-1,0,0,1,800.453,0)">
              <path d="M260.932,182.604C262.551,186.514 260.178,194.673 259.706,198.653C258.09,212.288 256.135,225.859 254.028,239.427C245.832,292.213 235.01,345.266 222.476,397.195" style="fill: none; stroke: black; stroke-width: 2.1px" />
            </g>
            <g transform="matrix(-1,0,0,1,800.453,0)">
              <path
                d="M84.338,665.324C84.924,665.132 84.428,666.554 84.462,667.17C84.527,668.352 84.611,669.534 84.683,670.717C84.899,674.241 85.191,677.761 85.453,681.282C86.241,691.866 87.755,702.313 89.798,712.723C95.817,743.407 107.481,771.785 116.546,801.553"
                style="fill: none; stroke: black; stroke-width: 2.1px"
              />
            </g>
            <g transform="matrix(-1,0,0,1,800.453,0)">
              <path d="M61.041,700.381C61.525,700.829 60.53,704.642 60.448,705.176C59.63,710.458 58.411,715.644 57.149,720.834C54.793,730.52 51.536,739.964 49.789,749.8C47.758,761.231 47.51,772.866 47.672,784.444" style="fill: none; stroke: black; stroke-width: 2.1px" />
            </g>
            <g transform="matrix(-1,0,0,1,800.453,0)">
              <path d="M182.364,587.803C182.364,587.803 181.513,600.318 181.163,604.459C179.931,619.046 178.173,633.688 176.124,648.185C172.758,671.995 167.233,695.377 163.595,719.132C159.267,747.394 152.858,825.656 149.41,854.044" style="fill: none; stroke: black; stroke-width: 2.1px" />
            </g>
          </g>
          <path
            id="border-strip"
            d="M399.953,377.508C404.893,377.329 411.605,376.476 417.609,375.426C426.937,373.794 453.916,363.14 496.474,360.283C531.443,357.936 551.274,365.133 569.178,381.679C587.082,398.225 583.895,445.615 582.646,472.494C581.396,499.373 582.313,590.113 592.143,635.269C601.973,680.425 658.955,900.892 658.955,900.892C658.955,900.892 616.444,865.363 610.71,813.839C609.236,800.589 575.262,676.266 573.024,656.317C570.785,636.369 564.596,594.294 564.076,502.157C563.555,410.02 558.269,418.702 547.667,401.002C537.065,383.303 509.914,388.255 493.458,391.205C477.003,394.155 438.423,395.735 419.537,400.843C410.504,403.287 404.137,403.744 399.953,403.555C395.768,403.744 389.402,403.287 380.368,400.843C361.482,395.735 322.902,394.155 306.447,391.205C289.992,388.255 262.84,383.303 252.238,401.002C241.636,418.702 236.35,410.02 235.83,502.157C235.309,594.294 229.12,636.369 226.882,656.317C224.643,676.266 176.278,883.878 170.966,896.096C165.654,908.314 150.184,848.465 150.184,848.465C150.184,848.465 197.933,680.425 207.762,635.269C217.592,590.113 218.509,499.373 217.26,472.494C216.01,445.615 212.581,398.889 230.485,382.343C248.389,365.796 270.42,356.547 305.17,361.111C340.557,365.759 372.969,373.794 382.296,375.426C388.301,376.476 395.013,377.329 399.953,377.508Z"
            style="fill: rgb(163, 130, 175); stroke: black; stroke-width: 2.1px"
          />
          <path
            d="M404.248,13.055C415.865,13.573 437.196,15.143 452.372,19.865C474.219,26.664 533.776,49.722 562.259,82.549C590.741,115.375 604.449,160.985 604.449,160.985L600.443,200.699C600.443,200.699 594.641,180.149 585.474,170.468C576.308,160.787 561.053,146.882 556.711,140.809C552.37,134.737 543.819,115.708 543.819,115.708C543.819,115.708 526.769,129.963 506.126,128.477C485.484,126.992 448.619,106.443 447.338,104.924C446.057,103.406 449.333,112.691 427.101,141.315C410.056,163.262 403.015,179.789 400.657,186.306L400.085,187.957L399.512,186.306C397.154,179.789 390.113,163.262 373.068,141.315C350.836,112.691 354.112,103.406 352.831,104.924C351.55,106.443 314.685,126.992 294.043,128.477C273.4,129.963 256.39,115.544 256.39,115.544C256.39,115.544 247.799,134.737 243.458,140.809C239.116,146.882 223.861,160.787 214.695,170.468C205.528,180.149 199.726,200.699 199.726,200.699L195.72,160.985C195.72,160.985 209.428,115.375 237.911,82.549C266.393,49.722 325.95,26.664 347.797,19.865C362.973,15.143 384.304,13.573 395.921,13.055L395.917,12.803C395.917,12.803 397.454,12.814 400.085,12.897C402.715,12.814 404.252,12.803 404.252,12.803L404.248,13.055ZM234.679,92.141C234.679,92.141 235.247,95.934 237.666,99.485C240.084,103.035 243.037,105.629 243.037,105.629C243.037,105.629 238.728,114.197 234.433,119.962C230.137,125.728 216.494,138.026 212.125,141.435C207.756,144.845 210.187,134.65 210.187,134.65C210.187,134.65 215.543,116.363 220.353,107.834C225.163,99.305 234.679,92.141 234.679,92.141ZM565.49,92.141C565.49,92.141 564.922,95.934 562.503,99.485C560.085,103.035 557.132,105.629 557.132,105.629C557.132,105.629 561.441,114.197 565.736,119.962C570.032,125.728 583.676,138.026 588.045,141.435C592.414,144.845 589.982,134.65 589.982,134.65C589.982,134.65 584.626,116.363 579.816,107.834C575.006,99.305 565.49,92.141 565.49,92.141ZM400.085,61.006C400.078,61.008 400.073,61.013 400.07,61.019C400.039,61.068 399.887,61.145 399.645,61.27C398.361,62.347 394.694,66.427 392.452,69.162C389.761,72.443 376.409,86.221 376.284,86.465C376.16,86.709 377.631,94.07 381.291,100.922C384.951,107.775 391.383,117.033 393.641,120.117C395.72,122.958 399.5,131.768 400.085,133.144C400.669,131.768 404.449,122.958 406.528,120.117C408.786,117.033 415.218,107.775 418.878,100.922C422.538,94.07 424.01,86.709 423.885,86.465C423.76,86.221 410.408,72.443 407.718,69.162C405.475,66.427 401.809,62.347 400.524,61.27C400.282,61.145 400.13,61.068 400.099,61.019C400.096,61.013 400.091,61.008 400.085,61.006ZM250.309,76.151C250.309,76.151 256.812,88.218 268.024,92.933C279.237,97.648 298.652,102.821 319.337,93.043C340.022,83.265 350.884,73.836 360.378,65.525C369.872,57.214 381.114,40.534 381.114,40.534L366.781,26.279L350.966,25.736C350.966,25.736 300.085,38.558 281.791,52.635C263.498,66.712 250.309,76.151 250.309,76.151ZM549.86,76.151C549.86,76.151 543.357,88.218 532.145,92.933C520.932,97.648 501.517,102.821 480.832,93.043C460.147,83.265 449.285,73.836 439.791,65.525C430.297,57.214 419.055,40.534 419.055,40.534L433.388,26.279L449.203,25.736C449.203,25.736 500.084,38.558 518.378,52.635C536.672,66.712 549.86,76.151 549.86,76.151Z"
            style="fill: rgb(177, 140, 191)"
          />
          <clipPath id="_clip4">
            <path
              d="M404.248,13.055C415.865,13.573 437.196,15.143 452.372,19.865C474.219,26.664 533.776,49.722 562.259,82.549C590.741,115.375 604.449,160.985 604.449,160.985L600.443,200.699C600.443,200.699 594.641,180.149 585.474,170.468C576.308,160.787 561.053,146.882 556.711,140.809C552.37,134.737 543.819,115.708 543.819,115.708C543.819,115.708 526.769,129.963 506.126,128.477C485.484,126.992 448.619,106.443 447.338,104.924C446.057,103.406 449.333,112.691 427.101,141.315C410.056,163.262 403.015,179.789 400.657,186.306L400.085,187.957L399.512,186.306C397.154,179.789 390.113,163.262 373.068,141.315C350.836,112.691 354.112,103.406 352.831,104.924C351.55,106.443 314.685,126.992 294.043,128.477C273.4,129.963 256.39,115.544 256.39,115.544C256.39,115.544 247.799,134.737 243.458,140.809C239.116,146.882 223.861,160.787 214.695,170.468C205.528,180.149 199.726,200.699 199.726,200.699L195.72,160.985C195.72,160.985 209.428,115.375 237.911,82.549C266.393,49.722 325.95,26.664 347.797,19.865C362.973,15.143 384.304,13.573 395.921,13.055L395.917,12.803C395.917,12.803 397.454,12.814 400.085,12.897C402.715,12.814 404.252,12.803 404.252,12.803L404.248,13.055ZM234.679,92.141C234.679,92.141 235.247,95.934 237.666,99.485C240.084,103.035 243.037,105.629 243.037,105.629C243.037,105.629 238.728,114.197 234.433,119.962C230.137,125.728 216.494,138.026 212.125,141.435C207.756,144.845 210.187,134.65 210.187,134.65C210.187,134.65 215.543,116.363 220.353,107.834C225.163,99.305 234.679,92.141 234.679,92.141ZM565.49,92.141C565.49,92.141 564.922,95.934 562.503,99.485C560.085,103.035 557.132,105.629 557.132,105.629C557.132,105.629 561.441,114.197 565.736,119.962C570.032,125.728 583.676,138.026 588.045,141.435C592.414,144.845 589.982,134.65 589.982,134.65C589.982,134.65 584.626,116.363 579.816,107.834C575.006,99.305 565.49,92.141 565.49,92.141ZM400.085,61.006C400.078,61.008 400.073,61.013 400.07,61.019C400.039,61.068 399.887,61.145 399.645,61.27C398.361,62.347 394.694,66.427 392.452,69.162C389.761,72.443 376.409,86.221 376.284,86.465C376.16,86.709 377.631,94.07 381.291,100.922C384.951,107.775 391.383,117.033 393.641,120.117C395.72,122.958 399.5,131.768 400.085,133.144C400.669,131.768 404.449,122.958 406.528,120.117C408.786,117.033 415.218,107.775 418.878,100.922C422.538,94.07 424.01,86.709 423.885,86.465C423.76,86.221 410.408,72.443 407.718,69.162C405.475,66.427 401.809,62.347 400.524,61.27C400.282,61.145 400.13,61.068 400.099,61.019C400.096,61.013 400.091,61.008 400.085,61.006ZM250.309,76.151C250.309,76.151 256.812,88.218 268.024,92.933C279.237,97.648 298.652,102.821 319.337,93.043C340.022,83.265 350.884,73.836 360.378,65.525C369.872,57.214 381.114,40.534 381.114,40.534L366.781,26.279L350.966,25.736C350.966,25.736 300.085,38.558 281.791,52.635C263.498,66.712 250.309,76.151 250.309,76.151ZM549.86,76.151C549.86,76.151 543.357,88.218 532.145,92.933C520.932,97.648 501.517,102.821 480.832,93.043C460.147,83.265 449.285,73.836 439.791,65.525C430.297,57.214 419.055,40.534 419.055,40.534L433.388,26.279L449.203,25.736C449.203,25.736 500.084,38.558 518.378,52.635C536.672,66.712 549.86,76.151 549.86,76.151Z"
            />
          </clipPath>
          <g clip-path="url(#_clip4)">
            <path
              d="M400.092,10.936C406.189,8.993 415.102,10.569 419.709,11.022C444.78,13.485 469.423,19.569 493.022,28.329C523.107,39.497 554.904,56.611 575.142,82.259C594.955,107.37 600.224,142.846 603.491,173.725C604.881,186.858 606.569,200.542 605.546,213.763C605.476,214.673 605.389,215.579 605.247,216.481C604.207,223.112 599.892,217.606 597.589,214.817C592.723,208.924 589.632,201.471 585.805,194.888C584.461,192.577 583.138,190.254 581.822,187.928C576.644,178.771 570.494,169.522 568.066,159.239C562.694,136.486 558.085,113.02 541.28,94.547C531.02,83.269 517.956,75.399 504.774,67.965C486.199,57.488 467.112,48.783 446.279,43.937C434.776,41.261 423.168,40.049 411.375,39.558C409.631,39.485 390.552,39.485 388.808,39.558C377.015,40.049 365.407,41.261 353.904,43.937C333.071,48.783 313.984,57.488 295.409,67.965C282.227,75.399 269.163,83.269 258.903,94.547C242.098,113.02 237.489,136.486 232.117,159.239C229.689,169.522 223.539,178.771 218.361,187.928C217.045,190.254 215.722,192.577 214.378,194.888C210.551,201.471 207.46,208.924 202.594,214.817C200.291,217.606 195.976,223.112 194.936,216.481C194.794,215.579 194.707,214.673 194.637,213.763C193.614,200.542 195.302,186.858 196.692,173.725C199.959,142.846 205.228,107.37 225.041,82.259C245.279,56.611 277.076,39.497 307.161,28.329C330.76,19.569 355.403,13.485 380.474,11.022C385.081,10.569 393.994,8.993 400.092,10.936Z"
              style="fill: rgb(240, 190, 227)"
            />
            <g>
              <path d="M419.667,39.61C419.541,39.573 415.925,43.161 415.838,43.249C414.673,44.434 413.497,45.608 412.334,46.795C407.546,51.676 402.934,56.699 398.705,62.073" style="fill: rgb(177, 140, 191); stroke: black; stroke-width: 2.1px" />
              <path d="M380.656,40.351C380.884,40.288 381.797,41.404 381.929,41.535C383.274,42.861 384.573,44.241 385.854,45.629C390.984,51.191 396.019,56.862 401.293,62.289" style="fill: rgb(177, 140, 191); stroke: black; stroke-width: 2.1px" />
              <path d="M399.232,21.808C399.242,21.889 398.128,22.674 398.045,22.743C396.793,23.786 395.588,24.897 394.406,26.018C389.782,30.4 385.082,34.896 381.237,39.996" style="fill: rgb(177, 140, 191); stroke: black; stroke-width: 2.1px" />
              <path d="M418.769,40.478C418.772,40.475 418.127,39.776 418.09,39.737C417.652,39.278 417.211,38.823 416.765,38.372C415.394,36.984 414.017,35.6 412.61,34.248C408.513,30.31 404.836,25.947 400.576,22.182" style="fill: rgb(177, 140, 191); stroke: black; stroke-width: 2.1px" />
              <path d="M352.312,105.465C354.275,103.783 359.361,100.303 361.106,98.939C366.861,94.437 371.617,91.29 376.526,86.476" style="fill: rgb(177, 140, 191); stroke: black; stroke-width: 2.1px" />
              <path d="M423.54,85.785C425.04,88.315 428.754,90.58 430.965,92.421C436.464,96.999 441.906,101.599 447.936,105.473" style="fill: rgb(177, 140, 191); stroke: black; stroke-width: 2.1px" />
              <path d="M242.55,105.212C243.367,106.074 245.091,107.554 245.838,108.167C249.031,110.789 252.451,112.971 255.889,115.26" style="fill: rgb(177, 140, 191); stroke: black; stroke-width: 2.1px" />
              <path d="M543.739,115.874C548.048,113.032 553.186,109.136 557.025,105.873" style="fill: rgb(177, 140, 191); stroke: black; stroke-width: 2.1px" />
            </g>
          </g>
          <path
            d="M404.248,13.055C415.865,13.573 437.196,15.143 452.372,19.865C474.219,26.664 533.776,49.722 562.259,82.549C590.741,115.375 604.449,160.985 604.449,160.985L600.443,200.699C600.443,200.699 594.641,180.149 585.474,170.468C576.308,160.787 561.053,146.882 556.711,140.809C552.37,134.737 543.819,115.708 543.819,115.708C543.819,115.708 526.769,129.963 506.126,128.477C485.484,126.992 448.619,106.443 447.338,104.924C446.057,103.406 449.333,112.691 427.101,141.315C410.056,163.262 403.015,179.789 400.657,186.306L400.085,187.957L399.512,186.306C397.154,179.789 390.113,163.262 373.068,141.315C350.836,112.691 354.112,103.406 352.831,104.924C351.55,106.443 314.685,126.992 294.043,128.477C273.4,129.963 256.39,115.544 256.39,115.544C256.39,115.544 247.799,134.737 243.458,140.809C239.116,146.882 223.861,160.787 214.695,170.468C205.528,180.149 199.726,200.699 199.726,200.699L195.72,160.985C195.72,160.985 209.428,115.375 237.911,82.549C266.393,49.722 325.95,26.664 347.797,19.865C362.973,15.143 384.304,13.573 395.921,13.055L395.917,12.803C395.917,12.803 397.454,12.814 400.085,12.897C402.715,12.814 404.252,12.803 404.252,12.803L404.248,13.055ZM234.679,92.141C234.679,92.141 235.247,95.934 237.666,99.485C240.084,103.035 243.037,105.629 243.037,105.629C243.037,105.629 238.728,114.197 234.433,119.962C230.137,125.728 216.494,138.026 212.125,141.435C207.756,144.845 210.187,134.65 210.187,134.65C210.187,134.65 215.543,116.363 220.353,107.834C225.163,99.305 234.679,92.141 234.679,92.141ZM565.49,92.141C565.49,92.141 564.922,95.934 562.503,99.485C560.085,103.035 557.132,105.629 557.132,105.629C557.132,105.629 561.441,114.197 565.736,119.962C570.032,125.728 583.676,138.026 588.045,141.435C592.414,144.845 589.982,134.65 589.982,134.65C589.982,134.65 584.626,116.363 579.816,107.834C575.006,99.305 565.49,92.141 565.49,92.141ZM400.085,61.006C400.078,61.008 400.073,61.013 400.07,61.019C400.039,61.068 399.887,61.145 399.645,61.27C398.361,62.347 394.694,66.427 392.452,69.162C389.761,72.443 376.409,86.221 376.284,86.465C376.16,86.709 377.631,94.07 381.291,100.922C384.951,107.775 391.383,117.033 393.641,120.117C395.72,122.958 399.5,131.768 400.085,133.144C400.669,131.768 404.449,122.958 406.528,120.117C408.786,117.033 415.218,107.775 418.878,100.922C422.538,94.07 424.01,86.709 423.885,86.465C423.76,86.221 410.408,72.443 407.718,69.162C405.475,66.427 401.809,62.347 400.524,61.27C400.282,61.145 400.13,61.068 400.099,61.019C400.096,61.013 400.091,61.008 400.085,61.006ZM250.309,76.151C250.309,76.151 256.812,88.218 268.024,92.933C279.237,97.648 298.652,102.821 319.337,93.043C340.022,83.265 350.884,73.836 360.378,65.525C369.872,57.214 381.114,40.534 381.114,40.534L366.781,26.279L350.966,25.736C350.966,25.736 300.085,38.558 281.791,52.635C263.498,66.712 250.309,76.151 250.309,76.151ZM549.86,76.151C549.86,76.151 543.357,88.218 532.145,92.933C520.932,97.648 501.517,102.821 480.832,93.043C460.147,83.265 449.285,73.836 439.791,65.525C430.297,57.214 419.055,40.534 419.055,40.534L433.388,26.279L449.203,25.736C449.203,25.736 500.084,38.558 518.378,52.635C536.672,66.712 549.86,76.151 549.86,76.151Z"
            style="fill: none; stroke: black; stroke-width: 2.1px"
          />
          <path
            d="M264.328,136.439C263.714,135.067 261.848,133.473 259.587,134.227C256.273,135.333 254.67,138.547 254.025,141.362C252.857,146.456 253.075,149.725 253.114,157.744C253.118,158.605 253.523,165.926 253.722,165.614C262.325,152.081 266.912,142.207 264.328,136.439Z"
            style="fill: rgb(177, 140, 191); stroke: black; stroke-width: 2.1px"
          />
          <g transform="matrix(-1,0,0,1,799.993,0)">
            <path
              d="M264.328,136.439C263.714,135.067 261.848,133.473 259.587,134.227C256.273,135.333 254.67,138.547 254.025,141.362C252.857,146.456 253.075,149.725 253.114,157.744C253.118,158.605 253.523,165.926 253.722,165.614C262.325,152.081 266.912,142.207 264.328,136.439Z"
              style="fill: rgb(177, 140, 191); stroke: black; stroke-width: 2.1px"
            />
          </g>
          <g transform="matrix(1,0,0,1,30.927,1.86223)">
            <path
              d="M263.639,136.385C263.025,135.013 261.436,133.459 259.175,134.214C255.861,135.319 253.959,138.323 253.314,141.138C252.146,146.232 252.938,148.814 254.075,156.752C254.486,159.627 256.786,168.88 256.932,168.541C264.257,151.558 266.223,142.153 263.639,136.385Z"
              style="fill: rgb(177, 140, 191); stroke: black; stroke-width: 2.1px"
            />
          </g>
          <g transform="matrix(-1,0,0,1,769.066,1.86223)">
            <path
              d="M263.639,136.385C263.025,135.013 261.436,133.459 259.175,134.214C255.861,135.319 253.959,138.323 253.314,141.138C252.146,146.232 252.938,148.814 254.075,156.752C254.486,159.627 256.786,168.88 256.932,168.541C264.257,151.558 266.223,142.153 263.639,136.385Z"
              style="fill: rgb(177, 140, 191); stroke: black; stroke-width: 2.1px"
            />
          </g>
          <g transform="matrix(1,0,0,1,67.4356,-6.47128)">
            <path
              d="M263.63,137.052C263.015,135.681 261.436,133.459 259.175,134.214C255.861,135.319 254.424,138.497 253.779,141.313C252.611,146.406 252.486,148.938 253.622,156.876C254.034,159.751 256.017,170.093 256.164,169.753C263.488,152.771 266.214,142.82 263.63,137.052Z"
              style="fill: rgb(177, 140, 191); stroke: black; stroke-width: 2.1px"
            />
          </g>
          <g transform="matrix(-1,0,0,1,732.558,-6.47128)">
            <path
              d="M263.63,137.052C263.015,135.681 261.436,133.459 259.175,134.214C255.861,135.319 254.424,138.497 253.779,141.313C252.611,146.406 252.486,148.938 253.622,156.876C254.034,159.751 256.017,170.093 256.164,169.753C263.488,152.771 266.214,142.82 263.63,137.052Z"
              style="fill: rgb(177, 140, 191); stroke: black; stroke-width: 2.1px"
            />
          </g>
        </g>
        <path
          d="M391.487,22.829C396.708,22.299 402.391,22.299 408.537,22.829C428.732,24.396 463.921,29.665 497.565,47.067C548.805,73.569 572.364,95.426 583.178,125.101C593.993,154.775 629.756,365.28 674.416,494.804C719.076,624.328 715.568,652.435 712.368,671.144C698.621,751.533 655.684,860.703 655.684,860.703L626.717,886.081C626.717,886.081 587.011,664.426 582.85,644.232C578.69,624.038 573.405,551.477 572.921,514.008C572.437,476.539 573.64,419.296 562.74,401.494C551.839,383.692 535.31,366.627 483.824,376.415C439.716,384.8 427.773,391.27 406.623,393.309C406.094,393.737 393.929,393.737 393.4,393.309C372.25,391.27 360.307,384.8 316.199,376.415C264.713,366.627 248.184,383.692 237.284,401.494C226.383,419.296 227.586,476.539 227.102,514.008C226.618,551.477 221.334,624.038 217.173,644.232C213.012,664.426 167.762,904.817 167.762,904.817L125.917,824.048C125.917,824.048 80.983,702.749 86.371,662.529C87.473,654.299 80.948,624.328 125.608,494.804C170.267,365.28 206.031,154.775 216.845,125.101C227.659,95.426 251.218,73.569 302.458,47.067C336.103,29.665 371.291,24.396 391.487,22.829Z"
          style="fill: none; stroke: black; stroke-width: 2.1px"
        />
      </g>
    </pattern>
    <g transform="matrix(1,0,0,1,7.6296,-2.65748)">
      <text x="263.72px" y="53.076px" style="font-family: 'Futura-Medium', 'Futura', sans-serif; font-weight: 500; font-size: 50px; fill: white">SEASON 0</text>
    </g>
  </g>
  <defs>
    <linearGradient id="_Linear3_card_template" x1="0" y1="0" x2="1" y2="0" gradientUnits="userSpaceOnUse" gradientTransform="matrix(3.89688e-14,-610.267,636.408,3.73681e-14,398.243,614.74)">
      <stop offset="0" style="stop-color: rgb(80, 225, 255); stop-opacity: 1" />
      <stop offset="0.44" style="stop-color: rgb(219, 249, 255); stop-opacity: 1" />
      <stop offset="1" style="stop-color: white; stop-opacity: 1" />
    </linearGradient>
    <g id="heli-cap">
      <path
        id="Shadow"
        d="M404.234,215.129C428.898,218.296 500.585,226.535 542.136,238.146C592.982,252.354 584.265,253.34 584.265,253.34L550.569,247.259L542.493,305.294C542.493,305.294 541.37,323.811 530.272,331.323C519.173,338.835 479.09,333.357 447.17,329.124C424.063,326.059 407.352,325.468 399.884,325.376C392.417,325.468 375.705,326.059 352.598,329.124C320.678,333.357 280.595,338.835 269.497,331.323C258.398,323.811 257.275,305.294 257.275,305.294L249.199,247.259L215.503,253.34C215.503,253.34 207.131,252.297 257.976,238.089C299.527,226.479 370.87,218.296 395.534,215.129L395.534,214.041C395.534,214.041 397.081,214.225 399.884,214.577C402.687,214.225 404.234,214.041 404.234,214.041L404.234,215.129Z"
        style="fill: rgb(56, 25, 57); fill-opacity: 0.5"
      />
      <g id="fan-bit">
        <path d="M395.662,27.087C395.662,27.087 305.36,21.898 297.195,21.931C289.03,21.964 217.675,23.635 219.953,27.087C222.232,30.54 246.78,39.059 264.821,40.14C282.862,41.221 395.662,31.814 395.662,31.814L395.662,27.087Z" style="fill: rgb(255, 223, 92)" />
        <clipPath id="_clip1_helicap">
          <path d="M395.662,27.087C395.662,27.087 305.36,21.898 297.195,21.931C289.03,21.964 217.675,23.635 219.953,27.087C222.232,30.54 246.78,39.059 264.821,40.14C282.862,41.221 395.662,31.814 395.662,31.814L395.662,27.087Z" />
        </clipPath>
        <g clip-path="url(#_clip1_helicap)">
          <path
            d="M225.045,30.993C224.466,30.556 226.493,31.072 227.216,31.134C228.615,31.253 230.015,31.49 231.402,31.711C235.56,32.373 239.679,33.266 243.832,33.951C256.481,36.039 268.516,36.65 281.321,35.92C311.507,34.198 341.744,31.992 371.953,30.788C378.744,30.517 385.563,29.762 392.361,29.793C393.154,29.796 398.369,29.49 398.481,30.879C398.643,32.871 390.787,34.056 389.713,34.297C379.34,36.621 368.638,37.688 358.071,38.674C335.223,40.808 312.31,42.38 289.381,43.297C269.861,44.077 249.889,44.568 231.024,38.676"
            style="fill: rgb(160, 127, 79)"
          />
          <path
            d="M221.982,34.549C221.357,34.464 223.132,34.023 223.728,33.816C224.969,33.385 226.236,33.022 227.503,32.675C231.207,31.658 234.941,30.706 238.7,29.914C250.216,27.49 261.202,27.44 272.971,27.087C304.553,26.141 336.842,27.518 368.406,28.034C376.092,28.159 383.776,28.339 391.464,28.358C393.343,28.363 395.23,28.409 397.107,28.295C397.365,28.279 398.648,28.328 398.721,27.932C398.808,27.454 397.199,26.951 396.934,26.847C394.602,25.938 392.138,25.344 389.71,24.758C378.824,22.128 367.743,20.21 356.698,18.389C320.376,12.401 283.559,9.397 247.002,15.239C236.346,16.943 224.953,18.817 215.008,23.192C211.62,24.682 204.696,29.027 210.51,32.198"
            style="fill: rgb(254, 239, 171)"
          />
        </g>
        <path d="M395.662,27.087C395.662,27.087 305.36,21.898 297.195,21.931C289.03,21.964 217.675,23.635 219.953,27.087C222.232,30.54 246.78,39.059 264.821,40.14C282.862,41.221 395.662,31.814 395.662,31.814L395.662,27.087Z" style="fill: none; stroke: black; stroke-width: 2.1px" />
        <g transform="matrix(-1,0,0,1,800.877,0)">
          <path d="M395.662,27.087C395.662,27.087 305.36,21.898 297.195,21.931C289.03,21.964 217.675,23.635 219.953,27.087C222.232,30.54 246.78,39.059 264.821,40.14C282.862,41.221 395.662,31.814 395.662,31.814L395.662,27.087Z" style="fill: rgb(255, 223, 92)" />
          <clipPath id="_clip2_helicap">
            <path d="M395.662,27.087C395.662,27.087 305.36,21.898 297.195,21.931C289.03,21.964 217.675,23.635 219.953,27.087C222.232,30.54 246.78,39.059 264.821,40.14C282.862,41.221 395.662,31.814 395.662,31.814L395.662,27.087Z" />
          </clipPath>
          <g clip-path="url(#_clip2_helicap)">
            <path
              d="M225.045,30.993C224.466,30.556 226.493,31.072 227.216,31.134C228.615,31.253 230.015,31.49 231.402,31.711C235.56,32.373 239.679,33.266 243.832,33.951C256.481,36.039 268.516,36.65 281.321,35.92C311.507,34.198 341.744,31.992 371.953,30.788C378.744,30.517 385.563,29.762 392.361,29.793C393.154,29.796 398.369,29.49 398.481,30.879C398.643,32.871 390.787,34.056 389.713,34.297C379.34,36.621 368.638,37.688 358.071,38.674C335.223,40.808 312.31,42.38 289.381,43.297C269.861,44.077 249.889,44.568 231.024,38.676"
              style="fill: rgb(160, 127, 79)"
            />
            <path
              d="M221.982,34.549C221.357,34.464 223.132,34.023 223.728,33.816C224.969,33.385 226.236,33.022 227.503,32.675C231.207,31.658 234.941,30.706 238.7,29.914C250.216,27.49 261.202,27.44 272.971,27.087C304.553,26.141 336.842,27.518 368.406,28.034C376.092,28.159 383.776,28.339 391.464,28.358C393.343,28.363 395.23,28.409 397.107,28.295C397.365,28.279 398.648,28.328 398.721,27.932C398.808,27.454 397.199,26.951 396.934,26.847C394.602,25.938 392.138,25.344 389.71,24.758C378.824,22.128 367.743,20.21 356.698,18.389C320.376,12.401 283.559,9.397 247.002,15.239C236.346,16.943 224.953,18.817 215.008,23.192C211.62,24.682 204.696,29.027 210.51,32.198"
              style="fill: rgb(254, 239, 171)"
            />
          </g>
          <path d="M395.662,27.087C395.662,27.087 305.36,21.898 297.195,21.931C289.03,21.964 217.675,23.635 219.953,27.087C222.232,30.54 246.78,39.059 264.821,40.14C282.862,41.221 395.662,31.814 395.662,31.814L395.662,27.087Z" style="fill: none; stroke: black; stroke-width: 2.1px" />
        </g>
        <path d="M395.662,36.495L395.751,21.86C395.751,21.86 396.109,18.084 399.915,17.68C399.926,17.679 399.937,17.679 399.948,17.68C399.959,17.679 399.971,17.679 399.982,17.68C403.788,18.084 404.145,21.86 404.145,21.86L404.234,36.495L395.662,36.495Z" style="fill: rgb(255, 223, 92)" />
        <clipPath id="_clip3_helicap">
          <path d="M395.662,36.495L395.751,21.86C395.751,21.86 396.109,18.084 399.915,17.68C399.926,17.679 399.937,17.679 399.948,17.68C399.959,17.679 399.971,17.679 399.982,17.68C403.788,18.084 404.145,21.86 404.145,21.86L404.234,36.495L395.662,36.495Z" />
        </clipPath>
        <g clip-path="url(#_clip3_helicap)">
          <path
            d="M396.408,29.617C396.622,29.65 396.458,29.188 396.499,28.976C396.586,28.528 396.7,28.084 396.829,27.647C397.214,26.343 397.757,24.643 399.011,23.909C400.932,22.783 402.315,25.251 402.895,26.692C403,26.952 403.771,29.292 403.827,29.257C404.439,28.867 404.137,25.96 404.128,25.393C404.091,23.044 404.028,20.205 402.607,18.211C400.488,15.235 397.048,17.454 396.012,20.143C395.592,21.235 395.43,22.372 395.383,23.535C395.31,25.354 395.397,27.164 395.535,28.977"
            style="fill: rgb(254, 239, 171)"
          />
          <path
            d="M397.685,37.145C397.749,37.229 397.921,36.235 397.982,35.601C398.159,33.772 398.137,29.726 398.588,28.438C398.797,27.841 399.356,26.99 400.104,27.024C400.945,27.062 401.459,28.117 401.604,28.989C401.909,30.833 402.046,33.45 402.211,35.31C402.242,35.657 402.318,36.883 402.038,37.169C401.738,37.475 401.072,37.264 400.699,37.246"
            style="fill: rgb(160, 127, 79)"
          />
        </g>
        <path
          d="M395.662,36.495L395.751,21.86C395.751,21.86 396.109,18.084 399.915,17.68C399.926,17.679 399.937,17.679 399.948,17.68C399.959,17.679 399.971,17.679 399.982,17.68C403.788,18.084 404.145,21.86 404.145,21.86L404.234,36.495L395.662,36.495Z"
          style="fill: none; stroke: black; stroke-width: 2.1px"
        />
      </g>
      <g id="Cap">
        <g transform="matrix(1,0,0,1.17244,0.492122,-13.9146)">
          <ellipse cx="399.645" cy="49.941" rx="13.8" ry="6.946" style="fill: rgb(235, 65, 81)" />
          <clipPath id="_clip4">
            <ellipse cx="399.645" cy="49.941" rx="13.8" ry="6.946" />
          </clipPath>
          <g clip-path="url(#_clip4)">
            <g transform="matrix(1,0,0,0.85292,-0.492122,11.868)">
              <path
                d="M401.096,36.072C401.204,36.209 400.782,36.223 400.629,36.306C400.317,36.474 400.014,36.659 399.719,36.855C398.851,37.433 397.984,38.08 397.247,38.82C396.394,39.676 395.756,40.729 395.141,41.761C394.702,42.5 394.314,43.34 393.452,43.653C391.461,44.376 388.942,43.894 386.882,43.762C386.382,43.73 384.99,43.751 384.867,43.052C384.762,42.453 385.534,41.728 385.889,41.348C387.186,39.958 388.811,38.787 390.491,37.908C392.195,37.015 394.026,36.518 395.915,36.2L401.096,36.072ZM400.846,37.102C400.704,37.107 401.084,37.26 401.196,37.348C401.422,37.524 401.643,37.71 401.856,37.901C402.508,38.488 403.129,39.093 403.652,39.801C404.274,40.64 404.859,41.926 405.729,42.523C406.892,43.323 409.006,43.103 410.336,43.246C410.947,43.312 412.812,43.875 413.279,43.263C413.926,42.417 412.056,40.88 411.571,40.433C409.234,38.282 406.484,36.91 403.337,36.446L400.846,37.102Z"
                style="fill: rgb(245, 180, 162)"
              />
            </g>
          </g>
          <ellipse cx="399.645" cy="49.941" rx="13.8" ry="6.946" style="fill: none; stroke: black; stroke-width: 1.93px" />
        </g>
        <path
          d="M397.676,42.89C398.239,42.681 401.591,42.681 402.153,42.89C501.816,49.249 562.727,112.371 575.583,128.609C598.099,165.571 588.808,253.34 588.808,253.34L550.413,240.154C501.393,225.168 450.081,213.936 399.915,213.936C349.748,213.936 298.436,225.168 249.416,240.154L211.021,253.34C211.021,253.34 201.73,165.571 224.246,128.609C237.102,112.371 298.013,49.249 397.676,42.89Z"
          style="fill: url(#_Linear5)"
        />
        <clipPath id="_clip6">
          <path
            d="M397.676,42.89C398.239,42.681 401.591,42.681 402.153,42.89C501.816,49.249 562.727,112.371 575.583,128.609C598.099,165.571 588.808,253.34 588.808,253.34L550.413,240.154C501.393,225.168 450.081,213.936 399.915,213.936C349.748,213.936 298.436,225.168 249.416,240.154L211.021,253.34C211.021,253.34 201.73,165.571 224.246,128.609C237.102,112.371 298.013,49.249 397.676,42.89Z"
          />
        </clipPath>
        <g clip-path="url(#_clip6)">
          <path
            d="M249.199,239.63C249.199,239.63 253.866,164.607 268.912,136.528C283.959,108.45 312.705,85.883 333.536,71.098C354.368,56.313 390.641,43.187 390.777,43.294C390.913,43.4 396.586,42.578 396.586,42.578C396.586,42.578 374.576,62.921 364.35,92.142C354.124,121.362 346.116,161.226 347.318,218.647C340.968,218.814 275.527,230.905 267.561,234.361C259.596,237.818 249.199,239.63 249.199,239.63ZM551.074,239.63C551.074,239.63 546.408,164.607 531.361,136.528C516.315,108.45 487.569,85.883 466.737,71.098C445.905,56.313 409.632,43.187 409.496,43.294C409.361,43.4 403.687,42.578 403.687,42.578C403.687,42.578 425.697,62.921 435.923,92.142C446.149,121.362 454.157,161.226 452.955,218.647C459.305,218.814 524.746,230.905 532.712,234.361C540.678,237.818 551.074,239.63 551.074,239.63Z"
            style="fill: url(#_Linear7)"
          />
          <path
            d="M386.51,40.023C386.149,40.084 385.678,40.219 385.621,40.231C382.237,40.915 378.883,41.767 375.538,42.617C363.669,45.633 355.109,49.217 343.932,54.254C303.045,72.682 247.542,103.044 231.39,146.585C222.965,169.296 223.688,209.652 225.073,237.051C225.43,244.108 227.418,247.931 226.532,254.956C225.78,260.918 213.933,261.098 210.297,258.578C204.079,254.269 201.397,245.103 200.242,238.083C197.333,220.407 199.714,201.275 201.542,183.602C203.778,161.983 208.463,138.497 220.356,119.889C230.231,104.439 245.732,92.839 260.744,82.753C294.17,60.297 333.806,42.68 374.377,39.606L386.51,40.023ZM413.666,40.023C414.027,40.084 414.499,40.219 414.555,40.231C417.94,40.915 421.293,41.767 424.639,42.617C436.507,45.633 445.067,49.217 456.244,54.254C497.131,72.682 552.634,103.044 568.786,146.585C577.211,169.296 576.488,209.652 575.104,237.051C574.747,244.108 572.758,247.931 573.644,254.956C574.396,260.918 586.243,261.098 589.88,258.578C596.098,254.269 598.779,245.103 599.934,238.083C602.844,220.407 600.463,201.275 598.635,183.602C596.398,161.983 591.713,138.497 579.82,119.889C569.946,104.439 554.444,92.839 539.432,82.753C506.007,60.297 466.371,42.68 425.8,39.606L413.666,40.023ZM386.51,40.023L386.927,40.038C386.903,39.978 386.727,39.987 386.51,40.023ZM413.666,40.023L413.25,40.038C413.273,39.978 413.45,39.987 413.666,40.023Z"
            style="fill: rgb(245, 180, 162)"
          />
          <path d="M249.586,240.272C249.586,240.272 250.164,154.307 278.814,120.051C307.465,85.795 350.156,54.702 391.1,43.408" style="fill: none; stroke: black; stroke-width: 2.1px" />
          <g transform="matrix(-1,0,0,1,799.538,0)">
            <path d="M249.586,240.272C249.586,240.272 250.164,154.307 278.814,120.051C307.465,85.795 350.442,54.751 391.387,43.457" style="fill: none; stroke: black; stroke-width: 2.1px" />
          </g>
          <path d="M347.158,217.127C347.158,217.127 347.667,120.455 367.04,84.844C386.412,49.233 394.933,43.753 394.933,43.753" style="fill: none; stroke: black; stroke-width: 2.1px" />
          <g transform="matrix(-1,0,0,1,799.538,0)">
            <path d="M347.158,217.127C347.158,217.127 347.667,120.455 367.04,84.844C386.412,49.233 394.933,43.753 394.933,43.753" style="fill: none; stroke: black; stroke-width: 2.1px" />
          </g>
        </g>
        <path
          d="M397.676,42.89C398.239,42.681 401.591,42.681 402.153,42.89C501.816,49.249 562.727,112.371 575.583,128.609C598.099,165.571 588.808,253.34 588.808,253.34L550.413,240.154C501.393,225.168 450.081,213.936 399.915,213.936C349.748,213.936 298.436,225.168 249.416,240.154L211.021,253.34C211.021,253.34 201.73,165.571 224.246,128.609C237.102,112.371 298.013,49.249 397.676,42.89Z"
          style="fill: none; stroke: black; stroke-width: 2.1px"
        />
        <path
          d="M400.347,214.257L401.046,214.208C401.046,214.208 449.984,210.469 544.124,238.299C546.339,238.954 551.328,240.087 551.328,240.087C551.328,240.087 551.171,297.659 547.632,301.641C544.093,305.623 528.746,308.238 501.077,299.129C475.591,290.739 428.873,277.289 406.043,275.531L406.052,275.716C406.052,275.716 403.087,275.432 400.347,275.357C397.607,275.432 394.642,275.716 394.642,275.716L394.651,275.531C371.821,277.289 325.102,290.739 299.616,299.129C271.947,308.238 256.601,305.623 253.062,301.641C249.522,297.659 249.366,240.087 249.366,240.087C249.366,240.087 254.355,238.954 256.57,238.299C350.709,210.469 399.648,214.208 399.648,214.208L400.347,214.257Z"
          style="fill: url(#_Linear8)"
        />
        <clipPath id="_clip9">
          <path
            d="M400.347,214.257L401.046,214.208C401.046,214.208 449.984,210.469 544.124,238.299C546.339,238.954 551.328,240.087 551.328,240.087C551.328,240.087 551.171,297.659 547.632,301.641C544.093,305.623 528.746,308.238 501.077,299.129C475.591,290.739 428.873,277.289 406.043,275.531L406.052,275.716C406.052,275.716 403.087,275.432 400.347,275.357C397.607,275.432 394.642,275.716 394.642,275.716L394.651,275.531C371.821,277.289 325.102,290.739 299.616,299.129C271.947,308.238 256.601,305.623 253.062,301.641C249.522,297.659 249.366,240.087 249.366,240.087C249.366,240.087 254.355,238.954 256.57,238.299C350.709,210.469 399.648,214.208 399.648,214.208L400.347,214.257Z"
          />
        </clipPath>
        <g clip-path="url(#_clip9)">
          <path
            d="M251.594,304.731C251.855,304.832 251.343,304.231 251.219,303.98C250.987,303.508 250.764,303.037 250.575,302.546C250.178,301.512 248.566,297.054 250.267,296.409C250.947,296.151 251.987,297.086 252.485,297.443C254.046,298.559 255.536,299.132 257.393,299.572C262.424,300.766 267.816,300.083 272.82,299.104C280.741,297.554 288.173,294.644 295.884,292.343C309.5,288.281 323.323,284.314 337.073,280.731C358.304,275.198 380.747,268.911 402.879,269.112C413.132,269.206 423.378,271.42 433.364,273.556C447.757,276.636 462.055,280.229 476.212,284.264C492.078,288.786 507.505,294.936 523.521,298.915C526.586,299.676 536.917,300.668 544.665,299.083C547.082,298.589 549.341,294.044 550.722,294.862C552.363,295.833 552.898,302.364 552.859,304.112C552.755,308.734 528.869,308.393 526.293,308.154C525.101,308.044 523.911,307.919 522.722,307.782C521.31,307.618 519.899,307.44 518.49,307.25C516.83,307.027 515.17,306.794 513.513,306.547C511.62,306.266 509.729,305.973 507.84,305.669C472.977,300.059 438.366,292.599 402.918,291.939C380.65,291.524 358.558,294.166 336.816,298.89C319.525,302.647 302.576,307.914 285.225,311.392C273.857,313.671 251.512,316.991 247.271,301.573"
            style="fill: rgb(136, 47, 70)"
          />
          <path
            d="M304.06,221.428C304.196,221.397 304.296,221.385 304.356,221.393L304.06,221.428C301.643,221.973 287.912,228.319 284.128,230.433C275.725,235.129 262.331,240.137 258.778,247.358C256.559,251.869 256.411,257.63 256.193,262.592C256.007,266.843 256.49,272.054 256.819,276.295C257.425,284.097 256.806,291.928 265.149,294.62C268.762,295.785 274.938,295.658 278.728,295.876C280.053,295.953 286.575,295.818 286.575,295.875C286.575,296.105 271.974,299.379 267.78,299.819C263.539,300.264 258.059,300.249 254.244,298C244.208,292.081 243.503,272.492 242.848,262.664C242.333,254.936 241.625,246.108 245.124,238.937C247.754,233.545 252.778,229.873 257.849,226.955L304.06,221.428ZM496.238,221.428C498.655,221.973 512.386,228.319 516.17,230.433C524.573,235.129 537.967,240.137 541.52,247.358C543.739,251.869 543.887,257.63 544.105,262.592C544.291,266.843 543.808,272.054 543.479,276.295C542.874,284.097 543.492,291.928 535.149,294.62C531.536,295.785 525.36,295.658 521.57,295.876C520.245,295.953 513.723,295.818 513.723,295.875C513.723,296.105 528.324,299.379 532.519,299.819C536.759,300.264 542.239,300.249 546.054,298C556.09,292.081 556.795,272.492 557.45,262.664C557.966,254.936 558.673,246.108 555.174,238.937C552.544,233.545 547.521,229.873 542.449,226.955L496.238,221.428C496.102,221.397 496.003,221.385 495.942,221.393L496.238,221.428Z"
            style="fill: rgb(245, 180, 162)"
          />
          <path d="M251.677,295.591C251.677,295.591 256.821,304.1 277.718,297.961C298.615,291.823 371.118,268.698 399.043,268.92C426.969,269.142 476.724,284.555 501.938,292.832C527.152,301.109 544.899,301.572 548.436,295.121" style="fill: none; stroke: black; stroke-width: 2.1px" />
        </g>
        <path
          d="M400.347,214.257L401.046,214.208C401.046,214.208 449.984,210.469 544.124,238.299C546.339,238.954 551.328,240.087 551.328,240.087C551.328,240.087 551.171,297.659 547.632,301.641C544.093,305.623 528.746,308.238 501.077,299.129C475.591,290.739 428.873,277.289 406.043,275.531L406.052,275.716C406.052,275.716 403.087,275.432 400.347,275.357C397.607,275.432 394.642,275.716 394.642,275.716L394.651,275.531C371.821,277.289 325.102,290.739 299.616,299.129C271.947,308.238 256.601,305.623 253.062,301.641C249.522,297.659 249.366,240.087 249.366,240.087C249.366,240.087 254.355,238.954 256.57,238.299C350.709,210.469 399.648,214.208 399.648,214.208L400.347,214.257Z"
          style="fill: none; stroke: black; stroke-width: 2.1px"
        />
      </g>
    </g>
    <linearGradient id="_Linear5" x1="0" y1="0" x2="1" y2="0" gradientUnits="userSpaceOnUse" gradientTransform="matrix(0.676239,212.321,-212.321,0.676239,399.671,115.988)">
      <stop offset="0" style="stop-color: rgb(236, 65, 81); stop-opacity: 1" />
      <stop offset="0.5" style="stop-color: rgb(220, 55, 76); stop-opacity: 1" />
      <stop offset="1" style="stop-color: rgb(172, 27, 60); stop-opacity: 1" />
    </linearGradient>
    <linearGradient id="_Linear7" x1="0" y1="0" x2="1" y2="0" gradientUnits="userSpaceOnUse" gradientTransform="matrix(0.676239,174.104,-174.104,0.676239,399.671,95.0041)">
      <stop offset="0" style="stop-color: rgb(245, 249, 251); stop-opacity: 1" />
      <stop offset="0.59" style="stop-color: rgb(226, 236, 243); stop-opacity: 1" />
      <stop offset="0.81" style="stop-color: rgb(183, 208, 225); stop-opacity: 1" />
      <stop offset="1" style="stop-color: rgb(140, 180, 206); stop-opacity: 1" />
    </linearGradient>
    <linearGradient id="_Linear8" x1="0" y1="0" x2="1" y2="0" gradientUnits="userSpaceOnUse" gradientTransform="matrix(6.8912e-15,-112.542,112.542,6.8912e-15,399.671,269.108)">
      <stop offset="0" style="stop-color: rgb(236, 65, 81); stop-opacity: 1" />
      <stop offset="0.46" style="stop-color: rgb(227, 63, 84); stop-opacity: 1" />
      <stop offset="1" style="stop-color: rgb(203, 57, 90); stop-opacity: 1" />
    </linearGradient>
  </defs>
</svg>