<svg viewBox="0 0 800 800" xmlns="http://www.w3.org/2000/svg">
  <g id="ears">
    <path
      id="left-ear"
      d="M558.618,296.849C558.668,297.162 563.187,294.248 563.439,294.055C567.912,290.629 571.555,286.157 575.142,281.852C583.234,272.143 600.683,256.171 608.718,271.023C610.937,275.125 611.892,282.848 611.966,287.718C612.138,299.1 610.273,311.102 606.988,320.955C606.513,322.38 609.078,330.004 609.218,331.01C610.197,338.061 610.152,345.947 609.129,352.99C607.359,365.187 595.546,380.229 589.442,391.184C583.64,401.598 571.298,426.58 555.474,421.306C542.042,416.828 543.432,392.802 536.791,382.708"
      style="fill: var(--color_skin, rgb(240, 205, 177))"
    />
    <clipPath id="_clip7_punk_ears">
      <path
        id="left-ear1"
        d="M558.618,296.849C558.668,297.162 563.187,294.248 563.439,294.055C567.912,290.629 571.555,286.157 575.142,281.852C583.234,272.143 600.683,256.171 608.718,271.023C610.937,275.125 611.892,282.848 611.966,287.718C612.138,299.1 610.273,311.102 606.988,320.955C606.513,322.38 609.078,330.004 609.218,331.01C610.197,338.061 610.152,345.947 609.129,352.99C607.359,365.187 595.546,380.229 589.442,391.184C583.64,401.598 571.298,426.58 555.474,421.306C542.042,416.828 543.432,392.802 536.791,382.708"
      />
    </clipPath>
    <g clip-path="url(#_clip7_punk_ears)">
      <path
        d="M557.668,373.138C559.289,370.151 563.078,365.038 563.149,366.343C563.254,368.266 561.859,369.407 563.122,370.993C565.193,373.594 569.479,371.45 571.179,369.637C572.24,368.505 573.022,367.147 573.652,365.737C574.541,363.745 575.167,361.647 575.481,359.489C576.055,355.554 575.742,351.553 574.406,347.803C572.149,341.469 568.177,336.37 568.072,329.35C568.027,326.384 568.386,323.396 569.099,320.519C569.226,320.006 569.559,317.981 570.447,318.196C576.406,319.634 580.994,324.941 583.838,330.003C586.023,333.894 587.983,338.14 588.746,342.567C590.463,352.522 586.796,365.611 578.97,372.354C574.044,376.599 566.962,376.555 562.1,380.539C559.976,382.28 558.553,384.694 557.442,387.179C557.325,387.44 556.585,390.002 556.314,390.044C556.024,390.088 555.326,389.287 555.132,389.116C553.727,387.876 552.805,386.228 552.477,384.386C551.538,379.101 555.534,377.068 557.668,373.138ZM574.97,305.443C575.658,304.221 579.024,303.801 580.215,303.659C583.46,303.27 585.921,302.741 587.815,299.866C590.582,295.666 589.398,290.151 591.995,286.115C593.305,284.081 596.312,282.179 598.803,283.204C600.607,283.947 599.862,286.862 599.787,288.376C599.537,293.408 600.535,298.366 601.598,303.257C601.936,304.81 602.27,306.443 602.953,307.889C603.038,308.069 603.543,309.18 603.861,308.999C604.315,308.739 604.344,307.594 604.425,307.161C604.749,305.429 605.184,303.722 605.438,301.975C606.18,296.881 606.902,291.15 606.016,286.037C605.652,283.936 604.747,281.369 602.785,280.251C599.745,278.519 595.229,280.625 592.571,282.256C584.585,287.157 579.668,296.59 575.019,304.382L574.97,305.443Z"
        style="fill: rgb(66, 31, 67); fill-opacity: 0.5"
      />
      <path
        d="M557.369,387.085C557.331,387.142 557.317,387.202 557.337,387.266L557.369,387.085C557.572,386.784 558.46,386.585 558.645,386.548C560.17,386.245 561.621,387.051 563.114,386.414C566.88,384.807 569.74,380.036 572.769,377.329C573.136,377.001 575.906,375.072 575.645,374.58C575.129,373.611 570.894,375.303 570.27,375.518C565.181,377.272 560.036,380.426 557.658,385.453L557.369,387.085ZM599.266,284.978C599.389,286.996 598.534,289.418 598.275,291.421C597.809,295.02 597.869,298.621 596.979,302.166C596.2,305.27 594.665,308.259 594.966,311.534C595.324,315.44 597.716,319.15 599.064,322.771C601.737,329.956 604.068,337.108 604.814,344.767C605.427,351.05 604.803,357.426 603.543,363.598C603.134,365.605 602.609,367.584 601.923,369.515C601.686,370.183 601.436,370.846 601.177,371.505C601.153,371.567 600.804,372.527 600.87,372.519C601.166,372.48 601.566,371.72 601.714,371.514C602.498,370.425 603.259,369.317 603.995,368.195C607.246,363.237 609.168,358.092 609.442,352.14C609.77,345.013 609.649,338.198 608.802,331.116C608.539,328.913 608.492,326.63 607.974,324.466C607.261,321.487 605.98,318.673 605.26,315.691C604.323,311.817 603.366,308.063 602.316,304.207C601.018,299.441 599.748,294.63 599.748,289.613L599.266,284.978ZM566.434,329.902C566.365,329.969 566.021,330.194 565.927,330.328C565.648,330.721 565.406,331.136 565.19,331.566C564.55,332.848 564.09,334.284 563.934,335.71C563.481,339.874 565.803,344.16 566.822,348.106C567.187,349.523 567.424,350.978 567.559,352.435C567.576,352.618 567.762,354.736 567.797,354.722C568.081,354.608 568.137,353.594 568.172,353.367C568.414,351.82 568.507,350.245 568.631,348.686C569.102,342.747 568.955,335.547 566.596,329.945L566.434,329.902C566.456,329.881 566.451,329.876 566.403,329.894L566.434,329.902ZM573.726,284.27C573.631,284.323 573.558,284.374 573.625,284.405L573.726,284.27C573.798,284.23 573.882,284.188 573.925,284.151C574.123,283.984 574.323,283.818 574.524,283.654C575.089,283.191 575.661,282.734 576.237,282.284C577.971,280.927 579.728,279.605 581.52,278.325C587.094,274.344 594.565,270.444 601.594,272.486C606.905,274.028 609.807,278.772 610.885,283.94C611.229,285.591 611.451,287.266 611.561,288.949C611.586,289.321 611.828,291.593 611.9,291.379C612.871,288.464 612.145,284.342 611.607,281.411C610.474,275.238 608.991,267.165 601.791,265.581C600.584,265.315 599.301,265.289 598.072,265.394C594.875,265.666 591.933,267.165 589.279,268.884C584.757,271.815 580.706,275.545 577.193,279.62L573.726,284.27Z"
        style="fill: rgb(252, 255, 216); fill-opacity: 0.6"
      />
      <path
        d="M606.498,282.696C606.764,282.454 604.164,280.752 604.007,280.675C601.664,279.531 599.297,279.67 596.877,280.549C590.934,282.706 585.874,288.434 582.057,293.245C570.896,307.314 564.641,332.186 574.489,348.717"
        style="fill: none; stroke: black; stroke-width: 2.13px"
      />
      <path
        d="M566.291,328.7C566.536,328.764 566.892,331.699 566.947,331.965C567.703,335.635 568.42,339.309 568.687,343.053C569.264,351.13 567.694,359.52 563.13,366.339C560.454,370.337 556.545,373.443 554.112,377.589C552.219,380.813 551.3,386.973 555.133,389.333"
        style="fill: none; stroke: black; stroke-width: 2.13px"
      />
      <path
        d="M554.489,398.331C555.326,392.383 557.04,386.15 561.015,381.48C565.801,375.857 573.976,376.969 578.775,371.742C589.381,360.191 592.389,342.119 583.745,328.931C581.34,325.262 578.243,320.934 573.826,319.635"
        style="fill: none; stroke: black; stroke-width: 2.13px"
      />
      <path
        d="M599.439,284.456C599.906,285.596 599.393,287.83 599.422,289.038C599.494,292.061 599.794,295.005 600.337,297.979C601.758,305.769 606.184,313.715 606.744,321.557"
        style="fill: none; stroke: black; stroke-width: 2.13px"
      />
      <path
        d="M577.685,394.854C578.135,393 580.698,390.58 581.816,389.109C585.134,384.745 589.207,380.952 593.445,377.497C596.173,375.273 599.381,373.31 601.576,370.505"
        style="fill: none; stroke: black; stroke-width: 2.13px"
      />
    </g>
    <path
      id="left-ear2"
      d="M558.618,296.849C558.668,297.162 563.187,294.248 563.439,294.055C567.912,290.629 571.555,286.157 575.142,281.852C583.234,272.143 600.683,256.171 608.718,271.023C610.937,275.125 611.892,282.848 611.966,287.718C612.138,299.1 610.273,311.102 606.988,320.955C606.513,322.38 609.078,330.004 609.218,331.01C610.197,338.061 610.152,345.947 609.129,352.99C607.359,365.187 595.546,380.229 589.442,391.184C583.64,401.598 571.298,426.58 555.474,421.306C542.042,416.828 543.432,392.802 536.791,382.708"
      style="fill: none; stroke: black; stroke-width: 2.13px"
    />
    <g id="right-ear" transform="matrix(-1,0,0,1,799.929,0)">
      <path
        d="M558.618,296.849C558.668,297.162 563.187,294.248 563.439,294.055C567.912,290.629 571.555,286.157 575.142,281.852C583.234,272.143 600.683,256.171 608.718,271.023C610.937,275.125 611.892,282.848 611.966,287.718C612.138,299.1 610.273,311.102 606.988,320.955C606.513,322.38 609.078,330.004 609.218,331.01C610.197,338.061 610.152,345.947 609.129,352.99C607.359,365.187 595.546,380.229 589.442,391.184C583.64,401.598 571.298,426.58 555.474,421.306C542.042,416.828 543.432,392.802 536.791,382.708"
        style="fill: var(--color_skin, rgb(240, 205, 177))"
      />
      <clipPath id="_clip8_punk_ears">
        <path
          d="M558.618,296.849C558.668,297.162 563.187,294.248 563.439,294.055C567.912,290.629 571.555,286.157 575.142,281.852C583.234,272.143 600.683,256.171 608.718,271.023C610.937,275.125 611.892,282.848 611.966,287.718C612.138,299.1 610.273,311.102 606.988,320.955C606.513,322.38 609.078,330.004 609.218,331.01C610.197,338.061 610.152,345.947 609.129,352.99C607.359,365.187 595.546,380.229 589.442,391.184C583.64,401.598 571.298,426.58 555.474,421.306C542.042,416.828 543.432,392.802 536.791,382.708"
        />
      </clipPath>
      <g clip-path="url(#_clip8_punk_ears)">
        <g transform="matrix(1,0,0,1,0.707526,0)">
          <path
            d="M557.668,373.138C559.289,370.151 563.078,365.038 563.149,366.343C563.254,368.266 561.859,369.407 563.122,370.993C565.193,373.594 569.479,371.45 571.179,369.637C572.24,368.505 573.022,367.147 573.652,365.737C574.541,363.745 575.167,361.647 575.481,359.489C576.055,355.554 575.742,351.553 574.406,347.803C572.149,341.469 568.177,336.37 568.072,329.35C568.027,326.384 568.386,323.396 569.099,320.519C569.226,320.006 569.559,317.981 570.447,318.196C576.406,319.634 580.994,324.941 583.838,330.003C586.023,333.894 587.983,338.14 588.746,342.567C590.463,352.522 586.796,365.611 578.97,372.354C574.044,376.599 566.962,376.555 562.1,380.539C559.976,382.28 558.553,384.694 557.442,387.179C557.325,387.44 556.585,390.002 556.314,390.044C556.024,390.088 555.326,389.287 555.132,389.116C553.727,387.876 552.805,386.228 552.477,384.386C551.538,379.101 555.534,377.068 557.668,373.138ZM574.97,305.443C575.658,304.221 579.024,303.801 580.215,303.659C583.46,303.27 585.921,302.741 587.815,299.866C590.582,295.666 589.398,290.151 591.995,286.115C593.305,284.081 596.312,282.179 598.803,283.204C600.607,283.947 599.862,286.862 599.787,288.376C599.537,293.408 600.535,298.366 601.598,303.257C601.936,304.81 602.27,306.443 602.953,307.889C603.038,308.069 603.543,309.18 603.861,308.999C604.315,308.739 604.344,307.594 604.425,307.161C604.749,305.429 605.184,303.722 605.438,301.975C606.18,296.881 606.902,291.15 606.016,286.037C605.652,283.936 604.747,281.369 602.785,280.251C599.745,278.519 595.229,280.625 592.571,282.256C584.585,287.157 579.668,296.59 575.019,304.382L574.97,305.443Z"
            style="fill: rgb(66, 31, 67); fill-opacity: 0.5"
          />
        </g>
        <g transform="matrix(-1,0,0,1,799.929,0)">
          <path
            d="M242.373,387.085C242.411,387.142 242.425,387.202 242.405,387.266L242.373,387.085C242.17,386.784 241.282,386.585 241.097,386.548C239.572,386.245 238.121,387.051 236.628,386.414C232.862,384.807 230.002,380.036 226.973,377.329C226.605,377.001 223.836,375.072 224.097,374.58C224.612,373.611 228.848,375.303 229.472,375.518C234.561,377.272 239.706,380.426 242.084,385.453L242.373,387.085ZM199.955,284.978C199.832,286.996 200.688,289.418 200.947,291.421C201.412,295.02 201.353,298.621 202.243,302.166C203.022,305.27 204.557,308.259 204.256,311.534C203.897,315.44 201.505,319.15 200.158,322.771C197.485,329.956 195.154,337.108 194.407,344.767C193.795,351.05 194.419,357.426 195.679,363.598C196.088,365.605 196.613,367.584 197.298,369.515C197.535,370.183 197.786,370.846 198.044,371.505C198.068,371.567 198.417,372.527 198.351,372.519C198.056,372.48 197.656,371.72 197.507,371.514C196.723,370.425 195.962,369.317 195.227,368.195C191.975,363.237 190.053,358.092 189.779,352.14C189.451,345.013 189.572,338.198 190.419,331.116C190.683,328.913 190.73,326.63 191.247,324.466C191.96,321.487 193.241,318.673 193.962,315.691C194.898,311.817 195.855,308.063 196.906,304.207C198.203,299.441 199.473,294.63 199.473,289.613L199.955,284.978ZM233.308,329.902C233.377,329.969 233.721,330.194 233.815,330.328C234.094,330.721 234.336,331.136 234.551,331.566C235.192,332.848 235.652,334.284 235.808,335.71C236.261,339.874 233.939,344.16 232.92,348.106C232.554,349.523 232.318,350.978 232.183,352.435C232.166,352.618 231.979,354.736 231.945,354.722C231.661,354.608 231.605,353.594 231.569,353.367C231.328,351.82 231.235,350.245 231.111,348.686C230.64,342.747 230.787,335.547 233.146,329.945L233.308,329.902C233.286,329.881 233.291,329.876 233.339,329.894L233.308,329.902ZM225.496,284.27C225.59,284.323 225.664,284.374 225.596,284.405L225.496,284.27C225.424,284.23 225.34,284.188 225.297,284.151C225.098,283.984 224.899,283.818 224.698,283.654C224.132,283.191 223.56,282.734 222.985,282.284C221.251,280.927 219.493,279.605 217.702,278.325C212.128,274.344 204.657,270.444 197.628,272.486C192.317,274.028 189.415,278.772 188.337,283.94C187.993,285.591 187.77,287.266 187.66,288.949C187.636,289.321 187.393,291.593 187.322,291.379C186.35,288.464 187.076,284.342 187.615,281.411C188.748,275.238 190.231,267.165 197.43,265.581C198.638,265.315 199.921,265.289 201.149,265.394C204.347,265.666 207.289,267.165 209.942,268.884C214.465,271.815 218.515,275.545 222.028,279.62L225.496,284.27Z"
            style="fill: rgb(252, 255, 216); fill-opacity: 0.6"
          />
        </g>
        <path
          d="M606.498,282.696C606.764,282.454 604.164,280.752 604.007,280.675C601.664,279.531 599.297,279.67 596.877,280.549C590.934,282.706 585.874,288.434 582.057,293.245C570.896,307.314 564.641,332.186 574.489,348.717"
          style="fill: none; stroke: black; stroke-width: 2.13px"
        />
        <path
          d="M566.291,328.7C566.536,328.764 566.892,331.699 566.947,331.965C567.703,335.635 568.42,339.309 568.687,343.053C569.264,351.13 567.694,359.52 563.13,366.339C560.454,370.337 556.545,373.443 554.112,377.589C552.219,380.813 551.3,386.973 555.133,389.333"
          style="fill: none; stroke: black; stroke-width: 2.13px"
        />
        <path
          d="M554.489,398.331C555.326,392.383 557.04,386.15 561.015,381.48C565.801,375.857 573.976,376.969 578.775,371.742C589.381,360.191 592.389,342.119 583.745,328.931C581.34,325.262 578.243,320.934 573.826,319.635"
          style="fill: none; stroke: black; stroke-width: 2.13px"
        />
        <path
          d="M599.439,284.456C599.906,285.596 599.393,287.83 599.422,289.038C599.494,292.061 599.794,295.005 600.337,297.979C601.758,305.769 606.184,313.715 606.744,321.557"
          style="fill: none; stroke: black; stroke-width: 2.13px"
        />
        <path
          d="M577.685,394.854C578.135,393 580.698,390.58 581.816,389.109C585.134,384.745 589.207,380.952 593.445,377.497C596.173,375.273 599.381,373.31 601.576,370.505"
          style="fill: none; stroke: black; stroke-width: 2.13px"
        />
      </g>
      <path
        d="M558.618,296.849C558.668,297.162 563.187,294.248 563.439,294.055C567.912,290.629 571.555,286.157 575.142,281.852C583.234,272.143 600.683,256.171 608.718,271.023C610.937,275.125 611.892,282.848 611.966,287.718C612.138,299.1 610.273,311.102 606.988,320.955C606.513,322.38 609.078,330.004 609.218,331.01C610.197,338.061 610.152,345.947 609.129,352.99C607.359,365.187 595.546,380.229 589.442,391.184C583.64,401.598 571.298,426.58 555.474,421.306C542.042,416.828 543.432,392.802 536.791,382.708"
        style="fill: none; stroke: black; stroke-width: 2.13px"
      />
    </g>
  </g>
</svg>
