<svg viewBox="0 0 800 800" xmlns="http://www.w3.org/2000/svg">
  <g id="Gorgeous-emotions" transform="matrix(0.388951,0,0,0.388951,2.34032,2.21244)">
    <g id="eyeliner" transform="matrix(2.57102,0,0,2.57102,-6.01701,-5.68822)">
      <path
        d="M441.921,349.86C442.012,349.822 442.159,348.791 442.187,348.682C442.49,347.471 442.876,346.261 443.298,345.086C444.645,341.329 446.961,337.994 449.751,335.156C452.558,332.3 456.744,331.729 460.535,331.269C464.167,330.828 467.769,330.223 471.389,329.705C489.29,327.148 507.977,333.105 521.095,345.348C523.959,348.021 526.524,350.951 529.224,353.785C529.502,354.077 532.027,356.124 531.905,356.454C531.636,357.185 529.007,357.443 528.406,357.572C523.87,358.541 519.271,357.073 514.879,355.977C513.402,355.609 511.927,355.239 510.447,354.884C508.469,354.411 506.478,353.991 504.485,353.587C496.412,351.952 488.228,350.696 480.009,350.116C472.608,349.594 465.137,349.562 457.736,350.094C453.48,350.399 448.175,351.794 443.972,350.393"
        style="fill: rgb(var(--color_eyeliner_r, 255), var(--color_eyeliner_g, 255), var(--color_eyeliner_b, 255))"
      />
      <g transform="matrix(-1,0,0,1,798.791,0)">
        <path
          d="M441.921,349.86C442.012,349.822 442.159,348.791 442.187,348.682C442.49,347.471 442.876,346.261 443.298,345.086C444.645,341.329 446.483,340.277 449.273,337.439C452.08,334.583 467.315,334.218 470.934,333.701C488.836,331.144 507.696,333.798 521.549,344.767C524.62,347.199 527.185,349.75 529.886,352.584C530.164,352.876 532.027,356.124 531.905,356.454C531.636,357.185 529.007,357.443 528.406,357.572C523.87,358.541 519.271,357.073 514.879,355.977C513.402,355.609 511.927,355.239 510.447,354.884C508.469,354.411 506.478,353.991 504.485,353.587C496.412,351.952 488.228,350.696 480.009,350.116C472.608,349.594 465.137,349.562 457.736,350.094C453.48,350.399 448.175,351.794 443.972,350.393"
          style="fill: rgb(var(--color_eyeliner_r, 255), var(--color_eyeliner_g, 255), var(--color_eyeliner_b, 255))"
        />
      </g>
    </g>
    <g id="confident">
      <g id="eyes" transform="matrix(2.57102,0,0,2.57102,-6.01701,-5.68822)">
        <path
          d="M440.625,304.344C440.214,305.587 438.577,307.239 437.891,308.442C435.926,311.89 434.163,315.535 433.235,319.411C432.262,323.471 431.278,332.951 432.94,333.066C436.385,333.303 443.916,332.123 448.736,330.995C452.563,330.1 456.546,328.771 459.116,322.748C462.266,315.366 465.459,302.748 472.71,299.765C475.214,298.735 447.903,303.053 441.993,305.739"
          style="fill: rgb(56, 25, 57); fill-opacity: 0.5"
        />
        <g>
          <path
            d="M443.506,362.132C442.931,362.548 442.752,364.443 442.61,365.064C441.739,368.885 443.157,373.006 447.104,374.322C452.522,376.128 458.804,376.23 464.419,377.166C473.842,378.736 483.617,381.46 493.194,381.206C496.573,381.116 499.869,380.203 503.15,379.46C505.034,379.033 506.866,378.481 508.627,377.679C513.72,375.36 521.462,368.385 521.462,362.178C521.462,359.571 519.331,357.497 517.422,356.016C512.698,352.35 506.62,350.652 500.85,349.529C481.197,345.703 457.968,345.783 443.709,361.902"
            style="fill: rgb(255, 245, 243)"
          />
          <clipPath id="_clip2_miss_confident_eyes">
            <path
              d="M443.506,362.132C442.931,362.548 442.752,364.443 442.61,365.064C441.739,368.885 443.157,373.006 447.104,374.322C452.522,376.128 458.804,376.23 464.419,377.166C473.842,378.736 483.617,381.46 493.194,381.206C496.573,381.116 499.869,380.203 503.15,379.46C505.034,379.033 506.866,378.481 508.627,377.679C513.72,375.36 521.462,368.385 521.462,362.178C521.462,359.571 519.331,357.497 517.422,356.016C512.698,352.35 506.62,350.652 500.85,349.529C481.197,345.703 457.968,345.783 443.709,361.902"
            />
          </clipPath>
          <g clip-path="url(#_clip2_miss_confident_eyes)">
            <g transform="matrix(1.02436,0,0,1.02436,-11.997,-18.1128)">
              <circle cx="479.698" cy="371.738" r="20.468" style="fill: rgb(var(--color_eyes_r, 99), var(--color_eyes_g, 65), var(--color_eyes_b))" />
              <clipPath id="_clip3_miss_confident_eyes">
                <circle cx="479.698" cy="371.738" r="20.468" />
              </clipPath>
              <g clip-path="url(#_clip3_miss_confident_eyes)">
                <g transform="matrix(0.976215,0,0,0.976215,11.7116,17.682)">
                  <path
                    d="M439.309,372.616C439.958,372.718 441.761,371.404 442.341,371.133C444.967,369.905 447.616,368.74 450.349,367.768C459.258,364.597 468.109,362.778 477.48,361.597C487.904,360.284 499.948,360.382 510.217,362.858C514.492,363.888 518.579,365.536 522.826,366.671C524.797,367.197 527.18,368.015 529.215,367.368C534.33,365.74 528.832,359.004 526.997,357.218C526.428,356.665 525.841,356.131 525.239,355.615C524.384,354.884 523.501,354.184 522.593,353.519C521.565,352.766 520.509,352.052 519.429,351.376C515.751,349.075 511.824,347.189 507.77,345.65C489.581,338.743 468.132,339.141 450.746,348.236C449.195,349.047 447.682,349.93 446.218,350.889C439.723,355.147 429.209,366.051 439.222,372.59"
                    style="fill: rgb(66, 31, 67); fill-opacity: 0.6"
                  />
                </g>
              </g>
              <circle cx="479.698" cy="371.738" r="20.468" style="fill: none; stroke: black; stroke-width: 1.92px" />
            </g>
            <path
              d="M469.537,362.682C472.846,362.047 474.062,362.028 477.48,361.597C481.861,361.045 484.364,360.735 489.067,360.753C490.275,363.717 490.282,374.416 479.389,374.678C471.441,374.87 469.029,368.514 469.537,362.682Z"
              style="fill: rgb(calc(var(--color_eyes_r, 99) + 119), calc(var(--color_eyes_g, 65) + 106), calc(var(--color_eyes_b, 28) + 41))"
            />
            <path
              d="M439.309,372.616C439.958,372.718 441.761,371.404 442.341,371.133C444.967,369.905 447.616,368.74 450.349,367.768C459.258,364.597 468.109,362.778 477.48,361.597C487.904,360.284 499.948,360.382 510.217,362.858C514.492,363.888 518.579,365.536 522.826,366.671C524.797,367.197 527.18,368.015 529.215,367.368C534.33,365.74 528.832,359.004 526.997,357.218C526.428,356.665 525.841,356.131 525.239,355.615C524.384,354.884 523.501,354.184 522.593,353.519C521.565,352.766 520.509,352.052 519.429,351.376C515.751,349.075 511.824,347.189 507.77,345.65C489.581,338.743 468.132,339.141 450.746,348.236C449.195,349.047 447.682,349.93 446.218,350.889C439.723,355.147 429.209,366.051 439.222,372.59"
              style="fill: rgb(66, 31, 67); fill-opacity: 0.5"
            />
            <g transform="matrix(0.481324,0,0,0.481324,248.498,183.756)">
              <circle cx="479.698" cy="371.738" r="20.468" />
            </g>
            <g transform="matrix(0.629527,0,0,0.629527,187.966,133.714)">
              <circle cx="487.311" cy="356.756" r="7.582" style="fill: white" />
            </g>
          </g>
          <path
            d="M449.833,375.901C449.487,375.81 450.55,375.88 450.908,375.875C451.619,375.865 452.328,375.852 453.038,375.828C455.14,375.756 457.285,375.758 459.374,376.014C465.661,376.786 472.222,377.665 478.512,378.406C486.75,379.377 493.806,379.557 500.532,378.395C505.355,377.562 511.534,375.129 513.677,373.433C514.534,372.755 516.138,370.927 517.224,370.646C517.927,370.463 519.073,370.838 519.729,371.043C521.693,371.655 523.642,372.392 525.433,373.411C525.865,373.657 527.589,375.072 527.589,375.072C527.589,375.072 524.995,374.796 524.715,374.782C523.059,374.705 519.266,374.521 518.087,376.258C517.159,377.627 517.452,379.699 517.545,381.246C517.557,381.438 517.643,383.003 517.643,383.003C517.643,383.003 515.61,381.895 515.23,381.687C513.689,380.842 511.873,380.3 510.118,380.664C508.567,380.986 507.366,381.93 506.636,383.33C506.398,383.789 505.96,385.566 505.96,385.566C505.96,385.566 504.497,384.006 503.792,383.537C501.882,382.27 499.26,382.064 497.052,382.497C495.811,382.741 494.895,383.483 494.123,384.454C493.944,384.681 493.036,385.728 493.036,385.728C493.036,385.728 491.994,384.687 491.677,384.394C490.959,383.731 490.019,383.371 489.085,383.134C486.235,382.409 483.651,381.999 480.754,381.49C477.25,380.873 473.853,379.678 470.331,379.147C465.702,378.449 460.818,377.572 456.161,377.089C454.532,376.921 451.274,377.295 449.761,376.738"
          />
          <path
            d="M437.74,371.173C437.849,370.596 438.009,370.028 438.163,369.462C438.615,367.803 439.235,366.237 439.843,364.632C440.698,362.382 441.605,360.031 442.852,357.963C443.081,357.583 445.233,355.052 444.94,354.811C444.242,354.239 442.422,354.366 441.559,354.138C439.325,353.546 437.002,352.62 435.058,351.356C434.561,351.034 432.872,350.009 432.774,349.371C432.758,349.271 434.929,349.473 435.087,349.487C436.512,349.618 437.91,349.488 439.326,349.317C443.368,348.828 447.373,348.067 451.26,346.846C452.22,346.545 454.574,346.116 455.316,345.33C455.834,344.782 454.333,344.183 453.903,343.563C452.757,341.914 452.095,339.913 451.554,337.995C451.519,337.873 450.987,336.378 451.114,336.277C451.203,336.205 453.535,337.934 453.743,338.047C455.546,339.027 457.582,339.487 459.549,340.016C464.694,341.4 467.759,341.213 472.959,340.914C474.903,340.803 477.006,341.056 478.913,340.601C480.873,340.133 482.799,338.456 484.142,337.022C484.538,336.6 486.201,334.807 486.201,334.807C486.201,334.807 487.103,337.407 487.257,337.786C488.083,339.815 489.502,340.67 491.575,340.81C496.376,341.134 500.657,341.995 505.399,340.762C506.151,340.567 510.544,339.482 510.544,339.482C510.544,339.482 509.486,341.92 509.351,342.186C508.571,343.723 506.017,346.701 507.301,347.385C511.261,349.496 515.731,349.223 519.919,348.212C520.544,348.061 524.88,346.978 524.88,346.978C524.88,346.978 524.612,348.395 524.411,348.76C523.518,350.38 522.346,351.93 521.023,353.219C520.975,353.265 519.32,354.759 519.328,354.77C519.707,355.246 522.208,355.263 522.734,355.308C526.39,355.62 530.267,355.357 533.9,354.906C535.064,354.762 539.198,354.288 539.198,354.288C539.198,354.288 536.09,357.043 535.498,357.488C531.612,360.409 526.986,362.756 522.132,363.517C520.962,363.7 519.723,361.671 518.758,361.043C515.439,358.885 512.075,356.825 508.426,355.261C498.779,351.126 486.979,349.357 476.507,349.937C465.61,350.541 456.618,353.112 448.629,360.737C445.562,363.663 442.311,366.741 439.761,370.13C438.365,371.985 438.485,372.289 437.607,372.131"
          />
        </g>
        <path
          d="M312.9,332.983C313.127,333.193 316.07,331.822 316.366,331.707C319.98,330.301 326.266,329.88 330.079,329.118C338.937,327.347 346.088,326.718 355.084,326.913C359.603,327.011 364.648,326.579 369.072,327.707C371.498,328.325 372.468,331.024 373.203,333.169C374.943,338.243 376.633,343.357 378.131,348.509C378.744,350.621 379.145,353.409 375.608,353.48C367.751,353.635 354.538,352.438 354.346,343.446C354.281,340.371 350.229,338.279 347.447,336.849C343.912,335.033 339.43,334.875 335.548,334.648C329.189,334.277 322.844,334.152 316.492,333.628"
          style="fill: rgb(56, 25, 57); fill-opacity: 0.5"
        />
        <g transform="matrix(-1,0,0,1,799.986,0)">
          <path
            d="M443.506,362.132C442.931,362.548 442.752,364.443 442.61,365.064C441.739,368.885 443.157,373.006 447.104,374.322C452.522,376.128 458.804,376.23 464.419,377.166C473.842,378.736 483.617,381.46 493.194,381.206C496.573,381.116 499.869,380.203 503.15,379.46C505.034,379.033 506.866,378.481 508.627,377.679C513.72,375.36 521.462,368.385 521.462,362.178C521.462,359.571 519.331,357.497 517.422,356.016C512.698,352.35 506.62,350.652 500.85,349.529C481.197,345.703 457.968,345.783 443.709,361.902"
            style="fill: rgb(255, 245, 243)"
          />
          <clipPath id="_clip4_miss_confident_eyes">
            <path
              d="M443.506,362.132C442.931,362.548 442.752,364.443 442.61,365.064C441.739,368.885 443.157,373.006 447.104,374.322C452.522,376.128 458.804,376.23 464.419,377.166C473.842,378.736 483.617,381.46 493.194,381.206C496.573,381.116 499.869,380.203 503.15,379.46C505.034,379.033 506.866,378.481 508.627,377.679C513.72,375.36 521.462,368.385 521.462,362.178C521.462,359.571 519.331,357.497 517.422,356.016C512.698,352.35 506.62,350.652 500.85,349.529C481.197,345.703 457.968,345.783 443.709,361.902"
            />
          </clipPath>
          <g clip-path="url(#_clip4_miss_confident_eyes)">
            <g transform="matrix(1.02436,0,0,1.02436,-11.997,-18.1128)">
              <circle cx="479.698" cy="371.738" r="20.468" style="fill: rgb(var(--color_eyes_r, 99), var(--color_eyes_g, 65), var(--color_eyes_b))" />
              <clipPath id="_clip5_miss_confident_eyes">
                <circle cx="479.698" cy="371.738" r="20.468" />
              </clipPath>
              <g clip-path="url(#_clip5_miss_confident_eyes)">
                <g transform="matrix(0.976215,0,0,0.976215,11.7116,17.682)">
                  <path
                    d="M439.309,372.616C439.958,372.718 441.761,371.404 442.341,371.133C444.967,369.905 447.616,368.74 450.349,367.768C459.258,364.597 468.109,362.778 477.48,361.597C487.904,360.284 499.948,360.382 510.217,362.858C514.492,363.888 518.579,365.536 522.826,366.671C524.797,367.197 527.18,368.015 529.215,367.368C534.33,365.74 528.832,359.004 526.997,357.218C526.428,356.665 525.841,356.131 525.239,355.615C524.384,354.884 523.501,354.184 522.593,353.519C521.565,352.766 520.509,352.052 519.429,351.376C515.751,349.075 511.824,347.189 507.77,345.65C489.581,338.743 468.132,339.141 450.746,348.236C449.195,349.047 447.682,349.93 446.218,350.889C439.723,355.147 429.209,366.051 439.222,372.59"
                    style="fill: rgb(66, 31, 67); fill-opacity: 0.6"
                  />
                </g>
              </g>
              <circle cx="479.698" cy="371.738" r="20.468" style="fill: none; stroke: black; stroke-width: 1.92px" />
            </g>
            <path
              d="M469.537,362.682C472.846,362.047 474.062,362.028 477.48,361.597C481.861,361.045 484.364,360.735 489.067,360.753C490.275,363.717 490.282,374.416 479.389,374.678C471.441,374.87 469.029,368.514 469.537,362.682Z"
              style="fill: rgb(calc(var(--color_eyes_r, 99) + 119), calc(var(--color_eyes_g, 65) + 106), calc(var(--color_eyes_b, 28) + 41))"
            />
            <path
              d="M439.309,372.616C439.958,372.718 441.761,371.404 442.341,371.133C444.967,369.905 447.616,368.74 450.349,367.768C459.258,364.597 468.109,362.778 477.48,361.597C487.904,360.284 499.948,360.382 510.217,362.858C514.492,363.888 518.579,365.536 522.826,366.671C524.797,367.197 527.18,368.015 529.215,367.368C534.33,365.74 528.832,359.004 526.997,357.218C526.428,356.665 525.841,356.131 525.239,355.615C524.384,354.884 523.501,354.184 522.593,353.519C521.565,352.766 520.509,352.052 519.429,351.376C515.751,349.075 511.824,347.189 507.77,345.65C489.581,338.743 468.132,339.141 450.746,348.236C449.195,349.047 447.682,349.93 446.218,350.889C439.723,355.147 429.209,366.051 439.222,372.59"
              style="fill: rgb(66, 31, 67); fill-opacity: 0.5"
            />
            <g transform="matrix(0.481324,0,0,0.481324,248.498,183.756)">
              <circle cx="479.698" cy="371.738" r="20.468" />
            </g>
            <g transform="matrix(0.629527,0,0,0.629527,158.379,133.714)">
              <circle cx="487.311" cy="356.756" r="7.582" style="fill: white" />
            </g>
          </g>
          <path
            d="M449.833,375.901C449.487,375.81 450.55,375.88 450.908,375.875C451.619,375.865 452.328,375.852 453.038,375.828C455.14,375.756 457.285,375.758 459.374,376.014C465.661,376.786 472.222,377.665 478.512,378.406C486.75,379.377 493.806,379.557 500.532,378.395C505.355,377.562 511.534,375.129 513.677,373.433C514.534,372.755 516.138,370.927 517.224,370.646C517.927,370.463 519.073,370.838 519.729,371.043C521.693,371.655 523.642,372.392 525.433,373.411C525.865,373.657 527.589,375.072 527.589,375.072C527.589,375.072 524.995,374.796 524.715,374.782C523.059,374.705 519.266,374.521 518.087,376.258C517.159,377.627 517.452,379.699 517.545,381.246C517.557,381.438 517.643,383.003 517.643,383.003C517.643,383.003 515.61,381.895 515.23,381.687C513.689,380.842 511.873,380.3 510.118,380.664C508.567,380.986 507.366,381.93 506.636,383.33C506.398,383.789 505.96,385.566 505.96,385.566C505.96,385.566 504.497,384.006 503.792,383.537C501.882,382.27 499.26,382.064 497.052,382.497C495.811,382.741 494.895,383.483 494.123,384.454C493.944,384.681 493.036,385.728 493.036,385.728C493.036,385.728 491.994,384.687 491.677,384.394C490.959,383.731 490.019,383.371 489.085,383.134C486.235,382.409 483.651,381.999 480.754,381.49C477.25,380.873 473.853,379.678 470.331,379.147C465.702,378.449 460.818,377.572 456.161,377.089C454.532,376.921 451.274,377.295 449.761,376.738"
          />
          <path
            d="M437.74,371.173C437.849,370.596 438.009,370.028 438.163,369.462C438.615,367.803 439.235,366.237 439.843,364.632C440.698,362.382 441.605,360.031 442.852,357.963C443.081,357.583 445.233,355.052 444.94,354.811C444.242,354.239 442.422,354.366 441.559,354.138C439.325,353.546 437.002,352.62 435.058,351.356C434.561,351.034 432.872,350.009 432.774,349.371C432.758,349.271 434.929,349.473 435.087,349.487C436.512,349.618 437.91,349.488 439.326,349.317C443.368,348.828 447.373,348.067 451.26,346.846C452.22,346.545 454.574,346.116 455.316,345.33C455.834,344.782 454.333,344.183 453.903,343.563C452.757,341.914 452.095,339.913 451.554,337.995C451.519,337.873 450.987,336.378 451.114,336.277C451.203,336.205 453.535,337.934 453.743,338.047C455.546,339.027 457.582,339.487 459.549,340.016C464.694,341.4 467.759,341.213 472.959,340.914C474.903,340.803 477.006,341.056 478.913,340.601C480.873,340.133 482.799,338.456 484.142,337.022C484.538,336.6 486.201,334.807 486.201,334.807C486.201,334.807 487.103,337.407 487.257,337.786C488.083,339.815 489.502,340.67 491.575,340.81C496.376,341.134 500.657,341.995 505.399,340.762C506.151,340.567 510.544,339.482 510.544,339.482C510.544,339.482 509.486,341.92 509.351,342.186C508.571,343.723 506.017,346.701 507.301,347.385C511.261,349.496 515.731,349.223 519.919,348.212C520.544,348.061 524.88,346.978 524.88,346.978C524.88,346.978 524.612,348.395 524.411,348.76C523.518,350.38 522.346,351.93 521.023,353.219C520.975,353.265 519.32,354.759 519.328,354.77C519.707,355.246 522.208,355.263 522.734,355.308C526.39,355.62 530.267,355.357 533.9,354.906C535.064,354.762 539.198,354.288 539.198,354.288C539.198,354.288 536.09,357.043 535.498,357.488C531.612,360.409 526.986,362.756 522.132,363.517C520.962,363.7 519.723,361.671 518.758,361.043C515.439,358.885 512.075,356.825 508.426,355.261C498.779,351.126 486.979,349.357 476.507,349.937C465.61,350.541 456.618,353.112 448.629,360.737C445.562,363.663 442.311,366.741 439.761,370.13C438.365,371.985 438.485,372.289 437.607,372.131"
          />
        </g>
        <path
          d="M355.813,347.017C356.07,347.23 355.541,346.406 355.402,346.101C355.122,345.488 354.781,344.887 354.432,344.31C353.377,342.566 352.473,340.807 351.663,338.941"
          style="fill: none; stroke: rgb(3, 0, 0); stroke-width: 2.09px"
        />
        <path
          d="M269.618,351.473C269.344,351.764 270.075,350.816 270.332,350.509C270.825,349.921 271.329,349.342 271.861,348.788C273.516,347.063 275.385,345.488 277.34,344.112C283.109,340.05 290.065,337.299 296.808,335.37C308.401,332.053 320.213,332.372 332.071,333.896C336.567,334.474 341.191,334.792 345.544,336.143C350.368,337.64 354.674,339.967 359.149,342.242"
          style="fill: none; stroke: rgb(3, 0, 0); stroke-width: 2.09px"
        />
        <path
          d="M440.326,334.662C452.015,332.16 464.115,328.891 476.106,328.664C487.118,328.455 499.028,331.301 508.861,336.28C514.336,339.052 521.132,345.182 525.797,349.079"
          style="fill: none; stroke: rgb(3, 0, 0); stroke-width: 2.09px"
        />
        <path d="M443.015,345.608C442.784,345.323 443.947,343.049 444.072,342.756C445.253,339.993 448.164,335.306 450.466,333.277" style="fill: none; stroke: rgb(3, 0, 0); stroke-width: 2.09px" />
      </g>
      <g id="eyebrows" transform="matrix(2.57102,0,0,2.57102,-6.01701,-5.68822)">
        <path
          d="M442.752,306.902C442.912,307.168 442.243,306.549 441.986,306.374C441.475,306.027 440.96,305.683 440.476,305.298C438.972,304.103 437.578,302.733 436.66,301.032C434.732,297.463 437.925,296.617 441.028,295.262C456.57,288.478 474.952,287.373 491.541,289.776C500.892,291.13 509.122,294.103 517.381,298.616C521.897,301.083 525.462,305.394 528.519,309.623C531.444,313.67 534.391,317.404 536.528,321.905C537.263,323.454 539.198,328.877 539.198,328.877C539.198,328.877 536.056,324.221 534.78,322.761C530.054,317.349 524.847,312.402 518.833,308.437C502.977,297.985 480.519,297.557 462.224,301.552C456.557,302.79 449.826,305.028 444.671,306.549L442.752,306.902Z"
          style="fill: rgb(var(--color_eyebrows_r, 72), var(--color_eyebrows_g, 46), var(--color_eyebrows_b, 31))"
        />
        <clipPath id="_clip6_miss_confident_eyes">
          <path
            d="M442.752,306.902C442.912,307.168 442.243,306.549 441.986,306.374C441.475,306.027 440.96,305.683 440.476,305.298C438.972,304.103 437.578,302.733 436.66,301.032C434.732,297.463 437.925,296.617 441.028,295.262C456.57,288.478 474.952,287.373 491.541,289.776C500.892,291.13 509.122,294.103 517.381,298.616C521.897,301.083 525.462,305.394 528.519,309.623C531.444,313.67 534.391,317.404 536.528,321.905C537.263,323.454 539.198,328.877 539.198,328.877C539.198,328.877 536.056,324.221 534.78,322.761C530.054,317.349 524.847,312.402 518.833,308.437C502.977,297.985 480.519,297.557 462.224,301.552C456.557,302.79 449.826,305.028 444.671,306.549L442.752,306.902Z"
          />
        </clipPath>
        <g clip-path="url(#_clip6_miss_confident_eyes)">
          <path
            d="M431.497,303.282C431.441,303.223 433.914,302.222 434.042,302.176C435.838,301.53 437.455,299.885 439.29,299.361C444.556,297.857 450.304,295.913 455.604,294.539C471.452,290.429 490.878,290.418 506.805,295.018C513.466,296.942 519.917,300.004 526.147,303.002C528.276,304.027 530.377,305.109 532.507,306.13C532.728,306.236 535.684,307.631 535.662,307.306C535.584,306.145 532.573,304.665 531.795,304.175C527.075,301.204 522.06,298.602 516.955,296.363C496.2,287.259 471.491,283.783 449.143,288.144C443.292,289.285 436.517,290.932 431.876,294.931C429.436,297.034 427.975,300.474 431.79,301.879"
            style="fill: rgb(calc(var(--color_eyebrows_r, 72) + 50), calc(var(--color_eyebrows_g, 46) + 40), calc(var(--color_eyebrows_b, 31) + 30))"
          />
        </g>
        <path
          d="M442.752,306.902C442.912,307.168 442.243,306.549 441.986,306.374C441.475,306.027 440.96,305.683 440.476,305.298C438.972,304.103 437.578,302.733 436.66,301.032C434.732,297.463 437.925,296.617 441.028,295.262C456.57,288.478 474.952,287.373 491.541,289.776C500.892,291.13 509.122,294.103 517.381,298.616C521.897,301.083 525.462,305.394 528.519,309.623C531.444,313.67 534.391,317.404 536.528,321.905C537.263,323.454 539.198,328.877 539.198,328.877C539.198,328.877 536.056,324.221 534.78,322.761C530.054,317.349 524.847,312.402 518.833,308.437C502.977,297.985 480.519,297.557 462.224,301.552C456.557,302.79 449.826,305.028 444.671,306.549L442.752,306.902Z"
          style="fill: none; stroke: black; stroke-width: 2.09px"
        />
        <path
          d="M255.791,333.701C255.791,333.701 258.016,332.014 258.691,331.557C260.72,330.183 262.803,328.888 264.915,327.646C271.114,323.999 277.669,321.014 284.43,318.574C307.052,310.409 332.186,316.019 355.415,318.243C360.291,318.71 365.189,318.979 370.087,318.99C371.998,318.995 373.919,318.958 375.82,318.748C376.164,318.71 377.419,318.32 377.473,318.893C377.601,320.243 377.203,321.903 376.809,323.174C373.63,333.428 361.773,331.263 353.321,330.671C351.191,330.522 349.062,330.354 346.936,330.141C333.387,328.785 319.966,326.423 306.434,324.934C298.543,324.065 290.203,323.03 282.281,324.173C272.402,325.6 255.791,333.701 255.791,333.701Z"
          style="fill: rgb(var(--color_eyebrows_r, 72), var(--color_eyebrows_g, 46), var(--color_eyebrows_b, 31))"
        />
        <clipPath id="_clip7_miss_confident_eyes">
          <path
            d="M255.791,333.701C255.791,333.701 258.016,332.014 258.691,331.557C260.72,330.183 262.803,328.888 264.915,327.646C271.114,323.999 277.669,321.014 284.43,318.574C307.052,310.409 332.186,316.019 355.415,318.243C360.291,318.71 365.189,318.979 370.087,318.99C371.998,318.995 373.919,318.958 375.82,318.748C376.164,318.71 377.419,318.32 377.473,318.893C377.601,320.243 377.203,321.903 376.809,323.174C373.63,333.428 361.773,331.263 353.321,330.671C351.191,330.522 349.062,330.354 346.936,330.141C333.387,328.785 319.966,326.423 306.434,324.934C298.543,324.065 290.203,323.03 282.281,324.173C272.402,325.6 255.791,333.701 255.791,333.701Z"
          />
        </clipPath>
        <g clip-path="url(#_clip7_miss_confident_eyes)">
          <path
            d="M255.142,334.19C267.022,326.112 280.437,320.841 294.679,318.899C316.34,315.945 338.855,320.272 360.381,322.675C368.091,323.535 376.167,324.174 381.743,317.689C383.476,315.673 385.095,312.994 384.471,310.227C383.749,307.026 380.595,305.031 377.871,303.659C371.627,300.515 364.43,298.929 357.579,297.807C329.387,293.19 298.155,298.189 273.59,313.087C266.672,317.282 259.665,322.565 255.197,329.437C254.071,331.168 253.058,333.102 252.517,335.108C252.406,335.519 251.996,336.877 252.674,337.052"
            style="fill: rgb(calc(var(--color_eyebrows_r, 72) + 50), calc(var(--color_eyebrows_g, 46) + 40), calc(var(--color_eyebrows_b, 31) + 30))"
          />
        </g>
        <path
          d="M255.791,333.701C255.791,333.701 258.016,332.014 258.691,331.557C260.72,330.183 262.803,328.888 264.915,327.646C271.114,323.999 277.669,321.014 284.43,318.574C307.052,310.409 332.186,316.019 355.415,318.243C360.291,318.71 365.189,318.979 370.087,318.99C371.998,318.995 373.919,318.958 375.82,318.748C376.164,318.71 377.419,318.32 377.473,318.893C377.601,320.243 377.203,321.903 376.809,323.174C373.63,333.428 361.773,331.263 353.321,330.671C351.191,330.522 349.062,330.354 346.936,330.141C333.387,328.785 319.966,326.423 306.434,324.934C298.543,324.065 290.203,323.03 282.281,324.173C272.402,325.6 255.791,333.701 255.791,333.701Z"
          style="fill: none; stroke: black; stroke-width: 2.09px"
        />
        <path d="M487.43,274.275C495.479,272.198 518.928,275.986 531.044,291.206" style="fill: none; stroke: black; stroke-width: 2.1px" />
        <path d="M385.572,306.802C385.114,309.381 385.911,312.65 385.653,315.382C385.063,321.649 382.885,327.856 379.723,333.277" style="fill: none; stroke: rgb(3, 0, 0); stroke-width: 2.09px" />
        <path d="M374.122,344.563C375.001,344.563 376.596,347.847 376.935,348.417C379.439,352.626 380.85,357.258 380.85,362.15" style="fill: none; stroke: rgb(3, 0, 0); stroke-width: 2.09px" />
        <path
          d="M426.821,344.973C426.851,345.015 425.936,346.193 425.878,346.279C424.864,347.787 423.943,349.344 423.155,350.983C421.196,355.06 420.613,359.29 420.489,363.76"
          style="fill: none; stroke: rgb(3, 0, 0); stroke-width: 2.09px"
        />
      </g>
    </g>
  </g>
</svg>