<svg width="800px" height="800px" viewBox="0 0 800 800" version="1.1" xmlns="http://www.w3.org/2000/svg" style="fill-rule:evenodd;clip-rule:evenodd;stroke-linecap:round;stroke-linejoin:round;stroke-miterlimit:1.5;">
    <g id="materials-card">
        <rect id="bg" x="-48.418" y="-9.957" width="931.967" height="871.066" style="fill:rgb(47,47,47);"/>
        <g id="rectangles" transform="matrix(1,0,0,1,49.4291,64.1339)">
            <g opacity="0.5">
                <g transform="matrix(0.660629,0,0,1.04551,351.522,-81.058)">
                    <rect x="462.47" y="633.282" width="419.335" height="322.449" style="fill:none;"/>
                    <clipPath id="_clip1_metal">
                        <rect x="462.47" y="633.282" width="419.335" height="322.449"/>
                    </clipPath>
                    <g clip-path="url(#_clip1_metal)">
                        <g transform="matrix(1.51371,0,0,0.956468,-452.99,37.369)">
                            <path d="M604.78,633.282L877.032,634.306" style="fill:none;stroke:rgb(166,240,98);stroke-width:4px;stroke-dasharray:4.25,7.5,0,0;"/>
                        </g>
                        <g transform="matrix(1.51371,0,0,0.956468,-452.99,58.0423)">
                            <path d="M604.78,633.282L877.032,634.306" style="fill:none;stroke:rgb(166,240,98);stroke-width:4px;stroke-dasharray:4.25,7.5,0,0;"/>
                        </g>
                        <g transform="matrix(1.51371,0,0,0.956468,-452.99,68.3789)">
                            <path d="M604.78,633.282L877.032,634.306" style="fill:none;stroke:rgb(166,240,98);stroke-width:4px;stroke-dasharray:4.25,7.5,0,0;"/>
                        </g>
                        <g transform="matrix(1.51371,0,0,0.956468,-452.99,89.0522)">
                            <path d="M604.78,633.282L877.032,634.306" style="fill:none;stroke:rgb(166,240,98);stroke-width:4px;stroke-dasharray:4.25,7.5,0,0;"/>
                        </g>
                        <g transform="matrix(1.51371,0,0,0.956468,-452.99,99.3888)">
                            <path d="M604.78,633.282L877.032,634.306" style="fill:none;stroke:rgb(166,240,98);stroke-width:4px;stroke-dasharray:4.25,7.5,0,0;"/>
                        </g>
                        <g transform="matrix(1.51371,0,0,0.956468,-452.99,130.399)">
                            <path d="M604.78,633.282L877.032,634.306" style="fill:none;stroke:rgb(166,240,98);stroke-width:4px;stroke-dasharray:4.25,7.5,0,0;"/>
                        </g>
                        <g transform="matrix(1.51371,0,0,0.956468,-452.99,151.072)">
                            <path d="M604.78,633.282L877.032,634.306" style="fill:none;stroke:rgb(166,240,98);stroke-width:4px;stroke-dasharray:4.25,7.5,0,0;"/>
                        </g>
                        <g transform="matrix(1.51371,0,0,0.956468,-452.99,171.745)">
                            <path d="M604.78,633.282L877.032,634.306" style="fill:none;stroke:rgb(166,240,98);stroke-width:4px;stroke-dasharray:4.25,7.5,0,0;"/>
                        </g>
                    </g>
                    <rect x="462.47" y="633.282" width="419.335" height="322.449" style="fill:none;stroke:rgb(166,240,98);stroke-width:4.57px;stroke-dasharray:4.86,8.58,0,0;"/>
                </g>
                <g transform="matrix(0.192707,0,0,1.04551,466.744,2.40586)">
                    <rect x="462.47" y="633.282" width="419.335" height="322.449" style="fill:none;"/>
                    <clipPath id="_clip2_metal">
                        <rect x="462.47" y="633.282" width="419.335" height="322.449"/>
                    </clipPath>
                    <g clip-path="url(#_clip2_metal)">
                        <g transform="matrix(1.51371,0,0,0.956468,-452.99,37.369)">
                            <path d="M604.78,633.282L877.032,634.306" style="fill:none;stroke:rgb(237,30,121);stroke-width:5.43px;stroke-dasharray:5.77,10.18,0,0;"/>
                        </g>
                        <g transform="matrix(1.51371,0,0,0.956468,-452.99,58.0423)">
                            <path d="M604.78,633.282L877.032,634.306" style="fill:none;stroke:rgb(237,30,121);stroke-width:5.43px;stroke-dasharray:5.77,10.18,0,0;"/>
                        </g>
                        <g transform="matrix(1.51371,0,0,0.956468,-452.99,68.3789)">
                            <path d="M604.78,633.282L877.032,634.306" style="fill:none;stroke:rgb(237,30,121);stroke-width:5.43px;stroke-dasharray:5.77,10.18,0,0;"/>
                        </g>
                        <g transform="matrix(1.51371,0,0,0.956468,-452.99,89.0522)">
                            <path d="M604.78,633.282L877.032,634.306" style="fill:none;stroke:rgb(237,30,121);stroke-width:5.43px;stroke-dasharray:5.77,10.18,0,0;"/>
                        </g>
                    </g>
                    <rect x="462.47" y="633.282" width="419.335" height="322.449" style="fill:none;stroke:rgb(237,30,121);stroke-width:5.32px;stroke-dasharray:5.65,9.98,0,0;"/>
                </g>
            </g>
        </g>
        <g id="circles" opacity="0.5">
            <g transform="matrix(1,0,0,1,-118.853,-94.5905)">
                <circle cx="155.124" cy="124.814" r="124.814" style="fill:none;stroke:rgb(255,207,0);stroke-width:4px;stroke-dasharray:4.25,7.5,0,0;"/>
            </g>
            <g transform="matrix(0.928318,0,0,0.928318,-107.734,-85.6437)">
                <circle cx="155.124" cy="124.814" r="124.814" style="fill:none;stroke:rgb(255,207,0);stroke-width:4.31px;stroke-dasharray:4.58,8.08,0,0;"/>
            </g>
            <g transform="matrix(0.691272,0,0,0.691272,-70.9623,-56.0571)">
                <circle cx="155.124" cy="124.814" r="124.814" style="fill:none;stroke:rgb(255,108,0);stroke-width:5.79px;stroke-dasharray:6.15,10.85,0,0;"/>
            </g>
        </g>
        <g transform="matrix(0.911866,0,0,0.911866,121.585,329.506)">
            <text x="179.62px" y="439.84px" style="font-family:'Futura-Medium', 'Futura', sans-serif;font-weight:500;font-size:118.438px;fill:white;"> 12%</text>
        </g>
        <g transform="matrix(0.720342,0,0,0.720342,14.7358,384.665)">
            <text x="77.471px" y="439.84px" style="font-family:'Futura-Medium', 'Futura', sans-serif;font-weight:500;font-size:50px;fill:white;">SUPPLY:</text>
        </g>
        <g transform="matrix(1,0,0,1,-7.69409,0)">
            <path d="M82.194,602.738L733.196,602.258C733.979,602.258 734.615,601.621 734.614,600.838C734.614,600.055 733.977,599.42 733.194,599.42L82.192,599.9C81.409,599.901 80.773,600.537 80.774,601.321C80.775,602.104 81.411,602.739 82.194,602.738Z" style="fill:white;"/>
        </g>
        <g transform="matrix(1,0,0,1,120.441,145.046)">
            <text x="201.79px" y="439.84px" style="font-family:'Futura-Medium', 'Futura', sans-serif;font-weight:500;font-size:50px;fill:white;">METAL</text>
        </g>
        <path id="border" d="M800,801.235L800,-4.106L-0,-4.106L0,801.235L800,801.235ZM260.875,30.644L30.644,30.644C30.644,30.644 30.644,769.356 30.644,769.356C30.644,769.356 769.356,769.356 769.356,769.356L769.356,30.644L539.125,30.644L539.125,61.806L260.875,61.806L260.875,30.644Z" style="fill:rgb(18,18,18);"/>
        <g id="guide" transform="matrix(1,0,0,1.04284,1.75676,-22.4672)">
            <rect x="82.193" y="95.569" width="632.101" height="428.927" style="fill:url(#_Linear3_card);stroke:rgb(94,94,94);stroke-width:4.8px;"/>
        </g>
        <g id="metal" transform="scale(0.75) translate(130,20)">
            <path id="right" d="M400,647.052L400,382.318L629.266,249.774L629.266,514.685L400,647.052Z" style="fill:url(#_Linear4_metal);"/>
            <clipPath id="_clip5_metal">
                <path id="right1" d="M400,647.052L400,382.318L629.266,249.774L629.266,514.685L400,647.052Z"/>
            </clipPath>
            <g clip-path="url(#_clip5_metal)">
                <g>
                    <g style="filter:url(#_Effect6_metal);">
                        <path d="M400.329,446.06C400.329,446.06 487.675,460.378 625.723,536.1C763.772,611.821 659.142,517.979 659.142,517.979C659.142,517.979 408.936,407.03 376.508,381.318C344.081,355.607 400.329,446.06 400.329,446.06Z" style="fill:url(#_Linear7_metal);"/>
                    </g>
                </g>
                <path d="M422.323,368.553L625.073,256.184L628.819,450.403L639.991,236.294L422.323,368.553Z" style="fill:rgb(254,254,255);"/>
            </g>
            <path id="right2"  d="M400,647.052L400,382.318L629.266,249.774L629.266,514.685L400,647.052Z" style="fill:none;stroke:black;stroke-width:2.5px;"/>
            <g id="left" transform="matrix(-1,0,0,1,800.192,0)">
                <path d="M400,647.052L400,382.318L629.266,249.774L629.266,514.685L400,647.052Z" style="fill:url(#_Linear8_metal);"/>
                <clipPath id="_clip9_metal">
                    <path d="M400,647.052L400,382.318L629.266,249.774L629.266,514.685L400,647.052Z"/>
                </clipPath>
                <g clip-path="url(#_clip9_metal)">
                    <g>
                        <g transform="matrix(-1,0,0,1,800.192,0)">
                            <g style="filter:url(#_Effect10_metal);">
                                <path d="M396.86,422.076C397.096,396.455 397.269,376.522 397.269,376.522L409.551,376.563L409.183,413.957C449.281,391.397 423.123,455.705 423.123,455.705L408.68,465.008L407.288,606.377C407.288,606.377 400.86,661.585 398.84,654.535C396.821,647.486 395.326,535.622 395.633,532.591C395.761,531.321 396.069,503.703 396.384,472.04C373.191,483.342 283.611,527.808 250.451,556.244C307.963,590.18 377.274,631.641 385.879,639.355C395.769,648.221 303.603,600.228 239.696,566.519C223.765,580.112 215.77,565.166 211.996,551.871C193.482,542.057 181.228,535.514 181.228,535.514L161.723,514.693L171.507,509.97C171.507,509.97 188.414,519.802 212.759,534.076C234.821,521.475 347.103,457.016 396.86,422.076Z" style="fill:rgb(250,250,251);"/>
                            </g>
                        </g>
                    </g>
                </g>
                <path d="M400,647.052L400,382.318L629.266,249.774L629.266,514.685L400,647.052Z" style="fill:none;stroke:black;stroke-width:2.5px;"/>
            </g>
            <path id="top" d="M170.925,249.774L400,117.517L629.266,249.774L400,382.03L170.925,249.774Z" style="fill:url(#_Linear11_metal);"/>
            <clipPath id="_clip12_metal">
                <path id="top1" d="M170.925,249.774L400,117.517L629.266,249.774L400,382.03L170.925,249.774Z"/>
            </clipPath>
            <g clip-path="url(#_clip12_metal)">
                <g>
                    <g style="filter:url(#_Effect13_metal);">
                        <path d="M301.969,170.953C301.969,170.953 297.208,292.135 306.318,333.908C315.428,375.682 329.574,348.983 329.574,348.983C329.574,348.983 313.533,335.616 307.718,159.049C301.903,-17.518 301.969,170.953 301.969,170.953Z" style="fill:url(#_Linear14_metal);"/>
                    </g>
                </g>
                <path d="M305.325,323.474C305.325,323.474 389.059,371.173 400.088,380.715C411.117,390.257 340.279,355.608 340.279,355.608L305.325,323.474ZM173.467,252.987L400.069,122.472L614.572,241.076L392.018,100.97L237.392,196.936L162.502,244.714L173.467,252.987Z" style="fill:rgb(254,254,255);"/>
            </g>
            <path id="top2" d="M170.925,249.774L400,117.517L629.266,249.774L400,382.03L170.925,249.774Z" style="fill:none;stroke:black;stroke-width:2.5px;"/>
        </g>
        <g id="material-text" transform="matrix(1,0,0,1,15.3933,-2.65748)">
            <path d="M266.919,53.076L274.853,12.549L287.793,41.846L301.196,12.549L308.325,53.076L302.49,53.076L298.852,30.322L287.695,54.81L276.855,30.298L272.803,53.076L266.919,53.076Z" style="fill:white;fill-rule:nonzero;"/>
            <path d="M338.452,43.921L322.314,43.921L318.115,53.076L311.987,53.076L330.639,13.013L348.633,53.076L342.407,53.076L338.452,43.921ZM336.133,38.574L330.542,25.757L324.682,38.574L336.133,38.574Z" style="fill:white;fill-rule:nonzero;"/>
            <path d="M361.645,20.727L361.645,53.076L355.957,53.076L355.957,20.727L347.29,20.727L347.29,15.381L370.288,15.381L370.288,20.727L361.645,20.727Z" style="fill:white;fill-rule:nonzero;"/>
            <path d="M396.167,20.727L381.054,20.727L381.054,29.785L395.727,29.785L395.727,35.132L381.054,35.132L381.054,47.729L396.167,47.729L396.167,53.076L375.366,53.076L375.366,15.381L396.167,15.381L396.167,20.727Z" style="fill:white;fill-rule:nonzero;"/>
            <path d="M416.406,37.012L428.076,53.076L421.118,53.076L410.351,37.646L409.326,37.646L409.326,53.076L403.637,53.076L403.637,15.381L410.303,15.381C415.283,15.381 418.88,16.317 421.094,18.188C423.535,20.272 424.756,23.022 424.756,26.44C424.756,29.11 423.991,31.405 422.461,33.325C420.931,35.246 418.913,36.475 416.406,37.012ZM409.326,32.69L411.133,32.69C416.52,32.69 419.214,30.631 419.214,26.514C419.214,22.656 416.593,20.727 411.352,20.727L409.326,20.727L409.326,32.69Z" style="fill:white;fill-rule:nonzero;"/>
            <rect x="433.74" y="15.381" width="5.688" height="37.695" style="fill:white;fill-rule:nonzero;"/>
            <path d="M470.63,43.921L454.492,43.921L450.293,53.076L444.165,53.076L462.817,13.013L480.81,53.076L474.585,53.076L470.63,43.921ZM468.31,38.574L462.72,25.757L456.86,38.574L468.31,38.574Z" style="fill:white;fill-rule:nonzero;"/>
            <path d="M491.211,15.381L491.211,47.729L502.295,47.729L502.295,53.076L485.522,53.076L485.522,15.381L491.211,15.381Z" style="fill:white;fill-rule:nonzero;"/>
        </g>
    </g>
    <defs>
        <linearGradient id="_Linear3_card" x1="0" y1="0" x2="1" y2="0" gradientUnits="userSpaceOnUse" gradientTransform="matrix(3.89688e-14,-610.267,636.408,3.73681e-14,398.243,614.74)"><stop offset="0" style="stop-color:rgb(122,122,122);stop-opacity:1"/><stop offset="0.44" style="stop-color:rgb(227,227,227);stop-opacity:1"/><stop offset="1" style="stop-color:white;stop-opacity:1"/></linearGradient>
        <linearGradient id="_Linear3_metal" x1="0" y1="0" x2="1" y2="0" gradientUnits="userSpaceOnUse" gradientTransform="matrix(3.89688e-14,-610.267,636.408,3.73681e-14,398.243,614.74)"><stop offset="0" style="stop-color:rgb(106,104,105);stop-opacity:1"/><stop offset="0.44" style="stop-color:rgb(224,224,224);stop-opacity:1"/><stop offset="1" style="stop-color:white;stop-opacity:1"/></linearGradient>
        <linearGradient id="_Linear4_metal" x1="0" y1="0" x2="1" y2="0" gradientUnits="userSpaceOnUse" gradientTransform="matrix(239.169,-409.542,409.542,239.169,390.881,661.255)"><stop offset="0" style="stop-color:rgb(110,108,109);stop-opacity:1"/><stop offset="0.25" style="stop-color:rgb(188,189,189);stop-opacity:1"/><stop offset="0.41" style="stop-color:rgb(209,210,210);stop-opacity:1"/><stop offset="0.58" style="stop-color:rgb(209,210,210);stop-opacity:1"/><stop offset="0.75" style="stop-color:rgb(154,156,156);stop-opacity:1"/><stop offset="1" style="stop-color:rgb(110,108,109);stop-opacity:1"/></linearGradient>
        <filter id="_Effect6" filterUnits="userSpaceOnUse" x="362.727" y="373.009" width="338.108" height="196.323">
            <feGaussianBlur in="SourceGraphic" stdDeviation="0.61821"/>
        </filter>
        <linearGradient id="_Linear7_metal" x1="0" y1="0" x2="1" y2="0" gradientUnits="userSpaceOnUse" gradientTransform="matrix(-199.262,-87.0558,87.0558,-199.262,592.695,503.478)"><stop offset="0" style="stop-color:rgb(254,254,255);stop-opacity:1"/><stop offset="0.72" style="stop-color:rgb(254,254,255);stop-opacity:0.615686"/><stop offset="1" style="stop-color:rgb(254,254,255);stop-opacity:0"/></linearGradient>
        <linearGradient id="_Linear8_metal" x1="0" y1="0" x2="1" y2="0" gradientUnits="userSpaceOnUse" gradientTransform="matrix(222.558,-389.857,-389.857,-222.558,401.569,648.777)"><stop offset="0" style="stop-color:rgb(104,102,103);stop-opacity:1"/><stop offset="0.21" style="stop-color:rgb(190,190,190);stop-opacity:1"/><stop offset="0.32" style="stop-color:rgb(219,219,220);stop-opacity:1"/><stop offset="0.46" style="stop-color:rgb(219,219,220);stop-opacity:1"/><stop offset="0.84" style="stop-color:rgb(104,102,103);stop-opacity:1"/><stop offset="0.86" style="stop-color:rgb(225,225,226);stop-opacity:1"/><stop offset="1" style="stop-color:rgb(137,140,140);stop-opacity:1"/></linearGradient>
        <filter id="_Effect10_metal" filterUnits="userSpaceOnUse" x="160.24" y="375.038" width="272.75" height="281.603">
            <feGaussianBlur in="SourceGraphic" stdDeviation="0.247284"/>
        </filter>
        <linearGradient id="_Linear11_metal" x1="0" y1="0" x2="1" y2="0" gradientUnits="userSpaceOnUse" gradientTransform="matrix(458.341,0,0,458.341,170.925,249.774)"><stop offset="0" style="stop-color:rgb(248,248,249);stop-opacity:1"/><stop offset="0.13" style="stop-color:rgb(179,178,179);stop-opacity:1"/><stop offset="0.15" style="stop-color:rgb(164,163,164);stop-opacity:1"/><stop offset="0.16" style="stop-color:rgb(117,117,117);stop-opacity:1"/><stop offset="0.19" style="stop-color:rgb(117,117,117);stop-opacity:1"/><stop offset="0.23" style="stop-color:rgb(162,161,162);stop-opacity:1"/><stop offset="0.27" style="stop-color:rgb(179,178,179);stop-opacity:1"/><stop offset="0.38" style="stop-color:rgb(181,181,182);stop-opacity:1"/><stop offset="0.56" style="stop-color:rgb(222,222,223);stop-opacity:1"/><stop offset="0.81" style="stop-color:rgb(235,235,236);stop-opacity:1"/><stop offset="1" style="stop-color:rgb(235,235,236);stop-opacity:1"/></linearGradient>
        <filter id="_Effect13_metal" filterUnits="userSpaceOnUse" x="285.888" y="68.7094" width="58.5224" height="303.516">
            <feGaussianBlur in="SourceGraphic" stdDeviation="2.47284"/>
        </filter>
        <linearGradient id="_Linear14_metal" x1="0" y1="0" x2="1" y2="0" gradientUnits="userSpaceOnUse" gradientTransform="matrix(-15.427,-175.03,175.03,-15.427,318.34,342.105)"><stop offset="0" style="stop-color:rgb(254,254,255);stop-opacity:1"/><stop offset="1" style="stop-color:rgb(254,254,255);stop-opacity:0.27451"/></linearGradient>
    </defs>
</svg>
