<svg width="800px" height="800px" viewBox="0 0 800 800" version="1.1" xmlns="http://www.w3.org/2000/svg" style="fill-rule:evenodd;clip-rule:evenodd;stroke-linecap:round;stroke-linejoin:round;stroke-miterlimit:1.5;">
    <g id="materials-card">
        <rect id="bg" x="-48.418" y="-9.957" width="931.967" height="871.066" style="fill:rgb(47,47,47);"/>
        <g id="rectangles" transform="matrix(1,0,0,1,49.4291,64.1339)">
            <g opacity="0.5">
                <g transform="matrix(0.660629,0,0,1.04551,351.522,-81.058)">
                    <rect x="462.47" y="633.282" width="419.335" height="322.449" style="fill:none;"/>
                    <clipPath id="_clip1_metal">
                        <rect x="462.47" y="633.282" width="419.335" height="322.449"/>
                    </clipPath>
                    <g clip-path="url(#_clip1_metal)">
                        <g transform="matrix(1.51371,0,0,0.956468,-452.99,37.369)">
                            <path d="M604.78,633.282L877.032,634.306" style="fill:none;stroke:rgb(166,240,98);stroke-width:4px;stroke-dasharray:4.25,7.5,0,0;"/>
                        </g>
                        <g transform="matrix(1.51371,0,0,0.956468,-452.99,58.0423)">
                            <path d="M604.78,633.282L877.032,634.306" style="fill:none;stroke:rgb(166,240,98);stroke-width:4px;stroke-dasharray:4.25,7.5,0,0;"/>
                        </g>
                        <g transform="matrix(1.51371,0,0,0.956468,-452.99,68.3789)">
                            <path d="M604.78,633.282L877.032,634.306" style="fill:none;stroke:rgb(166,240,98);stroke-width:4px;stroke-dasharray:4.25,7.5,0,0;"/>
                        </g>
                        <g transform="matrix(1.51371,0,0,0.956468,-452.99,89.0522)">
                            <path d="M604.78,633.282L877.032,634.306" style="fill:none;stroke:rgb(166,240,98);stroke-width:4px;stroke-dasharray:4.25,7.5,0,0;"/>
                        </g>
                        <g transform="matrix(1.51371,0,0,0.956468,-452.99,99.3888)">
                            <path d="M604.78,633.282L877.032,634.306" style="fill:none;stroke:rgb(166,240,98);stroke-width:4px;stroke-dasharray:4.25,7.5,0,0;"/>
                        </g>
                        <g transform="matrix(1.51371,0,0,0.956468,-452.99,130.399)">
                            <path d="M604.78,633.282L877.032,634.306" style="fill:none;stroke:rgb(166,240,98);stroke-width:4px;stroke-dasharray:4.25,7.5,0,0;"/>
                        </g>
                        <g transform="matrix(1.51371,0,0,0.956468,-452.99,151.072)">
                            <path d="M604.78,633.282L877.032,634.306" style="fill:none;stroke:rgb(166,240,98);stroke-width:4px;stroke-dasharray:4.25,7.5,0,0;"/>
                        </g>
                        <g transform="matrix(1.51371,0,0,0.956468,-452.99,171.745)">
                            <path d="M604.78,633.282L877.032,634.306" style="fill:none;stroke:rgb(166,240,98);stroke-width:4px;stroke-dasharray:4.25,7.5,0,0;"/>
                        </g>
                    </g>
                    <rect x="462.47" y="633.282" width="419.335" height="322.449" style="fill:none;stroke:rgb(166,240,98);stroke-width:4.57px;stroke-dasharray:4.86,8.58,0,0;"/>
                </g>
                <g transform="matrix(0.192707,0,0,1.04551,466.744,2.40586)">
                    <rect x="462.47" y="633.282" width="419.335" height="322.449" style="fill:none;"/>
                    <clipPath id="_clip2_metal">
                        <rect x="462.47" y="633.282" width="419.335" height="322.449"/>
                    </clipPath>
                    <g clip-path="url(#_clip2_metal)">
                        <g transform="matrix(1.51371,0,0,0.956468,-452.99,37.369)">
                            <path d="M604.78,633.282L877.032,634.306" style="fill:none;stroke:rgb(237,30,121);stroke-width:5.43px;stroke-dasharray:5.77,10.18,0,0;"/>
                        </g>
                        <g transform="matrix(1.51371,0,0,0.956468,-452.99,58.0423)">
                            <path d="M604.78,633.282L877.032,634.306" style="fill:none;stroke:rgb(237,30,121);stroke-width:5.43px;stroke-dasharray:5.77,10.18,0,0;"/>
                        </g>
                        <g transform="matrix(1.51371,0,0,0.956468,-452.99,68.3789)">
                            <path d="M604.78,633.282L877.032,634.306" style="fill:none;stroke:rgb(237,30,121);stroke-width:5.43px;stroke-dasharray:5.77,10.18,0,0;"/>
                        </g>
                        <g transform="matrix(1.51371,0,0,0.956468,-452.99,89.0522)">
                            <path d="M604.78,633.282L877.032,634.306" style="fill:none;stroke:rgb(237,30,121);stroke-width:5.43px;stroke-dasharray:5.77,10.18,0,0;"/>
                        </g>
                    </g>
                    <rect x="462.47" y="633.282" width="419.335" height="322.449" style="fill:none;stroke:rgb(237,30,121);stroke-width:5.32px;stroke-dasharray:5.65,9.98,0,0;"/>
                </g>
            </g>
        </g>
        <g id="circles" opacity="0.5">
            <g transform="matrix(1,0,0,1,-118.853,-94.5905)">
                <circle cx="155.124" cy="124.814" r="124.814" style="fill:none;stroke:rgb(255,207,0);stroke-width:4px;stroke-dasharray:4.25,7.5,0,0;"/>
            </g>
            <g transform="matrix(0.928318,0,0,0.928318,-107.734,-85.6437)">
                <circle cx="155.124" cy="124.814" r="124.814" style="fill:none;stroke:rgb(255,207,0);stroke-width:4.31px;stroke-dasharray:4.58,8.08,0,0;"/>
            </g>
            <g transform="matrix(0.691272,0,0,0.691272,-70.9623,-56.0571)">
                <circle cx="155.124" cy="124.814" r="124.814" style="fill:none;stroke:rgb(255,108,0);stroke-width:5.79px;stroke-dasharray:6.15,10.85,0,0;"/>
            </g>
        </g>
        <g transform="matrix(0.911866,0,0,0.911866,121.585,329.506)">
            <text x="179.62px" y="439.84px" style="font-family:'Futura-Medium', 'Futura', sans-serif;font-weight:500;font-size:118.438px;fill:white;"> 24%</text>
        </g>
        <g transform="matrix(0.720342,0,0,0.720342,14.7358,384.665)">
            <text x="77.471px" y="439.84px" style="font-family:'Futura-Medium', 'Futura', sans-serif;font-weight:500;font-size:50px;fill:white;">SUPPLY:</text>
        </g>
        <g transform="matrix(1,0,0,1,-7.69409,0)">
            <path d="M82.194,602.738L733.196,602.258C733.979,602.258 734.615,601.621 734.614,600.838C734.614,600.055 733.977,599.42 733.194,599.42L82.192,599.9C81.409,599.901 80.773,600.537 80.774,601.321C80.775,602.104 81.411,602.739 82.194,602.738Z" style="fill:white;"/>
        </g>
        <g transform="matrix(1,0,0,1,120.441,145.046)">
            <text x="201.79px" y="439.84px" style="font-family:'Futura-Medium', 'Futura', sans-serif;font-weight:500;font-size:50px;fill:white;">WOOD</text>
        </g>
        <path id="border" d="M800,801.235L800,-4.106L-0,-4.106L0,801.235L800,801.235ZM260.875,30.644L30.644,30.644C30.644,30.644 30.644,769.356 30.644,769.356C30.644,769.356 769.356,769.356 769.356,769.356L769.356,30.644L539.125,30.644L539.125,61.806L260.875,61.806L260.875,30.644Z" style="fill:rgb(18,18,18);"/>
        <g id="guide" transform="matrix(1,0,0,1.04284,1.75676,-22.4672)">
            <rect x="82.193" y="95.569" width="632.101" height="428.927" style="fill:url(#_Linear3_card);stroke:rgb(94,94,94);stroke-width:4.8px;"/>
        </g>
        <g id="wood" transform="scale(0.75) translate(130,20)">
            <path id="right" d="M400,647.052L400,382.318L629.266,249.774L629.266,514.685L400,647.052Z" style="fill:rgb(222,204,154);"/>
            <clipPath id="_clip4">
                <path id="right1" d="M400,647.052L400,382.318L629.266,249.774L629.266,514.685L400,647.052Z"/>
            </clipPath>
            <g clip-path="url(#_clip4)">
                <path d="M400.638,424.911C400.867,424.975 400.597,424.984 400.835,424.968C400.947,424.961 401.004,424.933 401.094,424.866C401.397,424.639 401.59,424.297 401.839,424.004C404.624,420.725 408.462,417.77 411.284,414.633C413.706,411.888 416.012,409.045 418.235,406.134C421.556,401.785 424.687,397.288 427.762,392.77C430.395,388.853 432.874,384.833 435.102,380.675C437.325,376.524 439.295,372.241 441.158,367.916C442.667,364.514 443.717,360.617 445.193,357.162C445.304,356.902 445.481,356.659 445.499,356.379C445.514,356.14 445.408,356.116 445.347,355.885C445.629,355.385 445.452,354.75 444.951,354.468C444.451,354.186 443.816,354.364 443.534,354.864C443.287,354.911 443.268,354.835 443.058,354.975C442.996,355.016 442.974,355.095 442.935,355.158C442.555,355.768 442.241,356.424 441.942,357.092C440.561,360.175 439.736,363.66 438.381,366.677C436.44,370.879 434.315,374.992 432.107,379.059C429.902,383.118 427.613,387.131 425.091,391.003C422.164,395.556 419.176,400.086 416.009,404.483C413.904,407.405 411.724,410.269 409.421,413.038C407.052,415.939 403.736,418.627 401.327,421.69C400.742,422.433 400,423.11 399.769,423.992C399.739,424.107 399.727,424.176 399.77,424.287C399.856,424.51 399.747,424.264 399.903,424.445C399.775,424.647 399.835,424.916 400.038,425.045C400.24,425.174 400.509,425.113 400.638,424.911Z" style="fill:rgb(184,153,106);"/>
                <path d="M400.018,476.836L399.838,476.817L399.797,476.813C399.23,476.76 399.901,476.965 400.116,476.969C400.114,476.977 400.119,476.984 400.14,476.987C400.194,477.221 400.428,477.367 400.662,477.313C400.851,477.27 400.983,477.108 400.997,476.924C401.199,476.943 401.723,476.958 401.205,476.932L400.998,476.919L400.998,476.908L401.005,476.908L401.133,476.913L401.216,476.912C401.551,476.922 401.961,476.95 401.32,476.979C401.125,476.988 401.52,477.583 401.466,477.218C401.459,477.174 401.528,477.292 401.586,477.256C401.736,477.162 401.939,476.981 402.192,476.718C403.852,474.996 407.466,470.789 408.955,469.083C412.613,464.708 416.213,460.288 419.759,455.824C423.302,451.365 426.791,446.862 430.266,442.347C436.059,434.747 441.997,427.047 447.251,418.952C450.796,413.487 454.025,407.84 456.719,401.944C459.411,396.006 461.925,389.929 464.264,383.769C467.755,374.576 470.88,365.213 473.879,355.959C475.106,352.051 476.068,347.944 477.067,343.89C477.486,342.19 477.901,340.506 478.367,338.843C478.506,338.346 478.788,337.872 478.771,337.359C478.763,337.124 478.665,337.09 478.586,336.87C478.777,336.404 478.554,335.871 478.088,335.68C477.622,335.489 477.089,335.713 476.898,336.179C476.688,336.254 476.658,336.201 476.479,336.335C476.393,336.4 476.352,336.497 476.298,336.59C475.387,338.148 474.85,339.906 474.252,341.638C473.352,344.248 472.621,346.938 471.852,349.594C471.346,351.339 470.852,353.077 470.277,354.766C467.177,363.92 463.906,373.165 460.366,382.271C458.009,388.333 455.542,394.338 452.869,400.193C450.279,405.912 447.153,411.381 443.749,416.694C438.599,424.735 432.804,432.414 427.136,439.982C423.079,445.459 418.988,450.907 414.842,456.314C412.079,459.916 409.297,463.501 406.467,467.052C405.084,468.864 401.373,473.082 400.176,475.172C399.87,475.707 399.637,476.106 399.686,476.317C399.789,476.76 399.552,476.62 399.766,476.715C399.873,476.763 399.956,476.802 400.018,476.836ZM399.797,476.813C399.592,476.795 399.553,476.805 400.111,476.899C400.177,476.911 400.122,476.946 400.116,476.969C400.207,476.972 400.217,476.939 400.021,476.838L399.938,476.828L399.797,476.813ZM400.927,476.908C400.921,476.909 400.916,476.91 400.91,476.911L400.927,476.913L400.949,476.909L400.973,476.908L400.927,476.908Z" style="fill:rgb(184,153,106);"/>
                <path d="M399.465,512.699C399.716,512.699 399.997,512.942 400.19,513.641L400.2,513.675L400.211,513.757L400.222,513.805C399.391,514.043 399.02,513.848 398.923,513.559C398.947,513.507 398.968,513.451 398.986,513.39C399.03,513.24 399.196,513.007 399.465,512.699C399.102,512.696 398.802,513.2 398.923,513.559C398.791,513.864 398.603,514.026 398.684,514.181C398.726,514.263 398.598,514.316 398.669,514.361C398.815,514.452 398.517,514.455 398.676,514.494C398.759,514.514 398.601,514.544 398.683,514.56C398.909,514.606 398.496,514.715 398.713,514.735C398.992,514.761 398.508,514.953 398.774,514.942C398.912,514.937 398.68,515.057 398.814,515.043C398.913,515.032 398.75,515.128 398.847,515.113C399.084,515.077 398.712,515.341 398.94,515.277C399.038,515.25 398.889,515.376 398.986,515.344C399.213,515.269 398.887,515.593 399.105,515.491C399.31,515.396 399.039,515.737 399.235,515.617C399.362,515.539 399.204,515.78 399.328,515.691C399.574,515.514 399.308,516.049 399.538,515.822C399.72,515.642 399.562,516.123 399.732,515.904C399.834,515.772 399.767,516.09 399.863,515.941C399.924,515.846 399.894,516.063 399.953,515.959C400.069,515.754 400.05,516.222 400.151,515.974C400.182,515.9 400.188,516.051 400.217,515.972C400.307,515.723 400.41,516.252 400.446,515.926C400.542,515.067 400.672,516.76 400.571,515.723C400.384,513.803 400.526,513.998 400.717,514.759C400.665,514.814 400.598,514.855 400.52,514.877C401.607,519.549 401.075,516.174 400.717,514.759C400.82,514.651 400.865,514.494 400.822,514.341C400.761,514.123 400.545,513.991 400.326,514.03L400.267,513.79C401.501,513.413 400.321,512.695 400.2,513.408C400.218,513.518 400.224,513.579 400.192,513.47L400.194,513.44L400.2,513.408C400.165,513.182 400.08,512.752 400.172,513.167C400.249,513.514 400.121,512.768 400.193,513.097C400.282,513.498 400.209,512.654 400.291,512.999C400.335,513.186 400.395,512.805 400.43,512.968C400.451,513.069 400.494,512.867 400.509,512.962C400.541,513.17 400.657,512.782 400.666,512.969C400.67,513.049 400.727,512.901 400.728,512.978C400.729,513.215 400.925,512.807 400.901,513.021C400.883,513.185 401.051,512.912 401.021,513.066C401.005,513.147 401.098,513.014 401.079,513.092C401.029,513.3 401.292,512.981 401.224,513.173C401.194,513.257 401.316,513.13 401.283,513.212C401.197,513.422 401.527,513.129 401.421,513.321C401.347,513.457 401.592,513.278 401.509,513.406C401.448,513.499 401.632,513.382 401.567,513.471C401.411,513.684 401.875,513.448 401.692,513.638C401.593,513.741 401.858,513.639 401.751,513.736C401.519,513.944 402.124,513.788 401.854,513.964C401.667,514.085 402.115,514.032 401.907,514.136C401.765,514.207 402.086,514.199 401.933,514.261C401.827,514.304 402.058,514.314 401.947,514.352C401.866,514.379 402.036,514.39 401.953,514.42C401.778,514.483 402.119,514.523 401.952,514.645C401.904,514.68 401.967,514.761 401.925,514.812C401.867,514.884 401.932,515.005 401.844,515.081C401.777,515.139 401.833,515.285 401.718,515.349C401.693,515.363 401.692,515.447 401.685,515.48C401.707,515.492 401.75,515.521 401.777,515.506C401.866,515.46 401.966,515.388 402.081,515.301C403.602,514.159 407.429,511.351 408.628,510.412C411.384,508.242 414.15,506.083 416.887,503.887C418.721,502.415 420.541,500.926 422.339,499.412C427.801,494.78 432.839,489.773 437.534,484.453C444.514,476.543 450.757,467.97 456.836,459.205C462.514,450.937 467.68,442.338 472.386,433.469C476.748,425.247 480.635,416.766 484.587,408.314C490.502,395.661 496.343,382.973 502.383,370.51C504.322,366.46 506.183,362.446 507.997,358.438C509.71,354.654 511.34,350.859 513.015,347.073C515.505,341.443 518.043,335.814 520.498,330.004C521.836,326.859 523.086,324.047 524.248,321.18C525.038,319.232 525.778,317.256 526.529,315.16C527,313.847 527.511,312.496 527.943,311.043C528.117,310.458 528.373,309.872 528.414,309.236C528.426,309.044 528.419,308.893 528.351,308.71C528.29,308.547 528.267,308.582 528.169,308.437C528.376,307.776 528.007,307.071 527.346,306.864C526.684,306.658 525.98,307.027 525.773,307.688C525.611,307.752 525.611,307.707 525.468,307.806C525.31,307.915 525.218,308.031 525.118,308.193C524.835,308.651 524.711,309.175 524.534,309.663C523.27,313.142 522.241,316.222 521.109,319.219C519.938,322.319 518.78,325.372 517.481,328.79C515.348,334.375 513.253,339.848 510.966,345.218C507.525,353.299 503.749,361.174 499.769,369.237C493.681,381.682 488.004,394.457 481.829,406.99C479.195,412.334 476.416,417.602 473.595,422.842C471.089,427.496 468.489,432.091 465.83,436.647C461.849,443.47 457.704,450.186 453.162,456.647C448.151,463.813 442.984,470.81 437.46,477.475C431.955,484.118 426.094,490.434 419.526,496.138C417.782,497.666 416.016,499.168 414.239,500.658C411.559,502.904 408.854,505.12 406.156,507.344C404.973,508.324 400.986,511.045 399.682,512.456C399.604,512.541 399.531,512.622 399.465,512.699ZM401.685,515.48C401.683,515.495 401.679,515.5 401.671,515.481C401.667,515.471 401.673,515.473 401.685,515.48ZM400.192,513.484C400.188,513.54 400.19,513.604 400.2,513.675L400.235,513.801L400.222,513.805C400.237,513.877 400.258,513.955 400.286,514.039L400.302,514.036L400.235,513.801L400.267,513.79L400.215,513.578L400.192,513.484L400.192,513.47L400.152,513.321C400.106,513.14 400.06,512.959 400.013,512.778L400.192,513.484Z" style="fill:rgb(184,153,106);"/>
                <path d="M398.918,583.601C399.289,583.697 398.633,583.744 398.944,583.749C399.202,583.754 399.329,583.765 399.373,583.778C399.295,583.785 399.183,583.798 399.03,583.819C397.995,583.959 399.573,583.839 399.373,583.778L399.434,583.772C399.462,583.772 399.531,583.758 399.516,583.782L399.483,583.795C399.397,583.809 399.275,583.835 399.109,583.872C398.108,584.099 399.258,583.875 399.483,583.795C399.693,583.756 399.694,583.776 399.6,583.82L399.599,583.822L399.582,583.835L399.267,583.978C398.438,584.371 399.427,583.944 399.582,583.835C399.978,583.664 399.963,583.726 399.799,583.859L399.798,583.864C399.786,583.89 399.775,583.916 399.764,583.942L399.667,584.132L399.613,584.156C399.337,584.694 399.516,584.413 399.667,584.132L399.709,584.113C399.727,584.103 399.748,584.124 399.769,584.127C399.81,584.133 399.856,584.135 399.905,584.128C400.142,584.092 400.306,583.87 400.27,583.633L400.27,583.632L400.275,583.632L400.339,583.623C400.057,583.699 401.928,583.439 400.721,583.627C400.586,583.649 400.891,583.666 400.739,583.688C400.326,583.747 401.576,583.811 400.859,583.903C400.801,583.91 400.99,584.091 400.937,584.004C400.913,583.964 401.037,583.957 401.089,583.884C401.396,583.447 401.874,582.422 402.631,581.08C404.844,577.158 408.919,570.317 412.366,564.066C415.042,559.213 417.316,554.707 418.419,552.393C423.424,541.858 429.062,530.975 435.141,520.338C441.221,509.699 447.738,499.31 454.173,489.578C462.227,477.399 471.432,464.746 480.758,452.046C484.658,446.736 488.601,441.434 492.445,436.123C501.372,423.793 509.906,411.524 517.562,400.03C523.197,391.569 528.27,383.474 532.53,375.966C535.97,369.905 538.902,364.235 541.046,358.987C541.557,357.746 542.064,356.438 542.66,355.113C543.753,352.685 545.081,350.192 546.308,347.5C547.44,345.015 548.56,342.411 549.624,339.706C552.134,333.324 554.387,326.425 556.057,319.408C558.091,310.867 559.352,302.095 558.48,293.742C558.419,293.163 558.414,292.569 558.234,292.017C558.137,291.722 558.037,291.485 557.84,291.245C557.701,291.074 557.647,291.079 557.476,290.94C557.397,290.279 556.795,289.807 556.134,289.886C555.473,289.966 555,290.567 555.08,291.229C554.95,291.4 554.89,291.4 554.795,291.593C554.664,291.856 554.603,292.09 554.568,292.382C554.504,292.922 554.586,293.467 554.605,294.011C554.882,301.995 553.81,310.266 551.793,318.37C550.095,325.194 547.781,331.866 545.511,338.155C544.536,340.856 543.584,343.488 542.679,346.03C541.689,348.809 540.863,351.5 539.927,353.984C539.412,355.351 538.85,356.644 538.351,357.898C536.288,363.054 533.525,368.672 530.125,374.594C525.863,382.017 520.638,389.927 514.865,398.19C506.978,409.48 497.913,421.309 488.859,433.492C484.945,438.758 481.059,444.107 477.195,449.449C467.918,462.274 458.897,475.147 450.959,487.481C444.607,497.35 438.287,507.942 432.195,518.66C426.1,529.384 420.232,540.237 415.111,550.806C414.01,553.086 411.601,557.448 409.076,562.304C405.781,568.642 402.256,575.788 400.264,579.831C399.554,581.272 399.027,582.322 398.829,582.843C398.802,582.915 398.761,582.976 398.764,583.033C398.782,583.312 398.726,583.359 398.813,583.429C398.972,583.556 398.964,583.595 398.918,583.601ZM399.431,584.122C398.979,584.583 399.202,584.407 399.453,584.17L399.451,584.166C399.448,584.144 399.449,584.15 399.452,584.132L399.465,584.1C399.53,584.057 399.595,584.012 399.653,583.97L399.642,583.985C399.585,584.044 399.518,584.109 399.453,584.17C399.458,584.182 399.471,584.189 399.493,584.189L399.555,584.102L399.642,583.985L399.664,583.962L399.713,583.926L399.713,583.928L399.699,583.967L399.581,584.132L399.543,584.181L399.518,584.187L399.493,584.189C399.201,584.595 399.365,584.413 399.543,584.181C399.562,584.175 399.586,584.167 399.613,584.156L399.637,584.11C399.668,584.05 399.688,584.003 399.699,583.967L399.718,583.941L399.74,583.906L399.76,583.892L399.799,583.859L399.812,583.814C399.809,583.8 399.814,583.803 399.801,583.803L399.794,583.808C399.831,583.744 399.74,583.78 399.381,584.042C398.595,584.617 399.017,584.395 399.431,584.122ZM399.6,583.82C399.314,583.952 398.146,584.301 399.198,583.932C399.518,583.819 399.617,583.797 399.6,583.82ZM399.69,583.872L399.626,583.929L399.48,584.072C399.533,583.985 399.64,583.88 399.69,583.872ZM398.918,583.601C398.848,583.612 398.691,583.546 398.899,583.596L398.918,583.601ZM399.941,583.274C399.913,583.232 399.837,583.258 399.776,583.267C399.833,583.259 399.888,583.262 399.941,583.274Z" style="fill:rgb(184,153,106);"/>
                <path d="M438.982,623.524C438.879,623.497 438.927,623.55 438.987,623.557C439.427,625.498 442.863,628.756 440.11,624.305C440.268,624.124 440.25,623.849 440.07,623.691C439.89,623.532 439.615,623.55 439.456,623.73C439.257,623.628 439.127,623.572 439.045,623.543C438.76,623.442 439.057,623.675 439.077,623.474C439.103,623.218 439.373,623.256 439.415,623.261C439.573,623.281 439.671,623.166 439.76,623.217C440.03,623.368 440.322,623.289 440.385,623.535C440.421,623.676 440.616,623.745 440.574,623.922C440.548,624.03 440.697,624.184 440.562,624.341C440.53,624.378 440.569,624.469 440.488,624.528C440.473,624.54 440.435,624.629 440.435,624.629C440.435,624.629 440.607,624.61 440.794,624.477C440.974,624.348 441.162,624.104 441.421,623.836C441.678,623.57 441.985,623.266 442.309,622.906C444.655,620.305 448.479,615.641 449.741,613.952C451.416,611.709 453.068,609.449 454.686,607.162C458.447,601.848 462.071,596.433 465.768,591.079C475.311,577.175 485.04,563.39 493.647,548.94C499.415,539.257 504.657,529.268 509.111,518.817C515.34,504.106 520.092,488.902 524.655,473.645C527.678,463.536 530.544,453.384 534.007,443.425C536.162,437.229 538.539,431.109 541.19,425.079C543.157,420.686 545.263,416.365 547.487,412.105C550.166,406.976 552.998,401.927 555.865,396.898C562.605,385.08 569.546,373.38 575.27,361.037C578.085,354.797 580.314,348.417 582.166,341.933C584.921,332.285 586.857,322.414 588.881,312.494C590.51,303.832 592.315,295.382 593.41,286.834C594.074,281.65 594.779,276.425 594.436,271.121C594.406,270.647 594.427,270.163 594.257,269.719C594.197,269.561 594.118,269.51 594.022,269.37C594.02,268.96 593.685,268.63 593.275,268.632C592.865,268.635 592.534,268.97 592.537,269.38C592.444,269.519 592.364,269.568 592.305,269.724C592.14,270.159 592.153,270.63 592.112,271.092C591.647,276.268 591.333,281.362 590.487,286.401C589.07,294.841 586.973,303.161 585.034,311.696C582.965,321.502 580.946,331.25 578.197,340.795C576.385,347.087 574.264,353.295 571.544,359.361C569.622,363.763 567.548,368.089 565.384,372.371C561.031,380.983 556.34,389.428 551.722,397.912C548.474,403.88 545.284,409.878 542.278,415.972C540.987,418.589 539.712,421.214 538.504,423.876C536.016,429.333 533.792,434.883 531.677,440.47C530.267,444.196 528.891,447.931 527.586,451.694C524.551,460.442 521.738,469.271 518.942,478.106C514.78,491.261 510.618,504.417 505.188,517.148C500.821,527.433 495.617,537.229 490.013,546.794C481.553,561.234 472.137,575.126 462.824,589.087C459.745,593.73 456.694,598.4 453.61,603.046C451.561,606.134 449.504,609.215 447.383,612.251C446.196,613.955 442.427,618.543 440.36,621.304C440.07,621.692 439.83,622.052 439.619,622.356C439.404,622.666 439.199,622.9 439.108,623.105C439.013,623.322 438.98,623.452 438.982,623.524Z" style="fill:rgb(184,153,106);"/>
                <path d="M546.901,562.12C546.89,562.124 546.89,562.126 546.911,562.127C546.92,562.128 546.913,562.125 546.901,562.12C546.934,562.109 547.059,562.088 547.069,562.047C547.121,561.832 547.415,561.96 547.496,561.826C547.599,561.656 547.782,561.951 547.878,561.795C547.931,561.709 547.938,561.913 547.982,561.822C548.07,561.643 548.052,562.074 548.179,561.911C548.246,561.824 548.211,562.075 548.276,561.981L548.351,561.876C548.263,562.016 548.004,562.487 548.007,562.545C547.841,562.457 547.629,562.485 547.491,562.628C547.329,562.796 547.33,563.061 547.489,563.229C547.458,563.239 547.41,563.321 547.356,563.437L547.342,563.455L547.353,563.443L547.356,563.437L547.503,563.243L547.489,563.229L547.491,563.227C547.506,563.228 547.508,563.233 547.514,563.246L547.521,563.283C547.487,563.29 547.388,563.405 547.353,563.443C547.123,563.941 546.81,565.03 547.456,563.628C547.622,563.269 547.245,563.856 547.445,563.488C547.486,563.412 547.51,563.362 547.522,563.329L547.522,563.288L547.521,563.283C547.533,563.278 547.536,563.291 547.522,563.329C547.521,563.435 547.495,563.631 547.434,563.949C547.381,564.22 547.633,563.827 547.686,564.083C547.731,564.306 547.83,563.935 547.92,564.143C547.956,564.226 547.956,564.093 548.024,564.154C548.063,564.19 548.111,564.121 548.163,564.137C548.229,564.157 548.27,564.082 548.341,564.094C548.654,564.144 548.868,563.829 549.388,563.295C549.569,563.11 549.682,562.764 549.84,562.353C550.065,561.77 550.269,560.962 550.461,560.041C551.116,556.896 551.57,552.359 551.771,551.087L555.056,531.163C556.402,523.447 557.615,515.779 558.809,508.12C560.599,496.633 562.324,485.167 564.185,473.568C567.036,455.02 571.296,436.447 576.454,417.958C577.729,413.39 579.015,408.816 580.394,404.259C581.769,399.716 583.18,395.175 584.709,390.666C586.996,383.923 589.482,377.232 592.106,370.588C596.47,359.541 601.276,348.647 606.396,337.915C609.857,330.588 613.604,322.895 617.622,315.385C621.234,308.633 625.328,302.202 629.206,296.028C629.566,295.455 629.994,294.92 630.211,294.285C630.282,294.08 630.255,293.933 630.284,293.718C630.542,293.365 630.466,292.869 630.113,292.611C629.76,292.352 629.264,292.429 629.006,292.782C628.785,292.899 628.606,292.947 628.41,293.103C628.035,293.4 627.765,293.805 627.466,294.182C623.776,298.832 620.664,304.183 617.562,309.58C612.467,318.447 607.916,327.827 603.711,336.641C598.611,347.453 593.891,358.452 589.491,369.553C586.844,376.23 584.335,382.952 581.916,389.691C580.297,394.201 578.693,398.707 577.184,403.239C575.67,407.789 574.199,412.345 572.855,416.929C567.409,435.5 563.358,454.297 560.482,472.999C559.867,477.052 559.257,481.087 558.682,485.116C557.334,494.565 556.13,503.973 554.726,513.393C553.871,519.127 552.938,524.865 551.958,530.633L548.569,550.575C548.365,551.836 547.724,556.305 547.235,559.455C547.107,560.279 547.001,561.005 546.909,561.55C546.873,561.764 546.87,561.939 546.852,562.076C546.849,562.095 546.882,562.111 546.901,562.12ZM548.086,562.598C548.178,562.498 548.324,562.355 548.172,562.502C548.044,562.627 548.313,562.319 548.194,562.445C547.886,562.77 548.456,561.956 548.215,562.297L548.204,562.313L548.151,562.401C548.127,562.438 548.103,562.476 548.079,562.514L548.041,562.565L548.073,562.587L548.086,562.598ZM548.204,562.313C548.467,561.883 548.855,561.17 548.377,561.839C548.376,561.852 548.338,561.93 548.245,562.109C548.128,562.332 548.062,562.466 548.032,562.536L548.024,562.544L548.015,562.549L548.024,562.555C548.004,562.606 548.014,562.604 548.041,562.565L548.037,562.562L548.024,562.555L548.032,562.536L548.044,562.524C548.066,562.497 548.088,562.47 548.11,562.442L548.204,562.313Z" style="fill:rgb(184,153,106);"/>
                <path d="M595.655,533.162C595.446,533.403 595.199,533.698 595.327,533.588L595.287,533.625C595.12,533.482 594.868,533.485 594.705,533.639C594.534,533.801 594.523,534.071 594.68,534.245C594.481,534.413 593.827,535.224 594.688,534.254L594.68,534.245C594.771,534.168 594.767,534.226 594.479,534.651C594.386,534.67 594.007,535.344 594.467,534.669L594.479,534.651C594.512,534.644 594.509,534.72 594.417,534.973C594.322,535.237 594.511,534.951 594.615,535.18C594.627,535.206 594.668,535.194 594.691,535.211C594.837,535.321 595.015,535.251 595.18,535.3C595.465,535.384 595.694,535.146 596.043,535.019C596.345,534.909 596.666,534.504 597.04,533.791C597.096,533.684 597.121,533.554 597.163,533.421C597.44,532.556 597.752,531.234 597.997,529.74C598.491,526.729 598.785,523.02 599.054,521.549L603.368,495.959C603.889,492.699 604.464,489.311 605.047,485.832C606.314,478.268 607.643,470.269 609.737,462.425C610.993,457.722 612.533,453.084 614.294,448.593C616.203,443.728 618.466,439.074 621.012,434.696C622.748,431.712 624.626,428.862 626.692,426.193C627.737,424.843 628.889,423.592 629.958,422.274C630.121,422.073 630.298,421.883 630.411,421.649C630.509,421.448 630.502,421.297 630.563,421.081C630.953,420.686 630.949,420.049 630.554,419.659C630.159,419.269 629.522,419.273 629.132,419.668C628.91,419.733 628.757,419.74 628.553,419.847C628.312,419.973 628.124,420.172 627.923,420.355C626.609,421.555 625.487,422.955 624.36,424.348C622.146,427.084 620.145,430.037 618.352,433.159C615.756,437.682 613.622,442.571 611.731,447.61C610.005,452.208 608.56,456.963 607.215,461.733C604.988,469.636 603.067,477.597 601.611,485.216C600.946,488.698 600.386,492.106 599.832,495.377L595.489,520.923C595.237,522.425 594.847,526.186 594.527,529.276C594.387,530.622 594.282,531.829 594.138,532.629C594.118,532.744 594.103,532.847 594.092,532.942C594.082,533.03 594.162,533.141 594.162,533.141C594.162,533.141 594.357,533.044 594.399,532.976C594.615,532.625 595.013,532.831 595.335,532.776C595.422,532.762 595.488,532.898 595.576,532.861C595.662,532.826 595.567,533 595.639,532.935C595.737,532.847 595.6,533.155 595.706,533.058C595.89,532.891 595.557,533.274 595.655,533.162ZM595.456,533.471C595.577,533.342 595.779,533.14 595.556,533.365C595.476,533.447 595.416,533.505 595.374,533.544L595.456,533.471Z" style="fill:rgb(184,153,106);"/>
            </g>
            <path id="right2" d="M400,647.052L400,382.318L629.266,249.774L629.266,514.685L400,647.052Z" style="fill:none;stroke:black;stroke-width:2.5px;"/>
            <g id="left" transform="matrix(-1,0,0,1,800.192,0)">
                <path d="M400,647.052L400,382.318L629.266,249.774L629.266,514.685L400,647.052Z" style="fill:rgb(165,134,87);"/>
                <clipPath id="_clip_5">
                    <path d="M400,647.052L400,382.318L629.266,249.774L629.266,514.685L400,647.052Z"/>
                </clipPath>
                <g clip-path="url(#_clip5)">
                    <g transform="matrix(-1,0,0,1,800.192,0)">
                        <path d="M169.57,292.936C169.676,293.182 169.469,293.066 169.687,293.225C169.961,293.424 170.366,293.306 170.72,293.353C173.076,293.668 175.736,294.441 177.988,295.066C179.23,295.41 180.355,295.685 181.227,295.861C184.583,296.535 187.903,297.362 191.192,298.303C194.487,299.245 197.748,300.303 200.978,301.444C210.53,304.811 220.127,310.188 229.981,313.823C234.406,315.456 238.882,316.736 243.423,317.368C247.767,317.97 252.139,318.129 256.523,318.047C260.03,317.981 263.544,317.773 267.056,317.549C270.515,317.327 273.972,317.109 277.424,316.984C279.774,316.899 282.117,316.911 284.465,316.897C284.702,316.896 284.937,316.907 285.17,316.87C285.567,316.806 285.867,316.66 286.254,316.554C286.946,316.615 287.557,316.103 287.618,315.411C287.679,314.72 287.167,314.109 286.476,314.048C286.117,313.875 285.843,313.695 285.463,313.576C284.958,313.418 284.428,313.387 283.902,313.327C281.88,313.092 279.841,313.062 277.803,313.047C272.094,313.004 266.361,313.426 260.645,313.698C255.051,313.964 249.472,314.143 243.923,313.478C239.636,312.974 235.4,311.845 231.202,310.399C221.269,306.978 211.549,301.824 201.922,298.67C198.61,297.588 195.27,296.59 191.898,295.715C188.521,294.838 185.113,294.083 181.674,293.482C180.804,293.332 179.682,293.049 178.425,292.779C176.845,292.44 175.066,292.106 173.331,291.908C172.155,291.774 171.002,291.684 169.941,291.753C169.851,291.758 169.744,291.723 169.673,291.778C169.442,291.957 169.662,291.793 169.561,292.066C169.321,292.069 169.128,292.266 169.131,292.506C169.133,292.746 169.33,292.939 169.57,292.936Z" style="fill:rgb(117,80,56);"/>
                    </g>
                    <g transform="matrix(-1,0,0,1,800.192,0)">
                        <path d="M168.781,326.774C168.781,326.75 168.781,326.739 168.779,326.76C168.778,326.767 168.779,326.771 168.781,326.774C168.782,326.811 168.785,326.878 168.807,326.885C168.933,326.923 168.907,327.086 168.986,327.136C169.043,327.171 169.022,327.252 169.067,327.29C169.117,327.331 169.081,327.413 169.129,327.448C169.307,327.582 169.01,327.791 169.179,327.894C169.312,327.975 169.009,327.967 169.151,328.026C169.374,328.119 168.873,328.097 169.079,328.226C169.164,328.278 168.959,328.245 169.04,328.304C169.149,328.382 168.874,328.314 168.977,328.404C169.15,328.555 168.672,328.387 168.842,328.56C169.121,328.844 168.418,328.307 168.715,328.6C169.12,328.998 168.187,328.147 168.586,328.588C168.826,328.853 168.273,328.283 168.508,328.568C168.961,329.114 168.117,328.105 168.219,328.301L168.114,328.155C168.279,328.016 168.319,327.773 168.199,327.587C168.086,327.413 167.87,327.346 167.683,327.415C167.987,327.836 168.117,328.088 167.29,327.176C166.701,326.527 167.718,327.659 167.112,327.116C166.385,326.465 167.646,327.622 166.903,327.102C166.479,326.805 167.219,327.338 166.766,327.14C166.473,327.012 166.889,327.381 166.594,327.346C166.442,327.329 166.677,327.464 166.527,327.461C166.312,327.456 166.665,327.609 166.454,327.633C166.361,327.643 166.521,327.695 166.429,327.711C166.297,327.733 166.532,327.792 166.401,327.825C166.221,327.87 166.524,327.867 166.377,327.987C166.311,328.041 166.425,328.113 166.398,328.198C166.346,328.359 166.541,328.474 166.568,328.677C166.604,328.95 166.924,329.247 167.546,329.731C167.744,329.884 168.055,329.975 168.396,330.115C169.567,330.594 171.469,331.221 173.488,331.779C176.666,332.656 180.116,333.373 181.201,333.574C183.888,333.992 186.58,334.375 189.278,334.727C193.311,335.252 197.35,335.712 201.387,336.177C205.429,336.564 209.43,336.911 213.377,337.516C219.373,338.434 225.227,339.807 231.045,341.267C240.653,343.679 250.096,346.732 259.478,350.859C264.189,352.946 268.854,355.155 273.423,357.567C280.256,361.175 286.894,365.178 293.457,369.321C296.731,371.388 299.961,373.527 303.2,375.656C316.234,384.225 329.017,393.193 341.592,402.037C351.595,408.997 363.083,415.971 375.056,420.558C381.656,423.086 388.403,424.906 395.131,425.594C395.548,425.637 395.964,425.692 396.382,425.706C397.369,425.738 398.341,425.678 399.321,425.604C399.392,425.598 399.463,425.604 399.531,425.585C399.868,425.492 400.06,425.344 400.374,425.188C401.253,425.204 401.979,424.503 401.995,423.623C402.011,422.744 401.31,422.018 400.43,422.002C400.157,421.854 400.003,421.698 399.709,421.592C399.553,421.536 399.39,421.525 399.227,421.498C398.424,421.363 397.635,421.207 396.824,421.096C396.026,420.986 395.22,420.931 394.416,420.827C386.537,419.81 378.646,417.257 371.03,413.84C361.46,409.547 352.321,403.919 344.188,398.296C330.923,389.23 317.543,379.853 303.659,371.312C293.932,365.327 283.906,359.88 273.73,354.832C269.348,352.659 264.953,350.527 260.481,348.574C252.885,345.241 245.257,342.581 237.526,340.425C229.344,338.142 221.018,336.602 212.571,335.024C209.009,334.358 205.45,333.601 201.826,332.956C198.494,332.429 195.16,331.898 191.829,331.344C188.51,330.793 185.197,330.219 181.895,329.582C180.844,329.411 177.526,328.679 174.416,328.007C172.495,327.591 170.652,327.232 169.514,326.895C169.3,326.831 169.12,326.752 168.963,326.72C168.897,326.706 168.8,326.79 168.781,326.774ZM167.683,327.415C167.654,327.426 167.625,327.44 167.597,327.458C166.471,325.875 167.253,326.816 167.683,327.415Z" style="fill:rgb(117,80,56);"/>
                    </g>
                    <g transform="matrix(-1,0,0,1,800.192,0)">
                        <path d="M168.967,355.604C168.138,355.95 168.555,356.255 168.939,356.362C168.939,356.545 168.942,356.748 168.949,356.973C168.953,357.084 169.009,357.178 169.108,357.31C169.878,358.343 172.461,360.233 172.787,360.527L177.99,364.569C180.553,366.492 183.181,368.332 185.85,370.111C188.511,371.885 191.212,373.598 193.929,375.275C202.231,380.376 210.824,385.028 219.598,389.323C228.353,393.609 237.288,397.535 246.247,401.279C265.216,409.108 284.944,415.059 304.209,422.14C312.401,425.151 320.51,428.362 328.435,432.027C338.835,436.829 348.747,442.361 358.249,448.492C369.714,455.89 380.421,464.353 390.979,473.1C393.088,474.846 395.159,476.637 397.344,478.297C397.732,478.592 398.097,478.912 398.537,479.122C398.768,479.231 398.953,479.24 399.198,479.312C399.819,479.878 400.783,479.833 401.349,479.212C401.915,478.591 401.871,477.628 401.25,477.062C401.178,476.846 401.172,476.696 401.061,476.498C400.861,476.139 400.555,475.864 400.276,475.562C398.706,473.86 397.009,472.292 395.302,470.735C386.731,462.918 377.501,455.93 368.023,449.355C356.177,441.137 343.686,433.855 330.424,427.722C322.38,424.009 314.152,420.746 305.834,417.706C286.61,410.682 266.91,404.833 247.972,397.083C239.046,393.476 230.156,389.66 221.412,385.543C212.685,381.434 204.103,377.028 195.814,372.143C193.096,370.548 190.394,368.917 187.73,367.224C185.075,365.536 182.458,363.79 179.905,361.959L174.727,358.117C174.368,357.859 171.885,355.814 170.695,355.301C170.549,355.238 170.448,355.212 170.343,355.233C170.06,355.287 169.816,355.342 169.608,355.397C169.49,355.013 169.076,354.294 168.967,355.604Z" style="fill:rgb(117,80,56);"/>
                    </g>
                    <g transform="matrix(-1,0,0,1,800.192,0)">
                        <path d="M170.854,442.923C170.65,442.507 170.538,442.689 170.563,442.886C170.59,443.107 170.778,443.268 170.994,443.268L170.994,443.268L170.994,443.268L170.995,443.268L170.994,443.268L170.998,443.268L170.995,443.268C171,443.262 171.075,443.199 171.185,443.255C171.337,443.331 171.148,443.322 171.322,443.471C171.434,443.565 171.551,443.611 171.79,443.669C172.168,443.761 172.693,443.793 173.418,443.789C174.655,443.781 176.4,443.532 178.731,443.324C181.052,443.031 183.328,442.905 185.598,442.861C189.073,442.795 192.534,442.925 196.115,442.974C202.797,443.063 209.323,443.772 215.753,444.952C225.466,446.733 234.957,449.573 244.465,452.793C251.405,455.166 258.066,458.014 264.594,461.084C267.419,462.413 270.228,463.766 273.005,465.179C294.724,476.232 314.947,490.031 336.82,501.426C348.258,507.376 360.945,512.191 374.045,514.626C381.114,515.94 388.309,516.701 395.482,516.299C396.282,516.255 397.079,516.187 397.875,516.088C398.141,516.055 398.409,516.042 398.668,515.97C399.129,515.844 399.523,515.704 399.933,515.458C400.163,515.32 400.246,515.211 400.453,515.041C401.22,514.968 401.783,514.286 401.709,513.519C401.636,512.753 400.954,512.19 400.187,512.263C399.945,512.137 399.838,512.032 399.582,511.938C399.124,511.771 398.706,511.672 398.222,511.621C397.801,511.577 397.378,511.622 396.956,511.635C387.444,511.914 377.923,510.996 368.683,508.708C358.253,506.126 348.191,502.095 338.969,497.296C317.072,485.917 296.828,472.12 275.08,461.094C272.25,459.659 269.402,458.256 266.507,456.942C259.789,453.894 252.869,451.234 245.713,448.988C237.612,446.419 229.524,444.145 221.328,442.494C213.084,440.833 204.733,439.797 196.139,439.789C192.523,439.785 189.028,439.698 185.521,439.809C183.146,439.884 180.766,440.047 178.341,440.384C176.041,440.79 174.293,440.996 173.097,441.302C172.397,441.481 171.9,441.646 171.557,441.827C171.36,441.93 171.264,441.998 171.179,442.109C171.036,442.298 171.204,442.272 171.075,442.378C170.862,442.553 170.828,442.755 170.854,442.923ZM170.998,443.268L171.048,443.265C171.031,443.267 171.014,443.268 170.998,443.268Z" style="fill:rgb(117,80,56);"/>
                    </g>
                    <g transform="matrix(-1,0,0,1,800.192,0)">
                        <path d="M169.548,470.953C169.602,470.932 169.68,470.907 169.79,470.878C169.877,471.101 170.13,471.212 170.353,471.125C170.577,471.038 170.688,470.786 170.601,470.562C171.092,470.176 170.749,470.156 171.003,470.415C171.035,470.448 171.065,470.467 171.044,470.494C170.978,470.579 171.115,470.649 171.056,470.695C170.896,470.821 171.069,471.021 170.923,471.055C170.846,471.073 170.891,471.185 170.816,471.188C170.619,471.197 170.633,471.501 170.451,471.417C170.399,471.394 170.376,471.482 170.326,471.45C170.278,471.42 170.25,471.496 170.196,471.466C170.162,471.448 170.065,471.45 169.962,471.453C170.368,471.878 170.992,473.213 171.342,473.634C171.753,474.11 172.163,474.582 172.61,475.029C173.621,476.04 174.733,476.95 175.796,477.898C178.04,479.899 180.34,481.807 182.701,483.642C185.059,485.474 187.477,487.226 189.943,488.936C194.315,491.933 198.864,494.685 203.584,497.127C206.726,498.751 209.945,500.229 213.211,501.593C221.382,505.005 229.878,507.64 238.479,509.546C256.606,513.54 273.643,515.049 290.278,519.16C301.022,521.815 311.599,525.567 322.195,531.858C328.298,535.479 334.2,539.564 339.95,543.892C348.622,550.418 356.952,557.494 365.11,564.374C371.024,569.358 377.768,574.703 384.964,578.945C389.388,581.554 393.967,583.803 398.663,585.205C398.853,585.262 399.039,585.339 399.235,585.366C399.448,585.394 399.641,585.403 399.853,585.37C400.087,585.333 400.2,585.275 400.426,585.202C401.398,585.469 402.403,584.896 402.67,583.924C402.936,582.952 402.363,581.947 401.391,581.68C401.267,581.525 401.245,581.429 401.097,581.295C400.941,581.154 400.784,581.051 400.594,580.96C400.305,580.821 399.988,580.752 399.683,580.65C394.295,578.837 388.994,576.101 383.987,572.845C378.283,569.134 372.931,564.834 368.139,560.785C359.919,553.845 351.525,546.709 342.786,540.126C336.899,535.69 330.856,531.505 324.607,527.794C313.583,521.253 302.586,517.336 291.408,514.582C274.731,510.472 257.652,508.979 239.479,504.996C231.134,503.179 222.899,500.624 214.953,497.377C211.779,496.08 208.656,494.665 205.579,493.161C200.953,490.898 196.436,488.428 192.106,485.666C189.623,484.101 187.191,482.485 184.804,480.802C182.42,479.12 180.082,477.379 177.799,475.537L173.141,471.792C172.546,471.32 171.266,469.955 170.844,469.762C170.512,469.61 170.287,469.484 170.158,469.56C170.071,469.612 169.999,469.518 169.947,469.594C169.805,469.802 169.502,469.622 169.491,469.864C169.489,469.92 169.406,469.904 169.411,469.962C169.418,470.043 169.291,470.041 169.317,470.127C169.355,470.256 169.123,470.327 169.242,470.471C169.333,470.582 169.093,470.909 169.468,470.944L169.548,470.953ZM169.962,471.453C169.769,471.459 169.553,471.467 169.683,471.35C169.752,471.287 169.848,471.335 169.962,471.453Z" style="fill:rgb(117,80,56);"/>
                    </g>
                    <g transform="matrix(-1,0,0,1,800.192,0)">
                        <path d="M193.71,528.535C193.822,528.486 194.004,528.396 193.872,528.507C193.782,528.584 194.018,528.636 193.94,528.705C193.821,528.81 193.977,529.064 193.779,529.105C193.762,529.108 193.746,529.141 193.733,529.167C193.781,529.173 193.898,529.254 193.996,529.263C194.335,529.297 194.78,529.377 195.303,529.44C197.242,529.675 200.001,529.988 201.044,530.005C202.636,530.015 204.382,529.875 206.181,529.623C210.058,529.079 214.193,528.079 217.608,527.748C227.037,526.849 235.278,525.488 243.613,526.026C249,526.374 254.395,527.584 260.173,529.984C263.153,531.257 266.015,532.755 268.843,534.339C279.907,540.533 289.907,548.977 298.986,558.755C305.602,565.881 311.662,573.721 317.605,581.551C322.508,588.011 327.408,594.403 331.974,600.764C335.173,605.22 338.036,609.785 341.268,613.853C342.214,615.043 343.248,616.109 344.238,617.221C344.619,617.752 345.359,617.873 345.889,617.491C346.42,617.11 346.541,616.37 346.16,615.84C345.424,614.554 344.761,613.233 343.959,611.951C341.207,607.554 337.961,603.272 334.906,598.727C330.511,592.19 326.146,585.357 321.32,578.779C315.405,570.717 308.936,562.972 302.106,555.818C292.588,545.85 282.245,537.029 270.559,531.118C267.548,529.595 264.431,528.322 261.247,527.211C255.083,524.992 249.376,524.151 243.729,523.898C235.285,523.519 226.945,524.572 217.394,525.399C213.94,525.693 209.737,526.572 205.824,527.154C204.141,527.404 202.517,527.619 201.026,527.652C199.884,527.694 196.631,527.228 194.743,527.386C194.022,527.446 193.478,527.573 193.219,527.745C193.04,527.864 192.889,527.916 192.829,528.039C192.779,528.14 192.656,528.191 192.672,528.288C192.693,528.417 192.552,528.44 192.641,528.534C192.697,528.595 192.595,528.644 192.666,528.693C192.706,528.721 192.649,528.772 192.699,528.784C193.022,528.863 192.536,528.961 192.911,528.876C193.014,529.093 193.273,529.186 193.49,529.084C193.697,528.986 193.792,528.745 193.71,528.535ZM193.733,529.167C193.721,529.191 193.712,529.208 193.711,529.187C193.709,529.17 193.718,529.165 193.733,529.167Z" style="fill:rgb(117,80,56);"/>
                    </g>
                </g>
                <path d="M400,647.052L400,382.318L629.266,249.774L629.266,514.685L400,647.052Z" style="fill:none;stroke:black;stroke-width:2.5px;"/>
            </g>
            <path id="top" d="M170.925,249.774L400,117.517L629.266,249.774L400,382.03L170.925,249.774Z" style="fill:rgb(198,172,121);"/>
            <clipPath id="_clip6">
                <path id="top1"  d="M170.925,249.774L400,117.517L629.266,249.774L400,382.03L170.925,249.774Z"/>
            </clipPath>
            <g clip-path="url(#_clip6)">
                <path d="M188.688,238.176C188.661,238.193 188.681,238.152 189.118,238.094C189.213,238.315 189.469,238.417 189.689,238.322C189.91,238.226 190.011,237.97 189.916,237.75C190.461,237.306 190.01,237.452 190.343,237.64C190.548,237.756 190.338,238.037 190.275,238.138C190.154,238.332 190.031,238.5 189.827,238.559C189.744,238.583 189.46,238.675 189.283,238.686C189.305,238.721 189.33,238.755 189.357,238.783C189.825,239.249 190.545,239.965 190.934,240.266L195.361,243.674C197.104,244.914 198.87,246.126 200.664,247.295C203.351,249.046 206.095,250.711 208.858,252.333C219.717,258.741 231.212,263.962 242.258,270.028C244.998,271.532 247.709,273.092 250.376,274.732C266.709,284.812 282.324,295.761 297.391,307.404C306.459,314.41 315.265,321.739 324.06,329.099C326.257,330.938 328.466,332.764 330.665,334.603C332.643,336.258 334.616,337.92 336.596,339.575C344.512,346.191 352.371,352.882 360.246,359.588C361.011,360.239 361.745,360.928 362.551,361.53C362.904,361.793 363.274,362.005 363.642,362.248C363.936,362.511 364.388,362.487 364.652,362.194C364.916,361.9 364.891,361.448 364.598,361.184C364.368,360.895 364.167,360.602 363.918,360.329C363.353,359.71 362.713,359.165 362.103,358.589C354.256,351.18 346.309,343.906 338.235,336.788C334.639,333.617 331.01,330.488 327.334,327.417C321.813,322.805 316.179,318.339 310.52,313.908C302.971,307.996 295.309,302.236 287.529,296.622C275.896,288.228 263.986,280.179 251.641,272.666C248.934,271.016 246.182,269.451 243.404,267.935C232.365,261.908 220.892,256.698 210.047,250.315C207.773,248.97 205.52,247.583 203.288,246.164C201.059,244.747 198.851,243.298 196.687,241.788L192.121,238.646C191.557,238.268 190.352,237.111 189.984,236.955C189.605,236.794 189.317,236.826 189.158,236.911C188.869,237.064 188.467,237.295 188.596,237.887C188.602,237.911 188.588,237.946 188.609,237.964C188.776,238.101 188.713,238.162 188.688,238.176ZM189.283,238.686C189.163,238.694 189.092,238.665 189.164,238.554C189.187,238.518 189.227,238.601 189.283,238.686Z" style="fill:rgb(152,116,77);"/>
                <path d="M210.161,224.068C210.054,223.869 210.298,224.197 210.046,224.015C210.005,223.984 209.986,224.051 209.942,224.04C209.847,224.017 209.84,224.127 209.762,224.118C209.55,224.095 209.601,224.349 209.447,224.377C209.349,224.395 209.408,224.519 209.323,224.549C209.242,224.577 209.31,224.678 209.238,224.715C209.012,224.829 209.284,225.061 209.131,225.24C208.986,225.409 209.301,225.514 209.221,225.741C209.195,225.811 209.307,225.821 209.29,225.899C209.264,226.016 209.411,226.007 209.443,226.142C209.476,226.278 209.664,226.339 209.819,226.473C210.057,226.679 210.869,226.968 211.75,227.183C212.267,227.309 212.814,227.378 213.132,227.46L219.275,229.028C222.864,229.883 226.461,230.767 230.007,231.81C232.344,232.496 234.659,233.25 236.932,234.124C241.953,236.041 246.765,238.482 251.454,241.185C254.576,242.984 257.66,244.877 260.658,246.91C268.231,252.045 275.379,257.862 282.243,263.608C286.684,267.365 291.226,270.982 295.798,274.55C306.497,282.899 317.518,290.776 328.913,298.104C340.302,305.428 351.976,312.335 364.021,318.615C369.169,321.298 374.397,323.837 379.656,326.322C393.126,332.668 407.883,337.347 421.751,343.531C429.936,347.18 437.656,351.565 444.895,356.765C445.375,357.11 445.826,357.5 446.354,357.769C446.751,357.972 447.126,358.024 447.547,358.174C448.306,358.8 449.43,358.691 450.055,357.932C450.681,357.172 450.572,356.048 449.813,355.423C449.593,355.039 449.452,354.704 449.179,354.357C448.937,354.047 448.631,353.8 448.334,353.544C443.04,348.983 436.837,345.688 430.59,342.556C414.823,334.651 397.347,329.535 381.624,322.14C376.404,319.693 371.244,317.135 366.106,314.547C354.078,308.491 342.243,302.118 330.802,295.098C319.344,288.068 308.201,280.532 297.548,272.297C292.996,268.777 288.563,265.094 284.186,261.33C280.066,257.77 275.825,254.204 271.476,250.738C267.141,247.284 262.699,243.931 258.082,240.878C256.218,239.646 254.336,238.449 252.41,237.335C247.869,234.708 243.139,232.463 238.261,230.625C235.885,229.733 233.469,228.958 231.027,228.269C227.408,227.247 223.735,226.406 220.072,225.584L213.864,224.299C213.527,224.229 212.982,224.126 212.425,224.076C211.972,224.035 211.52,224.055 211.214,224.013C211.184,224.009 211.134,224.015 211.134,224.015C211.134,224.015 211.348,224.197 211.422,224.231C211.486,224.26 211.477,224.347 211.537,224.363C211.769,224.427 211.58,224.696 211.751,224.792C211.812,224.827 211.731,224.903 211.786,224.943C211.962,225.073 211.665,225.238 211.781,225.422C211.827,225.494 211.694,225.527 211.729,225.608C211.796,225.76 211.512,225.759 211.531,225.956C211.544,226.092 211.294,226.001 211.254,226.185C211.239,226.255 211.08,226.133 211.071,226.232C211.054,226.407 210.957,225.947 211,226.137C211.24,227.206 210.847,225.736 210.847,225.736C210.847,225.736 210.877,225.931 210.818,225.632C210.747,225.273 210.856,225.878 210.786,225.502C211.016,225.43 211.144,225.186 211.072,224.957C211.001,224.728 210.756,224.6 210.527,224.671L210.469,224.54L210.466,224.543C210.355,224.462 210.262,224.242 210.199,224.137L210.161,224.068Z" style="fill:rgb(152,116,77);"/>
                <path d="M256.981,199.092C256.957,199.007 256.943,198.956 256.936,199.033C256.933,199.068 256.95,199.086 256.981,199.092C257.007,199.186 257.045,199.322 257.097,199.369C257.143,199.411 256.972,199.484 257.032,199.54C257.333,199.816 256.479,199.387 256.883,199.515C256.927,199.279 256.771,199.052 256.535,199.008C256.299,198.963 256.072,199.119 256.027,199.355C255.979,199.354 255.947,199.351 255.926,199.346L255.865,199.383C255.545,199.552 255.897,199.873 255.948,200.14C255.964,200.228 256.048,200.248 256.095,200.33C256.156,200.439 256.285,200.474 256.414,200.549C256.815,200.782 257.796,200.612 258.289,200.782L262.202,202.239C264.176,203.117 266.079,204.178 267.913,205.35C269.762,206.532 271.538,207.829 273.247,209.166C275.32,210.833 277.296,212.604 279.222,214.437C281.541,216.643 283.754,218.958 285.977,221.276C291.235,226.761 296.408,232.362 301.995,237.455C305.763,240.861 309.489,244.307 313.239,247.72C322.066,255.755 330.954,263.677 340.274,271.038C349.199,278.086 358.541,284.594 368.668,290.127C375.605,293.91 382.547,297.473 389.489,300.895C402.202,307.162 414.825,313.142 427.519,318.88C432.622,321.186 437.811,323.272 442.871,325.671C445.899,327.106 448.856,328.688 451.851,330.205C456.32,332.468 460.801,334.735 465.246,337.115C466.338,337.7 467.414,338.317 468.518,338.885C469.623,339.452 470.711,340.052 471.867,340.517C472.467,340.759 473.061,340.896 473.678,341.095C474.277,341.436 475.039,341.228 475.381,340.629C475.722,340.031 475.514,339.268 474.915,338.927C474.556,338.581 474.259,338.233 473.868,337.924C473.006,337.242 472.044,336.709 471.103,336.144C465.719,332.909 460.144,330.078 454.591,327.267C451.244,325.573 447.837,324.017 444.49,322.344C439.464,319.832 434.547,317.13 429.495,314.669C410.216,305.28 390.466,296.679 370.91,286.013C361.005,280.625 351.873,274.272 343.134,267.407C333.875,260.133 325.081,252.259 316.255,244.375C312.467,240.991 308.662,237.619 304.835,234.264C299.192,229.358 294.037,223.846 288.622,218.634C287.248,217.312 285.848,216.023 284.429,214.755C281.363,212.016 278.196,209.414 274.837,207.053C273.014,205.736 271.123,204.465 269.164,203.312C267.19,202.15 265.151,201.104 263.043,200.254C262.217,199.921 261.367,199.614 260.497,199.378C259.925,199.222 259.347,199.103 258.772,198.984C258.454,198.922 258.011,198.931 257.572,198.976C257.381,198.996 257.091,199.117 256.981,199.092Z" style="fill:rgb(152,116,77);"/>
                <path d="M284.311,183.315L284.312,183.358C284.34,183.407 284.381,183.458 284.409,183.441C284.504,183.386 284.458,183.559 284.531,183.528C284.583,183.505 284.55,183.597 284.597,183.58C284.767,183.518 284.64,183.775 284.773,183.755C284.966,183.725 284.771,183.976 284.928,183.986C285.064,183.995 284.889,184.146 285.009,184.174C285.082,184.19 284.973,184.263 285.041,184.285C285.256,184.355 284.902,184.51 285.076,184.624C285.147,184.67 285.001,184.703 285.066,184.756C285.156,184.83 284.949,184.851 285.028,184.937C285.173,185.095 284.786,185.052 284.889,185.255C284.923,185.323 284.792,185.283 284.82,185.356C284.87,185.483 284.64,185.376 284.669,185.524C284.694,185.649 284.494,185.51 284.498,185.657C284.499,185.719 284.413,185.642 284.409,185.709C284.404,185.805 284.279,185.664 284.257,185.778C284.235,185.894 284.097,185.673 284.035,185.833C284.012,185.893 283.951,185.758 283.915,185.838C283.889,185.896 283.845,185.709 283.815,185.802C283.763,185.955 283.828,185.528 283.798,185.718C283.786,185.801 283.778,185.845 283.773,185.862L283.738,186.216C283.926,186.312 284.16,186.393 284.274,186.462L286.226,187.475C287.19,187.948 288.147,188.439 289.093,188.952C290.031,189.46 290.956,189.991 291.863,190.548C294.685,192.251 297.393,194.161 300.076,196.109C302.794,198.083 305.484,200.1 308.144,202.108C312.688,205.535 317.291,208.88 321.839,212.297C323.789,213.761 325.696,215.279 327.65,216.738C337.4,224.018 347.331,231.05 357.11,238.303C362.597,242.374 368.495,245.63 374.653,248.377C383.687,252.408 393.283,255.339 402.941,258.171C416.036,262.009 428.692,265.263 441.473,268.929C446.878,270.479 452.306,272.103 457.8,273.877C467.23,276.922 476.366,281.163 485.203,286.084C494.448,291.233 503.192,297.378 511.913,303.252C514.97,305.311 518.07,307.231 521.111,309.213C521.419,309.414 521.715,309.63 522.036,309.807C522.539,310.084 523.042,310.276 523.56,310.519C524.081,310.914 524.825,310.813 525.22,310.292C525.616,309.771 525.514,309.027 524.993,308.631C524.576,308.148 524.221,307.663 523.765,307.214C523.474,306.928 523.139,306.692 522.825,306.428C519.715,303.816 516.646,301.113 513.358,298.619C507.269,294.001 500.74,289.849 494.155,285.861C483.015,279.114 471.357,273.317 459.244,269.405C453.7,267.616 448.221,265.978 442.766,264.416C429.992,260.759 417.341,257.517 404.253,253.691C394.792,250.928 385.389,248.08 376.538,244.144C370.685,241.54 365.074,238.459 359.855,234.598C350.712,227.832 341.533,221.128 332.312,214.481C328.364,211.635 324.38,208.843 320.449,205.973C317.177,203.585 313.937,201.152 310.698,198.716C307.463,196.285 304.224,193.785 300.852,191.494C298.572,189.945 296.226,188.504 293.832,187.169C292.84,186.62 291.832,186.099 290.81,185.604C289.797,185.113 288.774,184.644 287.744,184.195C287.236,183.974 286.738,183.718 286.208,183.551C285.97,183.476 285.734,183.434 285.491,183.382C285.234,183.329 284.668,183.165 284.366,183.222C284.319,183.231 284.318,183.298 284.311,183.315ZM283.726,186.21L283.634,187.191C283.629,187.24 283.64,187.15 283.646,187.098L283.732,186.213L283.726,186.21L283.837,185.021C284.077,185.037 284.284,184.855 284.3,184.616C284.316,184.376 284.134,184.169 283.895,184.153C283.896,183.967 283.898,183.795 283.901,183.637C283.994,178.778 284.846,186.456 283.796,183.346C283.772,183.273 283.725,183.378 283.691,183.333C283.632,183.255 283.606,183.394 283.557,183.341C283.44,183.215 283.43,183.47 283.334,183.398C283.265,183.346 283.281,183.488 283.216,183.449C283.171,183.422 283.189,183.509 283.146,183.487C282.971,183.396 283.074,183.695 282.919,183.654C282.8,183.621 282.904,183.803 282.792,183.79C282.545,183.761 282.824,184.07 282.604,184.108C282.539,184.12 282.632,184.19 282.569,184.207C282.487,184.228 282.614,184.306 282.535,184.336C282.362,184.4 282.667,184.524 282.509,184.628C282.452,184.666 282.571,184.694 282.516,184.737C282.367,184.855 282.72,184.877 282.59,185.046C282.533,185.12 282.704,185.1 282.652,185.188C282.577,185.315 282.852,185.235 282.793,185.405C282.751,185.526 282.978,185.41 282.952,185.574C282.941,185.643 283.05,185.569 283.044,185.651C283.037,185.765 283.219,185.603 283.239,185.788C283.247,185.865 283.328,185.772 283.361,185.887C283.386,185.973 283.411,185.962 283.517,186.07C283.565,186.12 283.64,186.167 283.726,186.21ZM283.79,185.628L283.789,185.634L283.786,185.665L283.736,186.211L283.736,186.215L283.738,186.216L283.724,186.355L283.736,186.215L283.732,186.213L283.808,185.429L283.79,185.628ZM283.814,185.423L283.79,185.628L283.786,185.665L283.77,185.857C283.77,185.861 283.77,185.866 283.771,185.871L283.8,185.593C283.805,185.536 283.827,185.367 283.814,185.423ZM283.901,183.637C284.241,184.518 284.333,184.028 284.312,183.358C284.278,183.302 284.26,183.248 284.301,183.312C284.306,183.321 284.309,183.32 284.311,183.315C284.27,182.246 283.956,180.791 283.901,183.637Z" style="fill:rgb(152,116,77);"/>
                <path d="M421.885,237.994C421.582,237.997 421.097,237.992 420.745,237.939C419.507,237.755 418.197,237.356 417.661,237.252C414.652,236.662 411.664,235.976 408.68,235.251C405.698,234.526 402.728,233.758 399.781,232.92C394.706,231.508 389.88,229.863 385.199,228.127C377.857,225.405 370.913,222.342 364.279,218.691C353.381,212.693 343.246,205.298 333.216,196.242C328.186,191.718 323.669,186.685 318.813,181.997C317.578,180.805 316.309,179.653 315.021,178.517C313.928,177.56 312.801,176.641 311.595,175.84C310.358,175.018 309.053,174.307 307.645,173.782L304.874,172.913C304.744,172.888 304.557,172.84 304.346,172.838C304.039,172.835 303.625,172.996 303.452,172.975C303.404,172.922 303.354,172.854 303.374,172.925C303.383,172.955 303.411,172.97 303.452,172.975C303.477,173.004 303.502,173.028 303.513,173.024C303.564,173.002 303.549,173.083 303.589,173.067C303.746,173 303.671,173.237 303.78,173.225C303.878,173.214 303.795,173.346 303.878,173.352C303.98,173.36 303.866,173.482 303.954,173.507C304.012,173.523 303.932,173.585 303.985,173.608C304.034,173.628 303.957,173.674 304.002,173.699C304.212,173.816 303.82,173.911 303.952,174.117C304.032,174.242 303.767,174.193 303.808,174.363C303.824,174.428 303.713,174.378 303.719,174.454C303.73,174.57 303.54,174.422 303.504,174.592C303.487,174.669 303.374,174.509 303.307,174.644C303.293,174.673 303.301,174.617 303.22,174.588L303.177,174.573C303.204,174.487 303.225,174.377 303.238,174.239C303.478,174.239 303.672,174.044 303.672,173.804C303.672,173.564 303.477,173.369 303.237,173.369C302.992,172.158 303.204,173.27 303.001,172.972C302.965,172.919 302.941,173.016 302.905,172.988C302.792,172.904 302.798,173.101 302.716,173.065C302.642,173.033 302.672,173.156 302.607,173.139C302.533,173.119 302.58,173.233 302.513,173.225C302.296,173.201 302.503,173.47 302.333,173.522C302.126,173.585 302.443,173.75 302.286,173.891C302.229,173.942 302.36,173.966 302.309,174.029C302.228,174.129 302.461,174.118 302.404,174.256C302.347,174.393 302.621,174.28 302.616,174.499C302.615,174.579 302.722,174.493 302.773,174.578C302.664,174.705 302.909,175.002 303.087,174.765C303.332,174.893 304.002,175.058 304.271,175.185L306.66,176.144C307.837,176.688 308.906,177.394 309.921,178.177C310.965,178.982 311.937,179.881 312.874,180.815C314.127,182.053 315.337,183.331 316.555,184.603C319.424,187.602 322.253,190.64 325.135,193.629C326.922,195.483 328.741,197.306 330.625,199.067C340.762,208.51 351.016,216.286 362.116,222.566C368.917,226.413 376.01,229.766 383.622,232.47C388.453,234.186 393.501,235.596 398.76,236.86C402.404,237.714 406.068,238.504 409.761,239.148C412.225,239.577 414.696,239.934 417.173,240.251C418.033,240.365 420.709,241.005 422.298,240.753C423.253,240.601 423.949,240.186 424.299,239.58C424.839,238.703 424.698,237.375 423.879,235.988C422.847,234.239 420.821,232.232 420.266,231.576C417.738,228.577 415.102,225.655 412.395,222.801C409.69,219.95 406.914,217.168 404.097,214.448C399.687,210.205 395.157,206.074 390.256,202.433C386.964,199.988 383.494,197.787 379.872,195.812C375.717,193.574 371.466,191.559 367.157,189.668C362.531,187.638 357.836,185.765 353.133,183.902C342.256,179.595 331.417,175.212 320.914,170.007C320.25,169.679 319.588,169.35 318.912,169.046C317.888,168.585 316.857,168.191 315.827,167.737C315.442,167.515 314.949,167.646 314.726,168.031C314.503,168.415 314.635,168.909 315.019,169.131C315.938,169.809 316.828,170.491 317.783,171.113C318.415,171.524 319.067,171.899 319.724,172.266C322.187,173.642 324.735,174.849 327.279,176.053C335.725,180.049 344.443,183.442 353.064,187.042C361.609,190.61 370.055,194.381 378.108,198.986C382.434,201.414 386.467,204.258 390.364,207.281C394.294,210.329 398.09,213.561 401.759,216.933C404.612,219.546 407.428,222.219 410.173,224.964C412.914,227.706 415.584,230.517 418.151,233.406C418.553,233.862 419.763,235.006 420.765,236.24C421.216,236.796 421.634,237.364 421.859,237.888C421.873,237.92 421.881,237.956 421.885,237.994Z" style="fill:rgb(152,116,77);"/>
                <path d="M332.901,156.471C332.889,156.453 332.873,156.439 332.841,156.44C332.819,156.441 332.785,156.303 332.781,156.355C332.776,156.418 332.821,156.453 332.901,156.471C332.92,156.501 332.925,156.542 332.961,156.539C333.03,156.533 333.003,156.631 333.059,156.633C333.238,156.639 333.13,156.861 333.25,156.9C333.391,156.947 333.249,157.108 333.354,157.175C333.436,157.228 333.317,157.315 333.384,157.376C333.429,157.418 333.346,157.462 333.385,157.507C333.556,157.705 333.163,157.782 333.223,158.044C333.247,158.147 333.078,158.121 333.081,158.236C333.084,158.379 332.86,158.281 332.812,158.453C332.791,158.526 332.686,158.448 332.648,158.532C332.61,158.614 332.493,158.484 332.412,158.59C332.384,158.628 332.336,158.547 332.291,158.593C332.267,158.619 332.256,158.565 332.193,158.519C331.942,158.337 331.988,158.523 332.105,158.464C332.157,158.438 332.223,158.362 332.283,158.183L332.295,158.148C332.498,157.537 332.137,158.654 332.36,157.895C332.597,157.932 332.82,157.77 332.857,157.533C332.894,157.295 332.731,157.073 332.494,157.036C332.502,156.846 332.512,156.711 332.524,156.619L332.501,156.519C332.427,156.174 332.262,156.387 332.178,156.296C332.064,156.174 331.981,156.372 331.896,156.328C331.807,156.282 331.788,156.419 331.713,156.395C331.478,156.319 331.525,156.65 331.347,156.663C331.241,156.671 331.309,156.814 331.214,156.839C331.15,156.857 331.207,156.94 331.147,156.964C330.89,157.068 331.223,157.326 331.043,157.551C330.976,157.635 331.142,157.686 331.088,157.791C331.006,157.954 331.327,157.949 331.31,158.212C331.304,158.304 331.439,158.261 331.478,158.384C331.503,158.464 331.672,158.498 331.892,158.676C332.13,158.869 332.743,159.202 333.423,159.509C333.964,159.753 334.546,159.925 334.877,160.061L340.956,162.351C343.885,163.438 346.788,164.583 349.684,165.751C352.573,166.917 355.451,168.108 358.299,169.373C366.883,173.087 375.253,177.413 383.27,182.309C391.278,187.201 398.933,192.663 406.069,198.698C409.654,201.7 413.106,204.834 416.604,207.908C420.726,211.529 424.925,215.035 429.038,218.645C433.174,222.274 437.27,225.94 441.516,229.439C446.712,233.723 452.075,237.822 457.784,241.547C470.143,249.975 483.299,257.324 496.757,264.231C500.957,266.386 505.18,268.511 509.432,270.58C519.33,275.396 529.293,280.094 539.171,284.839C544.634,287.463 549.98,290.286 555.462,292.769C555.895,292.965 556.315,293.188 556.777,293.295C557.012,293.35 557.196,293.325 557.437,293.343C558.21,293.758 559.175,293.467 559.59,292.693C560.005,291.919 559.714,290.954 558.94,290.54C558.765,290.322 558.664,290.126 558.456,289.94C558.042,289.569 557.531,289.332 557.052,289.048C552.79,286.519 548.353,284.265 543.91,282.004C542.016,281.041 540.099,280.116 538.184,279.184C528.316,274.384 518.342,269.686 508.386,264.983C501.763,261.854 495.13,258.767 488.613,255.484C478.593,250.436 468.801,245.05 459.439,239.043C453.874,235.315 448.639,231.239 443.597,226.953C439.443,223.42 435.382,219.785 431.43,216.027C427.462,212.253 423.667,208.302 419.671,204.537C416.241,201.305 412.686,198.197 409.081,195.129C401.751,188.954 393.899,183.353 385.668,178.367C377.451,173.389 368.858,169.026 360.059,165.275C357.716,164.298 355.362,163.346 352.984,162.458C349.423,161.128 345.822,159.918 342.202,158.753L335.965,156.903C335.593,156.798 334.966,156.598 334.332,156.494C333.825,156.411 333.167,156.535 332.901,156.471Z" style="fill:rgb(152,116,77);"/>
                <path d="M383.273,128.065C383.331,128.086 383.412,128.12 383.52,128.169C383.463,128.402 383.605,128.638 383.838,128.696C384.072,128.753 384.307,128.611 384.365,128.377C384.619,128.389 384.765,128.346 384.845,128.292C385.057,128.151 384.8,127.941 384.846,128.515C384.855,128.624 384.991,128.688 384.903,128.696C384.854,128.7 384.93,128.783 384.884,128.786C384.751,128.796 384.826,129.003 384.707,129.016C384.522,129.036 384.377,129.214 384.181,129.169C384.147,129.162 384.074,129.176 384.008,129.187C384.092,129.303 384.181,129.584 384.303,129.731C384.863,130.402 385.589,131.155 386.081,131.531C387.008,132.239 387.914,132.974 388.808,133.725C389.709,134.482 390.598,135.256 391.479,136.034C393.559,137.919 395.565,139.868 397.522,141.866C400.467,144.871 403.294,147.988 406.069,151.17C414.398,160.631 422.567,170.229 431.051,179.538C433.892,182.655 436.751,185.754 439.696,188.776C442.644,191.8 445.675,194.746 448.763,197.639C460.501,208.624 473.881,218.736 488.156,227.323C502.468,235.933 517.678,243.008 533.006,247.935C540.623,250.359 547.844,252.651 554.86,254.892C559.759,256.456 564.571,257.938 569.268,259.709C576.28,262.353 582.93,265.71 589.803,269.355C590.103,269.514 590.398,269.677 590.715,269.799C591.225,269.995 591.707,270.08 592.233,270.236C592.63,270.489 593.158,270.371 593.41,269.974C593.663,269.577 593.545,269.049 593.148,268.797C592.777,268.38 592.481,267.981 592.072,267.607C591.815,267.372 591.528,267.181 591.243,266.984C584.693,262.466 577.698,259.308 570.666,256.257C565.987,254.226 561.251,252.285 556.324,250.542C549.361,248.079 542.072,245.921 534.447,243.449C519.452,238.635 504.582,231.704 490.572,223.3C476.569,214.9 463.424,205.028 451.895,194.285C448.843,191.444 445.877,188.522 442.935,185.579C439.982,182.626 437.053,179.653 434.176,176.628C425.514,167.519 417.179,158.098 408.677,148.826C406.256,146.203 403.803,143.623 401.268,141.126C398.725,138.622 396.102,136.202 393.371,133.881C392.287,132.933 391.193,131.992 390.078,131.077C389.328,130.463 388.569,129.86 387.796,129.275C387.385,128.964 386.874,128.248 386.33,127.765C385.944,127.423 385.567,127.162 385.25,127.025C384.915,126.879 384.644,126.75 384.398,126.764C384.097,126.781 383.793,126.737 383.599,126.926C383.493,127.03 383.309,127.028 383.285,127.186C383.264,127.319 383.124,127.282 383.158,127.426C383.187,127.546 383.045,127.544 383.1,127.672C383.135,127.756 383.028,127.785 383.099,127.858C383.634,128.411 382.835,127.903 383.273,128.065ZM384.008,129.187C383.923,129.201 383.851,129.209 383.895,129.159C383.933,129.116 383.97,129.134 384.008,129.187Z" style="fill:rgb(152,116,77);"/>
                <path d="M430.805,134.537C430.805,134.451 430.802,134.371 430.75,134.428C430.719,134.463 430.745,134.498 430.805,134.537C430.805,134.602 430.803,134.671 430.817,134.687C430.853,134.726 430.789,134.755 430.825,134.783C430.957,134.887 430.717,134.961 430.786,135.069C430.815,135.116 430.725,135.121 430.748,135.169C430.77,135.216 430.686,135.21 430.701,135.258C430.775,135.479 430.428,135.337 430.378,135.567C430.346,135.717 430.169,135.508 430.06,135.663C429.993,135.758 429.922,135.533 429.776,135.633C429.739,135.659 429.728,135.577 429.689,135.553C429.742,135.523 429.794,135.462 429.724,135.369L429.698,135.339C429.736,135.328 429.782,135.3 429.838,135.245C430.029,135.39 430.302,135.351 430.447,135.16C430.591,134.968 430.553,134.695 430.362,134.551C430.611,133.781 430.312,134.304 430.263,134.044C430.251,133.979 430.179,134.05 430.153,134.004C430.073,133.86 429.965,134.059 429.88,133.981C429.809,133.915 429.778,134.059 429.705,134.016C429.656,133.987 429.653,134.076 429.603,134.054C429.556,134.034 429.563,134.116 429.515,134.101C429.303,134.037 429.437,134.362 429.217,134.408C429.049,134.444 429.278,134.636 429.104,134.768C429.021,134.831 429.161,134.876 429.111,135.009C429.083,135.082 429.188,135.197 429.249,135.391C429.307,135.575 429.473,135.934 429.706,136.35C429.948,136.782 430.274,137.221 430.434,137.482C430.968,138.349 431.449,139.22 432.023,140.061C432.267,140.418 432.542,140.751 432.803,141.096C434.116,142.819 435.446,144.525 436.811,146.21C438.174,147.891 439.57,149.543 440.973,151.189C446.286,157.11 451.712,163.082 457.629,168.437C461.654,172.079 465.911,175.429 470.474,178.326C486.815,188.678 503.519,196.871 520.776,203.589C522.979,204.447 525.19,205.281 527.42,206.068C536.288,209.196 545.356,211.731 554.471,214.409C558.328,215.543 562.15,216.85 566.07,217.879C567.047,218.136 568.031,218.349 569.02,218.568C569.569,218.689 570.113,218.82 570.669,218.913C571.984,219.134 573.273,219.245 574.601,219.409C574.922,219.499 575.256,219.312 575.347,218.99C575.437,218.668 575.249,218.334 574.927,218.244C573.674,217.681 572.49,217.079 571.22,216.567C570.387,216.232 569.533,215.968 568.688,215.67C568.155,215.483 567.628,215.286 567.091,215.113C562.246,213.553 557.349,212.258 552.566,210.669C544.524,207.999 536.711,204.89 528.892,201.815C523.307,199.619 517.731,197.417 512.221,195.014C498.876,189.193 485.801,182.494 472.987,174.362C468.643,171.61 464.609,168.403 460.758,164.96C454.924,159.743 449.52,153.968 444.247,148.219L435.508,138.86C435.224,138.544 434.954,138.214 434.658,137.909C433.951,137.181 433.203,136.532 432.467,135.833C432.235,135.614 431.832,135.209 431.429,134.887C431.231,134.73 430.937,134.624 430.805,134.537Z" style="fill:rgb(152,116,77);"/>
            </g>
            <path id="top2" d="M170.925,249.774L400,117.517L629.266,249.774L400,382.03L170.925,249.774Z" style="fill:none;stroke:black;stroke-width:2.5px;"/>
        </g>
        <g id="material-text" transform="matrix(1,0,0,1,15.3933,-2.65748)">
            <path d="M266.919,53.076L274.853,12.549L287.793,41.846L301.196,12.549L308.325,53.076L302.49,53.076L298.852,30.322L287.695,54.81L276.855,30.298L272.803,53.076L266.919,53.076Z" style="fill:white;fill-rule:nonzero;"/>
            <path d="M338.452,43.921L322.314,43.921L318.115,53.076L311.987,53.076L330.639,13.013L348.633,53.076L342.407,53.076L338.452,43.921ZM336.133,38.574L330.542,25.757L324.682,38.574L336.133,38.574Z" style="fill:white;fill-rule:nonzero;"/>
            <path d="M361.645,20.727L361.645,53.076L355.957,53.076L355.957,20.727L347.29,20.727L347.29,15.381L370.288,15.381L370.288,20.727L361.645,20.727Z" style="fill:white;fill-rule:nonzero;"/>
            <path d="M396.167,20.727L381.054,20.727L381.054,29.785L395.727,29.785L395.727,35.132L381.054,35.132L381.054,47.729L396.167,47.729L396.167,53.076L375.366,53.076L375.366,15.381L396.167,15.381L396.167,20.727Z" style="fill:white;fill-rule:nonzero;"/>
            <path d="M416.406,37.012L428.076,53.076L421.118,53.076L410.351,37.646L409.326,37.646L409.326,53.076L403.637,53.076L403.637,15.381L410.303,15.381C415.283,15.381 418.88,16.317 421.094,18.188C423.535,20.272 424.756,23.022 424.756,26.44C424.756,29.11 423.991,31.405 422.461,33.325C420.931,35.246 418.913,36.475 416.406,37.012ZM409.326,32.69L411.133,32.69C416.52,32.69 419.214,30.631 419.214,26.514C419.214,22.656 416.593,20.727 411.352,20.727L409.326,20.727L409.326,32.69Z" style="fill:white;fill-rule:nonzero;"/>
            <rect x="433.74" y="15.381" width="5.688" height="37.695" style="fill:white;fill-rule:nonzero;"/>
            <path d="M470.63,43.921L454.492,43.921L450.293,53.076L444.165,53.076L462.817,13.013L480.81,53.076L474.585,53.076L470.63,43.921ZM468.31,38.574L462.72,25.757L456.86,38.574L468.31,38.574Z" style="fill:white;fill-rule:nonzero;"/>
            <path d="M491.211,15.381L491.211,47.729L502.295,47.729L502.295,53.076L485.522,53.076L485.522,15.381L491.211,15.381Z" style="fill:white;fill-rule:nonzero;"/>
        </g>
    </g>
    <defs>
        <linearGradient id="_Linear3_card" x1="0" y1="0" x2="1" y2="0" gradientUnits="userSpaceOnUse" gradientTransform="matrix(3.89688e-14,-610.267,636.408,3.73681e-14,398.243,614.74)"><stop offset="0" style="stop-color:rgb(122,122,122);stop-opacity:1"/><stop offset="0.44" style="stop-color:rgb(227,227,227);stop-opacity:1"/><stop offset="1" style="stop-color:white;stop-opacity:1"/></linearGradient>
    </defs>
</svg>
