<svg width="100%" height="100%" viewBox="0 0 800 800" version="1.1" xmlns="http://www.w3.org/2000/svg" >
    <g id="assassin-shirt" transform="matrix(1.00701,0,0,1.00701,-2.69535,-76.5159)">
        <g id="skin" transform="matrix(1.00264,0,0,1.00264,-1.05451,-2.61492)">
            <path d="M236.245,658.158C259.756,632.164 332.685,625.672 363.797,623.42C397.131,621.007 430.957,620.186 464.228,623.843C483.031,625.91 502.553,629.121 518.85,639.313C570.87,671.846 548.339,919.735 512.541,966.805C466.697,1027.08 348.469,1048.81 285.911,1018.85C251.535,1002.39 250.767,786.197 233.272,752.45" style="fill: var(--color_skin, rgb(240,205,177));" />
        </g>
        <path d="M294.497,626.912C225.777,645.697 160.401,673.644 93.624,698.852C63.14,710.359 -41.895,752.878 -66.435,775.373C-85.829,793.15 -138.409,909.939 -149.857,932.941C-155.958,945.201 -105.891,944.897 -75.63,940.008C-69.791,939.065 -6.179,929.222 20.652,932.763C114.775,945.183 210.185,942.53 304.67,951.158C324.216,952.943 336.82,957.234 352.146,940.515C364.402,927.145 358.135,854.464 358.651,836.899C361.655,734.642 276.124,684.917 279.816,639.568L294.497,626.912Z" style="fill:rgb(231,231,231);"/>
        <clipPath id="_clip1_assassin_cap">
            <path d="M294.497,626.912C225.777,645.697 160.401,673.644 93.624,698.852C63.14,710.359 -41.895,752.878 -66.435,775.373C-85.829,793.15 -138.409,909.939 -149.857,932.941C-155.958,945.201 -105.891,944.897 -75.63,940.008C-69.791,939.065 -6.179,929.222 20.652,932.763C114.775,945.183 210.185,942.53 304.67,951.158C324.216,952.943 336.82,957.234 352.146,940.515C364.402,927.145 358.135,854.464 358.651,836.899C361.655,734.642 276.124,684.917 279.816,639.568L294.497,626.912Z"/>
        </clipPath>
        <g clip-path="url(#_clip1_assassin_cap)">
            <path d="M39.745,813.533C39.81,813.515 36.837,800.077 36.656,799.268C34.238,788.473 26.117,766.396 30.446,755.43C32.468,750.305 42.271,747.001 46.682,744.774C62.528,736.776 116.977,711.169 132.581,702.636C135.344,701.124 150.463,695.474 151.088,692.095C151.225,691.358 150.033,691.047 149.536,690.96C138.848,689.094 86.583,712.133 76.413,714.724C65.814,717.424 19.231,727.686 12,734.314C8.884,737.171 23.473,776.782 25.069,781.426" style="fill:white;"/>
            <path d="M99.939,700.288C98.037,697.655 101.874,719.354 103.222,726.158C107.251,746.496 114.181,766.398 120.726,786.034C139.368,841.96 161.479,895.428 189.825,947.192C197.982,962.087 209.787,996.637 231.794,988.561C239.733,985.648 280.643,965.573 282.386,956.513C283.825,949.027 256.986,905.129 252.735,896.123C230.216,848.418 206.609,798.268 188.896,748.469C185.195,738.067 176.735,694.301 169.96,688.569C166.382,685.541 130.247,694.596 125.191,695.786L99.939,700.288Z" style="fill:rgb(96,69,60);"/>
            <clipPath id="_clip2_assassin_cap">
                <path d="M99.939,700.288C98.037,697.655 101.874,719.354 103.222,726.158C107.251,746.496 114.181,766.398 120.726,786.034C139.368,841.96 161.479,895.428 189.825,947.192C197.982,962.087 209.787,996.637 231.794,988.561C239.733,985.648 280.643,965.573 282.386,956.513C283.825,949.027 256.986,905.129 252.735,896.123C230.216,848.418 206.609,798.268 188.896,748.469C185.195,738.067 176.735,694.301 169.96,688.569C166.382,685.541 130.247,694.596 125.191,695.786L99.939,700.288Z"/>
            </clipPath>
            <g clip-path="url(#_clip2_assassin_cap)">
                <path d="M82.873,690.695C81.687,689.671 83.725,693.712 84.244,695.19C85.325,698.268 86.485,701.336 87.811,704.318C91.805,713.306 96.858,721.238 102.938,728.929C113.691,742.533 119.61,757.179 124.668,773.749C126.525,779.832 129.228,796.188 133.28,800.239C134.22,801.179 132.76,797.63 132.419,796.345C131.712,793.687 130.989,791.033 130.29,788.372C127.699,778.517 125.601,768.704 124.652,758.551C124.603,758.026 123.855,749.55 124.224,749.576C125.502,749.667 128.204,754.28 128.963,755.187C133.098,760.13 137.699,764.692 142.742,768.712C152.707,776.655 164.463,781.857 174.952,789.012C185.068,795.911 193.819,804.594 202.418,813.26C207.378,818.259 212.385,823.517 216.294,829.4C216.761,830.103 221.13,838.67 221.71,838.554C221.926,838.511 221.621,837.059 221.602,836.929C221.012,832.798 220.456,828.668 219.95,824.526C218.102,809.386 216.836,794.234 213.456,779.327C206.041,746.626 215.362,692.978 188.356,677.553C179.084,672.257 114.791,673.093 103.069,675.242" style="fill:rgb(75,44,59);"/>
                <path d="M102.881,682.891C101.233,685.211 103.95,694.921 104.282,697.483C106.317,713.198 110.332,728.402 115.151,743.471C122.746,767.218 129.133,791.409 138.145,814.681C153.554,854.471 195.605,942.154 229.591,997.704" style="fill:none;stroke:black;stroke-width:2.1px;"/>
                <path d="M151.852,666.62C150.933,665.763 152.224,669.106 152.484,670.335C153.028,672.906 153.591,675.47 154.192,678.029C156.03,685.852 158.204,693.591 160.651,701.244C168.018,724.279 176.565,746.938 185.021,769.589C195.256,797.003 205.54,826.309 218.46,852.514C235.782,887.644 259.482,943.938 283.335,980.356" style="fill:none;stroke:black;stroke-width:2.1px;"/>
            </g>
            <path d="M99.939,700.288C98.037,697.655 101.874,719.354 103.222,726.158C107.251,746.496 114.181,766.398 120.726,786.034C139.368,841.96 161.479,895.428 189.825,947.192C197.982,962.087 209.787,996.637 231.794,988.561C239.733,985.648 280.643,965.573 282.386,956.513C283.825,949.027 256.986,905.129 252.735,896.123C230.216,848.418 206.609,798.268 188.896,748.469C185.195,738.067 176.735,694.301 169.96,688.569C166.382,685.541 130.247,694.596 125.191,695.786L99.939,700.288Z" style="fill:none;stroke:black;stroke-width:2.1px;"/>
            <path d="M16.905,734.389C17.172,734.125 23.731,759.199 25.853,766.626C32.154,788.676 40.844,806.585 47.601,828.489C62.566,877.004 70.497,928.042 76.223,978.375C77.814,992.366 85.916,1021.08 78.186,1034.06C72.663,1043.33 22.675,1030.83 13.609,1029.24C-32.776,1021.1 -79.904,1014.64 -127.006,1013.06C-143.562,1012.51 -182.496,1020.36 -196.523,1013.85C-220.411,1002.75 -192.672,939.237 -186.239,924.171C-153.266,846.948 -109.344,772.728 -36.492,727.248" style="fill:rgb(165,35,59);"/>
            <clipPath id="_clip3_assassin_cap">
                <path d="M16.905,734.389C17.172,734.125 23.731,759.199 25.853,766.626C32.154,788.676 40.844,806.585 47.601,828.489C62.566,877.004 70.497,928.042 76.223,978.375C77.814,992.366 85.916,1021.08 78.186,1034.06C72.663,1043.33 22.675,1030.83 13.609,1029.24C-32.776,1021.1 -79.904,1014.64 -127.006,1013.06C-143.562,1012.51 -182.496,1020.36 -196.523,1013.85C-220.411,1002.75 -192.672,939.237 -186.239,924.171C-153.266,846.948 -109.344,772.728 -36.492,727.248"/>
            </clipPath>
            <g clip-path="url(#_clip3_assassin_cap)">
                <path d="M-119.286,814.134C-199.544,984.8 -140.853,941.22 -138.296,932.952C-107.52,833.437 -42.051,790.747 -18.709,773.721C-15.419,771.321 9.92,756.904 9.92,756.904C9.92,756.904 15.513,767.023 16.164,768.701C19.892,778.32 37.271,823.828 41.084,824.463C42.573,824.711 49.784,819.644 48.89,818.751C48.033,817.894 41.127,802.666 40.199,797.952C35.142,772.285 38.255,749.5 11.706,738.19L-119.286,814.134Z" style="fill:rgb(234,80,108);"/>
            </g>
            <path d="M16.905,734.389C17.172,734.125 23.731,759.199 25.853,766.626C32.154,788.676 40.844,806.585 47.601,828.489C62.566,877.004 70.497,928.042 76.223,978.375C77.814,992.366 85.916,1021.08 78.186,1034.06C72.663,1043.33 22.675,1030.83 13.609,1029.24C-32.776,1021.1 -79.904,1014.64 -127.006,1013.06C-143.562,1012.51 -182.496,1020.36 -196.523,1013.85C-220.411,1002.75 -192.672,939.237 -186.239,924.171C-153.266,846.948 -109.344,772.728 -36.492,727.248" style="fill:none;stroke:black;stroke-width:2.1px;"/>
            <path d="M8.14,736.438C8.256,735.668 8.667,737.902 8.914,738.64C9.429,740.183 9.967,741.717 10.501,743.254C12.136,747.955 13.777,752.655 15.387,757.365C20.232,771.53 24.905,785.741 29.672,799.931C35.863,818.366 40.508,837.567 45.234,856.435C52.932,887.17 59.688,919.187 64.921,943.737" style="fill:none;stroke:black;stroke-width:2.1px;"/>
            <path d="M305.889,636.207C307.855,635.45 301.842,637.378 299.825,637.985C295.615,639.253 291.396,640.488 287.165,641.689C274.859,645.181 262.559,648.577 250.368,652.464C214.126,664.019 180.41,682.675 145.612,697.79C79.739,726.404 4.692,736.119 -52.053,782.996C-72.927,800.24 -92.054,819.189 -106.933,841.835C-111.518,848.815 -124.545,874.319 -130.788,877.027C-131.24,877.223 -131.732,877.207 -132.078,876.82C-136.35,872.035 -129.591,855.415 -127.971,850.7C-118.947,824.432 -101.681,799.938 -84.201,778.682C-12.204,691.135 114.16,669.748 216.576,635.976" style="fill:rgb(237,72,101);"/>
            <clipPath id="_clip4_assassin_cap">
                <path d="M305.889,636.207C307.855,635.45 301.842,637.378 299.825,637.985C295.615,639.253 291.396,640.488 287.165,641.689C274.859,645.181 262.559,648.577 250.368,652.464C214.126,664.019 180.41,682.675 145.612,697.79C79.739,726.404 4.692,736.119 -52.053,782.996C-72.927,800.24 -92.054,819.189 -106.933,841.835C-111.518,848.815 -124.545,874.319 -130.788,877.027C-131.24,877.223 -131.732,877.207 -132.078,876.82C-136.35,872.035 -129.591,855.415 -127.971,850.7C-118.947,824.432 -101.681,799.938 -84.201,778.682C-12.204,691.135 114.16,669.748 216.576,635.976"/>
            </clipPath>
            <g clip-path="url(#_clip4_assassin_cap)">
                <path d="M-176.602,940.374C-178.213,940.84 -175.082,937.381 -174.2,935.955C-172.298,932.879 -170.513,929.734 -168.591,926.669C-163.2,918.068 -157.598,909.569 -151.933,901.147C-134.797,875.673 -119.856,848.899 -100.262,825.127C-29.429,739.19 52.324,724.443 152.615,692.004C175.362,684.647 197.285,675.586 221.035,672.11C228.691,670.99 239.707,667.917 244.923,675.448C251.074,684.327 243.035,697.371 237.899,704.486C220.572,728.492 193.313,745.797 169.415,762.421C69.196,832.135 -34.752,892.383 -148.491,937.308" style="fill:rgb(109,45,74);fill-opacity:0.7;"/>
            </g>
            <path d="M305.889,636.207C307.855,635.45 301.842,637.378 299.825,637.985C295.615,639.253 291.396,640.488 287.165,641.689C274.859,645.181 262.559,648.577 250.368,652.464C214.126,664.019 180.41,682.675 145.612,697.79C79.739,726.404 4.692,736.119 -52.053,782.996C-72.927,800.24 -92.054,819.189 -106.933,841.835C-111.518,848.815 -124.545,874.319 -130.788,877.027C-131.24,877.223 -131.732,877.207 -132.078,876.82C-136.35,872.035 -129.591,855.415 -127.971,850.7C-118.947,824.432 -101.681,799.938 -84.201,778.682C-12.204,691.135 114.16,669.748 216.576,635.976" style="fill:none;stroke:black;stroke-width:2.1px;"/>
        </g>
        <path d="M294.497,626.912C225.777,645.697 160.401,673.644 93.624,698.852C63.14,710.359 -41.895,752.878 -66.435,775.373C-85.829,793.15 -138.409,909.939 -149.857,932.941C-155.958,945.201 -105.891,944.897 -75.63,940.008C-69.791,939.065 -6.179,929.222 20.652,932.763C114.775,945.183 210.185,942.53 304.67,951.158C324.216,952.943 336.82,957.234 352.146,940.515C364.402,927.145 358.135,854.464 358.651,836.899C361.655,734.642 276.124,684.917 279.816,639.568L294.497,626.912Z" style="fill:none;stroke:black;stroke-width:2.1px;"/>
        <g transform="matrix(-1,0,0,1,800.197,0)">
            <path d="M294.497,626.912C225.777,645.697 160.401,673.644 93.624,698.852C63.14,710.359 -39.574,753.407 -64.113,775.901C-83.507,793.679 -129.377,885.96 -140.825,908.962C-146.926,921.222 -89.117,913.831 -82.373,926.476C-79.59,931.695 -6.179,929.222 20.652,932.763C114.775,945.183 210.185,942.53 304.67,951.158C324.216,952.943 336.82,957.234 352.146,940.515C364.402,927.145 358.135,854.464 358.651,836.899C361.655,734.642 276.124,684.917 279.816,639.568L294.497,626.912Z" style="fill:rgb(231,231,231);"/>
            <clipPath id="_clip5_assassin_cap">
                <path d="M294.497,626.912C225.777,645.697 160.401,673.644 93.624,698.852C63.14,710.359 -39.574,753.407 -64.113,775.901C-83.507,793.679 -129.377,885.96 -140.825,908.962C-146.926,921.222 -89.117,913.831 -82.373,926.476C-79.59,931.695 -6.179,929.222 20.652,932.763C114.775,945.183 210.185,942.53 304.67,951.158C324.216,952.943 336.82,957.234 352.146,940.515C364.402,927.145 358.135,854.464 358.651,836.899C361.655,734.642 276.124,684.917 279.816,639.568L294.497,626.912Z"/>
            </clipPath>
            <g clip-path="url(#_clip5_assassin_cap)">
                <path d="M39.745,813.533C39.81,813.515 36.837,800.077 36.656,799.268C34.238,788.473 26.117,766.396 30.446,755.43C32.468,750.305 42.271,747.001 46.682,744.774C62.528,736.776 116.977,711.169 132.581,702.636C135.344,701.124 150.463,695.474 151.088,692.095C151.225,691.358 150.033,691.047 149.536,690.96C138.848,689.094 86.583,712.133 76.413,714.724C65.814,717.424 19.231,727.686 12,734.314C8.884,737.171 23.473,776.782 25.069,781.426" style="fill:white;"/>
                <path d="M99.939,700.288C98.037,697.655 101.874,719.354 103.222,726.158C107.251,746.496 114.181,766.398 120.726,786.034C139.368,841.96 161.479,895.428 189.825,947.192C197.982,962.087 209.787,996.637 231.794,988.561C239.733,985.648 280.643,965.573 282.386,956.513C283.825,949.027 256.986,905.129 252.735,896.123C230.216,848.418 206.609,798.268 188.896,748.469C185.195,738.067 176.735,694.301 169.96,688.569C166.382,685.541 130.247,694.596 125.191,695.786L99.939,700.288Z" style="fill:rgb(96,69,60);"/>
                <clipPath id="_clip6_assassin_cap">
                    <path d="M99.939,700.288C98.037,697.655 101.874,719.354 103.222,726.158C107.251,746.496 114.181,766.398 120.726,786.034C139.368,841.96 161.479,895.428 189.825,947.192C197.982,962.087 209.787,996.637 231.794,988.561C239.733,985.648 280.643,965.573 282.386,956.513C283.825,949.027 256.986,905.129 252.735,896.123C230.216,848.418 206.609,798.268 188.896,748.469C185.195,738.067 176.735,694.301 169.96,688.569C166.382,685.541 130.247,694.596 125.191,695.786L99.939,700.288Z"/>
                </clipPath>
                <g clip-path="url(#_clip6_assassin_cap)">
                    <path d="M82.873,690.695C81.687,689.671 83.725,693.712 84.244,695.19C85.325,698.268 86.485,701.336 87.811,704.318C91.805,713.306 96.858,721.238 102.938,728.929C113.691,742.533 119.61,757.179 124.668,773.749C126.525,779.832 129.228,796.188 133.28,800.239C134.22,801.179 132.76,797.63 132.419,796.345C131.712,793.687 130.989,791.033 130.29,788.372C127.699,778.517 125.601,768.704 124.652,758.551C124.603,758.026 123.855,749.55 124.224,749.576C125.502,749.667 128.204,754.28 128.963,755.187C133.098,760.13 137.699,764.692 142.742,768.712C152.707,776.655 164.463,781.857 174.952,789.012C185.068,795.911 193.819,804.594 202.418,813.26C207.378,818.259 212.385,823.517 216.294,829.4C216.761,830.103 221.13,838.67 221.71,838.554C221.926,838.511 221.621,837.059 221.602,836.929C221.012,832.798 220.456,828.668 219.95,824.526C218.102,809.386 216.836,794.234 213.456,779.327C206.041,746.626 215.362,692.978 188.356,677.553C179.084,672.257 114.791,673.093 103.069,675.242" style="fill:rgb(75,44,59);"/>
                    <path d="M102.881,682.891C101.233,685.211 103.95,694.921 104.282,697.483C106.317,713.198 110.332,728.402 115.151,743.471C122.746,767.218 129.133,791.409 138.145,814.681C153.554,854.471 195.605,942.154 229.591,997.704" style="fill:none;stroke:black;stroke-width:2.1px;"/>
                    <path d="M151.852,666.62C150.933,665.763 152.224,669.106 152.484,670.335C153.028,672.906 153.591,675.47 154.192,678.029C156.03,685.852 158.204,693.591 160.651,701.244C168.018,724.279 176.565,746.938 185.021,769.589C195.256,797.003 205.54,826.309 218.46,852.514C235.782,887.644 259.482,943.938 283.335,980.356" style="fill:none;stroke:black;stroke-width:2.1px;"/>
                </g>
                <path d="M99.939,700.288C98.037,697.655 101.874,719.354 103.222,726.158C107.251,746.496 114.181,766.398 120.726,786.034C139.368,841.96 161.479,895.428 189.825,947.192C197.982,962.087 209.787,996.637 231.794,988.561C239.733,985.648 280.643,965.573 282.386,956.513C283.825,949.027 256.986,905.129 252.735,896.123C230.216,848.418 206.609,798.268 188.896,748.469C185.195,738.067 176.735,694.301 169.96,688.569C166.382,685.541 130.247,694.596 125.191,695.786L99.939,700.288Z" style="fill:none;stroke:black;stroke-width:2.1px;"/>
                <path d="M16.905,734.389C17.172,734.125 23.731,759.199 25.853,766.626C32.154,788.676 40.844,806.585 47.601,828.489C62.566,877.004 70.497,928.042 76.223,978.375C77.814,992.366 85.916,1021.08 78.186,1034.06C72.663,1043.33 22.675,1030.83 13.609,1029.24C-32.776,1021.1 -79.904,1014.64 -127.006,1013.06C-143.562,1012.51 -182.496,1020.36 -196.523,1013.85C-220.411,1002.75 -192.672,939.237 -186.239,924.171C-153.266,846.948 -109.344,772.728 -36.492,727.248" style="fill:rgb(165,35,59);"/>
                <clipPath id="_clip7_assassin_cap">
                    <path d="M16.905,734.389C17.172,734.125 23.731,759.199 25.853,766.626C32.154,788.676 40.844,806.585 47.601,828.489C62.566,877.004 70.497,928.042 76.223,978.375C77.814,992.366 85.916,1021.08 78.186,1034.06C72.663,1043.33 22.675,1030.83 13.609,1029.24C-32.776,1021.1 -79.904,1014.64 -127.006,1013.06C-143.562,1012.51 -182.496,1020.36 -196.523,1013.85C-220.411,1002.75 -192.672,939.237 -186.239,924.171C-153.266,846.948 -109.344,772.728 -36.492,727.248"/>
                </clipPath>
                <g clip-path="url(#_clip7_assassin_cap)">
                    <path d="M-119.286,814.134C-165.497,916.398 -148.623,944.562 -145.403,936.529C-98.689,820.033 -42.051,790.747 -18.709,773.721C-15.419,771.321 9.92,756.904 9.92,756.904C9.92,756.904 15.513,767.023 16.164,768.701C19.892,778.32 37.271,823.828 41.084,824.463C42.573,824.711 49.784,819.644 48.89,818.751C48.033,817.894 41.127,802.666 40.199,797.952C35.142,772.285 38.255,749.5 11.706,738.19L-119.286,814.134Z" style="fill:rgb(234,80,108);"/>
                </g>
                <path d="M16.905,734.389C17.172,734.125 23.731,759.199 25.853,766.626C32.154,788.676 40.844,806.585 47.601,828.489C62.566,877.004 70.497,928.042 76.223,978.375C77.814,992.366 85.916,1021.08 78.186,1034.06C72.663,1043.33 22.675,1030.83 13.609,1029.24C-32.776,1021.1 -79.904,1014.64 -127.006,1013.06C-143.562,1012.51 -182.496,1020.36 -196.523,1013.85C-220.411,1002.75 -192.672,939.237 -186.239,924.171C-153.266,846.948 -109.344,772.728 -36.492,727.248" style="fill:none;stroke:black;stroke-width:2.1px;"/>
                <path d="M8.14,736.438C8.256,735.668 8.667,737.902 8.914,738.64C9.429,740.183 9.967,741.717 10.501,743.254C12.136,747.955 13.777,752.655 15.387,757.365C20.232,771.53 24.905,785.741 29.672,799.931C35.863,818.366 40.508,837.567 45.234,856.435C52.932,887.17 59.688,919.187 64.921,943.737" style="fill:none;stroke:black;stroke-width:2.1px;"/>
                <path d="M305.889,636.207C307.855,635.45 301.842,637.378 299.825,637.985C295.615,639.253 291.396,640.488 287.165,641.689C274.859,645.181 262.559,648.577 250.368,652.464C214.126,664.019 180.41,682.675 145.612,697.79C79.739,726.404 4.692,736.119 -52.053,782.996C-72.927,800.24 -92.054,819.189 -106.933,841.835C-111.518,848.815 -124.545,874.319 -130.788,877.027C-131.24,877.223 -131.732,877.207 -132.078,876.82C-136.35,872.035 -129.591,855.415 -127.971,850.7C-118.947,824.432 -101.681,799.938 -84.201,778.682C-12.204,691.135 114.16,669.748 216.576,635.976" style="fill:rgb(237,72,101);"/>
                <clipPath id="_clip8_assassin_cap">
                    <path d="M305.889,636.207C307.855,635.45 301.842,637.378 299.825,637.985C295.615,639.253 291.396,640.488 287.165,641.689C274.859,645.181 262.559,648.577 250.368,652.464C214.126,664.019 180.41,682.675 145.612,697.79C79.739,726.404 4.692,736.119 -52.053,782.996C-72.927,800.24 -92.054,819.189 -106.933,841.835C-111.518,848.815 -124.545,874.319 -130.788,877.027C-131.24,877.223 -131.732,877.207 -132.078,876.82C-136.35,872.035 -129.591,855.415 -127.971,850.7C-118.947,824.432 -101.681,799.938 -84.201,778.682C-12.204,691.135 114.16,669.748 216.576,635.976"/>
                </clipPath>
                <g clip-path="url(#_clip8_assassin_cap)">
                    <path d="M-176.602,940.374C-178.213,940.84 -175.082,937.381 -174.2,935.955C-172.298,932.879 -170.513,929.734 -168.591,926.669C-163.2,918.068 -157.598,909.569 -151.933,901.147C-134.797,875.673 -119.856,848.899 -100.262,825.127C-29.429,739.19 52.324,724.443 152.615,692.004C175.362,684.647 197.285,675.586 221.035,672.11C228.691,670.99 239.707,667.917 244.923,675.448C251.074,684.327 243.035,697.371 237.899,704.486C220.572,728.492 193.313,745.797 169.415,762.421C69.196,832.135 -34.752,892.383 -148.491,937.308" style="fill:rgb(109,45,74);fill-opacity:0.7;"/>
                </g>
                <path d="M305.889,636.207C307.855,635.45 301.842,637.378 299.825,637.985C295.615,639.253 291.396,640.488 287.165,641.689C274.859,645.181 262.559,648.577 250.368,652.464C214.126,664.019 180.41,682.675 145.612,697.79C79.739,726.404 4.692,736.119 -52.053,782.996C-72.927,800.24 -92.054,819.189 -106.933,841.835C-111.518,848.815 -124.545,874.319 -130.788,877.027C-131.24,877.223 -131.732,877.207 -132.078,876.82C-136.35,872.035 -129.591,855.415 -127.971,850.7C-118.947,824.432 -101.681,799.938 -84.201,778.682C-12.204,691.135 114.16,669.748 216.576,635.976" style="fill:none;stroke:black;stroke-width:2.1px;"/>
            </g>
            <path d="M294.497,626.912C225.777,645.697 160.401,673.644 93.624,698.852C63.14,710.359 -39.574,753.407 -64.113,775.901C-83.507,793.679 -129.377,885.96 -140.825,908.962C-146.926,921.222 -89.117,913.831 -82.373,926.476C-79.59,931.695 -6.179,929.222 20.652,932.763C114.775,945.183 210.185,942.53 304.67,951.158C324.216,952.943 336.82,957.234 352.146,940.515C364.402,927.145 358.135,854.464 358.651,836.899C361.655,734.642 276.124,684.917 279.816,639.568L294.497,626.912Z" style="fill:none;stroke:black;stroke-width:2.1px;"/>
        </g>
    </g>
    <g transform="matrix(1.00768,0,0,1.00768,-3.07374,-2.63658)">
        <g id="assassin-hoodie-back">
            <path d="M347.931,851.423C327.497,850.574 308.069,845.561 298.998,843.652C275.86,838.784 251.418,834.108 232.75,818.589L231.197,832.074C228.43,828.107 227.729,820.7 225.863,816.15C219.315,800.186 210.475,787.493 197.749,775.879C149.592,731.934 53.529,711.257 70.311,630.128C87.914,545.028 148.001,438.363 204.195,373.549C237.967,334.597 279.868,300.642 333.667,299.659C344.722,299.458 355.728,300.574 366.718,301.764C371.729,300.235 382.163,302.853 387.752,303.806C391.554,304.075 395.358,304.257 399.164,304.3C402.969,304.257 406.772,304.075 410.576,303.806C416.164,302.853 426.599,300.235 431.61,301.764C442.599,300.574 453.605,299.458 464.661,299.659C518.46,300.642 560.36,334.597 594.133,373.549C650.326,438.363 710.414,545.028 728.017,630.128C744.799,711.257 648.736,731.934 600.579,775.879C587.853,787.493 579.013,800.186 572.465,816.15C570.599,820.7 569.897,828.107 567.131,832.074L565.578,818.589C546.909,834.108 522.468,838.784 499.33,843.652C490,845.615 472.35,847.018 451.127,847.86C452.74,833.661 453.505,821.547 462.292,801.682C478.759,764.451 510.327,724.639 517.29,683.896C521.67,658.27 518.713,651.993 507.441,643.62C470.63,616.277 431.161,630.087 400.145,629.505C340.37,628.383 288.92,630.822 275.564,655.511C270.142,665.533 272.976,680.307 276.346,691.148C287.457,726.888 316.703,759.477 332.119,793.273C340.43,811.494 349.516,834.741 347.931,851.423Z" style="fill:rgb(76,40,76);"/>
            <clipPath id="_clip9_assassin_cap">
                <path d="M347.931,851.423C327.497,850.574 308.069,845.561 298.998,843.652C275.86,838.784 251.418,834.108 232.75,818.589L231.197,832.074C228.43,828.107 227.729,820.7 225.863,816.15C219.315,800.186 210.475,787.493 197.749,775.879C149.592,731.934 53.529,711.257 70.311,630.128C87.914,545.028 148.001,438.363 204.195,373.549C237.967,334.597 279.868,300.642 333.667,299.659C344.722,299.458 355.728,300.574 366.718,301.764C371.729,300.235 382.163,302.853 387.752,303.806C391.554,304.075 395.358,304.257 399.164,304.3C402.969,304.257 406.772,304.075 410.576,303.806C416.164,302.853 426.599,300.235 431.61,301.764C442.599,300.574 453.605,299.458 464.661,299.659C518.46,300.642 560.36,334.597 594.133,373.549C650.326,438.363 710.414,545.028 728.017,630.128C744.799,711.257 648.736,731.934 600.579,775.879C587.853,787.493 579.013,800.186 572.465,816.15C570.599,820.7 569.897,828.107 567.131,832.074L565.578,818.589C546.909,834.108 522.468,838.784 499.33,843.652C490,845.615 472.35,847.018 451.127,847.86C452.74,833.661 453.505,821.547 462.292,801.682C478.759,764.451 510.327,724.639 517.29,683.896C521.67,658.27 518.713,651.993 507.441,643.62C470.63,616.277 431.161,630.087 400.145,629.505C340.37,628.383 288.92,630.822 275.564,655.511C270.142,665.533 272.976,680.307 276.346,691.148C287.457,726.888 316.703,759.477 332.119,793.273C340.43,811.494 349.516,834.741 347.931,851.423Z"/>
            </clipPath>
            <g clip-path="url(#_clip9_assassin_cap)">
                <g transform="matrix(0.992376,0,0,0.992376,3.05031,2.61647)">
                    <path d="M416.382,331.951C419.936,323.348 425.187,315.551 432.915,309.16C463.378,283.965 510.881,291.591 544.617,304.711C623.172,335.26 682.171,409.11 698.731,491.082L698.1,527.447C697.122,528.077 697.004,525.393 696.428,524.382C694.849,521.609 693.192,518.88 691.59,516.121C687.376,508.867 683.037,501.686 678.579,494.581C665.721,474.09 651.011,452.906 628.874,441.594C624.273,439.243 608.544,431.918 604.522,439.13C600.541,446.268 611.408,481.759 613.311,489.563C625.282,538.644 647.5,583.747 663.241,631.461C669.508,650.46 677.457,674.616 673.006,694.815C671.368,702.251 667.796,709.016 663.303,715.114C661.283,717.855 659.111,720.479 656.986,723.136C656.965,723.162 656.569,723.612 656.567,723.609C655.966,722.406 663.157,707.041 664.279,702.093C667.716,686.942 665.535,671.645 662.349,656.659C651.463,605.449 624.472,563.158 600.476,517.566C593.383,504.088 586.984,490.172 581.634,475.906C580.979,474.16 578.085,462.315 575.635,462.157C573.721,462.033 573.627,476.446 573.574,477.674C572.84,494.701 573.13,511.97 576.534,528.727C581.645,553.881 593.842,576.023 605.933,598.265C617.175,618.949 622.303,637.695 632.413,661.126C648.281,697.902 624.641,722.989 600.875,758.615C589.298,775.97 582.854,804.296 579.756,814.534C577.505,821.973 534.467,815.939 530.067,813.792C506.738,802.415 442.567,931.948 417.573,924.907C391.561,917.578 418.732,779.095 415.708,740.06C414.645,726.344 425.37,685.095 416.887,671.176C410.44,660.597 407.846,647.775 406.997,634.49C402.048,635.488 397.015,635.945 391.942,635.76C391.009,648.595 388.379,660.936 382.139,671.176C373.656,685.095 397.552,765.092 395.797,778.737C387.751,841.299 410.509,909.4 384.496,916.728C359.502,923.77 295.461,797.368 272.133,808.745C267.732,810.892 221.521,821.973 219.27,814.534C216.172,804.296 209.728,775.97 198.151,758.615C174.385,722.989 150.745,697.902 166.613,661.126C176.723,637.695 181.851,618.949 193.093,598.265C205.183,576.023 217.38,553.881 222.491,528.727C225.896,511.97 226.186,494.701 225.452,477.674C225.399,476.446 225.305,462.033 223.391,462.157C220.941,462.315 218.047,474.16 217.392,475.906C212.042,490.172 205.643,504.088 198.55,517.566C174.554,563.158 147.562,605.449 136.677,656.659C133.491,671.645 131.31,686.942 134.747,702.093C135.869,707.041 143.06,722.406 142.459,723.609C142.457,723.612 142.061,723.162 142.04,723.136C139.914,720.479 137.743,717.855 135.723,715.114C131.23,709.016 127.658,702.251 126.019,694.815C121.569,674.616 129.518,650.46 135.785,631.461C151.526,583.747 173.744,538.644 185.715,489.563C187.618,481.759 198.485,446.268 194.504,439.13C190.482,431.918 174.753,439.243 170.151,441.594C148.015,452.906 133.305,474.09 120.447,494.581C115.988,501.686 111.65,508.867 107.436,516.121C105.834,518.88 104.176,521.609 102.598,524.382C102.022,525.393 101.904,528.077 100.926,527.447L100.295,491.082C116.855,409.11 175.853,335.26 254.408,304.711C288.145,291.591 335.648,283.965 366.11,309.16C375.013,316.522 380.628,325.75 384.147,335.923C394.655,332.597 405.54,331.135 416.382,331.951Z" style="fill:rgb(55,31,55);"/>
                </g>
                <path d="M254.754,221.844C255.764,224.415 247.776,241.453 246.96,244.527C241.233,266.102 236.369,287.902 232.69,309.919C223.819,363.004 218.679,418.091 204.869,470.229C197.072,499.665 184.326,528.564 172.847,556.719C154.135,602.613 114.713,658.504 137.91,709.78" style="fill:none;stroke:black;stroke-width:2.1px;"/>
                <g transform="matrix(-1,0,0,1,799.035,0)">
                    <path d="M254.754,221.844C255.764,224.415 247.776,241.453 246.96,244.527C241.233,266.102 236.369,287.902 232.69,309.919C223.819,363.004 218.679,418.091 204.869,470.229C197.072,499.665 184.326,528.564 172.847,556.719C154.135,602.613 114.713,658.504 137.91,709.78" style="fill:none;stroke:black;stroke-width:2.1px;"/>
                </g>
                <path d="M253.559,492.29C249.407,495.809 238.322,535.082 235.184,542.077C215.094,586.862 175.443,638.597 193.696,690.748" style="fill:none;stroke:black;stroke-width:2.1px;"/>
                <g transform="matrix(-1,0,0,1,799.035,0)">
                    <path d="M253.559,492.29C249.407,495.809 238.322,535.082 235.184,542.077C215.094,586.862 175.443,638.597 193.696,690.748" style="fill:none;stroke:black;stroke-width:2.1px;"/>
                </g>
            </g>
        </g>
    </g>
    <g id="assassin-red-bits" transform="matrix(1.27877,0,0,1.27877,-111.281,-224.822)">
        <g transform="matrix(0.797844,0,0,0.797844,80.7735,108.928)">
            <path d="M406.617,536.005C421.19,535.53 435.793,535.633 450.338,536.628C505.437,540.395 532.169,563.611 579.854,585.035C603.768,595.779 631.134,600.043 652.735,615.401C669.72,627.476 686.127,644.837 698.309,661.716C700.545,664.814 705.415,677.218 705.415,677.218C705.415,677.218 685.168,678.229 676.276,680.353C661.934,683.78 640.699,688.163 626.079,697.977C607.865,710.203 593.245,731.34 574.878,765.623C567.398,779.585 569.595,770.136 565.423,763.969C546.656,736.227 530.078,645.937 515.342,615.897C499.957,584.536 299.162,584.536 283.777,615.897C269.041,645.937 258.075,723.272 239.308,751.014C235.136,757.181 230.732,763.15 226.984,769.605C225.667,771.872 219.358,752.706 210.416,743.311C192.257,724.231 191.253,710.203 173.04,697.977C158.419,688.163 137.185,683.78 122.843,680.353C113.951,678.229 93.704,677.218 93.704,677.218C93.704,677.218 98.574,664.814 100.81,661.716C112.992,644.837 129.399,627.476 146.384,615.401C167.984,600.043 195.351,595.779 219.265,585.035C266.95,563.611 293.682,540.395 348.781,536.628C363.326,535.633 377.929,535.53 392.502,536.005C394.666,535.812 397.318,535.884 399.559,535.975C401.802,535.884 404.454,535.811 406.617,536.005Z" style="fill:rgb(165,35,59);"/>
            <clipPath id="_clip10_assassin_cap">
                <path d="M406.617,536.005C421.19,535.53 435.793,535.633 450.338,536.628C505.437,540.395 532.169,563.611 579.854,585.035C603.768,595.779 631.134,600.043 652.735,615.401C669.72,627.476 686.127,644.837 698.309,661.716C700.545,664.814 705.415,677.218 705.415,677.218C705.415,677.218 685.168,678.229 676.276,680.353C661.934,683.78 640.699,688.163 626.079,697.977C607.865,710.203 593.245,731.34 574.878,765.623C567.398,779.585 569.595,770.136 565.423,763.969C546.656,736.227 530.078,645.937 515.342,615.897C499.957,584.536 299.162,584.536 283.777,615.897C269.041,645.937 258.075,723.272 239.308,751.014C235.136,757.181 230.732,763.15 226.984,769.605C225.667,771.872 219.358,752.706 210.416,743.311C192.257,724.231 191.253,710.203 173.04,697.977C158.419,688.163 137.185,683.78 122.843,680.353C113.951,678.229 93.704,677.218 93.704,677.218C93.704,677.218 98.574,664.814 100.81,661.716C112.992,644.837 129.399,627.476 146.384,615.401C167.984,600.043 195.351,595.779 219.265,585.035C266.95,563.611 293.682,540.395 348.781,536.628C363.326,535.633 377.929,535.53 392.502,536.005C394.666,535.812 397.318,535.884 399.559,535.975C401.802,535.884 404.454,535.811 406.617,536.005Z"/>
            </clipPath>
            <g clip-path="url(#_clip10_assassin_cap)">
                <path d="M233.064,574.572C233.356,574.318 233.485,574.232 233.262,574.508L233.064,574.572C232.538,575.028 231.486,576.028 231.01,576.451C229.334,577.939 227.622,579.384 225.902,580.82C220.981,584.929 216.065,588.99 210.94,592.843C198.348,602.31 183.531,609.271 171.729,619.685C167.431,623.477 161.879,629.762 164.333,635.971C166.905,642.478 176.903,642.13 182.557,641.408C184.578,641.15 190.303,640.562 190.386,640.833C190.61,641.559 185.552,644.055 185.071,644.319C179.053,647.623 173.819,649.285 166.795,648.627C161.93,648.171 157.159,645.634 154.498,641.716C154.243,641.342 151.121,635.945 151.03,635.938C149.624,635.83 145.888,639.878 144.993,640.632C141.434,643.628 137.519,647.315 135.799,649.677C134.209,651.861 130.01,659.157 130.01,659.157C130.01,659.157 141.597,664.161 146.209,666.714C162.529,675.748 179.47,689.193 189.664,704.767C192.12,708.52 194.569,712.296 196.675,716.26C197.087,717.035 198.813,719.505 198.179,720.455C197.736,721.12 196.085,720.568 195.538,720.422C192.682,719.66 190,718.273 187.331,717.035C176.314,711.928 165.171,707.149 153.807,702.862C138.323,697.02 122.486,691.958 106.487,687.723C101.875,686.502 97.191,685.584 92.491,684.776C90.573,684.445 87.543,684.459 86.009,683.054C83.662,680.905 87.369,675.655 88.433,673.792C93.481,664.959 99.854,656.87 106.487,649.185C132.515,619.026 165.661,596.353 203.584,584.071L233.064,574.572ZM567.091,574.572C567.617,575.028 568.669,576.028 569.145,576.451C570.821,577.939 572.533,579.384 574.253,580.82C579.174,584.929 584.09,588.99 589.215,592.843C601.807,602.31 616.624,609.271 628.426,619.685C632.724,623.477 638.276,629.762 635.822,635.971C633.25,642.478 623.252,642.13 617.598,641.408C615.577,641.15 609.852,640.562 609.769,640.833C609.545,641.559 614.603,644.055 615.084,644.319C621.102,647.623 626.336,649.285 633.36,648.627C638.225,648.171 642.996,645.634 645.657,641.716C645.912,641.342 649.034,635.945 649.125,635.938C650.531,635.83 654.267,639.878 655.162,640.632C658.721,643.628 662.636,647.315 664.356,649.677C665.946,651.861 670.144,659.157 670.144,659.157C670.144,659.157 658.558,664.161 653.946,666.714C637.626,675.748 620.685,689.193 610.491,704.767C608.035,708.52 605.586,712.296 603.48,716.26C603.068,717.035 601.342,719.505 601.976,720.455C602.419,721.12 604.07,720.568 604.617,720.422C607.473,719.66 610.155,718.273 612.824,717.035C623.841,711.928 634.984,707.149 646.348,702.862C661.832,697.02 677.669,691.958 693.668,687.723C698.28,686.502 702.964,685.584 707.664,684.776C709.582,684.445 712.612,684.459 714.146,683.054C716.493,680.905 712.786,675.655 711.722,673.792C706.674,664.959 700.301,656.87 693.668,649.185C667.64,619.026 634.494,596.353 596.571,584.071L567.091,574.572C566.799,574.318 566.67,574.232 566.893,574.508L567.091,574.572Z" style="fill:rgb(234,80,108);"/>
                <path d="M399.965,516.261C411.451,516.064 423.556,518.959 434.178,521.203C456.817,525.987 479.332,531.42 501.706,537.319C513.645,540.467 525.562,543.795 537.226,547.858C540.994,549.17 544.732,550.567 548.402,552.135C549.06,552.416 554.726,555.179 554.249,555.279L549.956,559.942C554.522,563.05 559.13,566.091 563.637,569.286C566.002,570.964 568.371,572.645 570.658,574.43C571.654,575.207 580.362,581.329 579.234,583.064C577.991,584.976 568.79,581.619 567.154,581.225C554.963,578.29 544.786,574.983 532.493,572.481C529.191,571.809 518.7,569.36 517.874,570.286C515.622,572.811 526.561,588.75 525.833,591.392C525.192,593.72 514.12,596.242 513.514,597.862C512.353,600.965 520.837,604.181 523.097,604.721C535.387,607.66 547.91,609.255 560.094,612.775C565.284,614.274 570.412,616.028 575.524,617.776C577.176,618.341 583.625,620.993 582.996,620.364C576.84,614.207 563.273,610.812 555.435,607.754C554.709,607.471 546.009,604.698 546.232,603.805C546.465,602.872 550.796,602.58 551.524,602.456C557.519,601.436 563.761,601.328 569.825,601.482C590.135,601.996 609.989,609.178 627.279,619.596C633.009,623.049 643.438,630.649 639.604,638.73C636.65,644.958 625.535,643.347 620.303,642.286C601.189,638.409 583.275,627.518 564.779,621.403C563.124,620.856 541.746,615.045 540.813,615.791C540.722,615.864 548.713,623.399 549.123,623.934C552.837,628.788 557.308,636.069 559.616,641.71C566.714,659.062 567.369,678.698 567.952,697.254C568.057,700.604 571.134,712.524 568.431,715.226C568.29,715.368 566.855,711.669 566.773,711.432C565.943,709.049 565.1,706.666 564.185,704.314C561.262,696.796 557.875,689.411 554.525,682.076C544.478,660.078 532.039,636.15 511.546,622.119C500.05,614.248 486.977,612.939 473.549,610.71C456.932,607.95 440.538,604.994 423.608,605.334C418.897,605.429 414.181,605.518 409.467,605.632C407.532,606.66 403.604,606.04 402.167,605.986C401.433,605.958 400.699,605.932 399.965,605.907C399.231,605.932 398.497,605.958 397.763,605.986C396.325,606.04 392.397,606.66 390.462,605.632C385.749,605.518 381.032,605.429 376.322,605.334C359.391,604.994 342.997,607.95 326.38,610.71C312.952,612.939 299.879,614.248 288.383,622.119C267.89,636.15 255.452,660.078 245.405,682.076C242.055,689.411 238.668,696.796 235.744,704.314C234.83,706.666 233.986,709.049 233.156,711.432C233.074,711.669 231.639,715.368 231.498,715.226C228.795,712.524 231.872,700.604 231.978,697.254C232.561,678.698 233.215,659.062 240.314,641.71C242.622,636.069 247.092,628.788 250.807,623.934C251.216,623.399 259.208,615.864 259.117,615.791C258.184,615.045 236.805,620.856 235.15,621.403C216.654,627.518 198.741,638.409 179.627,642.286C174.395,643.347 163.279,644.958 160.325,638.73C156.492,630.649 166.92,623.049 172.651,619.596C189.94,609.178 209.794,601.996 230.104,601.482C236.168,601.328 242.41,601.436 248.405,602.456C249.133,602.58 253.464,602.872 253.697,603.805C253.92,604.698 245.22,607.471 244.495,607.754C236.656,610.812 223.09,614.207 216.933,620.364C216.304,620.993 222.753,618.341 224.406,617.776C229.517,616.028 234.645,614.274 239.836,612.775C252.02,609.255 264.543,607.66 276.832,604.721C279.092,604.181 287.576,600.965 286.416,597.862C285.81,596.242 274.737,593.72 274.096,591.392C273.369,588.75 284.307,572.811 282.056,570.286C281.229,569.36 270.739,571.809 267.437,572.481C255.143,574.983 244.966,578.29 232.776,581.225C231.14,581.619 221.938,584.976 220.695,583.064C219.568,581.329 228.275,575.207 229.272,574.43C231.559,572.645 233.927,570.964 236.293,569.286C240.799,566.091 245.407,563.05 249.974,559.942L245.681,555.279C245.203,555.179 250.869,552.416 251.527,552.135C255.197,550.567 258.935,549.17 262.703,547.858C274.368,543.795 286.284,540.467 298.223,537.319C320.597,531.42 343.112,525.987 365.751,521.203C376.374,518.959 388.478,516.064 399.965,516.261Z" style="fill:rgb(93,29,66);"/>
                <path d="M252.289,603.655C246.411,602.666 236.931,602.629 230.985,602.652C209.716,602.734 187.764,609.977 170.589,622.536C166.754,625.34 156.521,633.311 160.209,639.458C162.005,642.45 164.697,643.672 167.772,643.855C176.924,644.398 186.344,641.76 194.936,638.896C226.155,628.489 254.921,607.076 289.137,607.527" style="fill:none;stroke:black;stroke-width:2.1px;"/>
                <g transform="matrix(-1,0,0,1,799.7,0)">
                    <path d="M252.289,603.655C246.411,602.666 236.931,602.629 230.985,602.652C209.716,602.734 187.764,609.977 170.589,622.536C166.754,625.34 156.521,633.311 160.209,639.458C162.005,642.45 164.697,643.672 167.772,643.855C176.924,644.398 186.344,641.76 194.936,638.896C226.155,628.489 254.921,607.076 289.137,607.527" style="fill:none;stroke:black;stroke-width:2.1px;"/>
                </g>
                <path d="M399.435,528.875C440.136,528.729 479.406,534.543 517.59,544.889L589.532,574.741L681.974,617.167L710.909,663.997L708.916,698.986L623.975,716.45L590.806,781.893L573.938,786.162C573.938,786.162 562.532,786.602 565.654,775.764C568.776,764.925 594.445,715.948 608.373,703.219C622.301,690.49 654.735,679.391 661.624,677.09C668.513,674.789 692.091,670.681 692.091,670.681C692.091,670.681 690.699,663.079 681.705,652.429C672.711,641.778 658.399,627.133 637.324,614.333C616.249,601.534 597.524,598.418 585.123,593.923C572.723,589.428 546.878,577.325 539.113,571.922C531.347,566.519 520.569,560.046 503.04,554.524C483.602,548.401 475.158,545.469 446.727,544.09C435.527,543.546 417.314,543.426 399.995,542.918C382.677,543.426 365.185,543.337 353.986,543.88C325.555,545.259 314.677,546.768 295.831,554.524C280.23,560.944 267.523,566.519 259.758,571.922C251.992,577.325 226.147,589.428 213.747,593.923C201.347,598.418 182.621,601.534 161.547,614.333C140.472,627.133 126.16,641.778 117.166,652.429C108.171,663.079 106.779,670.681 106.779,670.681C106.779,670.681 130.357,674.789 137.247,677.09C144.136,679.391 181.117,690.126 191.991,705.546C203.484,721.845 227.68,753.141 241.935,786.018C246.422,796.366 224.933,786.162 224.933,786.162L208.065,781.893L174.895,716.45L89.955,698.986L87.962,663.997L116.896,617.167L209.339,574.741L281.28,544.889C319.465,534.543 358.734,528.729 399.435,528.875Z" style="fill:rgb(231,231,231);stroke:black;stroke-width:2.1px;"/>
            </g>
            <path d="M406.617,536.005C421.19,535.53 435.793,535.633 450.338,536.628C505.437,540.395 532.169,563.611 579.854,585.035C603.768,595.779 631.134,600.043 652.735,615.401C669.72,627.476 686.127,644.837 698.309,661.716C700.545,664.814 705.415,677.218 705.415,677.218C705.415,677.218 685.168,678.229 676.276,680.353C661.934,683.78 640.699,688.163 626.079,697.977C607.865,710.203 593.245,731.34 574.878,765.623C567.398,779.585 569.595,770.136 565.423,763.969C546.656,736.227 530.078,645.937 515.342,615.897C499.957,584.536 299.162,584.536 283.777,615.897C269.041,645.937 258.075,723.272 239.308,751.014C235.136,757.181 230.732,763.15 226.984,769.605C225.667,771.872 219.358,752.706 210.416,743.311C192.257,724.231 191.253,710.203 173.04,697.977C158.419,688.163 137.185,683.78 122.843,680.353C113.951,678.229 93.704,677.218 93.704,677.218C93.704,677.218 98.574,664.814 100.81,661.716C112.992,644.837 129.399,627.476 146.384,615.401C167.984,600.043 195.351,595.779 219.265,585.035C266.95,563.611 293.682,540.395 348.781,536.628C363.326,535.633 377.929,535.53 392.502,536.005C394.666,535.812 397.318,535.884 399.559,535.975C401.802,535.884 404.454,535.811 406.617,536.005Z" style="fill:none;stroke:black;stroke-width:2.1px;"/>
        </g>
    </g>
    <g id="accessories-front" style="fill-rule:evenodd;clip-rule:evenodd;stroke-linecap:round;stroke-linejoin:round;stroke-miterlimit:1.5;">
        <g id="assassin-hood" transform="matrix(1.00768,0,0,1.00768,-3.07374,-0.851312)">
            <path id="shadow" d="M400.436,321.557C402.52,316.064 405.101,310.781 408.284,305.847C433.999,265.98 487.923,266.739 525.435,285.342C601.752,323.19 621.46,356.116 653.055,435.489L672.675,478.711C673.536,480.094 674.016,481.131 674.036,481.708L672.675,478.711C669.487,473.584 661.073,463.702 651.53,454.88C639.388,443.654 624,435.308 610.474,425.819C576.604,402.06 539.668,378.061 496.691,382.22C474.644,384.353 453.5,390.572 434.741,402.493C421.199,411.099 400.446,429.386 400.446,429.386L400.436,429.376L400.426,429.386C400.426,429.386 379.672,411.099 366.13,402.493C347.372,390.572 326.228,384.353 304.18,382.22C261.203,378.061 224.267,402.06 190.398,425.819C176.871,435.308 161.483,443.654 149.342,454.88C139.799,463.702 131.385,473.584 128.196,478.711L126.836,481.708C126.855,481.131 127.335,480.094 128.196,478.711L147.817,435.489C179.412,356.116 199.119,323.19 275.436,285.342C312.948,266.739 366.872,265.98 392.587,305.847C395.77,310.781 398.352,316.064 400.436,321.557Z" style="fill:rgb(56,25,57);fill-opacity:0.5;"/>
            <g id="hood">
                <path d="M400.372,21.255C405.747,20.853 418.629,22.853 424.241,23.971C441.903,27.489 490.156,33.165 503.978,44.397C517.8,55.63 579.706,144.931 586.701,157.842C593.696,170.754 600.221,176.51 600.37,185.571C600.518,194.631 618.184,322.813 619.798,337.603C621.411,352.393 661.151,437.91 664.732,450.368C668.313,462.827 690.277,511.301 691.447,513.287C692.617,515.272 703.137,546.142 703.137,546.142C703.137,546.142 664.101,453.993 611.397,394.553C558.693,335.113 535.824,310.458 495.24,313.395C464.688,315.607 425.963,354.334 408.688,373.342L408.688,373.562L399.799,383.705L399.724,383.614L399.649,383.705L390.76,373.562L390.761,373.342C373.485,354.334 334.76,315.607 304.209,313.395C263.625,310.458 240.755,335.113 188.052,394.553C135.348,453.993 96.312,546.142 96.312,546.142C96.312,546.142 106.831,515.272 108.001,513.287C109.171,511.301 131.135,462.827 134.717,450.368C138.298,437.91 178.037,352.393 179.651,337.603C181.265,322.813 198.93,194.631 199.079,185.571C199.227,176.51 205.752,170.754 212.747,157.842C219.742,144.931 281.649,55.63 295.471,44.397C309.293,33.165 357.545,27.489 375.208,23.971C380.819,22.853 394.998,20.853 400.372,21.255Z" style="fill:rgb(231,231,231);"/>
                <clipPath id="_clip11_assassin_cap">
                    <path d="M400.372,21.255C405.747,20.853 418.629,22.853 424.241,23.971C441.903,27.489 490.156,33.165 503.978,44.397C517.8,55.63 579.706,144.931 586.701,157.842C593.696,170.754 600.221,176.51 600.37,185.571C600.518,194.631 618.184,322.813 619.798,337.603C621.411,352.393 661.151,437.91 664.732,450.368C668.313,462.827 690.277,511.301 691.447,513.287C692.617,515.272 703.137,546.142 703.137,546.142C703.137,546.142 664.101,453.993 611.397,394.553C558.693,335.113 535.824,310.458 495.24,313.395C464.688,315.607 425.963,354.334 408.688,373.342L408.688,373.562L399.799,383.705L399.724,383.614L399.649,383.705L390.76,373.562L390.761,373.342C373.485,354.334 334.76,315.607 304.209,313.395C263.625,310.458 240.755,335.113 188.052,394.553C135.348,453.993 96.312,546.142 96.312,546.142C96.312,546.142 106.831,515.272 108.001,513.287C109.171,511.301 131.135,462.827 134.717,450.368C138.298,437.91 178.037,352.393 179.651,337.603C181.265,322.813 198.93,194.631 199.079,185.571C199.227,176.51 205.752,170.754 212.747,157.842C219.742,144.931 281.649,55.63 295.471,44.397C309.293,33.165 357.545,27.489 375.208,23.971C380.819,22.853 394.998,20.853 400.372,21.255Z"/>
                </clipPath>
                <g clip-path="url(#_clip11_assassin_cap)">
                    <path d="M199.858,373.716C200.205,373.801 200.671,369.513 200.771,368.833C201.57,363.394 202.142,357.926 202.852,352.476C204.685,338.402 206.925,324.37 208.88,310.312C212.736,282.578 237.437,265.495 258.929,250.889C264.611,247.027 270.485,243.271 276.69,240.296C277.415,239.949 281.3,237.619 282.125,238.077C282.728,238.412 282.302,241.898 282.302,242.447C282.302,246.999 282.508,251.548 282.425,256.101C282.315,262.145 282.388,268.173 281.541,274.172C281.4,275.171 280.752,279.808 280.752,279.808C280.752,279.808 272.284,284.092 268.679,285.932C261.367,289.663 254.071,294.178 247.76,299.46C245.359,301.47 239.594,308.184 239.715,308.666C239.817,309.076 242.092,307.02 242.759,306.557C244.815,305.129 246.943,303.799 249.088,302.512C257.186,297.653 264.126,292.458 272.55,288.176C274.564,287.152 279.861,285.233 279.978,285.38C280.104,285.537 278.839,293.761 277.683,295.8C276.819,297.325 273.364,299.305 269.668,301.532C262.216,306.024 254.634,311.1 248.088,316.855C244.455,320.049 241.184,323.578 239.356,328.127C237.438,332.901 237.058,338.242 234.157,342.58C225.993,354.79 213.967,364.676 204.664,376.067L199.858,373.716ZM600.204,373.716C599.857,373.801 599.391,369.513 599.291,368.833C598.492,363.394 597.921,357.926 597.21,352.476C595.377,338.402 593.137,324.37 591.182,310.312C587.326,282.578 562.625,265.495 541.133,250.889C535.451,247.027 529.577,243.271 523.372,240.296C522.647,239.949 518.762,237.619 517.938,238.077C517.335,238.412 517.76,241.898 517.76,242.447C517.76,246.999 517.554,251.548 517.637,256.101C517.747,262.145 517.674,268.173 518.521,274.172C518.662,275.171 519.31,279.808 519.31,279.808C519.31,279.808 527.778,284.092 531.383,285.932C538.695,289.663 545.991,294.178 552.302,299.46C554.703,301.47 560.468,308.184 560.347,308.666C560.245,309.076 557.97,307.02 557.303,306.557C555.247,305.129 553.119,303.799 550.974,302.512C542.876,297.653 535.936,292.458 527.512,288.176C525.498,287.152 520.201,285.233 520.084,285.38C519.958,285.537 521.223,293.761 522.379,295.8C523.243,297.325 526.698,299.305 530.394,301.532C537.846,306.024 545.428,311.1 551.974,316.855C555.607,320.049 558.878,323.578 560.706,328.127C562.624,332.901 563.004,338.242 565.905,342.58C574.069,354.79 586.095,364.676 595.398,376.067L600.204,373.716ZM221.048,236.123C221.211,232.246 223.187,227.787 223.984,223.979C229.057,199.744 244.407,177.119 257.187,156.206C261.04,149.9 265.635,144.057 270.958,138.926C271.497,138.406 275.219,134.188 276.047,134.529C276.482,134.708 276.373,137.394 276.413,137.805C276.752,141.296 277.151,144.778 277.522,148.264C277.968,152.446 278.478,156.595 279.206,160.737C279.558,162.739 279.392,166.413 279.392,166.413C279.392,166.413 270.357,181.307 266.686,188.708C265.78,190.535 263.253,194.377 263.456,196.512C263.473,196.69 266.721,192.758 267.594,191.619C270.619,187.674 273.6,183.697 276.759,179.858C276.991,179.577 281.967,174.748 281.967,174.748C281.967,174.748 281.958,178.483 281.944,179.913C281.904,184.001 282.058,188.089 282.058,192.178C282.058,198.413 282.914,216.977 282.914,216.977C282.914,216.977 269.433,225.926 265.281,228.859C253.353,237.283 242.536,248.05 232.992,259.101C225.758,267.478 219.117,276.553 212.707,285.577C211.231,287.656 207.654,294.054 207.35,293.971C206.952,293.863 211.78,277.561 213.183,271.92C214.451,266.821 214.727,260.851 216.664,255.962C220.362,246.629 227.982,237.444 233.696,229.25C236.598,225.089 240.466,219.479 243.502,215.415C243.871,214.921 239.066,217.714 238.667,217.998C231.97,222.761 221.048,236.123 221.048,236.123ZM579.014,236.123C578.851,232.246 576.875,227.787 576.078,223.979C571.005,199.744 555.656,177.119 542.876,156.206C539.022,149.9 534.427,144.057 529.104,138.926C528.565,138.406 524.843,134.188 524.015,134.529C523.58,134.708 523.689,137.394 523.649,137.805C523.31,141.296 522.911,144.778 522.54,148.264C522.094,152.446 521.584,156.595 520.856,160.737C520.504,162.739 520.67,166.413 520.67,166.413C520.67,166.413 529.705,181.307 533.376,188.708C534.282,190.535 536.809,194.377 536.606,196.512C536.589,196.69 533.341,192.758 532.468,191.619C529.443,187.674 526.462,183.697 523.303,179.858C523.071,179.577 518.095,174.748 518.095,174.748C518.095,174.748 518.104,178.483 518.118,179.913C518.158,184.001 518.004,188.089 518.004,192.178C518.004,198.413 517.148,216.977 517.148,216.977C517.148,216.977 530.629,225.926 534.781,228.859C546.709,237.283 557.526,248.05 567.07,259.101C574.305,267.478 580.945,276.553 587.355,285.577C588.831,287.656 592.408,294.054 592.712,293.971C593.11,293.863 588.282,277.561 586.879,271.92C585.611,266.821 585.335,260.851 583.398,255.962C579.7,246.629 572.08,237.444 566.366,229.25C563.464,225.089 559.596,219.479 556.56,215.415C556.191,214.921 560.996,217.714 561.395,217.998C568.092,222.761 579.014,236.123 579.014,236.123ZM274.987,93.914C274.853,95.051 267.371,104.968 264.905,108.682C257.638,119.629 251.843,132.02 247.044,144.227C244.187,151.495 241.307,158.848 238.988,166.31C238.227,168.761 236.039,177.582 236.039,177.582C236.039,177.582 240.035,170.322 240.342,169.83C245.516,161.552 251.084,154.942 258.497,146.702C265.425,139.001 275.449,130.888 275.449,130.888C274.102,119.187 273.998,106.836 274.987,93.914ZM525.075,93.914C525.209,95.051 532.691,104.968 535.157,108.682C542.424,119.629 548.219,132.02 553.018,144.227C555.875,151.495 558.755,158.848 561.074,166.31C561.835,168.761 564.024,177.582 564.024,177.582C564.024,177.582 560.027,170.322 559.72,169.83C554.546,161.552 548.978,154.942 541.565,146.702C534.637,139.001 524.613,130.888 524.613,130.888C525.96,119.187 526.064,106.836 525.075,93.914Z" style="fill:rgb(173,144,174);"/>
                    <path d="M400.031,4.796C415.986,4.754 432.405,7.153 447.784,10.295C473.638,15.577 499.074,23.837 521.137,38.672C557.549,63.155 580.984,100.7 599.902,139.383C624.449,189.578 643.207,242.882 660.899,295.816C670.81,325.471 679.816,355.42 688.265,385.522C701.509,432.704 714.406,480.034 726.796,527.449C729.738,538.707 732.841,550.201 734.006,561.815C734.268,564.433 735.349,570.71 732.324,572.388C726.438,575.653 714.723,560.318 711.814,557.067C693.399,536.482 679.804,511.837 668.144,486.948C644.989,437.519 616.312,367.941 606.224,313.75C600.268,281.761 595.996,249.414 591.039,217.26C588.789,202.663 588.512,184.497 582.574,170.755C576.909,157.644 567.612,145.641 560.028,133.617C554.805,125.335 549.375,117.097 543.509,109.253C539.696,104.154 535.588,99.227 531.522,94.328C529.889,92.361 517.992,75.237 517.709,75.254C517.503,75.266 517.372,75.425 517.312,75.608C515.498,81.047 517.277,89.489 517.377,95.086C517.377,95.108 517.391,95.898 517.391,95.916C517.395,96.351 517.391,96.787 517.391,97.222L517.391,98.117C517.391,113.114 516.146,128.153 514.324,143.035C513.71,148.045 514.414,159.84 510.954,163.949C510.933,163.974 510.874,164.022 510.838,164.029C510.239,164.141 509.947,157.558 509.922,157.064C509.529,149.468 509.677,141.846 510.059,134.252C510.924,117.05 510.824,101.038 507.807,84.037C506.989,79.423 506.953,71.162 503.903,67.265C499.592,61.757 487.249,59.492 481.271,57.385C459.789,49.815 438.154,43.971 415.424,41.782C415.032,41.744 407.545,41.179 400.166,41.179C392.553,41.178 385.042,41.743 384.638,41.782C361.908,43.971 340.273,49.815 318.791,57.385C312.813,59.492 300.47,61.757 296.159,67.265C293.109,71.162 293.073,79.423 292.255,84.037C289.238,101.038 289.138,117.05 290.003,134.252C290.385,141.846 290.533,149.468 290.14,157.064C290.115,157.558 289.823,164.141 289.224,164.029C289.188,164.022 289.129,163.974 289.108,163.949C285.648,159.84 286.352,148.045 285.738,143.035C283.916,128.153 282.671,113.114 282.671,98.117L282.671,97.222C282.671,96.787 282.667,96.351 282.671,95.916C282.671,95.898 282.685,95.108 282.685,95.086C282.785,89.489 284.564,81.047 282.75,75.608C282.69,75.425 282.559,75.266 282.353,75.254C282.07,75.237 270.173,92.361 268.54,94.328C264.474,99.227 260.366,104.154 256.553,109.253C250.687,117.097 245.257,125.335 240.034,133.617C232.45,145.641 223.153,157.644 217.488,170.755C211.55,184.497 211.273,202.663 209.023,217.26C204.066,249.414 199.794,281.761 193.838,313.75C183.75,367.941 155.073,437.519 131.918,486.948C120.258,511.837 106.663,536.482 88.248,557.067C85.339,560.318 73.624,575.653 67.738,572.388C64.713,570.71 65.794,564.433 66.056,561.815C67.221,550.201 70.324,538.707 73.266,527.449C85.656,480.034 98.554,432.704 111.797,385.522C120.246,355.42 129.252,325.471 139.163,295.816C156.855,242.882 175.613,189.578 200.16,139.383C219.078,100.7 242.513,63.155 278.925,38.672C300.988,23.837 326.424,15.577 352.278,10.295C367.657,7.153 384.076,4.754 400.031,4.796Z" style="fill:white;"/>
                    <g id="lines">
                        <path d="M290.374,50.768C289.351,50.666 287.238,62.051 287.044,62.972C284.293,76.067 284.419,89.428 282.891,102.672" style="fill:none;stroke:black;stroke-width:2.1px;"/>
                        <g transform="matrix(-1,0,0,1,800.391,0)">
                            <path d="M290.374,50.768C289.351,50.666 287.238,62.051 287.044,62.972C284.293,76.067 284.419,89.428 282.891,102.672" style="fill:none;stroke:black;stroke-width:2.1px;"/>
                        </g>
                        <path d="M283.683,122.354C283.878,122.419 284.159,126.881 284.226,127.334C285.04,132.831 285.902,138.311 286.904,143.777C291.458,168.618 289.495,193.418 289.495,218.484" style="fill:none;stroke:black;stroke-width:2.1px;"/>
                        <g transform="matrix(-1,0,0,1,800.129,0)">
                            <path d="M283.683,122.354C283.878,122.419 284.159,126.881 284.226,127.334C285.04,132.831 285.902,138.311 286.904,143.777C291.458,168.618 289.495,193.418 289.495,218.484" style="fill:none;stroke:black;stroke-width:2.1px;"/>
                        </g>
                        <path d="M304.001,113.979C303.994,113.935 300.136,116.507 299.9,116.684C297.279,118.659 294.748,120.747 292.092,122.677C284.24,128.381 275.971,133.39 268.837,140.038C256.816,151.241 248.861,167.283 241.241,181.584C232.108,198.727 222.559,215.745 213.979,233.173" style="fill:none;stroke:black;stroke-width:2.1px;"/>
                        <g transform="matrix(-1,0,0,1,800.129,0)">
                            <path d="M304.001,113.979C303.994,113.935 300.136,116.507 299.9,116.684C297.279,118.659 294.748,120.747 292.092,122.677C284.24,128.381 275.971,133.39 268.837,140.038C256.816,151.241 248.861,167.283 241.241,181.584C232.108,198.727 222.559,215.745 213.979,233.173" style="fill:none;stroke:black;stroke-width:2.1px;"/>
                        </g>
                        <path d="M306.848,152.46C306.842,152.442 302.932,155.285 302.714,155.46C300.037,157.622 297.407,159.841 294.806,162.093C282.854,172.442 271.826,182.64 263.983,196.532" style="fill:none;stroke:black;stroke-width:2.1px;"/>
                        <g transform="matrix(-1,0,0,1,800.129,0)">
                            <path d="M306.848,152.46C306.842,152.442 302.932,155.285 302.714,155.46C300.037,157.622 297.407,159.841 294.806,162.093C282.854,172.442 271.826,182.64 263.983,196.532" style="fill:none;stroke:black;stroke-width:2.1px;"/>
                        </g>
                        <path d="M256.984,233.32C256.615,233.121 252.15,238.382 251.831,238.721C246.058,244.871 240.292,251.019 234.546,257.192C209.37,284.239 193.816,315.637 175.978,347.598" style="fill:none;stroke:black;stroke-width:2.1px;"/>
                        <g transform="matrix(-1,0,0,1,800.129,0)">
                            <path d="M256.984,233.32C256.615,233.121 252.15,238.382 251.831,238.721C246.058,244.871 240.292,251.019 234.546,257.192C209.37,284.239 193.816,315.637 175.978,347.598" style="fill:none;stroke:black;stroke-width:2.1px;"/>
                        </g>
                        <path d="M281.006,227.035C280.979,227 302.949,217.302 307.618,215.575C321.635,210.391 354.026,199.312 397.357,200.033C436.324,200.681 462.531,203.839 517.623,226.436" style="fill:none;stroke:black;stroke-width:2.1px;"/>
                    </g>
                </g>
                <path d="M400.372,21.255C405.747,20.853 418.629,22.853 424.241,23.971C441.903,27.489 490.156,33.165 503.978,44.397C517.8,55.63 579.706,144.931 586.701,157.842C593.696,170.754 600.221,176.51 600.37,185.571C600.518,194.631 618.184,322.813 619.798,337.603C621.411,352.393 661.151,437.91 664.732,450.368C668.313,462.827 690.277,511.301 691.447,513.287C692.617,515.272 703.137,546.142 703.137,546.142C703.137,546.142 664.101,453.993 611.397,394.553C558.693,335.113 535.824,310.458 495.24,313.395C464.688,315.607 425.963,354.334 408.688,373.342L408.688,373.562L399.799,383.705L399.724,383.614L399.649,383.705L390.76,373.562L390.761,373.342C373.485,354.334 334.76,315.607 304.209,313.395C263.625,310.458 240.755,335.113 188.052,394.553C135.348,453.993 96.312,546.142 96.312,546.142C96.312,546.142 106.831,515.272 108.001,513.287C109.171,511.301 131.135,462.827 134.717,450.368C138.298,437.91 178.037,352.393 179.651,337.603C181.265,322.813 198.93,194.631 199.079,185.571C199.227,176.51 205.752,170.754 212.747,157.842C219.742,144.931 281.649,55.63 295.471,44.397C309.293,33.165 357.545,27.489 375.208,23.971C380.819,22.853 394.998,20.853 400.372,21.255Z" style="fill:none;stroke:black;stroke-width:2.1px;"/>
                <path d="M400.098,279.679L373.525,308.661L393.973,329.71L371.975,349.951L399.333,379.492L427.08,348.71L405.744,330.016L426.048,308.802L400.098,279.679ZM399.767,333.82L383.791,349.518L399.683,366.869L416.671,349.206L399.767,333.82ZM400.137,288.892L382.636,307.79L399.579,325.492L416.587,308.389L400.137,288.892Z" style="fill:rgb(236,72,102);stroke:black;stroke-width:2.1px;"/>
                <path d="M399.787,376.652C403.857,371.906 428.286,343.956 440.636,334.298C454.151,323.729 474.66,307.747 502.775,308.583C530.89,309.418 561.352,331.006 585.682,357.323C610.013,383.641 656.5,449.105 673.425,478.602C690.351,508.099 712.963,564.272 718.172,578.701C723.381,593.13 738.167,629.586 733.576,656.655C728.985,683.725 711.519,703.586 696.588,718.36C681.657,733.134 619.884,766.16 616.964,767.98C614.045,769.8 588.055,790.012 585.964,804.177C556.164,838.039 572.638,798.215 572.638,798.215C572.638,798.215 583.324,776.598 632.021,748.109C681.904,718.926 693.312,718.308 710.535,688.017C727.757,657.727 735.419,633.803 706.461,567.275C677.504,500.747 664.914,478.172 629.548,422.218C594.181,366.263 547.314,334.647 532.7,326.907C518.085,319.167 490.258,311.485 456.432,335.674C425.522,357.778 403.186,386.202 399.679,390.928C399.679,390.928 374.637,357.778 343.727,335.674C309.901,311.485 282.074,319.167 267.459,326.907C252.844,334.647 205.978,366.263 170.611,422.218C135.244,478.172 122.655,500.747 93.697,567.275C64.74,633.803 72.402,657.727 89.624,688.017C106.847,718.308 118.236,715.231 166.725,746.674C208.71,773.9 218.364,789.6 218.364,789.6C218.364,789.6 258.181,846.926 217.5,813.402C207.976,786.69 186.114,769.8 183.195,767.98C180.275,766.16 118.502,733.134 103.571,718.36C88.639,703.586 71.173,683.725 66.583,656.655C61.992,629.586 76.778,593.13 81.987,578.701C87.196,564.272 109.808,508.099 126.733,478.602C143.659,449.105 190.146,383.641 214.476,357.323C238.807,331.006 269.269,309.418 297.384,308.583C325.499,307.747 346.007,323.729 359.523,334.298C371.873,343.956 395.718,371.906 399.787,376.652Z" style="fill:rgb(236,72,102);stroke:black;stroke-width:2.1px;"/>
            </g>
        </g>
        <g id="assassin-collar" transform="matrix(1.00011,0,0,1.00011,0.063239,-78.0505)">
            <g id="shadow1" transform="matrix(1.00956,0,0,1.00956,-3.82008,90.1193)">
                <path d="M523.491,516.414C523.491,516.414 516.544,539.355 512.688,548.932C505.349,567.16 490.197,581.282 479.33,597.392C458.487,628.291 434.088,660.669 427.688,711.096C424.241,738.253 414.5,788.413 415.187,809.358C415.634,823 424.221,817.385 426.977,830.755C427.726,834.39 431.006,821.743 434.098,824.44C435.87,825.986 438.537,821.16 439.151,820.163C442.827,814.201 445.788,807.678 448.627,801.289C461.237,772.918 467.445,742.794 475.009,712.836C478.867,697.554 483.327,682.458 488.778,667.663C492.48,657.614 496.49,647.689 500.603,637.802C503.762,630.212 507.006,622.657 510.153,615.062C521.809,586.929 548.03,543.407 523.491,516.414ZM275.237,516.414C275.237,516.414 282.184,539.355 286.04,548.932C293.379,567.16 308.531,581.282 319.398,597.392C340.241,628.291 364.64,660.669 371.04,711.096C374.487,738.253 384.228,788.413 383.541,809.358C383.094,823 374.507,817.385 371.751,830.755C371.002,834.39 367.722,821.743 364.63,824.44C362.859,825.986 360.192,821.16 359.577,820.163C355.901,814.201 352.94,807.678 350.101,801.289C337.491,772.918 331.283,742.794 323.719,712.836C319.861,697.554 315.401,682.458 309.95,667.663C306.248,657.614 302.238,647.689 298.125,637.802C294.967,630.212 291.722,622.657 288.576,615.062C276.919,586.929 250.698,543.407 275.237,516.414Z" style="fill:rgb(56,25,57);fill-opacity:0.5;"/>
            </g>
            <g id="collar">
                <g transform="matrix(1,0,0,1,-0.246501,0)">
                    <path d="M280.908,658.174C284.689,663.042 286.531,671.551 289.302,677.108C296.497,691.536 304.36,705.589 312.339,719.593C346.6,779.73 368.233,797.056 376.537,868.529C378.483,885.28 377.362,902.802 379.281,919.556C379.444,920.975 382.048,933.92 380.277,934.628C379.057,935.116 315.565,942.952 312.501,928.443C306.464,899.846 261.29,842.527 243.578,816.25C220.782,782.43 233.659,749.989 257.185,678.569L280.908,658.174Z" style="fill:rgb(231,231,231);"/>
                    <clipPath id="_clip12_assassin_cap">
                        <path d="M280.908,658.174C284.689,663.042 286.531,671.551 289.302,677.108C296.497,691.536 304.36,705.589 312.339,719.593C346.6,779.73 368.233,797.056 376.537,868.529C378.483,885.28 377.362,902.802 379.281,919.556C379.444,920.975 382.048,933.92 380.277,934.628C379.057,935.116 315.565,942.952 312.501,928.443C306.464,899.846 261.29,842.527 243.578,816.25C220.782,782.43 233.659,749.989 257.185,678.569L280.908,658.174Z"/>
                    </clipPath>
                    <g clip-path="url(#_clip12_assassin_cap)">
                        <g transform="matrix(-0.854447,0,0,0.854447,740.621,167.596)">
                            <path d="M533.734,660.01C533.051,659.253 542.09,681.182 543.528,687.644C547.675,706.277 541.375,726.212 535.435,744.178C527.205,769.071 476.02,860.945 461.783,882.696C456.302,891.07 450.482,899.19 444.514,907.222C443.883,908.071 438.428,914.389 441.065,915.173C445.922,916.617 454.627,910.504 458.597,908.484C473.52,900.89 488.528,892.359 501.529,881.733C530.664,857.921 589.578,763.937 600.675,728.036C603.848,717.769 609.651,707.863 607.209,696.778C603.718,680.934 588.678,666.442 577.858,655.125" style="fill:rgb(165,35,59);stroke:black;stroke-width:2.1px;"/>
                        </g>
                        <g transform="matrix(-0.854447,0,0,0.854447,740.621,167.596)">
                            <path d="M622.443,691.318C587.972,719.183 585.29,748.643 556.114,781.531C546.198,792.707 514.966,841.412 499.818,869.072C485.336,895.515 470.043,926.046 471.011,927.782C473.654,932.523 489.693,927.581 495.399,922.731C503.655,915.715 512.829,857.846 521.25,851.058C551.594,826.593 593.431,760.703 610.428,727.62C617.865,713.144 633.801,707.044 622.443,691.318Z" style="fill:rgb(231,231,231);stroke:black;stroke-width:2.1px;"/>
                        </g>
                        <g transform="matrix(-0.854447,0,0,0.854447,740.621,167.596)">
                            <path d="M614.185,767.953C610.3,770.7 593.293,763.014 589.554,761.875C566.396,754.822 544.748,747.091 520.162,746.814C489.141,746.464 462.11,753.814 441.514,778.215C433.286,787.962 426.978,799.254 421.875,810.903C421.166,812.522 418.483,821.721 415.968,821.592C415.369,821.561 415.204,820.633 415.124,820.194C413.664,812.163 417.294,801.65 419.028,793.933C419.146,793.407 419.266,792.881 419.386,792.356C425.945,763.758 438.372,737.596 461.63,718.771C492.426,693.844 539.575,679.697 575.012,703.803C589.167,713.432 598.887,728.487 607.53,742.927" style="fill:rgb(76,13,78);fill-opacity:0.5;"/>
                        </g>
                    </g>
                    <path d="M280.908,658.174C284.689,663.042 286.531,671.551 289.302,677.108C296.497,691.536 304.36,705.589 312.339,719.593C346.6,779.73 368.233,797.056 376.537,868.529C378.483,885.28 377.362,902.802 379.281,919.556C379.444,920.975 382.048,933.92 380.277,934.628C379.057,935.116 315.565,942.952 312.501,928.443C306.464,899.846 261.29,842.527 243.578,816.25C220.782,782.43 233.659,749.989 257.185,678.569L280.908,658.174Z" style="fill:none;stroke:black;stroke-width:2.1px;"/>
                </g>
                <g transform="matrix(-1,0,0,1,799.269,0)">
                    <path d="M280.908,658.174C284.689,663.042 286.531,671.551 289.302,677.108C296.497,691.536 304.36,705.589 312.339,719.593C346.6,779.73 368.233,797.056 376.537,868.529C378.483,885.28 377.362,902.802 379.281,919.556C379.444,920.975 382.048,933.92 380.277,934.628C379.057,935.116 315.565,942.952 312.501,928.443C306.464,899.846 261.29,842.527 243.578,816.25C220.782,782.43 233.659,749.989 257.185,678.569L280.908,658.174Z" style="fill:rgb(231,231,231);"/>
                    <clipPath id="_clip13_assassin_cap">
                        <path d="M280.908,658.174C284.689,663.042 286.531,671.551 289.302,677.108C296.497,691.536 304.36,705.589 312.339,719.593C346.6,779.73 368.233,797.056 376.537,868.529C378.483,885.28 377.362,902.802 379.281,919.556C379.444,920.975 382.048,933.92 380.277,934.628C379.057,935.116 315.565,942.952 312.501,928.443C306.464,899.846 261.29,842.527 243.578,816.25C220.782,782.43 233.659,749.989 257.185,678.569L280.908,658.174Z"/>
                    </clipPath>
                    <g clip-path="url(#_clip13_assassin_cap)">
                        <g transform="matrix(-0.854447,0,0,0.854447,740.621,167.596)">
                            <path d="M533.734,660.01C533.051,659.253 542.09,681.182 543.528,687.644C547.675,706.277 541.375,726.212 535.435,744.178C527.205,769.071 476.02,860.945 461.783,882.696C456.302,891.07 450.482,899.19 444.514,907.222C443.883,908.071 438.428,914.389 441.065,915.173C445.922,916.617 454.627,910.504 458.597,908.484C473.52,900.89 488.528,892.359 501.529,881.733C530.664,857.921 589.578,763.937 600.675,728.036C603.848,717.769 609.651,707.863 607.209,696.778C603.718,680.934 588.678,666.442 577.858,655.125" style="fill:rgb(165,35,59);stroke:black;stroke-width:2.1px;"/>
                        </g>
                        <g transform="matrix(-0.854447,0,0,0.854447,740.621,167.596)">
                            <path d="M622.443,691.318C587.972,719.183 585.29,748.643 556.114,781.531C546.198,792.707 514.966,841.412 499.818,869.072C485.336,895.515 470.043,926.046 471.011,927.782C473.654,932.523 489.693,927.581 495.399,922.731C503.655,915.715 512.829,857.846 521.25,851.058C551.594,826.593 593.431,760.703 610.428,727.62C617.865,713.144 633.801,707.044 622.443,691.318Z" style="fill:rgb(231,231,231);stroke:black;stroke-width:2.1px;"/>
                        </g>
                        <g transform="matrix(-0.854447,0,0,0.854447,740.621,167.596)">
                            <path d="M614.185,767.953C610.3,770.7 593.293,763.014 589.554,761.875C566.396,754.822 544.748,747.091 520.162,746.814C489.141,746.464 462.11,753.814 441.514,778.215C433.286,787.962 426.978,799.254 421.875,810.903C421.166,812.522 418.483,821.721 415.968,821.592C415.369,821.561 415.204,820.633 415.124,820.194C413.664,812.163 417.294,801.65 419.028,793.933C419.146,793.407 419.266,792.881 419.386,792.356C425.945,763.758 438.372,737.596 461.63,718.771C492.426,693.844 539.575,679.697 575.012,703.803C589.167,713.432 598.887,728.487 607.53,742.927" style="fill:rgb(76,13,78);fill-opacity:0.5;"/>
                        </g>
                    </g>
                    <path d="M280.908,658.174C284.689,663.042 286.531,671.551 289.302,677.108C296.497,691.536 304.36,705.589 312.339,719.593C346.6,779.73 368.233,797.056 376.537,868.529C378.483,885.28 377.362,902.802 379.281,919.556C379.444,920.975 382.048,933.92 380.277,934.628C379.057,935.116 315.565,942.952 312.501,928.443C306.464,899.846 261.29,842.527 243.578,816.25C220.782,782.43 233.659,749.989 257.185,678.569L280.908,658.174Z" style="fill:none;stroke:black;stroke-width:2.1px;"/>
                </g>
                <g transform="matrix(-1,0,0,1,799.422,0)">
                    <path d="M274.459,608.159C274.459,608.159 266.006,609.898 250.473,639.285C234.939,668.672 231.64,707.449 227.196,727.206C222.752,746.964 208.067,803.089 202.633,811.867C197.198,820.644 193.267,828.004 193.267,828.004C193.267,828.004 217.496,824.198 226.938,815.287C236.38,806.377 245.384,794.345 254.937,788.329C264.49,782.314 274.754,775.339 292.195,775.526C309.635,775.712 325.821,777.709 341.259,787.677C356.697,797.646 367.645,820.734 367.645,820.734C367.645,820.734 362.609,774.991 353.387,756.877C344.165,738.763 329.64,713.057 323.57,704.367C317.5,695.676 293.33,666.438 288.697,657.133C283.445,646.586 277.357,633.565 274.459,608.159Z" style="fill:rgb(231,231,231);"/>
                    <clipPath id="_clip14_assassin_cap">
                        <path d="M274.459,608.159C274.459,608.159 266.006,609.898 250.473,639.285C234.939,668.672 231.64,707.449 227.196,727.206C222.752,746.964 208.067,803.089 202.633,811.867C197.198,820.644 193.267,828.004 193.267,828.004C193.267,828.004 217.496,824.198 226.938,815.287C236.38,806.377 245.384,794.345 254.937,788.329C264.49,782.314 274.754,775.339 292.195,775.526C309.635,775.712 325.821,777.709 341.259,787.677C356.697,797.646 367.645,820.734 367.645,820.734C367.645,820.734 362.609,774.991 353.387,756.877C344.165,738.763 329.64,713.057 323.57,704.367C317.5,695.676 293.33,666.438 288.697,657.133C283.445,646.586 277.357,633.565 274.459,608.159Z"/>
                    </clipPath>
                    <g clip-path="url(#_clip14_assassin_cap)">
                        <path d="M212.024,736.163C213.819,727.509 225.282,713.082 230.03,705.409C237.192,693.835 246.229,666.747 260.288,662.856C270.679,659.98 278.139,670.796 281.854,678.65C286.234,687.91 289.997,697.244 295.435,705.989C304.964,721.311 316.594,736.324 320.412,754.348C320.75,755.944 321.074,757.552 321.35,759.16C322.43,765.433 320.636,766.014 314.364,766.014C312.422,766.014 310.481,766.093 308.542,766.191C304.156,766.412 299.805,767.001 295.48,767.747C280.276,770.368 265.25,775.523 253.919,786.361C249.826,790.276 246.601,794.998 243.429,799.661C242.704,800.726 240.039,803.579 240.405,805.041C240.708,806.253 244.356,804.388 244.836,804.175C249.645,802.037 254.173,799.287 258.93,797.034C270.935,791.347 283.346,787.844 296.688,787.619C313.36,787.338 330.129,791.457 344.065,800.748C346.229,802.191 356.222,808.948 359.02,804.55C360.133,802.801 358.619,799.847 357.977,798.204C355.744,792.491 352.378,787.263 350.113,781.521C346.195,771.592 343.854,761.107 339.76,751.23C334.193,737.797 326.631,725.028 320.258,711.96C309.091,689.063 295.973,667.927 294.53,641.808C293.934,631.014 295.696,620.635 297.372,610.027C297.977,606.205 299.441,599.719 296.644,596.396C292.904,591.954 285.704,593.43 280.966,594.746C267.657,598.443 255.483,606.73 245.774,616.395C238.361,623.775 232.275,632.485 227.259,641.643C218.407,657.806 213.824,675.68 210.312,693.638" style="fill:rgb(173,144,174);"/>
                        <path d="M241.609,658.712C240.261,658.002 240.85,661.664 240.516,663.151C239.85,666.122 239.176,669.095 238.581,672.082C236.794,681.052 235.488,690.129 234.631,699.235C231.771,729.624 224.975,760.95 217.039,790.389C215.928,794.508 210.534,818.119 205.662,818.119C191.906,818.119 198.134,791.831 199.365,784.889C205.164,752.183 215.539,717.94 228.61,687.318" style="fill:rgb(231,231,231);"/>
                    </g>
                    <path d="M274.459,608.159C274.459,608.159 266.006,609.898 250.473,639.285C234.939,668.672 231.64,707.449 227.196,727.206C222.752,746.964 208.067,803.089 202.633,811.867C197.198,820.644 193.267,828.004 193.267,828.004C193.267,828.004 217.496,824.198 226.938,815.287C236.38,806.377 245.384,794.345 254.937,788.329C264.49,782.314 274.754,775.339 292.195,775.526C309.635,775.712 325.821,777.709 341.259,787.677C356.697,797.646 367.645,820.734 367.645,820.734C367.645,820.734 362.609,774.991 353.387,756.877C344.165,738.763 329.64,713.057 323.57,704.367C317.5,695.676 293.33,666.438 288.697,657.133C283.445,646.586 277.357,633.565 274.459,608.159Z" style="fill:none;stroke:black;stroke-width:2.1px;"/>
                </g>
                <g transform="matrix(1,0,0,1,-0.802754,0)">
                    <path d="M274.459,608.159C274.459,608.159 266.006,609.898 250.473,639.285C234.939,668.672 231.64,707.449 227.196,727.206C222.752,746.964 208.067,803.089 202.633,811.867C197.198,820.644 193.267,828.004 193.267,828.004C193.267,828.004 217.496,824.198 226.938,815.287C236.38,806.377 245.384,794.345 254.937,788.329C264.49,782.314 274.754,775.339 292.195,775.526C309.635,775.712 325.821,777.709 341.259,787.677C356.697,797.646 367.645,820.734 367.645,820.734C367.645,820.734 362.609,774.991 353.387,756.877C344.165,738.763 329.64,713.057 323.57,704.367C317.5,695.676 293.33,666.438 288.697,657.133C283.445,646.586 277.357,633.565 274.459,608.159Z" style="fill:rgb(231,231,231);"/>
                    <clipPath id="_clip15_assassin_cap">
                        <path d="M274.459,608.159C274.459,608.159 266.006,609.898 250.473,639.285C234.939,668.672 231.64,707.449 227.196,727.206C222.752,746.964 208.067,803.089 202.633,811.867C197.198,820.644 193.267,828.004 193.267,828.004C193.267,828.004 217.496,824.198 226.938,815.287C236.38,806.377 245.384,794.345 254.937,788.329C264.49,782.314 274.754,775.339 292.195,775.526C309.635,775.712 325.821,777.709 341.259,787.677C356.697,797.646 367.645,820.734 367.645,820.734C367.645,820.734 362.609,774.991 353.387,756.877C344.165,738.763 329.64,713.057 323.57,704.367C317.5,695.676 293.33,666.438 288.697,657.133C283.445,646.586 277.357,633.565 274.459,608.159Z"/>
                    </clipPath>
                    <g clip-path="url(#_clip15_assassin_cap)">
                        <path d="M212.024,736.163C213.819,727.509 225.282,713.082 230.03,705.409C237.192,693.835 246.229,666.747 260.288,662.856C270.679,659.98 278.139,670.796 281.854,678.65C286.234,687.91 289.997,697.244 295.435,705.989C304.964,721.311 316.594,736.324 320.412,754.348C320.75,755.944 321.074,757.552 321.35,759.16C322.43,765.433 320.636,766.014 314.364,766.014C312.422,766.014 310.481,766.093 308.542,766.191C304.156,766.412 299.805,767.001 295.48,767.747C280.276,770.368 265.25,775.523 253.919,786.361C249.826,790.276 246.601,794.998 243.429,799.661C242.704,800.726 240.039,803.579 240.405,805.041C240.708,806.253 244.356,804.388 244.836,804.175C249.645,802.037 254.173,799.287 258.93,797.034C270.935,791.347 283.346,787.844 296.688,787.619C313.36,787.338 330.129,791.457 344.065,800.748C346.229,802.191 356.222,808.948 359.02,804.55C360.133,802.801 358.619,799.847 357.977,798.204C355.744,792.491 352.378,787.263 350.113,781.521C346.195,771.592 343.854,761.107 339.76,751.23C334.193,737.797 326.631,725.028 320.258,711.96C309.091,689.063 295.973,667.927 294.53,641.808C293.934,631.014 295.696,620.635 297.372,610.027C297.977,606.205 299.441,599.719 296.644,596.396C292.904,591.954 285.704,593.43 280.966,594.746C267.657,598.443 255.483,606.73 245.774,616.395C238.361,623.775 232.275,632.485 227.259,641.643C218.407,657.806 213.824,675.68 210.312,693.638" style="fill:rgb(173,144,174);"/>
                        <path d="M241.609,658.712C240.261,658.002 240.85,661.664 240.516,663.151C239.85,666.122 239.176,669.095 238.581,672.082C236.794,681.052 235.488,690.129 234.631,699.235C231.771,729.624 224.975,760.95 217.039,790.389C215.928,794.508 210.534,818.119 205.662,818.119C191.906,818.119 198.134,791.831 199.365,784.889C205.164,752.183 215.539,717.94 228.61,687.318" style="fill:rgb(231,231,231);"/>
                    </g>
                    <path d="M274.459,608.159C274.459,608.159 266.006,609.898 250.473,639.285C234.939,668.672 231.64,707.449 227.196,727.206C222.752,746.964 208.067,803.089 202.633,811.867C197.198,820.644 193.267,828.004 193.267,828.004C193.267,828.004 217.496,824.198 226.938,815.287C236.38,806.377 245.384,794.345 254.937,788.329C264.49,782.314 274.754,775.339 292.195,775.526C309.635,775.712 325.821,777.709 341.259,787.677C356.697,797.646 367.645,820.734 367.645,820.734C367.645,820.734 362.609,774.991 353.387,756.877C344.165,738.763 329.64,713.057 323.57,704.367C317.5,695.676 293.33,666.438 288.697,657.133C283.445,646.586 277.357,633.565 274.459,608.159Z" style="fill:none;stroke:black;stroke-width:2.1px;"/>
                </g>
            </g>
        </g>
    </g>
</svg>