<svg viewBox="0 0 800 800" xmlns="http://www.w3.org/2000/svg">
  <g transform="matrix(0.88685,0,0,0.88685,45.1133,44.9531)">
    <g id="torso">
      <g id="torso-3">
        <g transform="matrix(1.12759,0,0,1.12759,-50.8692,-50.6885)">
          <path
            d="M399.469,520.176C439.826,519.743 478.251,518.933 494.337,518.044L549.012,543.586C546.991,543.586 665.828,593.164 696.294,612.781C715.729,625.295 776.624,661.168 784.562,668.791C843.793,725.672 885.432,830.862 863.979,845.54C851.184,854.295 767.557,883.814 753.112,883.311C714.714,881.975 658.038,892.699 619.628,891.771C567.569,890.514 515.597,889.441 463.556,887.591C455.653,887.31 427.922,887.798 399.855,888.436L399.855,888.453L399.469,888.444L399.083,888.453L399.083,888.436C371.016,887.798 343.285,887.31 335.382,887.591C283.342,889.441 231.369,890.514 179.31,891.771C140.901,892.699 84.224,881.975 45.826,883.311C31.381,883.814 -52.246,854.295 -65.041,845.54C-86.494,830.862 -44.855,725.672 14.376,668.791C22.314,661.168 83.209,625.295 102.644,612.781C133.11,593.164 251.947,543.586 249.926,543.586L304.602,518.044C320.687,518.933 359.112,519.743 399.469,520.176Z"
            style="fill: var(--color_skin, rgb(240, 205, 177))"
          />
          <clipPath id="_clip1_business_profile">
            <path
              d="M399.469,520.176C439.826,519.743 478.251,518.933 494.337,518.044L549.012,543.586C546.991,543.586 665.828,593.164 696.294,612.781C715.729,625.295 776.624,661.168 784.562,668.791C843.793,725.672 885.432,830.862 863.979,845.54C851.184,854.295 767.557,883.814 753.112,883.311C714.714,881.975 658.038,892.699 619.628,891.771C567.569,890.514 515.597,889.441 463.556,887.591C455.653,887.31 427.922,887.798 399.855,888.436L399.855,888.453L399.469,888.444L399.083,888.453L399.083,888.436C371.016,887.798 343.285,887.31 335.382,887.591C283.342,889.441 231.369,890.514 179.31,891.771C140.901,892.699 84.224,881.975 45.826,883.311C31.381,883.814 -52.246,854.295 -65.041,845.54C-86.494,830.862 -44.855,725.672 14.376,668.791C22.314,661.168 83.209,625.295 102.644,612.781C133.11,593.164 251.947,543.586 249.926,543.586L304.602,518.044C320.687,518.933 359.112,519.743 399.469,520.176Z"
            />
          </clipPath>
          <g clip-path="url(#_clip1_business_profile)">
            <path
              d="M257.008,550.757L271.415,531.307C253.708,521.649 202.222,541.571 186.319,549.022C140.6,570.444 96.721,596.072 57.107,627.498C50.833,632.475 -64.255,715.951 -60.96,725.944C-59.276,731.05 -40.643,751.781 7.674,696.431C18.401,684.142 68.025,650.451 87.751,639.851C144.86,609.164 158.887,599.538 203.784,576.467C213.963,571.236 252.091,555.788 257.008,550.757ZM540.327,550.757L525.92,531.307C543.627,521.649 595.113,541.571 611.016,549.022C656.735,570.444 700.614,596.072 740.228,627.498C746.501,632.475 861.59,715.951 858.294,725.944C856.61,731.05 837.978,751.781 789.661,696.431C778.933,684.142 729.31,650.451 709.583,639.851C652.475,609.164 638.448,599.538 593.551,576.467C583.372,571.236 545.243,555.788 540.327,550.757Z"
              style="fill: rgb(252, 255, 216); fill-opacity: 0.6"
            />
          </g>
          <path
            d="M399.469,520.176C439.826,519.743 478.251,518.933 494.337,518.044L549.012,543.586C546.991,543.586 665.828,593.164 696.294,612.781C715.729,625.295 776.624,661.168 784.562,668.791C843.793,725.672 885.432,830.862 863.979,845.54C851.184,854.295 767.557,883.814 753.112,883.311C714.714,881.975 658.038,892.699 619.628,891.771C567.569,890.514 515.597,889.441 463.556,887.591C455.653,887.31 427.922,887.798 399.855,888.436L399.855,888.453L399.469,888.444L399.083,888.453L399.083,888.436C371.016,887.798 343.285,887.31 335.382,887.591C283.342,889.441 231.369,890.514 179.31,891.771C140.901,892.699 84.224,881.975 45.826,883.311C31.381,883.814 -52.246,854.295 -65.041,845.54C-86.494,830.862 -44.855,725.672 14.376,668.791C22.314,661.168 83.209,625.295 102.644,612.781C133.11,593.164 251.947,543.586 249.926,543.586L304.602,518.044C320.687,518.933 359.112,519.743 399.469,520.176Z"
            style="fill: none; stroke: black; stroke-width: 2.1px"
          />
        </g>
        <g transform="matrix(1,0,0,1,0,54.9365)">
          <path
            d="M114.703,629.406C131.466,634.483 148.339,639.226 165.353,643.399C225.725,658.207 315.549,658.233 366.531,692.77"
            style="fill: none; stroke: black; stroke-width: 2.37px"
          />
        </g>
        <g transform="matrix(-1,0,0,1,797.829,54.9365)">
          <path
            d="M114.703,629.406C131.466,634.483 148.339,639.226 165.353,643.399C225.725,658.207 315.549,658.233 366.531,692.77"
            style="fill: none; stroke: black; stroke-width: 2.37px"
          />
        </g>
      </g>
    </g>
  </g>
  <g transform="matrix(0.88685,0,0,0.88685,45.1133,13.2405)">
    <g id="necks">
      <g id="neck-3">
        <g transform="matrix(1.12759,0,0,1.12759,-50.8692,-14.9298)">
          <path
            d="M270.328,624.68C268.686,622.049 273.522,610.338 274.213,606.954C278.119,587.813 280.07,569.944 278.904,550.59C277.806,532.35 277.691,517.001 275.952,501.178C275.522,497.265 274.771,490.106 280.064,488.434C287.937,485.948 317.179,497.862 325.645,500.024C354.98,507.514 383.782,509.517 413.961,507.237C441.153,505.183 467.947,500.689 494.786,496.05C496.937,495.678 522.576,491.29 524.982,492.694C527.051,493.901 523.779,504.555 523.515,506.172C521.285,519.829 521.214,533.523 521.214,547.323C521.214,563.64 523.472,582.617 527.173,598.576C528.235,603.157 531.684,613.661 529.162,618.026C523.682,627.511 499.046,631.324 489.971,633.822C479.937,636.584 469.824,639.058 459.64,641.206C443.684,644.572 427.592,647.019 411.294,647.847C371.931,649.845 333.739,643.801 296.308,631.836"
            style="fill: var(--color_skin, rgb(240, 205, 177))"
          />
          <clipPath id="_clip2_business_profile">
            <path
              d="M270.328,624.68C268.686,622.049 273.522,610.338 274.213,606.954C278.119,587.813 280.07,569.944 278.904,550.59C277.806,532.35 277.691,517.001 275.952,501.178C275.522,497.265 274.771,490.106 280.064,488.434C287.937,485.948 317.179,497.862 325.645,500.024C354.98,507.514 383.782,509.517 413.961,507.237C441.153,505.183 467.947,500.689 494.786,496.05C496.937,495.678 522.576,491.29 524.982,492.694C527.051,493.901 523.779,504.555 523.515,506.172C521.285,519.829 521.214,533.523 521.214,547.323C521.214,563.64 523.472,582.617 527.173,598.576C528.235,603.157 531.684,613.661 529.162,618.026C523.682,627.511 499.046,631.324 489.971,633.822C479.937,636.584 469.824,639.058 459.64,641.206C443.684,644.572 427.592,647.019 411.294,647.847C371.931,649.845 333.739,643.801 296.308,631.836"
            />
          </clipPath>
          <g clip-path="url(#_clip2_business_profile)">
            <path
              d="M276.438,497.629C276.947,497.019 277.181,499.035 277.54,499.744C278.28,501.213 279.042,502.903 279.564,504.468C281.736,510.986 282.203,519.074 282.561,525.86C283.396,541.736 285.02,557.549 282.135,573.285C281.449,577.026 280.046,580.624 278.934,584.261C278.822,584.628 277.959,587.102 277.552,587.17C277.54,587.172 278.047,578.434 278.086,577.936C278.55,571.967 278.879,565.994 279.082,560.012C279.676,542.401 277.784,525.539 275.411,508.136L276.438,497.629ZM524.758,497.629C524.248,497.019 524.014,499.035 523.656,499.744C522.915,501.213 522.153,502.903 521.631,504.468C519.459,510.986 518.992,519.074 518.635,525.86C517.799,541.736 516.175,557.549 519.06,573.285C519.746,577.026 521.149,580.624 522.262,584.261C522.374,584.628 523.237,587.102 523.643,587.17C523.655,587.172 523.148,578.434 523.109,577.936C522.646,571.967 522.316,565.994 522.114,560.012C521.519,542.401 523.412,525.539 525.785,508.136L524.758,497.629Z"
              style="fill: rgb(252, 255, 216); fill-opacity: 0.6"
            />
          </g>
        </g>
        <g transform="matrix(1.12759,0,0,1.12759,-50.8692,-14.9298)">
          <path
            d="M275.568,495.005L276.932,510.248C276.932,510.248 277.497,526.429 277.913,534.43C279.193,559.071 280.331,583.333 273.594,607.287"
            style="fill: none; stroke: black; stroke-width: 2.1px"
          />
        </g>
        <g transform="matrix(1.12759,0,0,1.12759,-50.8692,-14.9298)">
          <path
            d="M526.165,491.524C520.421,502.753 521.497,586.931 528.322,602.402"
            style="fill: none; stroke: black; stroke-width: 2.1px"
          />
        </g>
      </g>
    </g>
  </g>
  <g transform="matrix(0.88685,0,0,0.88685,45.1133,13.2405)">
    <g id="heads">
      <g id="head-3">
        <path
          d="M259.036,532.267C279.289,453.722 529.405,448.278 539.079,528.671C539.079,528.671 538.729,542.882 535.37,554.204C531.795,566.253 527.844,578.271 522.821,588.117C502.848,627.274 475.7,650.172 438.915,673.554C429.911,679.276 419.631,683.578 408.869,684.048C408.274,684.074 403.844,684.512 399.671,684.51C396.022,684.508 392.571,684.071 392.05,684.048C381.288,683.578 371.008,679.276 362.005,673.554C325.219,650.172 300.147,625.496 278.209,587.405C271.928,576.5 268.578,564.294 263.715,552.705C260.729,545.588 259.036,532.267 259.036,532.267Z"
          style="fill: rgb(66, 31, 67); fill-opacity: 0.5"
        />
        <path
          d="M399.671,88.147C490.052,88.254 564.06,144.284 589.585,208.846C600.96,237.618 593.572,287.361 589.056,318.333C585.632,341.807 581.772,365.481 580.322,389.166C579.23,407 580.096,425.518 578.312,443.311C574.367,482.666 551.281,530.547 534.205,552.14C521.863,567.747 504.429,587.568 486.676,605.381C460.642,631.503 444.528,647.784 399.592,647.597C354.656,647.784 338.541,631.503 312.507,605.381C294.755,587.568 277.321,567.747 264.979,552.14C247.903,530.547 224.817,482.666 220.872,443.311C219.088,425.518 219.953,407 218.862,389.166C217.411,365.481 213.551,341.807 210.128,318.333C205.611,287.361 198.224,237.618 209.599,208.846C235.123,144.284 309.132,88.254 399.513,88.147L399.513,88.147L399.592,88.147L399.671,88.147L399.671,88.147Z"
          style="fill: var(--color_skin, rgb(240, 205, 177))"
        />
        <clipPath id="_clip14_business_profile">
          <path
            d="M399.671,88.147C490.052,88.254 564.06,144.284 589.585,208.846C600.96,237.618 593.572,287.361 589.056,318.333C585.632,341.807 581.772,365.481 580.322,389.166C579.23,407 580.096,425.518 578.312,443.311C574.367,482.666 551.281,530.547 534.205,552.14C521.863,567.747 504.429,587.568 486.676,605.381C460.642,631.503 444.528,647.784 399.592,647.597C354.656,647.784 338.541,631.503 312.507,605.381C294.755,587.568 277.321,567.747 264.979,552.14C247.903,530.547 224.817,482.666 220.872,443.311C219.088,425.518 219.953,407 218.862,389.166C217.411,365.481 213.551,341.807 210.128,318.333C205.611,287.361 198.224,237.618 209.599,208.846C235.123,144.284 309.132,88.254 399.513,88.147L399.513,88.147L399.592,88.147L399.671,88.147L399.671,88.147Z"
          />
        </clipPath>
        <g clip-path="url(#_clip14_business_profile)">
          <path
            d="M220.062,403.336L216.346,393.637C209.542,361.821 208.086,329.228 201.788,297.373C192.469,250.235 173.785,200.924 195.882,154.243C214.278,115.382 254.934,90.373 293.202,74.483C383.758,36.88 507.038,36.437 572.373,120.34C622.953,185.297 616.54,257.719 591.376,330.125C587.092,342.453 584.502,354.893 582.201,367.597C582.673,366.137 583.868,362.57 584.425,360.132L584.583,357.699C584.833,357.895 584.716,358.86 584.425,360.132L583.52,374.061C577.163,403.727 580.352,434.495 576.066,464.495C571.103,499.24 552.481,531.009 533.597,559.964C528.903,567.162 523.44,573.988 518.196,580.786C517.815,581.279 513.614,588.18 512.545,586.755C511.296,585.09 517.7,576.691 518.27,575.711C524.928,564.28 531.81,552.805 536.829,540.538C545.973,518.185 556.3,495.733 562.136,472.233C568.008,448.587 569.577,424.316 573.858,400.405C574.032,399.43 574.217,398.457 574.412,397.487C573.65,394.693 574.177,387.242 574.19,385.905C574.341,371.487 576.382,356.923 577.374,342.54C580.635,295.249 594.256,236.389 566.7,194.194C553.208,173.535 530.675,147.657 510.353,134.343C474.76,111.023 442.743,100.694 399.592,101.636C324.91,103.266 243.962,155.95 220.434,224.876C205.968,267.257 223.715,335.137 225.356,381.095C225.644,389.152 227.544,400.043 227.485,409.586C230.714,430.51 232.563,451.609 237.684,472.233C243.52,495.733 253.847,518.185 262.991,540.538C268.01,552.805 274.892,564.28 281.55,575.711C282.12,576.691 288.524,585.09 287.275,586.755C286.206,588.18 282.005,581.279 281.624,580.786C276.38,573.988 270.917,567.162 266.223,559.964C247.339,531.009 228.717,499.24 223.754,464.495C220.864,444.266 221.373,423.688 220.062,403.336Z"
            style="fill: rgb(252, 255, 216); fill-opacity: 0.6"
          />
        </g>
        <path
          d="M399.671,88.147C490.052,88.254 564.06,144.284 589.585,208.846C600.96,237.618 593.572,287.361 589.056,318.333C585.632,341.807 581.772,365.481 580.322,389.166C579.23,407 580.096,425.518 578.312,443.311C574.367,482.666 551.281,530.547 534.205,552.14C521.863,567.747 504.429,587.568 486.676,605.381C460.642,631.503 444.528,647.784 399.592,647.597C354.656,647.784 338.541,631.503 312.507,605.381C294.755,587.568 277.321,567.747 264.979,552.14C247.903,530.547 224.817,482.666 220.872,443.311C219.088,425.518 219.953,407 218.862,389.166C217.411,365.481 213.551,341.807 210.128,318.333C205.611,287.361 198.224,237.618 209.599,208.846C235.123,144.284 309.132,88.254 399.513,88.147L399.513,88.147L399.592,88.147L399.671,88.147L399.671,88.147Z"
          style="fill: none; stroke: black; stroke-width: 2.37px"
        />
      </g>
    </g>
  </g>
</svg>
