<svg
  width="100%"
  height="100%"
  viewBox="0 0 800 800"
  xmlns="http://www.w3.org/2000/svg"
>
  <g transform="matrix(0.976593,0,0,0.976593,9.36136,3.21573)">
    <g id="hairstyles-front">
      <g id="hairstyle-1">
        <path
          d="M406.869,-73.661C413.305,-59.495 437.349,-22.33 441.982,-10.078C443.832,-5.186 443.968,11.343 443.968,11.343C443.968,11.343 451.038,4.184 453.382,1.611C462.565,-8.473 474.219,-15.861 484.136,-25.173C485.624,-26.57 497.328,-37.608 497.328,-37.608C497.328,-37.608 497.972,-19.475 497.76,-17.388C496.031,-0.381 491.177,19.328 483.549,34.775C482.39,37.123 476.718,47.49 476.718,47.49C476.718,47.49 489.892,39.781 494.315,37.54C505.497,31.877 516.153,25.091 527.093,18.958C530.543,17.024 541.536,8.114 541.536,8.114C541.536,8.114 535.409,18.545 533.627,21.599C526.326,34.117 519.878,48.17 509.531,58.517C505.222,62.825 500.976,67.258 496.493,71.384C494.97,72.787 488.971,77.3 488.971,77.3C488.971,77.3 513.637,69.292 518.598,68.805C521.96,68.474 535.079,67.538 535.079,67.538C535.079,67.538 513.525,77.646 506.318,81.61C493.97,88.401 486.011,95.15 475.853,105.504C473.719,107.68 441.795,132.85 400.002,132.279C358.208,132.85 326.285,107.68 324.151,105.504C313.993,95.15 306.034,88.401 293.686,81.61C286.479,77.646 264.924,67.538 264.924,67.538C264.924,67.538 278.044,68.474 281.406,68.805C286.366,69.292 311.033,77.3 311.033,77.3C311.033,77.3 305.034,72.787 303.51,71.384C299.028,67.258 294.782,62.825 290.473,58.517C280.126,48.17 273.678,34.117 266.376,21.599C264.595,18.545 258.468,8.114 258.468,8.114C258.468,8.114 269.461,17.024 272.91,18.958C283.851,25.091 294.507,31.877 305.688,37.54C310.111,39.781 323.286,47.49 323.286,47.49C323.286,47.49 317.614,37.123 316.455,34.775C308.826,19.328 303.973,-0.381 302.244,-17.388C302.031,-19.475 302.676,-37.608 302.676,-37.608C302.676,-37.608 314.38,-26.57 315.868,-25.173C325.785,-15.861 337.439,-8.473 346.622,1.611C348.965,4.184 356.035,11.343 356.035,11.343C356.035,11.343 356.171,-5.186 358.021,-10.078C362.654,-22.33 384.548,-58.576 390.799,-72.826C394.304,-80.816 399.392,-91.828 400,-93.468C400,-93.468 401.872,-84.661 406.869,-73.661Z"
          style="
            fill: rgb(
              var(--color_hairs_r, 74),
              var(--color_hairs_g, 45),
              var(--color_hairs_b, 37)
            );
          "
        />
        <clipPath id="_clip1_hair1_base">
          <path
            d="M406.869,-73.661C413.305,-59.495 437.349,-22.33 441.982,-10.078C443.832,-5.186 443.968,11.343 443.968,11.343C443.968,11.343 451.038,4.184 453.382,1.611C462.565,-8.473 474.219,-15.861 484.136,-25.173C485.624,-26.57 497.328,-37.608 497.328,-37.608C497.328,-37.608 497.972,-19.475 497.76,-17.388C496.031,-0.381 491.177,19.328 483.549,34.775C482.39,37.123 476.718,47.49 476.718,47.49C476.718,47.49 489.892,39.781 494.315,37.54C505.497,31.877 516.153,25.091 527.093,18.958C530.543,17.024 541.536,8.114 541.536,8.114C541.536,8.114 535.409,18.545 533.627,21.599C526.326,34.117 519.878,48.17 509.531,58.517C505.222,62.825 500.976,67.258 496.493,71.384C494.97,72.787 488.971,77.3 488.971,77.3C488.971,77.3 513.637,69.292 518.598,68.805C521.96,68.474 535.079,67.538 535.079,67.538C535.079,67.538 513.525,77.646 506.318,81.61C493.97,88.401 486.011,95.15 475.853,105.504C473.719,107.68 441.795,132.85 400.002,132.279C358.208,132.85 326.285,107.68 324.151,105.504C313.993,95.15 306.034,88.401 293.686,81.61C286.479,77.646 264.924,67.538 264.924,67.538C264.924,67.538 278.044,68.474 281.406,68.805C286.366,69.292 311.033,77.3 311.033,77.3C311.033,77.3 305.034,72.787 303.51,71.384C299.028,67.258 294.782,62.825 290.473,58.517C280.126,48.17 273.678,34.117 266.376,21.599C264.595,18.545 258.468,8.114 258.468,8.114C258.468,8.114 269.461,17.024 272.91,18.958C283.851,25.091 294.507,31.877 305.688,37.54C310.111,39.781 323.286,47.49 323.286,47.49C323.286,47.49 317.614,37.123 316.455,34.775C308.826,19.328 303.973,-0.381 302.244,-17.388C302.031,-19.475 302.676,-37.608 302.676,-37.608C302.676,-37.608 314.38,-26.57 315.868,-25.173C325.785,-15.861 337.439,-8.473 346.622,1.611C348.965,4.184 356.035,11.343 356.035,11.343C356.035,11.343 356.171,-5.186 358.021,-10.078C362.654,-22.33 384.548,-58.576 390.799,-72.826C394.304,-80.816 399.392,-91.828 400,-93.468C400,-93.468 401.872,-84.661 406.869,-73.661Z"
          />
        </clipPath>
        <g clip-path="url(#_clip1_hair1_base)">
          <path
            d="M260.323,60.03C260.092,59.885 261.818,60.27 262.062,60.318C263.465,60.595 264.88,60.804 266.282,61.084C270.16,61.86 274.356,62.567 278.042,64.039C290.296,68.932 301.845,78.891 310.434,88.667C312.598,91.13 314.511,93.785 316.264,96.555C316.464,96.871 318.162,99.125 317.854,99.485C317.496,99.904 313.424,96.962 313.065,96.744C307.971,93.655 302.708,90.855 297.404,88.146C294.341,86.582 291.266,85.042 288.167,83.55C285.888,82.453 283.604,81.364 281.322,80.272C279.23,79.271 277.14,78.264 275.042,77.274C273.528,76.56 272.009,75.86 270.495,75.147C269.163,74.52 267.827,73.902 266.497,73.269C265.569,72.828 264.641,72.386 263.718,71.935C260.843,70.531 247.922,64.896 257.558,63.407C258.363,63.283 259.169,63.209 259.981,63.151C261.627,63.034 263.271,62.972 264.919,62.943L260.323,60.03ZM539.276,60.03C539.507,59.885 537.781,60.27 537.537,60.318C536.134,60.595 534.719,60.804 533.317,61.084C529.439,61.86 525.243,62.567 521.557,64.039C509.303,68.932 497.754,78.891 489.165,88.667C487.001,91.13 485.088,93.785 483.335,96.555C483.135,96.871 481.438,99.125 481.745,99.485C482.104,99.904 486.175,96.962 486.534,96.744C491.629,93.655 496.891,90.855 502.195,88.146C505.258,86.582 508.333,85.042 511.432,83.55C513.712,82.453 515.995,81.364 518.277,80.272C520.369,79.271 522.46,78.264 524.557,77.274C526.071,76.56 527.591,75.86 529.104,75.147C530.436,74.52 531.773,73.902 533.102,73.269C534.03,72.828 534.958,72.386 535.881,71.935C538.756,70.531 551.677,64.896 542.042,63.407C541.236,63.283 540.431,63.209 539.618,63.151C537.973,63.034 536.328,62.972 534.68,62.943L539.276,60.03ZM263.604,7.597C262.939,7.553 264.271,9.131 264.613,9.842C265.317,11.308 266.051,12.764 266.797,14.209C268.98,18.439 271.634,22.409 274.085,26.482C281.48,38.77 289.461,50.547 298.064,62.023C300.399,65.138 302.737,68.249 305.034,71.392C305.81,72.455 306.586,73.518 307.343,74.594C307.737,75.154 309.151,76.509 308.503,76.289C307.16,75.833 305.705,74.208 304.571,73.391C301.145,70.919 297.729,68.442 294.373,65.875C281.404,55.957 268.694,45.085 259.927,31.11C256.099,25.008 252.977,18.462 250.924,11.552C250.529,10.222 248.874,5.94 250.708,4.911C252.903,3.678 257.962,6.54 260.113,7.181L263.663,7.604L263.604,7.597ZM535.995,7.597C536.661,7.553 535.328,9.131 534.986,9.842C534.282,11.308 533.549,12.764 532.803,14.209C530.619,18.439 527.965,22.409 525.514,26.482C518.119,38.77 510.138,50.547 501.535,62.023C499.2,65.138 496.862,68.249 494.565,71.392C493.789,72.455 493.013,73.518 492.256,74.594C491.862,75.154 490.448,76.509 491.096,76.289C492.439,75.833 493.895,74.208 495.028,73.391C498.454,70.919 501.87,68.442 505.226,65.875C518.195,55.957 530.905,45.085 539.672,31.11C543.5,25.008 546.622,18.462 548.675,11.552C549.071,10.222 550.726,5.94 548.891,4.911C546.696,3.678 541.637,6.54 539.486,7.181L535.936,7.604L535.995,7.597ZM287.632,-69.979C287.609,-70.046 288.506,-67.234 288.77,-66.553C289.825,-63.834 290.877,-61.115 291.895,-58.382C294.76,-50.694 298.003,-43.123 300.465,-35.292C306.975,-14.584 311.688,7.055 317.288,28.054C318.611,33.015 319.847,37.994 321.275,42.927C321.42,43.43 322.914,47.196 322.558,47.575C322.446,47.694 320.534,44.649 320.439,44.496C318.973,42.146 317.468,39.818 315.947,37.503C311.686,31.017 307.236,24.657 303.306,17.959C292.428,-0.58 284.101,-20.495 277.867,-41.044C274.724,-51.404 271.455,-63.764 273.575,-74.681L287.632,-69.979ZM511.968,-69.979C511.99,-70.046 511.093,-67.234 510.829,-66.553C509.775,-63.834 508.722,-61.115 507.704,-58.382C504.839,-50.694 501.596,-43.123 499.134,-35.292C492.624,-14.584 487.911,7.055 482.311,28.054C480.988,33.015 479.752,37.994 478.324,42.927C478.179,43.43 476.685,47.196 477.041,47.575C477.153,47.694 479.065,44.649 479.161,44.496C480.627,42.146 482.131,39.818 483.652,37.503C487.914,31.017 492.363,24.657 496.294,17.959C507.172,-0.58 515.498,-20.495 521.733,-41.044C524.875,-51.404 528.144,-63.764 526.024,-74.681L511.968,-69.979Z"
            style="fill: rgb(252, 255, 216); fill-opacity: 0.6"
          />
        </g>
        <path
          d="M406.869,-73.661C413.305,-59.495 437.349,-22.33 441.982,-10.078C443.832,-5.186 443.968,11.343 443.968,11.343C443.968,11.343 451.038,4.184 453.382,1.611C462.565,-8.473 474.219,-15.861 484.136,-25.173C485.624,-26.57 497.328,-37.608 497.328,-37.608C497.328,-37.608 497.972,-19.475 497.76,-17.388C496.031,-0.381 491.177,19.328 483.549,34.775C482.39,37.123 476.718,47.49 476.718,47.49C476.718,47.49 489.892,39.781 494.315,37.54C505.497,31.877 516.153,25.091 527.093,18.958C530.543,17.024 541.536,8.114 541.536,8.114C541.536,8.114 535.409,18.545 533.627,21.599C526.326,34.117 519.878,48.17 509.531,58.517C505.222,62.825 500.976,67.258 496.493,71.384C494.97,72.787 488.971,77.3 488.971,77.3C488.971,77.3 513.637,69.292 518.598,68.805C521.96,68.474 535.079,67.538 535.079,67.538C535.079,67.538 513.525,77.646 506.318,81.61C493.97,88.401 486.011,95.15 475.853,105.504C473.719,107.68 441.795,132.85 400.002,132.279C358.208,132.85 326.285,107.68 324.151,105.504C313.993,95.15 306.034,88.401 293.686,81.61C286.479,77.646 264.924,67.538 264.924,67.538C264.924,67.538 278.044,68.474 281.406,68.805C286.366,69.292 311.033,77.3 311.033,77.3C311.033,77.3 305.034,72.787 303.51,71.384C299.028,67.258 294.782,62.825 290.473,58.517C280.126,48.17 273.678,34.117 266.376,21.599C264.595,18.545 258.468,8.114 258.468,8.114C258.468,8.114 269.461,17.024 272.91,18.958C283.851,25.091 294.507,31.877 305.688,37.54C310.111,39.781 323.286,47.49 323.286,47.49C323.286,47.49 317.614,37.123 316.455,34.775C308.826,19.328 303.973,-0.381 302.244,-17.388C302.031,-19.475 302.676,-37.608 302.676,-37.608C302.676,-37.608 314.38,-26.57 315.868,-25.173C325.785,-15.861 337.439,-8.473 346.622,1.611C348.965,4.184 356.035,11.343 356.035,11.343C356.035,11.343 356.171,-5.186 358.021,-10.078C362.654,-22.33 384.548,-58.576 390.799,-72.826C394.304,-80.816 399.392,-91.828 400,-93.468C400,-93.468 401.872,-84.661 406.869,-73.661Z"
          style="fill: none; stroke: black; stroke-width: 2.1px"
        />
        <path
          d="M322.037,99.345C321.487,99.579 322.72,98.363 323.065,97.874C323.784,96.856 324.556,95.853 325.374,94.912C327.696,92.237 330.26,89.382 333.156,87.314C341.761,81.167 352.981,78.23 363.11,75.698C393.201,68.175 425.129,70.626 454.435,80.395C464.218,83.656 469.528,88.595 476.205,96.086C477.124,97.117 481.604,100.779 481.604,102.222C481.604,103.239 479.597,101.886 478.588,101.761C476.48,101.501 474.379,101.209 472.268,100.978C465.771,100.268 459.255,99.724 452.743,99.183C433.084,97.549 413.379,96.589 393.652,97.283C377.279,97.859 360.951,99.744 344.771,102.268C338.47,103.251 332.184,104.262 325.915,105.434C324.947,105.614 320.377,107.068 321.045,104.731L322.037,99.345Z"
          style="fill: rgb(35, 223, 211)"
        />
        <clipPath id="_clip2_hair1_base">
          <path
            d="M322.037,99.345C321.487,99.579 322.72,98.363 323.065,97.874C323.784,96.856 324.556,95.853 325.374,94.912C327.696,92.237 330.26,89.382 333.156,87.314C341.761,81.167 352.981,78.23 363.11,75.698C393.201,68.175 425.129,70.626 454.435,80.395C464.218,83.656 469.528,88.595 476.205,96.086C477.124,97.117 481.604,100.779 481.604,102.222C481.604,103.239 479.597,101.886 478.588,101.761C476.48,101.501 474.379,101.209 472.268,100.978C465.771,100.268 459.255,99.724 452.743,99.183C433.084,97.549 413.379,96.589 393.652,97.283C377.279,97.859 360.951,99.744 344.771,102.268C338.47,103.251 332.184,104.262 325.915,105.434C324.947,105.614 320.377,107.068 321.045,104.731L322.037,99.345Z"
          />
        </clipPath>
        <g clip-path="url(#_clip2_hair1_base)">
          <path
            d="M322.225,100.308C321.022,99.147 327.114,91.191 327.234,91.126C329.092,90.112 333.81,86.845 335.782,86.074C344.223,82.772 353.499,80.474 362.331,78.482C385.656,73.22 408.551,72.812 431.984,77.111C439.956,78.573 449.06,81.342 456.771,83.879C464.494,86.42 472.332,91.578 478.579,96.853C479.671,97.775 484.262,99.301 484.129,100.98C484.046,102.018 478.686,100.472 478.259,100.374C471.092,98.723 463.902,97.16 456.68,95.768C438.558,92.274 420.173,90.041 401.697,90.102C381.074,90.17 360.084,92.505 339.928,96.943C335.643,97.886 331.435,99.111 327.181,100.171C325.916,100.487 323.379,101.419 322.225,100.308Z"
            style="fill: rgb(1, 86, 79)"
          />
        </g>
        <path
          d="M322.037,99.345C321.487,99.579 322.72,98.363 323.065,97.874C323.784,96.856 324.556,95.853 325.374,94.912C327.696,92.237 330.26,89.382 333.156,87.314C341.761,81.167 352.981,78.23 363.11,75.698C393.201,68.175 425.129,70.626 454.435,80.395C464.218,83.656 469.528,88.595 476.205,96.086C477.124,97.117 481.604,100.779 481.604,102.222C481.604,103.239 479.597,101.886 478.588,101.761C476.48,101.501 474.379,101.209 472.268,100.978C465.771,100.268 459.255,99.724 452.743,99.183C433.084,97.549 413.379,96.589 393.652,97.283C377.279,97.859 360.951,99.744 344.771,102.268C338.47,103.251 332.184,104.262 325.915,105.434C324.947,105.614 320.377,107.068 321.045,104.731L322.037,99.345Z"
          style="fill: none; stroke: black; stroke-width: 2.1px"
        />
        <path
          d="M399.935,78.687C418.335,78.687 439.207,83.797 455.135,88.451C510.188,104.538 559.807,141.267 577.071,198.582C585.157,225.429 581.465,254.228 576.348,281.207C572.202,303.069 565.926,324.502 562.63,346.536C561.806,352.043 558.033,368.296 557.963,368.196C556.103,365.539 553.607,335.769 554.949,324.266C555.373,320.635 555.635,317.017 555.928,313.376C556.028,312.143 556.711,307.926 556.711,307.926L548.107,314.686C548.107,314.686 551.572,294.185 554.243,285.127C555.418,281.144 557.869,275.867 557.68,275.615C557.507,275.384 554.819,277.348 554.612,277.486C551.791,279.367 543.863,284.917 543.863,284.917C543.863,284.917 548.8,268.719 551.424,263.702C551.644,263.282 553.946,257.687 553.946,257.687L539.098,266.455C539.098,266.455 546.344,246.42 548.879,239.54C549.039,239.106 551.903,232.686 551.903,232.686C551.903,232.686 547.299,233.507 546.54,233.72C541.088,235.243 535.569,236.717 530.199,238.507C529.793,238.642 523.737,240.726 523.737,240.726C523.737,240.726 527.014,234.852 527.545,234.003C531.764,227.251 535.565,220.201 539.849,213.506C540.264,212.857 544.917,207.308 544.712,206.794C544.566,206.429 540.387,207.64 540.067,207.719C534.848,209.001 518.896,212.995 518.896,212.995C518.896,212.995 527.867,197.1 531.363,192.042C532.296,190.693 536.262,186.203 536.215,186.156C536.096,186.037 532.266,187.832 531.994,187.93C528.15,189.314 524.267,190.676 520.55,192.379C520.133,192.57 517.466,194.337 517.068,194.098C516.848,193.966 519.008,191.224 519.179,191.019C521.326,188.443 527.736,181.099 527.577,180.782C527.439,180.505 522.089,182.502 521.67,182.664C516.958,184.492 502.588,191.313 502.588,191.313C502.588,191.313 509.896,183.309 512.14,181.065C512.343,180.863 515.438,177.966 515.425,177.954C515.101,177.629 509.168,180.456 508.604,180.641C500.894,183.174 493.012,185.391 485.584,188.702C485.013,188.957 477.751,192.858 477.751,192.858C477.751,192.858 487.594,182.297 491.078,178.813C491.939,177.952 495.798,175.298 495.212,175.005C493.839,174.319 487.377,177.721 486.096,178.226C476.451,182.025 466.723,185.644 457.201,189.747C453.9,191.169 442.412,196.513 442.412,196.513C442.412,196.513 458.983,181.042 458.289,180.695C456.871,179.986 425.36,195.403 415.599,202.867C411.944,205.662 408.156,207.963 404.144,210.199C403.231,210.708 399.516,213.362 399.655,213.239C399.655,213.239 396.638,210.708 395.726,210.199C391.713,207.963 387.925,205.662 384.27,202.867C374.51,195.403 342.998,179.986 341.58,180.695C340.886,181.042 357.457,196.513 357.457,196.513C357.457,196.513 345.969,191.169 342.668,189.747C333.147,185.644 323.418,182.025 313.774,178.226C312.492,177.721 306.03,174.319 304.657,175.005C304.071,175.298 307.93,177.952 308.791,178.813C312.275,182.297 322.118,192.858 322.118,192.858C322.118,192.858 314.856,188.957 314.285,188.702C306.857,185.391 298.975,183.174 291.265,180.641C290.701,180.456 284.768,177.629 284.444,177.954C284.432,177.966 287.527,180.863 287.729,181.065C289.973,183.309 297.281,191.313 297.281,191.313C297.281,191.313 282.911,184.492 278.199,182.664C277.78,182.502 272.43,180.505 272.292,180.782C272.133,181.099 278.544,188.443 280.69,191.019C280.861,191.224 283.021,193.966 282.801,194.098C282.403,194.337 279.736,192.57 279.32,192.379C275.602,190.676 271.719,189.314 267.875,187.93C267.603,187.832 263.773,186.037 263.654,186.156C263.607,186.203 267.573,190.693 268.506,192.042C272.002,197.1 280.973,212.995 280.973,212.995C280.973,212.995 265.022,209.001 259.803,207.719C259.482,207.64 255.303,206.429 255.157,206.794C254.952,207.308 259.605,212.857 260.02,213.506C264.305,220.201 268.105,227.251 272.324,234.003C272.856,234.852 276.132,240.726 276.132,240.726C276.132,240.726 270.076,238.642 269.67,238.507C264.301,236.717 258.781,235.243 253.33,233.72C252.57,233.507 247.966,232.686 247.966,232.686C247.966,232.686 250.831,239.106 250.991,239.54C253.525,246.42 260.771,266.455 260.771,266.455L245.923,257.687C245.923,257.687 248.225,263.282 248.445,263.702C251.069,268.719 256.006,284.917 256.006,284.917C256.006,284.917 248.078,279.367 245.257,277.486C245.05,277.348 242.363,275.384 242.189,275.615C242,275.867 244.452,281.144 245.626,285.127C248.297,294.185 251.762,314.686 251.762,314.686L243.158,307.926C243.158,307.926 243.841,312.143 243.941,313.376C244.235,317.017 244.496,320.635 244.92,324.266C246.262,335.769 245.495,346.721 243.375,358.089C242.792,361.216 241.742,368.654 241.623,368.595C241.099,368.332 238.063,352.043 237.239,346.536C233.943,324.502 227.667,303.069 223.521,281.207C218.404,254.228 214.712,225.429 222.798,198.582C240.062,141.267 289.682,104.538 344.734,88.451C360.662,83.797 381.534,78.687 399.935,78.687Z"
          style="
            fill: rgb(
              var(--color_hairs_r, 74),
              var(--color_hairs_g, 45),
              var(--color_hairs_b, 37)
            );
          "
        />
        <clipPath id="_clip3_hair1_base">
          <path
            d="M399.935,78.687C418.335,78.687 439.207,83.797 455.135,88.451C510.188,104.538 559.807,141.267 577.071,198.582C585.157,225.429 581.465,254.228 576.348,281.207C572.202,303.069 565.926,324.502 562.63,346.536C561.806,352.043 558.033,368.296 557.963,368.196C556.103,365.539 553.607,335.769 554.949,324.266C555.373,320.635 555.635,317.017 555.928,313.376C556.028,312.143 556.711,307.926 556.711,307.926L548.107,314.686C548.107,314.686 551.572,294.185 554.243,285.127C555.418,281.144 557.869,275.867 557.68,275.615C557.507,275.384 554.819,277.348 554.612,277.486C551.791,279.367 543.863,284.917 543.863,284.917C543.863,284.917 548.8,268.719 551.424,263.702C551.644,263.282 553.946,257.687 553.946,257.687L539.098,266.455C539.098,266.455 546.344,246.42 548.879,239.54C549.039,239.106 551.903,232.686 551.903,232.686C551.903,232.686 547.299,233.507 546.54,233.72C541.088,235.243 535.569,236.717 530.199,238.507C529.793,238.642 523.737,240.726 523.737,240.726C523.737,240.726 527.014,234.852 527.545,234.003C531.764,227.251 535.565,220.201 539.849,213.506C540.264,212.857 544.917,207.308 544.712,206.794C544.566,206.429 540.387,207.64 540.067,207.719C534.848,209.001 518.896,212.995 518.896,212.995C518.896,212.995 527.867,197.1 531.363,192.042C532.296,190.693 536.262,186.203 536.215,186.156C536.096,186.037 532.266,187.832 531.994,187.93C528.15,189.314 524.267,190.676 520.55,192.379C520.133,192.57 517.466,194.337 517.068,194.098C516.848,193.966 519.008,191.224 519.179,191.019C521.326,188.443 527.736,181.099 527.577,180.782C527.439,180.505 522.089,182.502 521.67,182.664C516.958,184.492 502.588,191.313 502.588,191.313C502.588,191.313 509.896,183.309 512.14,181.065C512.343,180.863 515.438,177.966 515.425,177.954C515.101,177.629 509.168,180.456 508.604,180.641C500.894,183.174 493.012,185.391 485.584,188.702C485.013,188.957 477.751,192.858 477.751,192.858C477.751,192.858 487.594,182.297 491.078,178.813C491.939,177.952 495.798,175.298 495.212,175.005C493.839,174.319 487.377,177.721 486.096,178.226C476.451,182.025 466.723,185.644 457.201,189.747C453.9,191.169 442.412,196.513 442.412,196.513C442.412,196.513 458.983,181.042 458.289,180.695C456.871,179.986 425.36,195.403 415.599,202.867C411.944,205.662 408.156,207.963 404.144,210.199C403.231,210.708 399.516,213.362 399.655,213.239C399.655,213.239 396.638,210.708 395.726,210.199C391.713,207.963 387.925,205.662 384.27,202.867C374.51,195.403 342.998,179.986 341.58,180.695C340.886,181.042 357.457,196.513 357.457,196.513C357.457,196.513 345.969,191.169 342.668,189.747C333.147,185.644 323.418,182.025 313.774,178.226C312.492,177.721 306.03,174.319 304.657,175.005C304.071,175.298 307.93,177.952 308.791,178.813C312.275,182.297 322.118,192.858 322.118,192.858C322.118,192.858 314.856,188.957 314.285,188.702C306.857,185.391 298.975,183.174 291.265,180.641C290.701,180.456 284.768,177.629 284.444,177.954C284.432,177.966 287.527,180.863 287.729,181.065C289.973,183.309 297.281,191.313 297.281,191.313C297.281,191.313 282.911,184.492 278.199,182.664C277.78,182.502 272.43,180.505 272.292,180.782C272.133,181.099 278.544,188.443 280.69,191.019C280.861,191.224 283.021,193.966 282.801,194.098C282.403,194.337 279.736,192.57 279.32,192.379C275.602,190.676 271.719,189.314 267.875,187.93C267.603,187.832 263.773,186.037 263.654,186.156C263.607,186.203 267.573,190.693 268.506,192.042C272.002,197.1 280.973,212.995 280.973,212.995C280.973,212.995 265.022,209.001 259.803,207.719C259.482,207.64 255.303,206.429 255.157,206.794C254.952,207.308 259.605,212.857 260.02,213.506C264.305,220.201 268.105,227.251 272.324,234.003C272.856,234.852 276.132,240.726 276.132,240.726C276.132,240.726 270.076,238.642 269.67,238.507C264.301,236.717 258.781,235.243 253.33,233.72C252.57,233.507 247.966,232.686 247.966,232.686C247.966,232.686 250.831,239.106 250.991,239.54C253.525,246.42 260.771,266.455 260.771,266.455L245.923,257.687C245.923,257.687 248.225,263.282 248.445,263.702C251.069,268.719 256.006,284.917 256.006,284.917C256.006,284.917 248.078,279.367 245.257,277.486C245.05,277.348 242.363,275.384 242.189,275.615C242,275.867 244.452,281.144 245.626,285.127C248.297,294.185 251.762,314.686 251.762,314.686L243.158,307.926C243.158,307.926 243.841,312.143 243.941,313.376C244.235,317.017 244.496,320.635 244.92,324.266C246.262,335.769 245.495,346.721 243.375,358.089C242.792,361.216 241.742,368.654 241.623,368.595C241.099,368.332 238.063,352.043 237.239,346.536C233.943,324.502 227.667,303.069 223.521,281.207C218.404,254.228 214.712,225.429 222.798,198.582C240.062,141.267 289.682,104.538 344.734,88.451C360.662,83.797 381.534,78.687 399.935,78.687Z"
          />
        </clipPath>
        <g clip-path="url(#_clip3_hair1_base)">
          <path
            d="M399.967,72.554C405.928,70.686 416.562,73.22 420.799,73.957C446.858,78.489 471.985,89.534 496.961,97.859C541.286,112.634 585.735,145.938 594.594,194.862C599.371,221.242 593.788,250.351 586.387,275.705C582.761,288.124 578.302,300.343 573.918,312.511C572.614,316.131 571.351,324.156 568.516,326.99C567.508,327.998 568.46,324.138 568.516,322.714C568.638,319.643 568.741,316.572 568.877,313.501C569.292,304.091 570.304,294.745 571.142,285.368C573.767,256.013 577.885,230.043 570.152,200.954C556.565,149.841 492.037,110.571 443.5,97.964C431.611,94.876 419.536,92.654 407.333,91.386L407.334,91.39L407.325,91.385L392.61,91.385L392.601,91.39L392.602,91.386C380.399,92.654 368.323,94.876 356.435,97.964C307.898,110.571 243.37,149.841 229.783,200.954C222.05,230.043 226.167,256.013 228.793,285.368C229.631,294.745 230.643,304.091 231.058,313.501C231.194,316.572 231.297,319.643 231.418,322.714C231.475,324.138 232.426,327.998 231.418,326.99C228.584,324.156 227.321,316.131 226.017,312.511C221.632,300.343 217.173,288.124 213.548,275.705C206.147,250.351 200.564,221.242 205.341,194.862C214.2,145.938 258.649,112.634 302.974,97.859C327.95,89.534 353.077,78.489 379.136,73.957C383.373,73.22 394.007,70.686 399.967,72.554Z"
            style="fill: rgb(252, 255, 216); fill-opacity: 0.6"
          />
        </g>
        <path
          d="M399.935,78.687C418.335,78.687 439.207,83.797 455.135,88.451C510.188,104.538 559.807,141.267 577.071,198.582C585.157,225.429 581.465,254.228 576.348,281.207C572.202,303.069 565.926,324.502 562.63,346.536C561.806,352.043 558.033,368.296 557.963,368.196C556.103,365.539 553.607,335.769 554.949,324.266C555.373,320.635 555.635,317.017 555.928,313.376C556.028,312.143 556.711,307.926 556.711,307.926L548.107,314.686C548.107,314.686 551.572,294.185 554.243,285.127C555.418,281.144 557.869,275.867 557.68,275.615C557.507,275.384 554.819,277.348 554.612,277.486C551.791,279.367 543.863,284.917 543.863,284.917C543.863,284.917 548.8,268.719 551.424,263.702C551.644,263.282 553.946,257.687 553.946,257.687L539.098,266.455C539.098,266.455 546.344,246.42 548.879,239.54C549.039,239.106 551.903,232.686 551.903,232.686C551.903,232.686 547.299,233.507 546.54,233.72C541.088,235.243 535.569,236.717 530.199,238.507C529.793,238.642 523.737,240.726 523.737,240.726C523.737,240.726 527.014,234.852 527.545,234.003C531.764,227.251 535.565,220.201 539.849,213.506C540.264,212.857 544.917,207.308 544.712,206.794C544.566,206.429 540.387,207.64 540.067,207.719C534.848,209.001 518.896,212.995 518.896,212.995C518.896,212.995 527.867,197.1 531.363,192.042C532.296,190.693 536.262,186.203 536.215,186.156C536.096,186.037 532.266,187.832 531.994,187.93C528.15,189.314 524.267,190.676 520.55,192.379C520.133,192.57 517.466,194.337 517.068,194.098C516.848,193.966 519.008,191.224 519.179,191.019C521.326,188.443 527.736,181.099 527.577,180.782C527.439,180.505 522.089,182.502 521.67,182.664C516.958,184.492 502.588,191.313 502.588,191.313C502.588,191.313 509.896,183.309 512.14,181.065C512.343,180.863 515.438,177.966 515.425,177.954C515.101,177.629 509.168,180.456 508.604,180.641C500.894,183.174 493.012,185.391 485.584,188.702C485.013,188.957 477.751,192.858 477.751,192.858C477.751,192.858 487.594,182.297 491.078,178.813C491.939,177.952 495.798,175.298 495.212,175.005C493.839,174.319 487.377,177.721 486.096,178.226C476.451,182.025 466.723,185.644 457.201,189.747C453.9,191.169 442.412,196.513 442.412,196.513C442.412,196.513 458.983,181.042 458.289,180.695C456.871,179.986 425.36,195.403 415.599,202.867C411.944,205.662 408.156,207.963 404.144,210.199C403.231,210.708 399.516,213.362 399.655,213.239C399.655,213.239 396.638,210.708 395.726,210.199C391.713,207.963 387.925,205.662 384.27,202.867C374.51,195.403 342.998,179.986 341.58,180.695C340.886,181.042 357.457,196.513 357.457,196.513C357.457,196.513 345.969,191.169 342.668,189.747C333.147,185.644 323.418,182.025 313.774,178.226C312.492,177.721 306.03,174.319 304.657,175.005C304.071,175.298 307.93,177.952 308.791,178.813C312.275,182.297 322.118,192.858 322.118,192.858C322.118,192.858 314.856,188.957 314.285,188.702C306.857,185.391 298.975,183.174 291.265,180.641C290.701,180.456 284.768,177.629 284.444,177.954C284.432,177.966 287.527,180.863 287.729,181.065C289.973,183.309 297.281,191.313 297.281,191.313C297.281,191.313 282.911,184.492 278.199,182.664C277.78,182.502 272.43,180.505 272.292,180.782C272.133,181.099 278.544,188.443 280.69,191.019C280.861,191.224 283.021,193.966 282.801,194.098C282.403,194.337 279.736,192.57 279.32,192.379C275.602,190.676 271.719,189.314 267.875,187.93C267.603,187.832 263.773,186.037 263.654,186.156C263.607,186.203 267.573,190.693 268.506,192.042C272.002,197.1 280.973,212.995 280.973,212.995C280.973,212.995 265.022,209.001 259.803,207.719C259.482,207.64 255.303,206.429 255.157,206.794C254.952,207.308 259.605,212.857 260.02,213.506C264.305,220.201 268.105,227.251 272.324,234.003C272.856,234.852 276.132,240.726 276.132,240.726C276.132,240.726 270.076,238.642 269.67,238.507C264.301,236.717 258.781,235.243 253.33,233.72C252.57,233.507 247.966,232.686 247.966,232.686C247.966,232.686 250.831,239.106 250.991,239.54C253.525,246.42 260.771,266.455 260.771,266.455L245.923,257.687C245.923,257.687 248.225,263.282 248.445,263.702C251.069,268.719 256.006,284.917 256.006,284.917C256.006,284.917 248.078,279.367 245.257,277.486C245.05,277.348 242.363,275.384 242.189,275.615C242,275.867 244.452,281.144 245.626,285.127C248.297,294.185 251.762,314.686 251.762,314.686L243.158,307.926C243.158,307.926 243.841,312.143 243.941,313.376C244.235,317.017 244.496,320.635 244.92,324.266C246.262,335.769 245.495,346.721 243.375,358.089C242.792,361.216 241.742,368.654 241.623,368.595C241.099,368.332 238.063,352.043 237.239,346.536C233.943,324.502 227.667,303.069 223.521,281.207C218.404,254.228 214.712,225.429 222.798,198.582C240.062,141.267 289.682,104.538 344.734,88.451C360.662,83.797 381.534,78.687 399.935,78.687Z"
          style="fill: none; stroke: black; stroke-width: 2.1px"
        />
      </g>
    </g>
  </g>
</svg>
