<?xml version="1.0" encoding="UTF-8" standalone="no"?>
<!DOCTYPE svg PUBLIC "-//W3C//DTD SVG 1.1//EN" "http://www.w3.org/Graphics/SVG/1.1/DTD/svg11.dtd">
<svg
  width="100%"
  height="100%"
  viewBox="0 0 800 800"
  xmlns="http://www.w3.org/2000/svg"
>
  <g id="hairstyles-front">
    <g id="hairstyle-9-front">
      <path
        d="M253.551,420.586C253.493,420.549 254.012,420.265 254.087,420.232C256.534,419.167 259.131,418.296 261.656,417.439C263.658,416.76 272.74,410.85 274.379,411.506C274.649,411.614 274.253,413.593 274.231,413.846C273.524,421.972 273.227,429.917 271.479,437.958C271.357,438.52 270,444.732 269.303,444.732C268.492,444.732 270.118,443.327 270.572,442.655C271.786,440.86 273.128,439.175 274.478,437.48C277.985,433.078 281.747,428.9 285.191,424.444C289.878,418.377 295.338,411.491 298.458,404.419C298.975,403.247 303.204,391.902 304.029,392.108C304.653,392.264 304.633,402.171 304.688,403.018C305.16,410.34 306.334,416.9 309.121,423.702C310.187,426.302 311.221,428.905 312.417,431.448C313.026,432.74 313.801,436.328 314.593,435.14C314.634,435.077 314.284,417.807 314.593,415.824C315.235,411.701 316.147,407.615 317.131,403.562C317.926,400.286 318.784,397.03 319.653,393.773C319.708,393.564 320.935,389.239 321.004,389.273C321.138,389.34 320.421,392.05 320.394,392.256C320.012,395.159 320.225,398.106 320.493,401.008C321.33,410.079 322.704,416.764 327.629,424.526C328.267,425.532 331.955,432.404 333.332,432.404C335.933,432.404 333.808,427.145 334.799,424.74C336.597,420.373 340.207,416.349 343.649,413.22C356.854,401.215 374.08,393.37 388.46,382.895C392.128,380.224 395.9,377.688 399.519,374.951C400.168,374.461 406.451,368.708 407.183,369.348C407.693,369.794 404.175,374.881 403.87,375.363C400.052,381.417 395.958,387.301 392.202,393.394C390.972,395.388 389.793,397.418 388.642,399.459C388.566,399.594 387.659,401.403 387.752,401.403C389.482,401.403 393.462,396.141 394.558,395.058C400.947,388.749 407.572,382.611 413.726,376.072C439.421,348.771 459.625,316.926 484.149,288.707C491.334,280.439 498.368,272.055 504.569,263.013C505.089,262.254 509.749,254.362 510.683,254.673C511.435,254.924 511.975,261.905 512.232,262.799C514.571,270.915 518.369,278.416 519.913,286.795C526.519,322.658 524.88,359.722 517.77,395.272C516.751,400.367 520.218,399.284 520.934,403.15C521.752,407.568 518.57,413.733 517.177,417.802C515.949,421.385 514.597,424.943 513.287,428.498C512.667,430.183 509.948,434.554 511.441,433.558C516.81,429.978 521.481,416.989 524.857,411.572C526.196,409.423 527.548,407.279 528.911,405.145C529.089,404.866 531.296,401.804 531.35,402.112C532.642,409.429 524.131,433.144 521.577,441.584C520.838,444.028 516.837,450.729 517.506,453.071C517.591,453.366 524.661,445.71 525.45,445.028C525.525,444.964 525.797,444.762 525.681,445.028C521.995,453.452 517.117,461.332 513.683,470.014C512.587,472.784 511.617,475.601 510.518,478.369C509.965,479.763 507.288,482.523 508.788,482.523C511.792,482.523 518.814,472.661 521.231,470.491C538.336,455.141 548.443,442.482 554.935,418.906C571.718,357.956 566.18,299.406 541.651,241.192C535.864,227.458 530.028,212.583 521.577,200.22C506.844,178.668 471.157,216.482 458.142,226.227C453.613,229.618 449.082,233.004 444.529,236.363C416.27,257.21 387.526,277.288 357.872,296.107C316.248,322.521 282.498,339.356 261.673,385.812"
        style="fill: rgb(56, 25, 57); fill-opacity: 0.5"
      />
      <path
        d="M536.139,373.931C533.135,386.035 521.256,398.989 516.327,408.982C512.342,417.06 503.529,428.536 503.529,428.536C503.529,428.536 515.849,401.013 516.514,399.382C525.404,377.55 530.729,367.241 532.872,333.528C534.057,314.879 533.367,305.991 528.355,274.728C525.164,254.821 513.701,211.132 513.701,211.132C513.701,211.132 508.928,225.552 507.306,229.722C502.89,241.077 495.715,251.305 490.077,262.053C473.173,294.278 450.73,327.092 426.781,354.357C416.845,365.669 406.937,376.994 396.171,387.532C392.53,391.095 388.766,394.562 385.033,398.028C383.827,399.148 382.62,400.29 381.456,401.454C380.865,402.045 379.617,403.994 379.617,403.158C379.617,398.152 387.636,388.969 390.248,385.001C399.26,371.308 409.561,358.27 417.129,343.675C419.088,339.896 424.216,328.134 424.216,328.134C424.216,328.134 419.317,334.727 417.702,336.521C412.765,342.007 407.193,346.785 401.638,351.623C386.77,364.573 373.729,376.804 365.594,395.227C362.734,401.703 359.985,408.364 357.714,415.071C356.961,417.294 356.231,419.529 355.537,421.77C355.476,421.968 354.552,425.016 354.541,425.01C353.296,424.388 354.507,409.721 354.507,408.153C354.507,392.877 354.956,377.426 356.667,362.237C356.862,360.511 358.709,347 358.709,347C358.709,347 356.932,353.186 356.364,354.981C354.723,360.162 353.081,365.314 351.268,370.438C345.446,386.892 342.497,403.798 338.696,420.775C337.519,426.032 336.445,431.268 335.929,436.637C335.723,438.77 335.67,440.911 335.541,443.049C335.532,443.188 335.531,445.074 335.507,445.074C335.071,445.074 333.463,435.928 333.313,435.287C330.777,424.477 327.428,413.889 324.893,403.074C324.723,402.349 322.826,392.004 322.564,392.004C322.296,392.004 321.256,400.064 321.147,400.829C320.068,408.382 324.471,432.52 324.471,432.52C324.471,432.52 322.589,427.485 322.041,425.888C320.603,421.693 319.192,417.477 318.43,413.097C316.62,402.692 316.595,391.951 315.578,381.44C315.371,379.298 314.076,370.438 314.076,370.438C314.076,370.438 313.658,374.145 313.384,375.99C312.858,379.545 312.087,383.087 311.275,386.587C308.588,398.16 309.149,410.121 310.718,421.821C311.152,425.058 314.214,435.766 314.214,435.766C314.214,435.766 308.425,422.484 307.883,421.129C302.936,408.762 299.274,395.274 297.455,382.082C297.192,380.175 296.797,369.375 296.797,369.375C296.797,369.375 294.516,385.193 293.084,389.675C289.126,402.068 282.79,413.706 274.995,424.099C272.426,427.525 269.667,430.769 266.929,434.055C265.991,435.181 262.71,439.016 262.71,439.016C262.71,439.016 268.047,430.74 268.633,429.685C280.255,408.767 282.217,394.451 282.217,394.451C282.217,394.451 274.764,404.638 272.211,407.14C264.265,414.927 255.061,421.267 246.089,427.812C218.539,447.907 186.156,471.644 151.71,477.844C151.394,477.901 147.161,478.855 147.002,478.536C146.978,478.488 151.426,474.034 151.625,473.778C154.444,470.154 156.826,466.115 159.067,462.117C165.72,450.251 168.858,437.095 172.482,424.099C173.639,419.95 178.54,406.162 178.54,406.162C178.54,406.162 169.942,419.38 167.268,423.239C157.094,437.92 146.219,452.756 133.215,465.087C128.333,469.717 123.117,473.185 117.016,475.988C116.873,476.054 115.32,476.895 115.177,476.68C115.017,476.441 119.762,470.459 120.07,469.998C124.488,463.372 128.138,455.971 131.19,448.618C140.086,427.187 145.039,406.281 147.356,383.111C147.925,377.425 150.867,364.231 148.116,358.727C147.817,358.13 144.804,362.173 144.555,362.474C142.366,365.119 140.125,367.716 137.738,370.185C130.591,377.576 122.651,384.122 114.772,390.705C111.01,393.847 97.053,403.647 97.053,403.647C97.053,403.647 111.673,391.385 116.071,386.604C137.493,363.319 143.466,350.968 149.938,319.629C151.587,311.646 153.497,303.67 155.304,295.718C155.439,295.125 157.519,288.74 157.228,288.546C156.841,288.288 152.795,293.831 152.537,294.166C147.488,300.694 142.36,307.333 136.692,313.335C128.106,322.426 95.095,353.556 84.043,359.082C82.574,359.816 86.382,356.775 87.553,355.623C90.06,353.156 92.525,350.649 94.944,348.096C102.004,340.649 109.362,333.263 114.991,324.624C132.512,297.731 137.376,265.42 146.513,235.139C148.791,227.589 151.395,220.111 154.342,212.797C154.515,212.369 157.351,206.845 157.076,206.57C156.902,206.396 151.86,211.975 151.558,212.291C147.848,216.172 143.556,219.679 139.138,222.719C123.589,233.418 106.604,241.291 89.511,249.144C87.704,249.975 75.245,257.798 73.53,256.941C72.249,256.3 75.752,255.13 76.888,254.257C79.088,252.568 81.319,250.921 83.503,249.212C90.393,243.823 96.94,238.324 102.909,231.916C121.457,212.004 139.413,192.003 156.384,170.712C188.746,130.112 218.109,87.204 261.04,56.623C284.311,40.046 337.589,17.99 366.961,11.501C371.125,10.581 375.375,9.885 379.658,9.294C379.611,9.073 387.315,8.139 387.702,8.084C393.264,7.301 398.8,6.345 404.362,5.556C427.444,2.285 460.519,0.336 480.36,15.792C490.687,23.837 484.492,33.702 486.445,34.97C487.509,35.661 493.571,32.88 494.738,32.666C503.213,31.11 510.136,31.599 517.078,32.715C523.799,33.796 528.067,33.327 536.387,39.363C541.905,43.367 539.477,49.186 545.568,53.239C552.306,57.722 560.424,62.892 567.516,70.991C619.212,130.029 603.792,147.811 625.017,198.366C635.24,222.715 649.072,248.831 656.208,274.367C658.187,281.451 660.758,299.196 660.758,299.196C660.758,299.196 655.183,285.951 653.629,282.091C647.308,266.398 641.103,251.112 632.145,236.817C631.665,236.052 624.725,224.526 624.182,224.873C623.585,225.254 624.773,227.973 624.907,228.382C627.983,237.748 631.121,247.521 631.118,257.473C631.114,268.718 628.55,279.778 628.173,291.011C627.385,314.536 628.552,338.279 628.46,361.835C628.383,381.394 623.188,396.285 619.817,415.443C618.575,422.502 612.441,439.058 611.035,443.031C610.892,443.57 610.79,443.892 610.75,443.9C610.732,443.904 610.837,443.594 611.035,443.031C611.797,440.167 613.728,431.17 613.794,430.43C617.094,393.247 611.935,376.4 611.935,376.4C611.935,376.4 607.265,389.69 606.901,393.219C605.726,404.625 602.515,414.47 597.969,424.912C597.878,425.121 600.328,397.989 596.282,385.408C596.087,384.799 593.742,397.835 593.604,398.845C591.309,415.629 588.716,433.216 587.684,450.29C587.417,454.703 587.084,469.966 587.084,469.966C587.084,469.966 584.64,459.56 584.281,458.385C578.264,438.68 578.487,408.132 578.487,408.132C578.487,408.132 575.834,414.853 571.7,421.001C558.003,441.37 539.102,462.864 523.773,476.051C516.247,482.527 499.553,497.927 498.858,497.357C498.151,496.778 508.206,482.683 508.872,481.715C514.708,473.229 520.745,464.835 526.187,456.09C528.371,452.58 534.09,442.866 534.09,442.866L508.125,466.159C508.125,466.159 517.669,451.594 518.928,449.569C542.541,411.596 545.877,388.771 545.877,388.771C545.877,388.771 535.622,402.132 533.507,405.022C526.418,414.709 506.276,440.989 505.684,440.754C505.547,440.699 513.666,429.391 515.732,425.763C521.353,415.889 528.015,404.32 531.532,394.9C533.517,389.58 535.233,379.758 536.139,373.931C536.532,372.348 536.774,370.782 536.828,369.238C536.829,369.226 536.579,371.11 536.139,373.931ZM506.338,43.325C506.338,43.325 510.086,41.097 510.685,40.974C514.063,40.28 517.589,40.495 520.919,41.343C525.078,42.402 529.129,44.723 532.123,47.812C533.155,48.877 533.918,50.066 534.82,51.227C535.278,51.818 533.492,51.369 532.396,50.914C530.281,50.035 528.66,49.707 526.549,48.819C520.24,46.165 513.191,43.985 506.338,43.325ZM472.875,31.861C472.408,31.08 472.607,29.508 472.416,28.631C472.005,26.748 471.143,24.964 470.098,23.353C464.218,14.29 453.487,10.436 443.251,9.067C437.106,8.244 430.829,9.312 424.866,10.795C424.571,10.868 419.277,12.358 419.369,12.544C419.588,12.983 423.008,12.776 423.465,12.801C427.451,13.017 431.424,13.453 435.315,14.371C443.693,16.349 451.303,20.781 458.757,24.901C463.151,27.329 467.836,29.197 472.241,31.608L472.875,31.861Z"
        style="
          fill: rgb(
            var(--color_hairs_r, 183),
            var(--color_hairs_g, 55),
            var(--color_hairs_b, 88)
          );
        "
      />
      <clipPath id="_clip2_hair9">
        <path
          d="M536.139,373.931C533.135,386.035 521.256,398.989 516.327,408.982C512.342,417.06 503.529,428.536 503.529,428.536C503.529,428.536 515.849,401.013 516.514,399.382C525.404,377.55 530.729,367.241 532.872,333.528C534.057,314.879 533.367,305.991 528.355,274.728C525.164,254.821 513.701,211.132 513.701,211.132C513.701,211.132 508.928,225.552 507.306,229.722C502.89,241.077 495.715,251.305 490.077,262.053C473.173,294.278 450.73,327.092 426.781,354.357C416.845,365.669 406.937,376.994 396.171,387.532C392.53,391.095 388.766,394.562 385.033,398.028C383.827,399.148 382.62,400.29 381.456,401.454C380.865,402.045 379.617,403.994 379.617,403.158C379.617,398.152 387.636,388.969 390.248,385.001C399.26,371.308 409.561,358.27 417.129,343.675C419.088,339.896 424.216,328.134 424.216,328.134C424.216,328.134 419.317,334.727 417.702,336.521C412.765,342.007 407.193,346.785 401.638,351.623C386.77,364.573 373.729,376.804 365.594,395.227C362.734,401.703 359.985,408.364 357.714,415.071C356.961,417.294 356.231,419.529 355.537,421.77C355.476,421.968 354.552,425.016 354.541,425.01C353.296,424.388 354.507,409.721 354.507,408.153C354.507,392.877 354.956,377.426 356.667,362.237C356.862,360.511 358.709,347 358.709,347C358.709,347 356.932,353.186 356.364,354.981C354.723,360.162 353.081,365.314 351.268,370.438C345.446,386.892 342.497,403.798 338.696,420.775C337.519,426.032 336.445,431.268 335.929,436.637C335.723,438.77 335.67,440.911 335.541,443.049C335.532,443.188 335.531,445.074 335.507,445.074C335.071,445.074 333.463,435.928 333.313,435.287C330.777,424.477 327.428,413.889 324.893,403.074C324.723,402.349 322.826,392.004 322.564,392.004C322.296,392.004 321.256,400.064 321.147,400.829C320.068,408.382 324.471,432.52 324.471,432.52C324.471,432.52 322.589,427.485 322.041,425.888C320.603,421.693 319.192,417.477 318.43,413.097C316.62,402.692 316.595,391.951 315.578,381.44C315.371,379.298 314.076,370.438 314.076,370.438C314.076,370.438 313.658,374.145 313.384,375.99C312.858,379.545 312.087,383.087 311.275,386.587C308.588,398.16 309.149,410.121 310.718,421.821C311.152,425.058 314.214,435.766 314.214,435.766C314.214,435.766 308.425,422.484 307.883,421.129C302.936,408.762 299.274,395.274 297.455,382.082C297.192,380.175 296.797,369.375 296.797,369.375C296.797,369.375 294.516,385.193 293.084,389.675C289.126,402.068 282.79,413.706 274.995,424.099C272.426,427.525 269.667,430.769 266.929,434.055C265.991,435.181 262.71,439.016 262.71,439.016C262.71,439.016 268.047,430.74 268.633,429.685C280.255,408.767 282.217,394.451 282.217,394.451C282.217,394.451 274.764,404.638 272.211,407.14C264.265,414.927 255.061,421.267 246.089,427.812C218.539,447.907 186.156,471.644 151.71,477.844C151.394,477.901 147.161,478.855 147.002,478.536C146.978,478.488 151.426,474.034 151.625,473.778C154.444,470.154 156.826,466.115 159.067,462.117C165.72,450.251 168.858,437.095 172.482,424.099C173.639,419.95 178.54,406.162 178.54,406.162C178.54,406.162 169.942,419.38 167.268,423.239C157.094,437.92 146.219,452.756 133.215,465.087C128.333,469.717 123.117,473.185 117.016,475.988C116.873,476.054 115.32,476.895 115.177,476.68C115.017,476.441 119.762,470.459 120.07,469.998C124.488,463.372 128.138,455.971 131.19,448.618C140.086,427.187 145.039,406.281 147.356,383.111C147.925,377.425 150.867,364.231 148.116,358.727C147.817,358.13 144.804,362.173 144.555,362.474C142.366,365.119 140.125,367.716 137.738,370.185C130.591,377.576 122.651,384.122 114.772,390.705C111.01,393.847 97.053,403.647 97.053,403.647C97.053,403.647 111.673,391.385 116.071,386.604C137.493,363.319 143.466,350.968 149.938,319.629C151.587,311.646 153.497,303.67 155.304,295.718C155.439,295.125 157.519,288.74 157.228,288.546C156.841,288.288 152.795,293.831 152.537,294.166C147.488,300.694 142.36,307.333 136.692,313.335C128.106,322.426 95.095,353.556 84.043,359.082C82.574,359.816 86.382,356.775 87.553,355.623C90.06,353.156 92.525,350.649 94.944,348.096C102.004,340.649 109.362,333.263 114.991,324.624C132.512,297.731 137.376,265.42 146.513,235.139C148.791,227.589 151.395,220.111 154.342,212.797C154.515,212.369 157.351,206.845 157.076,206.57C156.902,206.396 151.86,211.975 151.558,212.291C147.848,216.172 143.556,219.679 139.138,222.719C123.589,233.418 106.604,241.291 89.511,249.144C87.704,249.975 75.245,257.798 73.53,256.941C72.249,256.3 75.752,255.13 76.888,254.257C79.088,252.568 81.319,250.921 83.503,249.212C90.393,243.823 96.94,238.324 102.909,231.916C121.457,212.004 139.413,192.003 156.384,170.712C188.746,130.112 218.109,87.204 261.04,56.623C284.311,40.046 337.589,17.99 366.961,11.501C371.125,10.581 375.375,9.885 379.658,9.294C379.611,9.073 387.315,8.139 387.702,8.084C393.264,7.301 398.8,6.345 404.362,5.556C427.444,2.285 460.519,0.336 480.36,15.792C490.687,23.837 484.492,33.702 486.445,34.97C487.509,35.661 493.571,32.88 494.738,32.666C503.213,31.11 510.136,31.599 517.078,32.715C523.799,33.796 528.067,33.327 536.387,39.363C541.905,43.367 539.477,49.186 545.568,53.239C552.306,57.722 560.424,62.892 567.516,70.991C619.212,130.029 603.792,147.811 625.017,198.366C635.24,222.715 649.072,248.831 656.208,274.367C658.187,281.451 660.758,299.196 660.758,299.196C660.758,299.196 655.183,285.951 653.629,282.091C647.308,266.398 641.103,251.112 632.145,236.817C631.665,236.052 624.725,224.526 624.182,224.873C623.585,225.254 624.773,227.973 624.907,228.382C627.983,237.748 631.121,247.521 631.118,257.473C631.114,268.718 628.55,279.778 628.173,291.011C627.385,314.536 628.552,338.279 628.46,361.835C628.383,381.394 623.188,396.285 619.817,415.443C618.575,422.502 612.441,439.058 611.035,443.031C610.892,443.57 610.79,443.892 610.75,443.9C610.732,443.904 610.837,443.594 611.035,443.031C611.797,440.167 613.728,431.17 613.794,430.43C617.094,393.247 611.935,376.4 611.935,376.4C611.935,376.4 607.265,389.69 606.901,393.219C605.726,404.625 602.515,414.47 597.969,424.912C597.878,425.121 600.328,397.989 596.282,385.408C596.087,384.799 593.742,397.835 593.604,398.845C591.309,415.629 588.716,433.216 587.684,450.29C587.417,454.703 587.084,469.966 587.084,469.966C587.084,469.966 584.64,459.56 584.281,458.385C578.264,438.68 578.487,408.132 578.487,408.132C578.487,408.132 575.834,414.853 571.7,421.001C558.003,441.37 539.102,462.864 523.773,476.051C516.247,482.527 499.553,497.927 498.858,497.357C498.151,496.778 508.206,482.683 508.872,481.715C514.708,473.229 520.745,464.835 526.187,456.09C528.371,452.58 534.09,442.866 534.09,442.866L508.125,466.159C508.125,466.159 517.669,451.594 518.928,449.569C542.541,411.596 545.877,388.771 545.877,388.771C545.877,388.771 535.622,402.132 533.507,405.022C526.418,414.709 506.276,440.989 505.684,440.754C505.547,440.699 513.666,429.391 515.732,425.763C521.353,415.889 528.015,404.32 531.532,394.9C533.517,389.58 535.233,379.758 536.139,373.931C536.532,372.348 536.774,370.782 536.828,369.238C536.829,369.226 536.579,371.11 536.139,373.931ZM506.338,43.325C506.338,43.325 510.086,41.097 510.685,40.974C514.063,40.28 517.589,40.495 520.919,41.343C525.078,42.402 529.129,44.723 532.123,47.812C533.155,48.877 533.918,50.066 534.82,51.227C535.278,51.818 533.492,51.369 532.396,50.914C530.281,50.035 528.66,49.707 526.549,48.819C520.24,46.165 513.191,43.985 506.338,43.325ZM472.875,31.861C472.408,31.08 472.607,29.508 472.416,28.631C472.005,26.748 471.143,24.964 470.098,23.353C464.218,14.29 453.487,10.436 443.251,9.067C437.106,8.244 430.829,9.312 424.866,10.795C424.571,10.868 419.277,12.358 419.369,12.544C419.588,12.983 423.008,12.776 423.465,12.801C427.451,13.017 431.424,13.453 435.315,14.371C443.693,16.349 451.303,20.781 458.757,24.901C463.151,27.329 467.836,29.197 472.241,31.608L472.875,31.861Z"
        />
      </clipPath>
      <g clip-path="url(#_clip2_hair9)">
        <path
          d="M183.697,412.284C184.755,407.563 185.271,393.543 188.601,390.356L183.892,411.803C183.828,411.963 183.763,412.122 183.697,412.284C183.676,412.381 183.653,412.475 183.631,412.564C179.384,429.552 174.233,448.209 164.052,462.753C158.894,470.121 152.016,476.147 144.886,481.549C144.204,482.066 134.037,489.263 133.965,489.119C133.767,488.724 135.671,486.799 135.879,486.552C142.045,479.255 147.85,471.799 153.653,464.21C166.395,447.547 175.777,431.777 183.697,412.284ZM149.128,365.967C151.948,368.541 149.933,383.501 149.933,387.198C149.933,414.036 138.617,440.336 123.805,462.209C115.541,474.414 105.761,487.706 103.965,486.748C102.949,486.206 108.428,475.732 108.795,474.957C111.655,468.922 114.544,462.899 117.344,456.835C121.564,447.698 125.53,438.451 129.135,429.054C134.769,414.373 138.326,399.379 141.797,384.109L149.128,365.967ZM611.155,280.524C611.078,280.5 612.133,283.996 612.225,284.272C613.073,286.792 613.905,289.316 614.748,291.838C617.32,299.532 619.849,307.256 622.055,315.065C624.341,323.159 623.854,331.347 624.257,339.656C624.551,345.707 624.376,354.137 624.587,360.658C625.002,373.457 618.428,415.553 619.052,419.302C619.151,419.891 623.552,430.991 624.083,431.349C625.037,431.992 635.225,371.24 635.211,370.089C635.184,367.921 631.16,349.472 630.536,342.734C628.674,322.629 621.867,303.333 613.802,284.953L611.155,280.524ZM142.145,227.467C149.443,218.166 155.081,207.557 162.659,198.367C162.874,198.107 165.974,194.154 166.184,194.364C166.963,195.143 162.145,203.424 161.724,204.328C157.044,214.391 153.498,224.823 150.107,235.372C137.938,273.229 125.431,312.697 100.136,343.993C97.396,347.384 74.359,371.714 71.246,370.469C70.061,369.995 75.584,359.373 75.88,358.743C82.205,345.26 88.953,331.937 95.72,318.671C102.427,305.524 109.3,292.477 115.452,279.055L142.145,227.467ZM616.253,260.852C616.343,261.28 616.41,261.636 616.438,261.767C617.177,265.226 617.983,268.683 618.571,272.171C620.641,284.449 621.49,296.98 625.678,308.797C626.195,310.258 628.326,318.502 629.924,318.946C630.177,319.017 629.424,313.773 629.362,313.457C628.604,309.58 627.776,305.709 626.908,301.855C624.38,290.623 621.646,279.365 618.894,268.185L616.253,260.852C616.05,259.889 615.725,258.56 615.437,258.586L616.253,260.852ZM617.421,239.022C617.022,239.706 619.855,245.572 620.098,246.37C622.158,253.125 623.636,259.906 624.662,266.89C625.741,274.239 626.216,281.673 627.223,289.036C627.356,290.012 627.494,295.615 628.521,296.091C628.882,296.258 629.213,293.292 629.231,293.126C629.595,289.85 629.723,286.531 629.783,283.237C630,271.079 623.95,257.831 620.386,246.304L617.421,239.022ZM612.278,198.162C611.546,198.276 612.848,199.53 613.106,200.224C613.579,201.492 614.017,202.773 614.449,204.056C615.854,208.231 617.126,212.454 618.34,216.687C622.093,229.765 628.162,243.039 629.037,256.768C629.305,260.978 628.479,270.903 632.933,273.244C634.008,273.809 634.193,267.897 634.191,267.564C634.149,261.506 633.4,255.127 631.959,249.242C630.443,243.047 628.151,236.965 625.951,230.984C622.667,222.057 619.38,213.126 616.058,204.214L612.278,198.162ZM617.152,175.86C617.726,177.442 617.702,180.358 617.876,181.576C618.57,186.436 619.105,191.252 621.022,195.817C627.543,211.348 635.732,226.434 642.873,241.713C645.236,246.768 647.692,251.773 650.143,256.786C651.015,258.568 651.885,260.352 652.746,262.14C653.15,262.979 653.971,265.586 653.965,264.655C653.95,262.553 651.964,259.443 651.229,257.523C648.999,251.691 646.773,245.856 644.606,240C642.419,234.09 640.201,228.192 637.996,222.289C633.987,211.563 629.596,201.042 624.892,190.605L617.152,175.86C617.05,175.578 616.928,175.339 616.784,175.159L617.152,175.86ZM37.886,232.147C64.806,213.381 90.004,192.284 114.772,170.74C134.496,153.583 153.843,135.997 173.123,118.344C188.624,104.152 204.355,90.293 220.722,77.104C234.812,65.75 249.327,54.971 264.574,45.213C310.547,15.79 356.126,0.179 409.665,10.319C418.47,11.987 427.344,13.527 436.089,15.482C438.216,15.957 444.331,16.487 445.963,18.118C446.947,19.102 443.179,17.973 441.801,17.776C438.983,17.374 436.192,16.792 433.367,16.434C425,15.373 416.566,13.707 408.164,13.053C386.876,11.397 364.553,12.919 344.504,20.754C339.929,22.542 333.638,24.055 329.675,27.028C329.333,27.284 331.653,26.876 331.896,26.832C333.589,26.531 335.281,26.229 336.973,25.929C341.629,25.104 346.283,24.267 350.984,23.744C367.835,21.872 385.969,21.591 402.831,23.537C406.813,23.996 410.757,24.765 414.706,25.441C414.929,25.479 418.38,25.934 418.38,26.1C418.38,26.213 414.8,26.163 414.596,26.161C410.296,26.116 405.996,25.978 401.696,25.978C390.219,25.978 378.748,26.095 367.315,27.198C327.331,31.059 298.745,38.118 265.441,61.287C258.591,66.052 252.062,71.793 246.377,77.885C245.834,78.467 240.935,83.227 241.287,84.049C241.381,84.266 242.081,83.989 242.19,83.951C245.935,82.67 249.619,81.118 253.333,79.74C266.831,74.736 279.476,67.567 292.548,61.567C325.988,46.218 357.151,39.586 393.653,39.586C393.8,39.586 393.36,39.618 393.213,39.635C391.917,39.788 390.608,39.853 389.308,39.965C386.668,40.192 384.026,40.377 381.387,40.612C372.772,41.377 364.313,42.525 355.842,44.273C327.985,50.021 302.384,61.074 278.5,76.36C273.185,79.761 267.817,83.152 262.707,86.856C262.299,87.152 257.898,89.92 258.044,90.359C258.562,91.912 260.902,88.761 262.341,87.979C265.2,86.424 268.092,84.912 270.994,83.438C278.891,79.427 287,75.41 295.391,72.54C297.882,71.687 301.908,69.567 304.655,70.025C306.159,70.276 302.892,73.437 302.604,73.711C299.737,76.445 291.584,83.674 291.803,84.659C291.862,84.925 295.335,83.496 295.599,83.402C298.194,82.481 301.491,81.09 304.338,81.608C306.449,81.992 302.761,85.512 303.691,85.977C304.498,86.381 308.041,83.829 308.695,83.475C313.673,80.781 318.723,78.241 323.755,75.652C336.973,68.851 352.041,63.894 366.68,61.348C370.412,60.699 377.595,58.164 381.362,59.419C382.186,59.694 379.716,59.972 378.885,60.225C377.308,60.705 375.738,61.205 374.174,61.726C369.151,63.4 364.099,64.982 359.101,66.73C344.794,71.733 330.788,78.05 317.433,85.233C291.414,99.226 270.205,117.498 246.865,135.187C240.785,139.795 234.903,144.693 228.35,148.625C227.384,149.204 223.722,152.293 222.589,152.066C221.469,151.842 223.966,150.237 224.737,149.393C226.418,147.557 228.166,145.772 229.888,143.975C235.77,137.834 242.707,132.531 247.975,125.826C249.008,124.512 252.349,120.231 250.209,118.601C247.316,116.397 241.032,120.8 238.736,122.164C228.375,128.325 218.16,134.779 207.968,141.216C205.293,142.906 202.63,144.613 199.949,146.293C198.66,147.102 196.974,150.062 196.129,148.795C195.851,148.377 202.147,141.979 202.549,141.509C208.918,134.067 215.667,126.75 221.686,119.028C223.482,116.724 225.159,114.338 226.8,111.925C226.974,111.669 229.464,108.174 229.095,108.092C227.364,107.708 222.273,112.951 220.637,113.902C217.682,115.62 214.643,113.942 212.13,115.513C205.166,119.865 199.49,128.582 194.091,134.601C167.077,164.721 145.153,198.553 114.381,225.222C104.616,233.685 94.579,241.016 82.941,246.752C81.561,247.432 72.899,252.65 71.408,251.756C71.319,251.703 37.886,232.147 37.886,232.147ZM429.637,200.481C436.803,179.334 451.402,158.85 465.649,141.851C469.238,137.569 472.906,133.272 476.78,129.243C477.204,128.802 479.751,125.703 480.551,126.57C484.707,131.072 478.589,148.815 477.402,154.08C477.216,154.908 474.863,162.45 475.584,162.965C476.292,163.471 479.308,160.227 479.66,159.89C483.495,156.217 487.262,152.433 491.23,148.905C491.567,148.606 495.375,144.743 495.685,144.975C497.075,146.017 495.531,156.223 495.502,157.815C495.317,167.89 496.926,177.979 494.33,187.888C493.77,190.026 492.691,195.525 490.718,197.005C490.599,197.094 490.598,194.356 490.608,194.149C490.697,192.282 490.735,190.413 490.84,188.547C491.227,181.632 491.656,174.72 492.121,167.811C492.149,167.405 492.761,162.044 492.073,162.135C489.106,162.531 484.784,170.23 483.163,172.351C474.669,183.468 467.603,195.509 460.035,207.244C457.764,210.765 455.377,214.193 453.041,217.667C452.763,218.082 451.428,220.864 450.857,220.816C450.234,220.764 451.172,216.75 451.223,216.496C451.828,213.473 452.472,210.451 453.286,207.476C455.8,198.277 458.922,189.322 462.049,180.321C463.271,176.802 465.645,171.194 464.209,167.408C462.868,163.873 458.269,165.87 456.203,167.42C450.132,171.973 445.945,178.024 441.862,184.312C438.212,189.932 434.497,195.584 430.475,200.947L429.637,200.481ZM293.83,167.156C298.694,164.854 304.577,157.605 309.097,154.092C325.826,141.092 343.896,127.475 365.728,126.851C369.551,126.742 373.326,125.82 376.92,124.532C377.389,124.364 380.138,122.917 380.606,123.251C380.9,123.461 378.047,126.24 377.872,126.424C374.814,129.627 371.525,132.6 368.364,135.7C359.787,144.11 350.89,152.18 342.124,160.39C325.067,176.364 308.719,192.035 290.412,206.598C285.892,210.193 281.119,213.39 276.523,216.874C275.663,217.526 272.798,220.597 271.69,220.597C271.592,220.597 272.525,218.766 272.58,218.668C273.313,217.392 274.08,216.138 274.851,214.885C277.318,210.869 279.996,207.012 282.772,203.205C291.854,190.745 300.932,178.895 311.941,168.055C315.489,164.561 326.929,157.069 328.735,153.458C329.011,152.907 327.693,154.117 327.173,154.446C326.214,155.053 325.263,155.674 324.317,156.301C321.548,158.137 318.811,160.018 316.127,161.977C310.046,166.414 304.217,171.185 298.15,175.646C296.387,176.942 293.677,180.094 291.559,180.699C291.301,180.773 292.598,177.341 292.743,177.025C294.102,174.055 297.391,171.112 298.174,167.981C298.299,167.483 297.168,168.209 296.685,168.384C295.485,168.821 294.509,168.726 293.292,168.726L293.83,167.156ZM357.39,157.926C356.98,158.497 358.169,156.753 358.617,156.21C359.544,155.086 360.492,153.977 361.456,152.884C364.168,149.809 366.829,146.691 369.56,143.633C378.003,134.177 387.462,126.693 398.364,120.26C407.542,114.845 415.919,107.136 426.288,104.211C427.895,103.758 433.57,101.493 435.222,102.319C435.365,102.391 430.919,106.365 430.609,106.628C428.944,108.04 415.227,119.539 420.54,119.431C430.232,119.233 438.107,109.231 445.45,103.357C445.929,102.974 446.408,102.59 446.878,102.197C447.6,101.593 455.548,94.945 455.702,95.228C456.058,95.882 454.045,98.013 453.725,98.426C451.086,101.831 448.378,105.145 445.499,108.349C433.748,121.423 420.183,133.234 410.434,148.014C398.766,165.705 385.168,181.982 373.661,199.8C370.916,204.05 368.108,208.253 365.52,212.602C365.302,212.969 363.334,216.858 362.909,216.752C362.868,216.742 364.963,211.48 365.081,211.199C366.703,207.322 368.417,203.489 370.158,199.665C376.402,185.956 383.204,172.499 391.016,159.609C392.171,157.703 399.084,149.297 398.425,146.989C398.367,146.785 394.553,149.84 394.348,150.028C390.979,153.122 387.87,156.59 384.255,159.401C383.784,159.768 381.487,161.975 380.789,161.696C380.441,161.557 382.171,158.732 382.29,158.523C382.573,158.025 382.524,158.113 382.803,157.607C383.241,156.812 389.105,147.379 388.209,146.782C387.168,146.087 383.178,148.985 382.412,149.479C376.94,153.009 372.08,159.616 366.057,162.026C366.004,162.047 367.001,159.946 367.156,159.658C367.605,158.821 371.14,153.547 370.341,152.616C370.18,152.427 369.124,153.144 368.987,153.226C365.944,155.051 362.449,156.608 359.674,158.828L357.39,157.926ZM521.387,126.672C521.516,127.011 521.34,128.472 521.382,129.081C521.493,130.695 521.606,132.31 521.781,133.918C522.277,138.479 522.953,143.025 523.327,147.598C524.697,164.381 526.364,181.672 529.363,198.236C530.103,202.325 530.749,206.433 531.457,210.528C531.502,210.789 532.026,214.054 532.513,213.933C533.395,213.714 534.15,209.433 534.347,208.72C535.339,205.126 536.349,197.967 539.97,195.745C543.018,193.875 546.812,202.188 547.836,203.908C547.962,204.12 549.271,206.814 549.461,206.77C549.543,206.751 547.791,199.766 547.699,199.372C546.548,194.47 545.426,189.565 544.617,184.593C542.866,173.839 540.688,163.17 538.393,152.52C535.693,139.998 535.407,131.708 523.366,126.251L521.387,126.672ZM569.161,140.227C569.247,140.047 573.304,142.277 573.566,142.415C577.57,144.522 581.949,146.601 584.98,150.088C588.533,154.175 590.247,160.374 592.284,165.275C596.322,174.994 600.97,185.387 601.93,196.017C602.037,197.201 600.396,194.2 599.662,193.265C598.062,191.225 596.452,189.193 594.776,187.215C594.066,186.376 592.194,183.678 592.692,184.658C595.265,189.716 596.505,195.571 597.823,201.048C597.884,201.301 598.932,206.336 598.801,206.337C598.229,206.341 596.845,203.373 596.611,202.979C594.479,199.387 592.417,195.754 590.523,192.031C586.062,183.261 582.92,173.898 579.075,164.858C576.334,158.411 572.631,152.044 570.569,145.339L569.161,140.227ZM390.677,202.14C390.495,202.359 391.758,199.848 391.971,199.479C393.125,197.485 394.382,195.552 395.642,193.624C399.575,187.606 403.656,181.712 407.749,175.805C418.862,159.768 430.765,143.897 443.534,129.133C446.561,125.633 449.743,122.55 453.286,119.577C453.667,119.257 455.906,116.92 456.483,117.136C456.828,117.265 454.637,121.906 454.506,122.201C452.051,127.726 449.482,133.321 445.804,138.153C430.009,158.903 411.034,177.126 395.203,197.957L390.677,202.14ZM531.452,103.614C531.896,103.468 535.733,110.028 535.986,110.416C539.769,116.224 547.531,123.74 549.002,130.836C549.039,131.017 547.544,129.949 547.37,129.809C546.268,128.921 545.165,128.031 544.017,127.199C543.865,127.089 542.639,126.206 542.641,126.248C542.935,131.853 548.63,139.845 550.753,145.039C555.678,157.087 559.947,169.435 565.344,181.282C567.138,185.218 568.645,191.566 571.498,194.849C571.863,195.268 571.171,193.786 571.002,193.257C570.721,192.379 570.449,191.498 570.167,190.62C569.29,187.889 568.404,185.16 567.51,182.435C564.753,174.033 562.219,165.568 559.79,157.067C559.005,154.321 558.194,151.594 557.301,148.881C557.214,148.615 555.885,144.944 556.115,144.891C557.276,144.625 560.999,152.768 561.438,153.576C565.836,161.681 569.449,170.103 572.928,178.63C573.385,179.749 575.142,186.326 576.373,186.727C577.731,187.17 576.066,183.884 575.814,182.478C575.326,179.751 574.756,177.039 574.047,174.359C573.198,171.147 572.2,167.969 571.064,164.846C565.022,148.234 556.12,132.351 546.091,117.814C542.834,113.094 539.708,107.775 535.422,103.88C534.238,102.804 527.26,97.604 529.065,99.892L531.452,103.614ZM233.908,174.526C233.678,174.388 235.783,172.03 236.239,171.463C237.959,169.326 239.687,167.205 241.324,165.003C249.221,154.383 253.424,145.694 264.721,137.945C278.463,128.518 292.78,120.037 308.56,114.549C326.824,108.196 346.165,105.835 364.251,98.829C377.74,93.603 390.555,86.62 404.198,81.84C406.774,80.937 409.365,80.076 411.96,79.228C412.233,79.139 416.929,77.639 416.964,77.922C416.993,78.155 407.104,83.347 404.454,84.696C390.763,91.663 376.981,98.219 363.946,106.396C350.536,114.807 337.461,124.093 324.537,133.234C318.27,137.666 311.691,144.067 304.301,146.586C303.46,146.873 299.458,147.705 298.98,146.269C298.655,145.295 299.821,140.179 298.369,140.46C292.794,141.539 286.715,146.806 281.746,149.503C280.565,150.145 276.863,152.745 275.375,152.298C275.039,152.197 279.129,144.045 277.584,144.56C259.61,150.552 249.578,170.507 233.208,175.963L233.908,174.526ZM535.092,53.493C535.083,53.512 538.919,55.338 539.157,55.457C541.941,56.853 544.583,58.492 547.233,60.125C554.724,64.742 561.448,70.639 567.715,76.783C569.956,78.98 572.153,81.223 574.297,83.513C574.406,83.629 576.145,85.435 576.031,85.525C575.59,85.872 571.181,82.15 570.792,81.861C564.885,77.466 559.033,72.979 552.964,68.807C550.947,67.42 548.925,66.042 546.895,64.673C545.892,63.997 543.035,61.8 543.858,62.686C549.582,68.843 558.067,73.35 564.547,78.756C579.249,91.023 592.317,104.364 602.27,120.846C606.324,127.561 610.021,134.485 614.136,141.163C614.808,142.255 617.331,147.864 618.73,148.133C618.754,148.138 618.111,146.539 618.089,146.494C617.657,145.597 617.206,144.709 616.754,143.822C615.336,141.035 613.894,138.26 612.405,135.51C608.207,127.758 603.877,120.068 599.491,112.422C596.511,107.226 593.448,102.077 590.235,97.022C578.855,79.121 563.59,51.393 539.155,52.468L535.092,53.493ZM521.387,126.672L521.179,126.716C521.284,126.569 521.349,126.571 521.387,126.672ZM504.601,30.624C506.852,30.661 510.534,32.107 512.484,32.548C520.999,34.473 530.04,37.881 537.765,41.962C540.453,43.382 544.406,47.468 547.591,47.498C548.941,47.512 547.974,45.487 547.692,44.968C546.393,42.582 544.606,40.453 542.692,38.543C537.428,33.289 530.594,30.551 523.412,29.095L504.601,30.624ZM504.601,30.624L503.784,30.691C504.026,30.64 504.301,30.62 504.601,30.624ZM435.792,1.818C436.055,1.899 442.25,3.907 443.932,4.307C449.956,5.736 455.939,7.089 461.771,9.205C468.882,11.785 475.645,15.94 480.984,21.356C482.636,23.033 484.108,25.035 485.006,27.215C485.125,27.504 486.449,30.73 486.533,30.659C489.892,27.826 486.214,17.971 484.461,15.423C477.877,5.853 463.348,2.45 452.385,2.439L435.792,1.818C435.781,1.814 435.781,1.814 435.791,1.818L435.792,1.818Z"
          style="fill: rgb(235, 214, 197)"
        />
        <path
          d="M423.618,42.895C423.181,42.714 423.037,42.659 423.37,42.812C423.429,42.839 423.513,42.867 423.618,42.895C425.136,43.525 430.192,45.678 431.221,46.007C438.959,48.478 446.076,49.536 453.729,52.426C456.407,53.438 459.068,54.499 461.781,55.418C463.225,55.908 467.532,56.333 466.113,56.892C461.283,58.793 444.012,54.041 438.408,53.415C424.547,51.867 410.366,54.201 396.904,57.498C394.699,58.037 378.779,61.829 377.882,63.597C377.827,63.706 380.054,63.354 380.158,63.332C381.547,63.032 382.933,62.72 384.322,62.421C388.351,61.554 392.391,60.783 396.44,60.018C411.398,57.193 426.329,54.466 441.221,58.819C445.258,59.999 449.159,61.689 453.103,63.146C453.158,63.166 454.098,63.466 454.088,63.514C453.997,63.933 445.912,64.797 445.256,64.946C439.999,66.14 435.132,68.525 430.439,71.127C411.642,81.548 391.959,93.097 373.189,103.709C370.562,105.194 355.426,114.297 354.506,116.412C353.987,117.605 362.161,112.315 364.271,111.196C371.066,107.595 377.924,104.113 384.734,100.539C405.227,89.783 424.78,78.891 447.798,74.572C450.568,74.053 467.426,71.031 469.515,73.293C470.856,74.744 459.857,88.216 458.73,89.648C448.846,102.216 438.33,114.288 428.256,126.704C427.415,127.741 417.308,139.373 417.372,140.032C417.377,140.087 422.094,135.467 423.352,134.165C427.018,130.368 430.654,126.542 434.334,122.758C445.248,111.536 456.502,100.941 468.875,91.341C470.634,89.976 477.601,81.901 479.972,82.325C482.024,82.691 484.925,90.892 485.773,92.475C492.312,104.674 494.752,118.173 496.468,131.783C497.018,136.145 498.234,147.584 499.127,147.86C499.306,147.916 498.439,133.978 498.128,130.024C497.226,118.534 496.935,106.824 493.933,95.635C493.008,92.184 491.711,88.848 490.404,85.528C490.302,85.269 488.561,80.736 488.8,80.741C490.102,80.767 492.424,84.435 493.171,85.336C498.044,91.212 498.887,98.602 500.992,105.808C505.375,120.808 507.904,136.803 508.357,152.461C508.648,162.502 508.3,171.295 508.915,180.967C508.844,181.177 508.794,181.322 508.771,181.387C505.735,189.68 502.887,198.222 499.374,206.322C494.713,217.07 483.773,226.134 476.791,235.38C467.156,248.142 459.601,262.376 451.369,276.041C444.901,286.779 438.228,297.411 431.351,307.892C430.929,308.533 424.939,318.314 424.326,318.044C424.319,318.041 427.504,311.658 427.719,311.234C431.599,303.549 435.699,295.985 439.745,288.387C450.508,268.177 456.396,248.608 463.953,227.247C465.138,223.898 472.836,210.443 471.285,207.022C471.276,207.002 469.662,209.186 469.574,209.323C468.422,211.112 467.405,212.986 466.358,214.837C463.292,220.258 460.125,225.547 456.748,230.782C448.979,242.825 433.176,274.111 423.465,282.155C422.985,282.552 423.741,280.94 423.891,280.335C424.355,278.458 424.697,276.553 425.152,274.674C426.64,268.523 428.561,262.427 430.689,256.469C430.757,256.278 431.639,254.323 431.36,254.18C431.079,254.035 430.018,255.484 429.893,255.628C426.069,260.043 423.246,265.394 420.388,270.452C420.135,270.901 419.89,271.353 419.641,271.804C419.384,272.272 419.125,272.739 418.871,273.209C418.61,273.694 418.353,274.181 418.096,274.668C409.373,291.218 401.741,308.563 393.833,325.52C391.395,330.746 388.08,343.828 383.086,347.356C382.952,347.451 383.118,347.028 383.168,346.872C384.289,343.367 385.54,339.891 386.809,336.438C389.579,328.905 392.326,321.361 395.27,313.895C399.169,304.01 404.075,294.087 406.296,283.643C409.585,268.182 409.514,253.681 415.252,238.537C418.484,230.009 422.349,221.781 426.502,213.667C427.971,210.797 429.496,207.959 431.024,205.121C431.732,203.806 434.639,200.958 433.162,201.183C430.884,201.53 416.855,225.528 415.09,228.421C401.293,251.024 386.609,272.761 374.801,296.549C371.866,302.46 366.728,320.053 359.837,322.912C359.305,323.133 359.111,322.506 359.039,322.09C357.932,315.741 360.011,307.872 360.798,301.597C362.635,286.961 365.983,272.585 370.562,258.574C372.601,252.332 374.92,246.197 377.1,240.007C377.163,239.825 378.144,237.488 377.66,237.343C377.368,237.255 376.468,238.538 376.329,238.695C371.25,244.402 367.125,251.527 363.296,258.092C350.518,279.996 337.981,305.072 331.382,329.649C329.388,337.074 327.995,344.621 326.569,352.17C326.077,354.777 325.546,357.38 325.159,360.005C324.955,361.392 324.777,365.517 324.46,364.151C321.741,352.443 329.462,312.115 333.204,300.138C335.177,293.822 337.664,287.701 340.143,281.572C340.374,281 344.387,272.094 344.054,271.948C343.4,271.659 338.352,280.722 337.974,281.368C331.352,292.689 326.122,304.9 321.594,317.189C320.309,320.676 319.099,324.19 317.908,327.71C317.297,329.514 316.258,335.04 316.122,333.139C315.416,323.29 323.348,269.943 327.336,258.345C329.832,251.084 333.056,244.081 335.697,236.868C335.778,236.646 336.538,235.013 336.293,234.791C336.285,234.783 332.079,241.509 331.831,241.92C328.955,246.682 326.231,251.629 323.743,256.604C311.533,281.024 305.804,309.571 291.362,332.748C290.797,333.655 290.971,331.039 290.98,330.798C291.077,328.145 291.388,325.55 291.72,322.918C292.637,315.638 293.875,308.322 295.94,301.271C296.925,297.904 298.149,294.572 298.985,291.164C299.002,291.096 299.131,290.55 298.888,290.644C294.967,292.166 291.457,303.878 289.927,307.252C282.745,323.08 276.927,339.661 269.233,355.23C267.972,357.781 258.8,374.106 258.078,374.038C257.943,374.025 258.319,373.113 258.332,373.077C259.85,368.914 261.36,364.727 262.632,360.481C265.338,351.446 267.961,342.389 270.684,333.359C278.303,308.099 280.024,280.935 288.606,256.059C291.016,249.072 294.183,242.435 297.696,235.945C299.153,233.252 300.502,230.489 301.822,227.726C301.89,227.585 302.955,225.132 302.684,225.145C300.871,225.233 282.469,250.203 280.556,252.86C259.095,282.664 238.675,312.11 226.517,346.845C222.478,358.384 217.719,369.612 213.143,380.942C211.535,384.922 209.954,388.912 208.339,392.889C208.218,393.185 205.987,398.257 205.892,398.166C205.36,397.651 211.357,377.16 212.222,374.438C219.946,350.129 222.325,325.862 228.598,301.368C230.059,295.664 231.644,289.921 233.692,284.397C234.312,282.724 237.06,275.852 237.046,275.851C235.848,275.739 231.683,283.288 231.028,284.22C224.176,293.967 219.7,305.096 215.52,316.185C214.251,319.551 212.938,322.902 211.675,326.271C211.05,327.936 210.241,332.92 209.696,331.227C207.747,325.17 211.802,313.279 213.145,307.301C217.983,285.78 223.265,262.444 232.213,242.269C235.616,234.595 239.465,227.131 243.495,219.772C243.823,219.173 249.527,209.037 249.148,208.889C248.607,208.678 247.18,210.644 246.913,210.94C240.075,218.536 233.731,226.995 227.781,235.289C210.571,259.28 183.267,303.948 174.321,331.662C170.95,342.104 167.775,352.6 164.64,363.116C163.537,366.817 162.467,370.53 161.319,374.218C160.789,375.922 160.15,380.988 159.603,379.289C157.141,371.636 163.729,357.494 165.816,350.208C172.154,328.076 174.881,305.102 182.842,283.417C185.944,274.967 194.774,263.327 195.593,254.603C195.612,254.399 195.801,253.808 195.665,253.643C195.355,253.269 190.074,259.124 189.675,259.572C187.076,262.488 168.709,291.295 171.801,280.812C180.23,252.234 197.396,223.317 214.415,199.174C219.958,191.312 225.675,183.597 232.187,176.502C232.865,175.763 242.339,166.483 241.991,166.064C240.926,164.777 229.207,174.496 228.206,175.399C214.608,187.662 201.528,200.563 187.915,212.859C174.039,225.393 158.758,239.397 150.614,256.543C138.734,281.554 134.085,309.207 121.542,334.147C116.341,344.487 110.649,357.126 100.008,362.902C91.603,367.465 78.801,366.764 69.534,365.894C60.22,365.02 76.897,350.312 78.852,348.208C92.122,333.93 108.284,320.361 118.676,303.685C128.855,287.349 133.35,264.969 140.108,247.061C148.524,224.76 161.876,201.147 174.716,180.99C181.644,170.114 189.693,159.672 198.799,150.523C200.492,148.821 209.453,142.88 209.673,140.531C209.817,139.004 206.985,142.013 205.668,142.799C202.891,144.456 200.277,146.291 197.765,148.329C190.615,154.129 183.954,160.839 177.74,167.617C158.675,188.416 143.387,210.493 121.571,228.948C115.077,234.441 108.067,239.491 101.284,244.62C99.031,246.323 96.777,247.97 94.332,249.394C93.09,250.118 89.485,252.437 90.556,251.479L62.506,274.385C51.697,296.671 44.173,320.266 40.633,344.825C38.39,360.391 36.574,380.615 48.293,393.167C56.487,401.942 75.698,407.038 79.412,419.626C84.069,435.407 83.064,453.92 84.143,470.227C84.528,476.037 83.842,485.59 90.861,487.431C93.496,488.123 96.504,488.502 99.776,488.624C99.575,488.068 100.106,486.794 100.205,486.504C101.207,483.571 102.643,480.766 103.916,477.947C109.128,466.408 114.181,454.819 118.666,442.975C125.116,425.946 130.466,408.575 134.772,390.886C136.188,385.074 137.288,373.055 143.222,369.486L148.797,360.287C148.811,360.231 148.831,360.197 148.857,360.188L148.797,360.287C148.665,360.827 149.112,363.356 149.138,363.564C149.614,367.261 150.346,370.951 151.257,374.564C153.793,384.616 157.571,393.651 155.975,404.315C154.742,412.549 151.235,420.126 148.464,427.912C142.137,445.691 135.434,463.031 120.392,475.16C115.579,479.041 110.594,482.623 105.406,485.981C104.73,486.419 102.831,488.031 101.36,488.664C113.853,488.822 129.813,485.534 143.82,481.606C151.988,474.023 158.033,465.046 163.982,455.229C168.557,447.68 173.729,440.209 177.153,432.049C181.937,420.649 184.656,408.134 188.118,396.269C190.435,388.327 192.433,380.308 194.686,372.353C194.812,371.908 196.77,365.491 197.422,365.87C198.818,366.68 198.365,372.796 198.38,374.028C198.487,382.696 196.777,391.377 195.185,399.859C189.599,429.621 175.617,458.024 153.508,478.701C158.614,477.07 163.198,475.444 166.911,474.004C174,471.253 180.796,467.651 187.482,464.047C187.806,463.872 192.836,460.863 195.706,459.182C198.662,457.142 201.664,455.162 204.652,453.162C212.679,447.418 220.507,441.467 228.274,435.374C236.095,428.893 243.774,422.232 251.783,415.983C256.751,411.522 262.353,406.794 267.885,404.774C268.421,404.515 268.961,404.271 269.507,404.044C270.749,403.527 274.293,401.957 275.641,402.906C276.518,403.521 274.642,405.608 272.737,407.391C272.381,410.623 270.881,415.004 270.693,415.625C267.686,425.522 258.612,442.823 265.881,452.514C269.663,457.556 276.699,459.664 282.567,461.026C290.15,462.787 298.095,460.117 305.707,459.825C318.465,459.337 333.634,464.488 345.105,456.158C364.447,442.112 368.919,415.216 382.947,397.008C394.016,382.641 408.039,370.618 419.508,356.555C447.831,321.825 473.596,284.755 496.465,246.252C503.624,234.199 508.11,223.309 510.659,211.376C510.79,212.366 511.692,214.375 512.879,215.674C512.989,221.445 513.213,227.231 513.493,232.989C513.02,242.412 511.815,251.691 511.223,261.221C510.305,276.018 510.808,291.249 510.642,306.088C510.355,331.681 512.867,357.224 507.311,382.467C503.905,397.937 496.973,414.025 497.106,430.01C497.192,440.271 501.431,449.719 503.557,459.639C504.364,463.408 498.185,471.133 500.469,474.179C500.74,474.539 503.028,472.135 503.197,471.969C505.958,469.262 508.739,466.566 511.424,463.784C522.768,452.03 533.481,439.617 544.184,427.281C548.608,422.182 552.833,416.924 556.873,411.515C558.148,409.809 562.019,403.288 562.277,403.288C563.298,403.288 555.144,415.937 552.368,420.048C542.092,435.273 529.771,448.862 518.551,463.361C511.586,472.362 504.942,481.821 498.862,491.436C498.418,492.138 492.536,500.959 494.442,501.239C496.293,501.511 499.321,499.391 500.776,498.447C506.372,494.817 509.65,488.967 514.275,484.224C532.491,465.547 547.879,449.667 563.754,426.893C567.407,421.654 571.596,415.524 574.675,409.925C575.086,409.179 579.237,402.145 579.89,401.928C579.904,401.923 578.102,408.011 578.023,409.434C577.784,413.725 577.157,418.39 577.019,422.687C576.551,437.185 574.961,452.613 578.995,466.618C579.888,469.721 582.299,479.514 587.169,478.493C590.764,477.739 593.15,473.081 594.74,470.203C599.674,461.27 601.806,450.827 603.855,440.933C608.387,419.055 613.564,396.633 615.159,374.293C616.32,358.042 613.829,341.828 614.641,325.577C614.654,325.317 615.048,321.874 614.8,321.812C614.695,321.786 613.573,326.425 613.51,326.697C612.152,332.528 610.97,338.4 609.756,344.262C609.634,344.847 609.049,350.62 608.423,350.828C607.71,351.066 608.677,345.358 608.677,343.743C608.677,339.008 608.47,334.305 607.969,329.595C606.812,318.721 602.91,309.232 600.292,298.76C599.328,294.907 599.824,288.213 597.828,284.886C597.27,283.957 597.9,287.052 597.976,288.133C598.135,290.389 598.319,292.644 598.483,294.9C598.951,301.331 598.512,307.552 597.627,313.934C594.713,334.943 586.593,354.539 576.594,373.066C574.376,377.177 572.259,381.316 570.207,385.512C570.06,385.813 568.666,389.372 568.367,389.372C568.276,389.372 569.297,383.45 569.361,383.08C570.116,378.742 571.21,374.452 572.132,370.148C575.831,352.885 581.547,336.582 586.249,319.623C587.4,315.47 588.53,311.244 589.231,306.987C589.318,306.457 590.109,303.562 589.654,303.106C589.64,303.092 588.163,306.426 588.068,306.659C587.133,308.93 586.13,311.17 585.138,313.416C581.462,321.745 577.266,329.792 573.274,337.97C572.951,338.632 569.658,345.499 569.658,345.499C569.658,345.499 570.337,342.45 570.736,340.941C571.538,337.912 572.28,334.865 572.999,331.815C578.808,307.187 590.997,281.494 590.997,255.986C590.997,249.673 590.251,243.37 589.685,237.09C589.654,236.739 589.217,231.366 588.945,231.411C588.547,231.478 588.507,235.628 588.48,235.99C588.13,240.696 587.428,245.343 586.767,250.012C584.654,264.929 582.054,279.647 578.17,294.213C577.326,297.378 576.369,306.452 573.443,308.541C572.768,309.023 572.255,306.246 572.206,305.95C571.667,302.714 571.697,299.319 571.878,296.053C572.314,288.216 572.947,280.414 573.887,272.62C573.992,271.756 575.417,265.382 574.617,264.742C574.514,264.66 573.319,268.296 573.253,268.528C572.511,271.123 571.875,273.748 571.297,276.384C569.802,283.2 568.094,289.91 566.126,296.603C565.67,298.152 565.379,302.478 564.201,303.656C563.452,304.405 563.865,301.563 563.704,300.515C563.564,299.607 562.462,291.051 561.854,291.051C561.227,291.051 560.869,299.286 560.817,299.891C559.962,309.809 558.909,319.725 557.169,329.531C555.925,336.546 554.337,343.504 552.897,350.479C552.375,353.009 551.904,355.552 551.501,358.103C551.445,358.46 551.015,361.688 550.941,361.688C550.092,361.688 551.367,352.747 551.692,349.591C553.021,336.658 554.672,323.734 556.069,310.804C557.147,300.835 558.036,291.001 558.036,280.963C558.036,280.362 558.112,272.028 557.962,272.028C557.671,272.028 557.066,274.847 557,275.084C556.083,278.396 555.111,281.692 554.187,285.003C553.898,286.04 553.599,287.074 553.309,288.111C553.171,288.609 553.22,289.957 552.855,289.592C552.095,288.832 553.278,280.771 553.278,279.377C553.278,269.365 552.336,259.957 551.311,250.043C551.16,248.587 551.608,240.428 550.423,239.638C550.248,239.522 548.799,245.955 548.699,246.438C547.744,251.052 546.46,255.562 545.284,260.121C539.639,281.994 538.738,306.355 538.738,328.865C538.738,328.865 538.441,296.098 537.406,286.864C536.218,276.271 533.045,266.14 530.522,255.828C527.309,242.699 524.585,229.804 520.656,216.861C519.091,211.707 517.168,206.704 515.675,201.517C515.418,200.626 515.342,198.661 514.953,197.275C514.759,193.115 514.67,188.948 514.659,184.818C514.612,167.228 513.12,152.605 512.207,136.552C511.603,125.944 507.538,115.478 505.923,104.932C504.919,98.384 503.286,92.115 499.728,86.592C499.176,85.736 495.72,81.439 496.223,80.284C496.364,79.959 497.603,80.973 497.733,81.062C501.275,83.478 504.622,86.201 507.841,89.027C514.96,95.278 520.029,102.92 525.988,110.284C528.668,113.596 529.999,113.854 532.138,117.536C532.193,117.629 535.632,121.579 535.778,121.521C536.036,121.42 531.426,112.92 531.102,112.413C525.378,103.465 518.729,94.713 511.445,86.979C509.52,84.934 507.445,83.066 505.349,81.201C505.201,81.069 502.246,78.446 502.612,78.302C510.783,75.086 533.211,87.097 539.516,91.739C548.844,98.609 556.399,108.776 563.91,117.507C573.678,128.863 584.788,139.539 592.535,152.461C598.995,163.235 602.524,175.259 607.427,186.743C612.83,199.4 618.741,211.859 624.569,224.325C626.566,228.596 628.214,233.018 630.323,237.238C630.997,238.585 631.668,239.936 632.406,241.249C632.763,241.885 633.29,243.766 633.581,243.097C634.454,241.091 631.521,235.283 630.964,233.388C628.009,223.324 623.739,213.753 620.064,203.948C614.37,188.752 609.727,173.001 601.888,158.721C587.153,131.88 563.47,106.492 541.594,85.209C533.733,77.561 525.348,69.925 514.395,67.294C509.734,66.174 504.993,65.577 500.209,65.33C499.83,65.31 495.72,65.407 495.705,64.806C495.624,61.741 509.552,55.87 512.074,55.312C512.7,55.173 519.583,53.659 519.533,53.594C516.836,50.069 498.217,50.928 493.892,51.448C492.964,51.56 483.489,53.247 483.855,52.094C487.208,41.533 499.123,34.053 509.469,32.325C514.041,31.561 518.516,31.712 523.116,31.532C523.641,31.512 527.7,31.474 527.062,30.315C525.529,27.531 519.62,27.077 517.014,26.807C507.031,25.771 495.572,27.838 487.092,33.388C483.459,35.766 481.25,38.92 479.482,42.796C478.901,44.067 478.335,45.343 477.85,46.654C477.589,47.357 477.229,49.416 476.954,48.718L475.87,48.277C469.35,40.812 458.971,35.899 450.136,32.054C428.607,22.685 405.128,16.349 381.501,17.326C371.536,17.739 361.824,19.409 352.171,21.854C351.548,22.012 344.127,23.591 344.228,24.476C344.296,25.067 349.272,24.234 349.659,24.187C355.652,23.457 361.666,22.798 367.701,22.533C383.793,21.828 400.183,22.798 415.987,26.045C426.101,28.123 435.479,32.731 445.08,36.283C448.294,37.472 452.049,39.093 455.199,40.145C456.839,40.693 460.719,42.848 460.538,42.785C453.967,40.498 440.997,42.837 434.8,43.633C432.381,43.944 425.283,43.347 423.618,42.895ZM606.538,267.54L606.098,266.841C606.255,266.48 606.4,266.95 606.538,267.54L610.006,273.049C617.006,289.1 627.879,305.659 630.257,323.22C630.855,327.64 630.859,332.227 630.84,336.681C630.838,337.226 631.121,340.268 630.489,340.581C630.269,340.691 629.921,339.393 629.889,339.289C629.389,337.633 628.999,335.946 628.571,334.27C627.449,329.874 626.334,325.476 625.217,321.079C621.961,308.25 617.13,296.354 612.551,283.981C611.136,280.155 609.531,276.416 608.181,272.565C607.737,271.297 607.283,270.032 606.837,268.765C606.74,268.488 606.641,267.98 606.538,267.54ZM614.051,253.12L615.557,254.851C619.895,269.86 625.473,284.305 628.8,299.659C629.647,303.566 629.94,307.599 629.743,311.593C629.711,312.23 629.784,314.932 628.927,315.216C628.533,315.347 628.224,313.612 628.171,313.412C627.515,310.955 627.019,308.447 626.501,305.957C624.453,296.11 623.11,286.142 620.798,276.348C619.561,271.104 617.965,265.915 616.451,260.746C615.961,259.076 615.42,257.417 614.895,255.758C614.701,255.145 614.512,254.533 614.29,253.93C614.275,253.89 613.996,253.103 614.051,253.12ZM615.662,234.046L618.045,236.601C621.28,244.161 623.792,251.723 626.536,259.472C628.347,264.587 630.733,269.707 631.436,275.128C631.875,278.518 631.56,282.106 631.196,285.491C631.139,286.026 631.131,288.223 630.517,288.527C630.247,288.661 629.95,287.01 629.918,286.87C629.526,285.109 629.221,283.327 628.87,281.557C627.932,276.829 626.996,272.096 625.893,267.403C623.954,259.159 621.83,251.004 618.991,243.011C618.194,240.769 617.415,238.515 616.589,236.284C616.461,235.938 615.542,234.429 615.662,234.046ZM513.493,232.989C513.518,233.518 513.544,234.046 513.571,234.573C513.671,236.57 512.947,241.594 514.207,243.376L513.655,222.761C513.737,226.201 513.662,229.604 513.493,232.989ZM536.721,73.326L539.365,71.933C544.691,71.463 549.214,73.806 554.162,75.438C575.912,82.608 590.247,103.464 600.476,122.874C604.343,130.213 607.278,138.002 610.449,145.655C611.502,148.198 612.569,150.735 613.633,153.274C614.095,154.377 615.884,157.281 614.875,156.639C613.981,156.07 613.228,152.988 612.793,152.077C610.823,147.959 608.767,143.875 606.673,139.819C600.315,127.499 593.358,114.355 584.024,103.978C575.294,94.272 564.273,85.88 552.866,79.59C549.258,77.601 545.483,75.847 541.582,74.507C540.981,74.3 536.922,73.607 536.721,73.326ZM511.267,41.153L519.194,44.518C524.976,46.652 530.476,51.745 536.347,53.131C537.126,53.315 542.171,53.426 542.172,52.21C542.177,44.618 527.829,39.562 522.077,39.27C519.63,39.146 517.114,39.614 514.726,40.101C513.938,40.261 513.16,40.45 512.39,40.681C512.116,40.763 511.573,41.047 511.267,41.153ZM511.267,41.153C511.085,41.217 510.988,41.217 511.08,41.074L511.267,41.153ZM400.253,6.769L391.528,7.075C400.869,8.416 409.961,11.795 419.408,12.379C424.509,12.694 429.926,10.349 435.038,9.988C437.994,9.779 440.954,9.771 443.914,9.91C444.981,9.96 446.05,10.013 447.115,10.098C447.194,10.104 448.517,10.14 448.495,10.103C447.612,8.656 441.707,7.883 440.214,7.448C431.675,4.967 423.387,3.926 414.548,4.924C411.249,5.296 407.95,5.748 404.659,6.186C403.777,6.303 400.152,6.795 400.253,6.769Z"
          style="
            fill: rgb(
              calc(var(--color_hairs_r, 183) - 93),
              calc(var(--color_hairs_g, 55) - 14),
              calc(var(--color_hairs_b, 88) - 15)
            );
          "
        />
        <g>
          <path
            d="M491.394,55.56C491.147,53.822 493.152,51.175 494.153,49.985C497.801,45.646 503.59,42.889 509.004,41.464"
            style="fill: none; stroke: black; stroke-width: 2.1px"
          />
          <path
            d="M539.393,402.527C538.945,402.249 541.962,396.461 542.222,395.93C545.746,388.752 548.912,381.41 552.027,374.047C559.442,356.522 562.184,338.032 565.698,319.457"
            style="fill: none; stroke: black; stroke-width: 2.1px"
          />
          <path
            d="M574.979,417.049C575.093,417.17 575.085,416.735 575.137,416.577C576.002,413.961 577.238,411.39 578.286,408.843C580.618,403.181 582.779,397.467 584.859,391.708C591.072,374.503 594.088,356.261 597.277,338.324"
            style="fill: none; stroke: black; stroke-width: 2.1px"
          />
          <path
            d="M355.03,363.684C355.165,363.634 355.456,361.696 355.504,361.508C357.22,354.773 358.615,347.935 360.217,341.169C365.415,319.223 375.138,297.465 385.038,277.269"
            style="fill: none; stroke: black; stroke-width: 2.1px"
          />
          <path
            d="M172.956,416.687C180.146,409.788 182.169,393.379 184.383,384.471C190.877,358.329 193.813,330.73 202.971,305.368"
            style="fill: none; stroke: black; stroke-width: 2.1px"
          />
          <path
            d="M612.132,342.508C612.82,353.746 611.011,365.149 612.048,376.56"
            style="fill: none; stroke: black; stroke-width: 2.1px"
          />
          <path
            d="M478.278,70.853C482.807,68.213 487.158,71.103 489.998,74.621C495.75,81.749 499.669,91.257 502.539,99.867C505.856,109.82 507.246,120.286 509.087,130.577C513.84,157.133 516.368,183.917 513.675,210.848"
            style="fill: none; stroke: black; stroke-width: 2.1px"
          />
          <path
            d="M468.587,69.279C452.238,55.016 401.892,88.499 388.278,96.079C314.359,137.239 247.981,186.401 214.109,266.002"
            style="fill: none; stroke: black; stroke-width: 2.1px"
          />
          <path
            d="M152.315,295.003C156.714,291.683 168.258,265.672 170.408,260.34C179.995,236.564 189.858,212.466 208.041,193.792"
            style="fill: none; stroke: black; stroke-width: 2.1px"
          />
          <path
            d="M486.579,67.194C486.579,67.194 496.908,67.96 499.631,68.825C508.773,71.731 517.493,75.519 525.981,79.973C547.987,91.522 561.909,113.508 581.198,135.827"
            style="fill: none; stroke: black; stroke-width: 2.1px"
          />
          <path
            d="M474.915,66.01C475.336,66.01 474.557,65.238 474.487,64.823C474.333,63.918 474.286,63.008 474.242,62.092C474.112,59.399 474.298,56.7 474.788,54.048C476.154,46.656 480.747,37.698 487.758,34.193"
            style="fill: none; stroke: black; stroke-width: 2.1px"
          />
          <path
            d="M379.557,9.524C379.067,9.557 380.508,9.268 380.994,9.191C382.058,9.022 383.126,8.86 384.198,8.742C387.323,8.398 390.624,8.122 393.767,8.339C403.06,8.98 412.043,12.482 421.372,12.742"
            style="fill: none; stroke: black; stroke-width: 2.1px"
          />
          <path
            d="M530.145,49.601C533.114,51.937 538.182,51.988 541.76,52.726C544.556,53.303 547.222,54.834 549.719,56.16"
            style="fill: none; stroke: black; stroke-width: 2.1px"
          />
          <path
            d="M317.872,276.637C313.207,279.422 310.339,296.084 308.812,300.808C301.116,324.615 298.02,347.314 295.78,371.953"
            style="fill: none; stroke: black; stroke-width: 2.1px"
          />
        </g>
      </g>
      <path
        d="M536.139,373.931C533.135,386.035 521.256,398.989 516.327,408.982C512.342,417.06 503.529,428.536 503.529,428.536C503.529,428.536 515.849,401.013 516.514,399.382C525.404,377.55 530.729,367.241 532.872,333.528C534.057,314.879 533.367,305.991 528.355,274.728C525.164,254.821 513.701,211.132 513.701,211.132C513.701,211.132 508.928,225.552 507.306,229.722C502.89,241.077 495.715,251.305 490.077,262.053C473.173,294.278 450.73,327.092 426.781,354.357C416.845,365.669 406.937,376.994 396.171,387.532C392.53,391.095 388.766,394.562 385.033,398.028C383.827,399.148 382.62,400.29 381.456,401.454C380.865,402.045 379.617,403.994 379.617,403.158C379.617,398.152 387.636,388.969 390.248,385.001C399.26,371.308 409.561,358.27 417.129,343.675C419.088,339.896 424.216,328.134 424.216,328.134C424.216,328.134 419.317,334.727 417.702,336.521C412.765,342.007 407.193,346.785 401.638,351.623C386.77,364.573 373.729,376.804 365.594,395.227C362.734,401.703 359.985,408.364 357.714,415.071C356.961,417.294 356.231,419.529 355.537,421.77C355.476,421.968 354.552,425.016 354.541,425.01C353.296,424.388 354.507,409.721 354.507,408.153C354.507,392.877 354.956,377.426 356.667,362.237C356.862,360.511 358.709,347 358.709,347C358.709,347 356.932,353.186 356.364,354.981C354.723,360.162 353.081,365.314 351.268,370.438C345.446,386.892 342.497,403.798 338.696,420.775C337.519,426.032 336.445,431.268 335.929,436.637C335.723,438.77 335.67,440.911 335.541,443.049C335.532,443.188 335.531,445.074 335.507,445.074C335.071,445.074 333.463,435.928 333.313,435.287C330.777,424.477 327.428,413.889 324.893,403.074C324.723,402.349 322.826,392.004 322.564,392.004C322.296,392.004 321.256,400.064 321.147,400.829C320.068,408.382 324.471,432.52 324.471,432.52C324.471,432.52 322.589,427.485 322.041,425.888C320.603,421.693 319.192,417.477 318.43,413.097C316.62,402.692 316.595,391.951 315.578,381.44C315.371,379.298 314.076,370.438 314.076,370.438C314.076,370.438 313.658,374.145 313.384,375.99C312.858,379.545 312.087,383.087 311.275,386.587C308.588,398.16 309.149,410.121 310.718,421.821C311.152,425.058 314.214,435.766 314.214,435.766C314.214,435.766 308.425,422.484 307.883,421.129C302.936,408.762 299.274,395.274 297.455,382.082C297.192,380.175 296.797,369.375 296.797,369.375C296.797,369.375 294.516,385.193 293.084,389.675C289.126,402.068 282.79,413.706 274.995,424.099C272.426,427.525 269.667,430.769 266.929,434.055C265.991,435.181 262.71,439.016 262.71,439.016C262.71,439.016 268.047,430.74 268.633,429.685C280.255,408.767 282.217,394.451 282.217,394.451C282.217,394.451 274.764,404.638 272.211,407.14C264.265,414.927 255.061,421.267 246.089,427.812C218.539,447.907 186.156,471.644 151.71,477.844C151.394,477.901 147.161,478.855 147.002,478.536C146.978,478.488 151.426,474.034 151.625,473.778C154.444,470.154 156.826,466.115 159.067,462.117C165.72,450.251 168.858,437.095 172.482,424.099C173.639,419.95 178.54,406.162 178.54,406.162C178.54,406.162 169.942,419.38 167.268,423.239C157.094,437.92 146.219,452.756 133.215,465.087C128.333,469.717 123.117,473.185 117.016,475.988C116.873,476.054 115.32,476.895 115.177,476.68C115.017,476.441 119.762,470.459 120.07,469.998C124.488,463.372 128.138,455.971 131.19,448.618C140.086,427.187 145.039,406.281 147.356,383.111C147.925,377.425 150.867,364.231 148.116,358.727C147.817,358.13 144.804,362.173 144.555,362.474C142.366,365.119 140.125,367.716 137.738,370.185C130.591,377.576 122.651,384.122 114.772,390.705C111.01,393.847 97.053,403.647 97.053,403.647C97.053,403.647 111.673,391.385 116.071,386.604C137.493,363.319 143.466,350.968 149.938,319.629C151.587,311.646 153.497,303.67 155.304,295.718C155.439,295.125 157.519,288.74 157.228,288.546C156.841,288.288 152.795,293.831 152.537,294.166C147.488,300.694 142.36,307.333 136.692,313.335C128.106,322.426 95.095,353.556 84.043,359.082C82.574,359.816 86.382,356.775 87.553,355.623C90.06,353.156 92.525,350.649 94.944,348.096C102.004,340.649 109.362,333.263 114.991,324.624C132.512,297.731 137.376,265.42 146.513,235.139C148.791,227.589 151.395,220.111 154.342,212.797C154.515,212.369 157.351,206.845 157.076,206.57C156.902,206.396 151.86,211.975 151.558,212.291C147.848,216.172 143.556,219.679 139.138,222.719C123.589,233.418 106.604,241.291 89.511,249.144C87.704,249.975 75.245,257.798 73.53,256.941C72.249,256.3 75.752,255.13 76.888,254.257C79.088,252.568 81.319,250.921 83.503,249.212C90.393,243.823 96.94,238.324 102.909,231.916C121.457,212.004 139.413,192.003 156.384,170.712C188.746,130.112 218.109,87.204 261.04,56.623C284.311,40.046 337.589,17.99 366.961,11.501C371.125,10.581 375.375,9.885 379.658,9.294C379.611,9.073 387.315,8.139 387.702,8.084C393.264,7.301 398.8,6.345 404.362,5.556C427.444,2.285 460.519,0.336 480.36,15.792C490.687,23.837 484.492,33.702 486.445,34.97C487.509,35.661 493.571,32.88 494.738,32.666C503.213,31.11 510.136,31.599 517.078,32.715C523.799,33.796 528.067,33.327 536.387,39.363C541.905,43.367 539.477,49.186 545.568,53.239C552.306,57.722 560.424,62.892 567.516,70.991C619.212,130.029 603.792,147.811 625.017,198.366C635.24,222.715 649.072,248.831 656.208,274.367C658.187,281.451 660.758,299.196 660.758,299.196C660.758,299.196 655.183,285.951 653.629,282.091C647.308,266.398 641.103,251.112 632.145,236.817C631.665,236.052 624.725,224.526 624.182,224.873C623.585,225.254 624.773,227.973 624.907,228.382C627.983,237.748 631.121,247.521 631.118,257.473C631.114,268.718 628.55,279.778 628.173,291.011C627.385,314.536 628.552,338.279 628.46,361.835C628.383,381.394 623.188,396.285 619.817,415.443C618.575,422.502 612.441,439.058 611.035,443.031C610.892,443.57 610.79,443.892 610.75,443.9C610.732,443.904 610.837,443.594 611.035,443.031C611.797,440.167 613.728,431.17 613.794,430.43C617.094,393.247 611.935,376.4 611.935,376.4C611.935,376.4 607.265,389.69 606.901,393.219C605.726,404.625 602.515,414.47 597.969,424.912C597.878,425.121 600.328,397.989 596.282,385.408C596.087,384.799 593.742,397.835 593.604,398.845C591.309,415.629 588.716,433.216 587.684,450.29C587.417,454.703 587.084,469.966 587.084,469.966C587.084,469.966 584.64,459.56 584.281,458.385C578.264,438.68 578.487,408.132 578.487,408.132C578.487,408.132 575.834,414.853 571.7,421.001C558.003,441.37 539.102,462.864 523.773,476.051C516.247,482.527 499.553,497.927 498.858,497.357C498.151,496.778 508.206,482.683 508.872,481.715C514.708,473.229 520.745,464.835 526.187,456.09C528.371,452.58 534.09,442.866 534.09,442.866L508.125,466.159C508.125,466.159 517.669,451.594 518.928,449.569C542.541,411.596 545.877,388.771 545.877,388.771C545.877,388.771 535.622,402.132 533.507,405.022C526.418,414.709 506.276,440.989 505.684,440.754C505.547,440.699 513.666,429.391 515.732,425.763C521.353,415.889 528.015,404.32 531.532,394.9C533.517,389.58 535.233,379.758 536.139,373.931C536.532,372.348 536.774,370.782 536.828,369.238C536.829,369.226 536.579,371.11 536.139,373.931ZM506.338,43.325C506.338,43.325 510.086,41.097 510.685,40.974C514.063,40.28 517.589,40.495 520.919,41.343C525.078,42.402 529.129,44.723 532.123,47.812C533.155,48.877 533.918,50.066 534.82,51.227C535.278,51.818 533.492,51.369 532.396,50.914C530.281,50.035 528.66,49.707 526.549,48.819C520.24,46.165 513.191,43.985 506.338,43.325ZM472.875,31.861C472.408,31.08 472.607,29.508 472.416,28.631C472.005,26.748 471.143,24.964 470.098,23.353C464.218,14.29 453.487,10.436 443.251,9.067C437.106,8.244 430.829,9.312 424.866,10.795C424.571,10.868 419.277,12.358 419.369,12.544C419.588,12.983 423.008,12.776 423.465,12.801C427.451,13.017 431.424,13.453 435.315,14.371C443.693,16.349 451.303,20.781 458.757,24.901C463.151,27.329 467.836,29.197 472.241,31.608L472.875,31.861Z"
        style="fill: none; stroke: black; stroke-width: 2.1px"
      />
    </g>
  </g>
</svg>
