<svg
  width="100%"
  height="100%"
  viewBox="0 0 800 800"
  xmlns="http://www.w3.org/2000/svg"
>
  <g id="hairstyles-back">
    <g id="hairstyle-5-back">
      <g>
        <path
          d="M283.716,564.487C289.715,559.601 299.957,559.198 306.789,562.158C309.48,563.325 311.978,564.836 314.245,566.699C314.443,566.86 317.468,569.59 317.499,569.559C317.87,569.188 316.633,566.408 316.506,566.024C315.35,562.51 313.887,559.105 310.517,557.374C303.634,553.84 292.07,556.119 286.248,561.109L283.716,564.487Z"
          style="
            fill: rgb(
              var(--color_hairs_r, 38),
              var(--color_hairs_g, 183),
              var(--color_hairs_b, 200)
            );
          "
        />
        <clipPath id="_clip1_hair5">
          <path
            d="M283.716,564.487C289.715,559.601 299.957,559.198 306.789,562.158C309.48,563.325 311.978,564.836 314.245,566.699C314.443,566.86 317.468,569.59 317.499,569.559C317.87,569.188 316.633,566.408 316.506,566.024C315.35,562.51 313.887,559.105 310.517,557.374C303.634,553.84 292.07,556.119 286.248,561.109L283.716,564.487Z"
          />
        </clipPath>
        <g clip-path="url(#_clip1_hair5)">
          <path
            d="M298.967,553.724C298.822,553.565 299.756,554.655 299.999,554.862C300.881,555.618 301.887,556.198 302.767,556.94C305.078,558.89 305.788,562.271 308.196,564.01C308.566,564.277 318.693,569.126 319.034,568.688C322.208,564.603 322.193,560.224 322.008,559.858C320.23,556.339 305.922,553.279 301.594,552.447"
            style="
              fill: rgb(
                calc(var(--color_hairs_r, 38) + 53),
                calc(var(--color_hairs_g, 183) - 90),
                calc(var(--color_hairs_b, 200) - 30)
              );
            "
          />
        </g>
        <path
          d="M283.716,564.487C289.715,559.601 299.957,559.198 306.789,562.158C309.48,563.325 311.978,564.836 314.245,566.699C314.443,566.86 317.468,569.59 317.499,569.559C317.87,569.188 316.633,566.408 316.506,566.024C315.35,562.51 313.887,559.105 310.517,557.374C303.634,553.84 292.07,556.119 286.248,561.109L283.716,564.487Z"
          style="fill: none; stroke: black; stroke-width: 2.1px"
        />
        <path
          d="M287.318,547.856C293.809,546.07 300.282,546.504 305.525,551.31"
          style="fill: none; stroke: black; stroke-width: 2.1px"
        />
        <path
          d="M290.794,576.812C290.586,577.041 291.097,576.268 291.292,576.028C291.675,575.555 292.107,575.13 292.547,574.713C293.783,573.541 295.093,572.434 296.501,571.476C300.869,568.503 305.711,567.191 310.923,566.843"
          style="fill: none; stroke: black; stroke-width: 2.1px"
        />
        <path
          d="M306.416,581.111C308.608,579.032 309.597,575.018 311.713,572.6"
          style="fill: none; stroke: black; stroke-width: 2.1px"
        />
      </g>
      <g transform="matrix(-1,0,0,1,799.355,0)">
        <path
          d="M283.716,564.487C289.715,559.601 299.957,559.198 306.789,562.158C309.48,563.325 311.978,564.836 314.245,566.699C314.443,566.86 317.468,569.59 317.499,569.559C317.87,569.188 316.633,566.408 316.506,566.024C315.35,562.51 313.887,559.105 310.517,557.374C303.634,553.84 292.07,556.119 286.248,561.109L283.716,564.487Z"
          style="
            fill: rgb(
              var(--color_hairs_r, 38),
              var(--color_hairs_g, 183),
              var(--color_hairs_b, 200)
            );
          "
        />
        <clipPath id="_clip2_hair5">
          <path
            d="M283.716,564.487C289.715,559.601 299.957,559.198 306.789,562.158C309.48,563.325 311.978,564.836 314.245,566.699C314.443,566.86 317.468,569.59 317.499,569.559C317.87,569.188 316.633,566.408 316.506,566.024C315.35,562.51 313.887,559.105 310.517,557.374C303.634,553.84 292.07,556.119 286.248,561.109L283.716,564.487Z"
          />
        </clipPath>
        <g clip-path="url(#_clip2_hair5)">
          <g transform="matrix(-1,0,0,1,799.355,0)">
            <path
              d="M503.538,547.979C503.68,547.585 501.438,549.576 501.186,549.857C499.737,551.466 498.339,553.27 497.289,555.166C495.365,558.642 494.02,563.641 491.058,566.343C489.277,567.968 486.746,568.989 484.545,569.877C483.37,570.351 479.181,572.431 477.956,571.268C476.772,570.143 480.623,565.631 481.176,564.851C485.623,558.568 490.897,551.863 497.753,548.103"
              style="
                fill: rgb(
                  calc(var(--color_hairs_r, 38) + 53),
                  calc(var(--color_hairs_g, 183) - 90),
                  calc(var(--color_hairs_b, 200) - 30)
                );
              "
            />
          </g>
        </g>
        <path
          d="M283.716,564.487C289.715,559.601 299.957,559.198 306.789,562.158C309.48,563.325 311.978,564.836 314.245,566.699C314.443,566.86 317.468,569.59 317.499,569.559C317.87,569.188 316.633,566.408 316.506,566.024C315.35,562.51 313.887,559.105 310.517,557.374C303.634,553.84 292.07,556.119 286.248,561.109L283.716,564.487Z"
          style="fill: none; stroke: black; stroke-width: 2.1px"
        />
        <path
          d="M287.318,547.856C293.809,546.07 300.282,546.504 305.525,551.31"
          style="fill: none; stroke: black; stroke-width: 2.1px"
        />
        <path
          d="M290.794,576.812C290.586,577.041 291.097,576.268 291.292,576.028C291.675,575.555 292.107,575.13 292.547,574.713C293.783,573.541 295.093,572.434 296.501,571.476C300.869,568.503 305.711,567.191 310.923,566.843"
          style="fill: none; stroke: black; stroke-width: 2.1px"
        />
        <path
          d="M306.416,581.111C308.608,579.032 309.597,575.018 311.713,572.6"
          style="fill: none; stroke: black; stroke-width: 2.1px"
        />
      </g>
      <g transform="matrix(1.02239,0,0,1.05274,-2.87569,-14.5073)">
        <ellipse
          cx="217.409"
          cy="174.016"
          rx="85.181"
          ry="90.328"
          style="
            fill: rgb(
              var(--color_hairs_r, 38),
              var(--color_hairs_g, 183),
              var(--color_hairs_b, 200)
            );
          "
        />
        <clipPath id="_clip3_hair5">
          <ellipse cx="217.409" cy="174.016" rx="85.181" ry="90.328" />
        </clipPath>
        <g clip-path="url(#_clip3_hair5)">
          <g transform="matrix(0.978096,0,0,0.949902,2.8127,13.7805)">
            <path
              d="M188.815,235.037C188.899,234.651 186.91,232.948 186.678,232.698C184.578,230.436 182.424,228.146 180.797,225.509C177.125,219.558 173.211,213.201 170.385,206.821C168.619,202.833 166.778,197.991 166.41,193.568C166.273,191.925 169.314,190.293 170.349,189.325C174.203,185.723 178.33,183.588 182.811,180.818C184.309,179.892 188.557,178.523 187.919,175.97C187.611,174.741 183.181,176.614 182.484,176.863C178.01,178.461 173.736,180.509 169.441,182.525C168.846,182.804 165.23,184.995 164.646,184.801C164.249,184.668 164.471,180.643 164.458,180.263C164.325,176.301 164.461,172.002 164.743,168.043C164.813,167.064 164.798,164.589 165.446,163.747C168.152,160.229 174.209,157.879 177.896,155.398C178.328,155.107 181.831,153.231 181.917,152.537C182.328,149.22 173.252,153.48 171.199,154.656C169.661,155.536 166.021,157.17 166.062,157.008C171.747,134.267 189.787,111.698 212.665,104.792C221.594,102.096 229.683,100.159 239.708,101.319C241.781,101.559 247.656,102.204 247.656,102.316C247.656,102.691 241.603,109.084 239.852,111.2C234.079,118.177 228.939,126.082 224.983,133.916C217.865,148.008 212.255,163.286 207.416,178.267C205.963,182.765 205.636,187.433 204.37,191.987C203.869,193.788 203.647,196.638 202.676,198.256C200.777,201.42 198.931,198.751 197.156,201.998C192.901,209.781 189.916,224.605 189.332,233.365"
              style="
                fill: rgb(
                  calc(var(--color_hairs_r, 38) + 53),
                  calc(var(--color_hairs_g, 183) - 90),
                  calc(var(--color_hairs_b, 200) - 30)
                );
              "
            />
          </g>
          <g transform="matrix(0.978096,0,0,0.949902,2.8127,13.7805)">
            <path
              d="M122.127,156.804C122.166,156.715 122.193,156.653 122.198,156.643C122.593,155.806 123.005,154.978 123.423,154.154C124.778,151.481 126.194,148.838 127.602,146.194C130.585,140.59 133.565,134.986 136.691,129.46C136.965,128.974 138.999,124.379 139.673,124.379C139.686,124.379 139.047,126.572 139.006,126.71C138.55,128.242 138.236,129.781 138.097,131.373C137.576,137.373 137.044,143.406 136.843,149.427C136.823,150.029 137.028,155.19 137.028,155.19C137.028,155.19 139.618,150.2 140.525,148.896C144.11,143.743 147.313,138.97 152.193,134.977C152.55,134.684 154.111,133.006 156.98,131.344C157.239,131.194 152.082,137.273 149.482,145.508C146.308,155.561 143.384,165.406 141.321,175.719C140.782,178.415 140.134,184.003 140.79,186.628C140.998,187.457 141.823,185.264 142.374,184.61C143.411,183.38 144.472,182.171 145.533,180.961C149.027,176.976 152.573,172.843 156.569,169.346C156.993,168.975 159.817,166.366 160.484,166.588C160.549,166.61 159.465,168.266 159.407,168.349C158.708,169.353 157.999,170.351 157.277,171.339C155.176,174.216 152.808,176.401 150.901,179.408C148.24,183.605 145.219,187.652 143.246,192.228C142.711,193.47 140.925,195.78 141.02,197.199C141.096,198.345 142.877,201.658 143.44,202.607C144.806,204.908 146.499,207.151 147.944,209.32C148.027,209.444 149.912,207.065 150.034,206.917C151.393,205.267 152.812,203.673 154.295,202.134C158.927,197.323 164.304,191.788 170.148,188.463C171.033,187.96 173.553,186.301 174.591,186.531C174.661,186.547 171.393,189.022 171.205,189.242C169.511,191.226 167.169,193.113 165.532,195.146C160.452,201.456 155.419,208.222 152.389,215.804C151.5,218.028 158.186,225.394 160.814,228.628C167.933,237.39 176.643,243.324 187.043,247.622C190.607,249.096 195.398,249.147 198.674,250.999C199.42,251.42 199.069,253.634 199.108,254.318C199.277,257.252 200.604,262.346 197.685,264.35C194.234,266.72 188.141,266.258 184.245,266.103C171.018,265.575 157.864,259.627 149.062,249.704C141.425,241.095 136.357,230.543 132.366,219.842C125.248,200.753 119.2,177.824 122.127,156.804ZM122.282,155.753C122.228,156.102 122.176,156.452 122.127,156.804C122.055,156.97 121.944,157.233 121.861,157.454L121.761,157.856C121.719,157.862 121.775,157.68 121.861,157.454L122.282,155.753C122.9,151.739 123.853,147.797 125.196,143.969L122.282,155.753ZM126.236,125.075C126.216,125.088 126.206,125.096 126.209,125.1L126.236,125.075C126.616,124.83 130.82,123.071 131.25,122.927C132.967,122.35 134.925,121.54 136.736,121.376C140.055,121.074 143.037,122.449 145.652,119.71C154.288,110.663 162.373,102.129 173.645,96.225C175.932,95.027 178.109,93.642 180.315,92.305C180.498,92.194 182.259,90.935 182.462,91.037C182.575,91.094 182.244,93.088 182.233,93.237C182.064,95.435 182.095,97.605 182.286,99.8C183.106,109.226 183.693,118.653 184.296,128.099C184.707,134.538 186.91,140.963 188.131,147.291C188.547,149.449 189.061,151.562 189.552,153.701C189.795,154.76 190.308,156.872 190.308,156.872C190.308,156.872 190.147,155.329 190.079,154.557C189.946,153.041 189.883,151.524 189.85,150.003C189.751,145.413 189.296,140.941 189.195,136.349C188.941,124.788 188.435,113.157 188.032,101.603C187.943,99.048 188.492,88.437 188.492,88.437C188.492,88.437 192.005,87.545 193.181,87.209C194.107,86.945 199.207,85.309 199.843,86.01C200.422,86.646 200.05,88.68 200.05,89.471C200.05,92.636 200.014,95.794 200.286,98.952C201.362,111.429 202.068,124.398 204.496,136.709C205.195,140.252 205.863,143.86 206.926,147.314C207.084,147.829 207.496,150.169 208.072,150.416C208.105,150.43 208.071,148.441 208.064,148.315C207.985,146.861 207.914,145.406 207.858,143.952C207.695,139.714 207.735,135.47 207.575,131.231C207.148,119.912 205.924,108.111 208.033,96.904C208.641,93.679 210.011,87.557 212.27,84.786C213.266,83.565 222.783,84.028 226.125,84.367C235.189,85.287 243.682,87.441 251.651,92.061C254.706,93.832 258.452,96.262 261.194,98.527C261.999,99.191 263.58,100.77 264.509,100.969C265.419,101.164 267.788,98.314 268.367,97.814C270.88,95.642 279.729,90.421 278.834,86.415C278.018,82.758 273.378,79.303 270.774,76.994C261.684,68.937 250.403,63.19 238.579,60.438C210.028,53.794 180.356,64.626 158.037,82.495C147.266,91.119 136.747,102.686 134.765,116.891L126.236,125.075Z"
              style="
                fill: rgb(
                  calc(var(--color_hairs_r, 38) + 142),
                  calc(var(--color_hairs_g, 183) + 61),
                  calc(var(--color_hairs_b, 200) + 53)
                );
              "
            />
          </g>
          <g transform="matrix(0.978096,0,0,0.949902,2.8127,13.7805)">
            <path
              d="M201.865,75.685C201.389,74.388 200.859,78.274 200.594,79.63C200.037,82.485 200.122,85.519 199.984,88.419C199.57,97.113 200.025,105.878 200.849,114.531C203.374,141.051 210.902,164.62 220.169,189.333"
              style="fill: none; stroke: black; stroke-width: 2.1px"
            />
          </g>
          <g transform="matrix(0.978096,0,0,0.949902,2.8127,13.7805)">
            <path
              d="M182.578,83.197C182.137,83.257 182.431,89.727 182.431,90.251C182.431,98.161 182.155,106.138 182.673,114.035C184.97,149.069 193.323,181.945 209.739,213.08"
              style="fill: none; stroke: black; stroke-width: 2.1px"
            />
          </g>
          <g transform="matrix(0.978096,0,0,0.949902,2.8127,13.7805)">
            <path
              d="M177.024,85.771C177.144,85.226 176.996,86.887 176.936,87.441C176.837,88.365 176.714,89.287 176.619,90.212C176.293,93.361 176.23,96.463 176.339,99.625C176.669,109.195 176.854,118.529 177.992,128.065C181.355,156.229 188.367,184.236 202.133,209.188"
              style="fill: none; stroke: black; stroke-width: 2.1px"
            />
          </g>
          <g transform="matrix(0.978096,0,0,0.949902,2.8127,13.7805)">
            <path
              d="M135.304,192.764C135.304,192.764 141.96,183.723 143.829,181.574C151.612,172.624 161.046,165.564 170.857,159.023C173.487,157.27 177.277,154.826 181.446,152.745"
              style="fill: none; stroke: black; stroke-width: 2.1px"
            />
          </g>
          <g transform="matrix(0.978096,0,0,0.949902,2.8127,13.7805)">
            <path
              d="M188.265,176.781C175.125,184.476 167.926,189.674 158.329,198.707C153.132,203.597 147.784,210.546 144.773,215.307"
              style="fill: none; stroke: black; stroke-width: 2.1px"
            />
          </g>
        </g>
        <ellipse
          cx="217.409"
          cy="174.016"
          rx="85.181"
          ry="90.328"
          style="fill: none; stroke: black; stroke-width: 2.1px"
        />
      </g>
      <g transform="matrix(-1.02239,0,0,1.05274,802.565,-14.5073)">
        <ellipse
          cx="217.409"
          cy="174.016"
          rx="85.181"
          ry="90.328"
          style="
            fill: rgb(
              var(--color_hairs_r, 38),
              var(--color_hairs_g, 183),
              var(--color_hairs_b, 200)
            );
          "
        />
        <clipPath id="_clip4_hair5">
          <ellipse cx="217.409" cy="174.016" rx="85.181" ry="90.328" />
        </clipPath>
        <g clip-path="url(#_clip4_hair5)">
          <g transform="matrix(0.978096,0,0,0.949902,2.8127,13.7805)">
            <path
              d="M188.815,235.037C188.899,234.651 186.91,232.948 186.678,232.698C184.578,230.436 182.424,228.146 180.797,225.509C177.125,219.558 173.211,213.201 170.385,206.821C168.619,202.833 166.778,197.991 166.41,193.568C166.273,191.925 169.314,190.293 170.349,189.325C174.203,185.723 178.33,183.588 182.811,180.818C184.309,179.892 188.557,178.523 187.919,175.97C187.611,174.741 183.181,176.614 182.484,176.863C178.01,178.461 173.736,180.509 169.441,182.525C168.846,182.804 165.23,184.995 164.646,184.801C164.249,184.668 164.471,180.643 164.458,180.263C164.325,176.301 164.461,172.002 164.743,168.043C164.813,167.064 164.798,164.589 165.446,163.747C168.152,160.229 174.209,157.879 177.896,155.398C178.328,155.107 181.831,153.231 181.917,152.537C182.328,149.22 173.252,153.48 171.199,154.656C169.661,155.536 166.021,157.17 166.062,157.008C171.747,134.267 189.787,111.698 212.665,104.792C221.594,102.096 229.683,100.159 239.708,101.319C241.781,101.559 247.656,102.204 247.656,102.316C247.656,102.691 241.603,109.084 239.852,111.2C234.079,118.177 228.939,126.082 224.983,133.916C217.865,148.008 212.255,163.286 207.416,178.267C205.963,182.765 205.636,187.433 204.37,191.987C203.869,193.788 203.647,196.638 202.676,198.256C200.777,201.42 198.931,198.751 197.156,201.998C192.901,209.781 189.916,224.605 189.332,233.365"
              style="
                fill: rgb(
                  calc(var(--color_hairs_r, 38) + 53),
                  calc(var(--color_hairs_g, 183) - 90),
                  calc(var(--color_hairs_b, 200) - 30)
                );
              "
            />
          </g>
          <g transform="matrix(0.978096,0,0,0.949902,2.8127,13.7805)">
            <path
              d="M122.127,156.804C122.166,156.715 122.193,156.653 122.198,156.643C122.593,155.806 123.005,154.978 123.423,154.154C124.778,151.481 126.194,148.838 127.602,146.194C130.585,140.59 133.565,134.986 136.691,129.46C136.965,128.974 138.999,124.379 139.673,124.379C139.686,124.379 139.047,126.572 139.006,126.71C138.55,128.242 138.236,129.781 138.097,131.373C137.576,137.373 137.044,143.406 136.843,149.427C136.823,150.029 137.028,155.19 137.028,155.19C137.028,155.19 139.618,150.2 140.525,148.896C144.11,143.743 147.313,138.97 152.193,134.977C152.55,134.684 154.111,133.006 156.98,131.344C157.239,131.194 152.082,137.273 149.482,145.508C146.308,155.561 143.384,165.406 141.321,175.719C140.782,178.415 140.134,184.003 140.79,186.628C140.998,187.457 141.823,185.264 142.374,184.61C143.411,183.38 144.472,182.171 145.533,180.961C149.027,176.976 152.573,172.843 156.569,169.346C156.993,168.975 159.817,166.366 160.484,166.588C160.549,166.61 159.465,168.266 159.407,168.349C158.708,169.353 157.999,170.351 157.277,171.339C155.176,174.216 152.808,176.401 150.901,179.408C148.24,183.605 145.219,187.652 143.246,192.228C142.711,193.47 140.925,195.78 141.02,197.199C141.096,198.345 142.877,201.658 143.44,202.607C144.806,204.908 146.499,207.151 147.944,209.32C148.027,209.444 149.912,207.065 150.034,206.917C151.393,205.267 152.812,203.673 154.295,202.134C158.927,197.323 164.304,191.788 170.148,188.463C171.033,187.96 173.553,186.301 174.591,186.531C174.661,186.547 171.393,189.022 171.205,189.242C169.511,191.226 167.169,193.113 165.532,195.146C160.452,201.456 155.419,208.222 152.389,215.804C151.5,218.028 158.186,225.394 160.814,228.628C167.933,237.39 176.643,243.324 187.043,247.622C190.607,249.096 195.398,249.147 198.674,250.999C199.42,251.42 199.069,253.634 199.108,254.318C199.277,257.252 200.604,262.346 197.685,264.35C194.234,266.72 188.141,266.258 184.245,266.103C171.018,265.575 157.864,259.627 149.062,249.704C141.425,241.095 136.357,230.543 132.366,219.842C125.248,200.753 119.2,177.824 122.127,156.804ZM122.282,155.753C122.228,156.102 122.176,156.452 122.127,156.804C122.055,156.97 121.944,157.233 121.861,157.454L121.761,157.856C121.719,157.862 121.775,157.68 121.861,157.454L122.282,155.753C122.9,151.739 123.853,147.797 125.196,143.969L122.282,155.753ZM126.236,125.075C126.216,125.088 126.206,125.096 126.209,125.1L126.236,125.075C126.616,124.83 130.82,123.071 131.25,122.927C132.967,122.35 134.925,121.54 136.736,121.376C140.055,121.074 143.037,122.449 145.652,119.71C154.288,110.663 162.373,102.129 173.645,96.225C175.932,95.027 178.109,93.642 180.315,92.305C180.498,92.194 182.259,90.935 182.462,91.037C182.575,91.094 182.244,93.088 182.233,93.237C182.064,95.435 182.095,97.605 182.286,99.8C183.106,109.226 183.693,118.653 184.296,128.099C184.707,134.538 186.91,140.963 188.131,147.291C188.547,149.449 189.061,151.562 189.552,153.701C189.795,154.76 190.308,156.872 190.308,156.872C190.308,156.872 190.147,155.329 190.079,154.557C189.946,153.041 189.883,151.524 189.85,150.003C189.751,145.413 189.296,140.941 189.195,136.349C188.941,124.788 188.435,113.157 188.032,101.603C187.943,99.048 188.492,88.437 188.492,88.437C188.492,88.437 192.005,87.545 193.181,87.209C194.107,86.945 199.207,85.309 199.843,86.01C200.422,86.646 200.05,88.68 200.05,89.471C200.05,92.636 200.014,95.794 200.286,98.952C201.362,111.429 202.068,124.398 204.496,136.709C205.195,140.252 205.863,143.86 206.926,147.314C207.084,147.829 207.496,150.169 208.072,150.416C208.105,150.43 208.071,148.441 208.064,148.315C207.985,146.861 207.914,145.406 207.858,143.952C207.695,139.714 207.735,135.47 207.575,131.231C207.148,119.912 205.924,108.111 208.033,96.904C208.641,93.679 210.011,87.557 212.27,84.786C213.266,83.565 222.783,84.028 226.125,84.367C235.189,85.287 243.682,87.441 251.651,92.061C254.706,93.832 258.452,96.262 261.194,98.527C261.999,99.191 263.58,100.77 264.509,100.969C265.419,101.164 267.788,98.314 268.367,97.814C270.88,95.642 279.729,90.421 278.834,86.415C278.018,82.758 273.378,79.303 270.774,76.994C261.684,68.937 250.403,63.19 238.579,60.438C210.028,53.794 180.356,64.626 158.037,82.495C147.266,91.119 136.747,102.686 134.765,116.891L126.236,125.075Z"
              style="
                fill: rgb(
                  calc(var(--color_hairs_r, 38) + 142),
                  calc(var(--color_hairs_g, 183) + 61),
                  calc(var(--color_hairs_b, 200) + 53)
                );
              "
            />
          </g>
          <g transform="matrix(0.978096,0,0,0.949902,2.8127,13.7805)">
            <path
              d="M201.865,75.685C201.389,74.388 200.859,78.274 200.594,79.63C200.037,82.485 200.122,85.519 199.984,88.419C199.57,97.113 200.025,105.878 200.849,114.531C203.374,141.051 210.902,164.62 220.169,189.333"
              style="fill: none; stroke: black; stroke-width: 2.1px"
            />
          </g>
          <g transform="matrix(0.978096,0,0,0.949902,2.8127,13.7805)">
            <path
              d="M182.578,83.197C182.137,83.257 182.431,89.727 182.431,90.251C182.431,98.161 182.155,106.138 182.673,114.035C184.97,149.069 193.323,181.945 209.739,213.08"
              style="fill: none; stroke: black; stroke-width: 2.1px"
            />
          </g>
          <g transform="matrix(0.978096,0,0,0.949902,2.8127,13.7805)">
            <path
              d="M177.024,85.771C177.144,85.226 176.996,86.887 176.936,87.441C176.837,88.365 176.714,89.287 176.619,90.212C176.293,93.361 176.23,96.463 176.339,99.625C176.669,109.195 176.854,118.529 177.992,128.065C181.355,156.229 188.367,184.236 202.133,209.188"
              style="fill: none; stroke: black; stroke-width: 2.1px"
            />
          </g>
          <g transform="matrix(0.978096,0,0,0.949902,2.8127,13.7805)">
            <path
              d="M135.304,192.764C135.304,192.764 141.96,183.723 143.829,181.574C151.612,172.624 161.046,165.564 170.857,159.023C173.487,157.27 177.277,154.826 181.446,152.745"
              style="fill: none; stroke: black; stroke-width: 2.1px"
            />
          </g>
          <g transform="matrix(0.978096,0,0,0.949902,2.8127,13.7805)">
            <path
              d="M188.265,176.781C175.125,184.476 167.926,189.674 158.329,198.707C153.132,203.597 147.784,210.546 144.773,215.307"
              style="fill: none; stroke: black; stroke-width: 2.1px"
            />
          </g>
        </g>
        <ellipse
          cx="217.409"
          cy="174.016"
          rx="85.181"
          ry="90.328"
          style="fill: none; stroke: black; stroke-width: 2.1px"
        />
      </g>
      <path
        d="M399.565,80.338C399.663,80.38 405.008,77.862 407.047,77.116C412.907,74.972 418.862,72.966 425.018,71.865C442.247,68.782 463.141,67.026 480.36,71.019C535.038,83.697 573.919,126.007 592.81,177.75C601.406,201.295 609.228,231.423 605.683,256.943C601.945,283.857 589.062,309.164 579.871,334.339C569.802,361.921 527.472,469.159 516.748,494.233C507.481,515.898 497.954,540.832 494.222,551.381C480.688,589.629 442.735,627.168 430.049,646.14C424.038,655.128 412.324,672.712 400.609,677.594L400.608,678.26C400.299,678.168 399.99,678.066 399.679,677.955C399.368,678.066 399.059,678.168 398.75,678.26L398.749,677.594C387.034,672.712 375.32,655.128 369.309,646.14C356.623,627.168 318.67,589.629 305.136,551.381C301.404,540.832 291.877,515.898 282.61,494.233C271.886,469.159 229.556,361.921 219.487,334.339C210.296,309.164 197.413,283.857 193.675,256.943C190.131,231.423 197.952,201.295 206.548,177.75C225.439,126.007 264.32,83.697 318.998,71.019C336.218,67.026 357.111,68.782 374.34,71.865C380.496,72.966 386.451,74.972 392.311,77.116C394.35,77.862 397.573,79.484 399.565,80.338Z"
        style="
          fill: rgb(
            var(--color_hairs_r, 38),
            var(--color_hairs_g, 183),
            var(--color_hairs_b, 200)
          );
        "
      />
      <clipPath id="_clip5_hair5">
        <path
          d="M399.565,80.338C399.663,80.38 405.008,77.862 407.047,77.116C412.907,74.972 418.862,72.966 425.018,71.865C442.247,68.782 463.141,67.026 480.36,71.019C535.038,83.697 573.919,126.007 592.81,177.75C601.406,201.295 609.228,231.423 605.683,256.943C601.945,283.857 589.062,309.164 579.871,334.339C569.802,361.921 527.472,469.159 516.748,494.233C507.481,515.898 497.954,540.832 494.222,551.381C480.688,589.629 442.735,627.168 430.049,646.14C424.038,655.128 412.324,672.712 400.609,677.594L400.608,678.26C400.299,678.168 399.99,678.066 399.679,677.955C399.368,678.066 399.059,678.168 398.75,678.26L398.749,677.594C387.034,672.712 375.32,655.128 369.309,646.14C356.623,627.168 318.67,589.629 305.136,551.381C301.404,540.832 291.877,515.898 282.61,494.233C271.886,469.159 229.556,361.921 219.487,334.339C210.296,309.164 197.413,283.857 193.675,256.943C190.131,231.423 197.952,201.295 206.548,177.75C225.439,126.007 264.32,83.697 318.998,71.019C336.218,67.026 357.111,68.782 374.34,71.865C380.496,72.966 386.451,74.972 392.311,77.116C394.35,77.862 397.573,79.484 399.565,80.338Z"
        />
      </clipPath>
      <g clip-path="url(#_clip5_hair5)">
        <path
          d="M236.808,317.205C231.52,316.808 227.201,315.266 223.26,312.916C222.016,312.174 220.81,311.345 219.65,310.477C219.238,310.168 218.841,309.838 218.439,309.516C218.266,309.377 217.973,308.883 217.919,309.098C217.865,309.315 218.726,310.161 218.852,310.316C219.834,311.524 220.778,312.759 221.741,313.982C225.122,318.281 229.536,321.717 233.323,325.941C234.077,326.781 237.713,330.91 238.92,330.186L236.808,317.205ZM562.685,317.205C567.973,316.808 572.292,315.266 576.233,312.916C577.477,312.174 578.683,311.345 579.843,310.477C580.255,310.168 580.652,309.838 581.054,309.516C581.227,309.377 581.52,308.883 581.574,309.098C581.628,309.315 580.767,310.161 580.641,310.316C579.659,311.524 578.714,312.759 577.752,313.982C574.37,318.281 570.064,321.478 565.681,325.08C564.628,325.946 561.671,330.09 560.465,329.366L562.685,317.205Z"
          style="
            fill: rgb(
              calc(var(--color_hairs_r, 38) + 53),
              calc(var(--color_hairs_g, 183) - 90),
              calc(var(--color_hairs_b, 200) - 30)
            );
          "
        />
        <path
          d="M502.665,513.963C502.627,513.929 502.031,515.254 502.004,515.314C501.586,516.244 501.171,517.176 500.778,518.117C498.94,522.529 497.785,527.162 496.751,531.816C494.278,542.944 489.186,554.314 488.554,565.692C488.521,566.296 489.051,564.59 489.301,564.039C489.696,563.169 490.099,562.303 490.495,561.434C491.676,558.842 492.787,556.217 493.916,553.602C497.958,544.24 502.444,535.071 506.351,525.65C507.044,523.978 511.064,515.953 506.287,517.026L502.665,513.963ZM301.305,526.437C300.8,527.141 302.923,531.975 303.194,532.896C305.344,540.206 306.319,547.485 307.89,554.949C308.015,555.542 310.093,563.111 309.797,563.229C309.335,563.414 304.687,554.737 304.371,554.175C299.516,545.544 294.472,536.649 292.343,526.871C292.09,525.71 289.792,517.051 292.593,517.751L301.305,526.437ZM400.012,72.552C400.824,71.17 401.968,69.916 403.561,68.843C411.571,63.447 422.109,61.255 431.533,60.182C450.912,57.974 470.372,59.536 489.296,64.167C527.26,73.457 565.858,91.397 592.611,120.57C616.033,146.111 629.762,179.697 634.336,213.841C635.576,223.097 636.215,232.451 636.047,241.792C635.917,249.038 635.109,256.249 633.698,263.356C630.159,281.186 622.39,297.612 612.081,312.479C606.627,320.343 599.953,328.017 590.825,331.62L574.235,328.5C573.838,328.655 574.898,327.952 575.154,327.611C575.687,326.901 576.209,326.162 576.669,325.402C578.036,323.14 579.145,320.789 580.261,318.398C583.587,311.271 585.73,304.104 587.998,296.59C595.36,272.202 610.738,245.582 599.115,219.654C598.504,218.292 595.561,215.217 595.462,215.909C594.833,220.313 595.996,226.863 596.16,231.557C596.197,232.59 596.764,235.679 595.99,236.563C595.668,236.932 593.623,233.616 593.461,233.385C592,231.309 589.72,227.42 587.201,226.371C586.37,226.025 585.313,228.356 584.501,228.645C583.653,228.948 582.178,229.744 581.465,230.238C577.628,232.894 576.66,245.996 576.637,245.451C576.596,244.462 575.38,234.338 574.936,231.143C573.934,223.926 572.416,216.845 570.749,209.759C570.557,208.942 568.632,203.565 569.261,202.936C569.317,202.88 570.701,204.319 570.813,204.424C571.157,204.748 575.858,209.061 576.329,208.186C578.517,204.123 578.348,198.405 578.093,193.945C578.009,192.484 577.862,191.022 577.721,189.566C577.711,189.468 577.389,187.281 577.487,187.281C578.133,187.281 579.418,189.543 579.74,189.97C581.745,192.626 583.863,195.148 586.255,197.463C586.533,197.731 588.162,199.868 588.561,199.801C589.143,199.704 589.325,197.074 589.422,196.645C590.125,193.551 591.986,191.743 592.217,188.153C592.506,183.686 590.366,178.37 588.152,174.679C584.131,167.977 580.76,160.307 576.654,153.624C569.416,141.841 560.586,130.252 549.844,121.356C533.83,108.094 510.692,99.469 488.957,97.248C480.012,96.334 465.203,96.745 456.216,97.527C455.346,97.602 463.711,94.521 468.242,93.564C478.793,91.336 488.888,90.407 495.837,90.371C496.332,90.368 487.97,87.942 485.385,87.421C477.489,85.83 469.306,84.261 461.288,83.621C445.647,82.374 434.443,82.342 416.41,87.509C411.872,88.809 407.343,92.497 402.962,94.249C402.696,94.356 401.612,95.274 400.625,95.634C400.449,95.75 400.24,95.79 400.012,95.775C399.784,95.79 399.575,95.75 399.399,95.634C398.412,95.274 397.328,94.356 397.062,94.249C392.681,92.497 388.152,88.809 383.614,87.509C365.581,82.342 354.377,82.374 338.736,83.621C330.718,84.261 322.536,85.83 314.639,87.421C312.054,87.942 303.692,90.368 304.187,90.371C311.136,90.407 321.231,91.336 331.782,93.564C336.313,94.521 344.678,97.602 343.808,97.527C334.821,96.745 320.012,96.334 311.067,97.248C289.332,99.469 266.194,108.094 250.18,121.356C239.438,130.252 230.608,141.841 223.37,153.624C219.264,160.307 215.894,167.977 211.872,174.679C209.658,178.37 207.519,183.686 207.807,188.153C208.038,191.743 209.899,193.551 210.602,196.645C210.699,197.074 210.881,199.704 211.463,199.801C211.862,199.868 213.491,197.731 213.769,197.463C216.161,195.148 218.279,192.626 220.284,189.97C220.606,189.543 221.891,187.281 222.537,187.281C222.635,187.281 222.313,189.468 222.303,189.566C222.162,191.022 222.015,192.484 221.931,193.945C221.676,198.405 221.507,204.123 223.695,208.186C224.166,209.061 228.867,204.748 229.211,204.424C229.323,204.319 230.707,202.88 230.763,202.936C231.392,203.565 229.467,208.942 229.275,209.759C227.608,216.845 226.09,223.926 225.088,231.143C224.644,234.338 223.428,244.462 223.387,245.451C223.364,245.996 222.396,232.894 218.559,230.238C217.846,229.744 216.371,228.948 215.523,228.645C214.711,228.356 213.654,226.025 212.823,226.371C210.304,227.42 208.024,231.309 206.563,233.385C206.401,233.616 204.356,236.932 204.034,236.563C203.26,235.679 203.828,232.59 203.864,231.557C204.028,226.863 205.191,220.313 204.562,215.909C204.463,215.217 201.52,218.292 200.909,219.654C189.286,245.582 204.664,272.202 212.026,296.59C214.294,304.104 216.437,311.271 219.763,318.398C220.879,320.789 221.988,323.14 223.355,325.402C223.815,326.162 224.337,326.901 224.87,327.611C225.126,327.952 226.186,328.655 225.789,328.5L209.199,331.62C200.071,328.017 193.397,320.343 187.943,312.479C177.634,297.612 169.865,281.186 166.326,263.356C164.915,256.249 164.107,249.038 163.977,241.792C163.809,232.451 164.448,223.097 165.688,213.841C170.262,179.697 183.991,146.111 207.413,120.57C234.166,91.397 272.765,73.457 310.728,64.167C329.652,59.536 349.112,57.974 368.491,60.182C377.915,61.255 388.453,63.447 396.463,68.843C398.056,69.916 399.2,71.17 400.012,72.552Z"
          style="
            fill: rgb(
              calc(var(--color_hairs_r, 38) + 142),
              calc(var(--color_hairs_g, 183) + 61),
              calc(var(--color_hairs_b, 200) + 53)
            );
          "
        />
      </g>
      <path
        d="M399.565,80.338C399.663,80.38 405.008,77.862 407.047,77.116C412.907,74.972 418.862,72.966 425.018,71.865C442.247,68.782 463.141,67.026 480.36,71.019C535.038,83.697 573.919,126.007 592.81,177.75C601.406,201.295 609.228,231.423 605.683,256.943C601.945,283.857 589.062,309.164 579.871,334.339C569.802,361.921 527.472,469.159 516.748,494.233C507.481,515.898 497.954,540.832 494.222,551.381C480.688,589.629 442.735,627.168 430.049,646.14C424.038,655.128 412.324,672.712 400.609,677.594L400.608,678.26C400.299,678.168 399.99,678.066 399.679,677.955C399.368,678.066 399.059,678.168 398.75,678.26L398.749,677.594C387.034,672.712 375.32,655.128 369.309,646.14C356.623,627.168 318.67,589.629 305.136,551.381C301.404,540.832 291.877,515.898 282.61,494.233C271.886,469.159 229.556,361.921 219.487,334.339C210.296,309.164 197.413,283.857 193.675,256.943C190.131,231.423 197.952,201.295 206.548,177.75C225.439,126.007 264.32,83.697 318.998,71.019C336.218,67.026 357.111,68.782 374.34,71.865C380.496,72.966 386.451,74.972 392.311,77.116C394.35,77.862 397.573,79.484 399.565,80.338Z"
        style="fill: none; stroke: black; stroke-width: 2.1px"
      />
      <g>
        <path
          d="M208.689,295.093C208.232,294.734 209.253,296.11 209.538,296.616C210.097,297.608 210.667,298.601 211.269,299.567C213.155,302.597 214.998,305.793 217.283,308.548C221.923,314.14 227.132,321.635 234.479,323.825C237.687,324.781 240.946,324.235 244.191,324.087"
          style="fill: none; stroke: black; stroke-width: 2.1px"
        />
        <path
          d="M193.58,253.248C193.461,254.154 194.662,255.994 195.007,256.762C196.509,260.101 198.286,263.277 200.161,266.416C207.409,278.552 217.731,291.536 230.568,298.112"
          style="fill: none; stroke: black; stroke-width: 2.1px"
        />
        <path
          d="M201.106,250.497C200.679,250.471 201.509,251.249 201.711,251.626C202.078,252.31 202.472,252.981 202.865,253.651C204.149,255.844 205.528,257.955 207.13,259.93C211.621,265.469 217.575,270.835 223.978,274.114"
          style="fill: none; stroke: black; stroke-width: 2.1px"
        />
        <path
          d="M212.971,242.64C212.688,242.227 213.502,243.489 213.753,243.923C214.295,244.856 214.86,245.78 215.477,246.665C216.635,248.328 220.352,254.388 222.886,254.272"
          style="fill: none; stroke: black; stroke-width: 2.1px"
        />
        <path
          d="M577.491,252.747C581.688,251.788 586.21,246.131 588.74,242.589"
          style="fill: none; stroke: black; stroke-width: 2.1px"
        />
        <path
          d="M576.716,274.43C576.592,274.322 579.641,272.132 579.786,272.026C581.742,270.597 583.645,269.108 585.504,267.554C591.077,262.897 595.204,257.003 599.433,251.189"
          style="fill: none; stroke: black; stroke-width: 2.1px"
        />
        <path
          d="M569.18,299.107C573.033,296.709 577.298,293.644 579.981,291.068C591.054,280.439 598.801,268.031 605.997,254.667"
          style="fill: none; stroke: black; stroke-width: 2.1px"
        />
        <path
          d="M556.221,324.647C556.199,324.61 557.768,324.492 557.908,324.485C559.094,324.427 560.298,324.271 561.469,324.076C565.055,323.479 568.131,321.977 571.102,319.92C579.687,313.976 585.938,304.285 591.325,295.531"
          style="fill: none; stroke: black; stroke-width: 2.1px"
        />
      </g>
    </g>
  </g>
</svg>
