<svg
  width="100%"
  height="100%"
  viewBox="0 0 800 800"
  xmlns="http://www.w3.org/2000/svg"
>
  <g transform="matrix(0.88685,0,0,0.88685,45.1133,13.2405)">
    <g id="eyes">
      <g>
        <path
          d="M464.863,374.656C464.25,375.554 462.411,376.402 461.561,377.155C458.653,379.728 456.819,382.429 455.215,385.894C454.793,386.807 453.987,388.283 454.154,389.342C454.295,390.234 456.936,391.442 457.599,391.97C461.575,395.136 465.22,397.632 470.238,398.657C485.563,401.787 503.762,408.692 518.43,399.922C525.883,395.466 532.625,388.955 538.625,382.741C540.409,380.893 544.618,377.639 543.501,374.602C542.66,372.315 539.443,371.763 537.401,371.241C531.559,369.748 525.608,368.793 519.58,368.521C512.545,368.204 505.446,368.569 498.415,368.881C487.631,369.359 475.957,369.315 465.609,372.764"
          style="fill: rgb(255, 251, 239)"
        />
        <clipPath id="_clip15_business_eyes">
          <path
            d="M464.863,374.656C464.25,375.554 462.411,376.402 461.561,377.155C458.653,379.728 456.819,382.429 455.215,385.894C454.793,386.807 453.987,388.283 454.154,389.342C454.295,390.234 456.936,391.442 457.599,391.97C461.575,395.136 465.22,397.632 470.238,398.657C485.563,401.787 503.762,408.692 518.43,399.922C525.883,395.466 532.625,388.955 538.625,382.741C540.409,380.893 544.618,377.639 543.501,374.602C542.66,372.315 539.443,371.763 537.401,371.241C531.559,369.748 525.608,368.793 519.58,368.521C512.545,368.204 505.446,368.569 498.415,368.881C487.631,369.359 475.957,369.315 465.609,372.764"
          />
        </clipPath>
        <g clip-path="url(#_clip15_business_eyes)">
          <g transform="matrix(1,0,0,1,0,-2.43828)">
            <circle
              cx="493.848"
              cy="378.945"
              r="16.412"
              style="
                fill: rgb(
                  var(--color_eyes_r, 99),
                  var(--color_eyes_g, 65),
                  var(--color_eyes_b)
                );
              "
            />
            <clipPath id="_clip16_business_eyes">
              <circle cx="493.848" cy="378.945" r="16.412" />
            </clipPath>
            <g clip-path="url(#_clip16_business_eyes)">
              <g transform="matrix(1,0,0,1,0,2.43828)">
                <path
                  d="M455.447,393.308C455.916,393.45 455.816,392.387 456.115,391.998C456.768,391.152 457.512,390.328 458.285,389.592C460.424,387.557 463.589,386.282 466.353,385.4C478.537,381.511 492.101,380.066 504.786,378.977C511.553,378.397 518.351,378.193 525.139,378.472C526.89,378.543 531.003,378.198 532.492,379.461C534.174,380.889 533.179,384.853 532.762,386.571C532.668,386.96 531.874,389.024 532.453,389.251C533.446,389.64 535.582,387.051 536.102,386.507C538.932,383.55 544.01,378.542 542.903,373.999C542.306,371.55 540.026,369.981 537.888,368.947C532.884,366.528 527.015,365.899 521.541,365.575C510.312,364.911 498.894,366.004 487.813,367.805C477.651,369.457 467.147,371.838 458.062,376.863C454.068,379.072 449.813,382.078 447.926,386.404C445.409,392.172 449.495,398.359 455.274,399.804"
                  style="
                    fill: rgb(
                      calc(var(--color_eyes_r, 99) - 29),
                      calc(var(--color_eyes_g, 65) - 25),
                      calc(var(--color_eyes_b, 28) + 1)
                    );
                  "
                />
              </g>
              <g transform="matrix(1,0,0,1,0,2.43828)">
                <path
                  d="M502.056,379.217C496.739,379.695 491.297,380.26 485.893,381.062C486.429,382.451 487.565,384.272 489.422,385.262C492.2,386.741 497.139,386.548 499.498,384.121C500.801,382.78 501.792,381.577 502.056,379.217Z"
                  style="
                    fill: rgb(
                      calc(var(--color_eyes_r, 99) + 119),
                      calc(var(--color_eyes_g, 65) + 106),
                      calc(var(--color_eyes_b, 28) + 41)
                    );
                  "
                />
              </g>
            </g>
            <circle
              cx="493.848"
              cy="378.945"
              r="16.412"
              style="fill: none; stroke: black; stroke-width: 2.1px"
            />
          </g>
          <path
            d="M455.447,393.308C455.916,393.45 455.816,392.387 456.115,391.998C456.768,391.152 457.512,390.328 458.285,389.592C460.424,387.557 463.589,386.282 466.353,385.4C478.537,381.511 492.101,380.066 504.786,378.977C511.553,378.397 518.351,378.193 525.139,378.472C526.89,378.543 531.003,378.198 532.492,379.461C534.174,380.889 533.179,384.853 532.762,386.571C532.668,386.96 531.874,389.024 532.453,389.251C533.446,389.64 535.582,387.051 536.102,386.507C538.932,383.55 544.01,378.542 542.903,373.999C542.306,371.55 540.026,369.981 537.888,368.947C532.884,366.528 527.015,365.899 521.541,365.575C510.312,364.911 498.894,366.004 487.813,367.805C477.651,369.457 467.147,371.838 458.062,376.863C454.068,379.072 449.813,382.078 447.926,386.404C445.409,392.172 449.495,398.359 455.274,399.804"
            style="fill: rgb(66, 31, 67); fill-opacity: 0.5"
          />
          <g transform="matrix(0.438789,0,0,0.438789,277.153,210.23)">
            <circle cx="493.848" cy="378.945" r="16.412" />
          </g>
          <g transform="matrix(0.212619,0,0,0.212619,401.544,295.643)">
            <circle cx="493.848" cy="378.945" r="16.412" style="fill: white" />
          </g>
        </g>
        <path
          d="M464.98,401.055C465.189,401.459 468.488,401.933 468.927,402.061C472.832,403.198 476.648,404.615 480.549,405.76C497.166,410.637 518.448,413.079 531.871,399.325"
          style="fill: none; stroke: rgb(5, 0, 0); stroke-width: 2.1px"
        />
        <path
          d="M446.886,387.71C447.492,387.199 447.845,386.574 448.286,386.103C449.635,384.659 451.313,382.992 452.86,381.764C454.78,380.239 456.758,378.706 458.85,377.422C459.022,377.316 460.919,375.945 460.919,375.945C460.919,375.945 457.746,377.015 457.539,377.082C454.624,378.025 451.712,379.085 449.006,380.534C448.775,380.658 445.916,382.043 445.916,382.043C445.916,382.043 448.432,379.579 448.646,379.397C451.2,377.236 454.345,375.677 457.385,374.331C467.952,369.652 479.791,368.349 491.214,367.626C504.309,366.797 517.444,366.564 530.563,366.404C536.733,366.329 542.025,367.301 548.384,369.079C549.742,369.459 553.597,370.511 553.734,370.911C553.893,371.38 551.02,374.18 550.15,375.172C546.301,379.56 542.466,383.645 537.927,387.306C526.808,396.274 515.402,404.854 500.436,405.126C494.449,405.235 488.348,404.141 482.535,402.89C477.23,401.748 473.182,400.449 467.936,399.032C467.025,398.786 463.751,397.89 463.197,397.31C462.885,396.983 465.564,397.251 465.738,397.283C468.199,397.744 470.941,398.33 473.383,398.912C480.105,400.514 485.389,401.93 491.813,402.709C496.623,403.293 501.498,403.625 506.073,402.912C511.633,402.045 516.688,399.485 522.245,395.382C528.695,390.62 534.067,384.028 535.417,382.375C537.143,380.263 539.329,376.836 539.212,376.256C539.112,375.757 536.576,373.924 535.021,373.516C528.39,371.777 527.061,371.862 520.415,371.48C508.486,370.794 497.25,370.278 485.813,371.49C480.534,372.05 474.753,372.173 469.75,374.042C461.693,377.052 455.875,382.177 448.878,387.016L446.886,387.71Z"
        />
        <path
          d="M443.794,373.613C443.795,374.051 444.288,372.888 444.52,372.516C445.012,371.728 445.487,370.928 445.948,370.122C447.102,368.106 448.712,364.337 448.23,361.858"
          style="fill: none; stroke: rgb(5, 0, 0); stroke-width: 2.1px"
        />
        <path
          d="M441.935,365.964C442.126,366.193 442.279,365.474 442.465,365.241C442.844,364.767 443.247,364.312 443.682,363.889C445.029,362.581 446.57,361.785 448.411,361.397C454.398,360.136 460.996,360.277 467.088,359.885C480.09,359.048 493.132,359.765 506.15,359.497C519.307,359.226 532.808,358.015 545.762,360.916"
          style="fill: none; stroke: rgb(5, 0, 0); stroke-width: 2.1px"
        />
      </g>
      <g transform="matrix(-1,0,0,1,800.291,-1.77636e-15)">
        <path
          d="M464.863,374.656C464.25,375.554 462.411,376.402 461.561,377.155C458.653,379.728 456.819,382.429 455.215,385.894C454.793,386.807 453.987,388.283 454.154,389.342C454.295,390.234 456.936,391.442 457.599,391.97C461.575,395.136 465.22,397.632 470.238,398.657C485.563,401.787 503.762,408.692 518.43,399.922C525.883,395.466 532.625,388.955 538.625,382.741C540.409,380.893 544.618,377.639 543.501,374.602C542.66,372.315 539.443,371.763 537.401,371.241C531.559,369.748 525.608,368.793 519.58,368.521C512.545,368.204 505.446,368.569 498.415,368.881C487.631,369.359 475.957,369.315 465.609,372.764"
          style="fill: rgb(255, 251, 239)"
        />
        <clipPath id="_clip17_business_eyes">
          <path
            d="M464.863,374.656C464.25,375.554 462.411,376.402 461.561,377.155C458.653,379.728 456.819,382.429 455.215,385.894C454.793,386.807 453.987,388.283 454.154,389.342C454.295,390.234 456.936,391.442 457.599,391.97C461.575,395.136 465.22,397.632 470.238,398.657C485.563,401.787 503.762,408.692 518.43,399.922C525.883,395.466 532.625,388.955 538.625,382.741C540.409,380.893 544.618,377.639 543.501,374.602C542.66,372.315 539.443,371.763 537.401,371.241C531.559,369.748 525.608,368.793 519.58,368.521C512.545,368.204 505.446,368.569 498.415,368.881C487.631,369.359 475.957,369.315 465.609,372.764"
          />
        </clipPath>
        <g clip-path="url(#_clip17_business_eyes)">
          <g transform="matrix(1,0,0,1,0,-2.43828)">
            <circle
              cx="493.848"
              cy="378.945"
              r="16.412"
              style="
                fill: rgb(
                  var(--color_eyes_r, 99),
                  var(--color_eyes_g, 65),
                  var(--color_eyes_b)
                );
              "
            />
            <clipPath id="_clip18_business_eyes">
              <circle cx="493.848" cy="378.945" r="16.412" />
            </clipPath>
            <g clip-path="url(#_clip18_business_eyes)">
              <g transform="matrix(1,0,0,1,0,2.43828)">
                <path
                  d="M455.447,393.308C455.916,393.45 455.816,392.387 456.115,391.998C456.768,391.152 457.512,390.328 458.285,389.592C460.424,387.557 463.589,386.282 466.353,385.4C478.537,381.511 492.101,380.066 504.786,378.977C511.553,378.397 518.351,378.193 525.139,378.472C526.89,378.543 531.003,378.198 532.492,379.461C534.174,380.889 533.179,384.853 532.762,386.571C532.668,386.96 531.874,389.024 532.453,389.251C533.446,389.64 535.582,387.051 536.102,386.507C538.932,383.55 544.01,378.542 542.903,373.999C542.306,371.55 540.026,369.981 537.888,368.947C532.884,366.528 527.015,365.899 521.541,365.575C510.312,364.911 498.894,366.004 487.813,367.805C477.651,369.457 467.147,371.838 458.062,376.863C454.068,379.072 449.813,382.078 447.926,386.404C445.409,392.172 449.495,398.359 455.274,399.804"
                  style="
                    fill: rgb(
                      calc(var(--color_eyes_r, 99) - 29),
                      calc(var(--color_eyes_g, 65) - 25),
                      calc(var(--color_eyes_b, 28) + 1)
                    );
                    fill-opacity: 0.5;
                  "
                />
              </g>
              <g transform="matrix(1,0,0,1,0,2.43828)">
                <path
                  d="M502.056,379.217C496.739,379.695 491.297,380.26 485.893,381.062C486.429,382.451 487.565,384.272 489.422,385.262C492.2,386.741 497.139,386.548 499.498,384.121C500.801,382.78 501.792,381.577 502.056,379.217Z"
                  style="
                    fill: rgb(
                      calc(var(--color_eyes_r, 99) + 119),
                      calc(var(--color_eyes_g, 65) + 106),
                      calc(var(--color_eyes_b, 28) + 41)
                    );
                  "
                />
              </g>
            </g>
            <circle
              cx="493.848"
              cy="378.945"
              r="16.412"
              style="fill: none; stroke: black; stroke-width: 2.1px"
            />
          </g>
          <path
            d="M455.447,393.308C455.916,393.45 455.816,392.387 456.115,391.998C456.768,391.152 457.512,390.328 458.285,389.592C460.424,387.557 463.589,386.282 466.353,385.4C478.537,381.511 492.101,380.066 504.786,378.977C511.553,378.397 518.351,378.193 525.139,378.472C526.89,378.543 531.003,378.198 532.492,379.461C534.174,380.889 533.179,384.853 532.762,386.571C532.668,386.96 531.874,389.024 532.453,389.251C533.446,389.64 535.582,387.051 536.102,386.507C538.932,383.55 544.01,378.542 542.903,373.999C542.306,371.55 540.026,369.981 537.888,368.947C532.884,366.528 527.015,365.899 521.541,365.575C510.312,364.911 498.894,366.004 487.813,367.805C477.651,369.457 467.147,371.838 458.062,376.863C454.068,379.072 449.813,382.078 447.926,386.404C445.409,392.172 449.495,398.359 455.274,399.804"
            style="fill: rgb(66, 31, 67); fill-opacity: 0.5"
          />
          <g transform="matrix(0.438789,0,0,0.438789,277.153,210.23)">
            <circle cx="493.848" cy="378.945" r="16.412" />
          </g>
          <g transform="matrix(0.212619,0,0,0.212619,376.918,295.643)">
            <circle cx="493.848" cy="378.945" r="16.412" style="fill: white" />
          </g>
        </g>
        <path
          d="M464.98,401.055C465.189,401.459 468.488,401.933 468.927,402.061C472.832,403.198 476.648,404.615 480.549,405.76C497.166,410.637 518.448,413.079 531.871,399.325"
          style="fill: none; stroke: rgb(5, 0, 0); stroke-width: 2.1px"
        />
        <path
          d="M446.886,387.71C447.492,387.199 447.845,386.574 448.286,386.103C449.635,384.659 451.313,382.992 452.86,381.764C454.78,380.239 456.758,378.706 458.85,377.422C459.022,377.316 460.919,375.945 460.919,375.945C460.919,375.945 457.746,377.015 457.539,377.082C454.624,378.025 451.712,379.085 449.006,380.534C448.775,380.658 445.916,382.043 445.916,382.043C445.916,382.043 448.432,379.579 448.646,379.397C451.2,377.236 454.345,375.677 457.385,374.331C467.952,369.652 479.791,368.349 491.214,367.626C504.309,366.797 517.444,366.564 530.563,366.404C536.733,366.329 542.025,367.301 548.384,369.079C549.742,369.459 553.597,370.511 553.734,370.911C553.893,371.38 551.02,374.18 550.15,375.172C546.301,379.56 542.466,383.645 537.927,387.306C526.808,396.274 515.402,404.854 500.436,405.126C494.449,405.235 488.348,404.141 482.535,402.89C477.23,401.748 473.182,400.449 467.936,399.032C467.025,398.786 463.751,397.89 463.197,397.31C462.885,396.983 465.564,397.251 465.738,397.283C468.199,397.744 470.941,398.33 473.383,398.912C480.105,400.514 485.389,401.93 491.813,402.709C496.623,403.293 501.498,403.625 506.073,402.912C511.633,402.045 516.688,399.485 522.245,395.382C528.695,390.62 534.067,384.028 535.417,382.375C537.143,380.263 539.329,376.836 539.212,376.256C539.112,375.757 536.576,373.924 535.021,373.516C528.39,371.777 527.061,371.862 520.415,371.48C508.486,370.794 497.25,370.278 485.813,371.49C480.534,372.05 474.753,372.173 469.75,374.042C461.693,377.052 455.875,382.177 448.878,387.016L446.886,387.71Z"
        />
        <path
          d="M443.794,373.613C443.795,374.051 444.288,372.888 444.52,372.516C445.012,371.728 445.487,370.928 445.948,370.122C447.102,368.106 448.712,364.337 448.23,361.858"
          style="fill: none; stroke: rgb(5, 0, 0); stroke-width: 2.1px"
        />
        <path
          d="M441.935,365.964C442.126,366.193 442.279,365.474 442.465,365.241C442.844,364.767 443.247,364.312 443.682,363.889C445.029,362.581 446.57,361.785 448.411,361.397C454.398,360.136 460.996,360.277 467.088,359.885C480.09,359.048 493.132,359.765 506.15,359.497C519.307,359.226 532.808,358.015 545.762,360.916"
          style="fill: none; stroke: rgb(5, 0, 0); stroke-width: 2.1px"
        />
      </g>
    </g>
    <g id="eyebrows">
      <g transform="matrix(1.12759,0,0,1.12759,-50.8692,-14.9298)">
        <path
          d="M426.66,320.805C426.648,320.787 424.749,323.67 424.653,323.838C423.438,325.954 422.334,328.155 421.432,330.423C418.645,337.432 420.709,345.556 423.278,352.397C423.839,353.891 424.604,357.649 426.733,357.784C428.683,357.907 430.864,354.232 431.762,352.984C434.778,348.79 438.956,345.179 441.043,340.423C441.712,338.898 442.192,334.979 443.899,334.226C445.579,333.484 447.727,333.43 449.521,333.141C454.5,332.337 459.476,332.119 464.515,332.009C467.052,331.954 469.592,331.897 472.124,331.724C472.324,331.711 474.485,331.623 474.309,331.163C473.976,330.287 471.605,329.909 470.882,329.707C467.284,328.703 463.566,328.274 459.874,327.788C459.461,327.734 456.483,327.948 456.678,327.348C457.174,325.817 459.27,323.952 460.333,322.817C463.799,319.119 466.403,315.828 470.578,312.965C472.158,311.882 473.812,310.918 475.407,309.86C475.615,309.722 476.778,309.111 476.703,308.762C476.616,308.36 474.446,308.93 474.236,308.973C471.272,309.579 468.335,310.308 465.397,311.026C453.518,313.929 441.616,316.947 429.938,320.588L426.66,320.805ZM373.305,320.805C373.317,320.787 375.216,323.67 375.312,323.838C376.527,325.954 377.631,328.155 378.533,330.423C381.32,337.432 379.256,345.556 376.687,352.397C376.126,353.891 375.361,357.649 373.232,357.784C371.281,357.907 369.101,354.232 368.203,352.984C365.187,348.79 361.009,345.179 358.922,340.423C358.253,338.898 357.772,334.979 356.066,334.226C354.385,333.484 352.238,333.43 350.444,333.141C345.465,332.337 340.489,332.119 335.45,332.009C332.913,331.954 330.373,331.897 327.841,331.724C327.641,331.711 325.48,331.623 325.656,331.163C325.989,330.287 328.36,329.909 329.083,329.707C332.681,328.703 336.399,328.274 340.091,327.788C340.503,327.734 343.482,327.948 343.287,327.348C342.79,325.817 340.695,323.952 339.632,322.817C336.166,319.119 333.562,315.828 329.387,312.965C327.807,311.882 326.153,310.918 324.557,309.86C324.35,309.722 323.187,309.111 323.262,308.762C323.349,308.36 325.519,308.93 325.729,308.973C328.692,309.579 331.63,310.308 334.568,311.026C346.447,313.929 358.349,316.947 370.027,320.588L373.305,320.805Z"
          style="fill: rgb(66, 31, 67); fill-opacity: 0.5"
        />
      </g>
      <path
        d="M443.779,352.344C439.857,354.702 434.418,354.854 430.672,358.1C424.103,363.793 424.112,380.014 428.756,386.826"
        style="fill: none; stroke: black; stroke-width: 2.1px"
      />
      <g transform="matrix(-1,0,0,1,798.924,-1.77636e-15)">
        <path
          d="M443.779,352.344C439.857,354.702 434.418,354.854 430.672,358.1C424.103,363.793 424.112,380.014 428.756,386.826"
          style="fill: none; stroke: black; stroke-width: 2.1px"
        />
      </g>
      <path
        d="M435.076,349.046C431.638,348.973 429.646,347.98 428.535,347.004C424.42,343.392 422.963,338.87 423.705,333.755C424.398,328.978 429.61,329.05 433.485,328.158C438.917,326.908 444.261,325.242 449.635,323.767C458.957,321.21 468.29,319.252 477.763,317.357C494.985,313.913 511.484,312.47 528.569,318.43C545.57,324.359 555.585,336.282 555.585,336.282C555.585,336.282 546.47,334.106 542.979,333.274C533.949,331.123 525.493,331.456 516.22,330.986C489.322,329.624 462.569,340.069 438.277,348.283L435.076,349.046Z"
        style="
          fill: rgb(
            calc(var(--color_eyebrows_r, 72) + 31),
            calc(var(--color_eyebrows_g, 46) + 16),
            calc(var(--color_eyebrows_b, 31) - 2)
          );
        "
      />
      <clipPath id="_clip19_business_eyes">
        <path
          d="M435.076,349.046C431.638,348.973 429.646,347.98 428.535,347.004C424.42,343.392 422.963,338.87 423.705,333.755C424.398,328.978 429.61,329.05 433.485,328.158C438.917,326.908 444.261,325.242 449.635,323.767C458.957,321.21 468.29,319.252 477.763,317.357C494.985,313.913 511.484,312.47 528.569,318.43C545.57,324.359 555.585,336.282 555.585,336.282C555.585,336.282 546.47,334.106 542.979,333.274C533.949,331.123 525.493,331.456 516.22,330.986C489.322,329.624 462.569,340.069 438.277,348.283L435.076,349.046Z"
        />
      </clipPath>
      <g clip-path="url(#_clip19_business_eyes)">
        <path
          d="M421.691,336.423C424.486,337.087 429.447,335.068 432.123,334.502C440.913,332.641 449.623,330.463 458.3,328.138C474.353,323.839 490.659,319.116 507.399,318.661C514.685,318.463 522.131,319.498 529.291,320.765C538.446,322.385 547.085,326.208 554.203,332.244C555.833,333.627 560.212,336.703 560.226,339.134C560.233,340.334 558.44,340.656 557.57,340.834C554.318,341.5 550.894,341.465 547.591,341.481C532.451,341.557 517.396,340.348 502.261,341.573C496.367,342.05 490.504,342.812 484.676,343.81C480.211,344.575 475.772,345.48 471.357,346.492C468.197,347.216 465.049,347.99 461.905,348.775C459.429,349.393 456.958,350.026 454.478,350.629C443.96,353.184 426.626,357.481 421.577,344.089C420.944,342.409 420.69,340.614 420.637,338.827"
          style="
            fill: rgb(
              var(--color_eyebrows_r, 72),
              var(--color_eyebrows_g, 46),
              var(--color_eyebrows_b, 31)
            );
          "
        />
        <path
          d="M414.984,334.771C414.673,334.56 415.724,334.628 416.096,334.57C416.863,334.449 417.628,334.376 418.402,334.328C420.668,334.186 422.933,333.94 425.191,333.708C431.669,333.043 438.046,330.257 444.269,328.471C463.944,322.826 484.68,317.654 505.149,316.149C512.039,315.642 518.925,315.743 525.811,316.278C528.624,316.497 531.458,316.89 534.284,316.845C534.52,316.841 536.623,316.882 536.547,316.367C536.373,315.172 531.458,314.538 530.672,314.37C524.426,313.032 518.052,312.178 511.705,311.503C484.667,308.628 454.234,310.04 429.608,322.747"
          style="
            fill: rgb(
              calc(var(--color_eyebrows_r, 72) + 138),
              calc(var(--color_eyebrows_g, 46) + 111),
              calc(var(--color_eyebrows_b, 31) + 45)
            );
            fill-opacity: 0.6;
          "
        />
      </g>
      <path
        d="M435.076,349.046C431.638,348.973 429.646,347.98 428.535,347.004C424.42,343.392 422.963,338.87 423.705,333.755C424.398,328.978 429.61,329.05 433.485,328.158C438.917,326.908 444.261,325.242 449.635,323.767C458.957,321.21 468.29,319.252 477.763,317.357C494.985,313.913 511.484,312.47 528.569,318.43C545.57,324.359 555.585,336.282 555.585,336.282C555.585,336.282 546.47,334.106 542.979,333.274C533.949,331.123 525.493,331.456 516.22,330.986C489.322,329.624 462.569,340.069 438.277,348.283L435.076,349.046Z"
        style="fill: none; stroke: black; stroke-width: 2.1px"
      />
      <g transform="matrix(-1,0,0,1,800.167,-1.77636e-15)">
        <path
          d="M435.076,349.046C431.638,348.973 429.646,347.98 428.535,347.004C424.42,343.392 422.963,338.87 423.705,333.755C424.398,328.978 429.61,329.05 433.485,328.158C438.917,326.908 444.261,325.242 449.635,323.767C458.957,321.21 468.29,319.252 477.763,317.357C494.985,313.913 511.484,312.47 528.569,318.43C545.57,324.359 555.585,336.282 555.585,336.282C555.585,336.282 546.47,334.106 542.979,333.274C533.949,331.123 525.493,331.456 516.22,330.986C489.322,329.624 462.569,340.069 438.277,348.283L435.076,349.046Z"
          style="
            fill: rgb(
              calc(var(--color_eyebrows_r, 72) + 31),
              calc(var(--color_eyebrows_g, 46) + 16),
              calc(var(--color_eyebrows_b, 31) - 2)
            );
          "
        />
        <clipPath id="_clip20_business_eyes">
          <path
            d="M435.076,349.046C431.638,348.973 429.646,347.98 428.535,347.004C424.42,343.392 422.963,338.87 423.705,333.755C424.398,328.978 429.61,329.05 433.485,328.158C438.917,326.908 444.261,325.242 449.635,323.767C458.957,321.21 468.29,319.252 477.763,317.357C494.985,313.913 511.484,312.47 528.569,318.43C545.57,324.359 555.585,336.282 555.585,336.282C555.585,336.282 546.47,334.106 542.979,333.274C533.949,331.123 525.493,331.456 516.22,330.986C489.322,329.624 462.569,340.069 438.277,348.283L435.076,349.046Z"
          />
        </clipPath>
        <g clip-path="url(#_clip20_business_eyes)">
          <path
            d="M421.691,336.423C424.486,337.087 429.447,335.068 432.123,334.502C440.913,332.641 449.623,330.463 458.3,328.138C474.353,323.839 490.659,319.116 507.399,318.661C514.685,318.463 522.131,319.498 529.291,320.765C538.446,322.385 547.085,326.208 554.203,332.244C555.833,333.627 560.212,336.703 560.226,339.134C560.233,340.334 558.44,340.656 557.57,340.834C554.318,341.5 550.894,341.465 547.591,341.481C532.451,341.557 517.396,340.348 502.261,341.573C496.367,342.05 490.504,342.812 484.676,343.81C480.211,344.575 475.772,345.48 471.357,346.492C468.197,347.216 465.049,347.99 461.905,348.775C459.429,349.393 456.958,350.026 454.478,350.629C443.96,353.184 426.626,357.481 421.577,344.089C420.944,342.409 420.69,340.614 420.637,338.827"
            style="
              fill: rgb(
                var(--color_eyebrows_r, 72),
                var(--color_eyebrows_g, 46),
                var(--color_eyebrows_b, 31)
              );
            "
          />
          <path
            d="M414.984,334.771C414.673,334.56 415.724,334.628 416.096,334.57C416.863,334.449 417.628,334.376 418.402,334.328C420.668,334.186 422.933,333.94 425.191,333.708C431.669,333.043 438.046,330.257 444.269,328.471C463.944,322.826 484.68,317.654 505.149,316.149C512.039,315.642 518.925,315.743 525.811,316.278C528.624,316.497 531.458,316.89 534.284,316.845C534.52,316.841 536.623,316.882 536.547,316.367C536.373,315.172 531.458,314.538 530.672,314.37C524.426,313.032 518.052,312.178 511.705,311.503C484.667,308.628 454.234,310.04 429.608,322.747"
            style="
              fill: rgb(
                calc(var(--color_eyebrows_r, 72) + 138),
                calc(var(--color_eyebrows_g, 46) + 111),
                calc(var(--color_eyebrows_b, 31) + 45)
              );
              fill-opacity: 0.6;
            "
          />
        </g>
        <path
          d="M435.076,349.046C431.638,348.973 429.646,347.98 428.535,347.004C424.42,343.392 422.963,338.87 423.705,333.755C424.398,328.978 429.61,329.05 433.485,328.158C438.917,326.908 444.261,325.242 449.635,323.767C458.957,321.21 468.29,319.252 477.763,317.357C494.985,313.913 511.484,312.47 528.569,318.43C545.57,324.359 555.585,336.282 555.585,336.282C555.585,336.282 546.47,334.106 542.979,333.274C533.949,331.123 525.493,331.456 516.22,330.986C489.322,329.624 462.569,340.069 438.277,348.283L435.076,349.046Z"
          style="fill: none; stroke: black; stroke-width: 2.1px"
        />
      </g>
    </g>
  </g>
</svg>
